G04 Layer_Physical_Order=9*
G04 Layer_Color=8388736*
%FSLAX44Y44*%
%MOMM*%
G71*
G01*
G75*
%ADD35C,0.2000*%
%ADD36C,0.5000*%
%ADD41R,4.2000X6.1500*%
%ADD43R,6.9750X4.2000*%
%ADD47C,1.1900*%
%ADD50C,1.5000*%
%ADD51C,0.8000*%
%ADD52C,0.9000*%
%ADD53C,0.6000*%
%ADD55R,1.6750X3.9000*%
%ADD56R,1.6750X5.5750*%
%ADD57R,1.6750X0.9000*%
%ADD58R,0.9000X1.6750*%
%ADD59R,1.4000X33.7300*%
%ADD60R,4.2000X6.9750*%
%ADD61R,6.4000X4.2000*%
%ADD62R,58.7500X1.1250*%
%ADD63R,58.8000X1.6000*%
%ADD64C,0.6000*%
%ADD65C,2.5000*%
%ADD66C,4.5000*%
%ADD67C,2.8000*%
%ADD70C,1.2000*%
G36*
X592298Y368859D02*
X597174Y367688D01*
X601806Y365770D01*
X606081Y363150D01*
X609894Y359894D01*
X613150Y356081D01*
X615770Y351806D01*
X617688Y347174D01*
X618859Y342299D01*
X619245Y337398D01*
X619154Y337300D01*
X619154D01*
X619252Y0D01*
X618859Y-4998D01*
X617688Y-9874D01*
X615770Y-14506D01*
X613150Y-18781D01*
X609894Y-22594D01*
X606081Y-25850D01*
X601806Y-28470D01*
X597174Y-30389D01*
X592298Y-31559D01*
X588473Y-31860D01*
X587300Y-31895D01*
X587289Y-31854D01*
X586115Y-31854D01*
X1180D01*
X11Y-31854D01*
X-1269Y-31852D01*
X-4998Y-31559D01*
X-9874Y-30389D01*
X-14506Y-28470D01*
X-18781Y-25850D01*
X-22594Y-22594D01*
X-25850Y-18781D01*
X-28470Y-14506D01*
X-30389Y-9874D01*
X-31559Y-4998D01*
X-31860Y-1173D01*
X-31895Y0D01*
X-31854Y11D01*
X-31854Y1186D01*
Y55626D01*
X-31446Y55707D01*
X-30553Y56303D01*
X-29957Y57196D01*
X-29747Y58250D01*
Y296500D01*
X-29957Y297554D01*
X-30553Y298447D01*
X-31446Y299043D01*
X-31854Y299124D01*
Y337300D01*
X-31854D01*
X-31945Y337398D01*
X-31559Y342299D01*
X-30389Y347174D01*
X-28470Y351806D01*
X-25850Y356081D01*
X-22594Y359894D01*
X-18781Y363150D01*
X-14506Y365770D01*
X-9874Y367688D01*
X-4998Y368859D01*
X-98Y369245D01*
X0Y369154D01*
Y369154D01*
X587300Y369252D01*
X592298Y368859D01*
D02*
G37*
%LPC*%
G36*
X391500Y113008D02*
X389751Y112778D01*
X388121Y112102D01*
X386721Y111028D01*
X385648Y109629D01*
X384972Y107999D01*
X384742Y106250D01*
X384972Y104501D01*
X385648Y102871D01*
X386721Y101472D01*
X388121Y100398D01*
X389751Y99722D01*
X391500Y99492D01*
X393249Y99722D01*
X394879Y100398D01*
X396278Y101472D01*
X397352Y102871D01*
X398027Y104501D01*
X398258Y106250D01*
X398027Y107999D01*
X397352Y109629D01*
X396278Y111028D01*
X394879Y112102D01*
X393249Y112778D01*
X391500Y113008D01*
D02*
G37*
G36*
X364000Y114258D02*
X362251Y114028D01*
X360621Y113352D01*
X359221Y112278D01*
X358148Y110879D01*
X357472Y109249D01*
X357242Y107500D01*
X357472Y105751D01*
X358148Y104121D01*
X359221Y102722D01*
X360621Y101648D01*
X362251Y100972D01*
X364000Y100742D01*
X365749Y100972D01*
X367379Y101648D01*
X368778Y102722D01*
X369852Y104121D01*
X370527Y105751D01*
X370758Y107500D01*
X370527Y109249D01*
X369852Y110879D01*
X368778Y112278D01*
X367379Y113352D01*
X365749Y114028D01*
X364000Y114258D01*
D02*
G37*
G36*
X540000Y117302D02*
X537971Y116898D01*
X536251Y115749D01*
X535102Y114029D01*
X534698Y112000D01*
X535102Y109971D01*
X536251Y108251D01*
X537971Y107102D01*
X540000Y106698D01*
X542029Y107102D01*
X543749Y108251D01*
X544898Y109971D01*
X545302Y112000D01*
X544898Y114029D01*
X543749Y115749D01*
X542029Y116898D01*
X540000Y117302D01*
D02*
G37*
G36*
X316500Y108552D02*
X314471Y108148D01*
X312751Y106999D01*
X311602Y105279D01*
X311198Y103250D01*
X311602Y101221D01*
X312751Y99501D01*
X314471Y98352D01*
X316500Y97948D01*
X318529Y98352D01*
X320249Y99501D01*
X321398Y101221D01*
X321802Y103250D01*
X321398Y105279D01*
X320249Y106999D01*
X318529Y108148D01*
X316500Y108552D01*
D02*
G37*
G36*
X206000Y107508D02*
X204251Y107277D01*
X202621Y106602D01*
X201222Y105528D01*
X200148Y104129D01*
X199473Y102499D01*
X199242Y100750D01*
X199473Y99001D01*
X200148Y97371D01*
X201222Y95971D01*
X202621Y94898D01*
X204251Y94222D01*
X206000Y93992D01*
X207749Y94222D01*
X209379Y94898D01*
X210779Y95971D01*
X211852Y97371D01*
X212528Y99001D01*
X212758Y100750D01*
X212528Y102499D01*
X211852Y104129D01*
X210779Y105528D01*
X209379Y106602D01*
X207749Y107277D01*
X206000Y107508D01*
D02*
G37*
G36*
X233250D02*
X231501Y107277D01*
X229871Y106602D01*
X228472Y105528D01*
X227398Y104129D01*
X226723Y102499D01*
X226492Y100750D01*
X226723Y99001D01*
X227398Y97371D01*
X228472Y95971D01*
X229871Y94898D01*
X231501Y94222D01*
X233250Y93992D01*
X234999Y94222D01*
X236629Y94898D01*
X238029Y95971D01*
X239102Y97371D01*
X239778Y99001D01*
X240008Y100750D01*
X239778Y102499D01*
X239102Y104129D01*
X238029Y105528D01*
X236629Y106602D01*
X234999Y107277D01*
X233250Y107508D01*
D02*
G37*
G36*
X276000D02*
X274251Y107277D01*
X272621Y106602D01*
X271222Y105528D01*
X270148Y104129D01*
X269473Y102499D01*
X269242Y100750D01*
X269473Y99001D01*
X270148Y97371D01*
X271222Y95971D01*
X272621Y94898D01*
X274251Y94222D01*
X276000Y93992D01*
X277749Y94222D01*
X279379Y94898D01*
X280779Y95971D01*
X281852Y97371D01*
X282528Y99001D01*
X282758Y100750D01*
X282528Y102499D01*
X281852Y104129D01*
X280779Y105528D01*
X279379Y106602D01*
X277749Y107277D01*
X276000Y107508D01*
D02*
G37*
G36*
X68750Y120302D02*
X66721Y119898D01*
X65001Y118749D01*
X63852Y117029D01*
X63448Y115000D01*
X63852Y112971D01*
X64926Y111363D01*
X64795Y110940D01*
X64299Y110193D01*
X63750Y110302D01*
X61721Y109898D01*
X60001Y108749D01*
X58852Y107029D01*
X58448Y105000D01*
X58852Y102971D01*
X60001Y101251D01*
X61721Y100102D01*
X63750Y99698D01*
X65779Y100102D01*
X67499Y101251D01*
X68648Y102971D01*
X69052Y105000D01*
X68648Y107029D01*
X67574Y108637D01*
X67705Y109060D01*
X68201Y109807D01*
X68750Y109698D01*
X70779Y110102D01*
X72499Y111251D01*
X73648Y112971D01*
X74052Y115000D01*
X73648Y117029D01*
X72499Y118749D01*
X70779Y119898D01*
X68750Y120302D01*
D02*
G37*
G36*
X190500Y130302D02*
X188471Y129898D01*
X186751Y128749D01*
X185602Y127029D01*
X185198Y125000D01*
X185602Y122971D01*
X186751Y121251D01*
X188471Y120102D01*
X190500Y119698D01*
X192529Y120102D01*
X194249Y121251D01*
X195398Y122971D01*
X195802Y125000D01*
X195398Y127029D01*
X194249Y128749D01*
X192529Y129898D01*
X190500Y130302D01*
D02*
G37*
G36*
X260500D02*
X258471Y129898D01*
X256751Y128749D01*
X255602Y127029D01*
X255198Y125000D01*
X255602Y122971D01*
X256751Y121251D01*
X258471Y120102D01*
X260500Y119698D01*
X262529Y120102D01*
X264249Y121251D01*
X265398Y122971D01*
X265802Y125000D01*
X265398Y127029D01*
X264249Y128749D01*
X262529Y129898D01*
X260500Y130302D01*
D02*
G37*
G36*
X395000Y130302D02*
X392971Y129898D01*
X391251Y128749D01*
X390102Y127029D01*
X389698Y125000D01*
X390102Y122971D01*
X391251Y121251D01*
X392971Y120102D01*
X395000Y119698D01*
X397029Y120102D01*
X398749Y121251D01*
X399898Y122971D01*
X400302Y125000D01*
X399898Y127029D01*
X398749Y128749D01*
X397029Y129898D01*
X395000Y130302D01*
D02*
G37*
G36*
X540000Y130052D02*
X537971Y129648D01*
X536251Y128499D01*
X535102Y126779D01*
X534698Y124750D01*
X535102Y122721D01*
X536251Y121001D01*
X537971Y119852D01*
X540000Y119448D01*
X542029Y119852D01*
X543749Y121001D01*
X544898Y122721D01*
X545302Y124750D01*
X544898Y126779D01*
X543749Y128499D01*
X542029Y129648D01*
X540000Y130052D01*
D02*
G37*
G36*
X512750Y123802D02*
X510721Y123398D01*
X509001Y122249D01*
X507852Y120529D01*
X507448Y118500D01*
X507852Y116471D01*
X509001Y114751D01*
X510721Y113602D01*
X512750Y113198D01*
X514779Y113602D01*
X516499Y114751D01*
X517648Y116471D01*
X518052Y118500D01*
X517648Y120529D01*
X516499Y122249D01*
X514779Y123398D01*
X512750Y123802D01*
D02*
G37*
G36*
X106094Y127718D02*
X104065Y127315D01*
X102345Y126166D01*
X101195Y124446D01*
X100792Y122417D01*
X101195Y120388D01*
X102345Y118668D01*
X104065Y117518D01*
X106094Y117115D01*
X108123Y117518D01*
X109843Y118668D01*
X110992Y120388D01*
X111396Y122417D01*
X110992Y124446D01*
X109843Y126166D01*
X108123Y127315D01*
X106094Y127718D01*
D02*
G37*
G36*
X129375D02*
X127346Y127315D01*
X125626Y126166D01*
X124477Y124446D01*
X124073Y122417D01*
X124477Y120388D01*
X125626Y118668D01*
X127346Y117518D01*
X129375Y117115D01*
X131404Y117518D01*
X133124Y118668D01*
X134273Y120388D01*
X134677Y122417D01*
X134273Y124446D01*
X133124Y126166D01*
X131404Y127315D01*
X129375Y127718D01*
D02*
G37*
G36*
X152250Y111072D02*
X149831Y110590D01*
X147780Y109220D01*
X146410Y107169D01*
X145928Y104750D01*
X146410Y102331D01*
X147780Y100280D01*
X149831Y98910D01*
X152250Y98429D01*
X154669Y98910D01*
X155580Y99518D01*
X155595Y99512D01*
X156803Y98808D01*
X157398Y97371D01*
X158471Y95971D01*
X159871Y94898D01*
X161501Y94222D01*
X163250Y93992D01*
X164999Y94222D01*
X166629Y94898D01*
X168029Y95971D01*
X169102Y97371D01*
X169778Y99001D01*
X170008Y100750D01*
X169778Y102499D01*
X169102Y104129D01*
X168029Y105528D01*
X166629Y106602D01*
X164999Y107277D01*
X163250Y107508D01*
X161501Y107277D01*
X159871Y106602D01*
X159547Y106354D01*
X158148Y106881D01*
X158090Y107169D01*
X156720Y109220D01*
X154669Y110590D01*
X152250Y111072D01*
D02*
G37*
G36*
X91750Y105258D02*
X90001Y105028D01*
X88371Y104352D01*
X86972Y103279D01*
X85898Y101879D01*
X85223Y100249D01*
X84992Y98500D01*
X85223Y96751D01*
X85898Y95121D01*
X86958Y93739D01*
Y93011D01*
X85898Y91629D01*
X85223Y89999D01*
X84992Y88250D01*
X85223Y86501D01*
X85898Y84871D01*
X86972Y83471D01*
X88371Y82398D01*
X90001Y81722D01*
X91750Y81492D01*
X93499Y81722D01*
X95129Y82398D01*
X96529Y83471D01*
X97602Y84871D01*
X98278Y86501D01*
X98508Y88250D01*
X98278Y89999D01*
X97602Y91629D01*
X96542Y93011D01*
Y93739D01*
X97602Y95121D01*
X98278Y96751D01*
X98508Y98500D01*
X98278Y100249D01*
X97602Y101879D01*
X96529Y103279D01*
X95129Y104352D01*
X93499Y105028D01*
X91750Y105258D01*
D02*
G37*
G36*
X205750Y92302D02*
X203721Y91898D01*
X202001Y90749D01*
X200852Y89029D01*
X200448Y87000D01*
X200852Y84971D01*
X202001Y83251D01*
X203721Y82102D01*
X205750Y81698D01*
X207779Y82102D01*
X209499Y83251D01*
X210648Y84971D01*
X211052Y87000D01*
X210648Y89029D01*
X209499Y90749D01*
X207779Y91898D01*
X205750Y92302D01*
D02*
G37*
G36*
X275750D02*
X273721Y91898D01*
X272001Y90749D01*
X270852Y89029D01*
X270448Y87000D01*
X270852Y84971D01*
X272001Y83251D01*
X273721Y82102D01*
X275750Y81698D01*
X277779Y82102D01*
X279499Y83251D01*
X280648Y84971D01*
X281052Y87000D01*
X280648Y89029D01*
X279499Y90749D01*
X277779Y91898D01*
X275750Y92302D01*
D02*
G37*
G36*
X593250Y91802D02*
X591221Y91398D01*
X589501Y90249D01*
X588352Y88529D01*
X587948Y86500D01*
X588352Y84471D01*
X589501Y82751D01*
X591221Y81602D01*
X593250Y81198D01*
X595279Y81602D01*
X596999Y82751D01*
X598148Y84471D01*
X598552Y86500D01*
X598148Y88529D01*
X596999Y90249D01*
X595279Y91398D01*
X593250Y91802D01*
D02*
G37*
G36*
X48250Y100302D02*
X46221Y99898D01*
X44501Y98749D01*
X43352Y97029D01*
X42948Y95000D01*
X43352Y92971D01*
X44501Y91251D01*
X46221Y90102D01*
X48250Y89698D01*
X48508Y89749D01*
X48900Y89222D01*
X49138Y88580D01*
X48102Y87029D01*
X47698Y85000D01*
X48102Y82971D01*
X49251Y81251D01*
X50971Y80102D01*
X53000Y79698D01*
X55029Y80102D01*
X56749Y81251D01*
X57898Y82971D01*
X58302Y85000D01*
X57898Y87029D01*
X56749Y88749D01*
X55029Y89898D01*
X53000Y90302D01*
X52742Y90251D01*
X52350Y90778D01*
X52112Y91420D01*
X53148Y92971D01*
X53552Y95000D01*
X53148Y97029D01*
X51999Y98749D01*
X50279Y99898D01*
X48250Y100302D01*
D02*
G37*
G36*
X366500Y90802D02*
X364471Y90398D01*
X362751Y89249D01*
X361602Y87529D01*
X361198Y85500D01*
X361602Y83471D01*
X362751Y81751D01*
X364471Y80602D01*
X366500Y80198D01*
X368529Y80602D01*
X370249Y81751D01*
X371398Y83471D01*
X371802Y85500D01*
X371398Y87529D01*
X370249Y89249D01*
X368529Y90398D01*
X366500Y90802D01*
D02*
G37*
G36*
X431500D02*
X429471Y90398D01*
X427751Y89249D01*
X426602Y87529D01*
X426198Y85500D01*
X426602Y83471D01*
X427751Y81751D01*
X429471Y80602D01*
X431500Y80198D01*
X433529Y80602D01*
X435249Y81751D01*
X436398Y83471D01*
X436802Y85500D01*
X436398Y87529D01*
X435249Y89249D01*
X433529Y90398D01*
X431500Y90802D01*
D02*
G37*
G36*
X164000Y92302D02*
X161971Y91898D01*
X160251Y90749D01*
X159102Y89029D01*
X158698Y87000D01*
X159102Y84971D01*
X160251Y83251D01*
X161971Y82102D01*
X164000Y81698D01*
X166029Y82102D01*
X167749Y83251D01*
X168898Y84971D01*
X169302Y87000D01*
X168898Y89029D01*
X167749Y90749D01*
X166029Y91898D01*
X164000Y92302D01*
D02*
G37*
G36*
X129375Y102802D02*
X127346Y102398D01*
X125626Y101249D01*
X124477Y99529D01*
X124073Y97500D01*
X124477Y95471D01*
X125626Y93751D01*
X127346Y92602D01*
X129375Y92198D01*
X131404Y92602D01*
X133124Y93751D01*
X134273Y95471D01*
X134677Y97500D01*
X134273Y99529D01*
X133124Y101249D01*
X131404Y102398D01*
X129375Y102802D01*
D02*
G37*
G36*
X521500Y106508D02*
X519751Y106278D01*
X518121Y105602D01*
X516721Y104529D01*
X515648Y103129D01*
X514972Y101499D01*
X514742Y99750D01*
X514972Y98001D01*
X515648Y96371D01*
X516721Y94972D01*
X518121Y93898D01*
X519751Y93223D01*
X521500Y92992D01*
X523249Y93223D01*
X524879Y93898D01*
X526278Y94972D01*
X527352Y96371D01*
X528027Y98001D01*
X528258Y99750D01*
X528027Y101499D01*
X527352Y103129D01*
X526278Y104529D01*
X524879Y105602D01*
X523249Y106278D01*
X521500Y106508D01*
D02*
G37*
G36*
X566000Y118322D02*
X563581Y117840D01*
X561530Y116470D01*
X560160Y114419D01*
X559678Y112000D01*
X560160Y109581D01*
X561530Y107530D01*
X562365Y106972D01*
Y105445D01*
X561280Y104720D01*
X559910Y102669D01*
X559428Y100250D01*
X559910Y97831D01*
X561280Y95780D01*
X563331Y94410D01*
X565750Y93928D01*
X568169Y94410D01*
X570220Y95780D01*
X571590Y97831D01*
X572071Y100250D01*
X571590Y102669D01*
X570220Y104720D01*
X569385Y105278D01*
Y106805D01*
X570470Y107530D01*
X571840Y109581D01*
X572321Y112000D01*
X571840Y114419D01*
X570470Y116470D01*
X568419Y117840D01*
X566000Y118322D01*
D02*
G37*
G36*
X106094Y102802D02*
X104065Y102398D01*
X102345Y101249D01*
X101195Y99529D01*
X100792Y97500D01*
X101195Y95471D01*
X102345Y93751D01*
X104065Y92602D01*
X106094Y92198D01*
X108123Y92602D01*
X109843Y93751D01*
X110992Y95471D01*
X111396Y97500D01*
X110992Y99529D01*
X109843Y101249D01*
X108123Y102398D01*
X106094Y102802D01*
D02*
G37*
G36*
X234000Y92302D02*
X231971Y91898D01*
X230251Y90749D01*
X229102Y89029D01*
X228698Y87000D01*
X229102Y84971D01*
X230251Y83251D01*
X231971Y82102D01*
X234000Y81698D01*
X236029Y82102D01*
X237749Y83251D01*
X238898Y84971D01*
X239302Y87000D01*
X238898Y89029D01*
X237749Y90749D01*
X236029Y91898D01*
X234000Y92302D01*
D02*
G37*
G36*
X-3100Y100302D02*
X-5129Y99898D01*
X-6849Y98749D01*
X-7998Y97029D01*
X-8402Y95000D01*
X-7998Y92971D01*
X-6849Y91251D01*
X-5129Y90102D01*
X-3100Y89698D01*
X-1071Y90102D01*
X649Y91251D01*
X1798Y92971D01*
X2202Y95000D01*
X1798Y97029D01*
X649Y98749D01*
X-1071Y99898D01*
X-3100Y100302D01*
D02*
G37*
G36*
X72000D02*
X69971Y99898D01*
X68251Y98749D01*
X67102Y97029D01*
X66698Y95000D01*
X67102Y92971D01*
X68251Y91251D01*
X69971Y90102D01*
X72000Y89698D01*
X74029Y90102D01*
X75749Y91251D01*
X76898Y92971D01*
X77302Y95000D01*
X76898Y97029D01*
X75749Y98749D01*
X74029Y99898D01*
X72000Y100302D01*
D02*
G37*
G36*
X276000Y158302D02*
X273971Y157898D01*
X272251Y156749D01*
X272135Y156575D01*
X270865D01*
X270749Y156749D01*
X269029Y157898D01*
X267000Y158302D01*
X264971Y157898D01*
X263251Y156749D01*
X262102Y155029D01*
X261698Y153000D01*
X262102Y150971D01*
X263251Y149251D01*
X263980Y148764D01*
Y147236D01*
X263251Y146749D01*
X263135Y146575D01*
X261865D01*
X261749Y146749D01*
X260029Y147898D01*
X258000Y148302D01*
X255971Y147898D01*
X254251Y146749D01*
X253102Y145029D01*
X252698Y143000D01*
X253102Y140971D01*
X254251Y139251D01*
X255971Y138102D01*
X258000Y137698D01*
X260029Y138102D01*
X261749Y139251D01*
X261865Y139425D01*
X263135D01*
X263251Y139251D01*
X264971Y138102D01*
X267000Y137698D01*
X269029Y138102D01*
X270749Y139251D01*
X270865Y139425D01*
X272135D01*
X272251Y139251D01*
X273971Y138102D01*
X276000Y137698D01*
X278029Y138102D01*
X279749Y139251D01*
X280898Y140971D01*
X281302Y143000D01*
X280898Y145029D01*
X279749Y146749D01*
X279020Y147236D01*
Y148764D01*
X279749Y149251D01*
X280898Y150971D01*
X281302Y153000D01*
X280898Y155029D01*
X279749Y156749D01*
X278029Y157898D01*
X276000Y158302D01*
D02*
G37*
G36*
X215750Y159008D02*
X214001Y158778D01*
X212371Y158102D01*
X211050Y157088D01*
X210289Y156731D01*
X209749Y156749D01*
X208029Y157898D01*
X206000Y158302D01*
X203971Y157898D01*
X202251Y156749D01*
X202135Y156575D01*
X200865D01*
X200749Y156749D01*
X199029Y157898D01*
X197000Y158302D01*
X194971Y157898D01*
X193251Y156749D01*
X192102Y155029D01*
X191698Y153000D01*
X192102Y150971D01*
X193251Y149251D01*
X193980Y148764D01*
Y147236D01*
X193251Y146749D01*
X193135Y146575D01*
X191865D01*
X191749Y146749D01*
X190029Y147898D01*
X188000Y148302D01*
X185971Y147898D01*
X184251Y146749D01*
X183102Y145029D01*
X182698Y143000D01*
X183102Y140971D01*
X184251Y139251D01*
X185971Y138102D01*
X188000Y137698D01*
X190029Y138102D01*
X191749Y139251D01*
X191865Y139425D01*
X193135D01*
X193251Y139251D01*
X194971Y138102D01*
X197000Y137698D01*
X199029Y138102D01*
X200749Y139251D01*
X200865Y139425D01*
X202135D01*
X202251Y139251D01*
X203971Y138102D01*
X206000Y137698D01*
X208029Y138102D01*
X209749Y139251D01*
X210898Y140971D01*
X211302Y143000D01*
X210898Y145029D01*
X209749Y146749D01*
X209663Y146806D01*
X209848Y148210D01*
X210290Y148360D01*
X210972Y147472D01*
X212371Y146398D01*
X214001Y145723D01*
X215750Y145492D01*
X217499Y145723D01*
X219129Y146398D01*
X220529Y147472D01*
X221602Y148871D01*
X222278Y150501D01*
X222508Y152250D01*
X222278Y153999D01*
X221602Y155629D01*
X220529Y157029D01*
X219129Y158102D01*
X217499Y158778D01*
X215750Y159008D01*
D02*
G37*
G36*
X460000Y180302D02*
X457971Y179898D01*
X456251Y178749D01*
X455102Y177029D01*
X454698Y175000D01*
X455102Y172971D01*
X456251Y171251D01*
X456980Y170764D01*
Y169236D01*
X456251Y168749D01*
X455102Y167029D01*
X454698Y165000D01*
X455102Y162971D01*
X456251Y161251D01*
X457971Y160102D01*
X460000Y159698D01*
X462029Y160102D01*
X463749Y161251D01*
X464898Y162971D01*
X465302Y165000D01*
X464898Y167029D01*
X463749Y168749D01*
X463020Y169236D01*
Y170764D01*
X463749Y171251D01*
X464898Y172971D01*
X465302Y175000D01*
X464898Y177029D01*
X463749Y178749D01*
X462029Y179898D01*
X460000Y180302D01*
D02*
G37*
G36*
X525000Y194821D02*
X522581Y194340D01*
X520530Y192970D01*
X519160Y190919D01*
X518679Y188500D01*
X519160Y186081D01*
X520530Y184030D01*
X522325Y182831D01*
X522435Y182300D01*
Y181950D01*
X522325Y181419D01*
X520530Y180220D01*
X519160Y178169D01*
X518679Y175750D01*
X519160Y173331D01*
X520530Y171280D01*
X521920Y170351D01*
X521779Y168918D01*
X521621Y168852D01*
X520221Y167778D01*
X519148Y166379D01*
X518473Y164749D01*
X518242Y163000D01*
X518473Y161251D01*
X519148Y159621D01*
X520221Y158222D01*
X521621Y157148D01*
X523251Y156473D01*
X525000Y156242D01*
X526749Y156473D01*
X528379Y157148D01*
X529779Y158222D01*
X530852Y159621D01*
X531527Y161251D01*
X531758Y163000D01*
X531527Y164749D01*
X530852Y166379D01*
X529779Y167778D01*
X528379Y168852D01*
X528221Y168918D01*
X528079Y170351D01*
X529470Y171280D01*
X530840Y173331D01*
X531321Y175750D01*
X530840Y178169D01*
X529470Y180220D01*
X527675Y181419D01*
X527565Y181950D01*
Y182300D01*
X527675Y182831D01*
X529470Y184030D01*
X530840Y186081D01*
X531321Y188500D01*
X530840Y190919D01*
X529470Y192970D01*
X527419Y194340D01*
X525000Y194821D01*
D02*
G37*
G36*
X476750Y162572D02*
X474331Y162090D01*
X472280Y160720D01*
X470910Y158669D01*
X470429Y156250D01*
X470910Y153831D01*
X472280Y151780D01*
X474331Y150410D01*
X476750Y149929D01*
X479169Y150410D01*
X481220Y151780D01*
X482590Y153831D01*
X483071Y156250D01*
X482590Y158669D01*
X481220Y160720D01*
X479169Y162090D01*
X476750Y162572D01*
D02*
G37*
G36*
X306000Y162552D02*
X303971Y162148D01*
X302251Y160999D01*
X301102Y159279D01*
X300698Y157250D01*
X301102Y155221D01*
X302251Y153501D01*
X303971Y152352D01*
X306000Y151948D01*
X308029Y152352D01*
X309749Y153501D01*
X310898Y155221D01*
X311302Y157250D01*
X310898Y159279D01*
X309749Y160999D01*
X308029Y162148D01*
X306000Y162552D01*
D02*
G37*
G36*
X239750Y164802D02*
X237721Y164398D01*
X236001Y163249D01*
X234852Y161529D01*
X234448Y159500D01*
X234852Y157471D01*
X236001Y155751D01*
X237721Y154602D01*
X239750Y154198D01*
X241779Y154602D01*
X243499Y155751D01*
X244648Y157471D01*
X245052Y159500D01*
X244648Y161529D01*
X243499Y163249D01*
X241779Y164398D01*
X239750Y164802D01*
D02*
G37*
G36*
X599000Y171302D02*
X596971Y170898D01*
X595251Y169749D01*
X594102Y168029D01*
X593698Y166000D01*
X594102Y163971D01*
X595251Y162251D01*
X596971Y161102D01*
X599000Y160698D01*
X601029Y161102D01*
X602749Y162251D01*
X603898Y163971D01*
X604302Y166000D01*
X603898Y168029D01*
X602749Y169749D01*
X601029Y170898D01*
X599000Y171302D01*
D02*
G37*
G36*
X421571Y184794D02*
X419542Y184391D01*
X417822Y183242D01*
X416673Y181521D01*
X416269Y179492D01*
X416673Y177464D01*
X417210Y176660D01*
X417767Y175643D01*
X417210Y174625D01*
X416673Y173821D01*
X416269Y171793D01*
X416673Y169764D01*
X417822Y168043D01*
X419542Y166894D01*
X421571Y166491D01*
X423600Y166894D01*
X425320Y168043D01*
X426470Y169764D01*
X426873Y171793D01*
X426470Y173821D01*
X425933Y174625D01*
X425376Y175643D01*
X425933Y176660D01*
X426470Y177464D01*
X426873Y179492D01*
X426470Y181521D01*
X425320Y183242D01*
X423600Y184391D01*
X421571Y184794D01*
D02*
G37*
G36*
X106094Y177552D02*
X104065Y177148D01*
X102345Y175999D01*
X101195Y174279D01*
X100792Y172250D01*
X101195Y170221D01*
X102345Y168501D01*
X104065Y167352D01*
X106094Y166948D01*
X108123Y167352D01*
X109843Y168501D01*
X110992Y170221D01*
X111396Y172250D01*
X110992Y174279D01*
X109843Y175999D01*
X108123Y177148D01*
X106094Y177552D01*
D02*
G37*
G36*
X129375D02*
X127346Y177148D01*
X125626Y175999D01*
X124477Y174279D01*
X124073Y172250D01*
X124477Y170221D01*
X125626Y168501D01*
X127346Y167352D01*
X129375Y166948D01*
X131404Y167352D01*
X133124Y168501D01*
X134273Y170221D01*
X134677Y172250D01*
X134273Y174279D01*
X133124Y175999D01*
X131404Y177148D01*
X129375Y177552D01*
D02*
G37*
G36*
X324250Y174052D02*
X322221Y173648D01*
X320501Y172499D01*
X319352Y170779D01*
X318948Y168750D01*
X319352Y166721D01*
X320501Y165001D01*
X322221Y163852D01*
X324250Y163448D01*
X326279Y163852D01*
X327999Y165001D01*
X329148Y166721D01*
X329552Y168750D01*
X329148Y170779D01*
X327999Y172499D01*
X326279Y173648D01*
X324250Y174052D01*
D02*
G37*
G36*
X161000Y173821D02*
X158581Y173340D01*
X156530Y171970D01*
X155160Y169919D01*
X154679Y167500D01*
X155160Y165081D01*
X156530Y163030D01*
X158581Y161660D01*
X161000Y161178D01*
X163419Y161660D01*
X165470Y163030D01*
X166840Y165081D01*
X167321Y167500D01*
X166840Y169919D01*
X165470Y171970D01*
X163419Y173340D01*
X161000Y173821D01*
D02*
G37*
G36*
X219250Y175008D02*
X217501Y174778D01*
X215871Y174102D01*
X214472Y173029D01*
X213398Y171629D01*
X212722Y169999D01*
X212492Y168250D01*
X212722Y166501D01*
X213398Y164871D01*
X214472Y163472D01*
X215871Y162398D01*
X217501Y161723D01*
X219250Y161492D01*
X220999Y161723D01*
X222629Y162398D01*
X224028Y163472D01*
X225102Y164871D01*
X225778Y166501D01*
X226008Y168250D01*
X225778Y169999D01*
X225102Y171629D01*
X224028Y173029D01*
X222629Y174102D01*
X220999Y174778D01*
X219250Y175008D01*
D02*
G37*
G36*
X348250Y176258D02*
X346501Y176028D01*
X344871Y175352D01*
X343471Y174279D01*
X342398Y172879D01*
X341722Y171249D01*
X341492Y169500D01*
X341722Y167751D01*
X342398Y166121D01*
X343471Y164722D01*
X344871Y163648D01*
X346501Y162973D01*
X348250Y162742D01*
X349999Y162973D01*
X351629Y163648D01*
X353028Y164722D01*
X354102Y166121D01*
X354777Y167751D01*
X355008Y169500D01*
X354777Y171249D01*
X354102Y172879D01*
X353028Y174279D01*
X351629Y175352D01*
X349999Y176028D01*
X348250Y176258D01*
D02*
G37*
G36*
X593250Y155302D02*
X591221Y154898D01*
X589501Y153749D01*
X588352Y152029D01*
X587948Y150000D01*
X588352Y147971D01*
X589501Y146251D01*
X591221Y145102D01*
X593250Y144698D01*
X595279Y145102D01*
X596999Y146251D01*
X598148Y147971D01*
X598552Y150000D01*
X598148Y152029D01*
X596999Y153749D01*
X595279Y154898D01*
X593250Y155302D01*
D02*
G37*
G36*
X540000Y142802D02*
X537971Y142398D01*
X536251Y141249D01*
X535102Y139529D01*
X534698Y137500D01*
X535102Y135471D01*
X536251Y133751D01*
X537971Y132602D01*
X540000Y132198D01*
X542029Y132602D01*
X543749Y133751D01*
X544898Y135471D01*
X545302Y137500D01*
X544898Y139529D01*
X543749Y141249D01*
X542029Y142398D01*
X540000Y142802D01*
D02*
G37*
G36*
X593250D02*
X591221Y142398D01*
X589501Y141249D01*
X588352Y139529D01*
X587948Y137500D01*
X588352Y135471D01*
X589501Y133751D01*
X591221Y132602D01*
X593250Y132198D01*
X595279Y132602D01*
X596999Y133751D01*
X598148Y135471D01*
X598552Y137500D01*
X598148Y139529D01*
X596999Y141249D01*
X595279Y142398D01*
X593250Y142802D01*
D02*
G37*
G36*
X306000Y143552D02*
X303971Y143148D01*
X302251Y141999D01*
X301102Y140279D01*
X300698Y138250D01*
X301102Y136221D01*
X302251Y134501D01*
X303971Y133352D01*
X306000Y132948D01*
X308029Y133352D01*
X309749Y134501D01*
X310898Y136221D01*
X311302Y138250D01*
X310898Y140279D01*
X309749Y141999D01*
X308029Y143148D01*
X306000Y143552D01*
D02*
G37*
G36*
X385000Y140302D02*
X382971Y139898D01*
X381251Y138749D01*
X380102Y137029D01*
X379698Y135000D01*
X380102Y132971D01*
X381251Y131251D01*
X382971Y130102D01*
X385000Y129698D01*
X387029Y130102D01*
X388749Y131251D01*
X389898Y132971D01*
X390302Y135000D01*
X389898Y137029D01*
X388749Y138749D01*
X387029Y139898D01*
X385000Y140302D01*
D02*
G37*
G36*
X566000Y156258D02*
X564251Y156027D01*
X562621Y155352D01*
X561222Y154278D01*
X560148Y152879D01*
X559473Y151249D01*
X559242Y149500D01*
X559473Y147751D01*
X560148Y146121D01*
X561222Y144721D01*
X562218Y143957D01*
X562337Y142509D01*
X561530Y141970D01*
X560160Y139919D01*
X559678Y137500D01*
X560160Y135081D01*
X561530Y133030D01*
X561549Y132462D01*
X561351Y131622D01*
X560398Y130379D01*
X559723Y128749D01*
X559492Y127000D01*
X559723Y125251D01*
X560398Y123621D01*
X561471Y122221D01*
X562871Y121148D01*
X564501Y120472D01*
X566250Y120242D01*
X567999Y120472D01*
X569629Y121148D01*
X571029Y122221D01*
X572102Y123621D01*
X572777Y125251D01*
X573008Y127000D01*
X572777Y128749D01*
X572102Y130379D01*
X571029Y131778D01*
X570444Y132227D01*
X570470Y133030D01*
X571840Y135081D01*
X572321Y137500D01*
X571840Y139919D01*
X570470Y141970D01*
X569663Y142509D01*
X569782Y143957D01*
X570779Y144721D01*
X571852Y146121D01*
X572528Y147751D01*
X572758Y149500D01*
X572528Y151249D01*
X571852Y152879D01*
X570779Y154278D01*
X569379Y155352D01*
X567749Y156027D01*
X566000Y156258D01*
D02*
G37*
G36*
X303750Y131552D02*
X301721Y131148D01*
X300001Y129999D01*
X298852Y128279D01*
X298448Y126250D01*
X298852Y124221D01*
X300001Y122501D01*
X301721Y121352D01*
X303750Y120948D01*
X305779Y121352D01*
X307499Y122501D01*
X308648Y124221D01*
X309052Y126250D01*
X308648Y128279D01*
X307499Y129999D01*
X305779Y131148D01*
X303750Y131552D01*
D02*
G37*
G36*
X334250D02*
X332221Y131148D01*
X330501Y129999D01*
X330014Y129270D01*
X328486D01*
X327999Y129999D01*
X326279Y131148D01*
X324250Y131552D01*
X322221Y131148D01*
X320501Y129999D01*
X319352Y128279D01*
X318948Y126250D01*
X319352Y124221D01*
X320501Y122501D01*
X322221Y121352D01*
X324250Y120948D01*
X326279Y121352D01*
X327999Y122501D01*
X328486Y123230D01*
X330014D01*
X330501Y122501D01*
X332221Y121352D01*
X334250Y120948D01*
X336279Y121352D01*
X337999Y122501D01*
X339148Y124221D01*
X339552Y126250D01*
X339148Y128279D01*
X337999Y129999D01*
X336279Y131148D01*
X334250Y131552D01*
D02*
G37*
G36*
X332000Y162552D02*
X329971Y162148D01*
X328251Y160999D01*
X327102Y159279D01*
X326698Y157250D01*
X327102Y155221D01*
X328251Y153501D01*
X328799Y153135D01*
Y151865D01*
X328251Y151499D01*
X327102Y149779D01*
X326698Y147750D01*
X327102Y145721D01*
X328251Y144001D01*
X328799Y143635D01*
Y142365D01*
X328251Y141999D01*
X327102Y140279D01*
X326698Y138250D01*
X327102Y136221D01*
X328251Y134501D01*
X329971Y133352D01*
X332000Y132948D01*
X334029Y133352D01*
X335749Y134501D01*
X336898Y136221D01*
X337302Y138250D01*
X336898Y140279D01*
X335749Y141999D01*
X335201Y142365D01*
Y143635D01*
X335749Y144001D01*
X336898Y145721D01*
X337302Y147750D01*
X336898Y149779D01*
X335749Y151499D01*
X335201Y151865D01*
Y153135D01*
X335749Y153501D01*
X336898Y155221D01*
X337302Y157250D01*
X336898Y159279D01*
X335749Y160999D01*
X334029Y162148D01*
X332000Y162552D01*
D02*
G37*
G36*
X460000Y150302D02*
X457971Y149898D01*
X456251Y148749D01*
X455102Y147029D01*
X454698Y145000D01*
X455102Y142971D01*
X456251Y141251D01*
X457971Y140102D01*
X460000Y139698D01*
X462029Y140102D01*
X463749Y141251D01*
X464898Y142971D01*
X465302Y145000D01*
X464898Y147029D01*
X463749Y148749D01*
X462029Y149898D01*
X460000Y150302D01*
D02*
G37*
G36*
X106094Y152635D02*
X104065Y152232D01*
X102345Y151082D01*
X101195Y149362D01*
X100792Y147333D01*
X101195Y145304D01*
X102345Y143584D01*
X104065Y142435D01*
X106094Y142031D01*
X108123Y142435D01*
X109843Y143584D01*
X110992Y145304D01*
X111396Y147333D01*
X110992Y149362D01*
X109843Y151082D01*
X108123Y152232D01*
X106094Y152635D01*
D02*
G37*
G36*
X129375D02*
X127346Y152232D01*
X125626Y151082D01*
X124477Y149362D01*
X124073Y147333D01*
X124477Y145304D01*
X125626Y143584D01*
X127346Y142435D01*
X129375Y142031D01*
X131404Y142435D01*
X133124Y143584D01*
X134273Y145304D01*
X134677Y147333D01*
X134273Y149362D01*
X133124Y151082D01*
X131404Y152232D01*
X129375Y152635D01*
D02*
G37*
G36*
X49000Y160302D02*
X46971Y159898D01*
X45251Y158749D01*
X44102Y157029D01*
X43698Y155000D01*
X44102Y152971D01*
X45251Y151251D01*
X46971Y150102D01*
X49000Y149698D01*
X51029Y150102D01*
X51678Y149035D01*
X51251Y148749D01*
X50102Y147029D01*
X49698Y145000D01*
X50102Y142971D01*
X51251Y141251D01*
X52971Y140102D01*
X55000Y139698D01*
X57029Y140102D01*
X58749Y141251D01*
X59898Y142971D01*
X60302Y145000D01*
X59898Y147029D01*
X58749Y148749D01*
X57029Y149898D01*
X55000Y150302D01*
X52971Y149898D01*
X52322Y150965D01*
X52749Y151251D01*
X53898Y152971D01*
X54302Y155000D01*
X53898Y157029D01*
X52749Y158749D01*
X51029Y159898D01*
X49000Y160302D01*
D02*
G37*
G36*
X239750Y144802D02*
X237721Y144398D01*
X236001Y143249D01*
X234852Y141529D01*
X234448Y139500D01*
X234852Y137471D01*
X236001Y135751D01*
X237721Y134602D01*
X239750Y134198D01*
X241779Y134602D01*
X243499Y135751D01*
X244648Y137471D01*
X245052Y139500D01*
X244648Y141529D01*
X243499Y143249D01*
X241779Y144398D01*
X239750Y144802D01*
D02*
G37*
G36*
X445000Y140302D02*
X442971Y139898D01*
X441251Y138749D01*
X440764Y138020D01*
X439236D01*
X438749Y138749D01*
X437029Y139898D01*
X435000Y140302D01*
X432971Y139898D01*
X431251Y138749D01*
X430764Y138020D01*
X429236D01*
X428749Y138749D01*
X427029Y139898D01*
X425000Y140302D01*
X422971Y139898D01*
X421251Y138749D01*
X420764Y138020D01*
X419236D01*
X418749Y138749D01*
X417029Y139898D01*
X415000Y140302D01*
X412971Y139898D01*
X411251Y138749D01*
X410102Y137029D01*
X409698Y135000D01*
X410102Y132971D01*
X411251Y131251D01*
X411980Y130764D01*
Y129236D01*
X411251Y128749D01*
X410102Y127029D01*
X409698Y125000D01*
X410102Y122971D01*
X411251Y121251D01*
X412971Y120102D01*
X415000Y119698D01*
X417029Y120102D01*
X418749Y121251D01*
X419236Y121980D01*
X420764D01*
X421251Y121251D01*
X422971Y120102D01*
X425000Y119698D01*
X427029Y120102D01*
X428749Y121251D01*
X429898Y122971D01*
X430302Y125000D01*
X429898Y127029D01*
X428749Y128749D01*
X428020Y129236D01*
Y130764D01*
X428749Y131251D01*
X429236Y131980D01*
X430764D01*
X431251Y131251D01*
X432971Y130102D01*
X435000Y129698D01*
X437029Y130102D01*
X438749Y131251D01*
X439236Y131980D01*
X440764D01*
X441251Y131251D01*
X442971Y130102D01*
X445000Y129698D01*
X447029Y130102D01*
X448749Y131251D01*
X449898Y132971D01*
X450302Y135000D01*
X449898Y137029D01*
X448749Y138749D01*
X447029Y139898D01*
X445000Y140302D01*
D02*
G37*
G36*
X513000Y148802D02*
X510971Y148398D01*
X509251Y147249D01*
X508102Y145529D01*
X507698Y143500D01*
X508102Y141471D01*
X509251Y139751D01*
X510971Y138602D01*
X513000Y138198D01*
X515029Y138602D01*
X516749Y139751D01*
X517898Y141471D01*
X518302Y143500D01*
X517898Y145529D01*
X516749Y147249D01*
X515029Y148398D01*
X513000Y148802D01*
D02*
G37*
G36*
X-13100Y90302D02*
X-15129Y89898D01*
X-16849Y88749D01*
X-17998Y87029D01*
X-18402Y85000D01*
X-17998Y82971D01*
X-16849Y81251D01*
X-15129Y80102D01*
X-13100Y79698D01*
X-11071Y80102D01*
X-9351Y81251D01*
X-8202Y82971D01*
X-7798Y85000D01*
X-8202Y87029D01*
X-9351Y88749D01*
X-11071Y89898D01*
X-13100Y90302D01*
D02*
G37*
G36*
X353750Y21302D02*
X351721Y20898D01*
X350001Y19749D01*
X348852Y18029D01*
X348448Y16000D01*
X348852Y13971D01*
X350001Y12251D01*
X351721Y11102D01*
X353750Y10698D01*
X355779Y11102D01*
X357499Y12251D01*
X358648Y13971D01*
X359052Y16000D01*
X358648Y18029D01*
X357499Y19749D01*
X355779Y20898D01*
X353750Y21302D01*
D02*
G37*
G36*
X445000Y15302D02*
X442971Y14898D01*
X441251Y13749D01*
X440764Y13020D01*
X439236D01*
X438749Y13749D01*
X437029Y14898D01*
X435000Y15302D01*
X432971Y14898D01*
X431251Y13749D01*
X430764Y13020D01*
X429236D01*
X428749Y13749D01*
X427029Y14898D01*
X425000Y15302D01*
X422971Y14898D01*
X421251Y13749D01*
X420764Y13020D01*
X419236D01*
X418749Y13749D01*
X417029Y14898D01*
X415000Y15302D01*
X412971Y14898D01*
X411251Y13749D01*
X410102Y12029D01*
X409698Y10000D01*
X410102Y7971D01*
X411251Y6251D01*
X411980Y5764D01*
Y4236D01*
X411251Y3749D01*
X410102Y2029D01*
X409698Y0D01*
X410102Y-2029D01*
X411251Y-3749D01*
X412971Y-4898D01*
X415000Y-5302D01*
X417029Y-4898D01*
X418749Y-3749D01*
X419236Y-3020D01*
X420764D01*
X421251Y-3749D01*
X422971Y-4898D01*
X425000Y-5302D01*
X427029Y-4898D01*
X428749Y-3749D01*
X429898Y-2029D01*
X430302Y0D01*
X429898Y2029D01*
X428749Y3749D01*
X428020Y4236D01*
Y5764D01*
X428749Y6251D01*
X429236Y6980D01*
X430764D01*
X431251Y6251D01*
X432971Y5102D01*
X435000Y4698D01*
X437029Y5102D01*
X438749Y6251D01*
X439236Y6980D01*
X440764D01*
X441251Y6251D01*
X442971Y5102D01*
X445000Y4698D01*
X447029Y5102D01*
X448749Y6251D01*
X449898Y7971D01*
X450302Y10000D01*
X449898Y12029D01*
X448749Y13749D01*
X447029Y14898D01*
X445000Y15302D01*
D02*
G37*
G36*
X308500Y24552D02*
X306471Y24148D01*
X304751Y22999D01*
X303602Y21279D01*
X303198Y19250D01*
X303602Y17221D01*
X304751Y15501D01*
X306471Y14352D01*
X308500Y13948D01*
X310529Y14352D01*
X312249Y15501D01*
X313398Y17221D01*
X313802Y19250D01*
X313398Y21279D01*
X312249Y22999D01*
X310529Y24148D01*
X308500Y24552D01*
D02*
G37*
G36*
X341750Y21302D02*
X339721Y20898D01*
X338001Y19749D01*
X336852Y18029D01*
X336448Y16000D01*
X336852Y13971D01*
X338001Y12251D01*
X339721Y11102D01*
X341750Y10698D01*
X343779Y11102D01*
X345499Y12251D01*
X346648Y13971D01*
X347052Y16000D01*
X346648Y18029D01*
X345499Y19749D01*
X343779Y20898D01*
X341750Y21302D01*
D02*
G37*
G36*
X206000Y12508D02*
X204251Y12277D01*
X202621Y11602D01*
X201222Y10529D01*
X200148Y9129D01*
X199473Y7499D01*
X199242Y5750D01*
X199473Y4001D01*
X200148Y2371D01*
X201222Y971D01*
X202621Y-102D01*
X204251Y-777D01*
X206000Y-1008D01*
X207749Y-777D01*
X209379Y-102D01*
X210779Y971D01*
X211852Y2371D01*
X212528Y4001D01*
X212758Y5750D01*
X212528Y7499D01*
X211852Y9129D01*
X210779Y10529D01*
X209379Y11602D01*
X207749Y12277D01*
X206000Y12508D01*
D02*
G37*
G36*
X233250D02*
X231501Y12277D01*
X229871Y11602D01*
X228472Y10529D01*
X227398Y9129D01*
X226723Y7499D01*
X226492Y5750D01*
X226723Y4001D01*
X227398Y2371D01*
X228472Y971D01*
X229871Y-102D01*
X231501Y-777D01*
X233250Y-1008D01*
X234999Y-777D01*
X236629Y-102D01*
X238029Y971D01*
X239102Y2371D01*
X239778Y4001D01*
X240008Y5750D01*
X239778Y7499D01*
X239102Y9129D01*
X238029Y10529D01*
X236629Y11602D01*
X234999Y12277D01*
X233250Y12508D01*
D02*
G37*
G36*
X385000Y15302D02*
X382971Y14898D01*
X381251Y13749D01*
X380102Y12029D01*
X379698Y10000D01*
X380102Y7971D01*
X381251Y6251D01*
X382971Y5102D01*
X385000Y4698D01*
X387029Y5102D01*
X388749Y6251D01*
X389898Y7971D01*
X390302Y10000D01*
X389898Y12029D01*
X388749Y13749D01*
X387029Y14898D01*
X385000Y15302D01*
D02*
G37*
G36*
X321500Y24552D02*
X319471Y24148D01*
X317751Y22999D01*
X316602Y21279D01*
X316198Y19250D01*
X316602Y17221D01*
X317751Y15501D01*
X319471Y14352D01*
X321500Y13948D01*
X323529Y14352D01*
X325249Y15501D01*
X326398Y17221D01*
X326802Y19250D01*
X326398Y21279D01*
X325249Y22999D01*
X323529Y24148D01*
X321500Y24552D01*
D02*
G37*
G36*
X190500Y35302D02*
X188471Y34898D01*
X186751Y33749D01*
X185602Y32029D01*
X185198Y30000D01*
X185602Y27971D01*
X186751Y26251D01*
X188471Y25102D01*
X190500Y24698D01*
X192529Y25102D01*
X194249Y26251D01*
X195398Y27971D01*
X195802Y30000D01*
X195398Y32029D01*
X194249Y33749D01*
X192529Y34898D01*
X190500Y35302D01*
D02*
G37*
G36*
X260500D02*
X258471Y34898D01*
X256751Y33749D01*
X255602Y32029D01*
X255198Y30000D01*
X255602Y27971D01*
X256751Y26251D01*
X258471Y25102D01*
X260500Y24698D01*
X262529Y25102D01*
X264249Y26251D01*
X265398Y27971D01*
X265802Y30000D01*
X265398Y32029D01*
X264249Y33749D01*
X262529Y34898D01*
X260500Y35302D01*
D02*
G37*
G36*
X81750Y38802D02*
X79721Y38398D01*
X78001Y37249D01*
X76852Y35529D01*
X76448Y33500D01*
X76852Y31471D01*
X78001Y29751D01*
X79721Y28602D01*
X81750Y28198D01*
X83779Y28602D01*
X85499Y29751D01*
X86648Y31471D01*
X87052Y33500D01*
X86648Y35529D01*
X85499Y37249D01*
X83779Y38398D01*
X81750Y38802D01*
D02*
G37*
G36*
X471000Y26321D02*
X468581Y25840D01*
X466530Y24470D01*
X465662Y23171D01*
X464135D01*
X463749Y23749D01*
X462029Y24898D01*
X460000Y25302D01*
X457971Y24898D01*
X456251Y23749D01*
X455102Y22029D01*
X454698Y20000D01*
X455102Y17971D01*
X456251Y16251D01*
X457971Y15102D01*
X460000Y14698D01*
X462029Y15102D01*
X463749Y16251D01*
X464135Y16829D01*
X465662D01*
X466530Y15530D01*
X468581Y14160D01*
X471000Y13679D01*
X473419Y14160D01*
X475470Y15530D01*
X476840Y17581D01*
X477321Y20000D01*
X476840Y22419D01*
X475470Y24470D01*
X473419Y25840D01*
X471000Y26321D01*
D02*
G37*
G36*
X49000Y22052D02*
X46971Y21648D01*
X45251Y20499D01*
X44102Y18779D01*
X43811Y17318D01*
X42576Y16681D01*
X42487Y16675D01*
X41779Y17148D01*
X39750Y17552D01*
X37721Y17148D01*
X36001Y15999D01*
X34852Y14279D01*
X34448Y12250D01*
X34852Y10221D01*
X36001Y8501D01*
X36730Y8014D01*
Y6486D01*
X36001Y5999D01*
X34852Y4279D01*
X34448Y2250D01*
X34852Y221D01*
X36001Y-1499D01*
X37721Y-2648D01*
X39750Y-3052D01*
X41779Y-2648D01*
X43499Y-1499D01*
X44648Y221D01*
X45052Y2250D01*
X44648Y4279D01*
X43499Y5999D01*
X42770Y6486D01*
Y8014D01*
X43499Y8501D01*
X44648Y10221D01*
X44939Y11682D01*
X46174Y12319D01*
X46263Y12325D01*
X46971Y11852D01*
X49000Y11448D01*
X51029Y11852D01*
X52749Y13001D01*
X53252Y13754D01*
X54448Y13259D01*
X54198Y12000D01*
X54602Y9971D01*
X55751Y8251D01*
X57471Y7102D01*
X59500Y6698D01*
X61529Y7102D01*
X63249Y8251D01*
X64398Y9971D01*
X64802Y12000D01*
X64398Y14029D01*
X63249Y15749D01*
X61529Y16898D01*
X59500Y17302D01*
X57471Y16898D01*
X55751Y15749D01*
X55248Y14996D01*
X54051Y15491D01*
X54302Y16750D01*
X53898Y18779D01*
X52749Y20499D01*
X51029Y21648D01*
X49000Y22052D01*
D02*
G37*
G36*
X151500Y50052D02*
X149471Y49648D01*
X147751Y48499D01*
X146602Y46779D01*
X146198Y44750D01*
X146602Y42721D01*
X147751Y41001D01*
X149471Y39852D01*
X149989Y39749D01*
X150136Y38424D01*
X148751Y37499D01*
X147602Y35779D01*
X147198Y33750D01*
X147602Y31721D01*
X148751Y30001D01*
X149050Y29801D01*
Y28821D01*
X148912Y28366D01*
X147852Y26779D01*
X147448Y24750D01*
X147852Y22721D01*
X149001Y21001D01*
X150721Y19852D01*
X152750Y19448D01*
X154779Y19852D01*
X156499Y21001D01*
X157648Y22721D01*
X158052Y24750D01*
X157648Y26779D01*
X156499Y28499D01*
X156200Y28698D01*
Y29680D01*
X156338Y30134D01*
X157398Y31721D01*
X157802Y33750D01*
X157398Y35779D01*
X156249Y37499D01*
X154529Y38648D01*
X154011Y38751D01*
X153864Y40075D01*
X155249Y41001D01*
X156398Y42721D01*
X156802Y44750D01*
X156398Y46779D01*
X155249Y48499D01*
X153529Y49648D01*
X151500Y50052D01*
D02*
G37*
G36*
X29000Y42802D02*
X26971Y42398D01*
X25251Y41249D01*
X24102Y39529D01*
X23698Y37500D01*
X24102Y35471D01*
X25251Y33751D01*
X26971Y32602D01*
X29000Y32198D01*
X31029Y32602D01*
X32749Y33751D01*
X33328Y34617D01*
X33807Y34656D01*
X34763Y34479D01*
X35751Y33001D01*
X36017Y32824D01*
Y31296D01*
X34780Y30470D01*
X33410Y28419D01*
X32929Y26000D01*
X33410Y23581D01*
X34780Y21530D01*
X36831Y20160D01*
X39250Y19678D01*
X41669Y20160D01*
X43720Y21530D01*
X45090Y23581D01*
X45571Y26000D01*
X45090Y28419D01*
X43720Y30470D01*
X42733Y31129D01*
Y32657D01*
X43249Y33001D01*
X44398Y34721D01*
X44802Y36750D01*
X44398Y38779D01*
X43249Y40499D01*
X41529Y41648D01*
X39500Y42052D01*
X37471Y41648D01*
X35751Y40499D01*
X35172Y39633D01*
X34693Y39594D01*
X33737Y39771D01*
X32749Y41249D01*
X31029Y42398D01*
X29000Y42802D01*
D02*
G37*
G36*
X153000Y13302D02*
X150971Y12898D01*
X149251Y11749D01*
X148102Y10029D01*
X147698Y8000D01*
X148102Y5971D01*
X149251Y4251D01*
X150971Y3102D01*
X153000Y2698D01*
X155029Y3102D01*
X155570Y3464D01*
X157143Y2987D01*
X157398Y2371D01*
X158471Y971D01*
X159871Y-102D01*
X161501Y-777D01*
X163250Y-1008D01*
X164999Y-777D01*
X166629Y-102D01*
X168029Y971D01*
X169102Y2371D01*
X169778Y4001D01*
X170008Y5750D01*
X169778Y7499D01*
X169102Y9129D01*
X168029Y10529D01*
X166629Y11602D01*
X164999Y12277D01*
X163250Y12508D01*
X161501Y12277D01*
X159871Y11602D01*
X158882Y10843D01*
X157575Y10881D01*
X157242Y11012D01*
X156749Y11749D01*
X155029Y12898D01*
X153000Y13302D01*
D02*
G37*
G36*
X164000Y-2698D02*
X161971Y-3102D01*
X160251Y-4251D01*
X159102Y-5971D01*
X158698Y-8000D01*
X159102Y-10029D01*
X160251Y-11749D01*
X161971Y-12898D01*
X164000Y-13302D01*
X166029Y-12898D01*
X167749Y-11749D01*
X168898Y-10029D01*
X169302Y-8000D01*
X168898Y-5971D01*
X167749Y-4251D01*
X166029Y-3102D01*
X164000Y-2698D01*
D02*
G37*
G36*
X234000D02*
X231971Y-3102D01*
X230251Y-4251D01*
X229102Y-5971D01*
X228698Y-8000D01*
X229102Y-10029D01*
X230251Y-11749D01*
X231971Y-12898D01*
X234000Y-13302D01*
X236029Y-12898D01*
X237749Y-11749D01*
X238898Y-10029D01*
X239302Y-8000D01*
X238898Y-5971D01*
X237749Y-4251D01*
X236029Y-3102D01*
X234000Y-2698D01*
D02*
G37*
G36*
X318250Y-2448D02*
X316221Y-2852D01*
X314501Y-4001D01*
X313352Y-5721D01*
X312948Y-7750D01*
X313352Y-9779D01*
X314501Y-11499D01*
X316221Y-12648D01*
X318250Y-13052D01*
X320279Y-12648D01*
X321999Y-11499D01*
X323148Y-9779D01*
X323552Y-7750D01*
X323148Y-5721D01*
X321999Y-4001D01*
X320279Y-2852D01*
X318250Y-2448D01*
D02*
G37*
G36*
X286500Y27822D02*
X284081Y27340D01*
X282030Y25970D01*
X280660Y23919D01*
X280179Y21500D01*
X280660Y19081D01*
X282030Y17030D01*
X284081Y15660D01*
X285414Y15395D01*
X285457Y15372D01*
X285723Y14188D01*
X285537Y14021D01*
X285089Y14021D01*
X276000D01*
X273859Y13739D01*
X271865Y12913D01*
X270152Y11598D01*
X268837Y9885D01*
X268011Y7891D01*
X267729Y5750D01*
X268011Y3609D01*
X268837Y1615D01*
X270152Y-98D01*
X271865Y-1413D01*
X273267Y-1994D01*
X273271Y-2002D01*
X273301Y-3382D01*
X272001Y-4251D01*
X270852Y-5971D01*
X270448Y-8000D01*
X270852Y-10029D01*
X272001Y-11749D01*
X273721Y-12898D01*
X275750Y-13302D01*
X277779Y-12898D01*
X279499Y-11749D01*
X280648Y-10029D01*
X281052Y-8000D01*
X280648Y-5971D01*
X279499Y-4251D01*
X278810Y-3791D01*
X279195Y-2521D01*
X285750D01*
X287891Y-2239D01*
X289885Y-1413D01*
X291598Y-98D01*
X292913Y1615D01*
X293739Y3609D01*
X294021Y5750D01*
X293739Y7891D01*
X292913Y9885D01*
X291598Y11598D01*
X289885Y12913D01*
X287891Y13739D01*
X287215Y13828D01*
X287085Y14000D01*
X287212Y14722D01*
X287619Y15401D01*
X288919Y15660D01*
X290970Y17030D01*
X292340Y19081D01*
X292822Y21500D01*
X292340Y23919D01*
X290970Y25970D01*
X288919Y27340D01*
X286500Y27822D01*
D02*
G37*
G36*
X82000Y-5698D02*
X79971Y-6102D01*
X78251Y-7251D01*
X77102Y-8971D01*
X76698Y-11000D01*
X77102Y-13029D01*
X78251Y-14749D01*
X79971Y-15898D01*
X82000Y-16302D01*
X84029Y-15898D01*
X85134Y-15160D01*
X86534Y-15687D01*
X86602Y-16029D01*
X87751Y-17749D01*
X89471Y-18898D01*
X91500Y-19302D01*
X93529Y-18898D01*
X95249Y-17749D01*
X96398Y-16029D01*
X96802Y-14000D01*
X96398Y-11971D01*
X95249Y-10251D01*
X93529Y-9102D01*
X91500Y-8698D01*
X89471Y-9102D01*
X88366Y-9840D01*
X86966Y-9313D01*
X86898Y-8971D01*
X85749Y-7251D01*
X84029Y-6102D01*
X82000Y-5698D01*
D02*
G37*
G36*
X149500Y-5698D02*
X147471Y-6102D01*
X145751Y-7251D01*
X144602Y-8971D01*
X144198Y-11000D01*
X144602Y-13029D01*
X145751Y-14749D01*
X147471Y-15898D01*
X149500Y-16302D01*
X151529Y-15898D01*
X153249Y-14749D01*
X154398Y-13029D01*
X154802Y-11000D01*
X154398Y-8971D01*
X153249Y-7251D01*
X151529Y-6102D01*
X149500Y-5698D01*
D02*
G37*
G36*
X205750Y-2698D02*
X203721Y-3102D01*
X202001Y-4251D01*
X200852Y-5971D01*
X200448Y-8000D01*
X200852Y-10029D01*
X202001Y-11749D01*
X203721Y-12898D01*
X205750Y-13302D01*
X207779Y-12898D01*
X209499Y-11749D01*
X210648Y-10029D01*
X211052Y-8000D01*
X210648Y-5971D01*
X209499Y-4251D01*
X207779Y-3102D01*
X205750Y-2698D01*
D02*
G37*
G36*
X514000Y71D02*
X511581Y-410D01*
X509530Y-1780D01*
X508160Y-3831D01*
X507678Y-6250D01*
X508160Y-8669D01*
X509530Y-10720D01*
X511581Y-12090D01*
X514000Y-12572D01*
X516419Y-12090D01*
X518470Y-10720D01*
X519840Y-8669D01*
X520321Y-6250D01*
X519840Y-3831D01*
X518470Y-1780D01*
X516419Y-410D01*
X514000Y71D01*
D02*
G37*
G36*
X332750Y5052D02*
X330721Y4648D01*
X329001Y3499D01*
X327852Y1779D01*
X327448Y-250D01*
X327852Y-2279D01*
X329001Y-3999D01*
X330721Y-5148D01*
X332750Y-5552D01*
X334779Y-5148D01*
X336499Y-3999D01*
X337648Y-2279D01*
X338052Y-250D01*
X337648Y1779D01*
X336499Y3499D01*
X334779Y4648D01*
X332750Y5052D01*
D02*
G37*
G36*
X395000Y5302D02*
X392971Y4898D01*
X391251Y3749D01*
X390102Y2029D01*
X389698Y0D01*
X390102Y-2029D01*
X391251Y-3749D01*
X392971Y-4898D01*
X395000Y-5302D01*
X397029Y-4898D01*
X398749Y-3749D01*
X399898Y-2029D01*
X400302Y0D01*
X399898Y2029D01*
X398749Y3749D01*
X397029Y4898D01*
X395000Y5302D01*
D02*
G37*
G36*
X71500Y9052D02*
X69471Y8648D01*
X67751Y7499D01*
X66602Y5779D01*
X66198Y3750D01*
X66602Y1721D01*
X67751Y1D01*
X69471Y-1148D01*
X71500Y-1552D01*
X73529Y-1148D01*
X75249Y1D01*
X76398Y1721D01*
X76802Y3750D01*
X76398Y5779D01*
X75249Y7499D01*
X73529Y8648D01*
X71500Y9052D01*
D02*
G37*
G36*
X304500Y5052D02*
X302471Y4648D01*
X300751Y3499D01*
X299602Y1779D01*
X299198Y-250D01*
X299602Y-2279D01*
X300751Y-3999D01*
X302471Y-5148D01*
X304500Y-5552D01*
X306529Y-5148D01*
X308249Y-3999D01*
X309398Y-2279D01*
X309802Y-250D01*
X309398Y1779D01*
X308249Y3499D01*
X306529Y4648D01*
X304500Y5052D01*
D02*
G37*
G36*
X136750Y-8948D02*
X134721Y-9352D01*
X133001Y-10501D01*
X132389Y-11417D01*
X130861D01*
X130249Y-10501D01*
X128529Y-9352D01*
X126500Y-8948D01*
X124471Y-9352D01*
X122751Y-10501D01*
X122260Y-11236D01*
X120990D01*
X120499Y-10501D01*
X118779Y-9352D01*
X116750Y-8948D01*
X114721Y-9352D01*
X113001Y-10501D01*
X112514Y-11230D01*
X110986D01*
X110499Y-10501D01*
X108779Y-9352D01*
X106750Y-8948D01*
X104721Y-9352D01*
X103001Y-10501D01*
X101852Y-12221D01*
X101448Y-14250D01*
X101852Y-16279D01*
X103001Y-17999D01*
X104721Y-19148D01*
X106750Y-19552D01*
X108779Y-19148D01*
X110499Y-17999D01*
X110986Y-17270D01*
X112514D01*
X113001Y-17999D01*
X114721Y-19148D01*
X116750Y-19552D01*
X118779Y-19148D01*
X120499Y-17999D01*
X120990Y-17264D01*
X122260D01*
X122751Y-17999D01*
X124471Y-19148D01*
X126500Y-19552D01*
X128529Y-19148D01*
X130249Y-17999D01*
X130861Y-17083D01*
X132389D01*
X133001Y-17999D01*
X134721Y-19148D01*
X136750Y-19552D01*
X138779Y-19148D01*
X140499Y-17999D01*
X141648Y-16279D01*
X142052Y-14250D01*
X141648Y-12221D01*
X140499Y-10501D01*
X138779Y-9352D01*
X136750Y-8948D01*
D02*
G37*
G36*
X59250Y-1928D02*
X56831Y-2410D01*
X54780Y-3780D01*
X53410Y-5831D01*
X52013Y-6342D01*
X51279Y-5852D01*
X49250Y-5448D01*
X47221Y-5852D01*
X45501Y-7001D01*
X44352Y-8721D01*
X43948Y-10750D01*
X44352Y-12779D01*
X45501Y-14499D01*
X47221Y-15648D01*
X49250Y-16052D01*
X51279Y-15648D01*
X52999Y-14499D01*
X53720Y-13420D01*
X53880Y-13314D01*
X55237Y-13069D01*
X55346Y-13098D01*
X56831Y-14090D01*
X59250Y-14571D01*
X61669Y-14090D01*
X63720Y-12720D01*
X65090Y-10669D01*
X65571Y-8250D01*
X65090Y-5831D01*
X63720Y-3780D01*
X61669Y-2410D01*
X59250Y-1928D01*
D02*
G37*
G36*
X351750Y6821D02*
X349331Y6340D01*
X347280Y4970D01*
X345910Y2919D01*
X345429Y500D01*
X345910Y-1919D01*
X347280Y-3970D01*
X349331Y-5340D01*
X351750Y-5821D01*
X354169Y-5340D01*
X356220Y-3970D01*
X357590Y-1919D01*
X358071Y500D01*
X357590Y2919D01*
X356220Y4970D01*
X354169Y6340D01*
X351750Y6821D01*
D02*
G37*
G36*
X141500Y87821D02*
X139081Y87340D01*
X137030Y85970D01*
X135660Y83919D01*
X135178Y81500D01*
X135660Y79081D01*
X137030Y77030D01*
X137808Y76510D01*
Y75240D01*
X137030Y74720D01*
X135660Y72669D01*
X135178Y70250D01*
X135660Y67831D01*
X137030Y65780D01*
X139081Y64410D01*
X141500Y63928D01*
X143919Y64410D01*
X145970Y65780D01*
X147340Y67831D01*
X147821Y70250D01*
X147340Y72669D01*
X145970Y74720D01*
X145192Y75240D01*
Y76510D01*
X145970Y77030D01*
X147340Y79081D01*
X147821Y81500D01*
X147340Y83919D01*
X145970Y85970D01*
X143919Y87340D01*
X141500Y87821D01*
D02*
G37*
G36*
X219250Y77758D02*
X217501Y77527D01*
X215871Y76852D01*
X214471Y75778D01*
X213398Y74379D01*
X212722Y72749D01*
X212492Y71000D01*
X212722Y69251D01*
X213398Y67621D01*
X214471Y66221D01*
X215871Y65148D01*
X217501Y64472D01*
X219250Y64242D01*
X220999Y64472D01*
X222629Y65148D01*
X224028Y66221D01*
X225102Y67621D01*
X225777Y69251D01*
X226008Y71000D01*
X225777Y72749D01*
X225102Y74379D01*
X224028Y75778D01*
X222629Y76852D01*
X220999Y77527D01*
X219250Y77758D01*
D02*
G37*
G36*
X421500Y77302D02*
X419471Y76898D01*
X417751Y75749D01*
X416602Y74029D01*
X416198Y72000D01*
X416602Y69971D01*
X417751Y68251D01*
X419471Y67102D01*
X421500Y66698D01*
X423529Y67102D01*
X425249Y68251D01*
X426398Y69971D01*
X426802Y72000D01*
X426398Y74029D01*
X425249Y75749D01*
X423529Y76898D01*
X421500Y77302D01*
D02*
G37*
G36*
X276000Y63302D02*
X273971Y62898D01*
X272251Y61749D01*
X272135Y61575D01*
X270865D01*
X270749Y61749D01*
X269029Y62898D01*
X267000Y63302D01*
X264971Y62898D01*
X263251Y61749D01*
X262102Y60029D01*
X261698Y58000D01*
X262102Y55971D01*
X263251Y54251D01*
X263980Y53764D01*
Y52236D01*
X263251Y51749D01*
X263135Y51575D01*
X261865D01*
X261749Y51749D01*
X260029Y52898D01*
X258000Y53302D01*
X255971Y52898D01*
X254251Y51749D01*
X253102Y50029D01*
X252698Y48000D01*
X253102Y45971D01*
X254251Y44251D01*
X255971Y43102D01*
X258000Y42698D01*
X260029Y43102D01*
X261749Y44251D01*
X261865Y44425D01*
X263135D01*
X263251Y44251D01*
X264971Y43102D01*
X267000Y42698D01*
X269029Y43102D01*
X270749Y44251D01*
X270865Y44425D01*
X272135D01*
X272251Y44251D01*
X273971Y43102D01*
X276000Y42698D01*
X278029Y43102D01*
X279749Y44251D01*
X280898Y45971D01*
X281302Y48000D01*
X280898Y50029D01*
X279749Y51749D01*
X279020Y52236D01*
Y53764D01*
X279749Y54251D01*
X280898Y55971D01*
X281302Y58000D01*
X280898Y60029D01*
X279749Y61749D01*
X278029Y62898D01*
X276000Y63302D01*
D02*
G37*
G36*
X575750Y68321D02*
X573331Y67840D01*
X571280Y66470D01*
X569910Y64419D01*
X569428Y62000D01*
X569910Y59581D01*
X571280Y57530D01*
X573331Y56160D01*
X575750Y55679D01*
X578169Y56160D01*
X580220Y57530D01*
X581590Y59581D01*
X582071Y62000D01*
X581590Y64419D01*
X580220Y66470D01*
X578169Y67840D01*
X575750Y68321D01*
D02*
G37*
G36*
X508250Y72508D02*
X506501Y72277D01*
X504871Y71602D01*
X503471Y70528D01*
X502398Y69129D01*
X501722Y67499D01*
X501492Y65750D01*
X501722Y64001D01*
X502398Y62371D01*
X503471Y60971D01*
X504871Y59898D01*
X506501Y59222D01*
X508250Y58992D01*
X509999Y59222D01*
X511629Y59898D01*
X513028Y60971D01*
X514102Y62371D01*
X514777Y64001D01*
X515008Y65750D01*
X514777Y67499D01*
X514102Y69129D01*
X513028Y70528D01*
X511629Y71602D01*
X509999Y72277D01*
X508250Y72508D01*
D02*
G37*
G36*
X206000Y63302D02*
X203971Y62898D01*
X202251Y61749D01*
X202135Y61575D01*
X200865D01*
X200749Y61749D01*
X199029Y62898D01*
X197000Y63302D01*
X194971Y62898D01*
X193251Y61749D01*
X192102Y60029D01*
X191698Y58000D01*
X192102Y55971D01*
X193251Y54251D01*
X193980Y53764D01*
Y52236D01*
X193251Y51749D01*
X193135Y51575D01*
X191865D01*
X191749Y51749D01*
X190029Y52898D01*
X188000Y53302D01*
X185971Y52898D01*
X184251Y51749D01*
X183102Y50029D01*
X182698Y48000D01*
X183102Y45971D01*
X184251Y44251D01*
X185971Y43102D01*
X188000Y42698D01*
X190029Y43102D01*
X191749Y44251D01*
X191865Y44425D01*
X193135D01*
X193251Y44251D01*
X194971Y43102D01*
X197000Y42698D01*
X199029Y43102D01*
X200749Y44251D01*
X200865Y44425D01*
X202135D01*
X202251Y44251D01*
X203971Y43102D01*
X206000Y42698D01*
X208029Y43102D01*
X209749Y44251D01*
X210898Y45971D01*
X211302Y48000D01*
X210898Y50029D01*
X209749Y51749D01*
X209020Y52236D01*
Y53764D01*
X209749Y54251D01*
X210898Y55971D01*
X211302Y58000D01*
X210898Y60029D01*
X209749Y61749D01*
X208029Y62898D01*
X206000Y63302D01*
D02*
G37*
G36*
X114000Y77552D02*
X111971Y77148D01*
X110251Y75999D01*
X109102Y74279D01*
X108698Y72250D01*
X109102Y70221D01*
X110251Y68501D01*
X111971Y67352D01*
X114000Y66948D01*
X116029Y67352D01*
X117749Y68501D01*
X118898Y70221D01*
X119302Y72250D01*
X118898Y74279D01*
X117749Y75999D01*
X116029Y77148D01*
X114000Y77552D01*
D02*
G37*
G36*
X100500D02*
X98471Y77148D01*
X96751Y75999D01*
X96201Y75176D01*
X94505Y74781D01*
X93669Y75340D01*
X91250Y75821D01*
X88831Y75340D01*
X86780Y73970D01*
X85410Y71919D01*
X84929Y69500D01*
X85410Y67081D01*
X86780Y65030D01*
X88831Y63660D01*
X91250Y63179D01*
X93669Y63660D01*
X95720Y65030D01*
X97090Y67081D01*
X98193Y67538D01*
X98471Y67352D01*
X100500Y66948D01*
X102529Y67352D01*
X104249Y68501D01*
X105398Y70221D01*
X105802Y72250D01*
X105398Y74279D01*
X104249Y75999D01*
X102529Y77148D01*
X100500Y77552D01*
D02*
G37*
G36*
X515250Y87802D02*
X513221Y87398D01*
X511501Y86249D01*
X510352Y84529D01*
X509948Y82500D01*
X510352Y80471D01*
X511501Y78751D01*
X513221Y77602D01*
X515250Y77198D01*
X517279Y77602D01*
X518999Y78751D01*
X520148Y80471D01*
X520552Y82500D01*
X520148Y84529D01*
X518999Y86249D01*
X517279Y87398D01*
X515250Y87802D01*
D02*
G37*
G36*
X326000Y88552D02*
X323971Y88148D01*
X322251Y86999D01*
X321102Y85279D01*
X320698Y83250D01*
X321102Y81221D01*
X322251Y79501D01*
X323971Y78352D01*
X326000Y77948D01*
X328029Y78352D01*
X329749Y79501D01*
X330898Y81221D01*
X331302Y83250D01*
X330898Y85279D01*
X329749Y86999D01*
X328029Y88148D01*
X326000Y88552D01*
D02*
G37*
G36*
X394500Y72508D02*
X392751Y72277D01*
X391121Y71602D01*
X389739Y70542D01*
X389261D01*
X387879Y71602D01*
X386249Y72277D01*
X384500Y72508D01*
X382751Y72277D01*
X381121Y71602D01*
X379721Y70528D01*
X378648Y69129D01*
X377972Y67499D01*
X377742Y65750D01*
X377972Y64001D01*
X378648Y62371D01*
X379721Y60971D01*
X381121Y59898D01*
X382751Y59222D01*
X384500Y58992D01*
X386249Y59222D01*
X387879Y59898D01*
X389261Y60958D01*
X389739D01*
X391121Y59898D01*
X392751Y59222D01*
X394500Y58992D01*
X396249Y59222D01*
X397879Y59898D01*
X399278Y60971D01*
X400352Y62371D01*
X401027Y64001D01*
X401258Y65750D01*
X401027Y67499D01*
X400352Y69129D01*
X399278Y70528D01*
X397879Y71602D01*
X396249Y72277D01*
X394500Y72508D01*
D02*
G37*
G36*
X566000Y92322D02*
X563581Y91840D01*
X561530Y90470D01*
X560160Y88419D01*
X559679Y86000D01*
X560160Y83581D01*
X561530Y81530D01*
X562864Y80639D01*
Y79111D01*
X561530Y78220D01*
X560160Y76169D01*
X559678Y73750D01*
X560160Y71331D01*
X561530Y69280D01*
X563581Y67910D01*
X566000Y67428D01*
X568419Y67910D01*
X570470Y69280D01*
X571840Y71331D01*
X572321Y73750D01*
X571840Y76169D01*
X570470Y78220D01*
X569136Y79111D01*
Y80639D01*
X570470Y81530D01*
X571840Y83581D01*
X572322Y86000D01*
X571840Y88419D01*
X570470Y90470D01*
X568419Y91840D01*
X566000Y92322D01*
D02*
G37*
G36*
X593250Y79302D02*
X591221Y78898D01*
X589501Y77749D01*
X588352Y76029D01*
X587948Y74000D01*
X588352Y71971D01*
X589501Y70251D01*
X591221Y69102D01*
X593250Y68698D01*
X595279Y69102D01*
X596999Y70251D01*
X598148Y71971D01*
X598552Y74000D01*
X598148Y76029D01*
X596999Y77749D01*
X595279Y78898D01*
X593250Y79302D01*
D02*
G37*
G36*
X333000Y72802D02*
X330971Y72398D01*
X329251Y71249D01*
X328417Y70001D01*
X326999Y70001D01*
X326166Y71249D01*
X324446Y72398D01*
X322417Y72802D01*
X320388Y72398D01*
X318668Y71249D01*
X317834Y70001D01*
X316416Y70001D01*
X315582Y71249D01*
X313862Y72398D01*
X311833Y72802D01*
X309804Y72398D01*
X308084Y71249D01*
X307251Y70001D01*
X305833D01*
X304999Y71249D01*
X303279Y72398D01*
X301250Y72802D01*
X299221Y72398D01*
X297501Y71249D01*
X296352Y69529D01*
X295948Y67500D01*
X296352Y65471D01*
X297501Y63751D01*
X299221Y62602D01*
X301250Y62198D01*
X303279Y62602D01*
X304999Y63751D01*
X305833Y64999D01*
X307251D01*
X308084Y63751D01*
X308814Y63264D01*
Y61736D01*
X308084Y61249D01*
X306935Y59529D01*
X306532Y57500D01*
X306935Y55471D01*
X308084Y53751D01*
X309804Y52602D01*
X311833Y52198D01*
X313862Y52602D01*
X315582Y53751D01*
X316732Y55471D01*
X317135Y57500D01*
X316732Y59529D01*
X315582Y61249D01*
X314853Y61736D01*
Y63264D01*
X315582Y63751D01*
X316416Y64999D01*
X317834Y64999D01*
X318668Y63751D01*
X320388Y62602D01*
X322417Y62198D01*
X324446Y62602D01*
X326166Y63751D01*
X326999Y64999D01*
X328417Y64999D01*
X329251Y63751D01*
X330971Y62602D01*
X333000Y62198D01*
X335029Y62602D01*
X336749Y63751D01*
X337898Y65471D01*
X338302Y67500D01*
X337898Y69529D01*
X336749Y71249D01*
X335029Y72398D01*
X333000Y72802D01*
D02*
G37*
G36*
X128500Y77552D02*
X126471Y77148D01*
X124751Y75999D01*
X123602Y74279D01*
X123198Y72250D01*
X123602Y70221D01*
X124751Y68501D01*
X126471Y67352D01*
X127643Y67119D01*
X128126Y67022D01*
Y65728D01*
X127643Y65631D01*
X126471Y65398D01*
X124751Y64249D01*
X123602Y62529D01*
X123198Y60500D01*
X123602Y58471D01*
X124751Y56751D01*
X126471Y55602D01*
X128500Y55198D01*
X130529Y55602D01*
X132249Y56751D01*
X133398Y58471D01*
X133802Y60500D01*
X133398Y62529D01*
X132249Y64249D01*
X130529Y65398D01*
X129357Y65631D01*
X128874Y65728D01*
Y67022D01*
X129357Y67119D01*
X130529Y67352D01*
X132249Y68501D01*
X133398Y70221D01*
X133802Y72250D01*
X133398Y74279D01*
X132249Y75999D01*
X130529Y77148D01*
X128500Y77552D01*
D02*
G37*
G36*
X85250Y51802D02*
X83221Y51398D01*
X81501Y50249D01*
X80352Y48529D01*
X79948Y46500D01*
X80352Y44471D01*
X81501Y42751D01*
X83221Y41602D01*
X85250Y41198D01*
X87279Y41602D01*
X88999Y42751D01*
X90148Y44471D01*
X90552Y46500D01*
X90148Y48529D01*
X88999Y50249D01*
X87279Y51398D01*
X85250Y51802D01*
D02*
G37*
G36*
X421571Y59794D02*
X419542Y59391D01*
X417822Y58242D01*
X416673Y56521D01*
X416269Y54493D01*
X416673Y52463D01*
X417210Y51660D01*
X417767Y50642D01*
X417210Y49625D01*
X416673Y48821D01*
X416269Y46792D01*
X416673Y44764D01*
X417822Y43043D01*
X419542Y41894D01*
X421571Y41491D01*
X423600Y41894D01*
X425320Y43043D01*
X426470Y44764D01*
X426873Y46792D01*
X426470Y48821D01*
X425933Y49625D01*
X425376Y50642D01*
X425933Y51660D01*
X426470Y52463D01*
X426873Y54493D01*
X426470Y56521D01*
X425320Y58242D01*
X423600Y59391D01*
X421571Y59794D01*
D02*
G37*
G36*
X586000Y44302D02*
X583971Y43898D01*
X582251Y42749D01*
X581764Y42020D01*
X580236D01*
X579749Y42749D01*
X578029Y43898D01*
X576000Y44302D01*
X573971Y43898D01*
X572251Y42749D01*
X571102Y41029D01*
X570698Y39000D01*
X571102Y36971D01*
X572251Y35251D01*
X573971Y34102D01*
X576000Y33698D01*
X578029Y34102D01*
X579749Y35251D01*
X580236Y35980D01*
X581764D01*
X582251Y35251D01*
X583971Y34102D01*
X586000Y33698D01*
X588029Y34102D01*
X589749Y35251D01*
X590898Y36971D01*
X591302Y39000D01*
X590898Y41029D01*
X589749Y42749D01*
X588029Y43898D01*
X586000Y44302D01*
D02*
G37*
G36*
X347500Y51508D02*
X345751Y51277D01*
X344121Y50602D01*
X342721Y49528D01*
X341648Y48129D01*
X340973Y46499D01*
X340742Y44750D01*
X340973Y43001D01*
X341648Y41371D01*
X342721Y39971D01*
X344121Y38898D01*
X345751Y38222D01*
X347500Y37992D01*
X349249Y38222D01*
X350879Y38898D01*
X352279Y39971D01*
X353352Y41371D01*
X354027Y43001D01*
X354258Y44750D01*
X354027Y46499D01*
X353352Y48129D01*
X352279Y49528D01*
X350879Y50602D01*
X349249Y51277D01*
X347500Y51508D01*
D02*
G37*
G36*
X353500Y36302D02*
X351471Y35898D01*
X349751Y34749D01*
X348602Y33029D01*
X348368Y31857D01*
X348272Y31374D01*
X346978D01*
X346881Y31857D01*
X346648Y33029D01*
X345499Y34749D01*
X343779Y35898D01*
X341750Y36302D01*
X339721Y35898D01*
X338001Y34749D01*
X336852Y33029D01*
X336448Y31000D01*
X336852Y28971D01*
X338001Y27251D01*
X339721Y26102D01*
X341750Y25698D01*
X343779Y26102D01*
X345499Y27251D01*
X346648Y28971D01*
X346881Y30143D01*
X346978Y30626D01*
X348272D01*
X348368Y30143D01*
X348602Y28971D01*
X349751Y27251D01*
X351471Y26102D01*
X353500Y25698D01*
X355529Y26102D01*
X357249Y27251D01*
X358398Y28971D01*
X358802Y31000D01*
X358398Y33029D01*
X357249Y34749D01*
X355529Y35898D01*
X353500Y36302D01*
D02*
G37*
G36*
X291750Y46758D02*
X290001Y46528D01*
X288371Y45852D01*
X286971Y44778D01*
X285898Y43379D01*
X285222Y41749D01*
X284992Y40000D01*
X285222Y38251D01*
X285898Y36621D01*
X286971Y35222D01*
X288371Y34148D01*
X290001Y33472D01*
X291750Y33242D01*
X293499Y33472D01*
X295129Y34148D01*
X296528Y35222D01*
X297602Y36621D01*
X298277Y38251D01*
X298508Y40000D01*
X298277Y41749D01*
X297602Y43379D01*
X296528Y44778D01*
X295129Y45852D01*
X293499Y46528D01*
X291750Y46758D01*
D02*
G37*
G36*
X460000Y55302D02*
X457971Y54898D01*
X456251Y53749D01*
X455102Y52029D01*
X454698Y50000D01*
X455102Y47971D01*
X456251Y46251D01*
X456980Y45764D01*
Y44236D01*
X456251Y43749D01*
X455102Y42029D01*
X454698Y40000D01*
X455102Y37971D01*
X456251Y36251D01*
X457971Y35102D01*
X460000Y34698D01*
X462029Y35102D01*
X463749Y36251D01*
X464898Y37971D01*
X465302Y40000D01*
X464898Y42029D01*
X463749Y43749D01*
X463020Y44236D01*
Y45764D01*
X463749Y46251D01*
X464898Y47971D01*
X465302Y50000D01*
X464898Y52029D01*
X463749Y53749D01*
X462029Y54898D01*
X460000Y55302D01*
D02*
G37*
G36*
X445000Y53302D02*
X442971Y52898D01*
X441251Y51749D01*
X440102Y50029D01*
X439698Y48000D01*
X440102Y45971D01*
X441251Y44251D01*
X442971Y43102D01*
X445000Y42698D01*
X447029Y43102D01*
X448749Y44251D01*
X449898Y45971D01*
X450302Y48000D01*
X449898Y50029D01*
X448749Y51749D01*
X447029Y52898D01*
X445000Y53302D01*
D02*
G37*
G36*
X100500Y65302D02*
X98471Y64898D01*
X96751Y63749D01*
X95602Y62029D01*
X95198Y60000D01*
X95602Y57971D01*
X96751Y56251D01*
X98471Y55102D01*
X100500Y54698D01*
X102529Y55102D01*
X104249Y56251D01*
X105398Y57971D01*
X105802Y60000D01*
X105398Y62029D01*
X104249Y63749D01*
X102529Y64898D01*
X100500Y65302D01*
D02*
G37*
G36*
X347500Y67571D02*
X345081Y67090D01*
X343030Y65720D01*
X341660Y63669D01*
X341179Y61250D01*
X341660Y58831D01*
X343030Y56780D01*
X345081Y55410D01*
X347500Y54928D01*
X349919Y55410D01*
X351970Y56780D01*
X353340Y58831D01*
X353821Y61250D01*
X353340Y63669D01*
X351970Y65720D01*
X349919Y67090D01*
X347500Y67571D01*
D02*
G37*
G36*
X163250Y65552D02*
X161221Y65148D01*
X159501Y63999D01*
X158352Y62279D01*
X157948Y60250D01*
X158352Y58221D01*
X159501Y56501D01*
X161221Y55352D01*
X163250Y54948D01*
X165279Y55352D01*
X166999Y56501D01*
X168148Y58221D01*
X168552Y60250D01*
X168148Y62279D01*
X166999Y63999D01*
X165279Y65148D01*
X163250Y65552D01*
D02*
G37*
G36*
X370000Y58802D02*
X367971Y58398D01*
X366251Y57249D01*
X365102Y55529D01*
X364698Y53500D01*
X365102Y51471D01*
X366251Y49751D01*
X367971Y48602D01*
X370000Y48198D01*
X372029Y48602D01*
X373749Y49751D01*
X374898Y51471D01*
X375302Y53500D01*
X374898Y55529D01*
X373749Y57249D01*
X372029Y58398D01*
X370000Y58802D01*
D02*
G37*
G36*
X515250Y54302D02*
X513221Y53898D01*
X511501Y52749D01*
X510352Y51029D01*
X509948Y49000D01*
X510352Y46971D01*
X511501Y45251D01*
X513221Y44102D01*
X515250Y43698D01*
X517279Y44102D01*
X518999Y45251D01*
X520148Y46971D01*
X520552Y49000D01*
X520148Y51029D01*
X518999Y52749D01*
X517279Y53898D01*
X515250Y54302D01*
D02*
G37*
G36*
X559550Y64234D02*
X557018Y63900D01*
X554658Y62923D01*
X552632Y61368D01*
X551077Y59342D01*
X550100Y56982D01*
X549766Y54450D01*
X550100Y51918D01*
X551077Y49558D01*
X552632Y47532D01*
X554658Y45977D01*
X555794Y45507D01*
X556571Y45185D01*
Y45185D01*
X555869Y45476D01*
X556533Y45060D01*
X556302Y44298D01*
X555990Y44006D01*
X554500Y44302D01*
X552471Y43898D01*
X550751Y42749D01*
X549602Y41029D01*
X549398Y40002D01*
X548103D01*
X547898Y41029D01*
X546749Y42749D01*
X545029Y43898D01*
X543000Y44302D01*
X540971Y43898D01*
X539251Y42749D01*
X538764Y42020D01*
X537236D01*
X536749Y42749D01*
X535514Y43575D01*
X535973Y44795D01*
X536950Y44666D01*
X539482Y45000D01*
X541842Y45977D01*
X543868Y47532D01*
X545423Y49558D01*
X546400Y51918D01*
X546734Y54450D01*
X546400Y56982D01*
X545423Y59342D01*
X543868Y61368D01*
X541842Y62923D01*
X539482Y63900D01*
X536950Y64234D01*
X534418Y63900D01*
X532058Y62923D01*
X530032Y61368D01*
X528477Y59342D01*
X527500Y56982D01*
X527166Y54450D01*
X527500Y51918D01*
X528477Y49558D01*
X530032Y47532D01*
X532058Y45977D01*
X532538Y45778D01*
X532603Y45518D01*
X531668Y44037D01*
X530971Y43898D01*
X529251Y42749D01*
X528102Y41029D01*
X527698Y39000D01*
X528102Y36971D01*
X529251Y35251D01*
X530971Y34102D01*
X533000Y33698D01*
X535029Y34102D01*
X536749Y35251D01*
X537236Y35980D01*
X538764D01*
X539251Y35251D01*
X540971Y34102D01*
X543000Y33698D01*
X545029Y34102D01*
X546749Y35251D01*
X547898Y36971D01*
X548103Y37998D01*
X549398D01*
X549602Y36971D01*
X550751Y35251D01*
X552471Y34102D01*
X554500Y33698D01*
X556529Y34102D01*
X558249Y35251D01*
X559398Y36971D01*
X559802Y39000D01*
X559398Y41029D01*
X558249Y42749D01*
X556998Y43585D01*
X557016Y44998D01*
X557018Y45000D01*
X557778Y44900D01*
X559550Y44666D01*
X562082Y45000D01*
X564442Y45977D01*
X566468Y47532D01*
X568023Y49558D01*
X569000Y51918D01*
X569334Y54450D01*
X569000Y56982D01*
X568023Y59342D01*
X566468Y61368D01*
X564442Y62923D01*
X562082Y63900D01*
X559550Y64234D01*
D02*
G37*
G36*
X398000Y53302D02*
X395971Y52898D01*
X394251Y51749D01*
X393102Y50029D01*
X392862Y48825D01*
X391607Y48144D01*
X391533Y48154D01*
X389571Y48544D01*
X387542Y48141D01*
X385822Y46992D01*
X384673Y45271D01*
X384269Y43243D01*
X384673Y41214D01*
X385822Y39494D01*
X386183Y39253D01*
Y37982D01*
X385822Y37741D01*
X384673Y36021D01*
X384269Y33993D01*
X384673Y31964D01*
X385822Y30243D01*
X387542Y29094D01*
X389571Y28691D01*
X391206Y29016D01*
X391828Y28883D01*
X392556Y28206D01*
X392852Y26721D01*
X394001Y25001D01*
X395721Y23852D01*
X397750Y23448D01*
X399779Y23852D01*
X401499Y25001D01*
X402648Y26721D01*
X403052Y28750D01*
X402648Y30779D01*
X401499Y32499D01*
X399779Y33648D01*
X397750Y34052D01*
X396115Y33727D01*
X395494Y33860D01*
X394765Y34537D01*
X394470Y36021D01*
X393320Y37741D01*
X392960Y37982D01*
Y39253D01*
X393320Y39494D01*
X394470Y41214D01*
X394709Y42417D01*
X395964Y43098D01*
X396039Y43088D01*
X398000Y42698D01*
X400029Y43102D01*
X401749Y44251D01*
X402898Y45971D01*
X403302Y48000D01*
X402898Y50029D01*
X401749Y51749D01*
X400029Y52898D01*
X398000Y53302D01*
D02*
G37*
G36*
X98250Y297508D02*
X96501Y297278D01*
X94871Y296602D01*
X93471Y295529D01*
X92398Y294129D01*
X91722Y292499D01*
X91492Y290750D01*
X91722Y289001D01*
X92398Y287371D01*
X93471Y285972D01*
X94871Y284898D01*
X96501Y284223D01*
X98250Y283992D01*
X99999Y284223D01*
X101629Y284898D01*
X103028Y285972D01*
X104102Y287371D01*
X104777Y289001D01*
X105008Y290750D01*
X104777Y292499D01*
X104102Y294129D01*
X103028Y295529D01*
X101629Y296602D01*
X99999Y297278D01*
X98250Y297508D01*
D02*
G37*
G36*
X141750D02*
X140001Y297278D01*
X138371Y296602D01*
X136972Y295529D01*
X135898Y294129D01*
X135223Y292499D01*
X134992Y290750D01*
X135223Y289001D01*
X135898Y287371D01*
X136972Y285972D01*
X138371Y284898D01*
X140001Y284223D01*
X141750Y283992D01*
X143499Y284223D01*
X145129Y284898D01*
X146529Y285972D01*
X147602Y287371D01*
X148278Y289001D01*
X148508Y290750D01*
X148278Y292499D01*
X147602Y294129D01*
X146529Y295529D01*
X145129Y296602D01*
X143499Y297278D01*
X141750Y297508D01*
D02*
G37*
G36*
X163250D02*
X161501Y297278D01*
X159871Y296602D01*
X158471Y295529D01*
X157398Y294129D01*
X156722Y292499D01*
X156492Y290750D01*
X156722Y289001D01*
X157398Y287371D01*
X158471Y285972D01*
X159871Y284898D01*
X161501Y284223D01*
X163250Y283992D01*
X164999Y284223D01*
X166629Y284898D01*
X168029Y285972D01*
X169102Y287371D01*
X169778Y289001D01*
X170008Y290750D01*
X169778Y292499D01*
X169102Y294129D01*
X168029Y295529D01*
X166629Y296602D01*
X164999Y297278D01*
X163250Y297508D01*
D02*
G37*
G36*
X559550Y294034D02*
X557018Y293700D01*
X554658Y292723D01*
X552632Y291168D01*
X551077Y289142D01*
X550100Y286782D01*
X549766Y284250D01*
X550100Y281718D01*
X550551Y280627D01*
X549632Y279527D01*
X548250Y279802D01*
X546867Y279527D01*
X545949Y280627D01*
X546400Y281718D01*
X546734Y284250D01*
X546400Y286782D01*
X545423Y289142D01*
X543868Y291168D01*
X541842Y292723D01*
X539482Y293700D01*
X536950Y294034D01*
X534418Y293700D01*
X532058Y292723D01*
X530032Y291168D01*
X528477Y289142D01*
X527500Y286782D01*
X527166Y284250D01*
X527500Y281718D01*
X528477Y279358D01*
X530032Y277332D01*
X532058Y275777D01*
X534418Y274800D01*
X536950Y274466D01*
X539482Y274800D01*
X541842Y275777D01*
X541919Y275836D01*
X543071Y275120D01*
X542948Y274500D01*
X543352Y272471D01*
X544501Y270751D01*
X546221Y269602D01*
X548250Y269198D01*
X550279Y269602D01*
X551999Y270751D01*
X553148Y272471D01*
X553552Y274500D01*
X553429Y275120D01*
X554581Y275836D01*
X554658Y275777D01*
X557018Y274800D01*
X559550Y274466D01*
X560971Y274653D01*
X562155Y274505D01*
X562372Y273626D01*
X562602Y272471D01*
X563751Y270751D01*
X565471Y269602D01*
X567500Y269198D01*
X569529Y269602D01*
X571249Y270751D01*
X572398Y272471D01*
X572802Y274500D01*
X572398Y276529D01*
X571249Y278249D01*
X569529Y279398D01*
X569135Y279477D01*
X568536Y280597D01*
X569000Y281718D01*
X569090Y282399D01*
X570411Y282707D01*
X570530Y282530D01*
X572581Y281160D01*
X574346Y280809D01*
X574986Y279479D01*
X574852Y279279D01*
X574448Y277250D01*
X574852Y275221D01*
X576001Y273501D01*
X577721Y272352D01*
X579750Y271948D01*
X581779Y272352D01*
X583499Y273501D01*
X584648Y275221D01*
X585052Y277250D01*
X584648Y279279D01*
X583499Y280999D01*
X581779Y282148D01*
X580864Y282330D01*
X580279Y283741D01*
X580840Y284581D01*
X581321Y287000D01*
X580840Y289419D01*
X579470Y291470D01*
X577419Y292840D01*
X575000Y293321D01*
X572581Y292840D01*
X570530Y291470D01*
X569236Y289533D01*
X568840Y289405D01*
X567854Y289363D01*
X566468Y291168D01*
X564442Y292723D01*
X562082Y293700D01*
X559550Y294034D01*
D02*
G37*
G36*
X-15000Y285302D02*
X-17029Y284898D01*
X-18749Y283749D01*
X-19898Y282029D01*
X-20302Y280000D01*
X-19898Y277971D01*
X-18749Y276251D01*
X-17029Y275102D01*
X-15000Y274698D01*
X-12971Y275102D01*
X-11251Y276251D01*
X-10102Y277971D01*
X-9698Y280000D01*
X-10102Y282029D01*
X-11251Y283749D01*
X-12971Y284898D01*
X-15000Y285302D01*
D02*
G37*
G36*
X55500D02*
X53471Y284898D01*
X51751Y283749D01*
X50602Y282029D01*
X50198Y280000D01*
X50602Y277971D01*
X51751Y276251D01*
X53471Y275102D01*
X55500Y274698D01*
X57529Y275102D01*
X59249Y276251D01*
X60398Y277971D01*
X60802Y280000D01*
X60398Y282029D01*
X59249Y283749D01*
X57529Y284898D01*
X55500Y285302D01*
D02*
G37*
G36*
X593750Y286052D02*
X591721Y285648D01*
X590001Y284499D01*
X588852Y282779D01*
X588448Y280750D01*
X588852Y278721D01*
X590001Y277001D01*
X591721Y275852D01*
X593750Y275448D01*
X595779Y275852D01*
X597499Y277001D01*
X598648Y278721D01*
X599052Y280750D01*
X598648Y282779D01*
X597499Y284499D01*
X595779Y285648D01*
X593750Y286052D01*
D02*
G37*
G36*
X233250Y297508D02*
X231501Y297278D01*
X229871Y296602D01*
X228472Y295529D01*
X227398Y294129D01*
X226723Y292499D01*
X226492Y290750D01*
X226723Y289001D01*
X227398Y287371D01*
X228472Y285972D01*
X229871Y284898D01*
X231501Y284223D01*
X233250Y283992D01*
X234999Y284223D01*
X236629Y284898D01*
X238029Y285972D01*
X239102Y287371D01*
X239778Y289001D01*
X240008Y290750D01*
X239778Y292499D01*
X239102Y294129D01*
X238029Y295529D01*
X236629Y296602D01*
X234999Y297278D01*
X233250Y297508D01*
D02*
G37*
G36*
X339750Y298552D02*
X337721Y298148D01*
X336001Y296999D01*
X334852Y295279D01*
X334448Y293250D01*
X334852Y291221D01*
X336001Y289501D01*
X337721Y288352D01*
X339750Y287948D01*
X341779Y288352D01*
X343499Y289501D01*
X344648Y291221D01*
X345052Y293250D01*
X344648Y295279D01*
X343499Y296999D01*
X341779Y298148D01*
X339750Y298552D01*
D02*
G37*
G36*
X352250D02*
X350221Y298148D01*
X348501Y296999D01*
X347352Y295279D01*
X346948Y293250D01*
X347352Y291221D01*
X348501Y289501D01*
X350221Y288352D01*
X352250Y287948D01*
X354279Y288352D01*
X355999Y289501D01*
X357148Y291221D01*
X357552Y293250D01*
X357148Y295279D01*
X355999Y296999D01*
X354279Y298148D01*
X352250Y298552D01*
D02*
G37*
G36*
X421571Y309794D02*
X419542Y309391D01*
X417822Y308242D01*
X416673Y306521D01*
X416269Y304492D01*
X416673Y302464D01*
X417210Y301660D01*
X417767Y300643D01*
X417210Y299625D01*
X416673Y298821D01*
X416269Y296793D01*
X416673Y294764D01*
X417822Y293043D01*
X419542Y291894D01*
X421571Y291491D01*
X423600Y291894D01*
X425320Y293043D01*
X426470Y294764D01*
X426873Y296793D01*
X426470Y298821D01*
X425933Y299625D01*
X425376Y300643D01*
X425933Y301660D01*
X426470Y302464D01*
X426873Y304492D01*
X426470Y306521D01*
X425320Y308242D01*
X423600Y309391D01*
X421571Y309794D01*
D02*
G37*
G36*
X499500Y295552D02*
X497471Y295148D01*
X495751Y293999D01*
X494602Y292279D01*
X494198Y290250D01*
X494602Y288221D01*
X495508Y286864D01*
X495556Y286595D01*
X494579Y285380D01*
X494487Y285355D01*
X494231Y285511D01*
X492529Y286648D01*
X490500Y287052D01*
X488471Y286648D01*
X486751Y285499D01*
X486264Y284770D01*
X484736D01*
X484249Y285499D01*
X482529Y286648D01*
X480500Y287052D01*
X478471Y286648D01*
X476751Y285499D01*
X475602Y283779D01*
X475198Y281750D01*
X475602Y279721D01*
X476751Y278001D01*
X478017Y277155D01*
X478153Y275719D01*
X477780Y275470D01*
X476410Y273419D01*
X475928Y271000D01*
X476410Y268581D01*
X477780Y266530D01*
X479831Y265160D01*
X482250Y264678D01*
X484669Y265160D01*
X486720Y266530D01*
X488090Y268581D01*
X488571Y271000D01*
X488090Y273419D01*
X486720Y275470D01*
X485101Y276551D01*
X484873Y277865D01*
X484917Y278086D01*
X485140Y278367D01*
X486533Y278327D01*
X486751Y278001D01*
X488471Y276852D01*
X490500Y276448D01*
X492529Y276852D01*
X494249Y278001D01*
X494365Y278175D01*
X495466D01*
X495769Y277989D01*
X497293Y276971D01*
X497520Y276364D01*
X497605Y275530D01*
X496602Y274029D01*
X496198Y272000D01*
X496602Y269971D01*
X497751Y268251D01*
X499471Y267102D01*
X501500Y266698D01*
X503529Y267102D01*
X505249Y268251D01*
X506398Y269971D01*
X506802Y272000D01*
X506398Y274029D01*
X505249Y275749D01*
X503707Y276779D01*
X503480Y277386D01*
X503395Y278220D01*
X504398Y279721D01*
X504802Y281750D01*
X504398Y283779D01*
X503492Y285136D01*
X503249Y286501D01*
X504398Y288221D01*
X504802Y290250D01*
X504398Y292279D01*
X503249Y293999D01*
X501529Y295148D01*
X499500Y295552D01*
D02*
G37*
G36*
X315000Y294802D02*
X312971Y294398D01*
X311251Y293249D01*
X310102Y291529D01*
X309698Y289500D01*
X310102Y287471D01*
X311251Y285751D01*
X312971Y284602D01*
X315000Y284198D01*
X317029Y284602D01*
X318749Y285751D01*
X319898Y287471D01*
X320302Y289500D01*
X319898Y291529D01*
X318749Y293249D01*
X317029Y294398D01*
X315000Y294802D01*
D02*
G37*
G36*
X206750Y297758D02*
X205001Y297528D01*
X203371Y296852D01*
X201971Y295779D01*
X200898Y294379D01*
X200222Y292749D01*
X199992Y291000D01*
X200222Y289251D01*
X200898Y287621D01*
X201971Y286222D01*
X203371Y285148D01*
X205001Y284473D01*
X206750Y284242D01*
X208499Y284473D01*
X210129Y285148D01*
X211528Y286222D01*
X212602Y287621D01*
X213277Y289251D01*
X213508Y291000D01*
X213277Y292749D01*
X212602Y294379D01*
X211528Y295779D01*
X210129Y296852D01*
X208499Y297528D01*
X206750Y297758D01*
D02*
G37*
G36*
X460000Y305302D02*
X457971Y304898D01*
X456251Y303749D01*
X455102Y302029D01*
X454698Y300000D01*
X455102Y297971D01*
X456251Y296251D01*
X456980Y295764D01*
Y294236D01*
X456251Y293749D01*
X455102Y292029D01*
X454698Y290000D01*
X455102Y287971D01*
X456251Y286251D01*
X457971Y285102D01*
X460000Y284698D01*
X462029Y285102D01*
X463749Y286251D01*
X464898Y287971D01*
X465302Y290000D01*
X464898Y292029D01*
X463749Y293749D01*
X463020Y294236D01*
Y295764D01*
X463749Y296251D01*
X464898Y297971D01*
X465302Y300000D01*
X464898Y302029D01*
X463749Y303749D01*
X462029Y304898D01*
X460000Y305302D01*
D02*
G37*
G36*
X234000Y282302D02*
X231971Y281898D01*
X230251Y280749D01*
X229102Y279029D01*
X228698Y277000D01*
X229102Y274971D01*
X230251Y273251D01*
X231971Y272102D01*
X234000Y271698D01*
X236029Y272102D01*
X237749Y273251D01*
X238898Y274971D01*
X239302Y277000D01*
X238898Y279029D01*
X237749Y280749D01*
X236029Y281898D01*
X234000Y282302D01*
D02*
G37*
G36*
X324500Y274802D02*
X322471Y274398D01*
X320751Y273249D01*
X319602Y271529D01*
X319198Y269500D01*
X319602Y267471D01*
X320751Y265751D01*
X322471Y264602D01*
X324500Y264198D01*
X326529Y264602D01*
X328249Y265751D01*
X329398Y267471D01*
X329802Y269500D01*
X329398Y271529D01*
X328249Y273249D01*
X326529Y274398D01*
X324500Y274802D01*
D02*
G37*
G36*
X-3250Y275302D02*
X-5279Y274898D01*
X-6999Y273749D01*
X-8148Y272029D01*
X-8552Y270000D01*
X-8148Y267971D01*
X-6999Y266251D01*
X-5279Y265102D01*
X-3250Y264698D01*
X-1221Y265102D01*
X499Y266251D01*
X1648Y267971D01*
X2052Y270000D01*
X1648Y272029D01*
X499Y273749D01*
X-1221Y274898D01*
X-3250Y275302D01*
D02*
G37*
G36*
X70250D02*
X68221Y274898D01*
X66501Y273749D01*
X65352Y272029D01*
X64948Y270000D01*
X65352Y267971D01*
X66501Y266251D01*
X68221Y265102D01*
X70250Y264698D01*
X72279Y265102D01*
X73999Y266251D01*
X75148Y267971D01*
X75552Y270000D01*
X75148Y272029D01*
X73999Y273749D01*
X72279Y274898D01*
X70250Y275302D01*
D02*
G37*
G36*
X445000Y265302D02*
X442971Y264898D01*
X441251Y263749D01*
X440764Y263020D01*
X439236D01*
X438749Y263749D01*
X437029Y264898D01*
X435000Y265302D01*
X432971Y264898D01*
X431251Y263749D01*
X430764Y263020D01*
X429236D01*
X428749Y263749D01*
X427029Y264898D01*
X425000Y265302D01*
X422971Y264898D01*
X421251Y263749D01*
X420764Y263020D01*
X419236D01*
X418749Y263749D01*
X417029Y264898D01*
X415000Y265302D01*
X412971Y264898D01*
X411251Y263749D01*
X410102Y262029D01*
X409698Y260000D01*
X410102Y257971D01*
X411251Y256251D01*
X411980Y255764D01*
Y254236D01*
X411251Y253749D01*
X410102Y252029D01*
X409698Y250000D01*
X410102Y247971D01*
X411251Y246251D01*
X412971Y245102D01*
X415000Y244698D01*
X417029Y245102D01*
X418749Y246251D01*
X419236Y246980D01*
X420764D01*
X421251Y246251D01*
X422971Y245102D01*
X425000Y244698D01*
X427029Y245102D01*
X428749Y246251D01*
X429898Y247971D01*
X430302Y250000D01*
X429898Y252029D01*
X428749Y253749D01*
X428020Y254236D01*
Y255764D01*
X428749Y256251D01*
X429236Y256980D01*
X430764D01*
X431251Y256251D01*
X432971Y255102D01*
X435000Y254698D01*
X437029Y255102D01*
X438749Y256251D01*
X439236Y256980D01*
X440764D01*
X441251Y256251D01*
X442971Y255102D01*
X445000Y254698D01*
X447029Y255102D01*
X448749Y256251D01*
X449898Y257971D01*
X450302Y260000D01*
X449898Y262029D01*
X448749Y263749D01*
X447029Y264898D01*
X445000Y265302D01*
D02*
G37*
G36*
X599750Y268052D02*
X597721Y267648D01*
X596001Y266499D01*
X594852Y264779D01*
X594448Y262750D01*
X594852Y260721D01*
X596001Y259001D01*
X597721Y257852D01*
X599750Y257448D01*
X601779Y257852D01*
X603499Y259001D01*
X604648Y260721D01*
X605052Y262750D01*
X604648Y264779D01*
X603499Y266499D01*
X601779Y267648D01*
X599750Y268052D01*
D02*
G37*
G36*
X342500Y271258D02*
X340751Y271028D01*
X339121Y270352D01*
X337721Y269279D01*
X336648Y267879D01*
X335973Y266249D01*
X335742Y264500D01*
X335973Y262751D01*
X336648Y261121D01*
X337721Y259722D01*
X339121Y258648D01*
X340751Y257973D01*
X342500Y257742D01*
X344249Y257973D01*
X345879Y258648D01*
X347279Y259722D01*
X348352Y261121D01*
X349027Y262751D01*
X349258Y264500D01*
X349027Y266249D01*
X348352Y267879D01*
X347279Y269279D01*
X345879Y270352D01*
X344249Y271028D01*
X342500Y271258D01*
D02*
G37*
G36*
X286500Y274321D02*
X284081Y273840D01*
X282030Y272470D01*
X280660Y270419D01*
X280179Y268000D01*
X280660Y265581D01*
X282030Y263530D01*
X284081Y262160D01*
X286500Y261679D01*
X288919Y262160D01*
X290970Y263530D01*
X292340Y265581D01*
X292822Y268000D01*
X292340Y270419D01*
X290970Y272470D01*
X288919Y273840D01*
X286500Y274321D01*
D02*
G37*
G36*
X460000Y275302D02*
X457971Y274898D01*
X456251Y273749D01*
X455102Y272029D01*
X454698Y270000D01*
X455102Y267971D01*
X456251Y266251D01*
X457971Y265102D01*
X460000Y264698D01*
X462029Y265102D01*
X463749Y266251D01*
X464898Y267971D01*
X465302Y270000D01*
X464898Y272029D01*
X463749Y273749D01*
X462029Y274898D01*
X460000Y275302D01*
D02*
G37*
G36*
X287000Y310052D02*
X284971Y309648D01*
X283251Y308499D01*
X282102Y306779D01*
X281698Y304750D01*
X282102Y302721D01*
X283251Y301001D01*
X284688Y300041D01*
X284391Y298771D01*
X277250D01*
X275109Y298489D01*
X273115Y297663D01*
X271402Y296348D01*
X270087Y294635D01*
X269261Y292641D01*
X268979Y290500D01*
X269261Y288359D01*
X270087Y286365D01*
X271402Y284652D01*
X273115Y283337D01*
X273547Y283158D01*
X273637Y282509D01*
X273549Y281783D01*
X272001Y280749D01*
X270852Y279029D01*
X270448Y277000D01*
X270852Y274971D01*
X272001Y273251D01*
X273721Y272102D01*
X275750Y271698D01*
X277779Y272102D01*
X279499Y273251D01*
X280648Y274971D01*
X281052Y277000D01*
X280648Y279029D01*
X279499Y280749D01*
X279184Y280959D01*
X279569Y282229D01*
X287000D01*
X289141Y282511D01*
X291135Y283337D01*
X292848Y284652D01*
X294163Y286365D01*
X294989Y288359D01*
X295271Y290500D01*
X294989Y292641D01*
X294163Y294635D01*
X292848Y296348D01*
X291135Y297663D01*
X289141Y298489D01*
X288868Y298525D01*
X288826Y299811D01*
X289029Y299852D01*
X290749Y301001D01*
X291898Y302721D01*
X292302Y304750D01*
X291898Y306779D01*
X290749Y308499D01*
X289029Y309648D01*
X287000Y310052D01*
D02*
G37*
G36*
X99000Y282302D02*
X96971Y281898D01*
X95251Y280749D01*
X94102Y279029D01*
X93698Y277000D01*
X94102Y274971D01*
X95251Y273251D01*
X96971Y272102D01*
X99000Y271698D01*
X101029Y272102D01*
X102749Y273251D01*
X103898Y274971D01*
X104302Y277000D01*
X103898Y279029D01*
X102749Y280749D01*
X101029Y281898D01*
X99000Y282302D01*
D02*
G37*
G36*
X164000D02*
X161971Y281898D01*
X160251Y280749D01*
X159102Y279029D01*
X158698Y277000D01*
X159102Y274971D01*
X160251Y273251D01*
X161971Y272102D01*
X164000Y271698D01*
X166029Y272102D01*
X167749Y273251D01*
X168898Y274971D01*
X169302Y277000D01*
X168898Y279029D01*
X167749Y280749D01*
X166029Y281898D01*
X164000Y282302D01*
D02*
G37*
G36*
X205750Y282302D02*
X203721Y281898D01*
X202001Y280749D01*
X200852Y279029D01*
X200448Y277000D01*
X200852Y274971D01*
X202001Y273251D01*
X203721Y272102D01*
X205750Y271698D01*
X207779Y272102D01*
X209499Y273251D01*
X210648Y274971D01*
X211052Y277000D01*
X210648Y279029D01*
X209499Y280749D01*
X207779Y281898D01*
X205750Y282302D01*
D02*
G37*
G36*
X133250Y270013D02*
X117500D01*
X116251Y269764D01*
X115193Y269057D01*
X111824Y265688D01*
X111250Y265802D01*
X109221Y265398D01*
X107501Y264249D01*
X106352Y262529D01*
X105948Y260500D01*
X106340Y258533D01*
X106352Y258309D01*
X105699Y257263D01*
X93000D01*
X91751Y257014D01*
X90693Y256307D01*
X83443Y249057D01*
X82736Y247999D01*
X82487Y246750D01*
Y204102D01*
X66399Y188013D01*
X25500D01*
X24251Y187764D01*
X23193Y187057D01*
X1801Y165665D01*
X631Y166291D01*
X821Y167250D01*
X340Y169669D01*
X-1030Y171720D01*
X-3081Y173090D01*
X-4961Y173464D01*
X-5629Y174074D01*
X-5816Y174804D01*
X-5429Y176750D01*
X-5910Y179169D01*
X-7280Y181220D01*
X-9331Y182590D01*
X-11750Y183071D01*
X-14169Y182590D01*
X-16220Y181220D01*
X-17590Y179169D01*
X-18071Y176750D01*
X-17590Y174331D01*
X-16220Y172280D01*
X-14169Y170910D01*
X-12289Y170536D01*
X-11621Y169926D01*
X-11434Y169196D01*
X-11821Y167250D01*
X-11340Y164831D01*
X-9970Y162780D01*
X-7919Y161410D01*
X-5500Y160929D01*
X-4541Y161119D01*
X-3915Y159949D01*
X-9225Y154639D01*
X-9903Y154839D01*
X-10483Y155177D01*
X-10852Y157029D01*
X-12001Y158749D01*
X-13721Y159898D01*
X-15750Y160302D01*
X-17779Y159898D01*
X-19499Y158749D01*
X-20648Y157029D01*
X-21052Y155000D01*
X-20648Y152971D01*
X-19499Y151251D01*
X-17779Y150102D01*
X-15750Y149698D01*
X-13721Y150102D01*
X-12283Y151063D01*
X-11301Y150719D01*
X-11013Y150500D01*
Y147851D01*
X-20057Y138807D01*
X-20764Y137749D01*
X-21013Y136500D01*
Y109074D01*
X-21499Y108749D01*
X-22648Y107029D01*
X-23052Y105000D01*
X-22648Y102971D01*
X-21673Y101512D01*
X-21965Y100686D01*
X-22024Y100571D01*
X-22255Y100271D01*
X-24129Y99898D01*
X-25849Y98749D01*
X-26998Y97029D01*
X-27402Y95000D01*
X-26998Y92971D01*
X-25849Y91251D01*
X-24129Y90102D01*
X-22100Y89698D01*
X-20071Y90102D01*
X-18351Y91251D01*
X-17202Y92971D01*
X-16798Y95000D01*
X-17202Y97029D01*
X-18177Y98488D01*
X-17885Y99314D01*
X-17826Y99429D01*
X-17595Y99729D01*
X-15721Y100102D01*
X-14001Y101251D01*
X-12852Y102971D01*
X-12448Y105000D01*
X-12852Y107029D01*
X-14001Y108749D01*
X-14487Y109074D01*
Y112432D01*
X-13217Y112700D01*
X-12249Y111251D01*
X-10529Y110102D01*
X-8500Y109698D01*
X-6471Y110102D01*
X-4751Y111251D01*
X-3914Y112504D01*
X-2435Y112821D01*
X9487Y100899D01*
Y89606D01*
X8217Y89037D01*
X6929Y89898D01*
X4900Y90302D01*
X2871Y89898D01*
X1151Y88749D01*
X2Y87029D01*
X-402Y85000D01*
X2Y82971D01*
X1151Y81251D01*
X2871Y80102D01*
X4900Y79698D01*
X6929Y80102D01*
X8217Y80963D01*
X9487Y80394D01*
Y64352D01*
X-351Y54513D01*
X-3250D01*
X-4498Y54264D01*
X-5557Y53557D01*
X-10826Y48288D01*
X-12250Y48572D01*
X-14669Y48090D01*
X-16720Y46720D01*
X-18090Y44669D01*
X-18571Y42250D01*
X-18090Y39831D01*
X-16720Y37780D01*
X-14669Y36410D01*
X-12250Y35929D01*
X-9831Y36410D01*
X-7780Y37780D01*
X-7718Y37872D01*
X-6449D01*
X-6220Y37530D01*
X-4169Y36160D01*
X-1750Y35679D01*
X669Y36160D01*
X2720Y37530D01*
X4090Y39581D01*
X4571Y42000D01*
X4288Y43424D01*
X19788Y58924D01*
X20707Y59097D01*
X21447Y58988D01*
X22890Y57881D01*
X24872Y57060D01*
X27000Y56780D01*
X29128Y57060D01*
X31110Y57881D01*
X32813Y59187D01*
X34119Y60890D01*
X34940Y62872D01*
X35220Y65000D01*
X34940Y67128D01*
X34119Y69110D01*
X32813Y70813D01*
X31110Y72119D01*
X29128Y72940D01*
X27000Y73220D01*
X24872Y72940D01*
X22890Y72119D01*
X22283Y71653D01*
X21013Y72280D01*
Y111750D01*
X20764Y112999D01*
X20057Y114057D01*
X6807Y127307D01*
X5749Y128014D01*
X4500Y128263D01*
X3542D01*
X2603Y129234D01*
X2645Y130513D01*
X3749Y131251D01*
X4898Y132971D01*
X5302Y135000D01*
X4898Y137029D01*
X3963Y138428D01*
X4368Y139505D01*
X4526Y139698D01*
X14554D01*
X33001Y121251D01*
X34721Y120102D01*
X36750Y119698D01*
X58000D01*
X60029Y120102D01*
X61749Y121251D01*
X70196Y129698D01*
X71750D01*
X73779Y130102D01*
X75499Y131251D01*
X76648Y132971D01*
X77052Y135000D01*
X76648Y137029D01*
X75499Y138749D01*
X73779Y139898D01*
X71750Y140302D01*
X68000D01*
X65971Y139898D01*
X64251Y138749D01*
X55804Y130302D01*
X38946D01*
X22637Y146611D01*
X23356Y147688D01*
X24872Y147060D01*
X27000Y146780D01*
X29128Y147060D01*
X31110Y147881D01*
X32813Y149187D01*
X34119Y150890D01*
X34940Y152872D01*
X35220Y155000D01*
X34940Y157128D01*
X34119Y159110D01*
X32813Y160813D01*
X31110Y162119D01*
X29128Y162940D01*
X27000Y163220D01*
X24872Y162940D01*
X22890Y162119D01*
X21187Y160813D01*
X19881Y159110D01*
X19060Y157128D01*
X18780Y155000D01*
X19060Y152872D01*
X19881Y150890D01*
X20197Y150478D01*
X19317Y149539D01*
X18779Y149898D01*
X16750Y150302D01*
X5462D01*
X4936Y151572D01*
X29601Y176237D01*
X70250D01*
X71499Y176486D01*
X72557Y177193D01*
X104854Y209490D01*
X106232Y209072D01*
X106352Y208471D01*
X107501Y206751D01*
X109221Y205602D01*
X111250Y205198D01*
X111824Y205312D01*
X115693Y201443D01*
X116751Y200736D01*
X118000Y200487D01*
X132500D01*
X133749Y200736D01*
X134807Y201443D01*
X138676Y205312D01*
X139250Y205198D01*
X141279Y205602D01*
X142999Y206751D01*
X144148Y208471D01*
X144552Y210500D01*
X144148Y212529D01*
X142999Y214249D01*
X141279Y215398D01*
X139250Y215802D01*
X137221Y215398D01*
X135501Y214249D01*
X135014Y213520D01*
X133486D01*
X132999Y214249D01*
X131279Y215398D01*
X129250Y215802D01*
X127221Y215398D01*
X126210Y214723D01*
X125250Y214347D01*
X124290Y214723D01*
X123279Y215398D01*
X121250Y215802D01*
X120676Y215688D01*
X116763Y219601D01*
Y237000D01*
X116514Y238249D01*
X115807Y239307D01*
X112807Y242307D01*
X111749Y243014D01*
X110500Y243263D01*
X109277D01*
X108470Y244470D01*
X106419Y245840D01*
X104000Y246322D01*
X101581Y245840D01*
X99530Y244470D01*
X99510Y244440D01*
X98240D01*
X98220Y244470D01*
X96169Y245840D01*
X93750Y246322D01*
X91331Y245840D01*
X91088Y245678D01*
X90279Y246665D01*
X94352Y250737D01*
X114750D01*
X115998Y250986D01*
X117057Y251693D01*
X120676Y255312D01*
X121250Y255198D01*
X123279Y255602D01*
X124999Y256751D01*
X125751D01*
X127471Y255602D01*
X129500Y255198D01*
X131529Y255602D01*
X133249Y256751D01*
X133736Y257480D01*
X135264D01*
X135751Y256751D01*
X137471Y255602D01*
X139500Y255198D01*
X141529Y255602D01*
X143249Y256751D01*
X144398Y258471D01*
X144802Y260500D01*
X144398Y262529D01*
X143249Y264249D01*
X141529Y265398D01*
X139500Y265802D01*
X138926Y265688D01*
X135557Y269057D01*
X134499Y269764D01*
X133250Y270013D01*
D02*
G37*
G36*
X27000Y298220D02*
X24872Y297940D01*
X22890Y297119D01*
X21187Y295813D01*
X19881Y294110D01*
X19060Y292128D01*
X18780Y290000D01*
X19060Y287872D01*
X19881Y285890D01*
X21187Y284187D01*
X22106Y283482D01*
Y281882D01*
X21971Y281779D01*
X20898Y280379D01*
X20222Y278749D01*
X19992Y277000D01*
X20222Y275251D01*
X20898Y273621D01*
X21971Y272222D01*
X23371Y271148D01*
X25001Y270473D01*
X26750Y270242D01*
X28499Y270473D01*
X30129Y271148D01*
X31528Y272222D01*
X32602Y273621D01*
X33277Y275251D01*
X33508Y277000D01*
X33277Y278749D01*
X32602Y280379D01*
X31586Y281703D01*
X31533Y281835D01*
X31644Y283291D01*
X32813Y284187D01*
X34119Y285890D01*
X34940Y287872D01*
X35220Y290000D01*
X34940Y292128D01*
X34119Y294110D01*
X32813Y295813D01*
X31110Y297119D01*
X29128Y297940D01*
X27000Y298220D01*
D02*
G37*
G36*
X140750Y282302D02*
X138721Y281898D01*
X137001Y280749D01*
X135852Y279029D01*
X135448Y277000D01*
X135852Y274971D01*
X137001Y273251D01*
X138721Y272102D01*
X140750Y271698D01*
X142779Y272102D01*
X144499Y273251D01*
X145648Y274971D01*
X146052Y277000D01*
X145648Y279029D01*
X144499Y280749D01*
X142779Y281898D01*
X140750Y282302D01*
D02*
G37*
G36*
X77750Y334571D02*
X75331Y334090D01*
X73280Y332720D01*
X71910Y330669D01*
X71429Y328250D01*
X71910Y325831D01*
X73280Y323780D01*
X74601Y322897D01*
X74106Y321701D01*
X73500Y321822D01*
X71081Y321340D01*
X69030Y319970D01*
X67660Y317919D01*
X67179Y315500D01*
X67660Y313081D01*
X69030Y311030D01*
X71081Y309660D01*
X73500Y309179D01*
X75919Y309660D01*
X77970Y311030D01*
X79340Y313081D01*
X79822Y315500D01*
X79340Y317919D01*
X77970Y319970D01*
X76649Y320853D01*
X77144Y322049D01*
X77750Y321928D01*
X80169Y322410D01*
X82220Y323780D01*
X83590Y325831D01*
X84072Y328250D01*
X83590Y330669D01*
X82220Y332720D01*
X80169Y334090D01*
X77750Y334571D01*
D02*
G37*
G36*
X309000Y334552D02*
X306971Y334148D01*
X305251Y332999D01*
X304102Y331279D01*
X303698Y329250D01*
X304102Y327221D01*
X305251Y325501D01*
X306971Y324352D01*
X309000Y323948D01*
X311029Y324352D01*
X312749Y325501D01*
X313898Y327221D01*
X314302Y329250D01*
X313898Y331279D01*
X312749Y332999D01*
X311029Y334148D01*
X309000Y334552D01*
D02*
G37*
G36*
X321250D02*
X319221Y334148D01*
X317501Y332999D01*
X316352Y331279D01*
X315948Y329250D01*
X316352Y327221D01*
X317501Y325501D01*
X319221Y324352D01*
X321250Y323948D01*
X323279Y324352D01*
X324999Y325501D01*
X326148Y327221D01*
X326552Y329250D01*
X326148Y331279D01*
X324999Y332999D01*
X323279Y334148D01*
X321250Y334552D01*
D02*
G37*
G36*
X394500Y322508D02*
X392751Y322277D01*
X391121Y321602D01*
X389739Y320542D01*
X388761D01*
X387379Y321602D01*
X385749Y322277D01*
X384000Y322508D01*
X382251Y322277D01*
X380621Y321602D01*
X379221Y320528D01*
X378148Y319129D01*
X377472Y317499D01*
X377242Y315750D01*
X377472Y314001D01*
X378148Y312371D01*
X379221Y310972D01*
X380621Y309898D01*
X382251Y309223D01*
X384000Y308992D01*
X385749Y309223D01*
X387379Y309898D01*
X388761Y310958D01*
X389739D01*
X391121Y309898D01*
X392751Y309223D01*
X394500Y308992D01*
X396249Y309223D01*
X397879Y309898D01*
X399278Y310972D01*
X400352Y312371D01*
X401027Y314001D01*
X401258Y315750D01*
X401027Y317499D01*
X400352Y319129D01*
X399278Y320528D01*
X397879Y321602D01*
X396249Y322277D01*
X394500Y322508D01*
D02*
G37*
G36*
X291750Y326008D02*
X290001Y325778D01*
X288371Y325102D01*
X286971Y324029D01*
X285898Y322629D01*
X285222Y320999D01*
X284992Y319250D01*
X285222Y317501D01*
X285898Y315871D01*
X286971Y314471D01*
X288371Y313398D01*
X290001Y312722D01*
X291750Y312492D01*
X293499Y312722D01*
X295129Y313398D01*
X296528Y314471D01*
X297602Y315871D01*
X298277Y317501D01*
X298508Y319250D01*
X298277Y320999D01*
X297602Y322629D01*
X296528Y324029D01*
X295129Y325102D01*
X293499Y325778D01*
X291750Y326008D01*
D02*
G37*
G36*
X503250Y324052D02*
X501221Y323648D01*
X499501Y322499D01*
X498352Y320779D01*
X497948Y318750D01*
X498352Y316721D01*
X499501Y315001D01*
X501221Y313852D01*
X503250Y313448D01*
X505279Y313852D01*
X506999Y315001D01*
X508148Y316721D01*
X508552Y318750D01*
X508148Y320779D01*
X506999Y322499D01*
X505279Y323648D01*
X503250Y324052D01*
D02*
G37*
G36*
X421500Y327302D02*
X419471Y326898D01*
X417751Y325749D01*
X416602Y324029D01*
X416198Y322000D01*
X416602Y319971D01*
X417751Y318251D01*
X419471Y317102D01*
X421500Y316698D01*
X423529Y317102D01*
X425249Y318251D01*
X426398Y319971D01*
X426802Y322000D01*
X426398Y324029D01*
X425249Y325749D01*
X423529Y326898D01*
X421500Y327302D01*
D02*
G37*
G36*
X340250Y342758D02*
X338501Y342528D01*
X336871Y341852D01*
X335471Y340779D01*
X334398Y339379D01*
X333722Y337749D01*
X333492Y336000D01*
X333722Y334251D01*
X334398Y332621D01*
X335471Y331222D01*
X336871Y330148D01*
X338501Y329473D01*
X340250Y329242D01*
X341999Y329473D01*
X343629Y330148D01*
X345028Y331222D01*
X346102Y332621D01*
X346777Y334251D01*
X347008Y336000D01*
X346777Y337749D01*
X346102Y339379D01*
X345028Y340779D01*
X343629Y341852D01*
X341999Y342528D01*
X340250Y342758D01*
D02*
G37*
G36*
X287750Y349758D02*
X286001Y349528D01*
X284371Y348852D01*
X282971Y347779D01*
X281898Y346379D01*
X281754Y346034D01*
X280321Y345892D01*
X279749Y346749D01*
X278029Y347898D01*
X276000Y348302D01*
X273971Y347898D01*
X272251Y346749D01*
X272135Y346575D01*
X270865D01*
X270749Y346749D01*
X269029Y347898D01*
X267000Y348302D01*
X264971Y347898D01*
X263251Y346749D01*
X262102Y345029D01*
X261698Y343000D01*
X262102Y340971D01*
X263251Y339251D01*
X263980Y338764D01*
Y337236D01*
X263251Y336749D01*
X263135Y336575D01*
X261865D01*
X261749Y336749D01*
X260029Y337898D01*
X258000Y338302D01*
X255971Y337898D01*
X254251Y336749D01*
X253102Y335029D01*
X252698Y333000D01*
X253102Y330971D01*
X254251Y329251D01*
X255971Y328102D01*
X258000Y327698D01*
X260029Y328102D01*
X261749Y329251D01*
X261865Y329425D01*
X263135D01*
X263251Y329251D01*
X264971Y328102D01*
X267000Y327698D01*
X269029Y328102D01*
X270749Y329251D01*
X270865Y329425D01*
X272135D01*
X272251Y329251D01*
X273971Y328102D01*
X276000Y327698D01*
X278029Y328102D01*
X279749Y329251D01*
X280898Y330971D01*
X281302Y333000D01*
X280898Y335029D01*
X279749Y336749D01*
X279020Y337236D01*
Y338764D01*
X279749Y339251D01*
X280321Y340108D01*
X281754Y339967D01*
X281898Y339621D01*
X282971Y338222D01*
X284371Y337148D01*
X286001Y336473D01*
X287750Y336242D01*
X289499Y336473D01*
X291129Y337148D01*
X292528Y338222D01*
X293602Y339621D01*
X294277Y341251D01*
X294508Y343000D01*
X294277Y344749D01*
X293602Y346379D01*
X292528Y347779D01*
X291129Y348852D01*
X289499Y349528D01*
X287750Y349758D01*
D02*
G37*
G36*
X141000Y348302D02*
X138971Y347898D01*
X137251Y346749D01*
X137135Y346575D01*
X135865D01*
X135749Y346749D01*
X134029Y347898D01*
X132000Y348302D01*
X129971Y347898D01*
X128251Y346749D01*
X127102Y345029D01*
X126698Y343000D01*
X127102Y340971D01*
X128251Y339251D01*
X128980Y338764D01*
Y337236D01*
X128251Y336749D01*
X128135Y336575D01*
X126865D01*
X126749Y336749D01*
X125029Y337898D01*
X123000Y338302D01*
X120971Y337898D01*
X119251Y336749D01*
X118102Y335029D01*
X117698Y333000D01*
X118102Y330971D01*
X119251Y329251D01*
X120971Y328102D01*
X123000Y327698D01*
X125029Y328102D01*
X126749Y329251D01*
X126865Y329425D01*
X128135D01*
X128251Y329251D01*
X129971Y328102D01*
X132000Y327698D01*
X134029Y328102D01*
X135749Y329251D01*
X135865Y329425D01*
X137135D01*
X137251Y329251D01*
X138971Y328102D01*
X141000Y327698D01*
X143029Y328102D01*
X144749Y329251D01*
X145898Y330971D01*
X146302Y333000D01*
X145898Y335029D01*
X144749Y336749D01*
X144020Y337236D01*
Y338764D01*
X144749Y339251D01*
X145898Y340971D01*
X146302Y343000D01*
X145898Y345029D01*
X144749Y346749D01*
X143029Y347898D01*
X141000Y348302D01*
D02*
G37*
G36*
X216500Y350258D02*
X214751Y350028D01*
X213121Y349352D01*
X211721Y348279D01*
X210937Y347257D01*
X210177Y346932D01*
X209334Y347026D01*
X208029Y347898D01*
X206000Y348302D01*
X203971Y347898D01*
X202251Y346749D01*
X202135Y346575D01*
X200865D01*
X200749Y346749D01*
X199029Y347898D01*
X197000Y348302D01*
X194971Y347898D01*
X193251Y346749D01*
X192102Y345029D01*
X191698Y343000D01*
X192102Y340971D01*
X193251Y339251D01*
X193980Y338764D01*
Y337236D01*
X193251Y336749D01*
X193135Y336575D01*
X191865D01*
X191749Y336749D01*
X190029Y337898D01*
X188000Y338302D01*
X185971Y337898D01*
X184251Y336749D01*
X183102Y335029D01*
X182698Y333000D01*
X183102Y330971D01*
X184251Y329251D01*
X185971Y328102D01*
X188000Y327698D01*
X190029Y328102D01*
X191749Y329251D01*
X191865Y329425D01*
X193135D01*
X193251Y329251D01*
X194971Y328102D01*
X197000Y327698D01*
X199029Y328102D01*
X200749Y329251D01*
X200865Y329425D01*
X202135D01*
X202251Y329251D01*
X203971Y328102D01*
X206000Y327698D01*
X208029Y328102D01*
X209749Y329251D01*
X210898Y330971D01*
X211302Y333000D01*
X210898Y335029D01*
X209749Y336749D01*
X209020Y337236D01*
Y338764D01*
X209749Y339251D01*
X211294Y339278D01*
X211721Y338722D01*
X213121Y337648D01*
X213815Y337360D01*
X214187Y335831D01*
X213648Y335129D01*
X212973Y333499D01*
X212742Y331750D01*
X212973Y330001D01*
X213648Y328371D01*
X214722Y326972D01*
X216121Y325898D01*
X217751Y325223D01*
X219500Y324992D01*
X221249Y325223D01*
X222879Y325898D01*
X224279Y326972D01*
X225352Y328371D01*
X226028Y330001D01*
X226258Y331750D01*
X226028Y333499D01*
X225352Y335129D01*
X224279Y336529D01*
X222879Y337602D01*
X222185Y337890D01*
X221813Y339418D01*
X222352Y340121D01*
X223027Y341751D01*
X223258Y343500D01*
X223027Y345249D01*
X222352Y346879D01*
X221278Y348279D01*
X219879Y349352D01*
X218249Y350028D01*
X216500Y350258D01*
D02*
G37*
G36*
X474250Y341052D02*
X472221Y340648D01*
X470501Y339499D01*
X469352Y337779D01*
X468948Y335750D01*
X469352Y333721D01*
X470501Y332001D01*
X472221Y330852D01*
X474250Y330448D01*
X476279Y330852D01*
X477999Y332001D01*
X479148Y333721D01*
X479552Y335750D01*
X479148Y337779D01*
X477999Y339499D01*
X476279Y340648D01*
X474250Y341052D01*
D02*
G37*
G36*
X366500Y340802D02*
X364471Y340398D01*
X362751Y339249D01*
X361602Y337529D01*
X361198Y335500D01*
X361602Y333471D01*
X362751Y331751D01*
X364471Y330602D01*
X366500Y330198D01*
X368529Y330602D01*
X370249Y331751D01*
X371398Y333471D01*
X371802Y335500D01*
X371398Y337529D01*
X370249Y339249D01*
X368529Y340398D01*
X366500Y340802D01*
D02*
G37*
G36*
X431500D02*
X429471Y340398D01*
X427751Y339249D01*
X426602Y337529D01*
X426198Y335500D01*
X426602Y333471D01*
X427751Y331751D01*
X429471Y330602D01*
X431500Y330198D01*
X433529Y330602D01*
X435249Y331751D01*
X436398Y333471D01*
X436802Y335500D01*
X436398Y337529D01*
X435249Y339249D01*
X433529Y340398D01*
X431500Y340802D01*
D02*
G37*
G36*
X489500Y341052D02*
X487471Y340648D01*
X485751Y339499D01*
X484602Y337779D01*
X484198Y335750D01*
X484602Y333721D01*
X485751Y332001D01*
X487471Y330852D01*
X489500Y330448D01*
X491529Y330852D01*
X493249Y332001D01*
X494398Y333721D01*
X494802Y335750D01*
X494398Y337779D01*
X493249Y339499D01*
X491529Y340648D01*
X489500Y341052D01*
D02*
G37*
G36*
X62250Y313321D02*
X59831Y312840D01*
X57780Y311470D01*
X57635Y311253D01*
X56365D01*
X56220Y311470D01*
X54169Y312840D01*
X51750Y313321D01*
X49331Y312840D01*
X47280Y311470D01*
X47052Y311128D01*
X45781D01*
X45720Y311220D01*
X43669Y312590D01*
X41250Y313071D01*
X38831Y312590D01*
X36780Y311220D01*
X35410Y309169D01*
X34929Y306750D01*
X35410Y304331D01*
X36780Y302280D01*
X38831Y300910D01*
X41250Y300429D01*
X43669Y300910D01*
X45720Y302280D01*
X45949Y302622D01*
X47218D01*
X47280Y302530D01*
X49331Y301160D01*
X51750Y300679D01*
X54169Y301160D01*
X56220Y302530D01*
X56365Y302747D01*
X57635D01*
X57780Y302530D01*
X59831Y301160D01*
X62250Y300679D01*
X64669Y301160D01*
X66720Y302530D01*
X68090Y304581D01*
X68571Y307000D01*
X68090Y309419D01*
X66720Y311470D01*
X64669Y312840D01*
X62250Y313321D01*
D02*
G37*
G36*
X370000Y308802D02*
X367971Y308398D01*
X366251Y307249D01*
X365102Y305529D01*
X364698Y303500D01*
X365102Y301471D01*
X366251Y299751D01*
X367971Y298602D01*
X370000Y298198D01*
X372029Y298602D01*
X373749Y299751D01*
X374898Y301471D01*
X375302Y303500D01*
X374898Y305529D01*
X373749Y307249D01*
X372029Y308398D01*
X370000Y308802D01*
D02*
G37*
G36*
X217000Y312572D02*
X214581Y312090D01*
X212530Y310720D01*
X211160Y308669D01*
X210679Y306250D01*
X211160Y303831D01*
X212530Y301780D01*
X214581Y300410D01*
X217000Y299929D01*
X219419Y300410D01*
X221470Y301780D01*
X222840Y303831D01*
X223321Y306250D01*
X222840Y308669D01*
X221470Y310720D01*
X219419Y312090D01*
X217000Y312572D01*
D02*
G37*
G36*
X552750D02*
X550331Y312090D01*
X548280Y310720D01*
X546910Y308669D01*
X546428Y306250D01*
X546910Y303831D01*
X548280Y301780D01*
X550331Y300410D01*
X552750Y299929D01*
X555169Y300410D01*
X557220Y301780D01*
X558590Y303831D01*
X559071Y306250D01*
X558590Y308669D01*
X557220Y310720D01*
X555169Y312090D01*
X552750Y312572D01*
D02*
G37*
G36*
X398000Y303302D02*
X395971Y302898D01*
X394251Y301749D01*
X393102Y300029D01*
X392862Y298825D01*
X391607Y298144D01*
X391533Y298154D01*
X389571Y298544D01*
X387542Y298141D01*
X385822Y296992D01*
X384673Y295271D01*
X384269Y293242D01*
X384673Y291214D01*
X385822Y289494D01*
X386183Y289252D01*
Y287983D01*
X385822Y287742D01*
X384673Y286021D01*
X384269Y283993D01*
X384673Y281964D01*
X385822Y280243D01*
X387542Y279094D01*
X389571Y278691D01*
X391206Y279016D01*
X391828Y278883D01*
X392556Y278206D01*
X392852Y276721D01*
X394001Y275001D01*
X395721Y273852D01*
X397750Y273448D01*
X399779Y273852D01*
X401499Y275001D01*
X402648Y276721D01*
X403052Y278750D01*
X402648Y280779D01*
X401499Y282499D01*
X399779Y283648D01*
X397750Y284052D01*
X396115Y283727D01*
X395494Y283860D01*
X394765Y284537D01*
X394470Y286021D01*
X393320Y287742D01*
X392960Y287983D01*
Y289252D01*
X393320Y289494D01*
X394470Y291214D01*
X394709Y292418D01*
X395964Y293098D01*
X396039Y293088D01*
X398000Y292698D01*
X400029Y293102D01*
X401749Y294251D01*
X402898Y295971D01*
X403302Y298000D01*
X402898Y300029D01*
X401749Y301749D01*
X400029Y302898D01*
X398000Y303302D01*
D02*
G37*
G36*
X445000D02*
X442971Y302898D01*
X441251Y301749D01*
X440102Y300029D01*
X439698Y298000D01*
X440102Y295971D01*
X441251Y294251D01*
X442971Y293102D01*
X445000Y292698D01*
X447029Y293102D01*
X448749Y294251D01*
X449898Y295971D01*
X450302Y298000D01*
X449898Y300029D01*
X448749Y301749D01*
X447029Y302898D01*
X445000Y303302D01*
D02*
G37*
G36*
X490000Y316302D02*
X487971Y315898D01*
X486251Y314749D01*
X485102Y313029D01*
X484698Y311000D01*
X485102Y308971D01*
X486251Y307251D01*
X487971Y306102D01*
X489143Y305869D01*
X489626Y305772D01*
Y304478D01*
X489143Y304382D01*
X487971Y304148D01*
X486251Y302999D01*
X485102Y301279D01*
X484698Y299250D01*
X485102Y297221D01*
X486251Y295501D01*
X487971Y294352D01*
X490000Y293948D01*
X492029Y294352D01*
X493749Y295501D01*
X494898Y297221D01*
X495302Y299250D01*
X494898Y301279D01*
X493749Y302999D01*
X492029Y304148D01*
X490857Y304382D01*
X490374Y304478D01*
Y305772D01*
X490857Y305868D01*
X492029Y306102D01*
X493749Y307251D01*
X494898Y308971D01*
X495302Y311000D01*
X494898Y313029D01*
X493749Y314749D01*
X492029Y315898D01*
X490000Y316302D01*
D02*
G37*
G36*
X318250Y306552D02*
X316221Y306148D01*
X314501Y304999D01*
X313352Y303279D01*
X312948Y301250D01*
X313352Y299221D01*
X314501Y297501D01*
X316221Y296352D01*
X318250Y295948D01*
X320279Y296352D01*
X321999Y297501D01*
X323148Y299221D01*
X323552Y301250D01*
X323148Y303279D01*
X321999Y304999D01*
X320279Y306148D01*
X318250Y306552D01*
D02*
G37*
G36*
X25500Y313571D02*
X23081Y313090D01*
X21030Y311720D01*
X19660Y309669D01*
X19179Y307250D01*
X19660Y304831D01*
X21030Y302780D01*
X23081Y301410D01*
X25500Y300929D01*
X27919Y301410D01*
X29970Y302780D01*
X31340Y304831D01*
X31821Y307250D01*
X31340Y309669D01*
X29970Y311720D01*
X27919Y313090D01*
X25500Y313571D01*
D02*
G37*
G36*
X190500Y320302D02*
X188471Y319898D01*
X186751Y318749D01*
X185602Y317029D01*
X185198Y315000D01*
X185602Y312971D01*
X186751Y311251D01*
X188471Y310102D01*
X190500Y309698D01*
X192529Y310102D01*
X194249Y311251D01*
X195398Y312971D01*
X195802Y315000D01*
X195398Y317029D01*
X194249Y318749D01*
X192529Y319898D01*
X190500Y320302D01*
D02*
G37*
G36*
X260500D02*
X258471Y319898D01*
X256751Y318749D01*
X255602Y317029D01*
X255198Y315000D01*
X255602Y312971D01*
X256751Y311251D01*
X258471Y310102D01*
X260500Y309698D01*
X262529Y310102D01*
X264249Y311251D01*
X265398Y312971D01*
X265802Y315000D01*
X265398Y317029D01*
X264249Y318749D01*
X262529Y319898D01*
X260500Y320302D01*
D02*
G37*
G36*
X538500Y312572D02*
X536081Y312090D01*
X534030Y310720D01*
X533885Y310503D01*
X532615D01*
X532470Y310720D01*
X530419Y312090D01*
X528000Y312572D01*
X525581Y312090D01*
X523530Y310720D01*
X522160Y308669D01*
X521679Y306250D01*
X522160Y303831D01*
X523530Y301780D01*
X525581Y300410D01*
X528000Y299929D01*
X530419Y300410D01*
X532470Y301780D01*
X532615Y301997D01*
X533885D01*
X534030Y301780D01*
X536081Y300410D01*
X538500Y299929D01*
X540919Y300410D01*
X542970Y301780D01*
X544340Y303831D01*
X544821Y306250D01*
X544340Y308669D01*
X542970Y310720D01*
X540919Y312090D01*
X538500Y312572D01*
D02*
G37*
G36*
X125500Y320302D02*
X123471Y319898D01*
X121751Y318749D01*
X120602Y317029D01*
X120198Y315000D01*
X120602Y312971D01*
X121751Y311251D01*
X123471Y310102D01*
X125500Y309698D01*
X127529Y310102D01*
X129249Y311251D01*
X130398Y312971D01*
X130802Y315000D01*
X130398Y317029D01*
X129249Y318749D01*
X127529Y319898D01*
X125500Y320302D01*
D02*
G37*
G36*
X339750Y313552D02*
X337721Y313148D01*
X336001Y311999D01*
X334852Y310279D01*
X334448Y308250D01*
X334852Y306221D01*
X336001Y304501D01*
X337721Y303352D01*
X339750Y302948D01*
X341779Y303352D01*
X343499Y304501D01*
X344648Y306221D01*
X345052Y308250D01*
X344648Y310279D01*
X343499Y311999D01*
X341779Y313148D01*
X339750Y313552D01*
D02*
G37*
G36*
X352250D02*
X350221Y313148D01*
X348501Y311999D01*
X347352Y310279D01*
X346948Y308250D01*
X347352Y306221D01*
X348501Y304501D01*
X350221Y303352D01*
X352250Y302948D01*
X354279Y303352D01*
X355999Y304501D01*
X357148Y306221D01*
X357552Y308250D01*
X357148Y310279D01*
X355999Y311999D01*
X354279Y313148D01*
X352250Y313552D01*
D02*
G37*
G36*
X304500Y315052D02*
X302471Y314648D01*
X300751Y313499D01*
X299602Y311779D01*
X299198Y309750D01*
X299602Y307721D01*
X300751Y306001D01*
X302471Y304852D01*
X304500Y304448D01*
X306529Y304852D01*
X308249Y306001D01*
X309398Y307721D01*
X309802Y309750D01*
X309398Y311779D01*
X308249Y313499D01*
X306529Y314648D01*
X304500Y315052D01*
D02*
G37*
G36*
X528000Y267302D02*
X525971Y266898D01*
X524251Y265749D01*
X523102Y264029D01*
X522698Y262000D01*
X523102Y259971D01*
X524251Y258251D01*
X525971Y257102D01*
X528000Y256698D01*
X530029Y257102D01*
X531749Y258251D01*
X532898Y259971D01*
X533302Y262000D01*
X532898Y264029D01*
X531749Y265749D01*
X530029Y266898D01*
X528000Y267302D01*
D02*
G37*
G36*
X27000Y208220D02*
X24872Y207940D01*
X22890Y207119D01*
X21187Y205813D01*
X19881Y204110D01*
X19060Y202128D01*
X18780Y200000D01*
X19060Y197872D01*
X19881Y195890D01*
X21187Y194187D01*
X22890Y192881D01*
X24872Y192060D01*
X27000Y191780D01*
X29128Y192060D01*
X31110Y192881D01*
X32813Y194187D01*
X34119Y195890D01*
X34940Y197872D01*
X35220Y200000D01*
X34940Y202128D01*
X34119Y204110D01*
X32813Y205813D01*
X31110Y207119D01*
X29128Y207940D01*
X27000Y208220D01*
D02*
G37*
G36*
X324500Y210552D02*
X322471Y210148D01*
X320751Y208999D01*
X319602Y207279D01*
X319198Y205250D01*
X319602Y203221D01*
X320751Y201501D01*
X322471Y200352D01*
X323857Y200076D01*
X324587Y199491D01*
X324738Y198705D01*
X324448Y197250D01*
X324852Y195221D01*
X326001Y193501D01*
X327721Y192352D01*
X329750Y191948D01*
X331779Y192352D01*
X333499Y193501D01*
X334648Y195221D01*
X335052Y197250D01*
X334648Y199279D01*
X333499Y200999D01*
X331779Y202148D01*
X330393Y202424D01*
X329663Y203009D01*
X329512Y203795D01*
X329802Y205250D01*
X329398Y207279D01*
X328249Y208999D01*
X326529Y210148D01*
X324500Y210552D01*
D02*
G37*
G36*
X-15000Y205302D02*
X-17029Y204898D01*
X-18749Y203749D01*
X-19898Y202029D01*
X-20302Y200000D01*
X-19898Y197971D01*
X-18749Y196251D01*
X-17029Y195102D01*
X-15000Y194698D01*
X-12971Y195102D01*
X-11251Y196251D01*
X-10102Y197971D01*
X-9698Y200000D01*
X-10102Y202029D01*
X-11251Y203749D01*
X-12971Y204898D01*
X-15000Y205302D01*
D02*
G37*
G36*
X421500Y202302D02*
X419471Y201898D01*
X417751Y200749D01*
X416602Y199029D01*
X416198Y197000D01*
X416602Y194971D01*
X417751Y193251D01*
X419471Y192102D01*
X421500Y191698D01*
X423529Y192102D01*
X425249Y193251D01*
X426398Y194971D01*
X426802Y197000D01*
X426398Y199029D01*
X425249Y200749D01*
X423529Y201898D01*
X421500Y202302D01*
D02*
G37*
G36*
X206000Y202508D02*
X204251Y202278D01*
X202621Y201602D01*
X201222Y200529D01*
X200148Y199129D01*
X199473Y197499D01*
X199242Y195750D01*
X199473Y194001D01*
X200148Y192371D01*
X201222Y190972D01*
X202621Y189898D01*
X204251Y189223D01*
X206000Y188992D01*
X207749Y189223D01*
X209379Y189898D01*
X210779Y190972D01*
X211852Y192371D01*
X212528Y194001D01*
X212758Y195750D01*
X212528Y197499D01*
X211852Y199129D01*
X210779Y200529D01*
X209379Y201602D01*
X207749Y202278D01*
X206000Y202508D01*
D02*
G37*
G36*
X233250D02*
X231501Y202278D01*
X229871Y201602D01*
X228472Y200529D01*
X227398Y199129D01*
X226723Y197499D01*
X226492Y195750D01*
X226723Y194001D01*
X227398Y192371D01*
X228472Y190972D01*
X229871Y189898D01*
X231501Y189223D01*
X233250Y188992D01*
X234999Y189223D01*
X236629Y189898D01*
X238029Y190972D01*
X239102Y192371D01*
X239778Y194001D01*
X240008Y195750D01*
X239778Y197499D01*
X239102Y199129D01*
X238029Y200529D01*
X236629Y201602D01*
X234999Y202278D01*
X233250Y202508D01*
D02*
G37*
G36*
X276000D02*
X274251Y202278D01*
X272621Y201602D01*
X271222Y200529D01*
X270148Y199129D01*
X269473Y197499D01*
X269242Y195750D01*
X269473Y194001D01*
X270148Y192371D01*
X271222Y190972D01*
X272621Y189898D01*
X274251Y189223D01*
X276000Y188992D01*
X277749Y189223D01*
X279379Y189898D01*
X280779Y190972D01*
X281852Y192371D01*
X282528Y194001D01*
X282758Y195750D01*
X282528Y197499D01*
X281852Y199129D01*
X280779Y200529D01*
X279379Y201602D01*
X277749Y202278D01*
X276000Y202508D01*
D02*
G37*
G36*
X55500Y205302D02*
X53471Y204898D01*
X51751Y203749D01*
X50602Y202029D01*
X50198Y200000D01*
X50602Y197971D01*
X51751Y196251D01*
X53471Y195102D01*
X55500Y194698D01*
X57529Y195102D01*
X59249Y196251D01*
X60398Y197971D01*
X60802Y200000D01*
X60398Y202029D01*
X59249Y203749D01*
X57529Y204898D01*
X55500Y205302D01*
D02*
G37*
G36*
X473750Y214008D02*
X472001Y213778D01*
X470371Y213102D01*
X468971Y212029D01*
X467898Y210629D01*
X467223Y208999D01*
X466992Y207250D01*
X467223Y205501D01*
X467898Y203871D01*
X468971Y202472D01*
X470371Y201398D01*
X472001Y200723D01*
X473750Y200492D01*
X475499Y200723D01*
X477129Y201398D01*
X478529Y202472D01*
X479602Y203871D01*
X480277Y205501D01*
X480508Y207250D01*
X480277Y208999D01*
X479602Y210629D01*
X478529Y212029D01*
X477129Y213102D01*
X475499Y213778D01*
X473750Y214008D01*
D02*
G37*
G36*
X-3250Y215302D02*
X-5279Y214898D01*
X-6999Y213749D01*
X-8148Y212029D01*
X-8552Y210000D01*
X-8148Y207971D01*
X-6999Y206251D01*
X-5279Y205102D01*
X-3250Y204698D01*
X-1221Y205102D01*
X499Y206251D01*
X1648Y207971D01*
X2052Y210000D01*
X1648Y212029D01*
X499Y213749D01*
X-1221Y214898D01*
X-3250Y215302D01*
D02*
G37*
G36*
X66000D02*
X63971Y214898D01*
X62251Y213749D01*
X61102Y212029D01*
X60698Y210000D01*
X61102Y207971D01*
X62251Y206251D01*
X63971Y205102D01*
X66000Y204698D01*
X68029Y205102D01*
X69749Y206251D01*
X70898Y207971D01*
X71302Y210000D01*
X70898Y212029D01*
X69749Y213749D01*
X68029Y214898D01*
X66000Y215302D01*
D02*
G37*
G36*
X599000Y201802D02*
X596971Y201398D01*
X595251Y200249D01*
X594172Y198634D01*
X593500Y198569D01*
X592828Y198634D01*
X591749Y200249D01*
X590029Y201398D01*
X588000Y201802D01*
X585971Y201398D01*
X584251Y200249D01*
X583102Y198529D01*
X582698Y196500D01*
X583102Y194471D01*
X584251Y192751D01*
X585971Y191602D01*
X588000Y191198D01*
X590029Y191602D01*
X591749Y192751D01*
X592828Y194366D01*
X593500Y194431D01*
X594172Y194366D01*
X595251Y192751D01*
X595980Y192264D01*
Y190736D01*
X595251Y190249D01*
X594102Y188529D01*
X593698Y186500D01*
X594102Y184471D01*
X595251Y182751D01*
X596971Y181602D01*
X599000Y181198D01*
X601029Y181602D01*
X602749Y182751D01*
X603898Y184471D01*
X604302Y186500D01*
X603898Y188529D01*
X602749Y190249D01*
X602020Y190736D01*
Y192264D01*
X602749Y192751D01*
X603898Y194471D01*
X604302Y196500D01*
X603898Y198529D01*
X602749Y200249D01*
X601029Y201398D01*
X599000Y201802D01*
D02*
G37*
G36*
X394500Y197508D02*
X392751Y197278D01*
X391121Y196602D01*
X389721Y195529D01*
X389540Y195292D01*
X389011D01*
X387629Y196352D01*
X385999Y197027D01*
X384250Y197258D01*
X382501Y197027D01*
X380871Y196352D01*
X379472Y195278D01*
X378398Y193879D01*
X377723Y192249D01*
X377492Y190500D01*
X377723Y188751D01*
X378398Y187121D01*
X379472Y185721D01*
X380871Y184648D01*
X382501Y183972D01*
X384250Y183742D01*
X385999Y183972D01*
X387629Y184648D01*
X389011Y185708D01*
X390065D01*
X391121Y184898D01*
X392751Y184223D01*
X394500Y183992D01*
X396249Y184223D01*
X397879Y184898D01*
X399278Y185972D01*
X400352Y187371D01*
X401027Y189001D01*
X401258Y190750D01*
X401027Y192499D01*
X400352Y194129D01*
X399278Y195529D01*
X397879Y196602D01*
X396249Y197278D01*
X394500Y197508D01*
D02*
G37*
G36*
X515250Y206052D02*
X513221Y205648D01*
X511501Y204499D01*
X510352Y202779D01*
X509948Y200750D01*
X510352Y198721D01*
X511501Y197001D01*
X513221Y195852D01*
X515250Y195448D01*
X517279Y195852D01*
X518999Y197001D01*
X520148Y198721D01*
X520552Y200750D01*
X520148Y202779D01*
X518999Y204499D01*
X517279Y205648D01*
X515250Y206052D01*
D02*
G37*
G36*
X569750Y207052D02*
X567721Y206648D01*
X566001Y205499D01*
X564852Y203779D01*
X564448Y201750D01*
X564852Y199721D01*
X566001Y198001D01*
X567721Y196852D01*
X569750Y196448D01*
X571779Y196852D01*
X573499Y198001D01*
X574648Y199721D01*
X575052Y201750D01*
X574648Y203779D01*
X573499Y205499D01*
X571779Y206648D01*
X569750Y207052D01*
D02*
G37*
G36*
X163250Y202508D02*
X161501Y202278D01*
X159871Y201602D01*
X158471Y200529D01*
X157398Y199129D01*
X156722Y197499D01*
X156492Y195750D01*
X156722Y194001D01*
X157398Y192371D01*
X158471Y190972D01*
X159871Y189898D01*
X161501Y189223D01*
X163250Y188992D01*
X164999Y189223D01*
X166629Y189898D01*
X168029Y190972D01*
X169102Y192371D01*
X169778Y194001D01*
X170008Y195750D01*
X169778Y197499D01*
X169102Y199129D01*
X168029Y200529D01*
X166629Y201602D01*
X164999Y202278D01*
X163250Y202508D01*
D02*
G37*
G36*
X541500Y188071D02*
X539081Y187590D01*
X537030Y186220D01*
X535660Y184169D01*
X535179Y181750D01*
X535660Y179331D01*
X537030Y177280D01*
X539081Y175910D01*
X541500Y175429D01*
X543919Y175910D01*
X545970Y177280D01*
X547340Y179331D01*
X547822Y181750D01*
X547340Y184169D01*
X545970Y186220D01*
X543919Y187590D01*
X541500Y188071D01*
D02*
G37*
G36*
X559000Y188321D02*
X556581Y187840D01*
X554530Y186470D01*
X553160Y184419D01*
X552678Y182000D01*
X553160Y179581D01*
X554530Y177530D01*
X556581Y176160D01*
X559000Y175679D01*
X561419Y176160D01*
X563470Y177530D01*
X564840Y179581D01*
X565321Y182000D01*
X564840Y184419D01*
X563470Y186470D01*
X561419Y187840D01*
X559000Y188321D01*
D02*
G37*
G36*
X476750Y189321D02*
X474331Y188840D01*
X472280Y187470D01*
X470910Y185419D01*
X470429Y183000D01*
X470910Y180581D01*
X472280Y178530D01*
X474331Y177160D01*
X476750Y176679D01*
X479169Y177160D01*
X481220Y178530D01*
X482590Y180581D01*
X483071Y183000D01*
X482590Y185419D01*
X481220Y187470D01*
X479169Y188840D01*
X476750Y189321D01*
D02*
G37*
G36*
X370000Y183802D02*
X367971Y183398D01*
X366251Y182249D01*
X365102Y180529D01*
X364698Y178500D01*
X365102Y176471D01*
X366251Y174751D01*
X367971Y173602D01*
X370000Y173198D01*
X372029Y173602D01*
X373749Y174751D01*
X374898Y176471D01*
X375302Y178500D01*
X374898Y180529D01*
X373749Y182249D01*
X372029Y183398D01*
X370000Y183802D01*
D02*
G37*
G36*
X445000Y178302D02*
X442971Y177898D01*
X441251Y176749D01*
X440102Y175029D01*
X439698Y173000D01*
X440102Y170971D01*
X441251Y169251D01*
X442971Y168102D01*
X445000Y167698D01*
X447029Y168102D01*
X448749Y169251D01*
X449898Y170971D01*
X450302Y173000D01*
X449898Y175029D01*
X448749Y176749D01*
X447029Y177898D01*
X445000Y178302D01*
D02*
G37*
G36*
X588000Y181302D02*
X585971Y180898D01*
X584251Y179749D01*
X583102Y178029D01*
X582698Y176000D01*
X583102Y173971D01*
X584251Y172251D01*
X585971Y171102D01*
X588000Y170698D01*
X590029Y171102D01*
X591749Y172251D01*
X592898Y173971D01*
X593302Y176000D01*
X592898Y178029D01*
X591749Y179749D01*
X590029Y180898D01*
X588000Y181302D01*
D02*
G37*
G36*
X398000Y178302D02*
X395971Y177898D01*
X394251Y176749D01*
X393102Y175029D01*
X392862Y173825D01*
X391607Y173144D01*
X391533Y173154D01*
X389571Y173544D01*
X387542Y173141D01*
X385822Y171992D01*
X384673Y170271D01*
X384269Y168242D01*
X384673Y166214D01*
X385822Y164494D01*
X386183Y164252D01*
Y162983D01*
X385822Y162742D01*
X384673Y161021D01*
X384269Y158993D01*
X384673Y156964D01*
X385822Y155244D01*
X387542Y154094D01*
X389571Y153691D01*
X391206Y154016D01*
X391828Y153883D01*
X392556Y153206D01*
X392852Y151721D01*
X394001Y150001D01*
X395721Y148852D01*
X397750Y148448D01*
X399779Y148852D01*
X401499Y150001D01*
X402648Y151721D01*
X403052Y153750D01*
X402648Y155779D01*
X401499Y157499D01*
X399779Y158648D01*
X397750Y159052D01*
X396115Y158727D01*
X395494Y158860D01*
X394765Y159537D01*
X394470Y161021D01*
X393320Y162742D01*
X392960Y162983D01*
Y164252D01*
X393320Y164494D01*
X394470Y166214D01*
X394709Y167418D01*
X395964Y168098D01*
X396039Y168088D01*
X398000Y167698D01*
X400029Y168102D01*
X401749Y169251D01*
X402898Y170971D01*
X403302Y173000D01*
X402898Y175029D01*
X401749Y176749D01*
X400029Y177898D01*
X398000Y178302D01*
D02*
G37*
G36*
X205750Y187302D02*
X203721Y186898D01*
X202001Y185749D01*
X200852Y184029D01*
X200448Y182000D01*
X200852Y179971D01*
X202001Y178251D01*
X203721Y177102D01*
X205750Y176698D01*
X207779Y177102D01*
X209499Y178251D01*
X210648Y179971D01*
X211052Y182000D01*
X210648Y184029D01*
X209499Y185749D01*
X207779Y186898D01*
X205750Y187302D01*
D02*
G37*
G36*
X578500Y191802D02*
X576471Y191398D01*
X574751Y190249D01*
X573602Y188529D01*
X573198Y186500D01*
X573602Y184471D01*
X574751Y182751D01*
X576471Y181602D01*
X578500Y181198D01*
X580529Y181602D01*
X582249Y182751D01*
X583398Y184471D01*
X583802Y186500D01*
X583398Y188529D01*
X582249Y190249D01*
X580529Y191398D01*
X578500Y191802D01*
D02*
G37*
G36*
X317000Y195052D02*
X314971Y194648D01*
X313251Y193499D01*
X312102Y191779D01*
X311698Y189750D01*
X312102Y187721D01*
X313251Y186001D01*
X314971Y184852D01*
X317000Y184448D01*
X319029Y184852D01*
X320749Y186001D01*
X321898Y187721D01*
X322302Y189750D01*
X321898Y191779D01*
X320749Y193499D01*
X319029Y194648D01*
X317000Y195052D01*
D02*
G37*
G36*
X129500Y199052D02*
X127471Y198648D01*
X125751Y197499D01*
X124602Y195779D01*
X124198Y193750D01*
X124602Y191721D01*
X125751Y190001D01*
X127471Y188852D01*
X129500Y188448D01*
X131529Y188852D01*
X133249Y190001D01*
X134398Y191721D01*
X134802Y193750D01*
X134398Y195779D01*
X133249Y197499D01*
X131529Y198648D01*
X129500Y199052D01*
D02*
G37*
G36*
X329750Y189552D02*
X327721Y189148D01*
X326001Y187999D01*
X324852Y186279D01*
X324448Y184250D01*
X324852Y182221D01*
X326001Y180501D01*
X327721Y179352D01*
X329750Y178948D01*
X331779Y179352D01*
X333499Y180501D01*
X334648Y182221D01*
X335052Y184250D01*
X334648Y186279D01*
X333499Y187999D01*
X331779Y189148D01*
X329750Y189552D01*
D02*
G37*
G36*
X275750Y187302D02*
X273721Y186898D01*
X272001Y185749D01*
X270852Y184029D01*
X270448Y182000D01*
X270852Y179971D01*
X272001Y178251D01*
X273721Y177102D01*
X275750Y176698D01*
X277779Y177102D01*
X279499Y178251D01*
X280648Y179971D01*
X281052Y182000D01*
X280648Y184029D01*
X279499Y185749D01*
X277779Y186898D01*
X275750Y187302D01*
D02*
G37*
G36*
X164000Y187302D02*
X161971Y186898D01*
X160251Y185749D01*
X159102Y184029D01*
X158698Y182000D01*
X159102Y179971D01*
X160251Y178251D01*
X161971Y177102D01*
X164000Y176698D01*
X166029Y177102D01*
X167749Y178251D01*
X168898Y179971D01*
X169302Y182000D01*
X168898Y184029D01*
X167749Y185749D01*
X166029Y186898D01*
X164000Y187302D01*
D02*
G37*
G36*
X234000D02*
X231971Y186898D01*
X230251Y185749D01*
X229102Y184029D01*
X228698Y182000D01*
X229102Y179971D01*
X230251Y178251D01*
X231971Y177102D01*
X234000Y176698D01*
X236029Y177102D01*
X237749Y178251D01*
X238898Y179971D01*
X239302Y182000D01*
X238898Y184029D01*
X237749Y185749D01*
X236029Y186898D01*
X234000Y187302D01*
D02*
G37*
G36*
X456250Y250072D02*
X453831Y249590D01*
X451780Y248220D01*
X450410Y246169D01*
X449929Y243750D01*
X450410Y241331D01*
X451780Y239280D01*
X453831Y237910D01*
X456250Y237429D01*
X458669Y237910D01*
X460720Y239280D01*
X462090Y241331D01*
X462571Y243750D01*
X462090Y246169D01*
X460720Y248220D01*
X458669Y249590D01*
X456250Y250072D01*
D02*
G37*
G36*
X-3250Y255302D02*
X-5279Y254898D01*
X-6999Y253749D01*
X-8148Y252029D01*
X-8552Y250000D01*
X-8148Y247971D01*
X-6999Y246251D01*
X-5279Y245102D01*
X-3250Y244698D01*
X-1221Y245102D01*
X499Y246251D01*
X1648Y247971D01*
X2052Y250000D01*
X1648Y252029D01*
X499Y253749D01*
X-1221Y254898D01*
X-3250Y255302D01*
D02*
G37*
G36*
X70250D02*
X68221Y254898D01*
X66501Y253749D01*
X65352Y252029D01*
X64948Y250000D01*
X65352Y247971D01*
X66501Y246251D01*
X68221Y245102D01*
X70250Y244698D01*
X72279Y245102D01*
X73999Y246251D01*
X75148Y247971D01*
X75552Y250000D01*
X75148Y252029D01*
X73999Y253749D01*
X72279Y254898D01*
X70250Y255302D01*
D02*
G37*
G36*
X511500Y265302D02*
X509471Y264898D01*
X507751Y263749D01*
X506602Y262029D01*
X506198Y260000D01*
X506602Y257971D01*
X507751Y256251D01*
X508299Y255885D01*
Y254615D01*
X507751Y254249D01*
X506602Y252529D01*
X506198Y250500D01*
X506602Y248471D01*
X507751Y246751D01*
X508299Y246385D01*
Y245115D01*
X507751Y244749D01*
X506602Y243029D01*
X506198Y241000D01*
X506602Y238971D01*
X507751Y237251D01*
X509471Y236102D01*
X511500Y235698D01*
X513529Y236102D01*
X515249Y237251D01*
X516398Y238971D01*
X516802Y241000D01*
X516398Y243029D01*
X515249Y244749D01*
X514701Y245115D01*
Y246385D01*
X515249Y246751D01*
X516398Y248471D01*
X516802Y250500D01*
X516398Y252529D01*
X515249Y254249D01*
X514701Y254615D01*
Y255885D01*
X515249Y256251D01*
X516398Y257971D01*
X516802Y260000D01*
X516398Y262029D01*
X515249Y263749D01*
X513529Y264898D01*
X511500Y265302D01*
D02*
G37*
G36*
X55500Y245302D02*
X53471Y244898D01*
X51751Y243749D01*
X50602Y242029D01*
X50198Y240000D01*
X50602Y237971D01*
X51751Y236251D01*
X53471Y235102D01*
X55500Y234698D01*
X57529Y235102D01*
X59249Y236251D01*
X60398Y237971D01*
X60802Y240000D01*
X60398Y242029D01*
X59249Y243749D01*
X57529Y244898D01*
X55500Y245302D01*
D02*
G37*
G36*
X599750Y255802D02*
X597721Y255398D01*
X596001Y254249D01*
X594852Y252529D01*
X594448Y250500D01*
X594852Y248471D01*
X596001Y246751D01*
X596175Y246635D01*
X595855Y245321D01*
X594251Y244249D01*
X593102Y242529D01*
X592698Y240500D01*
X593102Y238471D01*
X594251Y236751D01*
X595971Y235602D01*
X598000Y235198D01*
X600029Y235602D01*
X601749Y236751D01*
X602898Y238471D01*
X603302Y240500D01*
X602898Y242529D01*
X601749Y244249D01*
X601576Y244365D01*
X601895Y245679D01*
X603499Y246751D01*
X604648Y248471D01*
X605052Y250500D01*
X604648Y252529D01*
X603499Y254249D01*
X601779Y255398D01*
X599750Y255802D01*
D02*
G37*
G36*
X480500Y255802D02*
X478471Y255398D01*
X476751Y254249D01*
X475602Y252529D01*
X475198Y250500D01*
X475602Y248471D01*
X476751Y246751D01*
X477299Y246385D01*
Y245115D01*
X476751Y244749D01*
X475602Y243029D01*
X475198Y241000D01*
X475602Y238971D01*
X476751Y237251D01*
X478471Y236102D01*
X480500Y235698D01*
X482529Y236102D01*
X484249Y237251D01*
X485398Y238971D01*
X485802Y241000D01*
X485398Y243029D01*
X484249Y244749D01*
X483701Y245115D01*
Y246385D01*
X484249Y246751D01*
X485398Y248471D01*
X485802Y250500D01*
X485398Y252529D01*
X484249Y254249D01*
X482529Y255398D01*
X480500Y255802D01*
D02*
G37*
G36*
X395000Y255302D02*
X392971Y254898D01*
X391251Y253749D01*
X390102Y252029D01*
X389698Y250000D01*
X390102Y247971D01*
X391251Y246251D01*
X392971Y245102D01*
X395000Y244698D01*
X397029Y245102D01*
X398749Y246251D01*
X399898Y247971D01*
X400302Y250000D01*
X399898Y252029D01*
X398749Y253749D01*
X397029Y254898D01*
X395000Y255302D01*
D02*
G37*
G36*
X55500Y265302D02*
X53471Y264898D01*
X51751Y263749D01*
X50602Y262029D01*
X50198Y260000D01*
X50602Y257971D01*
X51751Y256251D01*
X53471Y255102D01*
X55500Y254698D01*
X57529Y255102D01*
X59249Y256251D01*
X60398Y257971D01*
X60802Y260000D01*
X60398Y262029D01*
X59249Y263749D01*
X57529Y264898D01*
X55500Y265302D01*
D02*
G37*
G36*
X385000D02*
X382971Y264898D01*
X381251Y263749D01*
X380102Y262029D01*
X379698Y260000D01*
X380102Y257971D01*
X381251Y256251D01*
X382971Y255102D01*
X385000Y254698D01*
X387029Y255102D01*
X388749Y256251D01*
X389898Y257971D01*
X390302Y260000D01*
X389898Y262029D01*
X388749Y263749D01*
X387029Y264898D01*
X385000Y265302D01*
D02*
G37*
G36*
X330750Y259302D02*
X328721Y258898D01*
X327001Y257749D01*
X326167Y256501D01*
X324749Y256501D01*
X323916Y257749D01*
X322196Y258898D01*
X320167Y259302D01*
X318138Y258898D01*
X316418Y257749D01*
X315584Y256501D01*
X314166Y256501D01*
X313332Y257749D01*
X311612Y258898D01*
X309583Y259302D01*
X307554Y258898D01*
X305834Y257749D01*
X305001Y256501D01*
X303583D01*
X302749Y257749D01*
X301029Y258898D01*
X299000Y259302D01*
X296971Y258898D01*
X295251Y257749D01*
X294102Y256029D01*
X293698Y254000D01*
X294102Y251971D01*
X295251Y250251D01*
X296971Y249102D01*
X299000Y248698D01*
X301029Y249102D01*
X302749Y250251D01*
X303583Y251499D01*
X305001D01*
X305834Y250251D01*
X306564Y249764D01*
Y248236D01*
X305834Y247749D01*
X304685Y246029D01*
X304282Y244000D01*
X304685Y241971D01*
X305834Y240251D01*
X307554Y239102D01*
X309583Y238698D01*
X311612Y239102D01*
X313332Y240251D01*
X314482Y241971D01*
X314885Y244000D01*
X314482Y246029D01*
X313332Y247749D01*
X312603Y248236D01*
Y249764D01*
X313332Y250251D01*
X314166Y251499D01*
X315584Y251499D01*
X316418Y250251D01*
X318138Y249102D01*
X320167Y248698D01*
X322196Y249102D01*
X323916Y250251D01*
X324749Y251499D01*
X326167Y251499D01*
X327001Y250251D01*
X328721Y249102D01*
X330750Y248698D01*
X332779Y249102D01*
X334499Y250251D01*
X335648Y251971D01*
X336052Y254000D01*
X335648Y256029D01*
X334499Y257749D01*
X332779Y258898D01*
X330750Y259302D01*
D02*
G37*
G36*
X-15000Y265302D02*
X-17029Y264898D01*
X-18749Y263749D01*
X-19898Y262029D01*
X-20302Y260000D01*
X-19898Y257971D01*
X-18749Y256251D01*
X-17029Y255102D01*
X-15000Y254698D01*
X-12971Y255102D01*
X-11251Y256251D01*
X-10102Y257971D01*
X-9698Y260000D01*
X-10102Y262029D01*
X-11251Y263749D01*
X-12971Y264898D01*
X-15000Y265302D01*
D02*
G37*
G36*
X220000Y262508D02*
X218251Y262278D01*
X216621Y261602D01*
X215222Y260529D01*
X214148Y259129D01*
X213472Y257499D01*
X213242Y255750D01*
X213472Y254001D01*
X214148Y252371D01*
X214921Y251364D01*
X214508Y250028D01*
X214501Y250028D01*
X212871Y249352D01*
X212400Y248991D01*
X211000Y249517D01*
X210898Y250029D01*
X209749Y251749D01*
X208029Y252898D01*
X206000Y253302D01*
X203971Y252898D01*
X202251Y251749D01*
X202135Y251575D01*
X200865D01*
X200749Y251749D01*
X199029Y252898D01*
X197000Y253302D01*
X194971Y252898D01*
X193251Y251749D01*
X192102Y250029D01*
X191698Y248000D01*
X192102Y245971D01*
X193251Y244251D01*
X193980Y243764D01*
Y242236D01*
X193251Y241749D01*
X193135Y241575D01*
X191865D01*
X191749Y241749D01*
X190029Y242898D01*
X188000Y243302D01*
X185971Y242898D01*
X184251Y241749D01*
X183102Y240029D01*
X182698Y238000D01*
X183102Y235971D01*
X184251Y234251D01*
X185971Y233102D01*
X188000Y232698D01*
X190029Y233102D01*
X191749Y234251D01*
X191865Y234425D01*
X193135D01*
X193251Y234251D01*
X194971Y233102D01*
X197000Y232698D01*
X199029Y233102D01*
X200749Y234251D01*
X200865Y234425D01*
X202135D01*
X202251Y234251D01*
X203971Y233102D01*
X206000Y232698D01*
X208029Y233102D01*
X209749Y234251D01*
X210898Y235971D01*
X211173Y237350D01*
X212514Y237922D01*
X212871Y237648D01*
X214501Y236973D01*
X216250Y236742D01*
X217999Y236973D01*
X219629Y237648D01*
X221028Y238722D01*
X222102Y240121D01*
X222778Y241751D01*
X223008Y243500D01*
X222778Y245249D01*
X222102Y246879D01*
X221329Y247886D01*
X221742Y249221D01*
X221749Y249223D01*
X223379Y249898D01*
X224778Y250972D01*
X225852Y252371D01*
X226528Y254001D01*
X226758Y255750D01*
X226528Y257499D01*
X225852Y259129D01*
X224778Y260529D01*
X223379Y261602D01*
X221749Y262278D01*
X220000Y262508D01*
D02*
G37*
G36*
X276000Y253302D02*
X273971Y252898D01*
X272251Y251749D01*
X272135Y251575D01*
X270865D01*
X270749Y251749D01*
X269029Y252898D01*
X267000Y253302D01*
X264971Y252898D01*
X263251Y251749D01*
X262102Y250029D01*
X261698Y248000D01*
X262102Y245971D01*
X263251Y244251D01*
X263980Y243764D01*
Y242236D01*
X263251Y241749D01*
X263135Y241575D01*
X261865D01*
X261749Y241749D01*
X260029Y242898D01*
X258000Y243302D01*
X255971Y242898D01*
X254251Y241749D01*
X253102Y240029D01*
X252698Y238000D01*
X253102Y235971D01*
X254251Y234251D01*
X255971Y233102D01*
X258000Y232698D01*
X260029Y233102D01*
X261749Y234251D01*
X261865Y234425D01*
X263135D01*
X263251Y234251D01*
X264971Y233102D01*
X267000Y232698D01*
X269029Y233102D01*
X270749Y234251D01*
X270865Y234425D01*
X272135D01*
X272251Y234251D01*
X273971Y233102D01*
X276000Y232698D01*
X278029Y233102D01*
X279749Y234251D01*
X280898Y235971D01*
X281302Y238000D01*
X280898Y240029D01*
X279749Y241749D01*
X279020Y242236D01*
Y243764D01*
X279749Y244251D01*
X280898Y245971D01*
X281302Y248000D01*
X280898Y250029D01*
X279749Y251749D01*
X278029Y252898D01*
X276000Y253302D01*
D02*
G37*
G36*
X26750Y266508D02*
X25001Y266278D01*
X23371Y265602D01*
X21971Y264529D01*
X20898Y263129D01*
X20222Y261499D01*
X19992Y259750D01*
X20222Y258001D01*
X20898Y256371D01*
X21971Y254972D01*
X23371Y253898D01*
X25001Y253223D01*
X26750Y252992D01*
X28499Y253223D01*
X30129Y253898D01*
X31528Y254972D01*
X32602Y256371D01*
X33277Y258001D01*
X33508Y259750D01*
X33277Y261499D01*
X32602Y263129D01*
X31528Y264529D01*
X30129Y265602D01*
X28499Y266278D01*
X26750Y266508D01*
D02*
G37*
G36*
X-15000Y245302D02*
X-17029Y244898D01*
X-18749Y243749D01*
X-19898Y242029D01*
X-20302Y240000D01*
X-19898Y237971D01*
X-18749Y236251D01*
X-17029Y235102D01*
X-15000Y234698D01*
X-12971Y235102D01*
X-11251Y236251D01*
X-10102Y237971D01*
X-9698Y240000D01*
X-10102Y242029D01*
X-11251Y243749D01*
X-12971Y244898D01*
X-15000Y245302D01*
D02*
G37*
G36*
X480500Y234302D02*
X478471Y233898D01*
X476751Y232749D01*
X475602Y231029D01*
X475198Y229000D01*
X475602Y226971D01*
X476751Y225251D01*
X477299Y224885D01*
Y223615D01*
X476751Y223249D01*
X475602Y221529D01*
X475198Y219500D01*
X475602Y217471D01*
X476751Y215751D01*
X478471Y214602D01*
X480500Y214198D01*
X482529Y214602D01*
X484249Y215751D01*
X485398Y217471D01*
X485802Y219500D01*
X485398Y221529D01*
X484249Y223249D01*
X483701Y223615D01*
Y224885D01*
X484249Y225251D01*
X485398Y226971D01*
X485802Y229000D01*
X485398Y231029D01*
X484249Y232749D01*
X482529Y233898D01*
X480500Y234302D01*
D02*
G37*
G36*
X511500D02*
X509471Y233898D01*
X507751Y232749D01*
X506602Y231029D01*
X506198Y229000D01*
X506602Y226971D01*
X507751Y225251D01*
X508299Y224885D01*
Y223615D01*
X507751Y223249D01*
X506602Y221529D01*
X506198Y219500D01*
X506602Y217471D01*
X507751Y215751D01*
X509471Y214602D01*
X511500Y214198D01*
X513529Y214602D01*
X515249Y215751D01*
X516398Y217471D01*
X516802Y219500D01*
X516398Y221529D01*
X515249Y223249D01*
X514701Y223615D01*
Y224885D01*
X515249Y225251D01*
X516398Y226971D01*
X516802Y229000D01*
X516398Y231029D01*
X515249Y232749D01*
X513529Y233898D01*
X511500Y234302D01*
D02*
G37*
G36*
X-15000Y225302D02*
X-17029Y224898D01*
X-18749Y223749D01*
X-19898Y222029D01*
X-20302Y220000D01*
X-19898Y217971D01*
X-18749Y216251D01*
X-17029Y215102D01*
X-15000Y214698D01*
X-12971Y215102D01*
X-11251Y216251D01*
X-10102Y217971D01*
X-9698Y220000D01*
X-10102Y222029D01*
X-11251Y223749D01*
X-12971Y224898D01*
X-15000Y225302D01*
D02*
G37*
G36*
X589000Y224302D02*
X586971Y223898D01*
X585251Y222749D01*
X584102Y221029D01*
X583698Y219000D01*
X584102Y216971D01*
X585251Y215251D01*
X586971Y214102D01*
X589000Y213698D01*
X591029Y214102D01*
X592749Y215251D01*
X593153Y215855D01*
X594680D01*
X595251Y215001D01*
X596971Y213852D01*
X599000Y213448D01*
X601029Y213852D01*
X602749Y215001D01*
X603898Y216721D01*
X604302Y218750D01*
X603898Y220779D01*
X602749Y222499D01*
X601029Y223648D01*
X599000Y224052D01*
X596971Y223648D01*
X595251Y222499D01*
X594847Y221895D01*
X593320D01*
X592749Y222749D01*
X591029Y223898D01*
X589000Y224302D01*
D02*
G37*
G36*
X366500Y215802D02*
X364471Y215398D01*
X362751Y214249D01*
X361602Y212529D01*
X361198Y210500D01*
X361602Y208471D01*
X362751Y206751D01*
X364471Y205602D01*
X366500Y205198D01*
X368529Y205602D01*
X370249Y206751D01*
X371398Y208471D01*
X371802Y210500D01*
X371398Y212529D01*
X370249Y214249D01*
X368529Y215398D01*
X366500Y215802D01*
D02*
G37*
G36*
X431500D02*
X429471Y215398D01*
X427751Y214249D01*
X426602Y212529D01*
X426198Y210500D01*
X426602Y208471D01*
X427751Y206751D01*
X429471Y205602D01*
X431500Y205198D01*
X433529Y205602D01*
X435249Y206751D01*
X436398Y208471D01*
X436802Y210500D01*
X436398Y212529D01*
X435249Y214249D01*
X433529Y215398D01*
X431500Y215802D01*
D02*
G37*
G36*
X526000Y226052D02*
X523971Y225648D01*
X522251Y224499D01*
X521102Y222779D01*
X520698Y220750D01*
X521102Y218721D01*
X522251Y217001D01*
Y216499D01*
X521102Y214779D01*
X520698Y212750D01*
X521102Y210721D01*
X522251Y209001D01*
X523971Y207852D01*
X526000Y207448D01*
X528029Y207852D01*
X529749Y209001D01*
X530898Y210721D01*
X531302Y212750D01*
X530898Y214779D01*
X529749Y216499D01*
Y217001D01*
X530898Y218721D01*
X531302Y220750D01*
X530898Y222779D01*
X529749Y224499D01*
X528029Y225648D01*
X526000Y226052D01*
D02*
G37*
G36*
X55500Y225302D02*
X53471Y224898D01*
X51751Y223749D01*
X50602Y222029D01*
X50198Y220000D01*
X50602Y217971D01*
X51751Y216251D01*
X53471Y215102D01*
X55500Y214698D01*
X57529Y215102D01*
X59249Y216251D01*
X60398Y217971D01*
X60802Y220000D01*
X60398Y222029D01*
X59249Y223749D01*
X57529Y224898D01*
X55500Y225302D01*
D02*
G37*
G36*
X-3250Y235302D02*
X-5279Y234898D01*
X-6999Y233749D01*
X-8148Y232029D01*
X-8552Y230000D01*
X-8148Y227971D01*
X-6999Y226251D01*
X-5279Y225102D01*
X-3250Y224698D01*
X-1221Y225102D01*
X499Y226251D01*
X1648Y227971D01*
X2052Y230000D01*
X1648Y232029D01*
X499Y233749D01*
X-1221Y234898D01*
X-3250Y235302D01*
D02*
G37*
G36*
X70250D02*
X68221Y234898D01*
X66501Y233749D01*
X65352Y232029D01*
X64948Y230000D01*
X65352Y227971D01*
X66501Y226251D01*
X68221Y225102D01*
X70250Y224698D01*
X72279Y225102D01*
X73999Y226251D01*
X75148Y227971D01*
X75552Y230000D01*
X75148Y232029D01*
X73999Y233749D01*
X72279Y234898D01*
X70250Y235302D01*
D02*
G37*
G36*
X26500Y247008D02*
X24751Y246777D01*
X23121Y246102D01*
X21721Y245028D01*
X20648Y243629D01*
X19972Y241999D01*
X19742Y240250D01*
X19972Y238501D01*
X20648Y236871D01*
X21721Y235471D01*
X23121Y234398D01*
X24751Y233722D01*
X26500Y233492D01*
X28249Y233722D01*
X29879Y234398D01*
X31279Y235471D01*
X32352Y236871D01*
X33028Y238501D01*
X33258Y240250D01*
X33028Y241999D01*
X32352Y243629D01*
X31279Y245028D01*
X29879Y246102D01*
X28249Y246777D01*
X26500Y247008D01*
D02*
G37*
G36*
X320250Y237508D02*
X318501Y237278D01*
X316871Y236602D01*
X315471Y235529D01*
X314398Y234129D01*
X313722Y232499D01*
X313492Y230750D01*
X313722Y229001D01*
X314398Y227371D01*
X315471Y225972D01*
X316871Y224898D01*
X318501Y224223D01*
X320250Y223992D01*
X321999Y224223D01*
X323629Y224898D01*
X325028Y225972D01*
X326102Y227371D01*
X326777Y229001D01*
X327008Y230750D01*
X326777Y232499D01*
X326102Y234129D01*
X325028Y235529D01*
X323629Y236602D01*
X321999Y237278D01*
X320250Y237508D01*
D02*
G37*
G36*
X190500Y225302D02*
X188471Y224898D01*
X186751Y223749D01*
X185602Y222029D01*
X185198Y220000D01*
X185602Y217971D01*
X186751Y216251D01*
X188471Y215102D01*
X190500Y214698D01*
X192529Y215102D01*
X194249Y216251D01*
X195398Y217971D01*
X195802Y220000D01*
X195398Y222029D01*
X194249Y223749D01*
X192529Y224898D01*
X190500Y225302D01*
D02*
G37*
G36*
X260500D02*
X258471Y224898D01*
X256751Y223749D01*
X255602Y222029D01*
X255198Y220000D01*
X255602Y217971D01*
X256751Y216251D01*
X258471Y215102D01*
X260500Y214698D01*
X262529Y215102D01*
X264249Y216251D01*
X265398Y217971D01*
X265802Y220000D01*
X265398Y222029D01*
X264249Y223749D01*
X262529Y224898D01*
X260500Y225302D01*
D02*
G37*
G36*
X286500Y228552D02*
X284471Y228148D01*
X282751Y226999D01*
X281602Y225279D01*
X281198Y223250D01*
X281602Y221221D01*
X282751Y219501D01*
X284471Y218352D01*
X286500Y217948D01*
X288529Y218352D01*
X290249Y219501D01*
X291398Y221221D01*
X291802Y223250D01*
X291398Y225279D01*
X290249Y226999D01*
X288529Y228148D01*
X286500Y228552D01*
D02*
G37*
%LPD*%
D35*
X-12750Y119250D02*
Y133500D01*
Y119250D02*
X-8500Y115000D01*
X17750Y61500D02*
Y111750D01*
X-1750Y42000D02*
X17750Y61500D01*
X-12250Y42250D02*
X-3250Y51250D01*
X-6750Y121750D02*
X12750Y102250D01*
X-6750Y121750D02*
Y128250D01*
X0Y135000D01*
X-3250Y51250D02*
X1000D01*
X12750Y63000D01*
Y102250D01*
X-750Y125000D02*
X4500D01*
X17750Y111750D01*
X-12750Y133500D02*
X-2250Y144000D01*
Y149000D01*
X28250Y179500D01*
X-7750Y151500D02*
X25500Y184750D01*
X-17750Y105000D02*
Y136500D01*
X-7750Y146500D01*
Y151500D01*
X93000Y254000D02*
X114750D01*
X121250Y260500D01*
X104000Y240000D02*
X110500D01*
X85750Y246750D02*
X93000Y254000D01*
X28250Y179500D02*
X70250D01*
X25500Y184750D02*
X67750D01*
X85750Y202750D01*
Y246750D01*
X70250Y179500D02*
X109250Y218500D01*
X113500Y218250D02*
Y237000D01*
X110500Y240000D02*
X113500Y237000D01*
X109250Y218500D02*
X113250D01*
X113500Y218250D01*
X121250Y210500D01*
X133250Y266750D02*
X139500Y260500D01*
X117500Y266750D02*
X133250D01*
X111250Y260500D02*
X117500Y266750D01*
X111250Y210500D02*
X118000Y203750D01*
X132500D01*
X139250Y210500D01*
D36*
X91750Y88250D02*
Y98500D01*
X384500Y65750D02*
X394500D01*
X384250Y190500D02*
X394250D01*
X384000Y315750D02*
X394500D01*
D41*
X-21250Y-8250D02*
D03*
D43*
X-5375Y358750D02*
D03*
X592625Y-19250D02*
D03*
X592375Y358250D02*
D03*
D47*
X27000Y155000D02*
D03*
Y65000D02*
D03*
Y200000D02*
D03*
Y290000D02*
D03*
D50*
X559550Y284250D02*
D03*
Y54450D02*
D03*
X536950D02*
D03*
Y284250D02*
D03*
D51*
X566000Y137500D02*
D03*
X514000Y-6250D02*
D03*
X476750Y156250D02*
D03*
X347500Y61250D02*
D03*
X351750Y500D02*
D03*
X25500Y307250D02*
D03*
X41250Y306750D02*
D03*
X51750Y307000D02*
D03*
X152250Y104750D02*
D03*
X559000Y182000D02*
D03*
X541500Y181750D02*
D03*
X482250Y271000D02*
D03*
X141500Y81500D02*
D03*
X91250Y69500D02*
D03*
X141500Y70250D02*
D03*
X565750Y100250D02*
D03*
X566000Y86000D02*
D03*
X62250Y307000D02*
D03*
X171000Y167500D02*
D03*
X161000D02*
D03*
X285750Y5750D02*
D03*
X538500Y306250D02*
D03*
X528000D02*
D03*
X426250Y286500D02*
D03*
X417000D02*
D03*
X426250Y161500D02*
D03*
X417000D02*
D03*
X363000Y135500D02*
D03*
X-1750Y42000D02*
D03*
X73500Y315500D02*
D03*
X552750Y306250D02*
D03*
X36750Y361750D02*
D03*
X-12250Y42250D02*
D03*
X39250Y26000D02*
D03*
X538500Y-24750D02*
D03*
X612000Y287500D02*
D03*
X552250Y361750D02*
D03*
X-24750Y306500D02*
D03*
X611750Y32000D02*
D03*
X362500Y500D02*
D03*
X417000Y36500D02*
D03*
X426250D02*
D03*
X489750Y20000D02*
D03*
X479500Y319500D02*
D03*
X476750Y143950D02*
D03*
Y169983D02*
D03*
X475000Y260250D02*
D03*
X525000Y188500D02*
D03*
X456250Y243750D02*
D03*
X476750Y183000D02*
D03*
X286500Y21500D02*
D03*
X217000Y306250D02*
D03*
X77750Y328250D02*
D03*
X287000Y290500D02*
D03*
X575000Y287000D02*
D03*
X310750Y361750D02*
D03*
X59250Y-8250D02*
D03*
X153750Y-1250D02*
D03*
X575750Y62000D02*
D03*
X566000Y112000D02*
D03*
X-11750Y176750D02*
D03*
X-5500Y167250D02*
D03*
X471000Y20000D02*
D03*
X525000Y175750D02*
D03*
X566000Y73750D02*
D03*
X469000Y362250D02*
D03*
X104000Y230000D02*
D03*
X93750Y229750D02*
D03*
X104000Y240000D02*
D03*
X93750D02*
D03*
X27750Y-24750D02*
D03*
X286500Y268000D02*
D03*
D52*
X566250Y127000D02*
D03*
X220000Y255750D02*
D03*
X216250Y243500D02*
D03*
X566000Y149500D02*
D03*
X91750Y98500D02*
D03*
X276000Y100750D02*
D03*
Y195750D02*
D03*
X447500Y320500D02*
D03*
X26750Y277000D02*
D03*
Y259750D02*
D03*
X521500Y99750D02*
D03*
X508250Y65750D02*
D03*
X91750Y88250D02*
D03*
X342500Y264500D02*
D03*
X363000Y260500D02*
D03*
X394500Y315750D02*
D03*
X445250Y190500D02*
D03*
X394500Y190750D02*
D03*
X98250Y290750D02*
D03*
X163250D02*
D03*
X233250D02*
D03*
X206000Y195750D02*
D03*
X163250D02*
D03*
X233250D02*
D03*
Y100750D02*
D03*
X206000D02*
D03*
X163250D02*
D03*
X206000Y5750D02*
D03*
X163250D02*
D03*
X233250D02*
D03*
X276000D02*
D03*
X364000Y107500D02*
D03*
X340250Y336000D02*
D03*
X219250Y168250D02*
D03*
X287750Y343000D02*
D03*
X394500Y65750D02*
D03*
X445250Y66500D02*
D03*
X391500Y106250D02*
D03*
X493250Y65750D02*
D03*
X476750Y118500D02*
D03*
X525000Y163000D02*
D03*
X291750Y40000D02*
D03*
Y319250D02*
D03*
X141750Y290750D02*
D03*
X206750Y291000D02*
D03*
X277250Y290500D02*
D03*
X384000Y315750D02*
D03*
X348250Y169500D02*
D03*
X384500Y65750D02*
D03*
X384250Y190500D02*
D03*
X26500Y240250D02*
D03*
X215750Y152250D02*
D03*
X219500Y331750D02*
D03*
X216500Y343500D02*
D03*
X473750Y207250D02*
D03*
X347500Y44750D02*
D03*
X219250Y71000D02*
D03*
X320250Y230750D02*
D03*
D53*
X490000Y299250D02*
D03*
X287000Y304750D02*
D03*
X286500Y223250D02*
D03*
X318250Y-7750D02*
D03*
X68750Y115000D02*
D03*
X63750Y105000D02*
D03*
X53000Y85000D02*
D03*
X48250Y95000D02*
D03*
X72000D02*
D03*
X48250Y65000D02*
D03*
X76000Y75000D02*
D03*
X318250Y301250D02*
D03*
X72000Y-11000D02*
D03*
X82000Y-11000D02*
D03*
X106750Y-14250D02*
D03*
X81750Y33500D02*
D03*
X85250Y46500D02*
D03*
X80500Y24500D02*
D03*
X71500Y3750D02*
D03*
X392000Y338500D02*
D03*
X39750Y2250D02*
D03*
Y12250D02*
D03*
X39500Y36750D02*
D03*
X58500D02*
D03*
X49000Y16750D02*
D03*
X59500Y2000D02*
D03*
Y12000D02*
D03*
X490000Y311000D02*
D03*
X499500Y290250D02*
D03*
X569750Y201750D02*
D03*
X515250Y49000D02*
D03*
Y82500D02*
D03*
X488250D02*
D03*
Y49000D02*
D03*
X578500Y186500D02*
D03*
X578750Y166250D02*
D03*
X567500Y274500D02*
D03*
X598000Y240500D02*
D03*
X573250Y249250D02*
D03*
X528000Y262000D02*
D03*
X550750Y226500D02*
D03*
X599750Y250500D02*
D03*
X581250Y211250D02*
D03*
X589000Y219000D02*
D03*
X599000Y208750D02*
D03*
Y218750D02*
D03*
X480500Y281750D02*
D03*
X499500Y281750D02*
D03*
X509500D02*
D03*
X490500Y281750D02*
D03*
X480500Y290250D02*
D03*
X151500Y44750D02*
D03*
X105750Y10250D02*
D03*
X127250Y31500D02*
D03*
X178250Y23250D02*
D03*
X153000Y8000D02*
D03*
X152500Y33750D02*
D03*
X149500Y-11000D02*
D03*
X55000Y145000D02*
D03*
X126500Y-14250D02*
D03*
X136750D02*
D03*
X68000Y290000D02*
D03*
X76750D02*
D03*
X5250D02*
D03*
X460000Y175000D02*
D03*
X425000Y260000D02*
D03*
Y250000D02*
D03*
X415000D02*
D03*
X425000Y125000D02*
D03*
Y135000D02*
D03*
X415000D02*
D03*
Y125000D02*
D03*
X429250Y301250D02*
D03*
X413750D02*
D03*
X415000Y260000D02*
D03*
X397750Y278750D02*
D03*
X445000Y260000D02*
D03*
X421500Y322000D02*
D03*
X366500Y335500D02*
D03*
X445000Y306250D02*
D03*
X429750Y322000D02*
D03*
X389571Y273993D02*
D03*
Y293242D02*
D03*
Y283993D02*
D03*
X421571Y296793D02*
D03*
Y304492D02*
D03*
X413250Y322000D02*
D03*
X460000Y310000D02*
D03*
Y300000D02*
D03*
Y260000D02*
D03*
Y270000D02*
D03*
Y280000D02*
D03*
Y290000D02*
D03*
X385000Y260000D02*
D03*
X405000D02*
D03*
X395000Y250000D02*
D03*
X435000Y260000D02*
D03*
Y250000D02*
D03*
X398000Y306250D02*
D03*
Y298000D02*
D03*
X445000D02*
D03*
X370000Y276500D02*
D03*
Y303500D02*
D03*
X458500Y335500D02*
D03*
X431500D02*
D03*
X429250Y176250D02*
D03*
X413750D02*
D03*
X397750Y153750D02*
D03*
X445000Y135000D02*
D03*
X421500Y197000D02*
D03*
X366500Y210500D02*
D03*
X393500D02*
D03*
X445000Y181250D02*
D03*
X429750Y197000D02*
D03*
X389571Y148993D02*
D03*
Y168242D02*
D03*
Y158993D02*
D03*
X421571Y171793D02*
D03*
Y179492D02*
D03*
X413250Y197000D02*
D03*
X460000Y185000D02*
D03*
Y135000D02*
D03*
Y145000D02*
D03*
Y155000D02*
D03*
Y165000D02*
D03*
X385000Y135000D02*
D03*
X405000D02*
D03*
X395000Y125000D02*
D03*
X435000Y135000D02*
D03*
Y125000D02*
D03*
X398000Y181250D02*
D03*
Y173000D02*
D03*
X445000D02*
D03*
X370000Y151500D02*
D03*
Y178500D02*
D03*
X458500Y210500D02*
D03*
X431500D02*
D03*
X276000Y58000D02*
D03*
X123000Y343000D02*
D03*
Y333000D02*
D03*
X126750Y277000D02*
D03*
X140750D02*
D03*
X113000Y277000D02*
D03*
X99000D02*
D03*
X141000Y333000D02*
D03*
Y343000D02*
D03*
X132000D02*
D03*
Y333000D02*
D03*
X112750Y308250D02*
D03*
X125500Y315000D02*
D03*
X188000Y343000D02*
D03*
Y333000D02*
D03*
X191750Y277000D02*
D03*
X205750D02*
D03*
X178000Y277000D02*
D03*
X164000D02*
D03*
X206000Y333000D02*
D03*
Y343000D02*
D03*
X197000D02*
D03*
Y333000D02*
D03*
X177750Y308250D02*
D03*
X190500Y315000D02*
D03*
X258000Y343000D02*
D03*
Y333000D02*
D03*
X261750Y277000D02*
D03*
X275750D02*
D03*
X248000Y277000D02*
D03*
X234000D02*
D03*
X276000Y333000D02*
D03*
Y343000D02*
D03*
X267000D02*
D03*
Y333000D02*
D03*
X247750Y308250D02*
D03*
X260500Y315000D02*
D03*
X188000Y248000D02*
D03*
Y238000D02*
D03*
X191750Y182000D02*
D03*
X205750D02*
D03*
X178000Y182000D02*
D03*
X164000D02*
D03*
X206000Y238000D02*
D03*
Y248000D02*
D03*
X197000D02*
D03*
Y238000D02*
D03*
X177750Y213250D02*
D03*
X190500Y220000D02*
D03*
X258000Y248000D02*
D03*
Y238000D02*
D03*
X261750Y182000D02*
D03*
X275750D02*
D03*
X248000Y182000D02*
D03*
X234000D02*
D03*
X276000Y238000D02*
D03*
Y248000D02*
D03*
X267000D02*
D03*
Y238000D02*
D03*
X247750Y213250D02*
D03*
X260500Y220000D02*
D03*
X258000Y153000D02*
D03*
Y143000D02*
D03*
X261750Y87000D02*
D03*
X275750D02*
D03*
X248000Y87000D02*
D03*
X234000D02*
D03*
X276000Y143000D02*
D03*
Y153000D02*
D03*
X267000D02*
D03*
Y143000D02*
D03*
X247750Y118250D02*
D03*
X260500Y125000D02*
D03*
X188000Y153000D02*
D03*
Y143000D02*
D03*
X191750Y87000D02*
D03*
X205750D02*
D03*
X178000Y87000D02*
D03*
X164000D02*
D03*
X206000Y143000D02*
D03*
Y153000D02*
D03*
X197000D02*
D03*
Y143000D02*
D03*
X177750Y118250D02*
D03*
X190500Y125000D02*
D03*
X188000Y58000D02*
D03*
Y48000D02*
D03*
X191750Y-8000D02*
D03*
X205750D02*
D03*
X178000Y-8000D02*
D03*
X164000D02*
D03*
X206000Y48000D02*
D03*
Y58000D02*
D03*
X197000D02*
D03*
Y48000D02*
D03*
X190500Y30000D02*
D03*
X258000Y58000D02*
D03*
X267000D02*
D03*
Y48000D02*
D03*
X276000D02*
D03*
X258000D02*
D03*
X234000Y-8000D02*
D03*
X248000D02*
D03*
X261750Y-8000D02*
D03*
X260500Y30000D02*
D03*
X247750Y23250D02*
D03*
X599000Y176000D02*
D03*
X588000D02*
D03*
X599000Y196500D02*
D03*
Y186500D02*
D03*
X599000Y166000D02*
D03*
X533000Y39000D02*
D03*
X543000D02*
D03*
X586000Y39000D02*
D03*
X576000D02*
D03*
X554500D02*
D03*
X564500D02*
D03*
X489500Y335750D02*
D03*
X503250Y336000D02*
D03*
Y318750D02*
D03*
X513000Y143500D02*
D03*
X512750Y118500D02*
D03*
X540000Y124750D02*
D03*
Y137500D02*
D03*
Y150000D02*
D03*
X593250D02*
D03*
Y137500D02*
D03*
Y86500D02*
D03*
Y74000D02*
D03*
X540000Y99250D02*
D03*
Y112000D02*
D03*
X49000Y155000D02*
D03*
X58000Y125000D02*
D03*
X-17750Y105000D02*
D03*
X-8500Y115000D02*
D03*
X-750Y125000D02*
D03*
X0Y135000D02*
D03*
X-22100Y75000D02*
D03*
X4900Y65000D02*
D03*
X-3100Y75000D02*
D03*
X-13100Y65000D02*
D03*
X-22100Y95000D02*
D03*
X4900Y85000D02*
D03*
X-3100Y95000D02*
D03*
X-13100Y85000D02*
D03*
X58000Y65000D02*
D03*
X-3250Y270000D02*
D03*
X-15000Y260000D02*
D03*
X-3250Y250000D02*
D03*
X-15000Y240000D02*
D03*
X-3250Y230000D02*
D03*
X-15000Y220000D02*
D03*
X-3250Y210000D02*
D03*
X-15000Y200000D02*
D03*
X55500Y220000D02*
D03*
X70250Y230000D02*
D03*
X55500Y240000D02*
D03*
X70250Y250000D02*
D03*
X55500Y260000D02*
D03*
X70250Y270000D02*
D03*
X55500Y280000D02*
D03*
X-15000D02*
D03*
X-3250Y290000D02*
D03*
X55500Y200000D02*
D03*
X66000Y210000D02*
D03*
X129375Y182250D02*
D03*
Y172250D02*
D03*
Y157333D02*
D03*
Y147333D02*
D03*
Y132417D02*
D03*
Y122417D02*
D03*
Y107500D02*
D03*
Y97500D02*
D03*
X106094Y107500D02*
D03*
Y97500D02*
D03*
Y122417D02*
D03*
Y132417D02*
D03*
Y147333D02*
D03*
Y157333D02*
D03*
Y172250D02*
D03*
Y182250D02*
D03*
X128500Y60500D02*
D03*
Y72250D02*
D03*
X114000D02*
D03*
X100500D02*
D03*
X51250Y75000D02*
D03*
X100500Y60000D02*
D03*
X474250Y335750D02*
D03*
X490500Y250500D02*
D03*
X490500Y229000D02*
D03*
X480500Y250500D02*
D03*
Y241000D02*
D03*
X480500Y229000D02*
D03*
Y219500D02*
D03*
X511500D02*
D03*
Y229000D02*
D03*
X511500Y241000D02*
D03*
Y250500D02*
D03*
Y260000D02*
D03*
X501500Y260000D02*
D03*
Y250500D02*
D03*
X501500Y229000D02*
D03*
X548250Y274500D02*
D03*
X526000Y220750D02*
D03*
Y212750D02*
D03*
X239750Y139500D02*
D03*
Y159500D02*
D03*
X431500Y85500D02*
D03*
X458500D02*
D03*
X370000Y53500D02*
D03*
Y26500D02*
D03*
X445000Y48000D02*
D03*
X398000D02*
D03*
Y56250D02*
D03*
X435000Y0D02*
D03*
Y10000D02*
D03*
X395000Y0D02*
D03*
X405000Y10000D02*
D03*
X385000D02*
D03*
X460000Y40000D02*
D03*
Y30000D02*
D03*
Y20000D02*
D03*
Y10000D02*
D03*
Y50000D02*
D03*
Y60000D02*
D03*
X413250Y72000D02*
D03*
X421571Y54493D02*
D03*
Y46792D02*
D03*
X389571Y33993D02*
D03*
Y43243D02*
D03*
Y23993D02*
D03*
X429750Y72000D02*
D03*
X445000Y56250D02*
D03*
X393500Y85500D02*
D03*
X366500D02*
D03*
X421500Y72000D02*
D03*
X445000Y10000D02*
D03*
X397750Y28750D02*
D03*
X415000Y10000D02*
D03*
Y0D02*
D03*
X425000Y10000D02*
D03*
Y0D02*
D03*
X413750Y51250D02*
D03*
X429250D02*
D03*
X303750Y126250D02*
D03*
X313750D02*
D03*
X324250D02*
D03*
X334250D02*
D03*
X332000Y138250D02*
D03*
Y147750D02*
D03*
Y157250D02*
D03*
X306000Y157250D02*
D03*
Y147750D02*
D03*
Y138250D02*
D03*
X324250Y168750D02*
D03*
X334250D02*
D03*
X304000D02*
D03*
X314500Y205250D02*
D03*
X324500D02*
D03*
X308250Y197250D02*
D03*
X329750D02*
D03*
Y184250D02*
D03*
X317000Y189750D02*
D03*
X19000Y37500D02*
D03*
X29000D02*
D03*
X39250Y-10750D02*
D03*
X49250D02*
D03*
X579750Y277250D02*
D03*
X599750Y262750D02*
D03*
X275750Y-8000D02*
D03*
X321500Y19250D02*
D03*
X308500D02*
D03*
X304500Y-250D02*
D03*
X332750D02*
D03*
X311833Y57500D02*
D03*
X301250Y67500D02*
D03*
X311833D02*
D03*
X322417Y67500D02*
D03*
X333000Y57500D02*
D03*
Y67500D02*
D03*
X326000Y83250D02*
D03*
X307000D02*
D03*
X316500Y103250D02*
D03*
X321250Y329250D02*
D03*
X309000D02*
D03*
X304500Y309750D02*
D03*
X309583Y244000D02*
D03*
X299000Y254000D02*
D03*
X309583D02*
D03*
X330750D02*
D03*
Y244000D02*
D03*
X324500Y269500D02*
D03*
X305500D02*
D03*
X315000Y289500D02*
D03*
X511500Y272000D02*
D03*
X501500D02*
D03*
X593750Y290750D02*
D03*
Y280750D02*
D03*
X525250Y200750D02*
D03*
X515250D02*
D03*
X588000Y196500D02*
D03*
Y186500D02*
D03*
X68000Y135000D02*
D03*
X153250Y60250D02*
D03*
X163250D02*
D03*
X320167Y254000D02*
D03*
X-15750Y155000D02*
D03*
X3750Y145000D02*
D03*
X152750Y24750D02*
D03*
X116750Y-14250D02*
D03*
X91500Y-14000D02*
D03*
X87000Y-2250D02*
D03*
X111250Y260500D02*
D03*
X121250D02*
D03*
X125250Y235250D02*
D03*
X129500Y260500D02*
D03*
X139500D02*
D03*
X139250Y210500D02*
D03*
X129250D02*
D03*
X121250D02*
D03*
X111250D02*
D03*
X129500Y193750D02*
D03*
X107250D02*
D03*
X341750Y31000D02*
D03*
X353500D02*
D03*
X353750Y16000D02*
D03*
X341750D02*
D03*
X339750Y308250D02*
D03*
X352250D02*
D03*
X339750Y293250D02*
D03*
X352250D02*
D03*
D55*
X-32125Y318500D02*
D03*
D56*
X-33875Y27875D02*
D03*
D57*
X19625Y-25250D02*
D03*
X556625Y362250D02*
D03*
X32375D02*
D03*
X23375Y-29250D02*
D03*
D58*
X612000Y27875D02*
D03*
X538750Y-29125D02*
D03*
D59*
X621000Y168850D02*
D03*
D60*
X-18750Y342625D02*
D03*
X607750Y-5625D02*
D03*
X608000Y342875D02*
D03*
D61*
X-10000Y-18000D02*
D03*
D62*
X294250Y-33375D02*
D03*
D63*
X294000Y372000D02*
D03*
D64*
X58000Y125000D02*
X68000Y135000D01*
X71750D01*
X3750Y145000D02*
X16750D01*
X36750Y125000D01*
X58000D01*
D65*
X48650Y330650D02*
D03*
X538650Y6650D02*
D03*
D66*
X587300Y0D02*
D03*
Y337300D02*
D03*
X0D02*
D03*
Y0D02*
D03*
D67*
X538650Y330650D02*
D03*
D70*
X277250Y290500D02*
X287000D01*
X276000Y5750D02*
X285750D01*
M02*
