G04 Layer_Physical_Order=6*
G04 Layer_Color=32896*
%FSLAX44Y44*%
%MOMM*%
G71*
G01*
G75*
%ADD36C,0.5000*%
%ADD39C,0.8000*%
%ADD41R,4.2000X6.1500*%
%ADD43R,6.9750X4.2000*%
%ADD47C,1.1900*%
%ADD50C,1.5000*%
%ADD51C,0.8000*%
%ADD52C,0.9000*%
%ADD55R,1.6750X3.9000*%
%ADD56R,1.6750X5.5750*%
%ADD57R,1.6750X0.9000*%
%ADD58R,0.9000X1.6750*%
%ADD59R,1.4000X33.7300*%
%ADD60R,4.2000X6.9750*%
%ADD61R,6.4000X4.2000*%
%ADD62R,58.7500X1.1250*%
%ADD63R,58.8000X1.6000*%
%ADD65C,2.5000*%
%ADD66C,4.5000*%
%ADD67C,2.8000*%
%ADD69C,1.0000*%
G36*
X592298Y368859D02*
X597174Y367688D01*
X601806Y365770D01*
X606081Y363150D01*
X609894Y359894D01*
X613150Y356081D01*
X615770Y351806D01*
X617688Y347174D01*
X618859Y342299D01*
X619245Y337398D01*
X619154Y337300D01*
X619154D01*
X619252Y0D01*
X618859Y-4998D01*
X617688Y-9874D01*
X615770Y-14506D01*
X613150Y-18781D01*
X609894Y-22594D01*
X606081Y-25850D01*
X601806Y-28470D01*
X597174Y-30389D01*
X592298Y-31559D01*
X588473Y-31860D01*
X587300Y-31895D01*
X587289Y-31854D01*
X586115Y-31854D01*
X1180D01*
X11Y-31854D01*
X-1269Y-31852D01*
X-4998Y-31559D01*
X-9874Y-30389D01*
X-14506Y-28470D01*
X-18781Y-25850D01*
X-22594Y-22594D01*
X-25850Y-18781D01*
X-28470Y-14506D01*
X-30389Y-9874D01*
X-31559Y-4998D01*
X-31860Y-1173D01*
X-31895Y0D01*
X-31854Y11D01*
X-31854Y1186D01*
Y55830D01*
X-31525Y55895D01*
X-30698Y56448D01*
X-30145Y57275D01*
X-29951Y58250D01*
Y296500D01*
X-30145Y297475D01*
X-30698Y298302D01*
X-31525Y298855D01*
X-31854Y298920D01*
Y337300D01*
X-31854D01*
X-31945Y337398D01*
X-31559Y342299D01*
X-30389Y347174D01*
X-28470Y351806D01*
X-25850Y356081D01*
X-22594Y359894D01*
X-18781Y363150D01*
X-14506Y365770D01*
X-9874Y367688D01*
X-4998Y368859D01*
X-98Y369245D01*
X0Y369154D01*
Y369154D01*
X587300Y369252D01*
X592298Y368859D01*
D02*
G37*
%LPC*%
G36*
X152250Y110868D02*
X149909Y110402D01*
X147924Y109076D01*
X146598Y107091D01*
X146132Y104750D01*
X146598Y102409D01*
X147924Y100424D01*
X149909Y99098D01*
X152250Y98632D01*
X154591Y99098D01*
X155546Y99736D01*
X156909Y99119D01*
X156917Y99053D01*
X157572Y97472D01*
X158614Y96114D01*
X159972Y95072D01*
X161553Y94417D01*
X163250Y94194D01*
X164947Y94417D01*
X166528Y95072D01*
X167886Y96114D01*
X168928Y97472D01*
X169583Y99053D01*
X169806Y100750D01*
X169583Y102447D01*
X168928Y104028D01*
X167886Y105386D01*
X166528Y106428D01*
X164947Y107083D01*
X163250Y107306D01*
X161553Y107083D01*
X159972Y106428D01*
X159414Y105999D01*
X158014Y106526D01*
X157902Y107091D01*
X156576Y109076D01*
X154591Y110402D01*
X152250Y110868D01*
D02*
G37*
G36*
X566000Y118118D02*
X563659Y117652D01*
X561674Y116326D01*
X560348Y114341D01*
X559882Y112000D01*
X560348Y109659D01*
X561674Y107674D01*
X562737Y106965D01*
X562725Y105445D01*
X561424Y104576D01*
X560098Y102591D01*
X559632Y100250D01*
X560098Y97909D01*
X561424Y95924D01*
X563409Y94598D01*
X565750Y94132D01*
X568091Y94598D01*
X570076Y95924D01*
X571402Y97909D01*
X571867Y100250D01*
X571402Y102591D01*
X570076Y104576D01*
X569013Y105286D01*
X569025Y106805D01*
X570326Y107674D01*
X571652Y109659D01*
X572118Y112000D01*
X571652Y114341D01*
X570326Y116326D01*
X568341Y117652D01*
X566000Y118118D01*
D02*
G37*
G36*
X391500Y112806D02*
X389803Y112583D01*
X388222Y111928D01*
X386864Y110886D01*
X385822Y109528D01*
X385167Y107947D01*
X384944Y106250D01*
X385167Y104553D01*
X385822Y102972D01*
X386864Y101614D01*
X388222Y100572D01*
X389803Y99917D01*
X391500Y99694D01*
X393197Y99917D01*
X394778Y100572D01*
X396136Y101614D01*
X397178Y102972D01*
X397833Y104553D01*
X398056Y106250D01*
X397833Y107947D01*
X397178Y109528D01*
X396136Y110886D01*
X394778Y111928D01*
X393197Y112583D01*
X391500Y112806D01*
D02*
G37*
G36*
X233250Y107306D02*
X231553Y107083D01*
X229972Y106428D01*
X228614Y105386D01*
X227572Y104028D01*
X226917Y102447D01*
X226694Y100750D01*
X226917Y99053D01*
X227572Y97472D01*
X228614Y96114D01*
X229972Y95072D01*
X231553Y94417D01*
X233250Y94194D01*
X234947Y94417D01*
X236528Y95072D01*
X237886Y96114D01*
X238928Y97472D01*
X239583Y99053D01*
X239806Y100750D01*
X239583Y102447D01*
X238928Y104028D01*
X237886Y105386D01*
X236528Y106428D01*
X234947Y107083D01*
X233250Y107306D01*
D02*
G37*
G36*
X521500Y106306D02*
X519803Y106083D01*
X518222Y105428D01*
X516864Y104386D01*
X515822Y103028D01*
X515167Y101447D01*
X514944Y99750D01*
X515167Y98053D01*
X515822Y96472D01*
X516864Y95114D01*
X518222Y94072D01*
X519803Y93417D01*
X521500Y93194D01*
X523197Y93417D01*
X524778Y94072D01*
X526136Y95114D01*
X527178Y96472D01*
X527833Y98053D01*
X528056Y99750D01*
X527833Y101447D01*
X527178Y103028D01*
X526136Y104386D01*
X524778Y105428D01*
X523197Y106083D01*
X521500Y106306D01*
D02*
G37*
G36*
X566000Y92118D02*
X563659Y91652D01*
X561674Y90326D01*
X560348Y88341D01*
X559883Y86000D01*
X560348Y83659D01*
X561674Y81674D01*
X563311Y80581D01*
X563371Y80379D01*
Y79371D01*
X563311Y79169D01*
X561674Y78076D01*
X560348Y76091D01*
X559882Y73750D01*
X560348Y71409D01*
X561674Y69424D01*
X563659Y68098D01*
X566000Y67632D01*
X568341Y68098D01*
X570326Y69424D01*
X571652Y71409D01*
X572118Y73750D01*
X571652Y76091D01*
X570326Y78076D01*
X568689Y79169D01*
X568629Y79371D01*
Y80379D01*
X568689Y80581D01*
X570326Y81674D01*
X571652Y83659D01*
X572118Y86000D01*
X571652Y88341D01*
X570326Y90326D01*
X568341Y91652D01*
X566000Y92118D01*
D02*
G37*
G36*
X219250Y77556D02*
X217553Y77333D01*
X215972Y76678D01*
X214614Y75636D01*
X213572Y74278D01*
X212917Y72697D01*
X212694Y71000D01*
X212917Y69303D01*
X213572Y67722D01*
X214614Y66364D01*
X215972Y65322D01*
X217553Y64667D01*
X219250Y64444D01*
X220947Y64667D01*
X222528Y65322D01*
X223886Y66364D01*
X224928Y67722D01*
X225583Y69303D01*
X225806Y71000D01*
X225583Y72697D01*
X224928Y74278D01*
X223886Y75636D01*
X222528Y76678D01*
X220947Y77333D01*
X219250Y77556D01*
D02*
G37*
G36*
X91750Y105056D02*
X90053Y104833D01*
X88472Y104178D01*
X87114Y103136D01*
X86072Y101778D01*
X85417Y100197D01*
X85194Y98500D01*
X85417Y96803D01*
X86072Y95222D01*
X86949Y94080D01*
X87046Y93375D01*
X86949Y92670D01*
X86072Y91528D01*
X85417Y89947D01*
X85194Y88250D01*
X85417Y86553D01*
X86072Y84972D01*
X87114Y83614D01*
X88472Y82572D01*
X90053Y81917D01*
X91750Y81694D01*
X93447Y81917D01*
X95028Y82572D01*
X96386Y83614D01*
X97428Y84972D01*
X98083Y86553D01*
X98306Y88250D01*
X98083Y89947D01*
X97428Y91528D01*
X96551Y92670D01*
X96454Y93375D01*
X96551Y94080D01*
X97428Y95222D01*
X98083Y96803D01*
X98306Y98500D01*
X98083Y100197D01*
X97428Y101778D01*
X96386Y103136D01*
X95028Y104178D01*
X93447Y104833D01*
X91750Y105056D01*
D02*
G37*
G36*
X394500Y72306D02*
X392803Y72083D01*
X391222Y71428D01*
X389864Y70386D01*
X388713Y70711D01*
X387778Y71428D01*
X386197Y72083D01*
X384500Y72306D01*
X382803Y72083D01*
X381222Y71428D01*
X379864Y70386D01*
X378822Y69028D01*
X378167Y67447D01*
X377944Y65750D01*
X378167Y64053D01*
X378822Y62472D01*
X379864Y61114D01*
X381222Y60072D01*
X382803Y59417D01*
X384500Y59194D01*
X386197Y59417D01*
X387778Y60072D01*
X388713Y60789D01*
X389864Y61114D01*
X391222Y60072D01*
X392803Y59417D01*
X394500Y59194D01*
X396197Y59417D01*
X397778Y60072D01*
X399136Y61114D01*
X400178Y62472D01*
X400833Y64053D01*
X401056Y65750D01*
X400833Y67447D01*
X400178Y69028D01*
X399136Y70386D01*
X397778Y71428D01*
X396197Y72083D01*
X394500Y72306D01*
D02*
G37*
G36*
X565750Y156310D02*
X535000D01*
X533173Y156070D01*
X531470Y155365D01*
X530008Y154242D01*
X514325Y138560D01*
X382750D01*
X380923Y138320D01*
X379220Y137614D01*
X377757Y136492D01*
X369325Y128060D01*
X296250D01*
X294423Y127820D01*
X292720Y127114D01*
X291258Y125992D01*
X271008Y105742D01*
X269886Y104280D01*
X269180Y102577D01*
X268940Y100750D01*
X269180Y98923D01*
X269886Y97220D01*
X271008Y95758D01*
X272470Y94635D01*
X274173Y93930D01*
X276000Y93690D01*
X277827Y93930D01*
X279530Y94635D01*
X280993Y95758D01*
X299175Y113940D01*
X359629D01*
X360060Y112670D01*
X359364Y112136D01*
X358322Y110778D01*
X357667Y109197D01*
X357444Y107500D01*
X357667Y105803D01*
X358322Y104222D01*
X359364Y102864D01*
X360722Y101822D01*
X362303Y101167D01*
X364000Y100944D01*
X365697Y101167D01*
X367278Y101822D01*
X368636Y102864D01*
X369678Y104222D01*
X370333Y105803D01*
X370556Y107500D01*
X370333Y109197D01*
X369678Y110778D01*
X368636Y112136D01*
X367940Y112670D01*
X368371Y113940D01*
X372250D01*
X374077Y114180D01*
X375780Y114886D01*
X377243Y116008D01*
X385675Y124440D01*
X517250D01*
X519077Y124680D01*
X520780Y125386D01*
X522242Y126508D01*
X537924Y142190D01*
X560390D01*
X561069Y140920D01*
X560348Y139841D01*
X559882Y137500D01*
X560348Y135159D01*
X560863Y134388D01*
X560185Y133118D01*
X543750D01*
X541409Y132652D01*
X539424Y131326D01*
X529216Y121117D01*
X514000D01*
X511659Y120652D01*
X509674Y119326D01*
X464674Y74326D01*
X463348Y72341D01*
X462882Y70000D01*
Y58034D01*
X400216Y-4633D01*
X356980D01*
X356385Y-3363D01*
X357402Y-1841D01*
X357868Y500D01*
X357402Y2841D01*
X356076Y4826D01*
X354091Y6152D01*
X351750Y6618D01*
X349409Y6152D01*
X347424Y4826D01*
X346098Y2841D01*
X345633Y500D01*
X346098Y-1841D01*
X347115Y-3363D01*
X346520Y-4633D01*
X207034D01*
X204259Y-1858D01*
X204853Y-655D01*
X206000Y-806D01*
X207697Y-583D01*
X209278Y72D01*
X210636Y1114D01*
X211678Y2472D01*
X212333Y4053D01*
X212556Y5750D01*
X212333Y7447D01*
X211678Y9028D01*
X210636Y10386D01*
X209278Y11428D01*
X207697Y12083D01*
X206000Y12306D01*
X204303Y12083D01*
X202722Y11428D01*
X201364Y10386D01*
X200322Y9028D01*
X199667Y7447D01*
X199444Y5750D01*
X199595Y4603D01*
X198392Y4009D01*
X195368Y7034D01*
Y81466D01*
X208759Y94857D01*
X209278Y95072D01*
X210636Y96114D01*
X211678Y97472D01*
X212333Y99053D01*
X212556Y100750D01*
X212333Y102447D01*
X211678Y104028D01*
X210636Y105386D01*
X209278Y106428D01*
X207697Y107083D01*
X206000Y107306D01*
X204303Y107083D01*
X202722Y106428D01*
X201364Y105386D01*
X200322Y104028D01*
X200107Y103509D01*
X184924Y88326D01*
X183598Y86341D01*
X183132Y84000D01*
Y4500D01*
X183598Y2159D01*
X184924Y174D01*
X200174Y-15076D01*
X202159Y-16402D01*
X204500Y-16868D01*
X402750D01*
X405091Y-16402D01*
X407076Y-15076D01*
X473326Y51174D01*
X474652Y53159D01*
X475117Y55500D01*
Y67466D01*
X516534Y108883D01*
X531750D01*
X534091Y109348D01*
X536076Y110674D01*
X546284Y120883D01*
X564034D01*
X564553Y120667D01*
X566250Y120444D01*
X567947Y120667D01*
X569528Y121322D01*
X570886Y122364D01*
X571928Y123722D01*
X572583Y125303D01*
X572806Y127000D01*
X572583Y128697D01*
X571928Y130278D01*
X570886Y131636D01*
X570290Y132093D01*
X570326Y133174D01*
X571652Y135159D01*
X572118Y137500D01*
X571652Y139841D01*
X570326Y141826D01*
X569925Y142094D01*
X569919Y143625D01*
X570742Y144257D01*
X571865Y145720D01*
X572570Y147423D01*
X572810Y149250D01*
X572570Y151077D01*
X571865Y152780D01*
X570742Y154242D01*
X569280Y155365D01*
X567577Y156070D01*
X565750Y156310D01*
D02*
G37*
G36*
X219250Y174806D02*
X217553Y174583D01*
X215972Y173928D01*
X214614Y172886D01*
X213572Y171528D01*
X212917Y169947D01*
X212694Y168250D01*
X212917Y166553D01*
X213572Y164972D01*
X214614Y163614D01*
X215972Y162572D01*
X217553Y161917D01*
X219250Y161694D01*
X220947Y161917D01*
X222528Y162572D01*
X223886Y163614D01*
X224928Y164972D01*
X225583Y166553D01*
X225806Y168250D01*
X225583Y169947D01*
X224928Y171528D01*
X223886Y172886D01*
X222528Y173928D01*
X220947Y174583D01*
X219250Y174806D01*
D02*
G37*
G36*
X161000Y173617D02*
X158659Y173152D01*
X156674Y171826D01*
X155348Y169841D01*
X154882Y167500D01*
X155348Y165159D01*
X156674Y163174D01*
X158659Y161848D01*
X161000Y161383D01*
X163341Y161848D01*
X165326Y163174D01*
X166652Y165159D01*
X167118Y167500D01*
X166652Y169841D01*
X165326Y171826D01*
X163341Y173152D01*
X161000Y173617D01*
D02*
G37*
G36*
X541500Y187868D02*
X539159Y187402D01*
X537174Y186076D01*
X535848Y184091D01*
X535382Y181750D01*
X535848Y179409D01*
X537174Y177424D01*
X539159Y176098D01*
X541500Y175632D01*
X543841Y176098D01*
X545826Y177424D01*
X547152Y179409D01*
X547617Y181750D01*
X547152Y184091D01*
X545826Y186076D01*
X543841Y187402D01*
X541500Y187868D01*
D02*
G37*
G36*
X348250Y176056D02*
X346553Y175833D01*
X344972Y175178D01*
X343614Y174136D01*
X342572Y172778D01*
X341917Y171197D01*
X341694Y169500D01*
X341917Y167803D01*
X342572Y166222D01*
X343614Y164864D01*
X344972Y163822D01*
X346553Y163167D01*
X348250Y162944D01*
X349947Y163167D01*
X351528Y163822D01*
X352886Y164864D01*
X353928Y166222D01*
X354583Y167803D01*
X354806Y169500D01*
X354583Y171197D01*
X353928Y172778D01*
X352886Y174136D01*
X351528Y175178D01*
X349947Y175833D01*
X348250Y176056D01*
D02*
G37*
G36*
X-11750Y182868D02*
X-14091Y182402D01*
X-16076Y181076D01*
X-17402Y179091D01*
X-17867Y176750D01*
X-17402Y174409D01*
X-16076Y172424D01*
X-14091Y171098D01*
X-11956Y170673D01*
X-11424Y169958D01*
X-11180Y169451D01*
X-11617Y167250D01*
X-11152Y164909D01*
X-9826Y162924D01*
X-7841Y161598D01*
X-5500Y161133D01*
X-3159Y161598D01*
X-1174Y162924D01*
X152Y164909D01*
X618Y167250D01*
X152Y169591D01*
X-1174Y171576D01*
X-3159Y172902D01*
X-5294Y173327D01*
X-5826Y174042D01*
X-6070Y174549D01*
X-5632Y176750D01*
X-6098Y179091D01*
X-7424Y181076D01*
X-9409Y182402D01*
X-11750Y182868D01*
D02*
G37*
G36*
X27000Y163019D02*
X24925Y162745D01*
X22991Y161944D01*
X21330Y160670D01*
X20056Y159009D01*
X19255Y157075D01*
X18981Y155000D01*
X19255Y152925D01*
X20056Y150991D01*
X21330Y149330D01*
X22991Y148056D01*
X24925Y147255D01*
X27000Y146981D01*
X29075Y147255D01*
X31009Y148056D01*
X32670Y149330D01*
X33944Y150991D01*
X34745Y152925D01*
X35019Y155000D01*
X34745Y157075D01*
X33944Y159009D01*
X32670Y160670D01*
X31009Y161944D01*
X29075Y162745D01*
X27000Y163019D01*
D02*
G37*
G36*
X215750Y158806D02*
X214053Y158583D01*
X212472Y157928D01*
X211114Y156886D01*
X210072Y155528D01*
X209417Y153947D01*
X209194Y152250D01*
X209417Y150553D01*
X210072Y148972D01*
X211114Y147614D01*
X212472Y146572D01*
X214053Y145917D01*
X215750Y145694D01*
X217447Y145917D01*
X219028Y146572D01*
X220386Y147614D01*
X221428Y148972D01*
X222083Y150553D01*
X222306Y152250D01*
X222083Y153947D01*
X221428Y155528D01*
X220386Y156886D01*
X219028Y157928D01*
X217447Y158583D01*
X215750Y158806D01*
D02*
G37*
G36*
X525000Y194618D02*
X522659Y194152D01*
X520674Y192826D01*
X519348Y190841D01*
X518882Y188500D01*
X519348Y186159D01*
X520674Y184174D01*
X522659Y182848D01*
X523039Y182773D01*
Y181478D01*
X522659Y181402D01*
X520674Y180076D01*
X519348Y178091D01*
X518882Y175750D01*
X519348Y173409D01*
X520674Y171424D01*
X522343Y170310D01*
X522384Y169172D01*
X522309Y168921D01*
X521722Y168678D01*
X520364Y167636D01*
X519322Y166278D01*
X518667Y164697D01*
X518444Y163000D01*
X518667Y161303D01*
X519322Y159722D01*
X520364Y158364D01*
X521722Y157322D01*
X523303Y156667D01*
X525000Y156444D01*
X526697Y156667D01*
X528278Y157322D01*
X529636Y158364D01*
X530678Y159722D01*
X531333Y161303D01*
X531556Y163000D01*
X531333Y164697D01*
X530678Y166278D01*
X529636Y167636D01*
X528278Y168678D01*
X527691Y168921D01*
X527616Y169172D01*
X527657Y170310D01*
X529326Y171424D01*
X530652Y173409D01*
X531118Y175750D01*
X530652Y178091D01*
X529326Y180076D01*
X527341Y181402D01*
X526961Y181478D01*
Y182773D01*
X527341Y182848D01*
X529326Y184174D01*
X530652Y186159D01*
X531118Y188500D01*
X530652Y190841D01*
X529326Y192826D01*
X527341Y194152D01*
X525000Y194618D01*
D02*
G37*
G36*
X476750Y162367D02*
X474409Y161902D01*
X472424Y160576D01*
X471098Y158591D01*
X470633Y156250D01*
X471098Y153909D01*
X472424Y151924D01*
X474409Y150598D01*
X476750Y150133D01*
X479091Y150598D01*
X481076Y151924D01*
X482402Y153909D01*
X482868Y156250D01*
X482402Y158591D01*
X481076Y160576D01*
X479091Y161902D01*
X476750Y162367D01*
D02*
G37*
G36*
X286500Y27617D02*
X284159Y27152D01*
X282174Y25826D01*
X280848Y23841D01*
X280382Y21500D01*
X280848Y19159D01*
X282174Y17174D01*
X284159Y15848D01*
X286500Y15382D01*
X288841Y15848D01*
X290826Y17174D01*
X292152Y19159D01*
X292618Y21500D01*
X292152Y23841D01*
X290826Y25826D01*
X288841Y27152D01*
X286500Y27617D01*
D02*
G37*
G36*
X471000Y26118D02*
X468659Y25652D01*
X466674Y24326D01*
X465348Y22341D01*
X464883Y20000D01*
X465348Y17659D01*
X466674Y15674D01*
X468659Y14348D01*
X471000Y13882D01*
X473341Y14348D01*
X475326Y15674D01*
X476652Y17659D01*
X477118Y20000D01*
X476652Y22341D01*
X475326Y24326D01*
X473341Y25652D01*
X471000Y26118D01*
D02*
G37*
G36*
X291750Y46556D02*
X290053Y46333D01*
X288472Y45678D01*
X287114Y44636D01*
X286072Y43278D01*
X285417Y41697D01*
X285194Y40000D01*
X285417Y38303D01*
X286072Y36722D01*
X287114Y35364D01*
X288472Y34322D01*
X290053Y33667D01*
X291750Y33444D01*
X293447Y33667D01*
X295028Y34322D01*
X296386Y35364D01*
X297428Y36722D01*
X298083Y38303D01*
X298306Y40000D01*
X298083Y41697D01*
X297428Y43278D01*
X296386Y44636D01*
X295028Y45678D01*
X293447Y46333D01*
X291750Y46556D01*
D02*
G37*
G36*
X39250Y32118D02*
X36909Y31652D01*
X34924Y30326D01*
X33598Y28341D01*
X33133Y26000D01*
X33598Y23659D01*
X34924Y21674D01*
X36909Y20348D01*
X39250Y19883D01*
X41591Y20348D01*
X43576Y21674D01*
X44902Y23659D01*
X45367Y26000D01*
X44902Y28341D01*
X43576Y30326D01*
X41591Y31652D01*
X39250Y32118D01*
D02*
G37*
G36*
X276000Y12306D02*
X274303Y12083D01*
X272722Y11428D01*
X271364Y10386D01*
X270322Y9028D01*
X269667Y7447D01*
X269444Y5750D01*
X269667Y4053D01*
X270322Y2472D01*
X271364Y1114D01*
X272722Y72D01*
X274303Y-583D01*
X276000Y-806D01*
X277697Y-583D01*
X279278Y72D01*
X280284Y844D01*
X281424Y1424D01*
X283409Y98D01*
X285750Y-367D01*
X288091Y98D01*
X290076Y1424D01*
X291402Y3409D01*
X291868Y5750D01*
X291402Y8091D01*
X290076Y10076D01*
X288091Y11402D01*
X285750Y11868D01*
X283409Y11402D01*
X281424Y10076D01*
X280284Y10656D01*
X279278Y11428D01*
X277697Y12083D01*
X276000Y12306D01*
D02*
G37*
G36*
X514000Y-132D02*
X511659Y-598D01*
X509674Y-1924D01*
X508348Y-3909D01*
X507882Y-6250D01*
X508348Y-8591D01*
X509674Y-10576D01*
X511659Y-11902D01*
X514000Y-12368D01*
X516341Y-11902D01*
X518326Y-10576D01*
X519652Y-8591D01*
X520117Y-6250D01*
X519652Y-3909D01*
X518326Y-1924D01*
X516341Y-598D01*
X514000Y-132D01*
D02*
G37*
G36*
X59250Y-2132D02*
X56909Y-2598D01*
X54924Y-3924D01*
X53598Y-5909D01*
X53133Y-8250D01*
X53598Y-10591D01*
X54924Y-12576D01*
X56909Y-13902D01*
X59250Y-14368D01*
X61591Y-13902D01*
X63576Y-12576D01*
X64902Y-10591D01*
X65367Y-8250D01*
X64902Y-5909D01*
X63576Y-3924D01*
X61591Y-2598D01*
X59250Y-2132D01*
D02*
G37*
G36*
X233250Y12306D02*
X231553Y12083D01*
X229972Y11428D01*
X228614Y10386D01*
X227572Y9028D01*
X226917Y7447D01*
X226694Y5750D01*
X226917Y4053D01*
X227572Y2472D01*
X228614Y1114D01*
X229972Y72D01*
X231553Y-583D01*
X233250Y-806D01*
X234947Y-583D01*
X236528Y72D01*
X237886Y1114D01*
X238928Y2472D01*
X239583Y4053D01*
X239806Y5750D01*
X239583Y7447D01*
X238928Y9028D01*
X237886Y10386D01*
X236528Y11428D01*
X234947Y12083D01*
X233250Y12306D01*
D02*
G37*
G36*
X163250D02*
X161553Y12083D01*
X159972Y11428D01*
X158614Y10386D01*
X157572Y9028D01*
X156917Y7447D01*
X156694Y5750D01*
X156917Y4053D01*
X157572Y2472D01*
X158614Y1114D01*
X159972Y72D01*
X161553Y-583D01*
X163250Y-806D01*
X164947Y-583D01*
X166528Y72D01*
X167886Y1114D01*
X168928Y2472D01*
X169583Y4053D01*
X169806Y5750D01*
X169583Y7447D01*
X168928Y9028D01*
X167886Y10386D01*
X166528Y11428D01*
X164947Y12083D01*
X163250Y12306D01*
D02*
G37*
G36*
X-12250Y48368D02*
X-14591Y47902D01*
X-16576Y46576D01*
X-17902Y44591D01*
X-18368Y42250D01*
X-17902Y39909D01*
X-16576Y37924D01*
X-14591Y36598D01*
X-12250Y36133D01*
X-9909Y36598D01*
X-7924Y37924D01*
X-7718Y38232D01*
X-6449D01*
X-6076Y37674D01*
X-4091Y36348D01*
X-1750Y35882D01*
X591Y36348D01*
X2576Y37674D01*
X3902Y39659D01*
X4367Y42000D01*
X3902Y44341D01*
X2576Y46326D01*
X591Y47652D01*
X-1750Y48117D01*
X-4091Y47652D01*
X-6076Y46326D01*
X-6281Y46018D01*
X-7552D01*
X-7924Y46576D01*
X-9909Y47902D01*
X-12250Y48368D01*
D02*
G37*
G36*
X508250Y72306D02*
X506553Y72083D01*
X504972Y71428D01*
X503614Y70386D01*
X502572Y69028D01*
X501917Y67447D01*
X501694Y65750D01*
X501917Y64053D01*
X502572Y62472D01*
X503614Y61114D01*
X504972Y60072D01*
X506553Y59417D01*
X508250Y59194D01*
X509947Y59417D01*
X511528Y60072D01*
X512886Y61114D01*
X513928Y62472D01*
X514583Y64053D01*
X514806Y65750D01*
X514583Y67447D01*
X513928Y69028D01*
X512886Y70386D01*
X511528Y71428D01*
X509947Y72083D01*
X508250Y72306D01*
D02*
G37*
G36*
X27000Y73019D02*
X24925Y72745D01*
X22991Y71944D01*
X21330Y70670D01*
X20056Y69009D01*
X19255Y67075D01*
X18981Y65000D01*
X19255Y62925D01*
X20056Y60991D01*
X21330Y59330D01*
X22991Y58056D01*
X24925Y57255D01*
X27000Y56981D01*
X29075Y57255D01*
X31009Y58056D01*
X32670Y59330D01*
X33944Y60991D01*
X34745Y62925D01*
X35019Y65000D01*
X34745Y67075D01*
X33944Y69009D01*
X32670Y70670D01*
X31009Y71944D01*
X29075Y72745D01*
X27000Y73019D01*
D02*
G37*
G36*
X141500Y87618D02*
X139159Y87152D01*
X137174Y85826D01*
X135848Y83841D01*
X135382Y81500D01*
X135848Y79159D01*
X137174Y77174D01*
X138168Y76510D01*
Y75240D01*
X137174Y74576D01*
X135848Y72591D01*
X135382Y70250D01*
X135848Y67909D01*
X137174Y65924D01*
X139159Y64598D01*
X141500Y64132D01*
X143841Y64598D01*
X145826Y65924D01*
X147152Y67909D01*
X147618Y70250D01*
X147152Y72591D01*
X145826Y74576D01*
X144832Y75240D01*
Y76510D01*
X145826Y77174D01*
X147152Y79159D01*
X147618Y81500D01*
X147152Y83841D01*
X145826Y85826D01*
X143841Y87152D01*
X141500Y87618D01*
D02*
G37*
G36*
X91250Y75617D02*
X88909Y75152D01*
X86924Y73826D01*
X85598Y71841D01*
X85133Y69500D01*
X85598Y67159D01*
X86924Y65174D01*
X88909Y63848D01*
X91250Y63382D01*
X93591Y63848D01*
X95576Y65174D01*
X96902Y67159D01*
X97367Y69500D01*
X96902Y71841D01*
X95576Y73826D01*
X93591Y75152D01*
X91250Y75617D01*
D02*
G37*
G36*
X575750Y68117D02*
X573409Y67652D01*
X571424Y66326D01*
X570098Y64341D01*
X569632Y62000D01*
X570098Y59659D01*
X571424Y57674D01*
X573409Y56348D01*
X575750Y55883D01*
X578091Y56348D01*
X580076Y57674D01*
X581402Y59659D01*
X581867Y62000D01*
X581402Y64341D01*
X580076Y66326D01*
X578091Y67652D01*
X575750Y68117D01*
D02*
G37*
G36*
X536950Y64032D02*
X534470Y63706D01*
X532159Y62748D01*
X530174Y61226D01*
X528652Y59241D01*
X527695Y56930D01*
X527368Y54450D01*
X527695Y51970D01*
X528652Y49659D01*
X530174Y47675D01*
X532159Y46152D01*
X534470Y45195D01*
X536950Y44868D01*
X539430Y45195D01*
X541741Y46152D01*
X543725Y47675D01*
X545248Y49659D01*
X546205Y51970D01*
X546532Y54450D01*
X546205Y56930D01*
X545248Y59241D01*
X543725Y61226D01*
X541741Y62748D01*
X539430Y63706D01*
X536950Y64032D01*
D02*
G37*
G36*
X347500Y51306D02*
X345803Y51083D01*
X344222Y50428D01*
X342864Y49386D01*
X341822Y48028D01*
X341167Y46447D01*
X340944Y44750D01*
X341167Y43053D01*
X341822Y41472D01*
X342864Y40114D01*
X344222Y39072D01*
X345803Y38417D01*
X347500Y38194D01*
X349197Y38417D01*
X350778Y39072D01*
X352136Y40114D01*
X353178Y41472D01*
X353833Y43053D01*
X354056Y44750D01*
X353833Y46447D01*
X353178Y48028D01*
X352136Y49386D01*
X350778Y50428D01*
X349197Y51083D01*
X347500Y51306D01*
D02*
G37*
G36*
Y67368D02*
X345159Y66902D01*
X343174Y65576D01*
X341848Y63591D01*
X341382Y61250D01*
X341848Y58909D01*
X343174Y56924D01*
X345159Y55598D01*
X347500Y55132D01*
X349841Y55598D01*
X351826Y56924D01*
X353152Y58909D01*
X353618Y61250D01*
X353152Y63591D01*
X351826Y65576D01*
X349841Y66902D01*
X347500Y67368D01*
D02*
G37*
G36*
X559550Y64032D02*
X557070Y63706D01*
X554759Y62748D01*
X552775Y61226D01*
X551252Y59241D01*
X550294Y56930D01*
X549968Y54450D01*
X550294Y51970D01*
X551252Y49659D01*
X552775Y47675D01*
X554759Y46152D01*
X557070Y45195D01*
X559550Y44868D01*
X562030Y45195D01*
X564341Y46152D01*
X566325Y47675D01*
X567848Y49659D01*
X568805Y51970D01*
X569132Y54450D01*
X568805Y56930D01*
X567848Y59241D01*
X566325Y61226D01*
X564341Y62748D01*
X562030Y63706D01*
X559550Y64032D01*
D02*
G37*
G36*
X206750Y297556D02*
X205053Y297333D01*
X203472Y296678D01*
X202114Y295636D01*
X201072Y294278D01*
X200417Y292697D01*
X200194Y291000D01*
X200417Y289303D01*
X201072Y287722D01*
X202114Y286364D01*
X203472Y285322D01*
X205053Y284667D01*
X206750Y284444D01*
X208447Y284667D01*
X210028Y285322D01*
X211386Y286364D01*
X212428Y287722D01*
X213083Y289303D01*
X213306Y291000D01*
X213083Y292697D01*
X212428Y294278D01*
X211386Y295636D01*
X210028Y296678D01*
X208447Y297333D01*
X206750Y297556D01*
D02*
G37*
G36*
X277250Y297056D02*
X275553Y296833D01*
X273972Y296178D01*
X272614Y295136D01*
X271572Y293778D01*
X270917Y292197D01*
X270694Y290500D01*
X270917Y288803D01*
X271572Y287222D01*
X272614Y285864D01*
X273972Y284822D01*
X275553Y284167D01*
X277250Y283944D01*
X278947Y284167D01*
X280528Y284822D01*
X281534Y285594D01*
X282674Y286174D01*
X284659Y284848D01*
X287000Y284382D01*
X289341Y284848D01*
X291326Y286174D01*
X292652Y288159D01*
X293118Y290500D01*
X292652Y292841D01*
X291326Y294826D01*
X289341Y296152D01*
X287000Y296618D01*
X284659Y296152D01*
X282674Y294826D01*
X281534Y295406D01*
X280528Y296178D01*
X278947Y296833D01*
X277250Y297056D01*
D02*
G37*
G36*
X552750Y312367D02*
X550409Y311902D01*
X548424Y310576D01*
X547098Y308591D01*
X546632Y306250D01*
X547098Y303909D01*
X548424Y301924D01*
X550409Y300598D01*
X552750Y300133D01*
X555091Y300598D01*
X557076Y301924D01*
X558402Y303909D01*
X558867Y306250D01*
X558402Y308591D01*
X557076Y310576D01*
X555091Y311902D01*
X552750Y312367D01*
D02*
G37*
G36*
X217000D02*
X214659Y311902D01*
X212674Y310576D01*
X211348Y308591D01*
X210882Y306250D01*
X211348Y303909D01*
X212674Y301924D01*
X214659Y300598D01*
X217000Y300133D01*
X219341Y300598D01*
X221326Y301924D01*
X222652Y303909D01*
X223118Y306250D01*
X222652Y308591D01*
X221326Y310576D01*
X219341Y311902D01*
X217000Y312367D01*
D02*
G37*
G36*
X233250Y297306D02*
X231553Y297083D01*
X229972Y296428D01*
X228614Y295386D01*
X227572Y294028D01*
X226917Y292447D01*
X226694Y290750D01*
X226917Y289053D01*
X227572Y287472D01*
X228614Y286114D01*
X229972Y285072D01*
X231553Y284417D01*
X233250Y284194D01*
X234947Y284417D01*
X236528Y285072D01*
X237886Y286114D01*
X238928Y287472D01*
X239583Y289053D01*
X239806Y290750D01*
X239583Y292447D01*
X238928Y294028D01*
X237886Y295386D01*
X236528Y296428D01*
X234947Y297083D01*
X233250Y297306D01*
D02*
G37*
G36*
X98250D02*
X96553Y297083D01*
X94972Y296428D01*
X93614Y295386D01*
X92572Y294028D01*
X91917Y292447D01*
X91694Y290750D01*
X91917Y289053D01*
X92572Y287472D01*
X93614Y286114D01*
X94972Y285072D01*
X96553Y284417D01*
X98250Y284194D01*
X99947Y284417D01*
X101528Y285072D01*
X102886Y286114D01*
X103928Y287472D01*
X104583Y289053D01*
X104806Y290750D01*
X104583Y292447D01*
X103928Y294028D01*
X102886Y295386D01*
X101528Y296428D01*
X99947Y297083D01*
X98250Y297306D01*
D02*
G37*
G36*
X559550Y293832D02*
X557070Y293505D01*
X554759Y292548D01*
X552775Y291026D01*
X551252Y289041D01*
X550294Y286730D01*
X549968Y284250D01*
X550294Y281770D01*
X551252Y279459D01*
X552775Y277475D01*
X554759Y275952D01*
X557070Y274995D01*
X559550Y274668D01*
X562030Y274995D01*
X564341Y275952D01*
X566325Y277475D01*
X567848Y279459D01*
X568805Y281770D01*
X568961Y282952D01*
X570283Y283260D01*
X570674Y282674D01*
X572659Y281348D01*
X575000Y280882D01*
X577341Y281348D01*
X579326Y282674D01*
X580652Y284659D01*
X581118Y287000D01*
X580652Y289341D01*
X579326Y291326D01*
X577341Y292652D01*
X575000Y293118D01*
X572659Y292652D01*
X570674Y291326D01*
X569348Y289341D01*
X569267Y288934D01*
X567946Y288804D01*
X567848Y289041D01*
X566325Y291026D01*
X564341Y292548D01*
X562030Y293505D01*
X559550Y293832D01*
D02*
G37*
G36*
X163250Y297306D02*
X161553Y297083D01*
X159972Y296428D01*
X158614Y295386D01*
X157572Y294028D01*
X156917Y292447D01*
X156694Y290750D01*
X156917Y289053D01*
X157572Y287472D01*
X158614Y286114D01*
X159972Y285072D01*
X161553Y284417D01*
X163250Y284194D01*
X164947Y284417D01*
X166528Y285072D01*
X167886Y286114D01*
X168928Y287472D01*
X169583Y289053D01*
X169806Y290750D01*
X169583Y292447D01*
X168928Y294028D01*
X167886Y295386D01*
X166528Y296428D01*
X164947Y297083D01*
X163250Y297306D01*
D02*
G37*
G36*
X141750D02*
X140053Y297083D01*
X138472Y296428D01*
X137114Y295386D01*
X136072Y294028D01*
X135417Y292447D01*
X135194Y290750D01*
X135417Y289053D01*
X136072Y287472D01*
X137114Y286114D01*
X138472Y285072D01*
X140053Y284417D01*
X141750Y284194D01*
X143447Y284417D01*
X145028Y285072D01*
X146386Y286114D01*
X147428Y287472D01*
X148083Y289053D01*
X148306Y290750D01*
X148083Y292447D01*
X147428Y294028D01*
X146386Y295386D01*
X145028Y296428D01*
X143447Y297083D01*
X141750Y297306D01*
D02*
G37*
G36*
X25500Y313368D02*
X23159Y312902D01*
X21174Y311576D01*
X19848Y309591D01*
X19382Y307250D01*
X19848Y304909D01*
X21174Y302924D01*
X23159Y301598D01*
X25500Y301133D01*
X27841Y301598D01*
X29826Y302924D01*
X31152Y304909D01*
X31618Y307250D01*
X31152Y309591D01*
X29826Y311576D01*
X27841Y312902D01*
X25500Y313368D01*
D02*
G37*
G36*
X216500Y350056D02*
X214803Y349833D01*
X213222Y349178D01*
X211864Y348136D01*
X210822Y346778D01*
X210167Y345197D01*
X209944Y343500D01*
X210167Y341803D01*
X210822Y340222D01*
X211864Y338864D01*
X213222Y337822D01*
X214149Y337438D01*
X214298Y337220D01*
X214555Y336032D01*
X214541Y335964D01*
X213822Y335028D01*
X213167Y333447D01*
X212944Y331750D01*
X213167Y330053D01*
X213822Y328472D01*
X214864Y327114D01*
X216222Y326072D01*
X217803Y325417D01*
X219500Y325194D01*
X221197Y325417D01*
X222778Y326072D01*
X224136Y327114D01*
X225178Y328472D01*
X225833Y330053D01*
X226056Y331750D01*
X225833Y333447D01*
X225178Y335028D01*
X224136Y336386D01*
X222778Y337428D01*
X221851Y337812D01*
X221702Y338031D01*
X221445Y339218D01*
X221460Y339286D01*
X222178Y340222D01*
X222833Y341803D01*
X223056Y343500D01*
X222833Y345197D01*
X222178Y346778D01*
X221136Y348136D01*
X219778Y349178D01*
X218197Y349833D01*
X216500Y350056D01*
D02*
G37*
G36*
X77750Y334367D02*
X75409Y333902D01*
X73424Y332576D01*
X72098Y330591D01*
X71632Y328250D01*
X72098Y325909D01*
X73424Y323924D01*
X75409Y322598D01*
X77750Y322132D01*
X80091Y322598D01*
X82076Y323924D01*
X83402Y325909D01*
X83868Y328250D01*
X83402Y330591D01*
X82076Y332576D01*
X80091Y333902D01*
X77750Y334367D01*
D02*
G37*
G36*
X287750Y349556D02*
X286053Y349333D01*
X284472Y348678D01*
X283114Y347636D01*
X282072Y346278D01*
X281417Y344697D01*
X281194Y343000D01*
X281417Y341303D01*
X282072Y339722D01*
X283114Y338364D01*
X284472Y337322D01*
X286053Y336667D01*
X287750Y336444D01*
X289447Y336667D01*
X291028Y337322D01*
X292386Y338364D01*
X293428Y339722D01*
X294083Y341303D01*
X294306Y343000D01*
X294083Y344697D01*
X293428Y346278D01*
X292386Y347636D01*
X291028Y348678D01*
X289447Y349333D01*
X287750Y349556D01*
D02*
G37*
G36*
X340250Y342556D02*
X338553Y342333D01*
X336972Y341678D01*
X335614Y340636D01*
X334572Y339278D01*
X333917Y337697D01*
X333694Y336000D01*
X333917Y334303D01*
X334572Y332722D01*
X335614Y331364D01*
X336972Y330322D01*
X338553Y329667D01*
X340250Y329444D01*
X341947Y329667D01*
X343528Y330322D01*
X344886Y331364D01*
X345928Y332722D01*
X346583Y334303D01*
X346806Y336000D01*
X346583Y337697D01*
X345928Y339278D01*
X344886Y340636D01*
X343528Y341678D01*
X341947Y342333D01*
X340250Y342556D01*
D02*
G37*
G36*
X394500Y322306D02*
X392803Y322083D01*
X391222Y321428D01*
X389873Y320392D01*
X389639Y320386D01*
X388861D01*
X388627Y320392D01*
X387278Y321428D01*
X385697Y322083D01*
X384000Y322306D01*
X382303Y322083D01*
X380722Y321428D01*
X379364Y320386D01*
X378322Y319028D01*
X377667Y317447D01*
X377444Y315750D01*
X377667Y314053D01*
X378322Y312472D01*
X379364Y311114D01*
X380722Y310072D01*
X382303Y309417D01*
X384000Y309194D01*
X385697Y309417D01*
X387278Y310072D01*
X388627Y311108D01*
X388861Y311114D01*
X389639D01*
X389873Y311108D01*
X391222Y310072D01*
X392803Y309417D01*
X394500Y309194D01*
X396197Y309417D01*
X397778Y310072D01*
X399136Y311114D01*
X400178Y312472D01*
X400833Y314053D01*
X401056Y315750D01*
X400833Y317447D01*
X400178Y319028D01*
X399136Y320386D01*
X397778Y321428D01*
X396197Y322083D01*
X394500Y322306D01*
D02*
G37*
G36*
X538500Y312367D02*
X536159Y311902D01*
X534174Y310576D01*
X533885Y310143D01*
X532615D01*
X532326Y310576D01*
X530341Y311902D01*
X528000Y312367D01*
X525659Y311902D01*
X523674Y310576D01*
X522348Y308591D01*
X521883Y306250D01*
X522348Y303909D01*
X523674Y301924D01*
X525659Y300598D01*
X528000Y300133D01*
X530341Y300598D01*
X532326Y301924D01*
X532615Y302357D01*
X533885D01*
X534174Y301924D01*
X536159Y300598D01*
X538500Y300133D01*
X540841Y300598D01*
X542826Y301924D01*
X544152Y303909D01*
X544618Y306250D01*
X544152Y308591D01*
X542826Y310576D01*
X540841Y311902D01*
X538500Y312367D01*
D02*
G37*
G36*
X73500Y321618D02*
X71159Y321152D01*
X69174Y319826D01*
X67848Y317841D01*
X67382Y315500D01*
X67848Y313159D01*
X69174Y311174D01*
X71159Y309848D01*
X73500Y309382D01*
X75841Y309848D01*
X77826Y311174D01*
X79152Y313159D01*
X79618Y315500D01*
X79152Y317841D01*
X77826Y319826D01*
X75841Y321152D01*
X73500Y321618D01*
D02*
G37*
G36*
X291750Y325806D02*
X290053Y325583D01*
X288472Y324928D01*
X287114Y323886D01*
X286072Y322528D01*
X285417Y320947D01*
X285194Y319250D01*
X285417Y317553D01*
X286072Y315972D01*
X287114Y314614D01*
X288472Y313572D01*
X290053Y312917D01*
X291750Y312694D01*
X293447Y312917D01*
X295028Y313572D01*
X296386Y314614D01*
X297428Y315972D01*
X298083Y317553D01*
X298306Y319250D01*
X298083Y320947D01*
X297428Y322528D01*
X296386Y323886D01*
X295028Y324928D01*
X293447Y325583D01*
X291750Y325806D01*
D02*
G37*
G36*
X62250Y313118D02*
X59909Y312652D01*
X57924Y311326D01*
X57635Y310893D01*
X56365D01*
X56076Y311326D01*
X54091Y312652D01*
X51750Y313118D01*
X49409Y312652D01*
X47424Y311326D01*
X47052Y310768D01*
X45781D01*
X45576Y311076D01*
X43591Y312402D01*
X41250Y312868D01*
X38909Y312402D01*
X36924Y311076D01*
X35598Y309091D01*
X35133Y306750D01*
X35598Y304409D01*
X36924Y302424D01*
X38909Y301098D01*
X41250Y300632D01*
X43591Y301098D01*
X45576Y302424D01*
X45949Y302982D01*
X47218D01*
X47424Y302674D01*
X49409Y301348D01*
X51750Y300882D01*
X54091Y301348D01*
X56076Y302674D01*
X56365Y303107D01*
X57635D01*
X57924Y302674D01*
X59909Y301348D01*
X62250Y300882D01*
X64591Y301348D01*
X66576Y302674D01*
X67902Y304659D01*
X68368Y307000D01*
X67902Y309341D01*
X66576Y311326D01*
X64591Y312652D01*
X62250Y313118D01*
D02*
G37*
G36*
X27000Y208019D02*
X24925Y207745D01*
X22991Y206944D01*
X21330Y205670D01*
X20056Y204009D01*
X19255Y202075D01*
X18981Y200000D01*
X19255Y197925D01*
X20056Y195991D01*
X21330Y194330D01*
X22991Y193056D01*
X24925Y192255D01*
X27000Y191981D01*
X29075Y192255D01*
X31009Y193056D01*
X32670Y194330D01*
X33944Y195991D01*
X34745Y197925D01*
X35019Y200000D01*
X34745Y202075D01*
X33944Y204009D01*
X32670Y205670D01*
X31009Y206944D01*
X29075Y207745D01*
X27000Y208019D01*
D02*
G37*
G36*
X233250Y202306D02*
X231553Y202083D01*
X229972Y201428D01*
X228614Y200386D01*
X227572Y199028D01*
X226917Y197447D01*
X226694Y195750D01*
X226917Y194053D01*
X227572Y192472D01*
X228614Y191114D01*
X229972Y190072D01*
X231553Y189417D01*
X233250Y189194D01*
X234947Y189417D01*
X236528Y190072D01*
X237886Y191114D01*
X238928Y192472D01*
X239583Y194053D01*
X239806Y195750D01*
X239583Y197447D01*
X238928Y199028D01*
X237886Y200386D01*
X236528Y201428D01*
X234947Y202083D01*
X233250Y202306D01*
D02*
G37*
G36*
X320250Y237306D02*
X318553Y237083D01*
X316972Y236428D01*
X315614Y235386D01*
X314572Y234028D01*
X313917Y232447D01*
X313694Y230750D01*
X313917Y229053D01*
X314572Y227472D01*
X315614Y226114D01*
X316972Y225072D01*
X318553Y224417D01*
X320250Y224194D01*
X321947Y224417D01*
X323528Y225072D01*
X324886Y226114D01*
X325928Y227472D01*
X326583Y229053D01*
X326806Y230750D01*
X326583Y232447D01*
X325928Y234028D01*
X324886Y235386D01*
X323528Y236428D01*
X321947Y237083D01*
X320250Y237306D01*
D02*
G37*
G36*
X394500Y197306D02*
X392803Y197083D01*
X391222Y196428D01*
X390024Y195509D01*
X388886Y195136D01*
X387528Y196178D01*
X385947Y196833D01*
X384250Y197056D01*
X382553Y196833D01*
X380972Y196178D01*
X379614Y195136D01*
X378572Y193778D01*
X377917Y192197D01*
X377694Y190500D01*
X377917Y188803D01*
X378572Y187222D01*
X379614Y185864D01*
X380972Y184822D01*
X382553Y184167D01*
X384250Y183944D01*
X385947Y184167D01*
X387528Y184822D01*
X388886Y185864D01*
X388908Y185893D01*
X390136Y185906D01*
X391222Y185072D01*
X392803Y184417D01*
X394500Y184194D01*
X396197Y184417D01*
X397778Y185072D01*
X399136Y186114D01*
X400178Y187472D01*
X400833Y189053D01*
X401056Y190750D01*
X400833Y192447D01*
X400178Y194028D01*
X399136Y195386D01*
X397778Y196428D01*
X396197Y197083D01*
X394500Y197306D01*
D02*
G37*
G36*
X206000Y202306D02*
X204303Y202083D01*
X202722Y201428D01*
X201364Y200386D01*
X200322Y199028D01*
X199667Y197447D01*
X199444Y195750D01*
X199667Y194053D01*
X200322Y192472D01*
X201364Y191114D01*
X202722Y190072D01*
X204303Y189417D01*
X206000Y189194D01*
X207697Y189417D01*
X209278Y190072D01*
X210636Y191114D01*
X211678Y192472D01*
X212333Y194053D01*
X212556Y195750D01*
X212333Y197447D01*
X211678Y199028D01*
X210636Y200386D01*
X209278Y201428D01*
X207697Y202083D01*
X206000Y202306D01*
D02*
G37*
G36*
X476750Y189118D02*
X474409Y188652D01*
X472424Y187326D01*
X471098Y185341D01*
X470633Y183000D01*
X471098Y180659D01*
X472424Y178674D01*
X474409Y177348D01*
X476750Y176882D01*
X479091Y177348D01*
X481076Y178674D01*
X482402Y180659D01*
X482868Y183000D01*
X482402Y185341D01*
X481076Y187326D01*
X479091Y188652D01*
X476750Y189118D01*
D02*
G37*
G36*
X559000Y188118D02*
X556659Y187652D01*
X554674Y186326D01*
X553348Y184341D01*
X552882Y182000D01*
X553348Y179659D01*
X554674Y177674D01*
X556659Y176348D01*
X559000Y175882D01*
X561341Y176348D01*
X563326Y177674D01*
X564652Y179659D01*
X565117Y182000D01*
X564652Y184341D01*
X563326Y186326D01*
X561341Y187652D01*
X559000Y188118D01*
D02*
G37*
G36*
X163250Y202306D02*
X161553Y202083D01*
X159972Y201428D01*
X158614Y200386D01*
X157572Y199028D01*
X156917Y197447D01*
X156694Y195750D01*
X156917Y194053D01*
X157572Y192472D01*
X158614Y191114D01*
X159972Y190072D01*
X161553Y189417D01*
X163250Y189194D01*
X164947Y189417D01*
X166528Y190072D01*
X167886Y191114D01*
X168928Y192472D01*
X169583Y194053D01*
X169806Y195750D01*
X169583Y197447D01*
X168928Y199028D01*
X167886Y200386D01*
X166528Y201428D01*
X164947Y202083D01*
X163250Y202306D01*
D02*
G37*
G36*
X473750Y214310D02*
X287500D01*
X285673Y214070D01*
X283970Y213365D01*
X282508Y212243D01*
X271008Y200742D01*
X269886Y199280D01*
X269180Y197577D01*
X268940Y195750D01*
X269180Y193923D01*
X269886Y192220D01*
X271008Y190758D01*
X272470Y189636D01*
X274173Y188930D01*
X276000Y188690D01*
X277827Y188930D01*
X279530Y189636D01*
X280993Y190758D01*
X290424Y200190D01*
X473750D01*
X475577Y200430D01*
X477280Y201136D01*
X478742Y202258D01*
X479865Y203720D01*
X480570Y205423D01*
X480810Y207250D01*
X480570Y209077D01*
X479865Y210780D01*
X478742Y212243D01*
X477280Y213365D01*
X475577Y214070D01*
X473750Y214310D01*
D02*
G37*
G36*
X26500Y246806D02*
X24803Y246583D01*
X23222Y245928D01*
X21864Y244886D01*
X20822Y243528D01*
X20167Y241947D01*
X19944Y240250D01*
X20167Y238553D01*
X20822Y236972D01*
X21864Y235614D01*
X23222Y234572D01*
X24803Y233917D01*
X26500Y233694D01*
X28197Y233917D01*
X29778Y234572D01*
X31136Y235614D01*
X32178Y236972D01*
X32833Y238553D01*
X33056Y240250D01*
X32833Y241947D01*
X32178Y243528D01*
X31136Y244886D01*
X29778Y245928D01*
X28197Y246583D01*
X26500Y246806D01*
D02*
G37*
G36*
X482250Y277118D02*
X479909Y276652D01*
X477924Y275326D01*
X476598Y273341D01*
X476132Y271000D01*
X476598Y268659D01*
X477924Y266674D01*
X479909Y265348D01*
X482250Y264883D01*
X484591Y265348D01*
X486576Y266674D01*
X487902Y268659D01*
X488368Y271000D01*
X487902Y273341D01*
X486576Y275326D01*
X484591Y276652D01*
X482250Y277118D01*
D02*
G37*
G36*
X286500Y274118D02*
X284159Y273652D01*
X282174Y272326D01*
X280848Y270341D01*
X280382Y268000D01*
X280848Y265659D01*
X282174Y263674D01*
X284159Y262348D01*
X286500Y261882D01*
X288841Y262348D01*
X290826Y263674D01*
X292152Y265659D01*
X292618Y268000D01*
X292152Y270341D01*
X290826Y272326D01*
X288841Y273652D01*
X286500Y274118D01*
D02*
G37*
G36*
X536950Y293832D02*
X534470Y293505D01*
X532159Y292548D01*
X530174Y291026D01*
X528652Y289041D01*
X527695Y286730D01*
X527368Y284250D01*
X527695Y281770D01*
X528652Y279459D01*
X530174Y277475D01*
X532159Y275952D01*
X534470Y274995D01*
X536950Y274668D01*
X539430Y274995D01*
X541741Y275952D01*
X543725Y277475D01*
X545248Y279459D01*
X546205Y281770D01*
X546532Y284250D01*
X546205Y286730D01*
X545248Y289041D01*
X543725Y291026D01*
X541741Y292548D01*
X539430Y293505D01*
X536950Y293832D01*
D02*
G37*
G36*
X27000Y298019D02*
X24925Y297745D01*
X22991Y296944D01*
X21330Y295670D01*
X20056Y294009D01*
X19255Y292075D01*
X18981Y290000D01*
X19255Y287925D01*
X20056Y285991D01*
X21330Y284330D01*
X22434Y283482D01*
X22534Y282043D01*
X22475Y281912D01*
X22114Y281636D01*
X21072Y280278D01*
X20417Y278697D01*
X20194Y277000D01*
X20417Y275303D01*
X21072Y273722D01*
X22114Y272364D01*
X23472Y271322D01*
X25053Y270667D01*
X26750Y270444D01*
X28447Y270667D01*
X30028Y271322D01*
X31386Y272364D01*
X32428Y273722D01*
X33083Y275303D01*
X33306Y277000D01*
X33083Y278697D01*
X32428Y280278D01*
X31386Y281636D01*
X31090Y281863D01*
X31316Y283291D01*
X32670Y284330D01*
X33944Y285991D01*
X34745Y287925D01*
X35019Y290000D01*
X34745Y292075D01*
X33944Y294009D01*
X32670Y295670D01*
X31009Y296944D01*
X29075Y297745D01*
X27000Y298019D01*
D02*
G37*
G36*
X342500Y271056D02*
X340803Y270833D01*
X339222Y270178D01*
X337864Y269136D01*
X336822Y267778D01*
X336167Y266197D01*
X335944Y264500D01*
X336167Y262803D01*
X336822Y261222D01*
X337864Y259864D01*
X339222Y258822D01*
X340803Y258167D01*
X342500Y257944D01*
X344197Y258167D01*
X345778Y258822D01*
X347136Y259864D01*
X348178Y261222D01*
X348833Y262803D01*
X349056Y264500D01*
X348833Y266197D01*
X348178Y267778D01*
X347136Y269136D01*
X345778Y270178D01*
X344197Y270833D01*
X342500Y271056D01*
D02*
G37*
G36*
X456250Y249867D02*
X453909Y249402D01*
X451924Y248076D01*
X450598Y246091D01*
X450132Y243750D01*
X450598Y241409D01*
X451924Y239424D01*
X453909Y238098D01*
X456250Y237633D01*
X458591Y238098D01*
X460576Y239424D01*
X461902Y241409D01*
X462368Y243750D01*
X461902Y246091D01*
X460576Y248076D01*
X458591Y249402D01*
X456250Y249867D01*
D02*
G37*
G36*
X220000Y262306D02*
X218303Y262083D01*
X216722Y261428D01*
X215364Y260386D01*
X214322Y259028D01*
X213667Y257447D01*
X213444Y255750D01*
X213667Y254053D01*
X214322Y252472D01*
X215290Y251211D01*
X215228Y250758D01*
X214890Y249877D01*
X214553Y249833D01*
X212972Y249178D01*
X211614Y248136D01*
X210572Y246778D01*
X209917Y245197D01*
X209694Y243500D01*
X209917Y241803D01*
X210572Y240222D01*
X211614Y238864D01*
X212972Y237822D01*
X214553Y237167D01*
X216250Y236944D01*
X217947Y237167D01*
X219528Y237822D01*
X220886Y238864D01*
X221928Y240222D01*
X222583Y241803D01*
X222806Y243500D01*
X222583Y245197D01*
X221928Y246778D01*
X220960Y248039D01*
X221022Y248492D01*
X221360Y249373D01*
X221697Y249417D01*
X223278Y250072D01*
X224636Y251114D01*
X225678Y252472D01*
X226333Y254053D01*
X226556Y255750D01*
X226333Y257447D01*
X225678Y259028D01*
X224636Y260386D01*
X223278Y261428D01*
X221697Y262083D01*
X220000Y262306D01*
D02*
G37*
G36*
X26750Y266306D02*
X25053Y266083D01*
X23472Y265428D01*
X22114Y264386D01*
X21072Y263028D01*
X20417Y261447D01*
X20194Y259750D01*
X20417Y258053D01*
X21072Y256472D01*
X22114Y255114D01*
X23472Y254072D01*
X25053Y253417D01*
X26750Y253194D01*
X28447Y253417D01*
X30028Y254072D01*
X31386Y255114D01*
X32428Y256472D01*
X33083Y258053D01*
X33306Y259750D01*
X33083Y261447D01*
X32428Y263028D01*
X31386Y264386D01*
X30028Y265428D01*
X28447Y266083D01*
X26750Y266306D01*
D02*
G37*
G36*
X104000Y246117D02*
X101659Y245652D01*
X99674Y244326D01*
X99510Y244080D01*
X98240D01*
X98076Y244326D01*
X96091Y245652D01*
X93750Y246117D01*
X91409Y245652D01*
X89424Y244326D01*
X88098Y242341D01*
X87633Y240000D01*
X88098Y237659D01*
X89424Y235674D01*
X89670Y235510D01*
Y234240D01*
X89424Y234076D01*
X88098Y232091D01*
X87633Y229750D01*
X88098Y227409D01*
X89424Y225424D01*
X91409Y224098D01*
X93750Y223633D01*
X96091Y224098D01*
X98076Y225424D01*
X98323Y225795D01*
X99388D01*
X99741Y225630D01*
X101659Y224348D01*
X104000Y223883D01*
X106341Y224348D01*
X108326Y225674D01*
X109652Y227659D01*
X110118Y230000D01*
X109652Y232341D01*
X108408Y234202D01*
X108267Y234638D01*
Y235362D01*
X108408Y235798D01*
X109652Y237659D01*
X110118Y240000D01*
X109652Y242341D01*
X108326Y244326D01*
X106341Y245652D01*
X104000Y246117D01*
D02*
G37*
%LPD*%
D36*
X91750Y88250D02*
Y98500D01*
X384000Y315750D02*
X394500D01*
X384500Y65750D02*
X394500D01*
X394250Y190500D02*
X394500Y190750D01*
X384250Y190500D02*
X394250D01*
D39*
X543750Y127000D02*
X566250D01*
X531750Y115000D02*
X543750Y127000D01*
X469000Y55500D02*
Y70000D01*
X402750Y-10750D02*
X469000Y55500D01*
X204500Y-10750D02*
X402750D01*
X189250Y4500D02*
Y84000D01*
X206000Y100750D01*
X514000Y115000D02*
X531750D01*
X469000Y70000D02*
X514000Y115000D01*
X189250Y4500D02*
X204500Y-10750D01*
D41*
X-21250Y-8250D02*
D03*
D43*
X-5375Y358750D02*
D03*
X592625Y-19250D02*
D03*
X592375Y358250D02*
D03*
D47*
X27000Y155000D02*
D03*
Y65000D02*
D03*
Y200000D02*
D03*
Y290000D02*
D03*
D50*
X559550Y284250D02*
D03*
Y54450D02*
D03*
X536950D02*
D03*
Y284250D02*
D03*
D51*
X566000Y137500D02*
D03*
X514000Y-6250D02*
D03*
X476750Y156250D02*
D03*
X347500Y61250D02*
D03*
X351750Y500D02*
D03*
X25500Y307250D02*
D03*
X41250Y306750D02*
D03*
X51750Y307000D02*
D03*
X152250Y104750D02*
D03*
X559000Y182000D02*
D03*
X541500Y181750D02*
D03*
X482250Y271000D02*
D03*
X141500Y81500D02*
D03*
X91250Y69500D02*
D03*
X141500Y70250D02*
D03*
X565750Y100250D02*
D03*
X566000Y86000D02*
D03*
X62250Y307000D02*
D03*
X171000Y167500D02*
D03*
X161000D02*
D03*
X285750Y5750D02*
D03*
X538500Y306250D02*
D03*
X528000D02*
D03*
X426250Y286500D02*
D03*
X417000D02*
D03*
X426250Y161500D02*
D03*
X417000D02*
D03*
X363000Y135500D02*
D03*
X-1750Y42000D02*
D03*
X73500Y315500D02*
D03*
X552750Y306250D02*
D03*
X36750Y361750D02*
D03*
X-12250Y42250D02*
D03*
X39250Y26000D02*
D03*
X538500Y-24750D02*
D03*
X612000Y287500D02*
D03*
X552250Y361750D02*
D03*
X-24750Y306500D02*
D03*
X611750Y32000D02*
D03*
X362500Y500D02*
D03*
X417000Y36500D02*
D03*
X426250D02*
D03*
X489750Y20000D02*
D03*
X479500Y319500D02*
D03*
X476750Y143950D02*
D03*
Y169983D02*
D03*
X475000Y260250D02*
D03*
X525000Y188500D02*
D03*
X456250Y243750D02*
D03*
X476750Y183000D02*
D03*
X286500Y21500D02*
D03*
X217000Y306250D02*
D03*
X77750Y328250D02*
D03*
X287000Y290500D02*
D03*
X575000Y287000D02*
D03*
X310750Y361750D02*
D03*
X59250Y-8250D02*
D03*
X153750Y-1250D02*
D03*
X575750Y62000D02*
D03*
X566000Y112000D02*
D03*
X-11750Y176750D02*
D03*
X-5500Y167250D02*
D03*
X471000Y20000D02*
D03*
X525000Y175750D02*
D03*
X566000Y73750D02*
D03*
X469000Y362250D02*
D03*
X104000Y230000D02*
D03*
X93750Y229750D02*
D03*
X104000Y240000D02*
D03*
X93750D02*
D03*
X27750Y-24750D02*
D03*
X286500Y268000D02*
D03*
D52*
X566250Y127000D02*
D03*
X220000Y255750D02*
D03*
X216250Y243500D02*
D03*
X566000Y149500D02*
D03*
X91750Y98500D02*
D03*
X276000Y100750D02*
D03*
Y195750D02*
D03*
X447500Y320500D02*
D03*
X26750Y277000D02*
D03*
Y259750D02*
D03*
X521500Y99750D02*
D03*
X508250Y65750D02*
D03*
X91750Y88250D02*
D03*
X342500Y264500D02*
D03*
X363000Y260500D02*
D03*
X394500Y315750D02*
D03*
X445250Y190500D02*
D03*
X394500Y190750D02*
D03*
X98250Y290750D02*
D03*
X163250D02*
D03*
X233250D02*
D03*
X206000Y195750D02*
D03*
X163250D02*
D03*
X233250D02*
D03*
Y100750D02*
D03*
X206000D02*
D03*
X163250D02*
D03*
X206000Y5750D02*
D03*
X163250D02*
D03*
X233250D02*
D03*
X276000D02*
D03*
X364000Y107500D02*
D03*
X340250Y336000D02*
D03*
X219250Y168250D02*
D03*
X287750Y343000D02*
D03*
X394500Y65750D02*
D03*
X445250Y66500D02*
D03*
X391500Y106250D02*
D03*
X493250Y65750D02*
D03*
X476750Y118500D02*
D03*
X525000Y163000D02*
D03*
X291750Y40000D02*
D03*
Y319250D02*
D03*
X141750Y290750D02*
D03*
X206750Y291000D02*
D03*
X277250Y290500D02*
D03*
X384000Y315750D02*
D03*
X348250Y169500D02*
D03*
X384500Y65750D02*
D03*
X384250Y190500D02*
D03*
X26500Y240250D02*
D03*
X215750Y152250D02*
D03*
X219500Y331750D02*
D03*
X216500Y343500D02*
D03*
X473750Y207250D02*
D03*
X347500Y44750D02*
D03*
X219250Y71000D02*
D03*
X320250Y230750D02*
D03*
D55*
X-32125Y318500D02*
D03*
D56*
X-33875Y27875D02*
D03*
D57*
X19625Y-25250D02*
D03*
X556625Y362250D02*
D03*
X32375D02*
D03*
X23375Y-29250D02*
D03*
D58*
X612000Y27875D02*
D03*
X538750Y-29125D02*
D03*
D59*
X621000Y168850D02*
D03*
D60*
X-18750Y342625D02*
D03*
X607750Y-5625D02*
D03*
X608000Y342875D02*
D03*
D61*
X-10000Y-18000D02*
D03*
D62*
X294250Y-33375D02*
D03*
D63*
X294000Y372000D02*
D03*
D65*
X48650Y330650D02*
D03*
X538650Y6650D02*
D03*
D66*
X587300Y0D02*
D03*
Y337300D02*
D03*
X0D02*
D03*
Y0D02*
D03*
D67*
X538650Y330650D02*
D03*
D69*
X535000Y149250D02*
X565750D01*
X517250Y131500D02*
X535000Y149250D01*
X276000Y100750D02*
X296250Y121000D01*
X372250D01*
X382750Y131500D01*
X517250D01*
X287500Y207250D02*
X473750D01*
X276000Y195750D02*
X287500Y207250D01*
M02*
