G04 Layer_Physical_Order=1*
G04 Layer_Color=255*
%FSLAX44Y44*%
%MOMM*%
G71*
G01*
G75*
%ADD10R,3.1000X2.8000*%
%ADD11R,1.9000X2.0000*%
%ADD12R,0.2000X0.5000*%
%ADD13R,1.0000X1.7000*%
G04:AMPARAMS|DCode=14|XSize=0.3mm|YSize=0.8mm|CornerRadius=0.075mm|HoleSize=0mm|Usage=FLASHONLY|Rotation=270.000|XOffset=0mm|YOffset=0mm|HoleType=Round|Shape=RoundedRectangle|*
%AMROUNDEDRECTD14*
21,1,0.3000,0.6500,0,0,270.0*
21,1,0.1500,0.8000,0,0,270.0*
1,1,0.1500,-0.3250,-0.0750*
1,1,0.1500,-0.3250,0.0750*
1,1,0.1500,0.3250,0.0750*
1,1,0.1500,0.3250,-0.0750*
%
%ADD14ROUNDEDRECTD14*%
%ADD15R,1.1000X1.0000*%
%ADD16R,0.9000X0.8000*%
%ADD17R,0.7000X0.9000*%
%ADD18R,0.6000X0.9000*%
%ADD19R,0.9000X0.9000*%
%ADD20R,0.3000X0.4000*%
%ADD21R,1.1000X1.2000*%
%ADD22R,0.3000X0.7000*%
%ADD23R,0.6000X2.6000*%
%ADD24R,1.6500X2.4000*%
%ADD25R,6.0000X6.0000*%
G04:AMPARAMS|DCode=26|XSize=0.3mm|YSize=1mm|CornerRadius=0.12mm|HoleSize=0mm|Usage=FLASHONLY|Rotation=90.000|XOffset=0mm|YOffset=0mm|HoleType=Round|Shape=RoundedRectangle|*
%AMROUNDEDRECTD26*
21,1,0.3000,0.7600,0,0,90.0*
21,1,0.0600,1.0000,0,0,90.0*
1,1,0.2400,0.3800,0.0300*
1,1,0.2400,0.3800,-0.0300*
1,1,0.2400,-0.3800,-0.0300*
1,1,0.2400,-0.3800,0.0300*
%
%ADD26ROUNDEDRECTD26*%
G04:AMPARAMS|DCode=27|XSize=0.3mm|YSize=1mm|CornerRadius=0.12mm|HoleSize=0mm|Usage=FLASHONLY|Rotation=180.000|XOffset=0mm|YOffset=0mm|HoleType=Round|Shape=RoundedRectangle|*
%AMROUNDEDRECTD27*
21,1,0.3000,0.7600,0,0,180.0*
21,1,0.0600,1.0000,0,0,180.0*
1,1,0.2400,-0.0300,0.3800*
1,1,0.2400,0.0300,0.3800*
1,1,0.2400,0.0300,-0.3800*
1,1,0.2400,-0.0300,-0.3800*
%
%ADD27ROUNDEDRECTD27*%
%ADD28R,2.6000X1.1000*%
%ADD29R,0.6000X1.0500*%
%ADD30R,1.1400X0.7500*%
%ADD31R,0.6000X0.6000*%
%ADD32R,0.6000X0.6000*%
%ADD33R,1.0000X1.3000*%
%ADD34R,5.4000X1.5000*%
%ADD35C,0.2000*%
%ADD36C,0.5000*%
%ADD37C,0.2500*%
%ADD38C,0.2200*%
%ADD39C,0.8000*%
%ADD40C,0.2540*%
%ADD41R,4.2000X6.1500*%
%ADD42R,2.0750X33.7300*%
%ADD43R,6.9750X4.2000*%
%ADD44R,58.7500X1.9250*%
%ADD45R,1.0000X33.7000*%
%ADD46R,58.8500X2.3000*%
%ADD47C,1.1900*%
%ADD48C,3.0000*%
%ADD49C,6.0000*%
%ADD50C,1.5000*%
%ADD51C,0.8000*%
%ADD52C,0.9000*%
%ADD53C,0.6000*%
%ADD54C,0.7000*%
%ADD55R,1.6750X3.9000*%
%ADD56R,1.6750X5.5750*%
%ADD57R,1.6750X0.9000*%
%ADD58R,0.9000X1.6750*%
%ADD59R,1.4000X33.7300*%
%ADD60R,4.2000X6.9750*%
%ADD61R,6.4000X4.2000*%
%ADD62R,58.7500X1.1250*%
%ADD63R,58.8000X1.6000*%
D10*
X363821Y85743D02*
D03*
X418821D02*
D03*
Y210742D02*
D03*
X363821D02*
D03*
Y335742D02*
D03*
X418821D02*
D03*
D11*
X391321Y-258D02*
D03*
Y124742D02*
D03*
Y249743D02*
D03*
D12*
X117250Y307500D02*
D03*
X182250D02*
D03*
X252250D02*
D03*
Y212500D02*
D03*
X182250D02*
D03*
X252250Y117500D02*
D03*
X182250D02*
D03*
X252250Y22500D02*
D03*
X182250D02*
D03*
D13*
X126000Y312500D02*
D03*
X191000D02*
D03*
X261000D02*
D03*
Y217500D02*
D03*
X191000D02*
D03*
X261000Y122500D02*
D03*
X191000D02*
D03*
X261000Y27500D02*
D03*
X191000D02*
D03*
D14*
X114250Y305000D02*
D03*
Y310000D02*
D03*
Y315000D02*
D03*
Y320000D02*
D03*
X137750D02*
D03*
Y315000D02*
D03*
Y310000D02*
D03*
Y305000D02*
D03*
X179250D02*
D03*
Y310000D02*
D03*
Y315000D02*
D03*
Y320000D02*
D03*
X202750D02*
D03*
Y315000D02*
D03*
Y310000D02*
D03*
Y305000D02*
D03*
X249250D02*
D03*
Y310000D02*
D03*
Y315000D02*
D03*
Y320000D02*
D03*
X272750D02*
D03*
Y315000D02*
D03*
Y310000D02*
D03*
Y305000D02*
D03*
X249250Y210000D02*
D03*
Y215000D02*
D03*
Y220000D02*
D03*
Y225000D02*
D03*
X272750D02*
D03*
Y220000D02*
D03*
Y215000D02*
D03*
Y210000D02*
D03*
X179250D02*
D03*
Y215000D02*
D03*
Y220000D02*
D03*
Y225000D02*
D03*
X202750D02*
D03*
Y220000D02*
D03*
Y215000D02*
D03*
Y210000D02*
D03*
X249250Y115000D02*
D03*
Y120000D02*
D03*
Y125000D02*
D03*
Y130000D02*
D03*
X272750D02*
D03*
Y125000D02*
D03*
Y120000D02*
D03*
Y115000D02*
D03*
X179250D02*
D03*
Y120000D02*
D03*
Y125000D02*
D03*
Y130000D02*
D03*
X202750D02*
D03*
Y125000D02*
D03*
Y120000D02*
D03*
Y115000D02*
D03*
X249250Y20000D02*
D03*
Y25000D02*
D03*
Y30000D02*
D03*
Y35000D02*
D03*
X272750D02*
D03*
Y30000D02*
D03*
Y25000D02*
D03*
Y20000D02*
D03*
X179250D02*
D03*
Y25000D02*
D03*
Y30000D02*
D03*
Y35000D02*
D03*
X202750D02*
D03*
Y30000D02*
D03*
Y25000D02*
D03*
Y20000D02*
D03*
X16000Y77250D02*
D03*
Y82250D02*
D03*
Y87250D02*
D03*
Y92250D02*
D03*
X46000D02*
D03*
Y87250D02*
D03*
Y82250D02*
D03*
Y77250D02*
D03*
D15*
X10000Y290750D02*
D03*
X-7000D02*
D03*
X112000Y31500D02*
D03*
X95000D02*
D03*
D16*
X97000Y328250D02*
D03*
Y342250D02*
D03*
X162000Y328250D02*
D03*
Y342250D02*
D03*
X232000Y328250D02*
D03*
Y342250D02*
D03*
X162000Y233250D02*
D03*
Y247250D02*
D03*
X232000Y233250D02*
D03*
Y247250D02*
D03*
Y138250D02*
D03*
Y152250D02*
D03*
X162000Y138250D02*
D03*
Y152250D02*
D03*
Y43250D02*
D03*
Y57250D02*
D03*
X232000Y43250D02*
D03*
Y57250D02*
D03*
X137000Y139000D02*
D03*
Y125000D02*
D03*
X123000Y139000D02*
D03*
Y125000D02*
D03*
X457500Y124750D02*
D03*
Y138750D02*
D03*
D17*
X126250Y277000D02*
D03*
X141250D02*
D03*
X191250D02*
D03*
X206250D02*
D03*
X261750D02*
D03*
X276750D02*
D03*
X261750Y182000D02*
D03*
X276750D02*
D03*
X191750D02*
D03*
X206750D02*
D03*
X262250Y87000D02*
D03*
X277250D02*
D03*
X192250D02*
D03*
X207250D02*
D03*
X261250Y-8000D02*
D03*
X276250D02*
D03*
X194500Y-8250D02*
D03*
X209500D02*
D03*
D18*
X139750Y341750D02*
D03*
Y330750D02*
D03*
X111750D02*
D03*
Y341750D02*
D03*
X204750D02*
D03*
Y330750D02*
D03*
X176750D02*
D03*
Y341750D02*
D03*
X274750D02*
D03*
Y330750D02*
D03*
X246750D02*
D03*
Y341750D02*
D03*
X274750Y246750D02*
D03*
Y235750D02*
D03*
X246750D02*
D03*
Y246750D02*
D03*
X204750D02*
D03*
Y235750D02*
D03*
X176750D02*
D03*
Y246750D02*
D03*
X274750Y151750D02*
D03*
Y140750D02*
D03*
X246750D02*
D03*
Y151750D02*
D03*
X204750D02*
D03*
Y140750D02*
D03*
X176750D02*
D03*
Y151750D02*
D03*
X274750Y56750D02*
D03*
Y45750D02*
D03*
X246750D02*
D03*
Y56750D02*
D03*
X204750D02*
D03*
Y45750D02*
D03*
X176750D02*
D03*
Y56750D02*
D03*
D19*
X125750Y330750D02*
D03*
Y341750D02*
D03*
X190750Y330750D02*
D03*
Y341750D02*
D03*
X260750Y330750D02*
D03*
Y341750D02*
D03*
Y235750D02*
D03*
Y246750D02*
D03*
X190750Y235750D02*
D03*
Y246750D02*
D03*
X260750Y140750D02*
D03*
Y151750D02*
D03*
X190750Y140750D02*
D03*
Y151750D02*
D03*
X260750Y45750D02*
D03*
Y56750D02*
D03*
X190750Y45750D02*
D03*
Y56750D02*
D03*
D20*
X125750Y336250D02*
D03*
X190750D02*
D03*
X260750D02*
D03*
Y241250D02*
D03*
X190750D02*
D03*
X260750Y146250D02*
D03*
X190750D02*
D03*
X260750Y51250D02*
D03*
X190750D02*
D03*
D21*
X142250Y189500D02*
D03*
Y206500D02*
D03*
X128250D02*
D03*
Y189500D02*
D03*
D22*
X94000Y17500D02*
D03*
X89000D02*
D03*
X84000D02*
D03*
X79000D02*
D03*
X74000D02*
D03*
X69000D02*
D03*
X64000D02*
D03*
X59000D02*
D03*
X54000D02*
D03*
X49000D02*
D03*
X99000D02*
D03*
X104000D02*
D03*
X109000D02*
D03*
X114000D02*
D03*
X119000D02*
D03*
X124000D02*
D03*
X129000D02*
D03*
X134000D02*
D03*
D23*
X145000Y-4500D02*
D03*
X38000D02*
D03*
D24*
X31000Y84750D02*
D03*
D25*
X58000Y168250D02*
D03*
D26*
X13000Y130750D02*
D03*
Y135750D02*
D03*
Y140750D02*
D03*
Y145750D02*
D03*
Y150750D02*
D03*
Y155750D02*
D03*
Y160750D02*
D03*
Y165750D02*
D03*
Y170750D02*
D03*
Y175750D02*
D03*
Y180750D02*
D03*
Y185750D02*
D03*
Y190750D02*
D03*
Y195750D02*
D03*
Y200750D02*
D03*
Y205750D02*
D03*
X103000D02*
D03*
Y200750D02*
D03*
Y195750D02*
D03*
Y190750D02*
D03*
Y185750D02*
D03*
Y180750D02*
D03*
Y175750D02*
D03*
Y170750D02*
D03*
Y165750D02*
D03*
Y160750D02*
D03*
Y155750D02*
D03*
Y150750D02*
D03*
Y145750D02*
D03*
Y140750D02*
D03*
Y135750D02*
D03*
Y130750D02*
D03*
D27*
X20500Y213250D02*
D03*
X25500D02*
D03*
X30500D02*
D03*
X35500D02*
D03*
X40500D02*
D03*
X45500D02*
D03*
X50500D02*
D03*
X55500D02*
D03*
X60500D02*
D03*
X65500D02*
D03*
X70500D02*
D03*
X75500D02*
D03*
X80500D02*
D03*
X85500D02*
D03*
X90500D02*
D03*
X95500D02*
D03*
Y123250D02*
D03*
X90500D02*
D03*
X85500D02*
D03*
X80500D02*
D03*
X75500D02*
D03*
X70500D02*
D03*
X65500D02*
D03*
X60500D02*
D03*
X55500D02*
D03*
X50500D02*
D03*
X45500D02*
D03*
X40500D02*
D03*
X35500D02*
D03*
X30500D02*
D03*
X25500D02*
D03*
X20500D02*
D03*
D28*
X465000Y98500D02*
D03*
Y71500D02*
D03*
X320000Y28500D02*
D03*
Y1500D02*
D03*
Y153500D02*
D03*
Y126500D02*
D03*
Y278500D02*
D03*
Y251500D02*
D03*
X320071Y86493D02*
D03*
Y59493D02*
D03*
Y211493D02*
D03*
Y184492D02*
D03*
Y336493D02*
D03*
Y309492D02*
D03*
D29*
X78250Y291000D02*
D03*
X68750D02*
D03*
X59250D02*
D03*
Y264000D02*
D03*
X68750D02*
D03*
X78250D02*
D03*
D30*
X493250Y80450D02*
D03*
Y93150D02*
D03*
Y105850D02*
D03*
Y118550D02*
D03*
Y131250D02*
D03*
Y143950D02*
D03*
Y156650D02*
D03*
Y169350D02*
D03*
Y182050D02*
D03*
Y194750D02*
D03*
Y207450D02*
D03*
Y220150D02*
D03*
Y232850D02*
D03*
Y245550D02*
D03*
Y258250D02*
D03*
X508850D02*
D03*
Y245550D02*
D03*
Y232850D02*
D03*
Y220150D02*
D03*
Y207450D02*
D03*
Y194750D02*
D03*
Y182050D02*
D03*
Y169350D02*
D03*
Y156650D02*
D03*
Y143950D02*
D03*
Y131250D02*
D03*
Y118550D02*
D03*
Y105850D02*
D03*
Y93150D02*
D03*
Y80450D02*
D03*
D31*
X464000Y165250D02*
D03*
Y175250D02*
D03*
Y195000D02*
D03*
Y185000D02*
D03*
X112750Y68750D02*
D03*
Y58750D02*
D03*
X102000Y68750D02*
D03*
Y58750D02*
D03*
X123500D02*
D03*
Y68750D02*
D03*
X130000Y246500D02*
D03*
Y236500D02*
D03*
X119250D02*
D03*
Y246500D02*
D03*
X-12250Y198250D02*
D03*
Y188250D02*
D03*
X-12500Y139250D02*
D03*
Y149250D02*
D03*
Y123500D02*
D03*
Y113500D02*
D03*
Y85250D02*
D03*
Y95250D02*
D03*
X-750Y113500D02*
D03*
Y123500D02*
D03*
X79000Y237000D02*
D03*
Y247000D02*
D03*
X66500D02*
D03*
Y237000D02*
D03*
X-1250Y88000D02*
D03*
Y98000D02*
D03*
X46250Y281750D02*
D03*
Y271750D02*
D03*
X174750Y12000D02*
D03*
Y2000D02*
D03*
X244750D02*
D03*
Y12000D02*
D03*
X174750Y107000D02*
D03*
Y97000D02*
D03*
X244750D02*
D03*
Y107000D02*
D03*
X174750Y202000D02*
D03*
Y192000D02*
D03*
X244750D02*
D03*
Y202000D02*
D03*
X244000Y297000D02*
D03*
Y287000D02*
D03*
X174000D02*
D03*
Y297000D02*
D03*
X109000D02*
D03*
Y287000D02*
D03*
X195250Y2000D02*
D03*
Y12000D02*
D03*
X265250D02*
D03*
Y2000D02*
D03*
X195250Y97000D02*
D03*
Y107000D02*
D03*
X265250D02*
D03*
Y97000D02*
D03*
X195250Y192000D02*
D03*
Y202000D02*
D03*
X265250D02*
D03*
Y192000D02*
D03*
X263500Y287000D02*
D03*
Y297000D02*
D03*
X193500D02*
D03*
Y287000D02*
D03*
X128500D02*
D03*
Y297000D02*
D03*
X112750Y90750D02*
D03*
Y80750D02*
D03*
X102000Y90750D02*
D03*
Y80750D02*
D03*
X123500D02*
D03*
Y90750D02*
D03*
X185000Y12000D02*
D03*
Y2000D02*
D03*
X255000D02*
D03*
Y12000D02*
D03*
X185000Y107000D02*
D03*
Y97000D02*
D03*
X255000D02*
D03*
Y107000D02*
D03*
X185000Y202000D02*
D03*
Y192000D02*
D03*
X255000D02*
D03*
Y202000D02*
D03*
X253750Y297000D02*
D03*
Y287000D02*
D03*
X183750D02*
D03*
Y297000D02*
D03*
X118750D02*
D03*
Y287000D02*
D03*
D32*
X35000Y48750D02*
D03*
X45000D02*
D03*
X126000Y153500D02*
D03*
X136000D02*
D03*
X126750Y32000D02*
D03*
X136750D02*
D03*
X130250Y177000D02*
D03*
X140250D02*
D03*
X130250Y219000D02*
D03*
X140250D02*
D03*
X136000Y165000D02*
D03*
X126000D02*
D03*
X-1250Y62000D02*
D03*
X-11250D02*
D03*
X66250Y103000D02*
D03*
X76250D02*
D03*
X41000Y105750D02*
D03*
X31000D02*
D03*
X6500Y278500D02*
D03*
X-3500D02*
D03*
X-1250Y72000D02*
D03*
X-11250D02*
D03*
X76250Y90500D02*
D03*
X66250D02*
D03*
X76250Y80000D02*
D03*
X66250D02*
D03*
D33*
X163750Y-10000D02*
D03*
X183750D02*
D03*
X160750Y85000D02*
D03*
X180750D02*
D03*
X231000D02*
D03*
X251000D02*
D03*
X161000Y180000D02*
D03*
X181000D02*
D03*
X230750D02*
D03*
X250750D02*
D03*
X230750Y275000D02*
D03*
X250750D02*
D03*
X160250D02*
D03*
X180250D02*
D03*
X95250D02*
D03*
X115250D02*
D03*
X230500Y-10000D02*
D03*
X250500D02*
D03*
D34*
X480000Y340000D02*
D03*
Y290000D02*
D03*
Y-5000D02*
D03*
Y45000D02*
D03*
D35*
X58500Y18500D02*
X59500Y17500D01*
X84500Y4000D02*
Y17500D01*
X75750Y-4750D02*
X84500Y4000D01*
X79000Y17000D02*
X79500Y17500D01*
X79000Y10000D02*
Y17000D01*
X78500Y9500D02*
X79000Y10000D01*
X54000Y15000D02*
X54500Y15500D01*
X54000Y5750D02*
Y15000D01*
Y5750D02*
X59500Y250D01*
X134500Y5750D02*
Y17500D01*
X11250Y216750D02*
Y220750D01*
X12375Y240375D02*
X30500Y222250D01*
X137750Y315000D02*
X147000D01*
X146000Y323000D02*
X147000D01*
X143000Y320000D02*
X146000Y323000D01*
X137750Y320000D02*
X143000D01*
X106250D02*
X114250D01*
X105500Y320750D02*
X106250Y320000D01*
X97500Y314500D02*
X114000D01*
X202750Y315000D02*
X212000D01*
X211000Y323000D02*
X212000D01*
X208000Y320000D02*
X211000Y323000D01*
X202750Y320000D02*
X208000D01*
X162500Y314500D02*
X179000D01*
X272750Y315000D02*
X282000D01*
X281000Y323000D02*
X282000D01*
X278000Y320000D02*
X281000Y323000D01*
X272750Y320000D02*
X278000D01*
X241250D02*
X249250D01*
X240500Y320750D02*
X241250Y320000D01*
X232500Y314500D02*
X249000D01*
X202750Y220000D02*
X212000D01*
X211000Y228000D02*
X212000D01*
X208000Y225000D02*
X211000Y228000D01*
X202750Y225000D02*
X208000D01*
X171250D02*
X179250D01*
X170500Y225750D02*
X171250Y225000D01*
X162500Y219500D02*
X179000D01*
X272750Y220000D02*
X282000D01*
X281000Y228000D02*
X282000D01*
X278000Y225000D02*
X281000Y228000D01*
X272750Y225000D02*
X278000D01*
X241250D02*
X249250D01*
X240500Y225750D02*
X241250Y225000D01*
X232500Y219500D02*
X249000D01*
X272750Y125000D02*
X282000D01*
X281000Y133000D02*
X282000D01*
X278000Y130000D02*
X281000Y133000D01*
X272750Y130000D02*
X278000D01*
X241250D02*
X249250D01*
X240500Y130750D02*
X241250Y130000D01*
X232500Y124500D02*
X249000D01*
X202750Y125000D02*
X212000D01*
X211000Y133000D02*
X212000D01*
X208000Y130000D02*
X211000Y133000D01*
X202750Y130000D02*
X208000D01*
X171250D02*
X179250D01*
X170500Y130750D02*
X171250Y130000D01*
X162500Y124500D02*
X179000D01*
X202750Y30000D02*
X212000D01*
X211000Y38000D02*
X212000D01*
X208000Y35000D02*
X211000Y38000D01*
X202750Y35000D02*
X208000D01*
X171250D02*
X179250D01*
X170500Y35750D02*
X171250Y35000D01*
X162500Y29500D02*
X179000D01*
X241250Y35000D02*
X249250D01*
X240500Y35750D02*
X241250Y35000D01*
X281000Y38000D02*
X282000D01*
X278000Y35000D02*
X281000Y38000D01*
X272750Y35000D02*
X278000D01*
X272750Y30000D02*
X282000D01*
X232500Y29500D02*
X249000D01*
X-2750Y195750D02*
X13000D01*
X-1250Y72000D02*
X3250D01*
X8500Y77250D01*
X16000D01*
X25500Y117000D02*
Y123250D01*
X18000Y109500D02*
X25500Y117000D01*
X15000Y109500D02*
X18000D01*
X14250Y108750D02*
X15000Y109500D01*
X14250Y92250D02*
X16000D01*
X14250D02*
Y98500D01*
X60000Y80250D02*
X64250D01*
X53000Y87250D02*
X60000Y80250D01*
X-12500Y84250D02*
Y85250D01*
Y84250D02*
X-7750Y79500D01*
X85500Y213250D02*
Y224250D01*
X112500Y124750D02*
Y132250D01*
X109000Y135750D02*
X112500Y132250D01*
X103000Y135750D02*
X109000D01*
X102500Y131250D02*
X103000Y130750D01*
X92250Y131250D02*
X102500D01*
X90500Y129500D02*
X92250Y131250D01*
X90500Y123250D02*
Y129500D01*
X30500Y214250D02*
X31000Y213750D01*
X30500Y213250D02*
X31000Y213750D01*
X113000Y158750D02*
Y163500D01*
X30500Y213250D02*
X30500Y213250D01*
X3000Y205750D02*
X13000D01*
X20500Y120000D02*
Y123250D01*
X13750Y120000D02*
X20500D01*
X59500Y-8250D02*
Y250D01*
X2000Y133750D02*
X5000Y130750D01*
X13000D01*
X110000Y155750D02*
X113000Y158750D01*
X110000Y150750D02*
X111500Y149250D01*
X103500Y155750D02*
X110000D01*
X103500Y150750D02*
X110000D01*
X60500Y115500D02*
Y123250D01*
X99500Y9500D02*
Y17500D01*
X64500D02*
Y25000D01*
X-500Y87250D02*
X16000D01*
X6250Y82250D02*
X16000D01*
X3500Y79500D02*
X6250Y82250D01*
X-7750Y79500D02*
X3500D01*
X40500Y105750D02*
Y123250D01*
X45500D02*
Y155750D01*
X74500Y17500D02*
Y25000D01*
X89500Y10500D02*
Y17500D01*
Y10500D02*
X90500Y9500D01*
X2250Y145750D02*
X13000D01*
X30500Y114500D02*
Y123250D01*
X35500Y123250D02*
Y132000D01*
X33500Y82250D02*
X46000D01*
Y87250D02*
X53000D01*
X85500Y195750D02*
X103000D01*
Y200750D02*
X111000D01*
X103000Y205750D02*
X123250D01*
X65500Y175750D02*
X103000D01*
Y190750D02*
X117000D01*
X103000Y185750D02*
X109500D01*
X114500Y180750D01*
X103000D02*
X114500D01*
X80500Y190750D02*
Y213250D01*
X75500D02*
Y226500D01*
X94500Y17500D02*
Y31000D01*
X112000Y31500D02*
X126250D01*
X39250Y26000D02*
X55250D01*
X69000Y2000D02*
Y17750D01*
X49250Y-2500D02*
Y17500D01*
X40750Y-2500D02*
X49250D01*
X134500Y5750D02*
X134500Y5750D01*
X134500Y5750D02*
X144750D01*
X58500Y18500D02*
Y22750D01*
X55250Y26000D02*
X58500Y22750D01*
X59250Y264000D02*
Y274750D01*
X78250Y264000D02*
Y274500D01*
X75500Y226500D02*
X78250Y229250D01*
Y237000D01*
X67250Y229500D02*
Y237000D01*
Y229500D02*
X70500Y226250D01*
Y213250D02*
Y226250D01*
X70500Y122750D02*
Y131500D01*
X55500Y213250D02*
Y220250D01*
X30500Y214250D02*
Y222250D01*
X11250Y216750D02*
X14500Y213500D01*
X20500D01*
Y215000D01*
X50000Y231500D02*
X50000Y225750D01*
X55500Y220250D01*
X38750Y227500D02*
Y241750D01*
Y227500D02*
X40500Y225750D01*
Y213250D02*
Y225750D01*
X31250Y229000D02*
Y231000D01*
Y229000D02*
X35500Y224750D01*
Y213250D02*
Y224750D01*
X50500Y205500D02*
Y213250D01*
X45500D02*
Y227250D01*
X43500Y229250D02*
X45500Y227250D01*
X43500Y229250D02*
Y234000D01*
X49750Y240250D01*
Y257500D01*
X171250Y320000D02*
X179250D01*
X170500Y320750D02*
X171250Y320000D01*
X111000Y200750D02*
X113250Y198500D01*
X113750D01*
X112750Y80750D02*
X123500D01*
X102000Y90750D02*
X112750D01*
X123500D01*
X60500Y205000D02*
Y213250D01*
X65500D02*
Y222000D01*
X62750Y224750D02*
X65500Y222000D01*
X-5250Y198250D02*
X-2750Y195750D01*
X-12250Y198250D02*
X-5250D01*
X-12250Y188250D02*
X-5250D01*
X11500Y231500D02*
X13500D01*
X25500Y219500D01*
Y213250D02*
Y219500D01*
X3500Y185750D02*
X13000D01*
X9000Y180750D02*
X13000D01*
X20750D01*
X1750Y184000D02*
X3500Y185750D01*
X-5250Y188250D02*
X-2750Y190750D01*
X13000D01*
X-6000Y206000D02*
X-250Y200250D01*
X12500D01*
X13000Y200750D01*
X-11750Y176750D02*
X-2851D01*
X2500Y171399D01*
Y162750D02*
Y171399D01*
Y162750D02*
X4500Y160750D01*
X13000D01*
X-5500Y162250D02*
Y167250D01*
Y162250D02*
X1000Y155750D01*
X13000D01*
X13250Y170750D02*
X21000D01*
X75500Y116750D02*
Y123250D01*
X90500Y115250D02*
X91750Y114000D01*
X90500Y115250D02*
Y123250D01*
X98250Y119750D02*
X103750Y114250D01*
X96250Y119750D02*
X98250D01*
X90500Y213250D02*
Y219250D01*
X93750Y222500D01*
Y229750D01*
X95500Y213250D02*
X99750D01*
X103750Y217250D01*
Y230000D01*
X72000Y113250D02*
X75500Y116750D01*
X85500Y107500D02*
Y123250D01*
X76250Y103000D02*
X77500Y104250D01*
X78000D02*
X82250D01*
X85500Y107500D01*
D36*
X213000Y246750D02*
X216250Y243500D01*
X206500Y246750D02*
X213000D01*
X205500Y245750D02*
X206500Y246750D01*
X91750Y88250D02*
Y98500D01*
X276000Y5750D02*
X285750D01*
X276250Y290500D02*
X287000D01*
X205250Y152250D02*
X215750D01*
X205500Y343000D02*
X206000Y343500D01*
X216500D01*
D37*
X167750Y20000D02*
X179250D01*
X167000D02*
X167750D01*
X237750D02*
X249250D01*
X237000D02*
X237750D01*
Y115000D02*
X249250D01*
X237000D02*
X237750D01*
X167750D02*
X179250D01*
X167000D02*
X167750D01*
Y210000D02*
X179250D01*
X167000D02*
X167750D01*
X237750D02*
X249250D01*
X237000D02*
X237750D01*
Y305000D02*
X249250D01*
X237000D02*
X237750D01*
X167750D02*
X179250D01*
X167000D02*
X167750D01*
X102750D02*
X114250D01*
X102000D02*
X102750D01*
X106750Y310000D02*
X114250D01*
X103000Y306250D02*
X106750Y310000D01*
X171750D02*
X179250D01*
X168000Y306250D02*
X171750Y310000D01*
X241750D02*
X249250D01*
X238000Y306250D02*
X241750Y310000D01*
X171750Y215000D02*
X179250D01*
X168000Y211250D02*
X171750Y215000D01*
X241750D02*
X249250D01*
X238000Y211250D02*
X241750Y215000D01*
Y120000D02*
X249250D01*
X238000Y116250D02*
X241750Y120000D01*
X171750D02*
X179250D01*
X168000Y116250D02*
X171750Y120000D01*
Y25000D02*
X179250D01*
X168000Y21250D02*
X171750Y25000D01*
X238000Y21250D02*
X241750Y25000D01*
X249250D01*
D38*
X281250Y21500D02*
X286500D01*
X142750Y310000D02*
X146500Y306250D01*
X137750Y310000D02*
X142750D01*
X130750Y305000D02*
X137750D01*
X129500Y306250D02*
X130750Y305000D01*
X211500Y306250D02*
X217000D01*
X207750Y310000D02*
X211500Y306250D01*
X202750Y310000D02*
X207750D01*
X195750Y305000D02*
X202750D01*
X194500Y306250D02*
X195750Y305000D01*
X277750Y310000D02*
X281500Y306250D01*
X272750Y310000D02*
X277750D01*
X265750Y305000D02*
X272750D01*
X264500Y306250D02*
X265750Y305000D01*
X207750Y215000D02*
X211500Y211250D01*
X202750Y215000D02*
X207750D01*
X195750Y210000D02*
X202750D01*
X194500Y211250D02*
X195750Y210000D01*
X277750Y215000D02*
X281500Y211250D01*
X272750Y215000D02*
X277750D01*
X265750Y210000D02*
X272750D01*
X264500Y211250D02*
X265750Y210000D01*
X277750Y120000D02*
X281500Y116250D01*
X272750Y120000D02*
X277750D01*
X265750Y115000D02*
X272750D01*
X264500Y116250D02*
X265750Y115000D01*
X207750Y120000D02*
X211500Y116250D01*
X202750Y120000D02*
X207750D01*
X195750Y115000D02*
X202750D01*
X194500Y116250D02*
X195750Y115000D01*
X207750Y25000D02*
X211500Y21250D01*
X202750Y25000D02*
X207750D01*
X195750Y20000D02*
X202750D01*
X194500Y21250D02*
X195750Y20000D01*
X277750Y25000D02*
X281250Y21500D01*
X272750Y25000D02*
X277750D01*
X264500Y21250D02*
X265750Y20000D01*
X272750D01*
X211500Y21250D02*
X212000D01*
X281500Y116250D02*
X282000D01*
X211500D02*
X212000D01*
X211500Y211250D02*
X212000D01*
X281500D02*
X282000D01*
X281500Y306250D02*
X282000D01*
X146500D02*
X147000D01*
D39*
X417000Y286500D02*
X426250D01*
X417000Y161500D02*
X426250D01*
X417000Y36500D02*
X426250D01*
D40*
X68000Y410235D02*
X78157D01*
X73078D01*
Y395000D01*
X85774D02*
X90853D01*
X93392Y397539D01*
Y402617D01*
X90853Y405157D01*
X85774D01*
X83235Y402617D01*
Y397539D01*
X85774Y395000D01*
X101009Y407696D02*
Y405157D01*
X98470D01*
X103548D01*
X101009D01*
Y397539D01*
X103548Y395000D01*
X113705Y405157D02*
X118784D01*
X121323Y402617D01*
Y395000D01*
X113705D01*
X111166Y397539D01*
X113705Y400078D01*
X121323D01*
X126401Y395000D02*
X131479D01*
X128940D01*
Y410235D01*
X126401D01*
X154332Y395000D02*
X161950D01*
X164489Y397539D01*
X161950Y400078D01*
X156871D01*
X154332Y402617D01*
X156871Y405157D01*
X164489D01*
X172106Y407696D02*
Y405157D01*
X169567D01*
X174646D01*
X172106D01*
Y397539D01*
X174646Y395000D01*
X184802Y405157D02*
X189881D01*
X192420Y402617D01*
Y395000D01*
X184802D01*
X182263Y397539D01*
X184802Y400078D01*
X192420D01*
X207655Y405157D02*
X200037D01*
X197498Y402617D01*
Y397539D01*
X200037Y395000D01*
X207655D01*
X212733D02*
Y410235D01*
Y400078D02*
X220351Y405157D01*
X212733Y400078D02*
X220351Y395000D01*
X227968Y405157D02*
Y397539D01*
X230507Y395000D01*
X238125D01*
Y405157D01*
X243203Y389922D02*
Y405157D01*
X250821D01*
X253360Y402617D01*
Y397539D01*
X250821Y395000D01*
X243203D01*
X273673D02*
X278752D01*
X276213D01*
Y405157D01*
X273673D01*
X286369Y395000D02*
X293987D01*
X296526Y397539D01*
X293987Y400078D01*
X288909D01*
X286369Y402617D01*
X288909Y405157D01*
X296526D01*
X316840Y395000D02*
Y405157D01*
X319379D01*
X321918Y402617D01*
Y395000D01*
Y402617D01*
X324457Y405157D01*
X326996Y402617D01*
Y395000D01*
X332075D02*
X337153D01*
X334614D01*
Y405157D01*
X332075D01*
X344770Y395000D02*
Y405157D01*
X352388D01*
X354927Y402617D01*
Y395000D01*
X375241D02*
X380319D01*
X377780D01*
Y410235D01*
X375241Y407696D01*
X387937Y395000D02*
Y397539D01*
X390476D01*
Y395000D01*
X387937D01*
X400632Y407696D02*
X403172Y410235D01*
X408250D01*
X410789Y407696D01*
Y405157D01*
X408250Y402617D01*
X410789Y400078D01*
Y397539D01*
X408250Y395000D01*
X403172D01*
X400632Y397539D01*
Y400078D01*
X403172Y402617D01*
X400632Y405157D01*
Y407696D01*
X403172Y402617D02*
X408250D01*
X415867Y395000D02*
Y405157D01*
X418407D01*
X420946Y402617D01*
Y395000D01*
Y402617D01*
X423485Y405157D01*
X426024Y402617D01*
Y395000D01*
X431102D02*
Y405157D01*
X433642D01*
X436181Y402617D01*
Y395000D01*
Y402617D01*
X438720Y405157D01*
X441259Y402617D01*
Y395000D01*
X448877Y392461D02*
X451416Y395000D01*
Y397539D01*
X448877D01*
Y395000D01*
X451416D01*
X448877Y392461D01*
X446338Y389922D01*
X476808Y395000D02*
Y405157D01*
X484425D01*
X486964Y402617D01*
Y395000D01*
X494582D02*
X499660D01*
X502200Y397539D01*
Y402617D01*
X499660Y405157D01*
X494582D01*
X492043Y402617D01*
Y397539D01*
X494582Y395000D01*
X507278D02*
Y405157D01*
X509817D01*
X512356Y402617D01*
Y395000D01*
Y402617D01*
X514895Y405157D01*
X517435Y402617D01*
Y395000D01*
X522513D02*
Y397539D01*
X525052D01*
Y395000D01*
X522513D01*
X560601D02*
X550444D01*
X560601Y405157D01*
Y407696D01*
X558061Y410235D01*
X552983D01*
X550444Y407696D01*
X565679Y395000D02*
Y397539D01*
X568218D01*
Y395000D01*
X565679D01*
X578375Y407696D02*
X580914Y410235D01*
X585992D01*
X588532Y407696D01*
Y397539D01*
X585992Y395000D01*
X580914D01*
X578375Y397539D01*
Y407696D01*
X593610Y395000D02*
Y405157D01*
X596149D01*
X598688Y402617D01*
Y395000D01*
Y402617D01*
X601227Y405157D01*
X603767Y402617D01*
Y395000D01*
X608845D02*
Y405157D01*
X611384D01*
X613923Y402617D01*
Y395000D01*
Y402617D01*
X616463Y405157D01*
X619002Y402617D01*
Y395000D01*
D41*
X-21250Y-1750D02*
D03*
Y-8250D02*
D03*
D42*
X617625Y168850D02*
D03*
D43*
X-5375Y-18250D02*
D03*
Y358750D02*
D03*
X592625Y-19250D02*
D03*
X592375Y358250D02*
D03*
D44*
X294750Y-29375D02*
D03*
D45*
X-24750Y168500D02*
D03*
D46*
X293500Y368500D02*
D03*
D47*
X27000Y155000D02*
D03*
Y65000D02*
D03*
Y200000D02*
D03*
Y290000D02*
D03*
D48*
X48650Y330650D02*
D03*
X538650Y6650D02*
D03*
Y330650D02*
D03*
D49*
X587300Y0D02*
D03*
Y337300D02*
D03*
X0D02*
D03*
Y0D02*
D03*
D50*
X559550Y284250D02*
D03*
Y54450D02*
D03*
X536950D02*
D03*
Y284250D02*
D03*
D51*
X566000Y137500D02*
D03*
X514000Y-6250D02*
D03*
X476750Y156250D02*
D03*
X347500Y61250D02*
D03*
X351750Y500D02*
D03*
X25500Y307250D02*
D03*
X41250Y306750D02*
D03*
X51750Y307000D02*
D03*
X152250Y104750D02*
D03*
X559000Y182000D02*
D03*
X541500Y181750D02*
D03*
X482250Y271000D02*
D03*
X141500Y81500D02*
D03*
X91250Y69500D02*
D03*
X141500Y70250D02*
D03*
X565750Y100250D02*
D03*
X566000Y86000D02*
D03*
X62250Y307000D02*
D03*
X171000Y167500D02*
D03*
X161000D02*
D03*
X285750Y5750D02*
D03*
X538500Y306250D02*
D03*
X528000D02*
D03*
X426250Y286500D02*
D03*
X417000D02*
D03*
X426250Y161500D02*
D03*
X417000D02*
D03*
X363000Y135500D02*
D03*
X-1750Y42000D02*
D03*
X73500Y315500D02*
D03*
X552750Y306250D02*
D03*
X36750Y361750D02*
D03*
X-12250Y42250D02*
D03*
X39250Y26000D02*
D03*
X538500Y-24750D02*
D03*
X612000Y287500D02*
D03*
X552250Y361750D02*
D03*
X-24750Y306500D02*
D03*
X611750Y32000D02*
D03*
X362500Y500D02*
D03*
X417000Y36500D02*
D03*
X426250D02*
D03*
X489750Y20000D02*
D03*
X479500Y319500D02*
D03*
X476750Y143950D02*
D03*
Y169983D02*
D03*
X475000Y260250D02*
D03*
X525000Y188500D02*
D03*
X456250Y243750D02*
D03*
X476750Y183000D02*
D03*
X286500Y21500D02*
D03*
X217000Y306250D02*
D03*
X77750Y328250D02*
D03*
X287000Y290500D02*
D03*
X575000Y287000D02*
D03*
X310750Y361750D02*
D03*
X59250Y-8250D02*
D03*
X153750Y-1250D02*
D03*
X575750Y62000D02*
D03*
X566000Y112000D02*
D03*
X-11750Y176750D02*
D03*
X-5500Y167250D02*
D03*
X471000Y20000D02*
D03*
X525000Y175750D02*
D03*
X566000Y73750D02*
D03*
X469000Y362250D02*
D03*
X104000Y230000D02*
D03*
X93750Y229750D02*
D03*
X104000Y240000D02*
D03*
X93750D02*
D03*
X27750Y-24750D02*
D03*
X286500Y268000D02*
D03*
D52*
X566250Y127000D02*
D03*
X220000Y255750D02*
D03*
X216250Y243500D02*
D03*
X566000Y149500D02*
D03*
X91750Y98500D02*
D03*
X276000Y100750D02*
D03*
Y195750D02*
D03*
X447500Y320500D02*
D03*
X26750Y277000D02*
D03*
Y259750D02*
D03*
X521500Y99750D02*
D03*
X508250Y65750D02*
D03*
X91750Y88250D02*
D03*
X342500Y264500D02*
D03*
X363000Y260500D02*
D03*
X394500Y315750D02*
D03*
X445250Y190500D02*
D03*
X394500Y190750D02*
D03*
X98250Y290750D02*
D03*
X163250D02*
D03*
X233250D02*
D03*
X206000Y195750D02*
D03*
X163250D02*
D03*
X233250D02*
D03*
Y100750D02*
D03*
X206000D02*
D03*
X163250D02*
D03*
X206000Y5750D02*
D03*
X163250D02*
D03*
X233250D02*
D03*
X276000D02*
D03*
X364000Y107500D02*
D03*
X340250Y336000D02*
D03*
X219250Y168250D02*
D03*
X287750Y343000D02*
D03*
X394500Y65750D02*
D03*
X445250Y66500D02*
D03*
X391500Y106250D02*
D03*
X493250Y65750D02*
D03*
X476750Y118500D02*
D03*
X525000Y163000D02*
D03*
X291750Y40000D02*
D03*
Y319250D02*
D03*
X141750Y290750D02*
D03*
X206750Y291000D02*
D03*
X277250Y290500D02*
D03*
X384000Y315750D02*
D03*
X348250Y169500D02*
D03*
X384500Y65750D02*
D03*
X384250Y190500D02*
D03*
X26500Y240250D02*
D03*
X215750Y152250D02*
D03*
X219500Y331750D02*
D03*
X216500Y343500D02*
D03*
X473750Y207250D02*
D03*
X347500Y44750D02*
D03*
X219250Y71000D02*
D03*
X320250Y230750D02*
D03*
D53*
X75500Y-4750D02*
D03*
X49250Y-2750D02*
D03*
X510000Y220250D02*
D03*
X282000Y30000D02*
D03*
X246750Y44750D02*
D03*
X167750Y20000D02*
D03*
X464000Y165250D02*
D03*
Y175250D02*
D03*
Y185000D02*
D03*
Y195000D02*
D03*
X176750Y45750D02*
D03*
X410250Y335750D02*
D03*
X418821Y335742D02*
D03*
X410250Y210750D02*
D03*
X418821Y210742D02*
D03*
X355500Y335750D02*
D03*
X363821Y335742D02*
D03*
X391321Y249743D02*
D03*
X355250Y210750D02*
D03*
X363821Y210742D02*
D03*
X391321Y124742D02*
D03*
X355750Y85750D02*
D03*
X363821Y85743D02*
D03*
X391321Y-258D02*
D03*
X108750Y287000D02*
D03*
Y297000D02*
D03*
X128250D02*
D03*
Y287000D02*
D03*
X139750Y343000D02*
D03*
Y329750D02*
D03*
X126250Y277000D02*
D03*
X147000Y305000D02*
D03*
Y315000D02*
D03*
Y323000D02*
D03*
X105500Y320750D02*
D03*
X97500Y314500D02*
D03*
X102750Y305000D02*
D03*
X141250Y277000D02*
D03*
X125750Y343000D02*
D03*
X126000Y317000D02*
D03*
Y309000D02*
D03*
X125750Y329750D02*
D03*
X118500Y297000D02*
D03*
Y287000D02*
D03*
X173750D02*
D03*
Y297000D02*
D03*
X193250D02*
D03*
X204750Y329750D02*
D03*
X191250Y277000D02*
D03*
X212000Y315000D02*
D03*
Y323000D02*
D03*
X162500Y314500D02*
D03*
X167750Y305000D02*
D03*
X206250Y277000D02*
D03*
X190750Y343000D02*
D03*
X191000Y317000D02*
D03*
Y309000D02*
D03*
X190750Y329750D02*
D03*
X183500Y297000D02*
D03*
Y287000D02*
D03*
X243750D02*
D03*
Y297000D02*
D03*
X232000Y328250D02*
D03*
Y342250D02*
D03*
X263250Y297000D02*
D03*
Y287000D02*
D03*
X261750Y277000D02*
D03*
X282000Y305000D02*
D03*
Y315000D02*
D03*
Y323000D02*
D03*
X240500Y320750D02*
D03*
X232500Y314500D02*
D03*
X237750Y305000D02*
D03*
X276750Y277000D02*
D03*
X261000Y317000D02*
D03*
Y309000D02*
D03*
X260750Y329750D02*
D03*
X253500Y297000D02*
D03*
Y287000D02*
D03*
X174750Y192000D02*
D03*
Y202000D02*
D03*
X162000Y233250D02*
D03*
Y247250D02*
D03*
X195250Y202000D02*
D03*
Y192000D02*
D03*
X204750Y235750D02*
D03*
X191750Y182000D02*
D03*
X212000Y210000D02*
D03*
Y220000D02*
D03*
Y228000D02*
D03*
X170500Y225750D02*
D03*
X162500Y219500D02*
D03*
X167750Y210000D02*
D03*
X206750Y182000D02*
D03*
X190750Y247750D02*
D03*
X191000Y222000D02*
D03*
Y214000D02*
D03*
X190750Y235750D02*
D03*
X185000Y202000D02*
D03*
Y192000D02*
D03*
X244750D02*
D03*
Y202000D02*
D03*
X232000Y233250D02*
D03*
X265250Y202000D02*
D03*
Y192000D02*
D03*
X274750Y248000D02*
D03*
Y235750D02*
D03*
X261750Y182000D02*
D03*
X282000Y210000D02*
D03*
Y220000D02*
D03*
Y228000D02*
D03*
X240500Y225750D02*
D03*
X232500Y219500D02*
D03*
X237750Y210000D02*
D03*
X276750Y182000D02*
D03*
X260750Y248000D02*
D03*
X261000Y222000D02*
D03*
Y214000D02*
D03*
X260750Y235750D02*
D03*
X255000Y202000D02*
D03*
Y192000D02*
D03*
X244750Y97000D02*
D03*
Y107000D02*
D03*
X265250D02*
D03*
Y97000D02*
D03*
X274750Y153000D02*
D03*
Y140750D02*
D03*
X246750D02*
D03*
X262250Y87000D02*
D03*
X282000Y115000D02*
D03*
Y125000D02*
D03*
Y133000D02*
D03*
X240500Y130750D02*
D03*
X232500Y124500D02*
D03*
X237750Y115000D02*
D03*
X277250Y87000D02*
D03*
X260750Y153000D02*
D03*
X261000Y127000D02*
D03*
Y119000D02*
D03*
X260750Y140750D02*
D03*
X255000Y107000D02*
D03*
Y97000D02*
D03*
X174750D02*
D03*
Y107000D02*
D03*
X162000Y138250D02*
D03*
Y152250D02*
D03*
X195250Y107000D02*
D03*
Y97000D02*
D03*
X204750Y140750D02*
D03*
X176750D02*
D03*
X192250Y87000D02*
D03*
X212000Y115000D02*
D03*
Y125000D02*
D03*
Y133000D02*
D03*
X170500Y130750D02*
D03*
X162500Y124500D02*
D03*
X167750Y115000D02*
D03*
X207250Y87000D02*
D03*
X191000Y127000D02*
D03*
Y119000D02*
D03*
X190750Y140750D02*
D03*
X185000Y107000D02*
D03*
Y97000D02*
D03*
X174750Y2000D02*
D03*
Y12000D02*
D03*
X162000Y43250D02*
D03*
Y57250D02*
D03*
X195250Y12000D02*
D03*
Y2000D02*
D03*
X204750Y45750D02*
D03*
X194500Y-8250D02*
D03*
X212000Y20000D02*
D03*
Y30000D02*
D03*
Y38000D02*
D03*
X170500Y35750D02*
D03*
X162500Y29500D02*
D03*
X209500Y-8250D02*
D03*
X191000Y32000D02*
D03*
Y24000D02*
D03*
X190750Y45750D02*
D03*
X185000Y12000D02*
D03*
Y2000D02*
D03*
X164250Y-8000D02*
D03*
X240500Y35750D02*
D03*
X232500Y29500D02*
D03*
X244750Y12000D02*
D03*
Y2000D02*
D03*
X265250Y12000D02*
D03*
X282000Y38000D02*
D03*
X265250Y2000D02*
D03*
X261250Y-8000D02*
D03*
X276250D02*
D03*
X237750Y20000D02*
D03*
X255000Y2000D02*
D03*
Y12000D02*
D03*
X261000Y32000D02*
D03*
Y24000D02*
D03*
X260750Y57750D02*
D03*
Y45750D02*
D03*
X-1250Y72000D02*
D03*
X-11250D02*
D03*
X119250Y236500D02*
D03*
X130000D02*
D03*
X119250Y246500D02*
D03*
X66500Y247000D02*
D03*
X79000Y237000D02*
D03*
X66500D02*
D03*
X41000Y105750D02*
D03*
X31000D02*
D03*
X76250Y103000D02*
D03*
X66250D02*
D03*
X76250Y80000D02*
D03*
X66250D02*
D03*
X136000Y165000D02*
D03*
Y153500D02*
D03*
X126000D02*
D03*
Y165000D02*
D03*
X130250Y177000D02*
D03*
X140250D02*
D03*
Y219000D02*
D03*
X130250D02*
D03*
X-12250Y198250D02*
D03*
Y188250D02*
D03*
X-12500Y149250D02*
D03*
Y139250D02*
D03*
Y123500D02*
D03*
X-750D02*
D03*
X-12500Y113500D02*
D03*
X-750D02*
D03*
X-1250Y98000D02*
D03*
X-12500Y95250D02*
D03*
Y85250D02*
D03*
X-1250Y88000D02*
D03*
X-1250Y62000D02*
D03*
X-11250D02*
D03*
X52000Y65500D02*
D03*
X102000Y68750D02*
D03*
X112750D02*
D03*
X123500D02*
D03*
Y58750D02*
D03*
X112750D02*
D03*
X102000D02*
D03*
X112750Y124750D02*
D03*
X113000Y163500D02*
D03*
X13750Y120000D02*
D03*
X-7000Y290750D02*
D03*
X10000D02*
D03*
X2000Y133750D02*
D03*
X112750Y149000D02*
D03*
X137000Y124750D02*
D03*
X123000D02*
D03*
Y140000D02*
D03*
X137000D02*
D03*
X2250Y145750D02*
D03*
X61500Y114250D02*
D03*
X47000Y75750D02*
D03*
X457500Y138750D02*
D03*
Y124750D02*
D03*
X99500Y9500D02*
D03*
X64500Y25250D02*
D03*
X31000Y91750D02*
D03*
Y77750D02*
D03*
X45500Y142750D02*
D03*
X35500Y131500D02*
D03*
X31000Y114400D02*
D03*
X78500Y9500D02*
D03*
X90500Y9000D02*
D03*
X73750Y25250D02*
D03*
X136750Y32000D02*
D03*
X70500Y131500D02*
D03*
X46250Y93750D02*
D03*
X128250Y189500D02*
D03*
X81250Y144750D02*
D03*
X58000Y168250D02*
D03*
X81750Y192000D02*
D03*
X45000Y191000D02*
D03*
X142250Y189500D02*
D03*
Y206500D02*
D03*
X128250D02*
D03*
X83500Y175750D02*
D03*
X113500Y182000D02*
D03*
X85500Y222750D02*
D03*
X112500Y31750D02*
D03*
X94500Y31500D02*
D03*
X68250Y1250D02*
D03*
X134500Y5750D02*
D03*
X66250Y90500D02*
D03*
X76250D02*
D03*
X327500Y28750D02*
D03*
X312250Y28500D02*
D03*
X312500Y1500D02*
D03*
X327750D02*
D03*
X326750Y86250D02*
D03*
X312500Y86500D02*
D03*
X327750Y59500D02*
D03*
X327250Y126500D02*
D03*
X312500D02*
D03*
Y153500D02*
D03*
X327500D02*
D03*
Y184500D02*
D03*
X312500D02*
D03*
Y211500D02*
D03*
X327750D02*
D03*
X327500Y251500D02*
D03*
X312250Y251750D02*
D03*
Y278750D02*
D03*
X327500D02*
D03*
X327750Y309750D02*
D03*
X312500Y336500D02*
D03*
X327500Y336250D02*
D03*
X472250Y99000D02*
D03*
X457000D02*
D03*
X471750Y44750D02*
D03*
X487000Y45000D02*
D03*
X487750Y-5500D02*
D03*
X472500D02*
D03*
X472750Y340000D02*
D03*
X488000Y340250D02*
D03*
X488500Y289500D02*
D03*
X473250D02*
D03*
X456750Y71250D02*
D03*
X472000Y71500D02*
D03*
X312750Y59500D02*
D03*
X274750Y57750D02*
D03*
Y45750D02*
D03*
Y343250D02*
D03*
X260750D02*
D03*
X176750Y247750D02*
D03*
X246750Y248000D02*
D03*
X176750Y152750D02*
D03*
X246750Y153000D02*
D03*
Y57750D02*
D03*
X274750Y329750D02*
D03*
X46250Y281750D02*
D03*
Y271750D02*
D03*
X78250Y274500D02*
D03*
X59250Y274750D02*
D03*
X68750Y291000D02*
D03*
X78250D02*
D03*
X59250D02*
D03*
X130000Y246500D02*
D03*
X11500Y231500D02*
D03*
Y239500D02*
D03*
X30625Y231500D02*
D03*
X11500Y220750D02*
D03*
X50000Y231500D02*
D03*
X-12250Y240250D02*
D03*
X409750Y85750D02*
D03*
X426750D02*
D03*
X508250Y143950D02*
D03*
X493250Y182050D02*
D03*
Y207450D02*
D03*
Y194750D02*
D03*
Y220150D02*
D03*
X35000Y48750D02*
D03*
X45000D02*
D03*
X313250Y309500D02*
D03*
X50500Y205000D02*
D03*
X50000Y257750D02*
D03*
X111750Y329250D02*
D03*
Y343250D02*
D03*
X96000Y342250D02*
D03*
Y328250D02*
D03*
X176750Y329500D02*
D03*
Y343250D02*
D03*
X161000Y342000D02*
D03*
Y328000D02*
D03*
X246750Y329500D02*
D03*
Y343250D02*
D03*
X232500Y247250D02*
D03*
X170500Y320750D02*
D03*
X176750Y58250D02*
D03*
X191000Y58000D02*
D03*
X506250Y207500D02*
D03*
X190750Y153000D02*
D03*
X233250Y152000D02*
D03*
X231000Y137750D02*
D03*
X231250Y43000D02*
D03*
X232500Y57000D02*
D03*
X176750Y234750D02*
D03*
X246750D02*
D03*
X15000Y98750D02*
D03*
Y108500D02*
D03*
X113750Y198500D02*
D03*
X117000Y190500D02*
D03*
X102000Y80750D02*
D03*
X112750D02*
D03*
Y90750D02*
D03*
X62750Y224750D02*
D03*
X60500Y205000D02*
D03*
X-3500Y278500D02*
D03*
X6500D02*
D03*
X21500Y180750D02*
D03*
X500Y183750D02*
D03*
X-6000Y206250D02*
D03*
X2750D02*
D03*
X38500Y241750D02*
D03*
X21500Y170750D02*
D03*
X91750Y114000D02*
D03*
X103750Y114250D02*
D03*
X141750Y45500D02*
D03*
X317000Y322750D02*
D03*
X193250Y287000D02*
D03*
X79000Y247000D02*
D03*
X72000Y113250D02*
D03*
X97000Y278000D02*
D03*
X113750Y277750D02*
D03*
X162000Y277500D02*
D03*
X178500D02*
D03*
X232500Y278000D02*
D03*
X249250Y277750D02*
D03*
X249500Y182500D02*
D03*
X162750D02*
D03*
X179500Y183000D02*
D03*
X181750Y-7750D02*
D03*
X162750Y87750D02*
D03*
X179000D02*
D03*
X232750D02*
D03*
X249000Y87000D02*
D03*
X232250Y-7500D02*
D03*
X248750D02*
D03*
X231000Y182000D02*
D03*
D54*
X508250Y258250D02*
D03*
Y245550D02*
D03*
X493250Y80450D02*
D03*
Y93150D02*
D03*
X508250D02*
D03*
Y80450D02*
D03*
Y105850D02*
D03*
X493250D02*
D03*
Y118550D02*
D03*
X508250D02*
D03*
Y131250D02*
D03*
X493250D02*
D03*
Y143950D02*
D03*
Y156650D02*
D03*
X508250D02*
D03*
Y169350D02*
D03*
X493250D02*
D03*
X508250Y182050D02*
D03*
Y194750D02*
D03*
X493250Y232850D02*
D03*
Y245550D02*
D03*
Y258250D02*
D03*
X508250Y232850D02*
D03*
D55*
X-32125Y318500D02*
D03*
D56*
X-33875Y27875D02*
D03*
D57*
X19625Y-25250D02*
D03*
X556625Y362250D02*
D03*
X32375D02*
D03*
X23375Y-29250D02*
D03*
D58*
X612000Y27875D02*
D03*
X538750Y-29125D02*
D03*
D59*
X621000Y168850D02*
D03*
D60*
X-18750Y342625D02*
D03*
X607750Y-5625D02*
D03*
X608000Y342875D02*
D03*
D61*
X-10000Y-18000D02*
D03*
D62*
X294250Y-33375D02*
D03*
D63*
X294000Y372000D02*
D03*
M02*
