G04 Layer_Color=8388736*
%FSLAX44Y44*%
%MOMM*%
G71*
G01*
G75*
%ADD99R,3.3032X3.0032*%
%ADD100R,2.1032X2.2032*%
%ADD101R,0.4032X0.7032*%
%ADD102R,1.2032X1.9032*%
G04:AMPARAMS|DCode=103|XSize=0.5032mm|YSize=1.0032mm|CornerRadius=0.1766mm|HoleSize=0mm|Usage=FLASHONLY|Rotation=270.000|XOffset=0mm|YOffset=0mm|HoleType=Round|Shape=RoundedRectangle|*
%AMROUNDEDRECTD103*
21,1,0.5032,0.6500,0,0,270.0*
21,1,0.1500,1.0032,0,0,270.0*
1,1,0.3532,-0.3250,-0.0750*
1,1,0.3532,-0.3250,0.0750*
1,1,0.3532,0.3250,0.0750*
1,1,0.3532,0.3250,-0.0750*
%
%ADD103ROUNDEDRECTD103*%
%ADD104R,1.3032X1.2032*%
%ADD105R,1.1032X1.0032*%
%ADD106R,0.9032X1.1032*%
%ADD107R,0.8032X1.1032*%
%ADD108R,1.1032X1.1032*%
%ADD109R,0.5032X0.6032*%
%ADD110R,1.3032X1.4032*%
%ADD111R,0.5032X0.9032*%
%ADD112R,0.8032X2.8032*%
%ADD113R,1.8532X2.6032*%
%ADD114R,6.2032X6.2032*%
G04:AMPARAMS|DCode=115|XSize=0.5032mm|YSize=1.2032mm|CornerRadius=0.2216mm|HoleSize=0mm|Usage=FLASHONLY|Rotation=90.000|XOffset=0mm|YOffset=0mm|HoleType=Round|Shape=RoundedRectangle|*
%AMROUNDEDRECTD115*
21,1,0.5032,0.7600,0,0,90.0*
21,1,0.0600,1.2032,0,0,90.0*
1,1,0.4432,0.3800,0.0300*
1,1,0.4432,0.3800,-0.0300*
1,1,0.4432,-0.3800,-0.0300*
1,1,0.4432,-0.3800,0.0300*
%
%ADD115ROUNDEDRECTD115*%
G04:AMPARAMS|DCode=116|XSize=0.5032mm|YSize=1.2032mm|CornerRadius=0.2216mm|HoleSize=0mm|Usage=FLASHONLY|Rotation=180.000|XOffset=0mm|YOffset=0mm|HoleType=Round|Shape=RoundedRectangle|*
%AMROUNDEDRECTD116*
21,1,0.5032,0.7600,0,0,180.0*
21,1,0.0600,1.2032,0,0,180.0*
1,1,0.4432,-0.0300,0.3800*
1,1,0.4432,0.0300,0.3800*
1,1,0.4432,0.0300,-0.3800*
1,1,0.4432,-0.0300,-0.3800*
%
%ADD116ROUNDEDRECTD116*%
%ADD117R,2.8032X1.3032*%
%ADD118R,0.8032X1.2532*%
%ADD119R,1.3432X0.9532*%
%ADD120R,0.8032X0.8032*%
%ADD121R,0.8032X0.8032*%
%ADD122R,1.2032X1.5032*%
%ADD123R,5.6032X1.7032*%
%ADD124C,1.3932*%
%ADD125C,3.2032*%
%ADD126C,6.2032*%
%ADD127C,1.7032*%
D99*
X363821Y85743D02*
D03*
X418821D02*
D03*
Y210742D02*
D03*
X363821D02*
D03*
Y335742D02*
D03*
X418821D02*
D03*
D100*
X391321Y-258D02*
D03*
Y124742D02*
D03*
Y249743D02*
D03*
D101*
X117250Y307500D02*
D03*
X182250D02*
D03*
X252250D02*
D03*
Y212500D02*
D03*
X182250D02*
D03*
X252250Y117500D02*
D03*
X182250D02*
D03*
X252250Y22500D02*
D03*
X182250D02*
D03*
D102*
X126000Y312500D02*
D03*
X191000D02*
D03*
X261000D02*
D03*
Y217500D02*
D03*
X191000D02*
D03*
X261000Y122500D02*
D03*
X191000D02*
D03*
X261000Y27500D02*
D03*
X191000D02*
D03*
D103*
X114250Y305000D02*
D03*
Y310000D02*
D03*
Y315000D02*
D03*
Y320000D02*
D03*
X137750D02*
D03*
Y315000D02*
D03*
Y310000D02*
D03*
Y305000D02*
D03*
X179250D02*
D03*
Y310000D02*
D03*
Y315000D02*
D03*
Y320000D02*
D03*
X202750D02*
D03*
Y315000D02*
D03*
Y310000D02*
D03*
Y305000D02*
D03*
X249250D02*
D03*
Y310000D02*
D03*
Y315000D02*
D03*
Y320000D02*
D03*
X272750D02*
D03*
Y315000D02*
D03*
Y310000D02*
D03*
Y305000D02*
D03*
X249250Y210000D02*
D03*
Y215000D02*
D03*
Y220000D02*
D03*
Y225000D02*
D03*
X272750D02*
D03*
Y220000D02*
D03*
Y215000D02*
D03*
Y210000D02*
D03*
X179250D02*
D03*
Y215000D02*
D03*
Y220000D02*
D03*
Y225000D02*
D03*
X202750D02*
D03*
Y220000D02*
D03*
Y215000D02*
D03*
Y210000D02*
D03*
X249250Y115000D02*
D03*
Y120000D02*
D03*
Y125000D02*
D03*
Y130000D02*
D03*
X272750D02*
D03*
Y125000D02*
D03*
Y120000D02*
D03*
Y115000D02*
D03*
X179250D02*
D03*
Y120000D02*
D03*
Y125000D02*
D03*
Y130000D02*
D03*
X202750D02*
D03*
Y125000D02*
D03*
Y120000D02*
D03*
Y115000D02*
D03*
X249250Y20000D02*
D03*
Y25000D02*
D03*
Y30000D02*
D03*
Y35000D02*
D03*
X272750D02*
D03*
Y30000D02*
D03*
Y25000D02*
D03*
Y20000D02*
D03*
X179250D02*
D03*
Y25000D02*
D03*
Y30000D02*
D03*
Y35000D02*
D03*
X202750D02*
D03*
Y30000D02*
D03*
Y25000D02*
D03*
Y20000D02*
D03*
X16000Y77250D02*
D03*
Y82250D02*
D03*
Y87250D02*
D03*
Y92250D02*
D03*
X46000D02*
D03*
Y87250D02*
D03*
Y82250D02*
D03*
Y77250D02*
D03*
D104*
X10000Y290750D02*
D03*
X-7000D02*
D03*
X112000Y31500D02*
D03*
X95000D02*
D03*
D105*
X97000Y328250D02*
D03*
Y342250D02*
D03*
X162000Y328250D02*
D03*
Y342250D02*
D03*
X232000Y328250D02*
D03*
Y342250D02*
D03*
X162000Y233250D02*
D03*
Y247250D02*
D03*
X232000Y233250D02*
D03*
Y247250D02*
D03*
Y138250D02*
D03*
Y152250D02*
D03*
X162000Y138250D02*
D03*
Y152250D02*
D03*
Y43250D02*
D03*
Y57250D02*
D03*
X232000Y43250D02*
D03*
Y57250D02*
D03*
X137000Y139000D02*
D03*
Y125000D02*
D03*
X123000Y139000D02*
D03*
Y125000D02*
D03*
X457500Y124750D02*
D03*
Y138750D02*
D03*
D106*
X126250Y277000D02*
D03*
X141250D02*
D03*
X191250D02*
D03*
X206250D02*
D03*
X261750D02*
D03*
X276750D02*
D03*
X261750Y182000D02*
D03*
X276750D02*
D03*
X191750D02*
D03*
X206750D02*
D03*
X262250Y87000D02*
D03*
X277250D02*
D03*
X192250D02*
D03*
X207250D02*
D03*
X261250Y-8000D02*
D03*
X276250D02*
D03*
X194500Y-8250D02*
D03*
X209500D02*
D03*
D107*
X139750Y341750D02*
D03*
Y330750D02*
D03*
X111750D02*
D03*
Y341750D02*
D03*
X204750D02*
D03*
Y330750D02*
D03*
X176750D02*
D03*
Y341750D02*
D03*
X274750D02*
D03*
Y330750D02*
D03*
X246750D02*
D03*
Y341750D02*
D03*
X274750Y246750D02*
D03*
Y235750D02*
D03*
X246750D02*
D03*
Y246750D02*
D03*
X204750D02*
D03*
Y235750D02*
D03*
X176750D02*
D03*
Y246750D02*
D03*
X274750Y151750D02*
D03*
Y140750D02*
D03*
X246750D02*
D03*
Y151750D02*
D03*
X204750D02*
D03*
Y140750D02*
D03*
X176750D02*
D03*
Y151750D02*
D03*
X274750Y56750D02*
D03*
Y45750D02*
D03*
X246750D02*
D03*
Y56750D02*
D03*
X204750D02*
D03*
Y45750D02*
D03*
X176750D02*
D03*
Y56750D02*
D03*
D108*
X125750Y330750D02*
D03*
Y341750D02*
D03*
X190750Y330750D02*
D03*
Y341750D02*
D03*
X260750Y330750D02*
D03*
Y341750D02*
D03*
Y235750D02*
D03*
Y246750D02*
D03*
X190750Y235750D02*
D03*
Y246750D02*
D03*
X260750Y140750D02*
D03*
Y151750D02*
D03*
X190750Y140750D02*
D03*
Y151750D02*
D03*
X260750Y45750D02*
D03*
Y56750D02*
D03*
X190750Y45750D02*
D03*
Y56750D02*
D03*
D109*
X125750Y336250D02*
D03*
X190750D02*
D03*
X260750D02*
D03*
Y241250D02*
D03*
X190750D02*
D03*
X260750Y146250D02*
D03*
X190750D02*
D03*
X260750Y51250D02*
D03*
X190750D02*
D03*
D110*
X142250Y189500D02*
D03*
Y206500D02*
D03*
X128250D02*
D03*
Y189500D02*
D03*
D111*
X94000Y17500D02*
D03*
X89000D02*
D03*
X84000D02*
D03*
X79000D02*
D03*
X74000D02*
D03*
X69000D02*
D03*
X64000D02*
D03*
X59000D02*
D03*
X54000D02*
D03*
X49000D02*
D03*
X99000D02*
D03*
X104000D02*
D03*
X109000D02*
D03*
X114000D02*
D03*
X119000D02*
D03*
X124000D02*
D03*
X129000D02*
D03*
X134000D02*
D03*
D112*
X145000Y-4500D02*
D03*
X38000D02*
D03*
D113*
X31000Y84750D02*
D03*
D114*
X58000Y168250D02*
D03*
D115*
X13000Y130750D02*
D03*
Y135750D02*
D03*
Y140750D02*
D03*
Y145750D02*
D03*
Y150750D02*
D03*
Y155750D02*
D03*
Y160750D02*
D03*
Y165750D02*
D03*
Y170750D02*
D03*
Y175750D02*
D03*
Y180750D02*
D03*
Y185750D02*
D03*
Y190750D02*
D03*
Y195750D02*
D03*
Y200750D02*
D03*
Y205750D02*
D03*
X103000D02*
D03*
Y200750D02*
D03*
Y195750D02*
D03*
Y190750D02*
D03*
Y185750D02*
D03*
Y180750D02*
D03*
Y175750D02*
D03*
Y170750D02*
D03*
Y165750D02*
D03*
Y160750D02*
D03*
Y155750D02*
D03*
Y150750D02*
D03*
Y145750D02*
D03*
Y140750D02*
D03*
Y135750D02*
D03*
Y130750D02*
D03*
D116*
X20500Y213250D02*
D03*
X25500D02*
D03*
X30500D02*
D03*
X35500D02*
D03*
X40500D02*
D03*
X45500D02*
D03*
X50500D02*
D03*
X55500D02*
D03*
X60500D02*
D03*
X65500D02*
D03*
X70500D02*
D03*
X75500D02*
D03*
X80500D02*
D03*
X85500D02*
D03*
X90500D02*
D03*
X95500D02*
D03*
Y123250D02*
D03*
X90500D02*
D03*
X85500D02*
D03*
X80500D02*
D03*
X75500D02*
D03*
X70500D02*
D03*
X65500D02*
D03*
X60500D02*
D03*
X55500D02*
D03*
X50500D02*
D03*
X45500D02*
D03*
X40500D02*
D03*
X35500D02*
D03*
X30500D02*
D03*
X25500D02*
D03*
X20500D02*
D03*
D117*
X465000Y98500D02*
D03*
Y71500D02*
D03*
X320000Y28500D02*
D03*
Y1500D02*
D03*
Y153500D02*
D03*
Y126500D02*
D03*
Y278500D02*
D03*
Y251500D02*
D03*
X320071Y86493D02*
D03*
Y59493D02*
D03*
Y211493D02*
D03*
Y184492D02*
D03*
Y336493D02*
D03*
Y309492D02*
D03*
D118*
X78250Y291000D02*
D03*
X68750D02*
D03*
X59250D02*
D03*
Y264000D02*
D03*
X68750D02*
D03*
X78250D02*
D03*
D119*
X493250Y80450D02*
D03*
Y93150D02*
D03*
Y105850D02*
D03*
Y118550D02*
D03*
Y131250D02*
D03*
Y143950D02*
D03*
Y156650D02*
D03*
Y169350D02*
D03*
Y182050D02*
D03*
Y194750D02*
D03*
Y207450D02*
D03*
Y220150D02*
D03*
Y232850D02*
D03*
Y245550D02*
D03*
Y258250D02*
D03*
X508850D02*
D03*
Y245550D02*
D03*
Y232850D02*
D03*
Y220150D02*
D03*
Y207450D02*
D03*
Y194750D02*
D03*
Y182050D02*
D03*
Y169350D02*
D03*
Y156650D02*
D03*
Y143950D02*
D03*
Y131250D02*
D03*
Y118550D02*
D03*
Y105850D02*
D03*
Y93150D02*
D03*
Y80450D02*
D03*
D120*
X464000Y165250D02*
D03*
Y175250D02*
D03*
Y195000D02*
D03*
Y185000D02*
D03*
X112750Y68750D02*
D03*
Y58750D02*
D03*
X102000Y68750D02*
D03*
Y58750D02*
D03*
X123500D02*
D03*
Y68750D02*
D03*
X130000Y246500D02*
D03*
Y236500D02*
D03*
X119250D02*
D03*
Y246500D02*
D03*
X-12250Y198250D02*
D03*
Y188250D02*
D03*
X-12500Y139250D02*
D03*
Y149250D02*
D03*
Y123500D02*
D03*
Y113500D02*
D03*
Y85250D02*
D03*
Y95250D02*
D03*
X-750Y113500D02*
D03*
Y123500D02*
D03*
X79000Y237000D02*
D03*
Y247000D02*
D03*
X66500D02*
D03*
Y237000D02*
D03*
X-1250Y88000D02*
D03*
Y98000D02*
D03*
X46250Y281750D02*
D03*
Y271750D02*
D03*
X174750Y12000D02*
D03*
Y2000D02*
D03*
X244750D02*
D03*
Y12000D02*
D03*
X174750Y107000D02*
D03*
Y97000D02*
D03*
X244750D02*
D03*
Y107000D02*
D03*
X174750Y202000D02*
D03*
Y192000D02*
D03*
X244750D02*
D03*
Y202000D02*
D03*
X244000Y297000D02*
D03*
Y287000D02*
D03*
X174000D02*
D03*
Y297000D02*
D03*
X109000D02*
D03*
Y287000D02*
D03*
X195250Y2000D02*
D03*
Y12000D02*
D03*
X265250D02*
D03*
Y2000D02*
D03*
X195250Y97000D02*
D03*
Y107000D02*
D03*
X265250D02*
D03*
Y97000D02*
D03*
X195250Y192000D02*
D03*
Y202000D02*
D03*
X265250D02*
D03*
Y192000D02*
D03*
X263500Y287000D02*
D03*
Y297000D02*
D03*
X193500D02*
D03*
Y287000D02*
D03*
X128500D02*
D03*
Y297000D02*
D03*
X112750Y90750D02*
D03*
Y80750D02*
D03*
X102000Y90750D02*
D03*
Y80750D02*
D03*
X123500D02*
D03*
Y90750D02*
D03*
X185000Y12000D02*
D03*
Y2000D02*
D03*
X255000D02*
D03*
Y12000D02*
D03*
X185000Y107000D02*
D03*
Y97000D02*
D03*
X255000D02*
D03*
Y107000D02*
D03*
X185000Y202000D02*
D03*
Y192000D02*
D03*
X255000D02*
D03*
Y202000D02*
D03*
X253750Y297000D02*
D03*
Y287000D02*
D03*
X183750D02*
D03*
Y297000D02*
D03*
X118750D02*
D03*
Y287000D02*
D03*
D121*
X35000Y48750D02*
D03*
X45000D02*
D03*
X126000Y153500D02*
D03*
X136000D02*
D03*
X126750Y32000D02*
D03*
X136750D02*
D03*
X130250Y177000D02*
D03*
X140250D02*
D03*
X130250Y219000D02*
D03*
X140250D02*
D03*
X136000Y165000D02*
D03*
X126000D02*
D03*
X-1250Y62000D02*
D03*
X-11250D02*
D03*
X66250Y103000D02*
D03*
X76250D02*
D03*
X41000Y105750D02*
D03*
X31000D02*
D03*
X6500Y278500D02*
D03*
X-3500D02*
D03*
X-1250Y72000D02*
D03*
X-11250D02*
D03*
X76250Y90500D02*
D03*
X66250D02*
D03*
X76250Y80000D02*
D03*
X66250D02*
D03*
D122*
X163750Y-10000D02*
D03*
X183750D02*
D03*
X160750Y85000D02*
D03*
X180750D02*
D03*
X231000D02*
D03*
X251000D02*
D03*
X161000Y180000D02*
D03*
X181000D02*
D03*
X230750D02*
D03*
X250750D02*
D03*
X230750Y275000D02*
D03*
X250750D02*
D03*
X160250D02*
D03*
X180250D02*
D03*
X95250D02*
D03*
X115250D02*
D03*
X230500Y-10000D02*
D03*
X250500D02*
D03*
D123*
X480000Y340000D02*
D03*
Y290000D02*
D03*
Y-5000D02*
D03*
Y45000D02*
D03*
D124*
X27000Y155000D02*
D03*
Y65000D02*
D03*
Y200000D02*
D03*
Y290000D02*
D03*
D125*
X48650Y330650D02*
D03*
X538650Y6650D02*
D03*
Y330650D02*
D03*
D126*
X587300Y0D02*
D03*
Y337300D02*
D03*
X0D02*
D03*
Y0D02*
D03*
D127*
X559550Y284250D02*
D03*
Y54450D02*
D03*
X536950D02*
D03*
Y284250D02*
D03*
M02*
