%FSLAX44Y44*%
%MOMM*%
G71*
G01*
G75*
G04 Layer_Color=65535*
%ADD10C,2.0000*%
%ADD11R,1.0000X1.1000*%
%ADD12R,1.2000X1.1000*%
%ADD13R,4.0000X4.0000*%
%ADD14R,0.6100X1.2700*%
%ADD15R,3.9100X3.7500*%
G04:AMPARAMS|DCode=16|XSize=4mm|YSize=10mm|CornerRadius=1mm|HoleSize=0mm|Usage=FLASHONLY|Rotation=0.000|XOffset=0mm|YOffset=0mm|HoleType=Round|Shape=RoundedRectangle|*
%AMROUNDEDRECTD16*
21,1,4.0000,8.0000,0,0,0.0*
21,1,2.0000,10.0000,0,0,0.0*
1,1,2.0000,1.0000,-4.0000*
1,1,2.0000,-1.0000,-4.0000*
1,1,2.0000,-1.0000,4.0000*
1,1,2.0000,1.0000,4.0000*
%
%ADD16ROUNDEDRECTD16*%
%ADD17R,0.9100X3.0000*%
%ADD18R,5.6000X6.3500*%
%ADD19R,1.0000X0.7000*%
%ADD20R,1.1000X1.1000*%
%ADD21R,1.1000X1.2000*%
%ADD22R,1.5000X1.9000*%
%ADD23R,4.5000X3.0000*%
%ADD24R,6.0000X6.0000*%
%ADD25R,6.0000X2.0000*%
%ADD26R,2.1000X3.0000*%
%ADD27R,0.8000X1.3000*%
%ADD28R,3.5000X1.4000*%
%ADD29R,1.4000X3.5000*%
%ADD30R,0.6500X1.0500*%
%ADD31R,2.0000X1.2000*%
%ADD32R,3.2000X1.0000*%
%ADD33R,2.2000X0.6000*%
%ADD34R,1.8000X3.6000*%
%ADD35C,0.6000*%
%ADD36C,0.5000*%
%ADD37C,0.2000*%
%ADD38C,0.3000*%
%ADD39C,3.0000*%
%ADD40C,0.8000*%
%ADD41C,1.0000*%
%ADD42C,0.9000*%
%ADD43C,2.5000*%
%ADD44R,7.4500X4.6250*%
%ADD45R,9.9750X4.0250*%
%ADD46R,5.1750X10.4000*%
%ADD47R,4.5050X10.5100*%
%ADD48R,6.0000X12.8250*%
%ADD49R,3.6750X7.1250*%
%ADD50R,4.4500X9.4500*%
%ADD51R,3.3500X4.9500*%
%ADD52R,2.7750X4.9500*%
%ADD53R,2.4750X3.0000*%
%ADD54R,1.6750X2.9750*%
%ADD55R,3.4750X1.4000*%
%ADD56R,1.9750X6.4580*%
%ADD57R,1.0000X0.5750*%
%ADD58R,6.0000X14.0500*%
%ADD59R,2.4000X2.8960*%
%ADD60R,6.1000X8.1000*%
%ADD61R,10.7750X4.8000*%
%ADD62R,7.8000X3.9750*%
%ADD63R,2.4320X7.9440*%
%ADD64R,3.8000X37.1000*%
%ADD65R,21.1000X4.0500*%
%ADD66R,10.8840X4.8000*%
%ADD67R,2.4000X6.0670*%
%ADD68R,52.1900X2.9500*%
%ADD69R,4.5050X14.9600*%
%ADD70R,0.9250X1.1250*%
%ADD71R,4.5300X15.0600*%
%ADD72R,4.3240X3.9600*%
%ADD73R,2.0500X3.1000*%
%ADD74R,2.0500X3.1500*%
%ADD75R,2.5750X2.6000*%
%ADD76R,2.0750X2.9750*%
%ADD77R,2.0500X2.4750*%
%ADD78R,2.5250X2.6750*%
%ADD79R,2.0750X1.9250*%
%ADD80R,2.0500X2.6500*%
%ADD81R,2.6500X3.9750*%
%ADD82R,2.0500X3.3750*%
%ADD83R,2.0500X3.8750*%
%ADD84R,2.0500X3.2750*%
%ADD85R,2.0500X3.4000*%
%ADD86R,2.0500X3.1250*%
%ADD87R,2.4250X1.3000*%
%ADD88R,22.6250X3.2250*%
%ADD89R,21.7000X7.1000*%
%ADD90R,3.2250X18.4000*%
%ADD91R,6.9750X10.0250*%
%ADD92R,1.5000X1.5000*%
%ADD93C,2.5000*%
%ADD94C,4.0000*%
%ADD95C,1.5000*%
%ADD96R,1.5000X1.5000*%
%ADD97C,0.8000*%
%ADD98C,1.0000*%
%ADD99C,1.2000*%
%ADD100C,6.0000*%
%ADD101C,1.7000*%
%ADD102C,1.8000*%
%ADD103C,0.6600*%
%ADD104C,1.5000*%
%ADD105C,0.4000*%
%ADD106C,0.2500*%
%ADD107R,3.3750X5.0250*%
%ADD108R,2.3750X1.3000*%
%ADD109R,2.4250X1.6250*%
%ADD110R,3.4250X0.7750*%
%ADD111R,2.6000X1.7250*%
%ADD112R,3.5250X0.8250*%
%ADD113R,2.4000X1.6250*%
%ADD114R,1.4500X2.4500*%
%ADD115R,2.6250X1.7750*%
%ADD116R,3.5250X0.9500*%
%ADD117R,3.3750X34.9250*%
%ADD118R,5.3250X2.3250*%
%ADD119R,6.0000X2.2500*%
%ADD120R,6.0750X2.3000*%
%ADD121C,5.8000*%
%ADD122C,1.0160*%
%ADD123C,1.9160*%
%ADD124C,2.0160*%
%ADD125C,1.3160*%
%ADD126C,1.5160*%
%ADD127C,1.6160*%
%ADD128C,1.8160*%
%ADD129C,0.2540*%
%ADD130C,3.5160*%
%ADD131C,3.2160*%
%ADD132C,4.0160*%
%ADD133C,1.3460*%
%ADD134R,2.3000X4.9750*%
%ADD135R,3.1000X1.5250*%
%ADD136R,2.5000X1.7250*%
%ADD137R,2.6750X1.7750*%
%ADD138R,3.6000X1.0000*%
%ADD139R,2.5250X1.6750*%
%ADD140R,1.5000X2.5250*%
%ADD141R,3.5500X0.8500*%
%ADD142R,2.7000X1.7500*%
%ADD143R,3.4250X1.0750*%
%ADD144R,3.5250X1.0500*%
%ADD145R,2.4250X1.7250*%
%ADD146R,2.4500X1.6500*%
%ADD147R,2.4500X1.2500*%
%ADD148R,5.3000X2.3000*%
%ADD149R,6.0250X2.3000*%
%ADD150R,6.0500X2.3250*%
%ADD151R,3.4250X34.9500*%
%ADD152C,0.2000*%
%ADD153R,1.1000X1.8000*%
%ADD154R,1.1000X1.1000*%
%ADD155R,6.0000X6.0000*%
%ADD156R,2.0000X6.0000*%
%ADD157R,2.4000X3.3000*%
%ADD158R,2.4000X1.0000*%
%ADD159R,1.4000X1.0000*%
%ADD160R,0.6500X1.1000*%
%ADD161R,0.9000X0.6500*%
%ADD162R,1.0000X1.4000*%
%ADD163R,1.5000X1.6000*%
%ADD164R,0.7000X1.3000*%
%ADD165R,1.1000X0.6500*%
%ADD166R,0.6000X1.8000*%
%ADD167R,1.3000X0.7000*%
%ADD168R,1.0500X0.6500*%
%ADD169O,1.8000X0.3000*%
%ADD170O,0.3000X1.8000*%
%ADD171O,1.7000X0.3500*%
%ADD172R,1.8000X0.6000*%
%ADD173R,1.9000X1.5000*%
%ADD174R,0.6500X0.9000*%
%ADD175R,2.5000X1.0000*%
%ADD176R,1.0500X1.0800*%
%ADD177O,0.6000X1.9500*%
%ADD178R,1.0800X1.0500*%
%ADD179R,0.5500X0.9500*%
%ADD180R,0.6000X0.8000*%
%ADD181R,0.8000X0.7000*%
%ADD182R,0.6500X3.0000*%
%ADD183R,0.7000X0.8000*%
%ADD184R,0.6500X2.2000*%
%ADD185R,1.0000X1.8000*%
%ADD186R,0.9000X0.7000*%
%ADD187R,0.7000X0.9000*%
%ADD188R,6.0000X3.0000*%
%ADD189R,2.6500X3.0250*%
%ADD190R,2.2500X3.0000*%
%ADD191R,5.4000X2.4750*%
%ADD192R,6.1250X2.4250*%
%ADD193R,6.2500X2.4250*%
%ADD194R,3.5000X3.9000*%
%ADD195R,1.3000X3.2000*%
%ADD196R,4.9000X1.5000*%
%ADD197R,1.7000X3.2000*%
%ADD198R,13.8000X1.3000*%
%ADD199R,3.1000X4.5000*%
%ADD200R,52.4000X2.9500*%
%ADD201R,2.7000X3.3000*%
%ADD202R,7.1000X2.5000*%
%ADD203R,4.9000X2.7000*%
%ADD204R,4.7000X1.9000*%
%ADD205R,2.7000X3.5000*%
%ADD206R,2.7000X2.7000*%
%ADD207R,2.7000X1.8000*%
%ADD208R,2.7000X1.9000*%
%ADD209R,2.7000X3.9000*%
%ADD210R,2.7000X3.6000*%
%ADD211R,32.3500X1.3000*%
%ADD212R,0.6100X3.1400*%
%ADD213R,3.2000X1.7100*%
%ADD214R,2.4800X2.0750*%
%ADD215R,0.6000X1.8000*%
%ADD216R,0.6000X2.8900*%
%ADD217R,1.4900X1.4000*%
%ADD218R,2.4800X2.0270*%
%ADD219R,2.4800X2.0440*%
%ADD220R,2.4800X2.1920*%
%ADD221R,2.4800X1.9810*%
%ADD222R,0.6000X2.3100*%
%ADD223R,2.4800X2.0650*%
%ADD224R,7.8750X3.0000*%
%ADD225R,2.7000X12.4250*%
%ADD226R,15.4900X3.0000*%
%ADD227R,2.4750X2.8750*%
%ADD228R,2.4750X2.9000*%
%ADD229R,2.4750X4.2000*%
%ADD230R,1.0250X3.6500*%
%ADD231R,3.5250X2.3500*%
%ADD232C,0.1524*%
%ADD233C,0.1000*%
%ADD234R,0.4064X0.8636*%
G36*
X657718Y821512D02*
X661900D01*
Y820427D01*
X657489Y814203D01*
X656533D01*
Y820427D01*
X655234D01*
Y821512D01*
X656533D01*
Y823810D01*
X657718D01*
Y821512D01*
D02*
G37*
G36*
X690665Y816766D02*
X690679Y816780D01*
X690736Y816837D01*
X690836Y816908D01*
X690964Y817023D01*
X691121Y817137D01*
X691321Y817280D01*
X691550Y817422D01*
X691792Y817579D01*
X691807D01*
X691821Y817594D01*
X691907Y817651D01*
X692035Y817722D01*
X692206Y817808D01*
X692392Y817908D01*
X692592Y817993D01*
X692806Y818093D01*
X693020Y818179D01*
Y817037D01*
X693006D01*
X692977Y817023D01*
X692920Y816994D01*
X692849Y816951D01*
X692763Y816908D01*
X692663Y816851D01*
X692435Y816723D01*
X692163Y816566D01*
X691878Y816380D01*
X691592Y816166D01*
X691307Y815923D01*
X691293Y815909D01*
X691278Y815895D01*
X691179Y815809D01*
X691050Y815681D01*
X690893Y815510D01*
X690722Y815310D01*
X690550Y815096D01*
X690379Y814867D01*
X690251Y814624D01*
X689480D01*
Y824260D01*
X690665D01*
Y816766D01*
D02*
G37*
G36*
X29453Y528921D02*
X29553Y528907D01*
X29682Y528892D01*
X29825Y528864D01*
X29982Y528821D01*
X30310Y528707D01*
X30481Y528635D01*
X30667Y528550D01*
X30852Y528436D01*
X31024Y528307D01*
X31195Y528164D01*
X31366Y528007D01*
X31381Y527993D01*
X31409Y527964D01*
X31452Y527907D01*
X31495Y527850D01*
X31566Y527750D01*
X31637Y527650D01*
X31723Y527522D01*
X31795Y527379D01*
X31880Y527222D01*
X31966Y527037D01*
X32037Y526851D01*
X32094Y526651D01*
X32151Y526423D01*
X32194Y526194D01*
X32223Y525952D01*
X32237Y525695D01*
Y525680D01*
Y525638D01*
Y525566D01*
X32223Y525481D01*
X32208Y525381D01*
X32194Y525252D01*
X32180Y525109D01*
X32137Y524952D01*
X32051Y524624D01*
X31923Y524267D01*
X31837Y524096D01*
X31737Y523910D01*
X31623Y523739D01*
X31495Y523582D01*
X31480Y523568D01*
X31466Y523554D01*
X31423Y523511D01*
X31352Y523454D01*
X31281Y523382D01*
X31195Y523311D01*
X31081Y523239D01*
X30966Y523154D01*
X30681Y522982D01*
X30338Y522840D01*
X29953Y522711D01*
X29753Y522668D01*
X29525Y522640D01*
X29368Y523825D01*
X29382D01*
X29411Y523839D01*
X29468Y523853D01*
X29539Y523867D01*
X29610Y523882D01*
X29710Y523910D01*
X29924Y523982D01*
X30167Y524082D01*
X30410Y524196D01*
X30638Y524339D01*
X30824Y524510D01*
X30838Y524538D01*
X30895Y524595D01*
X30966Y524696D01*
X31038Y524838D01*
X31124Y525009D01*
X31195Y525209D01*
X31252Y525438D01*
X31266Y525695D01*
Y525709D01*
Y525737D01*
Y525780D01*
X31252Y525838D01*
X31238Y525994D01*
X31195Y526194D01*
X31124Y526408D01*
X31024Y526651D01*
X30881Y526880D01*
X30695Y527108D01*
X30667Y527136D01*
X30595Y527194D01*
X30467Y527294D01*
X30310Y527393D01*
X30096Y527493D01*
X29853Y527593D01*
X29582Y527650D01*
X29282Y527679D01*
X29197D01*
X29139Y527665D01*
X28997Y527650D01*
X28811Y527607D01*
X28597Y527550D01*
X28368Y527450D01*
X28154Y527322D01*
X27940Y527136D01*
X27912Y527108D01*
X27855Y527037D01*
X27769Y526922D01*
X27669Y526765D01*
X27583Y526580D01*
X27498Y526351D01*
X27441Y526080D01*
X27412Y525795D01*
Y525780D01*
Y525737D01*
Y525666D01*
X27426Y525566D01*
X27441Y525452D01*
X27469Y525309D01*
X27498Y525152D01*
X27541Y524967D01*
X26498Y525095D01*
Y525109D01*
Y525167D01*
X26513Y525224D01*
Y525281D01*
Y525295D01*
Y525309D01*
Y525352D01*
Y525409D01*
X26498Y525552D01*
X26470Y525737D01*
X26413Y525952D01*
X26356Y526166D01*
X26256Y526408D01*
X26127Y526637D01*
Y526651D01*
X26113Y526665D01*
X26056Y526737D01*
X25956Y526837D01*
X25828Y526951D01*
X25656Y527051D01*
X25442Y527151D01*
X25199Y527222D01*
X25057Y527251D01*
X24800D01*
X24686Y527222D01*
X24543Y527194D01*
X24372Y527136D01*
X24186Y527065D01*
X24015Y526951D01*
X23843Y526808D01*
X23829Y526794D01*
X23772Y526722D01*
X23701Y526637D01*
X23629Y526494D01*
X23544Y526337D01*
X23486Y526137D01*
X23429Y525923D01*
X23415Y525666D01*
Y525652D01*
Y525638D01*
Y525552D01*
X23444Y525424D01*
X23472Y525266D01*
X23529Y525081D01*
X23601Y524895D01*
X23715Y524710D01*
X23858Y524524D01*
X23872Y524510D01*
X23943Y524453D01*
X24043Y524367D01*
X24172Y524282D01*
X24357Y524182D01*
X24586Y524082D01*
X24843Y523996D01*
X25142Y523939D01*
X24928Y522754D01*
X24914D01*
X24871Y522768D01*
X24814Y522783D01*
X24728Y522797D01*
X24643Y522826D01*
X24529Y522868D01*
X24257Y522954D01*
X23972Y523082D01*
X23658Y523254D01*
X23372Y523468D01*
X23101Y523725D01*
X23087Y523739D01*
X23073Y523768D01*
X23044Y523810D01*
X23001Y523867D01*
X22944Y523939D01*
X22887Y524025D01*
X22830Y524139D01*
X22773Y524253D01*
X22659Y524524D01*
X22544Y524852D01*
X22473Y525224D01*
X22445Y525424D01*
Y525638D01*
Y525652D01*
Y525666D01*
Y525709D01*
Y525766D01*
X22459Y525923D01*
X22487Y526109D01*
X22530Y526337D01*
X22587Y526580D01*
X22673Y526822D01*
X22787Y527079D01*
Y527094D01*
X22801Y527108D01*
X22844Y527194D01*
X22930Y527308D01*
X23030Y527465D01*
X23158Y527622D01*
X23330Y527793D01*
X23501Y527964D01*
X23715Y528107D01*
X23744Y528121D01*
X23815Y528164D01*
X23929Y528221D01*
X24086Y528293D01*
X24272Y528350D01*
X24471Y528407D01*
X24700Y528450D01*
X24943Y528464D01*
X25043D01*
X25171Y528450D01*
X25314Y528421D01*
X25499Y528378D01*
X25685Y528321D01*
X25885Y528236D01*
X26085Y528121D01*
X26113Y528107D01*
X26170Y528064D01*
X26256Y527979D01*
X26370Y527879D01*
X26498Y527736D01*
X26627Y527565D01*
X26770Y527365D01*
X26884Y527136D01*
Y527151D01*
X26898Y527179D01*
X26913Y527222D01*
X26927Y527279D01*
X26984Y527422D01*
X27055Y527622D01*
X27169Y527822D01*
X27312Y528050D01*
X27483Y528264D01*
X27698Y528450D01*
X27726Y528464D01*
X27812Y528521D01*
X27940Y528607D01*
X28126Y528692D01*
X28340Y528778D01*
X28611Y528864D01*
X28911Y528921D01*
X29239Y528935D01*
X29353D01*
X29453Y528921D01*
D02*
G37*
G36*
X471665Y816716D02*
X471679Y816730D01*
X471736Y816787D01*
X471836Y816858D01*
X471964Y816973D01*
X472122Y817087D01*
X472321Y817230D01*
X472550Y817372D01*
X472792Y817529D01*
X472807D01*
X472821Y817544D01*
X472907Y817601D01*
X473035Y817672D01*
X473206Y817758D01*
X473392Y817858D01*
X473592Y817943D01*
X473806Y818043D01*
X474020Y818129D01*
Y816987D01*
X474006D01*
X473977Y816973D01*
X473920Y816944D01*
X473849Y816901D01*
X473763Y816858D01*
X473663Y816801D01*
X473435Y816673D01*
X473164Y816516D01*
X472878Y816330D01*
X472593Y816116D01*
X472307Y815873D01*
X472293Y815859D01*
X472279Y815845D01*
X472179Y815759D01*
X472050Y815631D01*
X471893Y815460D01*
X471722Y815260D01*
X471550Y815045D01*
X471379Y814817D01*
X471251Y814575D01*
X470480D01*
Y824210D01*
X471665D01*
Y816716D01*
D02*
G37*
G36*
X220467Y821462D02*
X224650D01*
Y820377D01*
X220239Y814153D01*
X219283D01*
Y820377D01*
X217984D01*
Y821462D01*
X219283D01*
Y823760D01*
X220467D01*
Y821462D01*
D02*
G37*
G36*
X253415Y816716D02*
X253429Y816730D01*
X253486Y816787D01*
X253586Y816858D01*
X253714Y816973D01*
X253871Y817087D01*
X254071Y817230D01*
X254300Y817372D01*
X254542Y817529D01*
X254557D01*
X254571Y817544D01*
X254657Y817601D01*
X254785Y817672D01*
X254956Y817758D01*
X255142Y817858D01*
X255342Y817943D01*
X255556Y818043D01*
X255770Y818129D01*
Y816987D01*
X255756D01*
X255727Y816973D01*
X255670Y816944D01*
X255599Y816901D01*
X255513Y816858D01*
X255413Y816801D01*
X255185Y816673D01*
X254914Y816516D01*
X254628Y816330D01*
X254342Y816116D01*
X254057Y815873D01*
X254043Y815859D01*
X254028Y815845D01*
X253929Y815759D01*
X253800Y815631D01*
X253643Y815460D01*
X253472Y815260D01*
X253300Y815045D01*
X253129Y814817D01*
X253001Y814575D01*
X252230D01*
Y824210D01*
X253415D01*
Y816716D01*
D02*
G37*
G36*
X438718Y821462D02*
X442900D01*
Y820377D01*
X438489Y814153D01*
X437533D01*
Y820377D01*
X436234D01*
Y821462D01*
X437533D01*
Y823760D01*
X438718D01*
Y821462D01*
D02*
G37*
G36*
X91770Y-11510D02*
X90585D01*
Y-4016D01*
X90571Y-4030D01*
X90514Y-4087D01*
X90414Y-4159D01*
X90286Y-4273D01*
X90128Y-4387D01*
X89929Y-4530D01*
X89700Y-4672D01*
X89458Y-4829D01*
X89443D01*
X89429Y-4844D01*
X89343Y-4901D01*
X89215Y-4972D01*
X89044Y-5058D01*
X88858Y-5158D01*
X88658Y-5243D01*
X88444Y-5343D01*
X88230Y-5429D01*
Y-4287D01*
X88244D01*
X88273Y-4273D01*
X88330Y-4244D01*
X88401Y-4201D01*
X88487Y-4159D01*
X88587Y-4101D01*
X88815Y-3973D01*
X89087Y-3816D01*
X89372Y-3630D01*
X89657Y-3416D01*
X89943Y-3174D01*
X89957Y-3159D01*
X89972Y-3145D01*
X90071Y-3059D01*
X90200Y-2931D01*
X90357Y-2760D01*
X90528Y-2560D01*
X90700Y-2346D01*
X90871Y-2117D01*
X90999Y-1875D01*
X91770D01*
Y-11510D01*
D02*
G37*
G36*
X782717Y23323D02*
X784016D01*
Y22238D01*
X782717D01*
Y19940D01*
X781533D01*
Y22238D01*
X777350D01*
Y23323D01*
X781761Y29547D01*
X782717D01*
Y23323D01*
D02*
G37*
G36*
X749770Y19490D02*
X748585D01*
Y26984D01*
X748571Y26970D01*
X748514Y26913D01*
X748414Y26841D01*
X748286Y26727D01*
X748129Y26613D01*
X747929Y26470D01*
X747700Y26328D01*
X747458Y26171D01*
X747443D01*
X747429Y26156D01*
X747343Y26099D01*
X747215Y26028D01*
X747044Y25942D01*
X746858Y25842D01*
X746658Y25757D01*
X746444Y25657D01*
X746230Y25571D01*
Y26713D01*
X746244D01*
X746273Y26727D01*
X746330Y26756D01*
X746401Y26799D01*
X746487Y26841D01*
X746587Y26899D01*
X746815Y27027D01*
X747086Y27184D01*
X747372Y27370D01*
X747657Y27584D01*
X747943Y27826D01*
X747957Y27841D01*
X747971Y27855D01*
X748072Y27941D01*
X748200Y28069D01*
X748357Y28240D01*
X748528Y28440D01*
X748699Y28654D01*
X748871Y28883D01*
X748999Y29125D01*
X749770D01*
Y19490D01*
D02*
G37*
G36*
X149640Y-2379D02*
X149740D01*
X149854Y-2393D01*
X150111Y-2450D01*
X150411Y-2521D01*
X150725Y-2636D01*
X151025Y-2793D01*
X151167Y-2893D01*
X151310Y-3007D01*
X151325D01*
X151339Y-3035D01*
X151382Y-3078D01*
X151424Y-3121D01*
X151553Y-3264D01*
X151696Y-3464D01*
X151853Y-3721D01*
X151995Y-4020D01*
X152110Y-4363D01*
X152195Y-4763D01*
X151025Y-4848D01*
Y-4834D01*
X151010Y-4820D01*
X150996Y-4734D01*
X150953Y-4620D01*
X150911Y-4463D01*
X150839Y-4306D01*
X150753Y-4135D01*
X150668Y-3978D01*
X150568Y-3849D01*
X150539Y-3821D01*
X150482Y-3763D01*
X150382Y-3692D01*
X150240Y-3592D01*
X150068Y-3492D01*
X149868Y-3421D01*
X149640Y-3364D01*
X149383Y-3335D01*
X149283D01*
X149183Y-3350D01*
X149040Y-3378D01*
X148883Y-3407D01*
X148727Y-3464D01*
X148555Y-3549D01*
X148384Y-3649D01*
X148355Y-3663D01*
X148298Y-3721D01*
X148184Y-3821D01*
X148070Y-3949D01*
X147927Y-4120D01*
X147770Y-4334D01*
X147627Y-4577D01*
X147499Y-4848D01*
Y-4863D01*
X147485Y-4877D01*
X147470Y-4934D01*
X147442Y-4991D01*
X147428Y-5077D01*
X147399Y-5162D01*
X147370Y-5277D01*
X147342Y-5419D01*
X147299Y-5562D01*
X147270Y-5733D01*
X147242Y-5905D01*
X147228Y-6105D01*
X147199Y-6319D01*
X147185Y-6547D01*
X147170Y-6804D01*
Y-7047D01*
X147185Y-7032D01*
X147242Y-6961D01*
X147327Y-6847D01*
X147456Y-6704D01*
X147599Y-6547D01*
X147784Y-6390D01*
X147984Y-6233D01*
X148198Y-6105D01*
X148213D01*
X148227Y-6090D01*
X148313Y-6047D01*
X148427Y-6005D01*
X148598Y-5933D01*
X148798Y-5876D01*
X149012Y-5833D01*
X149255Y-5791D01*
X149497Y-5776D01*
X149612D01*
X149697Y-5791D01*
X149797Y-5805D01*
X149911Y-5819D01*
X150197Y-5890D01*
X150511Y-5990D01*
X150682Y-6062D01*
X150853Y-6147D01*
X151010Y-6247D01*
X151182Y-6362D01*
X151353Y-6490D01*
X151510Y-6647D01*
X151524Y-6661D01*
X151553Y-6690D01*
X151581Y-6733D01*
X151638Y-6804D01*
X151710Y-6890D01*
X151781Y-6989D01*
X151853Y-7118D01*
X151938Y-7247D01*
X152010Y-7404D01*
X152081Y-7575D01*
X152152Y-7760D01*
X152224Y-7960D01*
X152281Y-8174D01*
X152309Y-8403D01*
X152338Y-8631D01*
X152352Y-8888D01*
Y-8902D01*
Y-8931D01*
Y-8974D01*
Y-9045D01*
X152338Y-9117D01*
Y-9216D01*
X152309Y-9431D01*
X152252Y-9688D01*
X152181Y-9973D01*
X152081Y-10273D01*
X151953Y-10573D01*
Y-10587D01*
X151938Y-10601D01*
X151910Y-10644D01*
X151881Y-10701D01*
X151796Y-10844D01*
X151681Y-11015D01*
X151524Y-11201D01*
X151339Y-11401D01*
X151125Y-11586D01*
X150882Y-11757D01*
X150868D01*
X150853Y-11772D01*
X150811Y-11800D01*
X150768Y-11814D01*
X150625Y-11886D01*
X150440Y-11957D01*
X150211Y-12029D01*
X149940Y-12100D01*
X149654Y-12143D01*
X149340Y-12157D01*
X149269D01*
X149198Y-12143D01*
X149098D01*
X148969Y-12128D01*
X148826Y-12100D01*
X148655Y-12071D01*
X148484Y-12029D01*
X148298Y-11971D01*
X148098Y-11900D01*
X147899Y-11814D01*
X147699Y-11700D01*
X147499Y-11586D01*
X147299Y-11443D01*
X147113Y-11272D01*
X146928Y-11086D01*
X146914Y-11072D01*
X146885Y-11029D01*
X146842Y-10972D01*
X146785Y-10872D01*
X146714Y-10758D01*
X146628Y-10615D01*
X146557Y-10430D01*
X146471Y-10230D01*
X146371Y-10001D01*
X146300Y-9745D01*
X146214Y-9445D01*
X146143Y-9117D01*
X146086Y-8774D01*
X146043Y-8389D01*
X146014Y-7960D01*
X146000Y-7518D01*
Y-7503D01*
Y-7489D01*
Y-7446D01*
Y-7389D01*
X146014Y-7247D01*
Y-7061D01*
X146028Y-6833D01*
X146057Y-6576D01*
X146086Y-6276D01*
X146129Y-5962D01*
X146186Y-5633D01*
X146257Y-5305D01*
X146328Y-4963D01*
X146428Y-4634D01*
X146557Y-4306D01*
X146685Y-4006D01*
X146842Y-3721D01*
X147028Y-3464D01*
X147042Y-3449D01*
X147071Y-3421D01*
X147128Y-3364D01*
X147199Y-3292D01*
X147285Y-3207D01*
X147399Y-3121D01*
X147527Y-3021D01*
X147670Y-2907D01*
X147827Y-2807D01*
X148013Y-2707D01*
X148213Y-2621D01*
X148427Y-2536D01*
X148669Y-2464D01*
X148912Y-2407D01*
X149169Y-2379D01*
X149454Y-2365D01*
X149569D01*
X149640Y-2379D01*
D02*
G37*
G36*
X4382Y528007D02*
X6680D01*
Y526822D01*
X4382D01*
Y522640D01*
X3297D01*
X-2927Y527051D01*
Y528007D01*
X3297D01*
Y529306D01*
X4382D01*
Y528007D01*
D02*
G37*
G36*
X6680Y461694D02*
X6523D01*
X6423Y461708D01*
X6295Y461723D01*
X6166Y461737D01*
X6009Y461780D01*
X5866Y461823D01*
X5852D01*
X5838Y461837D01*
X5752Y461866D01*
X5624Y461923D01*
X5467Y462008D01*
X5267Y462122D01*
X5053Y462251D01*
X4824Y462408D01*
X4596Y462593D01*
X4582D01*
X4567Y462622D01*
X4482Y462693D01*
X4353Y462822D01*
X4182Y462993D01*
X3968Y463207D01*
X3711Y463479D01*
X3440Y463793D01*
X3140Y464149D01*
X3126Y464164D01*
X3083Y464221D01*
X3011Y464292D01*
X2926Y464406D01*
X2826Y464535D01*
X2697Y464678D01*
X2397Y464992D01*
X2084Y465349D01*
X1741Y465691D01*
X1570Y465862D01*
X1413Y466005D01*
X1256Y466148D01*
X1113Y466262D01*
X1098D01*
X1084Y466291D01*
X1041Y466319D01*
X984Y466348D01*
X842Y466433D01*
X656Y466548D01*
X428Y466647D01*
X185Y466733D01*
X-58Y466790D01*
X-315Y466819D01*
X-343D01*
X-429Y466805D01*
X-557Y466790D01*
X-729Y466762D01*
X-914Y466690D01*
X-1114Y466605D01*
X-1314Y466476D01*
X-1499Y466305D01*
X-1514Y466276D01*
X-1571Y466219D01*
X-1656Y466105D01*
X-1742Y465962D01*
X-1828Y465762D01*
X-1913Y465548D01*
X-1971Y465291D01*
X-1985Y465006D01*
Y464992D01*
Y464963D01*
Y464920D01*
X-1971Y464863D01*
X-1956Y464706D01*
X-1913Y464521D01*
X-1856Y464292D01*
X-1756Y464064D01*
X-1628Y463835D01*
X-1457Y463635D01*
X-1428Y463621D01*
X-1357Y463564D01*
X-1243Y463479D01*
X-1085Y463393D01*
X-886Y463293D01*
X-643Y463222D01*
X-358Y463164D01*
X-44Y463136D01*
X-172Y461923D01*
X-229D01*
X-300Y461937D01*
X-400Y461951D01*
X-514Y461980D01*
X-643Y462008D01*
X-943Y462080D01*
X-1271Y462194D01*
X-1614Y462365D01*
X-1785Y462465D01*
X-1942Y462579D01*
X-2099Y462708D01*
X-2242Y462850D01*
X-2256Y462865D01*
X-2270Y462893D01*
X-2313Y462936D01*
X-2356Y462993D01*
X-2413Y463079D01*
X-2470Y463179D01*
X-2527Y463293D01*
X-2599Y463436D01*
X-2670Y463578D01*
X-2727Y463736D01*
X-2784Y463921D01*
X-2841Y464121D01*
X-2884Y464321D01*
X-2927Y464549D01*
X-2941Y464777D01*
X-2955Y465034D01*
Y465049D01*
Y465092D01*
Y465163D01*
X-2941Y465263D01*
X-2927Y465377D01*
X-2913Y465520D01*
X-2898Y465663D01*
X-2856Y465834D01*
X-2770Y466176D01*
X-2627Y466548D01*
X-2542Y466719D01*
X-2442Y466890D01*
X-2327Y467062D01*
X-2185Y467219D01*
X-2170Y467233D01*
X-2156Y467247D01*
X-2113Y467290D01*
X-2042Y467347D01*
X-1971Y467404D01*
X-1885Y467476D01*
X-1771Y467547D01*
X-1656Y467632D01*
X-1385Y467775D01*
X-1057Y467904D01*
X-886Y467961D01*
X-686Y468004D01*
X-500Y468018D01*
X-286Y468032D01*
X-186D01*
X-72Y468018D01*
X71Y468004D01*
X256Y467975D01*
X442Y467932D01*
X642Y467875D01*
X856Y467789D01*
X884Y467775D01*
X956Y467747D01*
X1056Y467690D01*
X1198Y467604D01*
X1384Y467490D01*
X1584Y467361D01*
X1798Y467190D01*
X2026Y467004D01*
X2055Y466976D01*
X2141Y466904D01*
X2198Y466847D01*
X2283Y466762D01*
X2369Y466676D01*
X2469Y466576D01*
X2583Y466462D01*
X2712Y466319D01*
X2840Y466176D01*
X2997Y466005D01*
X3154Y465834D01*
X3325Y465634D01*
X3511Y465420D01*
X3711Y465191D01*
X3725Y465177D01*
X3754Y465149D01*
X3796Y465092D01*
X3854Y465020D01*
X4011Y464849D01*
X4196Y464621D01*
X4396Y464392D01*
X4596Y464178D01*
X4781Y463978D01*
X4853Y463907D01*
X4924Y463835D01*
X4938Y463821D01*
X4981Y463793D01*
X5038Y463736D01*
X5124Y463664D01*
X5210Y463578D01*
X5324Y463493D01*
X5552Y463336D01*
Y468046D01*
X6680D01*
Y461694D01*
D02*
G37*
G36*
X32080Y464035D02*
X24586D01*
X24600Y464021D01*
X24657Y463964D01*
X24728Y463864D01*
X24843Y463736D01*
X24957Y463578D01*
X25100Y463379D01*
X25242Y463150D01*
X25399Y462907D01*
Y462893D01*
X25414Y462879D01*
X25471Y462793D01*
X25542Y462665D01*
X25628Y462494D01*
X25728Y462308D01*
X25813Y462108D01*
X25913Y461894D01*
X25999Y461680D01*
X24857D01*
Y461694D01*
X24843Y461723D01*
X24814Y461780D01*
X24771Y461851D01*
X24728Y461937D01*
X24671Y462037D01*
X24543Y462265D01*
X24386Y462536D01*
X24200Y462822D01*
X23986Y463107D01*
X23744Y463393D01*
X23729Y463407D01*
X23715Y463421D01*
X23629Y463521D01*
X23501Y463650D01*
X23330Y463807D01*
X23130Y463978D01*
X22915Y464149D01*
X22687Y464321D01*
X22445Y464449D01*
Y465220D01*
X32080D01*
Y464035D01*
D02*
G37*
G36*
X581164Y816716D02*
X581178Y816730D01*
X581235Y816787D01*
X581335Y816858D01*
X581464Y816973D01*
X581621Y817087D01*
X581821Y817230D01*
X582049Y817372D01*
X582292Y817529D01*
X582306D01*
X582320Y817544D01*
X582406Y817601D01*
X582534Y817672D01*
X582706Y817758D01*
X582891Y817858D01*
X583091Y817943D01*
X583305Y818043D01*
X583519Y818129D01*
Y816987D01*
X583505D01*
X583476Y816973D01*
X583419Y816944D01*
X583348Y816901D01*
X583262Y816858D01*
X583162Y816801D01*
X582934Y816673D01*
X582663Y816516D01*
X582377Y816330D01*
X582092Y816116D01*
X581806Y815873D01*
X581792Y815859D01*
X581778Y815845D01*
X581678Y815759D01*
X581549Y815631D01*
X581392Y815460D01*
X581221Y815260D01*
X581050Y815045D01*
X580878Y814817D01*
X580750Y814574D01*
X579979D01*
Y824210D01*
X581164D01*
Y816716D01*
D02*
G37*
G36*
X469535Y675881D02*
X472189D01*
Y674764D01*
X469535D01*
Y672081D01*
X468404D01*
Y674764D01*
X465750D01*
Y675881D01*
X468404D01*
Y678535D01*
X469535D01*
Y675881D01*
D02*
G37*
G36*
X739535Y674881D02*
X742189D01*
Y673764D01*
X739535D01*
Y671081D01*
X738404D01*
Y673764D01*
X735750D01*
Y674881D01*
X738404D01*
Y677535D01*
X739535D01*
Y674881D01*
D02*
G37*
G36*
X144415Y816716D02*
X144429Y816730D01*
X144486Y816787D01*
X144586Y816858D01*
X144714Y816973D01*
X144871Y817087D01*
X145071Y817230D01*
X145300Y817372D01*
X145542Y817529D01*
X145557D01*
X145571Y817544D01*
X145656Y817601D01*
X145785Y817672D01*
X145956Y817758D01*
X146142Y817858D01*
X146342Y817943D01*
X146556Y818043D01*
X146770Y818129D01*
Y816987D01*
X146756D01*
X146727Y816973D01*
X146670Y816944D01*
X146599Y816901D01*
X146513Y816858D01*
X146413Y816801D01*
X146185Y816673D01*
X145913Y816516D01*
X145628Y816330D01*
X145342Y816116D01*
X145057Y815873D01*
X145043Y815859D01*
X145028Y815845D01*
X144929Y815759D01*
X144800Y815631D01*
X144643Y815460D01*
X144472Y815260D01*
X144300Y815045D01*
X144129Y814817D01*
X144001Y814575D01*
X143230D01*
Y824210D01*
X144415D01*
Y816716D01*
D02*
G37*
G36*
X111467Y821462D02*
X115650D01*
Y820377D01*
X111239Y814153D01*
X110283D01*
Y820377D01*
X108984D01*
Y821462D01*
X110283D01*
Y823760D01*
X111467D01*
Y821462D01*
D02*
G37*
G36*
X414535Y18131D02*
X417189D01*
Y17014D01*
X414535D01*
Y14331D01*
X413404D01*
Y17014D01*
X410750D01*
Y18131D01*
X413404D01*
Y20785D01*
X414535D01*
Y18131D01*
D02*
G37*
G36*
X687535Y20131D02*
X690190D01*
Y19014D01*
X687535D01*
Y16331D01*
X686404D01*
Y19014D01*
X683750D01*
Y20131D01*
X686404D01*
Y22785D01*
X687535D01*
Y20131D01*
D02*
G37*
G36*
X197035Y676631D02*
X199690D01*
Y675514D01*
X197035D01*
Y672831D01*
X195904D01*
Y675514D01*
X193250D01*
Y676631D01*
X195904D01*
Y679285D01*
X197035D01*
Y676631D01*
D02*
G37*
G36*
X-15715Y70381D02*
X-13060D01*
Y69264D01*
X-15715D01*
Y66581D01*
X-16846D01*
Y69264D01*
X-19500D01*
Y70381D01*
X-16846D01*
Y73035D01*
X-15715D01*
Y70381D01*
D02*
G37*
G36*
X329718Y821462D02*
X333900D01*
Y820377D01*
X329489Y814153D01*
X328533D01*
Y820377D01*
X327234D01*
Y821462D01*
X328533D01*
Y823760D01*
X329718D01*
Y821462D01*
D02*
G37*
G36*
X362665Y816716D02*
X362679Y816730D01*
X362736Y816787D01*
X362836Y816858D01*
X362965Y816973D01*
X363121Y817087D01*
X363321Y817230D01*
X363550Y817372D01*
X363792Y817529D01*
X363807D01*
X363821Y817544D01*
X363907Y817601D01*
X364035Y817672D01*
X364206Y817758D01*
X364392Y817858D01*
X364592Y817943D01*
X364806Y818043D01*
X365020Y818129D01*
Y816987D01*
X365006D01*
X364977Y816973D01*
X364920Y816944D01*
X364849Y816901D01*
X364763Y816858D01*
X364663Y816801D01*
X364435Y816673D01*
X364164Y816516D01*
X363878Y816330D01*
X363593Y816116D01*
X363307Y815873D01*
X363293Y815859D01*
X363279Y815845D01*
X363179Y815759D01*
X363050Y815631D01*
X362893Y815460D01*
X362722Y815260D01*
X362551Y815045D01*
X362379Y814817D01*
X362251Y814575D01*
X361480D01*
Y824210D01*
X362665D01*
Y816716D01*
D02*
G37*
G36*
X548217Y821462D02*
X552399D01*
Y820377D01*
X547988Y814153D01*
X547032D01*
Y820377D01*
X545733D01*
Y821462D01*
X547032D01*
Y823760D01*
X548217D01*
Y821462D01*
D02*
G37*
%LPC*%
G36*
X781533Y27620D02*
X778506Y23323D01*
X781533D01*
Y27620D01*
D02*
G37*
G36*
X551243Y820377D02*
X548217D01*
Y816080D01*
X551243Y820377D01*
D02*
G37*
G36*
X223494Y820377D02*
X220467D01*
Y816080D01*
X223494Y820377D01*
D02*
G37*
G36*
X332744D02*
X329718D01*
Y816080D01*
X332744Y820377D01*
D02*
G37*
G36*
X149269Y-6818D02*
X149198D01*
X149140Y-6833D01*
X148983Y-6847D01*
X148798Y-6890D01*
X148584Y-6961D01*
X148355Y-7061D01*
X148127Y-7204D01*
X147913Y-7404D01*
X147884Y-7432D01*
X147827Y-7503D01*
X147741Y-7632D01*
X147642Y-7803D01*
X147527Y-8017D01*
X147442Y-8274D01*
X147385Y-8560D01*
X147356Y-8888D01*
Y-8917D01*
Y-8988D01*
X147370Y-9117D01*
X147385Y-9259D01*
X147413Y-9445D01*
X147470Y-9645D01*
X147527Y-9844D01*
X147613Y-10059D01*
X147627Y-10087D01*
X147656Y-10144D01*
X147713Y-10244D01*
X147799Y-10373D01*
X147899Y-10515D01*
X148027Y-10644D01*
X148170Y-10787D01*
X148327Y-10901D01*
X148355Y-10915D01*
X148412Y-10944D01*
X148498Y-10986D01*
X148627Y-11044D01*
X148769Y-11101D01*
X148941Y-11143D01*
X149126Y-11172D01*
X149312Y-11186D01*
X149383D01*
X149440Y-11172D01*
X149583Y-11158D01*
X149754Y-11115D01*
X149954Y-11044D01*
X150168Y-10929D01*
X150397Y-10787D01*
X150597Y-10587D01*
X150625Y-10558D01*
X150682Y-10473D01*
X150768Y-10344D01*
X150868Y-10159D01*
X150968Y-9930D01*
X151053Y-9645D01*
X151110Y-9331D01*
X151139Y-8960D01*
Y-8945D01*
Y-8917D01*
Y-8860D01*
X151125Y-8802D01*
Y-8717D01*
X151110Y-8617D01*
X151067Y-8389D01*
X151010Y-8146D01*
X150911Y-7889D01*
X150782Y-7632D01*
X150611Y-7404D01*
X150582Y-7375D01*
X150511Y-7318D01*
X150397Y-7218D01*
X150240Y-7104D01*
X150054Y-7004D01*
X149826Y-6904D01*
X149554Y-6847D01*
X149269Y-6818D01*
D02*
G37*
G36*
X3297Y526822D02*
X-1000D01*
X3297Y523796D01*
Y526822D01*
D02*
G37*
G36*
X114494Y820377D02*
X111467D01*
Y816080D01*
X114494Y820377D01*
D02*
G37*
G36*
X441744D02*
X438718D01*
Y816080D01*
X441744Y820377D01*
D02*
G37*
G36*
X660744Y820427D02*
X657718D01*
Y816130D01*
X660744Y820427D01*
D02*
G37*
%LPD*%
D37*
X281000Y382000D02*
Y410000D01*
X281000Y382000D02*
X309000D01*
Y410000D01*
X281000Y410000D02*
X309000D01*
X503100Y133400D02*
Y137400D01*
X494100Y133400D02*
Y137400D01*
X487100Y133400D02*
Y137400D01*
X478100Y133400D02*
Y137400D01*
X462000Y132750D02*
Y136750D01*
X471000Y132750D02*
Y136750D01*
X231600Y133150D02*
Y137150D01*
X222600Y133150D02*
Y137150D01*
X215600Y133150D02*
Y137150D01*
X206600Y133150D02*
Y137150D01*
X190500Y132500D02*
Y136500D01*
X199500Y132500D02*
Y136500D01*
X528500Y138500D02*
X536500D01*
X528500Y121500D02*
X536500D01*
X257000Y138250D02*
X265000D01*
X257000Y121250D02*
X265000D01*
X-33910Y632830D02*
Y701830D01*
Y632830D02*
X17090D01*
Y701830D01*
X-33910D02*
X17090D01*
X238000Y633000D02*
Y702000D01*
Y633000D02*
X289000D01*
Y702000D01*
X238000D02*
X289000D01*
X507000Y633000D02*
Y702000D01*
Y633000D02*
X558000D01*
Y702000D01*
X507000D02*
X558000D01*
X322500Y-33150D02*
Y35850D01*
X373500D01*
Y-33150D02*
Y35850D01*
X322500Y-33150D02*
X373500D01*
X594000Y-32900D02*
Y36100D01*
X645000D01*
Y-32900D02*
Y36100D01*
X594000Y-32900D02*
X645000D01*
X39700Y469300D02*
Y520100D01*
X52400Y511633D02*
X86267D01*
X90500Y507400D01*
X86267Y503167D02*
X90500Y507400D01*
X52400Y503167D02*
X86267D01*
X52400Y486233D02*
X86267D01*
X90500Y482000D01*
X86267Y477767D02*
X90500Y482000D01*
X52400Y477767D02*
X86267D01*
X39700Y475650D02*
X46050Y469300D01*
X39700Y520100D02*
X52400D01*
Y469300D02*
Y520100D01*
X39700Y469300D02*
X52400D01*
X-3500Y541000D02*
Y561000D01*
X-38500Y541000D02*
Y561000D01*
X-3500D01*
X-38500Y541000D02*
X-3500D01*
X26000Y167500D02*
Y202500D01*
X6000Y167500D02*
Y202500D01*
Y167500D02*
X26000D01*
X6000Y202500D02*
X26000D01*
X184590Y716830D02*
Y736830D01*
X219590Y716830D02*
Y736830D01*
X184590D02*
X219590D01*
X184590Y716830D02*
X219590D01*
X456070Y716810D02*
X491070D01*
X456070Y736810D02*
X491070D01*
Y716810D02*
Y736810D01*
X456070Y716810D02*
Y736810D01*
X725410Y717040D02*
Y737040D01*
X760410Y717040D02*
Y737040D01*
X725410D02*
X760410D01*
X725410Y717040D02*
X760410D01*
X679750Y396750D02*
Y400750D01*
X710750Y396750D02*
Y400750D01*
X679750Y396750D02*
X710750D01*
X679750Y400750D02*
X710750D01*
X509500Y411000D02*
X537500D01*
X537500Y383000D02*
Y411000D01*
X509500Y383000D02*
X537500D01*
X509500Y383000D02*
Y411000D01*
X523000Y179000D02*
X541000D01*
D106*
X296250Y416500D02*
G03*
X296250Y416500I-1250J0D01*
G01*
X678250Y387500D02*
G03*
X678250Y387500I-1250J0D01*
G01*
X524750Y417500D02*
G03*
X524750Y417500I-1250J0D01*
G01*
X509250Y231550D02*
G03*
X509250Y231550I-1250J0D01*
G01*
D232*
X516180Y239560D02*
X524821D01*
X516180Y232440D02*
X524821D01*
X584679Y189559D02*
X593321D01*
X584679Y182440D02*
X593321D01*
D233*
X85880Y200660D02*
Y380660D01*
X735880D01*
Y200660D02*
Y380660D01*
X85880Y200660D02*
X735880D01*
X85880Y596900D02*
X735880D01*
Y416900D02*
Y596900D01*
X85880Y416900D02*
X735880D01*
X85880D02*
Y596900D01*
X542725Y239937D02*
X548723D01*
Y236938D01*
X547723Y235938D01*
X545724D01*
X544724Y236938D01*
Y239937D01*
Y237938D02*
X542725Y235938D01*
X548723Y233939D02*
Y229940D01*
X547723D01*
X543725Y233939D01*
X542725D01*
X547723Y227941D02*
X548723Y226941D01*
Y224942D01*
X547723Y223942D01*
X543725D01*
X542725Y224942D01*
Y226941D01*
X543725Y227941D01*
X547723D01*
X542725Y221943D02*
Y219944D01*
Y220943D01*
X548723D01*
X547723Y221943D01*
X498599Y247717D02*
Y242719D01*
X499599Y241719D01*
X501598D01*
X502598Y242719D01*
Y247717D01*
X504597D02*
X508596D01*
Y246717D01*
X504597Y242719D01*
Y241719D01*
X510595Y246717D02*
X511595Y247717D01*
X513594D01*
X514594Y246717D01*
Y242719D01*
X513594Y241719D01*
X511595D01*
X510595Y242719D01*
Y246717D01*
X516593D02*
X517593Y247717D01*
X519592D01*
X520592Y246717D01*
Y242719D01*
X519592Y241719D01*
X517593D01*
X516593Y242719D01*
Y246717D01*
X611225Y189937D02*
X617223D01*
Y186938D01*
X616223Y185938D01*
X614224D01*
X613224Y186938D01*
Y189937D01*
Y187938D02*
X611225Y185938D01*
X617223Y183939D02*
Y179940D01*
X616223D01*
X612225Y183939D01*
X611225D01*
X616223Y177941D02*
X617223Y176941D01*
Y174942D01*
X616223Y173942D01*
X612225D01*
X611225Y174942D01*
Y176941D01*
X612225Y177941D01*
X616223D01*
Y171943D02*
X617223Y170943D01*
Y168944D01*
X616223Y167944D01*
X612225D01*
X611225Y168944D01*
Y170943D01*
X612225Y171943D01*
X616223D01*
X556435Y195989D02*
X555435Y194990D01*
Y192990D01*
X556435Y191991D01*
X560433D01*
X561433Y192990D01*
Y194990D01*
X560433Y195989D01*
X555435Y197989D02*
Y201988D01*
X556435D01*
X560433Y197989D01*
X561433D01*
X556435Y203987D02*
X555435Y204987D01*
Y206986D01*
X556435Y207986D01*
X560433D01*
X561433Y206986D01*
Y204987D01*
X560433Y203987D01*
X556435D01*
Y209985D02*
X555435Y210985D01*
Y212984D01*
X556435Y213984D01*
X560433D01*
X561433Y212984D01*
Y210985D01*
X560433Y209985D01*
X556435D01*
X67897Y131948D02*
X63899D01*
X62899Y130948D01*
Y128949D01*
X63899Y127949D01*
X67897D01*
X68897Y128949D01*
Y130948D01*
X66898Y129948D02*
X68897Y131948D01*
Y130948D02*
X67897Y131948D01*
X68897Y136946D02*
X62899D01*
X65898Y133947D01*
Y137946D01*
X68897Y139945D02*
Y141945D01*
Y140945D01*
X62899D01*
X63899Y139945D01*
X68897Y144944D02*
Y146943D01*
Y145943D01*
X62899D01*
X63899Y144944D01*
X6897Y131948D02*
X2899D01*
X1899Y130948D01*
Y128949D01*
X2899Y127949D01*
X6897D01*
X7897Y128949D01*
Y130948D01*
X5898Y129948D02*
X7897Y131948D01*
Y130948D02*
X6897Y131948D01*
X7897Y136946D02*
X1899D01*
X4898Y133947D01*
Y137946D01*
X7897Y139945D02*
Y141945D01*
Y140945D01*
X1899D01*
X2899Y139945D01*
Y144944D02*
X1899Y145943D01*
Y147942D01*
X2899Y148942D01*
X6897D01*
X7897Y147942D01*
Y145943D01*
X6897Y144944D01*
X2899D01*
X286426Y432605D02*
X284426D01*
X285426D01*
Y427607D01*
X284426Y426607D01*
X283427D01*
X282427Y427607D01*
X292424Y426607D02*
X288425D01*
X292424Y430606D01*
Y431605D01*
X291424Y432605D01*
X289425D01*
X288425Y431605D01*
X515929Y150535D02*
X515358Y150249D01*
X514787Y149678D01*
X514501Y149107D01*
Y147964D01*
X514787Y147393D01*
X515358Y146821D01*
X515929Y146536D01*
X516786Y146250D01*
X518215D01*
X519072Y146536D01*
X519643Y146821D01*
X520214Y147393D01*
X520500Y147964D01*
Y149107D01*
X520214Y149678D01*
X519643Y150249D01*
X519072Y150535D01*
X514501Y155077D02*
X518500Y152220D01*
Y156505D01*
X514501Y155077D02*
X520500D01*
X522500Y157562D02*
Y162132D01*
X514501Y162903D02*
X520500D01*
X514501D02*
Y165474D01*
X514787Y166331D01*
X515073Y166617D01*
X515644Y166903D01*
X516215D01*
X516786Y166617D01*
X517072Y166331D01*
X517358Y165474D01*
Y162903D02*
Y165474D01*
X517644Y166331D01*
X517929Y166617D01*
X518500Y166903D01*
X519357D01*
X519929Y166617D01*
X520214Y166331D01*
X520500Y165474D01*
Y162903D01*
X514501Y171673D02*
Y168817D01*
X517072Y168531D01*
X516786Y168817D01*
X516501Y169674D01*
Y170530D01*
X516786Y171387D01*
X517358Y171959D01*
X518215Y172244D01*
X518786D01*
X519643Y171959D01*
X520214Y171387D01*
X520500Y170530D01*
Y169674D01*
X520214Y168817D01*
X519929Y168531D01*
X519357Y168245D01*
X514501Y175301D02*
X514787Y174444D01*
X515644Y173873D01*
X517072Y173587D01*
X517929D01*
X519357Y173873D01*
X520214Y174444D01*
X520500Y175301D01*
Y175872D01*
X520214Y176729D01*
X519357Y177300D01*
X517929Y177586D01*
X517072D01*
X515644Y177300D01*
X514787Y176729D01*
X514501Y175872D01*
Y175301D01*
X521175Y132586D02*
X520889Y133158D01*
X520318Y133729D01*
X519747Y134015D01*
X518604D01*
X518033Y133729D01*
X517461Y133158D01*
X517176Y132586D01*
X516890Y131729D01*
Y130301D01*
X517176Y129444D01*
X517461Y128873D01*
X518033Y128302D01*
X518604Y128016D01*
X519747D01*
X520318Y128302D01*
X520889Y128873D01*
X521175Y129444D01*
X523146Y132586D02*
Y132872D01*
X523431Y133443D01*
X523717Y133729D01*
X524288Y134015D01*
X525431D01*
X526002Y133729D01*
X526288Y133443D01*
X526574Y132872D01*
Y132301D01*
X526288Y131729D01*
X525717Y130872D01*
X522860Y128016D01*
X526859D01*
X528202Y126016D02*
X532772D01*
X533544Y134015D02*
Y128016D01*
Y134015D02*
X536114D01*
X536971Y133729D01*
X537257Y133443D01*
X537543Y132872D01*
Y132301D01*
X537257Y131729D01*
X536971Y131444D01*
X536114Y131158D01*
X533544D02*
X536114D01*
X536971Y130872D01*
X537257Y130587D01*
X537543Y130016D01*
Y129159D01*
X537257Y128587D01*
X536971Y128302D01*
X536114Y128016D01*
X533544D01*
X542313Y134015D02*
X539456D01*
X539171Y131444D01*
X539456Y131729D01*
X540313Y132015D01*
X541170D01*
X542027Y131729D01*
X542599Y131158D01*
X542884Y130301D01*
Y129730D01*
X542599Y128873D01*
X542027Y128302D01*
X541170Y128016D01*
X540313D01*
X539456Y128302D01*
X539171Y128587D01*
X538885Y129159D01*
X545941Y134015D02*
X545084Y133729D01*
X544513Y132872D01*
X544227Y131444D01*
Y130587D01*
X544513Y129159D01*
X545084Y128302D01*
X545941Y128016D01*
X546512D01*
X547369Y128302D01*
X547940Y129159D01*
X548226Y130587D01*
Y131444D01*
X547940Y132872D01*
X547369Y133729D01*
X546512Y134015D01*
X545941D01*
X372618Y402239D02*
Y396240D01*
Y402239D02*
X375189D01*
X376046Y401953D01*
X376331Y401667D01*
X376617Y401096D01*
Y400525D01*
X376331Y399953D01*
X376046Y399668D01*
X375189Y399382D01*
X372618D02*
X375189D01*
X376046Y399096D01*
X376331Y398811D01*
X376617Y398240D01*
Y397383D01*
X376331Y396811D01*
X376046Y396526D01*
X375189Y396240D01*
X372618D01*
X382530D02*
X380245Y402239D01*
X377960Y396240D01*
X378817Y398240D02*
X381673D01*
X385929Y402239D02*
Y396240D01*
X383930Y402239D02*
X387929D01*
X388643Y401096D02*
X389214Y401382D01*
X390071Y402239D01*
Y396240D01*
X394756Y402239D02*
X393899Y401953D01*
X393328Y401096D01*
X393042Y399668D01*
Y398811D01*
X393328Y397383D01*
X393899Y396526D01*
X394756Y396240D01*
X395327D01*
X396184Y396526D01*
X396756Y397383D01*
X397041Y398811D01*
Y399668D01*
X396756Y401096D01*
X396184Y401953D01*
X395327Y402239D01*
X394756D01*
X400098D02*
X399241Y401953D01*
X398670Y401096D01*
X398384Y399668D01*
Y398811D01*
X398670Y397383D01*
X399241Y396526D01*
X400098Y396240D01*
X400669D01*
X401526Y396526D01*
X402097Y397383D01*
X402383Y398811D01*
Y399668D01*
X402097Y401096D01*
X401526Y401953D01*
X400669Y402239D01*
X400098D01*
X189705Y657350D02*
X189419Y657922D01*
X188848Y658493D01*
X188277Y658779D01*
X187134D01*
X186563Y658493D01*
X185991Y657922D01*
X185706Y657350D01*
X185420Y656494D01*
Y655065D01*
X185706Y654208D01*
X185991Y653637D01*
X186563Y653066D01*
X187134Y652780D01*
X188277D01*
X188848Y653066D01*
X189419Y653637D01*
X189705Y654208D01*
X191676Y657350D02*
Y657636D01*
X191961Y658207D01*
X192247Y658493D01*
X192818Y658779D01*
X193961D01*
X194532Y658493D01*
X194818Y658207D01*
X195104Y657636D01*
Y657065D01*
X194818Y656494D01*
X194247Y655637D01*
X191390Y652780D01*
X195389D01*
X196732Y650780D02*
X201302D01*
X202073Y658779D02*
Y652780D01*
Y658779D02*
X204644D01*
X205501Y658493D01*
X205787Y658207D01*
X206073Y657636D01*
Y657065D01*
X205787Y656494D01*
X205501Y656208D01*
X204644Y655922D01*
X202073D02*
X204644D01*
X205501Y655637D01*
X205787Y655351D01*
X206073Y654780D01*
Y653923D01*
X205787Y653351D01*
X205501Y653066D01*
X204644Y652780D01*
X202073D01*
X207415Y657636D02*
X207987Y657922D01*
X208843Y658779D01*
Y652780D01*
X459961Y657350D02*
X459675Y657922D01*
X459104Y658493D01*
X458532Y658779D01*
X457390D01*
X456819Y658493D01*
X456247Y657922D01*
X455962Y657350D01*
X455676Y656494D01*
Y655065D01*
X455962Y654208D01*
X456247Y653637D01*
X456819Y653066D01*
X457390Y652780D01*
X458532D01*
X459104Y653066D01*
X459675Y653637D01*
X459961Y654208D01*
X461932Y657350D02*
Y657636D01*
X462217Y658207D01*
X462503Y658493D01*
X463074Y658779D01*
X464217D01*
X464788Y658493D01*
X465074Y658207D01*
X465360Y657636D01*
Y657065D01*
X465074Y656494D01*
X464503Y655637D01*
X461646Y652780D01*
X465645D01*
X466988Y650780D02*
X471558D01*
X472329Y658779D02*
Y652780D01*
Y658779D02*
X474900D01*
X475757Y658493D01*
X476043Y658207D01*
X476329Y657636D01*
Y657065D01*
X476043Y656494D01*
X475757Y656208D01*
X474900Y655922D01*
X472329D02*
X474900D01*
X475757Y655637D01*
X476043Y655351D01*
X476329Y654780D01*
Y653923D01*
X476043Y653351D01*
X475757Y653066D01*
X474900Y652780D01*
X472329D01*
X477957Y657350D02*
Y657636D01*
X478242Y658207D01*
X478528Y658493D01*
X479100Y658779D01*
X480242D01*
X480813Y658493D01*
X481099Y658207D01*
X481385Y657636D01*
Y657065D01*
X481099Y656494D01*
X480528Y655637D01*
X477671Y652780D01*
X481670D01*
X729201Y657605D02*
X728915Y658176D01*
X728344Y658747D01*
X727773Y659033D01*
X726630D01*
X726059Y658747D01*
X725487Y658176D01*
X725202Y657605D01*
X724916Y656748D01*
Y655319D01*
X725202Y654462D01*
X725487Y653891D01*
X726059Y653320D01*
X726630Y653034D01*
X727773D01*
X728344Y653320D01*
X728915Y653891D01*
X729201Y654462D01*
X731172Y657605D02*
Y657890D01*
X731457Y658461D01*
X731743Y658747D01*
X732314Y659033D01*
X733457D01*
X734028Y658747D01*
X734314Y658461D01*
X734600Y657890D01*
Y657319D01*
X734314Y656748D01*
X733743Y655891D01*
X730886Y653034D01*
X734885D01*
X736228Y651034D02*
X740798D01*
X741570Y659033D02*
Y653034D01*
Y659033D02*
X744140D01*
X744997Y658747D01*
X745283Y658461D01*
X745569Y657890D01*
Y657319D01*
X745283Y656748D01*
X744997Y656462D01*
X744140Y656176D01*
X741570D02*
X744140D01*
X744997Y655891D01*
X745283Y655605D01*
X745569Y655034D01*
Y654177D01*
X745283Y653605D01*
X744997Y653320D01*
X744140Y653034D01*
X741570D01*
X747483Y659033D02*
X750625D01*
X748911Y656748D01*
X749768D01*
X750339Y656462D01*
X750625Y656176D01*
X750910Y655319D01*
Y654748D01*
X750625Y653891D01*
X750053Y653320D01*
X749196Y653034D01*
X748339D01*
X747483Y653320D01*
X747197Y653605D01*
X746911Y654177D01*
X249649Y132332D02*
X249363Y132904D01*
X248792Y133475D01*
X248221Y133761D01*
X247078D01*
X246507Y133475D01*
X245935Y132904D01*
X245650Y132332D01*
X245364Y131475D01*
Y130047D01*
X245650Y129190D01*
X245935Y128619D01*
X246507Y128048D01*
X247078Y127762D01*
X248221D01*
X248792Y128048D01*
X249363Y128619D01*
X249649Y129190D01*
X251620Y132332D02*
Y132618D01*
X251905Y133189D01*
X252191Y133475D01*
X252762Y133761D01*
X253905D01*
X254476Y133475D01*
X254762Y133189D01*
X255048Y132618D01*
Y132047D01*
X254762Y131475D01*
X254191Y130618D01*
X251334Y127762D01*
X255333D01*
X256676Y125762D02*
X261246D01*
X262017Y133761D02*
Y127762D01*
Y133761D02*
X264588D01*
X265445Y133475D01*
X265731Y133189D01*
X266017Y132618D01*
Y132047D01*
X265731Y131475D01*
X265445Y131190D01*
X264588Y130904D01*
X262017D02*
X264588D01*
X265445Y130618D01*
X265731Y130333D01*
X266017Y129762D01*
Y128905D01*
X265731Y128333D01*
X265445Y128048D01*
X264588Y127762D01*
X262017D01*
X267931Y133761D02*
X271073D01*
X269359Y131475D01*
X270216D01*
X270787Y131190D01*
X271073Y130904D01*
X271358Y130047D01*
Y129476D01*
X271073Y128619D01*
X270501Y128048D01*
X269644Y127762D01*
X268787D01*
X267931Y128048D01*
X267645Y128333D01*
X267359Y128905D01*
X273272Y133761D02*
X276414D01*
X274701Y131475D01*
X275557D01*
X276129Y131190D01*
X276414Y130904D01*
X276700Y130047D01*
Y129476D01*
X276414Y128619D01*
X275843Y128048D01*
X274986Y127762D01*
X274129D01*
X273272Y128048D01*
X272987Y128333D01*
X272701Y128905D01*
X183609Y101090D02*
X183323Y101662D01*
X182752Y102233D01*
X182181Y102519D01*
X181038D01*
X180467Y102233D01*
X179895Y101662D01*
X179610Y101090D01*
X179324Y100233D01*
Y98805D01*
X179610Y97948D01*
X179895Y97377D01*
X180467Y96806D01*
X181038Y96520D01*
X182181D01*
X182752Y96806D01*
X183323Y97377D01*
X183609Y97948D01*
X185865Y102519D02*
X189008D01*
X187294Y100233D01*
X188151D01*
X188722Y99948D01*
X189008Y99662D01*
X189293Y98805D01*
Y98234D01*
X189008Y97377D01*
X188436Y96806D01*
X187579Y96520D01*
X186722D01*
X185865Y96806D01*
X185580Y97091D01*
X185294Y97663D01*
X190636Y94520D02*
X195206D01*
X195977Y102519D02*
Y96520D01*
Y102519D02*
X198548D01*
X199405Y102233D01*
X199691Y101947D01*
X199977Y101376D01*
Y100805D01*
X199691Y100233D01*
X199405Y99948D01*
X198548Y99662D01*
X195977D02*
X198548D01*
X199405Y99376D01*
X199691Y99091D01*
X199977Y98520D01*
Y97663D01*
X199691Y97091D01*
X199405Y96806D01*
X198548Y96520D01*
X195977D01*
X201891Y102519D02*
X205033D01*
X203319Y100233D01*
X204176D01*
X204747Y99948D01*
X205033Y99662D01*
X205318Y98805D01*
Y98234D01*
X205033Y97377D01*
X204461Y96806D01*
X203604Y96520D01*
X202747D01*
X201891Y96806D01*
X201605Y97091D01*
X201319Y97663D01*
X207232Y102519D02*
X210374D01*
X208661Y100233D01*
X209517D01*
X210089Y99948D01*
X210374Y99662D01*
X210660Y98805D01*
Y98234D01*
X210374Y97377D01*
X209803Y96806D01*
X208946Y96520D01*
X208089D01*
X207232Y96806D01*
X206947Y97091D01*
X206661Y97663D01*
X455135Y101344D02*
X454849Y101916D01*
X454278Y102487D01*
X453707Y102773D01*
X452564D01*
X451993Y102487D01*
X451421Y101916D01*
X451136Y101344D01*
X450850Y100487D01*
Y99059D01*
X451136Y98202D01*
X451421Y97631D01*
X451993Y97060D01*
X452564Y96774D01*
X453707D01*
X454278Y97060D01*
X454849Y97631D01*
X455135Y98202D01*
X457391Y102773D02*
X460534D01*
X458820Y100487D01*
X459677D01*
X460248Y100202D01*
X460534Y99916D01*
X460819Y99059D01*
Y98488D01*
X460534Y97631D01*
X459962Y97060D01*
X459105Y96774D01*
X458248D01*
X457391Y97060D01*
X457106Y97345D01*
X456820Y97917D01*
X462162Y94774D02*
X466732D01*
X467504Y102773D02*
Y96774D01*
Y102773D02*
X470074D01*
X470931Y102487D01*
X471217Y102201D01*
X471503Y101630D01*
Y101059D01*
X471217Y100487D01*
X470931Y100202D01*
X470074Y99916D01*
X467504D02*
X470074D01*
X470931Y99630D01*
X471217Y99345D01*
X471503Y98774D01*
Y97917D01*
X471217Y97345D01*
X470931Y97060D01*
X470074Y96774D01*
X467504D01*
X476273Y102773D02*
X473416D01*
X473131Y100202D01*
X473416Y100487D01*
X474273Y100773D01*
X475130D01*
X475987Y100487D01*
X476559Y99916D01*
X476844Y99059D01*
Y98488D01*
X476559Y97631D01*
X475987Y97060D01*
X475130Y96774D01*
X474273D01*
X473416Y97060D01*
X473131Y97345D01*
X472845Y97917D01*
X479901Y102773D02*
X479044Y102487D01*
X478473Y101630D01*
X478187Y100202D01*
Y99345D01*
X478473Y97917D01*
X479044Y97060D01*
X479901Y96774D01*
X480472D01*
X481329Y97060D01*
X481900Y97917D01*
X482186Y99345D01*
Y100202D01*
X481900Y101630D01*
X481329Y102487D01*
X480472Y102773D01*
X479901D01*
X244930Y150785D02*
X244358Y150499D01*
X243787Y149928D01*
X243501Y149356D01*
Y148214D01*
X243787Y147643D01*
X244358Y147071D01*
X244930Y146786D01*
X245786Y146500D01*
X247215D01*
X248072Y146786D01*
X248643Y147071D01*
X249214Y147643D01*
X249500Y148214D01*
Y149356D01*
X249214Y149928D01*
X248643Y150499D01*
X248072Y150785D01*
X243501Y155327D02*
X247500Y152470D01*
Y156755D01*
X243501Y155327D02*
X249500D01*
X251500Y157812D02*
Y162382D01*
X243501Y163153D02*
X249500D01*
X243501D02*
Y165724D01*
X243787Y166581D01*
X244073Y166867D01*
X244644Y167153D01*
X245215D01*
X245786Y166867D01*
X246072Y166581D01*
X246358Y165724D01*
Y163153D02*
Y165724D01*
X246644Y166581D01*
X246929Y166867D01*
X247500Y167153D01*
X248357D01*
X248929Y166867D01*
X249214Y166581D01*
X249500Y165724D01*
Y163153D01*
X243501Y169067D02*
Y172209D01*
X245786Y170495D01*
Y171352D01*
X246072Y171923D01*
X246358Y172209D01*
X247215Y172494D01*
X247786D01*
X248643Y172209D01*
X249214Y171637D01*
X249500Y170781D01*
Y169923D01*
X249214Y169067D01*
X248929Y168781D01*
X248357Y168495D01*
X243501Y174408D02*
Y177550D01*
X245786Y175837D01*
Y176693D01*
X246072Y177265D01*
X246358Y177550D01*
X247215Y177836D01*
X247786D01*
X248643Y177550D01*
X249214Y176979D01*
X249500Y176122D01*
Y175265D01*
X249214Y174408D01*
X248929Y174123D01*
X248357Y173837D01*
X403319Y507D02*
X403033Y1078D01*
X402462Y1649D01*
X401890Y1935D01*
X400748D01*
X400177Y1649D01*
X399605Y1078D01*
X399320Y507D01*
X399034Y-351D01*
Y-1779D01*
X399320Y-2636D01*
X399605Y-3207D01*
X400177Y-3778D01*
X400748Y-4064D01*
X401890D01*
X402462Y-3778D01*
X403033Y-3207D01*
X403319Y-2636D01*
X408432Y1935D02*
X405575D01*
X405290Y-636D01*
X405575Y-351D01*
X406432Y-65D01*
X407289D01*
X408146Y-351D01*
X408718Y-922D01*
X409003Y-1779D01*
Y-2350D01*
X408718Y-3207D01*
X408146Y-3778D01*
X407289Y-4064D01*
X406432D01*
X405575Y-3778D01*
X405290Y-3493D01*
X405004Y-2921D01*
X410346Y-6064D02*
X414916D01*
X415687Y1935D02*
Y-4064D01*
Y1935D02*
X418258D01*
X419115Y1649D01*
X419401Y1363D01*
X419687Y792D01*
Y221D01*
X419401Y-351D01*
X419115Y-636D01*
X418258Y-922D01*
X415687D02*
X418258D01*
X419115Y-1208D01*
X419401Y-1493D01*
X419687Y-2064D01*
Y-2921D01*
X419401Y-3493D01*
X419115Y-3778D01*
X418258Y-4064D01*
X415687D01*
X421600Y1935D02*
X424743D01*
X423029Y-351D01*
X423886D01*
X424457Y-636D01*
X424743Y-922D01*
X425028Y-1779D01*
Y-2350D01*
X424743Y-3207D01*
X424171Y-3778D01*
X423314Y-4064D01*
X422458D01*
X421600Y-3778D01*
X421315Y-3493D01*
X421029Y-2921D01*
X426942Y1935D02*
X430084D01*
X428371Y-351D01*
X429227D01*
X429799Y-636D01*
X430084Y-922D01*
X430370Y-1779D01*
Y-2350D01*
X430084Y-3207D01*
X429513Y-3778D01*
X428656Y-4064D01*
X427799D01*
X426942Y-3778D01*
X426657Y-3493D01*
X426371Y-2921D01*
X674845Y760D02*
X674559Y1332D01*
X673988Y1903D01*
X673417Y2189D01*
X672274D01*
X671703Y1903D01*
X671131Y1332D01*
X670846Y760D01*
X670560Y-97D01*
Y-1525D01*
X670846Y-2382D01*
X671131Y-2953D01*
X671703Y-3524D01*
X672274Y-3810D01*
X673417D01*
X673988Y-3524D01*
X674559Y-2953D01*
X674845Y-2382D01*
X679958Y2189D02*
X677101D01*
X676816Y-382D01*
X677101Y-97D01*
X677958Y189D01*
X678815D01*
X679672Y-97D01*
X680244Y-668D01*
X680529Y-1525D01*
Y-2096D01*
X680244Y-2953D01*
X679672Y-3524D01*
X678815Y-3810D01*
X677958D01*
X677101Y-3524D01*
X676816Y-3239D01*
X676530Y-2667D01*
X681872Y-5810D02*
X686442D01*
X687214Y2189D02*
Y-3810D01*
Y2189D02*
X689784D01*
X690641Y1903D01*
X690927Y1617D01*
X691213Y1046D01*
Y475D01*
X690927Y-97D01*
X690641Y-382D01*
X689784Y-668D01*
X687214D02*
X689784D01*
X690641Y-953D01*
X690927Y-1239D01*
X691213Y-1810D01*
Y-2667D01*
X690927Y-3239D01*
X690641Y-3524D01*
X689784Y-3810D01*
X687214D01*
X695983Y2189D02*
X693127D01*
X692841Y-382D01*
X693127Y-97D01*
X693984Y189D01*
X694840D01*
X695697Y-97D01*
X696269Y-668D01*
X696554Y-1525D01*
Y-2096D01*
X696269Y-2953D01*
X695697Y-3524D01*
X694840Y-3810D01*
X693984D01*
X693127Y-3524D01*
X692841Y-3239D01*
X692555Y-2667D01*
X699611Y2189D02*
X698754Y1903D01*
X698183Y1046D01*
X697897Y-382D01*
Y-1239D01*
X698183Y-2667D01*
X698754Y-3524D01*
X699611Y-3810D01*
X700182D01*
X701039Y-3524D01*
X701610Y-2667D01*
X701896Y-1239D01*
Y-382D01*
X701610Y1046D01*
X701039Y1903D01*
X700182Y2189D01*
X699611D01*
X-19812Y668685D02*
Y662686D01*
Y668685D02*
X-17812D01*
X-16955Y668399D01*
X-16384Y667828D01*
X-16099Y667256D01*
X-15813Y666400D01*
Y664971D01*
X-16099Y664114D01*
X-16384Y663543D01*
X-16955Y662972D01*
X-17812Y662686D01*
X-19812D01*
X-14470Y667542D02*
X-13899Y667828D01*
X-13042Y668685D01*
Y662686D01*
X-10071Y660686D02*
X-5501D01*
X-4730Y668685D02*
Y662686D01*
Y668685D02*
X-2159D01*
X-1302Y668399D01*
X-1016Y668113D01*
X-730Y667542D01*
Y666971D01*
X-1016Y666400D01*
X-1302Y666114D01*
X-2159Y665828D01*
X-4730D02*
X-2159D01*
X-1302Y665543D01*
X-1016Y665257D01*
X-730Y664686D01*
Y663829D01*
X-1016Y663257D01*
X-1302Y662972D01*
X-2159Y662686D01*
X-4730D01*
X612Y667542D02*
X1183Y667828D01*
X2040Y668685D01*
Y662686D01*
X250698Y668939D02*
Y662940D01*
Y668939D02*
X252698D01*
X253554Y668653D01*
X254126Y668082D01*
X254412Y667511D01*
X254697Y666654D01*
Y665225D01*
X254412Y664368D01*
X254126Y663797D01*
X253554Y663226D01*
X252698Y662940D01*
X250698D01*
X256040Y667796D02*
X256611Y668082D01*
X257468Y668939D01*
Y662940D01*
X260439Y660940D02*
X265009D01*
X265780Y668939D02*
Y662940D01*
Y668939D02*
X268351D01*
X269208Y668653D01*
X269494Y668367D01*
X269780Y667796D01*
Y667225D01*
X269494Y666654D01*
X269208Y666368D01*
X268351Y666082D01*
X265780D02*
X268351D01*
X269208Y665797D01*
X269494Y665511D01*
X269780Y664940D01*
Y664083D01*
X269494Y663511D01*
X269208Y663226D01*
X268351Y662940D01*
X265780D01*
X271408Y667511D02*
Y667796D01*
X271693Y668367D01*
X271979Y668653D01*
X272550Y668939D01*
X273693D01*
X274264Y668653D01*
X274550Y668367D01*
X274836Y667796D01*
Y667225D01*
X274550Y666654D01*
X273979Y665797D01*
X271122Y662940D01*
X275121D01*
X519684Y668939D02*
Y662940D01*
Y668939D02*
X521684D01*
X522541Y668653D01*
X523112Y668082D01*
X523397Y667511D01*
X523683Y666654D01*
Y665225D01*
X523397Y664368D01*
X523112Y663797D01*
X522541Y663226D01*
X521684Y662940D01*
X519684D01*
X525026Y667796D02*
X525597Y668082D01*
X526454Y668939D01*
Y662940D01*
X529425Y660940D02*
X533995D01*
X534766Y668939D02*
Y662940D01*
Y668939D02*
X537337D01*
X538194Y668653D01*
X538480Y668367D01*
X538766Y667796D01*
Y667225D01*
X538480Y666654D01*
X538194Y666368D01*
X537337Y666082D01*
X534766D02*
X537337D01*
X538194Y665797D01*
X538480Y665511D01*
X538766Y664940D01*
Y664083D01*
X538480Y663511D01*
X538194Y663226D01*
X537337Y662940D01*
X534766D01*
X540679Y668939D02*
X543822D01*
X542108Y666654D01*
X542965D01*
X543536Y666368D01*
X543822Y666082D01*
X544107Y665225D01*
Y664654D01*
X543822Y663797D01*
X543250Y663226D01*
X542393Y662940D01*
X541536D01*
X540679Y663226D01*
X540394Y663511D01*
X540108Y664083D01*
X332740Y7777D02*
Y1778D01*
Y7777D02*
X334740D01*
X335597Y7491D01*
X336168Y6920D01*
X336454Y6349D01*
X336739Y5491D01*
Y4063D01*
X336454Y3206D01*
X336168Y2635D01*
X335597Y2064D01*
X334740Y1778D01*
X332740D01*
X338082Y6634D02*
X338653Y6920D01*
X339510Y7777D01*
Y1778D01*
X342481Y-222D02*
X347051D01*
X347822Y7777D02*
Y1778D01*
Y7777D02*
X350393D01*
X351250Y7491D01*
X351536Y7205D01*
X351822Y6634D01*
Y6063D01*
X351536Y5491D01*
X351250Y5206D01*
X350393Y4920D01*
X347822D02*
X350393D01*
X351250Y4635D01*
X351536Y4349D01*
X351822Y3778D01*
Y2921D01*
X351536Y2349D01*
X351250Y2064D01*
X350393Y1778D01*
X347822D01*
X353735Y7777D02*
X356878D01*
X355164Y5491D01*
X356021D01*
X356592Y5206D01*
X356878Y4920D01*
X357163Y4063D01*
Y3492D01*
X356878Y2635D01*
X356306Y2064D01*
X355449Y1778D01*
X354592D01*
X353735Y2064D01*
X353450Y2349D01*
X353164Y2921D01*
X359077Y7777D02*
X362219D01*
X360505Y5491D01*
X361362D01*
X361934Y5206D01*
X362219Y4920D01*
X362505Y4063D01*
Y3492D01*
X362219Y2635D01*
X361648Y2064D01*
X360791Y1778D01*
X359934D01*
X359077Y2064D01*
X358792Y2349D01*
X358506Y2921D01*
X604012Y8031D02*
Y2032D01*
Y8031D02*
X606012D01*
X606869Y7745D01*
X607440Y7174D01*
X607725Y6603D01*
X608011Y5745D01*
Y4317D01*
X607725Y3460D01*
X607440Y2889D01*
X606869Y2318D01*
X606012Y2032D01*
X604012D01*
X609354Y6888D02*
X609925Y7174D01*
X610782Y8031D01*
Y2032D01*
X613753Y32D02*
X618323D01*
X619094Y8031D02*
Y2032D01*
Y8031D02*
X621665D01*
X622522Y7745D01*
X622808Y7459D01*
X623094Y6888D01*
Y6317D01*
X622808Y5745D01*
X622522Y5460D01*
X621665Y5174D01*
X619094D02*
X621665D01*
X622522Y4888D01*
X622808Y4603D01*
X623094Y4032D01*
Y3175D01*
X622808Y2603D01*
X622522Y2318D01*
X621665Y2032D01*
X619094D01*
X627864Y8031D02*
X625007D01*
X624722Y5460D01*
X625007Y5745D01*
X625864Y6031D01*
X626721D01*
X627578Y5745D01*
X628150Y5174D01*
X628435Y4317D01*
Y3746D01*
X628150Y2889D01*
X627578Y2318D01*
X626721Y2032D01*
X625864D01*
X625007Y2318D01*
X624722Y2603D01*
X624436Y3175D01*
X631492Y8031D02*
X630635Y7745D01*
X630064Y6888D01*
X629778Y5460D01*
Y4603D01*
X630064Y3175D01*
X630635Y2318D01*
X631492Y2032D01*
X632063D01*
X632920Y2318D01*
X633491Y3175D01*
X633777Y4603D01*
Y5460D01*
X633491Y6888D01*
X632920Y7745D01*
X632063Y8031D01*
X631492D01*
X88392Y689767D02*
Y683768D01*
X91820D01*
X92477Y688624D02*
X93048Y688910D01*
X93905Y689767D01*
Y683768D01*
X96876Y681768D02*
X101446D01*
X102218Y689767D02*
Y683768D01*
Y689767D02*
X104788D01*
X105645Y689481D01*
X105931Y689195D01*
X106217Y688624D01*
Y688053D01*
X105931Y687482D01*
X105645Y687196D01*
X104788Y686910D01*
X102218D02*
X104788D01*
X105645Y686625D01*
X105931Y686339D01*
X106217Y685768D01*
Y684911D01*
X105931Y684339D01*
X105645Y684054D01*
X104788Y683768D01*
X102218D01*
X107559Y688624D02*
X108131Y688910D01*
X108988Y689767D01*
Y683768D01*
X358648Y689767D02*
Y683768D01*
X362076D01*
X362733Y688624D02*
X363304Y688910D01*
X364161Y689767D01*
Y683768D01*
X367132Y681768D02*
X371702D01*
X372474Y689767D02*
Y683768D01*
Y689767D02*
X375044D01*
X375901Y689481D01*
X376187Y689195D01*
X376473Y688624D01*
Y688053D01*
X376187Y687482D01*
X375901Y687196D01*
X375044Y686910D01*
X372474D02*
X375044D01*
X375901Y686625D01*
X376187Y686339D01*
X376473Y685768D01*
Y684911D01*
X376187Y684339D01*
X375901Y684054D01*
X375044Y683768D01*
X372474D01*
X378101Y688338D02*
Y688624D01*
X378387Y689195D01*
X378672Y689481D01*
X379244Y689767D01*
X380386D01*
X380957Y689481D01*
X381243Y689195D01*
X381529Y688624D01*
Y688053D01*
X381243Y687482D01*
X380672Y686625D01*
X377815Y683768D01*
X381814D01*
X627888Y690021D02*
Y684022D01*
X631316D01*
X631973Y688878D02*
X632544Y689164D01*
X633401Y690021D01*
Y684022D01*
X636372Y682022D02*
X640942D01*
X641714Y690021D02*
Y684022D01*
Y690021D02*
X644284D01*
X645141Y689735D01*
X645427Y689449D01*
X645713Y688878D01*
Y688307D01*
X645427Y687736D01*
X645141Y687450D01*
X644284Y687164D01*
X641714D02*
X644284D01*
X645141Y686879D01*
X645427Y686593D01*
X645713Y686022D01*
Y685165D01*
X645427Y684593D01*
X645141Y684308D01*
X644284Y684022D01*
X641714D01*
X647627Y690021D02*
X650769D01*
X649055Y687736D01*
X649912D01*
X650483Y687450D01*
X650769Y687164D01*
X651054Y686307D01*
Y685736D01*
X650769Y684879D01*
X650198Y684308D01*
X649341Y684022D01*
X648484D01*
X647627Y684308D01*
X647341Y684593D01*
X647055Y685165D01*
X367284Y119537D02*
Y113538D01*
X370712D01*
X371369Y118394D02*
X371940Y118680D01*
X372797Y119537D01*
Y113538D01*
X375768Y111538D02*
X380338D01*
X381110Y119537D02*
Y113538D01*
Y119537D02*
X383680D01*
X384537Y119251D01*
X384823Y118965D01*
X385109Y118394D01*
Y117823D01*
X384823Y117252D01*
X384537Y116966D01*
X383680Y116680D01*
X381110D02*
X383680D01*
X384537Y116395D01*
X384823Y116109D01*
X385109Y115538D01*
Y114681D01*
X384823Y114109D01*
X384537Y113824D01*
X383680Y113538D01*
X381110D01*
X387023Y119537D02*
X390165D01*
X388451Y117252D01*
X389308D01*
X389879Y116966D01*
X390165Y116680D01*
X390450Y115823D01*
Y115252D01*
X390165Y114395D01*
X389594Y113824D01*
X388736Y113538D01*
X387879D01*
X387023Y113824D01*
X386737Y114109D01*
X386451Y114681D01*
X392364Y119537D02*
X395506D01*
X393792Y117252D01*
X394650D01*
X395221Y116966D01*
X395506Y116680D01*
X395792Y115823D01*
Y115252D01*
X395506Y114395D01*
X394935Y113824D01*
X394078Y113538D01*
X393221D01*
X392364Y113824D01*
X392079Y114109D01*
X391793Y114681D01*
X638302Y119537D02*
Y113538D01*
X641730D01*
X642387Y118394D02*
X642958Y118680D01*
X643815Y119537D01*
Y113538D01*
X646786Y111538D02*
X651356D01*
X652128Y119537D02*
Y113538D01*
Y119537D02*
X654698D01*
X655555Y119251D01*
X655841Y118965D01*
X656127Y118394D01*
Y117823D01*
X655841Y117252D01*
X655555Y116966D01*
X654698Y116680D01*
X652128D02*
X654698D01*
X655555Y116395D01*
X655841Y116109D01*
X656127Y115538D01*
Y114681D01*
X655841Y114109D01*
X655555Y113824D01*
X654698Y113538D01*
X652128D01*
X660897Y119537D02*
X658041D01*
X657755Y116966D01*
X658041Y117252D01*
X658897Y117537D01*
X659754D01*
X660611Y117252D01*
X661183Y116680D01*
X661468Y115823D01*
Y115252D01*
X661183Y114395D01*
X660611Y113824D01*
X659754Y113538D01*
X658897D01*
X658041Y113824D01*
X657755Y114109D01*
X657469Y114681D01*
X664525Y119537D02*
X663668Y119251D01*
X663097Y118394D01*
X662811Y116966D01*
Y116109D01*
X663097Y114681D01*
X663668Y113824D01*
X664525Y113538D01*
X665096D01*
X665953Y113824D01*
X666524Y114681D01*
X666810Y116109D01*
Y116966D01*
X666524Y118394D01*
X665953Y119251D01*
X665096Y119537D01*
X664525D01*
X118364Y811592D02*
X120935D01*
X121792Y811878D01*
X122078Y812164D01*
X122363Y812735D01*
Y813592D01*
X122078Y814163D01*
X121792Y814449D01*
X120935Y814735D01*
X118364D01*
Y808736D01*
X123706Y813592D02*
X124277Y813878D01*
X125134Y814735D01*
Y808736D01*
X129819Y814735D02*
X128962Y814449D01*
X128390Y813592D01*
X128105Y812164D01*
Y811307D01*
X128390Y809879D01*
X128962Y809022D01*
X129819Y808736D01*
X130390D01*
X131247Y809022D01*
X131818Y809879D01*
X132104Y811307D01*
Y812164D01*
X131818Y813592D01*
X131247Y814449D01*
X130390Y814735D01*
X129819D01*
X135160D02*
X134303Y814449D01*
X133732Y813592D01*
X133446Y812164D01*
Y811307D01*
X133732Y809879D01*
X134303Y809022D01*
X135160Y808736D01*
X135732D01*
X136589Y809022D01*
X137160Y809879D01*
X137446Y811307D01*
Y812164D01*
X137160Y813592D01*
X136589Y814449D01*
X135732Y814735D01*
X135160D01*
X337820Y811592D02*
X340391D01*
X341248Y811878D01*
X341534Y812164D01*
X341819Y812735D01*
Y813592D01*
X341534Y814163D01*
X341248Y814449D01*
X340391Y814735D01*
X337820D01*
Y808736D01*
X343162Y813592D02*
X343733Y813878D01*
X344590Y814735D01*
Y808736D01*
X349275Y814735D02*
X348418Y814449D01*
X347846Y813592D01*
X347561Y812164D01*
Y811307D01*
X347846Y809879D01*
X348418Y809022D01*
X349275Y808736D01*
X349846D01*
X350703Y809022D01*
X351274Y809879D01*
X351560Y811307D01*
Y812164D01*
X351274Y813592D01*
X350703Y814449D01*
X349846Y814735D01*
X349275D01*
X352902Y813592D02*
X353474Y813878D01*
X354331Y814735D01*
Y808736D01*
X554990Y811592D02*
X557561D01*
X558418Y811878D01*
X558703Y812164D01*
X558989Y812735D01*
Y813592D01*
X558703Y814163D01*
X558418Y814449D01*
X557561Y814735D01*
X554990D01*
Y808736D01*
X560332Y813592D02*
X560903Y813878D01*
X561760Y814735D01*
Y808736D01*
X566445Y814735D02*
X565588Y814449D01*
X565016Y813592D01*
X564731Y812164D01*
Y811307D01*
X565016Y809879D01*
X565588Y809022D01*
X566445Y808736D01*
X567016D01*
X567873Y809022D01*
X568444Y809879D01*
X568730Y811307D01*
Y812164D01*
X568444Y813592D01*
X567873Y814449D01*
X567016Y814735D01*
X566445D01*
X570358Y813307D02*
Y813592D01*
X570644Y814163D01*
X570929Y814449D01*
X571501Y814735D01*
X572643D01*
X573215Y814449D01*
X573500Y814163D01*
X573786Y813592D01*
Y813021D01*
X573500Y812449D01*
X572929Y811592D01*
X570072Y808736D01*
X574072D01*
X227330Y811592D02*
X229901D01*
X230758Y811878D01*
X231043Y812164D01*
X231329Y812735D01*
Y813592D01*
X231043Y814163D01*
X230758Y814449D01*
X229901Y814735D01*
X227330D01*
Y808736D01*
X232672Y813592D02*
X233243Y813878D01*
X234100Y814735D01*
Y808736D01*
X238785Y814735D02*
X237928Y814449D01*
X237356Y813592D01*
X237071Y812164D01*
Y811307D01*
X237356Y809879D01*
X237928Y809022D01*
X238785Y808736D01*
X239356D01*
X240213Y809022D01*
X240784Y809879D01*
X241070Y811307D01*
Y812164D01*
X240784Y813592D01*
X240213Y814449D01*
X239356Y814735D01*
X238785D01*
X242984D02*
X246126D01*
X244412Y812449D01*
X245269D01*
X245840Y812164D01*
X246126Y811878D01*
X246412Y811021D01*
Y810450D01*
X246126Y809593D01*
X245555Y809022D01*
X244698Y808736D01*
X243841D01*
X242984Y809022D01*
X242698Y809307D01*
X242412Y809879D01*
X445516Y811592D02*
X448087D01*
X448944Y811878D01*
X449230Y812164D01*
X449515Y812735D01*
Y813592D01*
X449230Y814163D01*
X448944Y814449D01*
X448087Y814735D01*
X445516D01*
Y808736D01*
X450858Y813592D02*
X451429Y813878D01*
X452286Y814735D01*
Y808736D01*
X456971Y814735D02*
X456114Y814449D01*
X455542Y813592D01*
X455257Y812164D01*
Y811307D01*
X455542Y809879D01*
X456114Y809022D01*
X456971Y808736D01*
X457542D01*
X458399Y809022D01*
X458970Y809879D01*
X459256Y811307D01*
Y812164D01*
X458970Y813592D01*
X458399Y814449D01*
X457542Y814735D01*
X456971D01*
X463455D02*
X460598Y810736D01*
X464883D01*
X463455Y814735D02*
Y808736D01*
X664464Y811846D02*
X667035D01*
X667892Y812132D01*
X668177Y812418D01*
X668463Y812989D01*
Y813846D01*
X668177Y814417D01*
X667892Y814703D01*
X667035Y814989D01*
X664464D01*
Y808990D01*
X669806Y813846D02*
X670377Y814132D01*
X671234Y814989D01*
Y808990D01*
X675919Y814989D02*
X675062Y814703D01*
X674490Y813846D01*
X674205Y812418D01*
Y811561D01*
X674490Y810133D01*
X675062Y809276D01*
X675919Y808990D01*
X676490D01*
X677347Y809276D01*
X677918Y810133D01*
X678204Y811561D01*
Y812418D01*
X677918Y813846D01*
X677347Y814703D01*
X676490Y814989D01*
X675919D01*
X682974D02*
X680118D01*
X679832Y812418D01*
X680118Y812703D01*
X680975Y812989D01*
X681832D01*
X682689Y812703D01*
X683260Y812132D01*
X683546Y811275D01*
Y810704D01*
X683260Y809847D01*
X682689Y809276D01*
X681832Y808990D01*
X680975D01*
X680118Y809276D01*
X679832Y809561D01*
X679546Y810133D01*
X32258Y495363D02*
X34829D01*
X35686Y495648D01*
X35972Y495934D01*
X36257Y496505D01*
Y497362D01*
X35972Y497933D01*
X35686Y498219D01*
X34829Y498505D01*
X32258D01*
Y492506D01*
X37600Y497362D02*
X38171Y497648D01*
X39028Y498505D01*
Y492506D01*
X43713Y498505D02*
X42856Y498219D01*
X42284Y497362D01*
X41999Y495934D01*
Y495077D01*
X42284Y493649D01*
X42856Y492792D01*
X43713Y492506D01*
X44284D01*
X45141Y492792D01*
X45712Y493649D01*
X45998Y495077D01*
Y495934D01*
X45712Y497362D01*
X45141Y498219D01*
X44284Y498505D01*
X43713D01*
X50768Y497648D02*
X50483Y498219D01*
X49626Y498505D01*
X49054D01*
X48197Y498219D01*
X47626Y497362D01*
X47340Y495934D01*
Y494506D01*
X47626Y493363D01*
X48197Y492792D01*
X49054Y492506D01*
X49340D01*
X50197Y492792D01*
X50768Y493363D01*
X51054Y494220D01*
Y494506D01*
X50768Y495363D01*
X50197Y495934D01*
X49340Y496219D01*
X49054D01*
X48197Y495934D01*
X47626Y495363D01*
X47340Y494506D01*
X109728Y825D02*
X112299D01*
X113156Y1110D01*
X113441Y1396D01*
X113727Y1967D01*
Y2824D01*
X113441Y3395D01*
X113156Y3681D01*
X112299Y3967D01*
X109728D01*
Y-2032D01*
X117926Y3967D02*
X115070Y-32D01*
X119354D01*
X117926Y3967D02*
Y-2032D01*
X122125Y3967D02*
X121268Y3681D01*
X120697Y2824D01*
X120411Y1396D01*
Y539D01*
X120697Y-889D01*
X121268Y-1746D01*
X122125Y-2032D01*
X122697D01*
X123554Y-1746D01*
X124125Y-889D01*
X124410Y539D01*
Y1396D01*
X124125Y2824D01*
X123554Y3681D01*
X122697Y3967D01*
X122125D01*
X127467D02*
X126610Y3681D01*
X126039Y2824D01*
X125753Y1396D01*
Y539D01*
X126039Y-889D01*
X126610Y-1746D01*
X127467Y-2032D01*
X128038D01*
X128895Y-1746D01*
X129467Y-889D01*
X129752Y539D01*
Y1396D01*
X129467Y2824D01*
X128895Y3681D01*
X128038Y3967D01*
X127467D01*
X-9208Y737265D02*
X-9779Y736979D01*
X-10351Y736408D01*
X-10636Y735836D01*
X-10922Y734979D01*
Y733551D01*
X-10636Y732694D01*
X-10351Y732123D01*
X-9779Y731552D01*
X-9208Y731266D01*
X-8066D01*
X-7494Y731552D01*
X-6923Y732123D01*
X-6637Y732694D01*
X-6352Y733551D01*
Y734979D01*
X-6637Y735836D01*
X-6923Y736408D01*
X-7494Y736979D01*
X-8066Y737265D01*
X-9208D01*
X-8351Y732409D02*
X-6637Y730695D01*
X-4666Y735836D02*
Y736122D01*
X-4381Y736693D01*
X-4095Y736979D01*
X-3524Y737265D01*
X-2381D01*
X-1810Y736979D01*
X-1524Y736693D01*
X-1238Y736122D01*
Y735551D01*
X-1524Y734979D01*
X-2095Y734122D01*
X-4952Y731266D01*
X-953D01*
X390Y729266D02*
X4960D01*
X5731Y737265D02*
Y731266D01*
Y737265D02*
X8302D01*
X9159Y736979D01*
X9445Y736693D01*
X9731Y736122D01*
Y735551D01*
X9445Y734979D01*
X9159Y734694D01*
X8302Y734408D01*
X5731D02*
X8302D01*
X9159Y734122D01*
X9445Y733837D01*
X9731Y733266D01*
Y732409D01*
X9445Y731837D01*
X9159Y731552D01*
X8302Y731266D01*
X5731D01*
X11073Y736122D02*
X11645Y736408D01*
X12501Y737265D01*
Y731266D01*
X263588Y737265D02*
X263017Y736979D01*
X262445Y736408D01*
X262160Y735836D01*
X261874Y734979D01*
Y733551D01*
X262160Y732694D01*
X262445Y732123D01*
X263017Y731552D01*
X263588Y731266D01*
X264730D01*
X265302Y731552D01*
X265873Y732123D01*
X266159Y732694D01*
X266444Y733551D01*
Y734979D01*
X266159Y735836D01*
X265873Y736408D01*
X265302Y736979D01*
X264730Y737265D01*
X263588D01*
X264445Y732409D02*
X266159Y730695D01*
X268130Y735836D02*
Y736122D01*
X268415Y736693D01*
X268701Y736979D01*
X269272Y737265D01*
X270415D01*
X270986Y736979D01*
X271272Y736693D01*
X271558Y736122D01*
Y735551D01*
X271272Y734979D01*
X270701Y734122D01*
X267844Y731266D01*
X271843D01*
X273186Y729266D02*
X277756D01*
X278528Y737265D02*
Y731266D01*
Y737265D02*
X281098D01*
X281955Y736979D01*
X282241Y736693D01*
X282527Y736122D01*
Y735551D01*
X282241Y734979D01*
X281955Y734694D01*
X281098Y734408D01*
X278528D02*
X281098D01*
X281955Y734122D01*
X282241Y733837D01*
X282527Y733266D01*
Y732409D01*
X282241Y731837D01*
X281955Y731552D01*
X281098Y731266D01*
X278528D01*
X284155Y735836D02*
Y736122D01*
X284440Y736693D01*
X284726Y736979D01*
X285298Y737265D01*
X286440D01*
X287011Y736979D01*
X287297Y736693D01*
X287583Y736122D01*
Y735551D01*
X287297Y734979D01*
X286726Y734122D01*
X283869Y731266D01*
X287868D01*
X532828Y737519D02*
X532257Y737233D01*
X531685Y736662D01*
X531400Y736090D01*
X531114Y735234D01*
Y733805D01*
X531400Y732948D01*
X531685Y732377D01*
X532257Y731806D01*
X532828Y731520D01*
X533970D01*
X534542Y731806D01*
X535113Y732377D01*
X535399Y732948D01*
X535685Y733805D01*
Y735234D01*
X535399Y736090D01*
X535113Y736662D01*
X534542Y737233D01*
X533970Y737519D01*
X532828D01*
X533685Y732663D02*
X535399Y730949D01*
X537370Y736090D02*
Y736376D01*
X537655Y736947D01*
X537941Y737233D01*
X538512Y737519D01*
X539655D01*
X540226Y737233D01*
X540512Y736947D01*
X540798Y736376D01*
Y735805D01*
X540512Y735234D01*
X539941Y734377D01*
X537084Y731520D01*
X541083D01*
X542426Y729520D02*
X546996D01*
X547767Y737519D02*
Y731520D01*
Y737519D02*
X550338D01*
X551195Y737233D01*
X551481Y736947D01*
X551767Y736376D01*
Y735805D01*
X551481Y735234D01*
X551195Y734948D01*
X550338Y734662D01*
X547767D02*
X550338D01*
X551195Y734377D01*
X551481Y734091D01*
X551767Y733520D01*
Y732663D01*
X551481Y732091D01*
X551195Y731806D01*
X550338Y731520D01*
X547767D01*
X553680Y737519D02*
X556823D01*
X555109Y735234D01*
X555966D01*
X556537Y734948D01*
X556823Y734662D01*
X557108Y733805D01*
Y733234D01*
X556823Y732377D01*
X556251Y731806D01*
X555394Y731520D01*
X554538D01*
X553680Y731806D01*
X553395Y732091D01*
X553109Y732663D01*
X226251Y153500D02*
X232250D01*
X226251D02*
Y156071D01*
X226537Y156928D01*
X226823Y157213D01*
X227394Y157499D01*
X227965D01*
X228536Y157213D01*
X228822Y156928D01*
X229108Y156071D01*
Y153500D01*
Y155500D02*
X232250Y157499D01*
X227394Y158842D02*
X227108Y159413D01*
X226251Y160270D01*
X232250D01*
X234250Y163241D02*
Y167811D01*
X226251Y168582D02*
X232250D01*
X226251D02*
Y171153D01*
X226537Y172010D01*
X226823Y172296D01*
X227394Y172582D01*
X227965D01*
X228536Y172296D01*
X228822Y172010D01*
X229108Y171153D01*
Y168582D02*
Y171153D01*
X229394Y172010D01*
X229679Y172296D01*
X230250Y172582D01*
X231107D01*
X231679Y172296D01*
X231964Y172010D01*
X232250Y171153D01*
Y168582D01*
X226251Y174495D02*
Y177638D01*
X228536Y175924D01*
Y176781D01*
X228822Y177352D01*
X229108Y177638D01*
X229965Y177923D01*
X230536D01*
X231393Y177638D01*
X231964Y177066D01*
X232250Y176209D01*
Y175352D01*
X231964Y174495D01*
X231679Y174210D01*
X231107Y173924D01*
X226251Y179837D02*
Y182979D01*
X228536Y181265D01*
Y182122D01*
X228822Y182694D01*
X229108Y182979D01*
X229965Y183265D01*
X230536D01*
X231393Y182979D01*
X231964Y182408D01*
X232250Y181551D01*
Y180694D01*
X231964Y179837D01*
X231679Y179552D01*
X231107Y179266D01*
X497251Y153000D02*
X503250D01*
X497251D02*
Y155571D01*
X497537Y156428D01*
X497823Y156713D01*
X498394Y156999D01*
X498965D01*
X499537Y156713D01*
X499822Y156428D01*
X500108Y155571D01*
Y153000D01*
Y155000D02*
X503250Y156999D01*
X498394Y158342D02*
X498108Y158913D01*
X497251Y159770D01*
X503250D01*
X505250Y162741D02*
Y167311D01*
X497251Y168082D02*
X503250D01*
X497251D02*
Y170653D01*
X497537Y171510D01*
X497823Y171796D01*
X498394Y172082D01*
X498965D01*
X499537Y171796D01*
X499822Y171510D01*
X500108Y170653D01*
Y168082D02*
Y170653D01*
X500393Y171510D01*
X500679Y171796D01*
X501250Y172082D01*
X502107D01*
X502679Y171796D01*
X502964Y171510D01*
X503250Y170653D01*
Y168082D01*
X497251Y176852D02*
Y173995D01*
X499822Y173710D01*
X499537Y173995D01*
X499251Y174852D01*
Y175709D01*
X499537Y176566D01*
X500108Y177138D01*
X500965Y177423D01*
X501536D01*
X502393Y177138D01*
X502964Y176566D01*
X503250Y175709D01*
Y174852D01*
X502964Y173995D01*
X502679Y173710D01*
X502107Y173424D01*
X497251Y180480D02*
X497537Y179623D01*
X498394Y179051D01*
X499822Y178766D01*
X500679D01*
X502107Y179051D01*
X502964Y179623D01*
X503250Y180480D01*
Y181051D01*
X502964Y181908D01*
X502107Y182479D01*
X500679Y182765D01*
X499822D01*
X498394Y182479D01*
X497537Y181908D01*
X497251Y181051D01*
Y180480D01*
X209001Y153000D02*
X215000D01*
X209001D02*
Y155571D01*
X209287Y156428D01*
X209573Y156713D01*
X210144Y156999D01*
X210715D01*
X211287Y156713D01*
X211572Y156428D01*
X211858Y155571D01*
Y153000D01*
Y155000D02*
X215000Y156999D01*
X210430Y158627D02*
X210144D01*
X209573Y158913D01*
X209287Y159199D01*
X209001Y159770D01*
Y160913D01*
X209287Y161484D01*
X209573Y161770D01*
X210144Y162055D01*
X210715D01*
X211287Y161770D01*
X212143Y161198D01*
X215000Y158342D01*
Y162341D01*
X217000Y163683D02*
Y168254D01*
X209001Y169025D02*
X215000D01*
X209001D02*
Y171596D01*
X209287Y172453D01*
X209573Y172739D01*
X210144Y173024D01*
X210715D01*
X211287Y172739D01*
X211572Y172453D01*
X211858Y171596D01*
Y169025D02*
Y171596D01*
X212143Y172453D01*
X212429Y172739D01*
X213000Y173024D01*
X213857D01*
X214429Y172739D01*
X214714Y172453D01*
X215000Y171596D01*
Y169025D01*
X209001Y174938D02*
Y178080D01*
X211287Y176366D01*
Y177223D01*
X211572Y177795D01*
X211858Y178080D01*
X212715Y178366D01*
X213286D01*
X214143Y178080D01*
X214714Y177509D01*
X215000Y176652D01*
Y175795D01*
X214714Y174938D01*
X214429Y174652D01*
X213857Y174367D01*
X209001Y180280D02*
Y183422D01*
X211287Y181708D01*
Y182565D01*
X211572Y183136D01*
X211858Y183422D01*
X212715Y183708D01*
X213286D01*
X214143Y183422D01*
X214714Y182851D01*
X215000Y181994D01*
Y181137D01*
X214714Y180280D01*
X214429Y179994D01*
X213857Y179708D01*
X480501Y153250D02*
X486500D01*
X480501D02*
Y155821D01*
X480787Y156678D01*
X481073Y156964D01*
X481644Y157249D01*
X482215D01*
X482786Y156964D01*
X483072Y156678D01*
X483358Y155821D01*
Y153250D01*
Y155250D02*
X486500Y157249D01*
X481930Y158877D02*
X481644D01*
X481073Y159163D01*
X480787Y159449D01*
X480501Y160020D01*
Y161163D01*
X480787Y161734D01*
X481073Y162020D01*
X481644Y162305D01*
X482215D01*
X482786Y162020D01*
X483643Y161448D01*
X486500Y158592D01*
Y162591D01*
X488500Y163933D02*
Y168504D01*
X480501Y169275D02*
X486500D01*
X480501D02*
Y171846D01*
X480787Y172703D01*
X481073Y172989D01*
X481644Y173274D01*
X482215D01*
X482786Y172989D01*
X483072Y172703D01*
X483358Y171846D01*
Y169275D02*
Y171846D01*
X483643Y172703D01*
X483929Y172989D01*
X484500Y173274D01*
X485357D01*
X485929Y172989D01*
X486214Y172703D01*
X486500Y171846D01*
Y169275D01*
X480501Y178045D02*
Y175188D01*
X483072Y174902D01*
X482786Y175188D01*
X482501Y176045D01*
Y176902D01*
X482786Y177759D01*
X483358Y178330D01*
X484215Y178616D01*
X484786D01*
X485643Y178330D01*
X486214Y177759D01*
X486500Y176902D01*
Y176045D01*
X486214Y175188D01*
X485929Y174902D01*
X485357Y174617D01*
X480501Y181672D02*
X480787Y180815D01*
X481644Y180244D01*
X483072Y179958D01*
X483929D01*
X485357Y180244D01*
X486214Y180815D01*
X486500Y181672D01*
Y182244D01*
X486214Y183101D01*
X485357Y183672D01*
X483929Y183958D01*
X483072D01*
X481644Y183672D01*
X480787Y183101D01*
X480501Y182244D01*
Y181672D01*
X193001Y152750D02*
X199000D01*
X193001D02*
Y155321D01*
X193287Y156178D01*
X193573Y156463D01*
X194144Y156749D01*
X194715D01*
X195287Y156463D01*
X195572Y156178D01*
X195858Y155321D01*
Y152750D01*
Y154750D02*
X199000Y156749D01*
X193001Y158663D02*
Y161805D01*
X195287Y160091D01*
Y160948D01*
X195572Y161520D01*
X195858Y161805D01*
X196715Y162091D01*
X197286D01*
X198143Y161805D01*
X198714Y161234D01*
X199000Y160377D01*
Y159520D01*
X198714Y158663D01*
X198429Y158377D01*
X197857Y158092D01*
X201000Y163433D02*
Y168004D01*
X193001Y168775D02*
X199000D01*
X193001D02*
Y171346D01*
X193287Y172203D01*
X193573Y172489D01*
X194144Y172774D01*
X194715D01*
X195287Y172489D01*
X195572Y172203D01*
X195858Y171346D01*
Y168775D02*
Y171346D01*
X196143Y172203D01*
X196429Y172489D01*
X197000Y172774D01*
X197857D01*
X198429Y172489D01*
X198714Y172203D01*
X199000Y171346D01*
Y168775D01*
X193001Y174688D02*
Y177830D01*
X195287Y176116D01*
Y176973D01*
X195572Y177545D01*
X195858Y177830D01*
X196715Y178116D01*
X197286D01*
X198143Y177830D01*
X198714Y177259D01*
X199000Y176402D01*
Y175545D01*
X198714Y174688D01*
X198429Y174402D01*
X197857Y174117D01*
X193001Y180030D02*
Y183172D01*
X195287Y181458D01*
Y182315D01*
X195572Y182886D01*
X195858Y183172D01*
X196715Y183458D01*
X197286D01*
X198143Y183172D01*
X198714Y182601D01*
X199000Y181744D01*
Y180887D01*
X198714Y180030D01*
X198429Y179744D01*
X197857Y179459D01*
X464751Y152500D02*
X470750D01*
X464751D02*
Y155071D01*
X465037Y155928D01*
X465323Y156214D01*
X465894Y156499D01*
X466465D01*
X467037Y156214D01*
X467322Y155928D01*
X467608Y155071D01*
Y152500D01*
Y154500D02*
X470750Y156499D01*
X464751Y158413D02*
Y161555D01*
X467037Y159841D01*
Y160698D01*
X467322Y161269D01*
X467608Y161555D01*
X468465Y161841D01*
X469036D01*
X469893Y161555D01*
X470464Y160984D01*
X470750Y160127D01*
Y159270D01*
X470464Y158413D01*
X470179Y158127D01*
X469607Y157842D01*
X472750Y163183D02*
Y167754D01*
X464751Y168525D02*
X470750D01*
X464751D02*
Y171096D01*
X465037Y171953D01*
X465323Y172239D01*
X465894Y172524D01*
X466465D01*
X467037Y172239D01*
X467322Y171953D01*
X467608Y171096D01*
Y168525D02*
Y171096D01*
X467893Y171953D01*
X468179Y172239D01*
X468750Y172524D01*
X469607D01*
X470179Y172239D01*
X470464Y171953D01*
X470750Y171096D01*
Y168525D01*
X464751Y177295D02*
Y174438D01*
X467322Y174152D01*
X467037Y174438D01*
X466751Y175295D01*
Y176152D01*
X467037Y177009D01*
X467608Y177580D01*
X468465Y177866D01*
X469036D01*
X469893Y177580D01*
X470464Y177009D01*
X470750Y176152D01*
Y175295D01*
X470464Y174438D01*
X470179Y174152D01*
X469607Y173867D01*
X464751Y180922D02*
X465037Y180065D01*
X465894Y179494D01*
X467322Y179209D01*
X468179D01*
X469607Y179494D01*
X470464Y180065D01*
X470750Y180922D01*
Y181494D01*
X470464Y182351D01*
X469607Y182922D01*
X468179Y183208D01*
X467322D01*
X465894Y182922D01*
X465037Y182351D01*
X464751Y181494D01*
Y180922D01*
X-30480Y553877D02*
Y547878D01*
Y553877D02*
X-27909D01*
X-27052Y553591D01*
X-26767Y553305D01*
X-26481Y552734D01*
Y552163D01*
X-26767Y551591D01*
X-27052Y551306D01*
X-27909Y551020D01*
X-30480D01*
X-28480D02*
X-26481Y547878D01*
X-25138Y552734D02*
X-24567Y553020D01*
X-23710Y553877D01*
Y547878D01*
X-19025Y553877D02*
X-19882Y553591D01*
X-20454Y552734D01*
X-20739Y551306D01*
Y550449D01*
X-20454Y549021D01*
X-19882Y548164D01*
X-19025Y547878D01*
X-18454D01*
X-17597Y548164D01*
X-17026Y549021D01*
X-16740Y550449D01*
Y551306D01*
X-17026Y552734D01*
X-17597Y553591D01*
X-18454Y553877D01*
X-19025D01*
X-13684D02*
X-14541Y553591D01*
X-15112Y552734D01*
X-15398Y551306D01*
Y550449D01*
X-15112Y549021D01*
X-14541Y548164D01*
X-13684Y547878D01*
X-13112D01*
X-12255Y548164D01*
X-11684Y549021D01*
X-11398Y550449D01*
Y551306D01*
X-11684Y552734D01*
X-12255Y553591D01*
X-13112Y553877D01*
X-13684D01*
X7620Y188117D02*
Y182118D01*
Y188117D02*
X10191D01*
X11048Y187831D01*
X11334Y187545D01*
X11619Y186974D01*
Y186403D01*
X11334Y185832D01*
X11048Y185546D01*
X10191Y185260D01*
X7620D01*
X9620D02*
X11619Y182118D01*
X12962Y186974D02*
X13533Y187260D01*
X14390Y188117D01*
Y182118D01*
X19075Y188117D02*
X18218Y187831D01*
X17646Y186974D01*
X17361Y185546D01*
Y184689D01*
X17646Y183261D01*
X18218Y182404D01*
X19075Y182118D01*
X19646D01*
X20503Y182404D01*
X21074Y183261D01*
X21360Y184689D01*
Y185546D01*
X21074Y186974D01*
X20503Y187831D01*
X19646Y188117D01*
X19075D01*
X22702Y186974D02*
X23274Y187260D01*
X24131Y188117D01*
Y182118D01*
X185928Y730915D02*
Y724916D01*
Y730915D02*
X188499D01*
X189356Y730629D01*
X189641Y730343D01*
X189927Y729772D01*
Y729201D01*
X189641Y728630D01*
X189356Y728344D01*
X188499Y728058D01*
X185928D01*
X187928D02*
X189927Y724916D01*
X191270Y729772D02*
X191841Y730058D01*
X192698Y730915D01*
Y724916D01*
X197383Y730915D02*
X196526Y730629D01*
X195954Y729772D01*
X195669Y728344D01*
Y727487D01*
X195954Y726059D01*
X196526Y725202D01*
X197383Y724916D01*
X197954D01*
X198811Y725202D01*
X199382Y726059D01*
X199668Y727487D01*
Y728344D01*
X199382Y729772D01*
X198811Y730629D01*
X197954Y730915D01*
X197383D01*
X205010D02*
X202153Y724916D01*
X201010Y730915D02*
X205010D01*
X206352Y722916D02*
X210923D01*
X211694Y730915D02*
Y724916D01*
Y730915D02*
X214265D01*
X215122Y730629D01*
X215407Y730343D01*
X215693Y729772D01*
Y729201D01*
X215407Y728630D01*
X215122Y728344D01*
X214265Y728058D01*
X211694D02*
X214265D01*
X215122Y727773D01*
X215407Y727487D01*
X215693Y726916D01*
Y726059D01*
X215407Y725487D01*
X215122Y725202D01*
X214265Y724916D01*
X211694D01*
X217036Y729772D02*
X217607Y730058D01*
X218464Y730915D01*
Y724916D01*
X455930Y730915D02*
Y724916D01*
Y730915D02*
X458501D01*
X459358Y730629D01*
X459644Y730343D01*
X459929Y729772D01*
Y729201D01*
X459644Y728630D01*
X459358Y728344D01*
X458501Y728058D01*
X455930D01*
X457930D02*
X459929Y724916D01*
X461272Y729772D02*
X461843Y730058D01*
X462700Y730915D01*
Y724916D01*
X467385Y730915D02*
X466528Y730629D01*
X465956Y729772D01*
X465671Y728344D01*
Y727487D01*
X465956Y726059D01*
X466528Y725202D01*
X467385Y724916D01*
X467956D01*
X468813Y725202D01*
X469384Y726059D01*
X469670Y727487D01*
Y728344D01*
X469384Y729772D01*
X468813Y730629D01*
X467956Y730915D01*
X467385D01*
X475012D02*
X472155Y724916D01*
X471012Y730915D02*
X475012D01*
X476354Y722916D02*
X480925D01*
X481696Y730915D02*
Y724916D01*
Y730915D02*
X484267D01*
X485124Y730629D01*
X485409Y730343D01*
X485695Y729772D01*
Y729201D01*
X485409Y728630D01*
X485124Y728344D01*
X484267Y728058D01*
X481696D02*
X484267D01*
X485124Y727773D01*
X485409Y727487D01*
X485695Y726916D01*
Y726059D01*
X485409Y725487D01*
X485124Y725202D01*
X484267Y724916D01*
X481696D01*
X487323Y729486D02*
Y729772D01*
X487609Y730343D01*
X487895Y730629D01*
X488466Y730915D01*
X489608D01*
X490180Y730629D01*
X490465Y730343D01*
X490751Y729772D01*
Y729201D01*
X490465Y728630D01*
X489894Y727773D01*
X487038Y724916D01*
X491037D01*
X725424Y730915D02*
Y724916D01*
Y730915D02*
X727995D01*
X728852Y730629D01*
X729137Y730343D01*
X729423Y729772D01*
Y729201D01*
X729137Y728630D01*
X728852Y728344D01*
X727995Y728058D01*
X725424D01*
X727424D02*
X729423Y724916D01*
X730766Y729772D02*
X731337Y730058D01*
X732194Y730915D01*
Y724916D01*
X736879Y730915D02*
X736022Y730629D01*
X735450Y729772D01*
X735165Y728344D01*
Y727487D01*
X735450Y726059D01*
X736022Y725202D01*
X736879Y724916D01*
X737450D01*
X738307Y725202D01*
X738878Y726059D01*
X739164Y727487D01*
Y728344D01*
X738878Y729772D01*
X738307Y730629D01*
X737450Y730915D01*
X736879D01*
X744506D02*
X741649Y724916D01*
X740506Y730915D02*
X744506D01*
X745848Y722916D02*
X750419D01*
X751190Y730915D02*
Y724916D01*
Y730915D02*
X753761D01*
X754618Y730629D01*
X754903Y730343D01*
X755189Y729772D01*
Y729201D01*
X754903Y728630D01*
X754618Y728344D01*
X753761Y728058D01*
X751190D02*
X753761D01*
X754618Y727773D01*
X754903Y727487D01*
X755189Y726916D01*
Y726059D01*
X754903Y725487D01*
X754618Y725202D01*
X753761Y724916D01*
X751190D01*
X757103Y730915D02*
X760245D01*
X758531Y728630D01*
X759388D01*
X759959Y728344D01*
X760245Y728058D01*
X760531Y727201D01*
Y726630D01*
X760245Y725773D01*
X759674Y725202D01*
X758817Y724916D01*
X757960D01*
X757103Y725202D01*
X756817Y725487D01*
X756532Y726059D01*
X240030Y38003D02*
Y33718D01*
X240316Y32861D01*
X240887Y32290D01*
X241744Y32004D01*
X242315D01*
X243172Y32290D01*
X243743Y32861D01*
X244029Y33718D01*
Y38003D01*
X245686Y36860D02*
X246257Y37146D01*
X247114Y38003D01*
Y32004D01*
X250085Y30004D02*
X254655D01*
X255427Y38003D02*
Y32004D01*
Y38003D02*
X257997D01*
X258855Y37717D01*
X259140Y37431D01*
X259426Y36860D01*
Y36289D01*
X259140Y35717D01*
X258855Y35432D01*
X257997Y35146D01*
X255427D02*
X257997D01*
X258855Y34860D01*
X259140Y34575D01*
X259426Y34004D01*
Y33147D01*
X259140Y32575D01*
X258855Y32290D01*
X257997Y32004D01*
X255427D01*
X261340Y38003D02*
X264482D01*
X262768Y35717D01*
X263625D01*
X264196Y35432D01*
X264482Y35146D01*
X264767Y34289D01*
Y33718D01*
X264482Y32861D01*
X263911Y32290D01*
X263054Y32004D01*
X262197D01*
X261340Y32290D01*
X261054Y32575D01*
X260768Y33147D01*
X266681Y38003D02*
X269823D01*
X268110Y35717D01*
X268967D01*
X269538Y35432D01*
X269823Y35146D01*
X270109Y34289D01*
Y33718D01*
X269823Y32861D01*
X269252Y32290D01*
X268395Y32004D01*
X267538D01*
X266681Y32290D01*
X266396Y32575D01*
X266110Y33147D01*
X511556Y38257D02*
Y33972D01*
X511842Y33115D01*
X512413Y32544D01*
X513270Y32258D01*
X513841D01*
X514698Y32544D01*
X515270Y33115D01*
X515555Y33972D01*
Y38257D01*
X517212Y37114D02*
X517783Y37400D01*
X518640Y38257D01*
Y32258D01*
X521611Y30258D02*
X526181D01*
X526953Y38257D02*
Y32258D01*
Y38257D02*
X529524D01*
X530381Y37971D01*
X530666Y37685D01*
X530952Y37114D01*
Y36543D01*
X530666Y35972D01*
X530381Y35686D01*
X529524Y35400D01*
X526953D02*
X529524D01*
X530381Y35115D01*
X530666Y34829D01*
X530952Y34258D01*
Y33401D01*
X530666Y32829D01*
X530381Y32544D01*
X529524Y32258D01*
X526953D01*
X535722Y38257D02*
X532866D01*
X532580Y35686D01*
X532866Y35972D01*
X533723Y36257D01*
X534580D01*
X535437Y35972D01*
X536008Y35400D01*
X536293Y34543D01*
Y33972D01*
X536008Y33115D01*
X535437Y32544D01*
X534580Y32258D01*
X533723D01*
X532866Y32544D01*
X532580Y32829D01*
X532294Y33401D01*
X539350Y38257D02*
X538493Y37971D01*
X537922Y37114D01*
X537636Y35686D01*
Y34829D01*
X537922Y33401D01*
X538493Y32544D01*
X539350Y32258D01*
X539921D01*
X540778Y32544D01*
X541349Y33401D01*
X541635Y34829D01*
Y35686D01*
X541349Y37114D01*
X540778Y37971D01*
X539921Y38257D01*
X539350D01*
X791464Y396651D02*
Y390652D01*
X795463Y396651D02*
Y390652D01*
X791464Y393794D02*
X795463D01*
X797120Y395508D02*
X797691Y395794D01*
X798548Y396651D01*
Y390652D01*
X840994Y396651D02*
Y390652D01*
X844993Y396651D02*
Y390652D01*
X840994Y393794D02*
X844993D01*
X846936Y395223D02*
Y395508D01*
X847221Y396079D01*
X847507Y396365D01*
X848078Y396651D01*
X849221D01*
X849792Y396365D01*
X850078Y396079D01*
X850363Y395508D01*
Y394937D01*
X850078Y394366D01*
X849507Y393508D01*
X846650Y390652D01*
X850649D01*
X687038Y401731D02*
Y395732D01*
X685038Y401731D02*
X689037D01*
X689751D02*
Y395732D01*
Y401731D02*
X692037Y395732D01*
X694322Y401731D02*
X692037Y395732D01*
X694322Y401731D02*
Y395732D01*
X696036Y398588D02*
X698606D01*
X699464Y398874D01*
X699749Y399160D01*
X700035Y399731D01*
Y400588D01*
X699749Y401159D01*
X699464Y401445D01*
X698606Y401731D01*
X696036D01*
Y395732D01*
X704234Y401731D02*
X701377Y397732D01*
X705662D01*
X704234Y401731D02*
Y395732D01*
X-15273Y88645D02*
X-15559Y89216D01*
X-16130Y89787D01*
X-16702Y90073D01*
X-17844D01*
X-18415Y89787D01*
X-18987Y89216D01*
X-19272Y88645D01*
X-19558Y87788D01*
Y86359D01*
X-19272Y85502D01*
X-18987Y84931D01*
X-18415Y84360D01*
X-17844Y84074D01*
X-16702D01*
X-16130Y84360D01*
X-15559Y84931D01*
X-15273Y85502D01*
X-10731Y90073D02*
X-13588Y86074D01*
X-9303D01*
X-10731Y90073D02*
Y84074D01*
X-6532Y90073D02*
X-7389Y89787D01*
X-7961Y88930D01*
X-8246Y87502D01*
Y86645D01*
X-7961Y85217D01*
X-7389Y84360D01*
X-6532Y84074D01*
X-5961D01*
X-5104Y84360D01*
X-4533Y85217D01*
X-4247Y86645D01*
Y87502D01*
X-4533Y88930D01*
X-5104Y89787D01*
X-5961Y90073D01*
X-6532D01*
X-2905Y88930D02*
X-2333Y89216D01*
X-1476Y90073D01*
Y84074D01*
X757682Y35717D02*
Y29718D01*
X761681Y35717D02*
X757682Y31718D01*
X759110Y33146D02*
X761681Y29718D01*
X767023Y34860D02*
X766451Y35431D01*
X765595Y35717D01*
X764452D01*
X763595Y35431D01*
X763024Y34860D01*
Y34288D01*
X763309Y33717D01*
X763595Y33431D01*
X764166Y33146D01*
X765880Y32575D01*
X766451Y32289D01*
X766737Y32003D01*
X767023Y31432D01*
Y30575D01*
X766451Y30004D01*
X765595Y29718D01*
X764452D01*
X763595Y30004D01*
X763024Y30575D01*
X768651Y34288D02*
Y34574D01*
X768937Y35145D01*
X769222Y35431D01*
X769794Y35717D01*
X770936D01*
X771508Y35431D01*
X771793Y35145D01*
X772079Y34574D01*
Y34003D01*
X771793Y33431D01*
X771222Y32575D01*
X768365Y29718D01*
X772365D01*
X200660Y468946D02*
X203231D01*
X204088Y469232D01*
X204373Y469518D01*
X204659Y470089D01*
Y470946D01*
X204373Y471517D01*
X204088Y471803D01*
X203231Y472089D01*
X200660D01*
Y466090D01*
X206002Y472089D02*
Y466090D01*
Y472089D02*
X208573D01*
X209429Y471803D01*
X209715Y471517D01*
X210001Y470946D01*
Y470375D01*
X209715Y469804D01*
X209429Y469518D01*
X208573Y469232D01*
X206002D02*
X208573D01*
X209429Y468946D01*
X209715Y468661D01*
X210001Y468090D01*
Y467233D01*
X209715Y466661D01*
X209429Y466376D01*
X208573Y466090D01*
X206002D01*
X215914D02*
X213629Y472089D01*
X211343Y466090D01*
X212200Y468090D02*
X215057D01*
X219313Y472089D02*
Y466090D01*
X217313Y472089D02*
X221313D01*
X222027Y470946D02*
X222598Y471232D01*
X223455Y472089D01*
Y466090D01*
X33551Y433801D02*
Y439799D01*
X36550D01*
X37550Y438799D01*
Y436800D01*
X36550Y435800D01*
X33551D01*
X39549Y433801D02*
X41548D01*
X40549D01*
Y439799D01*
X39549Y438799D01*
X44547D02*
X45547Y439799D01*
X47547D01*
X48546Y438799D01*
Y434801D01*
X47547Y433801D01*
X45547D01*
X44547Y434801D01*
Y438799D01*
X50546Y439799D02*
X54544D01*
Y438799D01*
X50546Y434801D01*
Y433801D01*
X514926Y433605D02*
X512926D01*
X513926D01*
Y428607D01*
X512926Y427607D01*
X511927D01*
X510927Y428607D01*
X516925Y427607D02*
X518924D01*
X517925D01*
Y433605D01*
X516925Y432605D01*
D234*
X514147Y236000D02*
D03*
X526847D02*
D03*
X582646Y186000D02*
D03*
X595346D02*
D03*
M02*
