%FSLAX44Y44*%
%MOMM*%
G71*
G01*
G75*
G04 Layer_Physical_Order=3*
G04 Layer_Color=36540*
%ADD10R,1.5000X1.6000*%
%ADD11R,0.3500X1.3500*%
%ADD12R,1.8900X1.5700*%
%ADD13R,1.6000X1.5000*%
%ADD14R,1.6000X2.2000*%
%ADD15R,0.8000X1.3000*%
%ADD16R,2.1000X3.0000*%
%ADD17R,1.2000X2.0000*%
%ADD18R,0.6000X1.2000*%
%ADD19R,0.5000X0.8500*%
%ADD20R,1.0200X0.6000*%
%ADD21R,1.2700X0.6000*%
%ADD22R,1.3000X0.6000*%
%ADD23R,0.6000X1.8000*%
%ADD24R,1.1000X1.1000*%
%ADD25R,1.1000X1.1000*%
%ADD26R,1.0500X1.0800*%
%ADD27R,1.1000X1.0000*%
%ADD28R,1.8000X0.6000*%
%ADD29R,1.0000X1.1000*%
%ADD30R,1.0000X1.5000*%
%ADD31R,1.0800X1.0500*%
%ADD32R,0.9000X0.4000*%
%ADD33R,1.4000X1.0000*%
%ADD34R,1.3000X0.6000*%
%ADD35R,5.6000X5.6000*%
%ADD36O,0.2500X0.8500*%
%ADD37O,0.8500X0.2500*%
%ADD38R,0.7000X1.3000*%
%ADD39R,1.0000X1.8000*%
%ADD40R,0.8890X0.4200*%
%ADD41R,0.8000X2.0000*%
%ADD42R,2.1000X3.0000*%
%ADD43R,1.7000X1.1000*%
%ADD44R,3.5000X2.2000*%
%ADD45C,0.2000*%
%ADD46C,0.2540*%
%ADD47C,0.3000*%
%ADD48C,0.2500*%
%ADD49R,3.0000X4.0000*%
%ADD50R,3.2999X8.9500*%
%ADD51R,3.2250X8.8500*%
%ADD52R,3.4700X4.3300*%
%ADD53R,3.2250X8.8000*%
%ADD54R,3.0000X7.7500*%
%ADD55R,10.4500X5.0000*%
%ADD56R,3.0000X8.8500*%
%ADD57R,10.4000X5.0000*%
%ADD58R,6.6250X4.4250*%
%ADD59R,5.1250X1.5250*%
%ADD60R,3.5000X3.5000*%
%ADD61O,10.0000X5.0000*%
%ADD62C,6.0000*%
%ADD63C,0.8000*%
%ADD64C,0.7000*%
%ADD65C,1.0000*%
%ADD66C,0.6000*%
%ADD67C,0.5000*%
%ADD68C,0.6600*%
%ADD69C,1.0160*%
%ADD70C,2.7000*%
%ADD71O,7.5000X1.5000*%
%ADD72C,3.7000*%
%ADD73C,0.8000*%
%ADD74C,1.0000*%
%ADD75C,0.7000*%
%ADD76C,0.7500*%
%ADD77C,0.8300*%
%ADD78C,0.8000*%
%ADD79C,0.4000*%
%ADD80R,3.5001X3.6500*%
%ADD81R,2.9000X5.0000*%
%ADD82R,3.2500X8.0750*%
%ADD83R,31.2250X5.0000*%
%ADD84R,3.0751X10.8250*%
%ADD85R,35.9250X4.5750*%
%ADD86R,3.2250X10.5000*%
%ADD87R,1.8250X5.1750*%
%ADD88R,4.6250X7.2500*%
%ADD89R,7.4500X2.4750*%
%ADD90R,3.4500X2.4250*%
%ADD91R,2.1500X1.7500*%
%ADD92C,5.0000*%
G36*
X200500Y275000D02*
X165238D01*
X164996Y278065D01*
X163986Y282274D01*
X162329Y286273D01*
X160068Y289964D01*
X157257Y293256D01*
X153965Y296067D01*
X150274Y298328D01*
X146275Y299985D01*
X142066Y300995D01*
X137751Y301335D01*
X133436Y300995D01*
X129227Y299985D01*
X125228Y298328D01*
X121537Y296067D01*
X118245Y293256D01*
X115434Y289964D01*
X113173Y286273D01*
X111516Y282274D01*
X110506Y278065D01*
X110264Y275000D01*
X105000D01*
Y325000D01*
X200500D01*
Y275000D01*
D02*
G37*
D45*
X215250Y84250D02*
Y138500D01*
X201000Y70000D02*
X215250Y84250D01*
X199500Y63000D02*
X219000Y82500D01*
X197950Y56500D02*
X222500Y81050D01*
X179502Y63000D02*
X199500D01*
X219000Y82500D02*
Y140000D01*
X182449Y56500D02*
X197950D01*
X222500Y81050D02*
Y141450D01*
X447500Y107000D02*
Y150750D01*
X401500Y61000D02*
X447500Y107000D01*
X273250Y61000D02*
X401500D01*
X447500Y150750D02*
X462000Y165250D01*
X514250D01*
X534000Y185000D01*
Y196252D01*
X544750Y207002D01*
X553250Y230250D02*
X573500Y250500D01*
X530250Y230250D02*
X553250D01*
X573500Y250500D02*
Y275750D01*
X556500Y226500D02*
X591000Y261000D01*
X565251Y284000D02*
X573500Y275750D01*
X547444Y226500D02*
X556500D01*
X591000Y261000D02*
Y287250D01*
X553750Y284000D02*
X565251D01*
X506500Y206500D02*
X530250Y230250D01*
X483000Y206500D02*
X506500D01*
X504250Y197000D02*
X533751Y226501D01*
X547442D01*
X547444Y226500D01*
X481000Y208500D02*
X483000Y206500D01*
X497000Y197000D02*
X504250D01*
X610000Y287250D02*
Y299750D01*
X619250Y309000D01*
X78000Y94693D02*
X78750Y93943D01*
Y72250D02*
Y93943D01*
X82250Y63300D02*
Y100250D01*
X85750Y64500D02*
Y94250D01*
X82250Y61750D02*
Y63300D01*
X85750Y64500D02*
X100000Y50250D01*
X262500D01*
X78750Y57500D02*
Y72250D01*
X82250Y100250D02*
X82500Y100500D01*
X82250Y61750D02*
X107999Y36001D01*
X78750Y57500D02*
X103749Y32501D01*
X107999Y36001D02*
X623550D01*
X103749Y32501D02*
X632550D01*
X98999Y29001D02*
X654501D01*
X97549Y25501D02*
X660251D01*
X60749Y22001D02*
X673850D01*
X167002Y63000D02*
X174002Y70000D01*
X201000D01*
X36500Y46250D02*
X60749Y22001D01*
X36500Y46250D02*
Y61500D01*
X28250Y69750D02*
X36500Y61500D01*
X77000Y95693D02*
X78000Y94693D01*
X28250Y69750D02*
Y180500D01*
X20250Y188500D02*
X28250Y180500D01*
X417250Y252250D02*
X447751D01*
X391500Y226500D02*
X417250Y252250D01*
X391500Y192500D02*
Y226500D01*
X433750Y245250D02*
X434751D01*
X413250Y224750D02*
X433750Y245250D01*
X447751Y252250D02*
X454751Y245250D01*
X586550Y168500D02*
X633050Y122000D01*
X546000Y168500D02*
X586550D01*
X728748Y76899D02*
Y77500D01*
X544750Y207002D02*
Y220001D01*
X667549Y66049D02*
Y67500D01*
X645250Y358250D02*
X751000D01*
X546000Y141500D02*
X603750D01*
X633050Y112200D01*
Y98000D02*
Y112200D01*
X717750Y154501D02*
Y194750D01*
X705250Y264500D02*
X721251D01*
X730750Y255000D01*
X658000Y245500D02*
X705250D01*
X658000Y264500D02*
X683250D01*
X658000Y264500D02*
Y348500D01*
X657000Y349500D02*
X658000Y348500D01*
X403500Y190500D02*
X403500Y190500D01*
X452750D02*
X452750Y190500D01*
X403500Y209500D02*
X403501Y209500D01*
X374751Y175751D02*
X391500Y192500D01*
X394751Y155000D02*
X413250Y173499D01*
Y224750D01*
X374751Y155000D02*
Y175751D01*
X215149Y153750D02*
X226000Y142899D01*
X213700Y150250D02*
X222500Y141450D01*
X212250Y146750D02*
X219000Y140000D01*
X210500Y143250D02*
X215250Y138500D01*
X226000Y81000D02*
Y142899D01*
Y81000D02*
X240000Y67000D01*
X99255Y106005D02*
Y107005D01*
X99250Y106005D02*
X99255D01*
X126499Y81501D02*
X143750D01*
X132250Y127000D02*
X146750D01*
X163000Y143250D02*
X210500D01*
X146750Y127000D02*
X163000Y143250D01*
X108500Y99500D02*
X126499Y81501D01*
X154502Y63000D02*
X161002Y56500D01*
X182449D01*
X87750Y106005D02*
X88000Y105755D01*
X76750Y106005D02*
X77000Y105755D01*
X680551Y55051D02*
Y67500D01*
X692880Y58130D02*
Y67500D01*
X60500Y62550D02*
Y100500D01*
X88750Y229500D02*
Y246500D01*
X105750Y237500D02*
Y246500D01*
Y237500D02*
X113750Y229500D01*
X122500Y115250D02*
X122506Y115256D01*
Y115756D01*
X60500Y62550D02*
X97549Y25501D01*
X660251D02*
X692880Y58130D01*
X65000Y63000D02*
X98999Y29001D01*
X654501D02*
X680551Y55051D01*
X632550Y32501D02*
X667549Y67500D01*
X623550Y36001D02*
X655049Y67500D01*
X673850Y22001D02*
X728748Y76899D01*
X98500Y212000D02*
Y220250D01*
X48000Y211750D02*
Y230249D01*
Y211750D02*
X52000Y207750D01*
X94250D01*
X98500Y212000D01*
X166000Y119499D02*
X187001D01*
X166000Y85499D02*
X187001D01*
X188000Y84500D01*
X44250Y53250D02*
Y95250D01*
X262500Y50250D02*
X273250Y61000D01*
X44250Y95250D02*
X48000Y99000D01*
X65750Y106005D02*
X66000Y105755D01*
X77000Y95693D02*
Y105755D01*
X85750Y94250D02*
X88000Y96500D01*
Y105755D01*
X65000Y63000D02*
Y97222D01*
X66000Y98222D01*
Y105755D01*
X132250Y134750D02*
X144250Y146750D01*
X212250D01*
X145000Y153750D02*
X215149D01*
X132250Y157750D02*
X139750Y150250D01*
X213700D01*
X48000Y99000D02*
Y108000D01*
X55250Y115250D01*
X122500D01*
X42250Y106250D02*
Y112756D01*
X49494Y120000D01*
X121000Y158750D02*
X126130Y163880D01*
X134870D02*
X145000Y153750D01*
X240000Y60500D02*
Y67000D01*
Y60500D02*
X241250D01*
X257748D01*
X126130Y163880D02*
X134870D01*
X49494Y120000D02*
X101250D01*
X121000Y139750D01*
Y158750D01*
D46*
X443730Y200480D02*
X452750Y209500D01*
X443730Y109480D02*
Y200480D01*
X438000Y103750D02*
X443730Y109480D01*
X425001Y260500D02*
X434751Y270250D01*
X374000Y190500D02*
X383500Y200000D01*
X357250Y190500D02*
X374000D01*
X727750Y78498D02*
Y99500D01*
Y78498D02*
X728748Y77500D01*
X745748D02*
X746750Y78501D01*
X710002Y119500D02*
X737250D01*
X676250Y118750D02*
X692880D01*
X675500Y119500D02*
X676250Y118750D01*
X654550Y119500D02*
X675500D01*
X652050Y122000D02*
X654550Y119500D01*
X675501Y154501D02*
Y194750D01*
X338000Y190500D02*
X357250D01*
X355267Y116733D02*
Y130006D01*
Y116733D02*
X368250Y103750D01*
X438000D01*
X395000Y130000D02*
X395250Y129750D01*
X394751Y130000D02*
X395000D01*
X355011Y129750D02*
X355267Y130006D01*
X382250Y142750D02*
X394875Y130125D01*
X338000Y190500D02*
X340000D01*
X338250Y209500D02*
X389250Y260500D01*
X425001D01*
X328750Y200250D02*
X338000Y209500D01*
X300750Y191500D02*
X318249D01*
Y177001D02*
Y191500D01*
Y177001D02*
X318250Y177000D01*
X275499Y207750D02*
X299999D01*
X300750Y208500D01*
X267748Y229750D02*
Y235248D01*
X272000Y239500D01*
X296000D01*
X301001Y234499D01*
Y229750D02*
Y234499D01*
X284749Y229750D02*
X294749Y219750D01*
X327750D01*
X338000Y209500D01*
X328750Y183250D02*
Y200250D01*
Y183250D02*
X369250Y142750D01*
X382250D01*
X474751Y230751D02*
Y270250D01*
X452750Y209500D02*
X453500D01*
X474751Y230751D01*
D47*
X235000Y138000D02*
X236500Y139500D01*
X639251Y255000D02*
X675501Y218750D01*
X638000Y255000D02*
X639251D01*
X591000Y267250D02*
X591749Y266500D01*
X675501Y212749D02*
Y218750D01*
Y212749D02*
X680000Y208250D01*
X713250D01*
X717750Y212750D01*
Y218750D01*
X652050Y98000D02*
X664500Y110450D01*
X743250Y230750D02*
X749250Y224750D01*
X717750Y218750D02*
Y225250D01*
X723250Y230750D01*
X743250D01*
X664500Y110450D02*
X740700D01*
X749250Y119000D01*
Y224750D01*
D61*
X63250Y300000D02*
D03*
X715250Y356500D02*
D03*
X63250Y356500D02*
D03*
X715250Y300000D02*
D03*
D62*
X607250Y200000D02*
D03*
X171250D02*
D03*
D63*
X553750Y284000D02*
D03*
X553751Y298501D02*
D03*
X544750Y237002D02*
D03*
X72000Y77000D02*
D03*
X434751Y270250D02*
D03*
X246000Y131000D02*
D03*
X246999Y142501D02*
D03*
X235000Y136250D02*
D03*
X36000Y92500D02*
D03*
X143250Y116250D02*
D03*
X45751Y53250D02*
D03*
X75001Y230000D02*
D03*
X48000Y247249D02*
D03*
Y230249D02*
D03*
X166000Y85499D02*
D03*
Y119499D02*
D03*
Y136499D02*
D03*
Y102499D02*
D03*
X28751Y53250D02*
D03*
X241250Y83501D02*
D03*
X232999Y110001D02*
D03*
X261000D02*
D03*
X260250Y83501D02*
D03*
X36000Y73500D02*
D03*
X75001Y247500D02*
D03*
X570250Y95999D02*
D03*
Y121000D02*
D03*
Y108250D02*
D03*
X591250Y121000D02*
D03*
Y108250D02*
D03*
Y95999D02*
D03*
X474251Y270250D02*
D03*
X454751Y245250D02*
D03*
X434751D02*
D03*
X655049Y67500D02*
D03*
X692880D02*
D03*
X667049D02*
D03*
X680551D02*
D03*
X642550D02*
D03*
X592550Y72000D02*
D03*
Y63000D02*
D03*
X605049Y72000D02*
D03*
Y63000D02*
D03*
X617549Y72000D02*
D03*
Y63000D02*
D03*
X630048Y72000D02*
D03*
Y63000D02*
D03*
X553251Y141500D02*
D03*
X544750Y168500D02*
D03*
X553251D02*
D03*
X675749Y137000D02*
D03*
X675500Y119500D02*
D03*
X692880Y118750D02*
D03*
X710000Y119501D02*
D03*
Y136501D02*
D03*
X692749Y137000D02*
D03*
X692880Y101250D02*
D03*
X675500Y100500D02*
D03*
X745748Y77500D02*
D03*
X728748D02*
D03*
X604500Y318250D02*
D03*
X595000D02*
D03*
X576002Y318250D02*
D03*
X609250Y266500D02*
D03*
X591749D02*
D03*
X591000Y287250D02*
D03*
X683250Y245500D02*
D03*
Y264500D02*
D03*
X705250Y264500D02*
D03*
Y245500D02*
D03*
X587250Y363250D02*
D03*
X600250D02*
D03*
X614250D02*
D03*
X628500D02*
D03*
X642250D02*
D03*
Y349500D02*
D03*
X628500D02*
D03*
X614250D02*
D03*
X600250D02*
D03*
X587250D02*
D03*
X657000Y363250D02*
D03*
Y349500D02*
D03*
X430500Y190500D02*
D03*
X452750Y190500D02*
D03*
X430500Y209500D02*
D03*
X452750Y209500D02*
D03*
X480250Y190000D02*
D03*
X524250Y190000D02*
D03*
X482250Y207250D02*
D03*
X494750Y215250D02*
D03*
X497000Y197000D02*
D03*
X491000Y183250D02*
D03*
X480000Y217500D02*
D03*
X619250Y308000D02*
D03*
X610000Y287250D02*
D03*
X544750Y207002D02*
D03*
Y190001D02*
D03*
Y220001D02*
D03*
X514501Y228000D02*
D03*
X394751Y155000D02*
D03*
Y130000D02*
D03*
X355267Y129756D02*
D03*
X374751Y155000D02*
D03*
X284749Y229750D02*
D03*
X267748D02*
D03*
X301001Y229750D02*
D03*
X318001D02*
D03*
X300750Y208500D02*
D03*
X318250Y208499D02*
D03*
X300750Y191500D02*
D03*
X318250Y177000D02*
D03*
X300750D02*
D03*
X318250Y191499D02*
D03*
X360000Y209500D02*
D03*
Y190500D02*
D03*
X338000Y209500D02*
D03*
Y190500D02*
D03*
X275499Y207750D02*
D03*
Y188750D02*
D03*
X241250Y60500D02*
D03*
X258749Y61500D02*
D03*
Y42501D02*
D03*
X241250Y43499D02*
D03*
X280751Y52001D02*
D03*
X143750Y98501D02*
D03*
Y81501D02*
D03*
X92500Y77000D02*
D03*
X52750Y73249D02*
D03*
Y90750D02*
D03*
X544750Y141500D02*
D03*
X105750Y264000D02*
D03*
X88750Y264000D02*
D03*
Y246500D02*
D03*
X105750Y246500D02*
D03*
X113750Y229500D02*
D03*
X88750D02*
D03*
X61752Y247500D02*
D03*
Y230000D02*
D03*
X143250Y133750D02*
D03*
X122506Y115756D02*
D03*
X72000Y90000D02*
D03*
X119250Y106250D02*
D03*
X92250Y90750D02*
D03*
X585500Y318250D02*
D03*
X236500Y161750D02*
D03*
X255500D02*
D03*
X229250Y224160D02*
D03*
D64*
X104502Y63000D02*
D03*
X117002D02*
D03*
X633050Y98000D02*
D03*
X652050D02*
D03*
Y122000D02*
D03*
X642550D02*
D03*
X633050D02*
D03*
X675501Y218750D02*
D03*
X694501D02*
D03*
Y194750D02*
D03*
X685001D02*
D03*
X675501D02*
D03*
X717750D02*
D03*
X727250D02*
D03*
X736750D02*
D03*
Y218750D02*
D03*
X717750D02*
D03*
X675501Y171500D02*
D03*
X694501D02*
D03*
X693752Y153751D02*
D03*
X676251D02*
D03*
X717750Y171500D02*
D03*
X736750D02*
D03*
X736000Y153751D02*
D03*
X718500D02*
D03*
X129502Y63000D02*
D03*
X142002D02*
D03*
X154502D02*
D03*
X167002D02*
D03*
X179502D02*
D03*
D65*
X546250Y269750D02*
D03*
X372751Y279750D02*
D03*
X394751D02*
D03*
X454751Y270250D02*
D03*
X473250Y117006D02*
D03*
X434751Y130019D02*
D03*
X456251Y117000D02*
D03*
Y103500D02*
D03*
X473250D02*
D03*
Y90500D02*
D03*
X456251D02*
D03*
X172500Y259000D02*
D03*
X183001D02*
D03*
X193502D02*
D03*
X172500Y270250D02*
D03*
X183001D02*
D03*
X193502D02*
D03*
X172500Y281250D02*
D03*
X183001D02*
D03*
X193502D02*
D03*
X212750D02*
D03*
X223251D02*
D03*
X233752D02*
D03*
X223251Y259000D02*
D03*
X233752D02*
D03*
Y270250D02*
D03*
X223251D02*
D03*
X212750Y259000D02*
D03*
X212500Y270250D02*
D03*
X357251Y279750D02*
D03*
X357251Y293250D02*
D03*
X456251Y131750D02*
D03*
X372751Y293250D02*
D03*
X357251Y319000D02*
D03*
X372751D02*
D03*
X394751D02*
D03*
X414751Y319000D02*
D03*
X394751Y293250D02*
D03*
X414751D02*
D03*
Y279750D02*
D03*
X394751Y306250D02*
D03*
X414751D02*
D03*
X372751D02*
D03*
X357251D02*
D03*
X560751Y269750D02*
D03*
X546501Y259000D02*
D03*
X560751D02*
D03*
X473250Y131750D02*
D03*
X414751Y155000D02*
D03*
Y142749D02*
D03*
X424750Y154750D02*
D03*
X414751Y130019D02*
D03*
X424750Y142749D02*
D03*
X434751Y155000D02*
D03*
X424750Y130019D02*
D03*
X434751Y142749D02*
D03*
X374751Y130000D02*
D03*
X546250Y323500D02*
D03*
X560751Y323500D02*
D03*
X546250Y312750D02*
D03*
X560751D02*
D03*
D66*
X132250Y157750D02*
D03*
X82500Y100500D02*
D03*
X20250Y188500D02*
D03*
X92250Y216000D02*
D03*
X87750Y106005D02*
D03*
X65750Y106005D02*
D03*
X42250Y106250D02*
D03*
X132250Y128500D02*
D03*
X188000Y137500D02*
D03*
X208000Y128000D02*
D03*
X188000Y118500D02*
D03*
X208000Y94000D02*
D03*
X546000Y127249D02*
D03*
X552250D02*
D03*
X552250Y114649D02*
D03*
X546000D02*
D03*
X552250Y102049D02*
D03*
X546000D02*
D03*
X549000Y89949D02*
D03*
X727750Y99500D02*
D03*
X746750D02*
D03*
X737250Y119500D02*
D03*
X658000Y264500D02*
D03*
Y245500D02*
D03*
X638000Y255000D02*
D03*
X730750D02*
D03*
X750750Y264500D02*
D03*
Y245500D02*
D03*
X403500Y209500D02*
D03*
Y190500D02*
D03*
X383500Y200000D02*
D03*
X188000Y103500D02*
D03*
Y84500D02*
D03*
X63500Y220250D02*
D03*
X57250Y216000D02*
D03*
X76000Y220250D02*
D03*
X98500D02*
D03*
X69750Y216000D02*
D03*
X99005Y106005D02*
D03*
X76750Y106005D02*
D03*
X132250Y136250D02*
D03*
X54000Y106005D02*
D03*
X108500Y80500D02*
D03*
Y99500D02*
D03*
X93500Y100500D02*
D03*
X71500D02*
D03*
X60500D02*
D03*
D67*
X240499Y208250D02*
D03*
X252499Y199250D02*
D03*
X246499D02*
D03*
X240499D02*
D03*
X252499Y208250D02*
D03*
X246499D02*
D03*
X243499Y203750D02*
D03*
X249499D02*
D03*
D68*
X64000Y173000D02*
D03*
X88000D02*
D03*
X64000Y149000D02*
D03*
X88000D02*
D03*
X76000Y173000D02*
D03*
X100000D02*
D03*
X52000Y149000D02*
D03*
X76000D02*
D03*
X100000D02*
D03*
X64000Y185000D02*
D03*
X88000D02*
D03*
X64000Y161000D02*
D03*
X88000D02*
D03*
X64000Y137000D02*
D03*
X88000D02*
D03*
X76000Y185000D02*
D03*
X100000D02*
D03*
X52000Y161000D02*
D03*
X76000D02*
D03*
X100000D02*
D03*
X52000Y137000D02*
D03*
X76000D02*
D03*
X100000D02*
D03*
X52000Y173000D02*
D03*
Y185000D02*
D03*
D78*
X143250Y100751D02*
Y116250D01*
X141000Y98501D02*
X143250Y100751D01*
X123999Y98501D02*
X141000D01*
X116250Y106250D02*
X123999Y98501D01*
X705750Y356500D02*
X708250Y354000D01*
X229250Y224160D02*
X259088D01*
X275499Y207750D01*
X235000Y138000D02*
Y160250D01*
X236500Y161750D01*
X246000Y125001D02*
X261000Y110001D01*
X246000Y125001D02*
Y131000D01*
D79*
X642550Y61365D02*
Y67500D01*
X293750Y52250D02*
X633435D01*
X642550Y61365D01*
X281000Y52250D02*
X293750D01*
X280751Y52001D02*
X281000Y52250D01*
D80*
X183001Y271500D02*
D03*
D81*
X101000Y300000D02*
D03*
D82*
X223501Y293625D02*
D03*
D83*
X202625Y356500D02*
D03*
D84*
X365376Y327375D02*
D03*
D85*
X568375Y358125D02*
D03*
D86*
X404875Y325750D02*
D03*
D87*
X548375Y122875D02*
D03*
D88*
X586875Y94250D02*
D03*
D89*
X572250Y318125D02*
D03*
D90*
X551250D02*
D03*
D91*
X247000Y203750D02*
D03*
D92*
X267751Y273000D02*
D03*
X137751Y273750D02*
D03*
X319751Y127500D02*
D03*
X509751D02*
D03*
X509751Y272750D02*
D03*
X319751D02*
D03*
M02*
