%FSLAX44Y44*%
%MOMM*%
G71*
G01*
G75*
G04 Layer_Color=8388736*
%ADD10R,1.5000X1.6000*%
%ADD11R,0.3500X1.3500*%
%ADD12R,1.8900X1.5700*%
%ADD13R,1.6000X1.5000*%
%ADD14R,1.6000X2.2000*%
%ADD15R,0.8000X1.3000*%
%ADD16R,2.1000X3.0000*%
%ADD17R,1.2000X2.0000*%
%ADD18R,0.6000X1.2000*%
%ADD19R,0.5000X0.8500*%
%ADD20R,1.0200X0.6000*%
%ADD21R,1.2700X0.6000*%
%ADD22R,1.3000X0.6000*%
%ADD23R,0.6000X1.8000*%
%ADD24R,1.1000X1.1000*%
%ADD25R,1.1000X1.1000*%
%ADD26R,1.0500X1.0800*%
%ADD27R,1.1000X1.0000*%
%ADD28R,1.8000X0.6000*%
%ADD29R,1.0000X1.1000*%
%ADD30R,1.0000X1.5000*%
%ADD31R,1.0800X1.0500*%
%ADD32R,0.9000X0.4000*%
%ADD33R,1.4000X1.0000*%
%ADD34R,1.3000X0.6000*%
%ADD35R,5.6000X5.6000*%
%ADD36O,0.2500X0.8500*%
%ADD37O,0.8500X0.2500*%
%ADD38R,0.7000X1.3000*%
%ADD39R,1.0000X1.8000*%
%ADD40R,0.8890X0.4200*%
%ADD41R,0.8000X2.0000*%
%ADD42R,2.1000X3.0000*%
%ADD43R,1.7000X1.1000*%
%ADD44R,3.5000X2.2000*%
%ADD45C,0.2000*%
%ADD46C,0.2540*%
%ADD47C,0.3000*%
%ADD48C,0.2500*%
%ADD49R,3.0000X4.0000*%
%ADD50R,3.2999X8.9500*%
%ADD51R,3.2250X8.8500*%
%ADD52R,3.4700X4.3300*%
%ADD53R,3.2250X8.8000*%
%ADD54R,3.0000X7.7500*%
%ADD55R,10.4500X5.0000*%
%ADD56R,3.0000X8.8500*%
%ADD57R,10.4000X5.0000*%
%ADD58R,6.6250X4.4250*%
%ADD59R,5.1250X1.5250*%
%ADD60R,3.5000X3.5000*%
%ADD61O,10.0000X5.0000*%
%ADD62C,6.0000*%
%ADD63C,0.8000*%
%ADD64C,0.7000*%
%ADD65C,1.0000*%
%ADD66C,0.6000*%
%ADD67C,0.5000*%
%ADD68C,0.6600*%
%ADD69C,1.0160*%
%ADD70C,2.7000*%
%ADD71O,7.5000X1.5000*%
%ADD72C,3.7000*%
%ADD73C,0.8000*%
%ADD74C,1.0000*%
%ADD75C,0.7000*%
%ADD76C,0.7500*%
%ADD77C,0.8300*%
%ADD78C,0.8000*%
%ADD79C,0.4000*%
%ADD80R,3.5001X3.6500*%
%ADD81R,2.9000X5.0000*%
%ADD82R,3.2500X8.0750*%
%ADD83R,31.2250X5.0000*%
%ADD84R,3.0751X10.8250*%
%ADD85R,35.9250X4.5750*%
%ADD86R,3.2250X10.5000*%
%ADD87R,1.8250X5.1750*%
%ADD88R,4.6250X7.2500*%
%ADD89R,7.4500X2.4750*%
%ADD90R,3.4500X2.4250*%
%ADD91R,2.1500X1.7500*%
%ADD92C,5.0000*%
%ADD93C,0.6000*%
%ADD94R,3.4499X4.6000*%
%ADD95R,3.2250X7.9250*%
%ADD96R,3.0000X10.8500*%
%ADD97R,3.1750X10.5250*%
%ADD98R,7.8750X1.0500*%
%ADD99R,7.8750X2.4250*%
%ADD100R,5.4750X5.4250*%
%ADD101C,10.0000*%
%ADD102R,4.5500X3.5900*%
%ADD103R,3.4600X4.3300*%
%ADD104R,1.7032X1.8032*%
%ADD105R,0.5532X1.5532*%
%ADD106R,2.0932X1.7732*%
%ADD107R,1.8032X1.7032*%
%ADD108R,1.8032X2.4032*%
%ADD109R,1.0032X1.5032*%
%ADD110R,2.3032X3.2032*%
%ADD111R,1.4032X2.2032*%
%ADD112R,0.8032X1.4032*%
%ADD113R,0.7032X1.0532*%
%ADD114R,1.2232X0.8032*%
%ADD115R,1.4732X0.8032*%
%ADD116R,1.5032X0.8032*%
%ADD117R,0.8032X2.0032*%
%ADD118R,1.3032X1.3032*%
%ADD119R,1.3032X1.3032*%
%ADD120R,1.2532X1.2832*%
%ADD121R,1.3032X1.2032*%
%ADD122R,2.0032X0.8032*%
%ADD123R,1.2032X1.3032*%
%ADD124R,1.2032X1.7032*%
%ADD125R,1.2832X1.2532*%
%ADD126R,1.1032X0.6032*%
%ADD127R,1.6032X1.2032*%
%ADD128R,1.5032X0.8032*%
%ADD129R,5.8032X5.8032*%
%ADD130O,0.4532X1.0532*%
%ADD131O,1.0532X0.4532*%
%ADD132R,0.9032X1.5032*%
%ADD133R,1.2032X2.0032*%
%ADD134R,1.0922X0.6232*%
%ADD135R,1.0032X2.2032*%
%ADD136R,2.3032X3.2032*%
%ADD137R,1.9032X1.3032*%
%ADD138R,3.7032X2.4032*%
%ADD139R,3.7032X3.7032*%
%ADD140O,10.2032X5.2032*%
%ADD141C,6.2032*%
%ADD142C,1.0032*%
%ADD143C,0.9032*%
%ADD144C,1.2032*%
%ADD145C,0.8032*%
D104*
X255500Y161750D02*
D03*
X236500D02*
D03*
X241250Y83501D02*
D03*
X260250D02*
D03*
D105*
X236499Y182250D02*
D03*
X242999D02*
D03*
X255999D02*
D03*
X249499D02*
D03*
Y224160D02*
D03*
X255999D02*
D03*
X242999D02*
D03*
X236499D02*
D03*
D106*
X246659Y203840D02*
D03*
D107*
X275499Y207750D02*
D03*
Y188750D02*
D03*
X36000Y73500D02*
D03*
Y92500D02*
D03*
D108*
X261000Y110001D02*
D03*
X232999D02*
D03*
D109*
X92002Y63000D02*
D03*
X104502D02*
D03*
X117002D02*
D03*
X129502D02*
D03*
X142002D02*
D03*
X154502D02*
D03*
X167002D02*
D03*
X179502D02*
D03*
D110*
X66502Y35500D02*
D03*
X205002D02*
D03*
D111*
X232751Y271250D02*
D03*
Y246250D02*
D03*
X212751Y271250D02*
D03*
Y246250D02*
D03*
X192751Y271250D02*
D03*
Y246250D02*
D03*
X172751Y271250D02*
D03*
Y246250D02*
D03*
D112*
X607333Y372749D02*
D03*
X594000D02*
D03*
X620500D02*
D03*
X581000D02*
D03*
D113*
X619500Y318249D02*
D03*
X581500D02*
D03*
X606833D02*
D03*
X594167D02*
D03*
D114*
X603500Y89949D02*
D03*
Y102049D02*
D03*
Y114649D02*
D03*
Y127249D02*
D03*
D115*
X549000Y89949D02*
D03*
Y102049D02*
D03*
Y114649D02*
D03*
D116*
Y127249D02*
D03*
D117*
X737250Y119500D02*
D03*
X746750Y99500D02*
D03*
X727750D02*
D03*
D118*
X675501Y171500D02*
D03*
X694501D02*
D03*
X736750Y171500D02*
D03*
X717750D02*
D03*
X610000Y287250D02*
D03*
X591000D02*
D03*
D119*
X338000Y209500D02*
D03*
Y190500D02*
D03*
X705250Y264500D02*
D03*
Y245500D02*
D03*
X360000Y209500D02*
D03*
Y190500D02*
D03*
X452750Y209500D02*
D03*
Y190500D02*
D03*
X430500Y190500D02*
D03*
Y209500D02*
D03*
X675500Y119500D02*
D03*
Y100500D02*
D03*
X683250Y245500D02*
D03*
Y264500D02*
D03*
D120*
X736000Y153751D02*
D03*
X718500D02*
D03*
X73250Y90000D02*
D03*
X90750D02*
D03*
X609250Y266500D02*
D03*
X591749D02*
D03*
X676251Y153751D02*
D03*
X693752D02*
D03*
X318250Y177000D02*
D03*
X300750D02*
D03*
X73250Y77000D02*
D03*
X90750D02*
D03*
D121*
X166000Y136499D02*
D03*
Y119499D02*
D03*
Y102499D02*
D03*
Y85499D02*
D03*
X48000Y230249D02*
D03*
Y247249D02*
D03*
X143750Y98501D02*
D03*
Y81501D02*
D03*
X241250Y43499D02*
D03*
Y60500D02*
D03*
X544750Y237002D02*
D03*
Y220001D02*
D03*
X318250Y191499D02*
D03*
Y208499D02*
D03*
X710000Y119501D02*
D03*
Y136501D02*
D03*
D122*
X188000Y103500D02*
D03*
Y84500D02*
D03*
X208000Y94000D02*
D03*
X188000Y137500D02*
D03*
Y118500D02*
D03*
X208000Y128000D02*
D03*
X730750Y255000D02*
D03*
X750750Y264500D02*
D03*
Y245500D02*
D03*
X403500Y190500D02*
D03*
Y209500D02*
D03*
X383500Y200000D02*
D03*
X638000Y255000D02*
D03*
X658000Y264500D02*
D03*
Y245500D02*
D03*
D123*
X675749Y137000D02*
D03*
X692749D02*
D03*
X728748Y77500D02*
D03*
X745748D02*
D03*
X45751Y53250D02*
D03*
X28751D02*
D03*
X531501Y228000D02*
D03*
X514501D02*
D03*
X318001Y229750D02*
D03*
X301001D02*
D03*
X267748Y229750D02*
D03*
X284749D02*
D03*
X300750Y208500D02*
D03*
Y191500D02*
D03*
D124*
X354751Y130000D02*
D03*
Y155000D02*
D03*
X374751Y130000D02*
D03*
Y155000D02*
D03*
X394751Y130000D02*
D03*
Y155000D02*
D03*
X414751Y130000D02*
D03*
Y155000D02*
D03*
X434751Y130000D02*
D03*
Y155000D02*
D03*
X454751Y130000D02*
D03*
Y155000D02*
D03*
X474751Y130000D02*
D03*
Y155000D02*
D03*
X474751Y270250D02*
D03*
Y245250D02*
D03*
X454751Y270250D02*
D03*
Y245250D02*
D03*
X434751Y270250D02*
D03*
Y245250D02*
D03*
X414751Y270250D02*
D03*
Y245250D02*
D03*
X394751Y270250D02*
D03*
Y245250D02*
D03*
X374751Y270250D02*
D03*
Y245250D02*
D03*
X354751Y270250D02*
D03*
Y245250D02*
D03*
D125*
X524250Y190000D02*
D03*
Y207500D02*
D03*
X61752Y230000D02*
D03*
Y247500D02*
D03*
X75001Y230000D02*
D03*
Y247500D02*
D03*
X143250Y116250D02*
D03*
Y133750D02*
D03*
X544750Y189500D02*
D03*
Y207000D02*
D03*
X88750Y246500D02*
D03*
Y264000D02*
D03*
X105750Y246500D02*
D03*
Y264000D02*
D03*
X692880Y118750D02*
D03*
Y101250D02*
D03*
X52750Y90750D02*
D03*
Y73249D02*
D03*
D126*
X257000Y129751D02*
D03*
Y136251D02*
D03*
Y142751D02*
D03*
X235000D02*
D03*
Y129751D02*
D03*
D127*
X258749Y61500D02*
D03*
Y42501D02*
D03*
X280751Y52001D02*
D03*
D128*
X108500Y99500D02*
D03*
Y80500D02*
D03*
X129500Y90000D02*
D03*
D129*
X76000Y161000D02*
D03*
D130*
X113500Y115250D02*
D03*
X108500D02*
D03*
X103500D02*
D03*
X98500D02*
D03*
X93500D02*
D03*
X88500D02*
D03*
X83500D02*
D03*
X78500D02*
D03*
X73500D02*
D03*
X68500D02*
D03*
X63500D02*
D03*
X58500D02*
D03*
X53500D02*
D03*
X48500D02*
D03*
X43500D02*
D03*
X38500D02*
D03*
Y206750D02*
D03*
X43500D02*
D03*
X48500D02*
D03*
X53500D02*
D03*
X58500D02*
D03*
X63500D02*
D03*
X68500D02*
D03*
X73500D02*
D03*
X78500D02*
D03*
X83500D02*
D03*
X88500D02*
D03*
X93500D02*
D03*
X98500D02*
D03*
X103500D02*
D03*
X108500D02*
D03*
X113500D02*
D03*
D131*
X30250Y123500D02*
D03*
Y128500D02*
D03*
Y133500D02*
D03*
Y138500D02*
D03*
Y143500D02*
D03*
Y148500D02*
D03*
Y153500D02*
D03*
Y158500D02*
D03*
Y163500D02*
D03*
Y168500D02*
D03*
Y173500D02*
D03*
Y178500D02*
D03*
Y183500D02*
D03*
Y188500D02*
D03*
Y193500D02*
D03*
Y198500D02*
D03*
X121750D02*
D03*
Y193500D02*
D03*
Y188500D02*
D03*
Y183500D02*
D03*
Y178500D02*
D03*
Y173500D02*
D03*
Y168500D02*
D03*
Y163500D02*
D03*
Y158500D02*
D03*
Y153500D02*
D03*
Y148500D02*
D03*
Y143500D02*
D03*
Y138500D02*
D03*
Y133500D02*
D03*
Y128500D02*
D03*
Y123500D02*
D03*
D132*
X675501Y194750D02*
D03*
X685001D02*
D03*
X694501D02*
D03*
Y218750D02*
D03*
X675501D02*
D03*
X717750Y194750D02*
D03*
X727250D02*
D03*
X736750D02*
D03*
Y218750D02*
D03*
X717750D02*
D03*
X652050Y122000D02*
D03*
X642550D02*
D03*
X633050D02*
D03*
Y98000D02*
D03*
X652050D02*
D03*
D133*
X88750Y229500D02*
D03*
X113750D02*
D03*
D134*
X469000Y216000D02*
D03*
Y209500D02*
D03*
Y203000D02*
D03*
Y196500D02*
D03*
Y190000D02*
D03*
Y183500D02*
D03*
X509890Y216000D02*
D03*
Y209500D02*
D03*
Y203000D02*
D03*
Y196500D02*
D03*
Y190000D02*
D03*
Y183500D02*
D03*
D135*
X692880Y67500D02*
D03*
X680051D02*
D03*
X667549D02*
D03*
X655049D02*
D03*
X642550D02*
D03*
X630048D02*
D03*
X617549D02*
D03*
X605049D02*
D03*
X592550D02*
D03*
D136*
X717749Y36250D02*
D03*
X567549D02*
D03*
D137*
X549000Y168500D02*
D03*
Y141500D02*
D03*
D138*
X555251Y318250D02*
D03*
Y264250D02*
D03*
D139*
X267751Y273000D02*
D03*
X137751Y273750D02*
D03*
X319751Y127500D02*
D03*
X509751D02*
D03*
X509751Y272750D02*
D03*
X319751D02*
D03*
D140*
X63250Y300000D02*
D03*
X715250Y356500D02*
D03*
X63250Y356500D02*
D03*
X715250Y300000D02*
D03*
D141*
X607250Y200000D02*
D03*
X171250D02*
D03*
D142*
X553750Y284000D02*
D03*
X553751Y298501D02*
D03*
X544750Y237002D02*
D03*
X72000Y77000D02*
D03*
X434751Y270250D02*
D03*
X246000Y131000D02*
D03*
X246999Y142501D02*
D03*
X235000Y136250D02*
D03*
X36000Y92500D02*
D03*
X143250Y116250D02*
D03*
X45751Y53250D02*
D03*
X75001Y230000D02*
D03*
X48000Y247249D02*
D03*
Y230249D02*
D03*
X166000Y85499D02*
D03*
Y119499D02*
D03*
Y136499D02*
D03*
Y102499D02*
D03*
X28751Y53250D02*
D03*
X241250Y83501D02*
D03*
X232999Y110001D02*
D03*
X261000D02*
D03*
X260250Y83501D02*
D03*
X36000Y73500D02*
D03*
X75001Y247500D02*
D03*
X570250Y95999D02*
D03*
Y121000D02*
D03*
Y108250D02*
D03*
X591250Y121000D02*
D03*
Y108250D02*
D03*
Y95999D02*
D03*
X474251Y270250D02*
D03*
X454751Y245250D02*
D03*
X434751D02*
D03*
X655049Y67500D02*
D03*
X692880D02*
D03*
X667049D02*
D03*
X680551D02*
D03*
X642550D02*
D03*
X592550Y72000D02*
D03*
Y63000D02*
D03*
X605049Y72000D02*
D03*
Y63000D02*
D03*
X617549Y72000D02*
D03*
Y63000D02*
D03*
X630048Y72000D02*
D03*
Y63000D02*
D03*
X553251Y141500D02*
D03*
X544750Y168500D02*
D03*
X553251D02*
D03*
X675749Y137000D02*
D03*
X675500Y119500D02*
D03*
X692880Y118750D02*
D03*
X710000Y119501D02*
D03*
Y136501D02*
D03*
X692749Y137000D02*
D03*
X692880Y101250D02*
D03*
X675500Y100500D02*
D03*
X745748Y77500D02*
D03*
X728748D02*
D03*
X604500Y318250D02*
D03*
X595000D02*
D03*
X576002Y318250D02*
D03*
X609250Y266500D02*
D03*
X591749D02*
D03*
X591000Y287250D02*
D03*
X683250Y245500D02*
D03*
Y264500D02*
D03*
X705250Y264500D02*
D03*
Y245500D02*
D03*
X587250Y363250D02*
D03*
X600250D02*
D03*
X614250D02*
D03*
X628500D02*
D03*
X642250D02*
D03*
Y349500D02*
D03*
X628500D02*
D03*
X614250D02*
D03*
X600250D02*
D03*
X587250D02*
D03*
X657000Y363250D02*
D03*
Y349500D02*
D03*
X430500Y190500D02*
D03*
X452750Y190500D02*
D03*
X430500Y209500D02*
D03*
X452750Y209500D02*
D03*
X480250Y190000D02*
D03*
X524250Y190000D02*
D03*
X482250Y207250D02*
D03*
X494750Y215250D02*
D03*
X497000Y197000D02*
D03*
X491000Y183250D02*
D03*
X480000Y217500D02*
D03*
X619250Y308000D02*
D03*
X610000Y287250D02*
D03*
X544750Y207002D02*
D03*
Y190001D02*
D03*
Y220001D02*
D03*
X514501Y228000D02*
D03*
X394751Y155000D02*
D03*
Y130000D02*
D03*
X355267Y129756D02*
D03*
X374751Y155000D02*
D03*
X284749Y229750D02*
D03*
X267748D02*
D03*
X301001Y229750D02*
D03*
X318001D02*
D03*
X300750Y208500D02*
D03*
X318250Y208499D02*
D03*
X300750Y191500D02*
D03*
X318250Y177000D02*
D03*
X300750D02*
D03*
X318250Y191499D02*
D03*
X360000Y209500D02*
D03*
Y190500D02*
D03*
X338000Y209500D02*
D03*
Y190500D02*
D03*
X275499Y207750D02*
D03*
Y188750D02*
D03*
X241250Y60500D02*
D03*
X258749Y61500D02*
D03*
Y42501D02*
D03*
X241250Y43499D02*
D03*
X280751Y52001D02*
D03*
X143750Y98501D02*
D03*
Y81501D02*
D03*
X92500Y77000D02*
D03*
X52750Y73249D02*
D03*
Y90750D02*
D03*
X544750Y141500D02*
D03*
X105750Y264000D02*
D03*
X88750Y264000D02*
D03*
Y246500D02*
D03*
X105750Y246500D02*
D03*
X113750Y229500D02*
D03*
X88750D02*
D03*
X61752Y247500D02*
D03*
Y230000D02*
D03*
X143250Y133750D02*
D03*
X122506Y115756D02*
D03*
X72000Y90000D02*
D03*
X119250Y106250D02*
D03*
X92250Y90750D02*
D03*
X585500Y318250D02*
D03*
X236500Y161750D02*
D03*
X255500D02*
D03*
X229250Y224160D02*
D03*
D143*
X104502Y63000D02*
D03*
X117002D02*
D03*
X633050Y98000D02*
D03*
X652050D02*
D03*
Y122000D02*
D03*
X642550D02*
D03*
X633050D02*
D03*
X675501Y218750D02*
D03*
X694501D02*
D03*
Y194750D02*
D03*
X685001D02*
D03*
X675501D02*
D03*
X717750D02*
D03*
X727250D02*
D03*
X736750D02*
D03*
Y218750D02*
D03*
X717750D02*
D03*
X675501Y171500D02*
D03*
X694501D02*
D03*
X693752Y153751D02*
D03*
X676251D02*
D03*
X717750Y171500D02*
D03*
X736750D02*
D03*
X736000Y153751D02*
D03*
X718500D02*
D03*
X129502Y63000D02*
D03*
X142002D02*
D03*
X154502D02*
D03*
X167002D02*
D03*
X179502D02*
D03*
D144*
X546250Y269750D02*
D03*
X372751Y279750D02*
D03*
X394751D02*
D03*
X454751Y270250D02*
D03*
X473250Y117006D02*
D03*
X434751Y130019D02*
D03*
X456251Y117000D02*
D03*
Y103500D02*
D03*
X473250D02*
D03*
Y90500D02*
D03*
X456251D02*
D03*
X172500Y259000D02*
D03*
X183001D02*
D03*
X193502D02*
D03*
X172500Y270250D02*
D03*
X183001D02*
D03*
X193502D02*
D03*
X172500Y281250D02*
D03*
X183001D02*
D03*
X193502D02*
D03*
X212750D02*
D03*
X223251D02*
D03*
X233752D02*
D03*
X223251Y259000D02*
D03*
X233752D02*
D03*
Y270250D02*
D03*
X223251D02*
D03*
X212750Y259000D02*
D03*
X212500Y270250D02*
D03*
X357251Y279750D02*
D03*
X357251Y293250D02*
D03*
X456251Y131750D02*
D03*
X372751Y293250D02*
D03*
X357251Y319000D02*
D03*
X372751D02*
D03*
X394751D02*
D03*
X414751Y319000D02*
D03*
X394751Y293250D02*
D03*
X414751D02*
D03*
Y279750D02*
D03*
X394751Y306250D02*
D03*
X414751D02*
D03*
X372751D02*
D03*
X357251D02*
D03*
X560751Y269750D02*
D03*
X546501Y259000D02*
D03*
X560751D02*
D03*
X473250Y131750D02*
D03*
X414751Y155000D02*
D03*
Y142749D02*
D03*
X424750Y154750D02*
D03*
X414751Y130019D02*
D03*
X424750Y142749D02*
D03*
X434751Y155000D02*
D03*
X424750Y130019D02*
D03*
X434751Y142749D02*
D03*
X374751Y130000D02*
D03*
X546250Y323500D02*
D03*
X560751Y323500D02*
D03*
X546250Y312750D02*
D03*
X560751D02*
D03*
D145*
X132250Y157750D02*
D03*
X82500Y100500D02*
D03*
X20250Y188500D02*
D03*
X92250Y216000D02*
D03*
X87750Y106005D02*
D03*
X65750Y106005D02*
D03*
X42250Y106250D02*
D03*
X132250Y128500D02*
D03*
X188000Y137500D02*
D03*
X208000Y128000D02*
D03*
X188000Y118500D02*
D03*
X208000Y94000D02*
D03*
X546000Y127249D02*
D03*
X552250D02*
D03*
X552250Y114649D02*
D03*
X546000D02*
D03*
X552250Y102049D02*
D03*
X546000D02*
D03*
X549000Y89949D02*
D03*
X727750Y99500D02*
D03*
X746750D02*
D03*
X737250Y119500D02*
D03*
X658000Y264500D02*
D03*
Y245500D02*
D03*
X638000Y255000D02*
D03*
X730750D02*
D03*
X750750Y264500D02*
D03*
Y245500D02*
D03*
X403500Y209500D02*
D03*
Y190500D02*
D03*
X383500Y200000D02*
D03*
X188000Y103500D02*
D03*
Y84500D02*
D03*
X63500Y220250D02*
D03*
X57250Y216000D02*
D03*
X76000Y220250D02*
D03*
X98500D02*
D03*
X69750Y216000D02*
D03*
X99005Y106005D02*
D03*
X76750Y106005D02*
D03*
X132250Y136250D02*
D03*
X54000Y106005D02*
D03*
X108500Y80500D02*
D03*
Y99500D02*
D03*
X93500Y100500D02*
D03*
X71500D02*
D03*
X60500D02*
D03*
M02*
