G04 Layer_Physical_Order=6*
G04 Layer_Color=16711680*
%FSLAX44Y44*%
%MOMM*%
G71*
G01*
G75*
%ADD61O,10.0000X5.0000*%
%ADD63C,0.8000*%
%ADD64C,0.7000*%
%ADD65C,1.0000*%
%ADD66C,0.6000*%
%ADD67C,0.5000*%
%ADD68C,0.6600*%
%ADD92C,5.0000*%
%ADD101C,10.0000*%
D61*
X63250Y300000D02*
D03*
X715250Y356500D02*
D03*
X63250Y356500D02*
D03*
X715250Y300000D02*
D03*
D63*
X553750Y284000D02*
D03*
X553751Y298501D02*
D03*
X544750Y237002D02*
D03*
X72000Y77000D02*
D03*
X434751Y270250D02*
D03*
X246000Y131000D02*
D03*
X246999Y142501D02*
D03*
X235000Y136250D02*
D03*
X36000Y92500D02*
D03*
X143250Y116250D02*
D03*
X45751Y53250D02*
D03*
X75001Y230000D02*
D03*
X48000Y247249D02*
D03*
Y230249D02*
D03*
X166000Y85499D02*
D03*
Y119499D02*
D03*
Y136499D02*
D03*
Y102499D02*
D03*
X28751Y53250D02*
D03*
X241250Y83501D02*
D03*
X232999Y110001D02*
D03*
X261000D02*
D03*
X260250Y83501D02*
D03*
X36000Y73500D02*
D03*
X75001Y247500D02*
D03*
X570250Y95999D02*
D03*
Y121000D02*
D03*
Y108250D02*
D03*
X591250Y121000D02*
D03*
Y108250D02*
D03*
Y95999D02*
D03*
X474251Y270250D02*
D03*
X454751Y245250D02*
D03*
X434751D02*
D03*
X655049Y67500D02*
D03*
X692880D02*
D03*
X667049D02*
D03*
X680551D02*
D03*
X642550D02*
D03*
X592550Y72000D02*
D03*
Y63000D02*
D03*
X605049Y72000D02*
D03*
Y63000D02*
D03*
X617549Y72000D02*
D03*
Y63000D02*
D03*
X630048Y72000D02*
D03*
Y63000D02*
D03*
X553251Y141500D02*
D03*
X544750Y168500D02*
D03*
X553251D02*
D03*
X675749Y137000D02*
D03*
X675500Y119500D02*
D03*
X692880Y118750D02*
D03*
X710000Y119501D02*
D03*
Y136501D02*
D03*
X692749Y137000D02*
D03*
X692880Y101250D02*
D03*
X675500Y100500D02*
D03*
X745748Y77500D02*
D03*
X728748D02*
D03*
X604500Y318250D02*
D03*
X595000D02*
D03*
X576002Y318250D02*
D03*
X609250Y266500D02*
D03*
X591749D02*
D03*
X591000Y287250D02*
D03*
X683250Y245500D02*
D03*
Y264500D02*
D03*
X705250Y264500D02*
D03*
Y245500D02*
D03*
X587250Y363250D02*
D03*
X600250D02*
D03*
X614250D02*
D03*
X628500D02*
D03*
X642250D02*
D03*
Y349500D02*
D03*
X628500D02*
D03*
X614250D02*
D03*
X600250D02*
D03*
X587250D02*
D03*
X657000Y363250D02*
D03*
Y349500D02*
D03*
X430500Y190500D02*
D03*
X452750Y190500D02*
D03*
X430500Y209500D02*
D03*
X452750Y209500D02*
D03*
X480250Y190000D02*
D03*
X524250Y190000D02*
D03*
X482250Y207250D02*
D03*
X494750Y215250D02*
D03*
X497000Y197000D02*
D03*
X491000Y183250D02*
D03*
X480000Y217500D02*
D03*
X619250Y308000D02*
D03*
X610000Y287250D02*
D03*
X544750Y207002D02*
D03*
Y190001D02*
D03*
Y220001D02*
D03*
X514501Y228000D02*
D03*
X394751Y155000D02*
D03*
Y130000D02*
D03*
X355267Y129756D02*
D03*
X374751Y155000D02*
D03*
X284749Y229750D02*
D03*
X267748D02*
D03*
X301001Y229750D02*
D03*
X318001D02*
D03*
X300750Y208500D02*
D03*
X318250Y208499D02*
D03*
X300750Y191500D02*
D03*
X318250Y177000D02*
D03*
X300750D02*
D03*
X318250Y191499D02*
D03*
X360000Y209500D02*
D03*
Y190500D02*
D03*
X338000Y209500D02*
D03*
Y190500D02*
D03*
X275499Y207750D02*
D03*
Y188750D02*
D03*
X241250Y60500D02*
D03*
X258749Y61500D02*
D03*
Y42501D02*
D03*
X241250Y43499D02*
D03*
X280751Y52001D02*
D03*
X143750Y98501D02*
D03*
Y81501D02*
D03*
X92500Y77000D02*
D03*
X52750Y73249D02*
D03*
Y90750D02*
D03*
X544750Y141500D02*
D03*
X105750Y264000D02*
D03*
X88750Y264000D02*
D03*
Y246500D02*
D03*
X105750Y246500D02*
D03*
X113750Y229500D02*
D03*
X88750D02*
D03*
X61752Y247500D02*
D03*
Y230000D02*
D03*
X143250Y133750D02*
D03*
X122506Y115756D02*
D03*
X72000Y90000D02*
D03*
X119250Y106250D02*
D03*
X92250Y90750D02*
D03*
X585500Y318250D02*
D03*
X236500Y161750D02*
D03*
X255500D02*
D03*
X229250Y224160D02*
D03*
D64*
X104502Y63000D02*
D03*
X117002D02*
D03*
X633050Y98000D02*
D03*
X652050D02*
D03*
Y122000D02*
D03*
X642550D02*
D03*
X633050D02*
D03*
X675501Y218750D02*
D03*
X694501D02*
D03*
Y194750D02*
D03*
X685001D02*
D03*
X675501D02*
D03*
X717750D02*
D03*
X727250D02*
D03*
X736750D02*
D03*
Y218750D02*
D03*
X717750D02*
D03*
X675501Y171500D02*
D03*
X694501D02*
D03*
X693752Y153751D02*
D03*
X676251D02*
D03*
X717750Y171500D02*
D03*
X736750D02*
D03*
X736000Y153751D02*
D03*
X718500D02*
D03*
X129502Y63000D02*
D03*
X142002D02*
D03*
X154502D02*
D03*
X167002D02*
D03*
X179502D02*
D03*
D65*
X546250Y269750D02*
D03*
X372751Y279750D02*
D03*
X394751D02*
D03*
X454751Y270250D02*
D03*
X473250Y117006D02*
D03*
X434751Y130019D02*
D03*
X456251Y117000D02*
D03*
Y103500D02*
D03*
X473250D02*
D03*
Y90500D02*
D03*
X456251D02*
D03*
X172500Y259000D02*
D03*
X183001D02*
D03*
X193502D02*
D03*
X172500Y270250D02*
D03*
X183001D02*
D03*
X193502D02*
D03*
X172500Y281250D02*
D03*
X183001D02*
D03*
X193502D02*
D03*
X212750D02*
D03*
X223251D02*
D03*
X233752D02*
D03*
X223251Y259000D02*
D03*
X233752D02*
D03*
Y270250D02*
D03*
X223251D02*
D03*
X212750Y259000D02*
D03*
X212500Y270250D02*
D03*
X357251Y279750D02*
D03*
X357251Y293250D02*
D03*
X456251Y131750D02*
D03*
X372751Y293250D02*
D03*
X357251Y319000D02*
D03*
X372751D02*
D03*
X394751D02*
D03*
X414751Y319000D02*
D03*
X394751Y293250D02*
D03*
X414751D02*
D03*
Y279750D02*
D03*
X394751Y306250D02*
D03*
X414751D02*
D03*
X372751D02*
D03*
X357251D02*
D03*
X560751Y269750D02*
D03*
X546501Y259000D02*
D03*
X560751D02*
D03*
X473250Y131750D02*
D03*
X414751Y155000D02*
D03*
Y142749D02*
D03*
X424750Y154750D02*
D03*
X414751Y130019D02*
D03*
X424750Y142749D02*
D03*
X434751Y155000D02*
D03*
X424750Y130019D02*
D03*
X434751Y142749D02*
D03*
X374751Y130000D02*
D03*
X546250Y323500D02*
D03*
X560751Y323500D02*
D03*
X546250Y312750D02*
D03*
X560751D02*
D03*
D66*
X132250Y157750D02*
D03*
X82500Y100500D02*
D03*
X20250Y188500D02*
D03*
X92250Y216000D02*
D03*
X87750Y106005D02*
D03*
X65750Y106005D02*
D03*
X42250Y106250D02*
D03*
X132250Y128500D02*
D03*
X188000Y137500D02*
D03*
X208000Y128000D02*
D03*
X188000Y118500D02*
D03*
X208000Y94000D02*
D03*
X546000Y127249D02*
D03*
X552250D02*
D03*
X552250Y114649D02*
D03*
X546000D02*
D03*
X552250Y102049D02*
D03*
X546000D02*
D03*
X549000Y89949D02*
D03*
X727750Y99500D02*
D03*
X746750D02*
D03*
X737250Y119500D02*
D03*
X658000Y264500D02*
D03*
Y245500D02*
D03*
X638000Y255000D02*
D03*
X730750D02*
D03*
X750750Y264500D02*
D03*
Y245500D02*
D03*
X403500Y209500D02*
D03*
Y190500D02*
D03*
X383500Y200000D02*
D03*
X188000Y103500D02*
D03*
Y84500D02*
D03*
X63500Y220250D02*
D03*
X57250Y216000D02*
D03*
X76000Y220250D02*
D03*
X98500D02*
D03*
X69750Y216000D02*
D03*
X99005Y106005D02*
D03*
X76750Y106005D02*
D03*
X132250Y136250D02*
D03*
X54000Y106005D02*
D03*
X108500Y80500D02*
D03*
Y99500D02*
D03*
X93500Y100500D02*
D03*
X71500D02*
D03*
X60500D02*
D03*
D67*
X240499Y208250D02*
D03*
X252499Y199250D02*
D03*
X246499D02*
D03*
X240499D02*
D03*
X252499Y208250D02*
D03*
X246499D02*
D03*
X243499Y203750D02*
D03*
X249499D02*
D03*
D68*
X64000Y173000D02*
D03*
X88000D02*
D03*
X64000Y149000D02*
D03*
X88000D02*
D03*
X76000Y173000D02*
D03*
X100000D02*
D03*
X52000Y149000D02*
D03*
X76000D02*
D03*
X100000D02*
D03*
X64000Y185000D02*
D03*
X88000D02*
D03*
X64000Y161000D02*
D03*
X88000D02*
D03*
X64000Y137000D02*
D03*
X88000D02*
D03*
X76000Y185000D02*
D03*
X100000D02*
D03*
X52000Y161000D02*
D03*
X76000D02*
D03*
X100000D02*
D03*
X52000Y137000D02*
D03*
X76000D02*
D03*
X100000D02*
D03*
X52000Y173000D02*
D03*
Y185000D02*
D03*
D92*
X267751Y273000D02*
D03*
X137751Y273750D02*
D03*
X319751Y127500D02*
D03*
X509751D02*
D03*
X509751Y272750D02*
D03*
X319751D02*
D03*
D101*
X607250Y200000D02*
D03*
X171250D02*
D03*
M02*
