%FSLAX44Y44*%
%MOMM*%
G71*
G01*
G75*
G04 Layer_Physical_Order=1*
G04 Layer_Color=255*
%ADD10R,1.0500X1.0800*%
%ADD11R,1.0800X1.0500*%
%ADD12R,1.0000X1.1000*%
%ADD13R,1.6000X1.5000*%
%ADD14R,3.5000X2.2000*%
%ADD15R,1.1000X1.0000*%
%ADD16R,1.7000X1.1000*%
%ADD17R,0.8000X2.0000*%
%ADD18R,2.1000X3.0000*%
%ADD19R,0.7000X1.3000*%
%ADD20R,1.0000X1.5000*%
%ADD21R,1.8000X0.6000*%
%ADD22R,0.8890X0.4200*%
%ADD23R,1.1000X1.1000*%
%ADD24R,1.0000X1.8000*%
%ADD25O,0.8500X0.2500*%
%ADD26O,0.2500X0.8500*%
%ADD27R,5.6000X5.6000*%
%ADD28R,1.3000X0.6000*%
%ADD29R,1.5000X1.6000*%
%ADD30R,1.4000X1.0000*%
%ADD31R,0.9000X0.4000*%
%ADD32R,1.1000X1.1000*%
%ADD33R,0.6000X1.8000*%
%ADD34R,1.3000X0.6000*%
%ADD35R,1.2700X0.6000*%
%ADD36R,1.0200X0.6000*%
%ADD37R,0.5000X0.8500*%
%ADD38R,0.6000X1.2000*%
%ADD39R,1.2000X2.0000*%
%ADD40R,2.1000X3.0000*%
%ADD41R,0.8000X1.3000*%
%ADD42R,1.6000X2.2000*%
%ADD43R,0.3500X1.3500*%
%ADD44R,1.8900X1.5700*%
%ADD45C,0.2000*%
%ADD46C,0.2540*%
%ADD47C,0.3000*%
%ADD48C,0.2500*%
%ADD49R,5.1250X1.5250*%
%ADD50R,6.6250X4.4250*%
%ADD51R,10.4000X5.0000*%
%ADD52R,3.0000X8.8500*%
%ADD53R,10.4500X5.0000*%
%ADD54R,3.0000X7.7500*%
%ADD55R,3.2250X8.8000*%
%ADD56R,3.4700X4.3300*%
%ADD57R,3.2250X8.8500*%
%ADD58R,3.2999X8.9500*%
%ADD59R,3.0000X4.0000*%
%ADD60R,3.5000X3.5000*%
%ADD61O,10.0000X5.0000*%
%ADD62C,6.0000*%
%ADD63C,0.8000*%
%ADD64C,1.0000*%
%ADD65C,0.6000*%
%ADD66C,0.7000*%
%ADD67C,0.6600*%
%ADD68C,0.5000*%
D10*
X90750Y77000D02*
D03*
X73250D02*
D03*
X300750Y177000D02*
D03*
X318250D02*
D03*
X693752Y153751D02*
D03*
X676251D02*
D03*
X591749Y266500D02*
D03*
X609250D02*
D03*
X90750Y90000D02*
D03*
X73250D02*
D03*
X718500Y153751D02*
D03*
X736000D02*
D03*
D11*
X52750Y73249D02*
D03*
Y90750D02*
D03*
X692880Y101250D02*
D03*
Y118750D02*
D03*
X105750Y264000D02*
D03*
Y246500D02*
D03*
X88750Y264000D02*
D03*
Y246500D02*
D03*
X544750Y207000D02*
D03*
Y189500D02*
D03*
X143250Y133750D02*
D03*
Y116250D02*
D03*
X75001Y247500D02*
D03*
Y230000D02*
D03*
X61752Y247500D02*
D03*
Y230000D02*
D03*
X524250Y207500D02*
D03*
Y190000D02*
D03*
D12*
X300750Y191500D02*
D03*
Y208500D02*
D03*
X284749Y229750D02*
D03*
X267748D02*
D03*
X301001Y229750D02*
D03*
X318001D02*
D03*
X514501Y228000D02*
D03*
X531501D02*
D03*
X28751Y53250D02*
D03*
X45751D02*
D03*
X745748Y77500D02*
D03*
X728748D02*
D03*
X692749Y137000D02*
D03*
X675749D02*
D03*
D13*
X36000Y92500D02*
D03*
Y73500D02*
D03*
X275499Y188750D02*
D03*
Y207750D02*
D03*
D14*
X555251Y264250D02*
D03*
Y318250D02*
D03*
D15*
X710000Y136501D02*
D03*
Y119501D02*
D03*
X318250Y208499D02*
D03*
Y191499D02*
D03*
X544750Y220001D02*
D03*
Y237002D02*
D03*
X241250Y60500D02*
D03*
Y43499D02*
D03*
X143750Y81501D02*
D03*
Y98501D02*
D03*
X48000Y247249D02*
D03*
Y230249D02*
D03*
X166000Y85499D02*
D03*
Y102499D02*
D03*
Y119499D02*
D03*
Y136499D02*
D03*
D16*
X549000Y141500D02*
D03*
Y168500D02*
D03*
D17*
X592550Y67500D02*
D03*
X605049D02*
D03*
X617549D02*
D03*
X630048D02*
D03*
X642550D02*
D03*
X655049D02*
D03*
X667549D02*
D03*
X680051D02*
D03*
X692880D02*
D03*
D18*
X567549Y36250D02*
D03*
X717749D02*
D03*
D19*
X652050Y98000D02*
D03*
X633050D02*
D03*
Y122000D02*
D03*
X642550D02*
D03*
X652050D02*
D03*
X717750Y218750D02*
D03*
X736750D02*
D03*
Y194750D02*
D03*
X727250D02*
D03*
X717750D02*
D03*
X675501Y218750D02*
D03*
X694501D02*
D03*
Y194750D02*
D03*
X685001D02*
D03*
X675501D02*
D03*
D20*
X354751Y245250D02*
D03*
Y270250D02*
D03*
X374751Y245250D02*
D03*
Y270250D02*
D03*
X394751Y245250D02*
D03*
Y270250D02*
D03*
X414751Y245250D02*
D03*
Y270250D02*
D03*
X434751Y245250D02*
D03*
Y270250D02*
D03*
X454751Y245250D02*
D03*
Y270250D02*
D03*
X474751Y245250D02*
D03*
Y270250D02*
D03*
X474751Y155000D02*
D03*
Y130000D02*
D03*
X454751Y155000D02*
D03*
Y130000D02*
D03*
X434751Y155000D02*
D03*
Y130000D02*
D03*
X414751Y155000D02*
D03*
Y130000D02*
D03*
X394751Y155000D02*
D03*
Y130000D02*
D03*
X374751Y155000D02*
D03*
Y130000D02*
D03*
X354751Y155000D02*
D03*
Y130000D02*
D03*
D21*
X658000Y245500D02*
D03*
Y264500D02*
D03*
X638000Y255000D02*
D03*
X383500Y200000D02*
D03*
X403500Y209500D02*
D03*
Y190500D02*
D03*
X750750Y245500D02*
D03*
Y264500D02*
D03*
X730750Y255000D02*
D03*
X208000Y128000D02*
D03*
X188000Y118500D02*
D03*
Y137500D02*
D03*
X208000Y94000D02*
D03*
X188000Y84500D02*
D03*
Y103500D02*
D03*
D22*
X509890Y183500D02*
D03*
Y190000D02*
D03*
Y196500D02*
D03*
Y203000D02*
D03*
Y209500D02*
D03*
Y216000D02*
D03*
X469000Y183500D02*
D03*
Y190000D02*
D03*
Y196500D02*
D03*
Y203000D02*
D03*
Y209500D02*
D03*
Y216000D02*
D03*
D23*
X683250Y264500D02*
D03*
Y245500D02*
D03*
X675500Y100500D02*
D03*
Y119500D02*
D03*
X430500Y209500D02*
D03*
Y190500D02*
D03*
X452750Y190500D02*
D03*
Y209500D02*
D03*
X360000Y190500D02*
D03*
Y209500D02*
D03*
X705250Y245500D02*
D03*
Y264500D02*
D03*
X338000Y190500D02*
D03*
Y209500D02*
D03*
D24*
X113750Y229500D02*
D03*
X88750D02*
D03*
D25*
X121750Y123500D02*
D03*
Y128500D02*
D03*
Y133500D02*
D03*
Y138500D02*
D03*
Y143500D02*
D03*
Y148500D02*
D03*
Y153500D02*
D03*
Y158500D02*
D03*
Y163500D02*
D03*
Y168500D02*
D03*
Y173500D02*
D03*
Y178500D02*
D03*
Y183500D02*
D03*
Y188500D02*
D03*
Y193500D02*
D03*
Y198500D02*
D03*
X30250D02*
D03*
Y193500D02*
D03*
Y188500D02*
D03*
Y183500D02*
D03*
Y178500D02*
D03*
Y173500D02*
D03*
Y168500D02*
D03*
Y163500D02*
D03*
Y158500D02*
D03*
Y153500D02*
D03*
Y148500D02*
D03*
Y143500D02*
D03*
Y138500D02*
D03*
Y133500D02*
D03*
Y128500D02*
D03*
Y123500D02*
D03*
D26*
X113500Y206750D02*
D03*
X108500D02*
D03*
X103500D02*
D03*
X98500D02*
D03*
X93500D02*
D03*
X88500D02*
D03*
X83500D02*
D03*
X78500D02*
D03*
X73500D02*
D03*
X68500D02*
D03*
X63500D02*
D03*
X58500D02*
D03*
X53500D02*
D03*
X48500D02*
D03*
X43500D02*
D03*
X38500D02*
D03*
Y115250D02*
D03*
X43500D02*
D03*
X48500D02*
D03*
X53500D02*
D03*
X58500D02*
D03*
X63500D02*
D03*
X68500D02*
D03*
X73500D02*
D03*
X78500D02*
D03*
X83500D02*
D03*
X88500D02*
D03*
X93500D02*
D03*
X98500D02*
D03*
X103500D02*
D03*
X108500D02*
D03*
X113500D02*
D03*
D27*
X76000Y161000D02*
D03*
D28*
X129500Y90000D02*
D03*
X108500Y80500D02*
D03*
Y99500D02*
D03*
D29*
X260250Y83501D02*
D03*
X241250D02*
D03*
X236500Y161750D02*
D03*
X255500D02*
D03*
D30*
X280751Y52001D02*
D03*
X258749Y42501D02*
D03*
Y61500D02*
D03*
D31*
X235000Y129751D02*
D03*
Y142751D02*
D03*
X257000D02*
D03*
Y136251D02*
D03*
Y129751D02*
D03*
D32*
X591000Y287250D02*
D03*
X610000D02*
D03*
X717750Y171500D02*
D03*
X736750D02*
D03*
X694501Y171500D02*
D03*
X675501D02*
D03*
D33*
X727750Y99500D02*
D03*
X746750D02*
D03*
X737250Y119500D02*
D03*
D34*
X549000Y127249D02*
D03*
D35*
Y114649D02*
D03*
Y102049D02*
D03*
Y89949D02*
D03*
D36*
X603500Y127249D02*
D03*
Y114649D02*
D03*
Y102049D02*
D03*
Y89949D02*
D03*
D37*
X594167Y318249D02*
D03*
X606833D02*
D03*
X581500D02*
D03*
X619500D02*
D03*
D38*
X581000Y372749D02*
D03*
X620500D02*
D03*
X594000D02*
D03*
X607333D02*
D03*
D39*
X172751Y246250D02*
D03*
Y271250D02*
D03*
X192751Y246250D02*
D03*
Y271250D02*
D03*
X212751Y246250D02*
D03*
Y271250D02*
D03*
X232751Y246250D02*
D03*
Y271250D02*
D03*
D40*
X205002Y35500D02*
D03*
X66502D02*
D03*
D41*
X179502Y63000D02*
D03*
X167002D02*
D03*
X154502D02*
D03*
X142002D02*
D03*
X129502D02*
D03*
X117002D02*
D03*
X104502D02*
D03*
X92002D02*
D03*
D42*
X232999Y110001D02*
D03*
X261000D02*
D03*
D43*
X236499Y224160D02*
D03*
X242999D02*
D03*
X255999D02*
D03*
X249499D02*
D03*
Y182250D02*
D03*
X255999D02*
D03*
X242999D02*
D03*
X236499D02*
D03*
D44*
X246659Y203840D02*
D03*
D45*
X236159Y224160D02*
X236249Y224250D01*
Y227910D01*
Y218251D02*
Y224250D01*
X229250Y224160D02*
X236159D01*
X108500Y94250D02*
Y99500D01*
X104250Y90000D02*
X108500Y94250D01*
X94750Y90000D02*
X104250D01*
X48500Y108750D02*
Y115250D01*
X46000Y106250D02*
X48500Y108750D01*
X60250Y100750D02*
X60500Y100500D01*
X71250Y100750D02*
X71500Y100500D01*
X53500Y106505D02*
X54000Y106005D01*
X130750Y128500D02*
X132250D01*
X129500Y133500D02*
X132250Y136250D01*
X121750Y133500D02*
X129500D01*
X122506Y115256D02*
Y115756D01*
X122500Y115250D02*
X122506Y115256D01*
X130750Y128500D02*
X130750Y128500D01*
X121750D02*
X130750D01*
X42250Y106250D02*
X46000D01*
X108500Y206750D02*
Y218000D01*
X113750Y223250D01*
Y229500D01*
X103500Y206750D02*
Y217472D01*
X88750Y229500D02*
X102250D01*
X104000Y227750D01*
Y217972D02*
Y227750D01*
X103500Y217472D02*
X104000Y217972D01*
X53500Y106505D02*
Y115250D01*
X108500Y99500D02*
Y106946D01*
X103500Y111947D02*
X108500Y106946D01*
X103500Y99500D02*
X108500D01*
X103500Y99500D02*
X103500Y99500D01*
X103500D02*
X103500Y99500D01*
X132250Y157750D02*
Y167500D01*
X126250Y173500D02*
X132250Y167500D01*
X121750Y173500D02*
X126250D01*
X65750Y106005D02*
Y107733D01*
X68500Y110483D01*
Y115250D01*
X60250Y100750D02*
Y108284D01*
X63500Y111534D01*
Y115250D01*
X76750Y106005D02*
X78500Y107755D01*
Y115250D01*
X71250Y108284D02*
X73500Y110534D01*
X71250Y100750D02*
Y108284D01*
X73500Y110534D02*
Y115250D01*
X82250Y108365D02*
X83500Y109615D01*
Y115250D01*
X82250Y100750D02*
Y108365D01*
Y100750D02*
X82500Y100500D01*
X87750Y106005D02*
X88500Y106755D01*
Y115250D01*
X98500Y106510D02*
X99005Y106005D01*
X98500Y106510D02*
Y115250D01*
X93500D02*
X93500Y115250D01*
Y100500D02*
Y115250D01*
X103500Y111947D02*
Y115250D01*
X57250Y216000D02*
X58500Y214750D01*
Y206750D02*
Y214750D01*
X63500Y206750D02*
Y220250D01*
X76000Y213000D02*
Y220250D01*
X73500Y210500D02*
X76000Y213000D01*
X73500Y206750D02*
Y210500D01*
X68500Y214750D02*
X69750Y216000D01*
X68500Y206750D02*
Y214750D01*
X92250Y216000D02*
X93500Y214750D01*
Y206750D02*
Y214750D01*
X98500Y220250D02*
X98500Y220250D01*
Y206750D02*
Y220250D01*
X70250Y217500D02*
X70500Y217250D01*
X20250Y188500D02*
X20250Y188500D01*
X30250D01*
X271249Y209500D02*
Y214190D01*
X536751Y228000D02*
X544750Y220001D01*
X531501Y228000D02*
X536751D01*
X261000Y110001D02*
Y118250D01*
X494750Y207250D02*
Y215250D01*
X487750Y200250D02*
X494750Y207250D01*
X477000Y200250D02*
X487750D01*
X474250Y203000D02*
X477000Y200250D01*
X469000Y203000D02*
X474250D01*
X490750Y183500D02*
X491000Y183250D01*
X469000Y183500D02*
X490750D01*
X496500Y196500D02*
X497000Y197000D01*
X469000Y196500D02*
X496500D01*
X469000Y203000D02*
X470000Y202000D01*
X515750Y216000D02*
X524250Y207500D01*
X509890Y216000D02*
X515750D01*
X469000Y190000D02*
X509890D01*
X610000Y287250D02*
Y290000D01*
X122500Y115250D02*
Y122750D01*
X83500Y111750D02*
Y115250D01*
X118447Y133500D02*
X121750D01*
X98500Y203250D02*
Y206750D01*
X73500Y203193D02*
Y206750D01*
X247749Y129751D02*
X257500D01*
X246000Y132750D02*
X247749Y129751D01*
X103500Y99500D02*
X104500Y100500D01*
X103500Y101500D02*
X104500Y100500D01*
X469000Y209500D02*
X475000D01*
X477250Y207250D01*
X482250D01*
X553751Y298501D02*
Y316750D01*
X553750Y265750D02*
Y284000D01*
X619500Y308250D02*
Y318249D01*
D46*
X255500Y161750D02*
Y164000D01*
X266998Y228999D02*
X267748Y229750D01*
X255999Y228999D02*
X266998D01*
X255999Y224160D02*
Y228999D01*
X246999Y140501D02*
Y142501D01*
Y140501D02*
X251250Y136251D01*
X257750D01*
X246409Y207590D02*
X255749Y198250D01*
Y186000D02*
Y198250D01*
X249250Y157333D02*
X255500Y163583D01*
Y164000D01*
X478500Y216000D02*
X480000Y217500D01*
X469000Y216000D02*
X478500D01*
X509890Y183500D02*
X517750D01*
X524250Y190000D01*
X517749Y196500D02*
X524250Y190000D01*
X509890Y196500D02*
X517749D01*
X88500Y173500D02*
Y206750D01*
X58500Y115250D02*
Y119750D01*
X82250Y161000D02*
X102750Y140500D01*
X76000Y161000D02*
X82250D01*
X49250Y134250D02*
X76000Y161000D01*
X102750Y136000D02*
Y140500D01*
Y136000D02*
X108500Y130250D01*
Y115250D02*
Y130250D01*
X113500Y109000D02*
Y115250D01*
Y109000D02*
X116250Y106250D01*
X58500Y119750D02*
Y143500D01*
X76000Y161000D01*
X92002Y63000D02*
Y75748D01*
D47*
X236249Y186000D02*
X236500Y185749D01*
Y164000D02*
Y185749D01*
X235000Y162500D02*
X236500Y164000D01*
X588353Y218897D02*
X607250Y200000D01*
X235000Y131501D02*
Y142751D01*
D48*
X602050Y102450D02*
X603500D01*
D49*
X583625Y314875D02*
D03*
D50*
X611125Y356625D02*
D03*
D51*
X680500Y356500D02*
D03*
D52*
X364751Y282000D02*
D03*
D53*
X681000Y300000D02*
D03*
D54*
X464751Y123750D02*
D03*
D55*
X404876Y281750D02*
D03*
D56*
X581149Y108582D02*
D03*
D57*
X182876Y280500D02*
D03*
D58*
X223251Y281000D02*
D03*
D59*
X424751Y142499D02*
D03*
D60*
X319751Y272750D02*
D03*
X509751D02*
D03*
X509751Y127500D02*
D03*
X319751D02*
D03*
X137751Y273750D02*
D03*
X267751Y273000D02*
D03*
D61*
X715250Y300000D02*
D03*
X63250Y356500D02*
D03*
X715250Y356500D02*
D03*
X63250Y300000D02*
D03*
D62*
X171250Y200000D02*
D03*
X607250D02*
D03*
D63*
X229250Y224160D02*
D03*
X255500Y161750D02*
D03*
X236500D02*
D03*
X585500Y318250D02*
D03*
X92250Y90750D02*
D03*
X119250Y106250D02*
D03*
X72000Y90000D02*
D03*
X122506Y115756D02*
D03*
X143250Y133750D02*
D03*
X61752Y230000D02*
D03*
Y247500D02*
D03*
X88750Y229500D02*
D03*
X113750D02*
D03*
X105750Y246500D02*
D03*
X88750Y246500D02*
D03*
Y264000D02*
D03*
X105750Y264000D02*
D03*
X544750Y141500D02*
D03*
X52750Y90750D02*
D03*
Y73249D02*
D03*
X92500Y77000D02*
D03*
X143750Y81501D02*
D03*
Y98501D02*
D03*
X280751Y52001D02*
D03*
X241250Y43499D02*
D03*
X258749Y42501D02*
D03*
Y61500D02*
D03*
X241250Y60500D02*
D03*
X275499Y188750D02*
D03*
Y207750D02*
D03*
X338000Y190500D02*
D03*
Y209500D02*
D03*
X360000Y190500D02*
D03*
Y209500D02*
D03*
X318250Y191499D02*
D03*
X300750Y177000D02*
D03*
X318250D02*
D03*
X300750Y191500D02*
D03*
X318250Y208499D02*
D03*
X300750Y208500D02*
D03*
X318001Y229750D02*
D03*
X301001D02*
D03*
X267748Y229750D02*
D03*
X284749D02*
D03*
X374751Y155000D02*
D03*
X355267Y129756D02*
D03*
X394751Y130000D02*
D03*
Y155000D02*
D03*
X514501Y228000D02*
D03*
X544750Y220001D02*
D03*
Y190001D02*
D03*
Y207002D02*
D03*
X610000Y287250D02*
D03*
X619250Y308000D02*
D03*
X480000Y217500D02*
D03*
X491000Y183250D02*
D03*
X497000Y197000D02*
D03*
X494750Y215250D02*
D03*
X482250Y207250D02*
D03*
X524250Y190000D02*
D03*
X480250Y190000D02*
D03*
X452750Y209500D02*
D03*
X430500Y209500D02*
D03*
X452750Y190500D02*
D03*
X430500Y190500D02*
D03*
X657000Y349500D02*
D03*
Y363250D02*
D03*
X587250Y349500D02*
D03*
X600250D02*
D03*
X614250D02*
D03*
X628500D02*
D03*
X642250D02*
D03*
Y363250D02*
D03*
X628500D02*
D03*
X614250D02*
D03*
X600250D02*
D03*
X587250D02*
D03*
X705250Y245500D02*
D03*
Y264500D02*
D03*
X683250Y264500D02*
D03*
Y245500D02*
D03*
X591000Y287250D02*
D03*
X591749Y266500D02*
D03*
X609250D02*
D03*
X576002Y318250D02*
D03*
X595000Y318250D02*
D03*
X604500D02*
D03*
X728748Y77500D02*
D03*
X745748D02*
D03*
X675500Y100500D02*
D03*
X692880Y101250D02*
D03*
X692749Y137000D02*
D03*
X710000Y136501D02*
D03*
Y119501D02*
D03*
X692880Y118750D02*
D03*
X675500Y119500D02*
D03*
X675749Y137000D02*
D03*
X553251Y168500D02*
D03*
X544750D02*
D03*
X553251Y141500D02*
D03*
X630048Y63000D02*
D03*
Y72000D02*
D03*
X617549Y63000D02*
D03*
Y72000D02*
D03*
X605049Y63000D02*
D03*
Y72000D02*
D03*
X592550Y63000D02*
D03*
Y72000D02*
D03*
X642550Y67500D02*
D03*
X680551D02*
D03*
X667049D02*
D03*
X692880D02*
D03*
X655049D02*
D03*
X434751Y245250D02*
D03*
X454751D02*
D03*
X474251Y270250D02*
D03*
X591250Y95999D02*
D03*
Y108250D02*
D03*
Y121000D02*
D03*
X570250Y108250D02*
D03*
Y121000D02*
D03*
Y95999D02*
D03*
X75001Y247500D02*
D03*
X36000Y73500D02*
D03*
X260250Y83501D02*
D03*
X261000Y110001D02*
D03*
X232999D02*
D03*
X241250Y83501D02*
D03*
X28751Y53250D02*
D03*
X166000Y102499D02*
D03*
Y136499D02*
D03*
Y119499D02*
D03*
Y85499D02*
D03*
X48000Y230249D02*
D03*
Y247249D02*
D03*
X75001Y230000D02*
D03*
X45751Y53250D02*
D03*
X143250Y116250D02*
D03*
X36000Y92500D02*
D03*
X235000Y136250D02*
D03*
X246999Y142501D02*
D03*
X246000Y131000D02*
D03*
X434751Y270250D02*
D03*
X72000Y77000D02*
D03*
X544750Y237002D02*
D03*
X553751Y298501D02*
D03*
X553750Y284000D02*
D03*
D64*
X560751Y312750D02*
D03*
X546250D02*
D03*
X560751Y323500D02*
D03*
X546250Y323500D02*
D03*
X374751Y130000D02*
D03*
X434751Y142749D02*
D03*
X424750Y130019D02*
D03*
X434751Y155000D02*
D03*
X424750Y142749D02*
D03*
X414751Y130019D02*
D03*
X424750Y154750D02*
D03*
X414751Y142749D02*
D03*
Y155000D02*
D03*
X473250Y131750D02*
D03*
X560751Y259000D02*
D03*
X546501D02*
D03*
X560751Y269750D02*
D03*
X357251Y306250D02*
D03*
X372751D02*
D03*
X414751D02*
D03*
X394751D02*
D03*
X414751Y279750D02*
D03*
Y293250D02*
D03*
X394751D02*
D03*
X414751Y319000D02*
D03*
X394751Y319000D02*
D03*
X372751D02*
D03*
X357251D02*
D03*
X372751Y293250D02*
D03*
X456251Y131750D02*
D03*
X357251Y293250D02*
D03*
X357251Y279750D02*
D03*
X212500Y270250D02*
D03*
X212750Y259000D02*
D03*
X223251Y270250D02*
D03*
X233752D02*
D03*
Y259000D02*
D03*
X223251D02*
D03*
X233752Y281250D02*
D03*
X223251D02*
D03*
X212750D02*
D03*
X193502D02*
D03*
X183001D02*
D03*
X172500D02*
D03*
X193502Y270250D02*
D03*
X183001D02*
D03*
X172500D02*
D03*
X193502Y259000D02*
D03*
X183001D02*
D03*
X172500D02*
D03*
X456251Y90500D02*
D03*
X473250D02*
D03*
Y103500D02*
D03*
X456251D02*
D03*
Y117000D02*
D03*
X434751Y130019D02*
D03*
X473250Y117006D02*
D03*
X454751Y270250D02*
D03*
X394751Y279750D02*
D03*
X372751D02*
D03*
X546250Y269750D02*
D03*
D65*
X60500Y100500D02*
D03*
X71500D02*
D03*
X93500D02*
D03*
X108500Y99500D02*
D03*
Y80500D02*
D03*
X54000Y106005D02*
D03*
X132250Y136250D02*
D03*
X76750Y106005D02*
D03*
X99005Y106005D02*
D03*
X69750Y216000D02*
D03*
X98500Y220250D02*
D03*
X76000D02*
D03*
X57250Y216000D02*
D03*
X63500Y220250D02*
D03*
X188000Y84500D02*
D03*
Y103500D02*
D03*
X383500Y200000D02*
D03*
X403500Y190500D02*
D03*
Y209500D02*
D03*
X750750Y245500D02*
D03*
Y264500D02*
D03*
X730750Y255000D02*
D03*
X638000D02*
D03*
X658000Y245500D02*
D03*
Y264500D02*
D03*
X737250Y119500D02*
D03*
X746750Y99500D02*
D03*
X727750D02*
D03*
X549000Y89949D02*
D03*
X546000Y102049D02*
D03*
X552250D02*
D03*
X546000Y114649D02*
D03*
X552250D02*
D03*
X552250Y127249D02*
D03*
X546000D02*
D03*
X208000Y94000D02*
D03*
X188000Y118500D02*
D03*
X208000Y128000D02*
D03*
X188000Y137500D02*
D03*
X132250Y128500D02*
D03*
X42250Y106250D02*
D03*
X65750Y106005D02*
D03*
X87750Y106005D02*
D03*
X92250Y216000D02*
D03*
X20250Y188500D02*
D03*
X82500Y100500D02*
D03*
X132250Y157750D02*
D03*
D66*
X179502Y63000D02*
D03*
X167002D02*
D03*
X154502D02*
D03*
X142002D02*
D03*
X129502D02*
D03*
X718500Y153751D02*
D03*
X736000D02*
D03*
X736750Y171500D02*
D03*
X717750D02*
D03*
X676251Y153751D02*
D03*
X693752D02*
D03*
X694501Y171500D02*
D03*
X675501D02*
D03*
X717750Y218750D02*
D03*
X736750D02*
D03*
Y194750D02*
D03*
X727250D02*
D03*
X717750D02*
D03*
X675501D02*
D03*
X685001D02*
D03*
X694501D02*
D03*
Y218750D02*
D03*
X675501D02*
D03*
X633050Y122000D02*
D03*
X642550D02*
D03*
X652050D02*
D03*
Y98000D02*
D03*
X633050D02*
D03*
X117002Y63000D02*
D03*
X104502D02*
D03*
D67*
X52000Y185000D02*
D03*
Y173000D02*
D03*
X100000Y137000D02*
D03*
X76000D02*
D03*
X52000D02*
D03*
X100000Y161000D02*
D03*
X76000D02*
D03*
X52000D02*
D03*
X100000Y185000D02*
D03*
X76000D02*
D03*
X88000Y137000D02*
D03*
X64000D02*
D03*
X88000Y161000D02*
D03*
X64000D02*
D03*
X88000Y185000D02*
D03*
X64000D02*
D03*
X100000Y149000D02*
D03*
X76000D02*
D03*
X52000D02*
D03*
X100000Y173000D02*
D03*
X76000D02*
D03*
X88000Y149000D02*
D03*
X64000D02*
D03*
X88000Y173000D02*
D03*
X64000D02*
D03*
D68*
X249499Y203750D02*
D03*
X243499D02*
D03*
X246499Y208250D02*
D03*
X252499D02*
D03*
X240499Y199250D02*
D03*
X246499D02*
D03*
X252499D02*
D03*
X240499Y208250D02*
D03*
M02*
