%FSLAX44Y44*%
%MOMM*%
G71*
G01*
G75*
G04 Layer_Physical_Order=2*
G04 Layer_Color=128*
%ADD10R,1.0500X1.0800*%
%ADD11R,1.0800X1.0500*%
%ADD12R,1.0000X1.1000*%
%ADD13R,1.6000X1.5000*%
%ADD14R,3.5000X2.2000*%
%ADD15R,1.1000X1.0000*%
%ADD16R,1.7000X1.1000*%
%ADD17R,0.8000X2.0000*%
%ADD18R,2.1000X3.0000*%
%ADD19R,0.7000X1.3000*%
%ADD20R,1.0000X1.5000*%
%ADD21R,1.8000X0.6000*%
%ADD22R,0.8890X0.4200*%
%ADD23R,1.1000X1.1000*%
%ADD24R,1.0000X1.8000*%
%ADD25O,0.8500X0.2500*%
%ADD26O,0.2500X0.8500*%
%ADD27R,5.6000X5.6000*%
%ADD28R,1.3000X0.6000*%
%ADD29R,1.5000X1.6000*%
%ADD30R,1.4000X1.0000*%
%ADD31R,0.9000X0.4000*%
%ADD32R,1.1000X1.1000*%
%ADD33R,0.6000X1.8000*%
%ADD34R,1.3000X0.6000*%
%ADD35R,1.2700X0.6000*%
%ADD36R,1.0200X0.6000*%
%ADD37R,0.5000X0.8500*%
%ADD38R,0.6000X1.2000*%
%ADD39R,1.2000X2.0000*%
%ADD40R,2.1000X3.0000*%
%ADD41R,0.8000X1.3000*%
%ADD42R,1.6000X2.2000*%
%ADD43R,0.3500X1.3500*%
%ADD44R,1.8900X1.5700*%
%ADD45C,0.2000*%
%ADD46C,0.2540*%
%ADD47C,0.3000*%
%ADD48C,0.2500*%
%ADD49R,5.1250X1.5250*%
%ADD50R,6.6250X4.4250*%
%ADD51R,10.4000X5.0000*%
%ADD52R,3.0000X8.8500*%
%ADD53R,10.4500X5.0000*%
%ADD54R,3.0000X7.7500*%
%ADD55R,3.2250X8.8000*%
%ADD56R,3.4700X4.3300*%
%ADD57R,3.2250X8.8500*%
%ADD58R,3.2999X8.9500*%
%ADD59R,3.0000X4.0000*%
%ADD60R,3.5000X3.5000*%
%ADD61O,10.0000X5.0000*%
%ADD62C,6.0000*%
%ADD63C,0.8000*%
%ADD64C,1.0000*%
%ADD65C,0.6000*%
%ADD66C,0.7000*%
%ADD67C,0.6600*%
%ADD68C,0.5000*%
%ADD69C,1.0160*%
%ADD70C,2.7000*%
%ADD71O,7.5000X1.5000*%
%ADD72C,3.7000*%
%ADD73C,0.8000*%
%ADD74C,1.0000*%
%ADD75C,0.7000*%
%ADD76C,0.7500*%
%ADD77C,0.8300*%
D69*
X-1524Y50000D02*
G03*
X49750Y-1274I51274J0D01*
G01*
X-1518Y50125D02*
G03*
X-1524Y50000I1268J-125D01*
G01*
Y50250D02*
G03*
X-1518Y50125I1274J0D01*
G01*
X49750Y401274D02*
G03*
X-1524Y350000I0J-51274D01*
G01*
X781024D02*
G03*
X729750Y401274I-51274J0D01*
G01*
X729758Y-1274D02*
G03*
X781024Y50000I-8J51274D01*
G01*
X729750Y-1274D02*
G03*
X729758Y-1274I0J51274D01*
G01*
X709976Y0D02*
G03*
X711250Y-1274I1274J0D01*
G01*
X709976Y6250D02*
G03*
X707500Y8726I-2476J0D01*
G01*
X578000D02*
G03*
X575024Y5750I0J-2976D01*
G01*
X573750Y-1274D02*
G03*
X575024Y0I0J1274D01*
G01*
X203476D02*
G03*
X204750Y-1274I1274J0D01*
G01*
X203476Y5750D02*
G03*
X200500Y8726I-2976J0D01*
G01*
X71000D02*
G03*
X68524Y6250I0J-2476D01*
G01*
X67250Y-1274D02*
G03*
X68524Y-0I0J1274D01*
G01*
X67250Y-1274D02*
G03*
X67820Y-1139I0J1274D01*
G01*
X49750Y-1274D02*
X50000Y-1274D01*
X-1518Y50125D02*
Y50125D01*
X-1524Y50250D02*
Y350000D01*
X49750Y401274D02*
X729750D01*
X781024Y50000D02*
Y350000D01*
X711250Y-1274D02*
X729750D01*
X709976Y0D02*
Y6250D01*
X578000Y8726D02*
X707500D01*
X575024Y0D02*
Y5750D01*
X204750Y-1274D02*
X573750D01*
X203476Y0D02*
Y5750D01*
X71000Y8726D02*
X200500D01*
X68524Y-0D02*
Y6250D01*
X67250Y-1274D02*
X67820Y-1139D01*
X67250Y-1274D02*
Y-1274D01*
X50000Y-1274D02*
X67250D01*
D70*
X319751Y272750D02*
D03*
X509751D02*
D03*
X509751Y127500D02*
D03*
X319751D02*
D03*
X137751Y273750D02*
D03*
X267751Y273000D02*
D03*
D71*
X715250Y300000D02*
D03*
X63250Y356500D02*
D03*
X715250Y356500D02*
D03*
X63250Y300000D02*
D03*
D72*
X171250Y200000D02*
D03*
X607250D02*
D03*
D73*
X229250Y224160D02*
D03*
X255500Y161750D02*
D03*
X236500D02*
D03*
X585500Y318250D02*
D03*
X92250Y90750D02*
D03*
X119250Y106250D02*
D03*
X72000Y90000D02*
D03*
X122506Y115756D02*
D03*
X143250Y133750D02*
D03*
X61752Y247500D02*
D03*
X88750Y229500D02*
D03*
X113750D02*
D03*
X105750Y246500D02*
D03*
X88750Y246500D02*
D03*
Y264000D02*
D03*
X105750Y264000D02*
D03*
X544750Y141500D02*
D03*
X52750Y73249D02*
D03*
X92500Y77000D02*
D03*
X179502Y63000D02*
D03*
X167002D02*
D03*
X154502D02*
D03*
X142002D02*
D03*
X129502D02*
D03*
X143750Y81501D02*
D03*
Y98501D02*
D03*
X280751Y52001D02*
D03*
X241250Y43499D02*
D03*
X258749Y42501D02*
D03*
Y61500D02*
D03*
X241250Y60500D02*
D03*
X275499Y188750D02*
D03*
Y207750D02*
D03*
X338000Y190500D02*
D03*
Y209500D02*
D03*
X360000Y190500D02*
D03*
Y209500D02*
D03*
X318250Y191499D02*
D03*
X300750Y177000D02*
D03*
X318250D02*
D03*
X300750Y191500D02*
D03*
X318250Y208499D02*
D03*
X300750Y208500D02*
D03*
X318001Y229750D02*
D03*
X301001D02*
D03*
X267748Y229750D02*
D03*
X284749D02*
D03*
X374751Y155000D02*
D03*
X355267Y129756D02*
D03*
X394751Y130000D02*
D03*
Y155000D02*
D03*
X514501Y228000D02*
D03*
X544750Y220001D02*
D03*
Y190001D02*
D03*
Y207002D02*
D03*
X610000Y287250D02*
D03*
X619250Y308000D02*
D03*
X480000Y217500D02*
D03*
X491000Y183250D02*
D03*
X497000Y197000D02*
D03*
X494750Y215250D02*
D03*
X482250Y207250D02*
D03*
X524250Y190000D02*
D03*
X480250Y190000D02*
D03*
X383500Y200000D02*
D03*
X403500Y190500D02*
D03*
Y209500D02*
D03*
X452750Y209500D02*
D03*
X430500Y209500D02*
D03*
X452750Y190500D02*
D03*
X430500Y190500D02*
D03*
X657000Y349500D02*
D03*
Y363250D02*
D03*
X587250Y349500D02*
D03*
X600250D02*
D03*
X614250D02*
D03*
X628500D02*
D03*
X642250D02*
D03*
Y363250D02*
D03*
X628500D02*
D03*
X614250D02*
D03*
X600250D02*
D03*
X587250D02*
D03*
X705250Y245500D02*
D03*
Y264500D02*
D03*
X683250Y264500D02*
D03*
Y245500D02*
D03*
X718500Y153751D02*
D03*
X736000D02*
D03*
X736750Y171500D02*
D03*
X717750D02*
D03*
X676251Y153751D02*
D03*
X693752D02*
D03*
X694501Y171500D02*
D03*
X675501D02*
D03*
X717750Y218750D02*
D03*
X736750D02*
D03*
Y194750D02*
D03*
X727250D02*
D03*
X717750D02*
D03*
X675501D02*
D03*
X685001D02*
D03*
X694501D02*
D03*
Y218750D02*
D03*
X675501D02*
D03*
X591000Y287250D02*
D03*
X591749Y266500D02*
D03*
X609250D02*
D03*
X576002Y318250D02*
D03*
X595000Y318250D02*
D03*
X604500D02*
D03*
X728748Y77500D02*
D03*
X745748D02*
D03*
X675500Y100500D02*
D03*
X692880Y101250D02*
D03*
X692749Y137000D02*
D03*
X710000Y136501D02*
D03*
Y119501D02*
D03*
X692880Y118750D02*
D03*
X675500Y119500D02*
D03*
X675749Y137000D02*
D03*
X633050Y122000D02*
D03*
X642550D02*
D03*
X652050D02*
D03*
Y98000D02*
D03*
X633050D02*
D03*
X553251Y168500D02*
D03*
X544750D02*
D03*
X553251Y141500D02*
D03*
X630048Y63000D02*
D03*
Y72000D02*
D03*
X617549Y63000D02*
D03*
Y72000D02*
D03*
X605049Y63000D02*
D03*
Y72000D02*
D03*
X592550Y63000D02*
D03*
Y72000D02*
D03*
X642550Y67500D02*
D03*
X680551D02*
D03*
X667049D02*
D03*
X692880D02*
D03*
X655049D02*
D03*
X434751Y245250D02*
D03*
X454751D02*
D03*
X474251Y270250D02*
D03*
X591250Y95999D02*
D03*
Y108250D02*
D03*
Y121000D02*
D03*
X570250Y108250D02*
D03*
Y121000D02*
D03*
Y95999D02*
D03*
X75001Y247500D02*
D03*
X36000Y73500D02*
D03*
X260250Y83501D02*
D03*
X232999Y110001D02*
D03*
X241250Y83501D02*
D03*
X166000Y119499D02*
D03*
Y85499D02*
D03*
X48000Y230249D02*
D03*
X45751Y53250D02*
D03*
X143250Y116250D02*
D03*
X20250Y188500D02*
D03*
X235000Y136250D02*
D03*
X246999Y142501D02*
D03*
X434751Y270250D02*
D03*
X117002Y63000D02*
D03*
X544750Y237002D02*
D03*
X553751Y298501D02*
D03*
X553750Y284000D02*
D03*
D74*
X560751Y312750D02*
D03*
X546250D02*
D03*
X560751Y323500D02*
D03*
X546250Y323500D02*
D03*
X374751Y130000D02*
D03*
X434751Y142749D02*
D03*
X424750Y130019D02*
D03*
X434751Y155000D02*
D03*
X424750Y142749D02*
D03*
X414751Y130019D02*
D03*
X424750Y154750D02*
D03*
X414751Y142749D02*
D03*
Y155000D02*
D03*
X473250Y131750D02*
D03*
X560751Y259000D02*
D03*
X546501D02*
D03*
X560751Y269750D02*
D03*
X357251Y306250D02*
D03*
X372751D02*
D03*
X414751D02*
D03*
X394751D02*
D03*
X414751Y279750D02*
D03*
Y293250D02*
D03*
X394751D02*
D03*
X414751Y319000D02*
D03*
X394751Y319000D02*
D03*
X372751D02*
D03*
X357251D02*
D03*
X372751Y293250D02*
D03*
X456251Y131750D02*
D03*
X357251Y293250D02*
D03*
X357251Y279750D02*
D03*
X212500Y270250D02*
D03*
X212750Y259000D02*
D03*
X223251Y270250D02*
D03*
X233752D02*
D03*
Y259000D02*
D03*
X223251D02*
D03*
X233752Y281250D02*
D03*
X223251D02*
D03*
X212750D02*
D03*
X193502D02*
D03*
X183001D02*
D03*
X172500D02*
D03*
X193502Y270250D02*
D03*
X183001D02*
D03*
X172500D02*
D03*
X193502Y259000D02*
D03*
X183001D02*
D03*
X172500D02*
D03*
X456251Y90500D02*
D03*
X473250D02*
D03*
Y103500D02*
D03*
X456251D02*
D03*
Y117000D02*
D03*
X434751Y130019D02*
D03*
X473250Y117006D02*
D03*
X454751Y270250D02*
D03*
X394751Y279750D02*
D03*
X372751D02*
D03*
X546250Y269750D02*
D03*
D75*
X60500Y100500D02*
D03*
X71500D02*
D03*
X93500D02*
D03*
X132250Y136250D02*
D03*
X76750Y106005D02*
D03*
X99005Y106005D02*
D03*
X69750Y216000D02*
D03*
X98500Y220250D02*
D03*
X76000D02*
D03*
X57250Y216000D02*
D03*
X63500Y220250D02*
D03*
X188000Y84500D02*
D03*
X750750Y264500D02*
D03*
X730750Y255000D02*
D03*
X638000D02*
D03*
X658000Y245500D02*
D03*
Y264500D02*
D03*
X737250Y119500D02*
D03*
X746750Y99500D02*
D03*
X727750D02*
D03*
X549000Y89949D02*
D03*
X546000Y102049D02*
D03*
X552250D02*
D03*
X546000Y114649D02*
D03*
X552250D02*
D03*
X552250Y127249D02*
D03*
X546000D02*
D03*
X208000Y94000D02*
D03*
X188000Y118500D02*
D03*
X208000Y128000D02*
D03*
X132250Y128500D02*
D03*
X42250Y106250D02*
D03*
X65750Y106005D02*
D03*
X87750Y106005D02*
D03*
X82500Y100500D02*
D03*
X132250Y157750D02*
D03*
D76*
X108500Y99500D02*
D03*
Y80500D02*
D03*
X249499Y203750D02*
D03*
X243499D02*
D03*
X246499Y208250D02*
D03*
X252499D02*
D03*
X240499Y199250D02*
D03*
X246499D02*
D03*
X252499D02*
D03*
X240499Y208250D02*
D03*
D77*
X52000Y185000D02*
D03*
Y173000D02*
D03*
X100000Y137000D02*
D03*
X76000D02*
D03*
X52000D02*
D03*
X100000Y161000D02*
D03*
X76000D02*
D03*
X52000D02*
D03*
X100000Y185000D02*
D03*
X76000D02*
D03*
X88000Y137000D02*
D03*
X64000D02*
D03*
X88000Y161000D02*
D03*
X64000D02*
D03*
X88000Y185000D02*
D03*
X64000D02*
D03*
X100000Y149000D02*
D03*
X76000D02*
D03*
X52000D02*
D03*
X100000Y173000D02*
D03*
X76000D02*
D03*
X88000Y149000D02*
D03*
X64000D02*
D03*
X88000Y173000D02*
D03*
X64000D02*
D03*
M02*
