G04 Layer_Physical_Order=5*
G04 Layer_Color=32768*
%FSLAX44Y44*%
%MOMM*%
G71*
G01*
G75*
%ADD69C,1.0160*%
%ADD71O,7.5000X1.5000*%
%ADD73C,0.8000*%
%ADD74C,1.0000*%
%ADD75C,0.7000*%
%ADD76C,0.7500*%
D69*
X-1524Y50000D02*
G03*
X49750Y-1274I51274J0D01*
G01*
X-1518Y50125D02*
G03*
X-1524Y50000I1268J-125D01*
G01*
Y50250D02*
G03*
X-1518Y50125I1274J0D01*
G01*
X49750Y401274D02*
G03*
X-1524Y350000I0J-51274D01*
G01*
X781024D02*
G03*
X729750Y401274I-51274J0D01*
G01*
X729758Y-1274D02*
G03*
X781024Y50000I-8J51274D01*
G01*
X729750Y-1274D02*
G03*
X729758Y-1274I0J51274D01*
G01*
X709976Y0D02*
G03*
X711250Y-1274I1274J0D01*
G01*
X709976Y6250D02*
G03*
X707500Y8726I-2476J0D01*
G01*
X578000D02*
G03*
X575024Y5750I0J-2976D01*
G01*
X573750Y-1274D02*
G03*
X575024Y0I0J1274D01*
G01*
X203476D02*
G03*
X204750Y-1274I1274J0D01*
G01*
X203476Y5750D02*
G03*
X200500Y8726I-2976J0D01*
G01*
X71000D02*
G03*
X68524Y6250I0J-2476D01*
G01*
X67250Y-1274D02*
G03*
X68524Y-0I0J1274D01*
G01*
X67250Y-1274D02*
G03*
X67820Y-1139I0J1274D01*
G01*
X49750Y-1274D02*
X50000Y-1274D01*
X-1518Y50125D02*
Y50125D01*
X-1524Y50250D02*
Y350000D01*
X49750Y401274D02*
X729750D01*
X781024Y50000D02*
Y350000D01*
X711250Y-1274D02*
X729750D01*
X709976Y0D02*
Y6250D01*
X578000Y8726D02*
X707500D01*
X575024Y0D02*
Y5750D01*
X204750Y-1274D02*
X573750D01*
X203476Y0D02*
Y5750D01*
X71000Y8726D02*
X200500D01*
X68524Y-0D02*
Y6250D01*
X67250Y-1274D02*
X67820Y-1139D01*
X67250Y-1274D02*
Y-1274D01*
X50000Y-1274D02*
X67250D01*
D71*
X63250Y300000D02*
D03*
X715250Y356500D02*
D03*
Y300000D02*
D03*
D73*
X553750Y284000D02*
D03*
X553751Y298501D02*
D03*
X544750Y237002D02*
D03*
X104502Y63000D02*
D03*
X117002D02*
D03*
X72000Y77000D02*
D03*
X434751Y270250D02*
D03*
X246000Y131000D02*
D03*
X235000Y136250D02*
D03*
X36000Y92500D02*
D03*
X20250Y188500D02*
D03*
X143250Y116250D02*
D03*
X45751Y53250D02*
D03*
X75001Y230000D02*
D03*
X48000Y247249D02*
D03*
Y230249D02*
D03*
X166000Y85499D02*
D03*
Y119499D02*
D03*
Y136499D02*
D03*
Y102499D02*
D03*
X28751Y53250D02*
D03*
X241250Y83501D02*
D03*
X232999Y110001D02*
D03*
X261000D02*
D03*
X570250Y95999D02*
D03*
Y121000D02*
D03*
Y108250D02*
D03*
X591250Y121000D02*
D03*
Y108250D02*
D03*
Y95999D02*
D03*
X474251Y270250D02*
D03*
X454751Y245250D02*
D03*
X434751D02*
D03*
X655049Y67500D02*
D03*
X692880D02*
D03*
X667049D02*
D03*
X680551D02*
D03*
X642550D02*
D03*
X592550Y72000D02*
D03*
Y63000D02*
D03*
X605049Y72000D02*
D03*
Y63000D02*
D03*
X553251Y141500D02*
D03*
X544750Y168500D02*
D03*
X553251D02*
D03*
X633050Y98000D02*
D03*
X652050D02*
D03*
Y122000D02*
D03*
X633050D02*
D03*
X675749Y137000D02*
D03*
X675500Y119500D02*
D03*
X692880Y118750D02*
D03*
X710000Y119501D02*
D03*
Y136501D02*
D03*
X692749Y137000D02*
D03*
X728748Y77500D02*
D03*
X604500Y318250D02*
D03*
X595000D02*
D03*
X576002Y318250D02*
D03*
X591749Y266500D02*
D03*
X591000Y287250D02*
D03*
X675501Y218750D02*
D03*
X694501D02*
D03*
Y194750D02*
D03*
X675501D02*
D03*
X717750D02*
D03*
X736750D02*
D03*
Y218750D02*
D03*
X717750D02*
D03*
X675501Y171500D02*
D03*
X676251Y153751D02*
D03*
X717750Y171500D02*
D03*
X718500Y153751D02*
D03*
X683250Y245500D02*
D03*
Y264500D02*
D03*
X705250Y264500D02*
D03*
Y245500D02*
D03*
X587250Y363250D02*
D03*
X600250D02*
D03*
X614250D02*
D03*
X628500D02*
D03*
X642250D02*
D03*
Y349500D02*
D03*
X628500D02*
D03*
X614250D02*
D03*
X600250D02*
D03*
X587250D02*
D03*
X657000Y363250D02*
D03*
Y349500D02*
D03*
X430500Y190500D02*
D03*
X452750Y190500D02*
D03*
X430500Y209500D02*
D03*
X452750Y209500D02*
D03*
X403500Y209500D02*
D03*
Y190500D02*
D03*
X383500Y200000D02*
D03*
X480250Y190000D02*
D03*
X482250Y207250D02*
D03*
X494750Y215250D02*
D03*
X497000Y197000D02*
D03*
X491000Y183250D02*
D03*
X619250Y308000D02*
D03*
X610000Y287250D02*
D03*
X544750Y207002D02*
D03*
Y220001D02*
D03*
X394751Y155000D02*
D03*
Y130000D02*
D03*
X355267Y129756D02*
D03*
X374751Y155000D02*
D03*
X284749Y229750D02*
D03*
X267748D02*
D03*
X301001Y229750D02*
D03*
X300750Y208500D02*
D03*
X318250Y208499D02*
D03*
X300750Y191500D02*
D03*
X318250Y177000D02*
D03*
X318250Y191499D02*
D03*
X360000Y190500D02*
D03*
X338000Y209500D02*
D03*
Y190500D02*
D03*
X275499Y207750D02*
D03*
X241250Y60500D02*
D03*
X258749Y61500D02*
D03*
Y42501D02*
D03*
X241250Y43499D02*
D03*
X280751Y52001D02*
D03*
X143750Y98501D02*
D03*
Y81501D02*
D03*
X129502Y63000D02*
D03*
X142002D02*
D03*
X154502D02*
D03*
X167002D02*
D03*
X179502D02*
D03*
X52750Y90750D02*
D03*
X544750Y141500D02*
D03*
X88750Y246500D02*
D03*
X105750Y246500D02*
D03*
X113750Y229500D02*
D03*
X88750D02*
D03*
X61752Y230000D02*
D03*
X122506Y115756D02*
D03*
X119250Y106250D02*
D03*
X92250Y90750D02*
D03*
X585500Y318250D02*
D03*
X236500Y161750D02*
D03*
X229250Y224160D02*
D03*
D74*
X546250Y269750D02*
D03*
X394751Y279750D02*
D03*
X434751Y130019D02*
D03*
X172500Y259000D02*
D03*
X183001D02*
D03*
X193502D02*
D03*
X172500Y270250D02*
D03*
X183001D02*
D03*
X193502D02*
D03*
X172500Y281250D02*
D03*
X183001D02*
D03*
X193502D02*
D03*
X394751Y319000D02*
D03*
X414751Y319000D02*
D03*
X394751Y293250D02*
D03*
X414751D02*
D03*
Y279750D02*
D03*
X394751Y306250D02*
D03*
X414751D02*
D03*
X560751Y269750D02*
D03*
X546501Y259000D02*
D03*
X560751D02*
D03*
X414751Y155000D02*
D03*
Y142749D02*
D03*
X424750Y154750D02*
D03*
X414751Y130019D02*
D03*
X424750Y142749D02*
D03*
X434751Y155000D02*
D03*
X424750Y130019D02*
D03*
X434751Y142749D02*
D03*
X546250Y323500D02*
D03*
X560751Y323500D02*
D03*
X546250Y312750D02*
D03*
X560751D02*
D03*
D75*
X132250Y157750D02*
D03*
X82500Y100500D02*
D03*
X92250Y216000D02*
D03*
X87750Y106005D02*
D03*
X65750Y106005D02*
D03*
X42250Y106250D02*
D03*
X132250Y128500D02*
D03*
X188000Y137500D02*
D03*
X208000Y128000D02*
D03*
X188000Y118500D02*
D03*
X208000Y94000D02*
D03*
X546000Y127249D02*
D03*
X552250D02*
D03*
X552250Y114649D02*
D03*
X546000D02*
D03*
X552250Y102049D02*
D03*
X546000D02*
D03*
X549000Y89949D02*
D03*
X727750Y99500D02*
D03*
X737250Y119500D02*
D03*
X658000Y264500D02*
D03*
Y245500D02*
D03*
X638000Y255000D02*
D03*
X730750D02*
D03*
X750750Y245500D02*
D03*
X188000Y103500D02*
D03*
Y84500D02*
D03*
X63500Y220250D02*
D03*
X57250Y216000D02*
D03*
X76000Y220250D02*
D03*
X98500D02*
D03*
X69750Y216000D02*
D03*
X99005Y106005D02*
D03*
X76750Y106005D02*
D03*
X132250Y136250D02*
D03*
X54000Y106005D02*
D03*
X93500Y100500D02*
D03*
X71500D02*
D03*
X60500D02*
D03*
D76*
X108500Y99500D02*
D03*
M02*
