M48
;Layer_Color=9474304
;FILE_FORMAT=4:4
METRIC,LZ
;TYPE=PLATED
T1F00S00C0.2000
T2F00S00C0.2500
T3F00S00C0.3000
T4F00S00C0.3300
T5F00S00C0.5000
T7F00S00C2.2000
T8F00S00C3.2000
%
T01
X0004225Y0010625
X00054Y00106005
X0006575
X000605Y001005
X000715
X0007675Y00106005
X0008775Y00106005
X000825Y001005
X000935
X00099005Y00106005
X0013225Y001285
Y0013625
Y0015775
X00188Y001375
Y001185
Y001035
Y000845
X00208Y00094
Y00128
X000985Y0022025
X0009225Y00216
X00076Y0022025
X0006975Y00216
X000635Y0022025
X0005725Y00216
X00546Y00127249
X0055225
X0055225Y00114649
X00546
Y00102049
X0055225
X00549Y00089949
X0072775Y000995
X0074675
X0073725Y001195
X0075075Y002455
Y002645
X0073075Y00255
X00658Y002645
Y002455
X00638Y00255
T02
X001085Y000805
Y000995
X00240499Y0019925
X00246499
X00252499
X00249499Y0020375
X00243499
X00246499Y0020825
X00252499
X00240499
T03
X0002025Y001885
X00048Y00230249
X00061752Y0023
X00075001
X0008875Y002295
X0008875Y002465
X00075001Y002475
X00061752
X00048Y00247249
X0008875Y00264
X0010575Y00264
Y002465
X0011375Y002295
X0022925Y0022416
X00267748Y0022975
X00284749
X00301001Y0022975
X00318001
X0031825Y00208499
Y00191499
X0031825Y00177
X0030075
Y001915
Y002085
X00275499Y0020775
Y0018875
X002555Y0016175
X002365
X00235Y0013625
X00246Y00131
X00246999Y00142501
X00232999Y00110001
X00261
X0026025Y00083501
X0024125
X0024125Y000605
Y00043499
X00258749Y00042501
Y000615
X00280751Y00052001
X00179502Y00063
X00167002
X00154502
X00142002
X00129502
X00117002
X00104502
X000925Y00077
X0009225Y0009075
X00072Y0009
Y00077
X0005275Y00073249
X00036Y000735
Y000925
X0005275Y0009075
X00045751Y0005325
X00028751
X0014375Y00081501
Y00098501
X0014325Y0011625
Y0013375
X00166Y00136499
Y00119499
Y00102499
Y00085499
X0011925Y0010625
X00122506Y00115756
X00355267Y00129756
X00394751Y0013
Y00155
X00374751
X0036Y001905
Y002095
X00338
Y001905
X003835Y002
X004035Y002095
Y001905
X004305Y001905
Y002095
X0045275Y002095
Y001905
X0048025Y0019
X00491Y0018325
X00497Y00197
X0049475Y0021525
X0048Y002175
X0048225Y0020725
X00514501Y00228
X0054475Y00220001
Y00207002
Y00190001
X0052425Y0019
X0054475Y001685
X00553251
X00553251Y001415
X0054475
X0057025Y00121
Y0010825
Y00095999
X0059125
Y0010825
Y00121
X0063305Y00122
X0064255
X0065205
Y00098
X0063305
X00630048Y00072
Y00063
X00617549
Y00072
X00605049
Y00063
X0059255
Y00072
X0064255Y000675
X00655049
X00667049
X00680551
X0069288
X0069288Y0010125
Y0011875
X0071Y00119501
Y00136501
X00692749Y00137
X00675749
X00676251Y00153751
X00693752
X00694501Y001715
X00675501
X00675501Y0019475
X00685001
X00694501
X0071775
X0072725
X0073675
X0073675Y001715
X00736Y00153751
X007185
X0071775Y001715
X0071775Y0021875
X0073675
X00694501
X00675501
X0068325Y002455
Y002645
X0070525Y002645
Y002455
X0060925Y002665
X00591749
X00591Y0028725
X0061
X0061925Y00308
X006045Y0031825
X00595
X005855Y0031825
X00576002Y0031825
X00553751Y00298501
X0055375Y00284
X0054475Y00237002
X00454751Y0024525
X00434751
Y0027025
X00474251
X0058725Y003495
X0060025
Y0036325
X0058725
X0061425
Y003495
X006285
Y0036325
X0064225
Y003495
X00657
Y0036325
X006755Y001195
Y001005
X00728748Y000775
X00745748
T04
X00052Y00137
Y00149
X00064
X00076
X00088
X001
Y00161
Y00173
X00088
X00076
X00064
Y00185
X00076
X00088
X001
X00088Y00161
X00076
X00064
X00052
Y00173
Y00185
X00064Y00137
X00076
X00088
X001
T05
X001725Y00259
X00183001
X00193502
Y0027025
X00183001
X001725
X001725Y0028125
X00183001
X00193502
X0021275
X00223251
X00233752
X00233752Y0027025
X00223251
X002125
X0021275Y00259
X00223251Y00259
X00233752
X00357251Y0027975
X00357251Y0029325
Y0030625
Y00319
X00372751
Y0030625
Y0029325
X00372751Y0027975
X00394751
X00394751Y0029325
Y0030625
Y00319
X00414751Y00319
X00414751Y0030625
Y0029325
Y0027975
Y00155
Y00142749
Y00130019
X00374751Y0013
X0042475Y00130019
X00434751Y00130019
Y00142749
X0042475
X0042475Y0015475
X00434751Y00155
X00456251Y0013175
X00456251Y00117
Y001035
Y000905
X0047325
Y001035
Y00117006
X0047325Y0013175
X00454751Y0027025
X0054625Y0026975
X00546501Y00259
X00560751
Y0026975
X00560751Y0031275
Y003235
X0054625Y003235
Y0031275
T07
X00137751Y0027375
X00267751Y00273
X00319751Y0027275
X00319751Y001275
X00509751
X00509751Y0027275
T08
X0017125Y002
X0060725
M30
