%FSLAX44Y44*%
%MOMM*%
G71*
G01*
G75*
G04 Layer_Physical_Order=1*
G04 Layer_Color=255*
%ADD10R,1.5000X4.4000*%
%ADD11R,1.5000X1.5000*%
%ADD12R,1.5000X5.6000*%
%ADD13R,2.0000X2.0000*%
%ADD14C,0.2000*%
%ADD15C,1.5000*%
%ADD16C,6.5000*%
%ADD17C,1.3000*%
%ADD18C,2.0000*%
D10*
X1016000Y-487680D02*
D03*
D11*
Y-527680D02*
D03*
D12*
X3027500Y-195000D02*
D03*
Y-605000D02*
D03*
X2597500D02*
D03*
Y-195000D02*
D03*
X2167500D02*
D03*
Y-605000D02*
D03*
X155000Y-195000D02*
D03*
Y-605000D02*
D03*
X585000D02*
D03*
Y-195000D02*
D03*
X1307500D02*
D03*
Y-605000D02*
D03*
D13*
X2632500Y-180000D02*
D03*
Y-220000D02*
D03*
Y-260000D02*
D03*
Y-300000D02*
D03*
Y-340000D02*
D03*
Y-380000D02*
D03*
Y-420000D02*
D03*
Y-460000D02*
D03*
Y-500000D02*
D03*
Y-540000D02*
D03*
Y-580000D02*
D03*
Y-620000D02*
D03*
Y-660000D02*
D03*
X2672500Y-140000D02*
D03*
Y-180000D02*
D03*
Y-220000D02*
D03*
Y-260000D02*
D03*
Y-300000D02*
D03*
Y-340000D02*
D03*
Y-380000D02*
D03*
Y-420000D02*
D03*
Y-460000D02*
D03*
Y-500000D02*
D03*
Y-540000D02*
D03*
Y-580000D02*
D03*
Y-620000D02*
D03*
Y-660000D02*
D03*
Y-700000D02*
D03*
X2712500Y-100000D02*
D03*
Y-140000D02*
D03*
Y-180000D02*
D03*
Y-220000D02*
D03*
Y-260000D02*
D03*
Y-300000D02*
D03*
Y-340000D02*
D03*
Y-380000D02*
D03*
Y-420000D02*
D03*
Y-460000D02*
D03*
Y-500000D02*
D03*
Y-540000D02*
D03*
Y-580000D02*
D03*
Y-620000D02*
D03*
Y-660000D02*
D03*
Y-700000D02*
D03*
Y-740000D02*
D03*
X2752500Y-60000D02*
D03*
Y-100000D02*
D03*
Y-140000D02*
D03*
Y-180000D02*
D03*
Y-220000D02*
D03*
Y-260000D02*
D03*
Y-300000D02*
D03*
Y-340000D02*
D03*
Y-380000D02*
D03*
Y-420000D02*
D03*
Y-460000D02*
D03*
Y-500000D02*
D03*
Y-540000D02*
D03*
Y-580000D02*
D03*
Y-620000D02*
D03*
Y-660000D02*
D03*
Y-700000D02*
D03*
Y-740000D02*
D03*
Y-780000D02*
D03*
X2792500Y-60000D02*
D03*
Y-100000D02*
D03*
Y-140000D02*
D03*
Y-180000D02*
D03*
Y-220000D02*
D03*
Y-260000D02*
D03*
Y-300000D02*
D03*
Y-340000D02*
D03*
Y-380000D02*
D03*
Y-420000D02*
D03*
Y-460000D02*
D03*
Y-500000D02*
D03*
Y-540000D02*
D03*
Y-580000D02*
D03*
Y-620000D02*
D03*
Y-660000D02*
D03*
Y-700000D02*
D03*
Y-740000D02*
D03*
Y-780000D02*
D03*
X2832500Y-60000D02*
D03*
Y-100000D02*
D03*
Y-140000D02*
D03*
Y-180000D02*
D03*
Y-220000D02*
D03*
Y-260000D02*
D03*
Y-300000D02*
D03*
Y-340000D02*
D03*
Y-380000D02*
D03*
Y-420000D02*
D03*
Y-460000D02*
D03*
Y-500000D02*
D03*
Y-540000D02*
D03*
Y-580000D02*
D03*
Y-620000D02*
D03*
Y-660000D02*
D03*
Y-700000D02*
D03*
Y-740000D02*
D03*
Y-780000D02*
D03*
X2872500Y-60000D02*
D03*
Y-100000D02*
D03*
Y-140000D02*
D03*
Y-180000D02*
D03*
Y-220000D02*
D03*
Y-260000D02*
D03*
Y-300000D02*
D03*
Y-340000D02*
D03*
Y-380000D02*
D03*
Y-420000D02*
D03*
Y-460000D02*
D03*
Y-500000D02*
D03*
Y-540000D02*
D03*
Y-580000D02*
D03*
Y-620000D02*
D03*
Y-660000D02*
D03*
Y-700000D02*
D03*
Y-740000D02*
D03*
Y-780000D02*
D03*
X2912500Y-60000D02*
D03*
Y-100000D02*
D03*
Y-140000D02*
D03*
Y-180000D02*
D03*
Y-220000D02*
D03*
Y-260000D02*
D03*
Y-300000D02*
D03*
Y-340000D02*
D03*
Y-380000D02*
D03*
Y-420000D02*
D03*
Y-460000D02*
D03*
Y-500000D02*
D03*
Y-540000D02*
D03*
Y-580000D02*
D03*
Y-620000D02*
D03*
Y-660000D02*
D03*
Y-700000D02*
D03*
Y-740000D02*
D03*
Y-780000D02*
D03*
X2952500Y-60000D02*
D03*
Y-100000D02*
D03*
Y-140000D02*
D03*
Y-180000D02*
D03*
Y-220000D02*
D03*
Y-260000D02*
D03*
Y-300000D02*
D03*
Y-340000D02*
D03*
Y-380000D02*
D03*
Y-420000D02*
D03*
Y-460000D02*
D03*
Y-500000D02*
D03*
Y-540000D02*
D03*
Y-580000D02*
D03*
Y-620000D02*
D03*
Y-660000D02*
D03*
Y-700000D02*
D03*
Y-740000D02*
D03*
Y-780000D02*
D03*
X2992500Y-60000D02*
D03*
Y-100000D02*
D03*
Y-140000D02*
D03*
Y-180000D02*
D03*
Y-220000D02*
D03*
Y-260000D02*
D03*
Y-300000D02*
D03*
Y-340000D02*
D03*
Y-380000D02*
D03*
Y-420000D02*
D03*
Y-460000D02*
D03*
Y-500000D02*
D03*
Y-540000D02*
D03*
Y-580000D02*
D03*
Y-620000D02*
D03*
Y-660000D02*
D03*
Y-700000D02*
D03*
Y-740000D02*
D03*
Y-780000D02*
D03*
Y-20000D02*
D03*
X2952500D02*
D03*
X2912500D02*
D03*
X2872500D02*
D03*
X2832500D02*
D03*
X2792500D02*
D03*
X2752500D02*
D03*
X2712500Y-60000D02*
D03*
X2672500Y-100000D02*
D03*
X2632500Y-140000D02*
D03*
X2202500D02*
D03*
X2242500Y-100000D02*
D03*
X2282500Y-60000D02*
D03*
X2322500Y-20000D02*
D03*
X2362500D02*
D03*
X2402500D02*
D03*
X2442500D02*
D03*
X2482500D02*
D03*
X2522500D02*
D03*
X2562500D02*
D03*
Y-780000D02*
D03*
Y-740000D02*
D03*
Y-700000D02*
D03*
Y-660000D02*
D03*
Y-620000D02*
D03*
Y-580000D02*
D03*
Y-540000D02*
D03*
Y-500000D02*
D03*
Y-460000D02*
D03*
Y-420000D02*
D03*
Y-380000D02*
D03*
Y-340000D02*
D03*
Y-300000D02*
D03*
Y-260000D02*
D03*
Y-220000D02*
D03*
Y-180000D02*
D03*
Y-140000D02*
D03*
Y-100000D02*
D03*
Y-60000D02*
D03*
X2522500Y-780000D02*
D03*
Y-740000D02*
D03*
Y-700000D02*
D03*
Y-660000D02*
D03*
Y-620000D02*
D03*
Y-580000D02*
D03*
Y-540000D02*
D03*
Y-500000D02*
D03*
Y-460000D02*
D03*
Y-420000D02*
D03*
Y-380000D02*
D03*
Y-340000D02*
D03*
Y-300000D02*
D03*
Y-260000D02*
D03*
Y-220000D02*
D03*
Y-180000D02*
D03*
Y-140000D02*
D03*
Y-100000D02*
D03*
Y-60000D02*
D03*
X2482500Y-780000D02*
D03*
Y-740000D02*
D03*
Y-700000D02*
D03*
Y-660000D02*
D03*
Y-620000D02*
D03*
Y-580000D02*
D03*
Y-540000D02*
D03*
Y-500000D02*
D03*
Y-460000D02*
D03*
Y-420000D02*
D03*
Y-380000D02*
D03*
Y-340000D02*
D03*
Y-300000D02*
D03*
Y-260000D02*
D03*
Y-220000D02*
D03*
Y-180000D02*
D03*
Y-140000D02*
D03*
Y-100000D02*
D03*
Y-60000D02*
D03*
X2442500Y-780000D02*
D03*
Y-740000D02*
D03*
Y-700000D02*
D03*
Y-660000D02*
D03*
Y-620000D02*
D03*
Y-580000D02*
D03*
Y-540000D02*
D03*
Y-500000D02*
D03*
Y-460000D02*
D03*
Y-420000D02*
D03*
Y-380000D02*
D03*
Y-340000D02*
D03*
Y-300000D02*
D03*
Y-260000D02*
D03*
Y-220000D02*
D03*
Y-180000D02*
D03*
Y-140000D02*
D03*
Y-100000D02*
D03*
Y-60000D02*
D03*
X2402500Y-780000D02*
D03*
Y-740000D02*
D03*
Y-700000D02*
D03*
Y-660000D02*
D03*
Y-620000D02*
D03*
Y-580000D02*
D03*
Y-540000D02*
D03*
Y-500000D02*
D03*
Y-460000D02*
D03*
Y-420000D02*
D03*
Y-380000D02*
D03*
Y-340000D02*
D03*
Y-300000D02*
D03*
Y-260000D02*
D03*
Y-220000D02*
D03*
Y-180000D02*
D03*
Y-140000D02*
D03*
Y-100000D02*
D03*
Y-60000D02*
D03*
X2362500Y-780000D02*
D03*
Y-740000D02*
D03*
Y-700000D02*
D03*
Y-660000D02*
D03*
Y-620000D02*
D03*
Y-580000D02*
D03*
Y-540000D02*
D03*
Y-500000D02*
D03*
Y-460000D02*
D03*
Y-420000D02*
D03*
Y-380000D02*
D03*
Y-340000D02*
D03*
Y-300000D02*
D03*
Y-260000D02*
D03*
Y-220000D02*
D03*
Y-180000D02*
D03*
Y-140000D02*
D03*
Y-100000D02*
D03*
Y-60000D02*
D03*
X2322500Y-780000D02*
D03*
Y-740000D02*
D03*
Y-700000D02*
D03*
Y-660000D02*
D03*
Y-620000D02*
D03*
Y-580000D02*
D03*
Y-540000D02*
D03*
Y-500000D02*
D03*
Y-460000D02*
D03*
Y-420000D02*
D03*
Y-380000D02*
D03*
Y-340000D02*
D03*
Y-300000D02*
D03*
Y-260000D02*
D03*
Y-220000D02*
D03*
Y-180000D02*
D03*
Y-140000D02*
D03*
Y-100000D02*
D03*
Y-60000D02*
D03*
X2282500Y-740000D02*
D03*
Y-700000D02*
D03*
Y-660000D02*
D03*
Y-620000D02*
D03*
Y-580000D02*
D03*
Y-540000D02*
D03*
Y-500000D02*
D03*
Y-460000D02*
D03*
Y-420000D02*
D03*
Y-380000D02*
D03*
Y-340000D02*
D03*
Y-300000D02*
D03*
Y-260000D02*
D03*
Y-220000D02*
D03*
Y-180000D02*
D03*
Y-140000D02*
D03*
Y-100000D02*
D03*
X2242500Y-700000D02*
D03*
Y-660000D02*
D03*
Y-620000D02*
D03*
Y-580000D02*
D03*
Y-540000D02*
D03*
Y-500000D02*
D03*
Y-460000D02*
D03*
Y-420000D02*
D03*
Y-380000D02*
D03*
Y-340000D02*
D03*
Y-300000D02*
D03*
Y-260000D02*
D03*
Y-220000D02*
D03*
Y-180000D02*
D03*
Y-140000D02*
D03*
X2202500Y-660000D02*
D03*
Y-620000D02*
D03*
Y-580000D02*
D03*
Y-540000D02*
D03*
Y-500000D02*
D03*
Y-460000D02*
D03*
Y-420000D02*
D03*
Y-380000D02*
D03*
Y-340000D02*
D03*
Y-300000D02*
D03*
Y-260000D02*
D03*
Y-220000D02*
D03*
Y-180000D02*
D03*
X1772500D02*
D03*
Y-220000D02*
D03*
Y-260000D02*
D03*
Y-300000D02*
D03*
Y-340000D02*
D03*
Y-380000D02*
D03*
Y-420000D02*
D03*
Y-460000D02*
D03*
Y-500000D02*
D03*
Y-540000D02*
D03*
Y-580000D02*
D03*
Y-620000D02*
D03*
Y-660000D02*
D03*
X1812500Y-140000D02*
D03*
Y-180000D02*
D03*
Y-220000D02*
D03*
Y-260000D02*
D03*
Y-300000D02*
D03*
Y-340000D02*
D03*
Y-380000D02*
D03*
Y-420000D02*
D03*
Y-460000D02*
D03*
Y-500000D02*
D03*
Y-540000D02*
D03*
Y-580000D02*
D03*
Y-620000D02*
D03*
Y-660000D02*
D03*
Y-700000D02*
D03*
X1852500Y-100000D02*
D03*
Y-140000D02*
D03*
Y-180000D02*
D03*
Y-220000D02*
D03*
Y-260000D02*
D03*
Y-300000D02*
D03*
Y-340000D02*
D03*
Y-380000D02*
D03*
Y-420000D02*
D03*
Y-460000D02*
D03*
Y-500000D02*
D03*
Y-540000D02*
D03*
Y-580000D02*
D03*
Y-620000D02*
D03*
Y-660000D02*
D03*
Y-700000D02*
D03*
Y-740000D02*
D03*
X1892500Y-60000D02*
D03*
Y-100000D02*
D03*
Y-140000D02*
D03*
Y-180000D02*
D03*
Y-220000D02*
D03*
Y-260000D02*
D03*
Y-300000D02*
D03*
Y-340000D02*
D03*
Y-380000D02*
D03*
Y-420000D02*
D03*
Y-460000D02*
D03*
Y-500000D02*
D03*
Y-540000D02*
D03*
Y-580000D02*
D03*
Y-620000D02*
D03*
Y-660000D02*
D03*
Y-700000D02*
D03*
Y-740000D02*
D03*
Y-780000D02*
D03*
X1932500Y-60000D02*
D03*
Y-100000D02*
D03*
Y-140000D02*
D03*
Y-180000D02*
D03*
Y-220000D02*
D03*
Y-260000D02*
D03*
Y-300000D02*
D03*
Y-340000D02*
D03*
Y-380000D02*
D03*
Y-420000D02*
D03*
Y-460000D02*
D03*
Y-500000D02*
D03*
Y-540000D02*
D03*
Y-580000D02*
D03*
Y-620000D02*
D03*
Y-660000D02*
D03*
Y-700000D02*
D03*
Y-740000D02*
D03*
Y-780000D02*
D03*
X1972500Y-60000D02*
D03*
Y-100000D02*
D03*
Y-140000D02*
D03*
Y-180000D02*
D03*
Y-220000D02*
D03*
Y-260000D02*
D03*
Y-300000D02*
D03*
Y-340000D02*
D03*
Y-380000D02*
D03*
Y-420000D02*
D03*
Y-460000D02*
D03*
Y-500000D02*
D03*
Y-540000D02*
D03*
Y-580000D02*
D03*
Y-620000D02*
D03*
Y-660000D02*
D03*
Y-700000D02*
D03*
Y-740000D02*
D03*
Y-780000D02*
D03*
X2012500Y-60000D02*
D03*
Y-100000D02*
D03*
Y-140000D02*
D03*
Y-180000D02*
D03*
Y-220000D02*
D03*
Y-260000D02*
D03*
Y-300000D02*
D03*
Y-340000D02*
D03*
Y-380000D02*
D03*
Y-420000D02*
D03*
Y-460000D02*
D03*
Y-500000D02*
D03*
Y-540000D02*
D03*
Y-580000D02*
D03*
Y-620000D02*
D03*
Y-660000D02*
D03*
Y-700000D02*
D03*
Y-740000D02*
D03*
Y-780000D02*
D03*
X2052500Y-60000D02*
D03*
Y-100000D02*
D03*
Y-140000D02*
D03*
Y-180000D02*
D03*
Y-220000D02*
D03*
Y-260000D02*
D03*
Y-300000D02*
D03*
Y-340000D02*
D03*
Y-380000D02*
D03*
Y-420000D02*
D03*
Y-460000D02*
D03*
Y-500000D02*
D03*
Y-540000D02*
D03*
Y-580000D02*
D03*
Y-620000D02*
D03*
Y-660000D02*
D03*
Y-700000D02*
D03*
Y-740000D02*
D03*
Y-780000D02*
D03*
X2092500Y-60000D02*
D03*
Y-100000D02*
D03*
Y-140000D02*
D03*
Y-180000D02*
D03*
Y-220000D02*
D03*
Y-260000D02*
D03*
Y-300000D02*
D03*
Y-340000D02*
D03*
Y-380000D02*
D03*
Y-420000D02*
D03*
Y-460000D02*
D03*
Y-500000D02*
D03*
Y-540000D02*
D03*
Y-580000D02*
D03*
Y-620000D02*
D03*
Y-660000D02*
D03*
Y-700000D02*
D03*
Y-740000D02*
D03*
Y-780000D02*
D03*
X2132500Y-60000D02*
D03*
Y-100000D02*
D03*
Y-140000D02*
D03*
Y-180000D02*
D03*
Y-220000D02*
D03*
Y-260000D02*
D03*
Y-300000D02*
D03*
Y-340000D02*
D03*
Y-380000D02*
D03*
Y-420000D02*
D03*
Y-460000D02*
D03*
Y-500000D02*
D03*
Y-540000D02*
D03*
Y-580000D02*
D03*
Y-620000D02*
D03*
Y-660000D02*
D03*
Y-700000D02*
D03*
Y-740000D02*
D03*
Y-780000D02*
D03*
Y-20000D02*
D03*
X2092500D02*
D03*
X2052500D02*
D03*
X2012500D02*
D03*
X1972500D02*
D03*
X1932500D02*
D03*
X1892500D02*
D03*
X1852500Y-60000D02*
D03*
X1812500Y-100000D02*
D03*
X1772500Y-140000D02*
D03*
X550000Y-660000D02*
D03*
X510000Y-700000D02*
D03*
X470000Y-740000D02*
D03*
X430000Y-780000D02*
D03*
X390000D02*
D03*
X350000D02*
D03*
X310000D02*
D03*
X270000D02*
D03*
X230000D02*
D03*
X190000D02*
D03*
Y-20000D02*
D03*
Y-60000D02*
D03*
Y-100000D02*
D03*
Y-140000D02*
D03*
Y-180000D02*
D03*
Y-220000D02*
D03*
Y-260000D02*
D03*
Y-300000D02*
D03*
Y-340000D02*
D03*
Y-380000D02*
D03*
Y-420000D02*
D03*
Y-460000D02*
D03*
Y-500000D02*
D03*
Y-540000D02*
D03*
Y-580000D02*
D03*
Y-620000D02*
D03*
Y-660000D02*
D03*
Y-700000D02*
D03*
Y-740000D02*
D03*
X230000Y-20000D02*
D03*
Y-60000D02*
D03*
Y-100000D02*
D03*
Y-140000D02*
D03*
Y-180000D02*
D03*
Y-220000D02*
D03*
Y-260000D02*
D03*
Y-300000D02*
D03*
Y-340000D02*
D03*
Y-380000D02*
D03*
Y-420000D02*
D03*
Y-460000D02*
D03*
Y-500000D02*
D03*
Y-540000D02*
D03*
Y-580000D02*
D03*
Y-620000D02*
D03*
Y-660000D02*
D03*
Y-700000D02*
D03*
Y-740000D02*
D03*
X270000Y-20000D02*
D03*
Y-60000D02*
D03*
Y-100000D02*
D03*
Y-140000D02*
D03*
Y-180000D02*
D03*
Y-220000D02*
D03*
Y-260000D02*
D03*
Y-300000D02*
D03*
Y-340000D02*
D03*
Y-380000D02*
D03*
Y-420000D02*
D03*
Y-460000D02*
D03*
Y-500000D02*
D03*
Y-540000D02*
D03*
Y-580000D02*
D03*
Y-620000D02*
D03*
Y-660000D02*
D03*
Y-700000D02*
D03*
Y-740000D02*
D03*
X310000Y-20000D02*
D03*
Y-60000D02*
D03*
Y-100000D02*
D03*
Y-140000D02*
D03*
Y-180000D02*
D03*
Y-220000D02*
D03*
Y-260000D02*
D03*
Y-300000D02*
D03*
Y-340000D02*
D03*
Y-380000D02*
D03*
Y-420000D02*
D03*
Y-460000D02*
D03*
Y-500000D02*
D03*
Y-540000D02*
D03*
Y-580000D02*
D03*
Y-620000D02*
D03*
Y-660000D02*
D03*
Y-700000D02*
D03*
Y-740000D02*
D03*
X350000Y-20000D02*
D03*
Y-60000D02*
D03*
Y-100000D02*
D03*
Y-140000D02*
D03*
Y-180000D02*
D03*
Y-220000D02*
D03*
Y-260000D02*
D03*
Y-300000D02*
D03*
Y-340000D02*
D03*
Y-380000D02*
D03*
Y-420000D02*
D03*
Y-460000D02*
D03*
Y-500000D02*
D03*
Y-540000D02*
D03*
Y-580000D02*
D03*
Y-620000D02*
D03*
Y-660000D02*
D03*
Y-700000D02*
D03*
Y-740000D02*
D03*
X390000Y-20000D02*
D03*
Y-60000D02*
D03*
Y-100000D02*
D03*
Y-140000D02*
D03*
Y-180000D02*
D03*
Y-220000D02*
D03*
Y-260000D02*
D03*
Y-300000D02*
D03*
Y-340000D02*
D03*
Y-380000D02*
D03*
Y-420000D02*
D03*
Y-460000D02*
D03*
Y-500000D02*
D03*
Y-540000D02*
D03*
Y-580000D02*
D03*
Y-620000D02*
D03*
Y-660000D02*
D03*
Y-700000D02*
D03*
Y-740000D02*
D03*
X430000Y-20000D02*
D03*
Y-60000D02*
D03*
Y-100000D02*
D03*
Y-140000D02*
D03*
Y-180000D02*
D03*
Y-220000D02*
D03*
Y-260000D02*
D03*
Y-300000D02*
D03*
Y-340000D02*
D03*
Y-380000D02*
D03*
Y-420000D02*
D03*
Y-460000D02*
D03*
Y-500000D02*
D03*
Y-540000D02*
D03*
Y-580000D02*
D03*
Y-620000D02*
D03*
Y-660000D02*
D03*
Y-700000D02*
D03*
Y-740000D02*
D03*
X470000Y-60000D02*
D03*
Y-100000D02*
D03*
Y-140000D02*
D03*
Y-180000D02*
D03*
Y-220000D02*
D03*
Y-260000D02*
D03*
Y-300000D02*
D03*
Y-340000D02*
D03*
Y-380000D02*
D03*
Y-420000D02*
D03*
Y-460000D02*
D03*
Y-500000D02*
D03*
Y-540000D02*
D03*
Y-580000D02*
D03*
Y-620000D02*
D03*
Y-660000D02*
D03*
Y-700000D02*
D03*
X510000Y-100000D02*
D03*
Y-140000D02*
D03*
Y-180000D02*
D03*
Y-220000D02*
D03*
Y-260000D02*
D03*
Y-300000D02*
D03*
Y-340000D02*
D03*
Y-380000D02*
D03*
Y-420000D02*
D03*
Y-460000D02*
D03*
Y-500000D02*
D03*
Y-540000D02*
D03*
Y-580000D02*
D03*
Y-620000D02*
D03*
Y-660000D02*
D03*
X550000Y-140000D02*
D03*
Y-180000D02*
D03*
Y-220000D02*
D03*
Y-260000D02*
D03*
Y-300000D02*
D03*
Y-340000D02*
D03*
Y-380000D02*
D03*
Y-420000D02*
D03*
Y-460000D02*
D03*
Y-500000D02*
D03*
Y-540000D02*
D03*
Y-580000D02*
D03*
Y-620000D02*
D03*
X980000D02*
D03*
Y-580000D02*
D03*
Y-540000D02*
D03*
Y-500000D02*
D03*
Y-460000D02*
D03*
Y-420000D02*
D03*
Y-380000D02*
D03*
Y-340000D02*
D03*
Y-300000D02*
D03*
Y-260000D02*
D03*
Y-220000D02*
D03*
Y-180000D02*
D03*
Y-140000D02*
D03*
X940000Y-660000D02*
D03*
Y-620000D02*
D03*
Y-580000D02*
D03*
Y-540000D02*
D03*
Y-500000D02*
D03*
Y-460000D02*
D03*
Y-420000D02*
D03*
Y-380000D02*
D03*
Y-340000D02*
D03*
Y-300000D02*
D03*
Y-260000D02*
D03*
Y-220000D02*
D03*
Y-180000D02*
D03*
Y-140000D02*
D03*
Y-100000D02*
D03*
X900000Y-700000D02*
D03*
Y-660000D02*
D03*
Y-620000D02*
D03*
Y-580000D02*
D03*
Y-540000D02*
D03*
Y-500000D02*
D03*
Y-460000D02*
D03*
Y-420000D02*
D03*
Y-380000D02*
D03*
Y-340000D02*
D03*
Y-300000D02*
D03*
Y-260000D02*
D03*
Y-220000D02*
D03*
Y-180000D02*
D03*
Y-140000D02*
D03*
Y-100000D02*
D03*
Y-60000D02*
D03*
X860000Y-740000D02*
D03*
Y-700000D02*
D03*
Y-660000D02*
D03*
Y-620000D02*
D03*
Y-580000D02*
D03*
Y-540000D02*
D03*
Y-500000D02*
D03*
Y-460000D02*
D03*
Y-420000D02*
D03*
Y-380000D02*
D03*
Y-340000D02*
D03*
Y-300000D02*
D03*
Y-260000D02*
D03*
Y-220000D02*
D03*
Y-180000D02*
D03*
Y-140000D02*
D03*
Y-100000D02*
D03*
Y-60000D02*
D03*
Y-20000D02*
D03*
X820000Y-740000D02*
D03*
Y-700000D02*
D03*
Y-660000D02*
D03*
Y-620000D02*
D03*
Y-580000D02*
D03*
Y-540000D02*
D03*
Y-500000D02*
D03*
Y-460000D02*
D03*
Y-420000D02*
D03*
Y-380000D02*
D03*
Y-340000D02*
D03*
Y-300000D02*
D03*
Y-260000D02*
D03*
Y-220000D02*
D03*
Y-180000D02*
D03*
Y-140000D02*
D03*
Y-100000D02*
D03*
Y-60000D02*
D03*
Y-20000D02*
D03*
X780000Y-740000D02*
D03*
Y-700000D02*
D03*
Y-660000D02*
D03*
Y-620000D02*
D03*
Y-580000D02*
D03*
Y-540000D02*
D03*
Y-500000D02*
D03*
Y-460000D02*
D03*
Y-420000D02*
D03*
Y-380000D02*
D03*
Y-340000D02*
D03*
Y-300000D02*
D03*
Y-260000D02*
D03*
Y-220000D02*
D03*
Y-180000D02*
D03*
Y-140000D02*
D03*
Y-100000D02*
D03*
Y-60000D02*
D03*
Y-20000D02*
D03*
X740000Y-740000D02*
D03*
Y-700000D02*
D03*
Y-660000D02*
D03*
Y-620000D02*
D03*
Y-580000D02*
D03*
Y-540000D02*
D03*
Y-500000D02*
D03*
Y-460000D02*
D03*
Y-420000D02*
D03*
Y-380000D02*
D03*
Y-340000D02*
D03*
Y-300000D02*
D03*
Y-260000D02*
D03*
Y-220000D02*
D03*
Y-180000D02*
D03*
Y-140000D02*
D03*
Y-100000D02*
D03*
Y-60000D02*
D03*
Y-20000D02*
D03*
X700000Y-740000D02*
D03*
Y-700000D02*
D03*
Y-660000D02*
D03*
Y-620000D02*
D03*
Y-580000D02*
D03*
Y-540000D02*
D03*
Y-500000D02*
D03*
Y-460000D02*
D03*
Y-420000D02*
D03*
Y-380000D02*
D03*
Y-340000D02*
D03*
Y-300000D02*
D03*
Y-260000D02*
D03*
Y-220000D02*
D03*
Y-180000D02*
D03*
Y-140000D02*
D03*
Y-100000D02*
D03*
Y-60000D02*
D03*
Y-20000D02*
D03*
X660000Y-740000D02*
D03*
Y-700000D02*
D03*
Y-660000D02*
D03*
Y-620000D02*
D03*
Y-580000D02*
D03*
Y-540000D02*
D03*
Y-500000D02*
D03*
Y-460000D02*
D03*
Y-420000D02*
D03*
Y-380000D02*
D03*
Y-340000D02*
D03*
Y-300000D02*
D03*
Y-260000D02*
D03*
Y-220000D02*
D03*
Y-180000D02*
D03*
Y-140000D02*
D03*
Y-100000D02*
D03*
Y-60000D02*
D03*
Y-20000D02*
D03*
X620000Y-740000D02*
D03*
Y-700000D02*
D03*
Y-660000D02*
D03*
Y-620000D02*
D03*
Y-580000D02*
D03*
Y-540000D02*
D03*
Y-500000D02*
D03*
Y-460000D02*
D03*
Y-420000D02*
D03*
Y-380000D02*
D03*
Y-340000D02*
D03*
Y-300000D02*
D03*
Y-260000D02*
D03*
Y-220000D02*
D03*
Y-180000D02*
D03*
Y-140000D02*
D03*
Y-100000D02*
D03*
Y-60000D02*
D03*
Y-20000D02*
D03*
Y-780000D02*
D03*
X660000D02*
D03*
X700000D02*
D03*
X740000D02*
D03*
X780000D02*
D03*
X820000D02*
D03*
X860000D02*
D03*
X900000Y-740000D02*
D03*
X940000Y-700000D02*
D03*
X980000Y-660000D02*
D03*
X1702500D02*
D03*
X1662500Y-700000D02*
D03*
X1622500Y-740000D02*
D03*
X1582500Y-780000D02*
D03*
X1542500D02*
D03*
X1502500D02*
D03*
X1462500D02*
D03*
X1422500D02*
D03*
X1382500D02*
D03*
X1342500D02*
D03*
Y-20000D02*
D03*
Y-60000D02*
D03*
Y-100000D02*
D03*
Y-140000D02*
D03*
Y-180000D02*
D03*
Y-220000D02*
D03*
Y-260000D02*
D03*
Y-300000D02*
D03*
Y-340000D02*
D03*
Y-380000D02*
D03*
Y-420000D02*
D03*
Y-460000D02*
D03*
Y-500000D02*
D03*
Y-540000D02*
D03*
Y-580000D02*
D03*
Y-620000D02*
D03*
Y-660000D02*
D03*
Y-700000D02*
D03*
Y-740000D02*
D03*
X1382500Y-20000D02*
D03*
Y-60000D02*
D03*
Y-100000D02*
D03*
Y-140000D02*
D03*
Y-180000D02*
D03*
Y-220000D02*
D03*
Y-260000D02*
D03*
Y-300000D02*
D03*
Y-340000D02*
D03*
Y-380000D02*
D03*
Y-420000D02*
D03*
Y-460000D02*
D03*
Y-500000D02*
D03*
Y-540000D02*
D03*
Y-580000D02*
D03*
Y-620000D02*
D03*
Y-660000D02*
D03*
Y-700000D02*
D03*
Y-740000D02*
D03*
X1422500Y-20000D02*
D03*
Y-60000D02*
D03*
Y-100000D02*
D03*
Y-140000D02*
D03*
Y-180000D02*
D03*
Y-220000D02*
D03*
Y-260000D02*
D03*
Y-300000D02*
D03*
Y-340000D02*
D03*
Y-380000D02*
D03*
Y-420000D02*
D03*
Y-460000D02*
D03*
Y-500000D02*
D03*
Y-540000D02*
D03*
Y-580000D02*
D03*
Y-620000D02*
D03*
Y-660000D02*
D03*
Y-700000D02*
D03*
Y-740000D02*
D03*
X1462500Y-20000D02*
D03*
Y-60000D02*
D03*
Y-100000D02*
D03*
Y-140000D02*
D03*
Y-180000D02*
D03*
Y-220000D02*
D03*
Y-260000D02*
D03*
Y-300000D02*
D03*
Y-340000D02*
D03*
Y-380000D02*
D03*
Y-420000D02*
D03*
Y-460000D02*
D03*
Y-500000D02*
D03*
Y-540000D02*
D03*
Y-580000D02*
D03*
Y-620000D02*
D03*
Y-660000D02*
D03*
Y-700000D02*
D03*
Y-740000D02*
D03*
X1502500Y-20000D02*
D03*
Y-60000D02*
D03*
Y-100000D02*
D03*
Y-140000D02*
D03*
Y-180000D02*
D03*
Y-220000D02*
D03*
Y-260000D02*
D03*
Y-300000D02*
D03*
Y-340000D02*
D03*
Y-380000D02*
D03*
Y-420000D02*
D03*
Y-460000D02*
D03*
Y-500000D02*
D03*
Y-540000D02*
D03*
Y-580000D02*
D03*
Y-620000D02*
D03*
Y-660000D02*
D03*
Y-700000D02*
D03*
Y-740000D02*
D03*
X1542500Y-20000D02*
D03*
Y-60000D02*
D03*
Y-100000D02*
D03*
Y-140000D02*
D03*
Y-180000D02*
D03*
Y-220000D02*
D03*
Y-260000D02*
D03*
Y-300000D02*
D03*
Y-340000D02*
D03*
Y-380000D02*
D03*
Y-420000D02*
D03*
Y-460000D02*
D03*
Y-500000D02*
D03*
Y-540000D02*
D03*
Y-580000D02*
D03*
Y-620000D02*
D03*
Y-660000D02*
D03*
Y-700000D02*
D03*
Y-740000D02*
D03*
X1582500Y-20000D02*
D03*
Y-60000D02*
D03*
Y-100000D02*
D03*
Y-140000D02*
D03*
Y-180000D02*
D03*
Y-220000D02*
D03*
Y-260000D02*
D03*
Y-300000D02*
D03*
Y-340000D02*
D03*
Y-380000D02*
D03*
Y-420000D02*
D03*
Y-460000D02*
D03*
Y-500000D02*
D03*
Y-540000D02*
D03*
Y-580000D02*
D03*
Y-620000D02*
D03*
Y-660000D02*
D03*
Y-700000D02*
D03*
Y-740000D02*
D03*
X1622500Y-60000D02*
D03*
Y-100000D02*
D03*
Y-140000D02*
D03*
Y-180000D02*
D03*
Y-220000D02*
D03*
Y-260000D02*
D03*
Y-300000D02*
D03*
Y-340000D02*
D03*
Y-380000D02*
D03*
Y-420000D02*
D03*
Y-460000D02*
D03*
Y-500000D02*
D03*
Y-540000D02*
D03*
Y-580000D02*
D03*
Y-620000D02*
D03*
Y-660000D02*
D03*
Y-700000D02*
D03*
X1662500Y-100000D02*
D03*
Y-140000D02*
D03*
Y-180000D02*
D03*
Y-220000D02*
D03*
Y-260000D02*
D03*
Y-300000D02*
D03*
Y-340000D02*
D03*
Y-380000D02*
D03*
Y-420000D02*
D03*
Y-460000D02*
D03*
Y-500000D02*
D03*
Y-540000D02*
D03*
Y-580000D02*
D03*
Y-620000D02*
D03*
Y-660000D02*
D03*
X1702500Y-140000D02*
D03*
Y-180000D02*
D03*
Y-220000D02*
D03*
Y-260000D02*
D03*
Y-300000D02*
D03*
Y-340000D02*
D03*
Y-380000D02*
D03*
Y-420000D02*
D03*
Y-460000D02*
D03*
Y-500000D02*
D03*
Y-540000D02*
D03*
Y-580000D02*
D03*
Y-620000D02*
D03*
D14*
X352500Y-1000000D02*
X357500D01*
X1014460Y-485000D02*
X1035000D01*
X1015000Y-525000D02*
X1036040D01*
D15*
X3027500Y-605000D02*
Y-195000D01*
X2597500Y-605000D02*
Y-195000D01*
X2167500Y-605000D02*
Y-195000D01*
X550020Y-580000D02*
Y-580000D01*
X550000Y-180000D02*
Y-180000D01*
X1662500Y-620000D02*
X1812500Y-620000D01*
X1662500Y-580000D02*
X1812500Y-580000D01*
X1662500Y-180000D02*
X1812500Y-180000D01*
X1662500Y-220000D02*
X1812500Y-220000D01*
X1662500Y-420000D02*
X1812500D01*
X1662500Y-380000D02*
X1812500D01*
X2170000Y-620000D02*
X2242500D01*
X2167500Y-580000D02*
X2242500Y-580000D01*
X2167500Y-420000D02*
X2242500D01*
X2167500Y-380000D02*
X2242500D01*
X2167500Y-180000D02*
X2242500Y-180000D01*
X2170000Y-220000D02*
X2242500D01*
X2600000Y-180000D02*
X2672500Y-180000D01*
X2602500Y-220000D02*
X2672500D01*
X2600000Y-617500D02*
X2672500Y-620000D01*
X2597500Y-580000D02*
X2672500Y-580000D01*
X2600000Y-420000D02*
X2672500D01*
X2597500Y-380000D02*
X2672500D01*
X1342500Y-660000D02*
X1382500D01*
X1307500Y-700000D02*
X1382500D01*
X1307500D02*
Y-660000D01*
Y-740000D02*
X1382500D01*
X1307500D02*
Y-700000D01*
X1132500Y-660000D02*
X1347500D01*
X585000Y-605000D02*
Y-195000D01*
X155000Y-605000D02*
Y-195000D01*
Y-815000D02*
Y-605000D01*
X1307500D02*
Y-237500D01*
Y-195000D01*
X937500Y-220000D02*
X1017500D01*
X940000Y-180000D02*
X1017500D01*
X510000D02*
X585000D01*
X510000Y-220000D02*
Y-220000D01*
Y-220000D02*
Y-220000D01*
X582500D01*
X510000Y-620000D02*
Y-620000D01*
Y-620000D02*
X582500D01*
X510000Y-580000D02*
X582500D01*
X510000Y-420000D02*
X580000D01*
X510000Y-380000D02*
X582500D01*
X1107498Y-660000D02*
X1107500D01*
Y-682500D02*
Y-660000D01*
X940000Y-260000D02*
X980000D01*
Y-180000D01*
X1017500Y-220000D02*
Y-180000D01*
Y-220000D02*
X1025000Y-227500D01*
X1312500D01*
X155000Y-815000D02*
X3027500D01*
Y-605000D01*
X1107500Y-682500D02*
X1285000D01*
Y-812500D02*
Y-682500D01*
D16*
X560000Y-52500D02*
D03*
Y-772500D02*
D03*
X3070000Y-562500D02*
D03*
Y-262500D02*
D03*
X2210000Y-52500D02*
D03*
Y-772500D02*
D03*
X1230000Y-272500D02*
D03*
Y-552500D02*
D03*
X110000Y-52500D02*
D03*
Y-772500D02*
D03*
D17*
X112500Y-287500D02*
D03*
Y-312500D02*
D03*
Y-337500D02*
D03*
Y-362500D02*
D03*
Y-387500D02*
D03*
X1125000Y-195000D02*
D03*
X1062500Y-207500D02*
D03*
X1075000Y-195000D02*
D03*
X1087500Y-207500D02*
D03*
X1100000Y-195000D02*
D03*
X1112500Y-207500D02*
D03*
X1032260Y-484760D02*
D03*
X1032760Y-524760D02*
D03*
D18*
X1132500Y-660000D02*
D03*
X1107500D02*
D03*
M02*
