%FSLAX44Y44*%
%MOMM*%
G71*
G01*
G75*
G04 Layer_Physical_Order=5*
G04 Layer_Color=16737945*
%ADD10R,1.5000X4.4000*%
%ADD11R,1.5000X1.5000*%
%ADD12R,1.5000X5.6000*%
%ADD13R,2.0000X2.0000*%
%ADD14C,0.2000*%
%ADD15C,1.5000*%
%ADD16C,6.5000*%
%ADD17C,1.3000*%
%ADD18C,2.0000*%
%ADD19C,0.3500*%
G36*
X150442Y-1215D02*
X149407Y-1907D01*
X148459Y-3326D01*
X148126Y-5000D01*
Y-357612D01*
X147500Y-358126D01*
X120473D01*
X120396Y-357941D01*
X118947Y-356053D01*
X117059Y-354604D01*
X114860Y-353693D01*
X112500Y-353382D01*
X110140Y-353693D01*
X107941Y-354604D01*
X106053Y-356053D01*
X104604Y-357941D01*
X103693Y-360140D01*
X103382Y-362500D01*
X103693Y-364860D01*
X104604Y-367059D01*
X106053Y-368947D01*
X107941Y-370396D01*
X110140Y-371307D01*
X112500Y-371618D01*
X114860Y-371307D01*
X117059Y-370396D01*
X118947Y-368947D01*
X120396Y-367059D01*
X120473Y-366874D01*
X143126D01*
Y-820000D01*
X143459Y-821674D01*
X144407Y-823093D01*
X145442Y-823785D01*
X145074Y-825000D01*
X0D01*
Y-712500D01*
X24600D01*
Y-712623D01*
X29579Y-712132D01*
X34367Y-710680D01*
X38780Y-708322D01*
X42647Y-705147D01*
X45821Y-701280D01*
X48180Y-696867D01*
X49633Y-692079D01*
X50123Y-687100D01*
X50000Y-132597D01*
X50097Y-132500D01*
X50097D01*
X49711Y-128579D01*
X48567Y-124809D01*
X46710Y-121335D01*
X44211Y-118289D01*
X41165Y-115790D01*
X37691Y-113933D01*
X33921Y-112789D01*
X30000Y-112403D01*
X900Y-112497D01*
X0Y-111601D01*
Y-110000D01*
Y0D01*
X150074D01*
X150442Y-1215D01*
D02*
G37*
G36*
X3100000Y-825000D02*
X3034926D01*
X3034557Y-823785D01*
X3035593Y-823093D01*
X3036541Y-821674D01*
X3036874Y-820000D01*
X3036874Y-820000D01*
X3036874Y-820000D01*
Y-820000D01*
Y-5000D01*
X3036541Y-3326D01*
X3035593Y-1907D01*
X3034557Y-1215D01*
X3034926Y0D01*
X3100000D01*
Y-825000D01*
D02*
G37*
G36*
X1083126Y-150000D02*
Y-188765D01*
X1081923Y-189173D01*
X1081447Y-188553D01*
X1079559Y-187104D01*
X1077360Y-186193D01*
X1075000Y-185882D01*
X1072640Y-186193D01*
X1070441Y-187104D01*
X1068553Y-188553D01*
X1067104Y-190441D01*
X1066193Y-192640D01*
X1065882Y-195000D01*
X1066193Y-197360D01*
X1066500Y-198102D01*
X1065602Y-199000D01*
X1064860Y-198693D01*
X1062500Y-198382D01*
X1060140Y-198693D01*
X1057941Y-199604D01*
X1056053Y-201053D01*
X1054604Y-202941D01*
X1053693Y-205140D01*
X1053382Y-207500D01*
X1053693Y-209860D01*
X1054604Y-212059D01*
X1056053Y-213947D01*
X1057941Y-215396D01*
X1060140Y-216307D01*
X1062500Y-216618D01*
X1064860Y-216307D01*
X1067059Y-215396D01*
X1068947Y-213947D01*
X1070396Y-212059D01*
X1071307Y-209860D01*
X1071618Y-207500D01*
X1071307Y-205140D01*
X1071000Y-204398D01*
X1071898Y-203500D01*
X1072640Y-203807D01*
X1075000Y-204118D01*
X1077360Y-203807D01*
X1078102Y-203500D01*
X1079000Y-204398D01*
X1078693Y-205140D01*
X1078382Y-207500D01*
X1078693Y-209860D01*
X1079604Y-212059D01*
X1081053Y-213947D01*
X1082941Y-215396D01*
X1085140Y-216307D01*
X1087500Y-216618D01*
X1089860Y-216307D01*
X1092059Y-215396D01*
X1093947Y-213947D01*
X1095396Y-212059D01*
X1096307Y-209860D01*
X1096618Y-207500D01*
X1096307Y-205140D01*
X1096000Y-204398D01*
X1096898Y-203500D01*
X1097640Y-203807D01*
X1100000Y-204118D01*
X1102360Y-203807D01*
X1103102Y-203500D01*
X1104000Y-204398D01*
X1103693Y-205140D01*
X1103382Y-207500D01*
X1103693Y-209860D01*
X1104604Y-212059D01*
X1106053Y-213947D01*
X1107941Y-215396D01*
X1110140Y-216307D01*
X1112500Y-216618D01*
X1114860Y-216307D01*
X1117059Y-215396D01*
X1118947Y-213947D01*
X1120396Y-212059D01*
X1121307Y-209860D01*
X1121618Y-207500D01*
X1121307Y-205140D01*
X1121000Y-204398D01*
X1121898Y-203500D01*
X1122640Y-203807D01*
X1125000Y-204118D01*
X1127360Y-203807D01*
X1129559Y-202896D01*
X1131447Y-201447D01*
X1132896Y-199559D01*
X1133807Y-197360D01*
X1134118Y-195000D01*
X1133807Y-192640D01*
X1132896Y-190441D01*
X1131447Y-188553D01*
X1129559Y-187104D01*
X1127360Y-186193D01*
X1125000Y-185882D01*
X1122640Y-186193D01*
X1120441Y-187104D01*
X1118553Y-188553D01*
X1117104Y-190441D01*
X1116193Y-192640D01*
X1115882Y-195000D01*
X1116193Y-197360D01*
X1116500Y-198102D01*
X1115602Y-199000D01*
X1114860Y-198693D01*
X1112500Y-198382D01*
X1110140Y-198693D01*
X1109398Y-199000D01*
X1108500Y-198102D01*
X1108807Y-197360D01*
X1109118Y-195000D01*
X1108807Y-192640D01*
X1107896Y-190441D01*
X1106447Y-188553D01*
X1104559Y-187104D01*
X1102360Y-186193D01*
X1100000Y-185882D01*
X1097640Y-186193D01*
X1095441Y-187104D01*
X1093553Y-188553D01*
X1093077Y-189173D01*
X1091874Y-188765D01*
Y-154374D01*
X2038130D01*
Y-220000D01*
X2038130Y-220000D01*
X2038130D01*
X2038463Y-221674D01*
X2039411Y-223093D01*
X2040831Y-224041D01*
X2042504Y-224374D01*
X2377500D01*
X2379174Y-224041D01*
X2380593Y-223093D01*
X2381541Y-221674D01*
X2381874Y-220000D01*
Y-154374D01*
X2883126D01*
Y-670626D01*
X2381879D01*
Y-606250D01*
X2381546Y-604576D01*
X2380597Y-603157D01*
X2379178Y-602209D01*
X2377504Y-601876D01*
X2042500D01*
X2040826Y-602209D01*
X2039407Y-603157D01*
X2038459Y-604576D01*
X2038126Y-606250D01*
Y-670626D01*
X1141227D01*
X1140818Y-669423D01*
X1141444Y-668944D01*
X1143454Y-666324D01*
X1144717Y-663274D01*
X1145148Y-660000D01*
X1144717Y-656726D01*
X1143454Y-653676D01*
X1141444Y-651056D01*
X1138824Y-649046D01*
X1135774Y-647783D01*
X1132500Y-647352D01*
X1129226Y-647783D01*
X1126176Y-649046D01*
X1123556Y-651056D01*
X1121546Y-653676D01*
X1120635Y-655876D01*
X1119365D01*
X1118454Y-653676D01*
X1116444Y-651056D01*
X1113824Y-649046D01*
X1110774Y-647783D01*
X1107500Y-647352D01*
X1104226Y-647783D01*
X1101176Y-649046D01*
X1098556Y-651056D01*
X1096546Y-653676D01*
X1095283Y-656726D01*
X1094852Y-660000D01*
X1095283Y-663274D01*
X1096546Y-666324D01*
X1098556Y-668944D01*
X1099182Y-669423D01*
X1098773Y-670626D01*
X731874D01*
Y-605000D01*
X731541Y-603326D01*
X730593Y-601907D01*
X729174Y-600959D01*
X727500Y-600626D01*
X392500D01*
X390826Y-600959D01*
X389407Y-601907D01*
X388459Y-603326D01*
X388126Y-605000D01*
Y-670626D01*
X296874D01*
Y-149374D01*
X393127D01*
Y-215000D01*
X393127Y-215000D01*
X393127D01*
X393460Y-216674D01*
X394408Y-218093D01*
X395827Y-219041D01*
X397501Y-219374D01*
X720000D01*
X721674Y-219041D01*
X723093Y-218093D01*
X724041Y-216674D01*
X724374Y-215000D01*
Y-149374D01*
X1082612D01*
X1083126Y-150000D01*
D02*
G37*
%LPC*%
G36*
X1032260Y-475642D02*
X1029900Y-475953D01*
X1027701Y-476864D01*
X1025813Y-478313D01*
X1024364Y-480201D01*
X1023453Y-482400D01*
X1023142Y-484760D01*
X1023453Y-487120D01*
X1024364Y-489319D01*
X1025813Y-491207D01*
X1027701Y-492656D01*
X1029900Y-493567D01*
X1032260Y-493878D01*
X1034620Y-493567D01*
X1036819Y-492656D01*
X1038707Y-491207D01*
X1040156Y-489319D01*
X1041067Y-487120D01*
X1041378Y-484760D01*
X1041067Y-482400D01*
X1040156Y-480201D01*
X1038707Y-478313D01*
X1036819Y-476864D01*
X1034620Y-475953D01*
X1032260Y-475642D01*
D02*
G37*
G36*
X1032760Y-515642D02*
X1030400Y-515953D01*
X1028201Y-516864D01*
X1026313Y-518313D01*
X1024864Y-520201D01*
X1023953Y-522400D01*
X1023642Y-524760D01*
X1023953Y-527120D01*
X1024864Y-529319D01*
X1026313Y-531207D01*
X1028201Y-532656D01*
X1030400Y-533567D01*
X1032760Y-533878D01*
X1035120Y-533567D01*
X1037319Y-532656D01*
X1039207Y-531207D01*
X1040656Y-529319D01*
X1041567Y-527120D01*
X1041878Y-524760D01*
X1041567Y-522400D01*
X1040656Y-520201D01*
X1039207Y-518313D01*
X1037319Y-516864D01*
X1035120Y-515953D01*
X1032760Y-515642D01*
D02*
G37*
G36*
X1070000Y-262403D02*
Y-262403D01*
X1066079Y-262789D01*
X1062309Y-263933D01*
X1058835Y-265790D01*
X1055789Y-268289D01*
X1053290Y-271335D01*
X1051433Y-274809D01*
X1050289Y-278579D01*
X1049903Y-282500D01*
X1050000Y-542403D01*
X1049903Y-542500D01*
X1049903D01*
X1050289Y-546421D01*
X1051433Y-550191D01*
X1053290Y-553665D01*
X1055789Y-556711D01*
X1058835Y-559210D01*
X1062309Y-561067D01*
X1066079Y-562211D01*
X1070000Y-562597D01*
X1129903Y-562500D01*
X1130000Y-562597D01*
Y-562597D01*
X1133921Y-562211D01*
X1137691Y-561067D01*
X1141165Y-559210D01*
X1144211Y-556711D01*
X1146710Y-553665D01*
X1148567Y-550191D01*
X1149711Y-546421D01*
X1150097Y-542500D01*
X1150000Y-282597D01*
X1150097Y-282500D01*
X1150097D01*
X1149711Y-278579D01*
X1148567Y-274809D01*
X1146710Y-271335D01*
X1144211Y-268289D01*
X1141165Y-265790D01*
X1137691Y-263933D01*
X1133921Y-262789D01*
X1130000Y-262403D01*
X1070097Y-262500D01*
X1070000Y-262403D01*
D02*
G37*
G36*
X112500Y-328382D02*
X110140Y-328693D01*
X107941Y-329604D01*
X106053Y-331053D01*
X104604Y-332941D01*
X103693Y-335140D01*
X103382Y-337500D01*
X103693Y-339860D01*
X104604Y-342059D01*
X106053Y-343947D01*
X107941Y-345396D01*
X110140Y-346307D01*
X112500Y-346618D01*
X114860Y-346307D01*
X117059Y-345396D01*
X118947Y-343947D01*
X120396Y-342059D01*
X121307Y-339860D01*
X121618Y-337500D01*
X121307Y-335140D01*
X120396Y-332941D01*
X118947Y-331053D01*
X117059Y-329604D01*
X114860Y-328693D01*
X112500Y-328382D01*
D02*
G37*
G36*
Y-303382D02*
X110140Y-303693D01*
X107941Y-304604D01*
X106053Y-306053D01*
X104604Y-307941D01*
X103693Y-310140D01*
X103382Y-312500D01*
X103693Y-314860D01*
X104604Y-317059D01*
X106053Y-318947D01*
X107941Y-320396D01*
X110140Y-321307D01*
X112500Y-321618D01*
X114860Y-321307D01*
X117059Y-320396D01*
X118947Y-318947D01*
X120396Y-317059D01*
X121307Y-314860D01*
X121618Y-312500D01*
X121307Y-310140D01*
X120396Y-307941D01*
X118947Y-306053D01*
X117059Y-304604D01*
X114860Y-303693D01*
X112500Y-303382D01*
D02*
G37*
G36*
Y-378382D02*
X110140Y-378693D01*
X107941Y-379604D01*
X106053Y-381053D01*
X104604Y-382941D01*
X103693Y-385140D01*
X103382Y-387500D01*
X103693Y-389860D01*
X104604Y-392059D01*
X106053Y-393947D01*
X107941Y-395396D01*
X110140Y-396307D01*
X112500Y-396618D01*
X114860Y-396307D01*
X117059Y-395396D01*
X118947Y-393947D01*
X120396Y-392059D01*
X121307Y-389860D01*
X121618Y-387500D01*
X121307Y-385140D01*
X120396Y-382941D01*
X118947Y-381053D01*
X117059Y-379604D01*
X114860Y-378693D01*
X112500Y-378382D01*
D02*
G37*
G36*
Y-278382D02*
X110140Y-278693D01*
X107941Y-279604D01*
X106053Y-281053D01*
X104604Y-282941D01*
X103693Y-285140D01*
X103382Y-287500D01*
X103693Y-289860D01*
X104604Y-292059D01*
X106053Y-293947D01*
X107941Y-295396D01*
X110140Y-296307D01*
X112500Y-296618D01*
X114860Y-296307D01*
X117059Y-295396D01*
X118947Y-293947D01*
X120396Y-292059D01*
X121307Y-289860D01*
X121618Y-287500D01*
X121307Y-285140D01*
X120396Y-282941D01*
X118947Y-281053D01*
X117059Y-279604D01*
X114860Y-278693D01*
X112500Y-278382D01*
D02*
G37*
%LPD*%
D16*
X3070000Y-562500D02*
D03*
Y-262500D02*
D03*
X1230000Y-272500D02*
D03*
Y-552500D02*
D03*
X110000Y-52500D02*
D03*
Y-772500D02*
D03*
D17*
X112500Y-362500D02*
D03*
X1087500Y-207500D02*
D03*
D19*
X2247500Y-20000D02*
X3017500D01*
X2247500Y-90000D02*
Y-20000D01*
X2172500Y-90000D02*
X2247500D01*
X2172500D02*
Y-20000D01*
X595750D02*
X2172500D01*
X595750Y-90000D02*
Y-20000D01*
X522500Y-90000D02*
X595750D01*
X522500D02*
Y-20000D01*
X167500D02*
X522500D01*
X172500Y-25000D02*
X517500D01*
Y-95000D02*
Y-25000D01*
Y-95000D02*
X600000D01*
Y-25000D01*
X2167500D01*
Y-95000D02*
Y-25000D01*
Y-95000D02*
X2252500D01*
Y-25000D01*
X3012500D01*
X2257500Y-30000D02*
X3007500D01*
X2257500Y-100000D02*
Y-30000D01*
X2162500Y-100000D02*
X2257500D01*
X2162500D02*
Y-30000D01*
X605000D02*
X2162500D01*
X605000Y-100000D02*
Y-30000D01*
X512500Y-100000D02*
X605000D01*
X512500D02*
Y-30000D01*
X177500D02*
X512500D01*
X2247500Y-805000D02*
X3017500D01*
X2247500D02*
Y-736250D01*
X2172500D02*
X2247500D01*
X2172500Y-805000D02*
Y-736250D01*
X597500Y-805000D02*
X2172500D01*
X597500D02*
Y-735000D01*
X522500D02*
X597500D01*
X522500Y-805000D02*
Y-735000D01*
X162500Y-805000D02*
X522500D01*
X167500Y-800000D02*
X517500D01*
Y-730000D01*
X602500D01*
Y-800000D02*
Y-730000D01*
Y-800000D02*
X2167500D01*
Y-731250D01*
X2252500D01*
Y-800000D02*
Y-731250D01*
Y-800000D02*
X3012500D01*
X2257500Y-795000D02*
X3007500D01*
X2257500D02*
Y-726250D01*
X2162500D02*
X2257500D01*
X2162500Y-795000D02*
Y-726250D01*
X607500Y-795000D02*
X2162500D01*
X607500D02*
Y-725000D01*
X512500D02*
X607500D01*
X512500Y-795000D02*
Y-725000D01*
X172500Y-795000D02*
X512500D01*
X3017500Y-805000D02*
Y-20000D01*
X167500Y-800000D02*
Y-20000D01*
X3012500Y-800000D02*
Y-25000D01*
X172500Y-795000D02*
Y-25000D01*
X3007500Y-795000D02*
Y-30000D01*
X177500Y-790000D02*
Y-30000D01*
Y-790000D02*
X507500D01*
Y-720000D01*
X612500D01*
Y-790000D02*
Y-720000D01*
Y-790000D02*
X2157500D01*
Y-721250D01*
X2262500D01*
Y-790000D02*
Y-721250D01*
Y-790000D02*
X3002500D01*
Y-35000D01*
X2262500D02*
X3002500D01*
X2262500Y-105000D02*
Y-35000D01*
X2157500Y-105000D02*
X2262500D01*
X2157500D02*
Y-35000D01*
X610000D02*
X2157500D01*
X610000Y-105000D02*
Y-35000D01*
X507500Y-105000D02*
X610000D01*
X507500D02*
Y-35000D01*
X182500D02*
X507500D01*
X182500Y-785000D02*
Y-35000D01*
Y-785000D02*
X502500D01*
Y-715000D01*
X617500D01*
Y-785000D02*
Y-715000D01*
Y-785000D02*
X2152500D01*
Y-716250D01*
X2267504D01*
Y-785000D02*
Y-716250D01*
Y-785000D02*
X2997500D01*
Y-40000D01*
X2267500D02*
X2997500D01*
X2267500Y-110000D02*
Y-40000D01*
X2152504Y-110000D02*
X2267500D01*
X2152504D02*
Y-40000D01*
X615000D02*
X2152504D01*
X615000Y-110000D02*
Y-40000D01*
X502501Y-110000D02*
X615000D01*
X502501D02*
Y-40000D01*
X187500D02*
X502501D01*
X187500Y-780000D02*
Y-40000D01*
Y-780000D02*
X497500D01*
Y-710000D01*
X622500D01*
Y-780000D02*
Y-710000D01*
Y-780000D02*
X2147500D01*
X1087500Y-150000D02*
X2042504D01*
X147500Y-820000D02*
Y-362500D01*
X152500Y-5000D02*
X3032500D01*
X152500Y-815000D02*
Y-5000D01*
X157500Y-10000D02*
X3027500D01*
X157500Y-810000D02*
Y-10000D01*
X162500Y-15000D02*
X3022500D01*
X162500Y-805000D02*
Y-15000D01*
X192500Y-45000D02*
X497501D01*
X192500Y-775000D02*
Y-45000D01*
X197500Y-50000D02*
X492501D01*
X197500Y-770000D02*
Y-50000D01*
X202500Y-55000D02*
X487501D01*
X202500Y-765000D02*
Y-55000D01*
X207500Y-60000D02*
X482501D01*
X207500Y-760000D02*
Y-60000D01*
X212500Y-65000D02*
X477501D01*
X212500Y-755000D02*
Y-65000D01*
X217500Y-70000D02*
X472501D01*
X217500Y-750000D02*
Y-70000D01*
X222500Y-75000D02*
X467501D01*
X222500Y-745000D02*
Y-75000D01*
X467501Y-145000D02*
Y-75000D01*
X472501Y-140000D02*
Y-70000D01*
X227500Y-80000D02*
X462501D01*
X227500Y-740000D02*
Y-80000D01*
X232500Y-85000D02*
X457501D01*
X232500Y-735000D02*
Y-85000D01*
X237500Y-90000D02*
X452501D01*
X237500Y-730000D02*
Y-90000D01*
X242500Y-95000D02*
X447501D01*
X242500Y-725000D02*
Y-95000D01*
X247500Y-100000D02*
X442501D01*
X247500Y-720000D02*
Y-100000D01*
X252500Y-105000D02*
X437501D01*
X252500Y-715000D02*
Y-105000D01*
X437501Y-175000D02*
Y-105000D01*
X442501Y-170000D02*
Y-100000D01*
X442500Y-725000D02*
Y-655000D01*
X242500Y-725000D02*
X442500D01*
X677500D02*
Y-655000D01*
X247500Y-720000D02*
X437500D01*
X442500Y-655000D02*
X677500D01*
Y-725000D02*
X2092500D01*
X437500Y-650000D02*
X682500D01*
Y-720000D02*
X2087500D01*
X437500D02*
Y-650000D01*
X682500Y-720000D02*
Y-650000D01*
X675000Y-170000D02*
Y-100000D01*
X437501Y-175000D02*
X680000D01*
X442501Y-170000D02*
X675000D01*
X680000Y-175000D02*
Y-105000D01*
X2087504D01*
X675000Y-100000D02*
X2092504D01*
X2087500Y-720000D02*
Y-651250D01*
X2327504Y-725000D02*
Y-656250D01*
X2092500Y-725000D02*
Y-656250D01*
X2327504D01*
X2332504Y-720000D02*
Y-651250D01*
X2087500D02*
X2332504D01*
X2327504Y-725000D02*
X2937500D01*
X2332504Y-720000D02*
X2932500D01*
Y-105000D01*
X2937500Y-725000D02*
Y-100000D01*
X2087504Y-175000D02*
X2332500D01*
X2092504Y-170000D02*
X2327500D01*
X2087504Y-175000D02*
Y-105000D01*
X2092504Y-170000D02*
Y-100000D01*
X2332500Y-175000D02*
Y-105000D01*
X2327500Y-170000D02*
Y-100000D01*
X2332500Y-105000D02*
X2932500D01*
X2327500Y-100000D02*
X2937500D01*
X257500Y-110000D02*
X432501D01*
X257500Y-710000D02*
Y-110000D01*
X262500Y-115000D02*
X427501D01*
X262500Y-705000D02*
Y-115000D01*
X267500Y-120000D02*
X422501D01*
X267500Y-700000D02*
Y-120000D01*
X272500Y-125000D02*
X417501D01*
X272500Y-695000D02*
Y-125000D01*
X277500Y-130000D02*
X412501D01*
X277500Y-690000D02*
Y-130000D01*
X282500Y-135000D02*
X407501D01*
X282500Y-685000D02*
Y-135000D01*
X287500Y-140000D02*
X402501D01*
X287500Y-680000D02*
Y-140000D01*
X292500Y-675000D02*
Y-145000D01*
X397501D01*
X292500Y-675000D02*
X392500D01*
Y-605000D01*
X727500D01*
Y-675000D02*
Y-605000D01*
Y-675000D02*
X2042500D01*
Y-606250D01*
X2377504D01*
Y-675000D02*
Y-606250D01*
Y-675000D02*
X2887500D01*
Y-150000D01*
X2377500D02*
X2887500D01*
X2377500Y-220000D02*
Y-150000D01*
X2042504Y-220000D02*
X2377500D01*
X2042504D02*
Y-150000D01*
X2282504Y-770000D02*
Y-701250D01*
X2137500D02*
X2282504D01*
X2137500Y-770000D02*
Y-701250D01*
X632500Y-770000D02*
X2137500D01*
X632500D02*
Y-700000D01*
X487500D02*
X632500D01*
X487500Y-770000D02*
Y-700000D01*
X197500Y-770000D02*
X487500D01*
X482501Y-130000D02*
Y-60000D01*
Y-130000D02*
X635000D01*
Y-60000D01*
X2132504D01*
Y-130000D02*
Y-60000D01*
Y-130000D02*
X2287500D01*
Y-60000D01*
X2977500D01*
Y-765000D02*
Y-60000D01*
X2287504Y-765000D02*
X2977500D01*
X2287504D02*
Y-696250D01*
X2132500D02*
X2287504D01*
X2132500Y-765000D02*
Y-696250D01*
X637500Y-765000D02*
X2132500D01*
X637500D02*
Y-695000D01*
X482500D02*
X637500D01*
X482500Y-765000D02*
Y-695000D01*
X202500Y-765000D02*
X482500D01*
X477501Y-135000D02*
Y-65000D01*
Y-135000D02*
X640000D01*
Y-65000D01*
X2127504D01*
Y-135000D02*
Y-65000D01*
Y-135000D02*
X2292500D01*
Y-65000D01*
X2972500D01*
Y-760000D02*
Y-65000D01*
X2292504Y-760000D02*
X2972500D01*
X2127500D02*
Y-691250D01*
X642500Y-760000D02*
X2127500D01*
X642500D02*
Y-690000D01*
X477500D02*
X642500D01*
X477500Y-760000D02*
Y-690000D01*
X207500Y-760000D02*
X477500D01*
X472501Y-140000D02*
X645000D01*
Y-70000D01*
X2122504D01*
Y-140000D02*
Y-70000D01*
Y-140000D02*
X2297500D01*
Y-70000D01*
X2967500D01*
Y-755000D02*
Y-70000D01*
X2292504Y-760000D02*
Y-691250D01*
X2127500D02*
X2292504D01*
X2297504Y-755000D02*
X2967500D01*
X2297504D02*
Y-686250D01*
X2122500D02*
X2297504D01*
X2122500Y-755000D02*
Y-686250D01*
X647500Y-755000D02*
X2122500D01*
X647500D02*
Y-685000D01*
X472500D02*
X647500D01*
X472500Y-755000D02*
Y-685000D01*
X212500Y-755000D02*
X472500D01*
X467501Y-145000D02*
X650000D01*
Y-75000D01*
X2117504D01*
Y-145000D02*
Y-75000D01*
Y-145000D02*
X2302500D01*
Y-75000D01*
X2962500D01*
Y-750000D02*
Y-75000D01*
X2272500Y-45000D02*
X2992500D01*
X2277500Y-50000D02*
X2987500D01*
X2282500Y-55000D02*
X2982500D01*
X2137504Y-125000D02*
X2282500D01*
X2277500Y-120000D02*
Y-50000D01*
X2282500Y-125000D02*
Y-55000D01*
X2272500Y-115000D02*
Y-45000D01*
X2147504Y-115000D02*
Y-45000D01*
X2142504Y-120000D02*
Y-50000D01*
X2137504Y-125000D02*
Y-55000D01*
X2142504Y-120000D02*
X2277500D01*
X2142500Y-706250D02*
X2277504D01*
X2147504Y-115000D02*
X2272500D01*
X2147500Y-711250D02*
X2272504D01*
X3032500Y-820000D02*
Y-5000D01*
X3027500Y-815000D02*
Y-10000D01*
X3022500Y-810000D02*
Y-15000D01*
X2982500Y-770000D02*
Y-55000D01*
X2992500Y-780000D02*
Y-45000D01*
X2987500Y-775000D02*
Y-50000D01*
X2277504Y-775000D02*
Y-706250D01*
X2272504Y-780000D02*
Y-711250D01*
X2142500Y-775000D02*
Y-706250D01*
X2147500Y-780000D02*
Y-711250D01*
X620000Y-45000D02*
X2147504D01*
X625000Y-50000D02*
X2142504D01*
X630000Y-55000D02*
X2137504D01*
X630000Y-125000D02*
Y-55000D01*
X625000Y-120000D02*
Y-50000D01*
X487501Y-125000D02*
X630000D01*
X497501Y-115000D02*
Y-45000D01*
X620000Y-115000D02*
Y-45000D01*
X492501Y-120000D02*
Y-50000D01*
X487501Y-125000D02*
Y-55000D01*
X497501Y-115000D02*
X620000D01*
X492501Y-120000D02*
X625000D01*
X492500Y-705000D02*
X627500D01*
Y-775000D02*
Y-705000D01*
Y-775000D02*
X2142500D01*
X492500D02*
Y-705000D01*
X192500Y-775000D02*
X492500D01*
X2277504D02*
X2987500D01*
X2272504Y-780000D02*
X2992500D01*
X152500Y-815000D02*
X3027500D01*
X147500Y-820000D02*
X3032500D01*
X157500Y-810000D02*
X3022500D01*
X2282504Y-770000D02*
X2982500D01*
X2302504Y-750000D02*
X2962500D01*
X2302504D02*
Y-681250D01*
X2117500D02*
X2302504D01*
X2117500Y-750000D02*
Y-681250D01*
X652500Y-750000D02*
X2117500D01*
X652500D02*
Y-680000D01*
X467500D02*
X652500D01*
X467500Y-750000D02*
Y-680000D01*
X217500Y-750000D02*
X467500D01*
X462501Y-150000D02*
Y-80000D01*
Y-150000D02*
X655000D01*
Y-80000D01*
X2112504D01*
Y-150000D02*
Y-80000D01*
Y-150000D02*
X2307500D01*
Y-80000D01*
X2957500D01*
Y-745000D02*
Y-80000D01*
X2307504Y-745000D02*
X2957500D01*
X2307504D02*
Y-676250D01*
X2112500D02*
X2307504D01*
X2112500Y-745000D02*
Y-676250D01*
X657500Y-745000D02*
X2112500D01*
X657500D02*
Y-675000D01*
X462500D02*
X657500D01*
X462500Y-745000D02*
Y-675000D01*
X222500Y-745000D02*
X462500D01*
X457501Y-155000D02*
Y-85000D01*
Y-155000D02*
X660000D01*
Y-85000D01*
X2107504D01*
Y-155000D02*
Y-85000D01*
Y-155000D02*
X2312500D01*
Y-85000D01*
X2952500D01*
Y-740000D02*
Y-85000D01*
X2312504Y-740000D02*
X2952500D01*
X2312504D02*
Y-671250D01*
X2107500D02*
X2312504D01*
X2107500Y-740000D02*
Y-671250D01*
X662500Y-740000D02*
X2107500D01*
X662500D02*
Y-670000D01*
X457500D02*
X662500D01*
X457500Y-740000D02*
Y-670000D01*
X227500Y-740000D02*
X457500D01*
X452501Y-160000D02*
Y-90000D01*
Y-160000D02*
X665000D01*
Y-90000D01*
X2102504D01*
Y-160000D02*
Y-90000D01*
Y-160000D02*
X2317500D01*
Y-90000D01*
X2947500D01*
Y-735000D02*
Y-90000D01*
X2317504Y-735000D02*
X2947500D01*
X2317504D02*
Y-666250D01*
X2102500D02*
X2317504D01*
X2102500Y-735000D02*
Y-666250D01*
X667500Y-735000D02*
X2102500D01*
X667500D02*
Y-665000D01*
X452500D02*
X667500D01*
X452500Y-735000D02*
Y-665000D01*
X232500Y-735000D02*
X452500D01*
X447501Y-165000D02*
Y-95000D01*
Y-165000D02*
X670000D01*
Y-95000D01*
X2097504D01*
Y-165000D02*
Y-95000D01*
Y-165000D02*
X2322500D01*
Y-95000D01*
X2942500D01*
Y-730000D02*
Y-95000D01*
X2322504Y-730000D02*
X2942500D01*
X2322504D02*
Y-661250D01*
X2097500D02*
X2322504D01*
X2097500Y-730000D02*
Y-661250D01*
X672500Y-730000D02*
X2097500D01*
X672500D02*
Y-660000D01*
X447500D02*
X672500D01*
X447500Y-730000D02*
Y-660000D01*
X237500Y-730000D02*
X447500D01*
X432501Y-180000D02*
Y-110000D01*
Y-180000D02*
X685000D01*
Y-110000D01*
X2082504Y-180000D02*
Y-110000D01*
Y-180000D02*
X2337500D01*
Y-110000D01*
X2927500D01*
Y-715000D02*
Y-110000D01*
X2337504Y-715000D02*
X2927500D01*
X2337504D02*
Y-646250D01*
X2082500D02*
X2337504D01*
X2082500Y-715000D02*
Y-646250D01*
X687500Y-715000D02*
X2082500D01*
X687500D02*
Y-645000D01*
X432500D02*
X687500D01*
X432500Y-715000D02*
Y-645000D01*
X252500Y-715000D02*
X432500D01*
X427501Y-185000D02*
X690000D01*
Y-115000D01*
X2077504D01*
Y-185000D02*
Y-115000D01*
Y-185000D02*
X2342500D01*
Y-115000D01*
X2922500D01*
Y-710000D02*
Y-115000D01*
X2342504Y-710000D02*
X2922500D01*
X2342504D02*
Y-641250D01*
X2077500D02*
X2342504D01*
X2077500Y-710000D02*
Y-641250D01*
X692500Y-710000D02*
X2077500D01*
X692500D02*
Y-640000D01*
X427500D02*
X692500D01*
X427500Y-710000D02*
Y-640000D01*
X257500Y-710000D02*
X427500D01*
X422501Y-190000D02*
Y-120000D01*
Y-190000D02*
X695000D01*
Y-120000D01*
X2072504D01*
Y-190000D02*
Y-120000D01*
Y-190000D02*
X2347500D01*
Y-120000D01*
X2917500D01*
Y-705000D02*
Y-120000D01*
X2347504Y-705000D02*
X2917500D01*
X2347504D02*
Y-636250D01*
X2072500D02*
X2347504D01*
X2072500Y-705000D02*
Y-636250D01*
X697500Y-705000D02*
X2072500D01*
X697500D02*
Y-635000D01*
X422500D02*
X697500D01*
X422500Y-705000D02*
Y-635000D01*
X262500Y-705000D02*
X422500D01*
X417501Y-195000D02*
Y-125000D01*
Y-195000D02*
X700000D01*
Y-125000D01*
X2067504D01*
Y-195000D02*
Y-125000D01*
Y-195000D02*
X2352500D01*
Y-125000D01*
X2912500D01*
Y-700000D02*
Y-125000D01*
X2352504Y-700000D02*
X2912500D01*
X2352504D02*
Y-631250D01*
X2067500D02*
X2352504D01*
X2067500Y-700000D02*
Y-631250D01*
X702500Y-700000D02*
X2067500D01*
X702500D02*
Y-630000D01*
X417500D02*
X702500D01*
X417500Y-700000D02*
Y-630000D01*
X267500Y-700000D02*
X417500D01*
X412501Y-200000D02*
Y-130000D01*
Y-200000D02*
X705000D01*
Y-130000D01*
X2062504D01*
Y-200000D02*
Y-130000D01*
Y-200000D02*
X2357500D01*
Y-130000D01*
X2907500D01*
Y-695000D02*
Y-130000D01*
X2357504Y-695000D02*
X2907500D01*
X2357504D02*
Y-626250D01*
X2062500D02*
X2357504D01*
X2062500Y-695000D02*
Y-626250D01*
X707500Y-695000D02*
X2062500D01*
X707500D02*
Y-625000D01*
X412500D02*
X707500D01*
X412500Y-695000D02*
Y-625000D01*
X272500Y-695000D02*
X412500D01*
X407501Y-205000D02*
Y-135000D01*
Y-205000D02*
X710000D01*
Y-135000D01*
X2057504D01*
Y-205000D02*
Y-135000D01*
Y-205000D02*
X2362500D01*
Y-135000D01*
X2902500D01*
Y-690000D02*
Y-135000D01*
X2362504Y-690000D02*
X2902500D01*
X2362504D02*
Y-621250D01*
X2057500D02*
X2362504D01*
X2057500Y-690000D02*
Y-621250D01*
X712500Y-690000D02*
X2057500D01*
X712500D02*
Y-620000D01*
X407500D02*
X712500D01*
X407500Y-690000D02*
Y-620000D01*
X277500Y-690000D02*
X407500D01*
X402501Y-210000D02*
Y-140000D01*
Y-210000D02*
X715000D01*
Y-140000D01*
X2052504D01*
Y-210000D02*
Y-140000D01*
Y-210000D02*
X2367500D01*
Y-140000D01*
X2897500D01*
Y-685000D02*
Y-140000D01*
X2367504Y-685000D02*
X2897500D01*
X2367504D02*
Y-616250D01*
X2052500D02*
X2367504D01*
X2052500Y-685000D02*
Y-616250D01*
X717500Y-685000D02*
X2052500D01*
X717500D02*
Y-615000D01*
X402500D02*
X717500D01*
X402500Y-685000D02*
Y-615000D01*
X282500Y-685000D02*
X402500D01*
X397501Y-215000D02*
Y-145000D01*
Y-215000D02*
X720000D01*
Y-145000D01*
X2047504D01*
Y-215000D02*
Y-145000D01*
Y-215000D02*
X2372500D01*
Y-145000D01*
X2892500D01*
Y-680000D02*
Y-145000D01*
X2372504Y-680000D02*
X2892500D01*
X2372504D02*
Y-611250D01*
X2047500D02*
X2372504D01*
X2047500Y-680000D02*
Y-611250D01*
X722500Y-680000D02*
X2047500D01*
X722500D02*
Y-610000D01*
X397500D02*
X722500D01*
X397500Y-680000D02*
Y-610000D01*
X287500Y-680000D02*
X397500D01*
X685000Y-110000D02*
X2082504D01*
X427501Y-185000D02*
Y-115000D01*
X112500Y-362500D02*
X147500D01*
X1087500Y-207500D02*
Y-150000D01*
M02*
