M48
;Layer_Color=9474304
;FILE_FORMAT=4:4
METRIC,LZ
;TYPE=PLATED
T1F00S00C0.5000
T2F00S00C1.0000
T3F00S00C3.2000
%
T01
X0103276Y-0052476
X0103226Y-0048476
X010625Y-002075
X010875
X011125
X001125Y-002875
Y-003125
Y-003375
Y-003625
Y-003875
X01075Y-00195
X011
X01125
T02
X011075Y-0066
X011325
T03
X0011Y-007725
X0056
X0221
X0307Y-005625
Y-002625
X0123Y-002725
Y-005525
X0011Y-000525
X0056
X0221
M30
