G04 Layer_Color=16711935*
%FSLAX44Y44*%
%MOMM*%
G71*
G01*
G75*
%ADD92C,0.0025*%
G36*
X-72575Y38766D02*
X-72388Y38745D01*
X-72159Y38724D01*
X-71909Y38683D01*
X-71638Y38620D01*
X-71034Y38474D01*
X-70743Y38370D01*
X-70409Y38245D01*
X-70097Y38099D01*
X-69805Y37912D01*
X-69514Y37724D01*
X-69222Y37495D01*
X-69201Y37475D01*
X-69160Y37433D01*
X-69076Y37370D01*
X-68993Y37266D01*
X-68868Y37141D01*
X-68743Y36975D01*
X-68597Y36787D01*
X-68451Y36579D01*
X-68306Y36350D01*
X-68160Y36079D01*
X-68014Y35787D01*
X-67868Y35475D01*
X-67743Y35142D01*
X-67639Y34788D01*
X-67535Y34413D01*
X-67473Y33996D01*
X-69826Y33809D01*
Y33830D01*
X-69847Y33871D01*
X-69868Y33934D01*
X-69889Y34038D01*
X-69951Y34288D01*
X-70055Y34580D01*
X-70180Y34913D01*
X-70347Y35246D01*
X-70513Y35558D01*
X-70722Y35829D01*
X-70743Y35850D01*
X-70763Y35871D01*
X-70826Y35933D01*
X-70888Y35996D01*
X-71097Y36162D01*
X-71388Y36350D01*
X-71721Y36537D01*
X-72138Y36683D01*
X-72596Y36808D01*
X-72846Y36829D01*
X-73096Y36850D01*
X-73284D01*
X-73513Y36808D01*
X-73783Y36766D01*
X-74096Y36683D01*
X-74429Y36579D01*
X-74762Y36412D01*
X-75096Y36204D01*
X-75116D01*
X-75137Y36162D01*
X-75200Y36121D01*
X-75283Y36058D01*
X-75470Y35871D01*
X-75720Y35600D01*
X-76012Y35267D01*
X-76304Y34850D01*
X-76574Y34371D01*
X-76845Y33830D01*
Y33809D01*
X-76866Y33767D01*
X-76908Y33663D01*
X-76949Y33538D01*
X-76991Y33392D01*
X-77053Y33184D01*
X-77116Y32955D01*
X-77178Y32705D01*
X-77241Y32413D01*
X-77283Y32080D01*
X-77345Y31705D01*
X-77407Y31309D01*
X-77449Y30893D01*
X-77470Y30435D01*
X-77491Y29935D01*
X-77511Y29436D01*
X-77512Y29435D01*
Y29414D01*
X-77511Y29436D01*
X-77470Y29477D01*
X-77428Y29539D01*
X-77366Y29622D01*
X-77178Y29852D01*
X-76949Y30143D01*
X-76637Y30456D01*
X-76283Y30768D01*
X-75887Y31060D01*
X-75450Y31330D01*
X-75429D01*
X-75387Y31351D01*
X-75325Y31393D01*
X-75241Y31435D01*
X-75116Y31476D01*
X-74991Y31539D01*
X-74658Y31664D01*
X-74262Y31768D01*
X-73825Y31872D01*
X-73346Y31955D01*
X-72846Y31976D01*
X-72742D01*
X-72617Y31955D01*
X-72450D01*
X-72242Y31913D01*
X-72013Y31893D01*
X-71742Y31830D01*
X-71451Y31768D01*
X-71159Y31664D01*
X-70826Y31559D01*
X-70493Y31414D01*
X-70159Y31247D01*
X-69805Y31039D01*
X-69472Y30810D01*
X-69139Y30539D01*
X-68826Y30226D01*
X-68805Y30206D01*
X-68764Y30143D01*
X-68681Y30060D01*
X-68555Y29914D01*
X-68431Y29747D01*
X-68306Y29539D01*
X-68139Y29289D01*
X-67993Y29018D01*
X-67847Y28706D01*
X-67681Y28373D01*
X-67556Y27998D01*
X-67410Y27602D01*
X-67306Y27185D01*
X-67222Y26727D01*
X-67181Y26248D01*
X-67160Y25748D01*
Y25728D01*
Y25665D01*
Y25582D01*
X-67181Y25436D01*
Y25290D01*
X-67202Y25103D01*
X-67222Y24874D01*
X-67264Y24644D01*
X-67347Y24124D01*
X-67493Y23561D01*
X-67681Y22978D01*
X-67951Y22374D01*
Y22353D01*
X-67993Y22312D01*
X-68035Y22229D01*
X-68097Y22124D01*
X-68181Y21999D01*
X-68264Y21854D01*
X-68514Y21500D01*
X-68805Y21125D01*
X-69180Y20729D01*
X-69618Y20333D01*
X-70097Y20000D01*
X-70118D01*
X-70159Y19958D01*
X-70243Y19917D01*
X-70347Y19875D01*
X-70472Y19812D01*
X-70617Y19750D01*
X-70805Y19667D01*
X-70992Y19604D01*
X-71451Y19438D01*
X-71992Y19313D01*
X-72575Y19229D01*
X-73200Y19188D01*
X-73325D01*
X-73492Y19208D01*
X-73700Y19229D01*
X-73950Y19250D01*
X-74242Y19313D01*
X-74554Y19375D01*
X-74908Y19458D01*
X-75283Y19583D01*
X-75679Y19708D01*
X-76074Y19896D01*
X-76470Y20104D01*
X-76887Y20354D01*
X-77262Y20646D01*
X-77657Y20979D01*
X-78011Y21354D01*
X-78032Y21374D01*
X-78095Y21458D01*
X-78178Y21583D01*
X-78303Y21770D01*
X-78449Y21999D01*
X-78595Y22291D01*
X-78761Y22645D01*
X-78928Y23062D01*
X-79115Y23520D01*
X-79282Y24041D01*
X-79428Y24624D01*
X-79574Y25269D01*
X-79699Y25977D01*
X-79782Y26748D01*
X-79844Y27581D01*
X-79865Y28477D01*
Y28498D01*
Y28539D01*
Y28623D01*
Y28727D01*
Y28852D01*
X-79844Y29018D01*
Y29185D01*
X-79823Y29393D01*
X-79803Y29852D01*
X-79761Y30372D01*
X-79699Y30955D01*
X-79615Y31580D01*
X-79490Y32247D01*
X-79365Y32913D01*
X-79199Y33580D01*
X-78990Y34246D01*
X-78761Y34892D01*
X-78491Y35517D01*
X-78157Y36079D01*
X-77803Y36579D01*
X-77782Y36600D01*
X-77720Y36683D01*
X-77616Y36787D01*
X-77470Y36933D01*
X-77303Y37100D01*
X-77074Y37287D01*
X-76824Y37475D01*
X-76533Y37683D01*
X-76199Y37891D01*
X-75824Y38079D01*
X-75429Y38266D01*
X-74991Y38433D01*
X-74533Y38579D01*
X-74033Y38683D01*
X-73513Y38766D01*
X-72950Y38787D01*
X-72721D01*
X-72575Y38766D01*
D02*
G37*
G36*
X-27962Y25269D02*
X-35231D01*
Y27644D01*
X-27962D01*
Y25269D01*
D02*
G37*
G36*
X-42708Y38766D02*
X-42520Y38745D01*
X-42291Y38724D01*
X-42042Y38683D01*
X-41771Y38620D01*
X-41167Y38474D01*
X-40875Y38370D01*
X-40542Y38245D01*
X-40230Y38099D01*
X-39938Y37912D01*
X-39646Y37724D01*
X-39355Y37495D01*
X-39334Y37475D01*
X-39292Y37433D01*
X-39209Y37370D01*
X-39126Y37266D01*
X-39001Y37141D01*
X-38876Y36975D01*
X-38730Y36787D01*
X-38584Y36579D01*
X-38438Y36350D01*
X-38293Y36079D01*
X-38147Y35787D01*
X-38001Y35475D01*
X-37876Y35142D01*
X-37772Y34788D01*
X-37668Y34413D01*
X-37605Y33996D01*
X-39959Y33809D01*
Y33830D01*
X-39980Y33871D01*
X-40000Y33934D01*
X-40021Y34038D01*
X-40084Y34288D01*
X-40188Y34580D01*
X-40313Y34913D01*
X-40479Y35246D01*
X-40646Y35558D01*
X-40854Y35829D01*
X-40875Y35850D01*
X-40896Y35871D01*
X-40958Y35933D01*
X-41021Y35996D01*
X-41229Y36162D01*
X-41521Y36350D01*
X-41854Y36537D01*
X-42271Y36683D01*
X-42729Y36808D01*
X-42979Y36829D01*
X-43229Y36850D01*
X-43416D01*
X-43645Y36808D01*
X-43916Y36766D01*
X-44228Y36683D01*
X-44562Y36579D01*
X-44895Y36412D01*
X-45228Y36204D01*
X-45249D01*
X-45270Y36162D01*
X-45332Y36121D01*
X-45416Y36058D01*
X-45603Y35871D01*
X-45853Y35600D01*
X-46145Y35267D01*
X-46436Y34850D01*
X-46707Y34371D01*
X-46978Y33830D01*
Y33809D01*
X-46999Y33767D01*
X-47040Y33663D01*
X-47082Y33538D01*
X-47123Y33392D01*
X-47186Y33184D01*
X-47249Y32955D01*
X-47311Y32705D01*
X-47373Y32413D01*
X-47415Y32080D01*
X-47478Y31705D01*
X-47540Y31309D01*
X-47582Y30893D01*
X-47603Y30435D01*
X-47623Y29935D01*
X-47643Y29436D01*
X-47644Y29435D01*
Y29414D01*
X-47643Y29436D01*
X-47603Y29477D01*
X-47561Y29539D01*
X-47498Y29622D01*
X-47311Y29852D01*
X-47082Y30143D01*
X-46769Y30456D01*
X-46415Y30768D01*
X-46020Y31060D01*
X-45582Y31330D01*
X-45561D01*
X-45520Y31351D01*
X-45457Y31393D01*
X-45374Y31435D01*
X-45249Y31476D01*
X-45124Y31539D01*
X-44791Y31664D01*
X-44395Y31768D01*
X-43958Y31872D01*
X-43479Y31955D01*
X-42979Y31976D01*
X-42875D01*
X-42750Y31955D01*
X-42583D01*
X-42375Y31913D01*
X-42146Y31893D01*
X-41875Y31830D01*
X-41583Y31768D01*
X-41292Y31664D01*
X-40958Y31559D01*
X-40625Y31414D01*
X-40292Y31247D01*
X-39938Y31039D01*
X-39605Y30810D01*
X-39271Y30539D01*
X-38959Y30226D01*
X-38938Y30206D01*
X-38897Y30143D01*
X-38813Y30060D01*
X-38688Y29914D01*
X-38563Y29747D01*
X-38438Y29539D01*
X-38272Y29289D01*
X-38126Y29018D01*
X-37980Y28706D01*
X-37813Y28373D01*
X-37688Y27998D01*
X-37543Y27602D01*
X-37438Y27185D01*
X-37355Y26727D01*
X-37313Y26248D01*
X-37293Y25748D01*
Y25728D01*
Y25665D01*
Y25582D01*
X-37313Y25436D01*
Y25290D01*
X-37334Y25103D01*
X-37355Y24874D01*
X-37397Y24644D01*
X-37480Y24124D01*
X-37626Y23561D01*
X-37813Y22978D01*
X-38084Y22374D01*
Y22353D01*
X-38126Y22312D01*
X-38168Y22229D01*
X-38230Y22124D01*
X-38313Y21999D01*
X-38397Y21854D01*
X-38647Y21500D01*
X-38938Y21125D01*
X-39313Y20729D01*
X-39750Y20333D01*
X-40230Y20000D01*
X-40250D01*
X-40292Y19958D01*
X-40375Y19917D01*
X-40479Y19875D01*
X-40604Y19812D01*
X-40750Y19750D01*
X-40938Y19667D01*
X-41125Y19604D01*
X-41583Y19438D01*
X-42125Y19313D01*
X-42708Y19229D01*
X-43333Y19188D01*
X-43458D01*
X-43624Y19208D01*
X-43833Y19229D01*
X-44083Y19250D01*
X-44374Y19313D01*
X-44687Y19375D01*
X-45041Y19458D01*
X-45416Y19583D01*
X-45811Y19708D01*
X-46207Y19896D01*
X-46603Y20104D01*
X-47019Y20354D01*
X-47394Y20646D01*
X-47790Y20979D01*
X-48144Y21354D01*
X-48165Y21374D01*
X-48227Y21458D01*
X-48311Y21583D01*
X-48436Y21770D01*
X-48582Y21999D01*
X-48727Y22291D01*
X-48894Y22645D01*
X-49061Y23062D01*
X-49248Y23520D01*
X-49415Y24041D01*
X-49560Y24624D01*
X-49706Y25269D01*
X-49831Y25977D01*
X-49914Y26748D01*
X-49977Y27581D01*
X-49998Y28477D01*
Y28498D01*
Y28539D01*
Y28623D01*
Y28727D01*
Y28852D01*
X-49977Y29018D01*
Y29185D01*
X-49956Y29393D01*
X-49935Y29852D01*
X-49894Y30372D01*
X-49831Y30955D01*
X-49748Y31580D01*
X-49623Y32247D01*
X-49498Y32913D01*
X-49331Y33580D01*
X-49123Y34246D01*
X-48894Y34892D01*
X-48623Y35517D01*
X-48290Y36079D01*
X-47936Y36579D01*
X-47915Y36600D01*
X-47853Y36683D01*
X-47748Y36787D01*
X-47603Y36933D01*
X-47436Y37100D01*
X-47207Y37287D01*
X-46957Y37475D01*
X-46665Y37683D01*
X-46332Y37891D01*
X-45957Y38079D01*
X-45561Y38266D01*
X-45124Y38433D01*
X-44666Y38579D01*
X-44166Y38683D01*
X-43645Y38766D01*
X-43083Y38787D01*
X-42854D01*
X-42708Y38766D01*
D02*
G37*
G36*
X8427Y47627D02*
X8371Y47544D01*
X4141D01*
X1982Y53640D01*
X-5002D01*
X-8051Y47544D01*
X-12397D01*
X-12448Y47631D01*
X-3225Y64435D01*
X1856D01*
X8427Y47627D01*
D02*
G37*
G36*
X42072Y64234D02*
X41949Y61767D01*
X32678D01*
X32551Y57322D01*
X40479D01*
X40548Y57249D01*
X40425Y54655D01*
X32297D01*
X32170Y49956D01*
X41366D01*
X41433Y49882D01*
X41187Y47416D01*
X28051D01*
X27982Y47488D01*
X28741Y64307D01*
X42003D01*
X42072Y64234D01*
D02*
G37*
G36*
X-88030Y38766D02*
X-87884Y38745D01*
X-87509Y38703D01*
X-87093Y38641D01*
X-86634Y38516D01*
X-86176Y38370D01*
X-85718Y38162D01*
X-85697D01*
X-85655Y38141D01*
X-85593Y38099D01*
X-85510Y38037D01*
X-85301Y37912D01*
X-85030Y37704D01*
X-84718Y37454D01*
X-84406Y37141D01*
X-84072Y36766D01*
X-83781Y36350D01*
Y36329D01*
X-83739Y36287D01*
X-83718Y36225D01*
X-83656Y36142D01*
X-83593Y36037D01*
X-83510Y35892D01*
X-83448Y35725D01*
X-83343Y35558D01*
X-83156Y35142D01*
X-82969Y34663D01*
X-82760Y34100D01*
X-82594Y33496D01*
Y33476D01*
X-82573Y33413D01*
X-82552Y33330D01*
X-82531Y33184D01*
X-82490Y33017D01*
X-82448Y32809D01*
X-82406Y32580D01*
X-82365Y32309D01*
X-82344Y31997D01*
X-82302Y31664D01*
X-82260Y31289D01*
X-82219Y30893D01*
X-82198Y30456D01*
X-82177Y29997D01*
X-82156Y29497D01*
Y28977D01*
Y28935D01*
Y28831D01*
Y28644D01*
Y28414D01*
X-82177Y28123D01*
X-82198Y27810D01*
X-82219Y27436D01*
X-82240Y27040D01*
X-82281Y26602D01*
X-82323Y26165D01*
X-82448Y25248D01*
X-82635Y24353D01*
X-82739Y23916D01*
X-82864Y23520D01*
Y23499D01*
X-82906Y23437D01*
X-82927Y23312D01*
X-82989Y23187D01*
X-83073Y22999D01*
X-83156Y22812D01*
X-83260Y22583D01*
X-83385Y22333D01*
X-83677Y21812D01*
X-84031Y21291D01*
X-84447Y20770D01*
X-84697Y20541D01*
X-84947Y20312D01*
X-84968Y20292D01*
X-85010Y20271D01*
X-85093Y20208D01*
X-85197Y20146D01*
X-85322Y20062D01*
X-85489Y19958D01*
X-85676Y19854D01*
X-85905Y19750D01*
X-86134Y19646D01*
X-86405Y19542D01*
X-86676Y19458D01*
X-86988Y19354D01*
X-87322Y19292D01*
X-87676Y19229D01*
X-88030Y19208D01*
X-88426Y19188D01*
X-88550D01*
X-88696Y19208D01*
X-88884Y19229D01*
X-89113Y19250D01*
X-89383Y19292D01*
X-89675Y19354D01*
X-90008Y19438D01*
X-90342Y19542D01*
X-90696Y19667D01*
X-91071Y19833D01*
X-91425Y20021D01*
X-91779Y20250D01*
X-92133Y20521D01*
X-92466Y20812D01*
X-92779Y21166D01*
X-92799Y21187D01*
X-92862Y21270D01*
X-92945Y21416D01*
X-93070Y21625D01*
X-93216Y21895D01*
X-93383Y22208D01*
X-93549Y22603D01*
X-93716Y23041D01*
X-93903Y23561D01*
X-94070Y24124D01*
X-94236Y24769D01*
X-94382Y25478D01*
X-94507Y26248D01*
X-94591Y27081D01*
X-94653Y27998D01*
X-94674Y28977D01*
Y29018D01*
Y29123D01*
Y29310D01*
X-94653Y29539D01*
Y29831D01*
X-94632Y30164D01*
X-94611Y30539D01*
X-94591Y30935D01*
X-94549Y31372D01*
X-94507Y31809D01*
X-94382Y32726D01*
X-94216Y33621D01*
X-94111Y34059D01*
X-93987Y34455D01*
Y34475D01*
X-93945Y34538D01*
X-93903Y34663D01*
X-93862Y34809D01*
X-93778Y34975D01*
X-93695Y35183D01*
X-93591Y35392D01*
X-93466Y35642D01*
X-93174Y36162D01*
X-92799Y36683D01*
X-92383Y37204D01*
X-92154Y37433D01*
X-91904Y37662D01*
X-91883Y37683D01*
X-91841Y37704D01*
X-91758Y37766D01*
X-91654Y37829D01*
X-91529Y37933D01*
X-91362Y38016D01*
X-91175Y38120D01*
X-90946Y38224D01*
X-90716Y38328D01*
X-90446Y38433D01*
X-90154Y38537D01*
X-89863Y38620D01*
X-89529Y38683D01*
X-89175Y38745D01*
X-88800Y38766D01*
X-88426Y38787D01*
X-88175D01*
X-88030Y38766D01*
D02*
G37*
G36*
X-102963D02*
X-102818Y38745D01*
X-102443Y38703D01*
X-102026Y38641D01*
X-101568Y38516D01*
X-101110Y38370D01*
X-100652Y38162D01*
X-100631D01*
X-100589Y38141D01*
X-100527Y38099D01*
X-100443Y38037D01*
X-100235Y37912D01*
X-99964Y37704D01*
X-99652Y37454D01*
X-99339Y37141D01*
X-99006Y36766D01*
X-98715Y36350D01*
Y36329D01*
X-98673Y36287D01*
X-98652Y36225D01*
X-98589Y36142D01*
X-98527Y36037D01*
X-98444Y35892D01*
X-98381Y35725D01*
X-98277Y35558D01*
X-98090Y35142D01*
X-97902Y34663D01*
X-97694Y34100D01*
X-97527Y33496D01*
Y33476D01*
X-97507Y33413D01*
X-97486Y33330D01*
X-97465Y33184D01*
X-97423Y33017D01*
X-97381Y32809D01*
X-97340Y32580D01*
X-97298Y32309D01*
X-97277Y31997D01*
X-97236Y31664D01*
X-97194Y31289D01*
X-97152Y30893D01*
X-97132Y30456D01*
X-97111Y29997D01*
X-97090Y29497D01*
Y28977D01*
Y28935D01*
Y28831D01*
Y28644D01*
Y28414D01*
X-97111Y28123D01*
X-97132Y27810D01*
X-97152Y27436D01*
X-97173Y27040D01*
X-97215Y26602D01*
X-97256Y26165D01*
X-97381Y25248D01*
X-97569Y24353D01*
X-97673Y23916D01*
X-97798Y23520D01*
Y23499D01*
X-97840Y23437D01*
X-97860Y23312D01*
X-97923Y23187D01*
X-98006Y22999D01*
X-98090Y22812D01*
X-98194Y22583D01*
X-98319Y22333D01*
X-98610Y21812D01*
X-98964Y21291D01*
X-99381Y20770D01*
X-99631Y20541D01*
X-99881Y20312D01*
X-99902Y20292D01*
X-99943Y20271D01*
X-100027Y20208D01*
X-100131Y20146D01*
X-100256Y20062D01*
X-100422Y19958D01*
X-100610Y19854D01*
X-100839Y19750D01*
X-101068Y19646D01*
X-101339Y19542D01*
X-101610Y19458D01*
X-101922Y19354D01*
X-102255Y19292D01*
X-102609Y19229D01*
X-102963Y19208D01*
X-103359Y19188D01*
X-103484D01*
X-103630Y19208D01*
X-103817Y19229D01*
X-104046Y19250D01*
X-104317Y19292D01*
X-104609Y19354D01*
X-104942Y19438D01*
X-105275Y19542D01*
X-105629Y19667D01*
X-106004Y19833D01*
X-106358Y20021D01*
X-106712Y20250D01*
X-107066Y20521D01*
X-107400Y20812D01*
X-107712Y21166D01*
X-107733Y21187D01*
X-107795Y21270D01*
X-107879Y21416D01*
X-108004Y21625D01*
X-108150Y21895D01*
X-108316Y22208D01*
X-108483Y22603D01*
X-108649Y23041D01*
X-108837Y23561D01*
X-109003Y24124D01*
X-109170Y24769D01*
X-109316Y25478D01*
X-109441Y26248D01*
X-109524Y27081D01*
X-109587Y27998D01*
X-109607Y28977D01*
Y29018D01*
Y29123D01*
Y29310D01*
X-109587Y29539D01*
Y29831D01*
X-109566Y30164D01*
X-109545Y30539D01*
X-109524Y30935D01*
X-109483Y31372D01*
X-109441Y31809D01*
X-109316Y32726D01*
X-109149Y33621D01*
X-109045Y34059D01*
X-108920Y34455D01*
Y34475D01*
X-108878Y34538D01*
X-108837Y34663D01*
X-108795Y34809D01*
X-108712Y34975D01*
X-108629Y35183D01*
X-108525Y35392D01*
X-108399Y35642D01*
X-108108Y36162D01*
X-107733Y36683D01*
X-107316Y37204D01*
X-107087Y37433D01*
X-106837Y37662D01*
X-106817Y37683D01*
X-106775Y37704D01*
X-106692Y37766D01*
X-106587Y37829D01*
X-106462Y37933D01*
X-106296Y38016D01*
X-106108Y38120D01*
X-105879Y38224D01*
X-105650Y38328D01*
X-105379Y38433D01*
X-105088Y38537D01*
X-104796Y38620D01*
X-104463Y38683D01*
X-104109Y38745D01*
X-103734Y38766D01*
X-103359Y38787D01*
X-103109D01*
X-102963Y38766D01*
D02*
G37*
G36*
X-115668Y19500D02*
X-118022D01*
Y34517D01*
X-118064Y34475D01*
X-118168Y34371D01*
X-118355Y34225D01*
X-118626Y34017D01*
X-118939Y33767D01*
X-119334Y33496D01*
X-119772Y33205D01*
X-120272Y32892D01*
X-120292D01*
X-120334Y32851D01*
X-120396Y32809D01*
X-120501Y32767D01*
X-120625Y32684D01*
X-120771Y32622D01*
X-121105Y32434D01*
X-121480Y32247D01*
X-121896Y32039D01*
X-122333Y31851D01*
X-122750Y31684D01*
Y33955D01*
X-122729Y33976D01*
X-122667Y33996D01*
X-122563Y34059D01*
X-122417Y34121D01*
X-122250Y34205D01*
X-122042Y34330D01*
X-121813Y34455D01*
X-121584Y34580D01*
X-121042Y34913D01*
X-120459Y35308D01*
X-119855Y35725D01*
X-119292Y36204D01*
X-119272Y36225D01*
X-119230Y36267D01*
X-119147Y36329D01*
X-119043Y36433D01*
X-118939Y36558D01*
X-118793Y36683D01*
X-118480Y37037D01*
X-118126Y37412D01*
X-117772Y37850D01*
X-117460Y38308D01*
X-117189Y38787D01*
X-115668D01*
Y19500D01*
D02*
G37*
G36*
X-58475Y38766D02*
X-58308D01*
X-58121Y38724D01*
X-57892Y38703D01*
X-57663Y38662D01*
X-57121Y38537D01*
X-56559Y38349D01*
X-56267Y38245D01*
X-55955Y38099D01*
X-55663Y37954D01*
X-55371Y37766D01*
X-55351Y37745D01*
X-55309Y37724D01*
X-55226Y37662D01*
X-55121Y37579D01*
X-54976Y37475D01*
X-54830Y37350D01*
X-54663Y37204D01*
X-54497Y37037D01*
X-54309Y36850D01*
X-54101Y36621D01*
X-53913Y36391D01*
X-53705Y36142D01*
X-53518Y35850D01*
X-53330Y35558D01*
X-53164Y35225D01*
X-52997Y34892D01*
Y34871D01*
X-52955Y34809D01*
X-52914Y34704D01*
X-52872Y34538D01*
X-52810Y34350D01*
X-52747Y34121D01*
X-52664Y33851D01*
X-52580Y33517D01*
X-52518Y33163D01*
X-52435Y32767D01*
X-52372Y32309D01*
X-52310Y31830D01*
X-52268Y31309D01*
X-52226Y30747D01*
X-52185Y30143D01*
Y29497D01*
Y29456D01*
Y29331D01*
Y29143D01*
X-52206Y28893D01*
Y28581D01*
X-52226Y28206D01*
X-52247Y27810D01*
X-52289Y27373D01*
X-52330Y26915D01*
X-52372Y26436D01*
X-52518Y25457D01*
X-52726Y24499D01*
X-52851Y24061D01*
X-52997Y23624D01*
Y23603D01*
X-53039Y23520D01*
X-53080Y23416D01*
X-53143Y23270D01*
X-53226Y23082D01*
X-53330Y22874D01*
X-53455Y22645D01*
X-53580Y22395D01*
X-53913Y21874D01*
X-54330Y21312D01*
X-54809Y20791D01*
X-55080Y20541D01*
X-55371Y20312D01*
X-55392Y20292D01*
X-55434Y20271D01*
X-55538Y20208D01*
X-55642Y20146D01*
X-55809Y20062D01*
X-55975Y19958D01*
X-56184Y19854D01*
X-56434Y19750D01*
X-56684Y19646D01*
X-56975Y19542D01*
X-57267Y19458D01*
X-57600Y19354D01*
X-58308Y19229D01*
X-58683Y19208D01*
X-59079Y19188D01*
X-59287D01*
X-59454Y19208D01*
X-59641Y19229D01*
X-59870Y19250D01*
X-60120Y19292D01*
X-60391Y19354D01*
X-60974Y19500D01*
X-61266Y19604D01*
X-61578Y19708D01*
X-61891Y19854D01*
X-62203Y20021D01*
X-62495Y20208D01*
X-62765Y20437D01*
X-62786Y20458D01*
X-62828Y20500D01*
X-62890Y20562D01*
X-62994Y20666D01*
X-63099Y20791D01*
X-63224Y20958D01*
X-63369Y21145D01*
X-63515Y21354D01*
X-63661Y21583D01*
X-63807Y21854D01*
X-63932Y22145D01*
X-64078Y22458D01*
X-64202Y22791D01*
X-64307Y23145D01*
X-64390Y23541D01*
X-64452Y23957D01*
X-62182Y24145D01*
Y24124D01*
X-62161Y24082D01*
Y23999D01*
X-62120Y23874D01*
X-62099Y23749D01*
X-62057Y23603D01*
X-61953Y23249D01*
X-61807Y22874D01*
X-61620Y22499D01*
X-61370Y22145D01*
X-61245Y21978D01*
X-61099Y21833D01*
X-61058Y21812D01*
X-60953Y21729D01*
X-60766Y21604D01*
X-60537Y21479D01*
X-60224Y21354D01*
X-59870Y21229D01*
X-59475Y21145D01*
X-59016Y21125D01*
X-58829D01*
X-58621Y21145D01*
X-58371Y21187D01*
X-58079Y21250D01*
X-57767Y21333D01*
X-57433Y21437D01*
X-57121Y21604D01*
X-57079Y21625D01*
X-56975Y21687D01*
X-56829Y21812D01*
X-56642Y21958D01*
X-56434Y22145D01*
X-56205Y22374D01*
X-55975Y22645D01*
X-55767Y22937D01*
X-55746Y22978D01*
X-55684Y23082D01*
X-55580Y23270D01*
X-55455Y23541D01*
X-55330Y23853D01*
X-55184Y24228D01*
X-55038Y24686D01*
X-54892Y25186D01*
Y25207D01*
X-54872Y25248D01*
X-54851Y25332D01*
X-54830Y25436D01*
X-54809Y25561D01*
X-54788Y25707D01*
X-54747Y25894D01*
X-54705Y26082D01*
X-54642Y26519D01*
X-54601Y26998D01*
X-54559Y27519D01*
X-54538Y28060D01*
Y28102D01*
Y28185D01*
Y28331D01*
Y28519D01*
X-54580Y28498D01*
X-54601Y28435D01*
X-54663Y28352D01*
X-54830Y28144D01*
X-55038Y27894D01*
X-55330Y27602D01*
X-55663Y27290D01*
X-56038Y26998D01*
X-56475Y26707D01*
X-56496D01*
X-56538Y26686D01*
X-56600Y26644D01*
X-56684Y26602D01*
X-56809Y26540D01*
X-56933Y26498D01*
X-57267Y26373D01*
X-57663Y26228D01*
X-58121Y26123D01*
X-58621Y26040D01*
X-59141Y26019D01*
X-59245D01*
X-59370Y26040D01*
X-59537D01*
X-59745Y26082D01*
X-59974Y26102D01*
X-60245Y26165D01*
X-60537Y26228D01*
X-60849Y26332D01*
X-61162Y26436D01*
X-61495Y26581D01*
X-61828Y26748D01*
X-62182Y26936D01*
X-62515Y27165D01*
X-62849Y27436D01*
X-63161Y27727D01*
X-63182Y27748D01*
X-63224Y27810D01*
X-63307Y27915D01*
X-63411Y28040D01*
X-63536Y28206D01*
X-63682Y28414D01*
X-63828Y28664D01*
X-63973Y28956D01*
X-64140Y29248D01*
X-64286Y29602D01*
X-64432Y29976D01*
X-64557Y30372D01*
X-64661Y30810D01*
X-64744Y31289D01*
X-64786Y31768D01*
X-64806Y32288D01*
Y32330D01*
Y32413D01*
X-64786Y32580D01*
Y32767D01*
X-64744Y33017D01*
X-64723Y33309D01*
X-64661Y33621D01*
X-64598Y33976D01*
X-64494Y34330D01*
X-64390Y34725D01*
X-64244Y35121D01*
X-64078Y35496D01*
X-63890Y35892D01*
X-63661Y36287D01*
X-63390Y36641D01*
X-63099Y36995D01*
X-63078Y37016D01*
X-63015Y37079D01*
X-62911Y37162D01*
X-62786Y37266D01*
X-62620Y37412D01*
X-62411Y37558D01*
X-62182Y37724D01*
X-61911Y37891D01*
X-61620Y38058D01*
X-61287Y38224D01*
X-60932Y38370D01*
X-60558Y38516D01*
X-60141Y38620D01*
X-59704Y38703D01*
X-59266Y38766D01*
X-58787Y38787D01*
X-58600D01*
X-58475Y38766D01*
D02*
G37*
G36*
X-17131Y19500D02*
X-19485D01*
Y34517D01*
X-19526Y34475D01*
X-19631Y34371D01*
X-19818Y34225D01*
X-20089Y34017D01*
X-20401Y33767D01*
X-20797Y33496D01*
X-21234Y33205D01*
X-21734Y32892D01*
X-21755D01*
X-21797Y32851D01*
X-21859Y32809D01*
X-21963Y32767D01*
X-22088Y32684D01*
X-22234Y32622D01*
X-22567Y32434D01*
X-22942Y32247D01*
X-23359Y32039D01*
X-23796Y31851D01*
X-24213Y31684D01*
Y33955D01*
X-24192Y33976D01*
X-24129Y33996D01*
X-24025Y34059D01*
X-23879Y34121D01*
X-23713Y34205D01*
X-23505Y34330D01*
X-23275Y34455D01*
X-23046Y34580D01*
X-22505Y34913D01*
X-21922Y35308D01*
X-21318Y35725D01*
X-20755Y36204D01*
X-20735Y36225D01*
X-20693Y36267D01*
X-20610Y36329D01*
X-20505Y36433D01*
X-20401Y36558D01*
X-20255Y36683D01*
X-19943Y37037D01*
X-19589Y37412D01*
X-19235Y37850D01*
X-18922Y38308D01*
X-18652Y38787D01*
X-17131D01*
Y19500D01*
D02*
G37*
G36*
X-93470Y73757D02*
X-91196Y71172D01*
X-93804Y68066D01*
X-96023Y68802D01*
X-96487Y69328D01*
X-96643Y69506D01*
X-96643D01*
X-96644Y69506D01*
X-96644Y69506D01*
X-97026Y69940D01*
X-96938Y69595D01*
Y69595D01*
X-96920Y69524D01*
X-96920Y69524D01*
X-96861Y69373D01*
X-96861D01*
X-96722Y69023D01*
X-96446Y68447D01*
X-96107Y67835D01*
X-95694Y67179D01*
X-95222Y66483D01*
X-94956Y66118D01*
X-94849Y65972D01*
X-94819Y65930D01*
X-94692Y65756D01*
X-94580Y65926D01*
X-94451Y66119D01*
X-94369Y66237D01*
X-94259Y66393D01*
X-94143Y66553D01*
X-94027Y66703D01*
X-93907Y66859D01*
X-93786Y67009D01*
X-93666Y67154D01*
X-93535Y67304D01*
X-93410Y67450D01*
X-93150Y67730D01*
X-93015Y67870D01*
X-92880Y68006D01*
X-92600Y68276D01*
X-92310Y68537D01*
X-92165Y68662D01*
X-92016Y68787D01*
X-91776Y68980D01*
X-91717Y69028D01*
X-91562Y69143D01*
X-91749Y69258D01*
X-91815Y69299D01*
X-91856Y69546D01*
X-91566Y69895D01*
X-91316Y69744D01*
X-90997Y69549D01*
X-90761Y69704D01*
X-90526Y69850D01*
X-90285Y69995D01*
X-90040Y70135D01*
X-89795Y70265D01*
X-89295Y70516D01*
X-89040Y70631D01*
X-88781Y70741D01*
X-88522Y70847D01*
X-88263Y70947D01*
X-87999Y71037D01*
X-87736Y71127D01*
X-87467Y71207D01*
X-87199Y71282D01*
X-86931Y71353D01*
X-86663Y71418D01*
X-86391Y71473D01*
X-86118Y71523D01*
X-85841Y71568D01*
X-85569Y71608D01*
X-85293Y71643D01*
X-85021Y71668D01*
X-84745Y71688D01*
X-84469Y71703D01*
X-84193Y71713D01*
X-83917D01*
X-83642Y71708D01*
X-83367Y71698D01*
X-83092Y71683D01*
X-82817Y71663D01*
X-82542Y71633D01*
X-82273Y71598D01*
X-81999Y71558D01*
X-81461Y71458D01*
X-81193Y71398D01*
X-80930Y71333D01*
X-80667Y71262D01*
X-80141Y71102D01*
X-79884Y71012D01*
X-79632Y70917D01*
X-79374Y70816D01*
X-79128Y70706D01*
X-78876Y70596D01*
X-78635Y70481D01*
X-78389Y70356D01*
X-78153Y70225D01*
X-77681Y69955D01*
X-77451Y69809D01*
X-77226Y69659D01*
X-77006Y69504D01*
X-76786Y69344D01*
X-76571Y69178D01*
X-76361Y69008D01*
X-76152Y68833D01*
X-75953Y68652D01*
X-75754Y68467D01*
X-75560Y68276D01*
X-75367Y68081D01*
X-75183Y67886D01*
X-75005Y67685D01*
X-74827Y67475D01*
X-74659Y67264D01*
X-74491Y67054D01*
X-74328Y66833D01*
X-74176Y66613D01*
X-74023Y66388D01*
X-73876Y66157D01*
X-73739Y65927D01*
X-73601Y65691D01*
X-73348Y65210D01*
X-73231Y64965D01*
X-73120Y64714D01*
X-73013Y64464D01*
X-72912Y64213D01*
X-72815Y63958D01*
X-72724Y63702D01*
X-72643Y63442D01*
X-72562Y63181D01*
X-72491Y62916D01*
X-72425Y62650D01*
X-72364Y62385D01*
X-72263Y61843D01*
X-72222Y61573D01*
X-72187Y61302D01*
X-72161Y61032D01*
X-72136Y60756D01*
X-72120Y60481D01*
X-72110Y60205D01*
X-72104Y59929D01*
X-72104Y59654D01*
X-72113Y59378D01*
X-72128Y59103D01*
X-72148Y58827D01*
X-72172Y58552D01*
X-72207Y58276D01*
X-72247Y58006D01*
X-72291Y57730D01*
X-72341Y57460D01*
X-72400Y57189D01*
X-72460Y56919D01*
X-72530Y56648D01*
X-72604Y56377D01*
X-72773Y55846D01*
X-72867Y55586D01*
X-72966Y55325D01*
X-73071Y55065D01*
X-73180Y54809D01*
X-73294Y54554D01*
X-73542Y54053D01*
X-73676Y53807D01*
X-73815Y53567D01*
X-73958Y53326D01*
X-73578Y52585D01*
X-73292Y51888D01*
X-73109Y51247D01*
X-73049Y50801D01*
X-73054Y50365D01*
X-73154Y49960D01*
X-73352Y49599D01*
X-73647Y49313D01*
X-74030Y49113D01*
X-74475Y49008D01*
X-74966Y48987D01*
X-75511Y49038D01*
X-76103Y49158D01*
X-76733Y49338D01*
X-77411Y49584D01*
X-77631Y49428D01*
X-77857Y49278D01*
X-78083Y49133D01*
X-78313Y48987D01*
X-78543Y48852D01*
X-78778Y48722D01*
X-79018Y48592D01*
X-79258Y48471D01*
X-79497Y48356D01*
X-79747Y48241D01*
X-79991Y48136D01*
X-80240Y48036D01*
X-80494Y47940D01*
X-80748Y47850D01*
X-81001Y47765D01*
X-81254Y47685D01*
X-81513Y47610D01*
X-81770Y47545D01*
X-82033Y47480D01*
X-82296Y47424D01*
X-82820Y47324D01*
X-83082Y47284D01*
X-83349Y47254D01*
X-83615Y47224D01*
X-83877Y47199D01*
X-84409Y47169D01*
X-84675Y47164D01*
X-84940D01*
X-85205Y47169D01*
X-85735Y47199D01*
X-86000Y47224D01*
X-86265Y47249D01*
X-86524Y47284D01*
X-86788Y47324D01*
X-87047Y47369D01*
X-87306Y47419D01*
X-87564Y47480D01*
X-87818Y47540D01*
X-88071Y47610D01*
X-88324Y47680D01*
X-88577Y47760D01*
X-88824Y47845D01*
X-89071Y47935D01*
X-89319Y48031D01*
X-89561Y48131D01*
X-89797Y48236D01*
X-90270Y48467D01*
X-90502Y48587D01*
X-90733Y48712D01*
X-90958Y48847D01*
X-91179Y48983D01*
X-91400Y49123D01*
X-91615Y49268D01*
X-91830Y49423D01*
X-92040Y49579D01*
X-92245Y49739D01*
X-92450Y49904D01*
X-92649Y50070D01*
X-92844Y50245D01*
X-93033Y50426D01*
X-93217Y50606D01*
X-93401Y50791D01*
X-93579Y50981D01*
X-93753Y51177D01*
X-94090Y51578D01*
X-94248Y51783D01*
X-94406Y51994D01*
X-94559Y52204D01*
X-94701Y52424D01*
X-94844Y52640D01*
X-94981Y52865D01*
X-95114Y53091D01*
X-95241Y53321D01*
X-95363Y53552D01*
X-95480Y53787D01*
X-95592Y54023D01*
X-95699Y54263D01*
X-95796Y54504D01*
X-95893Y54749D01*
X-95984Y54995D01*
X-96071Y55245D01*
X-96147Y55496D01*
X-96224Y55746D01*
X-96290Y56002D01*
X-96351Y56257D01*
X-96412Y56513D01*
X-96463Y56773D01*
X-96509Y57034D01*
X-96545Y57294D01*
X-96581Y57555D01*
X-96612Y57820D01*
X-96633Y58081D01*
X-96649Y58346D01*
X-96665Y58612D01*
X-96670Y58877D01*
X-96662Y59408D01*
X-96653Y59674D01*
X-96633Y59940D01*
X-96585Y60471D01*
X-96551Y60731D01*
X-96506Y60997D01*
X-96462Y61257D01*
X-96413Y61523D01*
X-96354Y61783D01*
X-96225Y62304D01*
X-96151Y62560D01*
X-96072Y62815D01*
X-95988Y63071D01*
X-95800Y63572D01*
X-95701Y63822D01*
X-95592Y64068D01*
X-96528Y65240D01*
X-97351Y66363D01*
X-98040Y67425D01*
X-98596Y68427D01*
X-98857Y68988D01*
X-99069Y69534D01*
X-99221Y70065D01*
X-99304Y70541D01*
X-99318Y71012D01*
X-99247Y71473D01*
X-99082Y71889D01*
X-98881Y72174D01*
X-98623Y72410D01*
X-98315Y72600D01*
X-97935Y72735D01*
X-97527Y72805D01*
X-97100Y72815D01*
X-95689Y74499D01*
X-93470Y73757D01*
D02*
G37*
G36*
X23153Y64561D02*
X24042Y64434D01*
X25312Y64180D01*
X25435Y61341D01*
X25359Y61277D01*
X24296Y61513D01*
X22772Y61767D01*
X21629Y61894D01*
X20379D01*
X19743Y61863D01*
X18496Y61614D01*
X17321Y61128D01*
X16264Y60421D01*
X15792Y59994D01*
X15391Y59551D01*
X14728Y58559D01*
X14271Y57456D01*
X14038Y56286D01*
X14009Y55689D01*
Y55032D01*
X14009Y55032D01*
X14009D01*
X14034Y54522D01*
X14233Y53522D01*
X14623Y52579D01*
X15190Y51731D01*
X15533Y51353D01*
X15880Y51038D01*
X16657Y50519D01*
X17521Y50161D01*
X18438Y49979D01*
X18905Y49956D01*
X21375D01*
X23280Y50210D01*
X23915Y50337D01*
X24423Y50464D01*
X25100Y50577D01*
X25171Y50506D01*
X24677Y47543D01*
X22772Y47289D01*
X21375Y47162D01*
X17909D01*
X16067Y47528D01*
X14331Y48247D01*
X12768Y49292D01*
X12104Y49956D01*
X11831Y50229D01*
X11382Y50677D01*
X10678Y51732D01*
X10192Y52904D01*
X9945Y54148D01*
Y55994D01*
X9945Y55994D01*
X9945Y55994D01*
Y56763D01*
X10245Y58271D01*
X10833Y59691D01*
X11687Y60969D01*
X12231Y61513D01*
X12607Y61889D01*
X13431Y62565D01*
X14316Y63157D01*
X15256Y63659D01*
X16240Y64067D01*
X17259Y64376D01*
X18303Y64583D01*
X19363Y64688D01*
X21121D01*
X23153Y64561D01*
D02*
G37*
G36*
X-34785Y64615D02*
X-32410Y64615D01*
X-32410Y64615D01*
X-32317Y64605D01*
X-30118Y64360D01*
D01*
X-30025Y64344D01*
X-29452Y64239D01*
X-29421Y64218D01*
X-29372Y64180D01*
X-29363Y64083D01*
X-29126Y61362D01*
X-29119Y61282D01*
X-29139Y61257D01*
X-29172Y61227D01*
X-29202Y61209D01*
X-29277Y61222D01*
X-29850Y61318D01*
X-29945Y61333D01*
X-30032Y61357D01*
X-31342Y61714D01*
X-32606Y61967D01*
X-33861D01*
X-34068Y61957D01*
X-34474Y61876D01*
X-34857Y61718D01*
X-35201Y61488D01*
X-35355Y61349D01*
X-35355D01*
X-35356Y61348D01*
X-35356Y61348D01*
X-35632Y61072D01*
X-35632D01*
X-35709Y60987D01*
X-35837Y60796D01*
X-35925Y60583D01*
X-35970Y60358D01*
X-35975Y60243D01*
Y60199D01*
X-35975Y60199D01*
X-35975D01*
X-35967Y60035D01*
X-35903Y59712D01*
X-35778Y59408D01*
X-35595Y59135D01*
X-35487Y59014D01*
X-35487Y59014D01*
X-35483Y59011D01*
X-35407Y58948D01*
X-30915Y55204D01*
X-30915Y55204D01*
X-30914Y55204D01*
X-30844Y55134D01*
X-29768Y54058D01*
X-29768Y54058D01*
X-29768Y54058D01*
X-29583Y53873D01*
X-29293Y53438D01*
X-29093Y52955D01*
X-28990Y52442D01*
Y51932D01*
X-28990D01*
X-28990Y51456D01*
X-29176Y50525D01*
X-29539Y49647D01*
X-30067Y48857D01*
X-30403Y48521D01*
X-30709Y48215D01*
X-31428Y47735D01*
X-32227Y47404D01*
X-33075Y47235D01*
X-33507Y47235D01*
X-37267D01*
X-37368Y47235D01*
X-37467Y47244D01*
X-38828Y47362D01*
X-38828Y47362D01*
X-38829Y47362D01*
X-38832Y47363D01*
X-38834Y47363D01*
X-40104Y47617D01*
X-40105Y47617D01*
X-40622Y47747D01*
X-40637Y47756D01*
X-40648Y47768D01*
X-40654Y47784D01*
X-40655Y47792D01*
X-40907Y50823D01*
X-40884Y50851D01*
X-40857Y50874D01*
X-40827Y50894D01*
X-39791Y50664D01*
X-39697Y50642D01*
X-39614Y50615D01*
X-38556Y50262D01*
X-36914Y50010D01*
X-35013D01*
X-34808Y50020D01*
X-34406Y50100D01*
X-34028Y50256D01*
X-33687Y50484D01*
X-33607Y50556D01*
X-33535Y50621D01*
X-33533Y50624D01*
X-33467Y50696D01*
X-33421Y50747D01*
X-33236Y51025D01*
X-33108Y51333D01*
X-33043Y51660D01*
X-33035Y51826D01*
X-33041Y51949D01*
X-33089Y52190D01*
X-33183Y52417D01*
X-33319Y52622D01*
X-33400Y52712D01*
X-33400Y52712D01*
X-33403Y52715D01*
X-33456Y52761D01*
X-33472Y52774D01*
X-33475Y52776D01*
X-37969Y56646D01*
X-37969Y56646D01*
X-37969D01*
X-38044Y56711D01*
X-38987Y57536D01*
X-38988Y57537D01*
X-38988Y57538D01*
X-39143Y57693D01*
X-39144Y57693D01*
X-39382Y57932D01*
X-39757Y58493D01*
X-40015Y59116D01*
X-40147Y59778D01*
X-40147Y60330D01*
X-40147Y60330D01*
X-40147Y60422D01*
X-40147Y60677D01*
X-40012Y61357D01*
X-39746Y61999D01*
X-39361Y62576D01*
X-38689Y63247D01*
X-37686Y63918D01*
X-36571Y64379D01*
X-35388Y64615D01*
X-34785Y64615D01*
D02*
G37*
G36*
X-110080Y72369D02*
X-109980Y72368D01*
X-109886Y72365D01*
X-107085Y72246D01*
X-106983Y72241D01*
X-106887Y72232D01*
X-105812Y72124D01*
X-105746Y72118D01*
X-105648Y72102D01*
X-105633Y72100D01*
X-105617Y72097D01*
X-105519Y72079D01*
X-103003Y71622D01*
X-102907Y71604D01*
X-102814Y71573D01*
X-102240Y71381D01*
X-102183Y71362D01*
X-102171Y71353D01*
X-102132Y71319D01*
X-102107Y71259D01*
X-102105Y71200D01*
X-101982Y67256D01*
X-102001Y67235D01*
X-102040Y67201D01*
X-102066Y67186D01*
X-102681Y67309D01*
X-102681Y67309D01*
X-102683Y67309D01*
X-102684Y67310D01*
X-102685Y67310D01*
X-104754Y67919D01*
X-104841Y67944D01*
X-104841Y67944D01*
X-104937Y67966D01*
X-104937Y67966D01*
X-107031Y68431D01*
X-107031Y68431D01*
X-107127Y68452D01*
X-107127Y68452D01*
X-108261Y68578D01*
X-109528D01*
X-110304Y68540D01*
X-111826Y68237D01*
X-113260Y67643D01*
X-114550Y66782D01*
X-115126Y66260D01*
X-115127Y66259D01*
X-115358Y66028D01*
Y66028D01*
X-115358Y66028D01*
X-115359Y66027D01*
X-115921Y65407D01*
X-116850Y64016D01*
X-117489Y62472D01*
X-117815Y60832D01*
X-117857Y59996D01*
Y58530D01*
X-117857Y58530D01*
X-117857D01*
X-117819Y57770D01*
X-117523Y56280D01*
X-116942Y54877D01*
X-116098Y53614D01*
X-115654Y53124D01*
X-115587Y53050D01*
X-115586Y53049D01*
X-115514Y52984D01*
X-115212Y52709D01*
X-114372Y52149D01*
X-113440Y51762D01*
X-112450Y51565D01*
X-111945Y51541D01*
X-109152D01*
X-108492Y51651D01*
X-108394Y51667D01*
X-108297Y51683D01*
X-107729Y51778D01*
X-107729Y51778D01*
X-107635Y51793D01*
Y51793D01*
X-107632Y51794D01*
X-107632Y51794D01*
X-106751Y52046D01*
X-106751Y52046D01*
X-106749Y52046D01*
Y52047D01*
X-106658Y52077D01*
X-106405Y52161D01*
X-106155Y58164D01*
X-110009D01*
X-110023Y58173D01*
X-110080Y58232D01*
X-110089Y58247D01*
X-109963Y61776D01*
X-109920Y61828D01*
X-101429D01*
X-101411Y61816D01*
X-101357Y61759D01*
X-101348Y61745D01*
X-101350Y61672D01*
X-101855Y48936D01*
X-101861Y48920D01*
X-101872Y48906D01*
X-101887Y48897D01*
X-103927Y48387D01*
Y48387D01*
X-103929Y48386D01*
X-103932Y48386D01*
X-106472Y48005D01*
Y48005D01*
X-106474Y48004D01*
X-106475D01*
X-107617Y47877D01*
X-107618Y47877D01*
X-107620Y47877D01*
X-109652Y47750D01*
X-109652Y47750D01*
Y47750D01*
X-109750Y47750D01*
X-111484D01*
X-112083Y47750D01*
X-113276Y47867D01*
X-114451Y48101D01*
X-115598Y48449D01*
X-116705Y48907D01*
X-117761Y49472D01*
X-118757Y50138D01*
X-119684Y50898D01*
X-120107Y51322D01*
X-120107Y51322D01*
X-120715Y51929D01*
X-121670Y53359D01*
X-122328Y54947D01*
X-122663Y56632D01*
Y60226D01*
X-122663Y60226D01*
X-122663Y60226D01*
X-122663Y60804D01*
X-122550Y61954D01*
X-122324Y63088D01*
X-121989Y64193D01*
X-121547Y65261D01*
X-121002Y66280D01*
X-120360Y67241D01*
X-119627Y68134D01*
X-118765Y68997D01*
X-117773Y69811D01*
X-116705Y70524D01*
X-115574Y71129D01*
X-114388Y71620D01*
X-113160Y71992D01*
X-111901Y72243D01*
X-110624Y72369D01*
X-110080Y72369D01*
D02*
G37*
G36*
X-15262Y64175D02*
X-14384Y63812D01*
X-13594Y63284D01*
X-13258Y62948D01*
X-12983Y62672D01*
X-12550Y62024D01*
X-12251Y61304D01*
X-12099Y60540D01*
X-12099Y60150D01*
X-12099Y59858D01*
X-12099Y59858D01*
X-12099Y59340D01*
X-12301Y58325D01*
X-12698Y57368D01*
X-13273Y56507D01*
X-14066Y55714D01*
X-15069Y55044D01*
X-16183Y54582D01*
X-17366Y54347D01*
X-17970Y54347D01*
X-20500D01*
X-20525Y54359D01*
X-20535Y54363D01*
X-20587Y54389D01*
X-20588Y54389D01*
X-20611Y54486D01*
X-21201Y56964D01*
X-21218Y57036D01*
X-21203Y57062D01*
X-21174Y57099D01*
X-21150Y57122D01*
X-18385D01*
X-18178Y57132D01*
X-17772Y57213D01*
X-17390Y57371D01*
X-17045Y57601D01*
X-16965Y57673D01*
X-16891Y57740D01*
X-16828Y57803D01*
X-16820Y57812D01*
X-16660Y57989D01*
X-16382Y58405D01*
X-16190Y58867D01*
X-16093Y59358D01*
X-16080Y59608D01*
X-16091Y59828D01*
X-16177Y60259D01*
X-16345Y60666D01*
X-16589Y61031D01*
X-16670Y61121D01*
X-16737Y61195D01*
X-16737Y61195D01*
X-16739Y61196D01*
X-16739Y61197D01*
X-16809Y61260D01*
X-16868Y61313D01*
X-17155Y61505D01*
X-17475Y61637D01*
X-17814Y61705D01*
X-17898Y61709D01*
X-17995Y61714D01*
X-17996Y61714D01*
X-17996Y61714D01*
X-17999Y61713D01*
X-18001Y61713D01*
X-18003Y61713D01*
X-21753D01*
X-22133Y47404D01*
X-22141Y47385D01*
X-22156Y47370D01*
X-22176Y47362D01*
X-26096D01*
X-26110Y47372D01*
X-26167Y47431D01*
X-26176Y47445D01*
X-25542Y64309D01*
X-25542D01*
X-25463Y64361D01*
X-16669D01*
Y64361D01*
X-16194Y64361D01*
X-15262Y64175D01*
D02*
G37*
G36*
X-44159Y70839D02*
X-44665Y47416D01*
X-48911D01*
X-48981Y47488D01*
X-48475Y66212D01*
X-54952Y47416D01*
X-59397D01*
X-64223Y66212D01*
X-65239Y47416D01*
X-69357D01*
X-69425Y47489D01*
X-67652Y70911D01*
X-61175D01*
X-56730Y53512D01*
X-50761Y70911D01*
X-44229D01*
X-44159Y70839D01*
D02*
G37*
%LPC*%
G36*
X-73325Y29893D02*
X-73471D01*
X-73596Y29872D01*
X-73721Y29852D01*
X-73888Y29831D01*
X-74262Y29747D01*
X-74700Y29602D01*
X-75158Y29393D01*
X-75387Y29268D01*
X-75616Y29123D01*
X-75845Y28935D01*
X-76054Y28727D01*
X-76074Y28706D01*
X-76095Y28664D01*
X-76158Y28602D01*
X-76220Y28519D01*
X-76304Y28414D01*
X-76408Y28269D01*
X-76512Y28102D01*
X-76595Y27915D01*
X-76699Y27727D01*
X-76803Y27498D01*
X-76991Y26977D01*
X-77116Y26394D01*
X-77137Y26061D01*
X-77158Y25728D01*
Y25707D01*
Y25665D01*
Y25603D01*
Y25519D01*
X-77137Y25415D01*
Y25290D01*
X-77095Y24978D01*
X-77032Y24624D01*
X-76949Y24228D01*
X-76824Y23811D01*
X-76658Y23395D01*
Y23374D01*
X-76637Y23353D01*
X-76595Y23291D01*
X-76554Y23207D01*
X-76449Y23020D01*
X-76283Y22770D01*
X-76074Y22499D01*
X-75824Y22229D01*
X-75554Y21958D01*
X-75220Y21708D01*
X-75200D01*
X-75179Y21687D01*
X-75054Y21625D01*
X-74866Y21520D01*
X-74616Y21416D01*
X-74325Y21312D01*
X-73992Y21208D01*
X-73617Y21145D01*
X-73242Y21125D01*
X-73096D01*
X-72992Y21145D01*
X-72846Y21166D01*
X-72700Y21187D01*
X-72346Y21270D01*
X-71950Y21416D01*
X-71721Y21520D01*
X-71513Y21625D01*
X-71284Y21770D01*
X-71076Y21916D01*
X-70867Y22104D01*
X-70659Y22312D01*
X-70638Y22333D01*
X-70617Y22374D01*
X-70555Y22437D01*
X-70493Y22541D01*
X-70409Y22666D01*
X-70326Y22812D01*
X-70222Y22978D01*
X-70118Y23187D01*
X-70013Y23395D01*
X-69909Y23645D01*
X-69826Y23916D01*
X-69743Y24207D01*
X-69680Y24520D01*
X-69618Y24874D01*
X-69597Y25228D01*
X-69576Y25603D01*
Y25623D01*
Y25686D01*
Y25790D01*
X-69597Y25936D01*
X-69618Y26102D01*
X-69639Y26290D01*
X-69659Y26498D01*
X-69701Y26727D01*
X-69826Y27227D01*
X-70013Y27748D01*
X-70139Y28019D01*
X-70284Y28269D01*
X-70451Y28498D01*
X-70638Y28727D01*
X-70659Y28748D01*
X-70680Y28768D01*
X-70743Y28831D01*
X-70826Y28914D01*
X-70930Y28998D01*
X-71055Y29102D01*
X-71367Y29310D01*
X-71763Y29518D01*
X-72221Y29706D01*
X-72742Y29852D01*
X-73034Y29872D01*
X-73325Y29893D01*
D02*
G37*
G36*
X-43458D02*
X-43604D01*
X-43729Y29872D01*
X-43854Y29852D01*
X-44020Y29831D01*
X-44395Y29747D01*
X-44832Y29602D01*
X-45291Y29393D01*
X-45520Y29268D01*
X-45749Y29123D01*
X-45978Y28935D01*
X-46186Y28727D01*
X-46207Y28706D01*
X-46228Y28664D01*
X-46290Y28602D01*
X-46353Y28519D01*
X-46436Y28414D01*
X-46540Y28269D01*
X-46645Y28102D01*
X-46728Y27915D01*
X-46832Y27727D01*
X-46936Y27498D01*
X-47123Y26977D01*
X-47249Y26394D01*
X-47269Y26061D01*
X-47290Y25728D01*
Y25707D01*
Y25665D01*
Y25603D01*
Y25519D01*
X-47269Y25415D01*
Y25290D01*
X-47228Y24978D01*
X-47165Y24624D01*
X-47082Y24228D01*
X-46957Y23811D01*
X-46790Y23395D01*
Y23374D01*
X-46769Y23353D01*
X-46728Y23291D01*
X-46686Y23207D01*
X-46582Y23020D01*
X-46415Y22770D01*
X-46207Y22499D01*
X-45957Y22229D01*
X-45686Y21958D01*
X-45353Y21708D01*
X-45332D01*
X-45311Y21687D01*
X-45187Y21625D01*
X-44999Y21520D01*
X-44749Y21416D01*
X-44458Y21312D01*
X-44124Y21208D01*
X-43749Y21145D01*
X-43375Y21125D01*
X-43229D01*
X-43125Y21145D01*
X-42979Y21166D01*
X-42833Y21187D01*
X-42479Y21270D01*
X-42083Y21416D01*
X-41854Y21520D01*
X-41646Y21625D01*
X-41417Y21770D01*
X-41208Y21916D01*
X-41000Y22104D01*
X-40792Y22312D01*
X-40771Y22333D01*
X-40750Y22374D01*
X-40688Y22437D01*
X-40625Y22541D01*
X-40542Y22666D01*
X-40459Y22812D01*
X-40354Y22978D01*
X-40250Y23187D01*
X-40146Y23395D01*
X-40042Y23645D01*
X-39959Y23916D01*
X-39875Y24207D01*
X-39813Y24520D01*
X-39750Y24874D01*
X-39730Y25228D01*
X-39709Y25603D01*
Y25623D01*
Y25686D01*
Y25790D01*
X-39730Y25936D01*
X-39750Y26102D01*
X-39771Y26290D01*
X-39792Y26498D01*
X-39834Y26727D01*
X-39959Y27227D01*
X-40146Y27748D01*
X-40271Y28019D01*
X-40417Y28269D01*
X-40584Y28498D01*
X-40771Y28727D01*
X-40792Y28748D01*
X-40813Y28768D01*
X-40875Y28831D01*
X-40958Y28914D01*
X-41063Y28998D01*
X-41188Y29102D01*
X-41500Y29310D01*
X-41896Y29518D01*
X-42354Y29706D01*
X-42875Y29852D01*
X-43166Y29872D01*
X-43458Y29893D01*
D02*
G37*
G36*
X-886Y61768D02*
X-3645Y56478D01*
X943D01*
X-886Y61768D01*
D02*
G37*
G36*
X-88446Y36829D02*
X-88592D01*
X-88717Y36808D01*
X-88842Y36787D01*
X-89009Y36766D01*
X-89383Y36662D01*
X-89800Y36496D01*
X-90008Y36391D01*
X-90238Y36246D01*
X-90446Y36100D01*
X-90654Y35912D01*
X-90862Y35704D01*
X-91050Y35454D01*
X-91071Y35433D01*
X-91091Y35371D01*
X-91154Y35267D01*
X-91237Y35100D01*
X-91320Y34892D01*
X-91425Y34642D01*
X-91550Y34350D01*
X-91654Y33976D01*
X-91758Y33559D01*
X-91883Y33101D01*
X-91987Y32559D01*
X-92070Y31976D01*
X-92154Y31330D01*
X-92195Y30601D01*
X-92237Y29831D01*
X-92258Y28977D01*
Y28956D01*
Y28914D01*
Y28852D01*
Y28768D01*
Y28664D01*
Y28519D01*
X-92237Y28206D01*
X-92216Y27831D01*
X-92195Y27394D01*
X-92175Y26915D01*
X-92112Y26415D01*
X-91987Y25353D01*
X-91904Y24832D01*
X-91800Y24311D01*
X-91675Y23832D01*
X-91508Y23395D01*
X-91341Y22999D01*
X-91154Y22666D01*
X-91133Y22645D01*
X-91112Y22603D01*
X-91050Y22520D01*
X-90946Y22416D01*
X-90842Y22312D01*
X-90716Y22187D01*
X-90404Y21895D01*
X-90008Y21604D01*
X-89529Y21374D01*
X-89279Y21270D01*
X-89009Y21187D01*
X-88717Y21145D01*
X-88426Y21125D01*
X-88363D01*
X-88259Y21145D01*
X-88155D01*
X-88009Y21166D01*
X-87842Y21208D01*
X-87467Y21312D01*
X-87259Y21395D01*
X-87051Y21500D01*
X-86822Y21625D01*
X-86593Y21791D01*
X-86363Y21958D01*
X-86134Y22166D01*
X-85905Y22416D01*
X-85697Y22687D01*
X-85676Y22708D01*
X-85655Y22770D01*
X-85593Y22853D01*
X-85530Y22999D01*
X-85426Y23187D01*
X-85343Y23437D01*
X-85239Y23728D01*
X-85135Y24061D01*
X-85030Y24457D01*
X-84926Y24915D01*
X-84822Y25415D01*
X-84739Y25998D01*
X-84676Y26644D01*
X-84614Y27352D01*
X-84593Y28123D01*
X-84572Y28977D01*
Y28998D01*
Y29039D01*
Y29102D01*
Y29185D01*
Y29289D01*
Y29414D01*
X-84593Y29747D01*
X-84614Y30122D01*
X-84635Y30560D01*
X-84656Y31039D01*
X-84718Y31539D01*
X-84843Y32601D01*
X-84947Y33122D01*
X-85051Y33621D01*
X-85176Y34100D01*
X-85322Y34559D01*
X-85489Y34934D01*
X-85697Y35267D01*
X-85718Y35288D01*
X-85739Y35329D01*
X-85801Y35413D01*
X-85884Y35517D01*
X-86009Y35621D01*
X-86134Y35767D01*
X-86280Y35912D01*
X-86447Y36058D01*
X-86842Y36329D01*
X-87322Y36579D01*
X-87571Y36683D01*
X-87863Y36766D01*
X-88134Y36808D01*
X-88446Y36829D01*
D02*
G37*
G36*
X-103380D02*
X-103526D01*
X-103651Y36808D01*
X-103776Y36787D01*
X-103942Y36766D01*
X-104317Y36662D01*
X-104734Y36496D01*
X-104942Y36391D01*
X-105171Y36246D01*
X-105379Y36100D01*
X-105588Y35912D01*
X-105796Y35704D01*
X-105983Y35454D01*
X-106004Y35433D01*
X-106025Y35371D01*
X-106088Y35267D01*
X-106171Y35100D01*
X-106254Y34892D01*
X-106358Y34642D01*
X-106483Y34350D01*
X-106587Y33976D01*
X-106692Y33559D01*
X-106817Y33101D01*
X-106921Y32559D01*
X-107004Y31976D01*
X-107087Y31330D01*
X-107129Y30601D01*
X-107171Y29831D01*
X-107191Y28977D01*
Y28956D01*
Y28914D01*
Y28852D01*
Y28768D01*
Y28664D01*
Y28519D01*
X-107171Y28206D01*
X-107150Y27831D01*
X-107129Y27394D01*
X-107108Y26915D01*
X-107046Y26415D01*
X-106921Y25353D01*
X-106837Y24832D01*
X-106733Y24311D01*
X-106608Y23832D01*
X-106442Y23395D01*
X-106275Y22999D01*
X-106088Y22666D01*
X-106067Y22645D01*
X-106046Y22603D01*
X-105983Y22520D01*
X-105879Y22416D01*
X-105775Y22312D01*
X-105650Y22187D01*
X-105338Y21895D01*
X-104942Y21604D01*
X-104463Y21374D01*
X-104213Y21270D01*
X-103942Y21187D01*
X-103651Y21145D01*
X-103359Y21125D01*
X-103297D01*
X-103193Y21145D01*
X-103088D01*
X-102943Y21166D01*
X-102776Y21208D01*
X-102401Y21312D01*
X-102193Y21395D01*
X-101985Y21500D01*
X-101755Y21625D01*
X-101526Y21791D01*
X-101297Y21958D01*
X-101068Y22166D01*
X-100839Y22416D01*
X-100631Y22687D01*
X-100610Y22708D01*
X-100589Y22770D01*
X-100527Y22853D01*
X-100464Y22999D01*
X-100360Y23187D01*
X-100277Y23437D01*
X-100172Y23728D01*
X-100068Y24061D01*
X-99964Y24457D01*
X-99860Y24915D01*
X-99756Y25415D01*
X-99673Y25998D01*
X-99610Y26644D01*
X-99548Y27352D01*
X-99527Y28123D01*
X-99506Y28977D01*
Y28998D01*
Y29039D01*
Y29102D01*
Y29185D01*
Y29289D01*
Y29414D01*
X-99527Y29747D01*
X-99548Y30122D01*
X-99568Y30560D01*
X-99589Y31039D01*
X-99652Y31539D01*
X-99777Y32601D01*
X-99881Y33122D01*
X-99985Y33621D01*
X-100110Y34100D01*
X-100256Y34559D01*
X-100422Y34934D01*
X-100631Y35267D01*
X-100652Y35288D01*
X-100672Y35329D01*
X-100735Y35413D01*
X-100818Y35517D01*
X-100943Y35621D01*
X-101068Y35767D01*
X-101214Y35912D01*
X-101381Y36058D01*
X-101776Y36329D01*
X-102255Y36579D01*
X-102505Y36683D01*
X-102797Y36766D01*
X-103068Y36808D01*
X-103380Y36829D01*
D02*
G37*
G36*
X-58496D02*
X-58641D01*
X-58766Y36808D01*
X-58891Y36787D01*
X-59058Y36766D01*
X-59433Y36662D01*
X-59870Y36516D01*
X-60099Y36412D01*
X-60328Y36287D01*
X-60558Y36142D01*
X-60787Y35954D01*
X-61016Y35767D01*
X-61245Y35538D01*
X-61266Y35517D01*
X-61287Y35475D01*
X-61349Y35413D01*
X-61432Y35308D01*
X-61516Y35183D01*
X-61599Y35017D01*
X-61703Y34850D01*
X-61807Y34642D01*
X-61932Y34413D01*
X-62036Y34163D01*
X-62120Y33892D01*
X-62203Y33580D01*
X-62349Y32934D01*
X-62370Y32580D01*
X-62390Y32205D01*
Y32184D01*
Y32122D01*
Y32039D01*
X-62370Y31893D01*
X-62349Y31747D01*
X-62328Y31559D01*
X-62245Y31143D01*
X-62120Y30664D01*
X-61932Y30185D01*
X-61807Y29935D01*
X-61662Y29685D01*
X-61495Y29456D01*
X-61307Y29227D01*
X-61287Y29206D01*
X-61266Y29185D01*
X-61203Y29123D01*
X-61099Y29060D01*
X-60995Y28977D01*
X-60870Y28873D01*
X-60724Y28768D01*
X-60558Y28664D01*
X-60141Y28456D01*
X-59683Y28269D01*
X-59141Y28144D01*
X-58850Y28123D01*
X-58558Y28102D01*
X-58391D01*
X-58287Y28123D01*
X-58141Y28144D01*
X-57996Y28165D01*
X-57621Y28248D01*
X-57183Y28373D01*
X-56746Y28581D01*
X-56517Y28706D01*
X-56288Y28852D01*
X-56080Y29039D01*
X-55871Y29227D01*
X-55851Y29248D01*
X-55830Y29289D01*
X-55767Y29352D01*
X-55705Y29435D01*
X-55621Y29560D01*
X-55538Y29706D01*
X-55434Y29872D01*
X-55330Y30060D01*
X-55246Y30268D01*
X-55142Y30518D01*
X-55059Y30768D01*
X-54976Y31060D01*
X-54913Y31372D01*
X-54851Y31684D01*
X-54830Y32039D01*
X-54809Y32413D01*
Y32434D01*
Y32497D01*
Y32601D01*
X-54830Y32747D01*
X-54851Y32913D01*
X-54872Y33122D01*
X-54892Y33330D01*
X-54934Y33580D01*
X-55080Y34080D01*
X-55267Y34621D01*
X-55392Y34892D01*
X-55538Y35142D01*
X-55705Y35392D01*
X-55892Y35621D01*
X-55913Y35642D01*
X-55934Y35683D01*
X-55996Y35725D01*
X-56080Y35808D01*
X-56184Y35892D01*
X-56309Y35996D01*
X-56621Y36225D01*
X-56996Y36454D01*
X-57454Y36641D01*
X-57683Y36725D01*
X-57954Y36787D01*
X-58225Y36808D01*
X-58496Y36829D01*
D02*
G37*
G36*
X-87479Y66272D02*
X-87612Y66202D01*
X-87744Y66137D01*
X-87877Y66067D01*
X-88005Y65992D01*
X-88138Y65917D01*
X-88261Y65836D01*
X-88389Y65756D01*
X-88512Y65671D01*
X-88636Y65586D01*
X-88759Y65501D01*
X-88877Y65411D01*
X-89114Y65220D01*
X-89228Y65125D01*
X-89341Y65025D01*
X-89559Y64824D01*
X-89668Y64719D01*
X-89772Y64609D01*
X-89876Y64504D01*
X-89980Y64388D01*
X-90079Y64278D01*
X-90267Y64048D01*
X-90362Y63928D01*
X-90451Y63807D01*
X-90540Y63687D01*
X-90625Y63567D01*
X-90709Y63442D01*
X-90789Y63316D01*
X-90869Y63186D01*
X-91018Y62926D01*
X-91088Y62795D01*
X-91158Y62660D01*
X-91222Y62530D01*
X-91287Y62394D01*
X-91347Y62254D01*
X-91402Y62119D01*
X-91457Y61979D01*
X-90063Y60561D01*
X-88575Y59133D01*
X-87006Y57720D01*
X-85766Y56663D01*
X-84504Y55641D01*
X-83230Y54669D01*
X-81964Y53752D01*
X-80716Y52915D01*
X-80588Y52996D01*
X-80460Y53071D01*
X-80332Y53156D01*
X-80085Y53326D01*
X-79962Y53416D01*
X-79844Y53507D01*
X-79607Y53697D01*
X-79493Y53797D01*
X-79379Y53897D01*
X-79271Y53998D01*
X-79162Y54103D01*
X-79053Y54213D01*
X-78949Y54318D01*
X-78845Y54429D01*
X-78745Y54544D01*
X-78646Y54659D01*
X-78552Y54774D01*
X-78363Y55015D01*
X-78274Y55135D01*
X-78190Y55255D01*
X-78105Y55380D01*
X-78020Y55506D01*
X-77941Y55636D01*
X-77861Y55766D01*
X-77786Y55896D01*
X-77717Y56027D01*
X-77577Y56297D01*
X-77512Y56432D01*
X-77452Y56568D01*
X-78303Y57600D01*
X-79238Y58657D01*
X-80242Y59739D01*
X-81311Y60831D01*
X-82756Y62229D01*
X-84275Y63617D01*
X-85856Y64970D01*
X-87479Y66272D01*
D02*
G37*
G36*
X-74671Y52280D02*
X-74797Y52115D01*
X-74851Y52048D01*
X-74927Y51954D01*
X-75058Y51794D01*
X-75194Y51634D01*
X-75330Y51478D01*
X-75465Y51328D01*
X-75606Y51173D01*
X-75751Y51027D01*
X-75897Y50877D01*
X-75986Y50794D01*
X-76047Y50737D01*
X-76198Y50592D01*
X-75952Y50525D01*
X-75952Y50525D01*
X-75952Y50525D01*
X-75916Y50515D01*
X-75696Y50456D01*
X-75273Y50381D01*
X-74933Y50366D01*
X-74701Y50401D01*
X-74549Y50461D01*
X-74455Y50546D01*
X-74386Y50667D01*
X-74345Y50847D01*
X-74341Y51098D01*
X-74394Y51433D01*
X-74498Y51819D01*
X-74501Y51829D01*
X-74536Y51923D01*
X-74574Y52024D01*
X-74578Y52036D01*
X-74578Y52036D01*
X-74671Y52280D01*
D02*
G37*
G36*
X-84081Y67039D02*
X-84226D01*
X-84376Y67034D01*
X-84522Y67029D01*
X-84672Y67019D01*
X-84818Y67004D01*
X-84964Y66989D01*
X-85115Y66974D01*
X-85261Y66954D01*
X-85553Y66904D01*
X-85700Y66873D01*
X-85846Y66844D01*
X-85988Y66808D01*
X-86134Y66768D01*
X-86418Y66688D01*
X-86418Y66688D01*
Y66688D01*
X-86418Y66688D01*
Y66688D01*
X-86637Y66613D01*
X-86702Y66593D01*
X-86465Y66406D01*
X-86282Y66262D01*
X-85102Y65330D01*
X-83540Y64023D01*
X-82038Y62685D01*
X-80665Y61403D01*
X-79377Y60120D01*
X-78174Y58852D01*
X-77428Y58012D01*
X-77274Y57838D01*
X-77274D01*
D01*
Y57838D01*
X-77075Y57615D01*
X-77035Y57760D01*
X-77000Y57900D01*
X-76999Y57906D01*
X-76965Y58046D01*
X-76935Y58191D01*
X-76904Y58341D01*
X-76879Y58487D01*
X-76839Y58777D01*
X-76824Y58927D01*
X-76809Y59073D01*
X-76798Y59223D01*
X-76788Y59368D01*
X-76783Y59519D01*
X-76783Y59664D01*
X-76783Y59814D01*
X-76793Y60105D01*
X-76802Y60255D01*
X-76817Y60401D01*
X-76832Y60546D01*
X-76847Y60691D01*
X-76867Y60836D01*
X-76892Y60982D01*
X-76917Y61127D01*
X-76947Y61272D01*
X-76977Y61413D01*
X-77012Y61558D01*
X-77093Y61838D01*
X-77138Y61979D01*
X-77183Y62119D01*
X-77229Y62254D01*
X-77279Y62389D01*
X-77390Y62660D01*
X-77450Y62795D01*
X-77511Y62926D01*
X-77576Y63056D01*
X-77647Y63186D01*
X-77713Y63311D01*
X-77788Y63442D01*
X-77859Y63567D01*
X-77940Y63687D01*
X-78016Y63812D01*
X-78102Y63928D01*
X-78183Y64048D01*
X-78269Y64163D01*
X-78360Y64278D01*
X-78451Y64394D01*
X-78543Y64504D01*
X-78639Y64614D01*
X-78736Y64719D01*
X-78837Y64824D01*
X-78939Y64930D01*
X-79152Y65130D01*
X-79259Y65225D01*
X-79371Y65320D01*
X-79483Y65411D01*
X-79595Y65501D01*
X-79712Y65591D01*
X-79830Y65676D01*
X-79947Y65761D01*
X-80069Y65841D01*
X-80192Y65917D01*
X-80314Y65997D01*
X-80437Y66067D01*
X-80693Y66207D01*
X-80959Y66337D01*
X-81087Y66398D01*
X-81220Y66453D01*
X-81358Y66513D01*
X-81492Y66563D01*
X-81631Y66613D01*
X-81769Y66663D01*
X-81908Y66703D01*
X-82047Y66748D01*
X-82191Y66788D01*
X-82330Y66823D01*
X-82474Y66859D01*
X-82618Y66888D01*
X-83051Y66964D01*
X-83196Y66984D01*
X-83346Y66999D01*
X-83490Y67014D01*
X-83635Y67024D01*
X-83785Y67029D01*
X-83931Y67034D01*
X-84081Y67039D01*
D02*
G37*
G36*
X-91933Y60120D02*
X-91948Y59975D01*
X-91963Y59824D01*
X-91964Y59804D01*
X-91973Y59679D01*
X-91983Y59529D01*
X-91988Y59383D01*
X-91988Y59238D01*
X-91989Y59088D01*
X-91989Y58943D01*
X-91979Y58792D01*
X-91974Y58647D01*
X-91944Y58356D01*
X-91929Y58211D01*
X-91909Y58066D01*
X-91859Y57775D01*
X-91829Y57630D01*
X-91799Y57490D01*
X-91764Y57349D01*
X-91729Y57204D01*
X-91689Y57064D01*
X-91643Y56923D01*
X-91598Y56788D01*
X-91553Y56648D01*
X-91502Y56513D01*
X-91392Y56242D01*
X-91331Y56112D01*
X-91271Y55977D01*
X-91210Y55846D01*
X-91139Y55716D01*
X-91074Y55591D01*
X-91003Y55466D01*
X-90927Y55340D01*
X-90851Y55215D01*
X-90608Y54854D01*
X-90522Y54739D01*
X-90431Y54624D01*
X-90345Y54509D01*
X-90249Y54398D01*
X-90157Y54288D01*
X-90056Y54183D01*
X-89959Y54078D01*
X-89858Y53973D01*
X-89756Y53872D01*
X-89649Y53772D01*
X-89542Y53677D01*
X-89319Y53487D01*
X-89206Y53396D01*
X-89094Y53311D01*
X-88977Y53226D01*
X-88855Y53141D01*
X-88737Y53061D01*
X-88615Y52981D01*
X-88492Y52905D01*
X-88364Y52830D01*
X-88242Y52760D01*
X-88114Y52690D01*
X-87981Y52625D01*
X-87853Y52560D01*
X-87586Y52439D01*
X-87453Y52384D01*
X-87315Y52329D01*
X-87181Y52279D01*
X-87043Y52229D01*
X-86904Y52184D01*
X-86765Y52144D01*
X-86626Y52104D01*
X-86338Y52034D01*
X-86199Y51999D01*
X-86055Y51974D01*
X-85910Y51943D01*
X-85766Y51923D01*
X-85621Y51903D01*
X-85477Y51883D01*
X-85327Y51868D01*
X-85037Y51848D01*
X-84887Y51843D01*
X-84741D01*
X-84591Y51838D01*
X-84446Y51843D01*
X-84296Y51848D01*
X-84004Y51868D01*
X-83858Y51883D01*
X-83708Y51898D01*
X-83562Y51918D01*
X-83415Y51943D01*
X-83123Y51994D01*
X-82977Y52024D01*
X-82835Y52059D01*
X-82689Y52094D01*
X-82547Y52134D01*
X-82547Y52134D01*
X-82263Y52224D01*
X-82393Y52312D01*
X-82527Y52403D01*
X-82527Y52403D01*
X-82655Y52491D01*
X-83736Y53226D01*
X-85216Y54313D01*
X-86689Y55461D01*
X-88520Y56984D01*
X-90274Y58542D01*
X-91703Y59902D01*
X-91703Y59902D01*
X-91703Y59902D01*
X-91703D01*
X-91933Y60120D01*
X-91933Y60120D01*
D02*
G37*
%LPD*%
D92*
X-93470Y73757D02*
X-91196Y71172D01*
X-75465Y51328D02*
X-75330Y51478D01*
X-74456Y50536D02*
X-74387Y50656D01*
X-76197Y50592D02*
X-75696Y50456D01*
X-75273Y50381D01*
X-74933Y50366D01*
X-74701Y50401D01*
X-74549Y50461D01*
X-74455Y50546D01*
X-74386Y50667D01*
X-74345Y50847D01*
X-74341Y51098D01*
X-74394Y51433D02*
X-74341Y51098D01*
X-74501Y51829D02*
X-74394Y51433D01*
X-74671Y52280D02*
X-74501Y51829D01*
X-74797Y52115D02*
X-74671Y52280D01*
X-74927Y51954D02*
X-74797Y52115D01*
X-75058Y51794D02*
X-74927Y51954D01*
X-75194Y51634D02*
X-75058Y51794D01*
X-75330Y51478D02*
X-75194Y51634D01*
X-75606Y51173D02*
X-75465Y51328D01*
X-75751Y51027D02*
X-75606Y51173D01*
X-75897Y50877D02*
X-75751Y51027D01*
X-76047Y50737D02*
X-75897Y50877D01*
X-76197Y50592D02*
X-76047Y50737D01*
X-97026Y69940D02*
X-96023Y68802D01*
X-91979Y69399D02*
X-91566Y69895D01*
X-96023Y68802D02*
X-93804Y68066D01*
X-91196Y71172D01*
X-97100Y72815D02*
X-95689Y74499D01*
X-93470Y73757D01*
X-91566Y69895D02*
X-91316Y69744D01*
X-90997Y69549D01*
X-78303Y57600D02*
X-77452Y56568D01*
X-79238Y58657D02*
X-78303Y57600D01*
X-80242Y59739D02*
X-79238Y58657D01*
X-81311Y60831D02*
X-80242Y59739D01*
X-82756Y62229D02*
X-81311Y60831D01*
X-84275Y63617D02*
X-82756Y62229D01*
X-85856Y64970D02*
X-84275Y63617D01*
X-87479Y66272D02*
X-85856Y64970D01*
X-86701Y66593D02*
X-85102Y65330D01*
X-83540Y64023D01*
X-82038Y62685D01*
X-80665Y61403D01*
X-79377Y60120D01*
X-78174Y58852D01*
X-77075Y57615D01*
X-76198Y50581D02*
X-75697Y50445D01*
X-75274Y50370D01*
X-74934Y50355D01*
X-74702Y50390D01*
X-74550Y50451D01*
X-74456Y50536D01*
X-74387Y50656D02*
X-74346Y50836D01*
X-74342Y51087D01*
X-74395Y51422D02*
X-74342Y51087D01*
X-74502Y51818D02*
X-74395Y51422D01*
X-74672Y52269D02*
X-74502Y51818D01*
X-91457Y61979D02*
X-90063Y60561D01*
X-88575Y59133D01*
X-87006Y57720D01*
X-85766Y56663D01*
X-84504Y55641D01*
X-83230Y54669D01*
X-81964Y53752D01*
X-80716Y52915D01*
X-73958Y53326D02*
X-73578Y52585D01*
X-73292Y51888D01*
X-73109Y51247D01*
X-73049Y50801D01*
X-73054Y50365D02*
X-73049Y50801D01*
X-73154Y49960D02*
X-73054Y50365D01*
X-73352Y49599D02*
X-73154Y49960D01*
X-73647Y49313D02*
X-73352Y49599D01*
X-74030Y49113D02*
X-73647Y49313D01*
X-74475Y49008D02*
X-74030Y49113D01*
X-74966Y48987D02*
X-74475Y49008D01*
X-75511Y49038D02*
X-74966Y48987D01*
X-76103Y49158D02*
X-75511Y49038D01*
X-76733Y49338D02*
X-76103Y49158D01*
X-77411Y49584D02*
X-76733Y49338D01*
X-83736Y53226D02*
X-82263Y52224D01*
X-85216Y54313D02*
X-83736Y53226D01*
X-86689Y55461D02*
X-85216Y54313D01*
X-88520Y56984D02*
X-86689Y55461D01*
X-90274Y58542D02*
X-88520Y56984D01*
X-91933Y60120D02*
X-90274Y58542D01*
X-97026Y69940D02*
X-96920Y69524D01*
X-96722Y69023D01*
X-96446Y68447D01*
X-96107Y67835D01*
X-95694Y67179D01*
X-95222Y66483D01*
X-94692Y65756D01*
X-77512Y56432D02*
X-77452Y56568D01*
X-77577Y56297D02*
X-77512Y56432D01*
X-77647Y56162D02*
X-77577Y56297D01*
X-77717Y56027D02*
X-77647Y56162D01*
X-77786Y55896D02*
X-77717Y56027D01*
X-77861Y55766D02*
X-77786Y55896D01*
X-77941Y55636D02*
X-77861Y55766D01*
X-78020Y55506D02*
X-77941Y55636D01*
X-78105Y55380D02*
X-78020Y55506D01*
X-78190Y55255D02*
X-78105Y55380D01*
X-78274Y55135D02*
X-78190Y55255D01*
X-78363Y55015D02*
X-78274Y55135D01*
X-78458Y54894D02*
X-78363Y55015D01*
X-78552Y54774D02*
X-78458Y54894D01*
X-78646Y54659D02*
X-78552Y54774D01*
X-78745Y54544D02*
X-78646Y54659D01*
X-78845Y54429D02*
X-78745Y54544D01*
X-78949Y54318D02*
X-78845Y54429D01*
X-79053Y54213D02*
X-78949Y54318D01*
X-79162Y54103D02*
X-79053Y54213D01*
X-79271Y53998D02*
X-79162Y54103D01*
X-79379Y53897D02*
X-79271Y53998D01*
X-79493Y53797D02*
X-79379Y53897D01*
X-79607Y53697D02*
X-79493Y53797D01*
X-79725Y53602D02*
X-79607Y53697D01*
X-79844Y53507D02*
X-79725Y53602D01*
X-79962Y53416D02*
X-79844Y53507D01*
X-80085Y53326D02*
X-79962Y53416D01*
X-80209Y53241D02*
X-80085Y53326D01*
X-80332Y53156D02*
X-80209Y53241D01*
X-80460Y53071D02*
X-80332Y53156D01*
X-80588Y52996D02*
X-80460Y53071D01*
X-80716Y52915D02*
X-80588Y52996D01*
X-77631Y49428D02*
X-77411Y49584D01*
X-77857Y49278D02*
X-77631Y49428D01*
X-78083Y49133D02*
X-77857Y49278D01*
X-78313Y48987D02*
X-78083Y49133D01*
X-78543Y48852D02*
X-78313Y48987D01*
X-78778Y48722D02*
X-78543Y48852D01*
X-79018Y48592D02*
X-78778Y48722D01*
X-79258Y48471D02*
X-79018Y48592D01*
X-79497Y48356D02*
X-79258Y48471D01*
X-79747Y48241D02*
X-79497Y48356D01*
X-79991Y48136D02*
X-79747Y48241D01*
X-80240Y48036D02*
X-79991Y48136D01*
X-80494Y47940D02*
X-80240Y48036D01*
X-80748Y47850D02*
X-80494Y47940D01*
X-81001Y47765D02*
X-80748Y47850D01*
X-81254Y47685D02*
X-81001Y47765D01*
X-81513Y47610D02*
X-81254Y47685D01*
X-81770Y47545D02*
X-81513Y47610D01*
X-82033Y47480D02*
X-81770Y47545D01*
X-82296Y47424D02*
X-82033Y47480D01*
X-82558Y47374D02*
X-82296Y47424D01*
X-82820Y47324D02*
X-82558Y47374D01*
X-83082Y47284D02*
X-82820Y47324D01*
X-83349Y47254D02*
X-83082Y47284D01*
X-83615Y47224D02*
X-83349Y47254D01*
X-83877Y47199D02*
X-83615Y47224D01*
X-84143Y47184D02*
X-83877Y47199D01*
X-84409Y47169D02*
X-84143Y47184D01*
X-84675Y47164D02*
X-84409Y47169D01*
X-84940Y47164D02*
X-84675D01*
X-85205Y47169D02*
X-84940Y47164D01*
X-85470Y47184D02*
X-85205Y47169D01*
X-85735Y47199D02*
X-85470Y47184D01*
X-86000Y47224D02*
X-85735Y47199D01*
X-86265Y47249D02*
X-86000Y47224D01*
X-86524Y47284D02*
X-86265Y47249D01*
X-86788Y47324D02*
X-86524Y47284D01*
X-87047Y47369D02*
X-86788Y47324D01*
X-87306Y47419D02*
X-87047Y47369D01*
X-87564Y47480D02*
X-87306Y47419D01*
X-87818Y47540D02*
X-87564Y47480D01*
X-88071Y47610D02*
X-87818Y47540D01*
X-88324Y47680D02*
X-88071Y47610D01*
X-88577Y47760D02*
X-88324Y47680D01*
X-88824Y47845D02*
X-88577Y47760D01*
X-89071Y47935D02*
X-88824Y47845D01*
X-89319Y48031D02*
X-89071Y47935D01*
X-89561Y48131D02*
X-89319Y48031D01*
X-89797Y48236D02*
X-89561Y48131D01*
X-90034Y48351D02*
X-89797Y48236D01*
X-90270Y48467D02*
X-90034Y48351D01*
X-90502Y48587D02*
X-90270Y48467D01*
X-90733Y48712D02*
X-90502Y48587D01*
X-90958Y48847D02*
X-90733Y48712D01*
X-91179Y48983D02*
X-90958Y48847D01*
X-91400Y49123D02*
X-91179Y48983D01*
X-91615Y49268D02*
X-91400Y49123D01*
X-91830Y49423D02*
X-91615Y49268D01*
X-92040Y49579D02*
X-91830Y49423D01*
X-92245Y49739D02*
X-92040Y49579D01*
X-92450Y49904D02*
X-92245Y49739D01*
X-92649Y50070D02*
X-92450Y49904D01*
X-92844Y50245D02*
X-92649Y50070D01*
X-93033Y50426D02*
X-92844Y50245D01*
X-93217Y50606D02*
X-93033Y50426D01*
X-93401Y50791D02*
X-93217Y50606D01*
X-93579Y50981D02*
X-93401Y50791D01*
X-93753Y51177D02*
X-93579Y50981D01*
X-93921Y51377D02*
X-93753Y51177D01*
X-94090Y51578D02*
X-93921Y51377D01*
X-94248Y51783D02*
X-94090Y51578D01*
X-94406Y51994D02*
X-94248Y51783D01*
X-94559Y52204D02*
X-94406Y51994D01*
X-94701Y52424D02*
X-94559Y52204D01*
X-94844Y52640D02*
X-94701Y52424D01*
X-94981Y52865D02*
X-94844Y52640D01*
X-95114Y53091D02*
X-94981Y52865D01*
X-95241Y53321D02*
X-95114Y53091D01*
X-95363Y53552D02*
X-95241Y53321D01*
X-95480Y53787D02*
X-95363Y53552D01*
X-95592Y54023D02*
X-95480Y53787D01*
X-95699Y54263D02*
X-95592Y54023D01*
X-95796Y54504D02*
X-95699Y54263D01*
X-95893Y54749D02*
X-95796Y54504D01*
X-95984Y54995D02*
X-95893Y54749D01*
X-96071Y55245D02*
X-95984Y54995D01*
X-96147Y55496D02*
X-96071Y55245D01*
X-96224Y55746D02*
X-96147Y55496D01*
X-96290Y56002D02*
X-96224Y55746D01*
X-96351Y56257D02*
X-96290Y56002D01*
X-96412Y56513D02*
X-96351Y56257D01*
X-96463Y56773D02*
X-96412Y56513D01*
X-96509Y57034D02*
X-96463Y56773D01*
X-96545Y57294D02*
X-96509Y57034D01*
X-96581Y57555D02*
X-96545Y57294D01*
X-96612Y57820D02*
X-96581Y57555D01*
X-96633Y58081D02*
X-96612Y57820D01*
X-96649Y58346D02*
X-96633Y58081D01*
X-96665Y58612D02*
X-96649Y58346D01*
X-96670Y58877D02*
X-96665Y58612D01*
X-96670Y58877D02*
X-96666Y59143D01*
X-96662Y59408D01*
X-96653Y59674D01*
X-96633Y59940D01*
X-96609Y60205D01*
X-96585Y60471D01*
X-96551Y60731D01*
X-96506Y60997D01*
X-96462Y61257D01*
X-96413Y61523D01*
X-96354Y61783D01*
X-96289Y62044D01*
X-96225Y62304D01*
X-96151Y62560D01*
X-96072Y62815D01*
X-95988Y63071D01*
X-95894Y63321D01*
X-95800Y63572D01*
X-95701Y63822D01*
X-95592Y64068D01*
X-82405Y52179D02*
X-82263Y52224D01*
X-82547Y52134D02*
X-82405Y52179D01*
X-82689Y52094D02*
X-82547Y52134D01*
X-82835Y52059D02*
X-82689Y52094D01*
X-82977Y52024D02*
X-82835Y52059D01*
X-83123Y51994D02*
X-82977Y52024D01*
X-83269Y51968D02*
X-83123Y51994D01*
X-83415Y51943D02*
X-83269Y51968D01*
X-83562Y51918D02*
X-83415Y51943D01*
X-83708Y51898D02*
X-83562Y51918D01*
X-83858Y51883D02*
X-83708Y51898D01*
X-84004Y51868D02*
X-83858Y51883D01*
X-84150Y51858D02*
X-84004Y51868D01*
X-84296Y51848D02*
X-84150Y51858D01*
X-84446Y51843D02*
X-84296Y51848D01*
X-84591Y51838D02*
X-84446Y51843D01*
X-84741D02*
X-84591Y51838D01*
X-84887Y51843D02*
X-84741D01*
X-85037Y51848D02*
X-84887Y51843D01*
X-85182Y51858D02*
X-85037Y51848D01*
X-85327Y51868D02*
X-85182Y51858D01*
X-85477Y51883D02*
X-85327Y51868D01*
X-85621Y51903D02*
X-85477Y51883D01*
X-85766Y51923D02*
X-85621Y51903D01*
X-85910Y51943D02*
X-85766Y51923D01*
X-86055Y51974D02*
X-85910Y51943D01*
X-86199Y51999D02*
X-86055Y51974D01*
X-86338Y52034D02*
X-86199Y51999D01*
X-86482Y52069D02*
X-86338Y52034D01*
X-86626Y52104D02*
X-86482Y52069D01*
X-86765Y52144D02*
X-86626Y52104D01*
X-86904Y52184D02*
X-86765Y52144D01*
X-87043Y52229D02*
X-86904Y52184D01*
X-87181Y52279D02*
X-87043Y52229D01*
X-87315Y52329D02*
X-87181Y52279D01*
X-87453Y52384D02*
X-87315Y52329D01*
X-87586Y52439D02*
X-87453Y52384D01*
X-87720Y52500D02*
X-87586Y52439D01*
X-87853Y52560D02*
X-87720Y52500D01*
X-87981Y52625D02*
X-87853Y52560D01*
X-88114Y52690D02*
X-87981Y52625D01*
X-88242Y52760D02*
X-88114Y52690D01*
X-88364Y52830D02*
X-88242Y52760D01*
X-88492Y52905D02*
X-88364Y52830D01*
X-88615Y52981D02*
X-88492Y52905D01*
X-88737Y53061D02*
X-88615Y52981D01*
X-88855Y53141D02*
X-88737Y53061D01*
X-88977Y53226D02*
X-88855Y53141D01*
X-89094Y53311D02*
X-88977Y53226D01*
X-89206Y53396D02*
X-89094Y53311D01*
X-89319Y53487D02*
X-89206Y53396D01*
X-89430Y53582D02*
X-89319Y53487D01*
X-89542Y53677D02*
X-89430Y53582D01*
X-89649Y53772D02*
X-89542Y53677D01*
X-89756Y53872D02*
X-89649Y53772D01*
X-89858Y53973D02*
X-89756Y53872D01*
X-89959Y54078D02*
X-89858Y53973D01*
X-90056Y54183D02*
X-89959Y54078D01*
X-90157Y54288D02*
X-90056Y54183D01*
X-90249Y54398D02*
X-90157Y54288D01*
X-90345Y54509D02*
X-90249Y54398D01*
X-90431Y54624D02*
X-90345Y54509D01*
X-90522Y54739D02*
X-90431Y54624D01*
X-90608Y54854D02*
X-90522Y54739D01*
X-90689Y54975D02*
X-90608Y54854D01*
X-90770Y55095D02*
X-90689Y54975D01*
X-90851Y55215D02*
X-90770Y55095D01*
X-90927Y55340D02*
X-90851Y55215D01*
X-91003Y55466D02*
X-90927Y55340D01*
X-91074Y55591D02*
X-91003Y55466D01*
X-91139Y55716D02*
X-91074Y55591D01*
X-91210Y55846D02*
X-91139Y55716D01*
X-91271Y55977D02*
X-91210Y55846D01*
X-91331Y56112D02*
X-91271Y55977D01*
X-91392Y56242D02*
X-91331Y56112D01*
X-91447Y56377D02*
X-91392Y56242D01*
X-91502Y56513D02*
X-91447Y56377D01*
X-91553Y56648D02*
X-91502Y56513D01*
X-91598Y56788D02*
X-91553Y56648D01*
X-91643Y56923D02*
X-91598Y56788D01*
X-91689Y57064D02*
X-91643Y56923D01*
X-91729Y57204D02*
X-91689Y57064D01*
X-91764Y57349D02*
X-91729Y57204D01*
X-91799Y57490D02*
X-91764Y57349D01*
X-91829Y57630D02*
X-91799Y57490D01*
X-91859Y57775D02*
X-91829Y57630D01*
X-91884Y57920D02*
X-91859Y57775D01*
X-91909Y58066D02*
X-91884Y57920D01*
X-91929Y58211D02*
X-91909Y58066D01*
X-91944Y58356D02*
X-91929Y58211D01*
X-91959Y58502D02*
X-91944Y58356D01*
X-91974Y58647D02*
X-91959Y58502D01*
X-91979Y58792D02*
X-91974Y58647D01*
X-91989Y58943D02*
X-91979Y58792D01*
X-91989Y58943D02*
X-91989Y59088D01*
X-91988Y59238D01*
X-91988Y59383D01*
X-91983Y59529D01*
X-91973Y59679D01*
X-91963Y59824D01*
X-91948Y59975D01*
X-91933Y60120D01*
X-74798Y52104D02*
X-74672Y52269D01*
X-74928Y51943D02*
X-74798Y52104D01*
X-75059Y51783D02*
X-74928Y51943D01*
X-75195Y51623D02*
X-75059Y51783D01*
X-75331Y51467D02*
X-75195Y51623D01*
X-75466Y51317D02*
X-75331Y51467D01*
X-75607Y51162D02*
X-75466Y51317D01*
X-75752Y51017D02*
X-75607Y51162D01*
X-75898Y50866D02*
X-75752Y51017D01*
X-76048Y50726D02*
X-75898Y50866D01*
X-76198Y50581D02*
X-76048Y50726D01*
X-94692Y65756D02*
X-94586Y65917D01*
X-94480Y66077D01*
X-94369Y66237D01*
X-94259Y66393D01*
X-94143Y66553D01*
X-94027Y66703D01*
X-93907Y66859D01*
X-93786Y67009D01*
X-93666Y67154D01*
X-93535Y67304D01*
X-93410Y67450D01*
X-93280Y67590D01*
X-93150Y67730D01*
X-93015Y67870D01*
X-92880Y68006D01*
X-92740Y68141D01*
X-92600Y68276D01*
X-92455Y68407D01*
X-92310Y68537D01*
X-92165Y68662D01*
X-92016Y68787D01*
X-91866Y68908D01*
X-91717Y69028D01*
X-91562Y69143D01*
X-91457Y61979D02*
X-91402Y62119D01*
X-91347Y62254D01*
X-91287Y62394D01*
X-91222Y62530D01*
X-91158Y62660D01*
X-91088Y62795D01*
X-91018Y62926D01*
X-90943Y63056D01*
X-90869Y63186D01*
X-90789Y63316D01*
X-90709Y63442D01*
X-90625Y63567D01*
X-90540Y63687D01*
X-90451Y63807D01*
X-90362Y63928D01*
X-90267Y64048D01*
X-90173Y64163D01*
X-90079Y64278D01*
X-89980Y64388D01*
X-89876Y64504D01*
X-89772Y64609D01*
X-89668Y64719D01*
X-89559Y64824D01*
X-89450Y64925D01*
X-89341Y65025D01*
X-89228Y65125D01*
X-89114Y65220D01*
X-88996Y65315D01*
X-88877Y65411D01*
X-88759Y65501D01*
X-88636Y65586D01*
X-88512Y65671D01*
X-88389Y65756D01*
X-88261Y65836D01*
X-88138Y65917D01*
X-88005Y65992D01*
X-87877Y66067D01*
X-87744Y66137D01*
X-87612Y66202D01*
X-87479Y66272D01*
X-86701Y66593D02*
X-86560Y66638D01*
X-86418Y66688D01*
X-86276Y66728D01*
X-86134Y66768D01*
X-85988Y66808D01*
X-85846Y66844D01*
X-85700Y66873D01*
X-85553Y66904D01*
X-85407Y66929D01*
X-85261Y66954D01*
X-85115Y66974D01*
X-84964Y66989D01*
X-84818Y67004D01*
X-84672Y67019D01*
X-84522Y67029D01*
X-84376Y67034D01*
X-84226Y67039D01*
X-84081D01*
X-83931Y67034D01*
X-83785Y67029D01*
X-83635Y67024D01*
X-83490Y67014D01*
X-83346Y66999D01*
X-83196Y66984D01*
X-83051Y66964D01*
X-82907Y66939D01*
X-82762Y66914D01*
X-82618Y66888D01*
X-82474Y66859D01*
X-82330Y66823D01*
X-82191Y66788D01*
X-82047Y66748D01*
X-81908Y66703D01*
X-81769Y66663D01*
X-81631Y66613D01*
X-81492Y66563D01*
X-81358Y66513D01*
X-81220Y66453D01*
X-81087Y66398D01*
X-80959Y66337D01*
X-80826Y66272D01*
X-80693Y66207D01*
X-80565Y66137D01*
X-80437Y66067D01*
X-80314Y65997D01*
X-80192Y65917D01*
X-80069Y65841D01*
X-79947Y65761D01*
X-79830Y65676D01*
X-79712Y65591D01*
X-79595Y65501D01*
X-79483Y65411D01*
X-79371Y65320D01*
X-79259Y65225D01*
X-79152Y65130D01*
X-79046Y65030D01*
X-78939Y64930D01*
X-78837Y64824D01*
X-78736Y64719D01*
X-78639Y64614D01*
X-78543Y64504D01*
X-78451Y64394D01*
X-78360Y64278D01*
X-78269Y64163D01*
X-78183Y64048D01*
X-78102Y63928D01*
X-78016Y63812D01*
X-77940Y63687D01*
X-77859Y63567D01*
X-77788Y63442D01*
X-77713Y63311D01*
X-77647Y63186D01*
X-77576Y63056D01*
X-77511Y62926D01*
X-77450Y62795D01*
X-77390Y62660D01*
X-77334Y62525D01*
X-77279Y62389D01*
X-77229Y62254D01*
X-77183Y62119D01*
X-77138Y61979D01*
X-77093Y61838D01*
X-77053Y61698D01*
X-77012Y61558D01*
X-76977Y61413D01*
X-76947Y61272D01*
X-76917Y61127D01*
X-76892Y60982D01*
X-76867Y60836D01*
X-76847Y60691D01*
X-76832Y60546D01*
X-76817Y60401D01*
X-76802Y60255D01*
X-76793Y60105D01*
X-76788Y59960D01*
X-76783Y59814D01*
X-76783Y59664D02*
X-76783Y59814D01*
X-76783Y59519D02*
X-76783Y59664D01*
X-76788Y59368D02*
X-76783Y59519D01*
X-76798Y59223D02*
X-76788Y59368D01*
X-76809Y59073D02*
X-76798Y59223D01*
X-76824Y58927D02*
X-76809Y59073D01*
X-76839Y58777D02*
X-76824Y58927D01*
X-76859Y58632D02*
X-76839Y58777D01*
X-76879Y58487D02*
X-76859Y58632D01*
X-76904Y58341D02*
X-76879Y58487D01*
X-76935Y58191D02*
X-76904Y58341D01*
X-76965Y58046D02*
X-76935Y58191D01*
X-77000Y57901D02*
X-76965Y58046D01*
X-77035Y57760D02*
X-77000Y57901D01*
X-77075Y57615D02*
X-77035Y57760D01*
X-90997Y69549D02*
X-90761Y69704D01*
X-90526Y69850D01*
X-90285Y69995D01*
X-90040Y70135D01*
X-89795Y70265D01*
X-89545Y70391D01*
X-89295Y70516D01*
X-89040Y70631D01*
X-88781Y70741D01*
X-88522Y70847D01*
X-88263Y70947D01*
X-87999Y71037D01*
X-87736Y71127D01*
X-87467Y71207D01*
X-87199Y71282D01*
X-86931Y71353D01*
X-86663Y71418D01*
X-86391Y71473D01*
X-86118Y71523D01*
X-85841Y71568D01*
X-85569Y71608D01*
X-85293Y71643D01*
X-85021Y71668D01*
X-84745Y71688D01*
X-84469Y71703D01*
X-84193Y71713D01*
X-83917D01*
X-83642Y71708D01*
X-83367Y71698D01*
X-83092Y71683D01*
X-82817Y71663D01*
X-82542Y71633D01*
X-82273Y71598D01*
X-81999Y71558D01*
X-81730Y71508D01*
X-81461Y71458D01*
X-81193Y71398D01*
X-80930Y71333D01*
X-80667Y71262D01*
X-80404Y71182D01*
X-80141Y71102D01*
X-79884Y71012D01*
X-79632Y70917D01*
X-79374Y70816D01*
X-79128Y70706D01*
X-78876Y70596D01*
X-78635Y70481D01*
X-78389Y70356D01*
X-78153Y70225D01*
X-77917Y70090D01*
X-77681Y69955D01*
X-77451Y69809D01*
X-77226Y69659D01*
X-77006Y69504D01*
X-76786Y69344D01*
X-76571Y69178D01*
X-76361Y69008D01*
X-76152Y68833D01*
X-75953Y68652D01*
X-75754Y68467D01*
X-75560Y68276D01*
X-75367Y68081D01*
X-75183Y67886D01*
X-75005Y67685D01*
X-74827Y67475D01*
X-74659Y67264D01*
X-74491Y67054D01*
X-74328Y66833D01*
X-74176Y66613D01*
X-74023Y66388D01*
X-73876Y66157D01*
X-73739Y65927D01*
X-73601Y65691D01*
X-73475Y65451D01*
X-73348Y65210D01*
X-73231Y64965D01*
X-73120Y64714D01*
X-73013Y64464D01*
X-72912Y64213D01*
X-72815Y63958D01*
X-72724Y63702D01*
X-72643Y63442D01*
X-72562Y63181D01*
X-72491Y62916D01*
X-72425Y62650D01*
X-72364Y62385D01*
X-72314Y62114D01*
X-72263Y61843D01*
X-72222Y61573D01*
X-72187Y61302D01*
X-72161Y61032D01*
X-72136Y60756D01*
X-72120Y60481D01*
X-72110Y60205D01*
X-72104Y59929D01*
X-72104Y59654D01*
X-72113Y59378D02*
X-72104Y59654D01*
X-72128Y59103D02*
X-72113Y59378D01*
X-72148Y58827D02*
X-72128Y59103D01*
X-72172Y58552D02*
X-72148Y58827D01*
X-72207Y58276D02*
X-72172Y58552D01*
X-72247Y58006D02*
X-72207Y58276D01*
X-72291Y57730D02*
X-72247Y58006D01*
X-72341Y57460D02*
X-72291Y57730D01*
X-72400Y57189D02*
X-72341Y57460D01*
X-72460Y56919D02*
X-72400Y57189D01*
X-72530Y56648D02*
X-72460Y56919D01*
X-72604Y56377D02*
X-72530Y56648D01*
X-72689Y56112D02*
X-72604Y56377D01*
X-72773Y55846D02*
X-72689Y56112D01*
X-72867Y55586D02*
X-72773Y55846D01*
X-72966Y55325D02*
X-72867Y55586D01*
X-73071Y55065D02*
X-72966Y55325D01*
X-73180Y54809D02*
X-73071Y55065D01*
X-73294Y54554D02*
X-73180Y54809D01*
X-73418Y54303D02*
X-73294Y54554D01*
X-73542Y54053D02*
X-73418Y54303D01*
X-73676Y53807D02*
X-73542Y54053D01*
X-73815Y53567D02*
X-73676Y53807D01*
X-73958Y53326D02*
X-73815Y53567D01*
X-96528Y65240D02*
X-95592Y64068D01*
X-97351Y66363D02*
X-96528Y65240D01*
X-98040Y67425D02*
X-97351Y66363D01*
X-98596Y68427D02*
X-98040Y67425D01*
X-98857Y68988D02*
X-98596Y68427D01*
X-99069Y69534D02*
X-98857Y68988D01*
X-99221Y70065D02*
X-99069Y69534D01*
X-99304Y70541D02*
X-99221Y70065D01*
X-99318Y71012D02*
X-99304Y70541D01*
X-99318Y71012D02*
X-99247Y71473D01*
X-99082Y71889D01*
X-98881Y72174D01*
X-98623Y72410D01*
X-98315Y72600D01*
X-97935Y72735D01*
X-97527Y72805D01*
X-97100Y72815D01*
X-91749Y69258D02*
X-91562Y69143D01*
X-91979Y69399D02*
X-91749Y69258D01*
M02*
