G04 Layer_Color=32896*
%FSLAX44Y44*%
%MOMM*%
G71*
G01*
G75*
%ADD91C,0.0127*%
D91*
X-352320Y409871D02*
G03*
X-352320Y409871I-9000J0D01*
G01*
X347643Y-403129D02*
G03*
X347643Y-403129I-9000J0D01*
G01*
X-432528Y386376D02*
G03*
X-447320Y367066I5208J-19310D01*
G01*
X347643Y-403129D02*
G03*
X347643Y-403129I-9000J0D01*
G01*
X-352320D02*
G03*
X-352320Y-403129I-9000J0D01*
G01*
Y409871D02*
G03*
X-352320Y409871I-9000J0D01*
G01*
X347643D02*
G03*
X347643Y409871I-9000J0D01*
G01*
X9043Y15D02*
G03*
X9043Y15I-9000J0D01*
G01*
X380313Y335825D02*
G03*
X380980Y337316I-1333J1491D01*
G01*
X380313Y335825D02*
G03*
X376980Y328371I6667J-7454D01*
G01*
Y-321629D02*
G03*
X380313Y-329082I10000J0D01*
G01*
X380980Y-330573D02*
G03*
X380313Y-329082I-2000J0D01*
G01*
X375980Y-417629D02*
G03*
X380980Y-412629I0J5000D01*
G01*
X-368850Y424371D02*
G03*
X-387585Y411371I0J-20000D01*
G01*
Y-404629D02*
G03*
X-368850Y-417629I18735J7000D01*
G01*
X-389335Y-399945D02*
G03*
X-402909Y-387622I-18735J-7000D01*
G01*
X-447320Y-360401D02*
G03*
X-432481Y-379724I20000J0D01*
G01*
X347643Y409871D02*
G03*
X347643Y409871I-9000J0D01*
G01*
X-432528Y386376D02*
G03*
X-447320Y367066I5208J-19310D01*
G01*
X-402862Y394378D02*
G03*
X-389335Y406688I-5208J19310D01*
G01*
X-368850Y424371D02*
G03*
X-387585Y411371I0J-20000D01*
G01*
X380313Y335825D02*
G03*
X376980Y328371I6667J-7454D01*
G01*
X380980Y419371D02*
G03*
X375980Y424371I-5000J0D01*
G01*
X9043Y15D02*
G03*
X9043Y15I-9000J0D01*
G01*
X-402862Y394378D02*
G03*
X-389335Y406688I-5208J19310D01*
G01*
X-352320Y-403129D02*
G03*
X-352320Y-403129I-9000J0D01*
G01*
X380313Y335825D02*
G03*
X380980Y337316I-1333J1491D01*
G01*
X-387585Y-404629D02*
G03*
X-368850Y-417629I18735J7000D01*
G01*
X376980Y-321629D02*
G03*
X380313Y-329082I10000J0D01*
G01*
X380980Y-330573D02*
G03*
X380313Y-329082I-2000J0D01*
G01*
X375980Y-417629D02*
G03*
X380980Y-412629I0J5000D01*
G01*
X-389335Y-399945D02*
G03*
X-402909Y-387622I-18735J-7000D01*
G01*
X-447320Y-360401D02*
G03*
X-432481Y-379724I20000J0D01*
G01*
X380980Y419371D02*
G03*
X375980Y424371I-5000J0D01*
G01*
X376980Y-321629D02*
Y328371D01*
X-389335Y406688D02*
X-387585Y411371D01*
X380980Y337316D02*
Y419371D01*
X-389335Y-399945D02*
X-387585Y-404629D01*
X380980Y-412629D02*
Y-330573D01*
X-368850Y-417629D02*
X375980D01*
X-447320Y-360401D02*
Y367066D01*
X-432528Y386376D02*
X-402862Y394378D01*
X-432481Y-379724D02*
X-402909Y-387622D01*
X-368850Y424371D02*
X375980D01*
M02*
