M48
;Layer_Color=9474304
;FILE_FORMAT=4:4
METRIC,LZ
;TYPE=PLATED
T1F00S00C0.3000
T2F00S00C0.4000
T3F00S00C1.6000
T4F00S00C3.2000
;TYPE=NON_PLATED
T5F00S00C0.8400
T6F00S00C1.1900
%
T01
X003625Y000005
X00417Y000365
X0042625
X00471Y0002
X0048975
X00514Y-0000625
X005385Y-0002475
X0057575Y00062
X00566Y0007375
X00566Y00086
X0056575Y0010025
X00566Y00112
Y001375
X00559Y00182
X005415Y0018175
X00525Y0017575
Y001885
X0047675Y00183
Y00169983
Y0015625
Y0014395
X0042625Y001615
X00417
X00363Y001355
X0061175Y00032
X0035175Y000005
X003475Y0006125
X002865Y000215
X0028575Y0000575
X0015375Y-0000125
X001415Y0007025
Y000815
X0015225Y0010475
X00161Y001675
X00171
X-000055Y0016725
X-0001175Y0017675
X-0001225Y0004225
X-0000175Y00042
X0003925Y00026
X0005925Y-0000825
X0002775Y-0002475
X0009125Y000695
X0009375Y0022975
Y0024
X00104
Y0023
X000735Y003155
X0007775Y0032825
X0006225Y00307
X0005175
X0004125Y0030675
X000255Y0030725
X-0002475Y003065
X0003675Y0036175
X00217Y0030625
X00287Y002905
X002865Y00268
X0031075Y0036175
X00469Y0036225
X004795Y003195
X0048225Y00271
X00475Y0026025
X0045625Y0024375
X0042625Y002865
X00417
X00528Y0030625
X005385
X0055275
X00575Y00287
X00612Y002875
X0055225Y0036175
T02
X003845Y0006575
X003945
X003915Y0010625
X00364Y001075
X0038425Y001905
X003945Y0019075
X0044525Y001905
X0047375Y0020725
X0047675Y001185
X005215Y0009975
X0050825Y0006575
X0049325
X0044525Y000665
X00525Y00163
X00566Y001495
X0056625Y00127
X0034825Y001695
X00276Y0019575
X0023325
X00206
X0021925Y0016825
X0021575Y0015225
X00206Y0010075
X0023325
X00276
X0029175Y0004
X00276Y0000575
X0023325
X00206
X0016325
Y0010075
X0009175Y000985
Y0008825
X0021925Y00071
X003475Y0004475
X0016325Y0019575
Y0029075
X0014175
X0009825
X0002675Y00277
Y0025975
X000265Y0024025
X0021625Y002435
X0022Y0025575
X0023325Y0029075
X0020675Y00291
X002195Y0033175
X002165Y003435
X0028775Y00343
X0029175Y0031925
X0027725Y002905
X003425Y002645
X0032025Y0023075
X0034025Y00336
X00384Y0031575
X003945
X004475Y003205
X00363Y002605
T03
X0053865Y0000665
X0004865Y0033065
X0053865
T04
X005873Y0
X0
Y003373
X005873
T05
X0053695Y0005445
X0055955
Y0028425
X0053695
T06
X00027Y00065
Y00155
Y002
Y0029
M30
