M48
;Layer_Color=9474304
;FILE_FORMAT=4:4
METRIC,TZ
;TYPE=PLATED
T1F00S00C0.1000
%
T01
X393000Y33250
X397000Y30250
Y36250
X410000Y36500
X415000
Y43000
X410000
Y30000
X415000
X412500Y23500
X428250Y30250
Y36250
X432250Y33250
X436250Y30250
Y36250
X456750Y23000
X461250
X486000Y25250
Y29750
X500000Y29750
X500000Y25250
X516000Y27750
X520500
X520500Y41500
X525000
X540000Y47000
Y51500
X544500
Y47000
X544750Y31000
X540250
X524500Y64500
Y69000
X520000
Y64500
X486500Y57000
Y51000
X482500Y54000
X478500Y51000
Y57000
X464000Y100500
Y106500
X460000Y103500
X456000Y100500
Y106500
X487500Y130500
Y136500
X491500Y133500
X495500Y130500
Y136500
X528150Y137100
X537000Y137050
X543300
Y124350
X537000
X528150Y124400
Y111700
X537000Y111650
X543300
Y149750
X537000
X528150Y149800
X521000
X528150Y162500
X537000Y162450
X543300
Y175150
X537000
X528150Y175200
Y187900
X521000
X521250Y200000
X528150Y200600
X537000Y200550
X543300
Y187850
X537000
Y213250
X543300
Y225950
X537000
X528150Y226000
Y213300
X521000
X528150Y238700
X537000Y238650
X543300
Y251350
X537000
X528150Y251400
X484000Y217000
Y211000
X480000Y214000
X476000Y211000
Y217000
X464000Y188750
Y182750
X460000Y185750
X456000Y182750
Y188750
X431750Y187000
Y181000
X427750Y184000
X423750Y181000
Y187000
X410750Y184250
X405750
Y190750
X410750
Y177750
X405750
X408250Y171250
X392000Y177778
Y183778
Y221500
Y227500
X405750Y228250
X410750
Y221750
X405750
Y215250
X410750
X408250Y208750
X424000Y215500
Y221500
X428000Y218500
X432000Y215500
Y221500
X388000Y224500
X384000Y221500
Y227500
X372000Y208000
X358245Y215000
Y220000
X343000Y206500
X335500Y189775
X317715Y189715
Y173215
Y168215
X321000Y145500
Y139500
X317000Y142500
X313000Y139500
Y145500
X299750Y145750
X294750
Y152250
X299750
Y139250
X294750
X297250Y132750
X299500Y98000
Y92000
X295500Y95000
X291500Y92000
Y98000
Y43000
Y37000
X295500Y40000
X299500Y37000
Y43000
X320250Y41750
X326500Y23250
X341500Y23250
X345750Y39500
Y44500
X363245Y35000
Y30000
X389000Y30250
Y36250
X356000Y77500
Y83500
X352000Y80500
X348000Y77500
Y83500
Y132500
Y138500
X352000Y135500
X356000Y132500
Y138500
X358245Y177500
Y182500
X343000Y170715
X384000Y177778
Y183778
X388000Y180777
X315500Y205500
Y210500
X319000Y227000
X336000
X321000Y254500
X313000
X299750Y254250
X294750
X297250Y247750
X265250Y220500
Y214500
X261250Y217500
X257250Y220500
X259000Y212500
X244500
X242250Y217500
X238250Y214500
Y220500
X246250
Y185750
Y179750
X242250Y182750
X238250Y179750
Y185750
X257250
Y179750
X261250Y182750
X265250Y179750
Y185750
X260500Y137000
Y131000
X256500Y134000
X252500Y131000
Y137000
X217000Y137000
X217000Y143000
Y149800
X212500Y146000
Y140000
X188750Y143250
X183750
Y149750
X188750
Y156250
X183750
X172000Y157250
X171000Y148000
X160000Y148000
X159250Y157250
X150500Y156750
X149000Y148000
X134000Y148000
X134000Y158000
X123000Y158000
X112000Y158000
X112000Y148000
X122000Y147500
X128500Y133250
X138000Y132250
X156000Y135000
X166000
X168250Y120500
Y114500
X172250Y117500
X176250Y114500
X182000
Y120500
X176250
X186000Y117500
X190000Y114500
Y120500
X186250Y136750
X185501Y178500
X190500Y183500
X202000Y188000
X202000Y202000
X212000
X213000Y213000
X212000Y224000
X203000Y225000
Y237500
X213750Y237250
X217000Y254750
X191000Y253500
X190999Y248500
X188000Y243500
X190250Y238500
X185500
X188000Y233500
Y228500
X185000Y223500
X188000Y203500
Y198500
X201000Y212000
X215250Y189500
X214500Y176000
X203750Y175750
X175500Y173000
X170500Y168750
X160500Y173750
X155500Y174250
X145500Y171000
X135500
X130500Y168250
X125500
X120500Y168000
X115500Y173500
X110500Y169000
X105500Y170750
X101000Y158000
X101000Y148000
X100000Y132250
X97999Y122750
X87500Y112500
X82500Y110000
X77500Y114250
X72500Y110000
X67500Y113000
X62500Y115750
X57500Y113750
X52500Y108750
X42000Y114000
X32000Y113250
X32000Y123000
X41000Y124000
X42000Y134000
X42000Y144000
X40750Y156000
X27750
X21250
X17750Y141000
X27000Y140750
X18500Y122500
X19250Y113125
X21250Y100100
X27750
X34250Y103750
X40750
Y75750
X34250Y73900
X21250
X53000Y73000
X52000Y82000
X63000Y83000
Y73000
X63000Y63000
X53000Y63000
X80250Y51750
Y47750
X85250
Y51750
X90250Y49700
X95250
X100250
X105250
X110250
X115250Y47750
Y51750
X120250
Y47750
X125250Y49700
X130250
X135250Y47750
Y51750
X140250
Y47750
X137500Y67500
X138500Y76500
X139000Y88000
X129000
X119000Y88000
X109000
X96000Y84500
Y65500
X112000Y61000
Y71000
X124250Y77250
X126250Y61500
X155600Y60500
Y66500
X159600Y63500
X163600Y60500
Y66500
X176400
Y60500
X180400Y63500
X184400Y60500
Y66500
X165250Y51750
Y47750
X176250Y32750
X138000Y103750
X100500Y103250
X83000Y99000
X73000
X62500Y153000
X52500Y153000
X57500Y158750
X67500
X66000Y170750
X75000Y171000
X85000
X82500Y158750
X79000Y183500
X73250Y183500
X98000Y183500
Y188500
Y193500
Y198500
Y203500
X95500Y208500
X84000Y210250
X79000Y210500
X82750Y222500
X95000Y223500
X100500Y218500
X100000Y238500
X95000Y243500
X98000Y253500
X83000Y242250
X62000Y246000
X52000
X42000Y250000
X41000Y240000
X31500Y240000
Y229000
X18500Y228750
Y239750
Y251000
X31500
X36500Y216000
X50000Y216000
X60000
X63000Y205000
X53000
X40750Y200000
X34250Y198500
X27750Y202500
X21250Y200000
X21500Y216000
X55000Y171000
X95250Y178500
X123000Y194000
X137000Y209000
X146000Y219000
X170000Y243000
Y189000
X115750Y238500
X69250Y27700
X71750Y258000
X82000
X81500Y280000
X78500Y285000
X79500Y290000
X82250Y295000
X77000Y308000
X67000Y308000
X55000
Y295000
X65000Y297000
X65000Y286000
X64000Y277000
X60000Y267000
Y257000
X48250Y265500
X49000Y270500
X50500Y275500
X50250Y280500
X34000Y273000
X38000Y265000
X21625Y265500
X20750Y270500
X19000Y275500
Y280500
X28000Y283000
X28750Y296250
X35250Y303250
X41750Y297500
Y322250
X35250Y326100
X28750Y329700
X22250Y326100
X22250Y303500
X53000Y337000
X64000
X75000Y339000
Y329000
X77000Y318000
X90500Y318000
X91500Y313000
X92000Y308000
X88000Y323000
X86000Y340000
X95000Y341000
X108000Y339000
X117000Y340000
X127000Y340000
X137000
X155600Y339500
Y333500
X159600Y336500
X163600Y333500
Y339500
X176400
Y333500
X180400Y336500
X184400Y333500
Y339500
X184500Y363000
Y369000
X180500Y366000
X176500Y363000
Y369000
X163250Y369250
X158250
Y375750
X163250
Y362750
X158250
X158250Y356250
X145000Y360000
Y372000
X127000Y378500
X117500Y375500
X108000Y375250
X107750Y350500
X127000Y354500
X134500Y323000
Y318000
Y313000
Y308000
X137000Y290250
X136750Y280000
X126500Y285000
X118500Y280000
X122500Y275000
X120500Y261000
X125500
X115500
X110500
X105500
X140500
X145500
X155500Y257750
X160500Y262500
X165500Y260500
X170500Y262750
X175500Y263250
X180500Y261000
X200000Y258250
X202000Y268000
X212000
X191250Y286500
Y292500
X187250Y289500
X183250Y286500
X177750Y286450
Y292450
X183250Y292500
X173750Y289450
X169750Y286450
Y292450
X118500Y290000
Y295000
X76250Y275000
X252500Y269000
Y263000
X256500Y266000
X260500Y263000
Y269000
X294750Y267250
X299750
Y260750
X294750
X313000Y260500
X317000Y257500
X321000Y260500
X348000Y261000
Y267000
X352000Y264000
X356000Y261000
Y267000
Y316000
Y322000
X352000Y319000
X348000Y316000
Y322000
X347500Y358250
X342500
X341500Y374250
X324750Y374250
X322500Y355750
X299500Y357000
Y363000
X295500Y360000
X291500Y357000
Y363000
Y308000
Y302000
X295500Y305000
X299500Y302000
Y308000
X363990Y365000
Y370000
X390000Y370500
Y364500
X394000Y367500
X398000Y364500
Y370500
X409750Y370750
X414750
Y377250
X409750
Y364250
X414750
X412250Y357750
X428750Y364500
Y370500
X432750Y367500
X436750Y364500
Y370500
X456750Y377000
X461250
X486000Y374750
Y370250
X500000Y370000
Y374500
X516000Y372500
X520500
X520250Y358000
X524750
X540500Y353000
Y348500
X545000
Y353000
X544750Y369000
X540250
X525000Y335500
Y331000
X520500
Y335500
X521000Y289500
X528150
X537000Y289450
X543300
Y276750
X537000
X528150Y276800
X521000
Y264100
X528150
X537000Y264050
X543300
X465750Y262750
Y268750
X461750Y265750
X457750Y262750
Y268750
X476000Y291000
Y297000
X480000Y294000
X484000Y291000
Y297000
X471250Y345500
Y351500
X467250Y348500
X463250Y345500
Y351500
M30
