M48
;Layer_Color=9474304
;FILE_FORMAT=4:4
METRIC,TZ
;TYPE=PLATED
T2F00S00C0.3000
%
T02
X395000Y22500
X419500Y49000
X432250Y43000
X447000Y25500
X467000Y23000
X491000Y34750
X498250Y45000
X508250Y32250
X544000Y19000
X565000Y71750
X574500Y65000
X584000Y101000
Y113500
X565000Y122500
X578900Y141900
X592500Y151500
Y164000
X598000Y185000
X616500Y191100
X616150Y205600
X604250Y231000
X593000Y239000
Y251500
X565000Y227000
X552450Y211550
X550750Y200000
X552800Y188000
X565000Y190500
X579000Y191000
X573600Y204550
X580000Y211000
X565000Y172750
X521750Y176500
X522000Y162500
X508000Y178000
X510000Y193000
X525250Y193250
X520000Y206500
X521000Y226000
X520250Y240250
X521000Y251400
X503000Y245250
X490000Y249000
X487500Y235000
X474500Y250000
X470700Y214000
X456250Y212250
X469750Y197250
X479000Y195250
X485750Y188000
X484251Y164999
X483750Y146500
X497250Y147250
X501000Y133500
X518500Y134250
X530250Y130250
X520750Y120500
X511000Y120000
X519000Y91000
X478750Y79000
X484000Y63750
X473250Y54000
X456250Y62250
X456750Y74000
X471250Y99000
X470000Y144000
X456250Y142500
X462500Y153500
X440500Y170000
X427500Y171750
X414000Y199500
X400000Y199250
X428500Y235000
X414000Y252300
X502500Y221000
X497750Y204750
X431000Y132250
X405500Y139500
X414000Y112300
X426750Y91000
X410000Y70000
X616150Y71100
Y101100
X606000Y94750
X603250Y123500
X622550Y118950
X385000Y123750
X376350Y97750
X345000Y100250
X311000Y105250
X306500Y98250
X298750Y105000
X290750Y106000
X282000Y130250
X288000Y139250
X266750Y142500
X266000Y134000
X246750Y139500
X242500Y147500
X243500Y166250
X257000Y159250
X271500Y154500
X278250Y169000
X272500Y181000
X290000Y175750
X298000Y173000
X299750Y158500
X308500Y161250
X317715Y161465
X338500Y152500
X350750Y166750
X358245Y189250
Y208250
X346750Y223500
X375850Y219250
X374000Y195000
X336250Y198250
X315500Y198750
X307000Y205250
X297750Y204000
X294750Y212500
X297250Y225000
X311000Y223750
X304000Y245500
X305750Y254250
X290250Y238500
X254750Y240250
X251500Y214250
X251750Y201500
X240500Y199500
X229500Y201750
X227750Y190250
X232750Y177250
X251500Y182750
X208499Y180500
X196250Y190250
X178500Y186500
X169001Y198500
X172250Y217500
X182250Y211500
X178750Y239000
X159250Y245500
X153250Y251250
X148750Y242750
X134125Y235625
X132000Y223000
X141625Y213500
X153750Y206500
X143500Y191500
X140750Y175750
X132250Y176000
X134000Y164000
X146250Y162000
X152500Y168000
X149500Y176250
X166500Y176000
X165750Y162250
X177750Y149750
X188500Y164500
X194750Y169750
X227750Y153750
X232750Y122500
X204500Y112250
X196500Y84500
X176750Y81750
X176500Y73750
X172000Y47000
X151750Y48500
X155000Y33000
X144000Y27000
X134500Y24750
X122000Y17500
X113000Y26500
X110000Y34500
X116000Y41500
X125500Y42250
X120250Y57250
X121750Y68750
X118750Y81000
X131750Y79500
X145000Y73000
X143250Y63250
X139000Y94250
X162750Y100250
X159250Y128250
X150750Y123250
X149500Y132250
X141000Y143250
X128750Y142000
X120000Y141750
X114500Y130000
X111200Y116200
X93800Y116200
X93750Y103750
X93800Y96200
X101750Y89000
X72000Y88750
X78250Y82000
X81500Y59750
X90250Y61000
X71000Y61000
X64750Y54750
X74750Y51750
X78250Y25000
X82500Y17750
X94750Y15000
X105250Y22500
X97500Y41750
X69250Y21250
X40750Y85000
X32500
X23000Y93750
X23000Y106500
X24375Y116250
X21500Y128750
X14000Y133500
X29750Y133750
X51500Y129000
X46750Y122000
X51750Y115250
X64750Y123000
X73000Y118000
X75750Y126500
X67000Y138750
X67500Y146750
X76500Y147000
X75000Y165000
X83250Y176750
X79000Y190500
X77250Y198700
X68000Y200000
X91000Y198000
X90500Y214500
X77250Y217500
X87750Y233750
X107750Y236000
X104750Y246750
X116250Y247000
X110250Y253500
X105000Y223000
X110750Y203750
X116500Y197750
X115000Y189000
X123375Y186500
X107000Y184500
X102250Y177250
X110250Y175750
X106750Y163250
X116000Y164750
X128000Y151750
X133000Y127250
X120000Y105250
X93800Y136200
X93750Y144000
X93800Y156200
X93750Y168250
X47500Y165250
X38750Y166500
X47500Y181500
X22700Y186200
X15700Y176200
X13750Y156250
X15250Y200000
X8250Y204500
X12500Y218250
X24250Y228750
Y243500
X23250Y255750
X40750Y226000
X49071Y224000
X46250Y97000
X217750Y77250
X241500Y78500
X262750Y84750
X271500Y82501
X273750Y74250
X266000Y50000
X250250
X238000Y38000
X220000Y31000
X189000
X181000Y29000
X257000Y29250
X272000Y32000
X281250Y37500
X284000Y29000
X299000Y29250
X306750Y18750
X347250Y16500
X343000Y32750
X338000Y66250
X307000Y80000
X295250Y50500
X370000Y17500
X273000Y215500
X232250Y224000
X219000Y223000
X220750Y212250
X219250Y242000
X203000Y231250
X204500Y275000
X194500Y270250
X180500Y270250
X172250Y271000
X166750Y279250
X160250Y290250
X144000Y297250
X141250Y306250
X145500Y315500
X140500Y322000
X122250Y318750
X123250Y327750
X117000Y333750
X103000Y328750
X107250Y318000
Y308000
X100750Y301750
X105500Y294250
X107250Y274000
X100250Y269500
X90250Y278500
X85750Y285500
X71750Y285750
X57000Y288000
X56750Y279250
X67500Y271000
X80250Y271000
X77500Y263000
X45000Y261000
X39500Y273000
X41750Y291250
X50750Y312250
X37250Y317750
X22250Y317000
X69250Y315000
Y324750
X90000Y331750
X61250Y349250
X94500Y382750
X144000Y381750
X152500Y383250
X165250Y381500
X172250Y376500
X184000Y381500
X196500Y379000
X196500Y350500
X231750Y349250
X244000Y348500
X252750Y348500
X251250Y373250
X266250Y377000
X275750Y376000
X281000Y343750
X291500Y348250
X296500Y340500
X307500Y363750
X318750Y364000
X334250Y366000
X343250Y364500
X366500Y376750
X316000Y381750
X311500Y302000
X282500Y298250
X274000Y304250
X262500Y296750
X272500Y274500
X281500Y277500
X289500Y276750
X288000Y267250
X266750Y266000
X247000
X248500Y278000
X239500Y281500
X225000Y298000
X220000Y322500
X251250Y322750
X269000Y323750
X279250Y322000
X187750Y319500
X173750Y321750
X164750Y355750
X143500Y353750
X142750Y345750
X147250Y338750
X143750Y277250
X145250Y268750
X136750Y270250
X128250Y275000
X133750Y257750
X153250Y265750
X218000Y264250
X338250Y277250
X353000Y301500
X386250Y307500
X385000Y330500
X414000Y337700
X421000Y358750
X440500Y379500
X467900Y377000
X479250Y365250
X490550Y365700
X496000Y355750
X509500Y365000
X547500Y379000
X566500Y328700
X586750Y343750
X584000Y300500
Y288000
X599000Y281500
X598250Y273000
X614500Y276250
X616150Y284600
Y299100
Y326100
X579100Y260600
X565000Y274000
X514000Y273500
X498500Y298250
X490550Y308950
X470500Y294000
X456000Y295500
X456250Y282500
X474500Y275500
X431000Y267700
X410000Y276500
X400750Y262000
X419500Y302250
X441750Y322750
X528500Y307000
M30
