G04 Layer_Physical_Order=2*
G04 Layer_Color=6736896*
%FSLAX44Y44*%
%MOMM*%
G71*
G01*
G75*
%ADD31C,0.2000*%
%ADD39C,1.1900*%
%ADD42C,1.5000*%
%ADD43C,0.8000*%
%ADD44C,0.6000*%
%ADD45C,0.9000*%
%ADD46R,1.5750X33.7300*%
%ADD47R,58.8500X1.3500*%
%ADD48R,4.2000X6.9750*%
%ADD49R,6.9750X4.2000*%
%ADD50R,1.6750X3.9000*%
%ADD51R,1.6750X5.5750*%
%ADD52R,1.2750X0.8500*%
%ADD53R,0.8500X1.2750*%
%ADD54C,2.7000*%
%ADD55C,4.5000*%
G36*
X621051Y400280D02*
X623537Y399986D01*
X625992Y399498D01*
X628401Y398818D01*
X630749Y397952D01*
X633022Y396904D01*
X635206Y395681D01*
X637288Y394290D01*
X639253Y392741D01*
X641091Y391041D01*
X642791Y389203D01*
X644340Y387238D01*
X645731Y385156D01*
X646954Y382972D01*
X648002Y380699D01*
X648868Y378351D01*
X649548Y375942D01*
X650036Y373487D01*
X650330Y371001D01*
X650427Y368525D01*
X650404Y368500D01*
X650404D01*
X650428Y31200D01*
X650330Y28699D01*
X650036Y26213D01*
X649548Y23758D01*
X648868Y21349D01*
X648002Y19001D01*
X646954Y16727D01*
X645731Y14544D01*
X644340Y12462D01*
X642791Y10497D01*
X641091Y8659D01*
X639253Y6959D01*
X637288Y5410D01*
X635206Y4019D01*
X633022Y2796D01*
X630749Y1748D01*
X628401Y882D01*
X625992Y202D01*
X623537Y-286D01*
X621051Y-580D01*
X619740Y-632D01*
X618550Y-664D01*
X618539Y-654D01*
X617341Y-654D01*
X32455D01*
X31261Y-654D01*
X30837Y-646D01*
X29990Y-629D01*
X28749Y-580D01*
X26263Y-286D01*
X23808Y202D01*
X21399Y882D01*
X19051Y1748D01*
X16777Y2796D01*
X14594Y4019D01*
X12512Y5410D01*
X10547Y6959D01*
X8709Y8659D01*
X7010Y10497D01*
X5460Y12462D01*
X4069Y14544D01*
X2846Y16727D01*
X1798Y19001D01*
X932Y21349D01*
X252Y23758D01*
X-236Y26213D01*
X-530Y28699D01*
X-582Y30010D01*
X-614Y31200D01*
X-604Y31211D01*
X-604Y32409D01*
Y85862D01*
X-545Y85870D01*
X112Y86142D01*
X676Y86574D01*
X1108Y87138D01*
X1381Y87795D01*
X1473Y88500D01*
Y326000D01*
X1381Y326705D01*
X1108Y327362D01*
X676Y327926D01*
X112Y328358D01*
X-545Y328630D01*
X-604Y328638D01*
Y368500D01*
X-604D01*
X-627Y368525D01*
X-530Y371001D01*
X-236Y373487D01*
X252Y375942D01*
X932Y378351D01*
X1798Y380699D01*
X2846Y382972D01*
X4069Y385156D01*
X5460Y387238D01*
X7010Y389203D01*
X8709Y391041D01*
X10547Y392741D01*
X12512Y394290D01*
X14594Y395681D01*
X16777Y396904D01*
X19051Y397952D01*
X21399Y398818D01*
X23808Y399498D01*
X26263Y399986D01*
X28749Y400280D01*
X31225Y400377D01*
X31250Y400354D01*
Y400354D01*
X618550Y400378D01*
X621051Y400280D01*
D02*
G37*
%LPC*%
G36*
X402250Y144469D02*
X401277Y144393D01*
X400328Y144165D01*
X399427Y143791D01*
X398595Y143281D01*
X397852Y142648D01*
X397219Y141905D01*
X396709Y141073D01*
X396335Y140172D01*
X396107Y139223D01*
X396031Y138250D01*
X396107Y137277D01*
X396335Y136328D01*
X396709Y135427D01*
X397219Y134594D01*
X397852Y133852D01*
X398595Y133219D01*
X399427Y132709D01*
X400328Y132335D01*
X401277Y132107D01*
X402250Y132031D01*
X403223Y132107D01*
X404172Y132335D01*
X405073Y132709D01*
X405905Y133219D01*
X406648Y133852D01*
X407281Y134594D01*
X407791Y135427D01*
X408165Y136328D01*
X408393Y137277D01*
X408469Y138250D01*
X408393Y139223D01*
X408165Y140172D01*
X407791Y141073D01*
X407281Y141905D01*
X406648Y142648D01*
X405905Y143281D01*
X405073Y143791D01*
X404172Y144165D01*
X403223Y144393D01*
X402250Y144469D01*
D02*
G37*
G36*
X551500Y150421D02*
X550449Y150338D01*
X549423Y150092D01*
X548449Y149688D01*
X547550Y149137D01*
X546748Y148452D01*
X546063Y147650D01*
X545512Y146751D01*
X545108Y145777D01*
X544862Y144751D01*
X544779Y143700D01*
X544862Y142649D01*
X545108Y141623D01*
X545512Y140649D01*
X546063Y139750D01*
X546748Y138948D01*
X547550Y138263D01*
X548449Y137712D01*
X549423Y137308D01*
X550449Y137062D01*
X551500Y136979D01*
X552551Y137062D01*
X553577Y137308D01*
X554551Y137712D01*
X555450Y138263D01*
X556252Y138948D01*
X556937Y139750D01*
X557488Y140649D01*
X557892Y141623D01*
X558138Y142649D01*
X558221Y143700D01*
X558138Y144751D01*
X557892Y145777D01*
X557488Y146751D01*
X556937Y147650D01*
X556252Y148452D01*
X555450Y149137D01*
X554551Y149688D01*
X553577Y150092D01*
X552551Y150338D01*
X551500Y150421D01*
D02*
G37*
G36*
X539500Y142275D02*
X538481Y142175D01*
X537500Y141877D01*
X536597Y141395D01*
X535805Y140745D01*
X535155Y139953D01*
X534673Y139050D01*
X534375Y138069D01*
X534275Y137050D01*
X534375Y136031D01*
X534673Y135050D01*
X535155Y134147D01*
X535805Y133355D01*
X536597Y132705D01*
X537500Y132223D01*
X538481Y131925D01*
X539500Y131825D01*
X540519Y131925D01*
X541500Y132223D01*
X542403Y132705D01*
X543195Y133355D01*
X543845Y134147D01*
X544327Y135050D01*
X544625Y136031D01*
X544725Y137050D01*
X544625Y138069D01*
X544327Y139050D01*
X543845Y139953D01*
X543195Y140745D01*
X542403Y141395D01*
X541500Y141877D01*
X540519Y142175D01*
X539500Y142275D01*
D02*
G37*
G36*
X337000Y140175D02*
X335981Y140075D01*
X335000Y139777D01*
X334097Y139295D01*
X333305Y138645D01*
X332655Y137853D01*
X332173Y136950D01*
X331875Y135969D01*
X331775Y134950D01*
X331875Y133931D01*
X332173Y132950D01*
X332655Y132047D01*
X333305Y131255D01*
X334097Y130605D01*
X335000Y130122D01*
X335981Y129825D01*
X337000Y129725D01*
X338019Y129825D01*
X339000Y130122D01*
X339903Y130605D01*
X340695Y131255D01*
X341345Y132047D01*
X341827Y132950D01*
X342125Y133931D01*
X342225Y134950D01*
X342125Y135969D01*
X341827Y136950D01*
X341345Y137853D01*
X340695Y138645D01*
X339903Y139295D01*
X339000Y139777D01*
X338019Y140075D01*
X337000Y140175D01*
D02*
G37*
G36*
X261500Y143219D02*
X260527Y143143D01*
X259578Y142915D01*
X258677Y142541D01*
X257845Y142031D01*
X257102Y141398D01*
X256469Y140655D01*
X255959Y139823D01*
X255585Y138922D01*
X255357Y137973D01*
X255281Y137000D01*
X255357Y136027D01*
X255585Y135078D01*
X255959Y134177D01*
X256469Y133344D01*
X257102Y132602D01*
X257845Y131969D01*
X258677Y131459D01*
X259578Y131085D01*
X260527Y130857D01*
X261500Y130781D01*
X262473Y130857D01*
X263422Y131085D01*
X264323Y131459D01*
X265156Y131969D01*
X265898Y132602D01*
X266531Y133344D01*
X267041Y134177D01*
X267415Y135078D01*
X267643Y136027D01*
X267719Y137000D01*
X267643Y137973D01*
X267415Y138922D01*
X267041Y139823D01*
X266531Y140655D01*
X265898Y141398D01*
X265156Y142031D01*
X264323Y142541D01*
X263422Y142915D01*
X262473Y143143D01*
X261500Y143219D01*
D02*
G37*
G36*
X191000Y149919D02*
X190027Y149843D01*
X189078Y149615D01*
X188177Y149241D01*
X187344Y148731D01*
X186602Y148098D01*
X185969Y147355D01*
X185582Y146725D01*
X184875Y146615D01*
X184168Y146725D01*
X183781Y147355D01*
X183148Y148098D01*
X182406Y148731D01*
X181573Y149241D01*
X180672Y149615D01*
X179723Y149843D01*
X178750Y149919D01*
X177777Y149843D01*
X176828Y149615D01*
X175927Y149241D01*
X175095Y148731D01*
X174352Y148098D01*
X173148D01*
X172405Y148731D01*
X171573Y149241D01*
X170672Y149615D01*
X169723Y149843D01*
X168750Y149919D01*
X167777Y149843D01*
X166828Y149615D01*
X165927Y149241D01*
X165095Y148731D01*
X164352Y148098D01*
X163719Y147355D01*
X163209Y146523D01*
X162835Y145622D01*
X162607Y144673D01*
X162531Y143700D01*
X162607Y142727D01*
X162835Y141778D01*
X163209Y140877D01*
X163719Y140044D01*
X164352Y139302D01*
X165095Y138669D01*
X165927Y138159D01*
X166828Y137785D01*
X167777Y137557D01*
X168750Y137481D01*
X169723Y137557D01*
X170672Y137785D01*
X171573Y138159D01*
X172405Y138669D01*
X173148Y139302D01*
X174352D01*
X175095Y138669D01*
X175927Y138159D01*
X176828Y137785D01*
X177777Y137557D01*
X178750Y137481D01*
X179723Y137557D01*
X180672Y137785D01*
X181573Y138159D01*
X182406Y138669D01*
X183148Y139302D01*
X183781Y140044D01*
X184168Y140675D01*
X184875Y140785D01*
X185582Y140675D01*
X185969Y140044D01*
X186602Y139302D01*
X187344Y138669D01*
X188177Y138159D01*
X189078Y137785D01*
X190027Y137557D01*
X191000Y137481D01*
X191973Y137557D01*
X192922Y137785D01*
X193823Y138159D01*
X194655Y138669D01*
X195398Y139302D01*
X196031Y140044D01*
X196541Y140877D01*
X196915Y141778D01*
X197143Y142727D01*
X197219Y143700D01*
X197143Y144673D01*
X196915Y145622D01*
X196541Y146523D01*
X196031Y147355D01*
X195398Y148098D01*
X194655Y148731D01*
X193823Y149241D01*
X192922Y149615D01*
X191973Y149843D01*
X191000Y149919D01*
D02*
G37*
G36*
X231697Y158925D02*
X230678Y158825D01*
X229697Y158527D01*
X228794Y158045D01*
X228002Y157395D01*
X227353Y156603D01*
X226870Y155700D01*
X226572Y154719D01*
X226472Y153700D01*
X226572Y152681D01*
X226870Y151700D01*
X227353Y150797D01*
X228002Y150005D01*
X228794Y149355D01*
X229697Y148873D01*
X230678Y148575D01*
X231697Y148475D01*
X232717Y148575D01*
X233697Y148873D01*
X234600Y149355D01*
X235392Y150005D01*
X236042Y150797D01*
X236525Y151700D01*
X236822Y152681D01*
X236922Y153700D01*
X236822Y154719D01*
X236525Y155700D01*
X236042Y156603D01*
X235392Y157395D01*
X234600Y158045D01*
X233697Y158527D01*
X232717Y158825D01*
X231697Y158925D01*
D02*
G37*
G36*
X539500Y154975D02*
X538481Y154875D01*
X537500Y154577D01*
X536597Y154095D01*
X535805Y153445D01*
X535155Y152653D01*
X534673Y151750D01*
X534375Y150769D01*
X534275Y149750D01*
X534375Y148731D01*
X534673Y147750D01*
X535155Y146847D01*
X535805Y146055D01*
X536597Y145405D01*
X537500Y144923D01*
X538481Y144625D01*
X539500Y144525D01*
X540519Y144625D01*
X541500Y144923D01*
X542403Y145405D01*
X543195Y146055D01*
X543845Y146847D01*
X544327Y147750D01*
X544625Y148731D01*
X544725Y149750D01*
X544625Y150769D01*
X544327Y151750D01*
X543845Y152653D01*
X543195Y153445D01*
X542403Y154095D01*
X541500Y154577D01*
X540519Y154875D01*
X539500Y154975D01*
D02*
G37*
G36*
X124750Y148675D02*
X123731Y148575D01*
X122750Y148277D01*
X121847Y147795D01*
X121055Y147145D01*
X120405Y146353D01*
X119923Y145450D01*
X119625Y144469D01*
X119525Y143450D01*
X119625Y142431D01*
X119923Y141450D01*
X120405Y140547D01*
X121055Y139755D01*
X121847Y139105D01*
X122750Y138623D01*
X123731Y138325D01*
X124750Y138225D01*
X125769Y138325D01*
X126750Y138623D01*
X127653Y139105D01*
X128445Y139755D01*
X129095Y140547D01*
X129577Y141450D01*
X129875Y142431D01*
X129975Y143450D01*
X129875Y144469D01*
X129577Y145450D01*
X129095Y146353D01*
X128445Y147145D01*
X127653Y147795D01*
X126750Y148277D01*
X125769Y148575D01*
X124750Y148675D01*
D02*
G37*
G36*
X457250Y155469D02*
X456277Y155393D01*
X455328Y155165D01*
X454427Y154791D01*
X453595Y154281D01*
X452852Y153648D01*
X452219Y152906D01*
X451709Y152073D01*
X451335Y151172D01*
X451107Y150223D01*
X451031Y149250D01*
X451107Y148277D01*
X451335Y147328D01*
X451709Y146427D01*
X452219Y145595D01*
X452852Y144852D01*
X453595Y144219D01*
X454427Y143709D01*
X455328Y143335D01*
X456277Y143107D01*
X457250Y143031D01*
X458223Y143107D01*
X459172Y143335D01*
X460074Y143709D01*
X460906Y144219D01*
X461648Y144852D01*
X462281Y145595D01*
X462791Y146427D01*
X463165Y147328D01*
X463393Y148277D01*
X463469Y149250D01*
X463393Y150223D01*
X463165Y151172D01*
X462791Y152073D01*
X462281Y152906D01*
X461648Y153648D01*
X460906Y154281D01*
X460074Y154791D01*
X459172Y155165D01*
X458223Y155393D01*
X457250Y155469D01*
D02*
G37*
G36*
X296000Y140175D02*
X294981Y140075D01*
X294000Y139777D01*
X293097Y139295D01*
X292305Y138645D01*
X291655Y137853D01*
X291173Y136950D01*
X290875Y135969D01*
X290775Y134950D01*
X290875Y133931D01*
X291173Y132950D01*
X291655Y132047D01*
X292305Y131255D01*
X293097Y130605D01*
X294000Y130122D01*
X294981Y129825D01*
X296000Y129725D01*
X297019Y129825D01*
X298000Y130122D01*
X298903Y130605D01*
X299695Y131255D01*
X300345Y132047D01*
X300827Y132950D01*
X301125Y133931D01*
X301225Y134950D01*
X301125Y135969D01*
X300827Y136950D01*
X300345Y137853D01*
X299695Y138645D01*
X298903Y139295D01*
X298000Y139777D01*
X297019Y140075D01*
X296000Y140175D01*
D02*
G37*
G36*
X597250Y116169D02*
X596277Y116093D01*
X595328Y115865D01*
X594427Y115491D01*
X593595Y114981D01*
X592852Y114348D01*
X592219Y113606D01*
X591709Y112774D01*
X591335Y111872D01*
X591107Y110923D01*
X591031Y109950D01*
X591107Y108977D01*
X591335Y108028D01*
X591709Y107127D01*
X592219Y106294D01*
X592852Y105552D01*
X593595Y104919D01*
X594427Y104409D01*
X595328Y104035D01*
X596277Y103807D01*
X597250Y103731D01*
X598223Y103807D01*
X599172Y104035D01*
X600074Y104409D01*
X600906Y104919D01*
X601648Y105552D01*
X602281Y106294D01*
X602791Y107127D01*
X603165Y108028D01*
X603393Y108977D01*
X603469Y109950D01*
X603393Y110923D01*
X603165Y111872D01*
X602791Y112774D01*
X602281Y113606D01*
X601648Y114348D01*
X600906Y114981D01*
X600074Y115491D01*
X599172Y115865D01*
X598223Y116093D01*
X597250Y116169D01*
D02*
G37*
G36*
X271000Y111925D02*
X269981Y111825D01*
X269000Y111527D01*
X268097Y111045D01*
X267305Y110395D01*
X265945D01*
X265153Y111045D01*
X264250Y111527D01*
X263269Y111825D01*
X262250Y111925D01*
X261231Y111825D01*
X260250Y111527D01*
X259347Y111045D01*
X258555Y110395D01*
X257905Y109603D01*
X257423Y108700D01*
X257125Y107719D01*
X257025Y106700D01*
X257125Y105681D01*
X257423Y104700D01*
X257905Y103797D01*
X258555Y103005D01*
X259347Y102355D01*
X260250Y101873D01*
X261231Y101575D01*
X262250Y101475D01*
X263269Y101575D01*
X264250Y101873D01*
X265153Y102355D01*
X265945Y103005D01*
X267305D01*
X268097Y102355D01*
X269000Y101873D01*
X269981Y101575D01*
X271000Y101475D01*
X272019Y101575D01*
X273000Y101873D01*
X273903Y102355D01*
X274695Y103005D01*
X275345Y103797D01*
X275827Y104700D01*
X276125Y105681D01*
X276225Y106700D01*
X276125Y107719D01*
X275827Y108700D01*
X275345Y109603D01*
X274695Y110395D01*
X273903Y111045D01*
X273000Y111527D01*
X272019Y111825D01*
X271000Y111925D01*
D02*
G37*
G36*
X204750Y111425D02*
X203731Y111325D01*
X202750Y111027D01*
X201847Y110545D01*
X201055Y109895D01*
X200405Y109103D01*
X199923Y108200D01*
X199625Y107219D01*
X199525Y106200D01*
X199625Y105181D01*
X199923Y104200D01*
X200405Y103297D01*
X201055Y102505D01*
X201847Y101855D01*
X202750Y101373D01*
X203731Y101075D01*
X204750Y100975D01*
X205769Y101075D01*
X206750Y101373D01*
X207653Y101855D01*
X208445Y102505D01*
X209095Y103297D01*
X209577Y104200D01*
X209875Y105181D01*
X209975Y106200D01*
X209875Y107219D01*
X209577Y108200D01*
X209095Y109103D01*
X208445Y109895D01*
X207653Y110545D01*
X206750Y111027D01*
X205769Y111325D01*
X204750Y111425D01*
D02*
G37*
G36*
X18750Y109225D02*
X17731Y109125D01*
X16750Y108827D01*
X15847Y108345D01*
X15055Y107695D01*
X14405Y106903D01*
X13923Y106000D01*
X13625Y105019D01*
X13525Y104000D01*
X13625Y102981D01*
X13923Y102000D01*
X14405Y101097D01*
X15055Y100305D01*
X15847Y99655D01*
X16750Y99173D01*
X17731Y98875D01*
X18750Y98775D01*
X19769Y98875D01*
X20750Y99173D01*
X21653Y99655D01*
X22445Y100305D01*
X23095Y101097D01*
X23577Y102000D01*
X23875Y102981D01*
X23975Y104000D01*
X23875Y105019D01*
X23577Y106000D01*
X23095Y106903D01*
X22445Y107695D01*
X21653Y108345D01*
X20750Y108827D01*
X19769Y109125D01*
X18750Y109225D01*
D02*
G37*
G36*
X192750Y111425D02*
X191731Y111325D01*
X190750Y111027D01*
X189847Y110545D01*
X189055Y109895D01*
X188405Y109103D01*
X187923Y108200D01*
X187625Y107219D01*
X187525Y106200D01*
X187625Y105181D01*
X187923Y104200D01*
X188405Y103297D01*
X189055Y102505D01*
X189847Y101855D01*
X190750Y101373D01*
X191731Y101075D01*
X192750Y100975D01*
X193769Y101075D01*
X194750Y101373D01*
X195653Y101855D01*
X196445Y102505D01*
X197095Y103297D01*
X197577Y104200D01*
X197875Y105181D01*
X197975Y106200D01*
X197875Y107219D01*
X197577Y108200D01*
X197095Y109103D01*
X196445Y109895D01*
X195653Y110545D01*
X194750Y111027D01*
X193769Y111325D01*
X192750Y111425D01*
D02*
G37*
G36*
X402750Y127175D02*
X401731Y127075D01*
X400750Y126777D01*
X399847Y126294D01*
X399055Y125645D01*
X398405Y124853D01*
X397923Y123950D01*
X397625Y122969D01*
X397525Y121950D01*
X397625Y120931D01*
X397923Y119950D01*
X398405Y119047D01*
X399055Y118255D01*
X399847Y117605D01*
X400750Y117122D01*
X401731Y116825D01*
X402750Y116725D01*
X403769Y116825D01*
X404750Y117122D01*
X405653Y117605D01*
X406445Y118255D01*
X407095Y119047D01*
X407577Y119950D01*
X407875Y120931D01*
X407975Y121950D01*
X407875Y122969D01*
X407577Y123950D01*
X407095Y124853D01*
X406445Y125645D01*
X405653Y126294D01*
X404750Y126777D01*
X403769Y127075D01*
X402750Y127175D01*
D02*
G37*
G36*
X129500Y135175D02*
X128481Y135075D01*
X127500Y134777D01*
X126597Y134295D01*
X125805Y133645D01*
X125155Y132853D01*
X124673Y131950D01*
X124375Y130969D01*
X124275Y129950D01*
X124375Y128931D01*
X124673Y127950D01*
X125155Y127047D01*
X125805Y126255D01*
X126597Y125605D01*
X127500Y125123D01*
X128481Y124825D01*
X129500Y124725D01*
X130519Y124825D01*
X131500Y125123D01*
X132403Y125605D01*
X133195Y126255D01*
X133845Y127047D01*
X134327Y127950D01*
X134625Y128931D01*
X134725Y129950D01*
X134625Y130969D01*
X134327Y131950D01*
X133845Y132853D01*
X133195Y133645D01*
X132403Y134295D01*
X131500Y134777D01*
X130519Y135075D01*
X129500Y135175D01*
D02*
G37*
G36*
X539500Y129575D02*
X538481Y129475D01*
X537500Y129177D01*
X536597Y128695D01*
X535805Y128045D01*
X535155Y127253D01*
X534673Y126350D01*
X534375Y125369D01*
X534275Y124350D01*
X534375Y123331D01*
X534673Y122350D01*
X535155Y121447D01*
X535805Y120655D01*
X536597Y120005D01*
X537500Y119523D01*
X538481Y119225D01*
X539500Y119125D01*
X540519Y119225D01*
X541500Y119523D01*
X542403Y120005D01*
X543195Y120655D01*
X543844Y121447D01*
X543845Y121447D01*
X543545Y121082D01*
X543856Y121441D01*
X544937Y120830D01*
X544747Y120362D01*
X544940Y120828D01*
D01*
X544608Y120027D01*
X544362Y119001D01*
X544279Y117950D01*
X544362Y116899D01*
X544545Y116135D01*
X544128Y114958D01*
X544128Y114958D01*
Y114958D01*
X543715Y114711D01*
X543712Y114715D01*
X543195Y115345D01*
X542403Y115995D01*
X541500Y116477D01*
X540519Y116775D01*
X539500Y116875D01*
X538481Y116775D01*
X537500Y116477D01*
X536597Y115995D01*
X535805Y115345D01*
X535155Y114553D01*
X534673Y113650D01*
X534375Y112669D01*
X534275Y111650D01*
X534375Y110631D01*
X534673Y109650D01*
X535155Y108747D01*
X535805Y107955D01*
X536597Y107305D01*
X537500Y106823D01*
X538481Y106525D01*
X539500Y106425D01*
X540519Y106525D01*
X541500Y106823D01*
X542403Y107305D01*
X543195Y107955D01*
X543845Y108747D01*
X544327Y109650D01*
X544625Y110631D01*
X544725Y111650D01*
X544625Y112669D01*
X544337Y113617D01*
X544328Y113650D01*
X544725Y113835D01*
Y113835D01*
X544725Y113835D01*
X545929Y113571D01*
X546248Y113198D01*
X547050Y112513D01*
X547949Y111962D01*
X548923Y111558D01*
X549949Y111312D01*
X551000Y111229D01*
X552051Y111312D01*
X553077Y111558D01*
X554051Y111962D01*
X554950Y112513D01*
X555752Y113198D01*
X556437Y114000D01*
X556988Y114899D01*
X557392Y115873D01*
X557638Y116899D01*
X557721Y117950D01*
X557638Y119001D01*
X557392Y120027D01*
X556988Y121001D01*
X556437Y121900D01*
X555752Y122702D01*
X554950Y123387D01*
X554051Y123938D01*
X553077Y124342D01*
X552051Y124588D01*
X551000Y124671D01*
X549949Y124588D01*
X548923Y124342D01*
X547949Y123938D01*
X547050Y123387D01*
X546248Y122702D01*
X545578Y121918D01*
X545563Y121900D01*
X545560Y121897D01*
X544328Y122350D01*
X544392Y122562D01*
X544625Y123331D01*
X544725Y124350D01*
X544625Y125369D01*
X544327Y126350D01*
X543845Y127253D01*
X543195Y128045D01*
X542403Y128695D01*
X541500Y129177D01*
X540519Y129475D01*
X539500Y129575D01*
D02*
G37*
G36*
X166000Y135175D02*
X164981Y135075D01*
X164000Y134777D01*
X163097Y134295D01*
X162305Y133645D01*
X161655Y132853D01*
X161173Y131950D01*
X160875Y130969D01*
X160775Y129950D01*
X160875Y128931D01*
X161173Y127950D01*
X161655Y127047D01*
X162305Y126255D01*
X163097Y125605D01*
X163275Y125510D01*
X163206Y124107D01*
X162927Y123991D01*
X162094Y123481D01*
X161352Y122848D01*
X160719Y122106D01*
X160209Y121273D01*
X159835Y120372D01*
X159607Y119423D01*
X159531Y118450D01*
X159607Y117477D01*
X159835Y116528D01*
X160209Y115627D01*
X160719Y114795D01*
X161352Y114052D01*
X162094Y113419D01*
X162927Y112909D01*
X163828Y112535D01*
X164777Y112307D01*
X165750Y112231D01*
X166723Y112307D01*
X167672Y112535D01*
X168573Y112909D01*
X169406Y113419D01*
X170148Y114052D01*
X170781Y114795D01*
X171291Y115627D01*
X171665Y116528D01*
X171893Y117477D01*
X171969Y118450D01*
X171893Y119423D01*
X171665Y120372D01*
X171291Y121273D01*
X170781Y122106D01*
X170148Y122848D01*
X169406Y123481D01*
X168573Y123991D01*
X168556Y123998D01*
X168507Y125394D01*
X168903Y125605D01*
X169695Y126255D01*
X170345Y127047D01*
X170827Y127950D01*
X171125Y128931D01*
X171225Y129950D01*
X171125Y130969D01*
X170827Y131950D01*
X170345Y132853D01*
X169695Y133645D01*
X168903Y134295D01*
X168000Y134777D01*
X167019Y135075D01*
X166000Y135175D01*
D02*
G37*
G36*
X31000Y124175D02*
X29981Y124075D01*
X29000Y123777D01*
X28097Y123295D01*
X27305Y122645D01*
X26655Y121853D01*
X26173Y120950D01*
X25875Y119969D01*
X25775Y118950D01*
X25875Y117931D01*
X26173Y116950D01*
X26655Y116047D01*
X27305Y115255D01*
X28097Y114605D01*
X29000Y114123D01*
X29981Y113825D01*
X31000Y113725D01*
X32019Y113825D01*
X33000Y114123D01*
X33903Y114605D01*
X34695Y115255D01*
X35345Y116047D01*
X35827Y116950D01*
X36125Y117931D01*
X36225Y118950D01*
X36125Y119969D01*
X35827Y120950D01*
X35345Y121853D01*
X34695Y122645D01*
X33903Y123295D01*
X33000Y123777D01*
X32019Y124075D01*
X31000Y124175D01*
D02*
G37*
G36*
X475500Y181675D02*
X474481Y181575D01*
X473500Y181277D01*
X472597Y180795D01*
X471805Y180145D01*
X470195D01*
X469403Y180795D01*
X468500Y181277D01*
X467519Y181575D01*
X466500Y181675D01*
X465481Y181575D01*
X464500Y181277D01*
X463597Y180795D01*
X462805Y180145D01*
X462155Y179353D01*
X461673Y178450D01*
X461375Y177469D01*
X461275Y176450D01*
X461375Y175431D01*
X461673Y174450D01*
X462155Y173547D01*
X462805Y172755D01*
X463597Y172105D01*
X464500Y171623D01*
X465481Y171325D01*
X466500Y171225D01*
X467519Y171325D01*
X468500Y171623D01*
X469403Y172105D01*
X470195Y172755D01*
X471805D01*
X472597Y172105D01*
X473500Y171623D01*
X474481Y171325D01*
X475500Y171225D01*
X476519Y171325D01*
X477500Y171623D01*
X478403Y172105D01*
X479195Y172755D01*
X479845Y173547D01*
X480327Y174450D01*
X480625Y175431D01*
X480725Y176450D01*
X480625Y177469D01*
X480327Y178450D01*
X479845Y179353D01*
X479195Y180145D01*
X478403Y180795D01*
X477500Y181277D01*
X476519Y181575D01*
X475500Y181675D01*
D02*
G37*
G36*
X445250Y193219D02*
X444277Y193143D01*
X443328Y192915D01*
X442427Y192541D01*
X441595Y192031D01*
X440852Y191398D01*
X440219Y190655D01*
X439709Y189823D01*
X439335Y188922D01*
X439107Y187973D01*
X439031Y187000D01*
X439107Y186027D01*
X439335Y185078D01*
X439709Y184177D01*
X440219Y183344D01*
X440852Y182602D01*
X441595Y181969D01*
X442427Y181459D01*
X443328Y181085D01*
X444277Y180857D01*
X445250Y180781D01*
X446223Y180857D01*
X447172Y181085D01*
X448073Y181459D01*
X448906Y181969D01*
X449648Y182602D01*
X450281Y183344D01*
X450791Y184177D01*
X451165Y185078D01*
X451393Y186027D01*
X451469Y187000D01*
X451393Y187973D01*
X451165Y188922D01*
X450791Y189823D01*
X450281Y190655D01*
X449648Y191398D01*
X448906Y192031D01*
X448073Y192541D01*
X447172Y192915D01*
X446223Y193143D01*
X445250Y193219D01*
D02*
G37*
G36*
X507750Y181675D02*
X506731Y181575D01*
X505750Y181277D01*
X504847Y180795D01*
X504055Y180145D01*
X503635Y179633D01*
X503023Y179500D01*
X502727D01*
X502115Y179633D01*
X501695Y180145D01*
X500903Y180795D01*
X500000Y181277D01*
X499019Y181575D01*
X498000Y181675D01*
X496981Y181575D01*
X496000Y181277D01*
X495097Y180795D01*
X494305Y180145D01*
X493655Y179353D01*
X493173Y178450D01*
X492875Y177469D01*
X492775Y176450D01*
X492875Y175431D01*
X493173Y174450D01*
X493655Y173547D01*
X494305Y172755D01*
X495097Y172105D01*
X496000Y171623D01*
X496981Y171325D01*
X498000Y171225D01*
X499019Y171325D01*
X500000Y171623D01*
X500903Y172105D01*
X501695Y172755D01*
X502115Y173267D01*
X502727Y173400D01*
X503023D01*
X503635Y173267D01*
X504055Y172755D01*
X504847Y172105D01*
X505750Y171623D01*
X506731Y171325D01*
X507750Y171225D01*
X508769Y171325D01*
X509750Y171623D01*
X510653Y172105D01*
X511445Y172755D01*
X512095Y173547D01*
X512577Y174450D01*
X512875Y175431D01*
X512975Y176450D01*
X512875Y177469D01*
X512577Y178450D01*
X512095Y179353D01*
X511445Y180145D01*
X510653Y180795D01*
X509750Y181277D01*
X508769Y181575D01*
X507750Y181675D01*
D02*
G37*
G36*
X284000Y200469D02*
X283027Y200393D01*
X282078Y200165D01*
X281177Y199791D01*
X280344Y199281D01*
X279602Y198648D01*
X278969Y197906D01*
X278459Y197073D01*
X278085Y196172D01*
X277857Y195223D01*
X277781Y194250D01*
X277857Y193277D01*
X278085Y192328D01*
X278459Y191427D01*
X278969Y190595D01*
X279136Y190399D01*
X279154Y189798D01*
X278942Y188972D01*
X278839Y188834D01*
X278344Y188531D01*
X277602Y187898D01*
X276969Y187155D01*
X276459Y186323D01*
X276085Y185422D01*
X275857Y184473D01*
X275781Y183500D01*
X275857Y182527D01*
X276085Y181578D01*
X276459Y180676D01*
X276969Y179844D01*
X277602Y179102D01*
X278344Y178469D01*
X279177Y177959D01*
X280078Y177585D01*
X281027Y177357D01*
X282000Y177281D01*
X282973Y177357D01*
X283922Y177585D01*
X284823Y177959D01*
X285655Y178469D01*
X286398Y179102D01*
X287031Y179844D01*
X287541Y180676D01*
X287915Y181578D01*
X288143Y182527D01*
X288219Y183500D01*
X288143Y184473D01*
X287915Y185422D01*
X287541Y186323D01*
X287031Y187155D01*
X286864Y187351D01*
X286846Y187952D01*
X287058Y188778D01*
X287161Y188916D01*
X287656Y189219D01*
X288398Y189852D01*
X289031Y190595D01*
X289541Y191427D01*
X289915Y192328D01*
X290143Y193277D01*
X290219Y194250D01*
X290143Y195223D01*
X289915Y196172D01*
X289541Y197073D01*
X289031Y197906D01*
X288398Y198648D01*
X287656Y199281D01*
X286823Y199791D01*
X285922Y200165D01*
X284973Y200393D01*
X284000Y200469D01*
D02*
G37*
G36*
X348750Y199969D02*
X347777Y199893D01*
X346828Y199665D01*
X345927Y199291D01*
X345094Y198781D01*
X344352Y198148D01*
X343719Y197405D01*
X343209Y196573D01*
X342835Y195672D01*
X342607Y194723D01*
X342531Y193750D01*
X342607Y192777D01*
X342835Y191828D01*
X343209Y190927D01*
X343719Y190095D01*
X344352Y189352D01*
X345094Y188719D01*
X345332Y188573D01*
X345898Y187987D01*
X345758Y186904D01*
X345709Y186823D01*
X345335Y185922D01*
X345107Y184973D01*
X345031Y184000D01*
X345107Y183027D01*
X345335Y182078D01*
X345709Y181176D01*
X346219Y180344D01*
X346852Y179602D01*
X347594Y178969D01*
X348427Y178459D01*
X349328Y178085D01*
X350277Y177857D01*
X351250Y177781D01*
X352223Y177857D01*
X353172Y178085D01*
X354073Y178459D01*
X354906Y178969D01*
X355648Y179602D01*
X356281Y180344D01*
X356791Y181176D01*
X357165Y182078D01*
X357393Y183027D01*
X357469Y184000D01*
X357393Y184973D01*
X357165Y185922D01*
X356791Y186823D01*
X356281Y187656D01*
X355648Y188398D01*
X354906Y189031D01*
X354668Y189177D01*
X354102Y189763D01*
X354242Y190846D01*
X354291Y190927D01*
X354665Y191828D01*
X354893Y192777D01*
X354969Y193750D01*
X354893Y194723D01*
X354665Y195672D01*
X354291Y196573D01*
X353781Y197405D01*
X353148Y198148D01*
X352406Y198781D01*
X351573Y199291D01*
X350672Y199665D01*
X349723Y199893D01*
X348750Y199969D01*
D02*
G37*
G36*
X445250Y206969D02*
X444277Y206893D01*
X443328Y206665D01*
X442427Y206291D01*
X441595Y205781D01*
X440852Y205148D01*
X440219Y204405D01*
X439709Y203573D01*
X439335Y202672D01*
X439107Y201723D01*
X439031Y200750D01*
X439107Y199777D01*
X439335Y198828D01*
X439709Y197927D01*
X440219Y197094D01*
X440852Y196352D01*
X441595Y195719D01*
X442427Y195209D01*
X443328Y194835D01*
X444277Y194607D01*
X445250Y194531D01*
X446223Y194607D01*
X447172Y194835D01*
X448073Y195209D01*
X448906Y195719D01*
X449648Y196352D01*
X450281Y197094D01*
X450791Y197927D01*
X451165Y198828D01*
X451393Y199777D01*
X451469Y200750D01*
X451393Y201723D01*
X451165Y202672D01*
X450791Y203573D01*
X450281Y204405D01*
X449648Y205148D01*
X448906Y205781D01*
X448073Y206291D01*
X447172Y206665D01*
X446223Y206893D01*
X445250Y206969D01*
D02*
G37*
G36*
X469000Y214969D02*
X468027Y214893D01*
X467078Y214665D01*
X466177Y214291D01*
X465345Y213781D01*
X464602Y213148D01*
X463969Y212405D01*
X463459Y211573D01*
X463085Y210672D01*
X462857Y209723D01*
X462781Y208750D01*
X462857Y207777D01*
X463085Y206828D01*
X463459Y205927D01*
X463969Y205095D01*
X464602Y204352D01*
X465345Y203719D01*
X466177Y203209D01*
X467078Y202835D01*
X468027Y202607D01*
X469000Y202531D01*
X469973Y202607D01*
X470922Y202835D01*
X471823Y203209D01*
X472655Y203719D01*
X473398Y204352D01*
X474031Y205095D01*
X474541Y205927D01*
X474915Y206828D01*
X475143Y207777D01*
X475219Y208750D01*
X475143Y209723D01*
X474915Y210672D01*
X474541Y211573D01*
X474031Y212405D01*
X473398Y213148D01*
X472655Y213781D01*
X471823Y214291D01*
X470922Y214665D01*
X469973Y214893D01*
X469000Y214969D01*
D02*
G37*
G36*
X157250Y201925D02*
X156231Y201825D01*
X155250Y201527D01*
X154347Y201045D01*
X153555Y200395D01*
X152905Y199603D01*
X152423Y198700D01*
X152125Y197719D01*
X152025Y196700D01*
X152125Y195681D01*
X152135Y195649D01*
X150704Y194218D01*
X149674Y194622D01*
X149467Y194778D01*
X149375Y195719D01*
X149077Y196700D01*
X148595Y197603D01*
X147945Y198395D01*
X147153Y199045D01*
X146250Y199527D01*
X145269Y199825D01*
X144250Y199925D01*
X143231Y199825D01*
X142250Y199527D01*
X141347Y199045D01*
X140555Y198395D01*
X139905Y197603D01*
X139423Y196700D01*
X139125Y195719D01*
X139025Y194700D01*
X139125Y193681D01*
X139423Y192700D01*
X139905Y191797D01*
X140555Y191005D01*
X141347Y190355D01*
X142250Y189873D01*
X143231Y189575D01*
X144250Y189475D01*
X145269Y189575D01*
X145813Y189740D01*
X146408Y189474D01*
X146757Y189199D01*
X147022Y188846D01*
Y185921D01*
X146483Y185450D01*
X145752Y185102D01*
X145019Y185325D01*
X144000Y185425D01*
X142981Y185325D01*
X142000Y185027D01*
X141097Y184545D01*
X140305Y183895D01*
X139655Y183103D01*
X139173Y182200D01*
X138875Y181219D01*
X138775Y180200D01*
X138875Y179181D01*
X139173Y178200D01*
X139655Y177297D01*
X140305Y176505D01*
Y175645D01*
X139655Y174853D01*
X139173Y173950D01*
X138875Y172969D01*
X138775Y171950D01*
X138875Y170931D01*
X139173Y169950D01*
X139655Y169047D01*
X140305Y168255D01*
X141097Y167605D01*
X142000Y167122D01*
X142981Y166825D01*
X144000Y166725D01*
X145019Y166825D01*
X146000Y167122D01*
X146903Y167605D01*
X147695Y168255D01*
X148345Y169047D01*
X148669Y169654D01*
X149749Y169617D01*
X149998Y169527D01*
X150173Y168950D01*
X150655Y168047D01*
X151305Y167255D01*
X152097Y166605D01*
X153000Y166123D01*
X153981Y165825D01*
X155000Y165725D01*
X156019Y165825D01*
X157000Y166123D01*
X157903Y166605D01*
X158695Y167255D01*
X159345Y168047D01*
X159827Y168950D01*
X160125Y169931D01*
X160225Y170950D01*
X160125Y171969D01*
X159827Y172950D01*
X159345Y173853D01*
X158695Y174645D01*
X157903Y175295D01*
X157478Y175522D01*
Y176200D01*
X157368Y177035D01*
X157045Y177814D01*
X156917Y177982D01*
X157066Y178539D01*
X157541Y179254D01*
X158269Y179325D01*
X159250Y179623D01*
X160153Y180105D01*
X160945Y180755D01*
X161595Y181547D01*
X162077Y182450D01*
X162375Y183431D01*
X162475Y184450D01*
X162375Y185469D01*
X162077Y186450D01*
X161595Y187353D01*
X160945Y188145D01*
X160153Y188795D01*
X159250Y189277D01*
X158269Y189575D01*
X157685Y189632D01*
X157443Y189907D01*
X157153Y190567D01*
X157113Y190938D01*
X157546Y191504D01*
X158269Y191575D01*
X159250Y191873D01*
X160153Y192355D01*
X160945Y193005D01*
X161595Y193797D01*
X162077Y194700D01*
X162375Y195681D01*
X162475Y196700D01*
X162375Y197719D01*
X162077Y198700D01*
X161595Y199603D01*
X160945Y200395D01*
X160153Y201045D01*
X159250Y201527D01*
X158269Y201825D01*
X157250Y201925D01*
D02*
G37*
G36*
X587250Y197425D02*
X586231Y197325D01*
X585250Y197027D01*
X584347Y196545D01*
X583555Y195895D01*
X582905Y195103D01*
X582423Y194200D01*
X582125Y193219D01*
X582025Y192200D01*
X582125Y191181D01*
X582423Y190200D01*
X582905Y189297D01*
X583555Y188505D01*
X584347Y187855D01*
X585250Y187373D01*
X586231Y187075D01*
X587250Y186975D01*
X588269Y187075D01*
X589250Y187373D01*
X590153Y187855D01*
X590945Y188505D01*
X591595Y189297D01*
X592077Y190200D01*
X592375Y191181D01*
X592475Y192200D01*
X592375Y193219D01*
X592077Y194200D01*
X591595Y195103D01*
X590945Y195895D01*
X590153Y196545D01*
X589250Y197027D01*
X588269Y197325D01*
X587250Y197425D01*
D02*
G37*
G36*
X539500Y205775D02*
X538481Y205675D01*
X537500Y205377D01*
X536597Y204895D01*
X535805Y204245D01*
X535155Y203453D01*
X534673Y202550D01*
X534375Y201569D01*
X534275Y200550D01*
X534375Y199531D01*
X534673Y198550D01*
X535155Y197647D01*
X535805Y196855D01*
X536597Y196205D01*
X537500Y195723D01*
X538481Y195425D01*
X539500Y195325D01*
X540519Y195425D01*
X541500Y195723D01*
X542403Y196205D01*
X543195Y196855D01*
X543700Y197471D01*
X543845Y197647D01*
X544909Y197003D01*
X544844Y196847D01*
X544608Y196277D01*
X544362Y195251D01*
X544279Y194200D01*
X544362Y193149D01*
X544608Y192123D01*
X544844Y191553D01*
X544909Y191397D01*
X543845Y190753D01*
X543700Y190929D01*
X543195Y191545D01*
X542403Y192195D01*
X541500Y192677D01*
X540519Y192975D01*
X539500Y193075D01*
X538481Y192975D01*
X537500Y192677D01*
X536597Y192195D01*
X535805Y191545D01*
X535155Y190753D01*
X534673Y189850D01*
X534375Y188869D01*
X534275Y187850D01*
X534375Y186831D01*
X534673Y185850D01*
X535155Y184947D01*
X535805Y184155D01*
X536597Y183505D01*
X537500Y183023D01*
X538481Y182725D01*
X539500Y182625D01*
X540519Y182725D01*
X541500Y183023D01*
X542403Y183505D01*
X543195Y184155D01*
X543845Y184947D01*
X544327Y185850D01*
X544625Y186831D01*
X544725Y187850D01*
X544625Y188869D01*
X544388Y189649D01*
X544328Y189850D01*
X545449Y190436D01*
X545563Y190250D01*
X546248Y189448D01*
X547050Y188763D01*
X547949Y188212D01*
X548923Y187808D01*
X549949Y187562D01*
X551000Y187479D01*
X552051Y187562D01*
X553077Y187808D01*
X554051Y188212D01*
X554950Y188763D01*
X555752Y189448D01*
X556437Y190250D01*
X556988Y191149D01*
X557392Y192123D01*
X557638Y193149D01*
X557721Y194200D01*
X557638Y195251D01*
X557392Y196277D01*
X556988Y197251D01*
X556437Y198150D01*
X555752Y198952D01*
X554950Y199637D01*
X554051Y200188D01*
X553077Y200592D01*
X552051Y200838D01*
X551000Y200921D01*
X549949Y200838D01*
X548923Y200592D01*
X547949Y200188D01*
X547050Y199637D01*
X546248Y198952D01*
X545563Y198150D01*
X545449Y197964D01*
X544328Y198550D01*
X544388Y198751D01*
X544625Y199531D01*
X544725Y200550D01*
X544625Y201569D01*
X544327Y202550D01*
X543845Y203453D01*
X543195Y204245D01*
X542403Y204895D01*
X541500Y205377D01*
X540519Y205675D01*
X539500Y205775D01*
D02*
G37*
G36*
X604000Y191669D02*
X603027Y191593D01*
X602078Y191365D01*
X601177Y190991D01*
X600345Y190481D01*
X599602Y189848D01*
X598969Y189105D01*
X598459Y188273D01*
X598085Y187372D01*
X597857Y186423D01*
X597781Y185450D01*
X597857Y184477D01*
X598085Y183528D01*
X598459Y182627D01*
X598969Y181794D01*
X599602Y181052D01*
X600345Y180419D01*
Y178981D01*
X599602Y178348D01*
X598969Y177605D01*
X598582Y176975D01*
X597875Y176865D01*
X597168Y176975D01*
X596781Y177605D01*
X596148Y178348D01*
X595406Y178981D01*
X594574Y179491D01*
X593672Y179865D01*
X592723Y180093D01*
X591750Y180169D01*
X590777Y180093D01*
X589828Y179865D01*
X588927Y179491D01*
X588094Y178981D01*
X587352Y178348D01*
X586719Y177605D01*
X586209Y176773D01*
X585835Y175872D01*
X585607Y174923D01*
X585531Y173950D01*
X585607Y172977D01*
X585835Y172028D01*
X586209Y171127D01*
X586719Y170294D01*
X587352Y169552D01*
X588094Y168919D01*
X588927Y168409D01*
X589828Y168035D01*
X590777Y167807D01*
X591750Y167731D01*
X592723Y167807D01*
X593672Y168035D01*
X594574Y168409D01*
X595406Y168919D01*
X596148Y169552D01*
X596781Y170294D01*
X597168Y170925D01*
X597875Y171035D01*
X598582Y170925D01*
X598969Y170294D01*
X599602Y169552D01*
X600345Y168919D01*
X601177Y168409D01*
X602078Y168035D01*
X603027Y167807D01*
X604000Y167731D01*
X604973Y167807D01*
X605922Y168035D01*
X606823Y168409D01*
X607656Y168919D01*
X608398Y169552D01*
X609031Y170294D01*
X609541Y171127D01*
X609915Y172028D01*
X610143Y172977D01*
X610219Y173950D01*
X610143Y174923D01*
X609915Y175872D01*
X609541Y176773D01*
X609031Y177605D01*
X608398Y178348D01*
X607656Y178981D01*
Y180419D01*
X608398Y181052D01*
X609031Y181794D01*
X609541Y182627D01*
X609915Y183528D01*
X610143Y184477D01*
X610219Y185450D01*
X610143Y186423D01*
X609915Y187372D01*
X609541Y188273D01*
X609031Y189105D01*
X608398Y189848D01*
X607656Y190481D01*
X606823Y190991D01*
X605922Y191365D01*
X604973Y191593D01*
X604000Y191669D01*
D02*
G37*
G36*
X362500Y174425D02*
X361481Y174325D01*
X360500Y174027D01*
X359597Y173545D01*
X358805Y172895D01*
X358155Y172103D01*
X357673Y171200D01*
X357375Y170219D01*
X357275Y169200D01*
X357375Y168181D01*
X357673Y167200D01*
X358155Y166297D01*
X358805Y165505D01*
X359597Y164855D01*
X360500Y164373D01*
X361481Y164075D01*
X362500Y163975D01*
X363519Y164075D01*
X364500Y164373D01*
X365403Y164855D01*
X366195Y165505D01*
X366845Y166297D01*
X367327Y167200D01*
X367625Y168181D01*
X367725Y169200D01*
X367625Y170219D01*
X367327Y171200D01*
X366845Y172103D01*
X366195Y172895D01*
X365403Y173545D01*
X364500Y174027D01*
X363519Y174325D01*
X362500Y174425D01*
D02*
G37*
G36*
X376000D02*
X374981Y174325D01*
X374000Y174027D01*
X373097Y173545D01*
X372305Y172895D01*
X371655Y172103D01*
X371173Y171200D01*
X370875Y170219D01*
X370775Y169200D01*
X370875Y168181D01*
X371173Y167200D01*
X371655Y166297D01*
X372305Y165505D01*
X373097Y164855D01*
X374000Y164373D01*
X374981Y164075D01*
X376000Y163975D01*
X377019Y164075D01*
X378000Y164373D01*
X378903Y164855D01*
X379695Y165505D01*
X380345Y166297D01*
X380827Y167200D01*
X381125Y168181D01*
X381225Y169200D01*
X381125Y170219D01*
X380827Y171200D01*
X380345Y172103D01*
X379695Y172895D01*
X378903Y173545D01*
X378000Y174027D01*
X377019Y174325D01*
X376000Y174425D01*
D02*
G37*
G36*
X604000Y165669D02*
X603027Y165593D01*
X602078Y165365D01*
X601177Y164991D01*
X600345Y164481D01*
X599602Y163848D01*
X598969Y163106D01*
X598582Y162475D01*
X597875Y162365D01*
X597168Y162475D01*
X596781Y163106D01*
X596148Y163848D01*
X595406Y164481D01*
X594574Y164991D01*
X593672Y165365D01*
X592723Y165593D01*
X591750Y165669D01*
X590777Y165593D01*
X589828Y165365D01*
X588927Y164991D01*
X588094Y164481D01*
X587352Y163848D01*
X586719Y163106D01*
X586209Y162273D01*
X585835Y161372D01*
X585607Y160423D01*
X585531Y159450D01*
X585607Y158477D01*
X585835Y157528D01*
X586209Y156627D01*
X586719Y155794D01*
X587352Y155052D01*
X588094Y154419D01*
X588927Y153909D01*
X589828Y153535D01*
X590777Y153307D01*
X591750Y153231D01*
X592723Y153307D01*
X593672Y153535D01*
X594574Y153909D01*
X595406Y154419D01*
X596148Y155052D01*
X596781Y155794D01*
X597168Y156425D01*
X597875Y156535D01*
X598582Y156425D01*
X598969Y155794D01*
X599602Y155052D01*
X600345Y154419D01*
X601177Y153909D01*
X602078Y153535D01*
X603027Y153307D01*
X604000Y153231D01*
X604973Y153307D01*
X605922Y153535D01*
X606823Y153909D01*
X607656Y154419D01*
X608398Y155052D01*
X609031Y155794D01*
X609541Y156627D01*
X609915Y157528D01*
X610143Y158477D01*
X610219Y159450D01*
X610143Y160423D01*
X609915Y161372D01*
X609541Y162273D01*
X609031Y163106D01*
X608398Y163848D01*
X607656Y164481D01*
X606823Y164991D01*
X605922Y165365D01*
X604973Y165593D01*
X604000Y165669D01*
D02*
G37*
G36*
X539500Y167675D02*
X538481Y167575D01*
X537500Y167277D01*
X536597Y166795D01*
X535805Y166145D01*
X535155Y165353D01*
X534673Y164450D01*
X534375Y163469D01*
X534275Y162450D01*
X534375Y161431D01*
X534673Y160450D01*
X535155Y159547D01*
X535805Y158755D01*
X536597Y158105D01*
X537500Y157623D01*
X538481Y157325D01*
X539500Y157225D01*
X540519Y157325D01*
X541500Y157623D01*
X542403Y158105D01*
X543195Y158755D01*
X543845Y159547D01*
X544327Y160450D01*
X544625Y161431D01*
X544725Y162450D01*
X544625Y163469D01*
X544327Y164450D01*
X543845Y165353D01*
X543195Y166145D01*
X542403Y166795D01*
X541500Y167277D01*
X540519Y167575D01*
X539500Y167675D01*
D02*
G37*
G36*
X551250Y175421D02*
X550199Y175338D01*
X549173Y175092D01*
X548199Y174688D01*
X547300Y174137D01*
X546498Y173452D01*
X545813Y172650D01*
X545262Y171751D01*
X544858Y170777D01*
X544612Y169751D01*
X544529Y168700D01*
X544612Y167649D01*
X544858Y166623D01*
X545262Y165649D01*
X545813Y164750D01*
X546498Y163948D01*
X547300Y163263D01*
X548199Y162712D01*
X549173Y162308D01*
X550199Y162062D01*
X551250Y161979D01*
X552301Y162062D01*
X553327Y162308D01*
X554301Y162712D01*
X555200Y163263D01*
X556002Y163948D01*
X556687Y164750D01*
X557238Y165649D01*
X557642Y166623D01*
X557888Y167649D01*
X557971Y168700D01*
X557888Y169751D01*
X557642Y170777D01*
X557238Y171751D01*
X556687Y172650D01*
X556002Y173452D01*
X555200Y174137D01*
X554301Y174688D01*
X553327Y175092D01*
X552301Y175338D01*
X551250Y175421D01*
D02*
G37*
G36*
X33500Y191475D02*
X32481Y191375D01*
X31500Y191077D01*
X30597Y190595D01*
X29805Y189945D01*
X29155Y189153D01*
X28673Y188250D01*
X28375Y187269D01*
X28275Y186250D01*
X28375Y185231D01*
X28673Y184250D01*
X29155Y183347D01*
X29805Y182555D01*
X29990Y182404D01*
X30050Y182294D01*
Y180906D01*
X29990Y180796D01*
X29805Y180645D01*
X29155Y179853D01*
X28673Y178950D01*
X28375Y177969D01*
X28275Y176950D01*
X28375Y175931D01*
X28673Y174950D01*
X29155Y174047D01*
X29805Y173255D01*
X30597Y172605D01*
X31500Y172123D01*
X32481Y171825D01*
X33500Y171725D01*
X34519Y171825D01*
X35500Y172123D01*
X36403Y172605D01*
X37195Y173255D01*
X37845Y174047D01*
X38327Y174950D01*
X38625Y175931D01*
X38725Y176950D01*
X38625Y177969D01*
X38327Y178950D01*
X37845Y179853D01*
X37195Y180645D01*
X37010Y180796D01*
X36950Y180906D01*
Y182294D01*
X37010Y182404D01*
X37195Y182555D01*
X37845Y183347D01*
X38327Y184250D01*
X38625Y185231D01*
X38725Y186250D01*
X38625Y187269D01*
X38327Y188250D01*
X37845Y189153D01*
X37195Y189945D01*
X36403Y190595D01*
X35500Y191077D01*
X34519Y191375D01*
X33500Y191475D01*
D02*
G37*
G36*
X18750Y185675D02*
X17731Y185575D01*
X16750Y185277D01*
X15847Y184795D01*
X15055Y184145D01*
X14405Y183353D01*
X13923Y182449D01*
X13625Y181469D01*
X13525Y180450D01*
X13625Y179431D01*
X13923Y178450D01*
X14405Y177547D01*
X15055Y176755D01*
X15847Y176105D01*
X16750Y175623D01*
X17731Y175325D01*
X18750Y175225D01*
X19769Y175325D01*
X20750Y175623D01*
X21653Y176105D01*
X22445Y176755D01*
X23095Y177547D01*
X23577Y178450D01*
X23875Y179431D01*
X23975Y180450D01*
X23875Y181469D01*
X23577Y182449D01*
X23095Y183353D01*
X22445Y184145D01*
X21653Y184795D01*
X20750Y185277D01*
X19769Y185575D01*
X18750Y185675D01*
D02*
G37*
G36*
X441750Y174425D02*
X440731Y174325D01*
X439750Y174027D01*
X438847Y173545D01*
X438055Y172895D01*
X437405Y172103D01*
X436923Y171200D01*
X436789Y170758D01*
X435461D01*
X435327Y171200D01*
X434845Y172103D01*
X434195Y172895D01*
X433403Y173545D01*
X432500Y174027D01*
X431519Y174325D01*
X430500Y174425D01*
X429481Y174325D01*
X428500Y174027D01*
X427597Y173545D01*
X426805Y172895D01*
X426155Y172103D01*
X425673Y171200D01*
X425375Y170219D01*
X425275Y169200D01*
X425375Y168181D01*
X425673Y167200D01*
X426155Y166297D01*
X426805Y165505D01*
X427597Y164855D01*
X428500Y164373D01*
X429481Y164075D01*
X430500Y163975D01*
X431519Y164075D01*
X432500Y164373D01*
X433403Y164855D01*
X434195Y165505D01*
X434845Y166297D01*
X435327Y167200D01*
X435461Y167642D01*
X436789D01*
X436923Y167200D01*
X437405Y166297D01*
X438055Y165505D01*
X438847Y164855D01*
X439750Y164373D01*
X440731Y164075D01*
X441750Y163975D01*
X442769Y164075D01*
X443750Y164373D01*
X444653Y164855D01*
X445445Y165505D01*
X446095Y166297D01*
X446577Y167200D01*
X446875Y168181D01*
X446975Y169200D01*
X446875Y170219D01*
X446577Y171200D01*
X446095Y172103D01*
X445445Y172895D01*
X444653Y173545D01*
X443750Y174027D01*
X442769Y174325D01*
X441750Y174425D01*
D02*
G37*
G36*
X169000Y176175D02*
X167981Y176075D01*
X167000Y175777D01*
X166097Y175295D01*
X165305Y174645D01*
X164655Y173853D01*
X164173Y172950D01*
X163875Y171969D01*
X163775Y170950D01*
X163875Y169931D01*
X164173Y168950D01*
X164655Y168047D01*
X165305Y167255D01*
X166097Y166605D01*
X167000Y166123D01*
X167981Y165825D01*
X169000Y165725D01*
X170019Y165825D01*
X171000Y166123D01*
X171903Y166605D01*
X172695Y167255D01*
X173345Y168047D01*
X173827Y168950D01*
X174125Y169931D01*
X174225Y170950D01*
X174125Y171969D01*
X173827Y172950D01*
X173345Y173853D01*
X172695Y174645D01*
X171903Y175295D01*
X171000Y175777D01*
X170019Y176075D01*
X169000Y176175D01*
D02*
G37*
G36*
X539500Y180375D02*
X538481Y180275D01*
X537500Y179977D01*
X536597Y179495D01*
X535805Y178845D01*
X535155Y178053D01*
X534673Y177150D01*
X534375Y176169D01*
X534275Y175150D01*
X534375Y174131D01*
X534673Y173150D01*
X535155Y172247D01*
X535805Y171455D01*
X536597Y170805D01*
X537500Y170323D01*
X538481Y170025D01*
X539500Y169925D01*
X540519Y170025D01*
X541500Y170323D01*
X542403Y170805D01*
X543195Y171455D01*
X543845Y172247D01*
X544327Y173150D01*
X544625Y174131D01*
X544725Y175150D01*
X544625Y176169D01*
X544327Y177150D01*
X543845Y178053D01*
X543195Y178845D01*
X542403Y179495D01*
X541500Y179977D01*
X540519Y180275D01*
X539500Y180375D01*
D02*
G37*
G36*
X348750Y110919D02*
X347777Y110843D01*
X346828Y110615D01*
X345927Y110241D01*
X345094Y109731D01*
X344352Y109098D01*
X343719Y108356D01*
X343209Y107523D01*
X342835Y106622D01*
X342607Y105673D01*
X342531Y104700D01*
X342607Y103727D01*
X342835Y102778D01*
X343209Y101877D01*
X343719Y101045D01*
X344352Y100302D01*
X345094Y99669D01*
X345927Y99159D01*
X346828Y98785D01*
X347777Y98557D01*
X348750Y98481D01*
X349723Y98557D01*
X350672Y98785D01*
X351573Y99159D01*
X352406Y99669D01*
X353148Y100302D01*
X353781Y101045D01*
X354291Y101877D01*
X354665Y102778D01*
X354893Y103727D01*
X354969Y104700D01*
X354893Y105673D01*
X354665Y106622D01*
X354291Y107523D01*
X353781Y108356D01*
X353148Y109098D01*
X352406Y109731D01*
X351573Y110241D01*
X350672Y110615D01*
X349723Y110843D01*
X348750Y110919D01*
D02*
G37*
G36*
X494250Y52425D02*
X493231Y52325D01*
X492250Y52027D01*
X491347Y51545D01*
X490555Y50895D01*
X489905Y50103D01*
X489423Y49200D01*
X489125Y48219D01*
X489025Y47200D01*
X489125Y46181D01*
X489423Y45200D01*
X489905Y44297D01*
X490555Y43505D01*
X491347Y42855D01*
X492250Y42373D01*
X493231Y42075D01*
X494250Y41975D01*
X495269Y42075D01*
X496250Y42373D01*
X497153Y42855D01*
X497945Y43505D01*
X498595Y44297D01*
X499077Y45200D01*
X499375Y46181D01*
X499475Y47200D01*
X499375Y48219D01*
X499077Y49200D01*
X498595Y50103D01*
X497945Y50895D01*
X497153Y51545D01*
X496250Y52027D01*
X495269Y52325D01*
X494250Y52425D01*
D02*
G37*
G36*
X130500Y45225D02*
X129481Y45125D01*
X128500Y44827D01*
X127597Y44345D01*
X126805Y43695D01*
X125445D01*
X124653Y44345D01*
X123750Y44827D01*
X122769Y45125D01*
X121750Y45225D01*
X120731Y45125D01*
X119750Y44827D01*
X118847Y44345D01*
X118055Y43695D01*
X117405Y42903D01*
X116923Y42000D01*
X116625Y41019D01*
X116525Y40000D01*
X116625Y38981D01*
X116923Y38000D01*
X117405Y37097D01*
X118055Y36305D01*
X118847Y35655D01*
X119750Y35173D01*
X120731Y34875D01*
X121750Y34775D01*
X122769Y34875D01*
X123750Y35173D01*
X124653Y35655D01*
X125445Y36305D01*
X126805D01*
X127597Y35655D01*
X128500Y35173D01*
X129481Y34875D01*
X130500Y34775D01*
X131519Y34875D01*
X132500Y35173D01*
X133403Y35655D01*
X134195Y36305D01*
X134845Y37097D01*
X135327Y38000D01*
X135625Y38981D01*
X135725Y40000D01*
X135625Y41019D01*
X135327Y42000D01*
X134845Y42903D01*
X134195Y43695D01*
X133403Y44345D01*
X132500Y44827D01*
X131519Y45125D01*
X130500Y45225D01*
D02*
G37*
G36*
X376500Y51425D02*
X375481Y51325D01*
X374500Y51027D01*
X373597Y50545D01*
X372805Y49895D01*
X372155Y49103D01*
X371673Y48200D01*
X371375Y47219D01*
X371275Y46200D01*
X371375Y45181D01*
X371673Y44200D01*
X372155Y43297D01*
X372805Y42505D01*
X373597Y41855D01*
X374500Y41373D01*
X375481Y41075D01*
X376500Y40975D01*
X377519Y41075D01*
X378500Y41373D01*
X379403Y41855D01*
X380195Y42505D01*
X380845Y43297D01*
X381327Y44200D01*
X381625Y45181D01*
X381725Y46200D01*
X381625Y47219D01*
X381327Y48200D01*
X380845Y49103D01*
X380195Y49895D01*
X379403Y50545D01*
X378500Y51027D01*
X377519Y51325D01*
X376500Y51425D01*
D02*
G37*
G36*
X109750Y45925D02*
X108731Y45825D01*
X107750Y45527D01*
X106847Y45045D01*
X106055Y44395D01*
X105405Y43603D01*
X104923Y42700D01*
X104625Y41719D01*
X104525Y40700D01*
X104625Y39681D01*
X104923Y38700D01*
X105405Y37797D01*
X106055Y37005D01*
X106847Y36355D01*
X107750Y35873D01*
X108731Y35575D01*
X109750Y35475D01*
X110769Y35575D01*
X111750Y35873D01*
X112653Y36355D01*
X113445Y37005D01*
X114095Y37797D01*
X114577Y38700D01*
X114875Y39681D01*
X114975Y40700D01*
X114875Y41719D01*
X114577Y42700D01*
X114095Y43603D01*
X113445Y44395D01*
X112653Y45045D01*
X111750Y45527D01*
X110769Y45825D01*
X109750Y45925D01*
D02*
G37*
G36*
X363000Y51425D02*
X361981Y51325D01*
X361000Y51027D01*
X360097Y50545D01*
X359305Y49895D01*
X358655Y49103D01*
X358173Y48200D01*
X357875Y47219D01*
X357775Y46200D01*
X357875Y45181D01*
X358173Y44200D01*
X358655Y43297D01*
X359305Y42505D01*
X360097Y41855D01*
X361000Y41373D01*
X361981Y41075D01*
X363000Y40975D01*
X364019Y41075D01*
X365000Y41373D01*
X365903Y41855D01*
X366695Y42505D01*
X367345Y43297D01*
X367827Y44200D01*
X368125Y45181D01*
X368225Y46200D01*
X368125Y47219D01*
X367827Y48200D01*
X367345Y49103D01*
X366695Y49895D01*
X365903Y50545D01*
X365000Y51027D01*
X364019Y51325D01*
X363000Y51425D01*
D02*
G37*
G36*
X487250Y62175D02*
X486231Y62075D01*
X485250Y61777D01*
X484347Y61295D01*
X483555Y60645D01*
X482905Y59853D01*
X482423Y58950D01*
X482125Y57969D01*
X482025Y56950D01*
X482125Y55931D01*
X482423Y54950D01*
X482905Y54047D01*
X483555Y53255D01*
X484347Y52606D01*
X485250Y52123D01*
X486231Y51825D01*
X487250Y51725D01*
X488269Y51825D01*
X489250Y52123D01*
X490153Y52606D01*
X490945Y53255D01*
X491595Y54047D01*
X492077Y54950D01*
X492375Y55931D01*
X492475Y56950D01*
X492375Y57969D01*
X492077Y58950D01*
X491595Y59853D01*
X490945Y60645D01*
X490153Y61295D01*
X489250Y61777D01*
X488269Y62075D01*
X487250Y62175D01*
D02*
G37*
G36*
X515000D02*
X513981Y62075D01*
X513000Y61777D01*
X512097Y61295D01*
X511305Y60645D01*
X510655Y59853D01*
X510173Y58950D01*
X509875Y57969D01*
X509775Y56950D01*
X509875Y55931D01*
X510173Y54950D01*
X510655Y54047D01*
X511305Y53255D01*
X512097Y52606D01*
X513000Y52123D01*
X513981Y51825D01*
X515000Y51725D01*
X516019Y51825D01*
X517000Y52123D01*
X517903Y52606D01*
X518695Y53255D01*
X519345Y54047D01*
X519827Y54950D01*
X520125Y55931D01*
X520225Y56950D01*
X520125Y57969D01*
X519827Y58950D01*
X519345Y59853D01*
X518695Y60645D01*
X517903Y61295D01*
X517000Y61777D01*
X516019Y62075D01*
X515000Y62175D01*
D02*
G37*
G36*
X70500Y63419D02*
X69527Y63343D01*
X68578Y63115D01*
X67677Y62741D01*
X66845Y62231D01*
X66102Y61598D01*
X65469Y60855D01*
X64959Y60023D01*
X64585Y59122D01*
X64357Y58173D01*
X64281Y57200D01*
X64357Y56227D01*
X64585Y55278D01*
X64959Y54377D01*
X65469Y53544D01*
X66102Y52802D01*
X66845Y52169D01*
X67677Y51659D01*
X68578Y51285D01*
X69527Y51057D01*
X70500Y50981D01*
X71473Y51057D01*
X72422Y51285D01*
X73323Y51659D01*
X74156Y52169D01*
X74898Y52802D01*
X75531Y53544D01*
X76041Y54377D01*
X76415Y55278D01*
X76643Y56227D01*
X76719Y57200D01*
X76643Y58173D01*
X76415Y59122D01*
X76041Y60023D01*
X75531Y60855D01*
X74898Y61598D01*
X74156Y62231D01*
X73323Y62741D01*
X72422Y63115D01*
X71473Y63343D01*
X70500Y63419D01*
D02*
G37*
G36*
X328000Y48925D02*
X326981Y48825D01*
X326000Y48527D01*
X325097Y48045D01*
X324305Y47395D01*
X323655Y46603D01*
X323321Y45977D01*
X322672Y45832D01*
X322578D01*
X321929Y45977D01*
X321595Y46603D01*
X320945Y47395D01*
X320153Y48045D01*
X319250Y48527D01*
X318269Y48825D01*
X317250Y48925D01*
X316231Y48825D01*
X315250Y48527D01*
X314347Y48045D01*
X313555Y47395D01*
X312905Y46603D01*
X312571Y45977D01*
X311922Y45832D01*
X311828D01*
X311179Y45977D01*
X310845Y46603D01*
X310195Y47395D01*
X309403Y48045D01*
X308500Y48527D01*
X307519Y48825D01*
X306500Y48925D01*
X305481Y48825D01*
X304500Y48527D01*
X303597Y48045D01*
X302805Y47395D01*
X302155Y46603D01*
X301673Y45700D01*
X301375Y44719D01*
X301275Y43700D01*
X301375Y42681D01*
X301673Y41700D01*
X302155Y40797D01*
X302805Y40005D01*
X303502Y39434D01*
X303597Y38786D01*
Y38614D01*
X303502Y37966D01*
X302805Y37395D01*
X302155Y36603D01*
X301673Y35700D01*
X301375Y34719D01*
X301275Y33700D01*
X301375Y32681D01*
X301673Y31700D01*
X302155Y30797D01*
X302805Y30005D01*
X303597Y29355D01*
X304500Y28873D01*
X305481Y28575D01*
X306500Y28475D01*
X307519Y28575D01*
X308500Y28873D01*
X309403Y29355D01*
X310195Y30005D01*
X310845Y30797D01*
X311327Y31700D01*
X311625Y32681D01*
X311725Y33700D01*
X311625Y34719D01*
X311327Y35700D01*
X310845Y36603D01*
X310195Y37395D01*
X309498Y37966D01*
X309403Y38614D01*
Y38786D01*
X309498Y39434D01*
X310195Y40005D01*
X310845Y40797D01*
X311179Y41424D01*
X311828Y41568D01*
X311922D01*
X312571Y41424D01*
X312905Y40797D01*
X313555Y40005D01*
X314347Y39355D01*
X315250Y38873D01*
X316231Y38575D01*
X317250Y38475D01*
X318269Y38575D01*
X319250Y38873D01*
X320153Y39355D01*
X320945Y40005D01*
X321595Y40797D01*
X321929Y41424D01*
X322578Y41568D01*
X322672D01*
X323321Y41424D01*
X323655Y40797D01*
X324305Y40005D01*
X325097Y39355D01*
X326000Y38873D01*
X326981Y38575D01*
X328000Y38475D01*
X329019Y38575D01*
X330000Y38873D01*
X330903Y39355D01*
X331695Y40005D01*
X332345Y40797D01*
X332827Y41700D01*
X333125Y42681D01*
X333225Y43700D01*
X333125Y44719D01*
X332827Y45700D01*
X332345Y46603D01*
X331695Y47395D01*
X330903Y48045D01*
X330000Y48527D01*
X329019Y48825D01*
X328000Y48925D01*
D02*
G37*
G36*
X442250Y51425D02*
X441231Y51325D01*
X440250Y51027D01*
X439347Y50545D01*
X438555Y49895D01*
X437905Y49103D01*
X437423Y48200D01*
X437289Y47758D01*
X435961D01*
X435827Y48200D01*
X435345Y49103D01*
X434695Y49895D01*
X433903Y50545D01*
X433000Y51027D01*
X432019Y51325D01*
X431000Y51425D01*
X429981Y51325D01*
X429000Y51027D01*
X428097Y50545D01*
X427305Y49895D01*
X426655Y49103D01*
X426173Y48200D01*
X425875Y47219D01*
X425775Y46200D01*
X425875Y45181D01*
X426173Y44200D01*
X426655Y43297D01*
X427305Y42505D01*
X428097Y41855D01*
X429000Y41373D01*
X429981Y41075D01*
X431000Y40975D01*
X432019Y41075D01*
X433000Y41373D01*
X433903Y41855D01*
X434695Y42505D01*
X435345Y43297D01*
X435827Y44200D01*
X435961Y44642D01*
X437289D01*
X437423Y44200D01*
X437905Y43297D01*
X438555Y42505D01*
X439347Y41855D01*
X440250Y41373D01*
X441231Y41075D01*
X442250Y40975D01*
X443269Y41075D01*
X444250Y41373D01*
X445153Y41855D01*
X445945Y42505D01*
X446595Y43297D01*
X447077Y44200D01*
X447375Y45181D01*
X447475Y46200D01*
X447375Y47219D01*
X447077Y48200D01*
X446595Y49103D01*
X445945Y49895D01*
X445153Y50545D01*
X444250Y51027D01*
X443269Y51325D01*
X442250Y51425D01*
D02*
G37*
G36*
X99500Y37675D02*
X98481Y37575D01*
X97500Y37277D01*
X96597Y36795D01*
X95805Y36145D01*
X95155Y35353D01*
X94673Y34450D01*
X94375Y33469D01*
X94275Y32450D01*
X94375Y31431D01*
X94673Y30450D01*
X95155Y29547D01*
X95805Y28755D01*
X96597Y28105D01*
X97500Y27623D01*
X98481Y27325D01*
X99500Y27225D01*
X100519Y27325D01*
X101500Y27623D01*
X102403Y28105D01*
X103195Y28755D01*
X103845Y29547D01*
X104327Y30450D01*
X104625Y31431D01*
X104725Y32450D01*
X104625Y33469D01*
X104327Y34450D01*
X103845Y35353D01*
X103195Y36145D01*
X102403Y36795D01*
X101500Y37277D01*
X100519Y37575D01*
X99500Y37675D01*
D02*
G37*
G36*
X90500Y29169D02*
X89527Y29093D01*
X88578Y28865D01*
X87677Y28491D01*
X86845Y27981D01*
X86102Y27348D01*
X85469Y26606D01*
X84959Y25773D01*
X84585Y24872D01*
X84357Y23923D01*
X84281Y22950D01*
X84357Y21977D01*
X84585Y21028D01*
X84959Y20127D01*
X85469Y19294D01*
X86102Y18552D01*
X86845Y17919D01*
X87677Y17409D01*
X88578Y17035D01*
X89527Y16807D01*
X90500Y16731D01*
X91473Y16807D01*
X92422Y17035D01*
X93323Y17409D01*
X94156Y17919D01*
X94898Y18552D01*
X95531Y19294D01*
X96041Y20127D01*
X96415Y21028D01*
X96643Y21977D01*
X96719Y22950D01*
X96643Y23923D01*
X96415Y24872D01*
X96041Y25773D01*
X95531Y26606D01*
X94898Y27348D01*
X94156Y27981D01*
X93323Y28491D01*
X92422Y28865D01*
X91473Y29093D01*
X90500Y29169D01*
D02*
G37*
G36*
X460750Y30719D02*
X459777Y30643D01*
X458828Y30415D01*
X457927Y30041D01*
X457094Y29531D01*
X456352Y28898D01*
X455719Y28156D01*
X455209Y27323D01*
X454835Y26422D01*
X454607Y25473D01*
X454531Y24500D01*
X454607Y23527D01*
X454835Y22578D01*
X455209Y21677D01*
X455719Y20845D01*
X456352Y20102D01*
X457094Y19469D01*
X457927Y18959D01*
X458828Y18585D01*
X459777Y18357D01*
X460750Y18281D01*
X461723Y18357D01*
X462672Y18585D01*
X463573Y18959D01*
X464406Y19469D01*
X465148Y20102D01*
X465781Y20845D01*
X466291Y21677D01*
X466665Y22578D01*
X466893Y23527D01*
X466969Y24500D01*
X466893Y25473D01*
X466665Y26422D01*
X466291Y27323D01*
X465781Y28156D01*
X465148Y28898D01*
X464406Y29531D01*
X463573Y30041D01*
X462672Y30415D01*
X461723Y30643D01*
X460750Y30719D01*
D02*
G37*
G36*
X161750Y26469D02*
X160777Y26393D01*
X159828Y26165D01*
X158927Y25791D01*
X158095Y25281D01*
X157352Y24648D01*
X156719Y23905D01*
X156209Y23073D01*
X155835Y22172D01*
X155607Y21223D01*
X155531Y20250D01*
X155607Y19277D01*
X155835Y18328D01*
X156209Y17427D01*
X156719Y16595D01*
X157352Y15852D01*
X158095Y15219D01*
X158927Y14709D01*
X159828Y14335D01*
X160777Y14107D01*
X161750Y14031D01*
X162723Y14107D01*
X163672Y14335D01*
X164573Y14709D01*
X165406Y15219D01*
X166148Y15852D01*
X166781Y16595D01*
X167291Y17427D01*
X167665Y18328D01*
X167893Y19277D01*
X167969Y20250D01*
X167893Y21223D01*
X167665Y22172D01*
X167291Y23073D01*
X166781Y23905D01*
X166148Y24648D01*
X165406Y25281D01*
X164573Y25791D01*
X163672Y26165D01*
X162723Y26393D01*
X161750Y26469D01*
D02*
G37*
G36*
X520250Y24969D02*
X519277Y24893D01*
X518328Y24665D01*
X517427Y24291D01*
X516595Y23781D01*
X515852Y23148D01*
X515219Y22406D01*
X514709Y21573D01*
X514335Y20672D01*
X514107Y19723D01*
X514031Y18750D01*
X514107Y17777D01*
X514335Y16828D01*
X514709Y15927D01*
X515219Y15094D01*
X515852Y14352D01*
X516595Y13719D01*
X517427Y13209D01*
X518328Y12835D01*
X519277Y12607D01*
X520250Y12531D01*
X521223Y12607D01*
X522172Y12835D01*
X523074Y13209D01*
X523906Y13719D01*
X524648Y14352D01*
X525281Y15094D01*
X525791Y15927D01*
X526165Y16828D01*
X526393Y17777D01*
X526469Y18750D01*
X526393Y19723D01*
X526165Y20672D01*
X525791Y21573D01*
X525281Y22406D01*
X524648Y23148D01*
X523906Y23781D01*
X523074Y24291D01*
X522172Y24665D01*
X521223Y24893D01*
X520250Y24969D01*
D02*
G37*
G36*
X537250Y52425D02*
X536231Y52325D01*
X535250Y52027D01*
X534347Y51545D01*
X533555Y50895D01*
X532905Y50103D01*
X532423Y49200D01*
X532125Y48219D01*
X532025Y47200D01*
X532125Y46181D01*
X532423Y45200D01*
X532905Y44297D01*
X533555Y43505D01*
X534067Y43085D01*
X534200Y42473D01*
Y42177D01*
X534067Y41565D01*
X533555Y41145D01*
X532905Y40353D01*
X532423Y39450D01*
X532125Y38469D01*
X532025Y37450D01*
X532125Y36431D01*
X532423Y35450D01*
X532905Y34547D01*
X533555Y33755D01*
X534347Y33105D01*
X535250Y32623D01*
X535322Y32601D01*
X535454Y32430D01*
X535722Y31152D01*
X535469Y30856D01*
X534959Y30023D01*
X534585Y29122D01*
X534357Y28173D01*
X534281Y27200D01*
X534357Y26227D01*
X534349Y26132D01*
X533408Y24903D01*
X533277Y24893D01*
X532328Y24665D01*
X531427Y24291D01*
X530594Y23781D01*
X529852Y23148D01*
X529219Y22406D01*
X528709Y21573D01*
X528335Y20672D01*
X528107Y19723D01*
X528031Y18750D01*
X528107Y17777D01*
X528335Y16828D01*
X528709Y15927D01*
X529219Y15094D01*
X529852Y14352D01*
X530594Y13719D01*
X531427Y13209D01*
X532328Y12835D01*
X533277Y12607D01*
X534250Y12531D01*
X535223Y12607D01*
X536172Y12835D01*
X537073Y13209D01*
X537906Y13719D01*
X538648Y14352D01*
X539281Y15094D01*
X539791Y15927D01*
X540165Y16828D01*
X540393Y17777D01*
X540469Y18750D01*
X540393Y19723D01*
X540401Y19818D01*
X541343Y21047D01*
X541473Y21057D01*
X542422Y21285D01*
X543323Y21659D01*
X544156Y22169D01*
X544898Y22802D01*
X545531Y23544D01*
X546041Y24377D01*
X546415Y25278D01*
X546643Y26227D01*
X546719Y27200D01*
X546643Y28173D01*
X546415Y29122D01*
X546041Y30023D01*
X545531Y30856D01*
X544898Y31598D01*
X544156Y32231D01*
X543323Y32741D01*
X542422Y33115D01*
X542121Y33187D01*
X541595Y34547D01*
X542077Y35450D01*
X542375Y36431D01*
X542475Y37450D01*
X542375Y38469D01*
X542077Y39450D01*
X541595Y40353D01*
X540945Y41145D01*
X540433Y41565D01*
X540300Y42177D01*
Y42473D01*
X540433Y43085D01*
X540945Y43505D01*
X541595Y44297D01*
X542077Y45200D01*
X542375Y46181D01*
X542475Y47200D01*
X542375Y48219D01*
X542077Y49200D01*
X541595Y50103D01*
X540945Y50895D01*
X540153Y51545D01*
X539250Y52027D01*
X538269Y52325D01*
X537250Y52425D01*
D02*
G37*
G36*
X475000Y47425D02*
X473981Y47325D01*
X473000Y47027D01*
X472097Y46545D01*
X471305Y45895D01*
X470655Y45103D01*
X470173Y44200D01*
X469875Y43219D01*
X469775Y42200D01*
X469875Y41181D01*
X470173Y40200D01*
X470655Y39297D01*
X471305Y38505D01*
X472002Y37934D01*
X472097Y37286D01*
Y37114D01*
X472002Y36466D01*
X471305Y35895D01*
X470655Y35103D01*
X470173Y34200D01*
X469875Y33219D01*
X469775Y32200D01*
X469875Y31181D01*
X470173Y30200D01*
X470655Y29297D01*
X471305Y28505D01*
X472097Y27855D01*
X473000Y27373D01*
X473981Y27075D01*
X475000Y26975D01*
X476019Y27075D01*
X477000Y27373D01*
X477903Y27855D01*
X478695Y28505D01*
X479345Y29297D01*
X479827Y30200D01*
X480125Y31181D01*
X480225Y32200D01*
X480125Y33219D01*
X479827Y34200D01*
X479345Y35103D01*
X478695Y35895D01*
X477998Y36466D01*
X477903Y37114D01*
Y37286D01*
X477998Y37934D01*
X478695Y38505D01*
X479345Y39297D01*
X479827Y40200D01*
X480125Y41181D01*
X480225Y42200D01*
X480125Y43219D01*
X479827Y44200D01*
X479345Y45103D01*
X478695Y45895D01*
X477903Y46545D01*
X477000Y47027D01*
X476019Y47325D01*
X475000Y47425D01*
D02*
G37*
G36*
X518250D02*
X517231Y47325D01*
X516250Y47027D01*
X515347Y46545D01*
X514555Y45895D01*
X513905Y45103D01*
X513423Y44200D01*
X513125Y43219D01*
X513025Y42200D01*
X513125Y41181D01*
X513423Y40200D01*
X513905Y39297D01*
X514555Y38505D01*
X515252Y37934D01*
X515347Y37286D01*
Y37114D01*
X515252Y36466D01*
X514555Y35895D01*
X513905Y35103D01*
X513423Y34200D01*
X513125Y33219D01*
X513025Y32200D01*
X513125Y31181D01*
X513423Y30200D01*
X513905Y29297D01*
X514555Y28505D01*
X515347Y27855D01*
X516250Y27373D01*
X517231Y27075D01*
X518250Y26975D01*
X519269Y27075D01*
X520250Y27373D01*
X521153Y27855D01*
X521945Y28505D01*
X522595Y29297D01*
X523077Y30200D01*
X523375Y31181D01*
X523475Y32200D01*
X523375Y33219D01*
X523077Y34200D01*
X522595Y35103D01*
X521945Y35895D01*
X521248Y36466D01*
X521153Y37114D01*
Y37286D01*
X521248Y37934D01*
X521945Y38505D01*
X522595Y39297D01*
X523077Y40200D01*
X523375Y41181D01*
X523475Y42200D01*
X523375Y43219D01*
X523077Y44200D01*
X522595Y45103D01*
X521945Y45895D01*
X521153Y46545D01*
X520250Y47027D01*
X519269Y47325D01*
X518250Y47425D01*
D02*
G37*
G36*
X232197Y35925D02*
X231178Y35825D01*
X230198Y35527D01*
X229294Y35045D01*
X228502Y34395D01*
X227852Y33603D01*
X227370Y32700D01*
X227072Y31719D01*
X226972Y30700D01*
X227072Y29681D01*
X227370Y28700D01*
X227852Y27797D01*
X228502Y27005D01*
X229294Y26355D01*
X230198Y25873D01*
X231178Y25575D01*
X232197Y25475D01*
X233216Y25575D01*
X234197Y25873D01*
X235100Y26355D01*
X235892Y27005D01*
X236542Y27797D01*
X237024Y28700D01*
X237322Y29681D01*
X237422Y30700D01*
X237322Y31719D01*
X237024Y32700D01*
X236542Y33603D01*
X235892Y34395D01*
X235100Y35045D01*
X234197Y35527D01*
X233216Y35825D01*
X232197Y35925D01*
D02*
G37*
G36*
X146750Y26469D02*
X145777Y26393D01*
X144828Y26165D01*
X143927Y25791D01*
X143095Y25281D01*
X142352Y24648D01*
X141719Y23905D01*
X141209Y23073D01*
X140835Y22172D01*
X140607Y21223D01*
X139393D01*
X139165Y22172D01*
X138791Y23073D01*
X138281Y23905D01*
X137648Y24648D01*
X136905Y25281D01*
X136073Y25791D01*
X135172Y26165D01*
X134223Y26393D01*
X133250Y26469D01*
X132277Y26393D01*
X131328Y26165D01*
X130427Y25791D01*
X129594Y25281D01*
X128852Y24648D01*
X128219Y23905D01*
X127709Y23073D01*
X127335Y22172D01*
X127107Y21223D01*
X127031Y20250D01*
X127107Y19277D01*
X127335Y18328D01*
X127709Y17427D01*
X128219Y16595D01*
X128852Y15852D01*
X129594Y15219D01*
X130427Y14709D01*
X131328Y14335D01*
X132277Y14107D01*
X133250Y14031D01*
X134223Y14107D01*
X135172Y14335D01*
X136073Y14709D01*
X136905Y15219D01*
X137648Y15852D01*
X138281Y16595D01*
X138791Y17427D01*
X139165Y18328D01*
X139393Y19277D01*
X140607D01*
X140835Y18328D01*
X141209Y17427D01*
X141719Y16595D01*
X142352Y15852D01*
X143095Y15219D01*
X143927Y14709D01*
X144828Y14335D01*
X145777Y14107D01*
X146750Y14031D01*
X147723Y14107D01*
X148672Y14335D01*
X149573Y14709D01*
X150406Y15219D01*
X151148Y15852D01*
X151781Y16595D01*
X152291Y17427D01*
X152665Y18328D01*
X152893Y19277D01*
X152969Y20250D01*
X152893Y21223D01*
X152665Y22172D01*
X152291Y23073D01*
X151781Y23905D01*
X151148Y24648D01*
X150406Y25281D01*
X149573Y25791D01*
X148672Y26165D01*
X147723Y26393D01*
X146750Y26469D01*
D02*
G37*
G36*
X494250Y32425D02*
X493231Y32325D01*
X492250Y32027D01*
X491347Y31545D01*
X490555Y30895D01*
X489905Y30103D01*
X489423Y29200D01*
X489125Y28219D01*
X489025Y27200D01*
X489125Y26181D01*
X489326Y25520D01*
X488898Y24935D01*
X488854Y24897D01*
X488302Y24604D01*
X487672Y24865D01*
X486723Y25093D01*
X485750Y25169D01*
X484777Y25093D01*
X483828Y24865D01*
X482927Y24491D01*
X482094Y23981D01*
X481352Y23348D01*
X480719Y22606D01*
X480209Y21773D01*
X479835Y20872D01*
X479607Y19923D01*
X479531Y18950D01*
X479607Y17977D01*
X479835Y17028D01*
X480209Y16127D01*
X480719Y15294D01*
X481352Y14552D01*
X482094Y13919D01*
X482927Y13409D01*
X483828Y13035D01*
X484777Y12807D01*
X485750Y12731D01*
X486723Y12807D01*
X487672Y13035D01*
X488573Y13409D01*
X489406Y13919D01*
X490148Y14552D01*
X490781Y15294D01*
X491291Y16127D01*
X491665Y17028D01*
X491893Y17977D01*
X491969Y18950D01*
X491893Y19923D01*
X491665Y20872D01*
X491466Y21352D01*
X491982Y22023D01*
X492396Y22329D01*
X493231Y22075D01*
X494250Y21975D01*
X495269Y22075D01*
X496250Y22373D01*
X497153Y22855D01*
X497945Y23505D01*
X498595Y24297D01*
X499077Y25200D01*
X499375Y26181D01*
X499475Y27200D01*
X499375Y28219D01*
X499077Y29200D01*
X498595Y30103D01*
X497945Y30895D01*
X497153Y31545D01*
X496250Y32027D01*
X495269Y32325D01*
X494250Y32425D01*
D02*
G37*
G36*
X350750Y94719D02*
X349777Y94643D01*
X348828Y94415D01*
X347927Y94041D01*
X347094Y93531D01*
X346352Y92898D01*
X345719Y92156D01*
X345209Y91323D01*
X344835Y90422D01*
X344607Y89473D01*
X344531Y88500D01*
X344607Y87527D01*
X344835Y86578D01*
X345209Y85677D01*
X345719Y84845D01*
X346352Y84102D01*
X347094Y83469D01*
X347927Y82959D01*
X348828Y82585D01*
X349777Y82357D01*
X350750Y82281D01*
X351723Y82357D01*
X352672Y82585D01*
X353573Y82959D01*
X354406Y83469D01*
X355148Y84102D01*
X355781Y84845D01*
X356291Y85677D01*
X356665Y86578D01*
X356893Y87527D01*
X356969Y88500D01*
X356893Y89473D01*
X356665Y90422D01*
X356291Y91323D01*
X355781Y92156D01*
X355148Y92898D01*
X354406Y93531D01*
X353573Y94041D01*
X352672Y94415D01*
X351723Y94643D01*
X350750Y94719D01*
D02*
G37*
G36*
X28250Y86719D02*
X27277Y86643D01*
X26328Y86415D01*
X25427Y86041D01*
X24595Y85531D01*
X23852Y84898D01*
X22398D01*
X21655Y85531D01*
X20823Y86041D01*
X19922Y86415D01*
X18973Y86643D01*
X18000Y86719D01*
X17027Y86643D01*
X16078Y86415D01*
X15177Y86041D01*
X14344Y85531D01*
X13602Y84898D01*
X12969Y84156D01*
X12459Y83323D01*
X12085Y82422D01*
X11857Y81473D01*
X11781Y80500D01*
X11857Y79527D01*
X12085Y78578D01*
X12459Y77677D01*
X12969Y76844D01*
X13602Y76102D01*
X14344Y75469D01*
X15177Y74959D01*
X16078Y74585D01*
X17027Y74357D01*
X18000Y74281D01*
X18973Y74357D01*
X19922Y74585D01*
X20823Y74959D01*
X21655Y75469D01*
X22398Y76102D01*
X23852D01*
X24595Y75469D01*
X25427Y74959D01*
X26328Y74585D01*
X27277Y74357D01*
X28250Y74281D01*
X29223Y74357D01*
X30172Y74585D01*
X31073Y74959D01*
X31906Y75469D01*
X32648Y76102D01*
X33281Y76844D01*
X33791Y77677D01*
X34165Y78578D01*
X34393Y79527D01*
X34469Y80500D01*
X34393Y81473D01*
X34165Y82422D01*
X33791Y83323D01*
X33281Y84156D01*
X32648Y84898D01*
X31906Y85531D01*
X31073Y86041D01*
X30172Y86415D01*
X29223Y86643D01*
X28250Y86719D01*
D02*
G37*
G36*
X58250Y104375D02*
X56971Y104275D01*
X55724Y103975D01*
X54538Y103484D01*
X53445Y102814D01*
X52469Y101981D01*
X51636Y101005D01*
X50966Y99911D01*
X50475Y98726D01*
X50175Y97479D01*
X50075Y96200D01*
X50175Y94921D01*
X50475Y93674D01*
X50966Y92488D01*
X51636Y91395D01*
X52469Y90419D01*
X53445Y89586D01*
X54538Y88916D01*
X55724Y88425D01*
X56971Y88125D01*
X58250Y88025D01*
X58472Y88042D01*
X58710Y87924D01*
X59565Y86854D01*
X59525Y86450D01*
X59625Y85431D01*
X59923Y84450D01*
X60405Y83547D01*
X61055Y82755D01*
X61847Y82105D01*
X62750Y81623D01*
X63731Y81325D01*
X64750Y81225D01*
X65769Y81325D01*
X66750Y81623D01*
X67653Y82105D01*
X68445Y82755D01*
X69095Y83547D01*
X69577Y84450D01*
X69875Y85431D01*
X69975Y86450D01*
X69875Y87469D01*
X69577Y88450D01*
X69095Y89353D01*
X68445Y90145D01*
X67653Y90795D01*
X66750Y91277D01*
X66355Y91397D01*
X65985Y91889D01*
X65706Y92576D01*
X65688Y92859D01*
X66025Y93674D01*
X66325Y94921D01*
X66425Y96200D01*
X66325Y97479D01*
X66025Y98726D01*
X65534Y99911D01*
X64864Y101005D01*
X64031Y101981D01*
X63055Y102814D01*
X61961Y103484D01*
X60776Y103975D01*
X59529Y104275D01*
X58250Y104375D01*
D02*
G37*
G36*
X590800Y95380D02*
X589278Y95260D01*
X587793Y94904D01*
X586383Y94319D01*
X585081Y93522D01*
X583920Y92530D01*
X582928Y91369D01*
X582131Y90067D01*
X581546Y88657D01*
X581190Y87172D01*
X581070Y85650D01*
X581190Y84128D01*
X581546Y82643D01*
X582131Y81233D01*
X582928Y79931D01*
X583920Y78770D01*
X585081Y77778D01*
X586383Y76981D01*
X587793Y76396D01*
X589278Y76040D01*
X590800Y75920D01*
X592322Y76040D01*
X593807Y76396D01*
X595217Y76981D01*
X596519Y77778D01*
X597680Y78770D01*
X598672Y79931D01*
X599469Y81233D01*
X600054Y82643D01*
X600410Y84128D01*
X600530Y85650D01*
X600410Y87172D01*
X600054Y88657D01*
X599469Y90067D01*
X598672Y91369D01*
X597680Y92530D01*
X596519Y93522D01*
X595217Y94319D01*
X593807Y94904D01*
X592322Y95260D01*
X590800Y95380D01*
D02*
G37*
G36*
X116250Y90675D02*
X115231Y90575D01*
X114250Y90277D01*
X113347Y89795D01*
X112555Y89145D01*
X111905Y88353D01*
X111423Y87450D01*
X111125Y86469D01*
X111025Y85450D01*
X111125Y84431D01*
X111423Y83450D01*
X111905Y82547D01*
X112555Y81755D01*
X113347Y81105D01*
X114250Y80623D01*
X115231Y80325D01*
X116250Y80225D01*
X117269Y80325D01*
X118250Y80623D01*
X119153Y81105D01*
X119945Y81755D01*
X120595Y82547D01*
X121077Y83450D01*
X121375Y84431D01*
X121475Y85450D01*
X121375Y86469D01*
X121077Y87450D01*
X120595Y88353D01*
X119945Y89145D01*
X119153Y89795D01*
X118250Y90277D01*
X117269Y90575D01*
X116250Y90675D01*
D02*
G37*
G36*
X165250Y107669D02*
X164277Y107593D01*
X163328Y107365D01*
X162427Y106991D01*
X161595Y106481D01*
X160852Y105848D01*
X160219Y105105D01*
X159709Y104273D01*
X159335Y103372D01*
X159107Y102423D01*
X159031Y101450D01*
X159107Y100477D01*
X159335Y99528D01*
X159709Y98626D01*
X160219Y97794D01*
X160852Y97052D01*
X161595Y96419D01*
X162427Y95909D01*
X163328Y95535D01*
X164277Y95307D01*
X165250Y95231D01*
X166223Y95307D01*
X167172Y95535D01*
X168074Y95909D01*
X168906Y96419D01*
X169648Y97052D01*
X170281Y97794D01*
X170791Y98626D01*
X171165Y99528D01*
X171393Y100477D01*
X171469Y101450D01*
X171393Y102423D01*
X171165Y103372D01*
X170791Y104273D01*
X170281Y105105D01*
X169648Y105848D01*
X168906Y106481D01*
X168074Y106991D01*
X167172Y107365D01*
X166223Y107593D01*
X165250Y107669D01*
D02*
G37*
G36*
X285000Y110919D02*
X284027Y110843D01*
X283078Y110615D01*
X282177Y110241D01*
X281344Y109731D01*
X280602Y109098D01*
X279969Y108356D01*
X279459Y107523D01*
X279085Y106622D01*
X278857Y105673D01*
X278781Y104700D01*
X278857Y103727D01*
X279085Y102778D01*
X279459Y101877D01*
X279969Y101045D01*
X280602Y100302D01*
X281344Y99669D01*
X282177Y99159D01*
X283078Y98785D01*
X284027Y98557D01*
X285000Y98481D01*
X285973Y98557D01*
X286922Y98785D01*
X287823Y99159D01*
X288655Y99669D01*
X289398Y100302D01*
X290031Y101045D01*
X290541Y101877D01*
X290915Y102778D01*
X291143Y103727D01*
X291219Y104700D01*
X291143Y105673D01*
X290915Y106622D01*
X290541Y107523D01*
X290031Y108356D01*
X289398Y109098D01*
X288655Y109731D01*
X287823Y110241D01*
X286922Y110615D01*
X285973Y110843D01*
X285000Y110919D01*
D02*
G37*
G36*
X473250Y90425D02*
X472231Y90325D01*
X471250Y90027D01*
X470347Y89545D01*
X469555Y88895D01*
X468945D01*
X468153Y89545D01*
X467250Y90027D01*
X466269Y90325D01*
X465250Y90425D01*
X464231Y90325D01*
X463250Y90027D01*
X462347Y89545D01*
X461555Y88895D01*
X460905Y88103D01*
X460423Y87200D01*
X460125Y86219D01*
X460025Y85200D01*
X460125Y84181D01*
X460423Y83200D01*
X460905Y82297D01*
X461555Y81505D01*
X462347Y80855D01*
X463250Y80373D01*
X464231Y80075D01*
X465250Y79975D01*
X466269Y80075D01*
X467250Y80373D01*
X468153Y80855D01*
X468945Y81505D01*
X469555D01*
X470347Y80855D01*
X471250Y80373D01*
X472231Y80075D01*
X473250Y79975D01*
X474269Y80075D01*
X475250Y80373D01*
X476153Y80855D01*
X476945Y81505D01*
X477595Y82297D01*
X478077Y83200D01*
X478375Y84181D01*
X478475Y85200D01*
X478375Y86219D01*
X478077Y87200D01*
X477595Y88103D01*
X476945Y88895D01*
X476153Y89545D01*
X475250Y90027D01*
X474269Y90325D01*
X473250Y90425D01*
D02*
G37*
G36*
X508000D02*
X506981Y90325D01*
X506000Y90027D01*
X505097Y89545D01*
X504305Y88895D01*
X503885Y88383D01*
X503273Y88250D01*
X502977D01*
X502365Y88383D01*
X501945Y88895D01*
X501153Y89545D01*
X500250Y90027D01*
X499269Y90325D01*
X498250Y90425D01*
X497231Y90325D01*
X496250Y90027D01*
X495347Y89545D01*
X494555Y88895D01*
X493905Y88103D01*
X493423Y87200D01*
X493125Y86219D01*
X493025Y85200D01*
X493125Y84181D01*
X493423Y83200D01*
X493905Y82297D01*
X494555Y81505D01*
X495347Y80855D01*
X496250Y80373D01*
X497231Y80075D01*
X498250Y79975D01*
X499269Y80075D01*
X500250Y80373D01*
X501153Y80855D01*
X501945Y81505D01*
X502365Y82017D01*
X502977Y82150D01*
X503273D01*
X503885Y82017D01*
X504305Y81505D01*
X505097Y80855D01*
X506000Y80373D01*
X506981Y80075D01*
X508000Y79975D01*
X509019Y80075D01*
X510000Y80373D01*
X510903Y80855D01*
X511695Y81505D01*
X512345Y82297D01*
X512827Y83200D01*
X513125Y84181D01*
X513225Y85200D01*
X513125Y86219D01*
X512827Y87200D01*
X512345Y88103D01*
X511695Y88895D01*
X510903Y89545D01*
X510000Y90027D01*
X509019Y90325D01*
X508000Y90425D01*
D02*
G37*
G36*
X31050Y109225D02*
X30031Y109125D01*
X29050Y108827D01*
X28147Y108345D01*
X27355Y107695D01*
X26705Y106903D01*
X26223Y106000D01*
X25925Y105019D01*
X25825Y104000D01*
X25925Y102981D01*
X26223Y102000D01*
X26705Y101097D01*
X27355Y100305D01*
X28052Y99734D01*
X28147Y99086D01*
Y98914D01*
X28052Y98266D01*
X27355Y97695D01*
X26705Y96903D01*
X26223Y96000D01*
X25925Y95019D01*
X25825Y94000D01*
X25925Y92981D01*
X26223Y92000D01*
X26705Y91097D01*
X27355Y90305D01*
X28147Y89655D01*
X29050Y89173D01*
X30031Y88875D01*
X31050Y88775D01*
X32069Y88875D01*
X33050Y89173D01*
X33953Y89655D01*
X34745Y90305D01*
X35395Y91097D01*
X35877Y92000D01*
X36175Y92981D01*
X36275Y94000D01*
X36175Y95019D01*
X35877Y96000D01*
X35395Y96903D01*
X34745Y97695D01*
X34048Y98266D01*
X33953Y98914D01*
Y99086D01*
X34048Y99734D01*
X34745Y100305D01*
X35395Y101097D01*
X35877Y102000D01*
X36175Y102981D01*
X36275Y104000D01*
X36175Y105019D01*
X35877Y106000D01*
X35395Y106903D01*
X34745Y107695D01*
X33953Y108345D01*
X33050Y108827D01*
X32069Y109125D01*
X31050Y109225D01*
D02*
G37*
G36*
X568200Y95380D02*
X566678Y95260D01*
X565193Y94904D01*
X563783Y94319D01*
X562481Y93522D01*
X561320Y92530D01*
X560328Y91369D01*
X559530Y90067D01*
X558946Y88657D01*
X558590Y87172D01*
X558470Y85650D01*
X558590Y84128D01*
X558946Y82643D01*
X559530Y81233D01*
X560328Y79931D01*
X561320Y78770D01*
X562481Y77778D01*
X563783Y76981D01*
X565193Y76396D01*
X566678Y76040D01*
X568200Y75920D01*
X569722Y76040D01*
X571207Y76396D01*
X572617Y76981D01*
X573919Y77778D01*
X575080Y78770D01*
X576072Y79931D01*
X576870Y81233D01*
X577454Y82643D01*
X577810Y84128D01*
X577930Y85650D01*
X577810Y87172D01*
X577454Y88657D01*
X576870Y90067D01*
X576072Y91369D01*
X575080Y92530D01*
X573919Y93522D01*
X572617Y94319D01*
X571207Y94904D01*
X569722Y95260D01*
X568200Y95380D01*
D02*
G37*
G36*
X125750Y67925D02*
X124731Y67825D01*
X123750Y67527D01*
X122847Y67045D01*
X122055Y66395D01*
X121405Y65603D01*
X120923Y64700D01*
X120625Y63719D01*
X120525Y62700D01*
X120625Y61681D01*
X120923Y60700D01*
X121405Y59797D01*
X122055Y59005D01*
X122847Y58355D01*
X123750Y57873D01*
X124731Y57575D01*
X125750Y57475D01*
X126769Y57575D01*
X127750Y57873D01*
X128653Y58355D01*
X129445Y59005D01*
X130095Y59797D01*
X130577Y60700D01*
X130875Y61681D01*
X130975Y62700D01*
X130875Y63719D01*
X130577Y64700D01*
X130095Y65603D01*
X129445Y66395D01*
X128653Y67045D01*
X127750Y67527D01*
X126769Y67825D01*
X125750Y67925D01*
D02*
G37*
G36*
X143750Y68175D02*
X142731Y68075D01*
X141750Y67777D01*
X140847Y67295D01*
X140055Y66645D01*
X139405Y65853D01*
X138923Y64949D01*
X138625Y63969D01*
X138525Y62950D01*
X138625Y61931D01*
X138923Y60950D01*
X139405Y60047D01*
X140055Y59255D01*
X140847Y58605D01*
X141750Y58123D01*
X142731Y57825D01*
X143750Y57725D01*
X144769Y57825D01*
X145750Y58123D01*
X146653Y58605D01*
X147445Y59255D01*
X148095Y60047D01*
X148577Y60950D01*
X148875Y61931D01*
X148975Y62950D01*
X148875Y63969D01*
X148577Y64949D01*
X148095Y65853D01*
X147445Y66645D01*
X146653Y67295D01*
X145750Y67777D01*
X144769Y68075D01*
X143750Y68175D01*
D02*
G37*
G36*
X445750Y81219D02*
X444777Y81143D01*
X443828Y80915D01*
X442927Y80541D01*
X442094Y80031D01*
X441352Y79398D01*
X440719Y78656D01*
X440209Y77823D01*
X439835Y76922D01*
X439607Y75973D01*
X439531Y75000D01*
X439607Y74027D01*
X439835Y73078D01*
X440209Y72177D01*
X440719Y71344D01*
X441352Y70602D01*
X442094Y69969D01*
X442927Y69459D01*
X442978Y69437D01*
Y68063D01*
X442927Y68041D01*
X442094Y67531D01*
X441352Y66898D01*
X440719Y66156D01*
X440209Y65323D01*
X439835Y64422D01*
X439607Y63473D01*
X439531Y62500D01*
X439607Y61527D01*
X439835Y60578D01*
X440209Y59677D01*
X440719Y58844D01*
X441352Y58102D01*
X442094Y57469D01*
X442927Y56959D01*
X443828Y56585D01*
X444777Y56357D01*
X445750Y56281D01*
X446723Y56357D01*
X447672Y56585D01*
X448573Y56959D01*
X449406Y57469D01*
X450148Y58102D01*
X450781Y58844D01*
X451291Y59677D01*
X451665Y60578D01*
X451893Y61527D01*
X451969Y62500D01*
X451893Y63473D01*
X451665Y64422D01*
X451291Y65323D01*
X450781Y66156D01*
X450148Y66898D01*
X449406Y67531D01*
X448573Y68041D01*
X448522Y68063D01*
Y69437D01*
X448573Y69459D01*
X449406Y69969D01*
X450148Y70602D01*
X450781Y71344D01*
X451291Y72177D01*
X451665Y73078D01*
X451893Y74027D01*
X451969Y75000D01*
X451893Y75973D01*
X451665Y76922D01*
X451291Y77823D01*
X450781Y78656D01*
X450148Y79398D01*
X449406Y80031D01*
X448573Y80541D01*
X447672Y80915D01*
X446723Y81143D01*
X445750Y81219D01*
D02*
G37*
G36*
X285000Y76919D02*
X284027Y76843D01*
X283078Y76615D01*
X282177Y76241D01*
X281344Y75731D01*
X280602Y75098D01*
X279969Y74356D01*
X279459Y73523D01*
X279085Y72622D01*
X278857Y71673D01*
X278781Y70700D01*
X278857Y69727D01*
X279085Y68778D01*
X279459Y67877D01*
X279969Y67044D01*
X280602Y66302D01*
X280646Y66266D01*
X280669Y66231D01*
Y64669D01*
X280646Y64634D01*
X280602Y64598D01*
X279969Y63856D01*
X279459Y63023D01*
X279085Y62122D01*
X278857Y61173D01*
X278781Y60200D01*
X278857Y59227D01*
X279085Y58278D01*
X279459Y57376D01*
X279969Y56544D01*
X280602Y55802D01*
X281344Y55169D01*
X282177Y54659D01*
X283078Y54285D01*
X284027Y54057D01*
X285000Y53981D01*
X285973Y54057D01*
X286922Y54285D01*
X287823Y54659D01*
X288655Y55169D01*
X289398Y55802D01*
X290031Y56544D01*
X290541Y57376D01*
X290915Y58278D01*
X291143Y59227D01*
X291219Y60200D01*
X291143Y61173D01*
X290915Y62122D01*
X290541Y63023D01*
X290031Y63856D01*
X289398Y64598D01*
X289354Y64634D01*
X289331Y64669D01*
Y66231D01*
X289354Y66266D01*
X289398Y66302D01*
X290031Y67044D01*
X290541Y67877D01*
X290915Y68778D01*
X291143Y69727D01*
X291219Y70700D01*
X291143Y71673D01*
X290915Y72622D01*
X290541Y73523D01*
X290031Y74356D01*
X289398Y75098D01*
X288655Y75731D01*
X287823Y76241D01*
X286922Y76615D01*
X285973Y76843D01*
X285000Y76919D01*
D02*
G37*
G36*
X348750Y76969D02*
X347777Y76893D01*
X346828Y76665D01*
X345927Y76291D01*
X345094Y75781D01*
X344352Y75148D01*
X343719Y74405D01*
X343209Y73573D01*
X342835Y72672D01*
X342607Y71723D01*
X342531Y70750D01*
X342607Y69777D01*
X342835Y68828D01*
X343209Y67927D01*
X343719Y67094D01*
X344147Y66593D01*
X344293Y65725D01*
X344147Y64857D01*
X343719Y64356D01*
X343209Y63523D01*
X342835Y62622D01*
X342607Y61673D01*
X342531Y60700D01*
X342607Y59727D01*
X342835Y58778D01*
X343209Y57877D01*
X343719Y57044D01*
X344352Y56302D01*
X345094Y55669D01*
X345927Y55159D01*
X346828Y54785D01*
X347777Y54557D01*
X348750Y54481D01*
X349723Y54557D01*
X350672Y54785D01*
X351573Y55159D01*
X352406Y55669D01*
X353148Y56302D01*
X353781Y57044D01*
X354291Y57877D01*
X354665Y58778D01*
X354893Y59727D01*
X354969Y60700D01*
X354893Y61673D01*
X354665Y62622D01*
X354291Y63523D01*
X353781Y64356D01*
X353353Y64857D01*
X353207Y65725D01*
X353353Y66593D01*
X353781Y67094D01*
X354291Y67927D01*
X354665Y68828D01*
X354893Y69777D01*
X354969Y70750D01*
X354893Y71723D01*
X354665Y72672D01*
X354291Y73573D01*
X353781Y74405D01*
X353148Y75148D01*
X352406Y75781D01*
X351573Y76291D01*
X350672Y76665D01*
X349723Y76893D01*
X348750Y76969D01*
D02*
G37*
G36*
X49300Y77425D02*
X48281Y77325D01*
X47300Y77027D01*
X46397Y76545D01*
X45605Y75895D01*
X44955Y75103D01*
X44473Y74200D01*
X44175Y73219D01*
X44075Y72200D01*
X44175Y71181D01*
X44473Y70200D01*
X44955Y69297D01*
X45605Y68505D01*
X46397Y67855D01*
X47300Y67373D01*
X48281Y67075D01*
X49300Y66975D01*
X50319Y67075D01*
X51300Y67373D01*
X52203Y67855D01*
X52995Y68505D01*
X53645Y69297D01*
X54127Y70200D01*
X54425Y71181D01*
X54525Y72200D01*
X54425Y73219D01*
X54127Y74200D01*
X53645Y75103D01*
X52995Y75895D01*
X52203Y76545D01*
X51300Y77027D01*
X50319Y77325D01*
X49300Y77425D01*
D02*
G37*
G36*
X100250Y83925D02*
X99231Y83825D01*
X98250Y83527D01*
X97347Y83045D01*
X96555Y82395D01*
X95905Y81603D01*
X95423Y80700D01*
X95125Y79719D01*
X95025Y78700D01*
X95125Y77681D01*
X95423Y76700D01*
X95905Y75797D01*
X96555Y75005D01*
X97347Y74355D01*
X98250Y73873D01*
X99231Y73575D01*
X100250Y73475D01*
X101269Y73575D01*
X102250Y73873D01*
X103153Y74355D01*
X103945Y75005D01*
X104595Y75797D01*
X105077Y76700D01*
X105375Y77681D01*
X105475Y78700D01*
X105375Y79719D01*
X105077Y80700D01*
X104595Y81603D01*
X103945Y82395D01*
X103153Y83045D01*
X102250Y83527D01*
X101269Y83825D01*
X100250Y83925D01*
D02*
G37*
G36*
X105000Y61675D02*
X103981Y61575D01*
X103000Y61277D01*
X102097Y60795D01*
X101305Y60145D01*
X101174Y59985D01*
X101105Y59945D01*
X99644D01*
X99576Y59985D01*
X99445Y60145D01*
X98653Y60795D01*
X97750Y61277D01*
X96769Y61575D01*
X95750Y61675D01*
X94731Y61575D01*
X93750Y61277D01*
X92847Y60795D01*
X92055Y60145D01*
X91405Y59353D01*
X90923Y58450D01*
X90625Y57469D01*
X90525Y56450D01*
X90625Y55431D01*
X90923Y54450D01*
X91405Y53547D01*
X92055Y52755D01*
X92847Y52105D01*
X93750Y51623D01*
X94731Y51325D01*
X95750Y51225D01*
X96769Y51325D01*
X97750Y51623D01*
X98653Y52105D01*
X99445Y52755D01*
X99576Y52915D01*
X99644Y52955D01*
X101105D01*
X101174Y52915D01*
X101305Y52755D01*
X102097Y52105D01*
X103000Y51623D01*
X103981Y51325D01*
X105000Y51225D01*
X106019Y51325D01*
X107000Y51623D01*
X107903Y52105D01*
X108695Y52755D01*
X109345Y53547D01*
X109827Y54450D01*
X110125Y55431D01*
X110225Y56450D01*
X110125Y57469D01*
X109827Y58450D01*
X109345Y59353D01*
X108695Y60145D01*
X107903Y60795D01*
X107000Y61277D01*
X106019Y61575D01*
X105000Y61675D01*
D02*
G37*
G36*
X168000Y68425D02*
X166981Y68325D01*
X166000Y68027D01*
X165097Y67545D01*
X164305Y66895D01*
X163655Y66103D01*
X163172Y65200D01*
X162875Y64219D01*
X162775Y63200D01*
X162875Y62181D01*
X163172Y61200D01*
X163655Y60297D01*
X164305Y59505D01*
X165097Y58855D01*
X166000Y58373D01*
X166981Y58075D01*
X168000Y57975D01*
X169019Y58075D01*
X170000Y58373D01*
X170903Y58855D01*
X171695Y59505D01*
X172344Y60297D01*
X172827Y61200D01*
X173125Y62181D01*
X173225Y63200D01*
X173125Y64219D01*
X172827Y65200D01*
X172344Y66103D01*
X171695Y66895D01*
X170903Y67545D01*
X170000Y68027D01*
X169019Y68325D01*
X168000Y68425D01*
D02*
G37*
G36*
X85500Y70175D02*
X84481Y70075D01*
X83500Y69777D01*
X82597Y69295D01*
X81805Y68645D01*
X81155Y67853D01*
X80673Y66950D01*
X80375Y65969D01*
X80275Y64950D01*
X80375Y63931D01*
X80673Y62950D01*
X81155Y62047D01*
X81805Y61255D01*
X82597Y60605D01*
X83500Y60123D01*
X84481Y59825D01*
X85500Y59725D01*
X86519Y59825D01*
X87500Y60123D01*
X88403Y60605D01*
X89195Y61255D01*
X89845Y62047D01*
X90327Y62950D01*
X90625Y63931D01*
X90725Y64950D01*
X90625Y65969D01*
X90327Y66950D01*
X89845Y67853D01*
X89195Y68645D01*
X88403Y69295D01*
X87500Y69777D01*
X86519Y70075D01*
X85500Y70175D01*
D02*
G37*
G36*
X167250Y213425D02*
X166231Y213325D01*
X165250Y213027D01*
X164347Y212545D01*
X163555Y211895D01*
X162905Y211103D01*
X162423Y210200D01*
X162125Y209219D01*
X162025Y208200D01*
X162125Y207181D01*
X162423Y206200D01*
X162905Y205297D01*
X163555Y204505D01*
X164347Y203855D01*
X165250Y203373D01*
X166231Y203075D01*
X167250Y202975D01*
X168269Y203075D01*
X169250Y203373D01*
X170153Y203855D01*
X170945Y204505D01*
X171595Y205297D01*
X172077Y206200D01*
X172375Y207181D01*
X172475Y208200D01*
X172375Y209219D01*
X172077Y210200D01*
X171595Y211103D01*
X170945Y211895D01*
X170153Y212545D01*
X169250Y213027D01*
X168269Y213325D01*
X167250Y213425D01*
D02*
G37*
G36*
X58250Y329375D02*
X56971Y329274D01*
X55724Y328975D01*
X54538Y328484D01*
X53445Y327814D01*
X52469Y326981D01*
X51636Y326005D01*
X50966Y324911D01*
X50475Y323726D01*
X50175Y322479D01*
X50075Y321200D01*
X50175Y319921D01*
X50475Y318674D01*
X50729Y318060D01*
X49729Y317155D01*
X49500Y317277D01*
X48519Y317575D01*
X47500Y317675D01*
X46481Y317575D01*
X45500Y317277D01*
X44597Y316794D01*
X43805Y316145D01*
X43155Y315353D01*
X42673Y314450D01*
X42375Y313469D01*
X42275Y312450D01*
X42375Y311431D01*
X42673Y310450D01*
X43155Y309547D01*
X43805Y308755D01*
X44597Y308105D01*
X45500Y307623D01*
X46481Y307325D01*
X47500Y307225D01*
X48519Y307325D01*
X49500Y307623D01*
X50403Y308105D01*
X51195Y308755D01*
X51845Y309547D01*
X52327Y310450D01*
X52625Y311431D01*
X52725Y312450D01*
X52625Y313469D01*
X52565Y313668D01*
X53037Y314160D01*
X53652Y314459D01*
X54538Y313916D01*
X55724Y313425D01*
X56971Y313125D01*
X58250Y313025D01*
X59529Y313125D01*
X60776Y313425D01*
X61961Y313916D01*
X63055Y314586D01*
X64031Y315419D01*
X64864Y316395D01*
X65534Y317488D01*
X66025Y318674D01*
X66325Y319921D01*
X66425Y321200D01*
X66325Y322479D01*
X66025Y323726D01*
X65534Y324911D01*
X64864Y326005D01*
X64031Y326981D01*
X63055Y327814D01*
X61961Y328484D01*
X60776Y328975D01*
X59529Y329274D01*
X58250Y329375D01*
D02*
G37*
G36*
X76750Y328175D02*
X75731Y328075D01*
X74750Y327777D01*
X73847Y327295D01*
X73055Y326645D01*
X72406Y325853D01*
X71923Y324950D01*
X71625Y323969D01*
X71525Y322950D01*
X71625Y321931D01*
X71923Y320950D01*
X72406Y320047D01*
X73055Y319255D01*
X73847Y318605D01*
X74750Y318123D01*
X75731Y317825D01*
X76750Y317725D01*
X77769Y317825D01*
X78750Y318123D01*
X79653Y318605D01*
X80445Y319255D01*
X81095Y320047D01*
X81578Y320950D01*
X81875Y321931D01*
X81975Y322950D01*
X81875Y323969D01*
X81578Y324950D01*
X81095Y325853D01*
X80445Y326645D01*
X79653Y327295D01*
X78750Y327777D01*
X77769Y328075D01*
X76750Y328175D01*
D02*
G37*
G36*
X506500Y316925D02*
X505481Y316825D01*
X504500Y316527D01*
X503597Y316045D01*
X502805Y315395D01*
X501945D01*
X501153Y316045D01*
X500250Y316527D01*
X499269Y316825D01*
X498250Y316925D01*
X497231Y316825D01*
X496250Y316527D01*
X495347Y316045D01*
X494555Y315395D01*
X493905Y314603D01*
X493423Y313700D01*
X493125Y312719D01*
X493025Y311700D01*
X493125Y310681D01*
X493423Y309700D01*
X493905Y308797D01*
X494555Y308005D01*
X495347Y307355D01*
X496250Y306873D01*
X497231Y306575D01*
X498250Y306475D01*
X499269Y306575D01*
X500250Y306873D01*
X501153Y307355D01*
X501945Y308005D01*
X502805D01*
X503597Y307355D01*
X504500Y306873D01*
X505481Y306575D01*
X506500Y306475D01*
X507519Y306575D01*
X508500Y306873D01*
X509403Y307355D01*
X510195Y308005D01*
X510845Y308797D01*
X511327Y309700D01*
X511625Y310681D01*
X511725Y311700D01*
X511625Y312719D01*
X511327Y313700D01*
X510845Y314603D01*
X510195Y315395D01*
X509403Y316045D01*
X508500Y316527D01*
X507519Y316825D01*
X506500Y316925D01*
D02*
G37*
G36*
X337250Y317675D02*
X336231Y317575D01*
X335250Y317277D01*
X334347Y316795D01*
X333555Y316145D01*
X332905Y315353D01*
X332423Y314450D01*
X332125Y313469D01*
X332025Y312450D01*
X332125Y311431D01*
X332423Y310450D01*
X332905Y309547D01*
X333555Y308755D01*
X334347Y308105D01*
X335250Y307623D01*
X336231Y307325D01*
X337250Y307225D01*
X338269Y307325D01*
X339250Y307623D01*
X340153Y308105D01*
X340945Y308755D01*
X341595Y309547D01*
X342077Y310450D01*
X342375Y311431D01*
X342475Y312450D01*
X342375Y313469D01*
X342077Y314450D01*
X341595Y315353D01*
X340945Y316145D01*
X340153Y316795D01*
X339250Y317277D01*
X338269Y317575D01*
X337250Y317675D01*
D02*
G37*
G36*
X476000Y316925D02*
X474981Y316825D01*
X474000Y316527D01*
X473097Y316045D01*
X472305Y315395D01*
X472174Y315235D01*
X472106Y315195D01*
X470644D01*
X470576Y315235D01*
X470445Y315395D01*
X469653Y316045D01*
X468750Y316527D01*
X467769Y316825D01*
X466750Y316925D01*
X465731Y316825D01*
X464750Y316527D01*
X463847Y316045D01*
X463055Y315395D01*
X462405Y314603D01*
X461923Y313700D01*
X461625Y312719D01*
X461525Y311700D01*
X461625Y310681D01*
X461923Y309700D01*
X462405Y308797D01*
X463055Y308005D01*
X463847Y307355D01*
X464750Y306873D01*
X465731Y306575D01*
X466750Y306475D01*
X467769Y306575D01*
X468750Y306873D01*
X469653Y307355D01*
X470445Y308005D01*
X470576Y308165D01*
X470644Y308205D01*
X472106D01*
X472174Y308165D01*
X472305Y308005D01*
X473097Y307355D01*
X474000Y306873D01*
X474981Y306575D01*
X476000Y306475D01*
X477019Y306575D01*
X478000Y306873D01*
X478903Y307355D01*
X479695Y308005D01*
X480345Y308797D01*
X480827Y309700D01*
X481125Y310681D01*
X481225Y311700D01*
X481125Y312719D01*
X480827Y313700D01*
X480345Y314603D01*
X479695Y315395D01*
X478903Y316045D01*
X478000Y316527D01*
X477019Y316825D01*
X476000Y316925D01*
D02*
G37*
G36*
X522750Y337175D02*
X521731Y337075D01*
X520750Y336777D01*
X519847Y336295D01*
X519055Y335645D01*
X518405Y334853D01*
X517923Y333950D01*
X517625Y332969D01*
X517525Y331950D01*
X517625Y330931D01*
X517923Y329950D01*
X518405Y329047D01*
X519055Y328255D01*
X519847Y327605D01*
X520750Y327123D01*
X521731Y326825D01*
X522750Y326725D01*
X523769Y326825D01*
X524750Y327123D01*
X525653Y327605D01*
X526445Y328255D01*
X527095Y329047D01*
X527577Y329950D01*
X527875Y330931D01*
X527975Y331950D01*
X527875Y332969D01*
X527577Y333950D01*
X527095Y334853D01*
X526445Y335645D01*
X525653Y336295D01*
X524750Y336777D01*
X523769Y337075D01*
X522750Y337175D01*
D02*
G37*
G36*
X164500Y342425D02*
X163481Y342325D01*
X162500Y342027D01*
X161597Y341545D01*
X160805Y340895D01*
X160155Y340103D01*
X159673Y339200D01*
X159375Y338219D01*
X159275Y337200D01*
X159375Y336181D01*
X159673Y335200D01*
X160155Y334297D01*
X160805Y333505D01*
X161597Y332855D01*
X162500Y332373D01*
X163481Y332075D01*
X164500Y331975D01*
X165519Y332075D01*
X166500Y332373D01*
X167403Y332855D01*
X168195Y333505D01*
X168845Y334297D01*
X169327Y335200D01*
X169625Y336181D01*
X169725Y337200D01*
X169625Y338219D01*
X169327Y339200D01*
X168845Y340103D01*
X168195Y340895D01*
X167403Y341545D01*
X166500Y342027D01*
X165519Y342325D01*
X164500Y342425D01*
D02*
G37*
G36*
X282000Y335219D02*
X281027Y335143D01*
X280078Y334915D01*
X279177Y334541D01*
X278344Y334031D01*
X277602Y333398D01*
X276969Y332655D01*
X276459Y331823D01*
X276085Y330922D01*
X275857Y329973D01*
X275781Y329000D01*
X275857Y328027D01*
X276085Y327078D01*
X276459Y326177D01*
X276969Y325345D01*
X277602Y324602D01*
X278344Y323969D01*
X279177Y323459D01*
X280078Y323085D01*
X281027Y322857D01*
X282000Y322781D01*
X282973Y322857D01*
X283922Y323085D01*
X284823Y323459D01*
X285655Y323969D01*
X286398Y324602D01*
X287031Y325345D01*
X287541Y326177D01*
X287915Y327078D01*
X288143Y328027D01*
X288219Y329000D01*
X288143Y329973D01*
X287915Y330922D01*
X287541Y331823D01*
X287031Y332655D01*
X286398Y333398D01*
X285655Y334031D01*
X284823Y334541D01*
X283922Y334915D01*
X282973Y335143D01*
X282000Y335219D01*
D02*
G37*
G36*
X30250Y328925D02*
X29231Y328825D01*
X28250Y328527D01*
X27347Y328045D01*
X26555Y327395D01*
X25905Y326603D01*
X25423Y325700D01*
X25125Y324719D01*
X25025Y323700D01*
X25125Y322681D01*
X25423Y321700D01*
X25905Y320797D01*
X26555Y320005D01*
X27347Y319355D01*
X28250Y318873D01*
X29231Y318575D01*
X30250Y318475D01*
X31269Y318575D01*
X32250Y318873D01*
X33153Y319355D01*
X33945Y320005D01*
X34595Y320797D01*
X35077Y321700D01*
X35375Y322681D01*
X35475Y323700D01*
X35375Y324719D01*
X35077Y325700D01*
X34595Y326603D01*
X33945Y327395D01*
X33153Y328045D01*
X32250Y328527D01*
X31269Y328825D01*
X30250Y328925D01*
D02*
G37*
G36*
X444750Y332469D02*
X443777Y332393D01*
X442828Y332165D01*
X441927Y331791D01*
X441095Y331281D01*
X440352Y330648D01*
X439719Y329906D01*
X439209Y329073D01*
X438835Y328172D01*
X438607Y327223D01*
X438531Y326250D01*
X438607Y325277D01*
X438835Y324328D01*
X439209Y323427D01*
X439719Y322594D01*
X440352Y321852D01*
X441095Y321219D01*
X441927Y320709D01*
X442828Y320335D01*
X443777Y320107D01*
X444750Y320031D01*
X445723Y320107D01*
X446672Y320335D01*
X447574Y320709D01*
X448406Y321219D01*
X449148Y321852D01*
X449781Y322594D01*
X450291Y323427D01*
X450665Y324328D01*
X450893Y325277D01*
X450969Y326250D01*
X450893Y327223D01*
X450665Y328172D01*
X450291Y329073D01*
X449781Y329906D01*
X449148Y330648D01*
X448406Y331281D01*
X447574Y331791D01*
X446672Y332165D01*
X445723Y332393D01*
X444750Y332469D01*
D02*
G37*
G36*
X316625Y317675D02*
X315606Y317575D01*
X314625Y317277D01*
X313722Y316795D01*
X312930Y316145D01*
X312280Y315353D01*
X311798Y314450D01*
X311500Y313469D01*
X311400Y312450D01*
X311500Y311431D01*
X311798Y310450D01*
X312280Y309547D01*
X312930Y308755D01*
X313722Y308105D01*
X314625Y307623D01*
X315606Y307325D01*
X316625Y307225D01*
X317644Y307325D01*
X318625Y307623D01*
X319528Y308105D01*
X320320Y308755D01*
X320970Y309547D01*
X321452Y310450D01*
X321750Y311431D01*
X321850Y312450D01*
X321750Y313469D01*
X321452Y314450D01*
X320970Y315353D01*
X320320Y316145D01*
X319528Y316795D01*
X318625Y317277D01*
X317644Y317575D01*
X316625Y317675D01*
D02*
G37*
G36*
X282000Y317719D02*
X281027Y317643D01*
X280078Y317415D01*
X279177Y317041D01*
X278344Y316531D01*
X277602Y315898D01*
X276969Y315156D01*
X276459Y314324D01*
X276085Y313422D01*
X275857Y312473D01*
X275781Y311500D01*
X275857Y310527D01*
X276085Y309578D01*
X276459Y308677D01*
X276969Y307845D01*
X277602Y307102D01*
X278344Y306469D01*
X279177Y305959D01*
X280078Y305585D01*
X281027Y305357D01*
X282000Y305281D01*
X282973Y305357D01*
X283922Y305585D01*
X284823Y305959D01*
X285655Y306469D01*
X286398Y307102D01*
X287031Y307845D01*
X287541Y308677D01*
X287915Y309578D01*
X288143Y310527D01*
X288219Y311500D01*
X288143Y312473D01*
X287915Y313422D01*
X287541Y314324D01*
X287031Y315156D01*
X286398Y315898D01*
X285655Y316531D01*
X284823Y317041D01*
X283922Y317415D01*
X282973Y317643D01*
X282000Y317719D01*
D02*
G37*
G36*
X351250Y327969D02*
X350277Y327893D01*
X349328Y327665D01*
X348427Y327291D01*
X347594Y326781D01*
X346852Y326148D01*
X346219Y325406D01*
X345709Y324573D01*
X345335Y323672D01*
X345107Y322723D01*
X345031Y321750D01*
X345107Y320777D01*
X345335Y319828D01*
X345709Y318927D01*
X346219Y318095D01*
X346852Y317352D01*
Y315898D01*
X346219Y315156D01*
X345709Y314324D01*
X345335Y313422D01*
X345107Y312473D01*
X345031Y311500D01*
X345107Y310527D01*
X345335Y309578D01*
X345709Y308677D01*
X346219Y307845D01*
X346852Y307102D01*
X347594Y306469D01*
X348427Y305959D01*
X349328Y305585D01*
X350277Y305357D01*
X351250Y305281D01*
X352223Y305357D01*
X353172Y305585D01*
X354073Y305959D01*
X354906Y306469D01*
X355648Y307102D01*
X356281Y307845D01*
X356791Y308677D01*
X357165Y309578D01*
X357393Y310527D01*
X357469Y311500D01*
X357393Y312473D01*
X357165Y313422D01*
X356791Y314324D01*
X356281Y315156D01*
X355648Y315898D01*
Y317352D01*
X356281Y318095D01*
X356791Y318927D01*
X357165Y319828D01*
X357393Y320777D01*
X357469Y321750D01*
X357393Y322723D01*
X357165Y323672D01*
X356791Y324573D01*
X356281Y325406D01*
X355648Y326148D01*
X354906Y326781D01*
X354073Y327291D01*
X353172Y327665D01*
X352223Y327893D01*
X351250Y327969D01*
D02*
G37*
G36*
X627750Y316919D02*
X626777Y316843D01*
X625828Y316615D01*
X624927Y316241D01*
X624095Y315731D01*
X623352Y315098D01*
X622719Y314356D01*
X622209Y313523D01*
X621835Y312622D01*
X621607Y311673D01*
X621531Y310700D01*
X621607Y309727D01*
X621835Y308778D01*
X622209Y307876D01*
X622719Y307044D01*
X623352Y306302D01*
X624095Y305669D01*
X624927Y305159D01*
X625828Y304785D01*
X626777Y304557D01*
X627750Y304481D01*
X628723Y304557D01*
X629672Y304785D01*
X630573Y305159D01*
X631405Y305669D01*
X632148Y306302D01*
X632781Y307044D01*
X633291Y307876D01*
X633665Y308778D01*
X633893Y309727D01*
X633969Y310700D01*
X633893Y311673D01*
X633665Y312622D01*
X633291Y313523D01*
X632781Y314356D01*
X632148Y315098D01*
X631405Y315731D01*
X630573Y316241D01*
X629672Y316615D01*
X628723Y316843D01*
X627750Y316919D01*
D02*
G37*
G36*
X441500Y302175D02*
X440481Y302075D01*
X439500Y301777D01*
X438597Y301294D01*
X437805Y300645D01*
X437155Y299853D01*
X436673Y298950D01*
X436539Y298508D01*
X435211D01*
X435077Y298950D01*
X434595Y299853D01*
X433945Y300645D01*
X433153Y301294D01*
X432250Y301777D01*
X431269Y302075D01*
X430250Y302175D01*
X429231Y302075D01*
X428250Y301777D01*
X427347Y301294D01*
X426555Y300645D01*
X425905Y299853D01*
X425423Y298950D01*
X425125Y297969D01*
X425025Y296950D01*
X425125Y295931D01*
X425423Y294950D01*
X425905Y294047D01*
X426555Y293255D01*
X427347Y292605D01*
X428250Y292123D01*
X429231Y291825D01*
X430250Y291725D01*
X431269Y291825D01*
X432250Y292123D01*
X433153Y292605D01*
X433945Y293255D01*
X434595Y294047D01*
X435077Y294950D01*
X435211Y295392D01*
X436539D01*
X436673Y294950D01*
X437155Y294047D01*
X437805Y293255D01*
X438597Y292605D01*
X439500Y292123D01*
X440481Y291825D01*
X441500Y291725D01*
X442519Y291825D01*
X443500Y292123D01*
X444403Y292605D01*
X445195Y293255D01*
X445844Y294047D01*
X446327Y294950D01*
X446625Y295931D01*
X446725Y296950D01*
X446625Y297969D01*
X446327Y298950D01*
X445844Y299853D01*
X445195Y300645D01*
X444403Y301294D01*
X443500Y301777D01*
X442519Y302075D01*
X441500Y302175D01*
D02*
G37*
G36*
X145000Y303169D02*
X144027Y303093D01*
X143078Y302865D01*
X142177Y302491D01*
X141344Y301981D01*
X140602Y301348D01*
X140436Y301152D01*
X140260Y301069D01*
X138990D01*
X138814Y301152D01*
X138648Y301348D01*
X137906Y301981D01*
X137073Y302491D01*
X136172Y302865D01*
X135223Y303093D01*
X134250Y303169D01*
X133277Y303093D01*
X132328Y302865D01*
X131427Y302491D01*
X130595Y301981D01*
X129852Y301348D01*
X129219Y300606D01*
X128709Y299773D01*
X128335Y298872D01*
X128107Y297923D01*
X128031Y296950D01*
X128107Y295977D01*
X128335Y295028D01*
X128709Y294126D01*
X129219Y293294D01*
X129852Y292552D01*
X130595Y291919D01*
X131427Y291409D01*
X132328Y291035D01*
X133277Y290807D01*
X134250Y290731D01*
X135223Y290807D01*
X136172Y291035D01*
X137073Y291409D01*
X137906Y291919D01*
X138648Y292552D01*
X138814Y292747D01*
X138990Y292831D01*
X140260D01*
X140436Y292747D01*
X140602Y292552D01*
X141344Y291919D01*
X142177Y291409D01*
X143078Y291035D01*
X144027Y290807D01*
X145000Y290731D01*
X145973Y290807D01*
X146922Y291035D01*
X147823Y291409D01*
X148656Y291919D01*
X149398Y292552D01*
X150031Y293294D01*
X150541Y294126D01*
X150915Y295028D01*
X151143Y295977D01*
X151219Y296950D01*
X151143Y297923D01*
X150915Y298872D01*
X150541Y299773D01*
X150031Y300606D01*
X149398Y301348D01*
X148656Y301981D01*
X147823Y302491D01*
X146922Y302865D01*
X145973Y303093D01*
X145000Y303169D01*
D02*
G37*
G36*
X21250Y317675D02*
X20231Y317575D01*
X19250Y317277D01*
X18347Y316794D01*
X17555Y316145D01*
X16905Y315353D01*
X16423Y314450D01*
X16125Y313469D01*
X16025Y312450D01*
X16125Y311431D01*
X16423Y310450D01*
X16905Y309547D01*
X17555Y308755D01*
X18347Y308105D01*
X19250Y307623D01*
X20231Y307325D01*
X21250Y307225D01*
X22269Y307325D01*
X23250Y307623D01*
X24153Y308105D01*
X24945Y308755D01*
X25595Y309547D01*
X26077Y310450D01*
X26375Y311431D01*
X26475Y312450D01*
X26375Y313469D01*
X26077Y314450D01*
X25595Y315353D01*
X24945Y316145D01*
X24153Y316794D01*
X23250Y317277D01*
X22269Y317575D01*
X21250Y317675D01*
D02*
G37*
G36*
X296000Y317675D02*
X294981Y317575D01*
X294000Y317277D01*
X293097Y316795D01*
X292305Y316145D01*
X291655Y315353D01*
X291173Y314450D01*
X290875Y313469D01*
X290775Y312450D01*
X290875Y311431D01*
X291173Y310450D01*
X291655Y309547D01*
X292305Y308755D01*
X293097Y308105D01*
X294000Y307623D01*
X294981Y307325D01*
X296000Y307225D01*
X297019Y307325D01*
X298000Y307623D01*
X298903Y308105D01*
X299695Y308755D01*
X300345Y309547D01*
X300827Y310450D01*
X301125Y311431D01*
X301225Y312450D01*
X301125Y313469D01*
X300827Y314450D01*
X300345Y315353D01*
X299695Y316145D01*
X298903Y316795D01*
X298000Y317277D01*
X297019Y317575D01*
X296000Y317675D01*
D02*
G37*
G36*
X444750Y318719D02*
X443777Y318643D01*
X442828Y318415D01*
X441927Y318041D01*
X441095Y317531D01*
X440352Y316898D01*
X439719Y316156D01*
X439209Y315323D01*
X438835Y314422D01*
X438607Y313473D01*
X438531Y312500D01*
X438607Y311527D01*
X438835Y310578D01*
X439209Y309677D01*
X439719Y308845D01*
X440352Y308102D01*
X441095Y307469D01*
X441927Y306959D01*
X442828Y306585D01*
X443777Y306357D01*
X444750Y306281D01*
X445723Y306357D01*
X446672Y306585D01*
X447574Y306959D01*
X448406Y307469D01*
X449148Y308102D01*
X449781Y308845D01*
X450291Y309677D01*
X450665Y310578D01*
X450893Y311527D01*
X450969Y312500D01*
X450893Y313473D01*
X450665Y314422D01*
X450291Y315323D01*
X449781Y316156D01*
X449148Y316898D01*
X448406Y317531D01*
X447574Y318041D01*
X446672Y318415D01*
X445723Y318643D01*
X444750Y318719D01*
D02*
G37*
G36*
X568200Y325180D02*
X566678Y325060D01*
X565193Y324704D01*
X563783Y324119D01*
X562481Y323322D01*
X561320Y322330D01*
X560328Y321169D01*
X559530Y319867D01*
X558946Y318457D01*
X558590Y316972D01*
X558470Y315450D01*
X558590Y313928D01*
X558946Y312443D01*
X559530Y311033D01*
X560328Y309731D01*
X561320Y308570D01*
X562481Y307578D01*
X563783Y306780D01*
X565193Y306196D01*
X566678Y305840D01*
X568200Y305720D01*
X569722Y305840D01*
X571207Y306196D01*
X572617Y306780D01*
X573919Y307578D01*
X575080Y308570D01*
X576072Y309731D01*
X576870Y311033D01*
X577454Y312443D01*
X577810Y313928D01*
X577930Y315450D01*
X577810Y316972D01*
X577454Y318457D01*
X576870Y319867D01*
X576072Y321169D01*
X575080Y322330D01*
X573919Y323322D01*
X572617Y324119D01*
X571207Y324704D01*
X569722Y325060D01*
X568200Y325180D01*
D02*
G37*
G36*
X590800D02*
X589278Y325060D01*
X587793Y324704D01*
X586383Y324119D01*
X585081Y323322D01*
X583920Y322330D01*
X582928Y321169D01*
X582131Y319867D01*
X581546Y318457D01*
X581190Y316972D01*
X581070Y315450D01*
X581190Y313928D01*
X581546Y312443D01*
X582131Y311033D01*
X582928Y309731D01*
X583920Y308570D01*
X585081Y307578D01*
X586383Y306780D01*
X587793Y306196D01*
X589278Y305840D01*
X590800Y305720D01*
X592322Y305840D01*
X593807Y306196D01*
X595217Y306780D01*
X596519Y307578D01*
X597680Y308570D01*
X598672Y309731D01*
X599469Y311033D01*
X600054Y312443D01*
X600410Y313928D01*
X600530Y315450D01*
X600410Y316972D01*
X600054Y318457D01*
X599469Y319867D01*
X598672Y321169D01*
X597680Y322330D01*
X596519Y323322D01*
X595217Y324119D01*
X593807Y324704D01*
X592322Y325060D01*
X590800Y325180D01*
D02*
G37*
G36*
X489500Y342925D02*
X488481Y342825D01*
X487500Y342527D01*
X486597Y342045D01*
X485805Y341395D01*
X485155Y340603D01*
X484673Y339700D01*
X484375Y338719D01*
X484275Y337700D01*
X484375Y336681D01*
X484673Y335700D01*
X485155Y334797D01*
X485805Y334005D01*
X486597Y333355D01*
X487500Y332873D01*
X488481Y332575D01*
X489500Y332475D01*
X490519Y332575D01*
X491500Y332873D01*
X492403Y333355D01*
X493195Y334005D01*
X493845Y334797D01*
X494327Y335700D01*
X494625Y336681D01*
X494725Y337700D01*
X494625Y338719D01*
X494327Y339700D01*
X493845Y340603D01*
X493195Y341395D01*
X492403Y342045D01*
X491500Y342527D01*
X490519Y342825D01*
X489500Y342925D01*
D02*
G37*
G36*
X270250Y362675D02*
X269231Y362575D01*
X268250Y362277D01*
X267347Y361795D01*
X266555Y361145D01*
X265195D01*
X264403Y361795D01*
X263500Y362277D01*
X262519Y362575D01*
X261500Y362675D01*
X260481Y362575D01*
X259500Y362277D01*
X258597Y361795D01*
X257805Y361145D01*
X257155Y360353D01*
X256673Y359450D01*
X256375Y358469D01*
X256275Y357450D01*
X256375Y356431D01*
X256673Y355450D01*
X257155Y354547D01*
X257805Y353755D01*
X258597Y353105D01*
X259500Y352623D01*
X260481Y352325D01*
X261500Y352225D01*
X262519Y352325D01*
X263500Y352623D01*
X264403Y353105D01*
X265195Y353755D01*
X266555D01*
X267347Y353105D01*
X268250Y352623D01*
X269231Y352325D01*
X270250Y352225D01*
X271269Y352325D01*
X272250Y352623D01*
X273153Y353105D01*
X273945Y353755D01*
X274594Y354547D01*
X275077Y355450D01*
X275375Y356431D01*
X275475Y357450D01*
X275375Y358469D01*
X275077Y359450D01*
X274594Y360353D01*
X273945Y361145D01*
X273153Y361795D01*
X272250Y362277D01*
X271269Y362575D01*
X270250Y362675D01*
D02*
G37*
G36*
X483500Y375925D02*
X482481Y375825D01*
X481500Y375527D01*
X480597Y375045D01*
X479805Y374395D01*
X479155Y373603D01*
X478673Y372700D01*
X478375Y371719D01*
X478275Y370700D01*
X478375Y369681D01*
X478673Y368700D01*
X479155Y367797D01*
X479805Y367005D01*
X480597Y366355D01*
X481500Y365873D01*
X482481Y365575D01*
X483500Y365475D01*
X484519Y365575D01*
X485500Y365873D01*
X486403Y366355D01*
X487195Y367005D01*
X487845Y367797D01*
X488327Y368700D01*
X488625Y369681D01*
X488725Y370700D01*
X488625Y371719D01*
X488327Y372700D01*
X487845Y373603D01*
X487195Y374395D01*
X486403Y375045D01*
X485500Y375527D01*
X484519Y375825D01*
X483500Y375925D01*
D02*
G37*
G36*
X523000Y368925D02*
X521981Y368825D01*
X521000Y368527D01*
X520097Y368045D01*
X519305Y367395D01*
X518655Y366603D01*
X518172Y365700D01*
X517875Y364719D01*
X517775Y363700D01*
X517875Y362681D01*
X518172Y361700D01*
X518655Y360797D01*
X519305Y360005D01*
X520097Y359355D01*
X521000Y358873D01*
X521981Y358575D01*
X523000Y358475D01*
X524019Y358575D01*
X525000Y358873D01*
X525903Y359355D01*
X526695Y360005D01*
X527345Y360797D01*
X527827Y361700D01*
X528125Y362681D01*
X528225Y363700D01*
X528125Y364719D01*
X527827Y365700D01*
X527345Y366603D01*
X526695Y367395D01*
X525903Y368045D01*
X525000Y368527D01*
X524019Y368825D01*
X523000Y368925D01*
D02*
G37*
G36*
X489500Y362925D02*
X488481Y362825D01*
X487500Y362527D01*
X486597Y362045D01*
X485805Y361395D01*
X485155Y360603D01*
X484673Y359700D01*
X484375Y358719D01*
X484275Y357700D01*
X484375Y356681D01*
X484673Y355700D01*
X485155Y354797D01*
X485805Y354005D01*
X486597Y353355D01*
X487500Y352873D01*
X488481Y352575D01*
X489500Y352475D01*
X490519Y352575D01*
X491500Y352873D01*
X492403Y353355D01*
X493195Y354005D01*
X493845Y354797D01*
X494327Y355700D01*
X494625Y356681D01*
X494725Y357700D01*
X494625Y358719D01*
X494327Y359700D01*
X493845Y360603D01*
X493195Y361395D01*
X492403Y362045D01*
X491500Y362527D01*
X490519Y362825D01*
X489500Y362925D01*
D02*
G37*
G36*
X543750Y387919D02*
X542777Y387843D01*
X541828Y387615D01*
X540927Y387241D01*
X540094Y386731D01*
X539352Y386098D01*
X538719Y385355D01*
X538209Y384523D01*
X537835Y383622D01*
X537607Y382673D01*
X537531Y381700D01*
X537607Y380727D01*
X537835Y379778D01*
X538209Y378877D01*
X538719Y378045D01*
X539352Y377302D01*
X539718Y376990D01*
X539843Y376572D01*
Y375828D01*
X539718Y375410D01*
X539352Y375098D01*
X538719Y374356D01*
X538209Y373523D01*
X537835Y372622D01*
X537607Y371673D01*
X537531Y370700D01*
X537607Y369727D01*
X537835Y368778D01*
X538209Y367877D01*
X538719Y367044D01*
X539352Y366302D01*
X540094Y365669D01*
X540481Y365432D01*
X540576Y365179D01*
Y364221D01*
X540481Y363969D01*
X540094Y363731D01*
X539352Y363098D01*
X538719Y362355D01*
X538209Y361523D01*
X537835Y360622D01*
X537607Y359673D01*
X537531Y358700D01*
X537607Y357727D01*
X537736Y357190D01*
X536869Y356388D01*
X536662Y356304D01*
X535769Y356575D01*
X534750Y356675D01*
X533731Y356575D01*
X532750Y356277D01*
X531847Y355795D01*
X531055Y355145D01*
X530405Y354353D01*
X529923Y353450D01*
X529625Y352469D01*
X529525Y351450D01*
X529625Y350431D01*
X529923Y349450D01*
X530405Y348547D01*
X531055Y347755D01*
X531847Y347105D01*
X532750Y346623D01*
X533731Y346325D01*
X534750Y346225D01*
X535769Y346325D01*
X536750Y346623D01*
X536751Y346623D01*
X537443Y346175D01*
X537791Y345739D01*
X537607Y344973D01*
X537531Y344000D01*
X537607Y343027D01*
X537835Y342078D01*
X538209Y341177D01*
X538719Y340345D01*
X539352Y339602D01*
X540094Y338969D01*
X540927Y338459D01*
X541828Y338085D01*
X542777Y337857D01*
X543750Y337781D01*
X544723Y337857D01*
X545672Y338085D01*
X546573Y338459D01*
X547406Y338969D01*
X548148Y339602D01*
X548781Y340345D01*
X549291Y341177D01*
X549665Y342078D01*
X549893Y343027D01*
X549969Y344000D01*
X549893Y344973D01*
X549665Y345922D01*
X549291Y346823D01*
X548781Y347655D01*
X548148Y348398D01*
X547406Y349031D01*
X546573Y349541D01*
X545672Y349915D01*
X544723Y350143D01*
X543750Y350219D01*
X542777Y350143D01*
X541828Y349915D01*
X540927Y349541D01*
X539858Y350376D01*
X539875Y350431D01*
X539975Y351450D01*
X539891Y352304D01*
X540351Y352782D01*
X540577Y352930D01*
X541002Y353127D01*
X541828Y352785D01*
X542777Y352557D01*
X543750Y352481D01*
X544723Y352557D01*
X545672Y352785D01*
X546573Y353159D01*
X547406Y353669D01*
X548148Y354302D01*
X548781Y355045D01*
X549291Y355877D01*
X549665Y356778D01*
X549893Y357727D01*
X549969Y358700D01*
X549893Y359673D01*
X549665Y360622D01*
X549291Y361523D01*
X548781Y362355D01*
X548148Y363098D01*
X547406Y363731D01*
X547019Y363969D01*
X546924Y364221D01*
Y365179D01*
X547019Y365432D01*
X547406Y365669D01*
X548148Y366302D01*
X548781Y367044D01*
X549291Y367877D01*
X549665Y368778D01*
X549893Y369727D01*
X549969Y370700D01*
X549893Y371673D01*
X549665Y372622D01*
X549291Y373523D01*
X548781Y374356D01*
X548148Y375098D01*
X547782Y375410D01*
X547657Y375828D01*
Y376572D01*
X547782Y376990D01*
X548148Y377302D01*
X548781Y378045D01*
X549291Y378877D01*
X549665Y379778D01*
X549893Y380727D01*
X549969Y381700D01*
X549893Y382673D01*
X549665Y383622D01*
X549291Y384523D01*
X548781Y385355D01*
X548148Y386098D01*
X547406Y386731D01*
X546573Y387241D01*
X545672Y387615D01*
X544723Y387843D01*
X543750Y387919D01*
D02*
G37*
G36*
X182250Y387169D02*
X181277Y387093D01*
X180328Y386865D01*
X179427Y386491D01*
X178594Y385981D01*
X177852Y385348D01*
X177219Y384605D01*
X176709Y383773D01*
X176335Y382872D01*
X176107Y381923D01*
X176031Y380950D01*
X176107Y379977D01*
X176335Y379028D01*
X176709Y378126D01*
X177219Y377294D01*
X177852Y376552D01*
X178594Y375919D01*
X179427Y375409D01*
X180328Y375035D01*
X181277Y374807D01*
X182250Y374731D01*
X183223Y374807D01*
X184172Y375035D01*
X185073Y375409D01*
X185905Y375919D01*
X186648Y376552D01*
X187281Y377294D01*
X187791Y378126D01*
X188165Y379028D01*
X188393Y379977D01*
X188469Y380950D01*
X188393Y381923D01*
X188165Y382872D01*
X187791Y383773D01*
X187281Y384605D01*
X186648Y385348D01*
X185905Y385981D01*
X185073Y386491D01*
X184172Y386865D01*
X183223Y387093D01*
X182250Y387169D01*
D02*
G37*
G36*
X326250Y378925D02*
X325231Y378825D01*
X324250Y378527D01*
X323347Y378045D01*
X322555Y377395D01*
X321905Y376603D01*
X321704Y376227D01*
X320295D01*
X320095Y376603D01*
X319445Y377395D01*
X318653Y378045D01*
X317750Y378527D01*
X316769Y378825D01*
X315750Y378925D01*
X314731Y378825D01*
X313750Y378527D01*
X312847Y378045D01*
X312055Y377395D01*
X311405Y376603D01*
X311071Y375976D01*
X310422Y375832D01*
X310328D01*
X309679Y375976D01*
X309345Y376603D01*
X308695Y377395D01*
X307903Y378045D01*
X307000Y378527D01*
X306019Y378825D01*
X305000Y378925D01*
X303981Y378825D01*
X303000Y378527D01*
X302097Y378045D01*
X301305Y377395D01*
X300655Y376603D01*
X300173Y375700D01*
X299875Y374719D01*
X299775Y373700D01*
X299875Y372681D01*
X300173Y371700D01*
X300655Y370797D01*
X301305Y370005D01*
X302002Y369434D01*
X302097Y368786D01*
Y368614D01*
X302002Y367966D01*
X301305Y367395D01*
X300655Y366603D01*
X300173Y365700D01*
X299875Y364719D01*
X299775Y363700D01*
X299875Y362681D01*
X300173Y361700D01*
X300655Y360797D01*
X301305Y360005D01*
X302097Y359355D01*
X303000Y358873D01*
X303981Y358575D01*
X305000Y358475D01*
X306019Y358575D01*
X307000Y358873D01*
X307903Y359355D01*
X308695Y360005D01*
X309345Y360797D01*
X309827Y361700D01*
X310125Y362681D01*
X310225Y363700D01*
X310125Y364719D01*
X309827Y365700D01*
X309345Y366603D01*
X308695Y367395D01*
X307998Y367966D01*
X307903Y368614D01*
Y368786D01*
X307998Y369434D01*
X308695Y370005D01*
X309345Y370797D01*
X309679Y371423D01*
X310328Y371568D01*
X310422D01*
X311071Y371423D01*
X311405Y370797D01*
X312055Y370005D01*
X312847Y369355D01*
X313750Y368873D01*
X314731Y368575D01*
X315750Y368475D01*
X316769Y368575D01*
X317750Y368873D01*
X318653Y369355D01*
X319445Y370005D01*
X320095Y370797D01*
X320295Y371173D01*
X321704D01*
X321905Y370797D01*
X322555Y370005D01*
X323347Y369355D01*
X324250Y368873D01*
X325231Y368575D01*
X326250Y368475D01*
X327269Y368575D01*
X328250Y368873D01*
X329153Y369355D01*
X329945Y370005D01*
X330595Y370797D01*
X331077Y371700D01*
X331375Y372681D01*
X331475Y373700D01*
X331375Y374719D01*
X331077Y375700D01*
X330595Y376603D01*
X329945Y377395D01*
X329153Y378045D01*
X328250Y378527D01*
X327269Y378825D01*
X326250Y378925D01*
D02*
G37*
G36*
X164000Y378925D02*
X162981Y378825D01*
X162000Y378527D01*
X161097Y378045D01*
X160305Y377395D01*
X159655Y376603D01*
X159173Y375700D01*
X158875Y374719D01*
X158775Y373700D01*
X158875Y372681D01*
X159173Y371700D01*
X159655Y370797D01*
X160305Y370005D01*
X161097Y369355D01*
X162000Y368873D01*
X162981Y368575D01*
X164000Y368475D01*
X165019Y368575D01*
X166000Y368873D01*
X166903Y369355D01*
X167695Y370005D01*
X168345Y370797D01*
X168827Y371700D01*
X169125Y372681D01*
X169225Y373700D01*
X169125Y374719D01*
X168827Y375700D01*
X168345Y376603D01*
X167695Y377395D01*
X166903Y378045D01*
X166000Y378527D01*
X165019Y378825D01*
X164000Y378925D01*
D02*
G37*
G36*
X501250Y375925D02*
X500231Y375825D01*
X499250Y375527D01*
X498347Y375045D01*
X497555Y374395D01*
X496905Y373603D01*
X496423Y372700D01*
X496125Y371719D01*
X496025Y370700D01*
X496125Y369681D01*
X496423Y368700D01*
X496905Y367797D01*
X497555Y367005D01*
X498347Y366355D01*
X499250Y365873D01*
X500231Y365575D01*
X501250Y365475D01*
X502269Y365575D01*
X503250Y365873D01*
X504153Y366355D01*
X504945Y367005D01*
X505595Y367797D01*
X506077Y368700D01*
X506375Y369681D01*
X506475Y370700D01*
X506375Y371719D01*
X506077Y372700D01*
X505595Y373603D01*
X504945Y374395D01*
X504153Y375045D01*
X503250Y375527D01*
X502269Y375825D01*
X501250Y375925D01*
D02*
G37*
G36*
X401947Y377675D02*
X400928Y377575D01*
X399948Y377277D01*
X399044Y376795D01*
X398252Y376145D01*
X397603Y375353D01*
X397120Y374450D01*
X396822Y373469D01*
X396722Y372450D01*
X396822Y371431D01*
X397120Y370450D01*
X397603Y369547D01*
X398252Y368755D01*
X399044Y368106D01*
X399948Y367623D01*
X400928Y367325D01*
X401947Y367225D01*
X402966Y367325D01*
X403947Y367623D01*
X404850Y368106D01*
X405642Y368755D01*
X406292Y369547D01*
X406774Y370450D01*
X407072Y371431D01*
X407172Y372450D01*
X407072Y373469D01*
X406774Y374450D01*
X406292Y375353D01*
X405642Y376145D01*
X404850Y376795D01*
X403947Y377277D01*
X402966Y377575D01*
X401947Y377675D01*
D02*
G37*
G36*
X204000Y362175D02*
X202981Y362075D01*
X202000Y361777D01*
X201097Y361295D01*
X200305Y360645D01*
X199655Y359853D01*
X199173Y358950D01*
X198875Y357969D01*
X198775Y356950D01*
X198875Y355931D01*
X199173Y354950D01*
X199655Y354047D01*
X200305Y353255D01*
X201097Y352605D01*
X202000Y352123D01*
X202981Y351825D01*
X204000Y351725D01*
X205019Y351825D01*
X206000Y352123D01*
X206903Y352605D01*
X207695Y353255D01*
X208345Y354047D01*
X208827Y354950D01*
X209125Y355931D01*
X209225Y356950D01*
X209125Y357969D01*
X208827Y358950D01*
X208345Y359853D01*
X207695Y360645D01*
X206903Y361295D01*
X206000Y361777D01*
X205019Y362075D01*
X204000Y362175D01*
D02*
G37*
G36*
X99500Y353919D02*
X98527Y353843D01*
X97578Y353615D01*
X96677Y353241D01*
X95844Y352731D01*
X95102Y352098D01*
X94469Y351356D01*
X93959Y350523D01*
X93585Y349622D01*
X93357Y348673D01*
X93281Y347700D01*
X93357Y346727D01*
X93585Y345778D01*
X93959Y344877D01*
X94469Y344044D01*
X95102Y343302D01*
X95844Y342669D01*
X96677Y342159D01*
X97578Y341785D01*
X98527Y341557D01*
X99500Y341481D01*
X100473Y341557D01*
X101422Y341785D01*
X102323Y342159D01*
X103155Y342669D01*
X103898Y343302D01*
X104531Y344044D01*
X105041Y344877D01*
X105415Y345778D01*
X105643Y346727D01*
X105719Y347700D01*
X105643Y348673D01*
X105415Y349622D01*
X105041Y350523D01*
X104531Y351356D01*
X103898Y352098D01*
X103155Y352731D01*
X102323Y353241D01*
X101422Y353615D01*
X100473Y353843D01*
X99500Y353919D01*
D02*
G37*
G36*
X322500Y353425D02*
X321481Y353325D01*
X320500Y353027D01*
X319597Y352545D01*
X318805Y351895D01*
X318155Y351103D01*
X317673Y350200D01*
X317375Y349219D01*
X317275Y348200D01*
X317375Y347181D01*
X317673Y346200D01*
X318155Y345297D01*
X318805Y344505D01*
X319597Y343855D01*
X320500Y343373D01*
X321481Y343075D01*
X322500Y342975D01*
X323519Y343075D01*
X324500Y343373D01*
X325403Y343855D01*
X326195Y344505D01*
X326845Y345297D01*
X327327Y346200D01*
X327625Y347181D01*
X327725Y348200D01*
X327625Y349219D01*
X327327Y350200D01*
X326845Y351103D01*
X326195Y351895D01*
X325403Y352545D01*
X324500Y353027D01*
X323519Y353325D01*
X322500Y353425D01*
D02*
G37*
G36*
X513000Y357925D02*
X511981Y357825D01*
X511000Y357527D01*
X510097Y357044D01*
X509305Y356395D01*
X508655Y355603D01*
X508173Y354700D01*
X507875Y353719D01*
X507775Y352700D01*
X507875Y351681D01*
X508173Y350700D01*
X508655Y349797D01*
X509305Y349005D01*
X510002Y348434D01*
X510097Y347786D01*
Y347614D01*
X510002Y346966D01*
X509305Y346395D01*
X508655Y345603D01*
X508173Y344700D01*
X507875Y343719D01*
X507775Y342700D01*
X507875Y341681D01*
X508173Y340700D01*
X508655Y339797D01*
X509305Y339005D01*
X510097Y338355D01*
X511000Y337873D01*
X511981Y337575D01*
X513000Y337475D01*
X514019Y337575D01*
X515000Y337873D01*
X515903Y338355D01*
X516695Y339005D01*
X517345Y339797D01*
X517827Y340700D01*
X518125Y341681D01*
X518225Y342700D01*
X518125Y343719D01*
X517827Y344700D01*
X517345Y345603D01*
X516695Y346395D01*
X515998Y346966D01*
X515903Y347614D01*
Y347786D01*
X515998Y348434D01*
X516695Y349005D01*
X517345Y349797D01*
X517827Y350700D01*
X518125Y351681D01*
X518225Y352700D01*
X518125Y353719D01*
X517827Y354700D01*
X517345Y355603D01*
X516695Y356395D01*
X515903Y357044D01*
X515000Y357527D01*
X514019Y357825D01*
X513000Y357925D01*
D02*
G37*
G36*
X349000Y345219D02*
X348027Y345143D01*
X347078Y344915D01*
X346177Y344541D01*
X345345Y344031D01*
X344602Y343398D01*
X343969Y342656D01*
X343459Y341823D01*
X343085Y340922D01*
X342857Y339973D01*
X342781Y339000D01*
X342857Y338027D01*
X343085Y337078D01*
X343459Y336177D01*
X343969Y335345D01*
X344602Y334602D01*
X345345Y333969D01*
X346177Y333459D01*
X347078Y333085D01*
X348027Y332857D01*
X349000Y332781D01*
X349973Y332857D01*
X350922Y333085D01*
X351824Y333459D01*
X352656Y333969D01*
X353398Y334602D01*
X354031Y335345D01*
X354541Y336177D01*
X354915Y337078D01*
X355143Y338027D01*
X355219Y339000D01*
X355143Y339973D01*
X354915Y340922D01*
X354541Y341823D01*
X354031Y342656D01*
X353398Y343398D01*
X352656Y344031D01*
X351824Y344541D01*
X350922Y344915D01*
X349973Y345143D01*
X349000Y345219D01*
D02*
G37*
G36*
X470500Y357925D02*
X469481Y357825D01*
X468500Y357527D01*
X467597Y357044D01*
X466805Y356395D01*
X466155Y355603D01*
X465673Y354700D01*
X465375Y353719D01*
X465275Y352700D01*
X465375Y351681D01*
X465673Y350700D01*
X466155Y349797D01*
X466805Y349005D01*
X467502Y348434D01*
X467597Y347786D01*
Y347614D01*
X467502Y346966D01*
X466805Y346395D01*
X466155Y345603D01*
X465673Y344700D01*
X465375Y343719D01*
X465275Y342700D01*
X465375Y341681D01*
X465673Y340700D01*
X466155Y339797D01*
X466805Y339005D01*
X467597Y338355D01*
X468500Y337873D01*
X469481Y337575D01*
X470500Y337475D01*
X471519Y337575D01*
X472500Y337873D01*
X473403Y338355D01*
X474195Y339005D01*
X474845Y339797D01*
X475327Y340700D01*
X475625Y341681D01*
X475725Y342700D01*
X475625Y343719D01*
X475327Y344700D01*
X474845Y345603D01*
X474195Y346395D01*
X473498Y346966D01*
X473403Y347614D01*
Y347786D01*
X473498Y348434D01*
X474195Y349005D01*
X474845Y349797D01*
X475327Y350700D01*
X475625Y351681D01*
X475725Y352700D01*
X475625Y353719D01*
X475327Y354700D01*
X474845Y355603D01*
X474195Y356395D01*
X473403Y357044D01*
X472500Y357527D01*
X471519Y357825D01*
X470500Y357925D01*
D02*
G37*
G36*
X348000Y361669D02*
X347027Y361593D01*
X346078Y361365D01*
X345177Y360991D01*
X344344Y360481D01*
X343602Y359848D01*
X342969Y359105D01*
X342459Y358273D01*
X342085Y357372D01*
X341857Y356423D01*
X341781Y355450D01*
X341857Y354477D01*
X342085Y353528D01*
X342459Y352626D01*
X342969Y351794D01*
X343602Y351052D01*
X344344Y350419D01*
X345177Y349909D01*
X346078Y349535D01*
X347027Y349307D01*
X348000Y349231D01*
X348973Y349307D01*
X349922Y349535D01*
X350823Y349909D01*
X351656Y350419D01*
X352398Y351052D01*
X353031Y351794D01*
X353541Y352626D01*
X353915Y353528D01*
X354143Y354477D01*
X354219Y355450D01*
X354143Y356423D01*
X353915Y357372D01*
X353541Y358273D01*
X353031Y359105D01*
X352398Y359848D01*
X351656Y360481D01*
X350823Y360991D01*
X349922Y361365D01*
X348973Y361593D01*
X348000Y361669D01*
D02*
G37*
G36*
X192000Y362175D02*
X190981Y362075D01*
X190000Y361777D01*
X189097Y361295D01*
X188305Y360645D01*
X187655Y359853D01*
X187173Y358950D01*
X186875Y357969D01*
X186775Y356950D01*
X186875Y355931D01*
X187173Y354950D01*
X187655Y354047D01*
X188305Y353255D01*
X189097Y352605D01*
X190000Y352123D01*
X190981Y351825D01*
X192000Y351725D01*
X193019Y351825D01*
X194000Y352123D01*
X194903Y352605D01*
X195695Y353255D01*
X196345Y354047D01*
X196827Y354950D01*
X197125Y355931D01*
X197225Y356950D01*
X197125Y357969D01*
X196827Y358950D01*
X196345Y359853D01*
X195695Y360645D01*
X194903Y361295D01*
X194000Y361777D01*
X193019Y362075D01*
X192000Y362175D01*
D02*
G37*
G36*
X284250Y361669D02*
X283277Y361593D01*
X282328Y361365D01*
X281427Y360991D01*
X280594Y360481D01*
X279852Y359848D01*
X279219Y359105D01*
X278709Y358273D01*
X278335Y357372D01*
X278107Y356423D01*
X278031Y355450D01*
X278107Y354477D01*
X278335Y353528D01*
X278709Y352626D01*
X279219Y351794D01*
X279852Y351052D01*
X280594Y350419D01*
X281427Y349909D01*
X282328Y349535D01*
X283277Y349307D01*
X284250Y349231D01*
X285223Y349307D01*
X286172Y349535D01*
X287073Y349909D01*
X287906Y350419D01*
X288648Y351052D01*
X289281Y351794D01*
X289791Y352626D01*
X290165Y353528D01*
X290393Y354477D01*
X290469Y355450D01*
X290393Y356423D01*
X290165Y357372D01*
X289791Y358273D01*
X289281Y359105D01*
X288648Y359848D01*
X287906Y360481D01*
X287073Y360991D01*
X286172Y361365D01*
X285223Y361593D01*
X284250Y361669D01*
D02*
G37*
G36*
X132500Y356419D02*
X131527Y356343D01*
X130578Y356115D01*
X129677Y355741D01*
X128844Y355231D01*
X128102Y354598D01*
X127469Y353856D01*
X126959Y353023D01*
X126585Y352122D01*
X126357Y351173D01*
X126281Y350200D01*
X126357Y349227D01*
X126585Y348278D01*
X126959Y347377D01*
X127469Y346544D01*
X128102Y345802D01*
X128844Y345169D01*
X129677Y344659D01*
X130578Y344285D01*
X131527Y344057D01*
X132500Y343981D01*
X133473Y344057D01*
X134422Y344285D01*
X135323Y344659D01*
X136156Y345169D01*
X136898Y345802D01*
X137531Y346544D01*
X138041Y347377D01*
X138415Y348278D01*
X138643Y349227D01*
X138719Y350200D01*
X138643Y351173D01*
X138415Y352122D01*
X138041Y353023D01*
X137531Y353856D01*
X136898Y354598D01*
X136156Y355231D01*
X135323Y355741D01*
X134422Y356115D01*
X133473Y356343D01*
X132500Y356419D01*
D02*
G37*
G36*
X146250Y356669D02*
X145277Y356593D01*
X144328Y356365D01*
X143427Y355991D01*
X142594Y355481D01*
X141852Y354848D01*
X141219Y354105D01*
X140709Y353273D01*
X140335Y352372D01*
X140107Y351423D01*
X140031Y350450D01*
X140107Y349477D01*
X140335Y348528D01*
X140709Y347627D01*
X141219Y346795D01*
X141852Y346052D01*
X142594Y345419D01*
X143427Y344909D01*
X144328Y344535D01*
X145277Y344307D01*
X146250Y344231D01*
X147223Y344307D01*
X148172Y344535D01*
X149073Y344909D01*
X149906Y345419D01*
X150648Y346052D01*
X151281Y346795D01*
X151791Y347627D01*
X152165Y348528D01*
X152393Y349477D01*
X152469Y350450D01*
X152393Y351423D01*
X152165Y352372D01*
X151791Y353273D01*
X151281Y354105D01*
X150648Y354848D01*
X149906Y355481D01*
X149073Y355991D01*
X148172Y356365D01*
X147223Y356593D01*
X146250Y356669D01*
D02*
G37*
G36*
X402197Y249925D02*
X401178Y249825D01*
X400197Y249527D01*
X399294Y249045D01*
X398502Y248395D01*
X397853Y247603D01*
X397370Y246700D01*
X397072Y245719D01*
X396972Y244700D01*
X397072Y243681D01*
X397370Y242700D01*
X397853Y241797D01*
X398502Y241005D01*
X399294Y240355D01*
X400197Y239873D01*
X401178Y239575D01*
X402197Y239475D01*
X403217Y239575D01*
X404197Y239873D01*
X405100Y240355D01*
X405892Y241005D01*
X406542Y241797D01*
X407024Y242700D01*
X407322Y243681D01*
X407422Y244700D01*
X407322Y245719D01*
X407024Y246700D01*
X406542Y247603D01*
X405892Y248395D01*
X405100Y249045D01*
X404197Y249527D01*
X403217Y249825D01*
X402197Y249925D01*
D02*
G37*
G36*
X42750Y251425D02*
X41731Y251325D01*
X40750Y251027D01*
X39847Y250545D01*
X39055Y249895D01*
X38405Y249103D01*
X37923Y248200D01*
X37625Y247219D01*
X37525Y246200D01*
X37625Y245181D01*
X37923Y244200D01*
X38405Y243297D01*
X39055Y242505D01*
X39847Y241855D01*
X40750Y241373D01*
X41731Y241075D01*
X42750Y240975D01*
X43769Y241075D01*
X44750Y241373D01*
X45653Y241855D01*
X46445Y242505D01*
X47095Y243297D01*
X47577Y244200D01*
X47875Y245181D01*
X47975Y246200D01*
X47875Y247219D01*
X47577Y248200D01*
X47095Y249103D01*
X46445Y249895D01*
X45653Y250545D01*
X44750Y251027D01*
X43769Y251325D01*
X42750Y251425D01*
D02*
G37*
G36*
X539500Y243875D02*
X538481Y243775D01*
X537500Y243477D01*
X536597Y242995D01*
X535805Y242345D01*
X535155Y241553D01*
X534673Y240650D01*
X534375Y239669D01*
X534275Y238650D01*
X534375Y237631D01*
X534673Y236650D01*
X535155Y235747D01*
X535805Y234955D01*
X536597Y234305D01*
X537500Y233823D01*
X538481Y233525D01*
X539500Y233425D01*
X540519Y233525D01*
X541500Y233823D01*
X542403Y234305D01*
X543195Y234955D01*
X543845Y235747D01*
X544327Y236650D01*
X544625Y237631D01*
X544725Y238650D01*
X544625Y239669D01*
X544327Y240650D01*
X543845Y241553D01*
X543195Y242345D01*
X542403Y242995D01*
X541500Y243477D01*
X540519Y243775D01*
X539500Y243875D01*
D02*
G37*
G36*
X155250Y242925D02*
X154231Y242825D01*
X153250Y242527D01*
X152347Y242045D01*
X151555Y241395D01*
X150905Y240603D01*
X150423Y239700D01*
X150125Y238719D01*
X150025Y237700D01*
X150125Y236681D01*
X150423Y235700D01*
X150905Y234797D01*
X151555Y234005D01*
X152347Y233355D01*
X153250Y232873D01*
X154231Y232575D01*
X155250Y232475D01*
X156269Y232575D01*
X157250Y232873D01*
X158153Y233355D01*
X158945Y234005D01*
X159595Y234797D01*
X160077Y235700D01*
X160375Y236681D01*
X160475Y237700D01*
X160375Y238719D01*
X160077Y239700D01*
X159595Y240603D01*
X158945Y241395D01*
X158153Y242045D01*
X157250Y242527D01*
X156269Y242825D01*
X155250Y242925D01*
D02*
G37*
G36*
X270500Y234925D02*
X269481Y234825D01*
X268500Y234527D01*
X267597Y234044D01*
X266805Y233395D01*
X265445D01*
X264653Y234044D01*
X263750Y234527D01*
X262769Y234825D01*
X261750Y234925D01*
X260731Y234825D01*
X259750Y234527D01*
X258847Y234044D01*
X258055Y233395D01*
X257405Y232603D01*
X256923Y231700D01*
X256625Y230719D01*
X256525Y229700D01*
X256625Y228681D01*
X256923Y227700D01*
X257405Y226797D01*
X258055Y226005D01*
X258847Y225355D01*
X259750Y224872D01*
X260731Y224575D01*
X261750Y224475D01*
X262769Y224575D01*
X263750Y224872D01*
X264653Y225355D01*
X265445Y226005D01*
X266805D01*
X267597Y225355D01*
X268500Y224872D01*
X269481Y224575D01*
X270500Y224475D01*
X271519Y224575D01*
X272500Y224872D01*
X273403Y225355D01*
X274195Y226005D01*
X274845Y226797D01*
X275327Y227700D01*
X275625Y228681D01*
X275725Y229700D01*
X275625Y230719D01*
X275327Y231700D01*
X274845Y232603D01*
X274195Y233395D01*
X273403Y234044D01*
X272500Y234527D01*
X271519Y234825D01*
X270500Y234925D01*
D02*
G37*
G36*
X202250Y254175D02*
X201231Y254075D01*
X200250Y253777D01*
X199347Y253295D01*
X198555Y252645D01*
X198424Y252485D01*
X198356Y252445D01*
X196894D01*
X196826Y252485D01*
X196695Y252645D01*
X195903Y253295D01*
X195000Y253777D01*
X194019Y254075D01*
X193000Y254175D01*
X191981Y254075D01*
X191000Y253777D01*
X190097Y253295D01*
X189305Y252645D01*
X188655Y251853D01*
X188172Y250950D01*
X187875Y249969D01*
X187775Y248950D01*
X187875Y247931D01*
X188172Y246950D01*
X188655Y246047D01*
X189305Y245255D01*
X190097Y244605D01*
X191000Y244123D01*
X191981Y243825D01*
X193000Y243725D01*
X194019Y243825D01*
X195000Y244123D01*
X195903Y244605D01*
X196695Y245255D01*
X196826Y245415D01*
X196894Y245455D01*
X198356D01*
X198424Y245415D01*
X198555Y245255D01*
X199347Y244605D01*
X200250Y244123D01*
X201231Y243825D01*
X202250Y243725D01*
X203269Y243825D01*
X204250Y244123D01*
X205153Y244605D01*
X205945Y245255D01*
X206595Y246047D01*
X207077Y246950D01*
X207375Y247931D01*
X207475Y248950D01*
X207375Y249969D01*
X207077Y250950D01*
X206595Y251853D01*
X205945Y252645D01*
X205153Y253295D01*
X204250Y253777D01*
X203269Y254075D01*
X202250Y254175D01*
D02*
G37*
G36*
X174600Y264919D02*
X173627Y264843D01*
X172678Y264615D01*
X171777Y264241D01*
X170944Y263731D01*
X170202Y263098D01*
X169569Y262355D01*
X169059Y261523D01*
X168685Y260622D01*
X168457Y259673D01*
X168381Y258700D01*
X168457Y257727D01*
X168685Y256778D01*
X169059Y255877D01*
X169569Y255044D01*
X170202Y254302D01*
X170944Y253669D01*
X171777Y253159D01*
X172678Y252785D01*
X173627Y252557D01*
X174600Y252481D01*
X175573Y252557D01*
X176522Y252785D01*
X177423Y253159D01*
X178256Y253669D01*
X178998Y254302D01*
X179631Y255044D01*
X180141Y255877D01*
X180515Y256778D01*
X180743Y257727D01*
X180819Y258700D01*
X180743Y259673D01*
X180515Y260622D01*
X180141Y261523D01*
X179631Y262355D01*
X178998Y263098D01*
X178256Y263731D01*
X177423Y264241D01*
X176522Y264615D01*
X175573Y264843D01*
X174600Y264919D01*
D02*
G37*
G36*
X539500Y256575D02*
X538481Y256475D01*
X537500Y256177D01*
X536597Y255695D01*
X535805Y255045D01*
X535155Y254253D01*
X534673Y253350D01*
X534375Y252369D01*
X534275Y251350D01*
X534375Y250331D01*
X534673Y249350D01*
X535155Y248447D01*
X535805Y247655D01*
X536597Y247005D01*
X537500Y246523D01*
X538481Y246225D01*
X539500Y246125D01*
X540519Y246225D01*
X541500Y246523D01*
X542403Y247005D01*
X543195Y247655D01*
X543845Y248447D01*
X544327Y249350D01*
X544625Y250331D01*
X544725Y251350D01*
X544625Y252369D01*
X544327Y253350D01*
X543845Y254253D01*
X543195Y255045D01*
X542403Y255695D01*
X541500Y256177D01*
X540519Y256475D01*
X539500Y256575D01*
D02*
G37*
G36*
X20500Y252425D02*
X19481Y252325D01*
X18500Y252027D01*
X17597Y251545D01*
X16805Y250895D01*
X16155Y250103D01*
X15673Y249200D01*
X15375Y248219D01*
X15275Y247200D01*
X15375Y246181D01*
X15673Y245200D01*
X16155Y244297D01*
X16805Y243505D01*
X17597Y242855D01*
X18500Y242373D01*
X19481Y242075D01*
X20500Y241975D01*
X21519Y242075D01*
X22500Y242373D01*
X23403Y242855D01*
X24195Y243505D01*
X24845Y244297D01*
X25327Y245200D01*
X25625Y246181D01*
X25725Y247200D01*
X25625Y248219D01*
X25327Y249200D01*
X24845Y250103D01*
X24195Y250895D01*
X23403Y251545D01*
X22500Y252027D01*
X21519Y252325D01*
X20500Y252425D01*
D02*
G37*
G36*
X157250Y255425D02*
X156231Y255325D01*
X155250Y255027D01*
X154347Y254545D01*
X153555Y253895D01*
X152905Y253103D01*
X152423Y252200D01*
X152125Y251219D01*
X152025Y250200D01*
X152125Y249181D01*
X152423Y248200D01*
X152905Y247297D01*
X153555Y246505D01*
X154347Y245855D01*
X155250Y245373D01*
X156231Y245075D01*
X157250Y244975D01*
X158269Y245075D01*
X159250Y245373D01*
X160153Y245855D01*
X160945Y246505D01*
X161595Y247297D01*
X162077Y248200D01*
X162375Y249181D01*
X162475Y250200D01*
X162375Y251219D01*
X162077Y252200D01*
X161595Y253103D01*
X160945Y253895D01*
X160153Y254545D01*
X159250Y255027D01*
X158269Y255325D01*
X157250Y255425D01*
D02*
G37*
G36*
X34000Y242425D02*
X32981Y242325D01*
X32000Y242027D01*
X31097Y241545D01*
X30305Y240895D01*
X29655Y240103D01*
X29173Y239200D01*
X28875Y238219D01*
X28775Y237200D01*
X28875Y236181D01*
X29173Y235200D01*
X29655Y234297D01*
X30305Y233505D01*
X30490Y233354D01*
X29982Y232128D01*
X29500Y232175D01*
X28481Y232075D01*
X27500Y231777D01*
X26597Y231295D01*
X25805Y230645D01*
X25155Y229853D01*
X24673Y228950D01*
X24375Y227969D01*
X24275Y226950D01*
X24375Y225931D01*
X24673Y224950D01*
X25155Y224047D01*
X25805Y223255D01*
X26597Y222605D01*
X27500Y222123D01*
X28481Y221825D01*
X29500Y221725D01*
X30519Y221825D01*
X31500Y222123D01*
X32403Y222605D01*
X33195Y223255D01*
X33845Y224047D01*
X34327Y224950D01*
X34625Y225931D01*
X34725Y226950D01*
X34625Y227969D01*
X34327Y228950D01*
X33845Y229853D01*
X33195Y230645D01*
X33010Y230796D01*
X33518Y232022D01*
X34000Y231975D01*
X35019Y232075D01*
X36000Y232373D01*
X36903Y232855D01*
X37695Y233505D01*
X38345Y234297D01*
X38827Y235200D01*
X39125Y236181D01*
X39225Y237200D01*
X39125Y238219D01*
X38827Y239200D01*
X38345Y240103D01*
X37695Y240895D01*
X36903Y241545D01*
X36000Y242027D01*
X35019Y242325D01*
X34000Y242425D01*
D02*
G37*
G36*
X551250Y226421D02*
X550199Y226338D01*
X549173Y226092D01*
X548199Y225688D01*
X547300Y225137D01*
X546498Y224452D01*
X545813Y223650D01*
X545262Y222751D01*
X544858Y221777D01*
X544612Y220751D01*
X544529Y219700D01*
X544612Y218649D01*
X544858Y217623D01*
X545262Y216649D01*
X545813Y215750D01*
X546498Y214948D01*
X547300Y214263D01*
X548199Y213712D01*
X549173Y213308D01*
X550199Y213062D01*
X551250Y212979D01*
X552301Y213062D01*
X553327Y213308D01*
X554301Y213712D01*
X555200Y214263D01*
X556002Y214948D01*
X556687Y215750D01*
X557238Y216649D01*
X557642Y217623D01*
X557888Y218649D01*
X557971Y219700D01*
X557888Y220751D01*
X557642Y221777D01*
X557238Y222751D01*
X556687Y223650D01*
X556002Y224452D01*
X555200Y225137D01*
X554301Y225688D01*
X553327Y226092D01*
X552301Y226338D01*
X551250Y226421D01*
D02*
G37*
G36*
X567000Y227669D02*
X566027Y227593D01*
X565078Y227365D01*
X564177Y226991D01*
X563344Y226481D01*
X562602Y225848D01*
X561969Y225105D01*
X561459Y224273D01*
X561085Y223372D01*
X560857Y222423D01*
X560781Y221450D01*
X560857Y220477D01*
X561085Y219528D01*
X561459Y218626D01*
X561969Y217794D01*
X562602Y217052D01*
X563344Y216419D01*
X564177Y215909D01*
X565078Y215535D01*
X566027Y215307D01*
X567000Y215231D01*
X567973Y215307D01*
X568922Y215535D01*
X569823Y215909D01*
X570656Y216419D01*
X571398Y217052D01*
X572031Y217794D01*
X572541Y218626D01*
X572915Y219528D01*
X573143Y220477D01*
X573219Y221450D01*
X573143Y222423D01*
X572915Y223372D01*
X572541Y224273D01*
X572031Y225105D01*
X571398Y225848D01*
X570656Y226481D01*
X569823Y226991D01*
X568922Y227365D01*
X567973Y227593D01*
X567000Y227669D01*
D02*
G37*
G36*
X539500Y218475D02*
X538481Y218375D01*
X537500Y218077D01*
X536597Y217595D01*
X535805Y216945D01*
X535155Y216153D01*
X534673Y215250D01*
X534375Y214269D01*
X534275Y213250D01*
X534375Y212231D01*
X534673Y211250D01*
X535155Y210347D01*
X535805Y209555D01*
X536597Y208905D01*
X537500Y208423D01*
X538481Y208125D01*
X539500Y208025D01*
X540519Y208125D01*
X541500Y208423D01*
X542403Y208905D01*
X543195Y209555D01*
X543845Y210347D01*
X544327Y211250D01*
X544625Y212231D01*
X544725Y213250D01*
X544625Y214269D01*
X544327Y215250D01*
X543845Y216153D01*
X543195Y216945D01*
X542403Y217595D01*
X541500Y218077D01*
X540519Y218375D01*
X539500Y218475D01*
D02*
G37*
G36*
X25500Y220219D02*
X24527Y220143D01*
X23578Y219915D01*
X22677Y219541D01*
X21844Y219031D01*
X21102Y218398D01*
X20469Y217656D01*
X19959Y216823D01*
X19585Y215922D01*
X19357Y214973D01*
X19281Y214000D01*
X19357Y213027D01*
X19514Y212376D01*
X19029Y211564D01*
X18591Y211159D01*
X17731Y211075D01*
X16750Y210777D01*
X15847Y210295D01*
X15055Y209645D01*
X14405Y208853D01*
X13923Y207950D01*
X13625Y206969D01*
X13525Y205950D01*
X13625Y204931D01*
X13923Y203950D01*
X14405Y203047D01*
X15055Y202255D01*
X15752Y201684D01*
X15847Y201036D01*
Y200864D01*
X15752Y200216D01*
X15055Y199645D01*
X14405Y198853D01*
X13923Y197950D01*
X13625Y196969D01*
X13525Y195950D01*
X13625Y194931D01*
X13923Y193950D01*
X14405Y193047D01*
X15055Y192255D01*
X15847Y191605D01*
X16750Y191123D01*
X17731Y190825D01*
X18750Y190725D01*
X19769Y190825D01*
X20750Y191123D01*
X21653Y191605D01*
X22445Y192255D01*
X23094Y193047D01*
X23577Y193950D01*
X23875Y194931D01*
X23975Y195950D01*
X23925Y196456D01*
X25171Y196768D01*
X25209Y196677D01*
X25719Y195844D01*
X26352Y195102D01*
X27095Y194469D01*
X27927Y193959D01*
X28828Y193585D01*
X29777Y193357D01*
X30750Y193281D01*
X31723Y193357D01*
X32672Y193585D01*
X33573Y193959D01*
X34406Y194469D01*
X35148Y195102D01*
X35781Y195844D01*
X36291Y196677D01*
X36665Y197578D01*
X36893Y198527D01*
X36969Y199500D01*
X36893Y200473D01*
X36665Y201422D01*
X36291Y202323D01*
X35781Y203155D01*
X35148Y203898D01*
X34406Y204531D01*
X33573Y205041D01*
X32672Y205415D01*
X31723Y205643D01*
X30750Y205719D01*
X29777Y205643D01*
X28828Y205415D01*
X27927Y205041D01*
X27095Y204531D01*
X26352Y203898D01*
X25719Y203155D01*
X25209Y202323D01*
X24835Y201422D01*
X24607Y200473D01*
X24531Y199500D01*
X24607Y198527D01*
X23385Y198310D01*
X23094Y198853D01*
X22445Y199645D01*
X21748Y200216D01*
X21653Y200864D01*
Y201036D01*
X21748Y201684D01*
X22445Y202255D01*
X23094Y203047D01*
X23577Y203950D01*
X23875Y204931D01*
X23975Y205950D01*
X23901Y206702D01*
X24162Y207184D01*
X24210Y207238D01*
X24942Y207825D01*
X25500Y207781D01*
X26473Y207857D01*
X27422Y208085D01*
X28323Y208459D01*
X29155Y208969D01*
X29898Y209602D01*
X30531Y210345D01*
X31041Y211177D01*
X31415Y212078D01*
X31643Y213027D01*
X31719Y214000D01*
X31643Y214973D01*
X31415Y215922D01*
X31041Y216823D01*
X30531Y217656D01*
X29898Y218398D01*
X29155Y219031D01*
X28323Y219541D01*
X27422Y219915D01*
X26473Y220143D01*
X25500Y220219D01*
D02*
G37*
G36*
X144750Y234675D02*
X143731Y234575D01*
X142750Y234277D01*
X141847Y233795D01*
X141055Y233145D01*
X140405Y232353D01*
X139923Y231450D01*
X139625Y230469D01*
X139525Y229450D01*
X139625Y228431D01*
X139923Y227450D01*
X140405Y226547D01*
X141055Y225755D01*
Y225145D01*
X140405Y224353D01*
X139923Y223450D01*
X139625Y222469D01*
X139525Y221450D01*
X139625Y220431D01*
X139923Y219450D01*
X140405Y218547D01*
X140672Y218223D01*
X140931Y217325D01*
X140672Y216427D01*
X140405Y216103D01*
X139923Y215200D01*
X139625Y214219D01*
X139525Y213200D01*
X139625Y212181D01*
X139923Y211200D01*
X140405Y210297D01*
X141055Y209505D01*
X141847Y208855D01*
X142750Y208373D01*
X143731Y208075D01*
X144750Y207975D01*
X145769Y208075D01*
X146750Y208373D01*
X147653Y208855D01*
X148445Y209505D01*
X149095Y210297D01*
X149577Y211200D01*
X149875Y212181D01*
X149975Y213200D01*
X149875Y214219D01*
X149577Y215200D01*
X149095Y216103D01*
X148828Y216427D01*
X148569Y217325D01*
X148828Y218223D01*
X149095Y218547D01*
X149577Y219450D01*
X149875Y220431D01*
X149975Y221450D01*
X149875Y222469D01*
X149577Y223450D01*
X149095Y224353D01*
X148445Y225145D01*
Y225755D01*
X149095Y226547D01*
X149577Y227450D01*
X149875Y228431D01*
X149975Y229450D01*
X149875Y230469D01*
X149577Y231450D01*
X149095Y232353D01*
X148445Y233145D01*
X147653Y233795D01*
X146750Y234277D01*
X145769Y234575D01*
X144750Y234675D01*
D02*
G37*
G36*
X18750Y237925D02*
X17731Y237825D01*
X16750Y237527D01*
X15847Y237045D01*
X15055Y236395D01*
X14405Y235603D01*
X13923Y234700D01*
X13625Y233719D01*
X13525Y232700D01*
X13625Y231681D01*
X13923Y230700D01*
X14405Y229797D01*
X15055Y229005D01*
X15847Y228355D01*
X16750Y227873D01*
X17731Y227575D01*
X18750Y227475D01*
X19769Y227575D01*
X20750Y227873D01*
X21653Y228355D01*
X22445Y229005D01*
X23095Y229797D01*
X23577Y230700D01*
X23875Y231681D01*
X23975Y232700D01*
X23875Y233719D01*
X23577Y234700D01*
X23095Y235603D01*
X22445Y236395D01*
X21653Y237045D01*
X20750Y237527D01*
X19769Y237825D01*
X18750Y237925D01*
D02*
G37*
G36*
X348250Y232169D02*
X347277Y232093D01*
X346328Y231865D01*
X345427Y231491D01*
X344594Y230981D01*
X343852Y230348D01*
X343219Y229606D01*
X342709Y228773D01*
X342651Y228635D01*
X341248Y228566D01*
X341095Y228853D01*
X340445Y229645D01*
X339653Y230295D01*
X338750Y230777D01*
X337769Y231075D01*
X336750Y231175D01*
X335731Y231075D01*
X334750Y230777D01*
X333847Y230295D01*
X333055Y229645D01*
X332405Y228853D01*
X331923Y227950D01*
X331625Y226969D01*
X331525Y225950D01*
X331625Y224931D01*
X331923Y223950D01*
X332405Y223047D01*
X333055Y222255D01*
X333847Y221605D01*
X334750Y221123D01*
X335731Y220825D01*
X336750Y220725D01*
X337769Y220825D01*
X338750Y221123D01*
X339653Y221605D01*
X340445Y222255D01*
X341095Y223047D01*
X341248Y223334D01*
X342651Y223265D01*
X342709Y223127D01*
X343219Y222294D01*
X343852Y221552D01*
X344594Y220919D01*
X345427Y220409D01*
X346328Y220035D01*
X347277Y219807D01*
X348250Y219731D01*
X349223Y219807D01*
X350172Y220035D01*
X351073Y220409D01*
X351906Y220919D01*
X352648Y221552D01*
X353281Y222294D01*
X353791Y223127D01*
X354165Y224028D01*
X354393Y224977D01*
X354469Y225950D01*
X354393Y226923D01*
X354165Y227872D01*
X353791Y228773D01*
X353281Y229606D01*
X352648Y230348D01*
X351906Y230981D01*
X351073Y231491D01*
X350172Y231865D01*
X349223Y232093D01*
X348250Y232169D01*
D02*
G37*
G36*
X284500Y232419D02*
X283527Y232343D01*
X282578Y232115D01*
X281677Y231741D01*
X280844Y231231D01*
X280102Y230598D01*
X279469Y229855D01*
X278959Y229023D01*
X278585Y228122D01*
X278357Y227173D01*
X278281Y226200D01*
X278357Y225227D01*
X278585Y224278D01*
X278959Y223377D01*
X279469Y222544D01*
X280102Y221802D01*
X280844Y221169D01*
X281677Y220659D01*
X282578Y220285D01*
X283527Y220057D01*
X284500Y219981D01*
X285473Y220057D01*
X286422Y220285D01*
X287323Y220659D01*
X288155Y221169D01*
X288898Y221802D01*
X289531Y222544D01*
X289711Y222838D01*
X290028Y222959D01*
X291053Y222977D01*
X291223Y222910D01*
X291555Y222505D01*
X292347Y221855D01*
X293250Y221373D01*
X294231Y221075D01*
X295250Y220975D01*
X296269Y221075D01*
X297250Y221373D01*
X298153Y221855D01*
X298945Y222505D01*
X299595Y223297D01*
X300077Y224200D01*
X300375Y225181D01*
X300475Y226200D01*
X300375Y227219D01*
X300077Y228200D01*
X299595Y229103D01*
X298945Y229895D01*
X298153Y230544D01*
X297250Y231027D01*
X296269Y231325D01*
X295250Y231425D01*
X294231Y231325D01*
X293250Y231027D01*
X292347Y230544D01*
X291555Y229895D01*
X291223Y229490D01*
X291053Y229423D01*
X290028Y229441D01*
X289711Y229562D01*
X289531Y229855D01*
X288898Y230598D01*
X288155Y231231D01*
X287323Y231741D01*
X286422Y232115D01*
X285473Y232343D01*
X284500Y232419D01*
D02*
G37*
G36*
X169250Y225925D02*
X168231Y225825D01*
X167250Y225527D01*
X166347Y225045D01*
X165555Y224395D01*
X164905Y223603D01*
X164423Y222700D01*
X164125Y221719D01*
X164025Y220700D01*
X164125Y219681D01*
X164423Y218700D01*
X164905Y217797D01*
X165555Y217005D01*
X166347Y216355D01*
X167250Y215873D01*
X168231Y215575D01*
X169250Y215475D01*
X170269Y215575D01*
X171250Y215873D01*
X172153Y216355D01*
X172945Y217005D01*
X173595Y217797D01*
X174077Y218700D01*
X174375Y219681D01*
X174475Y220700D01*
X174375Y221719D01*
X174077Y222700D01*
X173595Y223603D01*
X172945Y224395D01*
X172153Y225045D01*
X171250Y225527D01*
X170269Y225825D01*
X169250Y225925D01*
D02*
G37*
G36*
X539500Y231175D02*
X538481Y231075D01*
X537500Y230777D01*
X536597Y230295D01*
X535805Y229645D01*
X535155Y228853D01*
X534673Y227950D01*
X534375Y226969D01*
X534275Y225950D01*
X534375Y224931D01*
X534673Y223950D01*
X535155Y223047D01*
X535805Y222255D01*
X536597Y221605D01*
X537500Y221123D01*
X538481Y220825D01*
X539500Y220725D01*
X540519Y220825D01*
X541500Y221123D01*
X542403Y221605D01*
X543195Y222255D01*
X543845Y223047D01*
X544327Y223950D01*
X544625Y224931D01*
X544725Y225950D01*
X544625Y226969D01*
X544327Y227950D01*
X543845Y228853D01*
X543195Y229645D01*
X542403Y230295D01*
X541500Y230777D01*
X540519Y231075D01*
X539500Y231175D01*
D02*
G37*
G36*
X231447Y286675D02*
X230428Y286575D01*
X229447Y286277D01*
X228544Y285795D01*
X227752Y285145D01*
X227103Y284353D01*
X226620Y283450D01*
X226322Y282469D01*
X226222Y281450D01*
X226322Y280431D01*
X226620Y279450D01*
X227103Y278547D01*
X227752Y277755D01*
X228544Y277105D01*
X229447Y276623D01*
X230428Y276325D01*
X231447Y276225D01*
X232467Y276325D01*
X233447Y276623D01*
X234350Y277105D01*
X235142Y277755D01*
X235792Y278547D01*
X236275Y279450D01*
X236572Y280431D01*
X236672Y281450D01*
X236572Y282469D01*
X236275Y283450D01*
X235792Y284353D01*
X235142Y285145D01*
X234350Y285795D01*
X233447Y286277D01*
X232467Y286575D01*
X231447Y286675D01*
D02*
G37*
G36*
X552000Y289921D02*
X550949Y289838D01*
X549923Y289592D01*
X548949Y289188D01*
X548050Y288637D01*
X547248Y287952D01*
X546563Y287150D01*
X546012Y286251D01*
X545608Y285277D01*
X545362Y284251D01*
X545279Y283200D01*
X545362Y282149D01*
X545608Y281123D01*
X546012Y280149D01*
X546563Y279250D01*
X547248Y278448D01*
X548050Y277763D01*
X548949Y277212D01*
X549923Y276808D01*
X550949Y276562D01*
X552000Y276479D01*
X553051Y276562D01*
X554077Y276808D01*
X555051Y277212D01*
X555950Y277763D01*
X556752Y278448D01*
X557437Y279250D01*
X557988Y280149D01*
X558392Y281123D01*
X558638Y282149D01*
X558721Y283200D01*
X558638Y284251D01*
X558392Y285277D01*
X557988Y286251D01*
X557437Y287150D01*
X556752Y287952D01*
X555950Y288637D01*
X555051Y289188D01*
X554077Y289592D01*
X553051Y289838D01*
X552000Y289921D01*
D02*
G37*
G36*
X21500Y285675D02*
X20481Y285575D01*
X19500Y285277D01*
X18597Y284795D01*
X17805Y284145D01*
X17155Y283353D01*
X16673Y282450D01*
X16375Y281469D01*
X16275Y280450D01*
X16375Y279431D01*
X16673Y278450D01*
X17155Y277547D01*
X17805Y276755D01*
X18597Y276105D01*
X19500Y275623D01*
X20481Y275325D01*
X21500Y275225D01*
X22519Y275325D01*
X23500Y275623D01*
X24403Y276105D01*
X25195Y276755D01*
X25845Y277547D01*
X26327Y278450D01*
X26625Y279431D01*
X26725Y280450D01*
X26625Y281469D01*
X26327Y282450D01*
X25845Y283353D01*
X25195Y284145D01*
X24403Y284795D01*
X23500Y285277D01*
X22519Y285575D01*
X21500Y285675D01*
D02*
G37*
G36*
X539500Y281975D02*
X538481Y281875D01*
X537500Y281577D01*
X536597Y281095D01*
X535805Y280445D01*
X535155Y279653D01*
X534673Y278750D01*
X534375Y277769D01*
X534275Y276750D01*
X534375Y275731D01*
X534673Y274750D01*
X535155Y273847D01*
X535805Y273055D01*
X536597Y272405D01*
X537500Y271923D01*
X538481Y271625D01*
X539500Y271525D01*
X540519Y271625D01*
X541500Y271923D01*
X542403Y272405D01*
X543195Y273055D01*
X543845Y273847D01*
X544327Y274750D01*
X544625Y275731D01*
X544725Y276750D01*
X544625Y277769D01*
X544327Y278750D01*
X543845Y279653D01*
X543195Y280445D01*
X542403Y281095D01*
X541500Y281577D01*
X540519Y281875D01*
X539500Y281975D01*
D02*
G37*
G36*
X47750Y296225D02*
X46731Y296125D01*
X45750Y295827D01*
X44847Y295345D01*
X44055Y294695D01*
X43405Y293903D01*
X42923Y293000D01*
X42625Y292019D01*
X42525Y291000D01*
X42625Y289981D01*
X42923Y289000D01*
X43405Y288097D01*
X44055Y287305D01*
X44847Y286655D01*
X45291Y286418D01*
X45302Y286391D01*
Y285059D01*
X45291Y285032D01*
X44847Y284795D01*
X44055Y284145D01*
X43405Y283353D01*
X42923Y282450D01*
X42625Y281469D01*
X42525Y280450D01*
X42625Y279431D01*
X42923Y278450D01*
X43405Y277547D01*
X44055Y276755D01*
X44847Y276105D01*
X45750Y275623D01*
X46731Y275325D01*
X47750Y275225D01*
X48769Y275325D01*
X49750Y275623D01*
X50653Y276105D01*
X51445Y276755D01*
X52095Y277547D01*
X52577Y278450D01*
X52601Y278530D01*
X53168Y278667D01*
X53941Y278572D01*
X54209Y277927D01*
X54719Y277094D01*
X55352Y276352D01*
X56094Y275719D01*
X56927Y275209D01*
X57828Y274835D01*
X58777Y274607D01*
X59750Y274531D01*
X60723Y274607D01*
X61672Y274835D01*
X62573Y275209D01*
X63048Y275499D01*
X63418Y275318D01*
X64083Y274655D01*
X63875Y273969D01*
X63775Y272950D01*
X62573Y272241D01*
X61672Y272615D01*
X60723Y272843D01*
X59750Y272919D01*
X58777Y272843D01*
X57828Y272615D01*
X56927Y272241D01*
X56094Y271731D01*
X55352Y271098D01*
X54719Y270355D01*
X54209Y269523D01*
X53835Y268622D01*
X53607Y267673D01*
X53531Y266700D01*
X53607Y265727D01*
X53835Y264778D01*
X54209Y263877D01*
X54719Y263044D01*
X55352Y262302D01*
X56094Y261669D01*
X56927Y261159D01*
X57275Y261014D01*
X57888Y260321D01*
X58002Y259437D01*
X57875Y259019D01*
X56769Y258575D01*
X55750Y258675D01*
X54731Y258575D01*
X53750Y258277D01*
X52847Y257795D01*
X52055Y257145D01*
X51405Y256353D01*
X50923Y255450D01*
X50625Y254469D01*
X50525Y253450D01*
X50625Y252431D01*
X50923Y251450D01*
X51405Y250547D01*
X52055Y249755D01*
X52847Y249105D01*
X53750Y248623D01*
X54731Y248325D01*
X55750Y248225D01*
X56769Y248325D01*
X57750Y248623D01*
X58002Y248758D01*
X59272Y248011D01*
Y242450D01*
X59382Y241615D01*
X59705Y240836D01*
X59985Y240471D01*
X59680Y239670D01*
X59627Y239597D01*
X59311Y239292D01*
X58250Y239375D01*
X56971Y239275D01*
X55724Y238975D01*
X54538Y238484D01*
X53445Y237814D01*
X52469Y236981D01*
X51636Y236005D01*
X50966Y234911D01*
X50475Y233726D01*
X50175Y232479D01*
X50075Y231200D01*
X50175Y229921D01*
X50475Y228674D01*
X50966Y227488D01*
X51636Y226395D01*
X52469Y225419D01*
X53445Y224586D01*
X54538Y223916D01*
X55724Y223425D01*
X56971Y223125D01*
X58250Y223025D01*
X59529Y223125D01*
X60776Y223425D01*
X61961Y223916D01*
X63055Y224586D01*
X64031Y225419D01*
X64864Y226395D01*
X65252Y227029D01*
X66522Y226670D01*
Y190729D01*
X65252Y190371D01*
X64864Y191005D01*
X64031Y191981D01*
X63055Y192814D01*
X61961Y193484D01*
X60776Y193975D01*
X59529Y194275D01*
X58250Y194375D01*
X56971Y194275D01*
X55724Y193975D01*
X54538Y193484D01*
X53445Y192814D01*
X52469Y191981D01*
X51636Y191005D01*
X50966Y189911D01*
X50475Y188726D01*
X50175Y187479D01*
X50075Y186200D01*
X50175Y184921D01*
X50475Y183674D01*
X50966Y182488D01*
X51636Y181395D01*
X52469Y180419D01*
X53445Y179586D01*
X54538Y178916D01*
X55724Y178425D01*
X56971Y178125D01*
X58250Y178025D01*
X59529Y178125D01*
X60776Y178425D01*
X61961Y178916D01*
X63055Y179586D01*
X64031Y180419D01*
X64864Y181395D01*
X65252Y182029D01*
X66522Y181671D01*
Y177287D01*
X49468Y160232D01*
X48955Y159564D01*
X48632Y158785D01*
X48522Y157950D01*
Y156639D01*
X47252Y155892D01*
X47000Y156027D01*
X46019Y156325D01*
X45000Y156425D01*
X43981Y156325D01*
X43000Y156027D01*
X42097Y155545D01*
X41305Y154895D01*
X40655Y154103D01*
X40173Y153200D01*
X39875Y152219D01*
X39805Y151506D01*
X39041Y151081D01*
X38519Y150996D01*
X36057Y153457D01*
X36125Y153681D01*
X36225Y154700D01*
X36125Y155719D01*
X35827Y156700D01*
X35345Y157603D01*
X34695Y158395D01*
X34453Y158593D01*
X34432Y158735D01*
X34769Y159977D01*
X35250Y160123D01*
X36153Y160605D01*
X36945Y161255D01*
X37595Y162047D01*
X38077Y162950D01*
X38375Y163931D01*
X38475Y164950D01*
X38375Y165969D01*
X38077Y166950D01*
X37595Y167853D01*
X36945Y168645D01*
X36153Y169295D01*
X35250Y169777D01*
X34269Y170075D01*
X33250Y170175D01*
X32231Y170075D01*
X31250Y169777D01*
X30347Y169295D01*
X29555Y168645D01*
X28905Y167853D01*
X28423Y166950D01*
X28125Y165969D01*
X28025Y164950D01*
X28125Y163931D01*
X28423Y162950D01*
X28905Y162047D01*
X29555Y161255D01*
X29797Y161057D01*
X29818Y160916D01*
X29481Y159673D01*
X29000Y159527D01*
X28097Y159045D01*
X27305Y158395D01*
X26655Y157603D01*
X26173Y156700D01*
X25875Y155719D01*
X25775Y154700D01*
X25875Y153681D01*
X26173Y152700D01*
X26655Y151797D01*
X27305Y151005D01*
X28002Y150434D01*
X28097Y149786D01*
Y149614D01*
X28002Y148966D01*
X27305Y148395D01*
X26922Y147928D01*
X22828D01*
X22445Y148395D01*
X21653Y149045D01*
X20750Y149527D01*
X19769Y149825D01*
X18750Y149925D01*
X17731Y149825D01*
X16750Y149527D01*
X15847Y149045D01*
X15055Y148395D01*
X14405Y147603D01*
X13923Y146700D01*
X13625Y145719D01*
X13525Y144700D01*
X13625Y143681D01*
X13923Y142700D01*
X14405Y141797D01*
X15055Y141005D01*
X15522Y140622D01*
Y130528D01*
X15055Y130145D01*
X14405Y129353D01*
X13923Y128450D01*
X13625Y127469D01*
X13525Y126450D01*
X13625Y125431D01*
X13923Y124450D01*
X14405Y123547D01*
X15055Y122755D01*
X15752Y122184D01*
X15847Y121536D01*
Y121364D01*
X15752Y120716D01*
X15055Y120145D01*
X14405Y119353D01*
X13923Y118450D01*
X13625Y117469D01*
X13525Y116450D01*
X13625Y115431D01*
X13923Y114450D01*
X14405Y113547D01*
X15055Y112755D01*
X15847Y112105D01*
X16750Y111623D01*
X17731Y111325D01*
X18750Y111225D01*
X19769Y111325D01*
X20750Y111623D01*
X21653Y112105D01*
X22445Y112755D01*
X23095Y113547D01*
X23577Y114450D01*
X23875Y115431D01*
X23975Y116450D01*
X23875Y117469D01*
X23577Y118450D01*
X23095Y119353D01*
X22445Y120145D01*
X21748Y120716D01*
X21653Y121364D01*
Y121536D01*
X21748Y122184D01*
X22445Y122755D01*
X23095Y123547D01*
X23577Y124450D01*
X23875Y125431D01*
X23975Y126450D01*
X23875Y127469D01*
X23577Y128450D01*
X23095Y129353D01*
X22445Y130145D01*
X21978Y130528D01*
Y140622D01*
X22445Y141005D01*
X22828Y141472D01*
X26922D01*
X27305Y141005D01*
X28097Y140355D01*
X29000Y139873D01*
X29981Y139575D01*
X31000Y139475D01*
X32019Y139575D01*
X32502Y139722D01*
X33772Y138989D01*
Y133700D01*
X33882Y132865D01*
X34205Y132086D01*
X34718Y131418D01*
X38718Y127418D01*
X39386Y126905D01*
X40165Y126582D01*
X41000Y126472D01*
X41713D01*
X42055Y126055D01*
X42847Y125405D01*
X43750Y124923D01*
X44731Y124625D01*
X45750Y124525D01*
X46769Y124625D01*
X47252Y124772D01*
X47393Y124764D01*
X48369Y124230D01*
X48621Y123948D01*
X48632Y123865D01*
X48955Y123086D01*
X49468Y122418D01*
X58218Y113668D01*
X58886Y113155D01*
X59665Y112832D01*
X60500Y112722D01*
X67913D01*
X73084Y107551D01*
X73025Y106950D01*
X73125Y105931D01*
X73423Y104950D01*
X73905Y104047D01*
X74555Y103255D01*
X75347Y102605D01*
X76250Y102123D01*
X77231Y101825D01*
X78250Y101725D01*
X79269Y101825D01*
X80034Y102057D01*
X80250Y102122D01*
X80847Y101045D01*
X80663Y100893D01*
X80055Y100395D01*
X79405Y99603D01*
X78923Y98700D01*
X78625Y97719D01*
X78525Y96700D01*
X78625Y95681D01*
X78923Y94700D01*
X79405Y93797D01*
X80055Y93005D01*
X80847Y92355D01*
X81750Y91873D01*
X82731Y91575D01*
X83750Y91475D01*
X84769Y91575D01*
X84812Y91588D01*
X85423Y90446D01*
X85055Y90145D01*
X84405Y89353D01*
X83923Y88450D01*
X83625Y87469D01*
X83557Y86772D01*
X82327Y86450D01*
X81845Y87353D01*
X81195Y88145D01*
X80403Y88795D01*
X79500Y89277D01*
X78519Y89575D01*
X77500Y89675D01*
X76481Y89575D01*
X75500Y89277D01*
X74597Y88795D01*
X73805Y88145D01*
X73155Y87353D01*
X72673Y86450D01*
X72375Y85469D01*
X72275Y84450D01*
X72375Y83431D01*
X72673Y82450D01*
X73155Y81547D01*
X73805Y80755D01*
X74597Y80105D01*
X75500Y79623D01*
X76481Y79325D01*
X77500Y79225D01*
X78519Y79325D01*
X79500Y79623D01*
X80403Y80105D01*
X81195Y80755D01*
X81845Y81547D01*
X82327Y82450D01*
X82625Y83431D01*
X82693Y84128D01*
X83923Y84450D01*
X84405Y83547D01*
X85055Y82755D01*
X85847Y82105D01*
X86750Y81623D01*
X87731Y81325D01*
X88750Y81225D01*
X89769Y81325D01*
X90750Y81623D01*
X91653Y82105D01*
X92445Y82755D01*
X93095Y83547D01*
X93577Y84450D01*
X93875Y85431D01*
X93975Y86450D01*
X93875Y87469D01*
X93577Y88450D01*
X93095Y89353D01*
X92445Y90145D01*
X91653Y90795D01*
X90750Y91277D01*
X89769Y91575D01*
X88750Y91675D01*
X87731Y91575D01*
X87688Y91562D01*
X87077Y92704D01*
X87445Y93005D01*
X88095Y93797D01*
X88577Y94700D01*
X88875Y95681D01*
X88975Y96700D01*
X88875Y97719D01*
X88843Y97823D01*
X89045Y98086D01*
X89368Y98865D01*
X89478Y99700D01*
Y109950D01*
X89368Y110785D01*
X89091Y111452D01*
X89251Y111899D01*
X89757Y112722D01*
X91413D01*
X92334Y111801D01*
X92275Y111200D01*
X92375Y110181D01*
X92673Y109200D01*
X93155Y108297D01*
X93805Y107505D01*
X94597Y106855D01*
X95500Y106373D01*
X96481Y106075D01*
X97500Y105975D01*
X98519Y106075D01*
X99500Y106373D01*
X100403Y106855D01*
X101195Y107505D01*
X101766Y108202D01*
X102414Y108297D01*
X102586D01*
X103234Y108202D01*
X103805Y107505D01*
X104597Y106855D01*
X105500Y106373D01*
X106481Y106075D01*
X107500Y105975D01*
X108519Y106075D01*
X109500Y106373D01*
X110403Y106855D01*
X111195Y107505D01*
X111373Y107722D01*
X127597D01*
X128018Y106452D01*
X127602Y106098D01*
X126969Y105356D01*
X126459Y104523D01*
X126085Y103622D01*
X125857Y102673D01*
X125781Y101700D01*
X125857Y100727D01*
X126085Y99778D01*
X126459Y98877D01*
X126969Y98045D01*
X127602Y97302D01*
X128344Y96669D01*
X129177Y96159D01*
X130078Y95785D01*
X131027Y95557D01*
X132000Y95481D01*
X132973Y95557D01*
X133922Y95785D01*
X134823Y96159D01*
X135655Y96669D01*
X136398Y97302D01*
X137031Y98045D01*
X137541Y98877D01*
X137915Y99778D01*
X138143Y100727D01*
X138219Y101700D01*
X138143Y102673D01*
X137915Y103622D01*
X137541Y104523D01*
X137031Y105356D01*
X136398Y106098D01*
X135655Y106731D01*
X134823Y107241D01*
X133922Y107615D01*
X133199Y107788D01*
X132874Y108411D01*
X132749Y109134D01*
X146532Y122918D01*
X147045Y123586D01*
X147368Y124365D01*
X147478Y125200D01*
X147478Y125200D01*
Y151022D01*
X147945Y151405D01*
X148595Y152197D01*
X149077Y153100D01*
X149375Y154081D01*
X149475Y155100D01*
X149375Y156119D01*
X149077Y157100D01*
X148595Y158003D01*
X147945Y158795D01*
X147153Y159445D01*
X146250Y159927D01*
X145269Y160225D01*
X144250Y160325D01*
X143231Y160225D01*
X142250Y159927D01*
X141347Y159445D01*
X140555Y158795D01*
X140287Y158467D01*
X140043Y158372D01*
X138957D01*
X138714Y158467D01*
X138445Y158795D01*
X137653Y159445D01*
X136750Y159927D01*
X135769Y160225D01*
X134750Y160325D01*
X133731Y160225D01*
X132750Y159927D01*
X131847Y159445D01*
X131055Y158795D01*
X130405Y158003D01*
X129923Y157100D01*
X129625Y156119D01*
X129525Y155100D01*
X129625Y154081D01*
X129923Y153100D01*
X130405Y152197D01*
X131055Y151405D01*
X131847Y150756D01*
X132750Y150273D01*
X133731Y149975D01*
X134750Y149875D01*
X135769Y149975D01*
X136750Y150273D01*
X137653Y150756D01*
X138445Y151405D01*
X138714Y151733D01*
X138957Y151828D01*
X140043D01*
X140287Y151733D01*
X140555Y151405D01*
X141022Y151022D01*
Y126537D01*
X128663Y114178D01*
X111783D01*
X111195Y114895D01*
X110403Y115545D01*
X109500Y116027D01*
X108519Y116325D01*
X107500Y116425D01*
X107354Y116411D01*
X102499Y121266D01*
X102625Y121681D01*
X102725Y122700D01*
X102625Y123719D01*
X102327Y124700D01*
X101845Y125603D01*
X101195Y126395D01*
X100403Y127045D01*
X99500Y127527D01*
X98519Y127825D01*
Y129075D01*
X99500Y129373D01*
X100403Y129855D01*
X101195Y130505D01*
X101845Y131297D01*
X102327Y132200D01*
X102625Y133181D01*
X102725Y134200D01*
X102625Y135219D01*
X102327Y136200D01*
X101845Y137103D01*
X101195Y137895D01*
X100403Y138545D01*
X99941Y138792D01*
X99852Y138846D01*
X100166Y140112D01*
X100231Y140125D01*
X100455Y140103D01*
X101250Y140025D01*
X102269Y140125D01*
X103250Y140423D01*
X104153Y140905D01*
X104945Y141555D01*
X105339Y142035D01*
X106197Y141966D01*
X106356Y141914D01*
X106687Y141726D01*
X106923Y140950D01*
X107405Y140047D01*
X108055Y139255D01*
X108847Y138605D01*
X109750Y138123D01*
X110731Y137825D01*
X111750Y137725D01*
X112769Y137825D01*
X113750Y138123D01*
X114653Y138605D01*
X115445Y139255D01*
X116095Y140047D01*
X116577Y140950D01*
X116875Y141931D01*
X116975Y142950D01*
X116875Y143969D01*
X116577Y144950D01*
X116095Y145853D01*
X115445Y146645D01*
X114653Y147295D01*
X113750Y147777D01*
X112769Y148075D01*
X111750Y148175D01*
X110731Y148075D01*
X109750Y147777D01*
X108847Y147295D01*
X108055Y146645D01*
X107661Y146165D01*
X106803Y146235D01*
X106644Y146286D01*
X106313Y146474D01*
X106077Y147250D01*
X105595Y148153D01*
X104945Y148945D01*
X104153Y149595D01*
X103250Y150077D01*
X102269Y150375D01*
X101250Y150475D01*
X100231Y150375D01*
X99250Y150077D01*
X98347Y149595D01*
X97555Y148945D01*
X96945D01*
X96153Y149595D01*
X95250Y150077D01*
X94269Y150375D01*
X93250Y150475D01*
X92231Y150375D01*
X91250Y150077D01*
X90347Y149595D01*
X89555Y148945D01*
X88905Y148153D01*
X88423Y147250D01*
X88125Y146269D01*
X88025Y145250D01*
X88125Y144231D01*
X88423Y143250D01*
X88905Y142347D01*
X89555Y141555D01*
X90347Y140905D01*
X91250Y140423D01*
X92231Y140125D01*
X93250Y140025D01*
X94269Y140125D01*
X95250Y140423D01*
X96153Y140905D01*
X96945Y141555D01*
X97555D01*
X98347Y140905D01*
X98809Y140658D01*
X98898Y140604D01*
X98584Y139339D01*
X98519Y139325D01*
X98295Y139347D01*
X97500Y139425D01*
X96481Y139325D01*
X95500Y139027D01*
X94597Y138545D01*
X93805Y137895D01*
X93422Y137428D01*
X85337D01*
X83532Y139232D01*
X82864Y139745D01*
X82942Y141055D01*
X82953Y141083D01*
X83250Y141173D01*
X84153Y141655D01*
X84945Y142305D01*
X85595Y143097D01*
X86077Y144000D01*
X86375Y144981D01*
X86475Y146000D01*
X86375Y147019D01*
X86077Y148000D01*
X85595Y148903D01*
X84945Y149695D01*
X84153Y150345D01*
X83250Y150827D01*
X82269Y151125D01*
X81250Y151225D01*
X80231Y151125D01*
X79250Y150827D01*
X78347Y150345D01*
X77555Y149695D01*
X76905Y148903D01*
X76423Y148000D01*
X76125Y147019D01*
X76025Y146000D01*
X76125Y144981D01*
X76423Y144000D01*
X76905Y143097D01*
X77555Y142305D01*
X78347Y141655D01*
X78736Y141448D01*
X78418Y140178D01*
X75623D01*
X75445Y140395D01*
X74653Y141045D01*
X73750Y141527D01*
X72769Y141825D01*
X71750Y141925D01*
X70731Y141825D01*
X69750Y141527D01*
X68847Y141045D01*
X68055Y140395D01*
X67405Y139603D01*
X66923Y138700D01*
X66625Y137719D01*
X66525Y136700D01*
X66625Y135681D01*
X66923Y134700D01*
X67191Y134198D01*
X66718Y133154D01*
X66476Y132928D01*
X60587D01*
X58978Y134537D01*
Y140013D01*
X60248Y140774D01*
X60250Y140773D01*
X61231Y140475D01*
X62250Y140375D01*
X63269Y140475D01*
X64250Y140773D01*
X65153Y141255D01*
X65945Y141905D01*
X66595Y142697D01*
X67077Y143600D01*
X67375Y144581D01*
X67475Y145600D01*
X67375Y146619D01*
X67077Y147600D01*
X66595Y148503D01*
X65945Y149295D01*
X65153Y149945D01*
X64307Y150397D01*
X64249Y150432D01*
X63958Y151843D01*
X64837Y152722D01*
X69000D01*
X69835Y152832D01*
X70614Y153155D01*
X71282Y153668D01*
X85282Y167668D01*
X85795Y168336D01*
X86118Y169115D01*
X86228Y169950D01*
Y231700D01*
X86228Y231700D01*
X86118Y232535D01*
X85795Y233314D01*
X85282Y233982D01*
X85282Y233982D01*
X73978Y245287D01*
Y249789D01*
X75248Y250522D01*
X75731Y250375D01*
X76750Y250275D01*
X77769Y250375D01*
X78750Y250673D01*
X79653Y251155D01*
X80445Y251805D01*
X81095Y252597D01*
X81577Y253500D01*
X81875Y254481D01*
X81943Y255176D01*
X83122Y255762D01*
X83948Y255386D01*
X84125Y255231D01*
X84217Y254927D01*
X84217Y254927D01*
X84308Y254630D01*
X84423Y254250D01*
X84905Y253347D01*
X85555Y252555D01*
X86347Y251905D01*
X87250Y251423D01*
X88231Y251125D01*
X89250Y251025D01*
X90269Y251125D01*
X91250Y251423D01*
X92153Y251905D01*
X92945Y252555D01*
X93595Y253347D01*
X94077Y254250D01*
X94375Y255231D01*
X94475Y256250D01*
X94375Y257269D01*
X94077Y258250D01*
X93595Y259153D01*
X92945Y259945D01*
X92153Y260595D01*
X91250Y261077D01*
X90269Y261375D01*
X89351Y261465D01*
X89241Y261482D01*
X88125Y262269D01*
X88033Y262573D01*
X88033Y262573D01*
X87942Y262870D01*
X87827Y263250D01*
X87345Y264153D01*
X86695Y264945D01*
X85903Y265595D01*
X85158Y265993D01*
X84895Y266413D01*
X84588Y267395D01*
X84887Y267920D01*
X85054Y268022D01*
X91789D01*
X92522Y266752D01*
X92375Y266269D01*
X92275Y265250D01*
X92375Y264231D01*
X92673Y263250D01*
X93155Y262347D01*
X93805Y261555D01*
X94597Y260905D01*
X95500Y260423D01*
X96481Y260125D01*
X97500Y260025D01*
X98519Y260125D01*
X99500Y260423D01*
X100403Y260905D01*
X101195Y261555D01*
X101845Y262347D01*
X102327Y263250D01*
X102625Y264231D01*
X102725Y265250D01*
X102625Y266269D01*
X102478Y266752D01*
X103211Y268022D01*
X106163D01*
X108157Y266028D01*
X107798Y264592D01*
X107750Y264577D01*
X106847Y264095D01*
X106055Y263445D01*
X105405Y262653D01*
X104923Y261750D01*
X104625Y260769D01*
X104611Y260621D01*
X103573Y259674D01*
X103268Y259650D01*
X102500Y259725D01*
X101481Y259625D01*
X100500Y259327D01*
X99597Y258845D01*
X98805Y258195D01*
X98155Y257403D01*
X97673Y256500D01*
X97375Y255519D01*
X97275Y254500D01*
X97375Y253481D01*
X97673Y252500D01*
X98155Y251597D01*
X98805Y250805D01*
X99597Y250155D01*
X100500Y249673D01*
X101481Y249375D01*
X102500Y249275D01*
X103519Y249375D01*
X104500Y249673D01*
X105403Y250155D01*
X106195Y250805D01*
X106845Y251597D01*
X107327Y252500D01*
X107625Y253481D01*
X107639Y253629D01*
X108677Y254576D01*
X108982Y254601D01*
X109750Y254525D01*
X110311Y254580D01*
X111104Y254168D01*
X111565Y253540D01*
X111625Y252931D01*
X111923Y251950D01*
X112405Y251047D01*
X113055Y250255D01*
X113847Y249605D01*
X114750Y249123D01*
X115731Y248825D01*
X116750Y248725D01*
X117769Y248825D01*
X118750Y249123D01*
X119653Y249605D01*
X120445Y250255D01*
X121095Y251047D01*
X121577Y251950D01*
X121875Y252931D01*
X121975Y253950D01*
X121875Y254969D01*
X121577Y255950D01*
X121095Y256853D01*
X120445Y257645D01*
X119978Y258028D01*
Y262000D01*
X119868Y262835D01*
X119545Y263614D01*
X119032Y264282D01*
X119032Y264282D01*
X109782Y273532D01*
X109114Y274045D01*
X108335Y274368D01*
X107500Y274478D01*
X81811D01*
X81250Y274777D01*
X80269Y275075D01*
X79250Y275175D01*
X78649Y275116D01*
X78532Y275232D01*
X77864Y275745D01*
X77085Y276068D01*
X76250Y276178D01*
X73078D01*
X72695Y276645D01*
X71903Y277295D01*
X71000Y277777D01*
X70019Y278075D01*
X69000Y278175D01*
X67981Y278075D01*
X67000Y277777D01*
X66491Y277505D01*
X65488Y278403D01*
X65665Y278828D01*
X65893Y279777D01*
X65969Y280750D01*
X65893Y281723D01*
X65665Y282672D01*
X65291Y283573D01*
X64781Y284406D01*
X64148Y285148D01*
X63405Y285781D01*
X62573Y286291D01*
X61672Y286665D01*
X60723Y286893D01*
X59750Y286969D01*
X58777Y286893D01*
X57828Y286665D01*
X56927Y286291D01*
X56094Y285781D01*
X55352Y285148D01*
X54719Y284406D01*
X54209Y283573D01*
X53835Y282672D01*
X52929Y282512D01*
X52507Y282581D01*
X52095Y283353D01*
X51445Y284145D01*
X50653Y284795D01*
X50209Y285032D01*
X50198Y285059D01*
Y286391D01*
X50209Y286418D01*
X50653Y286655D01*
X51445Y287305D01*
X52095Y288097D01*
X52577Y289000D01*
X52875Y289981D01*
X52975Y291000D01*
X52875Y292019D01*
X52577Y293000D01*
X52095Y293903D01*
X51445Y294695D01*
X50653Y295345D01*
X49750Y295827D01*
X48769Y296125D01*
X47750Y296225D01*
D02*
G37*
G36*
X164250Y301425D02*
X163231Y301325D01*
X162250Y301027D01*
X161347Y300545D01*
X160555Y299895D01*
X159905Y299103D01*
X159423Y298200D01*
X159125Y297219D01*
X159025Y296200D01*
X159125Y295181D01*
X159423Y294200D01*
X159905Y293297D01*
X160555Y292505D01*
Y291145D01*
X159905Y290353D01*
X159423Y289450D01*
X159125Y288469D01*
X159025Y287450D01*
X159125Y286431D01*
X159423Y285450D01*
X159905Y284547D01*
X160555Y283755D01*
X161347Y283105D01*
X162250Y282623D01*
X163231Y282325D01*
X164250Y282225D01*
X165269Y282325D01*
X166250Y282623D01*
X167153Y283105D01*
X167945Y283755D01*
X168595Y284547D01*
X169077Y285450D01*
X169375Y286431D01*
X169475Y287450D01*
X169375Y288469D01*
X169077Y289450D01*
X168595Y290353D01*
X167945Y291145D01*
Y292505D01*
X168595Y293297D01*
X169077Y294200D01*
X169375Y295181D01*
X169475Y296200D01*
X169375Y297219D01*
X169077Y298200D01*
X168595Y299103D01*
X167945Y299895D01*
X167153Y300545D01*
X166250Y301027D01*
X165269Y301325D01*
X164250Y301425D01*
D02*
G37*
G36*
X362250Y302175D02*
X361231Y302075D01*
X360250Y301777D01*
X359347Y301294D01*
X358555Y300645D01*
X357905Y299853D01*
X357423Y298950D01*
X357125Y297969D01*
X357025Y296950D01*
X357125Y295931D01*
X357423Y294950D01*
X357905Y294047D01*
X358555Y293255D01*
X359347Y292605D01*
X360250Y292123D01*
X361231Y291825D01*
X362250Y291725D01*
X363269Y291825D01*
X364250Y292123D01*
X365153Y292605D01*
X365945Y293255D01*
X366595Y294047D01*
X367077Y294950D01*
X367375Y295931D01*
X367475Y296950D01*
X367375Y297969D01*
X367077Y298950D01*
X366595Y299853D01*
X365945Y300645D01*
X365153Y301294D01*
X364250Y301777D01*
X363269Y302075D01*
X362250Y302175D01*
D02*
G37*
G36*
X375750D02*
X374731Y302075D01*
X373750Y301777D01*
X372847Y301294D01*
X372055Y300645D01*
X371405Y299853D01*
X370923Y298950D01*
X370625Y297969D01*
X370525Y296950D01*
X370625Y295931D01*
X370923Y294950D01*
X371405Y294047D01*
X372055Y293255D01*
X372847Y292605D01*
X373750Y292123D01*
X374731Y291825D01*
X375750Y291725D01*
X376769Y291825D01*
X377750Y292123D01*
X378653Y292605D01*
X379445Y293255D01*
X380095Y294047D01*
X380577Y294950D01*
X380875Y295931D01*
X380975Y296950D01*
X380875Y297969D01*
X380577Y298950D01*
X380095Y299853D01*
X379445Y300645D01*
X378653Y301294D01*
X377750Y301777D01*
X376769Y302075D01*
X375750Y302175D01*
D02*
G37*
G36*
X61250Y311425D02*
X60231Y311325D01*
X59250Y311027D01*
X58347Y310544D01*
X57555Y309895D01*
X56905Y309103D01*
X56423Y308200D01*
X56125Y307219D01*
X56025Y306200D01*
X56125Y305181D01*
X56423Y304200D01*
X56905Y303297D01*
X57555Y302505D01*
X58347Y301855D01*
X59250Y301373D01*
X60231Y301075D01*
X61250Y300975D01*
X62269Y301075D01*
X63250Y301373D01*
X64153Y301855D01*
X64945Y302505D01*
X65328Y302972D01*
X74416D01*
X74423Y302950D01*
X74905Y302047D01*
X75555Y301255D01*
X76252Y300684D01*
X76347Y300036D01*
Y299864D01*
X76252Y299216D01*
X75555Y298645D01*
X74905Y297853D01*
X74423Y296950D01*
X74125Y295969D01*
X74025Y294950D01*
X74125Y293931D01*
X74423Y292950D01*
X74905Y292047D01*
X75555Y291255D01*
X76347Y290605D01*
X77250Y290123D01*
X78231Y289825D01*
X79250Y289725D01*
X80269Y289825D01*
X81250Y290123D01*
X82153Y290605D01*
X82945Y291255D01*
X83595Y292047D01*
X84077Y292950D01*
X84086Y292980D01*
X85414D01*
X85423Y292950D01*
X85905Y292047D01*
X86555Y291255D01*
X87347Y290605D01*
X88250Y290123D01*
X89231Y289825D01*
X90250Y289725D01*
X91269Y289825D01*
X92250Y290123D01*
X93153Y290605D01*
X93945Y291255D01*
X94595Y292047D01*
X95077Y292950D01*
X95375Y293931D01*
X95475Y294950D01*
X95375Y295969D01*
X95077Y296950D01*
X94595Y297853D01*
X93945Y298645D01*
X93248Y299216D01*
X93153Y299864D01*
Y300036D01*
X93248Y300684D01*
X93945Y301255D01*
X94595Y302047D01*
X95077Y302950D01*
X95375Y303931D01*
X95475Y304950D01*
X95375Y305969D01*
X95077Y306950D01*
X94595Y307853D01*
X93945Y308645D01*
X93153Y309295D01*
X92250Y309777D01*
X91269Y310075D01*
X90250Y310175D01*
X89231Y310075D01*
X88250Y309777D01*
X87596Y309428D01*
X81904D01*
X81250Y309777D01*
X80269Y310075D01*
X79250Y310175D01*
X78231Y310075D01*
X77250Y309777D01*
X76596Y309428D01*
X65328D01*
X64945Y309895D01*
X64153Y310544D01*
X63250Y311027D01*
X62269Y311325D01*
X61250Y311425D01*
D02*
G37*
G36*
X539500Y294675D02*
X538481Y294575D01*
X537500Y294277D01*
X536597Y293795D01*
X535805Y293145D01*
X535155Y292353D01*
X534673Y291450D01*
X534375Y290469D01*
X534275Y289450D01*
X534375Y288431D01*
X534673Y287450D01*
X535155Y286547D01*
X535805Y285755D01*
X536597Y285105D01*
X537500Y284623D01*
X538481Y284325D01*
X539500Y284225D01*
X540519Y284325D01*
X541500Y284623D01*
X542403Y285105D01*
X543195Y285755D01*
X543845Y286547D01*
X544327Y287450D01*
X544625Y288431D01*
X544725Y289450D01*
X544625Y290469D01*
X544327Y291450D01*
X543845Y292353D01*
X543195Y293145D01*
X542403Y293795D01*
X541500Y294277D01*
X540519Y294575D01*
X539500Y294675D01*
D02*
G37*
G36*
X38250Y303725D02*
X37231Y303625D01*
X36250Y303327D01*
X35347Y302845D01*
X34555Y302195D01*
X33905Y301403D01*
X33423Y300500D01*
X33125Y299519D01*
X33025Y298500D01*
X33078Y297960D01*
X32673Y297054D01*
X32093Y296507D01*
X31500Y296327D01*
X30597Y295845D01*
X29805Y295195D01*
X29155Y294403D01*
X28673Y293500D01*
X28375Y292519D01*
X28275Y291500D01*
X28375Y290481D01*
X28673Y289500D01*
X29155Y288597D01*
X29805Y287805D01*
X30597Y287155D01*
X31500Y286673D01*
X32481Y286375D01*
X33500Y286275D01*
X34519Y286375D01*
X35500Y286673D01*
X36403Y287155D01*
X37195Y287805D01*
X37845Y288597D01*
X38327Y289500D01*
X38625Y290481D01*
X38725Y291500D01*
X38672Y292040D01*
X39077Y292946D01*
X39657Y293493D01*
X40250Y293673D01*
X41153Y294155D01*
X41945Y294805D01*
X42595Y295597D01*
X43077Y296500D01*
X43375Y297481D01*
X43475Y298500D01*
X43375Y299519D01*
X43077Y300500D01*
X42595Y301403D01*
X41945Y302195D01*
X41153Y302845D01*
X40250Y303327D01*
X39269Y303625D01*
X38250Y303725D01*
D02*
G37*
G36*
X539500Y269275D02*
X538481Y269175D01*
X537500Y268877D01*
X536597Y268395D01*
X535805Y267745D01*
X535155Y266953D01*
X534673Y266050D01*
X534375Y265069D01*
X534275Y264050D01*
X534375Y263031D01*
X534673Y262050D01*
X535155Y261147D01*
X535805Y260355D01*
X536597Y259705D01*
X537500Y259223D01*
X538481Y258925D01*
X539500Y258825D01*
X540519Y258925D01*
X541500Y259223D01*
X542403Y259705D01*
X543195Y260355D01*
X543845Y261147D01*
X544327Y262050D01*
X544625Y263031D01*
X544725Y264050D01*
X544625Y265069D01*
X544327Y266050D01*
X543845Y266953D01*
X543195Y267745D01*
X542403Y268395D01*
X541500Y268877D01*
X540519Y269175D01*
X539500Y269275D01*
D02*
G37*
G36*
X369700Y265719D02*
X368727Y265643D01*
X367778Y265415D01*
X366877Y265041D01*
X366045Y264531D01*
X365302Y263898D01*
X364669Y263155D01*
X364159Y262323D01*
X363785Y261422D01*
X363557Y260473D01*
X363481Y259500D01*
X363557Y258527D01*
X363785Y257578D01*
X364159Y256677D01*
X364669Y255844D01*
X365302Y255102D01*
X366045Y254469D01*
X366877Y253959D01*
X367778Y253585D01*
X368727Y253357D01*
X369700Y253281D01*
X370673Y253357D01*
X371622Y253585D01*
X372523Y253959D01*
X373355Y254469D01*
X374098Y255102D01*
X374731Y255844D01*
X375241Y256677D01*
X375615Y257578D01*
X375843Y258527D01*
X375919Y259500D01*
X375843Y260473D01*
X375615Y261422D01*
X375241Y262323D01*
X374731Y263155D01*
X374098Y263898D01*
X373355Y264531D01*
X372523Y265041D01*
X371622Y265415D01*
X370673Y265643D01*
X369700Y265719D01*
D02*
G37*
G36*
X589500Y270969D02*
X588527Y270893D01*
X587578Y270665D01*
X586677Y270291D01*
X585844Y269781D01*
X585102Y269148D01*
X584469Y268405D01*
X583959Y267573D01*
X583585Y266672D01*
X583357Y265723D01*
X583281Y264750D01*
X583357Y263777D01*
X583585Y262828D01*
X583959Y261927D01*
X584469Y261094D01*
X585102Y260352D01*
X585844Y259719D01*
X586677Y259209D01*
X587578Y258835D01*
X588527Y258607D01*
X589500Y258531D01*
X590473Y258607D01*
X591422Y258835D01*
X592323Y259209D01*
X593156Y259719D01*
X593898Y260352D01*
X594531Y261094D01*
X595041Y261927D01*
X595415Y262828D01*
X595643Y263777D01*
X595719Y264750D01*
X595643Y265723D01*
X595415Y266672D01*
X595041Y267573D01*
X594531Y268405D01*
X593898Y269148D01*
X593156Y269781D01*
X592323Y270291D01*
X591422Y270665D01*
X590473Y270893D01*
X589500Y270969D01*
D02*
G37*
G36*
X39000Y271675D02*
X37981Y271575D01*
X37000Y271277D01*
X36097Y270795D01*
X35305Y270145D01*
X34655Y269353D01*
X34173Y268450D01*
X33875Y267469D01*
X33775Y266450D01*
X33875Y265431D01*
X33880Y265414D01*
X33788Y265114D01*
X32945Y264121D01*
X32481Y264075D01*
X31500Y263777D01*
X30597Y263295D01*
X29805Y262645D01*
X29155Y261853D01*
X28673Y260950D01*
X28375Y259969D01*
X28275Y258950D01*
X28375Y257931D01*
X28673Y256950D01*
X29155Y256047D01*
X29805Y255255D01*
X30597Y254605D01*
X31500Y254123D01*
X32481Y253825D01*
X33500Y253725D01*
X34519Y253825D01*
X35500Y254123D01*
X36403Y254605D01*
X37195Y255255D01*
X37845Y256047D01*
X38327Y256950D01*
X38625Y257931D01*
X38725Y258950D01*
X38625Y259969D01*
X38620Y259986D01*
X38712Y260286D01*
X39555Y261279D01*
X40019Y261325D01*
X41000Y261623D01*
X41903Y262105D01*
X42695Y262755D01*
X43345Y263547D01*
X43827Y264450D01*
X44125Y265431D01*
X44225Y266450D01*
X44125Y267469D01*
X43827Y268450D01*
X43345Y269353D01*
X42695Y270145D01*
X41903Y270795D01*
X41000Y271277D01*
X40019Y271575D01*
X39000Y271675D01*
D02*
G37*
G36*
X349250Y269919D02*
X348277Y269843D01*
X347328Y269615D01*
X346427Y269241D01*
X345594Y268731D01*
X344852Y268098D01*
X344219Y267355D01*
X343709Y266523D01*
X343335Y265622D01*
X343107Y264673D01*
X343031Y263700D01*
X343107Y262727D01*
X343335Y261778D01*
X343709Y260877D01*
X344219Y260044D01*
X344852Y259302D01*
X345594Y258669D01*
X346427Y258159D01*
X347328Y257785D01*
X348277Y257557D01*
X349250Y257481D01*
X350223Y257557D01*
X351172Y257785D01*
X352073Y258159D01*
X352906Y258669D01*
X353648Y259302D01*
X354281Y260044D01*
X354791Y260877D01*
X355165Y261778D01*
X355393Y262727D01*
X355469Y263700D01*
X355393Y264673D01*
X355165Y265622D01*
X354791Y266523D01*
X354281Y267355D01*
X353648Y268098D01*
X352906Y268731D01*
X352073Y269241D01*
X351172Y269615D01*
X350223Y269843D01*
X349250Y269919D01*
D02*
G37*
G36*
X164250Y279425D02*
X163231Y279325D01*
X162250Y279027D01*
X161347Y278545D01*
X160555Y277895D01*
X159905Y277103D01*
X159423Y276200D01*
X159125Y275219D01*
X159025Y274200D01*
X159125Y273181D01*
X159423Y272200D01*
X159905Y271297D01*
X160555Y270505D01*
X161347Y269855D01*
X162250Y269373D01*
X163231Y269075D01*
X164250Y268975D01*
X165269Y269075D01*
X166250Y269373D01*
X167153Y269855D01*
X167945Y270505D01*
X168595Y271297D01*
X169077Y272200D01*
X169375Y273181D01*
X169475Y274200D01*
X169375Y275219D01*
X169077Y276200D01*
X168595Y277103D01*
X167945Y277895D01*
X167153Y278545D01*
X166250Y279027D01*
X165269Y279325D01*
X164250Y279425D01*
D02*
G37*
G36*
X455500Y283469D02*
X454527Y283393D01*
X453578Y283165D01*
X452677Y282791D01*
X451844Y282281D01*
X451102Y281648D01*
X450469Y280905D01*
X449959Y280073D01*
X449585Y279172D01*
X449357Y278223D01*
X449281Y277250D01*
X449357Y276277D01*
X449585Y275328D01*
X449959Y274427D01*
X450469Y273594D01*
X451102Y272852D01*
X451844Y272219D01*
X452677Y271709D01*
X453578Y271335D01*
X454527Y271107D01*
X455500Y271031D01*
X456473Y271107D01*
X457422Y271335D01*
X458323Y271709D01*
X459156Y272219D01*
X459898Y272852D01*
X460531Y273594D01*
X461041Y274427D01*
X461415Y275328D01*
X461643Y276277D01*
X461719Y277250D01*
X461643Y278223D01*
X461415Y279172D01*
X461041Y280073D01*
X460531Y280905D01*
X459898Y281648D01*
X459156Y282281D01*
X458323Y282791D01*
X457422Y283165D01*
X456473Y283393D01*
X455500Y283469D01*
D02*
G37*
G36*
X147750Y277969D02*
X146777Y277893D01*
X145828Y277665D01*
X144927Y277291D01*
X144094Y276781D01*
X143352Y276148D01*
X142719Y275406D01*
X142209Y274573D01*
X141835Y273672D01*
X141607Y272723D01*
X141531Y271750D01*
X141607Y270777D01*
X141835Y269828D01*
X142209Y268927D01*
X142719Y268095D01*
X143352Y267352D01*
X144094Y266719D01*
X144927Y266209D01*
X145828Y265835D01*
X146777Y265607D01*
X147750Y265531D01*
X148723Y265607D01*
X149672Y265835D01*
X150573Y266209D01*
X151405Y266719D01*
X152148Y267352D01*
X152781Y268095D01*
X153291Y268927D01*
X153665Y269828D01*
X153893Y270777D01*
X153969Y271750D01*
X153893Y272723D01*
X153665Y273672D01*
X153291Y274573D01*
X152781Y275406D01*
X152148Y276148D01*
X151405Y276781D01*
X150573Y277291D01*
X149672Y277665D01*
X148723Y277893D01*
X147750Y277969D01*
D02*
G37*
G36*
X141000Y264419D02*
X140027Y264343D01*
X139078Y264115D01*
X138177Y263741D01*
X137345Y263231D01*
X136602Y262598D01*
X136290Y262232D01*
X135872Y262107D01*
X135128D01*
X134710Y262232D01*
X134398Y262598D01*
X133656Y263231D01*
X132823Y263741D01*
X131922Y264115D01*
X130973Y264343D01*
X130000Y264419D01*
X129027Y264343D01*
X128078Y264115D01*
X127177Y263741D01*
X126344Y263231D01*
X125602Y262598D01*
X124969Y261856D01*
X124459Y261023D01*
X124085Y260122D01*
X123857Y259173D01*
X123781Y258200D01*
X123857Y257227D01*
X124085Y256278D01*
X124459Y255377D01*
X124969Y254544D01*
X125602Y253802D01*
X126344Y253169D01*
X127177Y252659D01*
X128078Y252285D01*
X129027Y252057D01*
X130000Y251981D01*
X130973Y252057D01*
X131922Y252285D01*
X132823Y252659D01*
X133656Y253169D01*
X134398Y253802D01*
X134710Y254168D01*
X135128Y254293D01*
X135872D01*
X136290Y254168D01*
X136602Y253802D01*
X137345Y253169D01*
X138177Y252659D01*
X139078Y252285D01*
X140027Y252057D01*
X141000Y251981D01*
X141973Y252057D01*
X142922Y252285D01*
X143823Y252659D01*
X144656Y253169D01*
X145398Y253802D01*
X146031Y254544D01*
X146541Y255377D01*
X146915Y256278D01*
X147143Y257227D01*
X147219Y258200D01*
X147143Y259173D01*
X146915Y260122D01*
X146541Y261023D01*
X146031Y261856D01*
X145398Y262598D01*
X144656Y263231D01*
X143823Y263741D01*
X142922Y264115D01*
X141973Y264343D01*
X141000Y264419D01*
D02*
G37*
G36*
X218250Y269919D02*
X217277Y269843D01*
X216328Y269615D01*
X215427Y269241D01*
X214594Y268731D01*
X213852Y268098D01*
X213219Y267355D01*
X212709Y266523D01*
X212335Y265622D01*
X212278Y265384D01*
X210972D01*
X210915Y265622D01*
X210541Y266523D01*
X210031Y267355D01*
X209398Y268098D01*
X208655Y268731D01*
X207823Y269241D01*
X206922Y269615D01*
X205973Y269843D01*
X205000Y269919D01*
X204027Y269843D01*
X203078Y269615D01*
X202177Y269241D01*
X201345Y268731D01*
X200602Y268098D01*
X199969Y267355D01*
X199459Y266523D01*
X199085Y265622D01*
X198857Y264673D01*
X198781Y263700D01*
X198857Y262727D01*
X199085Y261778D01*
X199459Y260877D01*
X199969Y260044D01*
X200602Y259302D01*
X201345Y258669D01*
X202177Y258159D01*
X203078Y257785D01*
X204027Y257557D01*
X205000Y257481D01*
X205973Y257557D01*
X206922Y257785D01*
X207823Y258159D01*
X208655Y258669D01*
X209398Y259302D01*
X210031Y260044D01*
X210541Y260877D01*
X210915Y261778D01*
X210972Y262016D01*
X212278D01*
X212335Y261778D01*
X212709Y260877D01*
X213219Y260044D01*
X213852Y259302D01*
X214594Y258669D01*
X215427Y258159D01*
X216328Y257785D01*
X217277Y257557D01*
X218250Y257481D01*
X219223Y257557D01*
X220172Y257785D01*
X221073Y258159D01*
X221906Y258669D01*
X222648Y259302D01*
X223281Y260044D01*
X223791Y260877D01*
X224165Y261778D01*
X224393Y262727D01*
X224469Y263700D01*
X224393Y264673D01*
X224165Y265622D01*
X223791Y266523D01*
X223281Y267355D01*
X222648Y268098D01*
X221906Y268731D01*
X221073Y269241D01*
X220172Y269615D01*
X219223Y269843D01*
X218250Y269919D01*
D02*
G37*
%LPD*%
G36*
X79772Y230363D02*
Y171287D01*
X72970Y164484D01*
X71810Y164664D01*
X71512Y164822D01*
X71095Y165603D01*
X70445Y166395D01*
X69653Y167045D01*
X68750Y167527D01*
X67935Y167775D01*
X67671Y168286D01*
X67493Y169128D01*
X72032Y173668D01*
X72545Y174336D01*
X72868Y175115D01*
X72978Y175950D01*
Y235200D01*
X72953Y235386D01*
X74156Y235979D01*
X79772Y230363D01*
D02*
G37*
D31*
X61250Y306200D02*
X89000D01*
X77750Y106950D02*
Y107450D01*
X69250Y115950D02*
X77750Y107450D01*
X69000Y155950D02*
X83000Y169950D01*
X69750Y175950D02*
Y235200D01*
X83000Y169950D02*
Y231700D01*
X18750Y126450D02*
Y144700D01*
X30250D01*
X70750Y136950D02*
X81250D01*
X83250Y96700D02*
X86250Y99700D01*
X92750Y115950D02*
X97500Y111200D01*
X84250Y111950D02*
Y133950D01*
Y115950D02*
X92750D01*
X84250Y111950D02*
X86250Y109950D01*
Y99700D02*
Y109950D01*
X60500Y115950D02*
X69250D01*
X63500Y155950D02*
X69000D01*
X59250Y129700D02*
X72750D01*
X77500Y124950D01*
X41000Y129700D02*
X45500D01*
X37000Y133700D02*
X41000Y129700D01*
X37000Y133700D02*
Y147950D01*
X30250Y154700D02*
X37000Y147950D01*
X62500Y242450D02*
X69750Y235200D01*
X62500Y242450D02*
Y258450D01*
X61750Y259200D02*
X62500Y258450D01*
X81250Y136950D02*
X84000Y134200D01*
X97000D01*
X97500Y133700D01*
Y121700D02*
Y122450D01*
Y121700D02*
X108250Y110950D01*
X130000D01*
X154250Y171200D02*
Y176200D01*
X150250Y180200D02*
X154250Y176200D01*
X150250Y180200D02*
Y189200D01*
X157250Y196200D01*
X55750Y133200D02*
X59250Y129700D01*
X55750Y133200D02*
Y148200D01*
X63500Y155950D01*
X51750Y124700D02*
X60500Y115950D01*
X51750Y124700D02*
Y157950D01*
X69750Y175950D01*
X130000Y110950D02*
X144250Y125200D01*
Y155250D01*
X70750Y243950D02*
X83000Y231700D01*
X70750Y243950D02*
Y263000D01*
X69000Y272950D02*
X76250D01*
X79250Y269950D01*
X116750Y253950D02*
Y262000D01*
X79250Y269950D02*
X80550Y271250D01*
X107500D01*
X116750Y262000D01*
D39*
X58250Y321200D02*
D03*
Y231200D02*
D03*
Y96200D02*
D03*
Y186200D02*
D03*
D42*
X568200Y315450D02*
D03*
Y85650D02*
D03*
X590800D02*
D03*
Y315450D02*
D03*
D43*
X282000Y329000D02*
D03*
X351250Y184000D02*
D03*
X282000Y183500D02*
D03*
X274000Y136750D02*
D03*
X279000Y263700D02*
D03*
X567000Y221450D02*
D03*
X643000Y63200D02*
D03*
X6500Y337700D02*
D03*
X6750Y62700D02*
D03*
X583500Y392950D02*
D03*
X643250Y318700D02*
D03*
X214000Y6450D02*
D03*
X569750D02*
D03*
X59000D02*
D03*
X70500Y57200D02*
D03*
X90500Y22950D02*
D03*
X589500Y264750D02*
D03*
X543750Y358700D02*
D03*
X520250Y18750D02*
D03*
X485750Y18950D02*
D03*
X146250Y350450D02*
D03*
X174600Y258700D02*
D03*
X284250Y355450D02*
D03*
X348000D02*
D03*
X284500Y226200D02*
D03*
X285000Y104700D02*
D03*
X348750D02*
D03*
Y60700D02*
D03*
X285000Y70700D02*
D03*
Y60200D02*
D03*
X591750Y159450D02*
D03*
X604000Y173950D02*
D03*
Y185450D02*
D03*
X591750Y173950D02*
D03*
X145000Y296950D02*
D03*
X604000Y159450D02*
D03*
X543750Y381700D02*
D03*
Y370700D02*
D03*
X348250Y225950D02*
D03*
X540500Y27200D02*
D03*
X134250Y296950D02*
D03*
X191000Y143700D02*
D03*
X59750Y266700D02*
D03*
X68000Y392950D02*
D03*
X597250Y109950D02*
D03*
X627750Y310700D02*
D03*
X99500Y347700D02*
D03*
X402250Y138250D02*
D03*
X132000Y101700D02*
D03*
X349250Y263700D02*
D03*
X132500Y350200D02*
D03*
X178750Y143700D02*
D03*
X168750D02*
D03*
X165250Y101450D02*
D03*
X182250Y380950D02*
D03*
X218250Y263700D02*
D03*
X130000Y258200D02*
D03*
X585750Y276000D02*
D03*
X543750Y344000D02*
D03*
X141000Y258200D02*
D03*
X147750Y271750D02*
D03*
X205000Y263700D02*
D03*
X25500Y214000D02*
D03*
X30750Y199500D02*
D03*
X59750Y280750D02*
D03*
X165750Y118450D02*
D03*
X28250Y80500D02*
D03*
X18000D02*
D03*
X457250Y149250D02*
D03*
X460750Y24500D02*
D03*
X455500Y277250D02*
D03*
X348750Y193750D02*
D03*
X284000Y194250D02*
D03*
X351250Y311500D02*
D03*
Y321750D02*
D03*
X282000Y311500D02*
D03*
X348750Y70750D02*
D03*
X133250Y20250D02*
D03*
X146750D02*
D03*
X161750D02*
D03*
X445750Y62500D02*
D03*
Y75000D02*
D03*
X445250Y187000D02*
D03*
Y200750D02*
D03*
X444750Y312500D02*
D03*
Y326250D02*
D03*
X261500Y137000D02*
D03*
X369700Y259500D02*
D03*
X350750Y88500D02*
D03*
X469000Y208750D02*
D03*
X349000Y339000D02*
D03*
X534250Y18750D02*
D03*
D44*
X109750Y259750D02*
D03*
X38250Y298500D02*
D03*
X47750Y291000D02*
D03*
X33500Y291500D02*
D03*
X115750Y27750D02*
D03*
X524500Y276750D02*
D03*
Y289450D02*
D03*
X539500D02*
D03*
Y276750D02*
D03*
Y264050D02*
D03*
X524500D02*
D03*
Y251350D02*
D03*
X539500D02*
D03*
Y238650D02*
D03*
X524500D02*
D03*
Y225950D02*
D03*
X539500D02*
D03*
Y213250D02*
D03*
X524500D02*
D03*
Y200550D02*
D03*
X539500D02*
D03*
Y187850D02*
D03*
X524500D02*
D03*
Y175150D02*
D03*
X539500D02*
D03*
Y162450D02*
D03*
X524500D02*
D03*
Y149750D02*
D03*
X539500D02*
D03*
X524500Y124350D02*
D03*
Y137050D02*
D03*
X539500D02*
D03*
Y124350D02*
D03*
Y111650D02*
D03*
X524500D02*
D03*
X587250Y192200D02*
D03*
X107500Y122700D02*
D03*
X97500D02*
D03*
X165750Y36950D02*
D03*
X99500Y32450D02*
D03*
X125750Y62700D02*
D03*
X143750Y62950D02*
D03*
X116750Y253950D02*
D03*
X316625Y312450D02*
D03*
X337250D02*
D03*
X296000D02*
D03*
X144750Y213200D02*
D03*
X114750Y206950D02*
D03*
X144750Y221450D02*
D03*
X155250Y237700D02*
D03*
X169250D02*
D03*
Y220700D02*
D03*
X76250Y222200D02*
D03*
X89250Y199450D02*
D03*
X112500Y175950D02*
D03*
X155250Y220700D02*
D03*
X77500Y124950D02*
D03*
X202250Y248950D02*
D03*
X193000D02*
D03*
X164250Y274200D02*
D03*
X114250Y310700D02*
D03*
X113750Y274200D02*
D03*
X475500Y176450D02*
D03*
X466500D02*
D03*
X467000Y226200D02*
D03*
X507750Y225950D02*
D03*
X507000Y262450D02*
D03*
X468000D02*
D03*
X476000Y311700D02*
D03*
X466750D02*
D03*
X498250D02*
D03*
X506500D02*
D03*
X295250Y226200D02*
D03*
X336750Y225950D02*
D03*
X401947Y372450D02*
D03*
X231447Y281450D02*
D03*
X231697Y153700D02*
D03*
X402197Y244700D02*
D03*
X375750Y296950D02*
D03*
X362250D02*
D03*
X270250Y357450D02*
D03*
X261500D02*
D03*
X114000Y335950D02*
D03*
X114250Y373950D02*
D03*
X441500Y296950D02*
D03*
X430250D02*
D03*
X204000Y356950D02*
D03*
X192000D02*
D03*
X164500Y337200D02*
D03*
X164000Y373700D02*
D03*
X376000Y169200D02*
D03*
X362500D02*
D03*
X270500Y229700D02*
D03*
X261750D02*
D03*
X441750Y169200D02*
D03*
X430500D02*
D03*
X507750Y176450D02*
D03*
X498000D02*
D03*
X336750Y262450D02*
D03*
X295500Y262200D02*
D03*
X337250Y175950D02*
D03*
X295500D02*
D03*
X72750Y67450D02*
D03*
X168000Y63200D02*
D03*
X105000Y56450D02*
D03*
X121750Y40000D02*
D03*
X109750Y40700D02*
D03*
X62250Y145600D02*
D03*
X66750Y162700D02*
D03*
X76750Y173950D02*
D03*
X77500Y84450D02*
D03*
X85500Y64950D02*
D03*
X64750Y86450D02*
D03*
X88750D02*
D03*
X62250Y108950D02*
D03*
Y122950D02*
D03*
X95750Y56450D02*
D03*
X80500Y28450D02*
D03*
X29500Y226950D02*
D03*
X47750Y280450D02*
D03*
X39000Y266450D02*
D03*
X21500Y280450D02*
D03*
X21000Y258950D02*
D03*
X33500D02*
D03*
X29450Y272950D02*
D03*
X47500Y312450D02*
D03*
X21250Y290950D02*
D03*
Y312450D02*
D03*
X322500Y348200D02*
D03*
X308500D02*
D03*
X513000Y352700D02*
D03*
Y342700D02*
D03*
X489500Y347700D02*
D03*
Y357700D02*
D03*
X470500Y352700D02*
D03*
Y342700D02*
D03*
X489500Y337700D02*
D03*
X537250Y37450D02*
D03*
X494250Y27200D02*
D03*
Y37200D02*
D03*
X475000Y42200D02*
D03*
X494250Y47200D02*
D03*
X537250D02*
D03*
X475000Y32200D02*
D03*
X518250D02*
D03*
Y42200D02*
D03*
X442250Y46200D02*
D03*
X431000D02*
D03*
X363000D02*
D03*
X376500D02*
D03*
X465250Y85200D02*
D03*
X498250D02*
D03*
X508000D02*
D03*
X473250D02*
D03*
X271000Y106700D02*
D03*
X262250D02*
D03*
X402750Y121950D02*
D03*
X337250Y84950D02*
D03*
X296000Y84700D02*
D03*
X337000Y134950D02*
D03*
X296000D02*
D03*
X232197Y30700D02*
D03*
X192750Y106200D02*
D03*
X204750D02*
D03*
X507000Y134950D02*
D03*
X466750Y134700D02*
D03*
X129250Y80200D02*
D03*
X167250Y79950D02*
D03*
X129500Y129950D02*
D03*
X166000D02*
D03*
X100250Y78700D02*
D03*
X78250Y106950D02*
D03*
X33500Y176950D02*
D03*
X169000Y170950D02*
D03*
X155000D02*
D03*
X144000Y171950D02*
D03*
Y180200D02*
D03*
X111750Y142950D02*
D03*
X33250Y164950D02*
D03*
X522750Y331950D02*
D03*
X93750Y322950D02*
D03*
X76750D02*
D03*
X523000Y363700D02*
D03*
X534750Y351450D02*
D03*
X69000Y282950D02*
D03*
Y272950D02*
D03*
X34000Y237200D02*
D03*
X45000Y151200D02*
D03*
X42750Y246200D02*
D03*
X55750Y253450D02*
D03*
X144250Y194700D02*
D03*
X306500Y33700D02*
D03*
X317250D02*
D03*
X328000D02*
D03*
Y43700D02*
D03*
X317250D02*
D03*
X306500D02*
D03*
X315750Y373700D02*
D03*
X326250D02*
D03*
Y363700D02*
D03*
X315750D02*
D03*
X305000D02*
D03*
Y373700D02*
D03*
X483500Y370700D02*
D03*
X473500D02*
D03*
X501250D02*
D03*
X511250D02*
D03*
X487250Y56950D02*
D03*
X497250D02*
D03*
X515000D02*
D03*
X525000D02*
D03*
X39300Y72200D02*
D03*
X49300D02*
D03*
X83750Y96700D02*
D03*
X73750D02*
D03*
X18800Y94000D02*
D03*
X31000Y118950D02*
D03*
X18750Y116450D02*
D03*
Y126450D02*
D03*
X31000Y144700D02*
D03*
X18750D02*
D03*
X31000Y154700D02*
D03*
X18750D02*
D03*
Y170450D02*
D03*
Y180450D02*
D03*
X18750Y195950D02*
D03*
Y205950D02*
D03*
X18750Y222700D02*
D03*
Y232700D02*
D03*
X30500Y247200D02*
D03*
X157250Y250200D02*
D03*
X167250D02*
D03*
Y208200D02*
D03*
X157250D02*
D03*
Y196700D02*
D03*
Y184450D02*
D03*
X167250D02*
D03*
Y196700D02*
D03*
X97500Y111200D02*
D03*
X107500D02*
D03*
Y134200D02*
D03*
X97500D02*
D03*
X61750Y136700D02*
D03*
X71750D02*
D03*
X20250Y323700D02*
D03*
X61250Y306200D02*
D03*
Y296200D02*
D03*
X79250Y294950D02*
D03*
X90250D02*
D03*
Y304950D02*
D03*
X79250D02*
D03*
Y279950D02*
D03*
Y269950D02*
D03*
X45750Y139950D02*
D03*
X31050Y94000D02*
D03*
Y104000D02*
D03*
X116250Y85450D02*
D03*
X164250Y287450D02*
D03*
Y296200D02*
D03*
X93250Y145250D02*
D03*
X81250Y146000D02*
D03*
X45750Y129750D02*
D03*
X33500Y186250D02*
D03*
X18750Y104000D02*
D03*
X144750Y229450D02*
D03*
X153500Y155100D02*
D03*
X144250D02*
D03*
X134750D02*
D03*
X76750Y255500D02*
D03*
X70750Y263000D02*
D03*
X63000Y258000D02*
D03*
X83000Y261250D02*
D03*
X89250Y256250D02*
D03*
X101250Y145250D02*
D03*
X102500Y254500D02*
D03*
X97500Y265250D02*
D03*
X111250Y218750D02*
D03*
X124750Y143450D02*
D03*
X20500Y247200D02*
D03*
X30250Y323700D02*
D03*
X130500Y40000D02*
D03*
D45*
X508250Y199200D02*
D03*
X524750Y94200D02*
D03*
X527250Y306450D02*
D03*
X552000Y283200D02*
D03*
X551250Y219700D02*
D03*
X551000Y194200D02*
D03*
X551250Y168700D02*
D03*
X551500Y143700D02*
D03*
X551000Y117950D02*
D03*
D46*
X652875Y200050D02*
D03*
D47*
X325500Y-2000D02*
D03*
X325000Y401750D02*
D03*
D48*
X639500Y373625D02*
D03*
X639750Y26125D02*
D03*
X11250Y373625D02*
D03*
X12500Y26125D02*
D03*
D49*
X623875Y387000D02*
D03*
X623625Y12250D02*
D03*
X25875Y386750D02*
D03*
X26125Y12250D02*
D03*
D50*
X-1375Y348250D02*
D03*
D51*
X-3125Y57625D02*
D03*
D52*
X585875Y393250D02*
D03*
X65875Y393000D02*
D03*
D53*
X643000Y61125D02*
D03*
X6500Y57625D02*
D03*
X3000Y60375D02*
D03*
X58750Y3875D02*
D03*
D54*
X569900Y361850D02*
D03*
Y37850D02*
D03*
X79900Y361850D02*
D03*
D55*
X31250Y31200D02*
D03*
Y368500D02*
D03*
X618550D02*
D03*
Y31200D02*
D03*
M02*
