M48
;Layer_Color=9474304
;FILE_FORMAT=4:4
METRIC,LZ
;TYPE=PLATED
T1F00S00C0.3000
T2F00S00C0.4000
T3F00S00C1.6000
T4F00S00C3.2000
;TYPE=NON_PLATED
T5F00S00C0.8400
T6F00S00C1.1900
%
T01
X0046075Y000245
X0048575Y0001895
X0052025Y0001875
X0053425
X005405Y000272
X0056975Y0000645
X00643Y000632
X0059725Y0010995
X0059175Y0015945
X00604
Y0017395
Y0018545
X0059175Y0017395
X00567Y0022145
X00469Y0020875
X0044525Y0020075
Y00187
X0045725Y0014925
X0040225Y0013825
X0044575Y00075
Y000625
X0034875Y000607
Y0007075
X0035075Y000885
X0034875Y001047
X00285
Y000707
Y000602
X00274Y0013675
X002615Y00137
X00282Y001835
X00284Y0019425
X002845Y002262
X0034825Y0022595
X0034875Y0019375
X0035125Y00184
X00191Y001437
X0017875
X0016875
X0016575Y0011845
X0016525Y0010145
X00132Y001017
X0013325Y0002025
X0014675
X0016175
X000905Y0002295
X00059Y0000645
X000705Y000572
X0002825Y000805
X00018
X0000675Y000627
X0003075Y001995
X000255Y00214
X0005975Y002667
Y0028075
X0013425Y0029695
X00145
X0014775Y0027175
X00141Y002582
X0013
X001746Y002587
X00205Y002637
X0021825
X00279
X00282Y003115
Y00329
X0028425Y0035545
X00348
X00349Y00339
X0035125Y0032175
Y003115
X0034925Y002637
X003697Y002595
X0018225Y0038095
X0014625Y0035045
X001325Y003502
X000995Y003477
X00068Y0039295
X000065Y003377
X0044475Y0032625
Y003125
X004555Y0027725
X0058575Y00276
X005895Y0026475
X0062775Y003107
X0064325Y003187
X0054375Y00344
Y003587
Y003707
Y003817
X005835Y0039295
T02
X0052475Y000942
X00551Y0011795
X005515Y001437
X0055125Y001687
X00551Y001942
X0055125Y002197
X0050825Y001992
X0052725Y0030645
X00552Y002832
T03
X005699Y0003785
X000799Y0036185
X005699
T04
X0061855Y000312
X0003125
Y003685
X0061855
T05
X005682Y0008565
X005908
Y0031545
X005682
T06
X0005825Y000962
Y001862
Y002312
Y003212
M30
