M48
;Layer_Color=9474304
;FILE_FORMAT=4:4
METRIC,TZ
;TYPE=PLATED
T1F00S00C0.1000
%
T01
X354750Y-376500
X359750
X366750
X371750
Y-362500
X366750
X359750
X354750
X268005Y-365001
X263255
X263100Y-369751
X268100
X268005Y-381001
X263255Y-381001
X263100Y-385751
X268100
X254500
X254405Y-381001
X249655Y-381001
X249500Y-385751
Y-369751
X249655Y-365001
X254405
X254500Y-369751
X254500Y-353751
X254405Y-349001
X249655Y-349001
X249500Y-353751
X263100
X263255Y-349001
X268005Y-349001
X268100Y-353751
Y-337751
X268005Y-333001
X263255Y-333001
X263100Y-337751
X254500
X254405Y-333001
X249655Y-333001
X249500Y-337751
X228100Y-335500
X224800
X223250Y-338500
X226500Y-338750
X213000
X214500Y-335500
X211200
X207750
X209000Y-349000
X212500Y-348500
X211200Y-351500
X214500
X224800
X228100
X226500Y-354500
X223000
X224750Y-367500
X228000
X226750Y-370750
X223250Y-370500
X214750Y-371200
X214500Y-368250
X213500Y-365000
X211500Y-370750
X213000Y-380500
X214500Y-383500
X211200
X207750
X194500
X189500
X178500
X173500Y-383500
X173000Y-370000
X170250
Y-365000
X173000
X175750
Y-370000
X181500Y-368500
X186500
X186500Y-362500
X181500
X181500Y-356500
X175500Y-355000
X170500
Y-360000
X175500
X192500
Y-355000
X197500
Y-360000
Y-365000
X192500
Y-370000
X197500
X196500Y-397500
X201500
X209500Y-398000
X214500
X221500
X226500
X226750Y-386500
X222750Y-386250
X224800Y-383500
X228100
X189500Y-397500
X184500
X174500Y-397500
X169500
X162500
X157500
X146500Y-395000
X141500Y-395000
Y-385500
X146500Y-385500
Y-376000
X141500Y-376000
X122500Y-376000
X117500Y-376000
X120000Y-363000
Y-358000
Y-351000
Y-346000
Y-337500
X114750
Y-331500
X120000
X131750Y-331750
X136500
Y-337000
X131750
X133000Y-346000
Y-351000
Y-358000
Y-363000
X148000Y-354750
Y-349750
X156000
Y-354750
X160000Y-365000
Y-370000
Y-381000
Y-386000
X122500Y-395000
X117500Y-395000
X107500Y-386500
X102500
X95500
X90500
X88000Y-374000
Y-369000
Y-362000
Y-357000
Y-348000
Y-343000
X88000Y-336000
Y-331000
X102000Y-330000
Y-335000
Y-346000
Y-351000
Y-360000
Y-365000
Y-372000
Y-377000
X99495Y-305500
X94745
X94650Y-300750
X99650
X108250
X108345Y-305500
X113095
X113250Y-300750
X113095Y-289500
X108345
X108250Y-284750
X113250
X113095Y-273500
X108345
X108250Y-268750
X113250
X113095Y-257500
X108345
X108250Y-252750
X113250
X99650
X99495Y-257500
X94745
X94650Y-252750
Y-268750
X94745Y-273500
X99495
X99650Y-268750
Y-284750
X99495Y-289500
X94745
X94650Y-284750
X78200Y-285500
Y-280500
Y-269500
Y-264500
X64700Y-264000
X61000Y-264000
X51250
X47700Y-264000
X49200Y-273250
Y-276000
Y-278750
X54200
Y-276000
Y-273250
X59200Y-273500
Y-278500
X64200
Y-273500
X62700Y-284500
Y-289500
X56700Y-289500
Y-284500
X50700Y-284500
Y-289500
X49200Y-295500
X54200
Y-300500
X49200
X59200
X64200
Y-295500
X59200
X57700Y-312000
X52700
X44700Y-312000
X39700
X32700
X27700
X18200Y-308750
X13200
Y-299250
X18200
Y-289750
X13200
X30200Y-289500
Y-284500
Y-296500
Y-301500
X28250Y-273000
X33250
X17250
X12250
X3700Y-275000
X-1300
X-8300
X-13300
X-13250Y-265000
X-8250
X-1300Y-263000
X3700
X14045Y-258500
X18795
X18950Y-253750
X13950
X33845Y-256000
X38595
X38750Y-251250
X33750
X47700Y-252000
X52700
X59700
X64700
X60400Y-229250
Y-226050
Y-222850
X56900
Y-226050
Y-229250
X53400
Y-226050
Y-222850
X40400
Y-226050
Y-229250
X36900
Y-226050
Y-222850
X33400
Y-226050
Y-229250
X20399
Y-226050
Y-222850
X16899
Y-226050
Y-229250
X13399
Y-226050
Y-222850
X399
Y-226050
Y-229250
X-3101
Y-226050
Y-222850
X-6600
Y-226050
Y-229250
X-19600
Y-226050
Y-222850
X-23100
Y-226050
Y-229250
X-26600
Y-226050
Y-222850
X-39600
Y-226050
Y-229250
X-43100
Y-226050
Y-222850
X-46600
Y-226050
Y-229250
X-59600
Y-226050
Y-222850
X-63100
Y-226050
Y-229250
X-66600
Y-226050
Y-222850
X-79600
Y-226050
Y-229250
X-83100
Y-226050
Y-222850
X-83100Y-208050
Y-204550
Y-201050
X-79600
Y-204550
Y-208050
X-66600
Y-204550
Y-201050
X-63100
Y-204550
Y-208050
X-59600
Y-204550
Y-201050
X-46600
X-43100
Y-204550
X-46600
Y-208050
X-43100
X-39600
Y-204550
Y-201050
X-26600
X-23100
Y-204550
X-26600
Y-208050
X-23100
X-19600
Y-204550
Y-201050
X-6600
Y-204550
Y-208050
X-3100
Y-204550
Y-201050
X400
Y-204550
Y-208050
X13400
X16900
Y-204550
X13400
Y-201050
X16900
X20400
Y-204550
Y-208050
X33400
Y-204550
Y-201050
X36900
Y-204550
Y-208050
X40400
Y-204550
Y-201050
X53400
X56900
Y-204550
X53400
Y-208050
X56900
X60400
Y-204550
Y-201050
X73400
X76900
Y-204550
X73400
Y-208050
X76900
X80400
Y-204550
Y-201050
X93400
X96900
Y-204550
X93400
Y-208050
X96900
X100400
Y-204550
Y-201050
X113400
Y-204550
Y-208050
X116900
Y-204550
Y-201050
X120400
Y-204550
Y-208050
X133400
X136900
Y-204550
X133400
Y-201050
X136900
X140400
Y-204550
Y-208050
X140400Y-222850
Y-226050
Y-229250
X136900
Y-226050
Y-222850
X133400
Y-226050
Y-229250
X120400
Y-226050
Y-222850
X116900
Y-226050
Y-229250
X113400
Y-226050
Y-222850
X100400
Y-226050
Y-229250
X96900
Y-226050
Y-222850
X93400
Y-226050
Y-229250
X80400
Y-226050
Y-222850
X76900
Y-226050
Y-229250
X73400
Y-226050
Y-222850
X79200Y-296500
Y-301500
Y-308500
Y-313500
X69700Y-312000
X64700
X-5800Y-308750
X-10800
X-22800Y-308500
Y-303500
Y-296500
X-21250Y-293750
X-22705Y-282001
X-27455
X-27550Y-277251
X-22550
X-22705Y-265001
X-27455
X-27550Y-260251
X-22550
X-38800Y-265500
Y-270500
Y-277500
Y-282500
X-36800Y-291500
Y-296500
X-35750Y-309500
X-36800Y-312500
X-77000Y-310500
Y-305500
Y-298500
Y-293500
X-77000Y-284250
Y-279500
Y-272500
Y-267500
X-62250Y-265500
Y-270500
Y-277500
Y-282500
X-50800
Y-277500
X-52250Y-270500
X-49750Y-268000
X-74500Y-252000
X-79500
X-10800Y-289750
X-5800
X131000Y-282499
Y-277499
Y-270499
Y-265499
X141000Y-270499
X143500Y-267999
X142450Y-277499
Y-282499
X154450Y-282499
Y-277499
Y-270499
Y-265499
X165795Y-265000
X170545
X170700Y-260250
X165700
Y-277250
X165795Y-282000
X170545
X170700Y-277250
X179950Y-274999
X184950
X191950
X196950
X205500Y-272999
X210500
X221500
X226500
X223450Y-284499
Y-289499
Y-296499
Y-301499
X220950Y-311999
X225950
X232950
X237950
X245950Y-311999
X250950
X257950
X262950
X272450Y-313499
Y-308499
Y-301499
X272500Y-298250
X271450Y-285499
Y-280499
X271500Y-268250
X271450Y-264499
X257950Y-263999
X254250Y-263999
X244500
X240950Y-263999
X242450Y-273249
Y-275999
Y-278749
X247450
Y-275999
Y-273249
X252450Y-273499
X257450
Y-278499
X252450
X249950Y-284499
Y-289499
X243950Y-289499
Y-284499
X255950Y-284499
Y-289499
X257450Y-295499
X252450
Y-300499
X257450
X247450
Y-295499
X242450
Y-300499
X211450Y-299249
X206450
Y-289749
X211450
Y-308749
X206450
X187450
X182450
X170450Y-308499
Y-303499
Y-296499
X171000Y-293000
X182450Y-289749
X187450
X185000Y-264999
X180000
X191950Y-262999
X196950
X207295Y-258499
X212045
X212200Y-253749
X207200
X227095Y-255999
X231845
X232000Y-251249
X227000
X240950Y-251999
X245950
X252950
X257950
X252500Y-223500
X247500
Y-204500
X252500
X220300Y-202800
X216900
X213800
X200300
X196900
X193800
X180300
X176900
X173800
X160300
X156900
X153800
X153500Y-227500
X156900
X160000
X173500
X176900
X180000
X193500
X196900
X200000
X213500
X216900
X220000
X156450Y-291499
Y-296499
Y-307499
Y-312499
X155500Y-330250
Y-335250
X149750
Y-330250
X168000Y-328000
Y-333000
X170000Y-341250
Y-344750
X178500Y-343500
X183500
X190500
X195500
X195500Y-331500
X190500
X183500
X178500
X-90500Y-307000
X-95500
X-106500
X-111500
X-121499Y-309155
Y-304405
X-126249Y-304250
Y-309250
X-138499Y-309155
Y-304405
X-143249Y-304250
Y-309250
X-156000Y-310655
Y-305905
X-160750Y-305750
Y-310750
X-174500Y-309000
X-174500Y-313000
X-185000Y-309500
X-190000
X-197000
X-202000
X-212905Y-309300
X-217655
X-217750Y-304550
X-212750
X-212905Y-295700
X-217655
X-217750Y-290950
X-212750
X-204000Y-286000
Y-281000
X-199000
Y-286000
Y-276000
Y-271000
X-204000
Y-276000
X-212500Y-275000
X-217500
X-230750Y-271500
X-234000
X-243500Y-276000
X-248500
X-255500
X-260500
X-268750Y-276500
X-273750
X-280750
X-285750
X-288500Y-262000
X-293500
Y-252500
X-288500
X-288500Y-243000
X-293500
X-312500
X-317500
X-315000Y-230000
Y-225000
Y-218000
Y-213000
Y-204500
X-320250
Y-198500
X-315000
X-303250Y-198750
X-298500
Y-204000
X-303250
X-302000Y-213000
Y-218000
Y-225000
Y-230000
X-287000Y-221750
Y-216750
X-279000
Y-221750
X-275000Y-232000
Y-237000
X-264750
X-262000
X-259250
Y-232000
X-262000
X-264750
X-264500Y-227000
Y-222000
X-259500
Y-227000
X-253500Y-229500
X-248500
X-248500Y-235500
X-253500
Y-223500
X-242500Y-222000
Y-227000
X-237500
Y-222000
X-237500Y-232000
Y-237000
X-242500
Y-232000
X-240500Y-250500
X-245500
X-256500
X-261500Y-250500
X-260500Y-264500
X-265500
X-272500
X-277500
X-275000Y-253000
Y-248000
X-265000Y-212000
Y-208750
X-256500Y-210500
X-251500
X-244500
X-239500
Y-198500
X-244500
X-251500
X-256500
X-267000Y-200000
Y-195000
X-265500Y-184500
X-260500
X-250500Y-184500
X-245500
X-238500
X-233500
X-225500Y-185000
X-220500
X-213500
X-208500
X-206900Y-202500
X-210200
X-211750Y-205500
X-208250
X-222250Y-205250
X-225750
X-227250Y-202500
X-223800
X-220500
X-222000Y-215500
X-220500Y-218500
X-223800
X-226000Y-216000
X-210200Y-218500
X-206900
X-208500Y-221250
X-212000Y-221500
X-210250Y-234500
X-207000
X-208250Y-237500
X-211750Y-237500
X-220400Y-237500
Y-234250
X-222250Y-231750
X-223500Y-237750
X-222000Y-247500
X-225500Y-247750
X-223800Y-250500
X-220500
X-227250
X-210200
X-206900
X-208500Y-253500
X-212250Y-253250
X-193000Y-272500
X-188000
X-188000Y-278500
X-193000
X-188000Y-284500
X-182000Y-286000
Y-281000
X-177000
Y-286000
X-176750Y-276000
X-179500
X-182250
Y-271000
X-179500
X-176750
X-166500Y-271000
Y-276000
Y-260000
Y-255000
X-152000Y-255500
Y-250500
Y-262500
Y-267500
X-141500Y-268000
X-136500
X-129500
X-124500
X-126500Y-278000
Y-283000
Y-290000
Y-295000
X-137500Y-295000
Y-290000
X-139500Y-283000
Y-278000
X-156000Y-286905
Y-291655
X-160750Y-291750
Y-286750
X-176500Y-296000
Y-299250
X-185000Y-297500
X-190000
X-197000Y-296250
X-200250
X-228905Y-295700
X-233655
X-233750Y-290950
X-228750
Y-304550
X-228905Y-309300
X-233655
X-233750Y-304550
X-244750
X-244905Y-309300
X-249655
X-249750Y-304550
X-249655Y-295700
X-244905
X-244750Y-290950
X-249750
X-260750
X-260905Y-295700
X-265655
X-265750Y-290950
Y-304550
X-265655Y-309300
X-260905
X-260750Y-304550
X-295950Y-306750
X-296105Y-311500
X-300855
X-300950Y-306750
X-309550
X-309705Y-311500
X-314455
X-314550Y-306750
X-314455Y-295500
X-309705
X-309550Y-290750
X-314550
X-314250Y-279000
X-317500
X-324500
X-329500
X-338500Y-276000
X-343500
X-350500
X-355500
X-355500Y-287500
X-351750
X-341750Y-287750
X-338500Y-287500
X-338500Y-300000
X-343500
X-343500Y-306000
X-338500
X-338500Y-312000
X-343500
X-349250Y-313500
X-352000
X-354750
Y-308500
X-352000
X-349250
X-349500Y-303500
Y-298500
X-354500
Y-303500
X-364500Y-308000
X-369500
X-367905Y-295000
X-372655
Y-289750
X-367905
Y-276000
X-372655
Y-270750
X-367905
X-385406Y-271500
X-390156
Y-276750
X-385406
X-389000Y-286000
Y-291000
X-387000Y-298000
Y-303000
X-400000
Y-298000
Y-291000
Y-286000
X-402310Y-276750
X-407060
Y-271500
X-402310
X-417500Y-270000
X-422250Y-270250
X-433999Y-270501
Y-275501
X-434000Y-284250
X-433999Y-287501
Y-296501
X-432250Y-299500
Y-309500
X-433999Y-313501
X-421000Y-311500
Y-316500
Y-304500
Y-299500
X-420750Y-287750
X-417499Y-288001
X-409500Y-315500
X-404500
Y-334500
X-409500
X-419500Y-327000
X-424500
X-431500
X-436500
X-385500Y-325000
X-380500
Y-315500
X-385500
Y-334500
X-380500
X-377000Y-347500
Y-352500
Y-359500
Y-364500
X-388500Y-363000
X-393500
X-400500
X-405500
Y-351000
X-400500
X-393500
X-388500
X-365000Y-352500
Y-347500
Y-340500
Y-335500
X-364500Y-324000
X-369500
X-348750Y-325750
X-348905Y-330500
X-337655Y-332700
X-332905
X-332750Y-327950
X-337750
Y-341550
X-337655Y-346300
X-332905
X-332750Y-341550
X-353750Y-341750
X-354000Y-346250
X-353500Y-363000
X-348500
X-337750Y-362950
X-337655Y-367700
X-332905
X-332750Y-362950
Y-376550
X-332905Y-381300
X-337655
X-337750Y-376550
X-360500Y-363000
X-365500
X-332500Y-313500
Y-308500
X-327500
Y-313500
Y-303500
Y-298500
X-332500
Y-303500
X-300855Y-295500
X-296105
X-295950Y-290750
X-300950
X-312500Y-262000
X-317500
X-327500Y-253500
X-332500
X-339500
X-344500
X-347000Y-241000
Y-236000
Y-229000
Y-224000
Y-215000
Y-210000
X-347000Y-203000
Y-198000
X-333000Y-197000
Y-202000
Y-213000
Y-218000
Y-227000
Y-232000
Y-239000
Y-244000
X-317500Y-182000
X-312500
X-293500
X-288500
X-277500Y-184500
X-272500
X-279500Y-197250
Y-202250
X-285250
Y-197250
X-186200Y-202800
X-183100
X-179700
X-166200
X-163100
X-159700
X-146200
X-143100
X-139700
X-126200
X-123100
X-119700
X-106200
X-103100
X-99700
X-86600Y-201050
Y-204550
Y-208050
X-86600Y-222850
Y-226050
Y-229250
X-100000Y-227500
X-103100
X-106500
X-119600Y-226050
Y-229250
X-123100
Y-226050
Y-222850
X-119600
X-126600
Y-226050
Y-229250
X-139600
Y-226050
Y-222850
X-143100
Y-226050
Y-229250
X-146600
Y-226050
Y-222850
X-160000Y-227500
X-163100
X-166500
X-180000
X-183100
X-186500
X-141500Y-252000
X-136500
X-129500
X-124500
X-116500Y-252000
X-111500
X-104500
X-101000Y-252000
X-89750Y-254000
X-86500Y-252000
X-92500Y-263500
Y-268500
X-103750Y-269500
Y-265000
X-110000Y-269500
X-113250Y-269750
X-111500Y-287500
Y-292500
X-92500
Y-287500
X-123750Y-168750
X-128500
Y-156000
X-123500
X-139500
X-144500
X-145000Y-142500
X-140000
X-133000
X-128000
X-128000Y-131000
X-131500Y-131000
X-141250
X-145000Y-131000
X-163000Y-129750
X-168000
Y-135000
X-163000
X-161500Y-143500
X-156500
Y-148500
X-161500
X-166500Y-148750
Y-146000
Y-143250
X-171500
Y-146000
Y-148750
X-170000Y-154500
Y-159500
X-164000Y-159500
Y-154500
X-158000Y-154500
Y-159500
X-156500Y-165500
X-156500Y-169000
X-161500Y-170500
Y-165500
X-166500
X-171500
Y-170500
X-166500
X-165500Y-179000
X-170500
X-177500
X-182500
X-208250Y-173500
X-212250Y-173250
X-210200Y-170500
X-206900
X-220500
X-223800
X-227250
X-222000Y-167500
X-220250Y-158200
X-220500Y-155250
X-221500Y-152000
X-223500Y-157750
X-211750Y-157500
X-208250Y-157750
X-207000Y-154500
X-210250
X-208500Y-141500
X-212000
X-210200Y-138500
X-206900
X-220500
X-223800
X-222500Y-135500
X-226000Y-136000
X-222000Y-125750
X-220500Y-122500
X-223800
X-227250
X-239500Y-118500
X-244500
X-251500
X-256500
Y-130500
X-251500
X-244500
X-239500
X-237500Y-142000
X-242500
Y-147000
X-237500
X-237500Y-152000
X-242500
Y-157000
X-237500
X-248500Y-155500
X-253500
X-253500Y-149500
X-248500
X-253500Y-143500
X-259500Y-142000
Y-147000
X-264500
Y-142000
X-264750Y-152000
X-262000
X-259250
Y-157000
X-262000
X-264750
X-275000Y-157000
Y-152000
X-279000Y-141750
Y-136750
X-287000
Y-141750
X-302000Y-145000
Y-150000
Y-138000
Y-133000
X-303250Y-124000
X-298500
Y-118750
X-303250
X-315000Y-118500
X-320250
Y-124500
X-315000
Y-133000
Y-138000
Y-145000
Y-150000
X-317500Y-163000
X-312500
X-293500
X-288500
X-288500Y-172500
X-293500
X-275000Y-173000
Y-168000
X-261500Y-170500
X-256500Y-170500
X-245500
X-240500
X-265000Y-131750
Y-128250
X-267000Y-120000
Y-115000
X-269250Y-102750
X-274250
Y-94750
X-269250
X-256250
X-251250
Y-102750
X-256250
X-257250Y-76750
X-262250
X-269250Y-74750
X-274250
Y-66750
X-269250
X-262250Y-64750
X-257250
X-246750Y-64250
Y-59250
X-238750
Y-64250
Y-77250
Y-82250
X-246750
Y-77250
X-224750Y-76250
Y-81250
X-226250Y-91750
X-223250Y-94750
X-223250Y-102750
X-228250Y-102750
X-209500Y-100800
X-204500
X-206900Y-122500
X-210200
X-211750Y-125500
X-208500Y-125750
X-184000Y-129750
X-179000
Y-135000
X-184000
X-155000Y-100800
X-150000
Y-88100
X-155000
Y-75400
X-150000
Y-62700
X-155000
X-136750Y-63250
Y-68250
Y-75250
Y-80250
X-136750Y-88250
Y-93250
Y-100250
Y-105250
X-117750Y-112250
Y-117000
Y-121750
X-112750
Y-117000
Y-112250
X-112000Y-103500
Y-98500
Y-91500
Y-86500
X-100000
Y-91500
Y-98500
Y-103500
X-99250Y-112250
Y-117000
Y-121750
X-94250
Y-117000
Y-112250
X-96500Y-73500
X-91500
Y-54500
X-96500
X-100500Y-40000
X-105500
X-112500
X-117500
X-115500Y-54500
X-120500
Y-64000
X-115500
Y-73500
X-120500
X-136750Y-55250
X-136750Y-50250
X-136750Y-43250
Y-38250
X-148750Y-36250
Y-31250
Y-43250
Y-48250
X-161250Y-47750
X-166250
X-173250
X-178250
X-187250Y-47750
X-192250
X-207250
X-212250
X-211250Y-33750
X-206250
X-195250
X-190250
X-180250
X-175250
X-164250
X-159250
X-155250Y-13800
X-150250
Y-1100
X-155250
Y11600
X-150250
Y24300
X-155250
X-137000Y23750
Y18750
X-137000Y11750
Y6750
X-137000Y-1250
Y-6250
Y-13250
Y-18250
X-137000Y31750
Y36750
Y43750
X-137000Y48750
X-149000Y50750
Y55750
Y43750
Y38750
X-161500Y39250
X-166500Y39250
X-173500Y39250
X-178500
X-187500Y39250
X-192500
X-207500
X-212500
X-211500Y53250
X-206500
X-195500
X-190500
X-180500
X-175500
X-164500
X-159500
X-155250Y73200
X-150250
Y85900
X-155250
Y98600
X-150250
Y111300
X-155250
X-137000Y110750
Y105750
Y98750
Y93750
X-137000Y85750
Y80750
Y73750
Y68750
X-110290Y85600
X-104290
Y104600
X-110290
X-137000Y118750
Y123750
X-137000Y130750
X-137000Y135750
X-149000Y137750
Y142750
Y130750
Y125750
X-161500Y126250
X-166500
X-173500
X-178500
X-187500Y126250
X-192500
X-207500
X-212500
X-211500Y140250
X-206500
X-195500
X-190500
X-180500
X-175500
X-164500
X-159500
X-155250Y159950
X-150250
Y172650
X-155250
X-155250Y185350
X-150250
X-150250Y198050
X-155250
X-137000Y197500
Y192500
Y185500
Y180500
X-137000Y172500
Y167500
Y160500
Y155500
X-137000Y205500
Y210500
Y217500
X-149000Y217500
Y212500
X-161500Y213000
X-166500
X-173500
X-178500
X-187500Y213000
X-192500
X-207500Y213000
X-212500
X-222500Y206850
X-227500
X-225000Y196500
Y191500
Y184500
Y179500
X-226500Y169000
X-223500Y166000
Y158000
X-228500
X-227500Y142400
X-222500
X-238000Y143550
Y139550
X-242000Y139550
X-246000
Y143550
X-242000
X-250000
X-254000
X-254000Y139550
X-250000Y139550
X-258000Y139550
Y143550
X-262000
X-266000
Y139550
X-262000Y139550
X-270000Y139550
Y143550
X-274000
X-278000Y143550
Y139550
X-282000
Y143550
X-286000Y143550
Y139550
X-290000
X-294000
Y143550
X-290000
Y130250
X-286000
Y126250
X-282000
X-278000
Y130250
X-282000
X-274000
X-270000Y130250
Y126250
X-274000
X-266000
X-262000
Y130250
X-266000
X-258000
X-254000
Y126250
X-250000
Y130250
X-246000Y130250
Y126250
X-242000Y126250
Y130250
X-238000Y130250
Y126250
X-239000Y114750
Y109750
X-247000
Y114750
X-257500Y109250
X-262500
X-269500Y107250
X-274500
Y99250
X-269500
X-262500Y97250
X-257500
X-247000Y96750
Y91750
X-239000
Y96750
X-225000Y97750
Y92750
Y104750
Y109750
X-227500Y120100
X-222500
X-209750Y111300
X-204750
Y98600
X-209750
X-209750Y73200
X-204750
X-223500Y71250
X-228500
X-226500Y82250
X-223500Y79250
X-222500Y55400
X-227500
X-238000Y56550
Y52550
X-242000Y52550
X-246000
Y56550
X-242000
X-250000
X-254000
Y52550
X-250000
X-258000Y52550
Y56550
X-262000Y56550
Y52550
X-266000Y52550
Y56550
X-270000Y56550
Y52550
X-274000
Y56550
X-278000Y56550
Y52550
X-282000
Y56550
X-286000Y56550
Y52550
X-290000
X-294000
Y56550
X-290000
X-290000Y43250
X-286000Y43250
Y39250
X-282000Y39250
Y43250
X-278000
X-274000
X-270000
Y39250
X-274000
X-278000
X-266000Y39250
Y43250
X-262000
Y39250
X-258000
X-254000
X-250000
Y43250
X-254000
X-258000
X-246000
Y39250
X-242000Y39250
Y43250
X-238000
Y39250
X-239000Y27750
Y22750
X-247000
Y27750
X-257500Y22250
X-262500
X-269500Y20250
X-274500
Y12250
X-269500
X-262500Y10250
X-257500
X-247000Y9750
Y4750
X-239000
Y9750
X-225000Y10750
Y5750
X-226500Y-4750
X-223500Y-7750
Y-15750
X-228500
X-227250Y-31600
X-222250
X-237750Y-30450
Y-34450
X-241750Y-34450
X-245750
Y-30450
X-241750
X-249750
Y-34450
X-253750
X-253750Y-30450
X-257750Y-30450
X-257750Y-34450
X-261750
Y-30450
X-265750Y-30450
X-265750Y-34450
X-269750Y-34450
X-273750
X-273750Y-30450
X-269750
X-277750Y-30450
X-281750
Y-34450
X-277750
X-285750Y-34450
Y-30450
X-289750
Y-34450
X-293750
Y-30450
X-293750Y-43750
Y-47750
X-289750
Y-43750
X-285750Y-43750
X-281750
X-277750
X-273750
X-269750
Y-47750
X-273750
X-277750
X-281750
X-285750
X-265750
X-261750
Y-43750
X-265750
X-257750
X-253750
X-249750
Y-47750
X-253750
X-257750
X-245750
Y-43750
X-241750
X-237750
Y-47750
X-241750
X-227250Y-53900
X-222250
X-224750Y-64250
Y-69250
X-209500Y-75400
X-204500
X-204500Y-62700
X-209500
X-209750Y-13800
X-204750
Y11600
X-209750
Y24300
X-204750
X-225000Y22750
Y17750
X-227500Y33100
X-222500
X-251500Y71250
X-256500
Y79250
X-251500
X-269500
X-274500
Y71250
X-269500
X-297500
X-302500
Y79250
X-297500
X-313500Y81250
X-318500
X-325500
X-330500
X-341000Y80250
Y85250
Y92250
Y97250
X-340500Y105750
Y110750
Y117750
Y122750
X-339500Y134250
X-334500
Y141250
X-339500
X-338500Y158500
X-341750
X-341000Y167000
Y172000
Y179000
Y184000
X-340500Y192500
Y197500
Y204500
Y209500
X-326500Y208000
Y203000
X-307500
Y208000
X-294000Y213000
X-294000Y217000
X-290000Y217000
X-286000Y217000
X-286000Y213000
X-282000
X-278000
Y217000
X-282000
X-274000
X-270000
X-270000Y213000
X-274000
X-266000
X-262000
Y217000
X-266000
X-258000
X-254000
X-250000
X-250000Y213000
X-254000
X-258000
X-246000
Y217000
X-242000Y217000
Y213000
X-238000Y213000
Y217000
X-239000Y201500
Y196500
X-247000Y196500
Y201500
X-257500Y196000
X-262500
X-269500Y194000
X-274500
Y186000
X-269500
X-262500Y184000
X-257500
X-247000Y183500
Y178500
X-239000Y178500
Y183500
X-251500Y166000
X-256500
Y158000
X-251500
X-269500
X-274500
Y166000
X-269500
X-297500
X-302500
Y158000
X-297500
X-313500Y168000
X-318500
X-325500
X-330500
X-329750Y156500
X-324750
X-326500Y179000
Y184000
X-317000
Y179000
X-307500
Y184000
X-306500Y139750
X-311500
X-311500Y134250
X-306500
X-307500Y121250
Y116250
X-326500
Y121250
Y97250
Y92250
X-317000Y92250
Y97250
X-307500
Y92250
X-324750Y69750
X-329750
X-338500Y71750
X-341750
X-339500Y54250
X-334500
X-334500Y47250
X-339500
X-340500Y35750
Y30750
Y23750
Y18750
X-341000Y10250
Y5250
Y-1750
Y-6750
X-341750Y-15250
X-338500Y-15250
X-329750Y-17250
X-324750
X-325500Y-5750
X-330500
X-318500
X-313500Y-5750
X-302500Y-7750
X-297500
Y-15750
X-302500
X-306250Y-34250
X-311250Y-34250
X-311250Y-39750
X-306250
X-307250Y-52750
Y-57750
X-326250
Y-52750
X-340250Y-51250
Y-56250
Y-63250
Y-68250
X-340750Y-76750
Y-81750
Y-88750
Y-93750
X-341500Y-102250
X-338250Y-102250
X-329500Y-104250
X-324500
X-325250Y-92750
X-330250Y-92750
X-318250Y-92750
X-313250
X-302250Y-94750
X-297250
X-297250Y-102750
X-302250
X-307250Y-81750
Y-76750
X-316750
X-316750Y-81750
X-326250Y-81750
Y-76750
X-334250Y-39750
X-339250
Y-32750
X-334250
X-326500Y5250
Y10250
X-317000
Y5250
X-307500
Y10250
Y29250
Y34250
X-306500Y47250
X-311500
X-311500Y52750
X-306500
X-294000Y43250
Y39250
X-290000Y39250
X-326500Y34250
Y29250
X-274500Y-7750
X-269500
Y-15750
X-274500
X-256500
X-251500
Y-7750
X-256500
X-279500Y-117250
Y-122250
X-285250
Y-117250
X-333000Y-117000
Y-122000
Y-133000
Y-138000
Y-147000
Y-152000
Y-159000
Y-164000
X-332500Y-173500
X-327500
X-339500
X-344500
X-347000Y-161000
Y-156000
Y-149000
Y-144000
Y-135000
Y-130000
X-347000Y-123000
Y-118000
X-144500Y-171000
X-139500
X-204750Y159950
X-209750
X-209750Y185350
X-204750
X-204750Y198050
X-209750
X-290000Y213000
X-294000Y130250
Y126250
X-290000Y126250
X-274000Y139550
X-258000Y126250
X-57000Y129500
Y134500
Y122500
Y117500
X-57000Y108000
Y103000
Y93000
Y88000
X-7000
Y93000
Y103000
Y108000
X-7000Y117500
Y122500
Y129500
Y134500
X-4750Y157000
X-1250
X8250
X11750
X20250
X23750
X33251Y157001
X36751
X45250Y157000
X48750
X48751Y169001
X45251Y169001
X36751
X33251Y169001
X23750Y169000
X20250Y169000
X11750
X8250Y169000
X-1250
X-4750Y169000
X-13250
X-16750Y169000
X-26250
X-29750Y169000
X-38250
X-41750Y169000
Y181000
X-38250
X-29750
X-26250
X-16750
X-13250
X-4750
X-1250
X8250
X11750
X20250
X24000
X33251Y181001
X36751
X45251
X48751
X48750Y193000
X45250
X36751Y193001
X33251
X23750Y193000
X20250
X11750
X8250
X-1250
X-4750
X-13250
X-16750
X-26250
X-29750
X-38250
X-41750
X-51250
X-54750
X-63250
X-66750
X-66750Y205000
X-63250Y205000
X-54750
X-51250Y205000
X-41750
X-38250Y205000
X-29750
X-26250Y205000
X-16750
X-13250Y205000
X-4750
X-1250Y205000
X8250
X11750Y205000
X20250
X23750Y205000
X33251Y205001
X36751Y205001
X45251
X48751Y205001
X48751Y217001
X45251
X36751
X33251
X23750Y217000
X20250
X11750
X8250
X-1250
X-4750
X-13250
X-16750
X-26250
X-29750
X-38250
X-41750
X-51250
X-54750
X-63250
X-66750
X-41750Y157000
X-38250
X-29750
X-26250
X-16750
X-13250
X43000Y134500
Y129500
Y122500
Y117500
X43000Y108000
Y103000
Y93000
Y88000
X56000Y43085
Y39085
Y31085
Y27085
X54915Y16000
X58915
X66915
X70915
X69000Y27085
Y31085
Y39085
Y43085
X83197Y38750
X87197
Y19750
X83197
X81314Y64
X86936
X97500Y-3000
X102500Y-3000
X109500Y-3000
X114500Y-3000
Y-16000
X109500Y-16000
X102500Y-16000
X97500Y-16000
X86936Y-18936
X81314
X59936
X54314
Y-9436
X59936
Y64
X54314
X42000Y-5500
X42000Y-10500
X42000Y-17500
X42000Y-22500
X45250Y-39569
X45250Y-44569
X51750
X51750Y-39569
X58250
X58250Y-44569
X64750
X64749Y-39569
X71250
X71250Y-44569
X77750
X77750Y-39569
X90750
X90750Y-44569
X105000Y-77500
X105000Y-82500
X105000Y-89500
X105000Y-94500
X90750Y-99429
X90750Y-104429
X84250
X84250Y-99429
X77750
X77750Y-104429
X71250
X71250Y-99429
X64749
X64750Y-104429
X58250
X58250Y-99429
X51750
X51750Y-104429
X45250
X45250Y-99429
X41500Y-132000
Y-138000
Y-144500
Y-151000
Y-157000
X52500
Y-151000
Y-144500
Y-138000
Y-132000
X14500
Y-138000
Y-144500
Y-151000
Y-157000
X25100Y-157368
X28850
Y-152618
X25100
Y-164618
X28850
Y-169368
X25100
X3500Y-157000
Y-151000
Y-144500
Y-138000
Y-132000
X-37500
Y-138000
Y-144500
Y-151000
Y-157000
X-48500
Y-151000
Y-144500
Y-138000
Y-132000
X-62500Y-130500
Y-135500
X-67750
Y-130500
X-77500
Y-135500
X-82750
Y-130500
Y-119500
Y-114500
X-77500
Y-119500
X-67750
Y-114500
X-62500
Y-119500
X-67000Y-97750
Y-92750
Y-85750
Y-80750
X-69500Y-70500
X-64500
X-76500
X-81500
X-79750Y-80750
Y-85750
Y-92750
Y-97750
X-64750Y-153000
X-61000
Y-157750
X-64750
Y-165000
X-61000
Y-169750
X-64750
X93500Y-157000
Y-151000
Y-144500
Y-138000
Y-132000
X104500
Y-138000
Y-144500
Y-151000
Y-157000
X159000Y-159000
Y-165000
X171000
Y-159000
X183000Y-157000
Y-166000
Y-176000
X195000
Y-166000
Y-157000
Y-147000
Y-138000
Y-128000
X183000
Y-138000
Y-147000
X171000Y-137000
Y-131000
X159000
Y-137000
X160500Y-115500
X155502
X150500
Y-109500
X155500
X160500
X179000
X185000
X191000
Y-115500
X185002
X179000
X179000Y-89000
Y-83000
X184998
X191000
Y-89000
X185000
X201000Y-88830
X204109Y-88835
X207210Y-88830
Y-93830
X204109Y-93835
X201000Y-93830
X202110Y-98835
X206110
Y-103835
X202110
Y-108835
X206110
X213000Y-107250
X219000
X225000
X231000Y-108830
X234109Y-108835
X237210Y-108830
Y-103830
X234109Y-103835
X231000Y-103830
Y-98830
X234109Y-98835
X237210Y-98830
Y-93830
X234109Y-93835
X231000Y-93830
Y-88830
X234109Y-88835
X237210Y-88830
X236110Y-83835
X232110
Y-78835
X236110
Y-73835
X232800Y-73830
X232110Y-68835
X236110
X237150Y-63830
X234000
X225000Y-65500
X219000
X213000
X206110Y-63835
X202110
Y-68835
X206110
Y-73835
X202110
Y-78835
X206110
X207210Y-83830
X204109Y-83835
X201000Y-83830
X213250Y-86250
X219109Y-86335
X225000Y-86250
Y-97750
X219000
X213000
X211609Y-114333
Y-118333
X216609
Y-114333
X221609
Y-118333
X226609
Y-114333
X235000Y-128000
X240000Y-133000
Y-141000
X235000Y-147000
Y-157000
Y-166000
Y-176000
X247000
Y-166000
Y-157000
Y-147000
X258000Y-148000
Y-142000
X269000
Y-148000
Y-154500
Y-161000
Y-167000
X258000
Y-161000
Y-154500
X280000
Y-148000
Y-142000
Y-161000
Y-167000
Y-112000
Y-106000
Y-99500
Y-93000
Y-87000
X269000
Y-93000
Y-99500
Y-106000
Y-112000
X258000
Y-106000
Y-99500
Y-93000
Y-87000
X247000Y-88999
Y-84999
X248250Y-75750
X252250
X251500Y-57750
X246500
X247891Y-39165
Y-29165
Y-20165
Y-10165
X235891
Y-20165
Y-29165
Y-39165
X226609Y-53330
Y-56500
X221609Y-58334
Y-54334
X216609
Y-58334
X211609
Y-54334
X213000Y-75500
X219000
X192000Y-64750
X188000Y-64750
X190000Y-57335
Y-53335
X176500Y-53335
Y-57335
X175000Y-64750
X177500Y-67000
X163000Y-65335
Y-69335
Y-57335
Y-53335
X148750
Y-57335
Y-65335
Y-69335
X150500Y-83000
X155498
X160500
Y-89000
X155500
X150500
X159891Y-28165
Y-22165
X171891
Y-28165
X183891Y-29165
Y-20165
Y-10165
Y-1165
Y8835
X195891
Y-1165
Y-10165
Y-20165
Y-29165
Y-39165
X183891
X171891Y-165
Y5835
X159891
Y-165
X161391Y21335
X156393
X151391
Y27335
X156391
X161391
X179891
X185891
X191891
Y21335
X185893
X179891
X179891Y47835
Y53835
X185890
X191891
Y47835
X185891
X201891Y48005
X205000Y48000
X208101Y48005
Y53005
X205000Y53000
X201891Y53005
X203001Y58000
X207001
Y63000
X203001
Y68000
X207001
Y73000
X203001
X192891Y72085
X188891Y72085
X190891Y79500
Y83500
X177391Y83500
Y79500
X175891Y72085
X178391Y69835
X163891Y71500
Y67500
Y79500
Y83500
X149641
Y79500
Y71500
Y67500
X151391Y53835
X156390
X161391
Y47835
X156391
X151391
X123915Y41000
X119915
X201891Y43005
X205000Y43000
X208101Y43005
X207001Y38000
X203001
Y33000
X207001
Y28000
X203001
X213891Y29585
X219891
X225891
X231891Y28005
X235000Y28000
X238101Y28005
Y33005
X235000Y33000
X231891Y33005
Y38005
X235000Y38000
X238101Y38005
Y43005
X235000Y43000
X231891Y43005
Y48005
X235000Y48000
X238101Y48005
X237001Y53000
X233001
Y58000
X237001
Y63000
X233691Y63005
X233001Y68000
X237001
X238041Y73005
X234891
X225891Y71335
X219891
X213891
X212500Y78501
Y82501
X217500
Y78501
X222500
Y82501
X227500Y83505
Y80335
X247391Y79085
X252391
X253141Y61085
X249141
X247891Y51836
Y47836
Y39836
Y35836
X258891Y37335
Y43835
Y49835
X269891
Y43835
Y37335
Y30835
Y24835
X280891
Y30835
Y37335
Y43835
Y49835
X258891Y30835
Y24835
X247891Y8835
X240891Y3835
Y-4165
X235891Y8835
X227500Y18501
Y22501
X222500
Y18501
X217500
Y22501
X212500
Y18501
X213891Y39085
X219891
X225891
Y50585
X220000Y50500
X214141Y50585
X213891Y61335
X219891
X235891Y97835
Y107835
Y116835
Y126835
X240891Y132835
Y140835
X235891Y145835
X247891
Y126835
Y116835
Y107835
Y97835
X258891Y106835
Y112835
Y119335
Y125835
Y131835
X269891
Y125835
Y119335
Y112835
Y106835
X280891
Y112835
Y119335
Y125835
Y131835
Y161835
Y167835
Y174335
Y180835
Y186835
X269891
Y180835
Y174335
Y167835
Y161835
X258891
Y167835
Y174335
Y180835
Y186835
X247891Y184836
Y188836
X249141Y198085
X253141
X237001Y200000
X233691Y200005
X233001Y205000
X237001
X238041Y210005
X234891
X225891Y208335
X219891
X213891
X207001Y210000
X203001
Y205000
X207001
Y200000
X203001
Y195000
X207001
X208101Y190005
X205000Y190000
X201891Y190005
Y185005
X205000Y185000
X208101Y185005
Y180005
X205000Y180000
X201891Y180005
X203001Y175000
X207001
Y170000
X203001
Y165000
X207001
X213891Y166585
X219891
X225891
X231891Y165005
X235000Y165000
X238101Y165005
Y170005
X235000Y170000
X231891Y170005
Y175005
X235000Y175000
X238101Y175005
Y180005
X235000Y180000
X231891Y180005
Y185005
X235000Y185000
X238101Y185005
X237001Y190000
X233001
Y195000
X237001
X225891Y187585
X220000Y187500
X214141Y187585
X213891Y198335
X219891
X217500Y215501
X212500
X222500
X227500Y217335
X247391Y216085
X252391
X247891Y176836
Y172836
X225891Y176085
X219891
X213891
X212500Y159501
Y155501
X217500
Y159501
X222500
Y155501
X227500
Y159501
X191891Y158335
X185893
X185891Y164335
X179891
Y158335
X183891Y145835
Y135835
Y126835
Y116835
Y107835
Y97835
X195891
Y107835
Y116835
Y126835
Y135835
Y145835
X191891Y164335
X191891Y184835
Y190835
X185890
X179891
Y184835
X185891
X161391
X156391
X151391
Y190835
X156390
X161391
X163891Y204500
Y208500
Y216500
X177391Y216500
X175891Y209085
X178391Y206835
X188891Y209085
X192891Y209085
X190891Y216500
X149641
Y208500
Y204500
X151391Y164335
X156391
X161391
X161391Y158335
X156393
X151391
X159891Y142835
Y136835
X171891
Y142835
Y114835
Y108835
X159891
Y114835
X81000Y211000
Y215000
X71000Y214750
Y211250
X59000
Y214750
X32000Y-40500
X32000Y-45500
X32000Y-52500
X32000Y-57500
X7000Y-48500
X7000Y-43500
X7000Y-36500
X7000Y-31500
X-7000
X-7000Y-36500
X-7000Y-43500
X-7000Y-48500
X258891Y-30165
Y-24165
Y-17665
Y-11165
Y-5165
X269891
Y-11165
Y-17665
Y-24165
Y-30165
X280891
Y-24165
Y-17665
Y-11165
Y-5165
X247000Y-96999
Y-100999
Y-128000
X326600Y367290
Y373290
X307600
Y367290
X309500Y396000
X304500
X297500
X292500
X280500
Y402000
X272250Y406250
Y412250
X264000Y402000
Y396000
X246750Y383250
Y377250
X234250
Y383250
X221750
Y377250
X209250
Y383250
X196750
Y377250
X184250
Y383250
X171750
Y377250
X159250
Y383250
X148500Y383750
X146750Y377250
X134250
Y383250
X121750
Y377250
X109250
Y383250
X96750
Y377250
X114959Y360149
X120959
Y347449
X114959
Y334749
X120959
Y322049
X114959
X134000Y323915
Y319915
Y331915
Y335915
X134000Y346915
Y350915
Y358915
Y362915
X150000Y357665
Y353665
Y345665
Y341665
X164250
Y345665
X163000Y353750
X164250Y357665
X177750Y357665
X179000Y353750
X178750Y344000
X176250Y346250
X189250
X193250Y346250
X191250Y353665
Y357665
X212859Y356666
Y352667
X217859
Y356666
X222859
Y352667
X227859Y354500
Y357670
X226250Y345500
X220250
X214250
X207360Y347165
X203360
Y342165
X207360
Y337165
X203360
Y332165
X207360
X208460Y327170
X205359Y327165
X202250Y327170
Y322170
X205359Y322165
X208460Y322170
Y317170
X205359Y317165
X202250Y317170
X203360Y312165
X207360
Y307165
X203360
Y302165
X207360
X214250Y303750
X220250
X226250
X232250Y302170
X235359Y302165
X238460Y302170
Y307170
X235359Y307165
X232250Y307170
Y312170
X235359Y312165
X238460Y312170
Y317170
X235359Y317165
X232250Y317170
Y322170
X235359Y322165
X238460Y322170
X237360Y327165
X233360
Y332165
X237360
Y337165
X234050Y337170
X233360Y342165
X237360
X238400Y347170
X235250
X247750Y353250
X252750
X253500Y335250
X249500
X248250Y326001
Y322001
Y314001
Y310001
X259250Y311500
Y318000
Y324000
X270250
Y318000
Y311500
Y305000
Y299000
X281250
Y305000
Y311500
Y318000
Y324000
X259250Y305000
Y299000
X248250Y283000
X241250Y278000
Y270000
X236250Y264000
Y254000
Y245000
Y235000
X248250
Y245000
Y254000
Y264000
X259250Y263000
Y269000
X270250
Y263000
Y256500
Y250000
Y244000
X281250
Y250000
Y256500
Y263000
Y269000
X259250Y256500
Y250000
Y244000
X227500Y220505
X222500Y219501
X217500
X212500
X190891Y220500
X177391Y220500
X163891Y220500
X149641
X160250Y246000
Y252000
X172250
Y246000
X184250Y245000
Y254000
Y264000
Y273000
Y283000
X196250
Y273000
Y264000
Y254000
Y245000
Y235000
X184250
X172250Y274000
Y280000
X160250
Y274000
X161750Y295500
X156752
X151750
Y301500
X156750
X161750
X180250
X186250
X192250
Y295500
X186252
X180250
X180250Y322000
Y328000
X186248
X192250
Y322000
X186250
X161750
X156750
X151750
Y328000
X156748
X161750
X214500Y324750
X220359Y324665
X226250Y324750
Y313250
X220250
X214250
X212859Y296667
Y292666
X217859
Y296667
X222859
Y292666
X227859
Y296667
X236250Y283000
X220250Y335500
X214250
X109750Y306000
X106250
X97750
X94250
X80500Y305500
Y300500
X61500
Y305500
X61251Y321951
X66251
X66251Y347351
X61251
X61253Y360054
X66253
X48504Y366005
X43504
X32504
X27504
X15000Y365500
Y360500
Y372500
Y377500
X12500Y387850
X17500
X27500Y394000
X32500
X31500Y381000
X36500
X43500
X48500
X47500Y394000
X52500
X63000Y396000
Y402000
X71250Y406250
Y412250
X79500Y402000
Y396000
X49501Y408000
X44501
X33502Y408003
X28502
X17500Y410150
X12500
X2000Y411300
Y407300
X-2000Y407300
X-6000
X-6000Y411300
X-2000
X-10000
Y407300
X-14000
Y411300
X-18000Y411300
Y407300
X-22000Y407300
Y411300
X-26000Y411300
Y407300
X-30000Y407300
Y411300
X-34000Y411300
Y407300
X-38000Y407300
Y411300
X-42000
Y407300
X-46000Y407300
Y411300
X-50000
X-54000
Y407300
X-50000
X-50000Y398000
Y394000
X-54000Y394000
Y398000
X-46000
Y394000
X-42000
X-38000
X-38000Y398000
X-42000
X-34000
X-30000
Y394000
X-34000Y394000
X-26000Y394000
Y398000
X-22000
Y394000
X-18000Y394000
X-18000Y398000
X-14000
Y394000
X-10000Y394000
Y398000
X-6000
X-6000Y394000
X-2000Y394000
Y398000
X2000Y398000
Y394000
X1000Y382500
Y377500
X-7000
Y382500
X-17500Y377000
X-22500
X-29500Y375000
X-34500
Y367000
X-29500
X-22500Y365000
X-17500
X-7000Y364500
Y359500
X1000
Y364500
X13500Y350000
X16500Y347000
Y339000
X11500
X15250Y325000
X18750
X28250
X31750
X40250
X43750
X36500Y311000
X36500Y307500
X31500
X31500Y311000
X26500
X26500Y307500
X21500
X21500Y311000
X11500
X11500Y307500
X6500
X6500Y311000
X1500
X1500Y307500
X-2500Y303500
X-6000Y303500
Y298500
X-2500Y298500
Y293500
X-6000Y293500
Y288500
X-2500Y288500
Y273500
X-6000Y273500
Y268500
X-2500Y268500
X1500Y264500
X1500Y261000
X6500
X6500Y264500
X11500
X11500Y261000
X16500
X16500Y264500
X21500
X21500Y261000
X26500
X26500Y264500
X31500
X31500Y261000
X36500
X36500Y264500
X40500Y268500
X44000Y268500
Y273500
X40500Y273500
Y288500
X44000Y288500
Y293500
X40500Y293500
Y298500
X44000Y298500
Y303500
X40500Y303500
X26500Y294500
X10500Y294000
X6750Y325000
X3250
X-7250
X-10750
X-20000Y326500
X-22750Y325000
X-21000Y313750
Y310250
Y301750
Y298250
X-21000Y288750
Y285250
Y276750
Y273250
X-40500Y280500
X-45500
X-44250Y294000
X-47750
Y305000
X-44250
X-35750
X-32250
Y294000
X-35750
Y316000
X-32250
X-44250
X-47750
X-61250Y325000
X-64750
X-73250
X-76750
X-74500Y311000
X-74500Y307500
X-79500
X-79500Y311000
X-84500
X-84500Y307500
X-69500
X-69500Y311000
X-65500Y303500
X-62000Y303500
X-62000Y298500
X-65500Y298500
X-65500Y293500
X-62000Y293500
X-62000Y283500
X-65500Y283500
Y278500
X-62000Y278500
X-62000Y273500
X-65500Y273500
Y268500
X-62000Y268500
X-69500Y264500
X-69500Y261000
X-74500
X-74500Y264500
X-79500
X-79500Y261000
X-84500
X-84500Y264500
X-79750Y247000
X-76250
X-45500Y261500
X-40500
X-78000Y296250
X-78500Y349000
X-73500Y349000
X-62500Y347000
X-57500
Y339000
X-62500
X-67500Y360000
Y365000
X-77000
Y360000
X-67500Y384000
Y389000
X-66500Y402000
X-71500
X-71500Y407500
X-66500
X-34500Y347000
X-29500
Y339000
X-34500
X-16500
X-11500
Y347000
X-16500
X31500Y352000
X36500
X43500
X48500
X58250Y287000
X61750
X70250
X73750
X71000Y276750
Y273250
Y264750
Y261250
Y251750
Y248250
Y239750
Y236250
Y226750
Y223250
X59000
Y226750
Y236250
Y239750
Y248250
Y251750
Y261250
Y264750
Y273250
Y276750
X83000Y276750
Y273250
Y264750
Y261250
Y251750
Y248250
Y239750
Y236250
Y226750
Y223250
X292500Y410000
X297500
X304500
X309500
X-94500Y409000
X-99500
X-99500Y402000
X-94500
X-100500Y390500
Y385500
X-100500Y378500
Y373500
X-101000Y365000
Y360000
Y353000
Y348000
X-101750Y339500
X-98500
X-89750Y339250
X-87750Y336250
X-86250Y325000
X-89750
X-98250
X-101750
X-99500Y311000
X-99500Y307500
X-104500
X-104500Y311000
X-108500Y303500
X-112000Y303500
Y298500
X-108500Y298500
Y293500
X-112000Y293500
Y288500
X-108500Y288500
Y283500
X-112000Y283500
Y278500
X-108500Y278500
Y273500
X-112000Y273500
Y268500
X-108500Y268500
X-104500Y264500
X-104500Y261000
X-99500
X-99500Y264500
X-91750Y247000
X-88250
X-87000Y286000
X-137000Y284250
Y279250
Y272250
Y267250
X-137000Y259250
Y254250
Y247250
Y242250
X-150250Y246700
X-155250
Y259400
X-150250
Y272100
X-155250
Y284800
X-150250
X-149000Y299250
Y304250
Y311250
Y316250
X-159500Y313750
X-164500
X-175500
X-180500
X-190500
X-195500
X-206500
X-211500
X-222500Y315900
X-227500
X-238000Y317050
X-238000Y313050
X-242000Y313050
X-246000
Y317050
X-242000
X-250000
X-254000
Y313050
X-258000Y313050
X-258000Y317050
X-262000Y317050
Y313050
X-266000
X-270000
X-274000
X-278000Y313050
X-278000Y317050
X-282000
X-286000Y317050
Y313050
X-290000
Y317050
X-294000Y317050
Y313050
X-294000Y303750
X-294000Y299750
X-290000Y299750
Y303750
X-286000Y303750
Y299750
X-282000
X-278000
Y303750
X-282000
X-274000
X-270000
Y299750
X-274000
X-266000
X-262000
Y303750
X-266000
X-258000
X-254000
X-250000
Y299750
X-254000
X-258000
X-246000
Y303750
X-242000Y303750
Y299750
X-238000Y299750
Y303750
X-239000Y288250
Y283250
X-247000
Y288250
X-257500Y282750
X-262500
X-269500Y280750
X-274500
Y272750
X-269500
X-262500Y270750
X-257500
X-247000Y270250
Y265250
X-239000
Y270250
X-225000Y271250
Y266250
Y278250
Y283250
X-227500Y293600
X-222500
X-212500Y299750
X-207500
X-192500
X-187500
X-178500Y299750
X-173500Y299750
X-166500Y299750
X-161500
X-137000Y297250
Y292250
Y304250
Y309250
X-90500Y349000
X-85500
X-86500Y360000
Y365000
Y384000
Y389000
X-137000Y222500
X-149000Y224500
Y229500
X-159500Y227000
X-164500
X-175500
X-180500
X-190500
X-195500
X-206500
X-211500
X-222500Y229150
X-227500
X-238000Y230300
Y226300
X-242000Y226300
X-246000Y226300
Y230300
X-242000
X-250000
X-254000
X-254000Y226300
X-258000Y226300
Y230300
X-262000Y230300
X-262000Y226300
X-266000Y226300
Y230300
X-270000Y230300
X-274000
X-278000Y230300
Y226300
X-282000
Y230300
X-286000Y230300
Y226300
X-290000
X-294000
X-294000Y230300
X-290000
X-274000Y226300
X-270000
X-269500Y244750
X-274500
Y252750
X-269500
X-256500
X-251500
Y244750
X-256500
X-250000Y226300
X-228500Y244750
X-223500
Y252750
X-226500Y255750
X-209750Y246700
X-204750
Y272100
X-209750
Y284800
X-204750
X-250000Y313050
X-266000Y317050
X-270000Y317050
X-274000
X-282000Y313050
X-306500Y313250
X-311500
X-311500Y307750
X-306500
X-307500Y294750
Y289750
X-326500
Y294750
X-340500Y296250
Y291250
X-340500Y284250
Y279250
X-341000Y270750
Y265750
X-341000Y258750
X-341000Y253750
X-341750Y245250
X-338500
X-329750Y243250
X-324750
X-325500Y254750
X-330500
X-318500Y254750
X-313500
X-302500Y252750
X-297500
Y244750
X-302500
X-306500Y226500
X-311500
X-311500Y221000
X-306500
X-334500
X-339500
Y228000
X-334500
X-326500Y265750
Y270750
X-317000
Y265750
X-307500
Y270750
X-334500Y307750
X-339500
Y314750
X-334500
X-366000Y357500
Y362500
Y369500
Y374500
X-379000
Y369500
Y362500
Y357500
M30
