M48
;Layer_Color=9474304
;FILE_FORMAT=4:4
METRIC,TZ
;TYPE=PLATED
T2F00S00C0.3000
%
T02
X347000Y-375250
X343500Y-359000
X355000Y-351000
X365500Y-339000
X365500Y-328500
X355500Y-320000
X359500Y-302750
X359000Y-294250
X360750Y-276000
X347000Y-270250
X347000Y-261000
X325750Y-260250
X327000Y-278750
X336000Y-276250
X332750Y-292000
X341000Y-291500
X315750Y-295250
X313250Y-276500
X313000Y-267500
X317250Y-233500
X321000Y-222250
X331250Y-224750
X329500Y-193000
X316750Y-185250
X356500Y-182750
X364157Y-185093
X365500Y-199000
X365250Y-211000
X365750Y-221500
X362750Y-244250
X320000Y-317000
X326500Y-331500
X327500Y-339500
X364250Y-370000
X294500Y-375750
X284250Y-393250
X276750Y-400250
X295000Y-405000
X245500Y-390500
X237650Y-391000
X233000Y-397500
X233250Y-383500
X241500
X237900Y-375000
X245250Y-374500
X241250Y-367500
X233000
X237400Y-359000
X245250Y-358500
X241250Y-351500
X233000
X237400Y-343000
X245500Y-342500
X241500Y-335500
X233250
X238000Y-327250
X245950Y-316949
X257950
X268000Y-318000
X263500Y-300499
X247450Y-305949
X228750Y-289499
X208500Y-279499
X199250Y-302999
X200500Y-334000
X186750Y-338000
X183750Y-348500
X202000Y-350500
X209400Y-359750
X206750Y-367000
X201650Y-377500
X204250Y-393250
X194650Y-390000
X183750Y-378250
X152250Y-386250
X135000Y-405000
X118150Y-369250
X111000Y-373750
X113750Y-361500
X111250Y-354250
X96250Y-345000
X98500Y-313500
X118500Y-305500
X124750Y-300750
X131000Y-292750
X139000Y-297000
X150501Y-296499
X147000Y-289000
X137000Y-283499
X125000Y-284750
X118500Y-289500
X118750Y-273500
X124750Y-268750
Y-259000
X117500Y-261000
X120000Y-240750
Y-234250
X113500
Y-240750
X100000
Y-234250
X93500
Y-240750
X80000
Y-234250
X73500
Y-240750
X60000
Y-234250
X53500
Y-240750
X40000
Y-234250
X33500
Y-240750
X20000
Y-234250
X13500
Y-240750
X-0
Y-234250
X-6500
Y-240750
X-20000
Y-234250
X-26500
Y-240750
X-40000
Y-234250
X-46500
Y-240750
X-60000
Y-234250
X-66500
Y-240750
X-80000
Y-234250
X-79700Y-196050
Y-189550
X-66200
Y-196050
X-59700
Y-189550
X-46200
Y-196050
X-39700
Y-189550
X-26200
Y-196050
X-19700
Y-189550
X-6200
Y-196050
X300
Y-189550
X13800
Y-196050
X20300
Y-189550
X33800
Y-196050
X40300
Y-189550
X53800
Y-196050
X60300
Y-189550
X73800
Y-196050
X80300
Y-189550
X93800
Y-196050
X100300
Y-189550
X113800
Y-196050
X120300
Y-189550
X133800
Y-196050
X140300
Y-189550
X156800Y-191050
X156900Y-198050
X176900
X176800Y-191050
X196800
X196900Y-198050
X216900
X216800Y-191050
X240750Y-184000
X254500Y-186250
X252500Y-198500
X266750Y-214750
Y-224500
X247500Y-229000
X216900Y-232250
X217000Y-239250
X197000
X196900Y-232250
X176900
X177000Y-239250
X157000
X156900Y-232250
X140000Y-234250
Y-240750
X133500
Y-234250
X146750Y-256500
X162250Y-307499
X156750Y-340250
X82500Y-365500
X98500Y-381750
X64700Y-316950
X52700
X54200Y-305950
X70250Y-300500
X35500Y-289500
X15250Y-279500
X6000Y-303000
X-31000Y-307500
X-56250Y-283500
X-72250Y-284000
X-84000Y-303000
X-55250Y-261250
X-47000Y-259750
X-38250Y-259500
X42750Y-260155
X78200Y-259450
X236000Y-260154
X271450Y-259449
X287000Y-267750
X301000Y-263750
X291750Y-243250
X283000Y-242750
X281250Y-202500
X277750Y-330750
X-30000Y-405000
X-210000
X-203500Y-320750
X-216000Y-316000
X-223550Y-315550
X-232000Y-315000
X-239550Y-315450
X-248000Y-316000
X-257000
X-265655Y-315655
X-275000Y-316000
X-285250Y-309750
X-290250Y-304250
X-290000Y-296750
X-284250Y-290750
X-284000Y-282750
X-295750Y-273000
X-311250Y-282750
X-332500Y-293250
X-322500Y-308500
X-322500Y-317000
X-326000Y-336250
X-327300Y-346300
X-330750Y-352500
X-347000Y-344250
X-374250Y-325750
X-406249Y-322499
X-439748Y-319250
X-439250Y-305000
X-439750Y-280250
Y-265250
X-417750Y-278000
X-426250Y-287750
X-388752Y-262502
X-372655Y-262845
X-372500Y-253000
X-359000Y-260000
X-351000Y-257000
X-353000Y-247000
X-352500Y-232500
X-336500Y-248750
X-324000Y-240750
X-317000Y-236250
X-321250Y-228500
X-323750Y-221250
X-338750Y-212000
X-278250Y-207250
X-248250Y-205000
X-251250Y-215500
X-233000Y-217500
X-225750Y-226750
X-228250Y-234000
X-233500Y-244500
X-251250Y-245250
X-240500Y-257000
X-230750Y-260250
X-240000Y-272500
X-252000Y-270000
X-268750Y-271750
X-282750Y-253250
X-201750Y-250500
X-197500Y-258000
X-188500Y-261000
X-180750Y-260500
X-171000Y-250500
X-158750Y-252250
X-163000Y-239500
X-163100Y-232500
X-146500Y-234500
Y-241000
X-140000
Y-234500
X-126500
Y-241000
X-120000
Y-234500
X-103100Y-232250
X-103250Y-239250
X-86500Y-240750
X-86500Y-234250
X-94750Y-251000
X-106000Y-274000
X-118750Y-296250
X-163250Y-300750
X-184500Y-302750
X-193250Y-303750
X-201250Y-302750
X-211000Y-281000
X-202000Y-234500
X-195250Y-238750
X-183000Y-239500
X-183100Y-232500
X-197750Y-226000
X-202000Y-218500
X-201750Y-202500
X-195000Y-207500
X-193000Y-193000
X-183200Y-191050
X-183100Y-198050
X-163100
X-163200Y-191050
X-143200
X-143100Y-198050
X-123100
X-123200Y-191050
X-103200
X-103100Y-198050
X-86200Y-196050
Y-189550
X-202000Y-186750
X-230750Y-180250
X-234500Y-201000
X-421000Y-181750
X-422350Y-362850
X-433000Y-352500
X-405500Y-369000
X-384250Y-371750
X-376500Y-374500
X-369550Y-375200
X-361250Y-378250
X-326800Y-376550
X-328455Y-385750
X-335000Y-405000
X-336500Y-168750
X-324000Y-160750
X-317000Y-156250
X-321250Y-148500
X-323750Y-141250
X-338750Y-132000
X-336750Y-109500
X-325250Y-97750
X-316500Y-99250
X-315250Y-105250
X-308750
X-302750Y-86750
X-294000Y-80000
X-287250Y-77000
X-280500
X-280500Y-57500
X-287000Y-57500
X-292750Y-54750
X-302750Y-48000
X-321250Y-47750
X-325250Y-36750
X-316500Y-35250
X-315250Y-29250
X-308750
X-309000Y-18250
X-315500
X-316750Y-12250
X-325500Y-10750
X-322000Y250
X-303000Y250
X-294250Y7000
X-287500Y10000
X-280750
X-280750Y29500
X-287250Y29500
X-293000Y32250
X-303000Y39000
X-321500Y39250
X-325500Y50250
X-316750Y51750
X-315500Y57750
X-309000
X-309000Y68750
X-315500
X-316750Y74750
X-325500Y76250
X-322000Y87250
X-303000Y87250
X-294250Y94000
X-287500Y97000
X-280750
X-280750Y116500
X-287250Y116500
X-293000Y119250
X-303000Y126000
X-321500Y126250
X-325500Y137250
X-316750Y138750
X-315500Y144750
X-309000
X-309000Y155500
X-315500
X-316750Y161500
X-325500Y163000
X-322000Y174000
X-303000Y174000
X-294250Y180750
X-287500Y183750
X-280750
X-280750Y203250
X-287250Y203250
X-293000Y206000
X-303000Y212750
X-321500Y213000
X-334000Y202000
Y194500
X-334000Y185000
X-317000Y193250
X-335000Y153250
X-335000Y146750
X-334000Y115250
Y107750
X-334000Y98250
X-317000Y106500
X-335000Y66500
X-335000Y59750
X-334000Y28250
Y20750
X-334000Y11250
X-317000Y19500
X-335000Y-20500
X-334750Y-27250
X-333750Y-58750
X-333750Y-66250
X-333750Y-75750
X-321750Y-86750
X-316750Y-67500
X-278250Y-127250
X-248250Y-125000
X-251250Y-135500
X-233000Y-137500
X-225750Y-146750
X-228250Y-154000
X-233500Y-164500
X-251250Y-165250
X-240500Y-177000
X-197500Y-178000
X-201750Y-170500
X-197250Y-162000
X-202000Y-154500
X-197750Y-146000
X-202000Y-138500
X-197750Y-130000
X-201750Y-122500
X-197250Y-113250
X-185250Y-98500
X-178750Y-78000
X-169500Y-78750
X-159500Y-79500
X-160700Y-71800
X-160950Y-62700
X-159250Y-55000
X-142500Y-66250
X-110000Y-64000
X-125000Y-40000
X-141750Y-29250
X-142000Y-18250
X-142750Y20750
X-161200Y24300
X-160950Y15200
X-159750Y7500
X-159500Y32000
X-142000Y57750
X-142000Y68750
X-142750Y107750
X-161200Y111300
X-160950Y102200
X-159750Y94500
X-159500Y119000
X-142000Y144750
X-142000Y155500
X-110000Y153000
Y167000
Y181000
X-142750Y194500
X-161200Y198050
X-160950Y188950
X-159750Y181250
X-159500Y205750
X-185500Y162250
Y138250
X-232250Y136000
X-231500Y127750
X-231000Y164250
Y172000
X-231500Y214500
X-231000Y85250
Y77500
X-232250Y49000
X-231500Y40750
X-231000Y-1750
Y-9500
X-232000Y-38000
X-231250Y-46250
X-230750Y-88750
Y-96500
X-234500Y-121000
X-186250Y-144000
X-179000Y-144000
X-183750Y-161250
X-183000Y-171000
X-153000Y-172500
X-126000Y-174750
X-123500Y-150000
X-124000Y-135000
X-112000Y-137000
X-100250Y-136750
X-87500Y-133000
X-92750Y-148750
X-88500Y-93000
X-141750Y-105250
X-180500Y-69250
X-185250Y-35750
X-185500Y-11500
Y51250
X-185500Y75500
X-98100Y85600
X-103000Y119500
X-111000Y130250
X-89250Y31500
X-91750Y-2000
X-282750Y-173250
X-352500Y-152500
X-430000Y-140000
Y40000
X-422250Y113500
X-397750Y119750
X-430000Y200000
X-66750Y199000
X-66750Y211250
X-41750
X-41750Y199000
X-23750
X-22250Y186250
X-16750Y175250
X-41750
X-41750Y163000
X-53000Y171000
X-75000Y155500
X-66500Y145750
X-65000Y136000
X-70000Y130000
X-75000Y109500
X-84500Y108250
X-84500Y62750
X-76750Y47750
X-78000Y19500
X-80750Y6000
X-42000Y-18500
X-45000Y-31500
X-48250Y-45750
X-42750Y-68250
X-42000Y-80250
X-60750Y-80750
X-55750Y-97250
X-62500Y-108500
X-57500Y-117000
X-72500
X-77500Y-108500
X-72500Y-133000
X-57500
X-83000Y-149000
X-12596Y-148404
X9000Y-145000
Y-132000
Y-159000
X67500Y-160000
X99000Y-159000
Y-145000
Y-132000
X99250Y-102000
X90750Y-93750
X84250Y-111500
X71000Y-113000
X39179Y-99429
X39750Y-83000
X43500Y-73250
X53000Y-66000
X37500Y-52500
X26000Y-45500
X-0Y-43500
X-30250Y-63250
X-76500Y-62000
X-40750Y-108000
X-37500Y35000
X-21250Y34000
X-8750
X-11000Y59500
X-3000Y66250
X17250Y62000
X32250Y61000
X37000Y68000
X52000Y52500
X65000Y55250
X78000Y56000
X96250Y66000
X121750Y62000
X122000Y78000
X122000Y89500
X116000Y95000
Y110000
Y125000
Y140000
Y155000
Y170000
Y185000
Y200000
Y215000
X134000Y207000
Y192000
X145891Y191835
Y184835
Y177585
X156141
X166891
Y184835
Y191585
X174641Y187835
X174891Y177585
X166891Y164335
X166891Y157335
X165891Y143835
Y135835
X185891Y140835
X193891
X208891Y136835
X216891
X212500Y150726
X227500Y150443
X236891Y136835
X244891
X245891Y121835
X237891Y121835
X242000Y112000
X245891Y102835
X237891
X239889Y82087
X232641Y77085
X227750Y88250
X212500Y87476
X203001Y77975
X183806Y79500
X185891Y102835
X193891
Y121835
X185891Y121835
X134000Y117000
Y132000
Y147000
Y162000
X145891Y164335
X145891Y157585
X127250Y177500
X155057Y208500
X156891Y216585
X183806Y216500
X203001Y214975
X215891Y203335
X222141
X229061Y200000
X222891Y193585
X216641
X216891Y180835
X223141
Y171335
X216891
X243141Y200335
X232641Y214085
X268391Y195335
X287577Y210327
X298423Y202327
X310654Y180903
X308250Y125750
X296500Y121000
X295721Y100722
X290251Y90999
X307000Y92500
X306500Y82250
X288750Y64750
X289250Y53500
X297750Y49000
X301000Y29250
X268391Y58335
X243141Y63335
X229061Y63000
X222141Y66335
X215891
X216641Y56585
X222891
X223141Y43835
X216891
Y34335
X223141
X227500Y13443
X212500Y13726
X208891Y-165
X216891
X236891
X244891
X245891Y-15165
X237891Y-15165
X242000Y-25000
X245891Y-34165
X237891
X238998Y-54748
X231750Y-59750
X226750Y-48250
X211609Y-49359
X202110Y-58860
X182915Y-57335
X185891Y-34165
X193891
Y-15165
X185891Y-15165
Y3835
X193891
X165891Y6835
Y-1165
X166891Y20335
X166891Y27335
X166891Y40585
Y47835
Y54585
X174641Y50835
X174891Y40585
X156141
X145891
Y47835
Y54835
X155057Y71500
X156891Y79585
X134000Y102000
X58000Y107000
X66000Y120000
X45250Y163000
X48751Y175001
X45250Y199000
X48751Y211001
X66000Y210000
X86000Y211000
X8250Y211250
X8250Y199000
X3500Y187000
X8250Y175250
X8250Y163000
X23750Y187000
X-16750Y211250
X-13500Y142000
X-30000Y147750
X-17000Y107000
X3000
X-45000Y83250
X-57750Y81500
X-28250Y49500
X61750Y22250
X70915Y21665
X70250Y5500
X81314Y6936
X92750Y19750
X108750Y35250
X145891Y27335
X145891Y20585
X111750Y-27000
X105000Y-44750
X90750Y-52000
X78250Y-51750
X77750Y-33750
X60000Y-30000
X48000Y-31000
X36750Y-22500
X35750Y-5500
X48000Y4000
X54915Y9585
X67000Y-14000
X99000Y-77500
X117500Y-102250
X145000Y-96250
Y-89000
Y-82000
X166000Y-82250
Y-89000
Y-96250
X174000
X173750Y-86000
X155250Y-96250
X145000Y-109500
X145000Y-116250
X166000Y-116500
X166000Y-109500
X165000Y-130000
Y-138000
Y-158000
Y-166000
X185000Y-171000
X193000
X207500Y-171750
X237000Y-171000
X245000
X241000Y-162000
X245000Y-152000
X237000Y-152000
X236000Y-137000
X244000
X216000
X208000
X211609Y-123109
X226609Y-123391
X222250Y-102500
X216000
Y-93000
X222250
X222000Y-80250
X215750
X215000Y-70500
X221250
X228170Y-73835
X242250Y-73500
X267500Y-78500
X278500Y-65500
X283000Y-52000
X295000Y-41000
X312001Y-52001
X312001Y-64501
X287000Y-91000
X298000Y-176000
X193000Y-152000
X185000Y-152000
Y-133000
X193000
X145250Y-141000
X132250Y-137250
X144000Y-158500
X115500Y-164750
X154165Y-65335
X156000Y-57250
X277500Y98000
X318750Y95000
X317250Y87500
X322720Y72720
X336000Y62250
X330499Y55499
X357000Y61000
X340249Y80999
X349721Y101279
X359250Y99250
X363000Y124250
X344500Y129000
X335500Y129750
X338000Y137750
X332000Y159000
X341654Y180096
X344000Y203500
X327750Y112000
X337500Y26000
X340250Y-50000
X365000
X355000Y-170500
X342000Y-172250
X334500Y-176000
X336000Y-159750
X314500Y-162000
X315250Y218500
X343653Y239980
X342250Y251923
X332654Y253403
X333000Y303250
X317000Y292250
X332040Y373290
X370000Y400000
X365000Y220000
X239889Y219087
X226500Y226250
X212500Y224476
X194250Y240000
X186250
Y259000
X194250Y259000
Y278000
X186250
X166250Y281000
Y273000
X167250Y294500
X167250Y301500
X167250Y314750
Y322000
Y328750
X175000Y325000
X175250Y314750
X156500
X146250
Y322000
Y329000
X127451Y322049
X106250Y326250
X88000Y331750
X97750Y300250
X74750Y300500
X69000Y294000
X80500Y293750
X89750Y284250
X77000Y261250
X64750Y261250
Y236250
X48000Y241750
X28000Y238500
Y230000
X31500Y277500
X24000Y284000
X9500Y278750
X-6000Y283500
X-10250Y262250
X-27000Y276000
X-40500Y267000
X-52000Y288000
X-69250Y289750
X-75500Y284000
X-77750Y271250
X-79750Y252750
X-67750Y248000
X-62250Y232000
X-55750Y237500
X-45750Y225500
X-27000Y243000
X-26250Y307000
X-27500Y325000
X-17000Y319750
X-7250Y319750
X-7750Y311000
X5500Y299000
X26500Y302250
X33500Y295500
X54250Y298500
X47500Y307000
X51750Y315000
X48500Y325000
X36500Y333000
X28250Y330000
X18250Y331750
X13250Y319250
X28000Y317000
X36500Y316500
X61500Y311250
X52750Y370251
X80250Y366500
X81000Y377250
X74600Y384650
X71250Y399500
X56000Y408000
X97450Y410050
X125000Y407500
X139500Y407500
X152250Y400500
X156500Y388750
X140750Y383250
X132000Y390500
X114250Y388250
X114959Y365959
X97500Y367750
X146750Y370250
X161000Y368750
X171500Y367000
X184250Y369000
X184165Y353665
X171250Y349750
X157250Y353750
X155415Y345665
X146250Y301500
X146250Y294750
X117250Y275000
X117000Y260000
X117000Y245000
X115500Y234500
X134000Y237000
Y222000
X99000Y220000
X87750Y239750
X238250Y240000
X246250
X242000Y249000
X238250Y259000
X246250Y259000
X245250Y274000
X237250
X217250
X209250
X212859Y287891
X227859Y287609
X223500Y308500
X217250
Y318000
X223500
X223250Y330750
X217000
X216250Y340500
X222500
X229420Y337165
X243500Y337500
X240248Y356252
X233000Y351250
X227750Y363000
X221750Y369750
X213000Y369250
X212859Y361641
X203360Y352140
X198750Y367000
X239000Y369250
X246750
X251000Y409000
X286000Y410000
X286000Y396000
X302040Y367290
X268750Y332500
X270750Y290750
X221001Y393500
X180000Y396000
X176500Y408250
X7750Y403750
X8500Y395500
X9000Y353000
Y345250
X-40750Y364750
X-47500
X-54250Y361750
X-63000Y355000
X-82000Y355000
X-76750Y342500
X-75500Y336500
X-69000
X-65250Y317500
X-47750Y321750
X-73250Y301000
X-77000Y374250
X-81500Y394000
X-76750Y406500
X-75500Y412500
X-69000
X-63000Y393750
X-53000Y387000
X-47250Y384250
X-40750Y384250
X-94000Y383000
Y375500
X-94000Y366000
X-95000Y334250
X-89500Y311000
X-99500Y302500
X-87000Y293250
X-92000Y276000
X-92500Y267500
X-100250Y272750
X-126000Y273500
Y265750
X-121750Y259250
X-123250Y249000
X-110000Y246000
X-110000Y233000
X-88250Y241750
X-142000Y242250
X-142000Y231500
X-185500Y225000
X-185500Y249000
X-159750Y268000
X-160950Y275700
X-161200Y284800
X-142750Y281250
X-120750Y281000
X-126500Y293750
X-127750Y301500
X-120250Y309500
X-114000Y316500
X-142000Y318250
X-185500Y311750
X-232250Y309500
X-231500Y301250
X-231000Y258750
Y251000
X-232250Y222750
X-309000Y231500
X-315500
X-316750Y225500
X-325500Y224000
X-335000Y233500
X-335000Y240000
X-325500Y249750
X-316750Y248250
X-315500Y242250
X-309000
X-303000Y260750
X-294250Y267500
X-287500Y270500
X-280750
X-280750Y290000
X-287250Y290000
X-293000Y292750
X-303000Y299500
X-321500Y299750
X-325500Y310750
X-316750Y312250
X-315500Y318250
X-309000
X-335000Y320250
X-360250Y326000
X-359500Y357500
X-379000Y352000
X-385000Y390000
X-430000Y365000
Y315000
X-394750Y298500
X-372500Y289250
X-367500Y274750
X-355750Y286250
X-334000Y288750
Y281250
X-333750Y273750
X-317000Y280000
X-322000Y260750
X-379000Y261250
X-388500Y269500
X-335000Y415000
X-225000
X-120000
X-95000Y414500
X-85500Y405000
M30
