%FSLAX44Y44*%
%MOMM*%
G71*
G01*
G75*
G04 Layer_Color=32768*
%ADD10C,2.0000*%
%ADD11R,5.6000X6.3500*%
%ADD12R,0.9100X3.0000*%
%ADD13R,3.5000X1.4000*%
%ADD14R,1.4000X3.5000*%
%ADD15R,1.1000X1.1000*%
%ADD16R,1.0000X0.7000*%
%ADD17R,0.8000X1.3000*%
%ADD18R,2.1000X3.0000*%
%ADD19R,4.0000X4.0000*%
%ADD20R,6.0000X6.0000*%
%ADD21R,6.0000X2.0000*%
%ADD22R,4.5000X3.0000*%
%ADD23R,1.1000X1.2000*%
%ADD24R,1.5000X1.9000*%
%ADD25R,0.6100X1.2700*%
%ADD26R,3.9100X3.7500*%
%ADD27R,1.2000X1.1000*%
%ADD28R,1.0000X1.1000*%
G04:AMPARAMS|DCode=29|XSize=4mm|YSize=10mm|CornerRadius=1mm|HoleSize=0mm|Usage=FLASHONLY|Rotation=0.000|XOffset=0mm|YOffset=0mm|HoleType=Round|Shape=RoundedRectangle|*
%AMROUNDEDRECTD29*
21,1,4.0000,8.0000,0,0,0.0*
21,1,2.0000,10.0000,0,0,0.0*
1,1,2.0000,1.0000,-4.0000*
1,1,2.0000,-1.0000,-4.0000*
1,1,2.0000,-1.0000,4.0000*
1,1,2.0000,1.0000,4.0000*
%
%ADD29ROUNDEDRECTD29*%
%ADD30R,2.0000X1.2000*%
%ADD31R,3.2000X1.0000*%
%ADD32R,1.7500X0.6000*%
%ADD33R,2.8500X3.6000*%
%ADD34R,0.6500X1.0500*%
%ADD35C,0.6000*%
%ADD36C,0.5000*%
%ADD37C,0.2000*%
%ADD38C,0.3000*%
%ADD39C,3.0000*%
%ADD40C,0.8000*%
%ADD41C,1.0000*%
%ADD42C,0.9000*%
%ADD43C,2.5000*%
%ADD44R,7.4500X4.6250*%
%ADD45R,9.9750X4.0250*%
%ADD46R,5.1750X10.4000*%
%ADD47R,4.5050X10.5100*%
%ADD48R,6.0000X12.8250*%
%ADD49R,3.6750X7.1250*%
%ADD50R,4.4500X9.4500*%
%ADD51R,3.3500X4.9500*%
%ADD52R,2.7750X4.9500*%
%ADD53R,2.4750X3.0000*%
%ADD54R,1.6750X2.9750*%
%ADD55R,3.4750X1.4000*%
%ADD56R,1.9750X6.4580*%
%ADD57R,1.0000X0.5750*%
%ADD58R,6.0000X14.0500*%
%ADD59R,2.4000X2.8960*%
%ADD60R,6.1000X8.1000*%
%ADD61R,10.7750X4.8000*%
%ADD62R,7.8000X3.9750*%
%ADD63R,2.4320X7.9440*%
%ADD64R,3.8000X37.1000*%
%ADD65R,21.1000X4.0500*%
%ADD66R,10.8840X4.8000*%
%ADD67R,2.4000X6.0670*%
%ADD68R,52.1900X2.9500*%
%ADD69R,4.5050X14.9600*%
%ADD70R,0.9250X1.1250*%
%ADD71R,4.5300X15.0600*%
%ADD72R,4.3240X3.9600*%
%ADD73R,2.0500X3.1000*%
%ADD74R,2.0500X3.1500*%
%ADD75R,2.5750X2.6000*%
%ADD76R,2.0750X2.9750*%
%ADD77R,2.0500X2.4750*%
%ADD78R,2.5250X2.6750*%
%ADD79R,2.0750X1.9250*%
%ADD80R,2.0500X2.6500*%
%ADD81R,2.6500X3.9750*%
%ADD82R,2.0500X3.3750*%
%ADD83R,2.0500X3.8750*%
%ADD84R,2.0500X3.2750*%
%ADD85R,2.0500X3.4000*%
%ADD86R,2.0500X3.1250*%
%ADD87R,2.4250X1.3000*%
%ADD88R,22.6250X3.2250*%
%ADD89R,21.7000X7.1000*%
%ADD90R,3.2250X18.4000*%
%ADD91R,6.9750X10.0250*%
%ADD92C,1.5000*%
%ADD93C,2.5000*%
%ADD94C,4.0000*%
%ADD95R,1.5000X1.5000*%
%ADD96R,1.5000X1.5000*%
%ADD97C,0.8000*%
%ADD98C,1.0000*%
%ADD99C,1.2000*%
%ADD100C,6.0000*%
%ADD101C,1.7000*%
%ADD102C,1.8000*%
%ADD103C,0.6600*%
%ADD104C,1.5000*%
%ADD105C,0.4000*%
%ADD106C,0.2500*%
%ADD107R,3.3750X5.0250*%
%ADD108R,2.3750X1.3000*%
%ADD109R,2.4250X1.6250*%
%ADD110R,3.4250X0.7750*%
%ADD111R,2.6000X1.7250*%
%ADD112R,3.5250X0.8250*%
%ADD113R,2.4000X1.6250*%
%ADD114R,1.4500X2.4500*%
%ADD115R,2.6250X1.7750*%
%ADD116R,3.5250X0.9500*%
%ADD117R,3.3750X34.9250*%
%ADD118R,5.3250X2.3250*%
%ADD119R,6.0000X2.2500*%
%ADD120R,6.0750X2.3000*%
%ADD121C,5.8000*%
%ADD122C,1.0160*%
%ADD123C,2.0160*%
%ADD124C,1.9160*%
%ADD125C,1.3160*%
%ADD126C,1.5160*%
%ADD127C,1.6160*%
%ADD128C,1.8160*%
%ADD129C,0.2540*%
%ADD130C,3.5160*%
%ADD131C,3.2160*%
%ADD132C,4.0160*%
%ADD133C,1.3460*%
%ADD134R,2.3000X4.9750*%
%ADD135R,3.1000X1.5250*%
%ADD136R,2.5000X1.7250*%
%ADD137R,2.6750X1.7750*%
%ADD138R,3.6000X1.0000*%
%ADD139R,2.5250X1.6750*%
%ADD140R,1.5000X2.5250*%
%ADD141R,3.5500X0.8500*%
%ADD142R,2.7000X1.7500*%
%ADD143R,3.4250X1.0750*%
%ADD144R,3.5250X1.0500*%
%ADD145R,2.4250X1.7250*%
%ADD146R,2.4500X1.6500*%
%ADD147R,2.4500X1.2500*%
%ADD148R,5.3000X2.3000*%
%ADD149R,6.0250X2.3000*%
%ADD150R,6.0500X2.3250*%
%ADD151R,3.4250X34.9500*%
%ADD152C,0.2000*%
%ADD153R,0.9000X0.7000*%
%ADD154R,0.8000X0.7000*%
%ADD155R,0.7000X0.8000*%
%ADD156R,1.1000X1.1000*%
%ADD157R,1.3000X0.7000*%
%ADD158R,1.4000X1.0000*%
%ADD159R,1.0500X0.6500*%
%ADD160R,0.6500X0.9000*%
%ADD161R,1.0800X1.0500*%
%ADD162R,1.9000X1.5000*%
%ADD163R,1.1000X0.6500*%
%ADD164R,0.9000X0.6500*%
%ADD165R,0.6500X1.1000*%
%ADD166R,1.0000X1.4000*%
%ADD167R,6.0000X3.0000*%
%ADD168R,1.5000X1.6000*%
%ADD169O,0.6000X1.9500*%
%ADD170R,1.8000X0.6000*%
%ADD171R,1.0500X1.0800*%
%ADD172O,1.8000X0.3000*%
%ADD173O,0.3000X1.8000*%
%ADD174R,2.5000X1.0000*%
%ADD175R,0.6000X0.8000*%
%ADD176R,1.1000X1.8000*%
%ADD177R,0.6500X3.0000*%
%ADD178O,1.7000X0.3500*%
%ADD179R,0.7000X0.9000*%
%ADD180R,0.6500X2.2000*%
%ADD181R,2.4000X3.3000*%
%ADD182R,2.4000X1.0000*%
%ADD183R,0.6000X1.8000*%
%ADD184R,0.5500X0.9500*%
%ADD185R,6.0000X6.0000*%
%ADD186R,2.0000X6.0000*%
%ADD187R,1.0000X1.8000*%
%ADD188R,0.7000X1.3000*%
%ADD189R,2.1000X2.0000*%
%ADD190R,2.6500X3.0250*%
%ADD191R,2.2500X3.0000*%
%ADD192R,5.4000X2.4750*%
%ADD193R,6.1250X2.4250*%
%ADD194R,6.2500X2.4250*%
%ADD195R,3.5000X3.9000*%
%ADD196R,1.3000X3.2000*%
%ADD197R,4.9000X1.5000*%
%ADD198R,1.7000X3.2000*%
%ADD199R,13.8000X1.3000*%
%ADD200R,3.1000X4.5000*%
%ADD201R,52.4000X2.9500*%
%ADD202R,2.7000X3.3000*%
%ADD203R,7.1000X2.5000*%
%ADD204R,4.9000X2.7000*%
%ADD205R,4.7000X1.9000*%
%ADD206R,2.7000X3.5000*%
%ADD207R,2.7000X2.7000*%
%ADD208R,2.7000X1.8000*%
%ADD209R,2.7000X1.9000*%
%ADD210R,2.7000X3.9000*%
%ADD211R,2.7000X3.6000*%
%ADD212R,32.3500X1.3000*%
%ADD213R,0.6100X3.1400*%
%ADD214R,3.2000X1.7100*%
%ADD215R,2.4800X2.0750*%
%ADD216R,0.6000X1.8000*%
%ADD217R,0.6000X2.8900*%
%ADD218R,1.4900X1.4000*%
%ADD219R,2.4800X2.0270*%
%ADD220R,2.4800X2.0440*%
%ADD221R,2.4800X2.1920*%
%ADD222R,2.4800X1.9810*%
%ADD223R,0.6000X2.3100*%
%ADD224R,2.4800X2.0650*%
%ADD225R,7.8750X3.0000*%
%ADD226R,2.7000X12.4250*%
%ADD227R,15.4900X3.0000*%
%ADD228R,2.4750X2.8750*%
%ADD229R,2.4750X2.9000*%
%ADD230R,2.4750X4.2000*%
%ADD231R,1.0250X3.6500*%
%ADD232R,3.5250X2.3500*%
%ADD233R,2.2500X3.0000*%
G36*
X296722Y216730D02*
X296878Y216711D01*
X297073Y216691D01*
X297268Y216653D01*
X297502Y216594D01*
X297970Y216438D01*
X298224Y216340D01*
X298477Y216204D01*
X298731Y216067D01*
X298985Y215892D01*
X299219Y215697D01*
X299453Y215462D01*
X299472Y215443D01*
X299511Y215404D01*
X299570Y215326D01*
X299648Y215228D01*
X299726Y215092D01*
X299823Y214936D01*
X299940Y214760D01*
X300058Y214546D01*
X300155Y214292D01*
X300272Y214039D01*
X300370Y213746D01*
X300467Y213414D01*
X300526Y213083D01*
X300584Y212712D01*
X300623Y212322D01*
X300643Y211893D01*
Y211873D01*
Y211795D01*
Y211659D01*
X300623Y211483D01*
X293718D01*
Y211464D01*
Y211425D01*
X293737Y211327D01*
Y211229D01*
X293757Y211093D01*
X293776Y210956D01*
X293854Y210605D01*
X293971Y210235D01*
X294108Y209844D01*
X294322Y209454D01*
X294576Y209123D01*
X294615Y209084D01*
X294713Y209006D01*
X294888Y208869D01*
X295103Y208733D01*
X295395Y208577D01*
X295727Y208440D01*
X296098Y208362D01*
X296507Y208323D01*
X296663D01*
X296819Y208342D01*
X297014Y208381D01*
X297248Y208440D01*
X297502Y208518D01*
X297756Y208615D01*
X297990Y208772D01*
X298009Y208791D01*
X298087Y208869D01*
X298204Y208967D01*
X298341Y209142D01*
X298497Y209337D01*
X298653Y209591D01*
X298809Y209903D01*
X298965Y210254D01*
X300584Y210040D01*
Y210020D01*
X300565Y209981D01*
X300545Y209903D01*
X300506Y209805D01*
X300467Y209688D01*
X300409Y209552D01*
X300253Y209220D01*
X300058Y208869D01*
X299823Y208498D01*
X299511Y208128D01*
X299160Y207816D01*
X299141D01*
X299121Y207777D01*
X299063Y207738D01*
X298965Y207699D01*
X298868Y207640D01*
X298751Y207562D01*
X298614Y207504D01*
X298438Y207426D01*
X298068Y207289D01*
X297600Y207153D01*
X297092Y207074D01*
X296507Y207035D01*
X296312D01*
X296176Y207055D01*
X296000Y207074D01*
X295805Y207094D01*
X295590Y207133D01*
X295337Y207192D01*
X294830Y207348D01*
X294557Y207445D01*
X294303Y207562D01*
X294030Y207699D01*
X293776Y207874D01*
X293523Y208069D01*
X293288Y208284D01*
X293269Y208303D01*
X293230Y208342D01*
X293172Y208420D01*
X293113Y208518D01*
X293015Y208635D01*
X292918Y208791D01*
X292801Y208986D01*
X292703Y209201D01*
X292586Y209435D01*
X292469Y209688D01*
X292372Y209981D01*
X292294Y210293D01*
X292216Y210625D01*
X292157Y210995D01*
X292118Y211385D01*
X292099Y211795D01*
Y211815D01*
Y211893D01*
Y212029D01*
X292118Y212185D01*
X292138Y212380D01*
X292157Y212614D01*
X292196Y212868D01*
X292255Y213141D01*
X292391Y213726D01*
X292489Y214019D01*
X292606Y214331D01*
X292742Y214624D01*
X292898Y214916D01*
X293074Y215189D01*
X293288Y215443D01*
X293308Y215462D01*
X293347Y215502D01*
X293406Y215560D01*
X293503Y215658D01*
X293620Y215755D01*
X293776Y215853D01*
X293932Y215970D01*
X294127Y216106D01*
X294342Y216223D01*
X294576Y216340D01*
X294830Y216438D01*
X295122Y216555D01*
X295415Y216633D01*
X295727Y216691D01*
X296059Y216730D01*
X296410Y216750D01*
X296585D01*
X296722Y216730D01*
D02*
G37*
G36*
X273820D02*
X273996Y216711D01*
X274172Y216691D01*
X274386Y216653D01*
X274620Y216594D01*
X275108Y216438D01*
X275361Y216340D01*
X275634Y216223D01*
X275888Y216067D01*
X276142Y215892D01*
X276395Y215697D01*
X276629Y215482D01*
X276649Y215462D01*
X276688Y215424D01*
X276746Y215345D01*
X276824Y215248D01*
X276922Y215131D01*
X277020Y214975D01*
X277137Y214780D01*
X277254Y214585D01*
X277351Y214351D01*
X277468Y214077D01*
X277566Y213804D01*
X277663Y213492D01*
X277741Y213161D01*
X277800Y212790D01*
X277839Y212419D01*
X277858Y212010D01*
Y211990D01*
Y211932D01*
Y211834D01*
Y211717D01*
X277839Y211561D01*
Y211385D01*
X277819Y211190D01*
X277800Y210976D01*
X277722Y210527D01*
X277624Y210059D01*
X277488Y209591D01*
X277312Y209181D01*
Y209162D01*
X277293Y209142D01*
X277215Y209006D01*
X277078Y208830D01*
X276903Y208596D01*
X276688Y208342D01*
X276415Y208089D01*
X276103Y207835D01*
X275732Y207601D01*
X275713D01*
X275693Y207582D01*
X275634Y207543D01*
X275557Y207523D01*
X275342Y207426D01*
X275069Y207328D01*
X274737Y207211D01*
X274367Y207133D01*
X273957Y207055D01*
X273508Y207035D01*
X273313D01*
X273177Y207055D01*
X273021Y207074D01*
X272826Y207094D01*
X272611Y207133D01*
X272377Y207192D01*
X271889Y207348D01*
X271616Y207445D01*
X271362Y207562D01*
X271089Y207699D01*
X270836Y207874D01*
X270582Y208069D01*
X270348Y208284D01*
X270329Y208303D01*
X270290Y208342D01*
X270231Y208420D01*
X270173Y208518D01*
X270075Y208654D01*
X269977Y208811D01*
X269860Y208986D01*
X269763Y209201D01*
X269646Y209454D01*
X269529Y209708D01*
X269431Y210020D01*
X269353Y210332D01*
X269275Y210683D01*
X269217Y211054D01*
X269178Y211464D01*
X269158Y211893D01*
Y211932D01*
Y212010D01*
X269178Y212146D01*
Y212322D01*
X269197Y212537D01*
X269236Y212771D01*
X269275Y213044D01*
X269334Y213336D01*
X269412Y213648D01*
X269509Y213960D01*
X269626Y214273D01*
X269763Y214585D01*
X269919Y214897D01*
X270114Y215189D01*
X270329Y215462D01*
X270582Y215716D01*
X270602Y215736D01*
X270641Y215755D01*
X270699Y215814D01*
X270797Y215872D01*
X270914Y215950D01*
X271050Y216048D01*
X271206Y216145D01*
X271402Y216243D01*
X271597Y216321D01*
X271811Y216418D01*
X272318Y216594D01*
X272884Y216711D01*
X273196Y216730D01*
X273508Y216750D01*
X273684D01*
X273820Y216730D01*
D02*
G37*
G36*
X253923D02*
X254099Y216711D01*
X254274Y216691D01*
X254489Y216653D01*
X254723Y216594D01*
X255210Y216438D01*
X255464Y216340D01*
X255737Y216223D01*
X255991Y216067D01*
X256244Y215892D01*
X256498Y215697D01*
X256732Y215482D01*
X256752Y215462D01*
X256791Y215424D01*
X256849Y215345D01*
X256927Y215248D01*
X257025Y215131D01*
X257122Y214975D01*
X257239Y214780D01*
X257356Y214585D01*
X257454Y214351D01*
X257571Y214077D01*
X257668Y213804D01*
X257766Y213492D01*
X257844Y213161D01*
X257903Y212790D01*
X257941Y212419D01*
X257961Y212010D01*
Y211990D01*
Y211932D01*
Y211834D01*
Y211717D01*
X257941Y211561D01*
Y211385D01*
X257922Y211190D01*
X257903Y210976D01*
X257824Y210527D01*
X257727Y210059D01*
X257590Y209591D01*
X257415Y209181D01*
Y209162D01*
X257395Y209142D01*
X257317Y209006D01*
X257181Y208830D01*
X257005Y208596D01*
X256791Y208342D01*
X256518Y208089D01*
X256205Y207835D01*
X255835Y207601D01*
X255815D01*
X255796Y207582D01*
X255737Y207543D01*
X255659Y207523D01*
X255445Y207426D01*
X255172Y207328D01*
X254840Y207211D01*
X254469Y207133D01*
X254060Y207055D01*
X253611Y207035D01*
X253416D01*
X253279Y207055D01*
X253123Y207074D01*
X252928Y207094D01*
X252714Y207133D01*
X252479Y207192D01*
X251992Y207348D01*
X251719Y207445D01*
X251465Y207562D01*
X251192Y207699D01*
X250938Y207874D01*
X250685Y208069D01*
X250451Y208284D01*
X250431Y208303D01*
X250392Y208342D01*
X250334Y208420D01*
X250275Y208518D01*
X250178Y208654D01*
X250080Y208811D01*
X249963Y208986D01*
X249865Y209201D01*
X249748Y209454D01*
X249631Y209708D01*
X249534Y210020D01*
X249456Y210332D01*
X249378Y210683D01*
X249319Y211054D01*
X249280Y211464D01*
X249261Y211893D01*
Y211932D01*
Y212010D01*
X249280Y212146D01*
Y212322D01*
X249300Y212537D01*
X249339Y212771D01*
X249378Y213044D01*
X249436Y213336D01*
X249514Y213648D01*
X249612Y213960D01*
X249729Y214273D01*
X249865Y214585D01*
X250022Y214897D01*
X250217Y215189D01*
X250431Y215462D01*
X250685Y215716D01*
X250704Y215736D01*
X250743Y215755D01*
X250802Y215814D01*
X250899Y215872D01*
X251016Y215950D01*
X251153Y216048D01*
X251309Y216145D01*
X251504Y216243D01*
X251699Y216321D01*
X251914Y216418D01*
X252421Y216594D01*
X252987Y216711D01*
X253299Y216730D01*
X253611Y216750D01*
X253787D01*
X253923Y216730D01*
D02*
G37*
G36*
X374263Y220105D02*
X374497Y220066D01*
X374770Y220027D01*
X375082Y219949D01*
X375394Y219832D01*
X375687Y219696D01*
X375726Y219676D01*
X375824Y219618D01*
X375960Y219520D01*
X376155Y219403D01*
X376350Y219227D01*
X376565Y219013D01*
X376779Y218779D01*
X376974Y218506D01*
X376994Y218467D01*
X377052Y218369D01*
X377150Y218193D01*
X377267Y217979D01*
X377384Y217706D01*
X377521Y217374D01*
X377657Y217004D01*
X377774Y216594D01*
Y216574D01*
X377794Y216535D01*
Y216477D01*
X377813Y216379D01*
X377852Y216282D01*
X377872Y216145D01*
X377891Y215970D01*
X377930Y215794D01*
X377950Y215580D01*
X377969Y215365D01*
X378008Y215111D01*
X378028Y214838D01*
X378047Y214546D01*
Y214253D01*
X378067Y213570D01*
Y213551D01*
Y213473D01*
Y213356D01*
Y213200D01*
X378047Y213005D01*
Y212790D01*
X378028Y212537D01*
X378008Y212263D01*
X377950Y211678D01*
X377872Y211073D01*
X377755Y210469D01*
X377677Y210196D01*
X377599Y209923D01*
Y209903D01*
X377579Y209864D01*
X377560Y209786D01*
X377521Y209688D01*
X377462Y209571D01*
X377404Y209454D01*
X377248Y209142D01*
X377052Y208791D01*
X376818Y208440D01*
X376545Y208089D01*
X376214Y207777D01*
X376194D01*
X376175Y207738D01*
X376116Y207718D01*
X376058Y207660D01*
X375843Y207543D01*
X375589Y207406D01*
X375238Y207269D01*
X374848Y207153D01*
X374399Y207074D01*
X373892Y207035D01*
X373717D01*
X373580Y207055D01*
X373424Y207074D01*
X373249Y207113D01*
X373054Y207153D01*
X372839Y207192D01*
X372371Y207348D01*
X372117Y207465D01*
X371883Y207582D01*
X371629Y207738D01*
X371395Y207913D01*
X371181Y208108D01*
X370966Y208342D01*
X370947Y208362D01*
X370908Y208420D01*
X370849Y208518D01*
X370771Y208654D01*
X370674Y208830D01*
X370576Y209045D01*
X370459Y209298D01*
X370342Y209610D01*
X370225Y209942D01*
X370108Y210332D01*
X370010Y210761D01*
X369913Y211229D01*
X369835Y211756D01*
X369776Y212302D01*
X369737Y212927D01*
X369718Y213570D01*
Y213590D01*
Y213668D01*
Y213785D01*
Y213941D01*
X369737Y214136D01*
Y214351D01*
X369757Y214604D01*
X369776Y214877D01*
X369835Y215462D01*
X369913Y216067D01*
X370010Y216672D01*
X370088Y216945D01*
X370166Y217218D01*
Y217238D01*
X370186Y217277D01*
X370225Y217355D01*
X370264Y217452D01*
X370303Y217569D01*
X370362Y217706D01*
X370518Y218018D01*
X370713Y218369D01*
X370947Y218720D01*
X371220Y219052D01*
X371551Y219364D01*
X371571D01*
X371590Y219403D01*
X371649Y219442D01*
X371727Y219481D01*
X371922Y219598D01*
X372195Y219754D01*
X372527Y219891D01*
X372936Y220008D01*
X373385Y220086D01*
X373892Y220125D01*
X374068D01*
X374263Y220105D01*
D02*
G37*
G36*
X365699Y207250D02*
X364119D01*
Y217277D01*
X364100Y217257D01*
X364022Y217179D01*
X363885Y217082D01*
X363709Y216945D01*
X363495Y216770D01*
X363241Y216594D01*
X362949Y216379D01*
X362617Y216184D01*
X362598D01*
X362578Y216165D01*
X362461Y216087D01*
X362285Y215989D01*
X362071Y215872D01*
X361817Y215736D01*
X361544Y215619D01*
X361252Y215482D01*
X360979Y215365D01*
Y216906D01*
X360998D01*
X361037Y216926D01*
X361115Y216965D01*
X361193Y217023D01*
X361310Y217082D01*
X361447Y217140D01*
X361759Y217316D01*
X362110Y217530D01*
X362500Y217784D01*
X362890Y218076D01*
X363261Y218389D01*
X363280Y218408D01*
X363300Y218428D01*
X363417Y218545D01*
X363592Y218720D01*
X363807Y218935D01*
X364041Y219208D01*
X364275Y219501D01*
X364490Y219813D01*
X364665Y220125D01*
X365699D01*
Y207250D01*
D02*
G37*
G36*
X339852D02*
X338272D01*
Y217277D01*
X338253Y217257D01*
X338175Y217179D01*
X338038Y217082D01*
X337863Y216945D01*
X337648Y216770D01*
X337394Y216594D01*
X337102Y216379D01*
X336770Y216184D01*
X336751D01*
X336731Y216165D01*
X336614Y216087D01*
X336438Y215989D01*
X336224Y215872D01*
X335970Y215736D01*
X335697Y215619D01*
X335405Y215482D01*
X335131Y215365D01*
Y216906D01*
X335151D01*
X335190Y216926D01*
X335268Y216965D01*
X335346Y217023D01*
X335463Y217082D01*
X335600Y217140D01*
X335912Y217316D01*
X336263Y217530D01*
X336653Y217784D01*
X337043Y218076D01*
X337414Y218389D01*
X337433Y218408D01*
X337453Y218428D01*
X337570Y218545D01*
X337746Y218720D01*
X337960Y218935D01*
X338194Y219208D01*
X338428Y219501D01*
X338643Y219813D01*
X338818Y220125D01*
X339852D01*
Y207250D01*
D02*
G37*
G36*
X234279Y216730D02*
X234552Y216711D01*
X234865Y216672D01*
X235196Y216633D01*
X235508Y216555D01*
X235801Y216457D01*
X235840Y216438D01*
X235918Y216418D01*
X236054Y216340D01*
X236210Y216262D01*
X236386Y216165D01*
X236581Y216048D01*
X236737Y215911D01*
X236893Y215755D01*
X236913Y215736D01*
X236952Y215677D01*
X237010Y215599D01*
X237088Y215462D01*
X237166Y215306D01*
X237244Y215131D01*
X237322Y214916D01*
X237381Y214682D01*
Y214663D01*
X237400Y214604D01*
X237420Y214507D01*
X237439Y214351D01*
Y214156D01*
X237459Y213902D01*
X237478Y213609D01*
Y213239D01*
Y211132D01*
Y211112D01*
Y211034D01*
Y210917D01*
Y210781D01*
Y210605D01*
Y210410D01*
X237498Y209961D01*
Y209474D01*
X237518Y209025D01*
X237537Y208811D01*
Y208635D01*
X237556Y208479D01*
X237576Y208342D01*
Y208323D01*
X237596Y208245D01*
X237615Y208128D01*
X237654Y207991D01*
X237712Y207835D01*
X237791Y207640D01*
X237966Y207250D01*
X236327D01*
X236308Y207269D01*
X236289Y207328D01*
X236250Y207445D01*
X236191Y207582D01*
X236132Y207757D01*
X236093Y207952D01*
X236054Y208167D01*
X236015Y208420D01*
X235976Y208381D01*
X235859Y208303D01*
X235703Y208167D01*
X235469Y208011D01*
X235216Y207816D01*
X234923Y207640D01*
X234630Y207484D01*
X234318Y207348D01*
X234279Y207328D01*
X234182Y207309D01*
X234026Y207250D01*
X233811Y207192D01*
X233538Y207133D01*
X233245Y207094D01*
X232933Y207055D01*
X232582Y207035D01*
X232446D01*
X232328Y207055D01*
X232211D01*
X232055Y207074D01*
X231724Y207133D01*
X231334Y207211D01*
X230963Y207348D01*
X230573Y207523D01*
X230241Y207777D01*
X230202Y207816D01*
X230105Y207913D01*
X229988Y208069D01*
X229832Y208303D01*
X229676Y208577D01*
X229559Y208889D01*
X229461Y209279D01*
X229422Y209688D01*
Y209727D01*
Y209805D01*
X229442Y209942D01*
X229461Y210098D01*
X229500Y210293D01*
X229539Y210508D01*
X229617Y210722D01*
X229715Y210937D01*
X229734Y210956D01*
X229773Y211034D01*
X229832Y211132D01*
X229929Y211269D01*
X230046Y211405D01*
X230202Y211561D01*
X230358Y211698D01*
X230534Y211834D01*
X230553Y211854D01*
X230631Y211893D01*
X230729Y211951D01*
X230865Y212029D01*
X231041Y212127D01*
X231217Y212205D01*
X231431Y212283D01*
X231665Y212361D01*
X231685D01*
X231763Y212380D01*
X231860Y212400D01*
X232016Y212439D01*
X232211Y212478D01*
X232465Y212517D01*
X232738Y212556D01*
X233070Y212595D01*
X233089D01*
X233148Y212614D01*
X233245D01*
X233382Y212634D01*
X233538Y212654D01*
X233714Y212673D01*
X234143Y212751D01*
X234591Y212829D01*
X235060Y212907D01*
X235508Y213024D01*
X235703Y213083D01*
X235879Y213141D01*
Y213161D01*
Y213200D01*
X235898Y213317D01*
Y213453D01*
Y213512D01*
Y213551D01*
Y213570D01*
Y213590D01*
Y213707D01*
X235879Y213883D01*
X235840Y214077D01*
X235781Y214292D01*
X235703Y214526D01*
X235606Y214721D01*
X235450Y214897D01*
X235430Y214916D01*
X235333Y214975D01*
X235196Y215072D01*
X235001Y215170D01*
X234747Y215268D01*
X234435Y215365D01*
X234065Y215424D01*
X233655Y215443D01*
X233479D01*
X233284Y215424D01*
X233031Y215404D01*
X232758Y215345D01*
X232504Y215287D01*
X232231Y215189D01*
X232016Y215053D01*
X231997Y215033D01*
X231938Y214975D01*
X231841Y214877D01*
X231724Y214741D01*
X231587Y214546D01*
X231470Y214312D01*
X231334Y214019D01*
X231236Y213687D01*
X229695Y213902D01*
Y213922D01*
X229715Y213941D01*
X229734Y214058D01*
X229793Y214234D01*
X229851Y214468D01*
X229949Y214721D01*
X230066Y214975D01*
X230202Y215248D01*
X230378Y215482D01*
X230397Y215502D01*
X230475Y215580D01*
X230573Y215697D01*
X230729Y215833D01*
X230924Y215970D01*
X231178Y216126D01*
X231451Y216282D01*
X231763Y216418D01*
X231782D01*
X231802Y216438D01*
X231860Y216457D01*
X231919Y216477D01*
X232114Y216516D01*
X232368Y216594D01*
X232680Y216653D01*
X233031Y216691D01*
X233440Y216730D01*
X233870Y216750D01*
X234065D01*
X234279Y216730D01*
D02*
G37*
G36*
X263719Y237761D02*
X263856D01*
X264187Y237722D01*
X264578Y237664D01*
X265007Y237586D01*
X265436Y237469D01*
X265846Y237313D01*
X265865D01*
X265884Y237293D01*
X265943Y237274D01*
X266021Y237235D01*
X266216Y237118D01*
X266470Y236981D01*
X266743Y236786D01*
X267016Y236552D01*
X267289Y236279D01*
X267523Y235967D01*
X267543Y235928D01*
X267621Y235811D01*
X267718Y235616D01*
X267816Y235381D01*
X267933Y235089D01*
X268050Y234738D01*
X268128Y234367D01*
X268167Y233957D01*
X266548Y233840D01*
Y233860D01*
Y233899D01*
X266528Y233957D01*
X266509Y234035D01*
X266470Y234250D01*
X266392Y234523D01*
X266275Y234816D01*
X266119Y235108D01*
X265904Y235401D01*
X265650Y235655D01*
X265611Y235674D01*
X265514Y235752D01*
X265338Y235850D01*
X265104Y235967D01*
X264792Y236084D01*
X264402Y236181D01*
X263953Y236259D01*
X263427Y236279D01*
X263173D01*
X263056Y236259D01*
X262900D01*
X262568Y236201D01*
X262198Y236142D01*
X261827Y236045D01*
X261476Y235908D01*
X261320Y235811D01*
X261183Y235713D01*
X261164Y235693D01*
X261086Y235616D01*
X260969Y235499D01*
X260852Y235323D01*
X260715Y235128D01*
X260618Y234894D01*
X260540Y234640D01*
X260501Y234347D01*
Y234308D01*
Y234230D01*
X260520Y234094D01*
X260559Y233938D01*
X260618Y233762D01*
X260715Y233567D01*
X260832Y233392D01*
X260988Y233216D01*
X261008Y233197D01*
X261105Y233138D01*
X261164Y233099D01*
X261242Y233041D01*
X261359Y233001D01*
X261495Y232943D01*
X261651Y232865D01*
X261827Y232787D01*
X262022Y232728D01*
X262256Y232650D01*
X262529Y232553D01*
X262822Y232475D01*
X263153Y232397D01*
X263524Y232299D01*
X263544D01*
X263622Y232280D01*
X263719Y232260D01*
X263856Y232221D01*
X264031Y232182D01*
X264226Y232124D01*
X264656Y232026D01*
X265124Y231890D01*
X265592Y231753D01*
X265826Y231695D01*
X266021Y231616D01*
X266216Y231539D01*
X266372Y231480D01*
X266392D01*
X266431Y231460D01*
X266470Y231422D01*
X266548Y231382D01*
X266743Y231265D01*
X266996Y231129D01*
X267269Y230934D01*
X267543Y230700D01*
X267796Y230446D01*
X268011Y230173D01*
X268030Y230134D01*
X268089Y230036D01*
X268186Y229880D01*
X268284Y229646D01*
X268382Y229393D01*
X268479Y229081D01*
X268538Y228729D01*
X268557Y228359D01*
Y228339D01*
Y228320D01*
Y228261D01*
Y228183D01*
X268518Y227988D01*
X268479Y227735D01*
X268421Y227442D01*
X268303Y227110D01*
X268167Y226759D01*
X267972Y226428D01*
X267952Y226389D01*
X267855Y226272D01*
X267738Y226115D01*
X267543Y225920D01*
X267309Y225686D01*
X267016Y225452D01*
X266665Y225238D01*
X266275Y225023D01*
X266255D01*
X266216Y225004D01*
X266158Y224984D01*
X266080Y224945D01*
X265982Y224906D01*
X265865Y224867D01*
X265553Y224789D01*
X265202Y224692D01*
X264773Y224613D01*
X264324Y224555D01*
X263817Y224535D01*
X263524D01*
X263388Y224555D01*
X263212D01*
X263017Y224574D01*
X262802Y224594D01*
X262354Y224653D01*
X261866Y224750D01*
X261378Y224867D01*
X260910Y225023D01*
X260891D01*
X260852Y225043D01*
X260793Y225082D01*
X260715Y225121D01*
X260501Y225238D01*
X260247Y225413D01*
X259935Y225628D01*
X259642Y225881D01*
X259330Y226194D01*
X259057Y226545D01*
Y226564D01*
X259037Y226584D01*
X258999Y226642D01*
X258960Y226720D01*
X258901Y226818D01*
X258842Y226935D01*
X258725Y227227D01*
X258608Y227559D01*
X258491Y227969D01*
X258413Y228398D01*
X258374Y228866D01*
X259974Y229003D01*
Y228983D01*
Y228964D01*
X259993Y228846D01*
X260032Y228671D01*
X260071Y228437D01*
X260149Y228183D01*
X260227Y227910D01*
X260345Y227657D01*
X260481Y227403D01*
X260501Y227383D01*
X260559Y227305D01*
X260657Y227188D01*
X260813Y227052D01*
X260988Y226896D01*
X261203Y226720D01*
X261476Y226564D01*
X261768Y226408D01*
X261788D01*
X261807Y226389D01*
X261925Y226350D01*
X262100Y226291D01*
X262354Y226232D01*
X262627Y226154D01*
X262978Y226096D01*
X263349Y226057D01*
X263739Y226038D01*
X263895D01*
X264090Y226057D01*
X264304Y226077D01*
X264578Y226096D01*
X264851Y226154D01*
X265143Y226213D01*
X265436Y226311D01*
X265475Y226330D01*
X265553Y226369D01*
X265690Y226428D01*
X265846Y226525D01*
X266041Y226642D01*
X266216Y226779D01*
X266392Y226935D01*
X266548Y227110D01*
X266567Y227130D01*
X266606Y227208D01*
X266665Y227305D01*
X266743Y227442D01*
X266801Y227598D01*
X266860Y227793D01*
X266899Y227988D01*
X266918Y228203D01*
Y228222D01*
Y228300D01*
X266899Y228417D01*
X266879Y228554D01*
X266840Y228729D01*
X266762Y228905D01*
X266684Y229081D01*
X266567Y229256D01*
X266548Y229276D01*
X266509Y229334D01*
X266411Y229412D01*
X266294Y229529D01*
X266138Y229646D01*
X265943Y229763D01*
X265690Y229900D01*
X265416Y230017D01*
X265397Y230036D01*
X265319Y230056D01*
X265163Y230095D01*
X265065Y230134D01*
X264948Y230173D01*
X264792Y230212D01*
X264636Y230251D01*
X264441Y230310D01*
X264246Y230368D01*
X264012Y230427D01*
X263739Y230485D01*
X263446Y230563D01*
X263134Y230641D01*
X263114D01*
X263056Y230661D01*
X262959Y230680D01*
X262841Y230719D01*
X262705Y230758D01*
X262549Y230797D01*
X262178Y230895D01*
X261768Y231031D01*
X261359Y231168D01*
X260988Y231304D01*
X260813Y231363D01*
X260676Y231441D01*
X260657D01*
X260637Y231460D01*
X260520Y231539D01*
X260364Y231636D01*
X260169Y231773D01*
X259935Y231948D01*
X259720Y232143D01*
X259506Y232377D01*
X259311Y232631D01*
X259291Y232670D01*
X259233Y232768D01*
X259174Y232904D01*
X259096Y233099D01*
X258999Y233333D01*
X258940Y233606D01*
X258881Y233918D01*
X258862Y234230D01*
Y234250D01*
Y234270D01*
Y234328D01*
Y234406D01*
X258901Y234582D01*
X258940Y234816D01*
X258999Y235108D01*
X259096Y235401D01*
X259233Y235732D01*
X259408Y236045D01*
Y236064D01*
X259428Y236084D01*
X259506Y236181D01*
X259642Y236337D01*
X259818Y236532D01*
X260032Y236727D01*
X260306Y236942D01*
X260637Y237157D01*
X261008Y237332D01*
X261027D01*
X261047Y237352D01*
X261105Y237371D01*
X261203Y237410D01*
X261300Y237430D01*
X261417Y237469D01*
X261691Y237566D01*
X262042Y237644D01*
X262432Y237703D01*
X262880Y237761D01*
X263349Y237781D01*
X263583D01*
X263719Y237761D01*
D02*
G37*
G36*
X284943Y234230D02*
X285216Y234211D01*
X285528Y234172D01*
X285860Y234133D01*
X286172Y234055D01*
X286465Y233957D01*
X286504Y233938D01*
X286582Y233918D01*
X286718Y233840D01*
X286874Y233762D01*
X287050Y233665D01*
X287245Y233548D01*
X287401Y233411D01*
X287557Y233255D01*
X287577Y233236D01*
X287616Y233177D01*
X287674Y233099D01*
X287752Y232962D01*
X287830Y232806D01*
X287908Y232631D01*
X287986Y232416D01*
X288045Y232182D01*
Y232163D01*
X288064Y232104D01*
X288084Y232007D01*
X288103Y231851D01*
Y231656D01*
X288123Y231402D01*
X288142Y231109D01*
Y230739D01*
Y228632D01*
Y228612D01*
Y228534D01*
Y228417D01*
Y228281D01*
Y228105D01*
Y227910D01*
X288162Y227461D01*
Y226974D01*
X288181Y226525D01*
X288201Y226311D01*
Y226135D01*
X288220Y225979D01*
X288240Y225842D01*
Y225823D01*
X288259Y225745D01*
X288279Y225628D01*
X288318Y225491D01*
X288376Y225335D01*
X288454Y225140D01*
X288630Y224750D01*
X286991D01*
X286972Y224769D01*
X286952Y224828D01*
X286913Y224945D01*
X286855Y225082D01*
X286796Y225257D01*
X286757Y225452D01*
X286718Y225667D01*
X286679Y225920D01*
X286640Y225881D01*
X286523Y225803D01*
X286367Y225667D01*
X286133Y225511D01*
X285879Y225316D01*
X285587Y225140D01*
X285294Y224984D01*
X284982Y224848D01*
X284943Y224828D01*
X284846Y224809D01*
X284690Y224750D01*
X284475Y224692D01*
X284202Y224633D01*
X283909Y224594D01*
X283597Y224555D01*
X283246Y224535D01*
X283109D01*
X282992Y224555D01*
X282875D01*
X282719Y224574D01*
X282388Y224633D01*
X281998Y224711D01*
X281627Y224848D01*
X281237Y225023D01*
X280905Y225277D01*
X280866Y225316D01*
X280769Y225413D01*
X280651Y225569D01*
X280495Y225803D01*
X280339Y226077D01*
X280222Y226389D01*
X280125Y226779D01*
X280086Y227188D01*
Y227227D01*
Y227305D01*
X280105Y227442D01*
X280125Y227598D01*
X280164Y227793D01*
X280203Y228008D01*
X280281Y228222D01*
X280378Y228437D01*
X280398Y228456D01*
X280437Y228534D01*
X280495Y228632D01*
X280593Y228769D01*
X280710Y228905D01*
X280866Y229061D01*
X281022Y229198D01*
X281198Y229334D01*
X281217Y229354D01*
X281295Y229393D01*
X281393Y229451D01*
X281529Y229529D01*
X281705Y229627D01*
X281880Y229705D01*
X282095Y229783D01*
X282329Y229861D01*
X282349D01*
X282427Y229880D01*
X282524Y229900D01*
X282680Y229939D01*
X282875Y229978D01*
X283129Y230017D01*
X283402Y230056D01*
X283734Y230095D01*
X283753D01*
X283812Y230114D01*
X283909D01*
X284046Y230134D01*
X284202Y230154D01*
X284377Y230173D01*
X284806Y230251D01*
X285255Y230329D01*
X285723Y230407D01*
X286172Y230524D01*
X286367Y230583D01*
X286543Y230641D01*
Y230661D01*
Y230700D01*
X286562Y230817D01*
Y230953D01*
Y231012D01*
Y231051D01*
Y231070D01*
Y231090D01*
Y231207D01*
X286543Y231382D01*
X286504Y231577D01*
X286445Y231792D01*
X286367Y232026D01*
X286270Y232221D01*
X286113Y232397D01*
X286094Y232416D01*
X285996Y232475D01*
X285860Y232572D01*
X285665Y232670D01*
X285411Y232768D01*
X285099Y232865D01*
X284729Y232924D01*
X284319Y232943D01*
X284143D01*
X283948Y232924D01*
X283695Y232904D01*
X283421Y232845D01*
X283168Y232787D01*
X282895Y232689D01*
X282680Y232553D01*
X282661Y232533D01*
X282602Y232475D01*
X282505Y232377D01*
X282388Y232241D01*
X282251Y232046D01*
X282134Y231812D01*
X281998Y231519D01*
X281900Y231187D01*
X280359Y231402D01*
Y231422D01*
X280378Y231441D01*
X280398Y231558D01*
X280456Y231734D01*
X280515Y231968D01*
X280613Y232221D01*
X280730Y232475D01*
X280866Y232748D01*
X281042Y232982D01*
X281061Y233001D01*
X281139Y233080D01*
X281237Y233197D01*
X281393Y233333D01*
X281588Y233470D01*
X281841Y233626D01*
X282115Y233782D01*
X282427Y233918D01*
X282446D01*
X282466Y233938D01*
X282524Y233957D01*
X282583Y233977D01*
X282778Y234016D01*
X283031Y234094D01*
X283344Y234153D01*
X283695Y234191D01*
X284104Y234230D01*
X284533Y234250D01*
X284729D01*
X284943Y234230D01*
D02*
G37*
G36*
X303631D02*
X303787Y234211D01*
X303982Y234191D01*
X304177Y234153D01*
X304411Y234094D01*
X304879Y233938D01*
X305133Y233840D01*
X305387Y233704D01*
X305640Y233567D01*
X305894Y233392D01*
X306128Y233197D01*
X306362Y232962D01*
X306381Y232943D01*
X306420Y232904D01*
X306479Y232826D01*
X306557Y232728D01*
X306635Y232592D01*
X306733Y232436D01*
X306850Y232260D01*
X306967Y232046D01*
X307064Y231792D01*
X307181Y231539D01*
X307279Y231246D01*
X307376Y230914D01*
X307435Y230583D01*
X307493Y230212D01*
X307532Y229822D01*
X307552Y229393D01*
Y229373D01*
Y229295D01*
Y229159D01*
X307532Y228983D01*
X300627D01*
Y228964D01*
Y228925D01*
X300646Y228827D01*
Y228729D01*
X300666Y228593D01*
X300685Y228456D01*
X300763Y228105D01*
X300880Y227735D01*
X301017Y227344D01*
X301232Y226954D01*
X301485Y226623D01*
X301524Y226584D01*
X301622Y226506D01*
X301797Y226369D01*
X302012Y226232D01*
X302304Y226077D01*
X302636Y225940D01*
X303007Y225862D01*
X303416Y225823D01*
X303572D01*
X303729Y225842D01*
X303924Y225881D01*
X304158Y225940D01*
X304411Y226018D01*
X304665Y226115D01*
X304899Y226272D01*
X304918Y226291D01*
X304996Y226369D01*
X305114Y226467D01*
X305250Y226642D01*
X305406Y226837D01*
X305562Y227091D01*
X305718Y227403D01*
X305874Y227754D01*
X307493Y227540D01*
Y227520D01*
X307474Y227481D01*
X307454Y227403D01*
X307415Y227305D01*
X307376Y227188D01*
X307318Y227052D01*
X307162Y226720D01*
X306967Y226369D01*
X306733Y225998D01*
X306420Y225628D01*
X306069Y225316D01*
X306050D01*
X306030Y225277D01*
X305972Y225238D01*
X305874Y225199D01*
X305777Y225140D01*
X305660Y225062D01*
X305523Y225004D01*
X305348Y224926D01*
X304977Y224789D01*
X304509Y224653D01*
X304002Y224574D01*
X303416Y224535D01*
X303221D01*
X303085Y224555D01*
X302909Y224574D01*
X302714Y224594D01*
X302500Y224633D01*
X302246Y224692D01*
X301739Y224848D01*
X301466Y224945D01*
X301212Y225062D01*
X300939Y225199D01*
X300685Y225374D01*
X300432Y225569D01*
X300198Y225784D01*
X300178Y225803D01*
X300139Y225842D01*
X300081Y225920D01*
X300022Y226018D01*
X299925Y226135D01*
X299827Y226291D01*
X299710Y226486D01*
X299613Y226701D01*
X299495Y226935D01*
X299378Y227188D01*
X299281Y227481D01*
X299203Y227793D01*
X299125Y228125D01*
X299066Y228495D01*
X299027Y228885D01*
X299008Y229295D01*
Y229315D01*
Y229393D01*
Y229529D01*
X299027Y229685D01*
X299047Y229880D01*
X299066Y230114D01*
X299105Y230368D01*
X299164Y230641D01*
X299300Y231226D01*
X299398Y231519D01*
X299515Y231831D01*
X299652Y232124D01*
X299808Y232416D01*
X299983Y232689D01*
X300198Y232943D01*
X300217Y232962D01*
X300256Y233001D01*
X300315Y233060D01*
X300412Y233158D01*
X300529Y233255D01*
X300685Y233353D01*
X300841Y233470D01*
X301036Y233606D01*
X301251Y233723D01*
X301485Y233840D01*
X301739Y233938D01*
X302031Y234055D01*
X302324Y234133D01*
X302636Y234191D01*
X302968Y234230D01*
X303319Y234250D01*
X303494D01*
X303631Y234230D01*
D02*
G37*
G36*
X237950D02*
X238126Y234211D01*
X238301Y234191D01*
X238516Y234153D01*
X238750Y234094D01*
X239238Y233938D01*
X239491Y233840D01*
X239764Y233723D01*
X240018Y233567D01*
X240272Y233392D01*
X240525Y233197D01*
X240759Y232982D01*
X240779Y232962D01*
X240818Y232924D01*
X240876Y232845D01*
X240954Y232748D01*
X241052Y232631D01*
X241149Y232475D01*
X241266Y232280D01*
X241383Y232085D01*
X241481Y231851D01*
X241598Y231577D01*
X241696Y231304D01*
X241793Y230992D01*
X241871Y230661D01*
X241930Y230290D01*
X241969Y229919D01*
X241988Y229510D01*
Y229490D01*
Y229432D01*
Y229334D01*
Y229217D01*
X241969Y229061D01*
Y228885D01*
X241949Y228690D01*
X241930Y228476D01*
X241852Y228027D01*
X241754Y227559D01*
X241618Y227091D01*
X241442Y226681D01*
Y226662D01*
X241423Y226642D01*
X241345Y226506D01*
X241208Y226330D01*
X241032Y226096D01*
X240818Y225842D01*
X240545Y225589D01*
X240233Y225335D01*
X239862Y225101D01*
X239842D01*
X239823Y225082D01*
X239764Y225043D01*
X239686Y225023D01*
X239472Y224926D01*
X239199Y224828D01*
X238867Y224711D01*
X238496Y224633D01*
X238087Y224555D01*
X237638Y224535D01*
X237443D01*
X237306Y224555D01*
X237150Y224574D01*
X236955Y224594D01*
X236741Y224633D01*
X236507Y224692D01*
X236019Y224848D01*
X235746Y224945D01*
X235492Y225062D01*
X235219Y225199D01*
X234966Y225374D01*
X234712Y225569D01*
X234478Y225784D01*
X234458Y225803D01*
X234419Y225842D01*
X234361Y225920D01*
X234302Y226018D01*
X234205Y226154D01*
X234107Y226311D01*
X233990Y226486D01*
X233893Y226701D01*
X233776Y226954D01*
X233659Y227208D01*
X233561Y227520D01*
X233483Y227832D01*
X233405Y228183D01*
X233347Y228554D01*
X233307Y228964D01*
X233288Y229393D01*
Y229432D01*
Y229510D01*
X233307Y229646D01*
Y229822D01*
X233327Y230036D01*
X233366Y230271D01*
X233405Y230544D01*
X233464Y230836D01*
X233542Y231148D01*
X233639Y231460D01*
X233756Y231773D01*
X233893Y232085D01*
X234049Y232397D01*
X234244Y232689D01*
X234458Y232962D01*
X234712Y233216D01*
X234732Y233236D01*
X234771Y233255D01*
X234829Y233314D01*
X234927Y233372D01*
X235044Y233450D01*
X235180Y233548D01*
X235336Y233645D01*
X235531Y233743D01*
X235726Y233821D01*
X235941Y233918D01*
X236448Y234094D01*
X237014Y234211D01*
X237326Y234230D01*
X237638Y234250D01*
X237814D01*
X237950Y234230D01*
D02*
G37*
G36*
X294560D02*
X294697D01*
X294833Y234211D01*
X295184Y234153D01*
X295574Y234055D01*
X296004Y233918D01*
X296413Y233723D01*
X296784Y233470D01*
X296803D01*
X296823Y233431D01*
X296940Y233333D01*
X297096Y233158D01*
X297291Y232924D01*
X297506Y232611D01*
X297701Y232241D01*
X297876Y231792D01*
X298013Y231304D01*
X296491Y231070D01*
Y231090D01*
X296472Y231109D01*
X296452Y231226D01*
X296394Y231382D01*
X296316Y231597D01*
X296199Y231831D01*
X296062Y232065D01*
X295906Y232280D01*
X295711Y232475D01*
X295692Y232494D01*
X295613Y232553D01*
X295497Y232631D01*
X295340Y232728D01*
X295145Y232806D01*
X294931Y232885D01*
X294658Y232943D01*
X294385Y232962D01*
X294268D01*
X294189Y232943D01*
X293975Y232924D01*
X293702Y232865D01*
X293390Y232748D01*
X293078Y232592D01*
X292746Y232397D01*
X292590Y232260D01*
X292453Y232104D01*
X292414Y232065D01*
X292395Y232007D01*
X292336Y231948D01*
X292278Y231851D01*
X292219Y231734D01*
X292161Y231597D01*
X292102Y231441D01*
X292024Y231265D01*
X291966Y231070D01*
X291907Y230836D01*
X291849Y230602D01*
X291790Y230329D01*
X291771Y230036D01*
X291732Y229724D01*
Y229393D01*
Y229373D01*
Y229315D01*
Y229217D01*
X291751Y229081D01*
Y228925D01*
X291771Y228749D01*
X291829Y228359D01*
X291907Y227910D01*
X292024Y227442D01*
X292200Y227032D01*
X292317Y226837D01*
X292434Y226662D01*
X292473Y226623D01*
X292570Y226525D01*
X292726Y226389D01*
X292941Y226252D01*
X293195Y226096D01*
X293526Y225959D01*
X293877Y225862D01*
X294072Y225842D01*
X294287Y225823D01*
X294443D01*
X294619Y225862D01*
X294833Y225901D01*
X295067Y225959D01*
X295340Y226057D01*
X295594Y226194D01*
X295828Y226389D01*
X295848Y226408D01*
X295926Y226506D01*
X296043Y226623D01*
X296160Y226818D01*
X296296Y227071D01*
X296433Y227364D01*
X296550Y227735D01*
X296628Y228144D01*
X298169Y227930D01*
Y227910D01*
X298149Y227852D01*
X298130Y227774D01*
X298110Y227676D01*
X298071Y227540D01*
X298032Y227383D01*
X297915Y227013D01*
X297740Y226623D01*
X297506Y226194D01*
X297213Y225803D01*
X296862Y225433D01*
X296842D01*
X296823Y225394D01*
X296764Y225355D01*
X296686Y225296D01*
X296569Y225218D01*
X296452Y225140D01*
X296160Y224984D01*
X295789Y224828D01*
X295340Y224672D01*
X294853Y224574D01*
X294580Y224555D01*
X294307Y224535D01*
X294131D01*
X293994Y224555D01*
X293838Y224574D01*
X293643Y224594D01*
X293448Y224633D01*
X293214Y224692D01*
X292726Y224828D01*
X292473Y224945D01*
X292219Y225062D01*
X291966Y225199D01*
X291732Y225355D01*
X291497Y225550D01*
X291263Y225764D01*
X291244Y225784D01*
X291205Y225823D01*
X291166Y225901D01*
X291088Y225998D01*
X290990Y226135D01*
X290893Y226291D01*
X290795Y226467D01*
X290698Y226681D01*
X290581Y226915D01*
X290483Y227188D01*
X290386Y227481D01*
X290288Y227813D01*
X290210Y228144D01*
X290171Y228534D01*
X290132Y228925D01*
X290112Y229354D01*
Y229373D01*
Y229412D01*
Y229510D01*
Y229607D01*
X290132Y229744D01*
Y229880D01*
X290171Y230251D01*
X290229Y230661D01*
X290327Y231090D01*
X290444Y231558D01*
X290600Y231987D01*
Y232007D01*
X290620Y232046D01*
X290659Y232104D01*
X290698Y232182D01*
X290815Y232377D01*
X290971Y232631D01*
X291185Y232904D01*
X291439Y233177D01*
X291751Y233450D01*
X292102Y233684D01*
X292122D01*
X292141Y233704D01*
X292200Y233743D01*
X292278Y233782D01*
X292492Y233860D01*
X292766Y233977D01*
X293078Y234074D01*
X293468Y234172D01*
X293877Y234230D01*
X294307Y234250D01*
X294463D01*
X294560Y234230D01*
D02*
G37*
G36*
X226500Y237761D02*
X226656D01*
X226987Y237722D01*
X227358Y237664D01*
X227787Y237586D01*
X228216Y237469D01*
X228645Y237313D01*
X228665D01*
X228704Y237293D01*
X228762Y237274D01*
X228840Y237235D01*
X229035Y237137D01*
X229289Y236981D01*
X229582Y236805D01*
X229874Y236591D01*
X230167Y236357D01*
X230420Y236064D01*
X230440Y236025D01*
X230518Y235928D01*
X230635Y235752D01*
X230791Y235499D01*
X230947Y235206D01*
X231103Y234855D01*
X231259Y234445D01*
X231396Y233977D01*
X229855Y233548D01*
Y233567D01*
X229835Y233587D01*
X229816Y233704D01*
X229738Y233879D01*
X229660Y234114D01*
X229562Y234347D01*
X229445Y234601D01*
X229308Y234855D01*
X229153Y235089D01*
X229133Y235108D01*
X229074Y235186D01*
X228977Y235284D01*
X228840Y235420D01*
X228665Y235557D01*
X228450Y235713D01*
X228216Y235850D01*
X227924Y235986D01*
X227885Y236006D01*
X227787Y236045D01*
X227611Y236103D01*
X227397Y236162D01*
X227143Y236220D01*
X226851Y236279D01*
X226519Y236318D01*
X226168Y236337D01*
X225973D01*
X225758Y236318D01*
X225485Y236298D01*
X225173Y236240D01*
X224822Y236181D01*
X224490Y236084D01*
X224159Y235967D01*
X224120Y235947D01*
X224022Y235908D01*
X223866Y235830D01*
X223671Y235713D01*
X223456Y235576D01*
X223222Y235420D01*
X223008Y235245D01*
X222793Y235030D01*
X222774Y235011D01*
X222715Y234933D01*
X222618Y234816D01*
X222500Y234660D01*
X222364Y234465D01*
X222227Y234250D01*
X222110Y234016D01*
X221993Y233762D01*
Y233743D01*
X221974Y233704D01*
X221954Y233645D01*
X221915Y233548D01*
X221876Y233450D01*
X221837Y233314D01*
X221759Y233001D01*
X221662Y232611D01*
X221584Y232182D01*
X221525Y231695D01*
X221506Y231187D01*
Y231168D01*
Y231109D01*
Y231031D01*
X221525Y230895D01*
Y230758D01*
X221545Y230583D01*
X221564Y230388D01*
X221584Y230193D01*
X221642Y229724D01*
X221759Y229237D01*
X221896Y228769D01*
X222091Y228300D01*
Y228281D01*
X222110Y228242D01*
X222149Y228183D01*
X222208Y228105D01*
X222344Y227910D01*
X222520Y227657D01*
X222754Y227383D01*
X223047Y227091D01*
X223398Y226818D01*
X223788Y226584D01*
X223808D01*
X223846Y226564D01*
X223905Y226525D01*
X223983Y226506D01*
X224081Y226467D01*
X224217Y226408D01*
X224510Y226311D01*
X224880Y226213D01*
X225271Y226115D01*
X225719Y226057D01*
X226187Y226038D01*
X226383D01*
X226597Y226057D01*
X226870Y226096D01*
X227182Y226135D01*
X227553Y226213D01*
X227943Y226311D01*
X228333Y226447D01*
X228353D01*
X228372Y226467D01*
X228431Y226486D01*
X228509Y226525D01*
X228704Y226603D01*
X228938Y226720D01*
X229191Y226857D01*
X229445Y227013D01*
X229699Y227188D01*
X229933Y227364D01*
Y229783D01*
X226168D01*
Y231285D01*
X231591D01*
Y226525D01*
X231571Y226506D01*
X231532Y226486D01*
X231474Y226428D01*
X231376Y226369D01*
X231259Y226272D01*
X231123Y226194D01*
X230791Y225959D01*
X230401Y225725D01*
X229972Y225472D01*
X229484Y225238D01*
X228996Y225023D01*
X228977D01*
X228938Y225004D01*
X228860Y224984D01*
X228762Y224945D01*
X228645Y224906D01*
X228509Y224867D01*
X228333Y224828D01*
X228158Y224789D01*
X227748Y224692D01*
X227299Y224613D01*
X226792Y224555D01*
X226285Y224535D01*
X226109D01*
X225973Y224555D01*
X225797D01*
X225602Y224574D01*
X225388Y224594D01*
X225154Y224633D01*
X224607Y224730D01*
X224042Y224867D01*
X223437Y225062D01*
X222852Y225335D01*
X222832Y225355D01*
X222793Y225374D01*
X222696Y225413D01*
X222598Y225491D01*
X222461Y225569D01*
X222325Y225667D01*
X221993Y225920D01*
X221603Y226252D01*
X221233Y226662D01*
X220862Y227130D01*
X220530Y227657D01*
Y227676D01*
X220491Y227735D01*
X220452Y227813D01*
X220413Y227930D01*
X220355Y228066D01*
X220277Y228242D01*
X220218Y228437D01*
X220140Y228671D01*
X220062Y228905D01*
X220004Y229178D01*
X219867Y229763D01*
X219789Y230407D01*
X219750Y231090D01*
Y231109D01*
Y231168D01*
Y231265D01*
X219769Y231402D01*
Y231577D01*
X219789Y231773D01*
X219809Y231987D01*
X219848Y232221D01*
X219945Y232768D01*
X220082Y233353D01*
X220277Y233977D01*
X220530Y234582D01*
Y234601D01*
X220569Y234660D01*
X220608Y234738D01*
X220667Y234855D01*
X220764Y234991D01*
X220862Y235128D01*
X221096Y235499D01*
X221428Y235889D01*
X221798Y236279D01*
X222266Y236649D01*
X222500Y236825D01*
X222774Y236981D01*
X222793D01*
X222832Y237020D01*
X222930Y237059D01*
X223027Y237098D01*
X223164Y237176D01*
X223339Y237235D01*
X223534Y237313D01*
X223749Y237391D01*
X223983Y237449D01*
X224237Y237527D01*
X224822Y237664D01*
X225446Y237742D01*
X226148Y237781D01*
X226383D01*
X226500Y237761D01*
D02*
G37*
G36*
X275209Y234211D02*
X275482Y234172D01*
X275814Y234094D01*
X276165Y233996D01*
X276516Y233840D01*
X276867Y233626D01*
X276887D01*
X276906Y233606D01*
X277023Y233509D01*
X277179Y233372D01*
X277394Y233177D01*
X277608Y232943D01*
X277842Y232631D01*
X278057Y232299D01*
X278252Y231890D01*
Y231870D01*
X278272Y231831D01*
X278291Y231773D01*
X278330Y231695D01*
X278369Y231597D01*
X278408Y231460D01*
X278486Y231168D01*
X278564Y230797D01*
X278642Y230388D01*
X278701Y229939D01*
X278720Y229451D01*
Y229432D01*
Y229393D01*
Y229315D01*
Y229217D01*
X278701Y229081D01*
Y228944D01*
X278662Y228593D01*
X278584Y228203D01*
X278506Y227774D01*
X278369Y227325D01*
X278194Y226876D01*
Y226857D01*
X278174Y226818D01*
X278135Y226759D01*
X278096Y226681D01*
X277979Y226486D01*
X277823Y226232D01*
X277608Y225959D01*
X277355Y225667D01*
X277062Y225394D01*
X276711Y225140D01*
X276691D01*
X276672Y225121D01*
X276614Y225082D01*
X276535Y225043D01*
X276340Y224945D01*
X276087Y224848D01*
X275775Y224730D01*
X275443Y224633D01*
X275053Y224555D01*
X274663Y224535D01*
X274526D01*
X274390Y224555D01*
X274195Y224574D01*
X273980Y224613D01*
X273746Y224672D01*
X273492Y224750D01*
X273258Y224848D01*
X273239Y224867D01*
X273161Y224906D01*
X273044Y224984D01*
X272907Y225082D01*
X272732Y225199D01*
X272575Y225335D01*
X272400Y225511D01*
X272244Y225686D01*
Y221200D01*
X270664D01*
Y234035D01*
X272107D01*
Y232826D01*
X272127Y232865D01*
X272185Y232943D01*
X272302Y233060D01*
X272439Y233216D01*
X272595Y233392D01*
X272790Y233567D01*
X273005Y233743D01*
X273239Y233879D01*
X273278Y233899D01*
X273356Y233938D01*
X273492Y233996D01*
X273668Y234074D01*
X273902Y234133D01*
X274156Y234191D01*
X274448Y234230D01*
X274780Y234250D01*
X274975D01*
X275209Y234211D01*
D02*
G37*
G36*
X253790Y234230D02*
X253907D01*
X254044Y234211D01*
X254336Y234153D01*
X254687Y234055D01*
X255039Y233918D01*
X255370Y233723D01*
X255682Y233470D01*
X255721Y233431D01*
X255799Y233333D01*
X255916Y233138D01*
X256072Y232885D01*
X256209Y232553D01*
X256326Y232163D01*
X256404Y231675D01*
X256443Y231402D01*
Y231109D01*
Y224750D01*
X254863D01*
Y230583D01*
Y230602D01*
Y230622D01*
Y230739D01*
Y230914D01*
X254844Y231109D01*
X254804Y231558D01*
X254765Y231773D01*
X254707Y231948D01*
Y231968D01*
X254668Y232026D01*
X254629Y232104D01*
X254570Y232202D01*
X254492Y232299D01*
X254395Y232416D01*
X254278Y232533D01*
X254141Y232631D01*
X254122Y232650D01*
X254063Y232670D01*
X253985Y232709D01*
X253888Y232768D01*
X253751Y232806D01*
X253575Y232845D01*
X253400Y232865D01*
X253205Y232885D01*
X253049D01*
X252854Y232845D01*
X252639Y232806D01*
X252386Y232728D01*
X252112Y232611D01*
X251820Y232436D01*
X251566Y232221D01*
X251547Y232182D01*
X251469Y232104D01*
X251371Y231948D01*
X251254Y231714D01*
X251118Y231422D01*
X251020Y231070D01*
X250942Y230641D01*
X250923Y230134D01*
Y224750D01*
X249342D01*
Y230778D01*
Y230797D01*
Y230817D01*
Y230875D01*
Y230953D01*
X249323Y231148D01*
X249303Y231363D01*
X249245Y231636D01*
X249186Y231890D01*
X249089Y232143D01*
X248952Y232358D01*
X248933Y232377D01*
X248874Y232436D01*
X248796Y232533D01*
X248660Y232631D01*
X248484Y232709D01*
X248270Y232806D01*
X248016Y232865D01*
X247704Y232885D01*
X247587D01*
X247470Y232865D01*
X247294Y232845D01*
X247119Y232806D01*
X246904Y232728D01*
X246689Y232650D01*
X246475Y232533D01*
X246455Y232514D01*
X246377Y232475D01*
X246280Y232377D01*
X246163Y232280D01*
X246026Y232124D01*
X245890Y231948D01*
X245773Y231734D01*
X245656Y231500D01*
X245636Y231460D01*
X245617Y231382D01*
X245578Y231226D01*
X245539Y231012D01*
X245480Y230739D01*
X245441Y230407D01*
X245422Y230017D01*
X245402Y229568D01*
Y224750D01*
X243822D01*
Y234035D01*
X245226D01*
Y232728D01*
X245246Y232768D01*
X245304Y232845D01*
X245402Y232962D01*
X245539Y233119D01*
X245695Y233294D01*
X245890Y233470D01*
X246124Y233665D01*
X246377Y233821D01*
X246416Y233840D01*
X246514Y233879D01*
X246670Y233957D01*
X246865Y234035D01*
X247119Y234114D01*
X247392Y234191D01*
X247723Y234230D01*
X248055Y234250D01*
X248230D01*
X248426Y234230D01*
X248660Y234191D01*
X248913Y234153D01*
X249206Y234074D01*
X249479Y233957D01*
X249733Y233821D01*
X249772Y233801D01*
X249850Y233743D01*
X249967Y233645D01*
X250103Y233509D01*
X250259Y233333D01*
X250415Y233138D01*
X250552Y232885D01*
X250669Y232611D01*
X250688Y232631D01*
X250727Y232689D01*
X250786Y232768D01*
X250864Y232865D01*
X250981Y233001D01*
X251118Y233138D01*
X251274Y233275D01*
X251449Y233431D01*
X251644Y233587D01*
X251859Y233723D01*
X252366Y233996D01*
X252639Y234094D01*
X252932Y234172D01*
X253224Y234230D01*
X253556Y234250D01*
X253692D01*
X253790Y234230D01*
D02*
G37*
G36*
X358462Y211093D02*
X353644D01*
Y212673D01*
X358462D01*
Y211093D01*
D02*
G37*
G36*
X312718D02*
X307899D01*
Y212673D01*
X312718D01*
Y211093D01*
D02*
G37*
G36*
X288373Y207250D02*
X286754D01*
X285291Y212790D01*
X284920Y214390D01*
X283028Y207250D01*
X281350D01*
X278561Y216535D01*
X280219D01*
X281682Y211171D01*
X282208Y209181D01*
Y209201D01*
X282228Y209240D01*
X282248Y209318D01*
X282267Y209376D01*
X282286Y209474D01*
X282306Y209571D01*
X282345Y209708D01*
X282384Y209864D01*
X282423Y210040D01*
X282482Y210254D01*
X282540Y210508D01*
X282618Y210781D01*
X282696Y211093D01*
X284179Y216535D01*
X285778D01*
X287183Y211132D01*
X287631Y209357D01*
X288158Y211151D01*
X289777Y216535D01*
X291299D01*
X288373Y207250D01*
D02*
G37*
G36*
X224682Y216730D02*
X224877Y216711D01*
X225111Y216672D01*
X225384Y216614D01*
X225638Y216535D01*
X225911Y216438D01*
X225950Y216418D01*
X226028Y216379D01*
X226145Y216321D01*
X226301Y216223D01*
X226476Y216106D01*
X226652Y215970D01*
X226828Y215814D01*
X226964Y215638D01*
X226984Y215619D01*
X227023Y215560D01*
X227081Y215443D01*
X227159Y215306D01*
X227237Y215150D01*
X227315Y214955D01*
X227393Y214721D01*
X227452Y214487D01*
Y214468D01*
X227471Y214409D01*
X227491Y214292D01*
X227510Y214136D01*
Y213922D01*
X227530Y213648D01*
X227549Y213336D01*
Y212946D01*
Y207250D01*
X225969D01*
Y212888D01*
Y212907D01*
Y212927D01*
Y213044D01*
Y213219D01*
X225950Y213434D01*
X225930Y213648D01*
X225891Y213902D01*
X225833Y214116D01*
X225774Y214312D01*
Y214331D01*
X225735Y214390D01*
X225696Y214487D01*
X225638Y214585D01*
X225540Y214721D01*
X225423Y214838D01*
X225286Y214975D01*
X225130Y215092D01*
X225111Y215111D01*
X225052Y215131D01*
X224955Y215189D01*
X224818Y215248D01*
X224662Y215287D01*
X224467Y215345D01*
X224272Y215365D01*
X224038Y215385D01*
X223862D01*
X223687Y215345D01*
X223433Y215306D01*
X223160Y215228D01*
X222887Y215111D01*
X222575Y214955D01*
X222302Y214741D01*
X222263Y214702D01*
X222185Y214604D01*
X222068Y214448D01*
X222009Y214331D01*
X221951Y214195D01*
X221873Y214039D01*
X221814Y213863D01*
X221756Y213668D01*
X221697Y213453D01*
X221639Y213200D01*
X221619Y212927D01*
X221580Y212634D01*
Y212322D01*
Y207250D01*
X220000D01*
Y216535D01*
X221424D01*
Y215209D01*
X221444Y215228D01*
X221463Y215268D01*
X221522Y215345D01*
X221619Y215443D01*
X221717Y215560D01*
X221853Y215697D01*
X221990Y215833D01*
X222165Y215989D01*
X222380Y216126D01*
X222594Y216262D01*
X222829Y216399D01*
X223102Y216516D01*
X223375Y216614D01*
X223687Y216691D01*
X224018Y216730D01*
X224370Y216750D01*
X224506D01*
X224682Y216730D01*
D02*
G37*
G36*
X306261D02*
X306475Y216691D01*
X306709Y216614D01*
X306983Y216535D01*
X307275Y216399D01*
X307587Y216223D01*
X307022Y214780D01*
X307002Y214799D01*
X306924Y214838D01*
X306807Y214897D01*
X306670Y214955D01*
X306495Y215014D01*
X306300Y215072D01*
X306085Y215111D01*
X305871Y215131D01*
X305793D01*
X305695Y215111D01*
X305559Y215092D01*
X305422Y215053D01*
X305266Y214994D01*
X305110Y214916D01*
X304954Y214819D01*
X304934Y214799D01*
X304895Y214760D01*
X304817Y214682D01*
X304739Y214585D01*
X304642Y214468D01*
X304544Y214312D01*
X304466Y214136D01*
X304388Y213941D01*
X304369Y213902D01*
X304349Y213804D01*
X304310Y213629D01*
X304271Y213395D01*
X304213Y213122D01*
X304174Y212810D01*
X304154Y212478D01*
X304135Y212107D01*
Y207250D01*
X302554D01*
Y216535D01*
X303979D01*
Y215150D01*
X303998Y215170D01*
X304076Y215287D01*
X304174Y215462D01*
X304291Y215658D01*
X304447Y215872D01*
X304622Y216087D01*
X304778Y216282D01*
X304954Y216418D01*
X304973Y216438D01*
X305032Y216477D01*
X305129Y216516D01*
X305266Y216594D01*
X305403Y216653D01*
X305578Y216691D01*
X305773Y216730D01*
X305968Y216750D01*
X306105D01*
X306261Y216730D01*
D02*
G37*
G36*
X328363Y220105D02*
X328616Y220066D01*
X328909Y220008D01*
X329240Y219930D01*
X329572Y219813D01*
X329904Y219657D01*
X329923D01*
X329943Y219637D01*
X330060Y219579D01*
X330216Y219481D01*
X330411Y219345D01*
X330625Y219169D01*
X330859Y218954D01*
X331074Y218701D01*
X331269Y218428D01*
X331289Y218389D01*
X331347Y218291D01*
X331425Y218135D01*
X331503Y217940D01*
X331581Y217686D01*
X331659Y217413D01*
X331718Y217121D01*
X331737Y216789D01*
Y216750D01*
Y216653D01*
X331718Y216496D01*
X331679Y216301D01*
X331620Y216067D01*
X331542Y215814D01*
X331445Y215541D01*
X331289Y215287D01*
X331269Y215248D01*
X331211Y215170D01*
X331093Y215053D01*
X330957Y214897D01*
X330762Y214721D01*
X330547Y214546D01*
X330274Y214351D01*
X329962Y214195D01*
X329982D01*
X330021Y214175D01*
X330079D01*
X330157Y214136D01*
X330352Y214077D01*
X330606Y213960D01*
X330879Y213824D01*
X331171Y213629D01*
X331464Y213395D01*
X331718Y213102D01*
X331737Y213063D01*
X331815Y212946D01*
X331913Y212771D01*
X332049Y212537D01*
X332166Y212244D01*
X332264Y211893D01*
X332342Y211483D01*
X332361Y211034D01*
Y211015D01*
Y210956D01*
Y210878D01*
X332342Y210761D01*
X332322Y210605D01*
X332303Y210449D01*
X332264Y210254D01*
X332205Y210059D01*
X332069Y209610D01*
X331971Y209357D01*
X331835Y209123D01*
X331698Y208889D01*
X331542Y208654D01*
X331347Y208420D01*
X331133Y208186D01*
X331113Y208167D01*
X331074Y208128D01*
X331016Y208089D01*
X330918Y208011D01*
X330801Y207913D01*
X330645Y207816D01*
X330469Y207718D01*
X330294Y207621D01*
X330079Y207504D01*
X329845Y207406D01*
X329591Y207309D01*
X329318Y207211D01*
X329026Y207133D01*
X328714Y207094D01*
X328382Y207055D01*
X328050Y207035D01*
X327894D01*
X327777Y207055D01*
X327621Y207074D01*
X327465Y207094D01*
X327270Y207113D01*
X327075Y207153D01*
X326626Y207269D01*
X326158Y207465D01*
X325924Y207562D01*
X325709Y207699D01*
X325475Y207855D01*
X325261Y208030D01*
X325241Y208050D01*
X325222Y208069D01*
X325163Y208128D01*
X325085Y208206D01*
X325007Y208323D01*
X324910Y208440D01*
X324793Y208577D01*
X324695Y208733D01*
X324461Y209123D01*
X324266Y209571D01*
X324090Y210079D01*
X324032Y210352D01*
X323993Y210644D01*
X325573Y210859D01*
Y210839D01*
X325592Y210800D01*
Y210722D01*
X325631Y210644D01*
X325690Y210410D01*
X325788Y210118D01*
X325905Y209805D01*
X326061Y209474D01*
X326256Y209181D01*
X326470Y208928D01*
X326509Y208908D01*
X326587Y208830D01*
X326724Y208752D01*
X326919Y208635D01*
X327133Y208538D01*
X327407Y208440D01*
X327719Y208362D01*
X328050Y208342D01*
X328167D01*
X328245Y208362D01*
X328441Y208381D01*
X328694Y208440D01*
X329006Y208538D01*
X329318Y208654D01*
X329631Y208850D01*
X329923Y209103D01*
X329962Y209142D01*
X330040Y209240D01*
X330157Y209396D01*
X330313Y209630D01*
X330450Y209903D01*
X330567Y210235D01*
X330645Y210605D01*
X330684Y211015D01*
Y211034D01*
Y211054D01*
Y211112D01*
X330664Y211190D01*
X330645Y211385D01*
X330586Y211639D01*
X330508Y211912D01*
X330372Y212224D01*
X330196Y212517D01*
X329962Y212790D01*
X329923Y212829D01*
X329845Y212907D01*
X329689Y213005D01*
X329474Y213141D01*
X329221Y213278D01*
X328909Y213375D01*
X328577Y213453D01*
X328187Y213492D01*
X328011D01*
X327875Y213473D01*
X327719Y213453D01*
X327524Y213434D01*
X327309Y213395D01*
X327075Y213336D01*
X327251Y214721D01*
X327348D01*
X327426Y214702D01*
X327680D01*
X327855Y214721D01*
X328109Y214760D01*
X328382Y214819D01*
X328675Y214916D01*
X328987Y215033D01*
X329299Y215209D01*
X329338Y215228D01*
X329435Y215306D01*
X329552Y215443D01*
X329709Y215619D01*
X329865Y215833D01*
X329982Y216106D01*
X330079Y216438D01*
X330118Y216828D01*
Y216847D01*
Y216867D01*
Y216965D01*
X330079Y217121D01*
X330040Y217335D01*
X329982Y217550D01*
X329865Y217784D01*
X329728Y218037D01*
X329533Y218252D01*
X329513Y218272D01*
X329435Y218350D01*
X329299Y218447D01*
X329123Y218545D01*
X328909Y218662D01*
X328655Y218740D01*
X328363Y218818D01*
X328031Y218837D01*
X327875D01*
X327699Y218798D01*
X327504Y218759D01*
X327251Y218701D01*
X326997Y218584D01*
X326743Y218447D01*
X326490Y218252D01*
X326470Y218233D01*
X326392Y218155D01*
X326295Y218018D01*
X326178Y217823D01*
X326041Y217589D01*
X325924Y217296D01*
X325807Y216945D01*
X325729Y216535D01*
X324149Y216808D01*
Y216828D01*
X324168Y216887D01*
X324188Y216965D01*
X324207Y217062D01*
X324246Y217199D01*
X324286Y217355D01*
X324422Y217706D01*
X324578Y218096D01*
X324812Y218506D01*
X325085Y218896D01*
X325436Y219247D01*
X325456Y219266D01*
X325475Y219286D01*
X325534Y219325D01*
X325631Y219384D01*
X325729Y219442D01*
X325846Y219520D01*
X326139Y219696D01*
X326509Y219852D01*
X326958Y219988D01*
X327446Y220086D01*
X327719Y220125D01*
X328167D01*
X328363Y220105D01*
D02*
G37*
G36*
X351791Y207250D02*
X350386D01*
Y208596D01*
X350367Y208577D01*
X350328Y208538D01*
X350269Y208459D01*
X350191Y208362D01*
X350074Y208225D01*
X349938Y208108D01*
X349781Y207952D01*
X349606Y207816D01*
X349411Y207679D01*
X349196Y207523D01*
X348943Y207406D01*
X348689Y207289D01*
X348396Y207172D01*
X348104Y207094D01*
X347772Y207055D01*
X347440Y207035D01*
X347304D01*
X347148Y207055D01*
X346933Y207074D01*
X346699Y207113D01*
X346446Y207172D01*
X346173Y207250D01*
X345900Y207348D01*
X345860Y207367D01*
X345782Y207406D01*
X345665Y207465D01*
X345509Y207562D01*
X345334Y207679D01*
X345158Y207816D01*
X345002Y207952D01*
X344846Y208128D01*
X344827Y208147D01*
X344788Y208206D01*
X344729Y208323D01*
X344670Y208459D01*
X344573Y208635D01*
X344495Y208830D01*
X344417Y209045D01*
X344358Y209298D01*
Y209318D01*
X344339Y209396D01*
Y209493D01*
X344319Y209649D01*
X344300Y209864D01*
Y210118D01*
X344280Y210410D01*
Y210761D01*
Y216535D01*
X345860D01*
Y211366D01*
Y211346D01*
Y211308D01*
Y211249D01*
Y211171D01*
Y210956D01*
X345880Y210703D01*
Y210430D01*
X345900Y210157D01*
X345919Y209903D01*
X345938Y209708D01*
Y209688D01*
X345978Y209610D01*
X346017Y209493D01*
X346075Y209357D01*
X346153Y209201D01*
X346270Y209025D01*
X346407Y208869D01*
X346563Y208733D01*
X346582Y208713D01*
X346660Y208674D01*
X346758Y208615D01*
X346894Y208557D01*
X347070Y208498D01*
X347265Y208440D01*
X347499Y208401D01*
X347753Y208381D01*
X347870D01*
X348006Y208401D01*
X348182Y208420D01*
X348377Y208459D01*
X348591Y208538D01*
X348825Y208615D01*
X349060Y208733D01*
X349079Y208752D01*
X349157Y208811D01*
X349274Y208889D01*
X349411Y209006D01*
X349547Y209142D01*
X349703Y209318D01*
X349820Y209513D01*
X349938Y209727D01*
X349957Y209766D01*
X349977Y209844D01*
X350015Y209981D01*
X350074Y210196D01*
X350132Y210449D01*
X350172Y210761D01*
X350191Y211132D01*
X350211Y211542D01*
Y216535D01*
X351791D01*
Y207250D01*
D02*
G37*
G36*
X244579Y216730D02*
X244774Y216711D01*
X245008Y216672D01*
X245281Y216614D01*
X245535Y216535D01*
X245808Y216438D01*
X245847Y216418D01*
X245925Y216379D01*
X246042Y216321D01*
X246198Y216223D01*
X246374Y216106D01*
X246549Y215970D01*
X246725Y215814D01*
X246861Y215638D01*
X246881Y215619D01*
X246920Y215560D01*
X246978Y215443D01*
X247057Y215306D01*
X247134Y215150D01*
X247213Y214955D01*
X247291Y214721D01*
X247349Y214487D01*
Y214468D01*
X247369Y214409D01*
X247388Y214292D01*
X247408Y214136D01*
Y213922D01*
X247427Y213648D01*
X247447Y213336D01*
Y212946D01*
Y207250D01*
X245867D01*
Y212888D01*
Y212907D01*
Y212927D01*
Y213044D01*
Y213219D01*
X245847Y213434D01*
X245828Y213648D01*
X245788Y213902D01*
X245730Y214116D01*
X245672Y214312D01*
Y214331D01*
X245632Y214390D01*
X245593Y214487D01*
X245535Y214585D01*
X245437Y214721D01*
X245320Y214838D01*
X245184Y214975D01*
X245028Y215092D01*
X245008Y215111D01*
X244950Y215131D01*
X244852Y215189D01*
X244716Y215248D01*
X244560Y215287D01*
X244364Y215345D01*
X244169Y215365D01*
X243935Y215385D01*
X243760D01*
X243584Y215345D01*
X243331Y215306D01*
X243057Y215228D01*
X242784Y215111D01*
X242472Y214955D01*
X242199Y214741D01*
X242160Y214702D01*
X242082Y214604D01*
X241965Y214448D01*
X241907Y214331D01*
X241848Y214195D01*
X241770Y214039D01*
X241712Y213863D01*
X241653Y213668D01*
X241595Y213453D01*
X241536Y213200D01*
X241516Y212927D01*
X241477Y212634D01*
Y212322D01*
Y207250D01*
X239897D01*
Y216535D01*
X241321D01*
Y215209D01*
X241341Y215228D01*
X241360Y215268D01*
X241419Y215345D01*
X241516Y215443D01*
X241614Y215560D01*
X241751Y215697D01*
X241887Y215833D01*
X242063Y215989D01*
X242277Y216126D01*
X242492Y216262D01*
X242726Y216399D01*
X242999Y216516D01*
X243272Y216614D01*
X243584Y216691D01*
X243916Y216730D01*
X244267Y216750D01*
X244403D01*
X244579Y216730D01*
D02*
G37*
G36*
X264340Y216711D02*
X264613Y216672D01*
X264945Y216594D01*
X265296Y216496D01*
X265647Y216340D01*
X265998Y216126D01*
X266017D01*
X266037Y216106D01*
X266154Y216009D01*
X266310Y215872D01*
X266525Y215677D01*
X266739Y215443D01*
X266973Y215131D01*
X267188Y214799D01*
X267383Y214390D01*
Y214370D01*
X267402Y214331D01*
X267422Y214273D01*
X267461Y214195D01*
X267500Y214097D01*
X267539Y213960D01*
X267617Y213668D01*
X267695Y213297D01*
X267773Y212888D01*
X267832Y212439D01*
X267851Y211951D01*
Y211932D01*
Y211893D01*
Y211815D01*
Y211717D01*
X267832Y211581D01*
Y211444D01*
X267793Y211093D01*
X267715Y210703D01*
X267637Y210274D01*
X267500Y209825D01*
X267325Y209376D01*
Y209357D01*
X267305Y209318D01*
X267266Y209259D01*
X267227Y209181D01*
X267110Y208986D01*
X266954Y208733D01*
X266739Y208459D01*
X266486Y208167D01*
X266193Y207894D01*
X265842Y207640D01*
X265822D01*
X265803Y207621D01*
X265744Y207582D01*
X265666Y207543D01*
X265471Y207445D01*
X265218Y207348D01*
X264906Y207230D01*
X264574Y207133D01*
X264184Y207055D01*
X263794Y207035D01*
X263657D01*
X263521Y207055D01*
X263326Y207074D01*
X263111Y207113D01*
X262877Y207172D01*
X262623Y207250D01*
X262389Y207348D01*
X262370Y207367D01*
X262292Y207406D01*
X262175Y207484D01*
X262038Y207582D01*
X261862Y207699D01*
X261706Y207835D01*
X261531Y208011D01*
X261375Y208186D01*
Y203700D01*
X259795D01*
Y216535D01*
X261238D01*
Y215326D01*
X261258Y215365D01*
X261316Y215443D01*
X261433Y215560D01*
X261570Y215716D01*
X261726Y215892D01*
X261921Y216067D01*
X262136Y216243D01*
X262370Y216379D01*
X262409Y216399D01*
X262487Y216438D01*
X262623Y216496D01*
X262799Y216574D01*
X263033Y216633D01*
X263286Y216691D01*
X263579Y216730D01*
X263911Y216750D01*
X264106D01*
X264340Y216711D01*
D02*
G37*
G36*
X318999D02*
X319272Y216672D01*
X319604Y216594D01*
X319955Y216496D01*
X320306Y216340D01*
X320657Y216126D01*
X320677D01*
X320696Y216106D01*
X320813Y216009D01*
X320969Y215872D01*
X321184Y215677D01*
X321398Y215443D01*
X321632Y215131D01*
X321847Y214799D01*
X322042Y214390D01*
Y214370D01*
X322062Y214331D01*
X322081Y214273D01*
X322120Y214195D01*
X322159Y214097D01*
X322198Y213960D01*
X322276Y213668D01*
X322354Y213297D01*
X322432Y212888D01*
X322491Y212439D01*
X322510Y211951D01*
Y211932D01*
Y211893D01*
Y211815D01*
Y211717D01*
X322491Y211581D01*
Y211444D01*
X322452Y211093D01*
X322374Y210703D01*
X322296Y210274D01*
X322159Y209825D01*
X321984Y209376D01*
Y209357D01*
X321964Y209318D01*
X321925Y209259D01*
X321886Y209181D01*
X321769Y208986D01*
X321613Y208733D01*
X321398Y208459D01*
X321145Y208167D01*
X320852Y207894D01*
X320501Y207640D01*
X320482D01*
X320462Y207621D01*
X320404Y207582D01*
X320326Y207543D01*
X320130Y207445D01*
X319877Y207348D01*
X319565Y207230D01*
X319233Y207133D01*
X318843Y207055D01*
X318453Y207035D01*
X318316D01*
X318180Y207055D01*
X317985Y207074D01*
X317770Y207113D01*
X317536Y207172D01*
X317282Y207250D01*
X317048Y207348D01*
X317029Y207367D01*
X316951Y207406D01*
X316834Y207484D01*
X316697Y207582D01*
X316522Y207699D01*
X316366Y207835D01*
X316190Y208011D01*
X316034Y208186D01*
Y203700D01*
X314454D01*
Y216535D01*
X315897D01*
Y215326D01*
X315917Y215365D01*
X315975Y215443D01*
X316092Y215560D01*
X316229Y215716D01*
X316385Y215892D01*
X316580Y216067D01*
X316795Y216243D01*
X317029Y216379D01*
X317068Y216399D01*
X317146Y216438D01*
X317282Y216496D01*
X317458Y216574D01*
X317692Y216633D01*
X317946Y216691D01*
X318238Y216730D01*
X318570Y216750D01*
X318765D01*
X318999Y216711D01*
D02*
G37*
%LPC*%
G36*
X303338Y232962D02*
X303241D01*
X303163Y232943D01*
X302948Y232924D01*
X302695Y232865D01*
X302402Y232787D01*
X302109Y232650D01*
X301797Y232475D01*
X301505Y232221D01*
X301466Y232182D01*
X301388Y232085D01*
X301271Y231929D01*
X301134Y231695D01*
X300998Y231422D01*
X300861Y231090D01*
X300763Y230700D01*
X300705Y230271D01*
X305894D01*
Y230290D01*
Y230329D01*
X305874Y230388D01*
Y230466D01*
X305835Y230680D01*
X305777Y230934D01*
X305699Y231207D01*
X305582Y231500D01*
X305465Y231792D01*
X305289Y232026D01*
Y232046D01*
X305250Y232065D01*
X305152Y232182D01*
X304977Y232319D01*
X304762Y232494D01*
X304470Y232670D01*
X304138Y232826D01*
X303768Y232924D01*
X303553Y232943D01*
X303338Y232962D01*
D02*
G37*
G36*
X274819Y233021D02*
X274546D01*
X274468Y233001D01*
X274292Y232962D01*
X274039Y232904D01*
X273765Y232787D01*
X273473Y232611D01*
X273317Y232514D01*
X273161Y232377D01*
X273005Y232241D01*
X272868Y232065D01*
Y232046D01*
X272829Y232026D01*
X272790Y231968D01*
X272751Y231890D01*
X272693Y231792D01*
X272634Y231675D01*
X272556Y231539D01*
X272498Y231382D01*
X272419Y231187D01*
X272341Y230992D01*
X272283Y230758D01*
X272224Y230524D01*
X272185Y230251D01*
X272146Y229958D01*
X272107Y229666D01*
Y229334D01*
Y229315D01*
Y229256D01*
Y229159D01*
X272127Y229042D01*
Y228885D01*
X272146Y228729D01*
X272205Y228339D01*
X272283Y227891D01*
X272400Y227461D01*
X272575Y227052D01*
X272693Y226857D01*
X272810Y226681D01*
X272849Y226642D01*
X272946Y226545D01*
X273102Y226408D01*
X273297Y226252D01*
X273551Y226096D01*
X273863Y225959D01*
X274195Y225862D01*
X274370Y225842D01*
X274565Y225823D01*
X274663D01*
X274741Y225842D01*
X274936Y225862D01*
X275170Y225940D01*
X275463Y226038D01*
X275755Y226194D01*
X276048Y226408D01*
X276204Y226545D01*
X276340Y226701D01*
Y226720D01*
X276379Y226740D01*
X276418Y226798D01*
X276457Y226876D01*
X276516Y226974D01*
X276574Y227091D01*
X276653Y227227D01*
X276730Y227383D01*
X276789Y227559D01*
X276867Y227774D01*
X276926Y227988D01*
X276984Y228242D01*
X277023Y228515D01*
X277062Y228808D01*
X277101Y229120D01*
Y229451D01*
Y229471D01*
Y229529D01*
Y229627D01*
X277082Y229744D01*
Y229900D01*
X277062Y230075D01*
X277004Y230466D01*
X276926Y230895D01*
X276789Y231343D01*
X276614Y231753D01*
X276496Y231948D01*
X276360Y232124D01*
Y232143D01*
X276321Y232163D01*
X276223Y232260D01*
X276087Y232416D01*
X275872Y232572D01*
X275619Y232728D01*
X275326Y232885D01*
X274994Y232982D01*
X274819Y233021D01*
D02*
G37*
G36*
X237853Y232943D02*
X237521D01*
X237443Y232924D01*
X237229Y232904D01*
X236955Y232826D01*
X236643Y232728D01*
X236312Y232572D01*
X235980Y232338D01*
X235824Y232202D01*
X235668Y232046D01*
X235629Y232007D01*
X235590Y231948D01*
X235551Y231890D01*
X235492Y231792D01*
X235434Y231675D01*
X235356Y231539D01*
X235297Y231382D01*
X235219Y231207D01*
X235141Y231012D01*
X235083Y230797D01*
X235024Y230544D01*
X234985Y230290D01*
X234946Y229997D01*
X234907Y229705D01*
Y229373D01*
Y229354D01*
Y229295D01*
Y229198D01*
X234927Y229081D01*
Y228944D01*
X234946Y228769D01*
X235005Y228378D01*
X235102Y227949D01*
X235219Y227500D01*
X235414Y227071D01*
X235531Y226876D01*
X235668Y226701D01*
X235707Y226662D01*
X235804Y226564D01*
X235980Y226428D01*
X236214Y226272D01*
X236487Y226096D01*
X236838Y225959D01*
X237209Y225862D01*
X237423Y225842D01*
X237638Y225823D01*
X237755D01*
X237833Y225842D01*
X238048Y225862D01*
X238321Y225940D01*
X238633Y226038D01*
X238965Y226194D01*
X239277Y226408D01*
X239433Y226545D01*
X239589Y226701D01*
Y226720D01*
X239628Y226740D01*
X239667Y226798D01*
X239706Y226876D01*
X239764Y226974D01*
X239842Y227091D01*
X239901Y227227D01*
X239979Y227383D01*
X240057Y227559D01*
X240116Y227754D01*
X240194Y227988D01*
X240252Y228242D01*
X240291Y228495D01*
X240330Y228788D01*
X240369Y229100D01*
Y229432D01*
Y229451D01*
Y229510D01*
Y229588D01*
X240350Y229724D01*
Y229861D01*
X240330Y230017D01*
X240272Y230407D01*
X240174Y230817D01*
X240037Y231265D01*
X239842Y231675D01*
X239569Y232046D01*
Y232065D01*
X239530Y232085D01*
X239433Y232182D01*
X239257Y232338D01*
X239043Y232494D01*
X238750Y232650D01*
X238418Y232806D01*
X238048Y232904D01*
X237853Y232943D01*
D02*
G37*
G36*
X286543Y229412D02*
X286504Y229393D01*
X286445Y229373D01*
X286387Y229354D01*
X286289Y229315D01*
X286172Y229295D01*
X286055Y229256D01*
X285899Y229198D01*
X285723Y229159D01*
X285528Y229120D01*
X285333Y229061D01*
X285099Y229003D01*
X284846Y228964D01*
X284572Y228905D01*
X284280Y228866D01*
X283968Y228808D01*
X283929D01*
X283812Y228788D01*
X283636Y228749D01*
X283421Y228710D01*
X282973Y228612D01*
X282758Y228554D01*
X282583Y228495D01*
X282563D01*
X282524Y228456D01*
X282446Y228417D01*
X282368Y228359D01*
X282173Y228203D01*
X281978Y227969D01*
Y227949D01*
X281939Y227910D01*
X281919Y227852D01*
X281880Y227754D01*
X281802Y227520D01*
X281783Y227383D01*
X281763Y227227D01*
Y227208D01*
Y227130D01*
X281783Y227013D01*
X281822Y226857D01*
X281880Y226701D01*
X281959Y226525D01*
X282076Y226350D01*
X282232Y226174D01*
X282251Y226154D01*
X282329Y226115D01*
X282427Y226038D01*
X282583Y225979D01*
X282778Y225901D01*
X283031Y225823D01*
X283305Y225784D01*
X283636Y225764D01*
X283792D01*
X283948Y225784D01*
X284182Y225823D01*
X284416Y225862D01*
X284690Y225920D01*
X284963Y226018D01*
X285236Y226154D01*
X285275Y226174D01*
X285353Y226232D01*
X285489Y226311D01*
X285645Y226447D01*
X285801Y226584D01*
X285977Y226779D01*
X286152Y226993D01*
X286289Y227247D01*
X286309Y227266D01*
X286328Y227344D01*
X286367Y227461D01*
X286426Y227637D01*
X286465Y227871D01*
X286504Y228144D01*
X286523Y228456D01*
X286543Y228827D01*
Y229412D01*
D02*
G37*
G36*
X263950Y215521D02*
X263677D01*
X263599Y215502D01*
X263423Y215462D01*
X263169Y215404D01*
X262896Y215287D01*
X262604Y215111D01*
X262448Y215014D01*
X262292Y214877D01*
X262136Y214741D01*
X261999Y214565D01*
Y214546D01*
X261960Y214526D01*
X261921Y214468D01*
X261882Y214390D01*
X261823Y214292D01*
X261765Y214175D01*
X261687Y214039D01*
X261628Y213883D01*
X261550Y213687D01*
X261472Y213492D01*
X261414Y213258D01*
X261355Y213024D01*
X261316Y212751D01*
X261277Y212458D01*
X261238Y212166D01*
Y211834D01*
Y211815D01*
Y211756D01*
Y211659D01*
X261258Y211542D01*
Y211385D01*
X261277Y211229D01*
X261336Y210839D01*
X261414Y210391D01*
X261531Y209961D01*
X261706Y209552D01*
X261823Y209357D01*
X261940Y209181D01*
X261980Y209142D01*
X262077Y209045D01*
X262233Y208908D01*
X262428Y208752D01*
X262682Y208596D01*
X262994Y208459D01*
X263326Y208362D01*
X263501Y208342D01*
X263696Y208323D01*
X263794D01*
X263872Y208342D01*
X264067Y208362D01*
X264301Y208440D01*
X264594Y208538D01*
X264886Y208694D01*
X265179Y208908D01*
X265335Y209045D01*
X265471Y209201D01*
Y209220D01*
X265510Y209240D01*
X265549Y209298D01*
X265588Y209376D01*
X265647Y209474D01*
X265705Y209591D01*
X265783Y209727D01*
X265861Y209883D01*
X265920Y210059D01*
X265998Y210274D01*
X266056Y210488D01*
X266115Y210742D01*
X266154Y211015D01*
X266193Y211308D01*
X266232Y211620D01*
Y211951D01*
Y211971D01*
Y212029D01*
Y212127D01*
X266213Y212244D01*
Y212400D01*
X266193Y212575D01*
X266134Y212966D01*
X266056Y213395D01*
X265920Y213843D01*
X265744Y214253D01*
X265627Y214448D01*
X265491Y214624D01*
Y214643D01*
X265452Y214663D01*
X265354Y214760D01*
X265218Y214916D01*
X265003Y215072D01*
X264750Y215228D01*
X264457Y215385D01*
X264125Y215482D01*
X263950Y215521D01*
D02*
G37*
G36*
X235879Y211912D02*
X235840Y211893D01*
X235781Y211873D01*
X235723Y211854D01*
X235625Y211815D01*
X235508Y211795D01*
X235391Y211756D01*
X235235Y211698D01*
X235060Y211659D01*
X234865Y211620D01*
X234669Y211561D01*
X234435Y211503D01*
X234182Y211464D01*
X233909Y211405D01*
X233616Y211366D01*
X233304Y211308D01*
X233265D01*
X233148Y211288D01*
X232972Y211249D01*
X232758Y211210D01*
X232309Y211112D01*
X232094Y211054D01*
X231919Y210995D01*
X231899D01*
X231860Y210956D01*
X231782Y210917D01*
X231704Y210859D01*
X231509Y210703D01*
X231314Y210469D01*
Y210449D01*
X231275Y210410D01*
X231256Y210352D01*
X231217Y210254D01*
X231139Y210020D01*
X231119Y209883D01*
X231100Y209727D01*
Y209708D01*
Y209630D01*
X231119Y209513D01*
X231158Y209357D01*
X231217Y209201D01*
X231295Y209025D01*
X231412Y208850D01*
X231568Y208674D01*
X231587Y208654D01*
X231665Y208615D01*
X231763Y208538D01*
X231919Y208479D01*
X232114Y208401D01*
X232368Y208323D01*
X232641Y208284D01*
X232972Y208264D01*
X233128D01*
X233284Y208284D01*
X233519Y208323D01*
X233753Y208362D01*
X234026Y208420D01*
X234299Y208518D01*
X234572Y208654D01*
X234611Y208674D01*
X234689Y208733D01*
X234825Y208811D01*
X234981Y208947D01*
X235138Y209084D01*
X235313Y209279D01*
X235489Y209493D01*
X235625Y209747D01*
X235645Y209766D01*
X235664Y209844D01*
X235703Y209961D01*
X235762Y210137D01*
X235801Y210371D01*
X235840Y210644D01*
X235859Y210956D01*
X235879Y211327D01*
Y211912D01*
D02*
G37*
G36*
X253825Y215443D02*
X253494D01*
X253416Y215424D01*
X253201Y215404D01*
X252928Y215326D01*
X252616Y215228D01*
X252284Y215072D01*
X251953Y214838D01*
X251797Y214702D01*
X251641Y214546D01*
X251602Y214507D01*
X251563Y214448D01*
X251524Y214390D01*
X251465Y214292D01*
X251407Y214175D01*
X251329Y214039D01*
X251270Y213883D01*
X251192Y213707D01*
X251114Y213512D01*
X251056Y213297D01*
X250997Y213044D01*
X250958Y212790D01*
X250919Y212497D01*
X250880Y212205D01*
Y211873D01*
Y211854D01*
Y211795D01*
Y211698D01*
X250899Y211581D01*
Y211444D01*
X250919Y211269D01*
X250977Y210878D01*
X251075Y210449D01*
X251192Y210000D01*
X251387Y209571D01*
X251504Y209376D01*
X251641Y209201D01*
X251680Y209162D01*
X251777Y209064D01*
X251953Y208928D01*
X252187Y208772D01*
X252460Y208596D01*
X252811Y208459D01*
X253182Y208362D01*
X253396Y208342D01*
X253611Y208323D01*
X253728D01*
X253806Y208342D01*
X254021Y208362D01*
X254294Y208440D01*
X254606Y208538D01*
X254937Y208694D01*
X255250Y208908D01*
X255406Y209045D01*
X255562Y209201D01*
Y209220D01*
X255601Y209240D01*
X255640Y209298D01*
X255679Y209376D01*
X255737Y209474D01*
X255815Y209591D01*
X255874Y209727D01*
X255952Y209883D01*
X256030Y210059D01*
X256088Y210254D01*
X256166Y210488D01*
X256225Y210742D01*
X256264Y210995D01*
X256303Y211288D01*
X256342Y211600D01*
Y211932D01*
Y211951D01*
Y212010D01*
Y212088D01*
X256322Y212224D01*
Y212361D01*
X256303Y212517D01*
X256244Y212907D01*
X256147Y213317D01*
X256010Y213765D01*
X255815Y214175D01*
X255542Y214546D01*
Y214565D01*
X255503Y214585D01*
X255406Y214682D01*
X255230Y214838D01*
X255015Y214994D01*
X254723Y215150D01*
X254391Y215306D01*
X254021Y215404D01*
X253825Y215443D01*
D02*
G37*
G36*
X273723D02*
X273391D01*
X273313Y215424D01*
X273099Y215404D01*
X272826Y215326D01*
X272513Y215228D01*
X272182Y215072D01*
X271850Y214838D01*
X271694Y214702D01*
X271538Y214546D01*
X271499Y214507D01*
X271460Y214448D01*
X271421Y214390D01*
X271362Y214292D01*
X271304Y214175D01*
X271226Y214039D01*
X271167Y213883D01*
X271089Y213707D01*
X271011Y213512D01*
X270953Y213297D01*
X270894Y213044D01*
X270855Y212790D01*
X270816Y212497D01*
X270777Y212205D01*
Y211873D01*
Y211854D01*
Y211795D01*
Y211698D01*
X270797Y211581D01*
Y211444D01*
X270816Y211269D01*
X270875Y210878D01*
X270972Y210449D01*
X271089Y210000D01*
X271284Y209571D01*
X271402Y209376D01*
X271538Y209201D01*
X271577Y209162D01*
X271675Y209064D01*
X271850Y208928D01*
X272084Y208772D01*
X272357Y208596D01*
X272708Y208459D01*
X273079Y208362D01*
X273294Y208342D01*
X273508Y208323D01*
X273625D01*
X273703Y208342D01*
X273918Y208362D01*
X274191Y208440D01*
X274503Y208538D01*
X274835Y208694D01*
X275147Y208908D01*
X275303Y209045D01*
X275459Y209201D01*
Y209220D01*
X275498Y209240D01*
X275537Y209298D01*
X275576Y209376D01*
X275634Y209474D01*
X275713Y209591D01*
X275771Y209727D01*
X275849Y209883D01*
X275927Y210059D01*
X275986Y210254D01*
X276064Y210488D01*
X276122Y210742D01*
X276161Y210995D01*
X276200Y211288D01*
X276239Y211600D01*
Y211932D01*
Y211951D01*
Y212010D01*
Y212088D01*
X276220Y212224D01*
Y212361D01*
X276200Y212517D01*
X276142Y212907D01*
X276044Y213317D01*
X275908Y213765D01*
X275713Y214175D01*
X275439Y214546D01*
Y214565D01*
X275400Y214585D01*
X275303Y214682D01*
X275127Y214838D01*
X274913Y214994D01*
X274620Y215150D01*
X274289Y215306D01*
X273918Y215404D01*
X273723Y215443D01*
D02*
G37*
G36*
X296429Y215462D02*
X296332D01*
X296254Y215443D01*
X296039Y215424D01*
X295786Y215365D01*
X295493Y215287D01*
X295200Y215150D01*
X294888Y214975D01*
X294596Y214721D01*
X294557Y214682D01*
X294478Y214585D01*
X294361Y214429D01*
X294225Y214195D01*
X294088Y213922D01*
X293952Y213590D01*
X293854Y213200D01*
X293796Y212771D01*
X298985D01*
Y212790D01*
Y212829D01*
X298965Y212888D01*
Y212966D01*
X298926Y213180D01*
X298868Y213434D01*
X298790Y213707D01*
X298673Y214000D01*
X298556Y214292D01*
X298380Y214526D01*
Y214546D01*
X298341Y214565D01*
X298243Y214682D01*
X298068Y214819D01*
X297853Y214994D01*
X297561Y215170D01*
X297229Y215326D01*
X296858Y215424D01*
X296644Y215443D01*
X296429Y215462D01*
D02*
G37*
G36*
X373873Y218818D02*
X373775D01*
X373697Y218798D01*
X373502Y218779D01*
X373249Y218701D01*
X372976Y218584D01*
X372683Y218428D01*
X372390Y218193D01*
X372254Y218037D01*
X372137Y217881D01*
Y217862D01*
X372098Y217823D01*
X372059Y217745D01*
X372020Y217647D01*
X371961Y217511D01*
X371883Y217355D01*
X371805Y217140D01*
X371746Y216906D01*
X371669Y216633D01*
X371590Y216321D01*
X371532Y215970D01*
X371454Y215560D01*
X371415Y215131D01*
X371376Y214663D01*
X371337Y214136D01*
Y213570D01*
Y213531D01*
Y213434D01*
Y213278D01*
X371356Y213063D01*
Y212810D01*
X371376Y212517D01*
X371395Y212185D01*
X371434Y211854D01*
X371512Y211151D01*
X371649Y210449D01*
X371727Y210137D01*
X371824Y209844D01*
X371942Y209571D01*
X372059Y209357D01*
Y209337D01*
X372098Y209318D01*
X372195Y209201D01*
X372351Y209025D01*
X372566Y208850D01*
X372839Y208654D01*
X373151Y208479D01*
X373502Y208362D01*
X373697Y208342D01*
X373892Y208323D01*
X373990D01*
X374068Y208342D01*
X374263Y208381D01*
X374516Y208459D01*
X374809Y208577D01*
X375102Y208752D01*
X375258Y208869D01*
X375414Y209025D01*
X375570Y209181D01*
X375706Y209357D01*
Y209376D01*
X375746Y209415D01*
X375784Y209474D01*
X375824Y209571D01*
X375882Y209688D01*
X375941Y209864D01*
X375999Y210059D01*
X376077Y210274D01*
X376155Y210547D01*
X376214Y210839D01*
X376272Y211190D01*
X376331Y211581D01*
X376389Y212010D01*
X376409Y212478D01*
X376448Y213005D01*
Y213570D01*
Y213609D01*
Y213707D01*
Y213863D01*
X376428Y214077D01*
Y214331D01*
X376409Y214624D01*
X376389Y214936D01*
X376350Y215287D01*
X376272Y215989D01*
X376136Y216672D01*
X376058Y217004D01*
X375960Y217296D01*
X375843Y217550D01*
X375706Y217764D01*
Y217784D01*
X375667Y217803D01*
X375570Y217920D01*
X375414Y218096D01*
X375199Y218291D01*
X374926Y218486D01*
X374614Y218662D01*
X374263Y218779D01*
X374068Y218798D01*
X373873Y218818D01*
D02*
G37*
G36*
X318609Y215521D02*
X318336D01*
X318258Y215502D01*
X318082Y215462D01*
X317829Y215404D01*
X317556Y215287D01*
X317263Y215111D01*
X317107Y215014D01*
X316951Y214877D01*
X316795Y214741D01*
X316658Y214565D01*
Y214546D01*
X316619Y214526D01*
X316580Y214468D01*
X316541Y214390D01*
X316483Y214292D01*
X316424Y214175D01*
X316346Y214039D01*
X316287Y213883D01*
X316210Y213687D01*
X316131Y213492D01*
X316073Y213258D01*
X316014Y213024D01*
X315975Y212751D01*
X315936Y212458D01*
X315897Y212166D01*
Y211834D01*
Y211815D01*
Y211756D01*
Y211659D01*
X315917Y211542D01*
Y211385D01*
X315936Y211229D01*
X315995Y210839D01*
X316073Y210391D01*
X316190Y209961D01*
X316366Y209552D01*
X316483Y209357D01*
X316600Y209181D01*
X316639Y209142D01*
X316736Y209045D01*
X316892Y208908D01*
X317087Y208752D01*
X317341Y208596D01*
X317653Y208459D01*
X317985Y208362D01*
X318160Y208342D01*
X318355Y208323D01*
X318453D01*
X318531Y208342D01*
X318726Y208362D01*
X318960Y208440D01*
X319253Y208538D01*
X319545Y208694D01*
X319838Y208908D01*
X319994Y209045D01*
X320130Y209201D01*
Y209220D01*
X320169Y209240D01*
X320209Y209298D01*
X320247Y209376D01*
X320306Y209474D01*
X320364Y209591D01*
X320443Y209727D01*
X320521Y209883D01*
X320579Y210059D01*
X320657Y210274D01*
X320716Y210488D01*
X320774Y210742D01*
X320813Y211015D01*
X320852Y211308D01*
X320891Y211620D01*
Y211951D01*
Y211971D01*
Y212029D01*
Y212127D01*
X320872Y212244D01*
Y212400D01*
X320852Y212575D01*
X320794Y212966D01*
X320716Y213395D01*
X320579Y213843D01*
X320404Y214253D01*
X320286Y214448D01*
X320150Y214624D01*
Y214643D01*
X320111Y214663D01*
X320013Y214760D01*
X319877Y214916D01*
X319662Y215072D01*
X319409Y215228D01*
X319116Y215385D01*
X318785Y215482D01*
X318609Y215521D01*
D02*
G37*
%LPD*%
M02*
