G04 Layer_Color=8388736*
%FSLAX44Y44*%
%MOMM*%
G71*
G01*
G75*
G36*
X-75658Y-196802D02*
X-75977Y-196982D01*
X-76282Y-197190D01*
X-76573Y-197426D01*
X-76823Y-197662D01*
X-77059Y-197870D01*
X-77142Y-197967D01*
X-77225Y-198036D01*
X-77294Y-198105D01*
X-77336Y-198161D01*
X-77364Y-198189D01*
X-77378Y-198202D01*
X-77696Y-198577D01*
X-77974Y-198979D01*
X-78237Y-199367D01*
X-78459Y-199728D01*
X-78542Y-199881D01*
X-78626Y-200033D01*
X-78709Y-200172D01*
X-78764Y-200283D01*
X-78806Y-200380D01*
X-78848Y-200449D01*
X-78861Y-200491D01*
X-78875Y-200505D01*
X-80387D01*
X-80276Y-200227D01*
X-80151Y-199936D01*
X-80013Y-199659D01*
X-79888Y-199409D01*
X-79763Y-199187D01*
X-79721Y-199090D01*
X-79666Y-199007D01*
X-79638Y-198937D01*
X-79610Y-198896D01*
X-79583Y-198868D01*
Y-198854D01*
X-79375Y-198521D01*
X-79180Y-198230D01*
X-79000Y-197967D01*
X-78834Y-197759D01*
X-78695Y-197578D01*
X-78598Y-197453D01*
X-78529Y-197384D01*
X-78501Y-197356D01*
X-88500D01*
Y-195789D01*
X-75658D01*
Y-196802D01*
D02*
G37*
G36*
Y-186858D02*
X-75977Y-187038D01*
X-76282Y-187246D01*
X-76573Y-187482D01*
X-76823Y-187718D01*
X-77059Y-187926D01*
X-77142Y-188023D01*
X-77225Y-188092D01*
X-77294Y-188162D01*
X-77336Y-188217D01*
X-77364Y-188245D01*
X-77378Y-188259D01*
X-77696Y-188633D01*
X-77974Y-189035D01*
X-78237Y-189424D01*
X-78459Y-189784D01*
X-78542Y-189937D01*
X-78626Y-190089D01*
X-78709Y-190228D01*
X-78764Y-190339D01*
X-78806Y-190436D01*
X-78848Y-190506D01*
X-78861Y-190547D01*
X-78875Y-190561D01*
X-80387D01*
X-80276Y-190284D01*
X-80151Y-189992D01*
X-80013Y-189715D01*
X-79888Y-189465D01*
X-79763Y-189243D01*
X-79721Y-189146D01*
X-79666Y-189063D01*
X-79638Y-188994D01*
X-79610Y-188952D01*
X-79583Y-188925D01*
Y-188911D01*
X-79375Y-188578D01*
X-79180Y-188286D01*
X-79000Y-188023D01*
X-78834Y-187815D01*
X-78695Y-187635D01*
X-78598Y-187510D01*
X-78529Y-187440D01*
X-78501Y-187413D01*
X-88500D01*
Y-185846D01*
X-75658D01*
Y-186858D01*
D02*
G37*
G36*
X-82010Y-296183D02*
X-81705Y-296196D01*
X-81414Y-296210D01*
X-81151Y-296238D01*
X-80901Y-296266D01*
X-80679Y-296294D01*
X-80471Y-296307D01*
X-80291Y-296335D01*
X-80138Y-296363D01*
X-79999Y-296391D01*
X-79889Y-296418D01*
X-79791Y-296432D01*
X-79736Y-296446D01*
X-79694Y-296460D01*
X-79680D01*
X-79278Y-296571D01*
X-78904Y-296710D01*
X-78585Y-296834D01*
X-78307Y-296959D01*
X-78197Y-297029D01*
X-78086Y-297070D01*
X-77989Y-297126D01*
X-77919Y-297167D01*
X-77864Y-297209D01*
X-77822Y-297223D01*
X-77794Y-297250D01*
X-77780D01*
X-77503Y-297445D01*
X-77253Y-297666D01*
X-77045Y-297875D01*
X-76879Y-298083D01*
X-76740Y-298263D01*
X-76657Y-298402D01*
X-76616Y-298457D01*
X-76588Y-298499D01*
X-76574Y-298526D01*
Y-298540D01*
X-76435Y-298845D01*
X-76338Y-299150D01*
X-76255Y-299456D01*
X-76213Y-299733D01*
X-76186Y-299982D01*
X-76172Y-300080D01*
X-76158Y-300177D01*
Y-300246D01*
Y-300301D01*
Y-300329D01*
Y-300343D01*
X-76172Y-300593D01*
X-76186Y-300842D01*
X-76227Y-301078D01*
X-76269Y-301300D01*
X-76324Y-301494D01*
X-76394Y-301688D01*
X-76463Y-301869D01*
X-76532Y-302021D01*
X-76602Y-302174D01*
X-76671Y-302299D01*
X-76726Y-302409D01*
X-76796Y-302493D01*
X-76837Y-302562D01*
X-76879Y-302617D01*
X-76893Y-302645D01*
X-76907Y-302659D01*
X-77059Y-302826D01*
X-77212Y-302978D01*
X-77559Y-303256D01*
X-77905Y-303505D01*
X-78252Y-303699D01*
X-78418Y-303783D01*
X-78557Y-303852D01*
X-78696Y-303907D01*
X-78807Y-303963D01*
X-78904Y-303990D01*
X-78987Y-304018D01*
X-79029Y-304046D01*
X-79043D01*
X-79306Y-304129D01*
X-79597Y-304198D01*
X-80194Y-304309D01*
X-80804Y-304393D01*
X-81095Y-304420D01*
X-81386Y-304448D01*
X-81650Y-304462D01*
X-81899Y-304476D01*
X-82121Y-304490D01*
X-82315D01*
X-82468Y-304504D01*
X-82690D01*
X-83342Y-304490D01*
X-83952Y-304448D01*
X-84507Y-304393D01*
X-85020Y-304309D01*
X-85491Y-304212D01*
X-85921Y-304101D01*
X-86296Y-303990D01*
X-86642Y-303866D01*
X-86934Y-303755D01*
X-87197Y-303644D01*
X-87405Y-303533D01*
X-87585Y-303436D01*
X-87724Y-303353D01*
X-87821Y-303297D01*
X-87877Y-303256D01*
X-87891Y-303242D01*
X-88126Y-303034D01*
X-88320Y-302812D01*
X-88501Y-302576D01*
X-88653Y-302340D01*
X-88778Y-302104D01*
X-88889Y-301855D01*
X-88972Y-301619D01*
X-89042Y-301397D01*
X-89097Y-301175D01*
X-89139Y-300981D01*
X-89166Y-300801D01*
X-89180Y-300648D01*
X-89194Y-300523D01*
X-89208Y-300426D01*
Y-300357D01*
Y-300343D01*
X-89194Y-300080D01*
X-89180Y-299844D01*
X-89139Y-299608D01*
X-89097Y-299386D01*
X-89028Y-299178D01*
X-88972Y-298998D01*
X-88903Y-298818D01*
X-88834Y-298665D01*
X-88764Y-298512D01*
X-88695Y-298388D01*
X-88626Y-298277D01*
X-88570Y-298193D01*
X-88528Y-298124D01*
X-88487Y-298069D01*
X-88473Y-298041D01*
X-88459Y-298027D01*
X-88307Y-297861D01*
X-88154Y-297694D01*
X-87807Y-297417D01*
X-87461Y-297181D01*
X-87114Y-296987D01*
X-86947Y-296904D01*
X-86795Y-296834D01*
X-86670Y-296779D01*
X-86545Y-296723D01*
X-86462Y-296682D01*
X-86379Y-296668D01*
X-86337Y-296640D01*
X-86323D01*
X-86060Y-296557D01*
X-85769Y-296488D01*
X-85172Y-296363D01*
X-84562Y-296280D01*
X-84271Y-296252D01*
X-83980Y-296224D01*
X-83716Y-296210D01*
X-83467Y-296196D01*
X-83258Y-296183D01*
X-83064Y-296169D01*
X-82343D01*
X-82010Y-296183D01*
D02*
G37*
G36*
X-79069Y-203237D02*
X-78737Y-203278D01*
X-78445Y-203348D01*
X-78182Y-203417D01*
X-77974Y-203500D01*
X-77877Y-203528D01*
X-77807Y-203556D01*
X-77752Y-203583D01*
X-77710Y-203611D01*
X-77683Y-203625D01*
X-77669D01*
X-77378Y-203778D01*
X-77142Y-203944D01*
X-76920Y-204124D01*
X-76754Y-204277D01*
X-76615Y-204429D01*
X-76518Y-204540D01*
X-76448Y-204624D01*
X-76434Y-204637D01*
Y-204651D01*
X-76282Y-204901D01*
X-76157Y-205164D01*
X-76046Y-205428D01*
X-75963Y-205678D01*
X-75894Y-205899D01*
X-75880Y-205996D01*
X-75852Y-206080D01*
X-75838Y-206135D01*
Y-206191D01*
X-75824Y-206218D01*
Y-206232D01*
X-75796Y-206357D01*
X-75783Y-206510D01*
X-75755Y-206815D01*
X-75727Y-207134D01*
X-75713Y-207453D01*
X-75700Y-207730D01*
Y-207855D01*
Y-207966D01*
Y-208049D01*
Y-208118D01*
Y-208160D01*
Y-208174D01*
Y-213000D01*
X-88500D01*
Y-211308D01*
X-83299D01*
Y-208035D01*
X-83286Y-207536D01*
X-83244Y-207092D01*
X-83188Y-206676D01*
X-83119Y-206288D01*
X-83036Y-205955D01*
X-82939Y-205636D01*
X-82842Y-205372D01*
X-82731Y-205123D01*
X-82634Y-204915D01*
X-82537Y-204734D01*
X-82439Y-204582D01*
X-82356Y-204471D01*
X-82273Y-204374D01*
X-82218Y-204318D01*
X-82190Y-204277D01*
X-82176Y-204263D01*
X-81954Y-204083D01*
X-81732Y-203916D01*
X-81496Y-203778D01*
X-81261Y-203667D01*
X-81025Y-203556D01*
X-80803Y-203472D01*
X-80581Y-203403D01*
X-80373Y-203348D01*
X-80165Y-203306D01*
X-79985Y-203278D01*
X-79832Y-203251D01*
X-79694Y-203237D01*
X-79569Y-203223D01*
X-79416D01*
X-79069Y-203237D01*
D02*
G37*
G36*
X-85034Y128845D02*
X-84632Y128776D01*
X-84285Y128665D01*
X-84133Y128609D01*
X-83994Y128554D01*
X-83855Y128498D01*
X-83744Y128443D01*
X-83647Y128387D01*
X-83578Y128332D01*
X-83509Y128290D01*
X-83467Y128263D01*
X-83439Y128249D01*
X-83425Y128235D01*
X-83134Y127985D01*
X-82898Y127694D01*
X-82718Y127403D01*
X-82565Y127126D01*
X-82455Y126862D01*
X-82413Y126751D01*
X-82385Y126668D01*
X-82357Y126585D01*
X-82344Y126529D01*
X-82330Y126488D01*
Y126474D01*
X-82163Y126779D01*
X-81997Y127042D01*
X-81817Y127278D01*
X-81636Y127458D01*
X-81484Y127611D01*
X-81359Y127708D01*
X-81276Y127777D01*
X-81262Y127791D01*
X-81248D01*
X-80984Y127944D01*
X-80721Y128055D01*
X-80471Y128138D01*
X-80236Y128193D01*
X-80041Y128221D01*
X-79875Y128249D01*
X-79736D01*
X-79417Y128235D01*
X-79112Y128180D01*
X-78835Y128096D01*
X-78585Y128013D01*
X-78377Y127930D01*
X-78294Y127888D01*
X-78225Y127847D01*
X-78169Y127819D01*
X-78114Y127791D01*
X-78100Y127777D01*
X-78086D01*
X-77809Y127583D01*
X-77573Y127361D01*
X-77365Y127139D01*
X-77185Y126917D01*
X-77046Y126723D01*
X-76949Y126571D01*
X-76907Y126501D01*
X-76879Y126460D01*
X-76866Y126432D01*
Y126418D01*
X-76713Y126085D01*
X-76602Y125752D01*
X-76519Y125420D01*
X-76463Y125128D01*
X-76436Y124865D01*
X-76422Y124768D01*
X-76408Y124671D01*
Y124588D01*
Y124532D01*
Y124504D01*
Y124490D01*
X-76422Y124213D01*
X-76449Y123950D01*
X-76491Y123700D01*
X-76547Y123450D01*
X-76616Y123229D01*
X-76685Y123020D01*
X-76768Y122826D01*
X-76838Y122660D01*
X-76921Y122493D01*
X-77004Y122355D01*
X-77074Y122244D01*
X-77143Y122133D01*
X-77198Y122064D01*
X-77240Y121994D01*
X-77268Y121966D01*
X-77282Y121953D01*
X-77448Y121772D01*
X-77642Y121606D01*
X-77836Y121453D01*
X-78031Y121315D01*
X-78239Y121190D01*
X-78433Y121093D01*
X-78835Y120912D01*
X-79015Y120843D01*
X-79182Y120788D01*
X-79334Y120746D01*
X-79459Y120704D01*
X-79570Y120677D01*
X-79653Y120663D01*
X-79709Y120649D01*
X-79722D01*
X-80000Y122216D01*
X-79598Y122299D01*
X-79251Y122410D01*
X-78946Y122535D01*
X-78710Y122674D01*
X-78516Y122785D01*
X-78391Y122896D01*
X-78308Y122965D01*
X-78280Y122993D01*
X-78086Y123242D01*
X-77947Y123492D01*
X-77836Y123756D01*
X-77767Y123991D01*
X-77725Y124213D01*
X-77712Y124296D01*
Y124380D01*
X-77698Y124449D01*
Y124490D01*
Y124518D01*
Y124532D01*
X-77725Y124865D01*
X-77781Y125156D01*
X-77878Y125420D01*
X-77975Y125642D01*
X-78086Y125808D01*
X-78183Y125933D01*
X-78239Y126016D01*
X-78266Y126044D01*
X-78377Y126155D01*
X-78488Y126238D01*
X-78738Y126390D01*
X-78973Y126501D01*
X-79195Y126571D01*
X-79403Y126612D01*
X-79556Y126626D01*
X-79625Y126640D01*
X-79709D01*
X-79903Y126626D01*
X-80083Y126599D01*
X-80263Y126571D01*
X-80416Y126515D01*
X-80693Y126377D01*
X-80915Y126238D01*
X-81095Y126085D01*
X-81220Y125947D01*
X-81262Y125891D01*
X-81290Y125864D01*
X-81317Y125836D01*
Y125822D01*
X-81498Y125517D01*
X-81622Y125198D01*
X-81720Y124893D01*
X-81775Y124615D01*
X-81817Y124380D01*
X-81830Y124283D01*
Y124185D01*
X-81844Y124116D01*
Y124061D01*
Y124033D01*
Y124019D01*
Y123936D01*
X-81830Y123853D01*
X-81817Y123783D01*
Y123769D01*
Y123756D01*
X-83189Y123589D01*
X-83134Y123825D01*
X-83092Y124047D01*
X-83065Y124227D01*
X-83037Y124393D01*
Y124518D01*
X-83023Y124615D01*
Y124685D01*
Y124698D01*
X-83037Y124893D01*
X-83051Y125087D01*
X-83134Y125434D01*
X-83245Y125739D01*
X-83370Y126002D01*
X-83509Y126210D01*
X-83564Y126293D01*
X-83619Y126363D01*
X-83661Y126418D01*
X-83703Y126460D01*
X-83716Y126474D01*
X-83730Y126488D01*
X-83869Y126612D01*
X-84008Y126723D01*
X-84146Y126820D01*
X-84299Y126904D01*
X-84590Y127028D01*
X-84881Y127126D01*
X-85131Y127167D01*
X-85228Y127181D01*
X-85325Y127195D01*
X-85395Y127209D01*
X-85506D01*
X-85714Y127195D01*
X-85908Y127181D01*
X-86282Y127084D01*
X-86601Y126973D01*
X-86878Y126834D01*
X-87003Y126751D01*
X-87100Y126682D01*
X-87198Y126626D01*
X-87267Y126571D01*
X-87322Y126515D01*
X-87364Y126474D01*
X-87392Y126460D01*
X-87406Y126446D01*
X-87544Y126293D01*
X-87655Y126141D01*
X-87752Y125988D01*
X-87849Y125836D01*
X-87988Y125517D01*
X-88071Y125212D01*
X-88127Y124962D01*
X-88140Y124837D01*
X-88154Y124754D01*
X-88168Y124671D01*
Y124615D01*
Y124574D01*
Y124560D01*
X-88140Y124227D01*
X-88071Y123908D01*
X-87988Y123645D01*
X-87877Y123409D01*
X-87766Y123215D01*
X-87683Y123076D01*
X-87641Y123034D01*
X-87613Y122993D01*
X-87586Y122979D01*
Y122965D01*
X-87461Y122854D01*
X-87336Y122743D01*
X-87045Y122549D01*
X-86726Y122396D01*
X-86407Y122271D01*
X-86116Y122175D01*
X-85991Y122147D01*
X-85880Y122119D01*
X-85783Y122091D01*
X-85714Y122077D01*
X-85672Y122064D01*
X-85658D01*
X-85866Y120496D01*
X-86157Y120538D01*
X-86435Y120594D01*
X-86698Y120677D01*
X-86948Y120760D01*
X-87184Y120857D01*
X-87392Y120968D01*
X-87600Y121079D01*
X-87766Y121190D01*
X-87933Y121301D01*
X-88071Y121398D01*
X-88196Y121495D01*
X-88293Y121578D01*
X-88376Y121661D01*
X-88432Y121717D01*
X-88460Y121744D01*
X-88473Y121758D01*
X-88654Y121966D01*
X-88806Y122202D01*
X-88931Y122424D01*
X-89056Y122660D01*
X-89153Y122896D01*
X-89222Y123131D01*
X-89292Y123353D01*
X-89347Y123575D01*
X-89389Y123783D01*
X-89416Y123963D01*
X-89444Y124130D01*
X-89458Y124283D01*
Y124393D01*
X-89472Y124490D01*
Y124546D01*
Y124560D01*
X-89458Y124907D01*
X-89416Y125225D01*
X-89361Y125531D01*
X-89292Y125822D01*
X-89208Y126099D01*
X-89111Y126349D01*
X-89000Y126585D01*
X-88889Y126793D01*
X-88792Y126987D01*
X-88681Y127153D01*
X-88584Y127306D01*
X-88501Y127417D01*
X-88432Y127514D01*
X-88376Y127583D01*
X-88335Y127625D01*
X-88321Y127639D01*
X-88099Y127860D01*
X-87863Y128041D01*
X-87627Y128207D01*
X-87378Y128346D01*
X-87142Y128471D01*
X-86906Y128568D01*
X-86684Y128651D01*
X-86462Y128720D01*
X-86254Y128776D01*
X-86074Y128804D01*
X-85908Y128831D01*
X-85755Y128859D01*
X-85644D01*
X-85547Y128873D01*
X-85256D01*
X-85034Y128845D01*
D02*
G37*
G36*
X-79819Y274513D02*
X-79487Y274472D01*
X-79195Y274402D01*
X-78932Y274333D01*
X-78724Y274250D01*
X-78627Y274222D01*
X-78558Y274194D01*
X-78502Y274167D01*
X-78460Y274139D01*
X-78433Y274125D01*
X-78419D01*
X-78128Y273972D01*
X-77892Y273806D01*
X-77670Y273626D01*
X-77503Y273473D01*
X-77365Y273321D01*
X-77268Y273210D01*
X-77198Y273127D01*
X-77185Y273113D01*
Y273099D01*
X-77032Y272849D01*
X-76907Y272586D01*
X-76796Y272322D01*
X-76713Y272073D01*
X-76644Y271851D01*
X-76630Y271754D01*
X-76602Y271670D01*
X-76588Y271615D01*
Y271559D01*
X-76574Y271532D01*
Y271518D01*
X-76547Y271393D01*
X-76533Y271240D01*
X-76505Y270935D01*
X-76477Y270616D01*
X-76463Y270297D01*
X-76449Y270020D01*
Y269895D01*
Y269784D01*
Y269701D01*
Y269632D01*
Y269590D01*
Y269576D01*
Y264750D01*
X-89250D01*
Y266442D01*
X-84049D01*
Y269715D01*
X-84036Y270214D01*
X-83994Y270658D01*
X-83938Y271074D01*
X-83869Y271462D01*
X-83786Y271795D01*
X-83689Y272114D01*
X-83592Y272378D01*
X-83481Y272627D01*
X-83384Y272835D01*
X-83287Y273016D01*
X-83189Y273168D01*
X-83106Y273279D01*
X-83023Y273376D01*
X-82968Y273432D01*
X-82940Y273473D01*
X-82926Y273487D01*
X-82704Y273667D01*
X-82482Y273834D01*
X-82247Y273972D01*
X-82011Y274083D01*
X-81775Y274194D01*
X-81553Y274278D01*
X-81331Y274347D01*
X-81123Y274402D01*
X-80915Y274444D01*
X-80735Y274472D01*
X-80582Y274499D01*
X-80444Y274513D01*
X-80319Y274527D01*
X-80166D01*
X-79819Y274513D01*
D02*
G37*
G36*
Y109013D02*
X-79487Y108972D01*
X-79195Y108902D01*
X-78932Y108833D01*
X-78724Y108750D01*
X-78627Y108722D01*
X-78558Y108694D01*
X-78502Y108667D01*
X-78460Y108639D01*
X-78433Y108625D01*
X-78419D01*
X-78128Y108472D01*
X-77892Y108306D01*
X-77670Y108126D01*
X-77503Y107973D01*
X-77365Y107821D01*
X-77268Y107710D01*
X-77198Y107626D01*
X-77185Y107613D01*
Y107599D01*
X-77032Y107349D01*
X-76907Y107086D01*
X-76796Y106822D01*
X-76713Y106573D01*
X-76644Y106351D01*
X-76630Y106253D01*
X-76602Y106170D01*
X-76588Y106115D01*
Y106059D01*
X-76574Y106032D01*
Y106018D01*
X-76547Y105893D01*
X-76533Y105740D01*
X-76505Y105435D01*
X-76477Y105116D01*
X-76463Y104797D01*
X-76449Y104520D01*
Y104395D01*
Y104284D01*
Y104201D01*
Y104132D01*
Y104090D01*
Y104076D01*
Y99250D01*
X-89250D01*
Y100942D01*
X-84049D01*
Y104215D01*
X-84036Y104714D01*
X-83994Y105158D01*
X-83938Y105574D01*
X-83869Y105962D01*
X-83786Y106295D01*
X-83689Y106614D01*
X-83592Y106878D01*
X-83481Y107127D01*
X-83384Y107335D01*
X-83287Y107516D01*
X-83189Y107668D01*
X-83106Y107779D01*
X-83023Y107876D01*
X-82968Y107932D01*
X-82940Y107973D01*
X-82926Y107987D01*
X-82704Y108167D01*
X-82482Y108334D01*
X-82247Y108472D01*
X-82011Y108583D01*
X-81775Y108694D01*
X-81553Y108778D01*
X-81331Y108847D01*
X-81123Y108902D01*
X-80915Y108944D01*
X-80735Y108972D01*
X-80582Y109000D01*
X-80444Y109013D01*
X-80319Y109027D01*
X-80166D01*
X-79819Y109013D01*
D02*
G37*
G36*
X-76408Y115448D02*
X-76727Y115268D01*
X-77032Y115060D01*
X-77323Y114824D01*
X-77573Y114588D01*
X-77809Y114380D01*
X-77892Y114283D01*
X-77975Y114214D01*
X-78044Y114145D01*
X-78086Y114089D01*
X-78114Y114061D01*
X-78128Y114048D01*
X-78446Y113673D01*
X-78724Y113271D01*
X-78987Y112883D01*
X-79209Y112522D01*
X-79292Y112369D01*
X-79376Y112217D01*
X-79459Y112078D01*
X-79514Y111967D01*
X-79556Y111870D01*
X-79598Y111801D01*
X-79612Y111759D01*
X-79625Y111745D01*
X-81137D01*
X-81026Y112023D01*
X-80901Y112314D01*
X-80763Y112591D01*
X-80638Y112841D01*
X-80513Y113063D01*
X-80471Y113160D01*
X-80416Y113243D01*
X-80388Y113313D01*
X-80360Y113354D01*
X-80333Y113382D01*
Y113396D01*
X-80125Y113729D01*
X-79930Y114020D01*
X-79750Y114283D01*
X-79584Y114491D01*
X-79445Y114672D01*
X-79348Y114796D01*
X-79279Y114866D01*
X-79251Y114894D01*
X-89250D01*
Y116461D01*
X-76408D01*
Y115448D01*
D02*
G37*
G36*
X229606Y-421672D02*
X229897Y-421699D01*
X230160Y-421741D01*
X230424Y-421810D01*
X230660Y-421880D01*
X230868Y-421963D01*
X231076Y-422046D01*
X231256Y-422129D01*
X231423Y-422226D01*
X231561Y-422310D01*
X231686Y-422393D01*
X231783Y-422462D01*
X231866Y-422532D01*
X231922Y-422573D01*
X231950Y-422601D01*
X231963Y-422615D01*
X232144Y-422795D01*
X232296Y-422989D01*
X232421Y-423183D01*
X232546Y-423377D01*
X232643Y-423586D01*
X232712Y-423780D01*
X232782Y-423960D01*
X232837Y-424140D01*
X232879Y-424321D01*
X232906Y-424473D01*
X232934Y-424612D01*
X232948Y-424723D01*
Y-424820D01*
X232962Y-424903D01*
Y-424945D01*
Y-424958D01*
X232948Y-425291D01*
X232892Y-425597D01*
X232809Y-425874D01*
X232726Y-426110D01*
X232643Y-426290D01*
X232560Y-426429D01*
X232532Y-426484D01*
X232504Y-426526D01*
X232490Y-426539D01*
Y-426553D01*
X232296Y-426789D01*
X232060Y-426983D01*
X231825Y-427164D01*
X231589Y-427302D01*
X231381Y-427413D01*
X231284Y-427469D01*
X231201Y-427496D01*
X231145Y-427524D01*
X231090Y-427552D01*
X231062Y-427566D01*
X231048D01*
X231464Y-427705D01*
X231825Y-427871D01*
X232130Y-428065D01*
X232379Y-428259D01*
X232490Y-428342D01*
X232587Y-428439D01*
X232671Y-428509D01*
X232726Y-428578D01*
X232782Y-428634D01*
X232823Y-428675D01*
X232837Y-428703D01*
X232851Y-428717D01*
X232962Y-428883D01*
X233059Y-429050D01*
X233211Y-429396D01*
X233322Y-429743D01*
X233392Y-430062D01*
X233419Y-430215D01*
X233447Y-430353D01*
X233461Y-430478D01*
Y-430589D01*
X233475Y-430672D01*
Y-430742D01*
Y-430783D01*
Y-430797D01*
X233461Y-431102D01*
X233419Y-431394D01*
X233364Y-431685D01*
X233295Y-431948D01*
X233211Y-432184D01*
X233114Y-432420D01*
X233004Y-432628D01*
X232892Y-432822D01*
X232795Y-433002D01*
X232684Y-433155D01*
X232587Y-433280D01*
X232504Y-433391D01*
X232435Y-433488D01*
X232379Y-433543D01*
X232338Y-433585D01*
X232324Y-433599D01*
X232102Y-433793D01*
X231852Y-433959D01*
X231603Y-434112D01*
X231353Y-434236D01*
X231090Y-434347D01*
X230840Y-434431D01*
X230590Y-434514D01*
X230355Y-434569D01*
X230133Y-434611D01*
X229925Y-434652D01*
X229730Y-434680D01*
X229578Y-434694D01*
X229439D01*
X229342Y-434708D01*
X229259D01*
X228912Y-434694D01*
X228580Y-434666D01*
X228274Y-434611D01*
X227983Y-434528D01*
X227720Y-434445D01*
X227470Y-434361D01*
X227234Y-434250D01*
X227026Y-434153D01*
X226846Y-434056D01*
X226679Y-433945D01*
X226541Y-433862D01*
X226416Y-433765D01*
X226333Y-433696D01*
X226263Y-433640D01*
X226222Y-433612D01*
X226208Y-433599D01*
X226000Y-433391D01*
X225820Y-433155D01*
X225667Y-432933D01*
X225528Y-432697D01*
X225417Y-432461D01*
X225320Y-432239D01*
X225251Y-432018D01*
X225182Y-431796D01*
X225140Y-431601D01*
X225098Y-431421D01*
X225085Y-431255D01*
X225057Y-431116D01*
Y-430991D01*
X225043Y-430908D01*
Y-430853D01*
Y-430839D01*
Y-430617D01*
X225071Y-430409D01*
X225140Y-430020D01*
X225237Y-429674D01*
X225348Y-429383D01*
X225417Y-429258D01*
X225473Y-429147D01*
X225528Y-429050D01*
X225570Y-428966D01*
X225612Y-428897D01*
X225639Y-428856D01*
X225653Y-428828D01*
X225667Y-428814D01*
X225917Y-428509D01*
X226208Y-428259D01*
X226499Y-428037D01*
X226790Y-427871D01*
X227054Y-427732D01*
X227165Y-427677D01*
X227262Y-427635D01*
X227345Y-427607D01*
X227401Y-427580D01*
X227442Y-427566D01*
X227456D01*
X227123Y-427413D01*
X226832Y-427261D01*
X226596Y-427080D01*
X226388Y-426928D01*
X226236Y-426775D01*
X226125Y-426664D01*
X226069Y-426581D01*
X226042Y-426567D01*
Y-426553D01*
X225889Y-426290D01*
X225764Y-426026D01*
X225681Y-425763D01*
X225625Y-425527D01*
X225598Y-425319D01*
X225584Y-425222D01*
X225570Y-425153D01*
Y-425083D01*
Y-425042D01*
Y-425014D01*
Y-425000D01*
X225584Y-424751D01*
X225612Y-424501D01*
X225667Y-424265D01*
X225736Y-424043D01*
X225806Y-423835D01*
X225889Y-423641D01*
X225986Y-423461D01*
X226083Y-423294D01*
X226180Y-423156D01*
X226277Y-423017D01*
X226360Y-422906D01*
X226430Y-422809D01*
X226499Y-422740D01*
X226555Y-422684D01*
X226582Y-422656D01*
X226596Y-422643D01*
X226790Y-422462D01*
X227012Y-422323D01*
X227220Y-422185D01*
X227456Y-422074D01*
X227678Y-421977D01*
X227900Y-421894D01*
X228122Y-421838D01*
X228330Y-421783D01*
X228538Y-421741D01*
X228718Y-421713D01*
X228885Y-421686D01*
X229023Y-421672D01*
X229134Y-421658D01*
X229301D01*
X229606Y-421672D01*
D02*
G37*
G36*
X244750Y-434500D02*
X243058D01*
Y-429299D01*
X239785D01*
X239286Y-429286D01*
X238842Y-429244D01*
X238426Y-429188D01*
X238038Y-429119D01*
X237705Y-429036D01*
X237386Y-428939D01*
X237122Y-428842D01*
X236873Y-428731D01*
X236665Y-428634D01*
X236484Y-428537D01*
X236332Y-428439D01*
X236221Y-428356D01*
X236124Y-428273D01*
X236068Y-428218D01*
X236027Y-428190D01*
X236013Y-428176D01*
X235833Y-427954D01*
X235666Y-427732D01*
X235527Y-427496D01*
X235417Y-427261D01*
X235306Y-427025D01*
X235222Y-426803D01*
X235153Y-426581D01*
X235098Y-426373D01*
X235056Y-426165D01*
X235028Y-425985D01*
X235000Y-425832D01*
X234987Y-425694D01*
X234973Y-425569D01*
Y-425485D01*
Y-425430D01*
Y-425416D01*
X234987Y-425070D01*
X235028Y-424737D01*
X235098Y-424445D01*
X235167Y-424182D01*
X235250Y-423974D01*
X235278Y-423877D01*
X235306Y-423807D01*
X235333Y-423752D01*
X235361Y-423710D01*
X235375Y-423683D01*
Y-423669D01*
X235527Y-423377D01*
X235694Y-423142D01*
X235874Y-422920D01*
X236027Y-422753D01*
X236179Y-422615D01*
X236290Y-422518D01*
X236374Y-422448D01*
X236387Y-422435D01*
X236401D01*
X236651Y-422282D01*
X236914Y-422157D01*
X237178Y-422046D01*
X237428Y-421963D01*
X237649Y-421894D01*
X237747Y-421880D01*
X237830Y-421852D01*
X237885Y-421838D01*
X237941D01*
X237968Y-421824D01*
X237982D01*
X238107Y-421796D01*
X238260Y-421783D01*
X238565Y-421755D01*
X238884Y-421727D01*
X239203Y-421713D01*
X239480Y-421699D01*
X244750D01*
Y-434500D01*
D02*
G37*
G36*
X517850Y-423377D02*
X511582D01*
X511804Y-423641D01*
X512025Y-423918D01*
X512441Y-424487D01*
X512830Y-425042D01*
X513010Y-425319D01*
X513176Y-425569D01*
X513315Y-425818D01*
X513454Y-426040D01*
X513565Y-426234D01*
X513676Y-426401D01*
X513745Y-426539D01*
X513801Y-426651D01*
X513842Y-426706D01*
X513856Y-426734D01*
X514230Y-427483D01*
X514549Y-428218D01*
X514702Y-428564D01*
X514827Y-428911D01*
X514952Y-429244D01*
X515063Y-429549D01*
X515160Y-429826D01*
X515243Y-430076D01*
X515312Y-430312D01*
X515368Y-430506D01*
X515423Y-430658D01*
X515451Y-430769D01*
X515465Y-430839D01*
X515479Y-430867D01*
X515576Y-431255D01*
X515673Y-431629D01*
X515742Y-431990D01*
X515812Y-432337D01*
X515867Y-432655D01*
X515909Y-432961D01*
X515950Y-433224D01*
X515978Y-433488D01*
X516006Y-433709D01*
X516020Y-433918D01*
X516033Y-434084D01*
X516047Y-434236D01*
X516061Y-434347D01*
Y-434431D01*
Y-434486D01*
Y-434500D01*
X514452D01*
X514397Y-433807D01*
X514355Y-433474D01*
X514300Y-433155D01*
X514258Y-432850D01*
X514203Y-432558D01*
X514161Y-432281D01*
X514106Y-432031D01*
X514064Y-431810D01*
X514009Y-431601D01*
X513967Y-431421D01*
X513925Y-431269D01*
X513898Y-431158D01*
X513870Y-431061D01*
X513856Y-431005D01*
Y-430991D01*
X513593Y-430145D01*
X513440Y-429729D01*
X513288Y-429327D01*
X513135Y-428953D01*
X512982Y-428578D01*
X512830Y-428232D01*
X512691Y-427912D01*
X512552Y-427621D01*
X512428Y-427358D01*
X512303Y-427122D01*
X512206Y-426928D01*
X512122Y-426761D01*
X512067Y-426651D01*
X512025Y-426581D01*
X512012Y-426553D01*
X511790Y-426165D01*
X511554Y-425791D01*
X511332Y-425430D01*
X511124Y-425111D01*
X510916Y-424806D01*
X510708Y-424515D01*
X510514Y-424251D01*
X510334Y-424016D01*
X510167Y-423807D01*
X510028Y-423627D01*
X509890Y-423475D01*
X509779Y-423336D01*
X509696Y-423239D01*
X509626Y-423156D01*
X509585Y-423114D01*
X509571Y-423100D01*
Y-421866D01*
X517850D01*
Y-423377D01*
D02*
G37*
G36*
X529250Y-434500D02*
X527558D01*
Y-429299D01*
X524285D01*
X523786Y-429286D01*
X523342Y-429244D01*
X522926Y-429188D01*
X522538Y-429119D01*
X522205Y-429036D01*
X521886Y-428939D01*
X521622Y-428842D01*
X521373Y-428731D01*
X521165Y-428634D01*
X520984Y-428537D01*
X520832Y-428439D01*
X520721Y-428356D01*
X520624Y-428273D01*
X520568Y-428218D01*
X520527Y-428190D01*
X520513Y-428176D01*
X520333Y-427954D01*
X520166Y-427732D01*
X520028Y-427496D01*
X519917Y-427261D01*
X519806Y-427025D01*
X519722Y-426803D01*
X519653Y-426581D01*
X519598Y-426373D01*
X519556Y-426165D01*
X519528Y-425985D01*
X519501Y-425832D01*
X519487Y-425694D01*
X519473Y-425569D01*
Y-425485D01*
Y-425430D01*
Y-425416D01*
X519487Y-425070D01*
X519528Y-424737D01*
X519598Y-424445D01*
X519667Y-424182D01*
X519750Y-423974D01*
X519778Y-423877D01*
X519806Y-423807D01*
X519833Y-423752D01*
X519861Y-423710D01*
X519875Y-423683D01*
Y-423669D01*
X520028Y-423377D01*
X520194Y-423142D01*
X520374Y-422920D01*
X520527Y-422753D01*
X520679Y-422615D01*
X520790Y-422518D01*
X520873Y-422448D01*
X520887Y-422435D01*
X520901D01*
X521151Y-422282D01*
X521414Y-422157D01*
X521678Y-422046D01*
X521927Y-421963D01*
X522149Y-421894D01*
X522247Y-421880D01*
X522330Y-421852D01*
X522385Y-421838D01*
X522441D01*
X522468Y-421824D01*
X522482D01*
X522607Y-421796D01*
X522760Y-421783D01*
X523065Y-421755D01*
X523384Y-421727D01*
X523703Y-421713D01*
X523980Y-421699D01*
X529250D01*
Y-434500D01*
D02*
G37*
G36*
X-79570Y-315987D02*
X-79237Y-316028D01*
X-78945Y-316098D01*
X-78682Y-316167D01*
X-78474Y-316250D01*
X-78377Y-316278D01*
X-78307Y-316306D01*
X-78252Y-316333D01*
X-78210Y-316361D01*
X-78183Y-316375D01*
X-78169D01*
X-77877Y-316528D01*
X-77642Y-316694D01*
X-77420Y-316874D01*
X-77253Y-317027D01*
X-77115Y-317179D01*
X-77018Y-317290D01*
X-76948Y-317374D01*
X-76934Y-317387D01*
Y-317401D01*
X-76782Y-317651D01*
X-76657Y-317914D01*
X-76546Y-318178D01*
X-76463Y-318428D01*
X-76394Y-318649D01*
X-76380Y-318746D01*
X-76352Y-318830D01*
X-76338Y-318885D01*
Y-318941D01*
X-76324Y-318968D01*
Y-318982D01*
X-76297Y-319107D01*
X-76283Y-319260D01*
X-76255Y-319565D01*
X-76227Y-319884D01*
X-76213Y-320203D01*
X-76199Y-320480D01*
Y-320605D01*
Y-320716D01*
Y-320799D01*
Y-320868D01*
Y-320910D01*
Y-320924D01*
Y-325750D01*
X-89000D01*
Y-324058D01*
X-83799D01*
Y-320785D01*
X-83785Y-320286D01*
X-83744Y-319842D01*
X-83688Y-319426D01*
X-83619Y-319038D01*
X-83536Y-318705D01*
X-83439Y-318386D01*
X-83342Y-318122D01*
X-83231Y-317873D01*
X-83134Y-317665D01*
X-83037Y-317484D01*
X-82940Y-317332D01*
X-82856Y-317221D01*
X-82773Y-317124D01*
X-82718Y-317068D01*
X-82690Y-317027D01*
X-82676Y-317013D01*
X-82454Y-316833D01*
X-82232Y-316666D01*
X-81996Y-316528D01*
X-81761Y-316417D01*
X-81525Y-316306D01*
X-81303Y-316222D01*
X-81081Y-316153D01*
X-80873Y-316098D01*
X-80665Y-316056D01*
X-80485Y-316028D01*
X-80332Y-316000D01*
X-80194Y-315987D01*
X-80069Y-315973D01*
X-79916D01*
X-79570Y-315987D01*
D02*
G37*
G36*
X-76158Y-309552D02*
X-76477Y-309732D01*
X-76782Y-309940D01*
X-77073Y-310176D01*
X-77323Y-310411D01*
X-77559Y-310620D01*
X-77642Y-310717D01*
X-77725Y-310786D01*
X-77794Y-310855D01*
X-77836Y-310911D01*
X-77864Y-310938D01*
X-77877Y-310952D01*
X-78197Y-311327D01*
X-78474Y-311729D01*
X-78737Y-312117D01*
X-78959Y-312478D01*
X-79043Y-312631D01*
X-79126Y-312783D01*
X-79209Y-312922D01*
X-79264Y-313033D01*
X-79306Y-313130D01*
X-79348Y-313199D01*
X-79362Y-313241D01*
X-79375Y-313255D01*
X-80887D01*
X-80776Y-312977D01*
X-80651Y-312686D01*
X-80513Y-312409D01*
X-80388Y-312159D01*
X-80263Y-311937D01*
X-80221Y-311840D01*
X-80166Y-311757D01*
X-80138Y-311687D01*
X-80110Y-311646D01*
X-80083Y-311618D01*
Y-311604D01*
X-79875Y-311271D01*
X-79680Y-310980D01*
X-79500Y-310717D01*
X-79334Y-310509D01*
X-79195Y-310328D01*
X-79098Y-310203D01*
X-79029Y-310134D01*
X-79001Y-310106D01*
X-89000D01*
Y-308539D01*
X-76158D01*
Y-309552D01*
D02*
G37*
G36*
X133000Y-435500D02*
X131308D01*
Y-430299D01*
X128035D01*
X127536Y-430285D01*
X127092Y-430244D01*
X126676Y-430188D01*
X126288Y-430119D01*
X125955Y-430036D01*
X125636Y-429939D01*
X125372Y-429842D01*
X125123Y-429731D01*
X124915Y-429634D01*
X124734Y-429537D01*
X124582Y-429440D01*
X124471Y-429356D01*
X124374Y-429273D01*
X124318Y-429218D01*
X124277Y-429190D01*
X124263Y-429176D01*
X124083Y-428954D01*
X123916Y-428732D01*
X123778Y-428497D01*
X123667Y-428261D01*
X123556Y-428025D01*
X123472Y-427803D01*
X123403Y-427581D01*
X123348Y-427373D01*
X123306Y-427165D01*
X123278Y-426985D01*
X123251Y-426832D01*
X123237Y-426694D01*
X123223Y-426569D01*
Y-426485D01*
Y-426430D01*
Y-426416D01*
X123237Y-426069D01*
X123278Y-425737D01*
X123348Y-425445D01*
X123417Y-425182D01*
X123500Y-424974D01*
X123528Y-424877D01*
X123556Y-424808D01*
X123583Y-424752D01*
X123611Y-424710D01*
X123625Y-424683D01*
Y-424669D01*
X123778Y-424378D01*
X123944Y-424142D01*
X124124Y-423920D01*
X124277Y-423754D01*
X124429Y-423615D01*
X124540Y-423518D01*
X124623Y-423448D01*
X124637Y-423434D01*
X124651D01*
X124901Y-423282D01*
X125164Y-423157D01*
X125428Y-423046D01*
X125677Y-422963D01*
X125899Y-422894D01*
X125996Y-422880D01*
X126080Y-422852D01*
X126135Y-422838D01*
X126191D01*
X126218Y-422824D01*
X126232D01*
X126357Y-422797D01*
X126510Y-422783D01*
X126815Y-422755D01*
X127134Y-422727D01*
X127453Y-422713D01*
X127730Y-422700D01*
X133000D01*
Y-435500D01*
D02*
G37*
G36*
X118008Y-422672D02*
X118300Y-422713D01*
X118591Y-422769D01*
X118868Y-422838D01*
X119118Y-422935D01*
X119354Y-423032D01*
X119575Y-423143D01*
X119769Y-423254D01*
X119950Y-423365D01*
X120102Y-423476D01*
X120241Y-423573D01*
X120352Y-423670D01*
X120435Y-423740D01*
X120505Y-423795D01*
X120546Y-423837D01*
X120560Y-423851D01*
X120754Y-424086D01*
X120934Y-424322D01*
X121087Y-424586D01*
X121212Y-424849D01*
X121323Y-425099D01*
X121420Y-425362D01*
X121489Y-425626D01*
X121559Y-425862D01*
X121600Y-426097D01*
X121642Y-426305D01*
X121656Y-426499D01*
X121683Y-426666D01*
Y-426791D01*
X121697Y-426902D01*
Y-426957D01*
Y-426985D01*
X121683Y-427332D01*
X121656Y-427650D01*
X121600Y-427970D01*
X121531Y-428261D01*
X121448Y-428524D01*
X121350Y-428774D01*
X121253Y-429010D01*
X121143Y-429204D01*
X121045Y-429398D01*
X120948Y-429564D01*
X120851Y-429703D01*
X120768Y-429814D01*
X120699Y-429897D01*
X120643Y-429967D01*
X120616Y-430008D01*
X120602Y-430022D01*
X120394Y-430216D01*
X120172Y-430396D01*
X119950Y-430549D01*
X119714Y-430674D01*
X119492Y-430785D01*
X119270Y-430882D01*
X119062Y-430951D01*
X118854Y-431021D01*
X118660Y-431062D01*
X118480Y-431104D01*
X118327Y-431118D01*
X118188Y-431145D01*
X118078D01*
X117994Y-431159D01*
X117925D01*
X117578Y-431145D01*
X117246Y-431090D01*
X116940Y-431021D01*
X116677Y-430923D01*
X116455Y-430840D01*
X116372Y-430812D01*
X116289Y-430771D01*
X116233Y-430743D01*
X116192Y-430715D01*
X116164Y-430701D01*
X116150D01*
X115859Y-430507D01*
X115609Y-430313D01*
X115387Y-430105D01*
X115193Y-429911D01*
X115054Y-429745D01*
X114943Y-429606D01*
X114902Y-429550D01*
X114888Y-429509D01*
X114860Y-429495D01*
Y-429620D01*
Y-429717D01*
Y-429772D01*
Y-429800D01*
X114874Y-430161D01*
X114902Y-430507D01*
X114930Y-430826D01*
X114971Y-431118D01*
X114999Y-431242D01*
X115027Y-431367D01*
X115040Y-431464D01*
X115054Y-431548D01*
X115068Y-431617D01*
X115082Y-431672D01*
X115096Y-431700D01*
Y-431714D01*
X115193Y-432047D01*
X115290Y-432352D01*
X115387Y-432602D01*
X115470Y-432809D01*
X115554Y-432990D01*
X115623Y-433115D01*
X115665Y-433184D01*
X115678Y-433212D01*
X115817Y-433406D01*
X115970Y-433586D01*
X116122Y-433739D01*
X116261Y-433863D01*
X116386Y-433961D01*
X116483Y-434044D01*
X116552Y-434085D01*
X116580Y-434099D01*
X116788Y-434210D01*
X117010Y-434280D01*
X117218Y-434335D01*
X117412Y-434377D01*
X117578Y-434404D01*
X117717Y-434418D01*
X117842D01*
X118147Y-434404D01*
X118410Y-434349D01*
X118646Y-434266D01*
X118854Y-434183D01*
X119007Y-434099D01*
X119132Y-434016D01*
X119201Y-433961D01*
X119229Y-433947D01*
X119326Y-433850D01*
X119409Y-433739D01*
X119575Y-433503D01*
X119700Y-433253D01*
X119797Y-433004D01*
X119867Y-432768D01*
X119894Y-432671D01*
X119908Y-432588D01*
X119936Y-432504D01*
Y-432449D01*
X119950Y-432421D01*
Y-432407D01*
X121461Y-432532D01*
X121420Y-432809D01*
X121364Y-433073D01*
X121295Y-433309D01*
X121212Y-433531D01*
X121115Y-433739D01*
X121032Y-433933D01*
X120934Y-434113D01*
X120837Y-434266D01*
X120740Y-434404D01*
X120643Y-434529D01*
X120560Y-434640D01*
X120491Y-434723D01*
X120421Y-434793D01*
X120380Y-434834D01*
X120352Y-434862D01*
X120338Y-434876D01*
X120158Y-435028D01*
X119964Y-435153D01*
X119756Y-435264D01*
X119548Y-435361D01*
X119340Y-435431D01*
X119145Y-435500D01*
X118757Y-435597D01*
X118577Y-435639D01*
X118410Y-435666D01*
X118258Y-435680D01*
X118133Y-435694D01*
X118022Y-435708D01*
X117883D01*
X117620Y-435694D01*
X117370Y-435680D01*
X116899Y-435597D01*
X116677Y-435528D01*
X116483Y-435472D01*
X116289Y-435403D01*
X116122Y-435334D01*
X115956Y-435264D01*
X115817Y-435195D01*
X115706Y-435126D01*
X115595Y-435070D01*
X115526Y-435028D01*
X115456Y-434987D01*
X115429Y-434973D01*
X115415Y-434959D01*
X115221Y-434807D01*
X115040Y-434640D01*
X114721Y-434293D01*
X114444Y-433919D01*
X114222Y-433572D01*
X114139Y-433406D01*
X114056Y-433253D01*
X113986Y-433115D01*
X113931Y-432990D01*
X113889Y-432893D01*
X113862Y-432823D01*
X113834Y-432768D01*
Y-432754D01*
X113737Y-432463D01*
X113654Y-432172D01*
X113515Y-431534D01*
X113418Y-430882D01*
X113390Y-430563D01*
X113362Y-430258D01*
X113335Y-429967D01*
X113321Y-429703D01*
X113307Y-429453D01*
Y-429245D01*
X113293Y-429079D01*
Y-428954D01*
Y-428871D01*
Y-428843D01*
Y-428413D01*
X113321Y-428011D01*
X113349Y-427637D01*
X113376Y-427290D01*
X113418Y-426971D01*
X113459Y-426666D01*
X113515Y-426402D01*
X113556Y-426167D01*
X113612Y-425945D01*
X113667Y-425764D01*
X113709Y-425612D01*
X113751Y-425487D01*
X113778Y-425376D01*
X113806Y-425307D01*
X113834Y-425265D01*
Y-425251D01*
X113945Y-425029D01*
X114056Y-424808D01*
X114181Y-424613D01*
X114305Y-424419D01*
X114444Y-424253D01*
X114569Y-424100D01*
X114708Y-423948D01*
X114832Y-423823D01*
X114943Y-423712D01*
X115054Y-423615D01*
X115151Y-423532D01*
X115248Y-423462D01*
X115318Y-423407D01*
X115373Y-423365D01*
X115401Y-423351D01*
X115415Y-423337D01*
X115609Y-423213D01*
X115803Y-423116D01*
X116011Y-423018D01*
X116205Y-422949D01*
X116580Y-422824D01*
X116940Y-422741D01*
X117093Y-422713D01*
X117246Y-422700D01*
X117370Y-422672D01*
X117481D01*
X117564Y-422658D01*
X117689D01*
X118008Y-422672D01*
D02*
G37*
G36*
X152240Y427944D02*
X152600Y427889D01*
X152947Y427819D01*
X153266Y427708D01*
X153571Y427597D01*
X153848Y427473D01*
X154098Y427320D01*
X154320Y427181D01*
X154528Y427043D01*
X154708Y426890D01*
X154861Y426765D01*
X154986Y426641D01*
X155083Y426543D01*
X155152Y426474D01*
X155194Y426419D01*
X155208Y426405D01*
X155388Y426169D01*
X155540Y425919D01*
X155679Y425656D01*
X155790Y425406D01*
X155887Y425157D01*
X155970Y424907D01*
X156040Y424657D01*
X156095Y424435D01*
X156137Y424214D01*
X156165Y424019D01*
X156192Y423853D01*
X156206Y423700D01*
X156220Y423576D01*
Y423492D01*
Y423423D01*
Y423409D01*
X156206Y423076D01*
X156165Y422757D01*
X156109Y422452D01*
X156040Y422175D01*
X155956Y421898D01*
X155845Y421662D01*
X155749Y421426D01*
X155638Y421218D01*
X155527Y421038D01*
X155429Y420885D01*
X155332Y420733D01*
X155235Y420622D01*
X155166Y420538D01*
X155111Y420469D01*
X155069Y420428D01*
X155055Y420414D01*
X154833Y420206D01*
X154597Y420025D01*
X154362Y419873D01*
X154126Y419734D01*
X153890Y419623D01*
X153654Y419526D01*
X153432Y419457D01*
X153210Y419387D01*
X153016Y419346D01*
X152822Y419304D01*
X152656Y419290D01*
X152517Y419263D01*
X152406D01*
X152309Y419249D01*
X152240D01*
X152004Y419263D01*
X151768Y419276D01*
X151546Y419318D01*
X151324Y419374D01*
X150922Y419498D01*
X150728Y419581D01*
X150562Y419651D01*
X150395Y419720D01*
X150257Y419803D01*
X150132Y419873D01*
X150021Y419928D01*
X149938Y419984D01*
X149882Y420011D01*
X149840Y420039D01*
X149827Y420053D01*
X150506Y416614D01*
X155624D01*
Y415116D01*
X149258D01*
X148024Y421689D01*
X149494Y421898D01*
X149633Y421703D01*
X149785Y421523D01*
X149951Y421371D01*
X150090Y421232D01*
X150229Y421135D01*
X150340Y421052D01*
X150409Y421010D01*
X150437Y420996D01*
X150673Y420871D01*
X150908Y420788D01*
X151144Y420719D01*
X151366Y420677D01*
X151546Y420649D01*
X151699Y420635D01*
X151824D01*
X152046Y420649D01*
X152254Y420663D01*
X152462Y420705D01*
X152642Y420760D01*
X152989Y420885D01*
X153127Y420955D01*
X153266Y421024D01*
X153391Y421107D01*
X153488Y421176D01*
X153585Y421246D01*
X153654Y421301D01*
X153710Y421357D01*
X153765Y421398D01*
X153779Y421412D01*
X153793Y421426D01*
X153932Y421579D01*
X154043Y421745D01*
X154154Y421911D01*
X154237Y422078D01*
X154375Y422438D01*
X154459Y422771D01*
X154486Y422938D01*
X154514Y423076D01*
X154528Y423215D01*
X154542Y423326D01*
X154556Y423423D01*
Y423492D01*
Y423534D01*
Y423548D01*
X154542Y423811D01*
X154528Y424047D01*
X154486Y424283D01*
X154431Y424505D01*
X154375Y424699D01*
X154306Y424893D01*
X154237Y425060D01*
X154167Y425212D01*
X154084Y425351D01*
X154015Y425476D01*
X153946Y425573D01*
X153890Y425670D01*
X153835Y425739D01*
X153793Y425781D01*
X153779Y425808D01*
X153765Y425822D01*
X153613Y425975D01*
X153460Y426100D01*
X153308Y426211D01*
X153141Y426308D01*
X152975Y426391D01*
X152822Y426460D01*
X152517Y426557D01*
X152254Y426627D01*
X152143Y426641D01*
X152046Y426654D01*
X151962Y426668D01*
X151851D01*
X151671Y426654D01*
X151505Y426641D01*
X151200Y426571D01*
X150922Y426474D01*
X150687Y426363D01*
X150492Y426266D01*
X150354Y426169D01*
X150298Y426127D01*
X150257Y426100D01*
X150243Y426072D01*
X150229D01*
X150118Y425947D01*
X150007Y425822D01*
X149827Y425545D01*
X149674Y425240D01*
X149563Y424949D01*
X149494Y424685D01*
X149452Y424560D01*
X149438Y424463D01*
X149424Y424380D01*
X149411Y424324D01*
X149397Y424283D01*
Y424269D01*
X147746Y424394D01*
X147788Y424685D01*
X147844Y424976D01*
X147913Y425240D01*
X148010Y425489D01*
X148107Y425711D01*
X148204Y425933D01*
X148315Y426127D01*
X148426Y426294D01*
X148537Y426460D01*
X148634Y426599D01*
X148731Y426710D01*
X148828Y426807D01*
X148897Y426890D01*
X148953Y426946D01*
X148981Y426973D01*
X148995Y426987D01*
X149216Y427154D01*
X149438Y427306D01*
X149674Y427431D01*
X149910Y427542D01*
X150146Y427639D01*
X150381Y427722D01*
X150617Y427792D01*
X150839Y427833D01*
X151047Y427875D01*
X151241Y427902D01*
X151408Y427930D01*
X151560Y427944D01*
X151685Y427958D01*
X151851D01*
X152240Y427944D01*
D02*
G37*
G36*
X-17069Y2513D02*
X-16737Y2472D01*
X-16445Y2402D01*
X-16182Y2333D01*
X-15974Y2250D01*
X-15877Y2222D01*
X-15807Y2194D01*
X-15752Y2167D01*
X-15710Y2139D01*
X-15683Y2125D01*
X-15669D01*
X-15378Y1972D01*
X-15142Y1806D01*
X-14920Y1626D01*
X-14754Y1473D01*
X-14615Y1321D01*
X-14518Y1210D01*
X-14448Y1126D01*
X-14434Y1113D01*
Y1099D01*
X-14282Y849D01*
X-14157Y586D01*
X-14046Y322D01*
X-13963Y72D01*
X-13894Y-149D01*
X-13880Y-247D01*
X-13852Y-330D01*
X-13838Y-385D01*
Y-441D01*
X-13824Y-468D01*
Y-482D01*
X-13796Y-607D01*
X-13783Y-760D01*
X-13755Y-1065D01*
X-13727Y-1384D01*
X-13713Y-1703D01*
X-13700Y-1980D01*
Y-2105D01*
Y-2216D01*
Y-2299D01*
Y-2368D01*
Y-2410D01*
Y-2424D01*
Y-7250D01*
X-26500D01*
Y-5558D01*
X-21299D01*
Y-2285D01*
X-21286Y-1786D01*
X-21244Y-1342D01*
X-21188Y-926D01*
X-21119Y-538D01*
X-21036Y-205D01*
X-20939Y114D01*
X-20842Y378D01*
X-20731Y627D01*
X-20634Y835D01*
X-20537Y1016D01*
X-20440Y1168D01*
X-20356Y1279D01*
X-20273Y1376D01*
X-20218Y1432D01*
X-20190Y1473D01*
X-20176Y1487D01*
X-19954Y1667D01*
X-19732Y1834D01*
X-19497Y1972D01*
X-19261Y2083D01*
X-19025Y2194D01*
X-18803Y2278D01*
X-18581Y2347D01*
X-18373Y2402D01*
X-18165Y2444D01*
X-17985Y2472D01*
X-17832Y2500D01*
X-17694Y2513D01*
X-17569Y2527D01*
X-17416D01*
X-17069Y2513D01*
D02*
G37*
G36*
X143711Y414908D02*
X142698D01*
X142518Y415227D01*
X142310Y415532D01*
X142074Y415823D01*
X141839Y416073D01*
X141630Y416309D01*
X141533Y416392D01*
X141464Y416475D01*
X141395Y416544D01*
X141339Y416586D01*
X141312Y416614D01*
X141298Y416628D01*
X140923Y416946D01*
X140521Y417224D01*
X140133Y417487D01*
X139772Y417709D01*
X139620Y417793D01*
X139467Y417876D01*
X139328Y417959D01*
X139217Y418014D01*
X139120Y418056D01*
X139051Y418098D01*
X139009Y418111D01*
X138995Y418125D01*
Y419637D01*
X139273Y419526D01*
X139564Y419401D01*
X139841Y419263D01*
X140091Y419138D01*
X140313Y419013D01*
X140410Y418971D01*
X140493Y418916D01*
X140563Y418888D01*
X140604Y418860D01*
X140632Y418833D01*
X140646D01*
X140979Y418625D01*
X141270Y418430D01*
X141533Y418250D01*
X141741Y418084D01*
X141922Y417945D01*
X142046Y417848D01*
X142116Y417779D01*
X142144Y417751D01*
Y427750D01*
X143711D01*
Y414908D01*
D02*
G37*
G36*
X258267Y428430D02*
X258655Y428375D01*
X259016Y428292D01*
X259321Y428181D01*
X259446Y428139D01*
X259571Y428084D01*
X259668Y428042D01*
X259751Y428000D01*
X259820Y427973D01*
X259876Y427945D01*
X259904Y427917D01*
X259918D01*
X260236Y427695D01*
X260528Y427432D01*
X260777Y427168D01*
X260972Y426919D01*
X261138Y426683D01*
X261193Y426586D01*
X261249Y426503D01*
X261290Y426433D01*
X261318Y426378D01*
X261346Y426350D01*
Y426336D01*
X261526Y425934D01*
X261651Y425546D01*
X261748Y425171D01*
X261804Y424824D01*
X261831Y424672D01*
X261845Y424519D01*
X261859Y424395D01*
Y424297D01*
X261873Y424200D01*
Y424145D01*
Y424103D01*
Y424090D01*
X261859Y423757D01*
X261831Y423438D01*
X261776Y423133D01*
X261707Y422855D01*
X261609Y422592D01*
X261526Y422342D01*
X261415Y422120D01*
X261318Y421912D01*
X261221Y421732D01*
X261110Y421565D01*
X261027Y421427D01*
X260944Y421316D01*
X260861Y421219D01*
X260805Y421163D01*
X260777Y421122D01*
X260763Y421108D01*
X260555Y420900D01*
X260333Y420719D01*
X260112Y420567D01*
X259876Y420428D01*
X259654Y420317D01*
X259432Y420220D01*
X259210Y420151D01*
X259016Y420081D01*
X258822Y420040D01*
X258642Y419998D01*
X258489Y419984D01*
X258350Y419957D01*
X258239D01*
X258156Y419943D01*
X258087D01*
X257754Y419957D01*
X257435Y420012D01*
X257144Y420081D01*
X256880Y420151D01*
X256658Y420234D01*
X256575Y420276D01*
X256492Y420303D01*
X256437Y420331D01*
X256395Y420359D01*
X256367Y420373D01*
X256353D01*
X256062Y420553D01*
X255798Y420747D01*
X255563Y420955D01*
X255355Y421163D01*
X255202Y421357D01*
X255077Y421510D01*
X255036Y421565D01*
X255008Y421607D01*
X254981Y421634D01*
X254980Y421649D01*
Y421635D01*
X254981Y421634D01*
X254994Y421302D01*
X255008Y420969D01*
X255022Y420664D01*
X255050Y420387D01*
X255091Y420123D01*
X255133Y419874D01*
X255161Y419652D01*
X255202Y419457D01*
X255244Y419291D01*
X255285Y419138D01*
X255327Y419000D01*
X255355Y418903D01*
X255382Y418820D01*
X255410Y418750D01*
X255424Y418722D01*
Y418708D01*
X255604Y418348D01*
X255785Y418029D01*
X255979Y417752D01*
X256173Y417530D01*
X256339Y417349D01*
X256464Y417225D01*
X256520Y417183D01*
X256561Y417155D01*
X256575Y417127D01*
X256589D01*
X256811Y416989D01*
X257033Y416878D01*
X257255Y416809D01*
X257463Y416753D01*
X257643Y416725D01*
X257796Y416698D01*
X257920D01*
X258087Y416712D01*
X258253Y416725D01*
X258558Y416809D01*
X258836Y416906D01*
X259058Y417030D01*
X259252Y417155D01*
X259391Y417266D01*
X259432Y417308D01*
X259474Y417349D01*
X259487Y417363D01*
X259501Y417377D01*
X259640Y417557D01*
X259751Y417766D01*
X259862Y417987D01*
X259945Y418209D01*
X260014Y418403D01*
X260056Y418570D01*
X260070Y418639D01*
X260084Y418681D01*
X260098Y418708D01*
Y418722D01*
X261665Y418598D01*
X261623Y418320D01*
X261554Y418071D01*
X261485Y417835D01*
X261401Y417613D01*
X261304Y417405D01*
X261207Y417211D01*
X261110Y417030D01*
X261013Y416878D01*
X260916Y416739D01*
X260819Y416614D01*
X260736Y416503D01*
X260653Y416420D01*
X260597Y416351D01*
X260541Y416309D01*
X260514Y416282D01*
X260500Y416268D01*
X260306Y416115D01*
X260112Y415990D01*
X259918Y415866D01*
X259709Y415768D01*
X259487Y415685D01*
X259293Y415616D01*
X258891Y415519D01*
X258711Y415477D01*
X258545Y415449D01*
X258392Y415436D01*
X258267Y415422D01*
X258170Y415408D01*
X258018D01*
X257643Y415422D01*
X257296Y415477D01*
X256964Y415546D01*
X256658Y415644D01*
X256367Y415755D01*
X256104Y415879D01*
X255854Y416004D01*
X255632Y416143D01*
X255438Y416282D01*
X255271Y416406D01*
X255119Y416531D01*
X255008Y416642D01*
X254911Y416739D01*
X254842Y416809D01*
X254800Y416864D01*
X254786Y416878D01*
X254550Y417211D01*
X254328Y417585D01*
X254148Y418001D01*
X253996Y418431D01*
X253857Y418875D01*
X253746Y419319D01*
X253663Y419762D01*
X253580Y420206D01*
X253524Y420622D01*
X253482Y421011D01*
X253455Y421357D01*
X253441Y421662D01*
X253427Y421801D01*
Y421912D01*
X253413Y422023D01*
Y422106D01*
Y422176D01*
Y422231D01*
Y422259D01*
Y422273D01*
X253427Y422869D01*
X253469Y423424D01*
X253524Y423937D01*
X253607Y424408D01*
X253704Y424838D01*
X253801Y425227D01*
X253912Y425573D01*
X254037Y425878D01*
X254148Y426156D01*
X254259Y426392D01*
X254356Y426586D01*
X254453Y426738D01*
X254536Y426863D01*
X254592Y426946D01*
X254634Y427002D01*
X254648Y427016D01*
X254883Y427265D01*
X255147Y427487D01*
X255396Y427681D01*
X255674Y427848D01*
X255937Y427986D01*
X256201Y428111D01*
X256464Y428195D01*
X256714Y428278D01*
X256950Y428333D01*
X257158Y428375D01*
X257352Y428416D01*
X257518Y428430D01*
X257657Y428444D01*
X257768Y428458D01*
X257851D01*
X258267Y428430D01*
D02*
G37*
G36*
X249461Y415408D02*
X248448D01*
X248268Y415727D01*
X248060Y416032D01*
X247824Y416323D01*
X247589Y416573D01*
X247380Y416809D01*
X247283Y416892D01*
X247214Y416975D01*
X247145Y417044D01*
X247089Y417086D01*
X247062Y417114D01*
X247048Y417127D01*
X246673Y417447D01*
X246271Y417724D01*
X245883Y417987D01*
X245522Y418209D01*
X245369Y418293D01*
X245217Y418376D01*
X245078Y418459D01*
X244967Y418514D01*
X244870Y418556D01*
X244801Y418598D01*
X244759Y418611D01*
X244745Y418625D01*
Y420137D01*
X245023Y420026D01*
X245314Y419901D01*
X245591Y419762D01*
X245841Y419638D01*
X246063Y419513D01*
X246160Y419471D01*
X246243Y419416D01*
X246313Y419388D01*
X246354Y419360D01*
X246382Y419333D01*
X246396D01*
X246729Y419125D01*
X247020Y418930D01*
X247283Y418750D01*
X247491Y418584D01*
X247672Y418445D01*
X247796Y418348D01*
X247866Y418279D01*
X247894Y418251D01*
Y428250D01*
X249461D01*
Y415408D01*
D02*
G37*
G36*
X233942Y423049D02*
X237215D01*
X237714Y423036D01*
X238158Y422994D01*
X238574Y422938D01*
X238962Y422869D01*
X239295Y422786D01*
X239614Y422689D01*
X239878Y422592D01*
X240127Y422481D01*
X240335Y422384D01*
X240516Y422287D01*
X240668Y422189D01*
X240779Y422106D01*
X240876Y422023D01*
X240932Y421968D01*
X240973Y421940D01*
X240987Y421926D01*
X241167Y421704D01*
X241334Y421482D01*
X241472Y421246D01*
X241583Y421011D01*
X241694Y420775D01*
X241778Y420553D01*
X241847Y420331D01*
X241902Y420123D01*
X241944Y419915D01*
X241972Y419735D01*
X241999Y419582D01*
X242013Y419444D01*
X242027Y419319D01*
Y419235D01*
Y419180D01*
Y419166D01*
X242013Y418820D01*
X241972Y418487D01*
X241902Y418195D01*
X241833Y417932D01*
X241750Y417724D01*
X241722Y417627D01*
X241694Y417557D01*
X241667Y417502D01*
X241639Y417460D01*
X241625Y417433D01*
Y417419D01*
X241472Y417127D01*
X241306Y416892D01*
X241126Y416670D01*
X240973Y416503D01*
X240821Y416365D01*
X240710Y416268D01*
X240627Y416198D01*
X240613Y416185D01*
X240599D01*
X240349Y416032D01*
X240086Y415907D01*
X239822Y415796D01*
X239573Y415713D01*
X239351Y415644D01*
X239254Y415630D01*
X239170Y415602D01*
X239115Y415588D01*
X239059D01*
X239032Y415574D01*
X239018D01*
X238893Y415546D01*
X238740Y415533D01*
X238435Y415505D01*
X238116Y415477D01*
X237797Y415463D01*
X237520Y415449D01*
X232250D01*
Y428250D01*
X233942D01*
Y423049D01*
D02*
G37*
G36*
X-84743Y292598D02*
X-76449D01*
Y291308D01*
X-84743Y285455D01*
X-86185D01*
Y291031D01*
X-89250D01*
Y292598D01*
X-86185D01*
Y294331D01*
X-84743D01*
Y292598D01*
D02*
G37*
G36*
X-76408Y280948D02*
X-76727Y280768D01*
X-77032Y280560D01*
X-77323Y280324D01*
X-77573Y280088D01*
X-77809Y279880D01*
X-77892Y279783D01*
X-77975Y279714D01*
X-78044Y279645D01*
X-78086Y279589D01*
X-78114Y279561D01*
X-78128Y279548D01*
X-78446Y279173D01*
X-78724Y278771D01*
X-78987Y278383D01*
X-79209Y278022D01*
X-79292Y277869D01*
X-79376Y277717D01*
X-79459Y277578D01*
X-79514Y277467D01*
X-79556Y277370D01*
X-79598Y277301D01*
X-79612Y277259D01*
X-79625Y277245D01*
X-81137D01*
X-81026Y277523D01*
X-80901Y277814D01*
X-80763Y278091D01*
X-80638Y278341D01*
X-80513Y278563D01*
X-80471Y278660D01*
X-80416Y278743D01*
X-80388Y278813D01*
X-80360Y278854D01*
X-80333Y278882D01*
Y278896D01*
X-80125Y279229D01*
X-79930Y279520D01*
X-79750Y279783D01*
X-79584Y279991D01*
X-79445Y280172D01*
X-79348Y280296D01*
X-79279Y280366D01*
X-79251Y280394D01*
X-89250D01*
Y281961D01*
X-76408D01*
Y280948D01*
D02*
G37*
G36*
X-24988Y15938D02*
X-24683Y16160D01*
X-24545Y16271D01*
X-24420Y16382D01*
X-24309Y16479D01*
X-24226Y16548D01*
X-24170Y16604D01*
X-24156Y16617D01*
X-24073Y16701D01*
X-23962Y16812D01*
X-23851Y16937D01*
X-23726Y17075D01*
X-23449Y17366D01*
X-23186Y17672D01*
X-22936Y17963D01*
X-22825Y18088D01*
X-22728Y18212D01*
X-22645Y18296D01*
X-22589Y18379D01*
X-22548Y18420D01*
X-22534Y18434D01*
X-22270Y18739D01*
X-22020Y19031D01*
X-21799Y19294D01*
X-21577Y19530D01*
X-21383Y19752D01*
X-21188Y19946D01*
X-21022Y20126D01*
X-20869Y20293D01*
X-20745Y20431D01*
X-20620Y20542D01*
X-20523Y20639D01*
X-20440Y20723D01*
X-20370Y20778D01*
X-20329Y20833D01*
X-20301Y20847D01*
X-20287Y20861D01*
X-19982Y21125D01*
X-19705Y21333D01*
X-19441Y21513D01*
X-19205Y21666D01*
X-19011Y21777D01*
X-18858Y21860D01*
X-18803Y21888D01*
X-18761Y21901D01*
X-18748Y21915D01*
X-18734D01*
X-18456Y22026D01*
X-18179Y22095D01*
X-17929Y22151D01*
X-17694Y22193D01*
X-17499Y22220D01*
X-17347Y22234D01*
X-17222D01*
X-16945Y22220D01*
X-16681Y22193D01*
X-16431Y22137D01*
X-16182Y22068D01*
X-15960Y21985D01*
X-15752Y21888D01*
X-15558Y21790D01*
X-15391Y21693D01*
X-15225Y21596D01*
X-15086Y21499D01*
X-14962Y21402D01*
X-14864Y21319D01*
X-14795Y21250D01*
X-14726Y21194D01*
X-14698Y21166D01*
X-14684Y21153D01*
X-14504Y20944D01*
X-14351Y20723D01*
X-14213Y20487D01*
X-14088Y20237D01*
X-13991Y20001D01*
X-13908Y19752D01*
X-13838Y19516D01*
X-13783Y19280D01*
X-13741Y19072D01*
X-13713Y18864D01*
X-13686Y18684D01*
X-13672Y18531D01*
X-13658Y18406D01*
Y18310D01*
Y18254D01*
Y18226D01*
X-13672Y17893D01*
X-13700Y17574D01*
X-13741Y17283D01*
X-13810Y17006D01*
X-13880Y16742D01*
X-13963Y16507D01*
X-14046Y16285D01*
X-14129Y16091D01*
X-14226Y15910D01*
X-14310Y15758D01*
X-14393Y15619D01*
X-14462Y15508D01*
X-14532Y15425D01*
X-14573Y15369D01*
X-14601Y15328D01*
X-14615Y15314D01*
X-14795Y15120D01*
X-15003Y14953D01*
X-15211Y14801D01*
X-15447Y14662D01*
X-15669Y14551D01*
X-15891Y14440D01*
X-16126Y14357D01*
X-16335Y14288D01*
X-16543Y14218D01*
X-16737Y14177D01*
X-16917Y14135D01*
X-17069Y14107D01*
X-17194Y14094D01*
X-17277Y14080D01*
X-17333Y14066D01*
X-17361D01*
X-17527Y15675D01*
X-17305Y15688D01*
X-17097Y15702D01*
X-16737Y15785D01*
X-16404Y15896D01*
X-16265Y15952D01*
X-16140Y16021D01*
X-16029Y16077D01*
X-15932Y16146D01*
X-15849Y16201D01*
X-15780Y16243D01*
X-15724Y16299D01*
X-15683Y16326D01*
X-15669Y16340D01*
X-15655Y16354D01*
X-15530Y16493D01*
X-15419Y16631D01*
X-15336Y16784D01*
X-15253Y16937D01*
X-15128Y17242D01*
X-15045Y17533D01*
X-15003Y17782D01*
X-14975Y17893D01*
Y17990D01*
X-14962Y18074D01*
Y18129D01*
Y18171D01*
Y18185D01*
Y18379D01*
X-14989Y18573D01*
X-15059Y18920D01*
X-15170Y19211D01*
X-15280Y19474D01*
X-15405Y19669D01*
X-15461Y19752D01*
X-15516Y19821D01*
X-15558Y19877D01*
X-15586Y19918D01*
X-15599Y19932D01*
X-15613Y19946D01*
X-15738Y20071D01*
X-15863Y20168D01*
X-15988Y20265D01*
X-16126Y20334D01*
X-16390Y20459D01*
X-16640Y20542D01*
X-16848Y20584D01*
X-16945Y20612D01*
X-17028D01*
X-17083Y20626D01*
X-17180D01*
X-17347Y20612D01*
X-17513Y20598D01*
X-17846Y20515D01*
X-18165Y20390D01*
X-18456Y20251D01*
X-18706Y20112D01*
X-18803Y20057D01*
X-18900Y19987D01*
X-18970Y19946D01*
X-19025Y19904D01*
X-19053Y19891D01*
X-19066Y19877D01*
X-19261Y19724D01*
X-19469Y19544D01*
X-19691Y19336D01*
X-19913Y19114D01*
X-20370Y18656D01*
X-20800Y18185D01*
X-21008Y17963D01*
X-21188Y17741D01*
X-21355Y17547D01*
X-21493Y17380D01*
X-21618Y17242D01*
X-21702Y17145D01*
X-21771Y17075D01*
X-21785Y17047D01*
X-21993Y16798D01*
X-22187Y16576D01*
X-22367Y16354D01*
X-22548Y16160D01*
X-22714Y15966D01*
X-22880Y15799D01*
X-23019Y15647D01*
X-23158Y15508D01*
X-23282Y15383D01*
X-23393Y15286D01*
X-23491Y15189D01*
X-23560Y15120D01*
X-23629Y15050D01*
X-23671Y15009D01*
X-23699Y14995D01*
X-23712Y14981D01*
X-24018Y14731D01*
X-24323Y14523D01*
X-24614Y14343D01*
X-24877Y14204D01*
X-25099Y14094D01*
X-25196Y14052D01*
X-25266Y14010D01*
X-25335Y13982D01*
X-25377Y13969D01*
X-25404Y13955D01*
X-25418D01*
X-25612Y13885D01*
X-25807Y13844D01*
X-25987Y13802D01*
X-26153Y13788D01*
X-26292Y13774D01*
X-26500D01*
Y22248D01*
X-24988D01*
Y15938D01*
D02*
G37*
G36*
X-13658Y8948D02*
X-13977Y8768D01*
X-14282Y8560D01*
X-14573Y8324D01*
X-14823Y8088D01*
X-15059Y7880D01*
X-15142Y7783D01*
X-15225Y7714D01*
X-15294Y7645D01*
X-15336Y7589D01*
X-15364Y7562D01*
X-15378Y7548D01*
X-15697Y7173D01*
X-15974Y6771D01*
X-16237Y6383D01*
X-16459Y6022D01*
X-16543Y5870D01*
X-16626Y5717D01*
X-16709Y5578D01*
X-16764Y5467D01*
X-16806Y5370D01*
X-16848Y5301D01*
X-16861Y5259D01*
X-16875Y5245D01*
X-18387D01*
X-18276Y5523D01*
X-18151Y5814D01*
X-18012Y6091D01*
X-17888Y6341D01*
X-17763Y6563D01*
X-17721Y6660D01*
X-17666Y6743D01*
X-17638Y6813D01*
X-17610Y6854D01*
X-17583Y6882D01*
Y6896D01*
X-17375Y7229D01*
X-17180Y7520D01*
X-17000Y7783D01*
X-16834Y7991D01*
X-16695Y8172D01*
X-16598Y8296D01*
X-16529Y8366D01*
X-16501Y8394D01*
X-26500D01*
Y9961D01*
X-13658D01*
Y8948D01*
D02*
G37*
G36*
X128192Y422549D02*
X131465D01*
X131964Y422536D01*
X132408Y422494D01*
X132824Y422438D01*
X133212Y422369D01*
X133545Y422286D01*
X133864Y422189D01*
X134128Y422092D01*
X134377Y421981D01*
X134585Y421884D01*
X134766Y421787D01*
X134918Y421689D01*
X135029Y421606D01*
X135126Y421523D01*
X135182Y421468D01*
X135223Y421440D01*
X135237Y421426D01*
X135417Y421204D01*
X135584Y420982D01*
X135723Y420746D01*
X135833Y420511D01*
X135944Y420275D01*
X136028Y420053D01*
X136097Y419831D01*
X136152Y419623D01*
X136194Y419415D01*
X136222Y419235D01*
X136250Y419082D01*
X136263Y418944D01*
X136277Y418819D01*
Y418736D01*
Y418680D01*
Y418666D01*
X136263Y418320D01*
X136222Y417987D01*
X136152Y417695D01*
X136083Y417432D01*
X136000Y417224D01*
X135972Y417127D01*
X135944Y417057D01*
X135917Y417002D01*
X135889Y416960D01*
X135875Y416933D01*
Y416919D01*
X135723Y416628D01*
X135556Y416392D01*
X135376Y416170D01*
X135223Y416003D01*
X135071Y415865D01*
X134960Y415768D01*
X134876Y415698D01*
X134863Y415685D01*
X134849D01*
X134599Y415532D01*
X134336Y415407D01*
X134072Y415296D01*
X133822Y415213D01*
X133601Y415144D01*
X133504Y415130D01*
X133420Y415102D01*
X133365Y415088D01*
X133309D01*
X133282Y415074D01*
X133268D01*
X133143Y415047D01*
X132990Y415033D01*
X132685Y415005D01*
X132366Y414977D01*
X132047Y414963D01*
X131770Y414949D01*
X126500D01*
Y427750D01*
X128192D01*
Y422549D01*
D02*
G37*
%LPC*%
G36*
X-82399Y-297777D02*
X-82690D01*
X-83258Y-297791D01*
X-83772Y-297805D01*
X-84243Y-297847D01*
X-84673Y-297888D01*
X-85061Y-297944D01*
X-85394Y-298013D01*
X-85699Y-298083D01*
X-85963Y-298152D01*
X-86185Y-298221D01*
X-86379Y-298291D01*
X-86545Y-298346D01*
X-86670Y-298415D01*
X-86767Y-298457D01*
X-86823Y-298499D01*
X-86864Y-298512D01*
X-86878Y-298526D01*
X-87058Y-298665D01*
X-87225Y-298818D01*
X-87364Y-298970D01*
X-87474Y-299123D01*
X-87585Y-299275D01*
X-87669Y-299428D01*
X-87738Y-299566D01*
X-87793Y-299705D01*
X-87863Y-299955D01*
X-87891Y-300066D01*
X-87904Y-300163D01*
Y-300232D01*
X-87918Y-300301D01*
Y-300329D01*
Y-300343D01*
X-87904Y-300537D01*
X-87877Y-300731D01*
X-87821Y-300912D01*
X-87752Y-301078D01*
X-87599Y-301397D01*
X-87405Y-301661D01*
X-87211Y-301869D01*
X-87128Y-301952D01*
X-87058Y-302021D01*
X-86989Y-302090D01*
X-86934Y-302132D01*
X-86906Y-302146D01*
X-86892Y-302160D01*
X-86670Y-302285D01*
X-86407Y-302396D01*
X-86115Y-302507D01*
X-85796Y-302590D01*
X-85450Y-302659D01*
X-85103Y-302715D01*
X-84396Y-302798D01*
X-84063Y-302839D01*
X-83744Y-302853D01*
X-83453Y-302867D01*
X-83203Y-302881D01*
X-82995Y-302895D01*
X-82690D01*
X-82121Y-302881D01*
X-81608Y-302853D01*
X-81123Y-302826D01*
X-80693Y-302770D01*
X-80304Y-302715D01*
X-79944Y-302645D01*
X-79639Y-302562D01*
X-79362Y-302493D01*
X-79112Y-302423D01*
X-78918Y-302340D01*
X-78751Y-302271D01*
X-78613Y-302215D01*
X-78502Y-302160D01*
X-78432Y-302118D01*
X-78391Y-302104D01*
X-78377Y-302090D01*
X-78210Y-301966D01*
X-78072Y-301827D01*
X-77947Y-301688D01*
X-77850Y-301550D01*
X-77753Y-301397D01*
X-77683Y-301258D01*
X-77572Y-300981D01*
X-77503Y-300731D01*
X-77489Y-300620D01*
X-77475Y-300537D01*
X-77462Y-300454D01*
Y-300399D01*
Y-300371D01*
Y-300357D01*
X-77475Y-300149D01*
X-77503Y-299969D01*
X-77559Y-299774D01*
X-77628Y-299608D01*
X-77794Y-299289D01*
X-77975Y-299026D01*
X-78072Y-298915D01*
X-78169Y-298818D01*
X-78266Y-298734D01*
X-78335Y-298651D01*
X-78404Y-298596D01*
X-78460Y-298554D01*
X-78488Y-298540D01*
X-78502Y-298526D01*
X-78724Y-298388D01*
X-78973Y-298277D01*
X-79278Y-298180D01*
X-79597Y-298096D01*
X-79930Y-298027D01*
X-80277Y-297958D01*
X-80984Y-297875D01*
X-81317Y-297833D01*
X-81636Y-297819D01*
X-81927Y-297805D01*
X-82177Y-297791D01*
X-82399Y-297777D01*
D02*
G37*
G36*
X-79319Y-204970D02*
X-79458D01*
X-79666Y-204984D01*
X-79846Y-204998D01*
X-80193Y-205081D01*
X-80484Y-205192D01*
X-80734Y-205317D01*
X-80928Y-205442D01*
X-81067Y-205553D01*
X-81108Y-205594D01*
X-81150Y-205636D01*
X-81164Y-205650D01*
X-81178Y-205664D01*
X-81288Y-205802D01*
X-81372Y-205969D01*
X-81455Y-206135D01*
X-81524Y-206315D01*
X-81635Y-206704D01*
X-81705Y-207092D01*
X-81732Y-207272D01*
X-81760Y-207453D01*
X-81774Y-207605D01*
Y-207744D01*
X-81788Y-207855D01*
Y-207938D01*
Y-207994D01*
Y-208007D01*
Y-211308D01*
X-77211D01*
Y-208035D01*
Y-207827D01*
Y-207633D01*
X-77225Y-207467D01*
Y-207300D01*
X-77239Y-207161D01*
X-77253Y-207023D01*
X-77267Y-206912D01*
Y-206815D01*
X-77294Y-206648D01*
X-77322Y-206537D01*
X-77336Y-206468D01*
Y-206454D01*
X-77419Y-206218D01*
X-77530Y-206010D01*
X-77655Y-205830D01*
X-77780Y-205664D01*
X-77891Y-205553D01*
X-77988Y-205456D01*
X-78057Y-205400D01*
X-78085Y-205386D01*
X-78307Y-205248D01*
X-78542Y-205151D01*
X-78764Y-205067D01*
X-78986Y-205026D01*
X-79167Y-204998D01*
X-79319Y-204970D01*
D02*
G37*
G36*
X-80069Y272780D02*
X-80208D01*
X-80416Y272766D01*
X-80596Y272752D01*
X-80943Y272669D01*
X-81234Y272558D01*
X-81484Y272433D01*
X-81678Y272308D01*
X-81817Y272197D01*
X-81858Y272156D01*
X-81900Y272114D01*
X-81914Y272100D01*
X-81927Y272086D01*
X-82038Y271948D01*
X-82122Y271781D01*
X-82205Y271615D01*
X-82274Y271435D01*
X-82385Y271046D01*
X-82455Y270658D01*
X-82482Y270478D01*
X-82510Y270297D01*
X-82524Y270145D01*
Y270006D01*
X-82538Y269895D01*
Y269812D01*
Y269757D01*
Y269743D01*
Y266442D01*
X-77961D01*
Y269715D01*
Y269923D01*
Y270117D01*
X-77975Y270284D01*
Y270450D01*
X-77989Y270589D01*
X-78003Y270727D01*
X-78017Y270838D01*
Y270935D01*
X-78044Y271102D01*
X-78072Y271213D01*
X-78086Y271282D01*
Y271296D01*
X-78169Y271532D01*
X-78280Y271740D01*
X-78405Y271920D01*
X-78530Y272086D01*
X-78641Y272197D01*
X-78738Y272294D01*
X-78807Y272350D01*
X-78835Y272364D01*
X-79057Y272502D01*
X-79292Y272600D01*
X-79514Y272683D01*
X-79736Y272724D01*
X-79917Y272752D01*
X-80069Y272780D01*
D02*
G37*
G36*
Y107280D02*
X-80208D01*
X-80416Y107266D01*
X-80596Y107252D01*
X-80943Y107169D01*
X-81234Y107058D01*
X-81484Y106933D01*
X-81678Y106808D01*
X-81817Y106697D01*
X-81858Y106656D01*
X-81900Y106614D01*
X-81914Y106600D01*
X-81927Y106586D01*
X-82038Y106448D01*
X-82122Y106281D01*
X-82205Y106115D01*
X-82274Y105935D01*
X-82385Y105546D01*
X-82455Y105158D01*
X-82482Y104978D01*
X-82510Y104797D01*
X-82524Y104645D01*
Y104506D01*
X-82538Y104395D01*
Y104312D01*
Y104256D01*
Y104243D01*
Y100942D01*
X-77961D01*
Y104215D01*
Y104423D01*
Y104617D01*
X-77975Y104783D01*
Y104950D01*
X-77989Y105089D01*
X-78003Y105227D01*
X-78017Y105338D01*
Y105435D01*
X-78044Y105602D01*
X-78072Y105713D01*
X-78086Y105782D01*
Y105796D01*
X-78169Y106032D01*
X-78280Y106240D01*
X-78405Y106420D01*
X-78530Y106586D01*
X-78641Y106697D01*
X-78738Y106794D01*
X-78807Y106850D01*
X-78835Y106864D01*
X-79057Y107002D01*
X-79292Y107100D01*
X-79514Y107183D01*
X-79736Y107224D01*
X-79917Y107252D01*
X-80069Y107280D01*
D02*
G37*
G36*
X229356Y-422948D02*
X229107D01*
X228954Y-422975D01*
X228663Y-423045D01*
X228399Y-423142D01*
X228191Y-423239D01*
X228011Y-423350D01*
X227886Y-423447D01*
X227803Y-423516D01*
X227775Y-423530D01*
Y-423544D01*
X227664Y-423655D01*
X227581Y-423780D01*
X227428Y-424016D01*
X227317Y-424265D01*
X227248Y-424487D01*
X227206Y-424695D01*
X227193Y-424848D01*
X227179Y-424917D01*
Y-424958D01*
Y-424986D01*
Y-425000D01*
X227206Y-425291D01*
X227276Y-425555D01*
X227359Y-425804D01*
X227470Y-425999D01*
X227581Y-426165D01*
X227664Y-426290D01*
X227733Y-426359D01*
X227761Y-426387D01*
X227997Y-426581D01*
X228247Y-426720D01*
X228496Y-426817D01*
X228732Y-426886D01*
X228940Y-426928D01*
X229023Y-426942D01*
X229107D01*
X229176Y-426956D01*
X229259D01*
X229592Y-426928D01*
X229897Y-426872D01*
X230160Y-426775D01*
X230368Y-426664D01*
X230549Y-426567D01*
X230674Y-426470D01*
X230757Y-426415D01*
X230784Y-426387D01*
X230979Y-426165D01*
X231117Y-425915D01*
X231214Y-425666D01*
X231284Y-425430D01*
X231325Y-425222D01*
X231339Y-425139D01*
Y-425056D01*
X231353Y-424986D01*
Y-424945D01*
Y-424917D01*
Y-424903D01*
X231325Y-424612D01*
X231256Y-424348D01*
X231173Y-424113D01*
X231062Y-423918D01*
X230951Y-423752D01*
X230868Y-423627D01*
X230798Y-423558D01*
X230771Y-423530D01*
X230535Y-423336D01*
X230285Y-423197D01*
X230036Y-423086D01*
X229800Y-423017D01*
X229592Y-422975D01*
X229495Y-422962D01*
X229425D01*
X229356Y-422948D01*
D02*
G37*
G36*
X229412Y-428245D02*
X229301D01*
X229093Y-428259D01*
X228898Y-428273D01*
X228524Y-428356D01*
X228205Y-428481D01*
X227928Y-428620D01*
X227817Y-428689D01*
X227706Y-428759D01*
X227623Y-428814D01*
X227553Y-428883D01*
X227484Y-428925D01*
X227442Y-428966D01*
X227428Y-428980D01*
X227414Y-428994D01*
X227276Y-429133D01*
X227165Y-429286D01*
X227054Y-429438D01*
X226971Y-429591D01*
X226832Y-429910D01*
X226749Y-430201D01*
X226693Y-430464D01*
X226679Y-430575D01*
X226666Y-430672D01*
X226652Y-430756D01*
Y-430811D01*
Y-430853D01*
Y-430867D01*
X226666Y-431074D01*
X226679Y-431269D01*
X226763Y-431615D01*
X226887Y-431934D01*
X227012Y-432198D01*
X227082Y-432309D01*
X227151Y-432406D01*
X227220Y-432489D01*
X227276Y-432572D01*
X227317Y-432628D01*
X227359Y-432669D01*
X227373Y-432683D01*
X227387Y-432697D01*
X227526Y-432822D01*
X227678Y-432933D01*
X227831Y-433030D01*
X227983Y-433113D01*
X228302Y-433238D01*
X228593Y-433321D01*
X228857Y-433377D01*
X228968Y-433391D01*
X229065Y-433404D01*
X229148Y-433418D01*
X229259D01*
X229522Y-433404D01*
X229772Y-433363D01*
X230008Y-433307D01*
X230202Y-433252D01*
X230382Y-433196D01*
X230507Y-433141D01*
X230590Y-433099D01*
X230604Y-433085D01*
X230618D01*
X230840Y-432947D01*
X231034Y-432780D01*
X231187Y-432628D01*
X231325Y-432475D01*
X231423Y-432337D01*
X231506Y-432212D01*
X231547Y-432142D01*
X231561Y-432115D01*
X231658Y-431879D01*
X231741Y-431643D01*
X231797Y-431421D01*
X231825Y-431227D01*
X231852Y-431061D01*
X231866Y-430922D01*
Y-430839D01*
Y-430825D01*
Y-430811D01*
X231852Y-430603D01*
X231838Y-430423D01*
X231755Y-430062D01*
X231644Y-429743D01*
X231506Y-429480D01*
X231436Y-429369D01*
X231367Y-429272D01*
X231311Y-429188D01*
X231256Y-429105D01*
X231214Y-429050D01*
X231173Y-429008D01*
X231159Y-428994D01*
X231145Y-428980D01*
X231006Y-428856D01*
X230854Y-428731D01*
X230701Y-428634D01*
X230549Y-428550D01*
X230244Y-428426D01*
X229952Y-428342D01*
X229689Y-428287D01*
X229578Y-428273D01*
X229481Y-428259D01*
X229412Y-428245D01*
D02*
G37*
G36*
X243058Y-423211D02*
X239383D01*
X239216Y-423225D01*
X239050D01*
X238911Y-423239D01*
X238773Y-423253D01*
X238662Y-423267D01*
X238565D01*
X238398Y-423294D01*
X238287Y-423322D01*
X238218Y-423336D01*
X238204D01*
X237968Y-423419D01*
X237760Y-423530D01*
X237580Y-423655D01*
X237414Y-423780D01*
X237303Y-423891D01*
X237206Y-423988D01*
X237150Y-424057D01*
X237136Y-424085D01*
X236998Y-424307D01*
X236901Y-424543D01*
X236817Y-424764D01*
X236776Y-424986D01*
X236748Y-425167D01*
X236720Y-425319D01*
Y-425375D01*
Y-425416D01*
Y-425444D01*
Y-425458D01*
X236734Y-425666D01*
X236748Y-425846D01*
X236831Y-426193D01*
X236942Y-426484D01*
X237067Y-426734D01*
X237192Y-426928D01*
X237303Y-427066D01*
X237344Y-427108D01*
X237386Y-427150D01*
X237400Y-427164D01*
X237414Y-427178D01*
X237552Y-427288D01*
X237719Y-427372D01*
X237885Y-427455D01*
X238065Y-427524D01*
X238454Y-427635D01*
X238842Y-427705D01*
X239022Y-427732D01*
X239203Y-427760D01*
X239355Y-427774D01*
X239494D01*
X239605Y-427788D01*
X243058D01*
Y-423211D01*
D02*
G37*
G36*
X527558D02*
X523883D01*
X523717Y-423225D01*
X523550D01*
X523411Y-423239D01*
X523273Y-423253D01*
X523162Y-423267D01*
X523065D01*
X522898Y-423294D01*
X522787Y-423322D01*
X522718Y-423336D01*
X522704D01*
X522468Y-423419D01*
X522260Y-423530D01*
X522080Y-423655D01*
X521914Y-423780D01*
X521803Y-423891D01*
X521706Y-423988D01*
X521650Y-424057D01*
X521636Y-424085D01*
X521498Y-424307D01*
X521400Y-424543D01*
X521317Y-424764D01*
X521276Y-424986D01*
X521248Y-425167D01*
X521220Y-425319D01*
Y-425375D01*
Y-425416D01*
Y-425444D01*
Y-425458D01*
X521234Y-425666D01*
X521248Y-425846D01*
X521331Y-426193D01*
X521442Y-426484D01*
X521567Y-426734D01*
X521692Y-426928D01*
X521803Y-427066D01*
X521844Y-427108D01*
X521886Y-427150D01*
X521900Y-427164D01*
X521914Y-427178D01*
X522052Y-427288D01*
X522219Y-427372D01*
X522385Y-427455D01*
X522565Y-427524D01*
X522954Y-427635D01*
X523342Y-427705D01*
X523522Y-427732D01*
X523703Y-427760D01*
X523855Y-427774D01*
X523994D01*
X524105Y-427788D01*
X527558D01*
Y-423211D01*
D02*
G37*
G36*
X-79819Y-317720D02*
X-79958D01*
X-80166Y-317734D01*
X-80346Y-317748D01*
X-80693Y-317831D01*
X-80984Y-317942D01*
X-81234Y-318067D01*
X-81428Y-318192D01*
X-81566Y-318303D01*
X-81608Y-318344D01*
X-81650Y-318386D01*
X-81664Y-318400D01*
X-81678Y-318414D01*
X-81788Y-318552D01*
X-81872Y-318719D01*
X-81955Y-318885D01*
X-82024Y-319065D01*
X-82135Y-319454D01*
X-82205Y-319842D01*
X-82232Y-320022D01*
X-82260Y-320203D01*
X-82274Y-320355D01*
Y-320494D01*
X-82288Y-320605D01*
Y-320688D01*
Y-320743D01*
Y-320757D01*
Y-324058D01*
X-77711D01*
Y-320785D01*
Y-320577D01*
Y-320383D01*
X-77725Y-320216D01*
Y-320050D01*
X-77739Y-319911D01*
X-77753Y-319773D01*
X-77767Y-319662D01*
Y-319565D01*
X-77794Y-319398D01*
X-77822Y-319287D01*
X-77836Y-319218D01*
Y-319204D01*
X-77919Y-318968D01*
X-78030Y-318760D01*
X-78155Y-318580D01*
X-78280Y-318414D01*
X-78391Y-318303D01*
X-78488Y-318206D01*
X-78557Y-318150D01*
X-78585Y-318136D01*
X-78807Y-317998D01*
X-79043Y-317901D01*
X-79264Y-317817D01*
X-79486Y-317776D01*
X-79667Y-317748D01*
X-79819Y-317720D01*
D02*
G37*
G36*
X131308Y-424211D02*
X127633D01*
X127466Y-424225D01*
X127300D01*
X127161Y-424239D01*
X127023Y-424253D01*
X126912Y-424267D01*
X126815D01*
X126648Y-424294D01*
X126537Y-424322D01*
X126468Y-424336D01*
X126454D01*
X126218Y-424419D01*
X126010Y-424530D01*
X125830Y-424655D01*
X125664Y-424780D01*
X125553Y-424891D01*
X125456Y-424988D01*
X125400Y-425057D01*
X125386Y-425085D01*
X125248Y-425307D01*
X125150Y-425542D01*
X125067Y-425764D01*
X125026Y-425986D01*
X124998Y-426167D01*
X124970Y-426319D01*
Y-426375D01*
Y-426416D01*
Y-426444D01*
Y-426458D01*
X124984Y-426666D01*
X124998Y-426846D01*
X125081Y-427193D01*
X125192Y-427484D01*
X125317Y-427734D01*
X125442Y-427928D01*
X125553Y-428066D01*
X125594Y-428108D01*
X125636Y-428150D01*
X125650Y-428164D01*
X125664Y-428177D01*
X125802Y-428288D01*
X125969Y-428372D01*
X126135Y-428455D01*
X126315Y-428524D01*
X126704Y-428635D01*
X127092Y-428704D01*
X127272Y-428732D01*
X127453Y-428760D01*
X127605Y-428774D01*
X127744D01*
X127855Y-428788D01*
X131308D01*
Y-424211D01*
D02*
G37*
G36*
X117592Y-423961D02*
X117495D01*
X117315Y-423975D01*
X117135Y-423989D01*
X116954Y-424031D01*
X116802Y-424086D01*
X116497Y-424211D01*
X116247Y-424364D01*
X116039Y-424516D01*
X115956Y-424586D01*
X115886Y-424641D01*
X115831Y-424697D01*
X115789Y-424724D01*
X115775Y-424752D01*
X115762Y-424766D01*
X115637Y-424918D01*
X115526Y-425085D01*
X115429Y-425251D01*
X115345Y-425432D01*
X115221Y-425792D01*
X115124Y-426125D01*
X115096Y-426291D01*
X115082Y-426430D01*
X115068Y-426569D01*
X115054Y-426680D01*
X115040Y-426777D01*
Y-426846D01*
Y-426888D01*
Y-426902D01*
X115054Y-427151D01*
X115068Y-427387D01*
X115110Y-427595D01*
X115151Y-427803D01*
X115207Y-427997D01*
X115262Y-428164D01*
X115332Y-428330D01*
X115387Y-428469D01*
X115456Y-428593D01*
X115526Y-428704D01*
X115581Y-428802D01*
X115637Y-428885D01*
X115678Y-428940D01*
X115720Y-428982D01*
X115734Y-429010D01*
X115748Y-429023D01*
X115886Y-429148D01*
X116025Y-429273D01*
X116178Y-429370D01*
X116330Y-429453D01*
X116621Y-429592D01*
X116913Y-429675D01*
X117162Y-429731D01*
X117259Y-429745D01*
X117356Y-429758D01*
X117426Y-429772D01*
X117537D01*
X117731Y-429758D01*
X117925Y-429745D01*
X118286Y-429661D01*
X118591Y-429537D01*
X118868Y-429398D01*
X118979Y-429329D01*
X119076Y-429259D01*
X119159Y-429190D01*
X119229Y-429134D01*
X119298Y-429093D01*
X119340Y-429051D01*
X119354Y-429037D01*
X119367Y-429023D01*
X119492Y-428871D01*
X119603Y-428718D01*
X119700Y-428552D01*
X119783Y-428386D01*
X119908Y-428066D01*
X119991Y-427748D01*
X120047Y-427470D01*
X120061Y-427345D01*
X120075Y-427248D01*
X120089Y-427151D01*
Y-427096D01*
Y-427054D01*
Y-427040D01*
X120075Y-426791D01*
X120061Y-426555D01*
X119964Y-426125D01*
X119908Y-425917D01*
X119853Y-425737D01*
X119783Y-425570D01*
X119700Y-425418D01*
X119631Y-425279D01*
X119562Y-425168D01*
X119506Y-425057D01*
X119451Y-424974D01*
X119395Y-424905D01*
X119354Y-424863D01*
X119340Y-424835D01*
X119326Y-424821D01*
X119173Y-424669D01*
X119021Y-424544D01*
X118868Y-424419D01*
X118715Y-424322D01*
X118563Y-424239D01*
X118410Y-424170D01*
X118119Y-424072D01*
X117870Y-424003D01*
X117759Y-423989D01*
X117675Y-423975D01*
X117592Y-423961D01*
D02*
G37*
G36*
X-17319Y780D02*
X-17458D01*
X-17666Y766D01*
X-17846Y752D01*
X-18193Y669D01*
X-18484Y558D01*
X-18734Y433D01*
X-18928Y308D01*
X-19066Y197D01*
X-19108Y156D01*
X-19150Y114D01*
X-19164Y100D01*
X-19178Y86D01*
X-19288Y-52D01*
X-19372Y-219D01*
X-19455Y-385D01*
X-19524Y-565D01*
X-19635Y-954D01*
X-19705Y-1342D01*
X-19732Y-1522D01*
X-19760Y-1703D01*
X-19774Y-1855D01*
Y-1994D01*
X-19788Y-2105D01*
Y-2188D01*
Y-2244D01*
Y-2257D01*
Y-5558D01*
X-15211D01*
Y-2285D01*
Y-2077D01*
Y-1883D01*
X-15225Y-1717D01*
Y-1550D01*
X-15239Y-1411D01*
X-15253Y-1273D01*
X-15267Y-1162D01*
Y-1065D01*
X-15294Y-898D01*
X-15322Y-787D01*
X-15336Y-718D01*
Y-704D01*
X-15419Y-468D01*
X-15530Y-260D01*
X-15655Y-80D01*
X-15780Y86D01*
X-15891Y197D01*
X-15988Y294D01*
X-16057Y350D01*
X-16085Y364D01*
X-16307Y502D01*
X-16543Y600D01*
X-16764Y683D01*
X-16986Y724D01*
X-17167Y752D01*
X-17319Y780D01*
D02*
G37*
G36*
X257920Y427168D02*
X257823D01*
X257574Y427154D01*
X257324Y427113D01*
X257102Y427043D01*
X256908Y426974D01*
X256742Y426905D01*
X256617Y426835D01*
X256534Y426794D01*
X256520Y426780D01*
X256506D01*
X256284Y426614D01*
X256104Y426433D01*
X255937Y426253D01*
X255798Y426073D01*
X255688Y425906D01*
X255618Y425781D01*
X255590Y425726D01*
X255563Y425684D01*
X255549Y425671D01*
Y425657D01*
X255438Y425379D01*
X255355Y425102D01*
X255299Y424838D01*
X255258Y424603D01*
X255230Y424395D01*
Y424311D01*
X255216Y424242D01*
Y424187D01*
Y424145D01*
Y424117D01*
Y424103D01*
X255230Y423881D01*
X255244Y423660D01*
X255327Y423271D01*
X255452Y422924D01*
X255521Y422772D01*
X255590Y422647D01*
X255646Y422522D01*
X255715Y422411D01*
X255785Y422314D01*
X255840Y422245D01*
X255882Y422189D01*
X255923Y422148D01*
X255937Y422120D01*
X255951Y422106D01*
X256090Y421968D01*
X256242Y421843D01*
X256395Y421746D01*
X256547Y421662D01*
X256852Y421524D01*
X257144Y421427D01*
X257393Y421371D01*
X257504Y421357D01*
X257588Y421343D01*
X257671Y421330D01*
X257768D01*
X257962Y421343D01*
X258156Y421357D01*
X258503Y421455D01*
X258808Y421579D01*
X259072Y421718D01*
X259279Y421857D01*
X259363Y421926D01*
X259432Y421982D01*
X259487Y422037D01*
X259529Y422079D01*
X259543Y422092D01*
X259557Y422106D01*
X259682Y422259D01*
X259793Y422411D01*
X259890Y422578D01*
X259973Y422758D01*
X260098Y423105D01*
X260181Y423438D01*
X260209Y423590D01*
X260223Y423729D01*
X260236Y423854D01*
X260250Y423965D01*
X260264Y424062D01*
Y424131D01*
Y424173D01*
Y424187D01*
X260250Y424436D01*
X260236Y424672D01*
X260195Y424908D01*
X260153Y425116D01*
X260098Y425310D01*
X260042Y425490D01*
X259973Y425657D01*
X259904Y425795D01*
X259834Y425934D01*
X259765Y426045D01*
X259709Y426142D01*
X259654Y426225D01*
X259612Y426295D01*
X259571Y426336D01*
X259557Y426364D01*
X259543Y426378D01*
X259404Y426516D01*
X259266Y426641D01*
X259127Y426738D01*
X258974Y426835D01*
X258836Y426905D01*
X258683Y426974D01*
X258420Y427071D01*
X258184Y427127D01*
X258087Y427141D01*
X257990Y427154D01*
X257920Y427168D01*
D02*
G37*
G36*
X237395Y421538D02*
X233942D01*
Y416961D01*
X237617D01*
X237784Y416975D01*
X237950D01*
X238089Y416989D01*
X238227Y417003D01*
X238338Y417017D01*
X238435D01*
X238602Y417044D01*
X238713Y417072D01*
X238782Y417086D01*
X238796D01*
X239032Y417169D01*
X239240Y417280D01*
X239420Y417405D01*
X239586Y417530D01*
X239697Y417641D01*
X239794Y417738D01*
X239850Y417807D01*
X239864Y417835D01*
X240002Y418057D01*
X240100Y418293D01*
X240183Y418514D01*
X240224Y418736D01*
X240252Y418917D01*
X240280Y419069D01*
Y419125D01*
Y419166D01*
Y419194D01*
Y419208D01*
X240266Y419416D01*
X240252Y419596D01*
X240169Y419943D01*
X240058Y420234D01*
X239933Y420484D01*
X239808Y420678D01*
X239697Y420816D01*
X239656Y420858D01*
X239614Y420900D01*
X239600Y420914D01*
X239586Y420928D01*
X239448Y421038D01*
X239281Y421122D01*
X239115Y421205D01*
X238935Y421274D01*
X238546Y421385D01*
X238158Y421455D01*
X237978Y421482D01*
X237797Y421510D01*
X237645Y421524D01*
X237506D01*
X237395Y421538D01*
D02*
G37*
G36*
X-78973Y291031D02*
X-84743D01*
Y286995D01*
X-78973Y291031D01*
D02*
G37*
G36*
X131645Y421038D02*
X128192D01*
Y416461D01*
X131867D01*
X132034Y416475D01*
X132200D01*
X132339Y416489D01*
X132477Y416503D01*
X132588Y416517D01*
X132685D01*
X132852Y416544D01*
X132963Y416572D01*
X133032Y416586D01*
X133046D01*
X133282Y416669D01*
X133490Y416780D01*
X133670Y416905D01*
X133836Y417030D01*
X133947Y417141D01*
X134044Y417238D01*
X134100Y417307D01*
X134114Y417335D01*
X134252Y417557D01*
X134349Y417793D01*
X134433Y418014D01*
X134474Y418236D01*
X134502Y418417D01*
X134530Y418569D01*
Y418625D01*
Y418666D01*
Y418694D01*
Y418708D01*
X134516Y418916D01*
X134502Y419096D01*
X134419Y419443D01*
X134308Y419734D01*
X134183Y419984D01*
X134058Y420178D01*
X133947Y420317D01*
X133906Y420358D01*
X133864Y420400D01*
X133850Y420414D01*
X133836Y420428D01*
X133698Y420538D01*
X133531Y420622D01*
X133365Y420705D01*
X133185Y420774D01*
X132796Y420885D01*
X132408Y420955D01*
X132228Y420982D01*
X132047Y421010D01*
X131895Y421024D01*
X131756D01*
X131645Y421038D01*
D02*
G37*
%LPD*%
M02*
