G04 Layer_Physical_Order=1*
G04 Layer_Color=255*
%FSLAX44Y44*%
%MOMM*%
G71*
G01*
G75*
%ADD10R,1.8000X1.0000*%
G04:AMPARAMS|DCode=11|XSize=0.3mm|YSize=0.9mm|CornerRadius=0.03mm|HoleSize=0mm|Usage=FLASHONLY|Rotation=90.000|XOffset=0mm|YOffset=0mm|HoleType=Round|Shape=RoundedRectangle|*
%AMROUNDEDRECTD11*
21,1,0.3000,0.8400,0,0,90.0*
21,1,0.2400,0.9000,0,0,90.0*
1,1,0.0600,0.4200,0.1200*
1,1,0.0600,0.4200,-0.1200*
1,1,0.0600,-0.4200,-0.1200*
1,1,0.0600,-0.4200,0.1200*
%
%ADD11ROUNDEDRECTD11*%
G04:AMPARAMS|DCode=12|XSize=0.3mm|YSize=0.9mm|CornerRadius=0.03mm|HoleSize=0mm|Usage=FLASHONLY|Rotation=0.000|XOffset=0mm|YOffset=0mm|HoleType=Round|Shape=RoundedRectangle|*
%AMROUNDEDRECTD12*
21,1,0.3000,0.8400,0,0,0.0*
21,1,0.2400,0.9000,0,0,0.0*
1,1,0.0600,0.1200,-0.4200*
1,1,0.0600,-0.1200,-0.4200*
1,1,0.0600,-0.1200,0.4200*
1,1,0.0600,0.1200,0.4200*
%
%ADD12ROUNDEDRECTD12*%
%ADD13R,1.6500X4.6500*%
%ADD14R,1.0000X0.5500*%
%ADD15R,0.6000X1.2000*%
%ADD16R,0.6000X1.0500*%
%ADD17R,0.5500X0.8000*%
G04:AMPARAMS|DCode=18|XSize=0.7mm|YSize=1.1mm|CornerRadius=0.035mm|HoleSize=0mm|Usage=FLASHONLY|Rotation=0.000|XOffset=0mm|YOffset=0mm|HoleType=Round|Shape=RoundedRectangle|*
%AMROUNDEDRECTD18*
21,1,0.7000,1.0300,0,0,0.0*
21,1,0.6300,1.1000,0,0,0.0*
1,1,0.0700,0.3150,-0.5150*
1,1,0.0700,-0.3150,-0.5150*
1,1,0.0700,-0.3150,0.5150*
1,1,0.0700,0.3150,0.5150*
%
%ADD18ROUNDEDRECTD18*%
G04:AMPARAMS|DCode=19|XSize=1.1mm|YSize=1.1mm|CornerRadius=0.055mm|HoleSize=0mm|Usage=FLASHONLY|Rotation=0.000|XOffset=0mm|YOffset=0mm|HoleType=Round|Shape=RoundedRectangle|*
%AMROUNDEDRECTD19*
21,1,1.1000,0.9900,0,0,0.0*
21,1,0.9900,1.1000,0,0,0.0*
1,1,0.1100,0.4950,-0.4950*
1,1,0.1100,-0.4950,-0.4950*
1,1,0.1100,-0.4950,0.4950*
1,1,0.1100,0.4950,0.4950*
%
%ADD19ROUNDEDRECTD19*%
G04:AMPARAMS|DCode=20|XSize=0.3mm|YSize=1mm|CornerRadius=0.12mm|HoleSize=0mm|Usage=FLASHONLY|Rotation=90.000|XOffset=0mm|YOffset=0mm|HoleType=Round|Shape=RoundedRectangle|*
%AMROUNDEDRECTD20*
21,1,0.3000,0.7600,0,0,90.0*
21,1,0.0600,1.0000,0,0,90.0*
1,1,0.2400,0.3800,0.0300*
1,1,0.2400,0.3800,-0.0300*
1,1,0.2400,-0.3800,-0.0300*
1,1,0.2400,-0.3800,0.0300*
%
%ADD20ROUNDEDRECTD20*%
G04:AMPARAMS|DCode=21|XSize=0.3mm|YSize=1mm|CornerRadius=0.12mm|HoleSize=0mm|Usage=FLASHONLY|Rotation=0.000|XOffset=0mm|YOffset=0mm|HoleType=Round|Shape=RoundedRectangle|*
%AMROUNDEDRECTD21*
21,1,0.3000,0.7600,0,0,0.0*
21,1,0.0600,1.0000,0,0,0.0*
1,1,0.2400,0.0300,-0.3800*
1,1,0.2400,-0.0300,-0.3800*
1,1,0.2400,-0.0300,0.3800*
1,1,0.2400,0.0300,0.3800*
%
%ADD21ROUNDEDRECTD21*%
%ADD22R,6.0000X6.0000*%
G04:AMPARAMS|DCode=23|XSize=0.3mm|YSize=1mm|CornerRadius=0.075mm|HoleSize=0mm|Usage=FLASHONLY|Rotation=90.000|XOffset=0mm|YOffset=0mm|HoleType=Round|Shape=RoundedRectangle|*
%AMROUNDEDRECTD23*
21,1,0.3000,0.8500,0,0,90.0*
21,1,0.1500,1.0000,0,0,90.0*
1,1,0.1500,0.4250,0.0750*
1,1,0.1500,0.4250,-0.0750*
1,1,0.1500,-0.4250,-0.0750*
1,1,0.1500,-0.4250,0.0750*
%
%ADD23ROUNDEDRECTD23*%
G04:AMPARAMS|DCode=24|XSize=0.3mm|YSize=1mm|CornerRadius=0.075mm|HoleSize=0mm|Usage=FLASHONLY|Rotation=0.000|XOffset=0mm|YOffset=0mm|HoleType=Round|Shape=RoundedRectangle|*
%AMROUNDEDRECTD24*
21,1,0.3000,0.8500,0,0,0.0*
21,1,0.1500,1.0000,0,0,0.0*
1,1,0.1500,0.0750,-0.4250*
1,1,0.1500,-0.0750,-0.4250*
1,1,0.1500,-0.0750,0.4250*
1,1,0.1500,0.0750,0.4250*
%
%ADD24ROUNDEDRECTD24*%
%ADD25R,3.1500X3.1500*%
%ADD26R,1.0500X0.6000*%
%ADD27R,1.8000X1.2500*%
%ADD28R,1.2600X1.3000*%
%ADD29R,0.5000X1.0000*%
%ADD30R,0.7000X0.9000*%
%ADD31R,2.2600X0.6100*%
%ADD32R,1.0000X0.8500*%
%ADD33R,1.1000X2.1000*%
G04:AMPARAMS|DCode=34|XSize=0.3mm|YSize=0.8mm|CornerRadius=0.03mm|HoleSize=0mm|Usage=FLASHONLY|Rotation=0.000|XOffset=0mm|YOffset=0mm|HoleType=Round|Shape=RoundedRectangle|*
%AMROUNDEDRECTD34*
21,1,0.3000,0.7400,0,0,0.0*
21,1,0.2400,0.8000,0,0,0.0*
1,1,0.0600,0.1200,-0.3700*
1,1,0.0600,-0.1200,-0.3700*
1,1,0.0600,-0.1200,0.3700*
1,1,0.0600,0.1200,0.3700*
%
%ADD34ROUNDEDRECTD34*%
G04:AMPARAMS|DCode=35|XSize=0.3mm|YSize=0.8mm|CornerRadius=0.03mm|HoleSize=0mm|Usage=FLASHONLY|Rotation=90.000|XOffset=0mm|YOffset=0mm|HoleType=Round|Shape=RoundedRectangle|*
%AMROUNDEDRECTD35*
21,1,0.3000,0.7400,0,0,90.0*
21,1,0.2400,0.8000,0,0,90.0*
1,1,0.0600,0.3700,0.1200*
1,1,0.0600,0.3700,-0.1200*
1,1,0.0600,-0.3700,-0.1200*
1,1,0.0600,-0.3700,0.1200*
%
%ADD35ROUNDEDRECTD35*%
G04:AMPARAMS|DCode=36|XSize=0.3mm|YSize=0.8mm|CornerRadius=0.075mm|HoleSize=0mm|Usage=FLASHONLY|Rotation=180.000|XOffset=0mm|YOffset=0mm|HoleType=Round|Shape=RoundedRectangle|*
%AMROUNDEDRECTD36*
21,1,0.3000,0.6500,0,0,180.0*
21,1,0.1500,0.8000,0,0,180.0*
1,1,0.1500,-0.0750,0.3250*
1,1,0.1500,0.0750,0.3250*
1,1,0.1500,0.0750,-0.3250*
1,1,0.1500,-0.0750,-0.3250*
%
%ADD36ROUNDEDRECTD36*%
%ADD37R,1.6500X0.9500*%
%ADD38R,0.5000X0.2000*%
%ADD39R,2.3000X3.2000*%
G04:AMPARAMS|DCode=40|XSize=0.45mm|YSize=1mm|CornerRadius=0.045mm|HoleSize=0mm|Usage=FLASHONLY|Rotation=270.000|XOffset=0mm|YOffset=0mm|HoleType=Round|Shape=RoundedRectangle|*
%AMROUNDEDRECTD40*
21,1,0.4500,0.9100,0,0,270.0*
21,1,0.3600,1.0000,0,0,270.0*
1,1,0.0900,-0.4550,-0.1800*
1,1,0.0900,-0.4550,0.1800*
1,1,0.0900,0.4550,0.1800*
1,1,0.0900,0.4550,-0.1800*
%
%ADD40ROUNDEDRECTD40*%
G04:AMPARAMS|DCode=41|XSize=0.45mm|YSize=0.8mm|CornerRadius=0.045mm|HoleSize=0mm|Usage=FLASHONLY|Rotation=0.000|XOffset=0mm|YOffset=0mm|HoleType=Round|Shape=RoundedRectangle|*
%AMROUNDEDRECTD41*
21,1,0.4500,0.7100,0,0,0.0*
21,1,0.3600,0.8000,0,0,0.0*
1,1,0.0900,0.1800,-0.3550*
1,1,0.0900,-0.1800,-0.3550*
1,1,0.0900,-0.1800,0.3550*
1,1,0.0900,0.1800,0.3550*
%
%ADD41ROUNDEDRECTD41*%
%ADD42R,3.6000X2.6000*%
G04:AMPARAMS|DCode=43|XSize=0.3mm|YSize=0.8mm|CornerRadius=0.075mm|HoleSize=0mm|Usage=FLASHONLY|Rotation=270.000|XOffset=0mm|YOffset=0mm|HoleType=Round|Shape=RoundedRectangle|*
%AMROUNDEDRECTD43*
21,1,0.3000,0.6500,0,0,270.0*
21,1,0.1500,0.8000,0,0,270.0*
1,1,0.1500,-0.3250,-0.0750*
1,1,0.1500,-0.3250,0.0750*
1,1,0.1500,0.3250,0.0750*
1,1,0.1500,0.3250,-0.0750*
%
%ADD43ROUNDEDRECTD43*%
%ADD44R,1.6500X2.4000*%
%ADD45R,0.9000X0.8000*%
%ADD46R,2.6000X1.1000*%
%ADD47R,0.6000X2.6000*%
%ADD48R,0.3000X0.7000*%
%ADD49R,1.8000X5.9000*%
%ADD50R,0.8000X0.9000*%
%ADD51R,0.9000X0.7000*%
G04:AMPARAMS|DCode=52|XSize=0.7mm|YSize=0.9mm|CornerRadius=0.035mm|HoleSize=0mm|Usage=FLASHONLY|Rotation=0.000|XOffset=0mm|YOffset=0mm|HoleType=Round|Shape=RoundedRectangle|*
%AMROUNDEDRECTD52*
21,1,0.7000,0.8300,0,0,0.0*
21,1,0.6300,0.9000,0,0,0.0*
1,1,0.0700,0.3150,-0.4150*
1,1,0.0700,-0.3150,-0.4150*
1,1,0.0700,-0.3150,0.4150*
1,1,0.0700,0.3150,0.4150*
%
%ADD52ROUNDEDRECTD52*%
%ADD53R,0.8000X0.7000*%
%ADD54R,0.6000X0.6000*%
%ADD55R,0.8000X0.6000*%
%ADD56R,0.9800X0.9800*%
%ADD57R,1.0000X1.3000*%
%ADD58R,0.6000X0.6000*%
%ADD59R,1.3000X1.0000*%
%ADD60R,0.9800X0.9800*%
G04:AMPARAMS|DCode=61|XSize=0.41mm|YSize=1.1mm|CornerRadius=0.1025mm|HoleSize=0mm|Usage=FLASHONLY|Rotation=90.000|XOffset=0mm|YOffset=0mm|HoleType=Round|Shape=RoundedRectangle|*
%AMROUNDEDRECTD61*
21,1,0.4100,0.8950,0,0,90.0*
21,1,0.2050,1.1000,0,0,90.0*
1,1,0.2050,0.4475,0.1025*
1,1,0.2050,0.4475,-0.1025*
1,1,0.2050,-0.4475,-0.1025*
1,1,0.2050,-0.4475,0.1025*
%
%ADD61ROUNDEDRECTD61*%
%ADD62R,1.0000X1.1000*%
%ADD63C,0.2000*%
%ADD64R,0.4750X1.3000*%
%ADD65C,1.1900*%
%ADD66C,1.5000*%
%ADD67C,6.0000*%
%ADD68C,6.5000*%
%ADD69C,3.0000*%
%ADD70C,0.3000*%
D10*
X209250Y141500D02*
D03*
Y166500D02*
D03*
D11*
X172000Y-350750D02*
D03*
Y-355750D02*
D03*
Y-360750D02*
D03*
Y-365750D02*
D03*
Y-370750D02*
D03*
Y-375750D02*
D03*
Y-380750D02*
D03*
Y-385750D02*
D03*
Y-390750D02*
D03*
Y-395750D02*
D03*
X202000D02*
D03*
Y-390750D02*
D03*
Y-385750D02*
D03*
Y-380750D02*
D03*
Y-375750D02*
D03*
Y-370750D02*
D03*
Y-350750D02*
D03*
Y-355750D02*
D03*
Y-360750D02*
D03*
Y-365750D02*
D03*
X172000Y-205250D02*
D03*
Y-210250D02*
D03*
Y-215250D02*
D03*
Y-220250D02*
D03*
Y-225250D02*
D03*
Y-230250D02*
D03*
Y-235250D02*
D03*
Y-240250D02*
D03*
Y-245250D02*
D03*
Y-250250D02*
D03*
X202000D02*
D03*
Y-245250D02*
D03*
Y-240250D02*
D03*
Y-235250D02*
D03*
Y-230250D02*
D03*
Y-225250D02*
D03*
Y-205250D02*
D03*
Y-210250D02*
D03*
Y-215250D02*
D03*
Y-220250D02*
D03*
D12*
X179500Y-403250D02*
D03*
X184500D02*
D03*
X189500D02*
D03*
X194500D02*
D03*
X179500Y-343250D02*
D03*
X184500D02*
D03*
X189500D02*
D03*
X194500D02*
D03*
X179500Y-257750D02*
D03*
X184500D02*
D03*
X189500D02*
D03*
X194500D02*
D03*
X179500Y-197750D02*
D03*
X184500D02*
D03*
X189500D02*
D03*
X194500D02*
D03*
D13*
X187000Y-373250D02*
D03*
Y-227750D02*
D03*
D14*
X66250Y-291250D02*
D03*
Y-300750D02*
D03*
Y-310250D02*
D03*
X92250Y-310250D02*
D03*
Y-300750D02*
D03*
Y-291250D02*
D03*
D15*
X375000Y167750D02*
D03*
X365500Y185750D02*
D03*
X384500D02*
D03*
D16*
X42500Y126250D02*
D03*
X33000D02*
D03*
X23500D02*
D03*
Y99250D02*
D03*
X33000D02*
D03*
X42500D02*
D03*
D17*
X95000Y-10000D02*
D03*
X104500Y10000D02*
D03*
X85500D02*
D03*
D18*
X211250Y4500D02*
D03*
X230250D02*
D03*
Y-17500D02*
D03*
D19*
X213250D02*
D03*
D20*
X69604Y324354D02*
D03*
Y319354D02*
D03*
Y314354D02*
D03*
Y309354D02*
D03*
Y304354D02*
D03*
Y299354D02*
D03*
Y294354D02*
D03*
Y289354D02*
D03*
Y284354D02*
D03*
Y279354D02*
D03*
Y274354D02*
D03*
Y269354D02*
D03*
Y264354D02*
D03*
Y259354D02*
D03*
Y254354D02*
D03*
Y249354D02*
D03*
X159604D02*
D03*
Y254354D02*
D03*
Y259354D02*
D03*
Y264354D02*
D03*
Y269354D02*
D03*
Y274354D02*
D03*
Y279354D02*
D03*
Y284354D02*
D03*
Y289354D02*
D03*
Y294354D02*
D03*
Y299354D02*
D03*
Y304354D02*
D03*
Y309354D02*
D03*
Y314354D02*
D03*
Y319354D02*
D03*
Y324354D02*
D03*
D21*
X77104Y241854D02*
D03*
X82104D02*
D03*
X87104D02*
D03*
X92104D02*
D03*
X97104D02*
D03*
X102104D02*
D03*
X107104D02*
D03*
X112104D02*
D03*
X117104D02*
D03*
X122104D02*
D03*
X127104D02*
D03*
X132104D02*
D03*
X137104D02*
D03*
X142104D02*
D03*
X147104D02*
D03*
X152104D02*
D03*
Y331854D02*
D03*
X147104D02*
D03*
X142104D02*
D03*
X137104D02*
D03*
X132104D02*
D03*
X127104D02*
D03*
X122104D02*
D03*
X117104D02*
D03*
X112104D02*
D03*
X107104D02*
D03*
X102104D02*
D03*
X97104D02*
D03*
X92104D02*
D03*
X87104D02*
D03*
X82104D02*
D03*
X77104D02*
D03*
D22*
X114604Y286854D02*
D03*
D23*
X150000Y-43250D02*
D03*
Y-48250D02*
D03*
Y-53250D02*
D03*
Y-58250D02*
D03*
Y-63250D02*
D03*
Y-68250D02*
D03*
Y-73250D02*
D03*
Y-78250D02*
D03*
X200000D02*
D03*
Y-73250D02*
D03*
Y-68250D02*
D03*
Y-63250D02*
D03*
Y-58250D02*
D03*
Y-53250D02*
D03*
Y-48250D02*
D03*
Y-43250D02*
D03*
X293500Y103000D02*
D03*
Y98000D02*
D03*
Y93000D02*
D03*
Y88000D02*
D03*
Y83000D02*
D03*
Y78000D02*
D03*
Y73000D02*
D03*
Y68000D02*
D03*
X343500D02*
D03*
Y73000D02*
D03*
Y78000D02*
D03*
Y83000D02*
D03*
Y88000D02*
D03*
Y93000D02*
D03*
Y98000D02*
D03*
Y103000D02*
D03*
D24*
X157500Y-85750D02*
D03*
X162500D02*
D03*
X167500D02*
D03*
X172500D02*
D03*
X177500D02*
D03*
X182500D02*
D03*
X187500D02*
D03*
X192500D02*
D03*
Y-35750D02*
D03*
X187500D02*
D03*
X182500D02*
D03*
X177500D02*
D03*
X172500D02*
D03*
X167500D02*
D03*
X162500D02*
D03*
X157500D02*
D03*
X301000Y60500D02*
D03*
X306000D02*
D03*
X311000D02*
D03*
X316000D02*
D03*
X321000D02*
D03*
X326000D02*
D03*
X331000D02*
D03*
X336000D02*
D03*
Y110500D02*
D03*
X331000D02*
D03*
X326000D02*
D03*
X321000D02*
D03*
X316000D02*
D03*
X311000D02*
D03*
X306000D02*
D03*
X301000D02*
D03*
D25*
X175000Y-60750D02*
D03*
X318500Y85500D02*
D03*
D26*
X-9000Y-218500D02*
D03*
Y-233500D02*
D03*
Y-248500D02*
D03*
Y-263500D02*
D03*
Y-278500D02*
D03*
Y-293500D02*
D03*
Y-308500D02*
D03*
Y-323500D02*
D03*
Y59250D02*
D03*
Y74250D02*
D03*
Y89250D02*
D03*
Y104250D02*
D03*
Y119250D02*
D03*
Y134250D02*
D03*
Y149250D02*
D03*
Y164250D02*
D03*
Y-134750D02*
D03*
Y-119750D02*
D03*
Y-104750D02*
D03*
Y-89750D02*
D03*
Y-74750D02*
D03*
Y-59750D02*
D03*
Y248000D02*
D03*
Y263000D02*
D03*
Y278000D02*
D03*
Y293000D02*
D03*
Y308000D02*
D03*
Y323000D02*
D03*
D27*
X-61000Y-192500D02*
D03*
Y-349500D02*
D03*
Y33250D02*
D03*
Y190250D02*
D03*
Y-160750D02*
D03*
Y-33750D02*
D03*
Y222000D02*
D03*
Y349000D02*
D03*
D28*
X206000Y402650D02*
D03*
X288000D02*
D03*
X386000Y402649D02*
D03*
X324000D02*
D03*
D29*
X232000Y372750D02*
D03*
X262000D02*
D03*
X252000D02*
D03*
X242000D02*
D03*
X360000Y372749D02*
D03*
X350000D02*
D03*
D30*
X463000Y-97000D02*
D03*
X448000D02*
D03*
X55000Y-136750D02*
D03*
X40000D02*
D03*
X468000Y343000D02*
D03*
X453000D02*
D03*
X463000Y63000D02*
D03*
X448000D02*
D03*
X335500Y343000D02*
D03*
X320500D02*
D03*
X463000Y-17000D02*
D03*
X448000D02*
D03*
X338000Y268000D02*
D03*
X323000D02*
D03*
X463000D02*
D03*
X448000D02*
D03*
X339250Y-17250D02*
D03*
X324250D02*
D03*
X25000Y-124000D02*
D03*
X40000D02*
D03*
X328000Y-97000D02*
D03*
X313000D02*
D03*
D31*
X549750Y-115000D02*
D03*
Y-125000D02*
D03*
Y-135000D02*
D03*
Y-145000D02*
D03*
Y-155000D02*
D03*
Y-165000D02*
D03*
Y-175000D02*
D03*
Y-185000D02*
D03*
Y-195000D02*
D03*
Y-205000D02*
D03*
X633550D02*
D03*
Y-195000D02*
D03*
Y-185000D02*
D03*
Y-175000D02*
D03*
Y-165000D02*
D03*
Y-155000D02*
D03*
Y-145000D02*
D03*
Y-135000D02*
D03*
Y-125000D02*
D03*
Y-115000D02*
D03*
X549750Y-250000D02*
D03*
Y-260000D02*
D03*
Y-270000D02*
D03*
Y-280000D02*
D03*
Y-290000D02*
D03*
Y-300000D02*
D03*
Y-310000D02*
D03*
Y-320000D02*
D03*
Y-330000D02*
D03*
Y-340000D02*
D03*
X633550D02*
D03*
Y-330000D02*
D03*
Y-320000D02*
D03*
Y-310000D02*
D03*
Y-300000D02*
D03*
Y-290000D02*
D03*
Y-280000D02*
D03*
Y-270000D02*
D03*
Y-260000D02*
D03*
Y-250000D02*
D03*
X549750Y187300D02*
D03*
Y177300D02*
D03*
Y167300D02*
D03*
Y157300D02*
D03*
Y147300D02*
D03*
Y137300D02*
D03*
Y127300D02*
D03*
Y117300D02*
D03*
Y107300D02*
D03*
Y97300D02*
D03*
X633550D02*
D03*
Y107300D02*
D03*
Y117300D02*
D03*
Y127300D02*
D03*
Y137300D02*
D03*
Y147300D02*
D03*
Y157300D02*
D03*
Y167300D02*
D03*
Y177300D02*
D03*
Y187300D02*
D03*
X549750Y322300D02*
D03*
Y312300D02*
D03*
Y302300D02*
D03*
Y292300D02*
D03*
Y282300D02*
D03*
Y272300D02*
D03*
Y262300D02*
D03*
Y252300D02*
D03*
Y242300D02*
D03*
Y232300D02*
D03*
X633550D02*
D03*
Y242300D02*
D03*
Y252300D02*
D03*
Y262300D02*
D03*
Y272300D02*
D03*
Y282300D02*
D03*
Y292300D02*
D03*
Y302300D02*
D03*
Y312300D02*
D03*
Y322300D02*
D03*
D32*
X137500Y198500D02*
D03*
X154500D02*
D03*
Y212500D02*
D03*
X137500D02*
D03*
D33*
X275250Y170000D02*
D03*
D34*
X272750Y187000D02*
D03*
X277750D02*
D03*
Y153000D02*
D03*
X272750D02*
D03*
D35*
X287250Y182500D02*
D03*
Y177500D02*
D03*
Y172500D02*
D03*
Y167500D02*
D03*
Y162500D02*
D03*
Y157500D02*
D03*
X263250D02*
D03*
Y162500D02*
D03*
Y167500D02*
D03*
Y172500D02*
D03*
Y177500D02*
D03*
Y182500D02*
D03*
D36*
X408000Y235250D02*
D03*
X413000D02*
D03*
X418000D02*
D03*
X423000D02*
D03*
Y257250D02*
D03*
X418000D02*
D03*
X413000D02*
D03*
X408000D02*
D03*
Y-107750D02*
D03*
X413000D02*
D03*
X418000D02*
D03*
X423000D02*
D03*
Y-129750D02*
D03*
X418000D02*
D03*
X413000D02*
D03*
X408000D02*
D03*
Y310250D02*
D03*
X413000D02*
D03*
X418000D02*
D03*
X423000D02*
D03*
Y332250D02*
D03*
X418000D02*
D03*
X413000D02*
D03*
X408000D02*
D03*
Y30250D02*
D03*
X413000D02*
D03*
X418000D02*
D03*
X423000D02*
D03*
Y52250D02*
D03*
X418000D02*
D03*
X413000D02*
D03*
X408000D02*
D03*
X278000Y310250D02*
D03*
X283000D02*
D03*
X288000D02*
D03*
X293000D02*
D03*
Y332250D02*
D03*
X288000D02*
D03*
X283000D02*
D03*
X278000D02*
D03*
X408000Y-49750D02*
D03*
X413000D02*
D03*
X418000D02*
D03*
X423000D02*
D03*
Y-27750D02*
D03*
X418000D02*
D03*
X413000D02*
D03*
X408000D02*
D03*
X278000Y235250D02*
D03*
X283000D02*
D03*
X288000D02*
D03*
X293000D02*
D03*
Y257250D02*
D03*
X288000D02*
D03*
X283000D02*
D03*
X278000D02*
D03*
X273000Y-27750D02*
D03*
X278000D02*
D03*
X283000D02*
D03*
X288000D02*
D03*
Y-49750D02*
D03*
X283000D02*
D03*
X278000D02*
D03*
X273000D02*
D03*
Y-107750D02*
D03*
X278000D02*
D03*
X283000D02*
D03*
X288000D02*
D03*
Y-129750D02*
D03*
X283000D02*
D03*
X278000D02*
D03*
X273000D02*
D03*
D37*
X415500Y246250D02*
D03*
Y-118750D02*
D03*
Y321250D02*
D03*
Y41250D02*
D03*
X285500Y321250D02*
D03*
X415500Y-38750D02*
D03*
X285500Y246250D02*
D03*
X280500Y-38750D02*
D03*
Y-118750D02*
D03*
D38*
X410500Y254250D02*
D03*
Y-110750D02*
D03*
Y329250D02*
D03*
Y49250D02*
D03*
X280500Y329250D02*
D03*
X410500Y-30750D02*
D03*
X280500Y254250D02*
D03*
X275500Y-30750D02*
D03*
Y-110750D02*
D03*
D39*
X159250Y154000D02*
D03*
D40*
X139750Y142000D02*
D03*
Y150000D02*
D03*
Y158000D02*
D03*
Y166000D02*
D03*
X178750D02*
D03*
Y158000D02*
D03*
Y150000D02*
D03*
Y142000D02*
D03*
D41*
X108250Y132500D02*
D03*
X98750D02*
D03*
X89250D02*
D03*
X79750D02*
D03*
Y92500D02*
D03*
X89250D02*
D03*
X98750D02*
D03*
X108250D02*
D03*
D42*
X94000Y112500D02*
D03*
D43*
X70250Y195500D02*
D03*
Y200500D02*
D03*
Y205500D02*
D03*
Y210500D02*
D03*
X40250D02*
D03*
Y205500D02*
D03*
Y200500D02*
D03*
Y195500D02*
D03*
D44*
X55250Y203000D02*
D03*
D45*
X189000Y356250D02*
D03*
Y371250D02*
D03*
X221000Y-377750D02*
D03*
Y-363750D02*
D03*
Y-232250D02*
D03*
Y-218250D02*
D03*
X90500Y202000D02*
D03*
Y216000D02*
D03*
X107000Y202000D02*
D03*
Y216000D02*
D03*
X-21750Y381500D02*
D03*
Y366500D02*
D03*
X396000Y306750D02*
D03*
Y320750D02*
D03*
Y26750D02*
D03*
Y40750D02*
D03*
X266000Y306750D02*
D03*
Y320750D02*
D03*
X396000Y-53250D02*
D03*
Y-39250D02*
D03*
X266000Y231750D02*
D03*
Y245750D02*
D03*
X396000Y231750D02*
D03*
Y245750D02*
D03*
X369250Y-33500D02*
D03*
Y-19500D02*
D03*
X261000Y-60750D02*
D03*
Y-46750D02*
D03*
Y-133250D02*
D03*
Y-119250D02*
D03*
X396000Y-133250D02*
D03*
Y-119250D02*
D03*
D46*
X149250Y117500D02*
D03*
Y90500D02*
D03*
X349750Y-227750D02*
D03*
Y-254750D02*
D03*
X419000Y-380250D02*
D03*
Y-407250D02*
D03*
X349750Y-210000D02*
D03*
Y-183000D02*
D03*
Y-359250D02*
D03*
Y-332250D02*
D03*
X383750Y-380250D02*
D03*
Y-407250D02*
D03*
Y-210000D02*
D03*
Y-183000D02*
D03*
X93250Y-220000D02*
D03*
Y-193000D02*
D03*
X93250Y-339250D02*
D03*
Y-366250D02*
D03*
X129500Y-339250D02*
D03*
Y-366250D02*
D03*
Y-413750D02*
D03*
Y-386750D02*
D03*
X93250Y-413750D02*
D03*
Y-386750D02*
D03*
X129500Y-239000D02*
D03*
Y-266000D02*
D03*
X93250Y-239000D02*
D03*
Y-266000D02*
D03*
X129500Y-220000D02*
D03*
Y-193000D02*
D03*
X419000Y-359250D02*
D03*
Y-332250D02*
D03*
X383750Y-227750D02*
D03*
Y-254750D02*
D03*
X349750Y-380250D02*
D03*
Y-407250D02*
D03*
X419000Y-210000D02*
D03*
Y-183000D02*
D03*
Y-227750D02*
D03*
Y-254750D02*
D03*
X383750Y-359250D02*
D03*
Y-332250D02*
D03*
X181750Y117500D02*
D03*
Y90500D02*
D03*
X214250Y117500D02*
D03*
Y90500D02*
D03*
D47*
X182250Y409750D02*
D03*
X75250D02*
D03*
D48*
X86250Y387750D02*
D03*
X91250D02*
D03*
X96250D02*
D03*
X101250D02*
D03*
X106250D02*
D03*
X111250D02*
D03*
X116250D02*
D03*
X121250D02*
D03*
X171250D02*
D03*
X166250D02*
D03*
X161250D02*
D03*
X156250D02*
D03*
X151250D02*
D03*
X146250D02*
D03*
X141250D02*
D03*
X136250D02*
D03*
X131250D02*
D03*
X126250D02*
D03*
D49*
X239500Y-371750D02*
D03*
X319500D02*
D03*
Y-222250D02*
D03*
X239500D02*
D03*
D50*
X363750Y268000D02*
D03*
X349750D02*
D03*
X493750Y343000D02*
D03*
X479750D02*
D03*
X488750Y63000D02*
D03*
X474750D02*
D03*
X361250Y343000D02*
D03*
X347250D02*
D03*
X488750Y-17000D02*
D03*
X474750D02*
D03*
X488750Y268000D02*
D03*
X474750D02*
D03*
X353750Y-97000D02*
D03*
X339750D02*
D03*
X488750D02*
D03*
X474750D02*
D03*
D51*
X396000Y-108500D02*
D03*
Y-93500D02*
D03*
Y331500D02*
D03*
Y346500D02*
D03*
Y51500D02*
D03*
Y66500D02*
D03*
X266000Y331500D02*
D03*
Y346500D02*
D03*
X396000Y-28500D02*
D03*
Y-13500D02*
D03*
X266000Y256500D02*
D03*
Y271500D02*
D03*
X396000Y256500D02*
D03*
Y271500D02*
D03*
X261000Y-36000D02*
D03*
Y-21000D02*
D03*
Y-108500D02*
D03*
Y-93500D02*
D03*
D52*
X413004Y176886D02*
D03*
X419504Y157886D02*
D03*
X406504D02*
D03*
X26000Y-136750D02*
D03*
X13000D02*
D03*
X19500Y-155750D02*
D03*
D53*
X407004Y145288D02*
D03*
X419004D02*
D03*
X368950D02*
D03*
X380950D02*
D03*
Y199000D02*
D03*
X368950D02*
D03*
D54*
X242750Y-36000D02*
D03*
Y-46000D02*
D03*
X242750Y-11000D02*
D03*
Y-21000D02*
D03*
X217750Y-181000D02*
D03*
Y-171000D02*
D03*
X146250Y-316500D02*
D03*
Y-326500D02*
D03*
X165750D02*
D03*
Y-316500D02*
D03*
X206250Y-171000D02*
D03*
Y-181000D02*
D03*
X230500D02*
D03*
Y-171000D02*
D03*
X146250D02*
D03*
Y-181000D02*
D03*
X165750D02*
D03*
Y-171000D02*
D03*
X151000Y-268500D02*
D03*
Y-258500D02*
D03*
X206234Y-326500D02*
D03*
Y-316500D02*
D03*
X230250Y-316500D02*
D03*
Y-326500D02*
D03*
X156000Y-316500D02*
D03*
Y-326500D02*
D03*
X217734Y-316500D02*
D03*
Y-326500D02*
D03*
X156000Y-181000D02*
D03*
Y-171000D02*
D03*
X92750Y175750D02*
D03*
Y185750D02*
D03*
X103500D02*
D03*
Y175750D02*
D03*
X18750Y236500D02*
D03*
Y226500D02*
D03*
X92750Y149500D02*
D03*
Y159500D02*
D03*
X18750Y198250D02*
D03*
Y188250D02*
D03*
Y207000D02*
D03*
Y217000D02*
D03*
X143000Y-115000D02*
D03*
Y-125000D02*
D03*
X156000D02*
D03*
Y-115000D02*
D03*
X431000Y342250D02*
D03*
Y332250D02*
D03*
Y52250D02*
D03*
Y62250D02*
D03*
X301000Y342250D02*
D03*
Y332250D02*
D03*
X431000Y-27750D02*
D03*
Y-17750D02*
D03*
X301000Y267250D02*
D03*
Y257250D02*
D03*
X431000D02*
D03*
Y267250D02*
D03*
X123750Y127250D02*
D03*
Y117250D02*
D03*
X296000Y-17750D02*
D03*
Y-27750D02*
D03*
X82000Y149500D02*
D03*
Y159500D02*
D03*
X131254Y378021D02*
D03*
Y368021D02*
D03*
X-21750Y392000D02*
D03*
Y402000D02*
D03*
X103500Y159500D02*
D03*
Y149500D02*
D03*
X167460Y367000D02*
D03*
Y377000D02*
D03*
X64250Y109500D02*
D03*
Y99500D02*
D03*
X28250Y191750D02*
D03*
Y181750D02*
D03*
X125000Y-5000D02*
D03*
Y5000D02*
D03*
X135000Y-5000D02*
D03*
Y5000D02*
D03*
X260750Y84250D02*
D03*
Y94250D02*
D03*
X49250Y-295750D02*
D03*
Y-305750D02*
D03*
X119250Y-300750D02*
D03*
Y-310750D02*
D03*
X39250Y-295750D02*
D03*
Y-305750D02*
D03*
X109250Y-300750D02*
D03*
Y-310750D02*
D03*
X296000Y-107750D02*
D03*
Y-97750D02*
D03*
X431000D02*
D03*
Y-107750D02*
D03*
X129250Y-310750D02*
D03*
Y-300750D02*
D03*
X367250Y103500D02*
D03*
Y113500D02*
D03*
X117375Y-21750D02*
D03*
Y-31750D02*
D03*
X272750Y94250D02*
D03*
Y84250D02*
D03*
X117375Y-42500D02*
D03*
Y-52500D02*
D03*
X272750Y113500D02*
D03*
Y103500D02*
D03*
X131000Y-31750D02*
D03*
Y-21750D02*
D03*
X260750Y103500D02*
D03*
Y113500D02*
D03*
X379000Y103500D02*
D03*
Y113500D02*
D03*
X230875Y-46000D02*
D03*
Y-36000D02*
D03*
X220000D02*
D03*
Y-46000D02*
D03*
X131000Y-52500D02*
D03*
Y-42500D02*
D03*
X188000Y-115000D02*
D03*
Y-125000D02*
D03*
X200000D02*
D03*
Y-115000D02*
D03*
X222000Y-115000D02*
D03*
Y-125000D02*
D03*
X221500Y-85000D02*
D03*
Y-75000D02*
D03*
X133000Y-125000D02*
D03*
Y-115000D02*
D03*
X166000D02*
D03*
Y-125000D02*
D03*
X178000D02*
D03*
Y-115000D02*
D03*
X210000D02*
D03*
Y-125000D02*
D03*
X232000Y-125000D02*
D03*
Y-115000D02*
D03*
X231500Y-75000D02*
D03*
Y-85000D02*
D03*
X242750Y8750D02*
D03*
Y-1250D02*
D03*
D55*
X220500Y-66000D02*
D03*
X232500D02*
D03*
X144000Y-106000D02*
D03*
X132000D02*
D03*
X167000D02*
D03*
X155000D02*
D03*
X177000D02*
D03*
X189000D02*
D03*
X199000D02*
D03*
X211000D02*
D03*
X221000D02*
D03*
X233000D02*
D03*
D56*
X13500Y292300D02*
D03*
Y278700D02*
D03*
X27250Y292300D02*
D03*
Y278700D02*
D03*
X725000Y350700D02*
D03*
Y364300D02*
D03*
X711750Y350700D02*
D03*
Y364300D02*
D03*
D57*
X14500Y339000D02*
D03*
X34500D02*
D03*
X524750Y181750D02*
D03*
X504750D02*
D03*
X524750Y161187D02*
D03*
X504750D02*
D03*
X524750Y140625D02*
D03*
X504750D02*
D03*
X524750Y120063D02*
D03*
X504750D02*
D03*
X524750Y99500D02*
D03*
X504750D02*
D03*
X523000Y-255250D02*
D03*
X503000D02*
D03*
X523000Y-275625D02*
D03*
X503000D02*
D03*
X523000Y-296000D02*
D03*
X503000D02*
D03*
X523000Y-316375D02*
D03*
X503000D02*
D03*
X523000Y-336750D02*
D03*
X503000D02*
D03*
X485000Y161250D02*
D03*
X465000D02*
D03*
X485000Y140500D02*
D03*
X465000D02*
D03*
X485250Y120063D02*
D03*
X465250D02*
D03*
X485250Y99500D02*
D03*
X465250D02*
D03*
X484500Y-275625D02*
D03*
X464500D02*
D03*
X484500Y-296000D02*
D03*
X464500D02*
D03*
X484500Y-316375D02*
D03*
X464500D02*
D03*
X484500Y-336750D02*
D03*
X464500D02*
D03*
X440500Y376000D02*
D03*
X420500D02*
D03*
X347250Y17000D02*
D03*
X367250D02*
D03*
X433000Y194750D02*
D03*
X413000D02*
D03*
X625000Y0D02*
D03*
X645000D02*
D03*
X585000Y250D02*
D03*
X605000D02*
D03*
X311250Y17000D02*
D03*
X291250D02*
D03*
X529750Y250D02*
D03*
X549750D02*
D03*
X317750Y-286000D02*
D03*
X297750D02*
D03*
X237750Y203500D02*
D03*
X217750D02*
D03*
X237750Y185000D02*
D03*
X217750D02*
D03*
D58*
X220750Y-408750D02*
D03*
X210750D02*
D03*
Y-263250D02*
D03*
X220750D02*
D03*
X194000Y206500D02*
D03*
X184000D02*
D03*
X108250Y78750D02*
D03*
X98250D02*
D03*
X49500Y178000D02*
D03*
X59500D02*
D03*
X151500Y222250D02*
D03*
X161500D02*
D03*
X143000D02*
D03*
X133000D02*
D03*
X195250Y289000D02*
D03*
X185250D02*
D03*
Y280350D02*
D03*
X195250D02*
D03*
Y263050D02*
D03*
X185250D02*
D03*
Y271700D02*
D03*
X195250D02*
D03*
X29000Y237500D02*
D03*
X39000D02*
D03*
Y248000D02*
D03*
X29000D02*
D03*
X446250Y298000D02*
D03*
X436250D02*
D03*
Y18000D02*
D03*
X446250D02*
D03*
X316250Y298000D02*
D03*
X306250D02*
D03*
X436250Y-62000D02*
D03*
X446250D02*
D03*
X316250Y223000D02*
D03*
X306250D02*
D03*
X436250D02*
D03*
X446250D02*
D03*
X488250Y298000D02*
D03*
X478250D02*
D03*
Y18000D02*
D03*
X488250D02*
D03*
X358250Y298000D02*
D03*
X348250D02*
D03*
X478250Y-62000D02*
D03*
X488250D02*
D03*
X358250Y223000D02*
D03*
X348250D02*
D03*
X478250D02*
D03*
X488250D02*
D03*
X408250Y346750D02*
D03*
X418250D02*
D03*
Y66750D02*
D03*
X408250D02*
D03*
X278250Y346750D02*
D03*
X288250D02*
D03*
X418250Y-13250D02*
D03*
X408250D02*
D03*
X278250Y271750D02*
D03*
X288250D02*
D03*
X418250D02*
D03*
X408250D02*
D03*
X426000Y298000D02*
D03*
X416000D02*
D03*
Y18000D02*
D03*
X426000D02*
D03*
X296000Y298000D02*
D03*
X286000D02*
D03*
X416000Y-62000D02*
D03*
X426000D02*
D03*
X296000Y223000D02*
D03*
X286000D02*
D03*
X416000D02*
D03*
X426000D02*
D03*
X177500Y355250D02*
D03*
X167500D02*
D03*
X466750Y298000D02*
D03*
X456750D02*
D03*
Y18000D02*
D03*
X466750D02*
D03*
X336750Y298000D02*
D03*
X326750D02*
D03*
X456750Y-62000D02*
D03*
X466750D02*
D03*
X336750Y223000D02*
D03*
X326750D02*
D03*
X456750D02*
D03*
X466750D02*
D03*
X311250Y-62000D02*
D03*
X301250D02*
D03*
X353250D02*
D03*
X343250D02*
D03*
X283250Y-13250D02*
D03*
X273250D02*
D03*
X291000Y-62000D02*
D03*
X281000D02*
D03*
X331750D02*
D03*
X321750D02*
D03*
X209500Y359000D02*
D03*
X219500D02*
D03*
X39000Y226500D02*
D03*
X29000D02*
D03*
X185250Y245750D02*
D03*
X195250D02*
D03*
Y254400D02*
D03*
X185250D02*
D03*
X311250Y-142000D02*
D03*
X301250D02*
D03*
X436250D02*
D03*
X446250D02*
D03*
X343250D02*
D03*
X353250D02*
D03*
X488250D02*
D03*
X478250D02*
D03*
X283250Y-93250D02*
D03*
X273250D02*
D03*
X408250D02*
D03*
X418250D02*
D03*
X281000Y-142000D02*
D03*
X291000D02*
D03*
X426000D02*
D03*
X416000D02*
D03*
X331750D02*
D03*
X321750D02*
D03*
X456750D02*
D03*
X466750D02*
D03*
X311000Y127750D02*
D03*
X321000D02*
D03*
X168500Y-21250D02*
D03*
X178500D02*
D03*
X287500Y199000D02*
D03*
X297500D02*
D03*
X421000Y-153500D02*
D03*
X431000D02*
D03*
X400000D02*
D03*
X410000D02*
D03*
D59*
X522500Y25250D02*
D03*
Y45250D02*
D03*
X155000Y-10000D02*
D03*
Y10000D02*
D03*
X250000Y295000D02*
D03*
Y315000D02*
D03*
X522500Y-56250D02*
D03*
Y-36250D02*
D03*
X250000Y228000D02*
D03*
Y248000D02*
D03*
X521000Y342000D02*
D03*
Y322000D02*
D03*
X522500Y-95000D02*
D03*
Y-115000D02*
D03*
X13462Y-256380D02*
D03*
Y-236380D02*
D03*
Y-315430D02*
D03*
Y-295430D02*
D03*
D60*
X670450Y-35900D02*
D03*
X684050D02*
D03*
Y247091D02*
D03*
X670450D02*
D03*
X684050Y-215750D02*
D03*
X670450D02*
D03*
X684050Y-271250D02*
D03*
X670450D02*
D03*
X684050Y-326750D02*
D03*
X670450D02*
D03*
X684050Y-382250D02*
D03*
X670450D02*
D03*
X670450Y264500D02*
D03*
X684050D02*
D03*
X705200Y-363750D02*
D03*
X718800D02*
D03*
X705200Y-382250D02*
D03*
X718800D02*
D03*
X670450Y73000D02*
D03*
X684050D02*
D03*
X684050Y-234250D02*
D03*
X670450D02*
D03*
X684050Y-289750D02*
D03*
X670450D02*
D03*
X684050Y-345250D02*
D03*
X670450D02*
D03*
Y-252750D02*
D03*
X684050D02*
D03*
X670450Y-308250D02*
D03*
X684050D02*
D03*
X670450Y-363750D02*
D03*
X684050D02*
D03*
Y-197250D02*
D03*
X670450D02*
D03*
X684050Y212273D02*
D03*
X670450D02*
D03*
X684050Y160046D02*
D03*
X670450D02*
D03*
X684050Y107818D02*
D03*
X670450D02*
D03*
Y194864D02*
D03*
X684050D02*
D03*
X670450Y142636D02*
D03*
X684050D02*
D03*
X670450Y90409D02*
D03*
X684050D02*
D03*
X670450Y229682D02*
D03*
X684050D02*
D03*
X670450Y177454D02*
D03*
X684050D02*
D03*
X670450Y125227D02*
D03*
X684050D02*
D03*
X670450Y39500D02*
D03*
X684050D02*
D03*
X670450Y20650D02*
D03*
X684050D02*
D03*
Y-54750D02*
D03*
X670450D02*
D03*
X513200Y236500D02*
D03*
X526800D02*
D03*
X512700Y-201500D02*
D03*
X526300D02*
D03*
X513200Y249000D02*
D03*
X526800D02*
D03*
X512700Y-189000D02*
D03*
X526300D02*
D03*
X513200Y261750D02*
D03*
X526800D02*
D03*
X512700Y-176250D02*
D03*
X526300D02*
D03*
X513236Y274128D02*
D03*
X526837D02*
D03*
X512736Y-163872D02*
D03*
X526337D02*
D03*
D61*
X495878Y309448D02*
D03*
Y315948D02*
D03*
Y322448D02*
D03*
Y328948D02*
D03*
X451878Y309448D02*
D03*
Y315948D02*
D03*
Y322448D02*
D03*
Y328948D02*
D03*
X486628Y29448D02*
D03*
Y35948D02*
D03*
Y42448D02*
D03*
Y48948D02*
D03*
X442628Y29448D02*
D03*
Y35948D02*
D03*
Y42448D02*
D03*
Y48948D02*
D03*
X356628Y309448D02*
D03*
Y315948D02*
D03*
Y322448D02*
D03*
Y328948D02*
D03*
X312628Y309448D02*
D03*
Y315948D02*
D03*
Y322448D02*
D03*
Y328948D02*
D03*
X486628Y-50552D02*
D03*
Y-44052D02*
D03*
Y-37552D02*
D03*
Y-31052D02*
D03*
X442628Y-50552D02*
D03*
Y-44052D02*
D03*
Y-37552D02*
D03*
Y-31052D02*
D03*
X365878Y234448D02*
D03*
Y240948D02*
D03*
Y247448D02*
D03*
Y253948D02*
D03*
X321878Y234448D02*
D03*
Y240948D02*
D03*
Y247448D02*
D03*
Y253948D02*
D03*
X486628Y234448D02*
D03*
Y240948D02*
D03*
Y247448D02*
D03*
Y253948D02*
D03*
X442628Y234448D02*
D03*
Y240948D02*
D03*
Y247448D02*
D03*
Y253948D02*
D03*
X307628Y-31052D02*
D03*
Y-37552D02*
D03*
Y-44052D02*
D03*
Y-50552D02*
D03*
X351628Y-31052D02*
D03*
Y-37552D02*
D03*
Y-44052D02*
D03*
Y-50552D02*
D03*
X307628Y-111052D02*
D03*
Y-117552D02*
D03*
Y-124052D02*
D03*
Y-130552D02*
D03*
X351628Y-111052D02*
D03*
Y-117552D02*
D03*
Y-124052D02*
D03*
Y-130552D02*
D03*
X442628Y-111052D02*
D03*
Y-117552D02*
D03*
Y-124052D02*
D03*
Y-130552D02*
D03*
X486628Y-111052D02*
D03*
Y-117552D02*
D03*
Y-124052D02*
D03*
Y-130552D02*
D03*
D62*
X511535Y291250D02*
D03*
X528535D02*
D03*
X511085Y-146000D02*
D03*
X528085D02*
D03*
X511535Y304266D02*
D03*
X528535D02*
D03*
X511085Y-132984D02*
D03*
X528085D02*
D03*
D63*
X143000Y-476253D02*
Y-486250D01*
X149664D01*
X152997D02*
X156329D01*
X154663D01*
Y-476253D01*
X152997Y-477919D01*
D64*
X296655Y402651D02*
D03*
X197345D02*
D03*
X315345Y402650D02*
D03*
X394655D02*
D03*
D65*
X591650Y-115000D02*
D03*
Y-205000D02*
D03*
Y-97300D02*
D03*
Y-187300D02*
D03*
Y250000D02*
D03*
Y340000D02*
D03*
Y-250000D02*
D03*
Y-340000D02*
D03*
Y115000D02*
D03*
Y205000D02*
D03*
Y-322300D02*
D03*
Y-232300D02*
D03*
Y187300D02*
D03*
Y97300D02*
D03*
Y322300D02*
D03*
Y232300D02*
D03*
D66*
X712454Y311196D02*
D03*
X737854D02*
D03*
X712454Y285796D02*
D03*
X737854D02*
D03*
X712454Y260396D02*
D03*
X737854D02*
D03*
X712454Y234996D02*
D03*
X737854D02*
D03*
X712454Y209596D02*
D03*
X737854D02*
D03*
X712454Y184196D02*
D03*
X737854D02*
D03*
X712454Y158796D02*
D03*
X737854D02*
D03*
X712454Y133396D02*
D03*
X737854D02*
D03*
X712454Y107996D02*
D03*
X737854D02*
D03*
X712454Y82596D02*
D03*
X737854D02*
D03*
X712454Y57196D02*
D03*
X737854D02*
D03*
X712454Y31796D02*
D03*
X737854D02*
D03*
X712454Y6396D02*
D03*
X737854D02*
D03*
X712454Y-19004D02*
D03*
X737854D02*
D03*
X712454Y-44404D02*
D03*
X737854D02*
D03*
X712454Y-69804D02*
D03*
X737854D02*
D03*
X712454Y-95204D02*
D03*
X737854D02*
D03*
X712454Y-120604D02*
D03*
X737854D02*
D03*
X712454Y-146004D02*
D03*
X737854D02*
D03*
X712454Y-171404D02*
D03*
X737854D02*
D03*
X712454Y-196804D02*
D03*
X737854D02*
D03*
X712454Y-222204D02*
D03*
X737854D02*
D03*
X712454Y-247604D02*
D03*
X737854D02*
D03*
X712454Y-273004D02*
D03*
X737854D02*
D03*
X712454Y-298404D02*
D03*
X737854D02*
D03*
X712454Y-323804D02*
D03*
X737854D02*
D03*
X788654D02*
D03*
X763254D02*
D03*
X788654Y-298404D02*
D03*
X763254D02*
D03*
X788654Y-273004D02*
D03*
X763254D02*
D03*
X788654Y-247604D02*
D03*
X763254D02*
D03*
X788654Y-222204D02*
D03*
X763254D02*
D03*
X788654Y-196804D02*
D03*
X763254D02*
D03*
X788654Y-171404D02*
D03*
X763254D02*
D03*
X788654Y-146004D02*
D03*
X763254D02*
D03*
X788654Y-120604D02*
D03*
X763254D02*
D03*
X788654Y-95204D02*
D03*
X763254D02*
D03*
X788654Y-69804D02*
D03*
X763254D02*
D03*
X788654Y-44404D02*
D03*
X763254D02*
D03*
X788654Y-19004D02*
D03*
X763254D02*
D03*
X788654Y6396D02*
D03*
X763254D02*
D03*
X788654Y31796D02*
D03*
X763254D02*
D03*
X788654Y57196D02*
D03*
X763254D02*
D03*
X788654Y82596D02*
D03*
X763254D02*
D03*
X788654Y107996D02*
D03*
X763254D02*
D03*
X788654Y133396D02*
D03*
X763254D02*
D03*
X788654Y158796D02*
D03*
X763254D02*
D03*
X788654Y184196D02*
D03*
X763254D02*
D03*
X788654Y209596D02*
D03*
X763254D02*
D03*
X788654Y234996D02*
D03*
X763254D02*
D03*
X788654Y260396D02*
D03*
X763254D02*
D03*
X788654Y285796D02*
D03*
X763254D02*
D03*
X788654Y311196D02*
D03*
X763254D02*
D03*
D67*
X-68650Y-400000D02*
D03*
Y400100D02*
D03*
X788650Y-374600D02*
D03*
Y362000D02*
D03*
D68*
X31350Y-387300D02*
D03*
Y-50000D02*
D03*
Y50000D02*
D03*
Y387300D02*
D03*
X618650Y-387300D02*
D03*
Y-50000D02*
D03*
Y50000D02*
D03*
Y387300D02*
D03*
D69*
X80000Y-56650D02*
D03*
Y56650D02*
D03*
X570000Y-56650D02*
D03*
Y56650D02*
D03*
D70*
X396000Y232250D02*
D03*
X399000D02*
D03*
X395500Y245250D02*
D03*
X398500D02*
D03*
X396000Y270250D02*
D03*
X399000D02*
D03*
X395500Y257500D02*
D03*
X667750Y-212750D02*
D03*
X684000Y-217250D02*
D03*
Y-214250D02*
D03*
X686750Y-218750D02*
D03*
Y-212750D02*
D03*
Y-215750D02*
D03*
X25000Y-121500D02*
D03*
X258013Y-21751D02*
D03*
X126250Y386750D02*
D03*
X71750Y200500D02*
D03*
X297514Y224511D02*
D03*
X278000Y234750D02*
D03*
X337766Y221511D02*
D03*
X504013Y165438D02*
D03*
Y158938D02*
D03*
X485250Y164750D02*
D03*
X507250Y158938D02*
D03*
X504013Y162188D02*
D03*
X507250D02*
D03*
X461763Y143750D02*
D03*
Y140500D02*
D03*
X465000Y143750D02*
D03*
X465000Y159500D02*
D03*
X468250D02*
D03*
X67675Y279354D02*
D03*
X102104Y330604D02*
D03*
X107104Y333604D02*
D03*
X107104Y330604D02*
D03*
X112104Y333604D02*
D03*
X117104D02*
D03*
X117104Y330604D02*
D03*
X112104D02*
D03*
X558750Y165800D02*
D03*
X271272Y85598D02*
D03*
X274320D02*
D03*
X441250Y247500D02*
D03*
X444128Y-117552D02*
D03*
X281702Y-91750D02*
D03*
X321000Y61000D02*
D03*
X170000Y-19750D02*
D03*
X384500Y187250D02*
D03*
Y184250D02*
D03*
X379700Y197500D02*
D03*
Y200500D02*
D03*
X158604Y304354D02*
D03*
X180000Y-19750D02*
D03*
X218261Y-47502D02*
D03*
X200750Y-43250D02*
D03*
X197500Y-48250D02*
D03*
X201500Y-48250D02*
D03*
X182500Y-38250D02*
D03*
X261000Y-35000D02*
D03*
X259500Y-19000D02*
D03*
X258000Y-38000D02*
D03*
X261000D02*
D03*
X178759Y149757D02*
D03*
X182250Y142000D02*
D03*
X179250Y142000D02*
D03*
X151250Y389750D02*
D03*
X223511Y-126506D02*
D03*
X67854Y269354D02*
D03*
X244250Y-47500D02*
D03*
X241250D02*
D03*
X558750Y148800D02*
D03*
X558750Y145800D02*
D03*
X555750D02*
D03*
X555750Y148800D02*
D03*
X552750Y145800D02*
D03*
X552749Y148800D02*
D03*
X549750Y145800D02*
D03*
X549749Y148800D02*
D03*
X546749D02*
D03*
X543750D02*
D03*
X540750D02*
D03*
X546750Y145800D02*
D03*
X543750D02*
D03*
X540750D02*
D03*
X67839Y294354D02*
D03*
X639549Y-183500D02*
D03*
X642550D02*
D03*
X624550Y175800D02*
D03*
X624550Y178800D02*
D03*
X627550Y175800D02*
D03*
X624550Y148800D02*
D03*
X413000Y-132250D02*
D03*
X487750Y221750D02*
D03*
X504750Y185000D02*
D03*
X484756Y247395D02*
D03*
X495006Y309646D02*
D03*
X366250Y271000D02*
D03*
X197500Y-58250D02*
D03*
X329500Y92750D02*
D03*
X321250Y73500D02*
D03*
X320500Y81750D02*
D03*
X311250Y85500D02*
D03*
X304500D02*
D03*
X309500Y92250D02*
D03*
X304500D02*
D03*
X486750Y-142000D02*
D03*
X504750Y178500D02*
D03*
X501514Y116812D02*
D03*
X504750D02*
D03*
X507250Y165438D02*
D03*
X630550Y98800D02*
D03*
X627550D02*
D03*
X624549D02*
D03*
X540750Y135800D02*
D03*
X540750Y138800D02*
D03*
X540750Y155800D02*
D03*
X543750D02*
D03*
X546750D02*
D03*
X540750Y158800D02*
D03*
X543750D02*
D03*
X504750Y140625D02*
D03*
X501514Y137375D02*
D03*
X504750D02*
D03*
X504750Y181750D02*
D03*
X670500Y-270004D02*
D03*
X683750Y-252496D02*
D03*
X432500Y-155000D02*
D03*
X429500D02*
D03*
X422500D02*
D03*
X419500D02*
D03*
X434771Y-143499D02*
D03*
X427500Y-143500D02*
D03*
X411500Y-155000D02*
D03*
Y-152000D02*
D03*
X398500Y-155000D02*
D03*
Y-152000D02*
D03*
X201500Y-126500D02*
D03*
X211500Y-126500D02*
D03*
X157500Y-126500D02*
D03*
X230500Y-126500D02*
D03*
X168500Y-74500D02*
D03*
X174250Y-65500D02*
D03*
X161750Y-66000D02*
D03*
X162250Y-52500D02*
D03*
X229500Y-37500D02*
D03*
X208500Y-116500D02*
D03*
X186500D02*
D03*
X40750Y-297250D02*
D03*
X47750Y-304250D02*
D03*
X40750Y-307250D02*
D03*
X50750D02*
D03*
X79000Y135000D02*
D03*
X80504Y132256D02*
D03*
X281500Y-41250D02*
D03*
X350006Y-50605D02*
D03*
X353006Y-44105D02*
D03*
X350006D02*
D03*
Y-31105D02*
D03*
X353006D02*
D03*
X350006Y-37604D02*
D03*
X353006D02*
D03*
X306250Y-44000D02*
D03*
X309250D02*
D03*
Y-37500D02*
D03*
X306250D02*
D03*
X311536Y-30492D02*
D03*
X308536Y-31508D02*
D03*
X281706Y-11750D02*
D03*
Y-14750D02*
D03*
X271750Y-11750D02*
D03*
Y-14750D02*
D03*
X297500Y-29000D02*
D03*
X294500D02*
D03*
X297500Y-16250D02*
D03*
X294500D02*
D03*
X342000Y-63500D02*
D03*
Y-60500D02*
D03*
X320500Y-63500D02*
D03*
Y-60500D02*
D03*
X333250Y-63500D02*
D03*
Y-60500D02*
D03*
X312750D02*
D03*
Y-63500D02*
D03*
X300000Y-60500D02*
D03*
Y-63500D02*
D03*
X292500D02*
D03*
X273000Y-47250D02*
D03*
X288000Y-50250D02*
D03*
X283000D02*
D03*
X283000Y-25250D02*
D03*
Y-28250D02*
D03*
X288000Y-25250D02*
D03*
Y-28250D02*
D03*
X278000D02*
D03*
Y-25250D02*
D03*
X273000Y-28250D02*
D03*
Y-25250D02*
D03*
X261000Y-23000D02*
D03*
X264000Y-21750D02*
D03*
X264000Y-63250D02*
D03*
X261000D02*
D03*
Y-60250D02*
D03*
X261000Y-47250D02*
D03*
X264000Y-44250D02*
D03*
X261000D02*
D03*
X258000D02*
D03*
X366250Y-17000D02*
D03*
X369250D02*
D03*
X372250D02*
D03*
X369250Y-20000D02*
D03*
X369250Y-33000D02*
D03*
X366250Y-36000D02*
D03*
X369250D02*
D03*
X372250D02*
D03*
X341250Y-14250D02*
D03*
Y-17250D02*
D03*
Y-20250D02*
D03*
X338250Y-17250D02*
D03*
X325250Y-17250D02*
D03*
X322250Y-14250D02*
D03*
Y-17250D02*
D03*
Y-20250D02*
D03*
X264000Y-38000D02*
D03*
X356250Y-94000D02*
D03*
Y-97000D02*
D03*
Y-100000D02*
D03*
X353250Y-97000D02*
D03*
X264000Y-135250D02*
D03*
X261000Y-132250D02*
D03*
Y-135250D02*
D03*
X258000D02*
D03*
X300250Y-140500D02*
D03*
X299771Y-143499D02*
D03*
X352274Y-140749D02*
D03*
X354750Y-143500D02*
D03*
X264000Y-91500D02*
D03*
X261000D02*
D03*
X258000D02*
D03*
X261000Y-94500D02*
D03*
X271750Y-91750D02*
D03*
Y-94750D02*
D03*
X292500Y-140500D02*
D03*
Y-143500D02*
D03*
X330000Y-94000D02*
D03*
Y-97000D02*
D03*
X327000D02*
D03*
X330000Y-100000D02*
D03*
X320250Y-140500D02*
D03*
Y-143500D02*
D03*
X312772Y-143499D02*
D03*
X312500Y-140500D02*
D03*
X278000Y-129250D02*
D03*
Y-132250D02*
D03*
X288000Y-129250D02*
D03*
Y-132250D02*
D03*
X297500Y-109250D02*
D03*
X294500D02*
D03*
X288000Y-105250D02*
D03*
Y-108250D02*
D03*
X281702Y-94750D02*
D03*
X283000Y-105250D02*
D03*
Y-108250D02*
D03*
X273000Y-105250D02*
D03*
X278000D02*
D03*
X261000Y-107500D02*
D03*
X264000Y-110500D02*
D03*
X261000D02*
D03*
X258000D02*
D03*
X282000Y-118750D02*
D03*
X279000D02*
D03*
X273000Y-129250D02*
D03*
Y-132250D02*
D03*
X264000Y-116750D02*
D03*
X258000D02*
D03*
X261000D02*
D03*
Y-119750D02*
D03*
X278000Y-108250D02*
D03*
X273000D02*
D03*
X353128Y-130552D02*
D03*
X350128D02*
D03*
X333250Y-140500D02*
D03*
Y-143500D02*
D03*
X353128Y-117552D02*
D03*
Y-124052D02*
D03*
X350128Y-117552D02*
D03*
Y-124052D02*
D03*
X283000Y-132250D02*
D03*
X341750Y-140500D02*
D03*
Y-143500D02*
D03*
X283000Y-129250D02*
D03*
X279500Y-140500D02*
D03*
Y-143500D02*
D03*
X340250Y-97000D02*
D03*
X337250Y-94000D02*
D03*
Y-97000D02*
D03*
X353128Y-111052D02*
D03*
X337250Y-100000D02*
D03*
X350128Y-111052D02*
D03*
X309128Y-117552D02*
D03*
X306128D02*
D03*
X309128Y-124052D02*
D03*
X306128D02*
D03*
X311000Y-94000D02*
D03*
X314000Y-97000D02*
D03*
X311000D02*
D03*
X294500Y-96250D02*
D03*
X297500D02*
D03*
X311000Y-100000D02*
D03*
X311414Y-110544D02*
D03*
X308414Y-111560D02*
D03*
X491250Y-94000D02*
D03*
Y-97000D02*
D03*
Y-100000D02*
D03*
X488250Y-97000D02*
D03*
X399000Y-135250D02*
D03*
X396000Y-132250D02*
D03*
Y-135250D02*
D03*
X393000D02*
D03*
X435250Y-140500D02*
D03*
X489751Y-142024D02*
D03*
X406750Y-91750D02*
D03*
Y-94750D02*
D03*
X427500Y-140500D02*
D03*
X465000Y-94000D02*
D03*
Y-97000D02*
D03*
X462000D02*
D03*
X465000Y-100000D02*
D03*
X455250Y-140500D02*
D03*
Y-143500D02*
D03*
X447772Y-143499D02*
D03*
X447500Y-140500D02*
D03*
X413000Y-129250D02*
D03*
X423000D02*
D03*
Y-132250D02*
D03*
X432500Y-109250D02*
D03*
X429500D02*
D03*
X423000Y-105250D02*
D03*
Y-108250D02*
D03*
X416956Y-91750D02*
D03*
Y-94750D02*
D03*
X418000Y-105250D02*
D03*
Y-108250D02*
D03*
X408000Y-105250D02*
D03*
X413000D02*
D03*
X396000Y-107500D02*
D03*
X399000Y-110500D02*
D03*
X396000D02*
D03*
X393000D02*
D03*
X417000Y-118750D02*
D03*
X414000D02*
D03*
X408000Y-129250D02*
D03*
Y-132250D02*
D03*
X399000Y-116750D02*
D03*
X396000D02*
D03*
X393000D02*
D03*
X396000Y-119750D02*
D03*
X413000Y-108250D02*
D03*
X408000D02*
D03*
X488128Y-130552D02*
D03*
X485128D02*
D03*
X468250Y-140500D02*
D03*
Y-143500D02*
D03*
X490628Y-117552D02*
D03*
Y-124052D02*
D03*
X487628Y-117552D02*
D03*
Y-124052D02*
D03*
X476750Y-140500D02*
D03*
X418000Y-129250D02*
D03*
Y-132250D02*
D03*
X476750Y-143500D02*
D03*
X414500Y-140500D02*
D03*
Y-143500D02*
D03*
X475250Y-97000D02*
D03*
X472250Y-94000D02*
D03*
Y-97000D02*
D03*
X488128Y-111052D02*
D03*
X472250Y-100000D02*
D03*
X485128Y-111052D02*
D03*
X441128Y-117552D02*
D03*
X444128Y-124052D02*
D03*
X441128D02*
D03*
X446000Y-94000D02*
D03*
X449000Y-97000D02*
D03*
X446000D02*
D03*
X429500Y-96250D02*
D03*
X432500D02*
D03*
X446000Y-100000D02*
D03*
X446414Y-110544D02*
D03*
X443414Y-111560D02*
D03*
X306000Y61000D02*
D03*
X326000D02*
D03*
X491250Y-14000D02*
D03*
Y-17000D02*
D03*
Y-20000D02*
D03*
X488250Y-17000D02*
D03*
X396000Y-55250D02*
D03*
X399000D02*
D03*
X396000Y-52250D02*
D03*
X393000Y-55250D02*
D03*
X435250Y-60500D02*
D03*
X434771Y-63499D02*
D03*
X487274Y-60749D02*
D03*
X489750Y-63500D02*
D03*
X399000Y-11500D02*
D03*
X396000Y-14500D02*
D03*
Y-11500D02*
D03*
X393000D02*
D03*
X406750Y-11750D02*
D03*
Y-14750D02*
D03*
X427500Y-60500D02*
D03*
Y-63500D02*
D03*
X465000Y-14000D02*
D03*
Y-17000D02*
D03*
X462000D02*
D03*
X465000Y-20000D02*
D03*
X455250Y-60500D02*
D03*
Y-63500D02*
D03*
X447772Y-63499D02*
D03*
X447500Y-60500D02*
D03*
X413000Y-49250D02*
D03*
Y-52250D02*
D03*
X423000D02*
D03*
Y-49250D02*
D03*
X432500Y-29250D02*
D03*
X429500D02*
D03*
X423000Y-25250D02*
D03*
Y-28250D02*
D03*
X419750Y-11750D02*
D03*
Y-14750D02*
D03*
X418000Y-25250D02*
D03*
Y-28250D02*
D03*
X408000Y-25250D02*
D03*
X413000D02*
D03*
X396000Y-27500D02*
D03*
X399000Y-30500D02*
D03*
X396000D02*
D03*
X393000D02*
D03*
X417000Y-38750D02*
D03*
X414000D02*
D03*
X408000Y-52250D02*
D03*
Y-49250D02*
D03*
X399000Y-36750D02*
D03*
X396000D02*
D03*
X393000D02*
D03*
X396000Y-39750D02*
D03*
X413000Y-28250D02*
D03*
X408000D02*
D03*
X488128Y-50552D02*
D03*
X485128D02*
D03*
X468250Y-60500D02*
D03*
Y-63500D02*
D03*
X488128Y-37552D02*
D03*
X485128D02*
D03*
X488128Y-44052D02*
D03*
X485128D02*
D03*
X418000Y-49250D02*
D03*
Y-52250D02*
D03*
X476750Y-60500D02*
D03*
Y-63500D02*
D03*
X414500Y-60500D02*
D03*
Y-63500D02*
D03*
X472250Y-14000D02*
D03*
Y-17000D02*
D03*
X475250D02*
D03*
X488128Y-31052D02*
D03*
X472250Y-20000D02*
D03*
X485128Y-31052D02*
D03*
X444128Y-37552D02*
D03*
X441128D02*
D03*
X444128Y-44052D02*
D03*
X441128D02*
D03*
X449000Y-17000D02*
D03*
X446000Y-14000D02*
D03*
Y-17000D02*
D03*
X429500Y-16250D02*
D03*
X432500D02*
D03*
X446000Y-20000D02*
D03*
X444128Y-31052D02*
D03*
X441128D02*
D03*
X408000Y309750D02*
D03*
X444000Y371000D02*
D03*
Y381000D02*
D03*
Y376000D02*
D03*
X417000D02*
D03*
Y371000D02*
D03*
Y381000D02*
D03*
X427500Y296500D02*
D03*
Y299500D02*
D03*
X434750Y296500D02*
D03*
Y299500D02*
D03*
X294000Y68000D02*
D03*
X399000Y304250D02*
D03*
X396000Y304250D02*
D03*
X393000Y304250D02*
D03*
X489750Y299500D02*
D03*
Y296500D02*
D03*
X399000Y348500D02*
D03*
X393000D02*
D03*
X396000Y348500D02*
D03*
X406750Y348250D02*
D03*
Y345250D02*
D03*
X470000Y346000D02*
D03*
X467250Y344500D02*
D03*
X470000Y343000D02*
D03*
X467250Y341500D02*
D03*
X470000Y340000D02*
D03*
X455250Y299500D02*
D03*
X447750D02*
D03*
X455250Y296500D02*
D03*
X447750D02*
D03*
X418000Y311750D02*
D03*
X418000Y308500D02*
D03*
X414500Y296500D02*
D03*
X423000Y312750D02*
D03*
Y309750D02*
D03*
X432500Y331750D02*
D03*
X429500D02*
D03*
X423000Y334750D02*
D03*
Y331750D02*
D03*
X416702Y348250D02*
D03*
Y345250D02*
D03*
X418000Y334750D02*
D03*
X418000Y331750D02*
D03*
X413000Y334750D02*
D03*
X408000D02*
D03*
X396000Y333500D02*
D03*
X393000Y333500D02*
D03*
X399000D02*
D03*
X415250Y321750D02*
D03*
X412000Y320250D02*
D03*
X399000Y318250D02*
D03*
X408000Y312750D02*
D03*
X396000Y318250D02*
D03*
X393000Y318250D02*
D03*
X413000Y331750D02*
D03*
X408000D02*
D03*
X492006Y309646D02*
D03*
X468250Y299500D02*
D03*
Y296500D02*
D03*
X497256Y322396D02*
D03*
X494256D02*
D03*
Y315896D02*
D03*
X476750Y299500D02*
D03*
X453500Y322500D02*
D03*
Y316000D02*
D03*
X450500Y322500D02*
D03*
Y316000D02*
D03*
X455000Y346000D02*
D03*
X452250Y344500D02*
D03*
X432500Y343750D02*
D03*
X455000Y343000D02*
D03*
X455000Y340000D02*
D03*
X452250Y341500D02*
D03*
X453500Y329000D02*
D03*
X450500D02*
D03*
X429500Y343750D02*
D03*
X495750Y346000D02*
D03*
X495750Y343000D02*
D03*
X495750Y340000D02*
D03*
X493000Y344500D02*
D03*
Y341500D02*
D03*
X494256Y328895D02*
D03*
X497256D02*
D03*
X477750Y346000D02*
D03*
X480500Y344500D02*
D03*
X477750Y343000D02*
D03*
X480500Y341500D02*
D03*
X477750Y340000D02*
D03*
X247750Y246750D02*
D03*
X251000Y246250D02*
D03*
X254250D02*
D03*
X251000Y228000D02*
D03*
X247750D02*
D03*
X254250D02*
D03*
X368750Y115000D02*
D03*
X288000Y256750D02*
D03*
X363750Y343000D02*
D03*
X363750Y346000D02*
D03*
Y340000D02*
D03*
X345250Y343000D02*
D03*
X345250Y340000D02*
D03*
Y346000D02*
D03*
X348000Y341500D02*
D03*
Y344500D02*
D03*
X366250Y268000D02*
D03*
X366250Y265000D02*
D03*
X347750Y268000D02*
D03*
X347750Y265000D02*
D03*
Y271000D02*
D03*
X350500Y266500D02*
D03*
Y269500D02*
D03*
X340000Y268000D02*
D03*
X340000Y271000D02*
D03*
Y265000D02*
D03*
X337250Y269500D02*
D03*
Y266500D02*
D03*
X322250D02*
D03*
Y269500D02*
D03*
X325000Y265000D02*
D03*
Y271000D02*
D03*
X325000Y268000D02*
D03*
X276750Y270250D02*
D03*
X269000Y258500D02*
D03*
X278000Y256750D02*
D03*
Y259750D02*
D03*
X288000D02*
D03*
X266000Y258500D02*
D03*
X283000Y256750D02*
D03*
Y259750D02*
D03*
X288000Y236750D02*
D03*
X285250Y246750D02*
D03*
X293000Y237750D02*
D03*
Y234750D02*
D03*
X282000Y245250D02*
D03*
X302514Y265732D02*
D03*
Y268732D02*
D03*
X302500Y255734D02*
D03*
X367256Y234646D02*
D03*
X364256D02*
D03*
Y240896D02*
D03*
X367256D02*
D03*
X364256Y247395D02*
D03*
X367256D02*
D03*
X364256Y253895D02*
D03*
X367256D02*
D03*
X320500Y241000D02*
D03*
X323500D02*
D03*
X320500Y247500D02*
D03*
X323500D02*
D03*
Y254000D02*
D03*
X320500D02*
D03*
X288000Y233500D02*
D03*
X283000Y237750D02*
D03*
Y234750D02*
D03*
X278000Y237750D02*
D03*
X269000Y229250D02*
D03*
X266000Y229250D02*
D03*
X269000Y243250D02*
D03*
X266000Y243250D02*
D03*
X263000Y243250D02*
D03*
X263000Y273500D02*
D03*
X266000Y273500D02*
D03*
X269000Y273500D02*
D03*
X263000Y258500D02*
D03*
X346750Y221500D02*
D03*
Y224500D02*
D03*
X359750Y221500D02*
D03*
Y224500D02*
D03*
X338250D02*
D03*
X284500Y221500D02*
D03*
Y224500D02*
D03*
X297500Y221500D02*
D03*
X276750Y273250D02*
D03*
X286702Y270250D02*
D03*
Y273250D02*
D03*
X204250Y119500D02*
D03*
X214250D02*
D03*
X191750Y115500D02*
D03*
X181750D02*
D03*
X266000Y304750D02*
D03*
X263000Y304750D02*
D03*
X254000Y295000D02*
D03*
X246000D02*
D03*
X250000D02*
D03*
X254250Y313250D02*
D03*
X250000D02*
D03*
X245750D02*
D03*
X279500Y345500D02*
D03*
X297764Y299515D02*
D03*
X286750Y318750D02*
D03*
X283000D02*
D03*
X278000Y308750D02*
D03*
X284500Y299500D02*
D03*
Y296500D02*
D03*
X358006Y309396D02*
D03*
X359750Y299500D02*
D03*
X337500Y340000D02*
D03*
X337500Y343000D02*
D03*
X337500Y346000D02*
D03*
X334750Y344500D02*
D03*
X334750Y341500D02*
D03*
X321250Y344750D02*
D03*
X321250Y341750D02*
D03*
X318500Y340000D02*
D03*
X318500Y343000D02*
D03*
X318500Y346000D02*
D03*
X288000Y308750D02*
D03*
X293000Y329750D02*
D03*
Y332750D02*
D03*
X283000Y334750D02*
D03*
X288000D02*
D03*
X286750Y347250D02*
D03*
X289750D02*
D03*
X293000Y308750D02*
D03*
Y311750D02*
D03*
X288000D02*
D03*
X278000D02*
D03*
X283000Y331750D02*
D03*
X278000D02*
D03*
Y334750D02*
D03*
X355006Y309396D02*
D03*
Y315896D02*
D03*
X358006D02*
D03*
X355006Y322396D02*
D03*
X358006D02*
D03*
X355006Y328895D02*
D03*
X358006D02*
D03*
X313500Y316000D02*
D03*
X316500D02*
D03*
X313500Y322500D02*
D03*
X316500D02*
D03*
X314250Y329000D02*
D03*
X311250D02*
D03*
X359750Y296500D02*
D03*
X346750Y299500D02*
D03*
X338250Y299500D02*
D03*
X325250D02*
D03*
Y296500D02*
D03*
X317750Y299500D02*
D03*
Y296500D02*
D03*
X304750Y299500D02*
D03*
Y296500D02*
D03*
X297500D02*
D03*
X302500Y330750D02*
D03*
X299500D02*
D03*
X302500Y343750D02*
D03*
X299500D02*
D03*
X276750Y348250D02*
D03*
X263000Y322750D02*
D03*
X266000Y322750D02*
D03*
X269000Y322750D02*
D03*
X269000Y329500D02*
D03*
X266000Y329500D02*
D03*
X263000Y329500D02*
D03*
X269000Y348500D02*
D03*
X266000Y348500D02*
D03*
X263000Y348500D02*
D03*
X204250Y141500D02*
D03*
X262250Y115000D02*
D03*
X271250Y115000D02*
D03*
X259250Y115000D02*
D03*
X262250Y102000D02*
D03*
X259250D02*
D03*
X274250Y115000D02*
D03*
X125250Y115750D02*
D03*
X122250D02*
D03*
X125250Y127750D02*
D03*
X122250D02*
D03*
X188500Y-363563D02*
D03*
Y-373125D02*
D03*
Y-382687D02*
D03*
Y-392250D02*
D03*
Y-354000D02*
D03*
X182500Y-363563D02*
D03*
Y-373125D02*
D03*
Y-382687D02*
D03*
Y-392250D02*
D03*
Y-354000D02*
D03*
X177500Y-33250D02*
D03*
X182500D02*
D03*
X202500Y-58250D02*
D03*
Y-73250D02*
D03*
Y-78250D02*
D03*
X192500Y-88250D02*
D03*
X187500D02*
D03*
X182500D02*
D03*
X177500D02*
D03*
X172500D02*
D03*
X167500D02*
D03*
X147500Y-58250D02*
D03*
Y-53250D02*
D03*
Y-48250D02*
D03*
Y-43250D02*
D03*
X319500Y-356750D02*
D03*
X239500D02*
D03*
Y-361750D02*
D03*
Y-366750D02*
D03*
Y-376750D02*
D03*
Y-381750D02*
D03*
Y-386750D02*
D03*
Y-371750D02*
D03*
X319500Y-207250D02*
D03*
X239500D02*
D03*
X-12000Y249500D02*
D03*
X-6000Y264500D02*
D03*
X-12000Y279500D02*
D03*
X-6000Y294500D02*
D03*
X-12000D02*
D03*
X-9000D02*
D03*
X-7500Y291500D02*
D03*
X-10750Y291500D02*
D03*
X-6000Y309500D02*
D03*
X-12000D02*
D03*
X-9000D02*
D03*
X-7500Y306500D02*
D03*
X-10750Y306500D02*
D03*
Y321500D02*
D03*
X-7500Y321500D02*
D03*
X-9000Y324500D02*
D03*
X27250Y276000D02*
D03*
X10500Y280000D02*
D03*
X10500Y291750D02*
D03*
X10500Y295000D02*
D03*
X13500Y291000D02*
D03*
Y294250D02*
D03*
X16500Y295000D02*
D03*
X16500Y291750D02*
D03*
X30250D02*
D03*
X30250Y295000D02*
D03*
X27250Y294250D02*
D03*
Y291000D02*
D03*
X159250Y88250D02*
D03*
X139250D02*
D03*
X149250D02*
D03*
X159250Y119500D02*
D03*
X139250D02*
D03*
X149250D02*
D03*
X171750Y115500D02*
D03*
X224250Y119500D02*
D03*
X191750Y88250D02*
D03*
X171750D02*
D03*
X181750D02*
D03*
X214250D02*
D03*
X204250D02*
D03*
X158604Y269354D02*
D03*
Y274354D02*
D03*
Y279354D02*
D03*
Y284354D02*
D03*
Y294354D02*
D03*
Y289354D02*
D03*
X272750Y153500D02*
D03*
X287750Y177500D02*
D03*
Y182500D02*
D03*
X122104Y242854D02*
D03*
X158604Y309354D02*
D03*
X705250Y-383750D02*
D03*
Y-380750D02*
D03*
X702500Y-385250D02*
D03*
Y-382250D02*
D03*
Y-379250D02*
D03*
X705250Y-365250D02*
D03*
Y-362250D02*
D03*
X702500Y-366750D02*
D03*
Y-363750D02*
D03*
Y-360750D02*
D03*
X718750Y-383750D02*
D03*
Y-380750D02*
D03*
X721500Y-385250D02*
D03*
Y-382250D02*
D03*
Y-379250D02*
D03*
X718750Y-365250D02*
D03*
Y-362250D02*
D03*
X721500Y-366750D02*
D03*
Y-363750D02*
D03*
Y-360750D02*
D03*
X684000Y-383750D02*
D03*
Y-380750D02*
D03*
X686750Y-385250D02*
D03*
Y-382250D02*
D03*
Y-379250D02*
D03*
X684000Y-365250D02*
D03*
Y-362250D02*
D03*
X686750Y-366750D02*
D03*
Y-363750D02*
D03*
Y-360750D02*
D03*
X684000Y-346750D02*
D03*
Y-343750D02*
D03*
X686750Y-348250D02*
D03*
Y-345250D02*
D03*
Y-342250D02*
D03*
X684000Y-328250D02*
D03*
Y-325250D02*
D03*
X686750Y-329750D02*
D03*
Y-326750D02*
D03*
Y-323750D02*
D03*
X684000Y-309750D02*
D03*
Y-306750D02*
D03*
X686750Y-311250D02*
D03*
Y-308250D02*
D03*
Y-305250D02*
D03*
X684000Y-291250D02*
D03*
Y-288250D02*
D03*
X686750Y-292750D02*
D03*
Y-289750D02*
D03*
Y-286750D02*
D03*
X684000Y-272750D02*
D03*
Y-269750D02*
D03*
X686750Y-274250D02*
D03*
Y-271250D02*
D03*
Y-268250D02*
D03*
X683750Y-249496D02*
D03*
X684000Y-235750D02*
D03*
Y-232750D02*
D03*
X686750Y-237250D02*
D03*
Y-234250D02*
D03*
Y-231250D02*
D03*
Y-194250D02*
D03*
Y-197250D02*
D03*
Y-200250D02*
D03*
X684000Y-195750D02*
D03*
Y-198750D02*
D03*
X667750Y-379250D02*
D03*
Y-382250D02*
D03*
Y-385250D02*
D03*
X670500Y-380750D02*
D03*
Y-383750D02*
D03*
X667750Y-360750D02*
D03*
Y-363750D02*
D03*
Y-366750D02*
D03*
X670500Y-362250D02*
D03*
Y-365250D02*
D03*
X667750Y-342250D02*
D03*
Y-345250D02*
D03*
Y-348250D02*
D03*
X670500Y-343750D02*
D03*
Y-346750D02*
D03*
X667750Y-323750D02*
D03*
Y-326750D02*
D03*
Y-329750D02*
D03*
X670500Y-325250D02*
D03*
Y-328250D02*
D03*
X667750Y-305250D02*
D03*
Y-308250D02*
D03*
Y-311250D02*
D03*
X670500Y-306750D02*
D03*
Y-309750D02*
D03*
X667750Y-286750D02*
D03*
Y-289750D02*
D03*
Y-292750D02*
D03*
X670500Y-288250D02*
D03*
Y-291250D02*
D03*
X667750Y-268504D02*
D03*
Y-271504D02*
D03*
Y-274504D02*
D03*
X670500Y-273004D02*
D03*
X666988Y-249750D02*
D03*
Y-252750D02*
D03*
Y-255750D02*
D03*
X669738Y-251250D02*
D03*
Y-254250D02*
D03*
X667750Y-231250D02*
D03*
Y-234250D02*
D03*
X670500Y-232750D02*
D03*
Y-235750D02*
D03*
Y-214250D02*
D03*
X667750Y-194250D02*
D03*
X670500Y-195750D02*
D03*
Y-198750D02*
D03*
X668000Y192000D02*
D03*
X670500Y19150D02*
D03*
Y22150D02*
D03*
X667750Y17650D02*
D03*
X670500Y38000D02*
D03*
Y41000D02*
D03*
X667750Y39500D02*
D03*
Y42500D02*
D03*
X686750Y-32900D02*
D03*
X684000Y19150D02*
D03*
Y22150D02*
D03*
X686750Y17650D02*
D03*
Y20650D02*
D03*
Y23650D02*
D03*
X684000Y38000D02*
D03*
Y41000D02*
D03*
X686750Y36500D02*
D03*
Y39500D02*
D03*
Y42500D02*
D03*
X684000Y71500D02*
D03*
Y74500D02*
D03*
X686750Y70000D02*
D03*
Y73000D02*
D03*
Y76000D02*
D03*
X684000Y88909D02*
D03*
Y91909D02*
D03*
X686750Y87409D02*
D03*
Y90409D02*
D03*
Y93409D02*
D03*
X684000Y106318D02*
D03*
Y109318D02*
D03*
X686750Y104818D02*
D03*
Y107818D02*
D03*
Y110818D02*
D03*
X684000Y123727D02*
D03*
Y126727D02*
D03*
X686750Y122227D02*
D03*
Y125227D02*
D03*
Y128227D02*
D03*
X684000Y141136D02*
D03*
Y144136D02*
D03*
X686750Y139636D02*
D03*
Y142636D02*
D03*
Y145636D02*
D03*
X684000Y158546D02*
D03*
Y161545D02*
D03*
X686750Y157045D02*
D03*
Y160046D02*
D03*
Y163045D02*
D03*
X686750Y174455D02*
D03*
Y177455D02*
D03*
Y180455D02*
D03*
X684000Y193364D02*
D03*
Y196364D02*
D03*
X686750Y191864D02*
D03*
Y194864D02*
D03*
Y197864D02*
D03*
X684000Y210773D02*
D03*
Y213773D02*
D03*
X686750Y209273D02*
D03*
Y212273D02*
D03*
Y215273D02*
D03*
X684000Y228182D02*
D03*
Y231182D02*
D03*
X686750Y229682D02*
D03*
Y232682D02*
D03*
X684000Y245591D02*
D03*
Y248591D02*
D03*
X686750Y247091D02*
D03*
Y250091D02*
D03*
X667750Y76000D02*
D03*
Y73000D02*
D03*
Y70000D02*
D03*
X670500Y74500D02*
D03*
Y71500D02*
D03*
X667750Y93500D02*
D03*
Y90500D02*
D03*
Y87500D02*
D03*
X670500Y92000D02*
D03*
Y89000D02*
D03*
X667750Y110750D02*
D03*
Y107750D02*
D03*
Y104750D02*
D03*
X670500Y109250D02*
D03*
Y106250D02*
D03*
X667750Y128250D02*
D03*
Y125250D02*
D03*
Y122250D02*
D03*
X670500Y126750D02*
D03*
Y123750D02*
D03*
X667750Y145750D02*
D03*
Y142750D02*
D03*
Y139750D02*
D03*
X670500Y144250D02*
D03*
Y141250D02*
D03*
X667750Y163000D02*
D03*
Y160000D02*
D03*
Y157000D02*
D03*
X670500Y161500D02*
D03*
Y158500D02*
D03*
X667750Y180500D02*
D03*
Y177500D02*
D03*
Y174500D02*
D03*
X670500Y179000D02*
D03*
Y176000D02*
D03*
X668000Y198000D02*
D03*
Y195000D02*
D03*
X670750Y196500D02*
D03*
Y193500D02*
D03*
X667750Y215250D02*
D03*
Y212250D02*
D03*
Y209250D02*
D03*
X670500Y213750D02*
D03*
Y210750D02*
D03*
X667750Y232750D02*
D03*
Y229750D02*
D03*
Y226750D02*
D03*
X670500Y231250D02*
D03*
Y228250D02*
D03*
X667750Y250250D02*
D03*
Y247250D02*
D03*
Y244250D02*
D03*
X670500Y248750D02*
D03*
Y245750D02*
D03*
X686750Y267500D02*
D03*
X684000Y266000D02*
D03*
Y263000D02*
D03*
X670500D02*
D03*
Y266000D02*
D03*
X667750Y261500D02*
D03*
Y264500D02*
D03*
Y267500D02*
D03*
X155750Y145500D02*
D03*
Y163000D02*
D03*
X196750Y245750D02*
D03*
Y254400D02*
D03*
X196750Y263050D02*
D03*
Y271700D02*
D03*
Y280350D02*
D03*
Y289000D02*
D03*
X186750D02*
D03*
Y280350D02*
D03*
Y270200D02*
D03*
Y263050D02*
D03*
X186750Y254400D02*
D03*
X42500Y101750D02*
D03*
X23500D02*
D03*
X42500Y128750D02*
D03*
X33000D02*
D03*
X23500D02*
D03*
X108250Y90000D02*
D03*
X89250D02*
D03*
X79750D02*
D03*
X102000Y151000D02*
D03*
Y161000D02*
D03*
X80500D02*
D03*
X224250Y88250D02*
D03*
X155750Y154250D02*
D03*
X139000Y142000D02*
D03*
X139750Y158000D02*
D03*
Y166000D02*
D03*
X181000Y158000D02*
D03*
X204250Y166500D02*
D03*
X235250Y185000D02*
D03*
X215250Y187500D02*
D03*
X235250Y203500D02*
D03*
X152000Y198500D02*
D03*
X135000D02*
D03*
X152000Y212500D02*
D03*
X135000D02*
D03*
X105000Y174250D02*
D03*
X94250D02*
D03*
X105000Y184250D02*
D03*
X94250D02*
D03*
X104000Y202000D02*
D03*
X87500D02*
D03*
X104000Y216000D02*
D03*
X87500D02*
D03*
X58000Y179500D02*
D03*
X48000D02*
D03*
X58500Y195500D02*
D03*
X51500D02*
D03*
X58500Y209750D02*
D03*
X51250D02*
D03*
X55250Y203000D02*
D03*
X71750Y195500D02*
D03*
X38750D02*
D03*
Y200500D02*
D03*
Y205500D02*
D03*
Y210500D02*
D03*
X26750Y183250D02*
D03*
X17250Y189750D02*
D03*
Y199750D02*
D03*
Y208500D02*
D03*
Y218500D02*
D03*
Y228000D02*
D03*
Y238000D02*
D03*
X40250Y228000D02*
D03*
X27750Y227750D02*
D03*
X37750Y238750D02*
D03*
X27750D02*
D03*
X24250Y295000D02*
D03*
X34500Y340500D02*
D03*
X14500Y341250D02*
D03*
X242000Y375250D02*
D03*
X252000D02*
D03*
X262000D02*
D03*
X206000Y405150D02*
D03*
X288000D02*
D03*
X324000Y405149D02*
D03*
X386000D02*
D03*
X350000Y375249D02*
D03*
X360000D02*
D03*
X206000Y400150D02*
D03*
X288000D02*
D03*
X324000Y400149D02*
D03*
X386000D02*
D03*
X242000Y370250D02*
D03*
X252000D02*
D03*
X262000D02*
D03*
X350000Y370249D02*
D03*
X360000D02*
D03*
X75250Y412250D02*
D03*
X182250D02*
D03*
X121250Y386750D02*
D03*
X126250Y389750D02*
D03*
X131250D02*
D03*
X171250D02*
D03*
X75250Y407250D02*
D03*
X182250D02*
D03*
X-63500Y349000D02*
D03*
Y222000D02*
D03*
X-12000Y324500D02*
D03*
X-58500Y222000D02*
D03*
X-6000Y324500D02*
D03*
X-58500Y349000D02*
D03*
X-63500Y190250D02*
D03*
X-58500D02*
D03*
X-63500Y-160750D02*
D03*
X-11500Y-134750D02*
D03*
X-58500Y-160750D02*
D03*
X-6500Y-59750D02*
D03*
Y-74750D02*
D03*
Y-89750D02*
D03*
Y-134750D02*
D03*
Y-104750D02*
D03*
X147104Y330604D02*
D03*
X152104D02*
D03*
X158604Y314354D02*
D03*
Y299354D02*
D03*
Y259354D02*
D03*
Y254354D02*
D03*
X152104Y242854D02*
D03*
X147104D02*
D03*
X142104D02*
D03*
X137104D02*
D03*
X132104D02*
D03*
X127104D02*
D03*
X102104D02*
D03*
X97104D02*
D03*
X92104D02*
D03*
X87104D02*
D03*
X82104Y241584D02*
D03*
X77104Y242854D02*
D03*
X69076Y249354D02*
D03*
X70854Y254354D02*
D03*
Y259354D02*
D03*
Y264354D02*
D03*
Y304354D02*
D03*
Y314354D02*
D03*
X96250Y305250D02*
D03*
X132750D02*
D03*
X96250Y268750D02*
D03*
X132750D02*
D03*
X114604Y286854D02*
D03*
X686750Y264500D02*
D03*
X670500Y-217250D02*
D03*
X714750Y363000D02*
D03*
X711750D02*
D03*
X708750D02*
D03*
X713250Y365750D02*
D03*
X710250D02*
D03*
X728000Y363000D02*
D03*
X725000D02*
D03*
X722000D02*
D03*
X726500Y365750D02*
D03*
X723500D02*
D03*
X714750Y348000D02*
D03*
X711750D02*
D03*
X708750D02*
D03*
X713250Y350750D02*
D03*
X710250D02*
D03*
X728000Y348000D02*
D03*
X725000D02*
D03*
X722000D02*
D03*
X726500Y350750D02*
D03*
X723500D02*
D03*
X131500Y223750D02*
D03*
X141500D02*
D03*
X160000D02*
D03*
X70854Y324354D02*
D03*
Y319354D02*
D03*
X156250Y389750D02*
D03*
X71750Y205500D02*
D03*
X87250Y108750D02*
D03*
Y116000D02*
D03*
X100250D02*
D03*
Y109000D02*
D03*
X187500Y-38250D02*
D03*
X192500D02*
D03*
X199500Y-78250D02*
D03*
X197500Y-73250D02*
D03*
X197750Y-53250D02*
D03*
X152500Y-58250D02*
D03*
Y-53250D02*
D03*
Y-48250D02*
D03*
X177500Y-38250D02*
D03*
X104500Y12500D02*
D03*
Y7500D02*
D03*
X85500Y12500D02*
D03*
Y7500D02*
D03*
X152500Y10000D02*
D03*
X157500D02*
D03*
X152500Y-10000D02*
D03*
X157500D02*
D03*
X92104Y333604D02*
D03*
X77104D02*
D03*
X152104D02*
D03*
X67854Y254354D02*
D03*
X66076Y249354D02*
D03*
X67854Y299354D02*
D03*
Y304354D02*
D03*
Y314354D02*
D03*
Y319354D02*
D03*
Y324354D02*
D03*
X152104Y239750D02*
D03*
X147104D02*
D03*
X142104D02*
D03*
X137104D02*
D03*
X132104D02*
D03*
X127104D02*
D03*
X92104D02*
D03*
X87104D02*
D03*
X82104Y238480D02*
D03*
X77104Y239750D02*
D03*
X122104D02*
D03*
X97104D02*
D03*
X161604Y269354D02*
D03*
X161854Y319354D02*
D03*
X161604Y259354D02*
D03*
Y254354D02*
D03*
Y249354D02*
D03*
Y284354D02*
D03*
Y279354D02*
D03*
Y289354D02*
D03*
Y294354D02*
D03*
Y309354D02*
D03*
Y304354D02*
D03*
Y314354D02*
D03*
X121250Y389750D02*
D03*
X131250Y386750D02*
D03*
X161250D02*
D03*
X166250D02*
D03*
X136250Y389750D02*
D03*
X156250Y386750D02*
D03*
X151250D02*
D03*
X146250Y389750D02*
D03*
X141250Y386750D02*
D03*
X141250Y389750D02*
D03*
X136250Y386750D02*
D03*
X146250D02*
D03*
X171258Y386519D02*
D03*
X193750Y289000D02*
D03*
Y280350D02*
D03*
X193750Y271700D02*
D03*
Y263050D02*
D03*
Y254400D02*
D03*
X183750D02*
D03*
Y263050D02*
D03*
Y270200D02*
D03*
X183750Y280350D02*
D03*
X184000Y290250D02*
D03*
X14500Y337250D02*
D03*
X34500Y337500D02*
D03*
X24250Y291750D02*
D03*
X41750Y195500D02*
D03*
Y200500D02*
D03*
Y205500D02*
D03*
Y210500D02*
D03*
X68750D02*
D03*
Y205500D02*
D03*
Y200500D02*
D03*
Y195500D02*
D03*
X40500Y225000D02*
D03*
X30250Y225250D02*
D03*
X40250Y236250D02*
D03*
X30250D02*
D03*
X20250Y186750D02*
D03*
Y199750D02*
D03*
Y206250D02*
D03*
Y216250D02*
D03*
Y225000D02*
D03*
Y235000D02*
D03*
X29750Y190250D02*
D03*
Y180250D02*
D03*
X51000Y176500D02*
D03*
X61000D02*
D03*
X110000Y202000D02*
D03*
X93500D02*
D03*
X110000Y216000D02*
D03*
X93500D02*
D03*
X102000Y177250D02*
D03*
X91250D02*
D03*
X102000Y187250D02*
D03*
X91250D02*
D03*
X157000Y198500D02*
D03*
X140000D02*
D03*
X157000Y212500D02*
D03*
X140000D02*
D03*
X143750Y220750D02*
D03*
X134500D02*
D03*
X153000D02*
D03*
X163000D02*
D03*
X150750Y223750D02*
D03*
X105000Y148000D02*
D03*
X94250Y148750D02*
D03*
X83500Y148000D02*
D03*
X105000Y158000D02*
D03*
X94250D02*
D03*
X91250Y148500D02*
D03*
X108250Y95000D02*
D03*
X89250D02*
D03*
X79750D02*
D03*
X42500Y96750D02*
D03*
X23500D02*
D03*
X42500Y123750D02*
D03*
X33000D02*
D03*
X23500D02*
D03*
X220250Y187500D02*
D03*
X240250Y203500D02*
D03*
Y185000D02*
D03*
X217750Y184750D02*
D03*
X237750Y181500D02*
D03*
Y206250D02*
D03*
X214750Y206500D02*
D03*
X217750Y208500D02*
D03*
X161604Y299354D02*
D03*
X183750Y245750D02*
D03*
X179500Y-200750D02*
D03*
X184500D02*
D03*
X189500D02*
D03*
X194500D02*
D03*
X179500Y-194750D02*
D03*
X184500D02*
D03*
X189500D02*
D03*
X194500D02*
D03*
X175000Y-220250D02*
D03*
Y-215250D02*
D03*
Y-210250D02*
D03*
Y-205250D02*
D03*
X169000Y-220250D02*
D03*
Y-210250D02*
D03*
Y-205250D02*
D03*
Y-240250D02*
D03*
Y-235250D02*
D03*
Y-230250D02*
D03*
Y-245250D02*
D03*
Y-250250D02*
D03*
X175000Y-245250D02*
D03*
Y-250250D02*
D03*
X179500Y-260750D02*
D03*
X184500D02*
D03*
X189500D02*
D03*
X194500D02*
D03*
X179500Y-254750D02*
D03*
X184500D02*
D03*
X189500D02*
D03*
X194500Y-400250D02*
D03*
X189500D02*
D03*
X184500D02*
D03*
X179500D02*
D03*
X194500Y-406250D02*
D03*
X189500D02*
D03*
X184500D02*
D03*
X179500D02*
D03*
X199000Y-380750D02*
D03*
Y-385750D02*
D03*
Y-390750D02*
D03*
Y-395750D02*
D03*
X205000Y-380750D02*
D03*
Y-385750D02*
D03*
Y-390750D02*
D03*
Y-395750D02*
D03*
X199000Y-360750D02*
D03*
Y-365750D02*
D03*
Y-370750D02*
D03*
Y-375750D02*
D03*
X205000Y-360750D02*
D03*
Y-365750D02*
D03*
Y-370750D02*
D03*
Y-375750D02*
D03*
Y-355750D02*
D03*
Y-350750D02*
D03*
X199000Y-355750D02*
D03*
Y-350750D02*
D03*
X175000Y-395750D02*
D03*
Y-390750D02*
D03*
X169000Y-395750D02*
D03*
Y-390750D02*
D03*
Y-370750D02*
D03*
Y-375750D02*
D03*
Y-380750D02*
D03*
Y-385750D02*
D03*
X175000Y-370750D02*
D03*
Y-375750D02*
D03*
Y-380750D02*
D03*
Y-385750D02*
D03*
X169000Y-350750D02*
D03*
Y-355750D02*
D03*
Y-360750D02*
D03*
Y-365750D02*
D03*
X175000Y-350750D02*
D03*
Y-355750D02*
D03*
Y-360750D02*
D03*
Y-365750D02*
D03*
X194500Y-340250D02*
D03*
X189500D02*
D03*
X184500D02*
D03*
X179500D02*
D03*
X194500Y-346250D02*
D03*
X189500D02*
D03*
X184500D02*
D03*
X179500D02*
D03*
X144750Y-169500D02*
D03*
X147750Y-172500D02*
D03*
X157500D02*
D03*
X154500Y-169500D02*
D03*
X167250Y-172500D02*
D03*
X164250Y-169500D02*
D03*
X147750Y-182500D02*
D03*
X144750Y-179500D02*
D03*
X157500Y-182500D02*
D03*
X154500Y-179500D02*
D03*
X167250Y-182500D02*
D03*
X164250Y-179500D02*
D03*
X204750Y-169500D02*
D03*
X207750Y-182500D02*
D03*
X204750Y-179500D02*
D03*
X219250Y-182500D02*
D03*
X216250Y-179500D02*
D03*
X232000Y-181250D02*
D03*
X229000Y-181000D02*
D03*
X222500Y-233750D02*
D03*
X219500Y-230750D02*
D03*
X152500Y-260000D02*
D03*
X149500Y-257000D02*
D03*
X152500Y-270000D02*
D03*
X149500Y-267000D02*
D03*
X37750Y-294250D02*
D03*
Y-304250D02*
D03*
X50750Y-297250D02*
D03*
X47750Y-294250D02*
D03*
X110750Y-300750D02*
D03*
X107750Y-300500D02*
D03*
X110750Y-310500D02*
D03*
X107750Y-310250D02*
D03*
X120750Y-302250D02*
D03*
X117750Y-299250D02*
D03*
X130750Y-302250D02*
D03*
X127750Y-299250D02*
D03*
X120750Y-312250D02*
D03*
X117750Y-309250D02*
D03*
X130750Y-312250D02*
D03*
X127750Y-309250D02*
D03*
X147750Y-318000D02*
D03*
X144750Y-315000D02*
D03*
X147750Y-328000D02*
D03*
X144750Y-325000D02*
D03*
X157500Y-318000D02*
D03*
X154500Y-315000D02*
D03*
X157500Y-328000D02*
D03*
X154500Y-325000D02*
D03*
X167250Y-318000D02*
D03*
X164250Y-315000D02*
D03*
X167250Y-328000D02*
D03*
X164250Y-325000D02*
D03*
X204734Y-315000D02*
D03*
X207734Y-328000D02*
D03*
X204734Y-325000D02*
D03*
X231750Y-318000D02*
D03*
X228750Y-315000D02*
D03*
X219234Y-328000D02*
D03*
X231750Y-326750D02*
D03*
X167500Y-83250D02*
D03*
X172500D02*
D03*
X177500D02*
D03*
X182500D02*
D03*
X187500D02*
D03*
X192500Y-85250D02*
D03*
X219500Y-362250D02*
D03*
X222500Y-365250D02*
D03*
Y-379250D02*
D03*
X209250Y-407250D02*
D03*
X209500Y-410250D02*
D03*
X222250D02*
D03*
X63750Y-291250D02*
D03*
X68750D02*
D03*
Y-300750D02*
D03*
X63750D02*
D03*
X68750Y-310250D02*
D03*
X63750D02*
D03*
X94750Y-291250D02*
D03*
X89750D02*
D03*
X95750Y-300750D02*
D03*
Y-310250D02*
D03*
X92750D02*
D03*
X297750Y-283500D02*
D03*
Y-288500D02*
D03*
X317750Y-283500D02*
D03*
Y-288500D02*
D03*
X244250Y-12500D02*
D03*
X241250Y10250D02*
D03*
X244250Y7250D02*
D03*
X241250Y250D02*
D03*
X244250Y-2750D02*
D03*
X126500Y-6500D02*
D03*
X123500Y-3500D02*
D03*
X126500Y3500D02*
D03*
X123500Y6500D02*
D03*
X136500Y-6500D02*
D03*
X133500Y-3500D02*
D03*
X136500Y3500D02*
D03*
X133500Y6500D02*
D03*
X25000Y-126500D02*
D03*
X40000D02*
D03*
Y-121500D02*
D03*
X13000Y-139250D02*
D03*
Y-134250D02*
D03*
X26000Y-139250D02*
D03*
Y-134250D02*
D03*
X40000Y-139250D02*
D03*
Y-134250D02*
D03*
X55000Y-139250D02*
D03*
Y-134250D02*
D03*
X19500Y-158250D02*
D03*
Y-153250D02*
D03*
X205000Y-250250D02*
D03*
Y-245250D02*
D03*
Y-240250D02*
D03*
Y-235250D02*
D03*
X199000Y-250250D02*
D03*
Y-245250D02*
D03*
Y-240250D02*
D03*
Y-235250D02*
D03*
X222250Y-264750D02*
D03*
X212250D02*
D03*
X209250Y-261750D02*
D03*
X222500Y-219750D02*
D03*
X219500Y-216750D02*
D03*
X205000Y-220250D02*
D03*
X199000Y-225250D02*
D03*
Y-215250D02*
D03*
X207750Y-172500D02*
D03*
X216250Y-169500D02*
D03*
X229016Y-169500D02*
D03*
X232016Y-172500D02*
D03*
X219250Y-172500D02*
D03*
X239500Y-222250D02*
D03*
Y-237250D02*
D03*
Y-232250D02*
D03*
Y-227250D02*
D03*
Y-217250D02*
D03*
Y-212250D02*
D03*
X182500Y-208500D02*
D03*
Y-246750D02*
D03*
Y-237188D02*
D03*
Y-227625D02*
D03*
Y-218063D02*
D03*
X188500Y-208500D02*
D03*
Y-246750D02*
D03*
Y-237188D02*
D03*
Y-218063D02*
D03*
X93250Y-220000D02*
D03*
X98250D02*
D03*
X88250D02*
D03*
X88250Y-216500D02*
D03*
X98250D02*
D03*
X93250D02*
D03*
X95750Y-223500D02*
D03*
X90750D02*
D03*
Y-196500D02*
D03*
X95750D02*
D03*
X93250Y-189500D02*
D03*
X98250D02*
D03*
X88250D02*
D03*
X88250Y-193000D02*
D03*
X98250D02*
D03*
X93250D02*
D03*
X122000Y-196500D02*
D03*
X127000D02*
D03*
X124500Y-189500D02*
D03*
X129000D02*
D03*
X120000D02*
D03*
X120000Y-193000D02*
D03*
X129000D02*
D03*
X124500D02*
D03*
X127000Y-223500D02*
D03*
X132000D02*
D03*
X129500Y-216500D02*
D03*
X134500D02*
D03*
X124500D02*
D03*
X124500Y-220000D02*
D03*
X134500D02*
D03*
X129500D02*
D03*
X127000Y-242500D02*
D03*
X132000D02*
D03*
X129500Y-235500D02*
D03*
X134500D02*
D03*
X124500D02*
D03*
X124500Y-239000D02*
D03*
X134500D02*
D03*
X129500D02*
D03*
X90750Y-242500D02*
D03*
X95750D02*
D03*
X93250Y-235500D02*
D03*
X98250D02*
D03*
X88250D02*
D03*
X88250Y-239000D02*
D03*
X98250D02*
D03*
X93250D02*
D03*
X90750Y-269500D02*
D03*
X95750D02*
D03*
X93250Y-262500D02*
D03*
X98250D02*
D03*
X88250D02*
D03*
X88250Y-266000D02*
D03*
X98250D02*
D03*
X93250D02*
D03*
X95750Y-362750D02*
D03*
X90750D02*
D03*
X93250Y-369750D02*
D03*
X88250D02*
D03*
X98250D02*
D03*
X98250Y-366250D02*
D03*
X88250D02*
D03*
X93250D02*
D03*
X132000Y-363750D02*
D03*
X127000D02*
D03*
X129500Y-369750D02*
D03*
X124500D02*
D03*
X134500D02*
D03*
X134500Y-366250D02*
D03*
X124500D02*
D03*
X129500D02*
D03*
X95750Y-335750D02*
D03*
X90750D02*
D03*
X93250Y-342750D02*
D03*
X88250D02*
D03*
X98250D02*
D03*
X98250Y-339250D02*
D03*
X88250D02*
D03*
X93250D02*
D03*
X134500Y-335750D02*
D03*
X129500D02*
D03*
X132000Y-342750D02*
D03*
X127000D02*
D03*
X137000D02*
D03*
X137000Y-339250D02*
D03*
X127000D02*
D03*
X132000D02*
D03*
X95750Y-410250D02*
D03*
X90750D02*
D03*
X93250Y-417250D02*
D03*
X88250D02*
D03*
X98250D02*
D03*
X98250Y-413750D02*
D03*
X88250D02*
D03*
X93250D02*
D03*
X132000Y-410250D02*
D03*
X127000D02*
D03*
X129500Y-417250D02*
D03*
X124500D02*
D03*
X134500D02*
D03*
X134500Y-413750D02*
D03*
X124500D02*
D03*
X129500D02*
D03*
X95750Y-383250D02*
D03*
X90750D02*
D03*
X93250Y-390250D02*
D03*
X88250D02*
D03*
X98250D02*
D03*
X98250Y-386750D02*
D03*
X88250D02*
D03*
X93250D02*
D03*
X132000Y-383250D02*
D03*
X127000D02*
D03*
X129500Y-390250D02*
D03*
X124500D02*
D03*
X134500D02*
D03*
X134500Y-386750D02*
D03*
X124500D02*
D03*
X129500D02*
D03*
X235500Y-383000D02*
D03*
Y-378000D02*
D03*
Y-373000D02*
D03*
X235750Y-234000D02*
D03*
Y-229000D02*
D03*
Y-224000D02*
D03*
X169000Y-215250D02*
D03*
X323500Y-373000D02*
D03*
Y-378000D02*
D03*
Y-383000D02*
D03*
X319500Y-371750D02*
D03*
Y-386750D02*
D03*
Y-381750D02*
D03*
Y-376750D02*
D03*
Y-366750D02*
D03*
Y-361750D02*
D03*
X323500Y-223500D02*
D03*
Y-228500D02*
D03*
Y-233500D02*
D03*
X319500Y-222250D02*
D03*
Y-237250D02*
D03*
Y-232250D02*
D03*
Y-227250D02*
D03*
Y-217250D02*
D03*
Y-212250D02*
D03*
X349750Y-183000D02*
D03*
X354750D02*
D03*
X344750D02*
D03*
X344750Y-179500D02*
D03*
X354750D02*
D03*
X349750D02*
D03*
X352250Y-186500D02*
D03*
X347250D02*
D03*
X383750Y-183000D02*
D03*
X388750D02*
D03*
X378750D02*
D03*
X378750Y-179500D02*
D03*
X388750D02*
D03*
X383750D02*
D03*
X386250Y-186500D02*
D03*
X381250D02*
D03*
X419000Y-183000D02*
D03*
X424000D02*
D03*
X414000D02*
D03*
X414000Y-179500D02*
D03*
X424000D02*
D03*
X419000D02*
D03*
X421500Y-186500D02*
D03*
X416500D02*
D03*
X349750Y-210000D02*
D03*
X354750D02*
D03*
X344750D02*
D03*
X344750Y-206500D02*
D03*
X354750D02*
D03*
X349750D02*
D03*
X352250Y-213500D02*
D03*
X347250D02*
D03*
X383750Y-210000D02*
D03*
X388750D02*
D03*
X378750D02*
D03*
X378750Y-206500D02*
D03*
X388750D02*
D03*
X383750D02*
D03*
X386250Y-213500D02*
D03*
X381250D02*
D03*
X419000Y-210000D02*
D03*
X424000D02*
D03*
X414000D02*
D03*
X414000Y-206500D02*
D03*
X424000D02*
D03*
X419000D02*
D03*
X421500Y-213500D02*
D03*
X416500D02*
D03*
X349750Y-227750D02*
D03*
X354750D02*
D03*
X344750D02*
D03*
X344750Y-224250D02*
D03*
X354750D02*
D03*
X349750D02*
D03*
X352250Y-231250D02*
D03*
X347250D02*
D03*
X383750Y-227750D02*
D03*
X388750D02*
D03*
X378750D02*
D03*
X378750Y-224250D02*
D03*
X388750D02*
D03*
X383750D02*
D03*
X386250Y-231250D02*
D03*
X381250D02*
D03*
X419000Y-227750D02*
D03*
X424000D02*
D03*
X414000D02*
D03*
X414000Y-224250D02*
D03*
X424000D02*
D03*
X419000D02*
D03*
X421500Y-231250D02*
D03*
X416500D02*
D03*
X349750Y-254750D02*
D03*
X354750D02*
D03*
X344750D02*
D03*
X344750Y-251250D02*
D03*
X354750D02*
D03*
X349750D02*
D03*
X352250Y-258250D02*
D03*
X347250D02*
D03*
X383750Y-254750D02*
D03*
X388750D02*
D03*
X378750D02*
D03*
X378750Y-251250D02*
D03*
X388750D02*
D03*
X383750D02*
D03*
X386250Y-258250D02*
D03*
X381250D02*
D03*
X419000Y-254750D02*
D03*
X424000D02*
D03*
X414000D02*
D03*
X414000Y-251250D02*
D03*
X424000D02*
D03*
X419000D02*
D03*
X421500Y-258250D02*
D03*
X416500D02*
D03*
Y-362750D02*
D03*
X421500D02*
D03*
X419000Y-355750D02*
D03*
X424000D02*
D03*
X414000D02*
D03*
X414000Y-359250D02*
D03*
X424000D02*
D03*
X419000D02*
D03*
X381250Y-362750D02*
D03*
X386250D02*
D03*
X383750Y-355750D02*
D03*
X388750D02*
D03*
X378750D02*
D03*
X378750Y-359250D02*
D03*
X388750D02*
D03*
X383750D02*
D03*
X347250Y-362750D02*
D03*
X352250D02*
D03*
X349750Y-355750D02*
D03*
X354750D02*
D03*
X344750D02*
D03*
X344750Y-359250D02*
D03*
X354750D02*
D03*
X349750D02*
D03*
X416500Y-335750D02*
D03*
X421500D02*
D03*
X419000Y-328750D02*
D03*
X424000D02*
D03*
X414000D02*
D03*
X414000Y-332250D02*
D03*
X424000D02*
D03*
X419000D02*
D03*
X381250Y-335750D02*
D03*
X386250D02*
D03*
X383750Y-328750D02*
D03*
X388750D02*
D03*
X378750D02*
D03*
X378750Y-332250D02*
D03*
X388750D02*
D03*
X383750D02*
D03*
X347250Y-335750D02*
D03*
X352250D02*
D03*
X349750Y-328750D02*
D03*
X354750D02*
D03*
X344750D02*
D03*
X344750Y-332250D02*
D03*
X354750D02*
D03*
X349750D02*
D03*
Y-380250D02*
D03*
X354750D02*
D03*
X344750D02*
D03*
X344750Y-376750D02*
D03*
X354750D02*
D03*
X349750D02*
D03*
X352250Y-383750D02*
D03*
X347250D02*
D03*
X383750Y-380250D02*
D03*
X388750D02*
D03*
X378750D02*
D03*
X378750Y-376750D02*
D03*
X388750D02*
D03*
X383750D02*
D03*
X386250Y-383750D02*
D03*
X381250D02*
D03*
X419000Y-380250D02*
D03*
X424000D02*
D03*
X414000D02*
D03*
X414000Y-376750D02*
D03*
X424000D02*
D03*
X419000D02*
D03*
X421500Y-383750D02*
D03*
X416500D02*
D03*
X349750Y-407250D02*
D03*
X354750D02*
D03*
X344750D02*
D03*
X344750Y-403750D02*
D03*
X354750D02*
D03*
X349750D02*
D03*
X352250Y-410750D02*
D03*
X347250D02*
D03*
X383750Y-407250D02*
D03*
X388750D02*
D03*
X378750D02*
D03*
X378750Y-403750D02*
D03*
X388750D02*
D03*
X383750D02*
D03*
X386250Y-410750D02*
D03*
X381250D02*
D03*
X419000Y-407250D02*
D03*
X424000D02*
D03*
X414000D02*
D03*
X414000Y-403750D02*
D03*
X424000D02*
D03*
X419000D02*
D03*
X421500Y-410750D02*
D03*
X416500D02*
D03*
X129500Y-104500D02*
D03*
X131500Y-113500D02*
D03*
X134500D02*
D03*
X141500D02*
D03*
X144500D02*
D03*
Y-126500D02*
D03*
X154500Y-113500D02*
D03*
Y-126500D02*
D03*
X164500Y-113500D02*
D03*
X167500D02*
D03*
Y-126500D02*
D03*
X164500D02*
D03*
X186500D02*
D03*
X189500D02*
D03*
X186500Y-113500D02*
D03*
X176500Y-126500D02*
D03*
X179500D02*
D03*
Y-113500D02*
D03*
X176500D02*
D03*
X208500Y-126500D02*
D03*
Y-113500D02*
D03*
X198500Y-126500D02*
D03*
X201500Y-113500D02*
D03*
X198500D02*
D03*
X233500Y-126500D02*
D03*
Y-113500D02*
D03*
X230500D02*
D03*
X220500Y-126500D02*
D03*
X223500Y-113500D02*
D03*
X220500D02*
D03*
X129750Y-107500D02*
D03*
X146250Y-104500D02*
D03*
X169250D02*
D03*
X152500Y-104500D02*
D03*
X191500Y-107500D02*
D03*
X174750Y-107500D02*
D03*
X174500Y-104500D02*
D03*
X213500Y-107500D02*
D03*
X213250Y-104500D02*
D03*
X196750Y-107500D02*
D03*
X196500Y-104500D02*
D03*
X235500Y-107500D02*
D03*
X235250Y-104500D02*
D03*
X218750Y-107500D02*
D03*
X218500Y-104500D02*
D03*
X191259Y-104505D02*
D03*
X220000Y-73500D02*
D03*
X223000D02*
D03*
Y-86500D02*
D03*
X220000D02*
D03*
X230000Y-73500D02*
D03*
X233000D02*
D03*
Y-86500D02*
D03*
X230000D02*
D03*
X235000Y-67500D02*
D03*
X234750Y-64500D02*
D03*
X169500Y-107500D02*
D03*
X118875Y-53250D02*
D03*
X115875D02*
D03*
X118875Y-41000D02*
D03*
X115875D02*
D03*
X132500Y-53250D02*
D03*
X129500D02*
D03*
X132500Y-41000D02*
D03*
X129500D02*
D03*
X132500Y-33250D02*
D03*
X129500D02*
D03*
X132500Y-20250D02*
D03*
X129500D02*
D03*
X118875Y-33250D02*
D03*
X115875D02*
D03*
X118875Y-20250D02*
D03*
X115875D02*
D03*
X221500Y-47500D02*
D03*
X218500Y-34500D02*
D03*
X244250Y-37000D02*
D03*
X241250D02*
D03*
X221500Y-34500D02*
D03*
X229625D02*
D03*
X167000Y-19750D02*
D03*
X162500Y-36000D02*
D03*
X157500Y-39250D02*
D03*
Y-36000D02*
D03*
X167500Y-39000D02*
D03*
X162500Y-39250D02*
D03*
X152500Y-43250D02*
D03*
X69854Y289354D02*
D03*
X175000Y-230250D02*
D03*
Y-235250D02*
D03*
Y-225250D02*
D03*
X169000D02*
D03*
X175000Y-240250D02*
D03*
X175500Y165750D02*
D03*
X187500Y-34000D02*
D03*
X192500Y-33250D02*
D03*
X202500Y-53250D02*
D03*
X263750Y177500D02*
D03*
X261500Y167500D02*
D03*
X263250Y172500D02*
D03*
X260750Y162500D02*
D03*
X167500Y-35750D02*
D03*
X244000Y-9500D02*
D03*
X294000Y103000D02*
D03*
Y98000D02*
D03*
X297000D02*
D03*
X294000Y93000D02*
D03*
X297000D02*
D03*
X294000Y88000D02*
D03*
X297000D02*
D03*
X311000Y110000D02*
D03*
Y107000D02*
D03*
X306000Y110000D02*
D03*
X301000D02*
D03*
Y107000D02*
D03*
X321000D02*
D03*
Y110000D02*
D03*
X326000Y107000D02*
D03*
Y110000D02*
D03*
X331000Y107000D02*
D03*
Y110000D02*
D03*
X336000Y114000D02*
D03*
Y111000D02*
D03*
X342500Y88000D02*
D03*
X345500D02*
D03*
Y93000D02*
D03*
X342500D02*
D03*
X345500Y98000D02*
D03*
X342500D02*
D03*
X347000Y103000D02*
D03*
X344000D02*
D03*
X340000Y73000D02*
D03*
X343000D02*
D03*
Y68000D02*
D03*
X340000D02*
D03*
X321000Y64000D02*
D03*
X326000D02*
D03*
X331000Y61000D02*
D03*
Y64000D02*
D03*
X336000Y61000D02*
D03*
Y64000D02*
D03*
X316000D02*
D03*
Y61000D02*
D03*
X311000Y58500D02*
D03*
X301000Y61000D02*
D03*
X306000Y107000D02*
D03*
X297000Y103000D02*
D03*
X262250Y85798D02*
D03*
X259250D02*
D03*
X262250Y95750D02*
D03*
X259250D02*
D03*
X368750Y102000D02*
D03*
X365750D02*
D03*
Y115000D02*
D03*
X380500Y102000D02*
D03*
X377500D02*
D03*
X380500Y115000D02*
D03*
X377500D02*
D03*
X320000Y129250D02*
D03*
Y126250D02*
D03*
X309500Y129250D02*
D03*
Y126250D02*
D03*
X274250Y95750D02*
D03*
X271250D02*
D03*
X274250Y102000D02*
D03*
X271250D02*
D03*
X91250Y161000D02*
D03*
X80500Y151000D02*
D03*
X83500Y158000D02*
D03*
X413000Y309750D02*
D03*
Y312750D02*
D03*
X268500Y345500D02*
D03*
X266000Y319750D02*
D03*
X264500Y332250D02*
D03*
X269000Y304750D02*
D03*
X264500Y307500D02*
D03*
X283000Y308750D02*
D03*
X248000Y297250D02*
D03*
X252000Y315500D02*
D03*
X288000Y331750D02*
D03*
X263000Y229250D02*
D03*
X414500Y221500D02*
D03*
Y224500D02*
D03*
X424500D02*
D03*
X427500D02*
D03*
X437750D02*
D03*
X434750D02*
D03*
X447750D02*
D03*
Y221500D02*
D03*
X455250D02*
D03*
Y224500D02*
D03*
X468250D02*
D03*
Y221500D02*
D03*
X476750D02*
D03*
Y224500D02*
D03*
X406750Y270250D02*
D03*
Y273250D02*
D03*
X416702D02*
D03*
Y270250D02*
D03*
X432500Y255750D02*
D03*
X429500D02*
D03*
Y268750D02*
D03*
X432500D02*
D03*
X264500Y270750D02*
D03*
X267500Y255750D02*
D03*
X293000Y259750D02*
D03*
X299500Y255734D02*
D03*
X293000Y256750D02*
D03*
X267500Y246000D02*
D03*
X267513Y232011D02*
D03*
X396000Y273500D02*
D03*
X399000D02*
D03*
X398500Y257500D02*
D03*
X396000Y254500D02*
D03*
X399000D02*
D03*
X399000Y229250D02*
D03*
X396000D02*
D03*
X399000Y248250D02*
D03*
X396000D02*
D03*
X465000Y271000D02*
D03*
Y268000D02*
D03*
Y265000D02*
D03*
X462000Y268000D02*
D03*
X449000Y268000D02*
D03*
X446000Y271000D02*
D03*
Y268000D02*
D03*
Y265000D02*
D03*
X491250Y271000D02*
D03*
Y268000D02*
D03*
Y265000D02*
D03*
X488250Y268000D02*
D03*
X475250Y268000D02*
D03*
X472250Y271000D02*
D03*
Y268000D02*
D03*
Y265000D02*
D03*
X443536Y253492D02*
D03*
X446536Y254508D02*
D03*
X441250Y241000D02*
D03*
X444250D02*
D03*
Y247500D02*
D03*
X485006Y253895D02*
D03*
X488006D02*
D03*
X423000Y256750D02*
D03*
Y259750D02*
D03*
X413000D02*
D03*
Y256750D02*
D03*
X418000Y259750D02*
D03*
X408000D02*
D03*
Y256750D02*
D03*
X418000Y256750D02*
D03*
X423000Y235750D02*
D03*
Y232750D02*
D03*
X408000D02*
D03*
Y235750D02*
D03*
X484250Y241000D02*
D03*
X418000Y232750D02*
D03*
Y235750D02*
D03*
X413000Y232750D02*
D03*
X413000Y235750D02*
D03*
X412500Y249000D02*
D03*
X409500Y244750D02*
D03*
X488006Y234396D02*
D03*
X485006D02*
D03*
X489774Y224261D02*
D03*
X487774Y247762D02*
D03*
X393000Y49500D02*
D03*
X396000Y52500D02*
D03*
X396000Y65500D02*
D03*
X399000Y68500D02*
D03*
X396000D02*
D03*
X393000D02*
D03*
X393000Y43250D02*
D03*
X396000D02*
D03*
X399000D02*
D03*
X396000Y40250D02*
D03*
X396000Y27750D02*
D03*
X393000Y24750D02*
D03*
X396000D02*
D03*
X399000D02*
D03*
X446000Y60000D02*
D03*
Y63000D02*
D03*
Y66000D02*
D03*
X449000Y63000D02*
D03*
X462000Y63000D02*
D03*
X465000Y60000D02*
D03*
Y63000D02*
D03*
Y66000D02*
D03*
X472250Y60000D02*
D03*
Y63000D02*
D03*
Y66000D02*
D03*
X475250Y63000D02*
D03*
X488250Y63000D02*
D03*
X491250Y60000D02*
D03*
Y63000D02*
D03*
Y66000D02*
D03*
X427500Y16500D02*
D03*
Y19500D02*
D03*
X414500D02*
D03*
Y16500D02*
D03*
X447500Y19500D02*
D03*
X435250D02*
D03*
X468250Y16500D02*
D03*
Y19500D02*
D03*
X455250D02*
D03*
Y16500D02*
D03*
X489750D02*
D03*
X476750Y19500D02*
D03*
Y16500D02*
D03*
X432500Y63750D02*
D03*
X429500D02*
D03*
Y50750D02*
D03*
X432500D02*
D03*
X406750Y68250D02*
D03*
Y65250D02*
D03*
X416702D02*
D03*
Y68250D02*
D03*
X408000Y51750D02*
D03*
X413000Y54750D02*
D03*
X423000Y51750D02*
D03*
X418000D02*
D03*
X413000Y27750D02*
D03*
Y30750D02*
D03*
X408000Y27750D02*
D03*
Y30750D02*
D03*
X418000D02*
D03*
Y27750D02*
D03*
X423000Y30750D02*
D03*
Y27750D02*
D03*
X446414Y49456D02*
D03*
X443414Y48440D02*
D03*
X441128Y42448D02*
D03*
X444128D02*
D03*
X441128Y35948D02*
D03*
X444128D02*
D03*
X488128Y42448D02*
D03*
X485128D02*
D03*
Y48948D02*
D03*
X488128D02*
D03*
Y29448D02*
D03*
X485128D02*
D03*
Y35948D02*
D03*
X488128D02*
D03*
X414000Y41250D02*
D03*
X417000D02*
D03*
X408000Y54750D02*
D03*
X396000Y49500D02*
D03*
X399000D02*
D03*
X413000Y51750D02*
D03*
X447772Y16501D02*
D03*
X476750Y296500D02*
D03*
X497256Y315896D02*
D03*
X487274Y19251D02*
D03*
X423000Y54750D02*
D03*
X418000D02*
D03*
X282500Y-63500D02*
D03*
Y-60500D02*
D03*
X353006Y-50605D02*
D03*
X351750Y-63500D02*
D03*
X284500Y-41250D02*
D03*
X278000Y-50250D02*
D03*
X283000Y-47250D02*
D03*
X273000Y-50250D02*
D03*
X278000Y-47250D02*
D03*
X288000D02*
D03*
X289500Y-63500D02*
D03*
X258000Y-63250D02*
D03*
X241250Y-22500D02*
D03*
X211250Y3000D02*
D03*
Y6000D02*
D03*
X230250D02*
D03*
Y3000D02*
D03*
X213250Y-16000D02*
D03*
Y-19000D02*
D03*
X230250Y-13750D02*
D03*
Y-16750D02*
D03*
X244250Y-22500D02*
D03*
X218000Y-64500D02*
D03*
X232250Y-44500D02*
D03*
Y-47500D02*
D03*
X194500Y-254750D02*
D03*
X199000Y-230250D02*
D03*
X205000D02*
D03*
X136750Y166000D02*
D03*
X136750Y158000D02*
D03*
X138250Y150000D02*
D03*
X142250Y141250D02*
D03*
X182000Y150000D02*
D03*
X178000Y158000D02*
D03*
X178500Y165750D02*
D03*
X141250Y149250D02*
D03*
X214250Y141500D02*
D03*
Y166500D02*
D03*
X209250D02*
D03*
Y141500D02*
D03*
X287750Y167500D02*
D03*
Y172500D02*
D03*
Y162500D02*
D03*
X141500Y-126500D02*
D03*
X131500D02*
D03*
X642550Y-318500D02*
D03*
X642550Y-321500D02*
D03*
X639550D02*
D03*
X639549Y-318500D02*
D03*
X636550Y-321500D02*
D03*
X636549Y-318500D02*
D03*
X633550Y-321500D02*
D03*
X633549Y-318500D02*
D03*
X630550Y-321500D02*
D03*
X630550Y-318500D02*
D03*
X627550Y-321500D02*
D03*
X627550Y-318500D02*
D03*
X624550Y-321500D02*
D03*
X624549Y-318500D02*
D03*
X642550Y-328500D02*
D03*
X642550Y-331500D02*
D03*
X639550D02*
D03*
X639549Y-328500D02*
D03*
X636550Y-331500D02*
D03*
X636549Y-328500D02*
D03*
X633550Y-331500D02*
D03*
X633549Y-328500D02*
D03*
X630550Y-331500D02*
D03*
X630550Y-328500D02*
D03*
X627550Y-331500D02*
D03*
X627550Y-328500D02*
D03*
X624550Y-331500D02*
D03*
X624549Y-328500D02*
D03*
Y-338500D02*
D03*
X624550Y-341500D02*
D03*
X627550Y-338500D02*
D03*
X627550Y-341500D02*
D03*
X630550Y-338500D02*
D03*
X630550Y-341500D02*
D03*
X633549Y-338500D02*
D03*
X633550Y-341500D02*
D03*
X636549Y-338500D02*
D03*
X636550Y-341500D02*
D03*
X639549Y-338500D02*
D03*
X639550Y-341500D02*
D03*
X642550D02*
D03*
X642550Y-338500D02*
D03*
X558750Y-341500D02*
D03*
X558750Y-338500D02*
D03*
X555750Y-341500D02*
D03*
X555750Y-338500D02*
D03*
X552750Y-341500D02*
D03*
X552750Y-338500D02*
D03*
X549750Y-341500D02*
D03*
X549750Y-338500D02*
D03*
X546750Y-341500D02*
D03*
X546750Y-338500D02*
D03*
X543750Y-341500D02*
D03*
X543750Y-338500D02*
D03*
X540750D02*
D03*
X540750Y-341500D02*
D03*
X558750Y-298500D02*
D03*
X558750Y-301500D02*
D03*
X555750D02*
D03*
X555750Y-298500D02*
D03*
X552750Y-301500D02*
D03*
X552749Y-298500D02*
D03*
X549750Y-301500D02*
D03*
X549749Y-298500D02*
D03*
X546750Y-301500D02*
D03*
X546749Y-298500D02*
D03*
X543750Y-301500D02*
D03*
X543750Y-298500D02*
D03*
X540750Y-301500D02*
D03*
X540750Y-298500D02*
D03*
Y-308500D02*
D03*
X540750Y-311500D02*
D03*
X543750Y-308500D02*
D03*
X543750Y-311500D02*
D03*
X546749Y-308500D02*
D03*
X546750Y-311500D02*
D03*
X549749Y-308500D02*
D03*
X549750Y-311500D02*
D03*
X552749Y-308500D02*
D03*
X552750Y-311500D02*
D03*
X555750Y-308500D02*
D03*
X555750Y-311500D02*
D03*
X558750D02*
D03*
X558750Y-308500D02*
D03*
Y-278500D02*
D03*
X558750Y-281500D02*
D03*
X555750D02*
D03*
X555750Y-278500D02*
D03*
X552750Y-281500D02*
D03*
X552749Y-278500D02*
D03*
X549750Y-281500D02*
D03*
X549749Y-278500D02*
D03*
X546750Y-281500D02*
D03*
X546749Y-278500D02*
D03*
X543750Y-281500D02*
D03*
X543750Y-278500D02*
D03*
X540750Y-281500D02*
D03*
X540750Y-278500D02*
D03*
Y-288500D02*
D03*
X540750Y-291500D02*
D03*
X543750Y-288500D02*
D03*
X543750Y-291500D02*
D03*
X546749Y-288500D02*
D03*
X546750Y-291500D02*
D03*
X549749Y-288500D02*
D03*
X549750Y-291500D02*
D03*
X552749Y-288500D02*
D03*
X552750Y-291500D02*
D03*
X555750Y-288500D02*
D03*
X555750Y-291500D02*
D03*
X558750D02*
D03*
X558750Y-288500D02*
D03*
Y-258500D02*
D03*
X558750Y-261500D02*
D03*
X555750D02*
D03*
X555750Y-258500D02*
D03*
X552750Y-261500D02*
D03*
X552749Y-258500D02*
D03*
X549750Y-261500D02*
D03*
X549749Y-258500D02*
D03*
X546750Y-261500D02*
D03*
X546749Y-258500D02*
D03*
X543750Y-271500D02*
D03*
X546749Y-268500D02*
D03*
X546750Y-271500D02*
D03*
X549749Y-268500D02*
D03*
X549750Y-271500D02*
D03*
X552749Y-268500D02*
D03*
X552750Y-271500D02*
D03*
X555750Y-268500D02*
D03*
X555750Y-271500D02*
D03*
X558750D02*
D03*
X558750Y-268500D02*
D03*
X540750Y-248500D02*
D03*
X540750Y-251500D02*
D03*
X543750Y-248500D02*
D03*
X543750Y-251500D02*
D03*
X546749Y-248500D02*
D03*
X546750Y-251500D02*
D03*
X549749Y-248500D02*
D03*
X549750Y-251500D02*
D03*
X552749Y-248500D02*
D03*
X552750Y-251500D02*
D03*
X555750Y-248500D02*
D03*
X555750Y-251500D02*
D03*
X558750D02*
D03*
X558750Y-248500D02*
D03*
X540750Y-321500D02*
D03*
X543750D02*
D03*
X546750D02*
D03*
X549750D02*
D03*
X552750D02*
D03*
X558750D02*
D03*
X555750D02*
D03*
X558750Y-318500D02*
D03*
X555750D02*
D03*
X552749D02*
D03*
X549749D02*
D03*
X546749D02*
D03*
X543750D02*
D03*
X540750D02*
D03*
Y-328500D02*
D03*
X540750Y-331500D02*
D03*
X543750Y-328500D02*
D03*
X543750Y-331500D02*
D03*
X546749Y-328500D02*
D03*
X546750Y-331500D02*
D03*
X549749Y-328500D02*
D03*
X549750Y-331500D02*
D03*
X552749Y-328500D02*
D03*
X552750Y-331500D02*
D03*
X555750Y-328500D02*
D03*
X555750Y-331500D02*
D03*
X558750D02*
D03*
X558750Y-328500D02*
D03*
X624550Y-251500D02*
D03*
X624550Y-248500D02*
D03*
X627550D02*
D03*
X627550Y-251500D02*
D03*
X630550Y-248500D02*
D03*
X630550Y-251500D02*
D03*
X633550Y-248500D02*
D03*
X633550Y-251500D02*
D03*
X636550Y-248500D02*
D03*
X636550Y-251500D02*
D03*
X639550Y-248500D02*
D03*
X639550Y-251500D02*
D03*
X642550Y-248500D02*
D03*
X642550Y-251500D02*
D03*
X624550Y-271500D02*
D03*
X624550Y-268500D02*
D03*
X627550D02*
D03*
X627550Y-271500D02*
D03*
X630550Y-268500D02*
D03*
X630550Y-271500D02*
D03*
X633550Y-268500D02*
D03*
X633550Y-271500D02*
D03*
X636550Y-268500D02*
D03*
X636550Y-271500D02*
D03*
X639550Y-268500D02*
D03*
X639550Y-271500D02*
D03*
X642550Y-268500D02*
D03*
X642550Y-271500D02*
D03*
Y-261500D02*
D03*
X642550Y-258500D02*
D03*
X639550Y-261500D02*
D03*
X639550Y-258500D02*
D03*
X636550Y-261500D02*
D03*
X636550Y-258500D02*
D03*
X633550Y-261500D02*
D03*
X633550Y-258500D02*
D03*
X630550Y-261500D02*
D03*
X630550Y-258500D02*
D03*
X627550Y-261500D02*
D03*
X627550Y-258500D02*
D03*
X624550D02*
D03*
X624550Y-261500D02*
D03*
Y-291500D02*
D03*
X624550Y-288500D02*
D03*
X627550D02*
D03*
X627550Y-291500D02*
D03*
X630550Y-288500D02*
D03*
X630550Y-291500D02*
D03*
X633550Y-288500D02*
D03*
X633550Y-291500D02*
D03*
X636550Y-288500D02*
D03*
X636550Y-291500D02*
D03*
X639550Y-288500D02*
D03*
X639550Y-291500D02*
D03*
X642550Y-288500D02*
D03*
X642550Y-291500D02*
D03*
Y-281500D02*
D03*
X642550Y-278500D02*
D03*
X639550Y-281500D02*
D03*
X639550Y-278500D02*
D03*
X636550Y-281500D02*
D03*
X636550Y-278500D02*
D03*
X633550Y-281500D02*
D03*
X633550Y-278500D02*
D03*
X630550Y-281500D02*
D03*
X630550Y-278500D02*
D03*
X627550Y-281500D02*
D03*
X627550Y-278500D02*
D03*
X624550D02*
D03*
X624550Y-281500D02*
D03*
Y-311500D02*
D03*
X624550Y-308500D02*
D03*
X627550D02*
D03*
X627550Y-311500D02*
D03*
X630550Y-308500D02*
D03*
X630550Y-311500D02*
D03*
X633550Y-308500D02*
D03*
X633550Y-311500D02*
D03*
X636550Y-308500D02*
D03*
X636550Y-311500D02*
D03*
X639550Y-308500D02*
D03*
X639550Y-311500D02*
D03*
X642550Y-308500D02*
D03*
X642550Y-311500D02*
D03*
Y-301500D02*
D03*
X642550Y-298500D02*
D03*
X639550Y-301500D02*
D03*
X639550Y-298500D02*
D03*
X636550Y-301500D02*
D03*
X636550Y-298500D02*
D03*
X633550Y-301500D02*
D03*
X633550Y-298500D02*
D03*
X630550Y-301500D02*
D03*
X630550Y-298500D02*
D03*
X627550Y-301500D02*
D03*
X627550Y-298500D02*
D03*
X624550D02*
D03*
X624550Y-301500D02*
D03*
X686750Y-252496D02*
D03*
Y-255496D02*
D03*
Y-249496D02*
D03*
X667750Y-237250D02*
D03*
X102104Y239750D02*
D03*
X71750Y210500D02*
D03*
X70854Y309354D02*
D03*
X67854Y309354D02*
D03*
X70854Y299354D02*
D03*
Y294354D02*
D03*
X73004Y289354D02*
D03*
X73104Y284354D02*
D03*
X67854Y274354D02*
D03*
Y264354D02*
D03*
X70854Y279354D02*
D03*
X67854Y259354D02*
D03*
X70854Y269354D02*
D03*
X69955Y284354D02*
D03*
X70854Y274354D02*
D03*
X77104Y330604D02*
D03*
X82104D02*
D03*
X82104Y333604D02*
D03*
X87104Y330604D02*
D03*
X87104Y333604D02*
D03*
X92104Y330604D02*
D03*
X127104Y333604D02*
D03*
X97104Y332354D02*
D03*
X97104Y335354D02*
D03*
X102104Y333604D02*
D03*
X137104D02*
D03*
X127104Y330604D02*
D03*
X132104D02*
D03*
X132104Y333604D02*
D03*
X142104Y330750D02*
D03*
X147104Y333604D02*
D03*
X142104Y333854D02*
D03*
X158692Y319354D02*
D03*
X137104Y330604D02*
D03*
X-6000Y249500D02*
D03*
X-7500Y246500D02*
D03*
X-9000Y249500D02*
D03*
X-10750Y246500D02*
D03*
X-7500Y261500D02*
D03*
X-9000Y264500D02*
D03*
X-10750Y261500D02*
D03*
X-12000Y264500D02*
D03*
X13500Y279250D02*
D03*
X-10750Y276500D02*
D03*
X-9000Y279500D02*
D03*
X10500Y276750D02*
D03*
X30250D02*
D03*
X16500Y280000D02*
D03*
X16500Y276750D02*
D03*
X24250D02*
D03*
X13500Y276000D02*
D03*
X30250Y280000D02*
D03*
X27250Y279250D02*
D03*
X24250Y280000D02*
D03*
X-6000Y279500D02*
D03*
X-7500Y276500D02*
D03*
X369450Y200500D02*
D03*
Y197500D02*
D03*
X365500Y184250D02*
D03*
Y187250D02*
D03*
X186750Y245750D02*
D03*
X193750D02*
D03*
X260750Y177500D02*
D03*
X260250Y172500D02*
D03*
X264750Y167500D02*
D03*
X264000Y162500D02*
D03*
X284750D02*
D03*
Y167500D02*
D03*
X272750Y150500D02*
D03*
X284750Y172500D02*
D03*
Y177500D02*
D03*
Y182500D02*
D03*
X277750Y184000D02*
D03*
X260750Y182500D02*
D03*
X274500Y169000D02*
D03*
X271500Y172000D02*
D03*
X197500Y-43250D02*
D03*
X299000Y197500D02*
D03*
X286000Y200500D02*
D03*
Y197500D02*
D03*
X299000Y200500D02*
D03*
X297000Y73000D02*
D03*
X311000Y61500D02*
D03*
X205000Y-210250D02*
D03*
Y-225250D02*
D03*
X199000Y-220250D02*
D03*
Y-205250D02*
D03*
X205000D02*
D03*
X199000Y-210250D02*
D03*
X205000Y-215250D02*
D03*
X188500Y-227625D02*
D03*
X222250Y-261750D02*
D03*
X222000Y-407250D02*
D03*
X219500Y-376250D02*
D03*
X396000Y-94500D02*
D03*
Y-91500D02*
D03*
X399000D02*
D03*
X393000D02*
D03*
X624550Y-166500D02*
D03*
X624550Y-163500D02*
D03*
X627550D02*
D03*
X627550Y-166500D02*
D03*
X630550Y-163500D02*
D03*
X630550Y-166500D02*
D03*
X633550Y-163500D02*
D03*
X633550Y-166500D02*
D03*
X636550Y-163500D02*
D03*
X636550Y-166500D02*
D03*
X639550Y-163500D02*
D03*
X639550Y-166500D02*
D03*
X642550Y-163500D02*
D03*
X642550Y-166500D02*
D03*
Y-176500D02*
D03*
X642550Y-173500D02*
D03*
X639550Y-176500D02*
D03*
X639550Y-173500D02*
D03*
X636550Y-176500D02*
D03*
X636550Y-173500D02*
D03*
X633550Y-176500D02*
D03*
X633550Y-173500D02*
D03*
X630550Y-176500D02*
D03*
X630550Y-173500D02*
D03*
X627550Y-176500D02*
D03*
X627550Y-173500D02*
D03*
X624550D02*
D03*
X624550Y-176500D02*
D03*
Y-146500D02*
D03*
X624550Y-143500D02*
D03*
X627550D02*
D03*
X627550Y-146500D02*
D03*
X630550Y-143500D02*
D03*
X630550Y-146500D02*
D03*
X633550Y-143500D02*
D03*
X633550Y-146500D02*
D03*
X636550Y-143500D02*
D03*
X636550Y-146500D02*
D03*
X639550Y-143500D02*
D03*
X639550Y-146500D02*
D03*
X642550Y-143500D02*
D03*
X642550Y-146500D02*
D03*
Y-156500D02*
D03*
X642550Y-153500D02*
D03*
X639550Y-156500D02*
D03*
X639550Y-153500D02*
D03*
X636550Y-156500D02*
D03*
X636550Y-153500D02*
D03*
X633550Y-156500D02*
D03*
X633550Y-153500D02*
D03*
X630550Y-156500D02*
D03*
X630550Y-153500D02*
D03*
X627550Y-156500D02*
D03*
X627550Y-153500D02*
D03*
X624550D02*
D03*
X624550Y-156500D02*
D03*
Y-126500D02*
D03*
X624550Y-123500D02*
D03*
X627550D02*
D03*
X627550Y-126500D02*
D03*
X630550Y-123500D02*
D03*
X630550Y-126500D02*
D03*
X633550Y-123500D02*
D03*
X633550Y-126500D02*
D03*
X636550Y-123500D02*
D03*
X636550Y-126500D02*
D03*
X639550Y-123500D02*
D03*
X639550Y-126500D02*
D03*
X642550Y-123500D02*
D03*
X642550Y-126500D02*
D03*
Y-136500D02*
D03*
X642550Y-133500D02*
D03*
X639550Y-136500D02*
D03*
X639550Y-133500D02*
D03*
X636550Y-136500D02*
D03*
X636550Y-133500D02*
D03*
X633550Y-136500D02*
D03*
X633550Y-133500D02*
D03*
X630550Y-136500D02*
D03*
X630550Y-133500D02*
D03*
X627550Y-136500D02*
D03*
X627550Y-133500D02*
D03*
X624550D02*
D03*
X624550Y-136500D02*
D03*
X642550Y-116500D02*
D03*
X642550Y-113500D02*
D03*
X639550Y-116500D02*
D03*
X639550Y-113500D02*
D03*
X636550Y-116500D02*
D03*
X636550Y-113500D02*
D03*
X633550Y-116500D02*
D03*
X633550Y-113500D02*
D03*
X630550Y-116500D02*
D03*
X630550Y-113500D02*
D03*
X627550Y-116500D02*
D03*
X627550Y-113500D02*
D03*
X624550D02*
D03*
X624550Y-116500D02*
D03*
X540750Y-183500D02*
D03*
X543750D02*
D03*
X546749D02*
D03*
X549749D02*
D03*
X552749D02*
D03*
X555750D02*
D03*
X558750D02*
D03*
X555750Y-186500D02*
D03*
X558750D02*
D03*
X552750D02*
D03*
X549750D02*
D03*
X546750D02*
D03*
X543750D02*
D03*
X540750D02*
D03*
X558750Y-113500D02*
D03*
X558750Y-116500D02*
D03*
X555750D02*
D03*
X555750Y-113500D02*
D03*
X552750Y-116500D02*
D03*
X552749Y-113500D02*
D03*
X549750Y-116500D02*
D03*
X549749Y-113500D02*
D03*
X546750Y-116500D02*
D03*
X546749Y-113500D02*
D03*
X543750Y-116500D02*
D03*
X543750Y-113500D02*
D03*
X540750Y-116500D02*
D03*
X540750Y-113500D02*
D03*
X558750Y-133500D02*
D03*
X558750Y-136500D02*
D03*
X555750D02*
D03*
X555750Y-133500D02*
D03*
X552750Y-136500D02*
D03*
X552749Y-133500D02*
D03*
X549750Y-136500D02*
D03*
X549749Y-133500D02*
D03*
X546750Y-136500D02*
D03*
X546749Y-133500D02*
D03*
X543750Y-136500D02*
D03*
X543750Y-133500D02*
D03*
X540750Y-136500D02*
D03*
X540750Y-133500D02*
D03*
Y-123500D02*
D03*
X540750Y-126500D02*
D03*
X543750Y-123500D02*
D03*
X543750Y-126500D02*
D03*
X546749Y-123500D02*
D03*
X546750Y-126500D02*
D03*
X549749Y-123500D02*
D03*
X549750Y-126500D02*
D03*
X552749Y-123500D02*
D03*
X552750Y-126500D02*
D03*
X555750Y-123500D02*
D03*
X555750Y-126500D02*
D03*
X558750D02*
D03*
X558750Y-123500D02*
D03*
Y-153500D02*
D03*
X558750Y-156500D02*
D03*
X555750D02*
D03*
X555750Y-153500D02*
D03*
X552750Y-156500D02*
D03*
X552749Y-153500D02*
D03*
X549750Y-156500D02*
D03*
X549749Y-153500D02*
D03*
X546750Y-156500D02*
D03*
X546749Y-153500D02*
D03*
X543750Y-156500D02*
D03*
X543750Y-153500D02*
D03*
X540750Y-156500D02*
D03*
X540750Y-153500D02*
D03*
Y-143500D02*
D03*
X540750Y-146500D02*
D03*
X543750Y-143500D02*
D03*
X543750Y-146500D02*
D03*
X546749Y-143500D02*
D03*
X546750Y-146500D02*
D03*
X549749Y-143500D02*
D03*
X549750Y-146500D02*
D03*
X552749Y-143500D02*
D03*
X552750Y-146500D02*
D03*
X555750Y-143500D02*
D03*
X555750Y-146500D02*
D03*
X558750D02*
D03*
X558750Y-143500D02*
D03*
Y-173500D02*
D03*
X558750Y-176500D02*
D03*
X555750D02*
D03*
X555750Y-173500D02*
D03*
X552750Y-176500D02*
D03*
X552749Y-173500D02*
D03*
X549750Y-176500D02*
D03*
X549749Y-173500D02*
D03*
X546750Y-176500D02*
D03*
X546749Y-173500D02*
D03*
X543750Y-176500D02*
D03*
X543750Y-173500D02*
D03*
X540750Y-176500D02*
D03*
X540750Y-173500D02*
D03*
Y-163500D02*
D03*
X540750Y-166500D02*
D03*
X543750Y-163500D02*
D03*
X543750Y-166500D02*
D03*
X546749Y-163500D02*
D03*
X546750Y-166500D02*
D03*
X549749Y-163500D02*
D03*
X549750Y-166500D02*
D03*
X552749Y-163500D02*
D03*
X552750Y-166500D02*
D03*
X555750Y-163500D02*
D03*
X555750Y-166500D02*
D03*
X558750D02*
D03*
X558750Y-163500D02*
D03*
X642550Y-203500D02*
D03*
X642550Y-206500D02*
D03*
X639550D02*
D03*
X639549Y-203500D02*
D03*
X636550Y-206500D02*
D03*
X636549Y-203500D02*
D03*
X633550Y-206500D02*
D03*
X633549Y-203500D02*
D03*
X630550Y-206500D02*
D03*
X630550Y-203500D02*
D03*
X627550Y-206500D02*
D03*
X627550Y-203500D02*
D03*
X624550Y-206500D02*
D03*
X624549Y-203500D02*
D03*
Y-193500D02*
D03*
X624550Y-196500D02*
D03*
X627550Y-193500D02*
D03*
X627550Y-196500D02*
D03*
X630550Y-193500D02*
D03*
X630550Y-196500D02*
D03*
X633549Y-193500D02*
D03*
X633550Y-196500D02*
D03*
X636549Y-193500D02*
D03*
X636550Y-196500D02*
D03*
X639549Y-193500D02*
D03*
X639550Y-196500D02*
D03*
X642550D02*
D03*
X642550Y-193500D02*
D03*
X624549Y-183500D02*
D03*
X624550Y-186500D02*
D03*
X627550Y-183500D02*
D03*
X627550Y-186500D02*
D03*
X630550Y-183500D02*
D03*
X630550Y-186500D02*
D03*
X633549Y-183500D02*
D03*
X633550Y-186500D02*
D03*
X636549Y-183500D02*
D03*
X636550Y-186500D02*
D03*
X639550D02*
D03*
X642550D02*
D03*
X624550Y135800D02*
D03*
X624550Y138800D02*
D03*
X627550D02*
D03*
X627550Y135800D02*
D03*
X630550Y138800D02*
D03*
X630550Y135800D02*
D03*
X633550Y138800D02*
D03*
X633550Y135800D02*
D03*
X636550Y138800D02*
D03*
X636550Y135800D02*
D03*
X639550Y138800D02*
D03*
X639550Y135800D02*
D03*
X642550Y138800D02*
D03*
X642550Y135800D02*
D03*
Y125800D02*
D03*
X642550Y128800D02*
D03*
X639550Y125800D02*
D03*
X639550Y128800D02*
D03*
X636550Y125800D02*
D03*
X636550Y128800D02*
D03*
X633550Y125800D02*
D03*
X633550Y128800D02*
D03*
X630550Y125800D02*
D03*
X630550Y128800D02*
D03*
X627550Y125800D02*
D03*
X627550Y128800D02*
D03*
X624550D02*
D03*
X624550Y125800D02*
D03*
Y155800D02*
D03*
X624550Y158800D02*
D03*
X627550D02*
D03*
X627550Y155800D02*
D03*
X630550Y158800D02*
D03*
X630550Y155800D02*
D03*
X633550Y158800D02*
D03*
X633550Y155800D02*
D03*
X636550Y158800D02*
D03*
X636550Y155800D02*
D03*
X639550Y158800D02*
D03*
X639550Y155800D02*
D03*
X642550Y158800D02*
D03*
X642550Y155800D02*
D03*
Y145800D02*
D03*
X642550Y148800D02*
D03*
X639550Y145800D02*
D03*
X639550Y148800D02*
D03*
X636550Y145800D02*
D03*
X636550Y148800D02*
D03*
X633550Y145800D02*
D03*
X633550Y148800D02*
D03*
X630550Y145800D02*
D03*
X630550Y148800D02*
D03*
X627550Y145800D02*
D03*
X627550Y148800D02*
D03*
X624550Y145800D02*
D03*
X627550Y178800D02*
D03*
X630550D02*
D03*
X630550Y175800D02*
D03*
X633550Y178800D02*
D03*
X633550Y175800D02*
D03*
X636550Y178800D02*
D03*
X636550Y175800D02*
D03*
X639550Y178800D02*
D03*
X639550Y175800D02*
D03*
X642550Y178800D02*
D03*
X642550Y175800D02*
D03*
Y165800D02*
D03*
X642550Y168800D02*
D03*
X639550Y165800D02*
D03*
X639550Y168800D02*
D03*
X636550Y165800D02*
D03*
X636550Y168800D02*
D03*
X633550Y165800D02*
D03*
X633550Y168800D02*
D03*
X630550Y165800D02*
D03*
X630550Y168800D02*
D03*
X627550Y165800D02*
D03*
X627550Y168800D02*
D03*
X624550D02*
D03*
X624550Y165800D02*
D03*
X642550Y185800D02*
D03*
X642550Y188800D02*
D03*
X639550Y185800D02*
D03*
X639550Y188800D02*
D03*
X636550Y185800D02*
D03*
X636550Y188800D02*
D03*
X633550Y185800D02*
D03*
X633550Y188800D02*
D03*
X630550Y185800D02*
D03*
X630550Y188800D02*
D03*
X627550Y185800D02*
D03*
X627550Y188800D02*
D03*
X624550D02*
D03*
X624550Y185800D02*
D03*
X558750Y108800D02*
D03*
X558750Y105800D02*
D03*
X555750D02*
D03*
X555750Y108800D02*
D03*
X552750Y105800D02*
D03*
X552749Y108800D02*
D03*
X549750Y105800D02*
D03*
X549749Y108800D02*
D03*
X546750Y105800D02*
D03*
X546749Y108800D02*
D03*
X543750Y105800D02*
D03*
X543750Y108800D02*
D03*
X540750Y105800D02*
D03*
X540750Y108800D02*
D03*
Y118800D02*
D03*
X543750D02*
D03*
X546749D02*
D03*
X549749D02*
D03*
X552749D02*
D03*
X555750D02*
D03*
X558750D02*
D03*
X555750Y115800D02*
D03*
X558750D02*
D03*
X552750D02*
D03*
X549750D02*
D03*
X546750D02*
D03*
X543750D02*
D03*
X540750D02*
D03*
X558750Y188800D02*
D03*
X558750Y185800D02*
D03*
X555750D02*
D03*
X555750Y188800D02*
D03*
X552750Y185800D02*
D03*
X552749Y188800D02*
D03*
X549750Y185800D02*
D03*
X549749Y188800D02*
D03*
X546750Y185800D02*
D03*
X546749Y188800D02*
D03*
X543750Y185800D02*
D03*
X543750Y188800D02*
D03*
X540750Y185800D02*
D03*
X540750Y188800D02*
D03*
X558750Y168800D02*
D03*
X555750Y165800D02*
D03*
X555750Y168800D02*
D03*
X552750Y165800D02*
D03*
X552749Y168800D02*
D03*
X549750Y165800D02*
D03*
X549749Y168800D02*
D03*
X546750Y165800D02*
D03*
X546749Y168800D02*
D03*
X543750Y165800D02*
D03*
X543750Y168800D02*
D03*
X540750Y165800D02*
D03*
X540750Y168800D02*
D03*
Y178800D02*
D03*
X540750Y175800D02*
D03*
X543750Y178800D02*
D03*
X543750Y175800D02*
D03*
X546749Y178800D02*
D03*
X546750Y175800D02*
D03*
X549749Y178800D02*
D03*
X549750Y175800D02*
D03*
X552749Y178800D02*
D03*
X552750Y175800D02*
D03*
X555750Y178800D02*
D03*
X555750Y175800D02*
D03*
X558750D02*
D03*
X558750Y178800D02*
D03*
X546749Y158800D02*
D03*
X549749D02*
D03*
X549750Y155800D02*
D03*
X552749Y158800D02*
D03*
X552750Y155800D02*
D03*
X555750Y158800D02*
D03*
X555750Y155800D02*
D03*
X558750D02*
D03*
X558750Y158800D02*
D03*
Y128800D02*
D03*
X558750Y125800D02*
D03*
X555750D02*
D03*
X555750Y128800D02*
D03*
X552750Y125800D02*
D03*
X552749Y128800D02*
D03*
X549750Y125800D02*
D03*
X549749Y128800D02*
D03*
X546750Y125800D02*
D03*
X546749Y128800D02*
D03*
X543750Y125800D02*
D03*
X543750Y128800D02*
D03*
X540750Y125800D02*
D03*
X540750Y128800D02*
D03*
X543750Y138800D02*
D03*
X543750Y135800D02*
D03*
X546749Y138800D02*
D03*
X546750Y135800D02*
D03*
X549749Y138800D02*
D03*
X549750Y135800D02*
D03*
X552749Y138800D02*
D03*
X552750Y135800D02*
D03*
X555750Y138800D02*
D03*
X555750Y135800D02*
D03*
X558750D02*
D03*
X558750Y138800D02*
D03*
X540750Y95800D02*
D03*
X540750Y98800D02*
D03*
X543750D02*
D03*
X543750Y95800D02*
D03*
X546750Y98800D02*
D03*
X546750Y95800D02*
D03*
X549750Y98800D02*
D03*
X549750Y95800D02*
D03*
X552750Y98800D02*
D03*
X552750Y95800D02*
D03*
X555750Y98800D02*
D03*
X555750Y95800D02*
D03*
X558750Y98800D02*
D03*
X558750Y95800D02*
D03*
X642550Y98800D02*
D03*
X642550Y95800D02*
D03*
X639550D02*
D03*
X639549Y98800D02*
D03*
X636550Y95800D02*
D03*
X636549Y98800D02*
D03*
X633550Y95800D02*
D03*
X633549Y98800D02*
D03*
X630550Y95800D02*
D03*
X627550D02*
D03*
X624550D02*
D03*
X624549Y108800D02*
D03*
X624550Y105800D02*
D03*
X627550Y108800D02*
D03*
X627550Y105800D02*
D03*
X630550Y108800D02*
D03*
X630550Y105800D02*
D03*
X633549Y108800D02*
D03*
X633550Y105800D02*
D03*
X636549Y108800D02*
D03*
X636550Y105800D02*
D03*
X639549Y108800D02*
D03*
X639550Y105800D02*
D03*
X642550D02*
D03*
X642550Y108800D02*
D03*
X624549Y118800D02*
D03*
X624550Y115800D02*
D03*
X627550Y118800D02*
D03*
X627550Y115800D02*
D03*
X630550Y118800D02*
D03*
X630550Y115800D02*
D03*
X633549Y118800D02*
D03*
X633550Y115800D02*
D03*
X636549Y118800D02*
D03*
X636550Y115800D02*
D03*
X639549Y118800D02*
D03*
X639550Y115800D02*
D03*
X642550D02*
D03*
X642550Y118800D02*
D03*
X627550Y273800D02*
D03*
X627550Y270800D02*
D03*
X630550Y273800D02*
D03*
X630550Y270800D02*
D03*
X633550Y273800D02*
D03*
X633550Y270800D02*
D03*
X636550Y273800D02*
D03*
X636550Y270800D02*
D03*
X639550Y273800D02*
D03*
X639550Y270800D02*
D03*
X642550Y273800D02*
D03*
X642550Y270800D02*
D03*
Y260800D02*
D03*
X642550Y263800D02*
D03*
X639550Y260800D02*
D03*
X639550Y263800D02*
D03*
X636550Y260800D02*
D03*
X636550Y263800D02*
D03*
X633550Y260800D02*
D03*
X633550Y263800D02*
D03*
X630550Y260800D02*
D03*
X630550Y263800D02*
D03*
X627550Y260800D02*
D03*
X627550Y263800D02*
D03*
X624550D02*
D03*
X624550Y260800D02*
D03*
Y290800D02*
D03*
X624550Y293800D02*
D03*
X627550D02*
D03*
X627550Y290800D02*
D03*
X630550Y293800D02*
D03*
X630550Y290800D02*
D03*
X633550Y293800D02*
D03*
X633550Y290800D02*
D03*
X636550Y293800D02*
D03*
X636550Y290800D02*
D03*
X639550Y293800D02*
D03*
X639550Y290800D02*
D03*
X642550Y293800D02*
D03*
X642550Y290800D02*
D03*
Y280800D02*
D03*
X642550Y283800D02*
D03*
X639550Y280800D02*
D03*
X639550Y283800D02*
D03*
X636550Y280800D02*
D03*
X636550Y283800D02*
D03*
X633550Y280800D02*
D03*
X633550Y283800D02*
D03*
X630550Y280800D02*
D03*
X630550Y283800D02*
D03*
X627550Y280800D02*
D03*
X627550Y283800D02*
D03*
X624550Y280800D02*
D03*
Y310800D02*
D03*
X624550Y313800D02*
D03*
X627550D02*
D03*
X627550Y310800D02*
D03*
X630550Y313800D02*
D03*
X630550Y310800D02*
D03*
X633550Y313800D02*
D03*
X633550Y310800D02*
D03*
X636550Y313800D02*
D03*
X636550Y310800D02*
D03*
X639550Y313800D02*
D03*
X639550Y310800D02*
D03*
X642550Y313800D02*
D03*
X642550Y300800D02*
D03*
X642550Y303800D02*
D03*
X639550Y300800D02*
D03*
X639550Y303800D02*
D03*
X636550Y300800D02*
D03*
X636550Y303800D02*
D03*
X633550Y300800D02*
D03*
X633550Y303800D02*
D03*
X630550Y300800D02*
D03*
X630550Y303800D02*
D03*
X627550Y300800D02*
D03*
X627550Y303800D02*
D03*
X624550D02*
D03*
X624550Y300800D02*
D03*
X642550Y320800D02*
D03*
X642550Y323800D02*
D03*
X639550Y320800D02*
D03*
X639550Y323800D02*
D03*
X636550Y320800D02*
D03*
X636550Y323800D02*
D03*
X633550Y320800D02*
D03*
X633550Y323800D02*
D03*
X630550Y320800D02*
D03*
X630550Y323800D02*
D03*
X627550Y320800D02*
D03*
X627550Y323800D02*
D03*
X624550D02*
D03*
X624550Y320800D02*
D03*
X540750Y253800D02*
D03*
X543750D02*
D03*
X546749D02*
D03*
X549749D02*
D03*
X552749D02*
D03*
X555750D02*
D03*
X555750Y250800D02*
D03*
X558750D02*
D03*
X552750D02*
D03*
X549750D02*
D03*
X546750D02*
D03*
X543750D02*
D03*
X540750D02*
D03*
X546750Y320800D02*
D03*
X546749Y323800D02*
D03*
X543750Y320800D02*
D03*
X543750Y323800D02*
D03*
X540750Y320800D02*
D03*
X540750Y323800D02*
D03*
X552750Y300800D02*
D03*
X549750D02*
D03*
X546750D02*
D03*
X546749Y303800D02*
D03*
X543750Y300800D02*
D03*
X543750Y303800D02*
D03*
X540750Y300800D02*
D03*
X540750Y303800D02*
D03*
X558750Y313800D02*
D03*
X558750Y280800D02*
D03*
X555750D02*
D03*
X555750Y283800D02*
D03*
X552750Y280800D02*
D03*
X552749Y283800D02*
D03*
X549750Y280800D02*
D03*
X549749Y283800D02*
D03*
X546750Y280800D02*
D03*
X546749Y283800D02*
D03*
X543750Y280800D02*
D03*
X543750Y283800D02*
D03*
X540750Y280800D02*
D03*
X540750Y283800D02*
D03*
Y293800D02*
D03*
X540750Y290800D02*
D03*
X543750Y293800D02*
D03*
X543750Y290800D02*
D03*
X546749Y293800D02*
D03*
X546750Y290800D02*
D03*
X549749Y293800D02*
D03*
X549750Y290800D02*
D03*
X552749Y293800D02*
D03*
X552750Y290800D02*
D03*
X555750Y293800D02*
D03*
X558750Y263800D02*
D03*
X558750Y260800D02*
D03*
X555750D02*
D03*
X555750Y263800D02*
D03*
X552750Y260800D02*
D03*
X552749Y263800D02*
D03*
X549750Y260800D02*
D03*
X549749Y263800D02*
D03*
X546750Y260800D02*
D03*
X546749Y263800D02*
D03*
X543750Y260800D02*
D03*
X543750Y263800D02*
D03*
X540750Y260800D02*
D03*
X540750Y263800D02*
D03*
Y273800D02*
D03*
X540750Y270800D02*
D03*
X543750Y273800D02*
D03*
X543750Y270800D02*
D03*
X546749Y273800D02*
D03*
X546750Y270800D02*
D03*
X549749Y273800D02*
D03*
X549750Y270800D02*
D03*
X552749Y273800D02*
D03*
X552750Y270800D02*
D03*
X555750Y273800D02*
D03*
X555750Y270800D02*
D03*
X642550Y233800D02*
D03*
X642550Y230800D02*
D03*
X639550D02*
D03*
X639549Y233800D02*
D03*
X636550Y230800D02*
D03*
X636549Y233800D02*
D03*
X633550Y230800D02*
D03*
X633549Y233800D02*
D03*
X630550Y230800D02*
D03*
X630550Y233800D02*
D03*
X627550Y230800D02*
D03*
X627550Y233800D02*
D03*
X624550Y230800D02*
D03*
X624549Y233800D02*
D03*
Y243800D02*
D03*
X624550Y240800D02*
D03*
X627550Y243800D02*
D03*
X627550Y240800D02*
D03*
X630550Y243800D02*
D03*
X630550Y240800D02*
D03*
X633549Y243800D02*
D03*
X633550Y240800D02*
D03*
X636549Y243800D02*
D03*
X636550Y240800D02*
D03*
X639549Y243800D02*
D03*
X639550Y240800D02*
D03*
X642550D02*
D03*
X642550Y243800D02*
D03*
X624550Y250800D02*
D03*
X627550Y253800D02*
D03*
X627550Y250800D02*
D03*
X630550Y253800D02*
D03*
X630550Y250800D02*
D03*
X633549Y253800D02*
D03*
X633550Y250800D02*
D03*
X636549Y253800D02*
D03*
X636550Y250800D02*
D03*
X639549Y253800D02*
D03*
X639550Y250800D02*
D03*
X642550D02*
D03*
X642550Y253800D02*
D03*
X-7500Y117750D02*
D03*
X-6000Y120750D02*
D03*
X-9000D02*
D03*
X-10750Y117750D02*
D03*
X-6000Y165750D02*
D03*
X-12000D02*
D03*
X-9000D02*
D03*
X-7500Y162750D02*
D03*
X-10750Y162750D02*
D03*
Y147750D02*
D03*
X-7500Y147750D02*
D03*
X-9000Y150750D02*
D03*
X-12000D02*
D03*
X-6000D02*
D03*
X-10750Y132750D02*
D03*
X-7500Y132750D02*
D03*
X-9000Y135750D02*
D03*
X-12000D02*
D03*
X-6000D02*
D03*
X-12000Y120750D02*
D03*
X-11500Y-59750D02*
D03*
Y-74750D02*
D03*
Y-104750D02*
D03*
Y-89750D02*
D03*
X294000Y73000D02*
D03*
X26750Y193250D02*
D03*
X287750Y15500D02*
D03*
X287750Y21500D02*
D03*
X287750Y18500D02*
D03*
Y12250D02*
D03*
X314750Y21750D02*
D03*
Y15500D02*
D03*
X314750Y12500D02*
D03*
X314750Y18500D02*
D03*
X343750Y12250D02*
D03*
Y18500D02*
D03*
X343750Y21500D02*
D03*
X343750Y15500D02*
D03*
X370750Y21750D02*
D03*
Y15500D02*
D03*
X370750Y12500D02*
D03*
X370750Y18500D02*
D03*
X517750Y48750D02*
D03*
X524000D02*
D03*
X527000Y48750D02*
D03*
X521000Y48750D02*
D03*
X527250Y21750D02*
D03*
X521000D02*
D03*
X518000Y21750D02*
D03*
X524000Y21750D02*
D03*
X553250Y5000D02*
D03*
Y-1250D02*
D03*
X553250Y-4250D02*
D03*
X553250Y1750D02*
D03*
X526250Y-4500D02*
D03*
Y1750D02*
D03*
X526250Y4750D02*
D03*
X526250Y-1250D02*
D03*
X517750Y-32750D02*
D03*
X524000D02*
D03*
X527000Y-32750D02*
D03*
X521000Y-32750D02*
D03*
X527250Y-59750D02*
D03*
X521000D02*
D03*
X518000Y-59750D02*
D03*
X524000Y-59750D02*
D03*
X581500Y-4500D02*
D03*
Y1750D02*
D03*
X581500Y4750D02*
D03*
X581500Y-1250D02*
D03*
X608500Y5000D02*
D03*
Y-1250D02*
D03*
X608500Y-4250D02*
D03*
X608500Y1750D02*
D03*
X621500Y-4750D02*
D03*
Y1500D02*
D03*
X621500Y4500D02*
D03*
X621500Y-1500D02*
D03*
X648500Y4750D02*
D03*
Y-1500D02*
D03*
X648500Y-4500D02*
D03*
X648500Y1500D02*
D03*
X-58500Y33250D02*
D03*
X-63500D02*
D03*
X-58500Y-33750D02*
D03*
X-63500D02*
D03*
X161250Y389750D02*
D03*
X166250Y389769D02*
D03*
X218250Y-67500D02*
D03*
X306000Y64000D02*
D03*
X301000D02*
D03*
X297000Y68000D02*
D03*
X317750Y221500D02*
D03*
Y224500D02*
D03*
X304750Y221500D02*
D03*
Y224500D02*
D03*
X325250D02*
D03*
Y221500D02*
D03*
X354517Y-60753D02*
D03*
X157500Y-113500D02*
D03*
X146500Y-107500D02*
D03*
X152750Y-107500D02*
D03*
X134500Y-126500D02*
D03*
X92750Y-300750D02*
D03*
X414750Y197500D02*
D03*
Y194125D02*
D03*
Y190750D02*
D03*
X433000Y190625D02*
D03*
Y194000D02*
D03*
Y197375D02*
D03*
X192304Y205152D02*
D03*
X182500Y205000D02*
D03*
Y208000D02*
D03*
X195304Y205152D02*
D03*
X129754Y378771D02*
D03*
X132754Y366521D02*
D03*
X129754D02*
D03*
X132754Y378771D02*
D03*
X165960Y377250D02*
D03*
X168960Y366250D02*
D03*
X165960D02*
D03*
X168960Y377250D02*
D03*
X166000Y355000D02*
D03*
X169000D02*
D03*
X179000Y353750D02*
D03*
Y356750D02*
D03*
X190500Y371000D02*
D03*
X187500D02*
D03*
X190500Y356250D02*
D03*
X187500D02*
D03*
X209500Y360500D02*
D03*
Y357500D02*
D03*
X221000Y360500D02*
D03*
Y357500D02*
D03*
X62750Y111000D02*
D03*
X65750D02*
D03*
X62750Y98000D02*
D03*
X65750D02*
D03*
X96750Y77250D02*
D03*
Y80250D02*
D03*
X108250Y77250D02*
D03*
Y80250D02*
D03*
X-20250Y403500D02*
D03*
X-23250D02*
D03*
X-20250Y390500D02*
D03*
X-23250D02*
D03*
X-20250Y383750D02*
D03*
X-23250D02*
D03*
X-20250Y364250D02*
D03*
X-23250D02*
D03*
X29000Y249500D02*
D03*
Y246500D02*
D03*
X40524Y249500D02*
D03*
Y246500D02*
D03*
X272750Y184000D02*
D03*
X277750Y187000D02*
D03*
X272750D02*
D03*
X263750Y182500D02*
D03*
X510000Y277500D02*
D03*
X513250D02*
D03*
X516500D02*
D03*
Y274125D02*
D03*
X513250D02*
D03*
X510000D02*
D03*
X523587Y270753D02*
D03*
X526837D02*
D03*
X523587Y274128D02*
D03*
X526837D02*
D03*
Y277503D02*
D03*
X523587D02*
D03*
X509950Y258375D02*
D03*
X513200D02*
D03*
X516450D02*
D03*
X509950Y261750D02*
D03*
X513200D02*
D03*
X516450D02*
D03*
X509950Y249000D02*
D03*
X513200D02*
D03*
X516450D02*
D03*
Y252375D02*
D03*
X513200D02*
D03*
X509950D02*
D03*
Y233125D02*
D03*
X513200D02*
D03*
X516450D02*
D03*
X509950Y236500D02*
D03*
X513200D02*
D03*
X516450D02*
D03*
X523550Y265125D02*
D03*
X526800D02*
D03*
Y261750D02*
D03*
X523550D02*
D03*
X526800Y258375D02*
D03*
X523550D02*
D03*
Y252375D02*
D03*
X526800D02*
D03*
Y249000D02*
D03*
X523550D02*
D03*
X526800Y245625D02*
D03*
X523550D02*
D03*
Y239875D02*
D03*
X526800D02*
D03*
Y236500D02*
D03*
X523550D02*
D03*
X526800Y233125D02*
D03*
X523550D02*
D03*
X509750Y307008D02*
D03*
Y300508D02*
D03*
Y294500D02*
D03*
X527156Y291250D02*
D03*
Y288000D02*
D03*
Y303758D02*
D03*
Y307008D02*
D03*
X558750Y253800D02*
D03*
X558750Y270800D02*
D03*
X558750Y273800D02*
D03*
X555750Y300800D02*
D03*
X558750Y303800D02*
D03*
X558750Y300800D02*
D03*
X624549Y253800D02*
D03*
X624550Y270800D02*
D03*
X624550Y273800D02*
D03*
Y283800D02*
D03*
X527156Y300508D02*
D03*
X522500Y318514D02*
D03*
X525750D02*
D03*
X519250D02*
D03*
X516250Y342000D02*
D03*
Y338750D02*
D03*
Y345250D02*
D03*
X549749Y323800D02*
D03*
X555750D02*
D03*
X552749D02*
D03*
X549750Y320800D02*
D03*
X555750D02*
D03*
X552750D02*
D03*
X558750Y323800D02*
D03*
X558750Y320800D02*
D03*
X555750Y303800D02*
D03*
X549749D02*
D03*
X552749Y313800D02*
D03*
X555750D02*
D03*
X555750Y310800D02*
D03*
X552749Y303800D02*
D03*
X558750Y310800D02*
D03*
X509750Y303758D02*
D03*
X642550Y310800D02*
D03*
X501514Y178500D02*
D03*
Y185000D02*
D03*
Y181750D02*
D03*
X524000Y-118500D02*
D03*
X518000Y-118500D02*
D03*
X521000Y-118500D02*
D03*
X527250D02*
D03*
X521000Y-91500D02*
D03*
X527000Y-91500D02*
D03*
X524000Y-91500D02*
D03*
X524750Y178500D02*
D03*
Y185000D02*
D03*
Y181750D02*
D03*
X521514D02*
D03*
Y185000D02*
D03*
Y178500D02*
D03*
X521514Y157937D02*
D03*
Y164438D02*
D03*
Y161187D02*
D03*
X524750D02*
D03*
Y164438D02*
D03*
Y157937D02*
D03*
X481764Y137250D02*
D03*
Y143750D02*
D03*
Y140500D02*
D03*
X485000D02*
D03*
Y143750D02*
D03*
Y137250D02*
D03*
X465000D02*
D03*
Y140500D02*
D03*
X461763Y137250D02*
D03*
X504750Y143875D02*
D03*
X501514Y140625D02*
D03*
Y143875D02*
D03*
X482014Y116813D02*
D03*
Y123313D02*
D03*
Y120063D02*
D03*
X485250D02*
D03*
Y123313D02*
D03*
Y116813D02*
D03*
X465250D02*
D03*
Y123313D02*
D03*
Y120063D02*
D03*
X462014D02*
D03*
Y123313D02*
D03*
Y116813D02*
D03*
X521514Y116812D02*
D03*
Y123313D02*
D03*
Y120063D02*
D03*
X524750D02*
D03*
Y123313D02*
D03*
Y116812D02*
D03*
X504750Y123313D02*
D03*
Y120063D02*
D03*
X501514D02*
D03*
Y123313D02*
D03*
X482014Y96250D02*
D03*
Y102750D02*
D03*
Y99500D02*
D03*
X485250D02*
D03*
Y102750D02*
D03*
Y96250D02*
D03*
X465250D02*
D03*
Y102750D02*
D03*
Y99500D02*
D03*
X462014D02*
D03*
Y102750D02*
D03*
Y96250D02*
D03*
X521514Y96250D02*
D03*
Y102750D02*
D03*
Y99500D02*
D03*
X524750D02*
D03*
Y102750D02*
D03*
Y96250D02*
D03*
X504750D02*
D03*
Y102750D02*
D03*
Y99500D02*
D03*
X501514D02*
D03*
Y102750D02*
D03*
Y96250D02*
D03*
X461750Y159500D02*
D03*
X465000Y162736D02*
D03*
X461750D02*
D03*
X468250D02*
D03*
X488486Y164750D02*
D03*
Y158250D02*
D03*
Y161500D02*
D03*
X485250D02*
D03*
Y158250D02*
D03*
X461264Y-278875D02*
D03*
Y-272375D02*
D03*
Y-275625D02*
D03*
X464500D02*
D03*
Y-272375D02*
D03*
Y-278875D02*
D03*
X487736Y-272375D02*
D03*
Y-278875D02*
D03*
Y-275625D02*
D03*
X484500D02*
D03*
Y-278875D02*
D03*
Y-272375D02*
D03*
X487736Y-292750D02*
D03*
X464500Y-299250D02*
D03*
Y-292750D02*
D03*
Y-296000D02*
D03*
X461264D02*
D03*
Y-292750D02*
D03*
Y-299250D02*
D03*
X484500Y-313125D02*
D03*
Y-319625D02*
D03*
Y-316375D02*
D03*
X487736D02*
D03*
Y-319625D02*
D03*
Y-313125D02*
D03*
X464500Y-319625D02*
D03*
Y-313125D02*
D03*
Y-316375D02*
D03*
X461264D02*
D03*
Y-313125D02*
D03*
Y-319625D02*
D03*
X484500Y-333500D02*
D03*
Y-340000D02*
D03*
Y-336750D02*
D03*
X487736D02*
D03*
Y-340000D02*
D03*
Y-333500D02*
D03*
X464500Y-340000D02*
D03*
Y-333500D02*
D03*
Y-336750D02*
D03*
X461264D02*
D03*
Y-333500D02*
D03*
Y-340000D02*
D03*
X521250Y-252000D02*
D03*
Y-258500D02*
D03*
Y-255250D02*
D03*
X524487D02*
D03*
Y-258500D02*
D03*
Y-252000D02*
D03*
X506500Y-258500D02*
D03*
Y-252000D02*
D03*
Y-255250D02*
D03*
X503264D02*
D03*
Y-252000D02*
D03*
Y-258500D02*
D03*
X521500Y-278875D02*
D03*
Y-275625D02*
D03*
X524737Y-278875D02*
D03*
X506500D02*
D03*
Y-272375D02*
D03*
Y-275625D02*
D03*
X503264D02*
D03*
Y-272375D02*
D03*
Y-278875D02*
D03*
X521250Y-292750D02*
D03*
Y-299250D02*
D03*
Y-296000D02*
D03*
X524487D02*
D03*
Y-299250D02*
D03*
Y-292750D02*
D03*
X505500Y-299250D02*
D03*
X502263D02*
D03*
X523000Y-313125D02*
D03*
Y-316375D02*
D03*
X526236D02*
D03*
Y-319625D02*
D03*
Y-313125D02*
D03*
X503000Y-319625D02*
D03*
Y-313125D02*
D03*
Y-316375D02*
D03*
X499763D02*
D03*
Y-313125D02*
D03*
Y-319625D02*
D03*
X523000Y-333513D02*
D03*
Y-340014D02*
D03*
Y-336763D02*
D03*
X526236D02*
D03*
Y-340014D02*
D03*
Y-333513D02*
D03*
X503000Y-340014D02*
D03*
Y-333513D02*
D03*
Y-336763D02*
D03*
X499763D02*
D03*
Y-333513D02*
D03*
Y-340014D02*
D03*
X555750Y290800D02*
D03*
X558750D02*
D03*
X558750Y293800D02*
D03*
Y283800D02*
D03*
X684000Y175955D02*
D03*
Y178955D02*
D03*
X667750Y36500D02*
D03*
Y23650D02*
D03*
Y20650D02*
D03*
X686750Y-54750D02*
D03*
Y-51750D02*
D03*
Y-57750D02*
D03*
X684000Y-34400D02*
D03*
X686750Y-35900D02*
D03*
Y-38900D02*
D03*
X684000Y-37400D02*
D03*
X670500Y-56250D02*
D03*
X667750Y-51750D02*
D03*
Y-57750D02*
D03*
X670500Y-34400D02*
D03*
X684000Y-53250D02*
D03*
Y-56250D02*
D03*
X667750Y-54750D02*
D03*
X667750Y-35900D02*
D03*
Y-32900D02*
D03*
X670500Y-37400D02*
D03*
X667750Y-38900D02*
D03*
X670500Y-53250D02*
D03*
X484500Y-299250D02*
D03*
X487736D02*
D03*
X484500Y-292750D02*
D03*
X487736Y-296000D02*
D03*
X484500D02*
D03*
X502263Y-292750D02*
D03*
X505500D02*
D03*
X502263Y-296000D02*
D03*
X505500D02*
D03*
X524737Y-275625D02*
D03*
X521500Y-272375D02*
D03*
X524737D02*
D03*
X543750Y-261500D02*
D03*
X540750D02*
D03*
X540750Y-268500D02*
D03*
X540750Y-271500D02*
D03*
X543750Y-268500D02*
D03*
Y-258500D02*
D03*
X540750D02*
D03*
X523000Y-319625D02*
D03*
X509486Y-167247D02*
D03*
X512736D02*
D03*
X509486Y-163872D02*
D03*
X512736D02*
D03*
Y-160497D02*
D03*
X509486D02*
D03*
X526086D02*
D03*
X522836D02*
D03*
X526086Y-163872D02*
D03*
X522836D02*
D03*
Y-167247D02*
D03*
X526086D02*
D03*
X509450Y-179625D02*
D03*
X512700D02*
D03*
X509450Y-176250D02*
D03*
X512700D02*
D03*
Y-172875D02*
D03*
X509450D02*
D03*
X526050D02*
D03*
X522800D02*
D03*
X526050Y-176250D02*
D03*
X522800D02*
D03*
Y-179625D02*
D03*
X526050D02*
D03*
X509450Y-192375D02*
D03*
X512700D02*
D03*
X509450Y-189000D02*
D03*
X512700D02*
D03*
Y-185625D02*
D03*
X509450D02*
D03*
Y-204875D02*
D03*
X512700D02*
D03*
X509450Y-201500D02*
D03*
X512700D02*
D03*
X509450Y-198125D02*
D03*
X512700D02*
D03*
X523000Y-201625D02*
D03*
X526250Y-205000D02*
D03*
X523000D02*
D03*
X526250Y-201625D02*
D03*
X523000Y-198250D02*
D03*
Y-185750D02*
D03*
X526250Y-189125D02*
D03*
X523000D02*
D03*
Y-192500D02*
D03*
X414500Y299500D02*
D03*
X526250Y-192500D02*
D03*
X434771Y16501D02*
D03*
X517750Y-91500D02*
D03*
X158604Y324354D02*
D03*
X161604D02*
D03*
X221000Y206500D02*
D03*
X-63500Y-192500D02*
D03*
X-58500D02*
D03*
X540750Y313800D02*
D03*
X543750D02*
D03*
X543750Y310800D02*
D03*
X546749Y313800D02*
D03*
X546750Y310800D02*
D03*
X549749Y313800D02*
D03*
X549750Y310800D02*
D03*
X552750D02*
D03*
X540750D02*
D03*
X-10750Y57750D02*
D03*
X-9000Y60750D02*
D03*
X-7500Y57750D02*
D03*
X-6000Y60750D02*
D03*
X-12000D02*
D03*
X-5750Y75750D02*
D03*
X-7250Y72750D02*
D03*
X-8750Y75750D02*
D03*
X-10500Y72750D02*
D03*
X-11750Y75750D02*
D03*
Y90750D02*
D03*
X-5750D02*
D03*
X-7250Y87750D02*
D03*
X-8750Y90750D02*
D03*
X-10500Y87750D02*
D03*
X-10750Y102750D02*
D03*
X-12000Y105750D02*
D03*
X-9000D02*
D03*
X-6000D02*
D03*
X-7500Y102750D02*
D03*
X375000Y169500D02*
D03*
Y166500D02*
D03*
X13538Y-315430D02*
D03*
X8538D02*
D03*
X18288D02*
D03*
X8538Y-318930D02*
D03*
X13538D02*
D03*
X11038Y-312930D02*
D03*
X16038D02*
D03*
X13538Y-295430D02*
D03*
X18288D02*
D03*
X8538D02*
D03*
X8538Y-291930D02*
D03*
X18288D02*
D03*
X13538D02*
D03*
X16038Y-297930D02*
D03*
X11038D02*
D03*
X10962Y-238880D02*
D03*
X15962D02*
D03*
X13462Y-232880D02*
D03*
X18462D02*
D03*
X8462D02*
D03*
X8462Y-236380D02*
D03*
X18462D02*
D03*
X13462D02*
D03*
X15962Y-253880D02*
D03*
X10962D02*
D03*
X13462Y-259880D02*
D03*
X8462D02*
D03*
X18462D02*
D03*
X18462Y-256380D02*
D03*
X8462D02*
D03*
X13462D02*
D03*
X228750Y-326500D02*
D03*
X219234Y-318000D02*
D03*
X216234Y-315000D02*
D03*
Y-325000D02*
D03*
X207734Y-318000D02*
D03*
X18288Y-318930D02*
D03*
X338250Y296500D02*
D03*
X346750Y296500D02*
D03*
X686750Y261500D02*
D03*
Y226682D02*
D03*
X686750Y244091D02*
D03*
X366522Y143812D02*
D03*
Y146812D02*
D03*
X383286Y143812D02*
D03*
Y146812D02*
D03*
X406654Y156766D02*
D03*
Y159766D02*
D03*
X419354Y156766D02*
D03*
Y159766D02*
D03*
X413004Y175562D02*
D03*
Y178562D02*
D03*
X404622Y143812D02*
D03*
Y146812D02*
D03*
X418846Y143812D02*
D03*
Y146812D02*
D03*
X118110Y-264668D02*
D03*
X121158D02*
D03*
X124206D02*
D03*
X127254D02*
D03*
X130302D02*
D03*
X133350D02*
D03*
X136398D02*
D03*
X139446D02*
D03*
X180000Y-22750D02*
D03*
X527156Y294500D02*
D03*
X526706Y-149250D02*
D03*
Y-146000D02*
D03*
Y-142750D02*
D03*
Y-136742D02*
D03*
Y-133492D02*
D03*
Y-130242D02*
D03*
X510032Y291338D02*
D03*
X512811Y294494D02*
D03*
X512361Y-142756D02*
D03*
X509582Y-145912D02*
D03*
X509300Y-142750D02*
D03*
Y-136742D02*
D03*
Y-133492D02*
D03*
Y-130242D02*
D03*
X524750Y137375D02*
D03*
Y143875D02*
D03*
Y140625D02*
D03*
X521514D02*
D03*
Y143875D02*
D03*
Y137375D02*
D03*
X526250Y-185750D02*
D03*
Y-198250D02*
D03*
X-58500Y-349500D02*
D03*
X-63500D02*
D03*
X-6500Y-218500D02*
D03*
X-11500D02*
D03*
X-6500Y-233500D02*
D03*
X-11500D02*
D03*
X-6500Y-248500D02*
D03*
X-11500D02*
D03*
X-6500Y-263500D02*
D03*
X-11500D02*
D03*
X-12000Y-277000D02*
D03*
X-9000D02*
D03*
X-6000D02*
D03*
Y-280000D02*
D03*
X-9000D02*
D03*
X-12000D02*
D03*
Y-295000D02*
D03*
X-9000D02*
D03*
X-6000D02*
D03*
Y-292000D02*
D03*
X-9000D02*
D03*
X-12000D02*
D03*
Y-310000D02*
D03*
X-9000D02*
D03*
X-6000D02*
D03*
Y-307000D02*
D03*
X-9000D02*
D03*
X-12000D02*
D03*
Y-325000D02*
D03*
X-9000D02*
D03*
X-6000D02*
D03*
Y-322000D02*
D03*
X-9000D02*
D03*
X-12000D02*
D03*
X189500Y-257750D02*
D03*
X194500D02*
D03*
X184500D02*
D03*
X179500D02*
D03*
X172000Y-220250D02*
D03*
Y-215250D02*
D03*
Y-205250D02*
D03*
Y-210250D02*
D03*
Y-240250D02*
D03*
Y-235250D02*
D03*
Y-225250D02*
D03*
Y-230250D02*
D03*
X194500Y-197750D02*
D03*
X189500D02*
D03*
X179500D02*
D03*
X184500D02*
D03*
X172000Y-245250D02*
D03*
Y-250250D02*
D03*
X202000Y-205250D02*
D03*
Y-210250D02*
D03*
Y-225250D02*
D03*
Y-230250D02*
D03*
Y-220250D02*
D03*
Y-215250D02*
D03*
Y-245250D02*
D03*
Y-250250D02*
D03*
Y-240250D02*
D03*
Y-235250D02*
D03*
X188250Y-221750D02*
D03*
X182250D02*
D03*
X191250Y-224250D02*
D03*
X185250D02*
D03*
X187000Y-232000D02*
D03*
X181000D02*
D03*
X191250Y-234750D02*
D03*
X185250D02*
D03*
X202000Y-380750D02*
D03*
Y-385750D02*
D03*
Y-395750D02*
D03*
Y-390750D02*
D03*
Y-360750D02*
D03*
Y-365750D02*
D03*
Y-375750D02*
D03*
Y-370750D02*
D03*
Y-355750D02*
D03*
Y-350750D02*
D03*
X172000Y-395750D02*
D03*
Y-390750D02*
D03*
X184500Y-343250D02*
D03*
X179500D02*
D03*
X189500D02*
D03*
X194500D02*
D03*
X172000Y-375750D02*
D03*
Y-370750D02*
D03*
Y-380750D02*
D03*
Y-385750D02*
D03*
Y-355750D02*
D03*
Y-350750D02*
D03*
Y-360750D02*
D03*
Y-365750D02*
D03*
X179500Y-403250D02*
D03*
X184500D02*
D03*
X194500D02*
D03*
X189500D02*
D03*
X180500Y-367250D02*
D03*
X186500D02*
D03*
X184500Y-370250D02*
D03*
X190500D02*
D03*
X180500Y-376750D02*
D03*
X186500D02*
D03*
X184000Y-379750D02*
D03*
X190000D02*
D03*
X161604Y274354D02*
D03*
X161354Y264354D02*
D03*
X158604Y249354D02*
D03*
X158354Y264354D02*
D03*
M02*
