G04 Layer_Color=8388736*
%FSLAX25Y25*%
%MOIN*%
G70*
G01*
G75*
%ADD96R,0.06706X0.22060*%
%ADD97R,0.22060X0.06706*%
%ADD98R,0.05131X0.04737*%
G04:AMPARAMS|DCode=99|XSize=19.81mil|YSize=47.37mil|CornerRadius=8.72mil|HoleSize=0mil|Usage=FLASHONLY|Rotation=180.000|XOffset=0mil|YOffset=0mil|HoleType=Round|Shape=RoundedRectangle|*
%AMROUNDEDRECTD99*
21,1,0.01981,0.02992,0,0,180.0*
21,1,0.00236,0.04737,0,0,180.0*
1,1,0.01745,-0.00118,0.01496*
1,1,0.01745,0.00118,0.01496*
1,1,0.01745,0.00118,-0.01496*
1,1,0.01745,-0.00118,-0.01496*
%
%ADD99ROUNDEDRECTD99*%
G04:AMPARAMS|DCode=100|XSize=19.81mil|YSize=47.37mil|CornerRadius=8.72mil|HoleSize=0mil|Usage=FLASHONLY|Rotation=90.000|XOffset=0mil|YOffset=0mil|HoleType=Round|Shape=RoundedRectangle|*
%AMROUNDEDRECTD100*
21,1,0.01981,0.02992,0,0,90.0*
21,1,0.00236,0.04737,0,0,90.0*
1,1,0.01745,0.01496,0.00118*
1,1,0.01745,0.01496,-0.00118*
1,1,0.01745,-0.01496,-0.00118*
1,1,0.01745,-0.01496,0.00118*
%
%ADD100ROUNDEDRECTD100*%
%ADD101R,0.24422X0.24422*%
%ADD102R,0.03950X0.04343*%
G04:AMPARAMS|DCode=103|XSize=19.81mil|YSize=51.31mil|CornerRadius=6.95mil|HoleSize=0mil|Usage=FLASHONLY|Rotation=270.000|XOffset=0mil|YOffset=0mil|HoleType=Round|Shape=RoundedRectangle|*
%AMROUNDEDRECTD103*
21,1,0.01981,0.03740,0,0,270.0*
21,1,0.00591,0.05131,0,0,270.0*
1,1,0.01391,-0.01870,-0.00295*
1,1,0.01391,-0.01870,0.00295*
1,1,0.01391,0.01870,0.00295*
1,1,0.01391,0.01870,-0.00295*
%
%ADD103ROUNDEDRECTD103*%
%ADD104R,0.04343X0.03950*%
%ADD105R,0.05603X0.02375*%
%ADD106R,0.13005X0.11824*%
%ADD107R,0.08280X0.08674*%
G04:AMPARAMS|DCode=108|XSize=19.81mil|YSize=39.5mil|CornerRadius=6.95mil|HoleSize=0mil|Usage=FLASHONLY|Rotation=270.000|XOffset=0mil|YOffset=0mil|HoleType=Round|Shape=RoundedRectangle|*
%AMROUNDEDRECTD108*
21,1,0.01981,0.02559,0,0,270.0*
21,1,0.00591,0.03950,0,0,270.0*
1,1,0.01391,-0.01280,-0.00295*
1,1,0.01391,-0.01280,0.00295*
1,1,0.01391,0.01280,0.00295*
1,1,0.01391,0.01280,-0.00295*
%
%ADD108ROUNDEDRECTD108*%
%ADD109R,0.07296X0.10249*%
%ADD110R,0.03162X0.11036*%
%ADD111R,0.01981X0.03556*%
%ADD112R,0.05131X0.05524*%
%ADD113R,0.05288X0.03753*%
%ADD114R,0.03162X0.03162*%
%ADD115R,0.03162X0.03162*%
%ADD116C,0.05485*%
%ADD117C,0.12611*%
%ADD118C,0.24422*%
%ADD119C,0.06706*%
D96*
X64665Y139744D02*
D03*
X44980D02*
D03*
Y114941D02*
D03*
X64665D02*
D03*
D97*
X58366Y51260D02*
D03*
Y31575D02*
D03*
X124485Y103327D02*
D03*
Y123012D02*
D03*
Y89055D02*
D03*
Y69370D02*
D03*
X124682Y33445D02*
D03*
Y53130D02*
D03*
X191437Y123012D02*
D03*
Y103327D02*
D03*
Y89055D02*
D03*
Y69370D02*
D03*
Y33445D02*
D03*
Y53130D02*
D03*
D98*
X49705Y24685D02*
D03*
X56398D02*
D03*
X36909Y127146D02*
D03*
X30217D02*
D03*
D99*
X20374Y60807D02*
D03*
X22343D02*
D03*
X24311D02*
D03*
X26280D02*
D03*
X28248D02*
D03*
X30217D02*
D03*
X32185D02*
D03*
X34154D02*
D03*
X36122D02*
D03*
X38091D02*
D03*
X40059D02*
D03*
X42028D02*
D03*
X43996D02*
D03*
X45965D02*
D03*
X47933D02*
D03*
X49902D02*
D03*
Y96240D02*
D03*
X47933D02*
D03*
X45965D02*
D03*
X43996D02*
D03*
X42028D02*
D03*
X40059D02*
D03*
X38091D02*
D03*
X36122D02*
D03*
X34154D02*
D03*
X32185D02*
D03*
X30217D02*
D03*
X28248D02*
D03*
X26280D02*
D03*
X24311D02*
D03*
X22343D02*
D03*
X20374D02*
D03*
D100*
X52854Y63760D02*
D03*
Y65728D02*
D03*
Y67697D02*
D03*
Y69665D02*
D03*
Y71634D02*
D03*
Y73602D02*
D03*
Y75571D02*
D03*
Y77539D02*
D03*
Y79508D02*
D03*
Y81476D02*
D03*
Y83445D02*
D03*
Y85413D02*
D03*
Y87382D02*
D03*
Y89350D02*
D03*
Y91319D02*
D03*
Y93287D02*
D03*
X17421D02*
D03*
Y91319D02*
D03*
Y89350D02*
D03*
Y87382D02*
D03*
Y85413D02*
D03*
Y83445D02*
D03*
Y81476D02*
D03*
Y79508D02*
D03*
Y77539D02*
D03*
Y75571D02*
D03*
Y73602D02*
D03*
Y71634D02*
D03*
Y69665D02*
D03*
Y67697D02*
D03*
Y65728D02*
D03*
Y63760D02*
D03*
D101*
X35138Y78524D02*
D03*
D102*
X121457Y137087D02*
D03*
X126969D02*
D03*
D103*
X188976Y132953D02*
D03*
X205906D02*
D03*
Y134921D02*
D03*
Y136890D02*
D03*
X188976Y134921D02*
D03*
Y136890D02*
D03*
Y138858D02*
D03*
Y140827D02*
D03*
X205906Y138858D02*
D03*
Y140827D02*
D03*
X207776Y18570D02*
D03*
Y16601D02*
D03*
X190847Y18570D02*
D03*
Y16601D02*
D03*
Y14633D02*
D03*
Y12664D02*
D03*
X207776Y14633D02*
D03*
Y12664D02*
D03*
Y10695D02*
D03*
X190847D02*
D03*
D104*
X61024Y61398D02*
D03*
Y66909D02*
D03*
X66535Y61398D02*
D03*
Y66909D02*
D03*
D105*
X34882Y31083D02*
D03*
Y28524D02*
D03*
X24567Y33642D02*
D03*
Y31083D02*
D03*
Y28524D02*
D03*
Y25965D02*
D03*
X34882D02*
D03*
Y33642D02*
D03*
X18642Y107461D02*
D03*
Y104902D02*
D03*
X8327Y110020D02*
D03*
Y107461D02*
D03*
Y104902D02*
D03*
Y102342D02*
D03*
X18642D02*
D03*
Y110020D02*
D03*
Y120059D02*
D03*
Y117500D02*
D03*
X8327Y122618D02*
D03*
Y120059D02*
D03*
Y117500D02*
D03*
Y114941D02*
D03*
X18642D02*
D03*
Y122618D02*
D03*
D106*
X80589Y45945D02*
D03*
X102243D02*
D03*
X169369Y14055D02*
D03*
X147715D02*
D03*
X80393Y94370D02*
D03*
X102046D02*
D03*
X169172Y62480D02*
D03*
X147519D02*
D03*
X80294Y144665D02*
D03*
X101948D02*
D03*
X169074Y112776D02*
D03*
X147420D02*
D03*
D107*
X91416Y12087D02*
D03*
X158542Y47913D02*
D03*
X91219Y60512D02*
D03*
X158345Y96339D02*
D03*
X91121Y110807D02*
D03*
X158247Y146634D02*
D03*
D108*
X30413Y42697D02*
D03*
Y44665D02*
D03*
Y46634D02*
D03*
Y48602D02*
D03*
X18602D02*
D03*
Y46634D02*
D03*
Y44665D02*
D03*
Y42697D02*
D03*
D109*
X24508Y45650D02*
D03*
D110*
X27264Y10512D02*
D03*
X69390D02*
D03*
D111*
X65059Y19173D02*
D03*
X63090D02*
D03*
X61122D02*
D03*
X59153D02*
D03*
X57185D02*
D03*
X55216D02*
D03*
X53248D02*
D03*
X51279D02*
D03*
X31594D02*
D03*
X33563D02*
D03*
X35531D02*
D03*
X37500D02*
D03*
X39469D02*
D03*
X41437D02*
D03*
X43406D02*
D03*
X45374D02*
D03*
X47343D02*
D03*
X49311D02*
D03*
D112*
X61122Y86890D02*
D03*
Y93583D02*
D03*
X66634D02*
D03*
Y86890D02*
D03*
D113*
X212638Y43957D02*
D03*
Y48957D02*
D03*
Y53957D02*
D03*
Y58957D02*
D03*
Y63957D02*
D03*
Y68957D02*
D03*
Y73957D02*
D03*
Y78957D02*
D03*
Y83957D02*
D03*
Y88957D02*
D03*
Y93957D02*
D03*
Y98957D02*
D03*
Y103957D02*
D03*
Y108957D02*
D03*
Y113957D02*
D03*
X206496D02*
D03*
Y108957D02*
D03*
Y103957D02*
D03*
Y98957D02*
D03*
Y93957D02*
D03*
Y88957D02*
D03*
Y83957D02*
D03*
Y78957D02*
D03*
Y73957D02*
D03*
Y68957D02*
D03*
Y63957D02*
D03*
Y58957D02*
D03*
Y53957D02*
D03*
Y48957D02*
D03*
Y43957D02*
D03*
D114*
X38386Y43780D02*
D03*
X42323D02*
D03*
X38386Y48307D02*
D03*
X42323D02*
D03*
X28248Y53819D02*
D03*
X24311D02*
D03*
X42323Y52835D02*
D03*
X38386D02*
D03*
X65847Y77441D02*
D03*
X61910D02*
D03*
Y98504D02*
D03*
X65847D02*
D03*
X61910Y81968D02*
D03*
X65847D02*
D03*
X62205Y24882D02*
D03*
X66142D02*
D03*
X7972Y127441D02*
D03*
X11909D02*
D03*
X32972Y38071D02*
D03*
X29035D02*
D03*
X8071Y97323D02*
D03*
X12008D02*
D03*
X61910Y72618D02*
D03*
X65847D02*
D03*
X15473Y28425D02*
D03*
X19410D02*
D03*
X197343Y145945D02*
D03*
X201279D02*
D03*
X186417D02*
D03*
X190354D02*
D03*
X202756Y22421D02*
D03*
X206693D02*
D03*
X195768D02*
D03*
X191831D02*
D03*
D115*
X12205Y50768D02*
D03*
Y46831D02*
D03*
X31201Y116122D02*
D03*
Y120059D02*
D03*
X35531D02*
D03*
Y116122D02*
D03*
X12205Y56968D02*
D03*
Y60905D02*
D03*
X7382Y45847D02*
D03*
Y49784D02*
D03*
X12224Y40945D02*
D03*
Y37008D02*
D03*
X7382Y81083D02*
D03*
Y77146D02*
D03*
X7382Y60905D02*
D03*
Y56968D02*
D03*
X7402Y40945D02*
D03*
Y37008D02*
D03*
X7382Y67106D02*
D03*
Y71043D02*
D03*
Y91614D02*
D03*
Y87677D02*
D03*
X31201Y106280D02*
D03*
Y110216D02*
D03*
X35138Y110236D02*
D03*
Y106299D02*
D03*
X27165Y111398D02*
D03*
Y107461D02*
D03*
X24114Y116614D02*
D03*
Y120551D02*
D03*
X128445Y147126D02*
D03*
Y143189D02*
D03*
X129134Y13268D02*
D03*
Y17205D02*
D03*
X120079Y147126D02*
D03*
Y143189D02*
D03*
X124311Y147126D02*
D03*
Y143189D02*
D03*
X120669Y17205D02*
D03*
Y13268D02*
D03*
X124902Y17205D02*
D03*
Y13268D02*
D03*
D116*
X22933Y126457D02*
D03*
Y91024D02*
D03*
Y37874D02*
D03*
Y73307D02*
D03*
D117*
X224370Y142461D02*
D03*
Y14902D02*
D03*
X31457Y142461D02*
D03*
D118*
X12303Y12284D02*
D03*
Y145079D02*
D03*
X243524D02*
D03*
Y12284D02*
D03*
D119*
X223701Y124193D02*
D03*
Y33720D02*
D03*
X232598D02*
D03*
Y124193D02*
D03*
M02*
