G04 Layer_Physical_Order=10*
G04 Layer_Color=16711680*
%FSLAX25Y25*%
%MOIN*%
G70*
G01*
G75*
%ADD12R,0.04331X0.03937*%
%ADD28R,0.02362X0.02362*%
%ADD29R,0.02362X0.02362*%
%ADD30C,0.01969*%
%ADD31C,0.00787*%
%ADD33C,0.00984*%
%ADD35R,2.31693X0.07992*%
%ADD39C,0.04685*%
%ADD40C,0.11811*%
%ADD41C,0.23622*%
%ADD42C,0.05906*%
%ADD43C,0.03150*%
%ADD44C,0.02362*%
%ADD45C,0.03543*%
%ADD46R,0.06201X1.32795*%
%ADD47R,2.31693X0.05315*%
%ADD48R,0.16535X0.27461*%
%ADD49R,0.27461X0.16535*%
%ADD50R,0.06594X0.15354*%
%ADD51R,0.06594X0.21949*%
%ADD52R,0.05020X0.03347*%
%ADD53R,0.03346X0.05020*%
%ADD71C,0.01575*%
%ADD72R,0.05709X0.06890*%
G04:AMPARAMS|DCode=73|XSize=9.84mil|YSize=31.5mil|CornerRadius=2.46mil|HoleSize=0mil|Usage=FLASHONLY|Rotation=0.000|XOffset=0mil|YOffset=0mil|HoleType=Round|Shape=RoundedRectangle|*
%AMROUNDEDRECTD73*
21,1,0.00984,0.02658,0,0,0.0*
21,1,0.00492,0.03150,0,0,0.0*
1,1,0.00492,0.00246,-0.01329*
1,1,0.00492,-0.00246,-0.01329*
1,1,0.00492,-0.00246,0.01329*
1,1,0.00492,0.00246,0.01329*
%
%ADD73ROUNDEDRECTD73*%
G04:AMPARAMS|DCode=74|XSize=15.75mil|YSize=43.31mil|CornerRadius=3.94mil|HoleSize=0mil|Usage=FLASHONLY|Rotation=180.000|XOffset=0mil|YOffset=0mil|HoleType=Round|Shape=RoundedRectangle|*
%AMROUNDEDRECTD74*
21,1,0.01575,0.03543,0,0,180.0*
21,1,0.00787,0.04331,0,0,180.0*
1,1,0.00787,-0.00394,0.01772*
1,1,0.00787,0.00394,0.01772*
1,1,0.00787,0.00394,-0.01772*
1,1,0.00787,-0.00394,-0.01772*
%
%ADD74ROUNDEDRECTD74*%
G04:AMPARAMS|DCode=75|XSize=17.72mil|YSize=35.43mil|CornerRadius=4.43mil|HoleSize=0mil|Usage=FLASHONLY|Rotation=180.000|XOffset=0mil|YOffset=0mil|HoleType=Round|Shape=RoundedRectangle|*
%AMROUNDEDRECTD75*
21,1,0.01772,0.02658,0,0,180.0*
21,1,0.00886,0.03543,0,0,180.0*
1,1,0.00886,-0.00443,0.01329*
1,1,0.00886,0.00443,0.01329*
1,1,0.00886,0.00443,-0.01329*
1,1,0.00886,-0.00443,-0.01329*
%
%ADD75ROUNDEDRECTD75*%
%ADD76R,0.09449X0.06693*%
%ADD77R,0.13976X0.02402*%
%ADD78R,0.03937X0.04331*%
%ADD79R,0.06693X0.04331*%
%ADD80R,0.04331X0.06693*%
%ADD81R,0.03150X0.03150*%
%ADD82R,0.04331X0.07874*%
%ADD83R,0.18898X0.18701*%
%ADD84R,0.05512X0.05000*%
%ADD85R,0.08465X0.04724*%
G04:AMPARAMS|DCode=86|XSize=13.78mil|YSize=31.5mil|CornerRadius=3.45mil|HoleSize=0mil|Usage=FLASHONLY|Rotation=0.000|XOffset=0mil|YOffset=0mil|HoleType=Round|Shape=RoundedRectangle|*
%AMROUNDEDRECTD86*
21,1,0.01378,0.02461,0,0,0.0*
21,1,0.00689,0.03150,0,0,0.0*
1,1,0.00689,0.00345,-0.01230*
1,1,0.00689,-0.00345,-0.01230*
1,1,0.00689,-0.00345,0.01230*
1,1,0.00689,0.00345,0.01230*
%
%ADD86ROUNDEDRECTD86*%
%ADD87R,0.08661X0.02559*%
G04:AMPARAMS|DCode=88|XSize=11.81mil|YSize=43.31mil|CornerRadius=2.95mil|HoleSize=0mil|Usage=FLASHONLY|Rotation=180.000|XOffset=0mil|YOffset=0mil|HoleType=Round|Shape=RoundedRectangle|*
%AMROUNDEDRECTD88*
21,1,0.01181,0.03740,0,0,180.0*
21,1,0.00591,0.04331,0,0,180.0*
1,1,0.00591,-0.00295,0.01870*
1,1,0.00591,0.00295,0.01870*
1,1,0.00591,0.00295,-0.01870*
1,1,0.00591,-0.00295,-0.01870*
%
%ADD88ROUNDEDRECTD88*%
%ADD89R,0.03937X0.07087*%
%ADD90R,0.03150X0.04724*%
%ADD91R,0.02756X0.03543*%
%ADD92R,0.04134X0.02362*%
G04:AMPARAMS|DCode=93|XSize=15.75mil|YSize=43.31mil|CornerRadius=3.94mil|HoleSize=0mil|Usage=FLASHONLY|Rotation=90.000|XOffset=0mil|YOffset=0mil|HoleType=Round|Shape=RoundedRectangle|*
%AMROUNDEDRECTD93*
21,1,0.01575,0.03543,0,0,90.0*
21,1,0.00787,0.04331,0,0,90.0*
1,1,0.00787,0.01772,0.00394*
1,1,0.00787,0.01772,-0.00394*
1,1,0.00787,-0.01772,-0.00394*
1,1,0.00787,-0.01772,0.00394*
%
%ADD93ROUNDEDRECTD93*%
%ADD94R,2.31693X0.07756*%
%ADD95R,0.08957X1.32795*%
D12*
X246850Y128917D02*
D03*
X240158D02*
D03*
D28*
X167717Y20276D02*
D03*
X163779D02*
D03*
X175591D02*
D03*
X171653D02*
D03*
X150020Y89446D02*
D03*
X153957D02*
D03*
X175394Y68701D02*
D03*
X171457D02*
D03*
X25886Y81870D02*
D03*
X29823D02*
D03*
X22244D02*
D03*
X18307D02*
D03*
X207776Y89095D02*
D03*
X211713D02*
D03*
X241929Y36496D02*
D03*
X245866D02*
D03*
Y32559D02*
D03*
X241929D02*
D03*
X163484Y118996D02*
D03*
X167421D02*
D03*
X167520Y68701D02*
D03*
X163583D02*
D03*
X163779Y139764D02*
D03*
X159843D02*
D03*
X159921Y89547D02*
D03*
X163858D02*
D03*
X164055Y41122D02*
D03*
X160118D02*
D03*
X231201Y90039D02*
D03*
X235138D02*
D03*
X93504Y148504D02*
D03*
X89567D02*
D03*
X89665Y98209D02*
D03*
X93602D02*
D03*
X93799Y49784D02*
D03*
X89862D02*
D03*
X171358Y118996D02*
D03*
X175295D02*
D03*
X153858Y139741D02*
D03*
X149921D02*
D03*
X150216Y41021D02*
D03*
X154154D02*
D03*
X36516Y30394D02*
D03*
X40453D02*
D03*
X27559Y30413D02*
D03*
X23622D02*
D03*
X242618Y122323D02*
D03*
X238681D02*
D03*
D29*
X97464Y60748D02*
D03*
Y64685D02*
D03*
X145450Y64646D02*
D03*
Y60709D02*
D03*
X141119D02*
D03*
Y64646D02*
D03*
X106791Y114961D02*
D03*
Y111024D02*
D03*
X106890Y60728D02*
D03*
Y64665D02*
D03*
X107087Y16240D02*
D03*
Y12303D02*
D03*
X247638Y82559D02*
D03*
Y78622D02*
D03*
X243307D02*
D03*
Y82559D02*
D03*
X238976D02*
D03*
Y78622D02*
D03*
X94072Y124488D02*
D03*
Y120551D02*
D03*
X94367Y70256D02*
D03*
Y74193D02*
D03*
Y25768D02*
D03*
Y21831D02*
D03*
X94072Y139646D02*
D03*
Y143583D02*
D03*
X94269Y93287D02*
D03*
Y89350D02*
D03*
X94367Y40925D02*
D03*
Y44862D02*
D03*
X94095Y133957D02*
D03*
Y130020D02*
D03*
X94193Y79724D02*
D03*
Y83661D02*
D03*
X94390Y35236D02*
D03*
Y31299D02*
D03*
X89249Y139646D02*
D03*
Y143583D02*
D03*
X89446Y93287D02*
D03*
Y89350D02*
D03*
X90135Y40925D02*
D03*
Y44862D02*
D03*
X101794Y114980D02*
D03*
Y111043D02*
D03*
X101893Y60748D02*
D03*
Y64685D02*
D03*
X102090Y16260D02*
D03*
Y12323D02*
D03*
X48819Y142008D02*
D03*
Y145945D02*
D03*
X48917Y95256D02*
D03*
Y91319D02*
D03*
X49114Y43681D02*
D03*
Y47618D02*
D03*
X68284Y128622D02*
D03*
Y132559D02*
D03*
X68383Y82264D02*
D03*
Y78327D02*
D03*
X68580Y29902D02*
D03*
Y33839D02*
D03*
X84721Y124488D02*
D03*
Y120551D02*
D03*
X84820Y70256D02*
D03*
Y74193D02*
D03*
X85017Y25768D02*
D03*
Y21831D02*
D03*
X72601Y111102D02*
D03*
Y115039D02*
D03*
X72699Y64744D02*
D03*
Y60807D02*
D03*
X72896Y12382D02*
D03*
Y16319D02*
D03*
X154631Y114941D02*
D03*
Y111004D02*
D03*
X154730Y60709D02*
D03*
Y64646D02*
D03*
X154927Y16220D02*
D03*
Y12284D02*
D03*
X164460Y114941D02*
D03*
Y111004D02*
D03*
X164558Y60709D02*
D03*
Y64646D02*
D03*
X164755Y16220D02*
D03*
Y12284D02*
D03*
X159496Y111004D02*
D03*
Y114941D02*
D03*
X159595Y64646D02*
D03*
Y60709D02*
D03*
X159792Y12284D02*
D03*
Y16220D02*
D03*
X173796Y114941D02*
D03*
Y111004D02*
D03*
X173895Y60709D02*
D03*
Y64646D02*
D03*
X174091Y16220D02*
D03*
Y12284D02*
D03*
X145351Y114941D02*
D03*
Y111004D02*
D03*
X145647Y12284D02*
D03*
Y16220D02*
D03*
X180020Y127638D02*
D03*
Y131575D02*
D03*
X180118Y81279D02*
D03*
Y77342D02*
D03*
X180315Y28917D02*
D03*
Y32854D02*
D03*
X87519Y111102D02*
D03*
Y115039D02*
D03*
X87618Y64744D02*
D03*
Y60807D02*
D03*
X87815Y12382D02*
D03*
Y16319D02*
D03*
X82514Y111102D02*
D03*
Y115039D02*
D03*
X82612Y64744D02*
D03*
Y60807D02*
D03*
X82809Y12382D02*
D03*
Y16319D02*
D03*
X200000Y115335D02*
D03*
Y111398D02*
D03*
X200098Y61102D02*
D03*
Y65039D02*
D03*
X200295Y16614D02*
D03*
Y12677D02*
D03*
X97365Y114980D02*
D03*
Y111043D02*
D03*
X97660Y12323D02*
D03*
Y16260D02*
D03*
X141021Y114941D02*
D03*
Y111004D02*
D03*
X141316Y12284D02*
D03*
Y16220D02*
D03*
X89643Y120551D02*
D03*
Y124488D02*
D03*
X89741Y74193D02*
D03*
Y70256D02*
D03*
X90135Y21831D02*
D03*
Y25768D02*
D03*
X48819Y111398D02*
D03*
Y115335D02*
D03*
X48917Y65039D02*
D03*
Y61102D02*
D03*
X49114Y12677D02*
D03*
Y16614D02*
D03*
X48819Y125538D02*
D03*
Y121601D02*
D03*
X48917Y71306D02*
D03*
Y75243D02*
D03*
X49114Y26818D02*
D03*
Y22881D02*
D03*
X89839Y130098D02*
D03*
Y134035D02*
D03*
X89938Y83740D02*
D03*
Y79803D02*
D03*
X90135Y31378D02*
D03*
Y35315D02*
D03*
X48819Y135741D02*
D03*
Y131805D02*
D03*
X48917Y80919D02*
D03*
Y84856D02*
D03*
X49114Y36824D02*
D03*
Y32887D02*
D03*
X92525Y111102D02*
D03*
Y115039D02*
D03*
X92624Y64744D02*
D03*
Y60807D02*
D03*
X92820Y12382D02*
D03*
Y16319D02*
D03*
X84842Y133937D02*
D03*
Y130000D02*
D03*
X84842Y79705D02*
D03*
Y83642D02*
D03*
X85039Y35217D02*
D03*
Y31280D02*
D03*
X200000Y145945D02*
D03*
Y142008D02*
D03*
X200098Y91713D02*
D03*
Y95650D02*
D03*
X200295Y47224D02*
D03*
Y43287D02*
D03*
X77508Y115039D02*
D03*
Y111102D02*
D03*
X77607Y60807D02*
D03*
Y64744D02*
D03*
X77803Y16319D02*
D03*
Y12382D02*
D03*
X149963Y114941D02*
D03*
Y111004D02*
D03*
X150062Y60709D02*
D03*
Y64646D02*
D03*
X150259Y16220D02*
D03*
Y12284D02*
D03*
X169030Y114941D02*
D03*
Y111004D02*
D03*
X169128Y60709D02*
D03*
Y64646D02*
D03*
X169325Y16220D02*
D03*
Y12284D02*
D03*
X200000Y135741D02*
D03*
Y131805D02*
D03*
X200098Y82198D02*
D03*
Y86135D02*
D03*
X200295Y37021D02*
D03*
Y33084D02*
D03*
X156322Y131417D02*
D03*
Y135354D02*
D03*
X156420Y85059D02*
D03*
Y81122D02*
D03*
X156617Y32697D02*
D03*
Y36634D02*
D03*
X200000Y121601D02*
D03*
Y125538D02*
D03*
X200098Y74554D02*
D03*
Y70617D02*
D03*
X200295Y22881D02*
D03*
Y26818D02*
D03*
X246555Y112579D02*
D03*
Y108642D02*
D03*
Y102736D02*
D03*
Y98799D02*
D03*
X223524Y107362D02*
D03*
Y111299D02*
D03*
X215945Y31476D02*
D03*
Y35413D02*
D03*
D30*
X65059Y39941D02*
X68875D01*
D31*
X191884Y23675D02*
Y28327D01*
X191024Y22815D02*
X191884Y23675D01*
X189370Y22815D02*
X191024D01*
X189325Y22861D02*
Y28327D01*
X191687Y72100D02*
Y76752D01*
X190827Y71240D02*
X191687Y72100D01*
X189173Y71240D02*
X190827D01*
X107677Y75965D02*
X107874Y76161D01*
X107972Y27638D02*
X108071Y27736D01*
X60039Y140433D02*
Y145354D01*
X56693Y140630D02*
X57480Y141417D01*
X55118Y140630D02*
X56693D01*
X54921Y140433D02*
X55118Y140630D01*
X60039Y129606D02*
Y135118D01*
X56595Y135118D02*
X57480Y134232D01*
X54921Y135118D02*
X56595D01*
X57480Y129606D02*
Y134232D01*
Y141417D02*
Y145354D01*
X73599Y133839D02*
X77362D01*
X73501Y119665D02*
X75469D01*
X192323Y117205D02*
X193799D01*
X191588Y116470D02*
X192323Y117205D01*
X191588Y111299D02*
Y116470D01*
Y122270D02*
Y127047D01*
X192323Y121535D02*
X193799D01*
X191588Y122270D02*
X192323Y121535D01*
X189029Y121581D02*
Y127047D01*
X60138Y79311D02*
Y84823D01*
X56693Y84823D02*
X57579Y83937D01*
X55020Y84823D02*
X56693D01*
X57579Y79311D02*
Y83937D01*
X60138Y90138D02*
Y95059D01*
X57579Y91122D02*
Y95059D01*
X56595Y90138D02*
X57579Y91122D01*
X55020Y90138D02*
X56595D01*
X73698Y83543D02*
X77362D01*
X73599Y69370D02*
X75568D01*
X192421Y66909D02*
X193898D01*
X191687Y66175D02*
X192421Y66909D01*
X191687Y61004D02*
Y66175D01*
X189128Y61004D02*
Y66864D01*
Y71286D02*
Y76752D01*
X189029Y111299D02*
Y117159D01*
X31594Y49685D02*
X36929D01*
Y45748D02*
X42224D01*
X36929Y49685D02*
X39075D01*
X41043D01*
X35138Y45748D02*
X36929D01*
X8937Y65433D02*
X12303D01*
X8937Y61496D02*
X12008D01*
X11909Y61594D02*
X12008Y61496D01*
X8937Y57559D02*
X8957D01*
X5315Y53622D02*
X8937D01*
Y69370D02*
X13878D01*
X8937Y73307D02*
X11909D01*
X34547Y53622D02*
X36929D01*
X229823Y97323D02*
Y101063D01*
X227854Y93583D02*
Y97323D01*
X231791Y93583D02*
Y97323D01*
X233760D02*
Y101063D01*
X235728Y93583D02*
Y97323D01*
X237697D02*
Y101063D01*
X239665Y93681D02*
Y97323D01*
X241634D02*
Y101063D01*
X229823Y114547D02*
Y118287D01*
X235728Y111004D02*
Y114547D01*
X237697D02*
Y118287D01*
X239665Y110906D02*
Y114547D01*
X241634Y114547D02*
Y118287D01*
X60335Y30886D02*
Y36398D01*
Y41713D02*
Y46634D01*
X189325Y12579D02*
Y18439D01*
X73796Y20945D02*
X75765D01*
X73799Y35118D02*
X77733D01*
X55216Y41713D02*
X56791D01*
X57776Y42697D01*
Y46634D01*
X55216Y36398D02*
X56890D01*
X57776Y35512D01*
Y30886D02*
Y35512D01*
X191884Y12579D02*
Y17750D01*
X192618Y18484D01*
X194095D01*
X147244Y35709D02*
Y37992D01*
X164665Y24803D02*
Y30121D01*
X167224Y24803D02*
Y29429D01*
X169783Y24803D02*
Y29429D01*
X149803Y35709D02*
Y40551D01*
X116831Y16240D02*
X122047D01*
X126969Y18799D02*
X132579D01*
X116831Y11122D02*
X122047D01*
X125197D02*
X132579D01*
X112795Y13681D02*
X116831D01*
X132579Y16240D02*
X136614D01*
X128051Y13681D02*
X132579D01*
X77733Y16699D02*
Y22126D01*
X164665Y35728D02*
Y36614D01*
Y40650D01*
X107283Y16240D02*
X110531D01*
X113091Y18799D01*
X116831D01*
X141316Y12284D02*
X145647D01*
X167224Y36614D02*
Y39173D01*
X169783Y36614D02*
Y40945D01*
X156617Y36614D02*
X162106D01*
X79406Y31769D02*
Y33937D01*
X76749Y29111D02*
X79406Y31769D01*
X73130Y34449D02*
X73799Y35118D01*
X132874Y64665D02*
X136909D01*
X125492Y59547D02*
X132874D01*
X117126D02*
X122343D01*
X117126Y64665D02*
X122343D01*
X113091Y62106D02*
X117126D01*
X128347D02*
X132874D01*
X141119Y60709D02*
X145450D01*
X158957Y24803D02*
X162106D01*
X156440Y85039D02*
X161909D01*
X164469D02*
Y88937D01*
X163858Y89547D02*
X164469Y88937D01*
X167028Y85039D02*
Y87795D01*
X169587Y85039D02*
Y89567D01*
X169685Y89665D01*
X149508Y134429D02*
Y139328D01*
X164370Y135335D02*
Y139233D01*
X156342Y135335D02*
X161811D01*
X166929D02*
Y138287D01*
X169488Y135335D02*
Y140059D01*
X164370Y123524D02*
Y128839D01*
X166929Y123524D02*
Y128150D01*
X169488Y123524D02*
Y127461D01*
X149606Y84134D02*
Y89032D01*
X144685Y35709D02*
Y38878D01*
X146358D01*
X147244Y37992D01*
X141021Y111004D02*
X145351D01*
X132480Y114961D02*
X136516D01*
X112697Y112402D02*
X116732D01*
X125098Y109843D02*
X132480D01*
X116732D02*
X121949D01*
X116732Y114961D02*
X121949D01*
X77536Y65124D02*
Y70551D01*
X164469Y73228D02*
Y77854D01*
X167028Y73228D02*
Y77854D01*
X169587Y73228D02*
Y77559D01*
X127953Y112402D02*
X132480D01*
X127264Y67224D02*
X132874D01*
X126870Y117520D02*
X132480D01*
X110630D02*
X116732D01*
X77438Y115419D02*
Y120846D01*
X159252Y73228D02*
X161909D01*
X158268Y123524D02*
X158661D01*
X161811D01*
X106890Y64665D02*
Y66732D01*
X107382Y67224D01*
X110433D01*
X117126D01*
X106791Y114961D02*
Y116831D01*
X107480Y117520D01*
X110630D01*
D33*
X105512Y25197D02*
Y27736D01*
X144488Y83150D02*
Y87303D01*
X105315Y73622D02*
Y76161D01*
X102756Y74016D02*
Y76161D01*
X104823Y73130D02*
X105315Y73622D01*
X102756Y73130D02*
X104823D01*
X102953Y24606D02*
Y27736D01*
X104921Y24606D02*
X105512Y25197D01*
X102756Y24606D02*
X104921D01*
X102657Y124114D02*
Y126457D01*
X105217Y123721D02*
Y126457D01*
X104724Y123228D02*
X105217Y123721D01*
X102657Y123228D02*
X104724D01*
X102657Y124114D02*
X103248Y123524D01*
X144488Y87303D02*
X146358D01*
X147047Y83445D02*
X147343Y83150D01*
X147047Y83445D02*
Y86614D01*
X146358Y87303D02*
X147047Y86614D01*
X146949Y133740D02*
X147244Y133445D01*
X146949Y133740D02*
Y137205D01*
X146555Y137598D02*
X146949Y137205D01*
X144390Y133740D02*
X144685Y133445D01*
X144390Y133740D02*
Y137598D01*
X146555D01*
D35*
X127854Y156929D02*
D03*
D39*
X22933Y126457D02*
D03*
Y91024D02*
D03*
Y37874D02*
D03*
Y73307D02*
D03*
D40*
X224370Y142461D02*
D03*
Y14902D02*
D03*
X31457Y142461D02*
D03*
D41*
X12303Y12284D02*
D03*
Y145079D02*
D03*
X243524D02*
D03*
Y12284D02*
D03*
D42*
X223701Y124193D02*
D03*
Y33720D02*
D03*
X232598D02*
D03*
Y124193D02*
D03*
D43*
X111024Y129528D02*
D03*
X138287Y72441D02*
D03*
X111024Y72244D02*
D03*
X107874Y53839D02*
D03*
X109843Y103819D02*
D03*
X223228Y87185D02*
D03*
X253150Y24882D02*
D03*
X2559Y132953D02*
D03*
X2657Y24685D02*
D03*
X229724Y154705D02*
D03*
X253248Y125472D02*
D03*
X224311Y2539D02*
D03*
X23228D02*
D03*
X27756Y22520D02*
D03*
X35630Y9035D02*
D03*
X232087Y104232D02*
D03*
X214075Y141220D02*
D03*
X204823Y7382D02*
D03*
X191240Y7461D02*
D03*
X57579Y137972D02*
D03*
X68740Y101850D02*
D03*
X111909Y139941D02*
D03*
X137008D02*
D03*
X112008Y89055D02*
D03*
X112205Y41221D02*
D03*
X137303D02*
D03*
Y23898D02*
D03*
X112205Y27835D02*
D03*
Y23701D02*
D03*
X232972Y62776D02*
D03*
X237795Y68484D02*
D03*
Y73012D02*
D03*
X232972Y68484D02*
D03*
X57087Y116909D02*
D03*
X237795Y62776D02*
D03*
X214075Y150276D02*
D03*
Y145945D02*
D03*
X137106Y88957D02*
D03*
X212795Y10709D02*
D03*
X52854Y116909D02*
D03*
X75197Y56575D02*
D03*
X23524Y105000D02*
D03*
X26772Y154705D02*
D03*
X235138Y43287D02*
D03*
X247146Y122323D02*
D03*
X39173Y136890D02*
D03*
X158366Y54429D02*
D03*
X51968Y40039D02*
D03*
X137500Y103819D02*
D03*
X52165Y137874D02*
D03*
X70374Y56575D02*
D03*
X66437D02*
D03*
X65059Y39941D02*
D03*
X71752Y149980D02*
D03*
X85925Y103819D02*
D03*
X51181Y101654D02*
D03*
X230610Y108661D02*
D03*
X214075Y135433D02*
D03*
X55512Y101654D02*
D03*
X58169Y106988D02*
D03*
X80709Y103819D02*
D03*
X10039Y84252D02*
D03*
X12106Y78543D02*
D03*
X23524Y110531D02*
D03*
X65256Y46634D02*
D03*
X11122Y31693D02*
D03*
X7087D02*
D03*
X180020Y58760D02*
D03*
X181398Y9646D02*
D03*
X179331Y109153D02*
D03*
X137303Y76279D02*
D03*
X111811Y76476D02*
D03*
X138287Y122638D02*
D03*
Y126673D02*
D03*
X111024Y122638D02*
D03*
X137303Y27854D02*
D03*
X52461Y7972D02*
D03*
X57776D02*
D03*
X63681D02*
D03*
X175492Y24606D02*
D03*
Y29528D02*
D03*
X175295Y73622D02*
D03*
Y79035D02*
D03*
X175098Y123031D02*
D03*
Y128445D02*
D03*
X102953Y53937D02*
D03*
X145551Y102165D02*
D03*
X138091Y34843D02*
D03*
X184646Y82185D02*
D03*
X137402Y133465D02*
D03*
X210335Y7382D02*
D03*
D44*
X145669Y125787D02*
D03*
X142224Y128051D02*
D03*
X149213Y127854D02*
D03*
X200295Y37021D02*
D03*
X154631Y111004D02*
D03*
Y114941D02*
D03*
X108071Y126476D02*
D03*
X99803Y126654D02*
D03*
X99902Y76457D02*
D03*
X100098Y27736D02*
D03*
X206398Y138793D02*
D03*
X215945Y35413D02*
D03*
Y31476D02*
D03*
X245866Y36496D02*
D03*
X241929D02*
D03*
X217520Y51653D02*
D03*
X227264Y115532D02*
D03*
X60236Y140728D02*
D03*
X39961Y94961D02*
D03*
X34154Y91024D02*
D03*
X11024Y126358D02*
D03*
X6398Y122520D02*
D03*
X39961Y126457D02*
D03*
X34154Y122520D02*
D03*
X39961Y118583D02*
D03*
X34154Y114646D02*
D03*
X39961Y110709D02*
D03*
X34154Y106772D02*
D03*
X39961Y102835D02*
D03*
X34154Y98898D02*
D03*
X6398Y91024D02*
D03*
X11024Y94961D02*
D03*
X6398Y98898D02*
D03*
X11024Y102835D02*
D03*
X6398Y106772D02*
D03*
X11024Y110709D02*
D03*
X6398Y114646D02*
D03*
X11024Y118583D02*
D03*
X63090Y94961D02*
D03*
X68678Y95059D02*
D03*
X75787Y144764D02*
D03*
X62992Y145354D02*
D03*
X60039Y135118D02*
D03*
X54921D02*
D03*
Y140728D02*
D03*
X76476Y124685D02*
D03*
Y128819D02*
D03*
X80020Y132658D02*
D03*
X103937Y134232D02*
D03*
X189075Y121535D02*
D03*
X54528Y145453D02*
D03*
X164460Y111004D02*
D03*
X194587Y111299D02*
D03*
X75273Y138760D02*
D03*
X181080Y146634D02*
D03*
Y139941D02*
D03*
X119685Y144075D02*
D03*
Y135807D02*
D03*
X130020Y123996D02*
D03*
X126870D02*
D03*
X107087Y132559D02*
D03*
X121752Y123996D02*
D03*
X118602D02*
D03*
X100886Y132559D02*
D03*
X56299Y111594D02*
D03*
X190725Y146634D02*
D03*
X140059Y146339D02*
D03*
X129429Y144075D02*
D03*
Y135807D02*
D03*
X80020Y120846D02*
D03*
X84842Y133937D02*
D03*
X99410Y146437D02*
D03*
X110039D02*
D03*
X159496Y114941D02*
D03*
X65650Y111594D02*
D03*
X159496Y111004D02*
D03*
X149963D02*
D03*
Y114941D02*
D03*
X169030Y111004D02*
D03*
X164460Y114941D02*
D03*
X173796D02*
D03*
X169030D02*
D03*
X72933Y120846D02*
D03*
X186024Y111299D02*
D03*
X179777Y113661D02*
D03*
X173796Y111004D02*
D03*
X62992Y129606D02*
D03*
X56299Y122224D02*
D03*
X68580Y145354D02*
D03*
X190725Y136496D02*
D03*
X186024Y127047D02*
D03*
X173895Y138268D02*
D03*
X179777Y120354D02*
D03*
X81867Y138268D02*
D03*
X68580Y138661D02*
D03*
X167323Y146555D02*
D03*
X81965Y145453D02*
D03*
X72933Y132658D02*
D03*
X65650Y122224D02*
D03*
X60138Y84823D02*
D03*
X55020D02*
D03*
X60138Y90138D02*
D03*
X55020D02*
D03*
X76575Y74390D02*
D03*
Y78524D02*
D03*
X80118Y82362D02*
D03*
X104035Y83937D02*
D03*
X189173Y71240D02*
D03*
X54626Y95157D02*
D03*
X194685Y61004D02*
D03*
X75371Y95157D02*
D03*
Y88465D02*
D03*
X181178Y96043D02*
D03*
Y89646D02*
D03*
X119783Y93779D02*
D03*
Y85512D02*
D03*
X130118Y73701D02*
D03*
X126969D02*
D03*
X107185Y82264D02*
D03*
X121850Y73701D02*
D03*
X118701D02*
D03*
X100984Y82264D02*
D03*
X56398Y61299D02*
D03*
X150787Y96043D02*
D03*
X140157D02*
D03*
X129528Y93779D02*
D03*
Y85512D02*
D03*
X80118Y70551D02*
D03*
X99508Y96142D02*
D03*
X110138D02*
D03*
X65748Y61299D02*
D03*
X150062Y60709D02*
D03*
Y64646D02*
D03*
X173895D02*
D03*
X73032Y70551D02*
D03*
X186122Y61004D02*
D03*
X179876Y63366D02*
D03*
X173895Y60709D02*
D03*
X63090Y79311D02*
D03*
X56398Y71929D02*
D03*
X190824Y86201D02*
D03*
X186122Y76752D02*
D03*
X173993Y87972D02*
D03*
X179876Y70059D02*
D03*
X81965Y87972D02*
D03*
X68678Y88366D02*
D03*
X167421Y96043D02*
D03*
X82064Y95157D02*
D03*
X73032Y82362D02*
D03*
X65748Y71929D02*
D03*
X156791Y96043D02*
D03*
X193799Y117205D02*
D03*
X189075D02*
D03*
X193799Y121535D02*
D03*
X193898Y66909D02*
D03*
X189173D02*
D03*
X31594Y49685D02*
D03*
X39075D02*
D03*
X35138Y45748D02*
D03*
Y37874D02*
D03*
X39075Y41811D02*
D03*
X31594D02*
D03*
X7146Y45748D02*
D03*
X11083Y49685D02*
D03*
X14232Y45748D02*
D03*
X3602Y49685D02*
D03*
X7146Y37874D02*
D03*
X11083Y41811D02*
D03*
X14232Y37874D02*
D03*
X3602Y41811D02*
D03*
X12303Y65433D02*
D03*
X12008Y61496D02*
D03*
X8957Y57559D02*
D03*
X5315Y53622D02*
D03*
X13878Y69370D02*
D03*
X11909Y73307D02*
D03*
X35138Y53622D02*
D03*
X31594Y57559D02*
D03*
X35138Y61496D02*
D03*
X31594Y65433D02*
D03*
X35138Y69370D02*
D03*
X31594Y73307D02*
D03*
X40157Y57539D02*
D03*
Y53622D02*
D03*
X208661Y53327D02*
D03*
X224410Y57362D02*
D03*
X208563Y60216D02*
D03*
X208465Y70846D02*
D03*
X208465Y42598D02*
D03*
X224410Y52342D02*
D03*
Y47323D02*
D03*
Y42402D02*
D03*
X245374D02*
D03*
Y47323D02*
D03*
Y52342D02*
D03*
Y57362D02*
D03*
Y67402D02*
D03*
Y72323D02*
D03*
X224410D02*
D03*
Y67402D02*
D03*
Y62382D02*
D03*
X232874Y80492D02*
D03*
X223031Y80590D02*
D03*
X229823Y118287D02*
D03*
X227854Y93583D02*
D03*
X229823Y101063D02*
D03*
X233760D02*
D03*
X235728Y93583D02*
D03*
X231791D02*
D03*
X237697Y101063D02*
D03*
X241634D02*
D03*
X239764Y93583D02*
D03*
X237697Y118287D02*
D03*
X239665Y110906D02*
D03*
X241634Y118287D02*
D03*
X235728Y110906D02*
D03*
X240158Y128917D02*
D03*
X246949D02*
D03*
X231693Y131968D02*
D03*
X225787D02*
D03*
X32283Y23110D02*
D03*
X39764D02*
D03*
X36024Y14153D02*
D03*
X56595Y12874D02*
D03*
X65945D02*
D03*
Y23504D02*
D03*
X56595D02*
D03*
X72896Y16319D02*
D03*
X77803D02*
D03*
Y12382D02*
D03*
X82809D02*
D03*
Y16319D02*
D03*
X87815D02*
D03*
Y12382D02*
D03*
X92820D02*
D03*
Y16319D02*
D03*
X94390Y31299D02*
D03*
X90135Y31378D02*
D03*
Y35315D02*
D03*
X101181Y33839D02*
D03*
X107382D02*
D03*
X104232Y35512D02*
D03*
X76772Y30098D02*
D03*
Y25965D02*
D03*
X68875Y39941D02*
D03*
Y46634D02*
D03*
X75568Y46732D02*
D03*
Y40039D02*
D03*
X82162Y39547D02*
D03*
X82261Y46732D02*
D03*
X118898Y25276D02*
D03*
X122047D02*
D03*
X127165D02*
D03*
X130315D02*
D03*
X145965Y27933D02*
D03*
X149409Y30000D02*
D03*
X142520D02*
D03*
X160118Y41122D02*
D03*
X164055D02*
D03*
X150259Y16220D02*
D03*
Y12284D02*
D03*
X154927D02*
D03*
Y16220D02*
D03*
X159792Y12284D02*
D03*
X164755D02*
D03*
X169325Y16220D02*
D03*
Y12284D02*
D03*
X174091D02*
D03*
Y16220D02*
D03*
X180270Y14941D02*
D03*
Y21634D02*
D03*
X191021Y47913D02*
D03*
Y37776D02*
D03*
X181375Y41221D02*
D03*
Y47913D02*
D03*
X174288Y46732D02*
D03*
X174190Y39547D02*
D03*
X167618Y47618D02*
D03*
X156988D02*
D03*
X150984Y47618D02*
D03*
X140354D02*
D03*
X110335Y47717D02*
D03*
X99705D02*
D03*
X54823Y46732D02*
D03*
X55216Y41713D02*
D03*
Y36398D02*
D03*
X60335D02*
D03*
Y41713D02*
D03*
X63287Y30886D02*
D03*
X194882Y12579D02*
D03*
X186319Y28327D02*
D03*
X189370Y18484D02*
D03*
X194095D02*
D03*
X189370Y22815D02*
D03*
X186319Y12579D02*
D03*
X119980Y45354D02*
D03*
X129724D02*
D03*
Y37087D02*
D03*
X119980D02*
D03*
X80315Y22126D02*
D03*
X73228D02*
D03*
Y33937D02*
D03*
X159792Y16220D02*
D03*
X190824Y96043D02*
D03*
X49114Y12677D02*
D03*
Y16614D02*
D03*
Y22881D02*
D03*
Y26818D02*
D03*
Y32887D02*
D03*
Y36824D02*
D03*
Y43681D02*
D03*
Y47618D02*
D03*
X68580Y29902D02*
D03*
Y33839D02*
D03*
X156617Y32697D02*
D03*
Y36634D02*
D03*
X72896Y12382D02*
D03*
X154154Y41021D02*
D03*
X150216D02*
D03*
X180315Y28917D02*
D03*
Y32854D02*
D03*
X200295Y26818D02*
D03*
Y22881D02*
D03*
Y16614D02*
D03*
Y12677D02*
D03*
Y33084D02*
D03*
Y43287D02*
D03*
Y47224D02*
D03*
X141316Y16220D02*
D03*
X145647D02*
D03*
X85017Y21831D02*
D03*
X90135D02*
D03*
X94367D02*
D03*
Y25768D02*
D03*
X90135D02*
D03*
X85017D02*
D03*
X102090Y16260D02*
D03*
X97660D02*
D03*
X102090Y12323D02*
D03*
X97660D02*
D03*
X85039Y31280D02*
D03*
Y35217D02*
D03*
X90135Y40925D02*
D03*
X94367D02*
D03*
Y44862D02*
D03*
X90135D02*
D03*
X89862Y49784D02*
D03*
X93799D02*
D03*
X48917Y61102D02*
D03*
Y65039D02*
D03*
Y71306D02*
D03*
Y75243D02*
D03*
X68383Y78327D02*
D03*
Y82264D02*
D03*
X48917Y80919D02*
D03*
Y84856D02*
D03*
Y91319D02*
D03*
Y95256D02*
D03*
X89665Y98209D02*
D03*
X93602D02*
D03*
X94269Y93287D02*
D03*
X89446D02*
D03*
Y89350D02*
D03*
X94269D02*
D03*
X84842Y83642D02*
D03*
Y79705D02*
D03*
X89741Y74193D02*
D03*
X94367D02*
D03*
X84820D02*
D03*
Y70256D02*
D03*
X89741D02*
D03*
X94367D02*
D03*
X180118Y77342D02*
D03*
Y81279D02*
D03*
X241929Y32559D02*
D03*
X245866D02*
D03*
X247638Y78622D02*
D03*
X243307D02*
D03*
X238976D02*
D03*
Y82559D02*
D03*
X243307D02*
D03*
X247638D02*
D03*
X235138Y90039D02*
D03*
X231201D02*
D03*
X246555Y98799D02*
D03*
Y102736D02*
D03*
Y108642D02*
D03*
Y112579D02*
D03*
X242618Y122323D02*
D03*
X238681D02*
D03*
X223524Y107362D02*
D03*
Y111299D02*
D03*
X207776Y89095D02*
D03*
X211713D02*
D03*
X200098Y95650D02*
D03*
Y91713D02*
D03*
Y86135D02*
D03*
Y82198D02*
D03*
Y74554D02*
D03*
Y70617D02*
D03*
Y65039D02*
D03*
Y61102D02*
D03*
X48819Y111398D02*
D03*
Y115335D02*
D03*
Y121601D02*
D03*
Y125538D02*
D03*
Y131805D02*
D03*
Y135741D02*
D03*
Y142008D02*
D03*
Y145945D02*
D03*
X68284Y132559D02*
D03*
X200000Y111398D02*
D03*
Y115335D02*
D03*
Y121601D02*
D03*
Y125538D02*
D03*
Y131805D02*
D03*
Y135741D02*
D03*
Y142008D02*
D03*
Y145945D02*
D03*
X180020Y127638D02*
D03*
Y131575D02*
D03*
X94072Y120551D02*
D03*
X89643D02*
D03*
X84721D02*
D03*
Y124488D02*
D03*
X89643D02*
D03*
X94072D02*
D03*
X84842Y130000D02*
D03*
X89249Y139646D02*
D03*
X94072D02*
D03*
Y143583D02*
D03*
X89249D02*
D03*
X89567Y148504D02*
D03*
X93504D02*
D03*
X68284Y128622D02*
D03*
X217913Y98110D02*
D03*
Y101850D02*
D03*
Y94370D02*
D03*
X207283Y101850D02*
D03*
Y94370D02*
D03*
X29823Y81870D02*
D03*
X25886D02*
D03*
X22244D02*
D03*
X18307D02*
D03*
X40453Y30394D02*
D03*
X36516D02*
D03*
X159547Y106201D02*
D03*
X141831Y35728D02*
D03*
X108366Y27756D02*
D03*
X108169Y76279D02*
D03*
X102756Y73130D02*
D03*
X102953Y24606D02*
D03*
X102657Y123228D02*
D03*
X27559Y30413D02*
D03*
X23622D02*
D03*
X141316Y12284D02*
D03*
X94390Y35236D02*
D03*
X107087Y12303D02*
D03*
Y16240D02*
D03*
X126969Y18799D02*
D03*
X122047Y16240D02*
D03*
Y11122D02*
D03*
X125197D02*
D03*
X112795Y13681D02*
D03*
X128051D02*
D03*
X136614Y16240D02*
D03*
X167224Y39469D02*
D03*
X169783Y41339D02*
D03*
X136909Y64665D02*
D03*
X128347Y62106D02*
D03*
X113091D02*
D03*
X125492Y59547D02*
D03*
X122343D02*
D03*
Y64665D02*
D03*
X127264Y67224D02*
D03*
X82612Y60807D02*
D03*
X77607D02*
D03*
Y64744D02*
D03*
X72699Y60807D02*
D03*
X87618Y64744D02*
D03*
X92624D02*
D03*
Y60807D02*
D03*
X87604D02*
D03*
X72685Y64744D02*
D03*
X106876Y60728D02*
D03*
X101879Y60748D02*
D03*
X97450D02*
D03*
Y64685D02*
D03*
X101879D02*
D03*
X94179Y83661D02*
D03*
X89924Y83740D02*
D03*
Y79803D02*
D03*
X94179Y79724D02*
D03*
X145436Y64646D02*
D03*
X141105D02*
D03*
Y60709D02*
D03*
X163779Y20276D02*
D03*
X167717D02*
D03*
X163779Y30709D02*
D03*
X168504D02*
D03*
X158957Y24803D02*
D03*
X171653Y20276D02*
D03*
X175591D02*
D03*
X141535Y84055D02*
D03*
X142520Y77658D02*
D03*
X148819D02*
D03*
X145669Y75394D02*
D03*
X150020Y89446D02*
D03*
X153957D02*
D03*
X159921Y89547D02*
D03*
X163858D02*
D03*
X156420Y85059D02*
D03*
Y81122D02*
D03*
X167028Y87992D02*
D03*
X169587Y89961D02*
D03*
X175394Y68701D02*
D03*
X171457D02*
D03*
X167520D02*
D03*
X163583D02*
D03*
X163760Y139741D02*
D03*
X149921D02*
D03*
X153858D02*
D03*
X159823D02*
D03*
X156322Y135354D02*
D03*
Y131417D02*
D03*
X166929Y138287D02*
D03*
X169488Y140354D02*
D03*
X141437Y134547D02*
D03*
X144390Y137598D02*
D03*
X144685Y38976D02*
D03*
X141021Y111004D02*
D03*
X163484Y118996D02*
D03*
X167421D02*
D03*
X171358D02*
D03*
X175295D02*
D03*
X136516Y114961D02*
D03*
X127953Y112402D02*
D03*
X112697D02*
D03*
X125098Y109843D02*
D03*
X121949D02*
D03*
Y114961D02*
D03*
X126870Y117520D02*
D03*
X106791Y111024D02*
D03*
X101794Y111043D02*
D03*
Y114980D02*
D03*
X97365D02*
D03*
Y111043D02*
D03*
X92525Y111102D02*
D03*
Y115039D02*
D03*
X87519D02*
D03*
X82514Y111102D02*
D03*
X77508D02*
D03*
X72601D02*
D03*
Y115039D02*
D03*
X77508D02*
D03*
X89839Y130098D02*
D03*
X94095Y130020D02*
D03*
Y133957D02*
D03*
X89839Y134035D02*
D03*
X82514Y115039D02*
D03*
X87519Y111102D02*
D03*
X82612Y64744D02*
D03*
X164755Y16220D02*
D03*
X159595Y64646D02*
D03*
X154730D02*
D03*
Y60709D02*
D03*
X159595D02*
D03*
X164558D02*
D03*
Y64646D02*
D03*
X169128D02*
D03*
Y60709D02*
D03*
X144488Y87303D02*
D03*
X168307Y79035D02*
D03*
X168209Y129429D02*
D03*
X163386Y129528D02*
D03*
X156693Y146555D02*
D03*
X150689D02*
D03*
X173993D02*
D03*
X141021Y114941D02*
D03*
X145351D02*
D03*
X158661Y123524D02*
D03*
X163583Y79134D02*
D03*
X158858Y73228D02*
D03*
X110433Y67224D02*
D03*
X110630Y117520D02*
D03*
X174091Y96043D02*
D03*
D45*
X200098Y78425D02*
D03*
X206594Y37087D02*
D03*
X207579Y120650D02*
D03*
X217323Y111496D02*
D03*
X217028Y86496D02*
D03*
X216929Y76457D02*
D03*
X217028Y66417D02*
D03*
X217126Y56575D02*
D03*
X216929Y46437D02*
D03*
D46*
X257037Y78760D02*
D03*
D47*
X128150Y-787D02*
D03*
X127953Y158169D02*
D03*
D48*
X251772Y147097D02*
D03*
X251870Y10285D02*
D03*
X4429Y147097D02*
D03*
X4921Y10285D02*
D03*
D49*
X245620Y152362D02*
D03*
X245522Y4823D02*
D03*
X10187Y152264D02*
D03*
X10285Y4823D02*
D03*
D50*
X-541Y137106D02*
D03*
D51*
X-1230Y22687D02*
D03*
D52*
X230660Y154823D02*
D03*
X25935Y154724D02*
D03*
D53*
X253150Y24065D02*
D03*
X2559Y22687D02*
D03*
X1181Y23770D02*
D03*
X23130Y1526D02*
D03*
D71*
X62894Y46634D02*
X68875D01*
D72*
X76454Y126752D02*
D03*
X76552Y76457D02*
D03*
X76749Y28032D02*
D03*
D73*
X79111Y132658D02*
D03*
X77340D02*
D03*
X75568D02*
D03*
X73796D02*
D03*
Y120846D02*
D03*
X75568D02*
D03*
X77340D02*
D03*
X79111D02*
D03*
X79210Y70551D02*
D03*
X77438D02*
D03*
X75666D02*
D03*
X73895D02*
D03*
Y82362D02*
D03*
X75666D02*
D03*
X77438D02*
D03*
X79210D02*
D03*
X79406Y33937D02*
D03*
X77635D02*
D03*
X75863D02*
D03*
X74091D02*
D03*
Y22126D02*
D03*
X75863D02*
D03*
X77635D02*
D03*
X79406D02*
D03*
D74*
X194147Y111299D02*
D03*
X191588D02*
D03*
X189029D02*
D03*
X186470D02*
D03*
X194147Y127047D02*
D03*
X191588D02*
D03*
X189029D02*
D03*
X186470D02*
D03*
X186569Y76752D02*
D03*
X189128D02*
D03*
X191687D02*
D03*
X194246D02*
D03*
X186569Y61004D02*
D03*
X189128D02*
D03*
X191687D02*
D03*
X194246D02*
D03*
X62598Y129606D02*
D03*
X60039D02*
D03*
X57480D02*
D03*
X54921D02*
D03*
X62598Y145354D02*
D03*
X60039D02*
D03*
X57480D02*
D03*
X54921D02*
D03*
X55020Y95059D02*
D03*
X57579D02*
D03*
X60138D02*
D03*
X62697D02*
D03*
X55020Y79311D02*
D03*
X57579D02*
D03*
X60138D02*
D03*
X62697D02*
D03*
X62894Y30886D02*
D03*
X60335D02*
D03*
X57776D02*
D03*
X55216D02*
D03*
X62894Y46634D02*
D03*
X60335D02*
D03*
X57776D02*
D03*
X55216D02*
D03*
X194443Y12579D02*
D03*
X191884D02*
D03*
X189325D02*
D03*
X186766D02*
D03*
X194443Y28327D02*
D03*
X191884D02*
D03*
X189325D02*
D03*
X186766D02*
D03*
D75*
X141831Y134429D02*
D03*
X144390D02*
D03*
X146949D02*
D03*
X149508D02*
D03*
Y122421D02*
D03*
X146949D02*
D03*
X144390D02*
D03*
X141831D02*
D03*
X141929Y84134D02*
D03*
X144488D02*
D03*
X147047D02*
D03*
X149606D02*
D03*
Y72126D02*
D03*
X147047D02*
D03*
X144488D02*
D03*
X141929D02*
D03*
X142126Y35709D02*
D03*
X144685D02*
D03*
X147244D02*
D03*
X149803D02*
D03*
Y23701D02*
D03*
X147244D02*
D03*
X144685D02*
D03*
X142126D02*
D03*
X108071Y27736D02*
D03*
X105512D02*
D03*
X102953D02*
D03*
X100394D02*
D03*
Y39744D02*
D03*
X102953D02*
D03*
X105512D02*
D03*
X108071D02*
D03*
X107874Y76161D02*
D03*
X105315D02*
D03*
X102756D02*
D03*
X100197D02*
D03*
Y88169D02*
D03*
X102756D02*
D03*
X105315D02*
D03*
X107874D02*
D03*
X107776Y126457D02*
D03*
X105217D02*
D03*
X102657D02*
D03*
X100098D02*
D03*
Y138465D02*
D03*
X102657D02*
D03*
X105217D02*
D03*
X107776D02*
D03*
D76*
X145669Y126654D02*
D03*
X145768Y76358D02*
D03*
X145965Y27933D02*
D03*
X104232Y35512D02*
D03*
X104035Y83937D02*
D03*
X103937Y134232D02*
D03*
D77*
X8937Y91024D02*
D03*
Y94961D02*
D03*
Y98898D02*
D03*
Y102835D02*
D03*
Y106772D02*
D03*
Y110709D02*
D03*
Y114646D02*
D03*
Y118583D02*
D03*
Y122520D02*
D03*
Y126457D02*
D03*
X36929D02*
D03*
Y122520D02*
D03*
Y118583D02*
D03*
Y114646D02*
D03*
Y110709D02*
D03*
Y106772D02*
D03*
Y102835D02*
D03*
Y98898D02*
D03*
Y94961D02*
D03*
Y91024D02*
D03*
Y37874D02*
D03*
Y41811D02*
D03*
Y45748D02*
D03*
Y49685D02*
D03*
Y53622D02*
D03*
Y57559D02*
D03*
Y61496D02*
D03*
Y65433D02*
D03*
Y69370D02*
D03*
Y73307D02*
D03*
X8937D02*
D03*
Y69370D02*
D03*
Y65433D02*
D03*
Y61496D02*
D03*
Y57559D02*
D03*
Y53622D02*
D03*
Y49685D02*
D03*
Y45748D02*
D03*
Y41811D02*
D03*
Y37874D02*
D03*
D78*
X75273Y145453D02*
D03*
Y138760D02*
D03*
X181080Y146634D02*
D03*
Y139941D02*
D03*
X179777Y120354D02*
D03*
Y113661D02*
D03*
X68580Y138661D02*
D03*
Y145354D02*
D03*
X75371Y95157D02*
D03*
Y88465D02*
D03*
X181178Y96339D02*
D03*
Y89646D02*
D03*
X179876Y70059D02*
D03*
Y63366D02*
D03*
X68678Y88366D02*
D03*
Y95059D02*
D03*
X181375Y47913D02*
D03*
Y41221D02*
D03*
X68875Y39941D02*
D03*
Y46634D02*
D03*
X180270Y21634D02*
D03*
Y14941D02*
D03*
X75568Y46732D02*
D03*
Y40039D02*
D03*
D79*
X56299Y111594D02*
D03*
Y122224D02*
D03*
X190725Y147126D02*
D03*
Y136496D02*
D03*
X65650Y111594D02*
D03*
Y122224D02*
D03*
X56398Y61299D02*
D03*
Y71929D02*
D03*
X190824Y96831D02*
D03*
Y86201D02*
D03*
X65748Y61299D02*
D03*
Y71929D02*
D03*
X191021Y48406D02*
D03*
Y37776D02*
D03*
X56595Y12874D02*
D03*
Y23504D02*
D03*
X65945Y12874D02*
D03*
Y23504D02*
D03*
X208661Y70846D02*
D03*
Y60216D02*
D03*
Y42598D02*
D03*
Y53228D02*
D03*
D80*
X99410Y146437D02*
D03*
X110039D02*
D03*
X99508Y96142D02*
D03*
X110138D02*
D03*
X150984Y47618D02*
D03*
X140354D02*
D03*
X150787Y96043D02*
D03*
X140157D02*
D03*
X150689Y146339D02*
D03*
X140059D02*
D03*
X99705Y47717D02*
D03*
X110335D02*
D03*
X167618Y47618D02*
D03*
X156988D02*
D03*
X167421Y96043D02*
D03*
X156791D02*
D03*
X167323Y146339D02*
D03*
X156693D02*
D03*
D81*
X173895Y138268D02*
D03*
X81867D02*
D03*
X173993Y87972D02*
D03*
X81965D02*
D03*
X82162Y39547D02*
D03*
X174190D02*
D03*
D82*
X173993Y145453D02*
D03*
X81965D02*
D03*
X174091Y95157D02*
D03*
X82064D02*
D03*
X82261Y46732D02*
D03*
X174288D02*
D03*
D83*
X124584Y40925D02*
D03*
X124387Y89350D02*
D03*
X124288Y139646D02*
D03*
D84*
X128678Y26555D02*
D03*
X120489D02*
D03*
X128481Y74980D02*
D03*
X120292D02*
D03*
X128383Y125276D02*
D03*
X120194D02*
D03*
D85*
X165945Y30315D02*
D03*
X165748Y78740D02*
D03*
X165650Y128937D02*
D03*
D86*
X169783Y36220D02*
D03*
X167224D02*
D03*
X164665D02*
D03*
X162106D02*
D03*
Y24409D02*
D03*
X164665D02*
D03*
X167224D02*
D03*
X169783D02*
D03*
X169587Y84646D02*
D03*
X167028D02*
D03*
X164469D02*
D03*
X161909D02*
D03*
Y72835D02*
D03*
X164469D02*
D03*
X167028D02*
D03*
X169587D02*
D03*
X169488Y134843D02*
D03*
X166929D02*
D03*
X164370D02*
D03*
X161811D02*
D03*
Y123031D02*
D03*
X164370D02*
D03*
X166929D02*
D03*
X169488D02*
D03*
D87*
X244882Y72362D02*
D03*
Y67362D02*
D03*
Y62362D02*
D03*
Y57362D02*
D03*
Y52362D02*
D03*
Y47362D02*
D03*
Y42362D02*
D03*
X224410Y72362D02*
D03*
Y67362D02*
D03*
Y62362D02*
D03*
Y57362D02*
D03*
Y52362D02*
D03*
Y47362D02*
D03*
Y42362D02*
D03*
D88*
X233760Y97323D02*
D03*
X231791D02*
D03*
X229823D02*
D03*
X227854D02*
D03*
X235728D02*
D03*
X237697D02*
D03*
X239665D02*
D03*
X241634D02*
D03*
X227854Y114547D02*
D03*
X229823D02*
D03*
X233760D02*
D03*
X231791D02*
D03*
X237697D02*
D03*
X235728D02*
D03*
X241634D02*
D03*
X239665D02*
D03*
D89*
X223031Y80590D02*
D03*
X232874D02*
D03*
D90*
X32185Y23307D02*
D03*
X39665D02*
D03*
X35925Y14645D02*
D03*
D91*
X225787Y131968D02*
D03*
X231693D02*
D03*
D92*
X207283Y101850D02*
D03*
Y98110D02*
D03*
Y94370D02*
D03*
X217913D02*
D03*
Y98110D02*
D03*
Y101850D02*
D03*
D93*
X116831Y11122D02*
D03*
Y13681D02*
D03*
Y16240D02*
D03*
Y18799D02*
D03*
X132579Y11122D02*
D03*
Y13681D02*
D03*
Y16240D02*
D03*
Y18799D02*
D03*
X116634Y59547D02*
D03*
Y62106D02*
D03*
Y64665D02*
D03*
Y67224D02*
D03*
X132382Y59547D02*
D03*
Y62106D02*
D03*
Y64665D02*
D03*
Y67224D02*
D03*
X116535Y109843D02*
D03*
Y112402D02*
D03*
Y114961D02*
D03*
Y117520D02*
D03*
X132283Y109843D02*
D03*
Y112402D02*
D03*
Y114961D02*
D03*
Y117520D02*
D03*
D94*
X128150Y532D02*
D03*
D95*
X255856Y78760D02*
D03*
M02*
