G04 Layer_Physical_Order=6*
G04 Layer_Color=32896*
%FSLAX25Y25*%
%MOIN*%
G70*
G01*
G75*
%ADD39C,0.04685*%
%ADD42C,0.05906*%
%ADD43C,0.03150*%
%ADD45C,0.03543*%
%ADD46R,0.06201X1.32795*%
%ADD47R,2.31693X0.05315*%
%ADD48R,0.16535X0.27461*%
%ADD49R,0.27461X0.16535*%
%ADD50R,0.06594X0.15354*%
%ADD51R,0.06594X0.21949*%
%ADD52R,0.05020X0.03347*%
%ADD53R,0.03346X0.05020*%
%ADD54C,0.10630*%
%ADD55C,0.17716*%
G36*
X244508Y157591D02*
X245487Y157475D01*
X246453Y157282D01*
X247402Y157015D01*
X248326Y156674D01*
X249221Y156261D01*
X250081Y155780D01*
X250901Y155232D01*
X251675Y154622D01*
X252398Y153953D01*
X253067Y153230D01*
X253677Y152456D01*
X254225Y151636D01*
X254706Y150777D01*
X255119Y149882D01*
X255460Y148957D01*
X255727Y148009D01*
X255920Y147042D01*
X256035Y146063D01*
X256074Y145088D01*
X256065Y145079D01*
X256065D01*
X256074Y12284D01*
X256035Y11299D01*
X255920Y10320D01*
X255727Y9354D01*
X255460Y8405D01*
X255119Y7481D01*
X254706Y6586D01*
X254225Y5726D01*
X253677Y4906D01*
X253067Y4132D01*
X252398Y3409D01*
X251675Y2740D01*
X250901Y2130D01*
X250081Y1582D01*
X249221Y1101D01*
X248326Y688D01*
X247402Y347D01*
X246453Y80D01*
X245487Y-113D01*
X244508Y-228D01*
X243992Y-249D01*
X243524Y-261D01*
X243519Y-257D01*
X243047Y-257D01*
X12778D01*
X12308Y-257D01*
X12140Y-254D01*
X11807Y-248D01*
X11318Y-228D01*
X10340Y-113D01*
X9373Y80D01*
X8425Y347D01*
X7500Y688D01*
X6605Y1101D01*
X5745Y1582D01*
X4926Y2130D01*
X4152Y2740D01*
X3429Y3409D01*
X2760Y4132D01*
X2149Y4906D01*
X1602Y5726D01*
X1120Y6586D01*
X708Y7481D01*
X367Y8405D01*
X99Y9354D01*
X-93Y10320D01*
X-209Y11299D01*
X-229Y11815D01*
X-242Y12284D01*
X-238Y12288D01*
X-238Y12760D01*
Y33804D01*
X-215Y33807D01*
X44Y33914D01*
X266Y34084D01*
X436Y34306D01*
X544Y34565D01*
X580Y34843D01*
Y128347D01*
X544Y128624D01*
X436Y128883D01*
X266Y129105D01*
X44Y129275D01*
X-215Y129382D01*
X-238Y129385D01*
Y145079D01*
X-238D01*
X-247Y145089D01*
X-209Y146063D01*
X-93Y147042D01*
X99Y148009D01*
X367Y148957D01*
X708Y149882D01*
X1120Y150777D01*
X1602Y151636D01*
X2149Y152456D01*
X2760Y153230D01*
X3429Y153953D01*
X4152Y154622D01*
X4926Y155232D01*
X5745Y155780D01*
X6605Y156261D01*
X7500Y156674D01*
X8425Y157015D01*
X9373Y157282D01*
X10340Y157475D01*
X11318Y157591D01*
X12293Y157629D01*
X12303Y157620D01*
Y157620D01*
X243524Y157629D01*
X244508Y157591D01*
D02*
G37*
%LPC*%
G36*
X217126Y59221D02*
X216712Y59188D01*
X216308Y59091D01*
X215925Y58932D01*
X215571Y58715D01*
X215255Y58446D01*
X214985Y58130D01*
X214768Y57776D01*
X214610Y57392D01*
X214513Y56989D01*
X214480Y56575D01*
X214513Y56161D01*
X214610Y55757D01*
X214768Y55374D01*
X214985Y55020D01*
X215255Y54704D01*
X215571Y54434D01*
X215925Y54217D01*
X216308Y54058D01*
X216712Y53961D01*
X217126Y53929D01*
X217540Y53961D01*
X217944Y54058D01*
X218327Y54217D01*
X218681Y54434D01*
X218997Y54704D01*
X219267Y55020D01*
X219483Y55374D01*
X219642Y55757D01*
X219739Y56161D01*
X219772Y56575D01*
X219739Y56989D01*
X219642Y57392D01*
X219483Y57776D01*
X219267Y58130D01*
X218997Y58446D01*
X218681Y58715D01*
X218327Y58932D01*
X217944Y59091D01*
X217540Y59188D01*
X217126Y59221D01*
D02*
G37*
G36*
X158366Y56878D02*
X157983Y56848D01*
X157609Y56758D01*
X157255Y56611D01*
X156927Y56410D01*
X156635Y56160D01*
X156385Y55868D01*
X156184Y55541D01*
X156037Y55186D01*
X155948Y54812D01*
X155918Y54429D01*
X155948Y54046D01*
X156037Y53672D01*
X156184Y53317D01*
X156385Y52990D01*
X156635Y52698D01*
X156927Y52448D01*
X157255Y52248D01*
X157609Y52100D01*
X157983Y52011D01*
X158366Y51981D01*
X158749Y52011D01*
X159123Y52100D01*
X159478Y52248D01*
X159805Y52448D01*
X160098Y52698D01*
X160347Y52990D01*
X160548Y53317D01*
X160695Y53672D01*
X160784Y54046D01*
X160815Y54429D01*
X160784Y54812D01*
X160695Y55186D01*
X160548Y55541D01*
X160347Y55868D01*
X160098Y56160D01*
X159805Y56410D01*
X159478Y56611D01*
X159123Y56758D01*
X158749Y56848D01*
X158366Y56878D01*
D02*
G37*
G36*
X75197Y59023D02*
X74814Y58993D01*
X74440Y58903D01*
X74085Y58756D01*
X73758Y58556D01*
X73466Y58306D01*
X73216Y58014D01*
X73064Y57766D01*
X72785Y57722D01*
X72507Y57766D01*
X72355Y58014D01*
X72105Y58306D01*
X71813Y58556D01*
X71486Y58756D01*
X71131Y58903D01*
X70757Y58993D01*
X70374Y59023D01*
X69991Y58993D01*
X69617Y58903D01*
X69262Y58756D01*
X68935Y58556D01*
X68643Y58306D01*
X68168D01*
X67876Y58556D01*
X67549Y58756D01*
X67194Y58903D01*
X66820Y58993D01*
X66437Y59023D01*
X66054Y58993D01*
X65680Y58903D01*
X65325Y58756D01*
X64998Y58556D01*
X64706Y58306D01*
X64456Y58014D01*
X64255Y57686D01*
X64108Y57331D01*
X64019Y56958D01*
X63989Y56575D01*
X64019Y56192D01*
X64108Y55818D01*
X64255Y55463D01*
X64456Y55136D01*
X64706Y54843D01*
X64998Y54594D01*
X65325Y54393D01*
X65680Y54246D01*
X66054Y54156D01*
X66437Y54126D01*
X66820Y54156D01*
X67194Y54246D01*
X67549Y54393D01*
X67876Y54594D01*
X68168Y54843D01*
X68643D01*
X68935Y54594D01*
X69262Y54393D01*
X69617Y54246D01*
X69991Y54156D01*
X70374Y54126D01*
X70757Y54156D01*
X71131Y54246D01*
X71486Y54393D01*
X71813Y54594D01*
X72105Y54843D01*
X72355Y55136D01*
X72507Y55384D01*
X72785Y55427D01*
X73064Y55384D01*
X73216Y55136D01*
X73466Y54843D01*
X73758Y54594D01*
X74085Y54393D01*
X74440Y54246D01*
X74814Y54156D01*
X75197Y54126D01*
X75580Y54156D01*
X75954Y54246D01*
X76308Y54393D01*
X76636Y54594D01*
X76928Y54843D01*
X77178Y55136D01*
X77378Y55463D01*
X77526Y55818D01*
X77615Y56192D01*
X77645Y56575D01*
X77615Y56958D01*
X77526Y57331D01*
X77378Y57686D01*
X77178Y58014D01*
X76928Y58306D01*
X76636Y58556D01*
X76308Y58756D01*
X75954Y58903D01*
X75580Y58993D01*
X75197Y59023D01*
D02*
G37*
G36*
X180020Y61208D02*
X179637Y61178D01*
X179263Y61089D01*
X178908Y60941D01*
X178580Y60741D01*
X178288Y60491D01*
X178039Y60199D01*
X177838Y59871D01*
X177691Y59517D01*
X177601Y59143D01*
X177571Y58760D01*
X177601Y58377D01*
X177691Y58003D01*
X177838Y57648D01*
X178039Y57321D01*
X178288Y57029D01*
X178580Y56779D01*
X178908Y56578D01*
X179263Y56431D01*
X179637Y56341D01*
X180020Y56311D01*
X180403Y56341D01*
X180776Y56431D01*
X181131Y56578D01*
X181459Y56779D01*
X181751Y57029D01*
X182001Y57321D01*
X182201Y57648D01*
X182348Y58003D01*
X182438Y58377D01*
X182468Y58760D01*
X182438Y59143D01*
X182348Y59517D01*
X182201Y59871D01*
X182001Y60199D01*
X181751Y60491D01*
X181459Y60741D01*
X181131Y60941D01*
X180776Y61089D01*
X180403Y61178D01*
X180020Y61208D01*
D02*
G37*
G36*
X102953Y56385D02*
X102570Y56355D01*
X102196Y56266D01*
X101841Y56119D01*
X101514Y55918D01*
X101221Y55668D01*
X100972Y55376D01*
X100771Y55049D01*
X100624Y54694D01*
X100534Y54320D01*
X100504Y53937D01*
X100534Y53554D01*
X100624Y53180D01*
X100771Y52825D01*
X100972Y52498D01*
X101221Y52206D01*
X101514Y51956D01*
X101841Y51755D01*
X102196Y51608D01*
X102570Y51519D01*
X102953Y51489D01*
X103336Y51519D01*
X103709Y51608D01*
X104064Y51755D01*
X104392Y51956D01*
X104684Y52206D01*
X104934Y52498D01*
X105134Y52825D01*
X105281Y53180D01*
X105371Y53554D01*
X105401Y53937D01*
X105371Y54320D01*
X105281Y54694D01*
X105134Y55049D01*
X104934Y55376D01*
X104684Y55668D01*
X104392Y55918D01*
X104064Y56119D01*
X103709Y56266D01*
X103336Y56355D01*
X102953Y56385D01*
D02*
G37*
G36*
X235138Y45736D02*
X234755Y45706D01*
X234381Y45616D01*
X234026Y45469D01*
X233699Y45268D01*
X233406Y45019D01*
X233157Y44727D01*
X232956Y44399D01*
X232809Y44044D01*
X232719Y43670D01*
X232689Y43287D01*
X232719Y42904D01*
X232809Y42531D01*
X232956Y42176D01*
X233157Y41848D01*
X233406Y41556D01*
X233699Y41306D01*
X234026Y41106D01*
X234381Y40959D01*
X234755Y40869D01*
X235138Y40839D01*
X235521Y40869D01*
X235894Y40959D01*
X236249Y41106D01*
X236577Y41306D01*
X236869Y41556D01*
X237119Y41848D01*
X237319Y42176D01*
X237466Y42531D01*
X237556Y42904D01*
X237586Y43287D01*
X237556Y43670D01*
X237466Y44044D01*
X237319Y44399D01*
X237119Y44727D01*
X236869Y45019D01*
X236577Y45268D01*
X236249Y45469D01*
X235894Y45616D01*
X235521Y45706D01*
X235138Y45736D01*
D02*
G37*
G36*
X137303Y43669D02*
X136920Y43639D01*
X136547Y43549D01*
X136192Y43402D01*
X135864Y43201D01*
X135572Y42952D01*
X135322Y42660D01*
X135122Y42332D01*
X134975Y41977D01*
X134885Y41603D01*
X134855Y41221D01*
X134885Y40837D01*
X134975Y40464D01*
X135122Y40109D01*
X135322Y39781D01*
X135572Y39489D01*
X135864Y39240D01*
X136192Y39039D01*
X136547Y38892D01*
X136920Y38802D01*
X137303Y38772D01*
X137686Y38802D01*
X138060Y38892D01*
X138415Y39039D01*
X138742Y39240D01*
X139034Y39489D01*
X139284Y39781D01*
X139485Y40109D01*
X139632Y40464D01*
X139722Y40837D01*
X139752Y41221D01*
X139722Y41603D01*
X139632Y41977D01*
X139485Y42332D01*
X139284Y42660D01*
X139034Y42952D01*
X138742Y43201D01*
X138415Y43402D01*
X138060Y43549D01*
X137686Y43639D01*
X137303Y43669D01*
D02*
G37*
G36*
X65256Y49082D02*
X64873Y49052D01*
X64499Y48963D01*
X64144Y48816D01*
X63817Y48615D01*
X63525Y48365D01*
X63275Y48073D01*
X63074Y47745D01*
X62927Y47390D01*
X62838Y47017D01*
X62807Y46634D01*
X62838Y46251D01*
X62927Y45877D01*
X63074Y45522D01*
X63275Y45195D01*
X63525Y44903D01*
X63817Y44653D01*
X64144Y44452D01*
X64499Y44305D01*
X64873Y44216D01*
X65256Y44185D01*
X65639Y44216D01*
X66013Y44305D01*
X66368Y44452D01*
X66695Y44653D01*
X66987Y44903D01*
X67237Y45195D01*
X67437Y45522D01*
X67585Y45877D01*
X67674Y46251D01*
X67704Y46634D01*
X67674Y47017D01*
X67585Y47390D01*
X67437Y47745D01*
X67237Y48073D01*
X66987Y48365D01*
X66695Y48615D01*
X66368Y48816D01*
X66013Y48963D01*
X65639Y49052D01*
X65256Y49082D01*
D02*
G37*
G36*
X216929Y49083D02*
X216515Y49050D01*
X216111Y48953D01*
X215728Y48795D01*
X215374Y48578D01*
X215058Y48308D01*
X214789Y47992D01*
X214572Y47638D01*
X214413Y47255D01*
X214316Y46851D01*
X214283Y46437D01*
X214316Y46023D01*
X214413Y45619D01*
X214572Y45236D01*
X214789Y44882D01*
X215058Y44566D01*
X215374Y44296D01*
X215728Y44079D01*
X216111Y43920D01*
X216515Y43824D01*
X216929Y43791D01*
X217343Y43824D01*
X217747Y43920D01*
X218130Y44079D01*
X218484Y44296D01*
X218800Y44566D01*
X219070Y44882D01*
X219287Y45236D01*
X219446Y45619D01*
X219543Y46023D01*
X219575Y46437D01*
X219543Y46851D01*
X219446Y47255D01*
X219287Y47638D01*
X219070Y47992D01*
X218800Y48308D01*
X218484Y48578D01*
X218130Y48795D01*
X217747Y48953D01*
X217343Y49050D01*
X216929Y49083D01*
D02*
G37*
G36*
X175295Y76070D02*
X174912Y76040D01*
X174539Y75951D01*
X174184Y75804D01*
X173856Y75603D01*
X173564Y75353D01*
X173314Y75061D01*
X173114Y74734D01*
X172967Y74379D01*
X172877Y74005D01*
X172847Y73622D01*
X172877Y73239D01*
X172967Y72865D01*
X173114Y72510D01*
X173314Y72183D01*
X173564Y71891D01*
X173856Y71641D01*
X174184Y71440D01*
X174539Y71293D01*
X174912Y71204D01*
X175295Y71174D01*
X175678Y71204D01*
X176052Y71293D01*
X176407Y71440D01*
X176734Y71641D01*
X177027Y71891D01*
X177276Y72183D01*
X177477Y72510D01*
X177624Y72865D01*
X177714Y73239D01*
X177744Y73622D01*
X177714Y74005D01*
X177624Y74379D01*
X177477Y74734D01*
X177276Y75061D01*
X177027Y75353D01*
X176734Y75603D01*
X176407Y75804D01*
X176052Y75951D01*
X175678Y76040D01*
X175295Y76070D01*
D02*
G37*
G36*
X22933Y76526D02*
X22430Y76486D01*
X21938Y76368D01*
X21472Y76175D01*
X21041Y75911D01*
X20657Y75583D01*
X20329Y75199D01*
X20065Y74768D01*
X19872Y74302D01*
X19754Y73811D01*
X19715Y73307D01*
X19754Y72804D01*
X19872Y72312D01*
X20065Y71846D01*
X20329Y71415D01*
X20657Y71031D01*
X21041Y70703D01*
X21472Y70439D01*
X21938Y70246D01*
X22430Y70128D01*
X22933Y70088D01*
X23437Y70128D01*
X23928Y70246D01*
X24394Y70439D01*
X24825Y70703D01*
X25209Y71031D01*
X25537Y71415D01*
X25801Y71846D01*
X25994Y72312D01*
X26112Y72804D01*
X26152Y73307D01*
X26112Y73811D01*
X25994Y74302D01*
X25801Y74768D01*
X25537Y75199D01*
X25209Y75583D01*
X24825Y75911D01*
X24394Y76175D01*
X23928Y76368D01*
X23437Y76486D01*
X22933Y76526D01*
D02*
G37*
G36*
X12106Y80992D02*
X11723Y80962D01*
X11350Y80872D01*
X10995Y80725D01*
X10667Y80524D01*
X10375Y80275D01*
X10125Y79983D01*
X9925Y79655D01*
X9778Y79300D01*
X9688Y78926D01*
X9658Y78543D01*
X9688Y78160D01*
X9778Y77787D01*
X9925Y77432D01*
X10125Y77104D01*
X10375Y76812D01*
X10667Y76562D01*
X10995Y76362D01*
X11350Y76215D01*
X11723Y76125D01*
X12106Y76095D01*
X12489Y76125D01*
X12863Y76215D01*
X13218Y76362D01*
X13545Y76562D01*
X13838Y76812D01*
X14087Y77104D01*
X14288Y77432D01*
X14435Y77787D01*
X14525Y78160D01*
X14555Y78543D01*
X14525Y78926D01*
X14435Y79300D01*
X14288Y79655D01*
X14087Y79983D01*
X13838Y80275D01*
X13545Y80524D01*
X13218Y80725D01*
X12863Y80872D01*
X12489Y80962D01*
X12106Y80992D01*
D02*
G37*
G36*
X216929Y79103D02*
X216515Y79070D01*
X216111Y78973D01*
X215728Y78814D01*
X215374Y78597D01*
X215058Y78328D01*
X214789Y78012D01*
X214572Y77658D01*
X214413Y77274D01*
X214316Y76871D01*
X214283Y76457D01*
X214316Y76043D01*
X214413Y75639D01*
X214572Y75255D01*
X214789Y74901D01*
X215058Y74586D01*
X215374Y74316D01*
X215728Y74099D01*
X216111Y73940D01*
X216515Y73843D01*
X216929Y73811D01*
X217343Y73843D01*
X217747Y73940D01*
X218130Y74099D01*
X218484Y74316D01*
X218800Y74586D01*
X219070Y74901D01*
X219287Y75255D01*
X219446Y75639D01*
X219543Y76043D01*
X219575Y76457D01*
X219543Y76871D01*
X219446Y77274D01*
X219287Y77658D01*
X219070Y78012D01*
X218800Y78328D01*
X218484Y78597D01*
X218130Y78814D01*
X217747Y78973D01*
X217343Y79070D01*
X216929Y79103D01*
D02*
G37*
G36*
X137303Y78728D02*
X136920Y78698D01*
X136547Y78608D01*
X136192Y78461D01*
X135864Y78260D01*
X135572Y78011D01*
X135322Y77719D01*
X135122Y77391D01*
X134975Y77036D01*
X134885Y76663D01*
X134855Y76279D01*
X134885Y75897D01*
X134975Y75523D01*
X135122Y75168D01*
X135322Y74840D01*
X135572Y74548D01*
X135864Y74299D01*
X135958Y74241D01*
X136180Y74011D01*
X136125Y73584D01*
X136106Y73553D01*
X135959Y73198D01*
X135869Y72824D01*
X135839Y72441D01*
X135869Y72058D01*
X135959Y71684D01*
X136106Y71329D01*
X136307Y71002D01*
X136556Y70710D01*
X136848Y70460D01*
X137176Y70259D01*
X137531Y70112D01*
X137904Y70023D01*
X138287Y69992D01*
X138670Y70023D01*
X139044Y70112D01*
X139399Y70259D01*
X139727Y70460D01*
X140019Y70710D01*
X140268Y71002D01*
X140469Y71329D01*
X140616Y71684D01*
X140706Y72058D01*
X140736Y72441D01*
X140706Y72824D01*
X140616Y73198D01*
X140469Y73553D01*
X140268Y73880D01*
X140019Y74172D01*
X139727Y74422D01*
X139633Y74479D01*
X139410Y74710D01*
X139465Y75136D01*
X139485Y75168D01*
X139632Y75523D01*
X139722Y75897D01*
X139752Y76279D01*
X139722Y76663D01*
X139632Y77036D01*
X139485Y77391D01*
X139284Y77719D01*
X139034Y78011D01*
X138742Y78260D01*
X138415Y78461D01*
X138060Y78608D01*
X137686Y78698D01*
X137303Y78728D01*
D02*
G37*
G36*
X237795Y65224D02*
X237412Y65194D01*
X237039Y65104D01*
X236684Y64957D01*
X236356Y64757D01*
X236064Y64507D01*
X235814Y64215D01*
X235662Y63967D01*
X235384Y63923D01*
X235105Y63967D01*
X234953Y64215D01*
X234704Y64507D01*
X234412Y64757D01*
X234084Y64957D01*
X233729Y65104D01*
X233355Y65194D01*
X232972Y65224D01*
X232589Y65194D01*
X232216Y65104D01*
X231861Y64957D01*
X231533Y64757D01*
X231241Y64507D01*
X230992Y64215D01*
X230791Y63887D01*
X230644Y63532D01*
X230554Y63159D01*
X230524Y62776D01*
X230554Y62393D01*
X230644Y62019D01*
X230791Y61664D01*
X230992Y61336D01*
X231241Y61044D01*
X231533Y60795D01*
X231861Y60594D01*
X232216Y60447D01*
X232589Y60357D01*
X232972Y60327D01*
X233355Y60357D01*
X233729Y60447D01*
X234084Y60594D01*
X234412Y60795D01*
X234704Y61044D01*
X234953Y61336D01*
X235105Y61585D01*
X235384Y61628D01*
X235662Y61585D01*
X235814Y61336D01*
X236064Y61044D01*
X236356Y60795D01*
X236684Y60594D01*
X237039Y60447D01*
X237412Y60357D01*
X237795Y60327D01*
X238178Y60357D01*
X238552Y60447D01*
X238907Y60594D01*
X239234Y60795D01*
X239527Y61044D01*
X239776Y61336D01*
X239977Y61664D01*
X240124Y62019D01*
X240214Y62393D01*
X240244Y62776D01*
X240214Y63159D01*
X240124Y63532D01*
X239977Y63887D01*
X239776Y64215D01*
X239527Y64507D01*
X239234Y64757D01*
X238907Y64957D01*
X238552Y65104D01*
X238178Y65194D01*
X237795Y65224D01*
D02*
G37*
G36*
X217028Y69063D02*
X216614Y69031D01*
X216210Y68934D01*
X215826Y68775D01*
X215472Y68558D01*
X215157Y68288D01*
X214887Y67973D01*
X214670Y67619D01*
X214511Y67235D01*
X214414Y66831D01*
X214382Y66417D01*
X214414Y66003D01*
X214511Y65600D01*
X214670Y65216D01*
X214887Y64862D01*
X215157Y64546D01*
X215472Y64277D01*
X215826Y64060D01*
X216210Y63901D01*
X216614Y63804D01*
X217028Y63771D01*
X217442Y63804D01*
X217845Y63901D01*
X218229Y64060D01*
X218583Y64277D01*
X218899Y64546D01*
X219168Y64862D01*
X219385Y65216D01*
X219544Y65600D01*
X219641Y66003D01*
X219673Y66417D01*
X219641Y66831D01*
X219544Y67235D01*
X219385Y67619D01*
X219168Y67973D01*
X218899Y68288D01*
X218583Y68558D01*
X218229Y68775D01*
X217845Y68934D01*
X217442Y69031D01*
X217028Y69063D01*
D02*
G37*
G36*
X111811Y78925D02*
X111428Y78895D01*
X111054Y78805D01*
X110699Y78658D01*
X110372Y78457D01*
X110080Y78208D01*
X109830Y77916D01*
X109629Y77588D01*
X109482Y77233D01*
X109393Y76859D01*
X109362Y76476D01*
X109393Y76093D01*
X109482Y75720D01*
X109629Y75365D01*
X109830Y75037D01*
X109896Y74960D01*
X109903Y74724D01*
X109820Y74398D01*
X109779Y74344D01*
X109584Y74225D01*
X109292Y73975D01*
X109043Y73683D01*
X108842Y73356D01*
X108695Y73001D01*
X108605Y72627D01*
X108575Y72244D01*
X108605Y71861D01*
X108695Y71487D01*
X108842Y71132D01*
X109043Y70805D01*
X109292Y70513D01*
X109584Y70263D01*
X109912Y70063D01*
X110267Y69915D01*
X110641Y69826D01*
X111024Y69796D01*
X111407Y69826D01*
X111780Y69915D01*
X112135Y70063D01*
X112463Y70263D01*
X112755Y70513D01*
X113005Y70805D01*
X113205Y71132D01*
X113352Y71487D01*
X113442Y71861D01*
X113472Y72244D01*
X113442Y72627D01*
X113352Y73001D01*
X113205Y73356D01*
X113005Y73683D01*
X112939Y73760D01*
X112932Y73997D01*
X113015Y74322D01*
X113056Y74376D01*
X113250Y74496D01*
X113542Y74745D01*
X113792Y75037D01*
X113993Y75365D01*
X114140Y75720D01*
X114229Y76093D01*
X114260Y76476D01*
X114229Y76859D01*
X114140Y77233D01*
X113993Y77588D01*
X113792Y77916D01*
X113542Y78208D01*
X113250Y78457D01*
X112923Y78658D01*
X112568Y78805D01*
X112194Y78895D01*
X111811Y78925D01*
D02*
G37*
G36*
X237795Y75460D02*
X237412Y75430D01*
X237039Y75340D01*
X236684Y75193D01*
X236356Y74993D01*
X236064Y74743D01*
X235814Y74451D01*
X235614Y74123D01*
X235467Y73768D01*
X235377Y73395D01*
X235347Y73012D01*
X235377Y72629D01*
X235467Y72255D01*
X235614Y71900D01*
X235814Y71573D01*
X236064Y71280D01*
X236356Y71031D01*
Y70465D01*
X236064Y70216D01*
X235814Y69923D01*
X235662Y69675D01*
X235384Y69632D01*
X235105Y69675D01*
X234953Y69923D01*
X234704Y70216D01*
X234412Y70465D01*
X234084Y70666D01*
X233729Y70813D01*
X233355Y70903D01*
X232972Y70933D01*
X232589Y70903D01*
X232216Y70813D01*
X231861Y70666D01*
X231533Y70465D01*
X231241Y70216D01*
X230992Y69923D01*
X230791Y69596D01*
X230644Y69241D01*
X230554Y68867D01*
X230524Y68484D01*
X230554Y68101D01*
X230644Y67728D01*
X230791Y67373D01*
X230992Y67045D01*
X231241Y66753D01*
X231533Y66503D01*
X231861Y66303D01*
X232216Y66156D01*
X232589Y66066D01*
X232972Y66036D01*
X233355Y66066D01*
X233729Y66156D01*
X234084Y66303D01*
X234412Y66503D01*
X234704Y66753D01*
X234953Y67045D01*
X235105Y67293D01*
X235384Y67337D01*
X235662Y67293D01*
X235814Y67045D01*
X236064Y66753D01*
X236356Y66503D01*
X236684Y66303D01*
X237039Y66156D01*
X237412Y66066D01*
X237795Y66036D01*
X238178Y66066D01*
X238552Y66156D01*
X238907Y66303D01*
X239234Y66503D01*
X239527Y66753D01*
X239776Y67045D01*
X239977Y67373D01*
X240124Y67728D01*
X240214Y68101D01*
X240244Y68484D01*
X240214Y68867D01*
X240124Y69241D01*
X239977Y69596D01*
X239776Y69923D01*
X239527Y70216D01*
X239234Y70465D01*
Y71031D01*
X239527Y71280D01*
X239776Y71573D01*
X239977Y71900D01*
X240124Y72255D01*
X240214Y72629D01*
X240244Y73012D01*
X240214Y73395D01*
X240124Y73768D01*
X239977Y74123D01*
X239776Y74451D01*
X239527Y74743D01*
X239234Y74993D01*
X238907Y75193D01*
X238552Y75340D01*
X238178Y75430D01*
X237795Y75460D01*
D02*
G37*
G36*
X112205Y43669D02*
X111822Y43639D01*
X111448Y43549D01*
X111093Y43402D01*
X110766Y43201D01*
X110473Y42952D01*
X110224Y42660D01*
X110023Y42332D01*
X109876Y41977D01*
X109786Y41603D01*
X109756Y41221D01*
X109786Y40837D01*
X109876Y40464D01*
X110023Y40109D01*
X110224Y39781D01*
X110473Y39489D01*
X110766Y39240D01*
X111093Y39039D01*
X111448Y38892D01*
X111822Y38802D01*
X112205Y38772D01*
X112588Y38802D01*
X112961Y38892D01*
X113316Y39039D01*
X113644Y39240D01*
X113936Y39489D01*
X114186Y39781D01*
X114386Y40109D01*
X114533Y40464D01*
X114623Y40837D01*
X114653Y41221D01*
X114623Y41603D01*
X114533Y41977D01*
X114386Y42332D01*
X114186Y42660D01*
X113936Y42952D01*
X113644Y43201D01*
X113316Y43402D01*
X112961Y43549D01*
X112588Y43639D01*
X112205Y43669D01*
D02*
G37*
G36*
X57776Y10421D02*
X57393Y10391D01*
X57019Y10301D01*
X56664Y10154D01*
X56336Y9953D01*
X56044Y9704D01*
X55795Y9412D01*
X55594Y9084D01*
X55447Y8729D01*
X55357Y8355D01*
X54879D01*
X54789Y8729D01*
X54642Y9084D01*
X54441Y9412D01*
X54192Y9704D01*
X53900Y9953D01*
X53572Y10154D01*
X53217Y10301D01*
X52844Y10391D01*
X52461Y10421D01*
X52078Y10391D01*
X51704Y10301D01*
X51349Y10154D01*
X51021Y9953D01*
X50729Y9704D01*
X50480Y9412D01*
X50279Y9084D01*
X50132Y8729D01*
X50042Y8355D01*
X50012Y7972D01*
X50042Y7589D01*
X50132Y7216D01*
X50279Y6861D01*
X50480Y6533D01*
X50729Y6241D01*
X51021Y5992D01*
X51349Y5791D01*
X51704Y5644D01*
X52078Y5554D01*
X52461Y5524D01*
X52844Y5554D01*
X53217Y5644D01*
X53572Y5791D01*
X53900Y5992D01*
X54192Y6241D01*
X54441Y6533D01*
X54642Y6861D01*
X54789Y7216D01*
X54879Y7589D01*
X55357D01*
X55447Y7216D01*
X55594Y6861D01*
X55795Y6533D01*
X56044Y6241D01*
X56336Y5992D01*
X56664Y5791D01*
X57019Y5644D01*
X57393Y5554D01*
X57776Y5524D01*
X58159Y5554D01*
X58532Y5644D01*
X58887Y5791D01*
X59215Y5992D01*
X59507Y6241D01*
X59756Y6533D01*
X59957Y6861D01*
X60104Y7216D01*
X60194Y7589D01*
X60224Y7972D01*
X60194Y8355D01*
X60104Y8729D01*
X59957Y9084D01*
X59756Y9412D01*
X59507Y9704D01*
X59215Y9953D01*
X58887Y10154D01*
X58532Y10301D01*
X58159Y10391D01*
X57776Y10421D01*
D02*
G37*
G36*
X181398Y12094D02*
X181015Y12064D01*
X180641Y11974D01*
X180286Y11827D01*
X179958Y11626D01*
X179666Y11377D01*
X179417Y11085D01*
X179216Y10757D01*
X179069Y10402D01*
X178979Y10029D01*
X178949Y9646D01*
X178979Y9263D01*
X179069Y8889D01*
X179216Y8534D01*
X179417Y8207D01*
X179666Y7914D01*
X179958Y7665D01*
X180286Y7464D01*
X180641Y7317D01*
X181015Y7227D01*
X181398Y7197D01*
X181781Y7227D01*
X182154Y7317D01*
X182509Y7464D01*
X182837Y7665D01*
X183129Y7914D01*
X183379Y8207D01*
X183579Y8534D01*
X183726Y8889D01*
X183816Y9263D01*
X183846Y9646D01*
X183816Y10029D01*
X183726Y10402D01*
X183579Y10757D01*
X183379Y11085D01*
X183129Y11377D01*
X182837Y11626D01*
X182509Y11827D01*
X182154Y11974D01*
X181781Y12064D01*
X181398Y12094D01*
D02*
G37*
G36*
X112205Y30283D02*
X111822Y30253D01*
X111448Y30163D01*
X111093Y30016D01*
X110766Y29816D01*
X110473Y29566D01*
X110224Y29274D01*
X110023Y28946D01*
X109876Y28591D01*
X109786Y28218D01*
X109756Y27835D01*
X109786Y27452D01*
X109876Y27078D01*
X110023Y26723D01*
X110224Y26395D01*
X110473Y26103D01*
X110490Y26089D01*
X110500Y26075D01*
Y25460D01*
X110490Y25447D01*
X110473Y25432D01*
X110224Y25140D01*
X110023Y24812D01*
X109876Y24457D01*
X109786Y24084D01*
X109756Y23701D01*
X109786Y23318D01*
X109876Y22944D01*
X110023Y22589D01*
X110224Y22262D01*
X110473Y21969D01*
X110766Y21720D01*
X111093Y21519D01*
X111448Y21372D01*
X111822Y21282D01*
X112205Y21252D01*
X112588Y21282D01*
X112961Y21372D01*
X113316Y21519D01*
X113644Y21720D01*
X113936Y21969D01*
X114186Y22262D01*
X114386Y22589D01*
X114533Y22944D01*
X114623Y23318D01*
X114653Y23701D01*
X114623Y24084D01*
X114533Y24457D01*
X114386Y24812D01*
X114186Y25140D01*
X113936Y25432D01*
X113919Y25447D01*
X113910Y25460D01*
Y26075D01*
X113919Y26089D01*
X113936Y26103D01*
X114186Y26395D01*
X114386Y26723D01*
X114533Y27078D01*
X114623Y27452D01*
X114653Y27835D01*
X114623Y28218D01*
X114533Y28591D01*
X114386Y28946D01*
X114186Y29274D01*
X113936Y29566D01*
X113644Y29816D01*
X113316Y30016D01*
X112961Y30163D01*
X112588Y30253D01*
X112205Y30283D01*
D02*
G37*
G36*
X27756Y24968D02*
X27373Y24938D01*
X26999Y24848D01*
X26644Y24701D01*
X26317Y24501D01*
X26025Y24251D01*
X25775Y23959D01*
X25574Y23631D01*
X25427Y23276D01*
X25338Y22903D01*
X25307Y22520D01*
X25338Y22137D01*
X25427Y21763D01*
X25574Y21408D01*
X25775Y21080D01*
X26025Y20788D01*
X26317Y20539D01*
X26644Y20338D01*
X26999Y20191D01*
X27373Y20101D01*
X27756Y20071D01*
X28139Y20101D01*
X28512Y20191D01*
X28868Y20338D01*
X29195Y20539D01*
X29487Y20788D01*
X29737Y21080D01*
X29937Y21408D01*
X30085Y21763D01*
X30174Y22137D01*
X30204Y22520D01*
X30174Y22903D01*
X30085Y23276D01*
X29937Y23631D01*
X29737Y23959D01*
X29487Y24251D01*
X29195Y24501D01*
X28868Y24701D01*
X28512Y24848D01*
X28139Y24938D01*
X27756Y24968D01*
D02*
G37*
G36*
X35630Y11484D02*
X35247Y11454D01*
X34873Y11364D01*
X34518Y11217D01*
X34191Y11016D01*
X33899Y10767D01*
X33649Y10475D01*
X33448Y10147D01*
X33301Y9792D01*
X33212Y9419D01*
X33181Y9035D01*
X33212Y8652D01*
X33301Y8279D01*
X33448Y7924D01*
X33649Y7596D01*
X33899Y7304D01*
X34191Y7055D01*
X34518Y6854D01*
X34873Y6707D01*
X35247Y6617D01*
X35630Y6587D01*
X36013Y6617D01*
X36386Y6707D01*
X36742Y6854D01*
X37069Y7055D01*
X37361Y7304D01*
X37611Y7596D01*
X37811Y7924D01*
X37959Y8279D01*
X38048Y8652D01*
X38078Y9035D01*
X38048Y9419D01*
X37959Y9792D01*
X37811Y10147D01*
X37611Y10475D01*
X37361Y10767D01*
X37069Y11016D01*
X36742Y11217D01*
X36386Y11364D01*
X36013Y11454D01*
X35630Y11484D01*
D02*
G37*
G36*
X212795Y13157D02*
X212412Y13127D01*
X212039Y13037D01*
X211684Y12890D01*
X211356Y12689D01*
X211064Y12440D01*
X210814Y12148D01*
X210614Y11820D01*
X210467Y11465D01*
X210377Y11092D01*
X210347Y10709D01*
X210377Y10326D01*
X210374Y10288D01*
X210003Y9804D01*
X209952Y9800D01*
X209578Y9710D01*
X209223Y9563D01*
X208895Y9363D01*
X208603Y9113D01*
X208354Y8821D01*
X208153Y8494D01*
X208006Y8139D01*
X207916Y7765D01*
X207886Y7382D01*
X207916Y6999D01*
X208006Y6625D01*
X208153Y6270D01*
X208354Y5943D01*
X208603Y5650D01*
X208895Y5401D01*
X209223Y5200D01*
X209578Y5053D01*
X209952Y4964D01*
X210335Y4933D01*
X210718Y4964D01*
X211091Y5053D01*
X211446Y5200D01*
X211774Y5401D01*
X212066Y5650D01*
X212316Y5943D01*
X212516Y6270D01*
X212663Y6625D01*
X212753Y6999D01*
X212783Y7382D01*
X212753Y7765D01*
X212756Y7802D01*
X213127Y8286D01*
X213178Y8290D01*
X213552Y8380D01*
X213907Y8527D01*
X214234Y8728D01*
X214527Y8977D01*
X214776Y9269D01*
X214977Y9597D01*
X215124Y9952D01*
X215214Y10326D01*
X215244Y10709D01*
X215214Y11092D01*
X215124Y11465D01*
X214977Y11820D01*
X214776Y12148D01*
X214527Y12440D01*
X214234Y12689D01*
X213907Y12890D01*
X213552Y13037D01*
X213178Y13127D01*
X212795Y13157D01*
D02*
G37*
G36*
X204823Y9830D02*
X204440Y9800D01*
X204066Y9710D01*
X203711Y9563D01*
X203384Y9363D01*
X203092Y9113D01*
X202842Y8821D01*
X202641Y8494D01*
X202494Y8139D01*
X202404Y7765D01*
X202374Y7382D01*
X202404Y6999D01*
X202494Y6625D01*
X202641Y6270D01*
X202842Y5943D01*
X203092Y5650D01*
X203384Y5401D01*
X203711Y5200D01*
X204066Y5053D01*
X204440Y4964D01*
X204823Y4933D01*
X205206Y4964D01*
X205579Y5053D01*
X205934Y5200D01*
X206262Y5401D01*
X206554Y5650D01*
X206804Y5943D01*
X207004Y6270D01*
X207152Y6625D01*
X207241Y6999D01*
X207271Y7382D01*
X207241Y7765D01*
X207152Y8139D01*
X207004Y8494D01*
X206804Y8821D01*
X206554Y9113D01*
X206262Y9363D01*
X205934Y9563D01*
X205579Y9710D01*
X205206Y9800D01*
X204823Y9830D01*
D02*
G37*
G36*
X63681Y10421D02*
X63298Y10391D01*
X62924Y10301D01*
X62569Y10154D01*
X62242Y9953D01*
X61950Y9704D01*
X61700Y9412D01*
X61500Y9084D01*
X61352Y8729D01*
X61263Y8355D01*
X61233Y7972D01*
X61263Y7589D01*
X61352Y7216D01*
X61500Y6861D01*
X61700Y6533D01*
X61950Y6241D01*
X62242Y5992D01*
X62569Y5791D01*
X62924Y5644D01*
X63298Y5554D01*
X63681Y5524D01*
X64064Y5554D01*
X64438Y5644D01*
X64793Y5791D01*
X65120Y5992D01*
X65412Y6241D01*
X65662Y6533D01*
X65863Y6861D01*
X66010Y7216D01*
X66100Y7589D01*
X66130Y7972D01*
X66100Y8355D01*
X66010Y8729D01*
X65863Y9084D01*
X65662Y9412D01*
X65412Y9704D01*
X65120Y9953D01*
X64793Y10154D01*
X64438Y10301D01*
X64064Y10391D01*
X63681Y10421D01*
D02*
G37*
G36*
X191240Y9909D02*
X190857Y9879D01*
X190483Y9789D01*
X190129Y9642D01*
X189801Y9442D01*
X189509Y9192D01*
X189259Y8900D01*
X189058Y8572D01*
X188911Y8217D01*
X188822Y7844D01*
X188792Y7461D01*
X188822Y7078D01*
X188911Y6704D01*
X189058Y6349D01*
X189259Y6021D01*
X189509Y5729D01*
X189801Y5480D01*
X190129Y5279D01*
X190483Y5132D01*
X190857Y5042D01*
X191240Y5012D01*
X191623Y5042D01*
X191997Y5132D01*
X192352Y5279D01*
X192679Y5480D01*
X192972Y5729D01*
X193221Y6021D01*
X193422Y6349D01*
X193569Y6704D01*
X193658Y7078D01*
X193689Y7461D01*
X193658Y7844D01*
X193569Y8217D01*
X193422Y8572D01*
X193221Y8900D01*
X192972Y9192D01*
X192679Y9442D01*
X192352Y9642D01*
X191997Y9789D01*
X191623Y9879D01*
X191240Y9909D01*
D02*
G37*
G36*
X22933Y41093D02*
X22430Y41053D01*
X21938Y40935D01*
X21472Y40742D01*
X21041Y40478D01*
X20657Y40150D01*
X20329Y39766D01*
X20065Y39335D01*
X19872Y38869D01*
X19754Y38377D01*
X19715Y37874D01*
X19754Y37370D01*
X19872Y36879D01*
X20065Y36413D01*
X20329Y35982D01*
X20657Y35598D01*
X21041Y35270D01*
X21472Y35006D01*
X21938Y34813D01*
X22430Y34695D01*
X22933Y34655D01*
X23437Y34695D01*
X23928Y34813D01*
X24394Y35006D01*
X24825Y35270D01*
X25209Y35598D01*
X25537Y35982D01*
X25801Y36413D01*
X25994Y36879D01*
X26112Y37370D01*
X26152Y37874D01*
X26112Y38377D01*
X25994Y38869D01*
X25801Y39335D01*
X25537Y39766D01*
X25209Y40150D01*
X24825Y40478D01*
X24394Y40742D01*
X23928Y40935D01*
X23437Y41053D01*
X22933Y41093D01*
D02*
G37*
G36*
X11122Y34141D02*
X10739Y34111D01*
X10365Y34022D01*
X10011Y33874D01*
X9683Y33674D01*
X9391Y33424D01*
X8818D01*
X8526Y33674D01*
X8198Y33874D01*
X7843Y34022D01*
X7470Y34111D01*
X7087Y34141D01*
X6704Y34111D01*
X6330Y34022D01*
X5975Y33874D01*
X5647Y33674D01*
X5355Y33424D01*
X5106Y33132D01*
X4905Y32805D01*
X4758Y32449D01*
X4668Y32076D01*
X4638Y31693D01*
X4668Y31310D01*
X4758Y30936D01*
X4905Y30581D01*
X5106Y30254D01*
X5355Y29962D01*
X5647Y29712D01*
X5975Y29511D01*
X6330Y29364D01*
X6704Y29275D01*
X7087Y29244D01*
X7470Y29275D01*
X7843Y29364D01*
X8198Y29511D01*
X8526Y29712D01*
X8818Y29962D01*
X9391D01*
X9683Y29712D01*
X10011Y29511D01*
X10365Y29364D01*
X10739Y29275D01*
X11122Y29244D01*
X11505Y29275D01*
X11879Y29364D01*
X12234Y29511D01*
X12561Y29712D01*
X12853Y29962D01*
X13103Y30254D01*
X13304Y30581D01*
X13451Y30936D01*
X13540Y31310D01*
X13570Y31693D01*
X13540Y32076D01*
X13451Y32449D01*
X13304Y32805D01*
X13103Y33132D01*
X12853Y33424D01*
X12561Y33674D01*
X12234Y33874D01*
X11879Y34022D01*
X11505Y34111D01*
X11122Y34141D01*
D02*
G37*
G36*
X51968Y42488D02*
X51586Y42458D01*
X51212Y42368D01*
X50857Y42221D01*
X50529Y42020D01*
X50237Y41771D01*
X49988Y41479D01*
X49787Y41151D01*
X49640Y40796D01*
X49550Y40422D01*
X49520Y40039D01*
X49550Y39656D01*
X49640Y39283D01*
X49787Y38928D01*
X49988Y38600D01*
X50237Y38308D01*
X50529Y38059D01*
X50857Y37858D01*
X51212Y37711D01*
X51586Y37621D01*
X51968Y37591D01*
X52351Y37621D01*
X52725Y37711D01*
X53080Y37858D01*
X53408Y38059D01*
X53700Y38308D01*
X53949Y38600D01*
X54150Y38928D01*
X54297Y39283D01*
X54387Y39656D01*
X54417Y40039D01*
X54387Y40422D01*
X54297Y40796D01*
X54150Y41151D01*
X53949Y41479D01*
X53700Y41771D01*
X53408Y42020D01*
X53080Y42221D01*
X52725Y42368D01*
X52351Y42458D01*
X51968Y42488D01*
D02*
G37*
G36*
X65059Y42389D02*
X64676Y42359D01*
X64302Y42270D01*
X63947Y42123D01*
X63620Y41922D01*
X63328Y41672D01*
X63078Y41380D01*
X62877Y41052D01*
X62730Y40698D01*
X62641Y40324D01*
X62611Y39941D01*
X62641Y39558D01*
X62730Y39184D01*
X62877Y38829D01*
X63078Y38502D01*
X63328Y38210D01*
X63620Y37960D01*
X63947Y37759D01*
X64302Y37612D01*
X64676Y37523D01*
X65059Y37492D01*
X65442Y37523D01*
X65816Y37612D01*
X66171Y37759D01*
X66498Y37960D01*
X66790Y38210D01*
X67040Y38502D01*
X67241Y38829D01*
X67388Y39184D01*
X67477Y39558D01*
X67508Y39941D01*
X67477Y40324D01*
X67388Y40698D01*
X67241Y41052D01*
X67040Y41380D01*
X66790Y41672D01*
X66498Y41922D01*
X66171Y42123D01*
X65816Y42270D01*
X65442Y42359D01*
X65059Y42389D01*
D02*
G37*
G36*
X138091Y37291D02*
X137707Y37261D01*
X137334Y37171D01*
X136979Y37024D01*
X136651Y36823D01*
X136359Y36574D01*
X136110Y36282D01*
X135909Y35954D01*
X135762Y35599D01*
X135672Y35225D01*
X135642Y34843D01*
X135672Y34459D01*
X135762Y34086D01*
X135909Y33731D01*
X136110Y33403D01*
X136359Y33111D01*
X136651Y32862D01*
X136979Y32661D01*
X137334Y32514D01*
X137707Y32424D01*
X138091Y32394D01*
X138474Y32424D01*
X138847Y32514D01*
X139202Y32661D01*
X139530Y32862D01*
X139822Y33111D01*
X140071Y33403D01*
X140272Y33731D01*
X140419Y34086D01*
X140509Y34459D01*
X140539Y34843D01*
X140509Y35225D01*
X140419Y35599D01*
X140272Y35954D01*
X140071Y36282D01*
X139822Y36574D01*
X139530Y36823D01*
X139202Y37024D01*
X138847Y37171D01*
X138474Y37261D01*
X138091Y37291D01*
D02*
G37*
G36*
X175492Y31976D02*
X175109Y31946D01*
X174735Y31856D01*
X174381Y31709D01*
X174053Y31508D01*
X173761Y31259D01*
X173511Y30967D01*
X173310Y30639D01*
X173163Y30284D01*
X173074Y29911D01*
X173044Y29528D01*
X173074Y29144D01*
X173163Y28771D01*
X173310Y28416D01*
X173511Y28088D01*
X173761Y27796D01*
X174053Y27547D01*
X174381Y27346D01*
X174401Y27338D01*
Y26796D01*
X174381Y26788D01*
X174053Y26587D01*
X173761Y26338D01*
X173511Y26046D01*
X173310Y25718D01*
X173163Y25363D01*
X173074Y24989D01*
X173044Y24606D01*
X173074Y24223D01*
X173163Y23850D01*
X173310Y23495D01*
X173511Y23167D01*
X173761Y22875D01*
X174053Y22625D01*
X174381Y22425D01*
X174735Y22278D01*
X175109Y22188D01*
X175492Y22158D01*
X175875Y22188D01*
X176249Y22278D01*
X176604Y22425D01*
X176931Y22625D01*
X177224Y22875D01*
X177473Y23167D01*
X177674Y23495D01*
X177821Y23850D01*
X177910Y24223D01*
X177941Y24606D01*
X177910Y24989D01*
X177821Y25363D01*
X177674Y25718D01*
X177473Y26046D01*
X177224Y26338D01*
X176931Y26587D01*
X176604Y26788D01*
X176583Y26796D01*
Y27338D01*
X176604Y27346D01*
X176931Y27547D01*
X177224Y27796D01*
X177473Y28088D01*
X177674Y28416D01*
X177821Y28771D01*
X177910Y29144D01*
X177941Y29528D01*
X177910Y29911D01*
X177821Y30284D01*
X177674Y30639D01*
X177473Y30967D01*
X177224Y31259D01*
X176931Y31508D01*
X176604Y31709D01*
X176249Y31856D01*
X175875Y31946D01*
X175492Y31976D01*
D02*
G37*
G36*
X137303Y30303D02*
X136920Y30273D01*
X136547Y30183D01*
X136192Y30036D01*
X135864Y29835D01*
X135572Y29586D01*
X135322Y29294D01*
X135122Y28966D01*
X134975Y28611D01*
X134885Y28237D01*
X134855Y27854D01*
X134885Y27471D01*
X134975Y27098D01*
X135122Y26743D01*
X135322Y26415D01*
X135491Y26217D01*
X135548Y25876D01*
X135491Y25534D01*
X135322Y25337D01*
X135122Y25009D01*
X134975Y24654D01*
X134885Y24281D01*
X134855Y23898D01*
X134885Y23515D01*
X134975Y23141D01*
X135122Y22786D01*
X135322Y22458D01*
X135572Y22166D01*
X135864Y21917D01*
X136192Y21716D01*
X136547Y21569D01*
X136920Y21479D01*
X137303Y21449D01*
X137686Y21479D01*
X138060Y21569D01*
X138415Y21716D01*
X138742Y21917D01*
X139034Y22166D01*
X139284Y22458D01*
X139485Y22786D01*
X139632Y23141D01*
X139722Y23515D01*
X139752Y23898D01*
X139722Y24281D01*
X139632Y24654D01*
X139485Y25009D01*
X139284Y25337D01*
X139115Y25534D01*
X139058Y25876D01*
X139115Y26217D01*
X139284Y26415D01*
X139485Y26743D01*
X139632Y27098D01*
X139722Y27471D01*
X139752Y27854D01*
X139722Y28237D01*
X139632Y28611D01*
X139485Y28966D01*
X139284Y29294D01*
X139034Y29586D01*
X138742Y29835D01*
X138415Y30036D01*
X138060Y30183D01*
X137686Y30273D01*
X137303Y30303D01*
D02*
G37*
G36*
X232598Y37551D02*
X231999Y37504D01*
X231415Y37364D01*
X230859Y37134D01*
X230347Y36820D01*
X229890Y36429D01*
X229499Y35972D01*
X229185Y35460D01*
X228955Y34904D01*
X228815Y34320D01*
X228768Y33720D01*
X228815Y33121D01*
X228955Y32537D01*
X229185Y31981D01*
X229499Y31469D01*
X229890Y31012D01*
X230347Y30621D01*
X230859Y30307D01*
X231415Y30077D01*
X231999Y29937D01*
X232598Y29890D01*
X233198Y29937D01*
X233782Y30077D01*
X234337Y30307D01*
X234850Y30621D01*
X235307Y31012D01*
X235698Y31469D01*
X236012Y31981D01*
X236242Y32537D01*
X236382Y33121D01*
X236429Y33720D01*
X236382Y34320D01*
X236242Y34904D01*
X236012Y35460D01*
X235698Y35972D01*
X235307Y36429D01*
X234850Y36820D01*
X234337Y37134D01*
X233782Y37364D01*
X233198Y37504D01*
X232598Y37551D01*
D02*
G37*
G36*
X223701D02*
X223101Y37504D01*
X222517Y37364D01*
X221962Y37134D01*
X221449Y36820D01*
X220992Y36429D01*
X220602Y35972D01*
X220288Y35460D01*
X220058Y34904D01*
X219917Y34320D01*
X219870Y33720D01*
X219917Y33121D01*
X220058Y32537D01*
X220288Y31981D01*
X220602Y31469D01*
X220992Y31012D01*
X221449Y30621D01*
X221962Y30307D01*
X222517Y30077D01*
X223101Y29937D01*
X223701Y29890D01*
X224300Y29937D01*
X224885Y30077D01*
X225440Y30307D01*
X225952Y30621D01*
X226410Y31012D01*
X226800Y31469D01*
X227114Y31981D01*
X227344Y32537D01*
X227484Y33121D01*
X227532Y33720D01*
X227484Y34320D01*
X227344Y34904D01*
X227114Y35460D01*
X226800Y35972D01*
X226410Y36429D01*
X225952Y36820D01*
X225440Y37134D01*
X224885Y37364D01*
X224300Y37504D01*
X223701Y37551D01*
D02*
G37*
G36*
X175295Y81484D02*
X174912Y81454D01*
X174539Y81364D01*
X174184Y81217D01*
X173856Y81016D01*
X173564Y80767D01*
X173314Y80475D01*
X173114Y80147D01*
X172967Y79792D01*
X172877Y79418D01*
X172847Y79035D01*
X172877Y78652D01*
X172967Y78279D01*
X173114Y77924D01*
X173314Y77596D01*
X173564Y77304D01*
X173856Y77055D01*
X174184Y76854D01*
X174539Y76707D01*
X174912Y76617D01*
X175295Y76587D01*
X175678Y76617D01*
X176052Y76707D01*
X176407Y76854D01*
X176734Y77055D01*
X177027Y77304D01*
X177276Y77596D01*
X177477Y77924D01*
X177624Y78279D01*
X177714Y78652D01*
X177744Y79035D01*
X177714Y79418D01*
X177624Y79792D01*
X177477Y80147D01*
X177276Y80475D01*
X177027Y80767D01*
X176734Y81016D01*
X176407Y81217D01*
X176052Y81364D01*
X175678Y81454D01*
X175295Y81484D01*
D02*
G37*
G36*
X22933Y129675D02*
X22430Y129636D01*
X21938Y129518D01*
X21472Y129324D01*
X21041Y129061D01*
X20657Y128733D01*
X20329Y128349D01*
X20065Y127918D01*
X19872Y127451D01*
X19754Y126960D01*
X19715Y126457D01*
X19754Y125953D01*
X19872Y125462D01*
X20065Y124996D01*
X20329Y124565D01*
X20657Y124181D01*
X21041Y123853D01*
X21472Y123589D01*
X21938Y123396D01*
X22430Y123278D01*
X22933Y123238D01*
X23437Y123278D01*
X23928Y123396D01*
X24394Y123589D01*
X24825Y123853D01*
X25209Y124181D01*
X25537Y124565D01*
X25801Y124996D01*
X25994Y125462D01*
X26112Y125953D01*
X26152Y126457D01*
X26112Y126960D01*
X25994Y127451D01*
X25801Y127918D01*
X25537Y128349D01*
X25209Y128733D01*
X24825Y129061D01*
X24394Y129324D01*
X23928Y129518D01*
X23437Y129636D01*
X22933Y129675D01*
D02*
G37*
G36*
X175098Y125480D02*
X174715Y125450D01*
X174342Y125360D01*
X173987Y125213D01*
X173659Y125012D01*
X173367Y124763D01*
X173118Y124471D01*
X172917Y124143D01*
X172770Y123788D01*
X172680Y123415D01*
X172650Y123031D01*
X172680Y122649D01*
X172770Y122275D01*
X172917Y121920D01*
X173118Y121592D01*
X173367Y121300D01*
X173659Y121051D01*
X173987Y120850D01*
X174342Y120703D01*
X174715Y120613D01*
X175098Y120583D01*
X175481Y120613D01*
X175855Y120703D01*
X176210Y120850D01*
X176538Y121051D01*
X176830Y121300D01*
X177079Y121592D01*
X177280Y121920D01*
X177427Y122275D01*
X177517Y122649D01*
X177547Y123031D01*
X177517Y123415D01*
X177427Y123788D01*
X177280Y124143D01*
X177079Y124471D01*
X176830Y124763D01*
X176538Y125012D01*
X176210Y125213D01*
X175855Y125360D01*
X175481Y125450D01*
X175098Y125480D01*
D02*
G37*
G36*
X111024Y131976D02*
X110641Y131946D01*
X110267Y131856D01*
X109912Y131709D01*
X109584Y131508D01*
X109292Y131259D01*
X109043Y130967D01*
X108842Y130639D01*
X108695Y130284D01*
X108605Y129911D01*
X108575Y129528D01*
X108605Y129145D01*
X108695Y128771D01*
X108842Y128416D01*
X109043Y128088D01*
X109292Y127796D01*
X109584Y127547D01*
X109912Y127346D01*
X110267Y127199D01*
X110641Y127109D01*
X111024Y127079D01*
X111407Y127109D01*
X111780Y127199D01*
X112135Y127346D01*
X112463Y127547D01*
X112755Y127796D01*
X113005Y128088D01*
X113205Y128416D01*
X113352Y128771D01*
X113442Y129145D01*
X113472Y129528D01*
X113442Y129911D01*
X113352Y130284D01*
X113205Y130639D01*
X113005Y130967D01*
X112755Y131259D01*
X112463Y131508D01*
X112135Y131709D01*
X111780Y131856D01*
X111407Y131946D01*
X111024Y131976D01*
D02*
G37*
G36*
X175098Y130893D02*
X174715Y130863D01*
X174342Y130773D01*
X173987Y130626D01*
X173659Y130426D01*
X173367Y130176D01*
X173118Y129884D01*
X172917Y129557D01*
X172770Y129201D01*
X172680Y128828D01*
X172650Y128445D01*
X172680Y128062D01*
X172770Y127688D01*
X172917Y127333D01*
X173118Y127006D01*
X173367Y126714D01*
X173659Y126464D01*
X173987Y126263D01*
X174342Y126116D01*
X174715Y126026D01*
X175098Y125996D01*
X175481Y126026D01*
X175855Y126116D01*
X176210Y126263D01*
X176538Y126464D01*
X176830Y126714D01*
X177079Y127006D01*
X177280Y127333D01*
X177427Y127688D01*
X177517Y128062D01*
X177547Y128445D01*
X177517Y128828D01*
X177427Y129201D01*
X177280Y129557D01*
X177079Y129884D01*
X176830Y130176D01*
X176538Y130426D01*
X176210Y130626D01*
X175855Y130773D01*
X175481Y130863D01*
X175098Y130893D01*
D02*
G37*
G36*
X232598Y128024D02*
X231999Y127976D01*
X231415Y127836D01*
X230859Y127606D01*
X230347Y127292D01*
X229890Y126902D01*
X229499Y126444D01*
X229185Y125932D01*
X228955Y125377D01*
X228815Y124792D01*
X228768Y124193D01*
X228815Y123594D01*
X228955Y123009D01*
X229185Y122454D01*
X229499Y121941D01*
X229890Y121484D01*
X230347Y121094D01*
X230859Y120780D01*
X231415Y120550D01*
X231999Y120409D01*
X232598Y120362D01*
X233198Y120409D01*
X233782Y120550D01*
X234337Y120780D01*
X234850Y121094D01*
X235307Y121484D01*
X235698Y121941D01*
X236012Y122454D01*
X236242Y123009D01*
X236382Y123594D01*
X236429Y124193D01*
X236382Y124792D01*
X236242Y125377D01*
X236012Y125932D01*
X235698Y126444D01*
X235307Y126902D01*
X234850Y127292D01*
X234337Y127606D01*
X233782Y127836D01*
X233198Y127976D01*
X232598Y128024D01*
D02*
G37*
G36*
X111024Y125086D02*
X110641Y125056D01*
X110267Y124967D01*
X109912Y124819D01*
X109584Y124619D01*
X109292Y124369D01*
X109043Y124077D01*
X108842Y123749D01*
X108695Y123394D01*
X108605Y123021D01*
X108575Y122638D01*
X108605Y122255D01*
X108695Y121881D01*
X108842Y121526D01*
X109043Y121199D01*
X109292Y120906D01*
X109584Y120657D01*
X109912Y120456D01*
X110267Y120309D01*
X110641Y120220D01*
X111024Y120189D01*
X111407Y120220D01*
X111780Y120309D01*
X112135Y120456D01*
X112463Y120657D01*
X112755Y120906D01*
X113005Y121199D01*
X113205Y121526D01*
X113352Y121881D01*
X113442Y122255D01*
X113472Y122638D01*
X113442Y123021D01*
X113352Y123394D01*
X113205Y123749D01*
X113005Y124077D01*
X112755Y124369D01*
X112463Y124619D01*
X112135Y124819D01*
X111780Y124967D01*
X111407Y125056D01*
X111024Y125086D01*
D02*
G37*
G36*
X247146Y124771D02*
X246763Y124741D01*
X246389Y124652D01*
X246034Y124504D01*
X245707Y124304D01*
X245414Y124054D01*
X245165Y123762D01*
X244964Y123434D01*
X244817Y123080D01*
X244727Y122706D01*
X244697Y122323D01*
X244727Y121940D01*
X244817Y121566D01*
X244964Y121211D01*
X245165Y120884D01*
X245414Y120591D01*
X245707Y120342D01*
X246034Y120141D01*
X246389Y119994D01*
X246763Y119904D01*
X247146Y119874D01*
X247529Y119904D01*
X247902Y119994D01*
X248257Y120141D01*
X248585Y120342D01*
X248877Y120591D01*
X249127Y120884D01*
X249327Y121211D01*
X249474Y121566D01*
X249564Y121940D01*
X249594Y122323D01*
X249564Y122706D01*
X249474Y123080D01*
X249327Y123434D01*
X249127Y123762D01*
X248877Y124054D01*
X248585Y124304D01*
X248257Y124504D01*
X247902Y124652D01*
X247529Y124741D01*
X247146Y124771D01*
D02*
G37*
G36*
X223701Y128024D02*
X223101Y127976D01*
X222517Y127836D01*
X221962Y127606D01*
X221449Y127292D01*
X220992Y126902D01*
X220602Y126444D01*
X220288Y125932D01*
X220058Y125377D01*
X219917Y124792D01*
X219870Y124193D01*
X219917Y123594D01*
X220058Y123009D01*
X220288Y122454D01*
X220602Y121941D01*
X220992Y121484D01*
X221449Y121094D01*
X221962Y120780D01*
X222517Y120550D01*
X223101Y120409D01*
X223701Y120362D01*
X224300Y120409D01*
X224885Y120550D01*
X225440Y120780D01*
X225952Y121094D01*
X226410Y121484D01*
X226800Y121941D01*
X227114Y122454D01*
X227344Y123009D01*
X227484Y123594D01*
X227532Y124193D01*
X227484Y124792D01*
X227344Y125377D01*
X227114Y125932D01*
X226800Y126444D01*
X226410Y126902D01*
X225952Y127292D01*
X225440Y127606D01*
X224885Y127836D01*
X224300Y127976D01*
X223701Y128024D01*
D02*
G37*
G36*
X138287Y129122D02*
X137904Y129092D01*
X137531Y129002D01*
X137176Y128855D01*
X136848Y128654D01*
X136556Y128405D01*
X136307Y128112D01*
X136106Y127785D01*
X135959Y127430D01*
X135869Y127056D01*
X135839Y126673D01*
X135869Y126290D01*
X135959Y125917D01*
X136106Y125562D01*
X136307Y125234D01*
X136556Y124942D01*
Y124369D01*
X136307Y124077D01*
X136106Y123749D01*
X135959Y123394D01*
X135869Y123021D01*
X135839Y122638D01*
X135869Y122255D01*
X135959Y121881D01*
X136106Y121526D01*
X136307Y121199D01*
X136556Y120906D01*
X136848Y120657D01*
X137176Y120456D01*
X137531Y120309D01*
X137904Y120220D01*
X138287Y120189D01*
X138670Y120220D01*
X139044Y120309D01*
X139399Y120456D01*
X139727Y120657D01*
X140019Y120906D01*
X140268Y121199D01*
X140469Y121526D01*
X140616Y121881D01*
X140706Y122255D01*
X140736Y122638D01*
X140706Y123021D01*
X140616Y123394D01*
X140469Y123749D01*
X140268Y124077D01*
X140019Y124369D01*
Y124942D01*
X140268Y125234D01*
X140469Y125562D01*
X140616Y125917D01*
X140706Y126290D01*
X140736Y126673D01*
X140706Y127056D01*
X140616Y127430D01*
X140469Y127785D01*
X140268Y128112D01*
X140019Y128405D01*
X139727Y128654D01*
X139399Y128855D01*
X139044Y129002D01*
X138670Y129092D01*
X138287Y129122D01*
D02*
G37*
G36*
X137008Y142389D02*
X136625Y142359D01*
X136251Y142270D01*
X135896Y142123D01*
X135569Y141922D01*
X135276Y141672D01*
X135027Y141380D01*
X134826Y141052D01*
X134679Y140698D01*
X134590Y140324D01*
X134559Y139941D01*
X134590Y139558D01*
X134679Y139184D01*
X134826Y138829D01*
X135027Y138502D01*
X135276Y138210D01*
X135569Y137960D01*
X135896Y137759D01*
X136251Y137612D01*
X136625Y137523D01*
X137008Y137493D01*
X137391Y137523D01*
X137765Y137612D01*
X138119Y137759D01*
X138447Y137960D01*
X138739Y138210D01*
X138989Y138502D01*
X139190Y138829D01*
X139337Y139184D01*
X139426Y139558D01*
X139456Y139941D01*
X139426Y140324D01*
X139337Y140698D01*
X139190Y141052D01*
X138989Y141380D01*
X138739Y141672D01*
X138447Y141922D01*
X138119Y142123D01*
X137765Y142270D01*
X137391Y142359D01*
X137008Y142389D01*
D02*
G37*
G36*
X111909D02*
X111526Y142359D01*
X111153Y142270D01*
X110798Y142123D01*
X110470Y141922D01*
X110178Y141672D01*
X109929Y141380D01*
X109728Y141052D01*
X109581Y140698D01*
X109491Y140324D01*
X109461Y139941D01*
X109491Y139558D01*
X109581Y139184D01*
X109728Y138829D01*
X109929Y138502D01*
X110178Y138210D01*
X110470Y137960D01*
X110798Y137759D01*
X111153Y137612D01*
X111526Y137523D01*
X111909Y137493D01*
X112293Y137523D01*
X112666Y137612D01*
X113021Y137759D01*
X113349Y137960D01*
X113641Y138210D01*
X113890Y138502D01*
X114091Y138829D01*
X114238Y139184D01*
X114328Y139558D01*
X114358Y139941D01*
X114328Y140324D01*
X114238Y140698D01*
X114091Y141052D01*
X113890Y141380D01*
X113641Y141672D01*
X113349Y141922D01*
X113021Y142123D01*
X112666Y142270D01*
X112293Y142359D01*
X111909Y142389D01*
D02*
G37*
G36*
X71752Y152429D02*
X71369Y152399D01*
X70995Y152309D01*
X70640Y152162D01*
X70313Y151961D01*
X70021Y151712D01*
X69771Y151419D01*
X69570Y151092D01*
X69423Y150737D01*
X69334Y150363D01*
X69304Y149980D01*
X69334Y149597D01*
X69423Y149224D01*
X69570Y148869D01*
X69771Y148541D01*
X70021Y148249D01*
X70313Y147999D01*
X70640Y147799D01*
X70995Y147652D01*
X71369Y147562D01*
X71752Y147532D01*
X72135Y147562D01*
X72509Y147652D01*
X72864Y147799D01*
X73191Y147999D01*
X73483Y148249D01*
X73733Y148541D01*
X73934Y148869D01*
X74081Y149224D01*
X74170Y149597D01*
X74200Y149980D01*
X74170Y150363D01*
X74081Y150737D01*
X73934Y151092D01*
X73733Y151419D01*
X73483Y151712D01*
X73191Y151961D01*
X72864Y152162D01*
X72509Y152309D01*
X72135Y152399D01*
X71752Y152429D01*
D02*
G37*
G36*
X214075Y152724D02*
X213692Y152694D01*
X213318Y152604D01*
X212963Y152457D01*
X212636Y152257D01*
X212344Y152007D01*
X212094Y151715D01*
X211893Y151387D01*
X211746Y151032D01*
X211656Y150659D01*
X211626Y150276D01*
X211656Y149893D01*
X211746Y149519D01*
X211893Y149164D01*
X212094Y148836D01*
X212344Y148544D01*
X212487Y148421D01*
X212537Y148257D01*
Y147964D01*
X212487Y147799D01*
X212344Y147676D01*
X212094Y147384D01*
X211893Y147056D01*
X211746Y146702D01*
X211656Y146328D01*
X211626Y145945D01*
X211656Y145562D01*
X211746Y145188D01*
X211893Y144833D01*
X212094Y144506D01*
X212344Y144213D01*
X212636Y143964D01*
X212788Y143871D01*
X212825Y143771D01*
Y143394D01*
X212788Y143295D01*
X212636Y143201D01*
X212344Y142952D01*
X212094Y142660D01*
X211893Y142332D01*
X211746Y141977D01*
X211656Y141604D01*
X211626Y141220D01*
X211656Y140837D01*
X211746Y140464D01*
X211893Y140109D01*
X212094Y139781D01*
X212344Y139489D01*
X212636Y139240D01*
X212963Y139039D01*
X213318Y138892D01*
X213692Y138802D01*
X214075Y138772D01*
X214458Y138802D01*
X214831Y138892D01*
X215186Y139039D01*
X215514Y139240D01*
X215806Y139489D01*
X216056Y139781D01*
X216256Y140109D01*
X216404Y140464D01*
X216493Y140837D01*
X216523Y141220D01*
X216493Y141604D01*
X216404Y141977D01*
X216256Y142332D01*
X216056Y142660D01*
X215806Y142952D01*
X215514Y143201D01*
X215362Y143295D01*
X215324Y143394D01*
Y143771D01*
X215362Y143871D01*
X215514Y143964D01*
X215806Y144213D01*
X216056Y144506D01*
X216256Y144833D01*
X216404Y145188D01*
X216493Y145562D01*
X216523Y145945D01*
X216493Y146328D01*
X216404Y146702D01*
X216256Y147056D01*
X216056Y147384D01*
X215806Y147676D01*
X215662Y147799D01*
X215613Y147964D01*
Y148257D01*
X215662Y148421D01*
X215806Y148544D01*
X216056Y148836D01*
X216256Y149164D01*
X216404Y149519D01*
X216493Y149893D01*
X216523Y150276D01*
X216493Y150659D01*
X216404Y151032D01*
X216256Y151387D01*
X216056Y151715D01*
X215806Y152007D01*
X215514Y152257D01*
X215186Y152457D01*
X214831Y152604D01*
X214458Y152694D01*
X214075Y152724D01*
D02*
G37*
G36*
X57579Y140421D02*
X57196Y140391D01*
X56822Y140301D01*
X56467Y140154D01*
X56139Y139953D01*
X55847Y139704D01*
X55598Y139412D01*
X55397Y139084D01*
X55250Y138729D01*
X55160Y138356D01*
X55130Y137972D01*
X55160Y137589D01*
X55250Y137216D01*
X55397Y136861D01*
X55598Y136533D01*
X55847Y136241D01*
X56139Y135992D01*
X56467Y135791D01*
X56822Y135644D01*
X57196Y135554D01*
X57579Y135524D01*
X57962Y135554D01*
X58335Y135644D01*
X58690Y135791D01*
X59018Y135992D01*
X59310Y136241D01*
X59560Y136533D01*
X59760Y136861D01*
X59907Y137216D01*
X59997Y137589D01*
X60027Y137972D01*
X59997Y138356D01*
X59907Y138729D01*
X59760Y139084D01*
X59560Y139412D01*
X59310Y139704D01*
X59018Y139953D01*
X58690Y140154D01*
X58335Y140301D01*
X57962Y140391D01*
X57579Y140421D01*
D02*
G37*
G36*
X214075Y137882D02*
X213692Y137851D01*
X213318Y137762D01*
X212963Y137615D01*
X212636Y137414D01*
X212344Y137164D01*
X212094Y136872D01*
X211893Y136545D01*
X211746Y136190D01*
X211656Y135816D01*
X211626Y135433D01*
X211656Y135050D01*
X211746Y134676D01*
X211893Y134321D01*
X212094Y133994D01*
X212344Y133702D01*
X212636Y133452D01*
X212963Y133251D01*
X213318Y133104D01*
X213692Y133015D01*
X214075Y132985D01*
X214458Y133015D01*
X214831Y133104D01*
X215186Y133251D01*
X215514Y133452D01*
X215806Y133702D01*
X216056Y133994D01*
X216256Y134321D01*
X216404Y134676D01*
X216493Y135050D01*
X216523Y135433D01*
X216493Y135816D01*
X216404Y136190D01*
X216256Y136545D01*
X216056Y136872D01*
X215806Y137164D01*
X215514Y137414D01*
X215186Y137615D01*
X214831Y137762D01*
X214458Y137851D01*
X214075Y137882D01*
D02*
G37*
G36*
X137402Y135913D02*
X137019Y135883D01*
X136645Y135793D01*
X136290Y135646D01*
X135962Y135445D01*
X135670Y135196D01*
X135421Y134904D01*
X135220Y134576D01*
X135073Y134221D01*
X134983Y133848D01*
X134953Y133465D01*
X134983Y133081D01*
X135073Y132708D01*
X135220Y132353D01*
X135421Y132025D01*
X135670Y131733D01*
X135962Y131484D01*
X136290Y131283D01*
X136645Y131136D01*
X137019Y131046D01*
X137402Y131016D01*
X137785Y131046D01*
X138158Y131136D01*
X138513Y131283D01*
X138841Y131484D01*
X139133Y131733D01*
X139382Y132025D01*
X139583Y132353D01*
X139730Y132708D01*
X139820Y133081D01*
X139850Y133465D01*
X139820Y133848D01*
X139730Y134221D01*
X139583Y134576D01*
X139382Y134904D01*
X139133Y135196D01*
X138841Y135445D01*
X138513Y135646D01*
X138158Y135793D01*
X137785Y135883D01*
X137402Y135913D01*
D02*
G37*
G36*
X52165Y140322D02*
X51782Y140292D01*
X51409Y140203D01*
X51054Y140056D01*
X50726Y139855D01*
X50434Y139605D01*
X50185Y139313D01*
X49984Y138986D01*
X49837Y138631D01*
X49747Y138257D01*
X49717Y137874D01*
X49747Y137491D01*
X49837Y137117D01*
X49984Y136762D01*
X50185Y136435D01*
X50434Y136143D01*
X50726Y135893D01*
X51054Y135692D01*
X51409Y135545D01*
X51782Y135456D01*
X52165Y135425D01*
X52548Y135456D01*
X52922Y135545D01*
X53277Y135692D01*
X53605Y135893D01*
X53897Y136143D01*
X54146Y136435D01*
X54347Y136762D01*
X54494Y137117D01*
X54584Y137491D01*
X54614Y137874D01*
X54584Y138257D01*
X54494Y138631D01*
X54347Y138986D01*
X54146Y139313D01*
X53897Y139605D01*
X53605Y139855D01*
X53277Y140056D01*
X52922Y140203D01*
X52548Y140292D01*
X52165Y140322D01*
D02*
G37*
G36*
X39173Y139338D02*
X38790Y139308D01*
X38417Y139218D01*
X38062Y139071D01*
X37734Y138871D01*
X37442Y138621D01*
X37192Y138329D01*
X36992Y138001D01*
X36845Y137646D01*
X36755Y137273D01*
X36725Y136890D01*
X36755Y136507D01*
X36845Y136133D01*
X36992Y135778D01*
X37192Y135451D01*
X37442Y135158D01*
X37734Y134909D01*
X38062Y134708D01*
X38417Y134561D01*
X38790Y134471D01*
X39173Y134441D01*
X39556Y134471D01*
X39930Y134561D01*
X40285Y134708D01*
X40612Y134909D01*
X40905Y135158D01*
X41154Y135451D01*
X41355Y135778D01*
X41502Y136133D01*
X41592Y136507D01*
X41622Y136890D01*
X41592Y137273D01*
X41502Y137646D01*
X41355Y138001D01*
X41154Y138329D01*
X40905Y138621D01*
X40612Y138871D01*
X40285Y139071D01*
X39930Y139218D01*
X39556Y139308D01*
X39173Y139338D01*
D02*
G37*
G36*
X57087Y119358D02*
X56704Y119328D01*
X56330Y119238D01*
X55975Y119091D01*
X55647Y118890D01*
X55355Y118641D01*
X55290Y118564D01*
X55220Y118531D01*
X54721D01*
X54651Y118564D01*
X54586Y118641D01*
X54294Y118890D01*
X53966Y119091D01*
X53611Y119238D01*
X53237Y119328D01*
X52854Y119358D01*
X52471Y119328D01*
X52098Y119238D01*
X51743Y119091D01*
X51415Y118890D01*
X51123Y118641D01*
X50874Y118349D01*
X50673Y118021D01*
X50526Y117666D01*
X50436Y117292D01*
X50406Y116909D01*
X50436Y116526D01*
X50526Y116153D01*
X50673Y115798D01*
X50874Y115470D01*
X51123Y115178D01*
X51415Y114929D01*
X51743Y114728D01*
X52098Y114581D01*
X52471Y114491D01*
X52854Y114461D01*
X53237Y114491D01*
X53611Y114581D01*
X53966Y114728D01*
X54294Y114929D01*
X54586Y115178D01*
X54651Y115255D01*
X54721Y115288D01*
X55220D01*
X55290Y115255D01*
X55355Y115178D01*
X55647Y114929D01*
X55975Y114728D01*
X56330Y114581D01*
X56704Y114491D01*
X57087Y114461D01*
X57470Y114491D01*
X57843Y114581D01*
X58198Y114728D01*
X58526Y114929D01*
X58818Y115178D01*
X59067Y115470D01*
X59268Y115798D01*
X59415Y116153D01*
X59505Y116526D01*
X59535Y116909D01*
X59505Y117292D01*
X59415Y117666D01*
X59268Y118021D01*
X59067Y118349D01*
X58818Y118641D01*
X58526Y118890D01*
X58198Y119091D01*
X57843Y119238D01*
X57470Y119328D01*
X57087Y119358D01*
D02*
G37*
G36*
X22933Y94242D02*
X22430Y94203D01*
X21938Y94085D01*
X21472Y93891D01*
X21041Y93628D01*
X20657Y93300D01*
X20329Y92915D01*
X20065Y92485D01*
X19872Y92018D01*
X19754Y91527D01*
X19715Y91024D01*
X19754Y90520D01*
X19872Y90029D01*
X20065Y89562D01*
X20329Y89132D01*
X20657Y88748D01*
X21041Y88420D01*
X21472Y88156D01*
X21938Y87963D01*
X22430Y87845D01*
X22933Y87805D01*
X23437Y87845D01*
X23928Y87963D01*
X24394Y88156D01*
X24825Y88420D01*
X25209Y88748D01*
X25537Y89132D01*
X25801Y89562D01*
X25994Y90029D01*
X26112Y90520D01*
X26152Y91024D01*
X26112Y91527D01*
X25994Y92018D01*
X25801Y92485D01*
X25537Y92915D01*
X25209Y93300D01*
X24825Y93628D01*
X24394Y93891D01*
X23928Y94085D01*
X23437Y94203D01*
X22933Y94242D01*
D02*
G37*
G36*
X112008Y91504D02*
X111625Y91474D01*
X111251Y91384D01*
X110896Y91237D01*
X110569Y91036D01*
X110276Y90786D01*
X110027Y90494D01*
X109826Y90167D01*
X109679Y89812D01*
X109590Y89438D01*
X109559Y89055D01*
X109590Y88672D01*
X109679Y88298D01*
X109826Y87944D01*
X110027Y87616D01*
X110276Y87324D01*
X110569Y87074D01*
X110896Y86874D01*
X111251Y86726D01*
X111625Y86637D01*
X112008Y86607D01*
X112391Y86637D01*
X112765Y86726D01*
X113119Y86874D01*
X113447Y87074D01*
X113739Y87324D01*
X113989Y87616D01*
X114190Y87944D01*
X114337Y88298D01*
X114426Y88672D01*
X114456Y89055D01*
X114426Y89438D01*
X114337Y89812D01*
X114190Y90167D01*
X113989Y90494D01*
X113739Y90786D01*
X113447Y91036D01*
X113119Y91237D01*
X112765Y91384D01*
X112391Y91474D01*
X112008Y91504D01*
D02*
G37*
G36*
X145551Y104614D02*
X145168Y104584D01*
X144795Y104494D01*
X144440Y104347D01*
X144112Y104146D01*
X143820Y103897D01*
X143570Y103604D01*
X143370Y103277D01*
X143222Y102922D01*
X143133Y102548D01*
X143103Y102165D01*
X143133Y101782D01*
X143222Y101409D01*
X143370Y101054D01*
X143570Y100726D01*
X143820Y100434D01*
X144112Y100185D01*
X144440Y99984D01*
X144795Y99837D01*
X145168Y99747D01*
X145551Y99717D01*
X145934Y99747D01*
X146308Y99837D01*
X146663Y99984D01*
X146990Y100185D01*
X147283Y100434D01*
X147532Y100726D01*
X147733Y101054D01*
X147880Y101409D01*
X147969Y101782D01*
X148000Y102165D01*
X147969Y102548D01*
X147880Y102922D01*
X147733Y103277D01*
X147532Y103604D01*
X147283Y103897D01*
X146990Y104146D01*
X146663Y104347D01*
X146308Y104494D01*
X145934Y104584D01*
X145551Y104614D01*
D02*
G37*
G36*
X68740Y104299D02*
X68357Y104269D01*
X67984Y104179D01*
X67629Y104032D01*
X67301Y103831D01*
X67009Y103582D01*
X66759Y103290D01*
X66558Y102962D01*
X66412Y102607D01*
X66322Y102233D01*
X66292Y101850D01*
X66322Y101467D01*
X66412Y101094D01*
X66558Y100739D01*
X66759Y100411D01*
X67009Y100119D01*
X67301Y99870D01*
X67629Y99669D01*
X67984Y99522D01*
X68357Y99432D01*
X68740Y99402D01*
X69123Y99432D01*
X69497Y99522D01*
X69852Y99669D01*
X70179Y99870D01*
X70472Y100119D01*
X70721Y100411D01*
X70922Y100739D01*
X71069Y101094D01*
X71158Y101467D01*
X71189Y101850D01*
X71158Y102233D01*
X71069Y102607D01*
X70922Y102962D01*
X70721Y103290D01*
X70472Y103582D01*
X70179Y103831D01*
X69852Y104032D01*
X69497Y104179D01*
X69123Y104269D01*
X68740Y104299D01*
D02*
G37*
G36*
X137106Y91405D02*
X136723Y91375D01*
X136350Y91285D01*
X135995Y91138D01*
X135667Y90938D01*
X135375Y90688D01*
X135125Y90396D01*
X134925Y90068D01*
X134778Y89713D01*
X134688Y89340D01*
X134658Y88957D01*
X134688Y88574D01*
X134778Y88200D01*
X134925Y87845D01*
X135125Y87517D01*
X135375Y87225D01*
X135667Y86976D01*
X135995Y86775D01*
X136350Y86628D01*
X136723Y86538D01*
X137106Y86508D01*
X137489Y86538D01*
X137863Y86628D01*
X138218Y86775D01*
X138546Y86976D01*
X138838Y87225D01*
X139087Y87517D01*
X139288Y87845D01*
X139435Y88200D01*
X139525Y88574D01*
X139555Y88957D01*
X139525Y89340D01*
X139435Y89713D01*
X139288Y90068D01*
X139087Y90396D01*
X138838Y90688D01*
X138546Y90938D01*
X138218Y91138D01*
X137863Y91285D01*
X137489Y91375D01*
X137106Y91405D01*
D02*
G37*
G36*
X10039Y86700D02*
X9656Y86670D01*
X9283Y86581D01*
X8928Y86434D01*
X8600Y86233D01*
X8308Y85983D01*
X8059Y85691D01*
X7858Y85364D01*
X7711Y85009D01*
X7621Y84635D01*
X7591Y84252D01*
X7621Y83869D01*
X7711Y83495D01*
X7858Y83140D01*
X8059Y82813D01*
X8308Y82521D01*
X8600Y82271D01*
X8928Y82070D01*
X9283Y81923D01*
X9656Y81834D01*
X10039Y81804D01*
X10422Y81834D01*
X10796Y81923D01*
X11151Y82070D01*
X11479Y82271D01*
X11771Y82521D01*
X12020Y82813D01*
X12221Y83140D01*
X12368Y83495D01*
X12458Y83869D01*
X12488Y84252D01*
X12458Y84635D01*
X12368Y85009D01*
X12221Y85364D01*
X12020Y85691D01*
X11771Y85983D01*
X11479Y86233D01*
X11151Y86434D01*
X10796Y86581D01*
X10422Y86670D01*
X10039Y86700D01*
D02*
G37*
G36*
X184646Y84633D02*
X184263Y84603D01*
X183889Y84514D01*
X183534Y84367D01*
X183206Y84166D01*
X182914Y83916D01*
X182665Y83624D01*
X182464Y83297D01*
X182317Y82942D01*
X182227Y82568D01*
X182197Y82185D01*
X182227Y81802D01*
X182317Y81428D01*
X182464Y81073D01*
X182665Y80746D01*
X182914Y80454D01*
X183206Y80204D01*
X183534Y80003D01*
X183889Y79856D01*
X184263Y79767D01*
X184646Y79737D01*
X185029Y79767D01*
X185402Y79856D01*
X185757Y80003D01*
X186085Y80204D01*
X186377Y80454D01*
X186627Y80746D01*
X186827Y81073D01*
X186974Y81428D01*
X187064Y81802D01*
X187094Y82185D01*
X187064Y82568D01*
X186974Y82942D01*
X186827Y83297D01*
X186627Y83624D01*
X186377Y83916D01*
X186085Y84166D01*
X185757Y84367D01*
X185402Y84514D01*
X185029Y84603D01*
X184646Y84633D01*
D02*
G37*
G36*
X223228Y89634D02*
X222845Y89603D01*
X222472Y89514D01*
X222117Y89367D01*
X221789Y89166D01*
X221497Y88916D01*
X221248Y88624D01*
X221047Y88297D01*
X220900Y87942D01*
X220810Y87568D01*
X220780Y87185D01*
X220810Y86802D01*
X220900Y86428D01*
X221047Y86073D01*
X221248Y85746D01*
X221497Y85454D01*
X221789Y85204D01*
X222117Y85003D01*
X222472Y84856D01*
X222845Y84767D01*
X223228Y84737D01*
X223611Y84767D01*
X223985Y84856D01*
X224340Y85003D01*
X224668Y85204D01*
X224960Y85454D01*
X225209Y85746D01*
X225410Y86073D01*
X225557Y86428D01*
X225647Y86802D01*
X225677Y87185D01*
X225647Y87568D01*
X225557Y87942D01*
X225410Y88297D01*
X225209Y88624D01*
X224960Y88916D01*
X224668Y89166D01*
X224340Y89367D01*
X223985Y89514D01*
X223611Y89603D01*
X223228Y89634D01*
D02*
G37*
G36*
X217028Y89142D02*
X216614Y89109D01*
X216210Y89012D01*
X215826Y88854D01*
X215472Y88637D01*
X215157Y88367D01*
X214887Y88051D01*
X214670Y87697D01*
X214511Y87314D01*
X214414Y86910D01*
X214382Y86496D01*
X214414Y86082D01*
X214511Y85678D01*
X214670Y85295D01*
X214887Y84941D01*
X215157Y84625D01*
X215472Y84355D01*
X215826Y84139D01*
X216210Y83980D01*
X216614Y83883D01*
X217028Y83850D01*
X217442Y83883D01*
X217845Y83980D01*
X218229Y84139D01*
X218583Y84355D01*
X218899Y84625D01*
X219168Y84941D01*
X219385Y85295D01*
X219544Y85678D01*
X219641Y86082D01*
X219673Y86496D01*
X219641Y86910D01*
X219544Y87314D01*
X219385Y87697D01*
X219168Y88051D01*
X218899Y88367D01*
X218583Y88637D01*
X218229Y88854D01*
X217845Y89012D01*
X217442Y89109D01*
X217028Y89142D01*
D02*
G37*
G36*
X179331Y111602D02*
X178948Y111572D01*
X178574Y111482D01*
X178219Y111335D01*
X177892Y111134D01*
X177599Y110885D01*
X177350Y110593D01*
X177149Y110265D01*
X177002Y109910D01*
X176912Y109537D01*
X176882Y109153D01*
X176912Y108771D01*
X177002Y108397D01*
X177149Y108042D01*
X177350Y107714D01*
X177599Y107422D01*
X177892Y107173D01*
X178219Y106972D01*
X178574Y106825D01*
X178948Y106735D01*
X179331Y106705D01*
X179714Y106735D01*
X180087Y106825D01*
X180442Y106972D01*
X180770Y107173D01*
X181062Y107422D01*
X181312Y107714D01*
X181512Y108042D01*
X181659Y108397D01*
X181749Y108771D01*
X181779Y109153D01*
X181749Y109537D01*
X181659Y109910D01*
X181512Y110265D01*
X181312Y110593D01*
X181062Y110885D01*
X180770Y111134D01*
X180442Y111335D01*
X180087Y111482D01*
X179714Y111572D01*
X179331Y111602D01*
D02*
G37*
G36*
X58169Y109437D02*
X57786Y109406D01*
X57413Y109317D01*
X57058Y109170D01*
X56730Y108969D01*
X56438Y108720D01*
X56188Y108427D01*
X55988Y108100D01*
X55841Y107745D01*
X55751Y107371D01*
X55721Y106988D01*
X55751Y106605D01*
X55841Y106232D01*
X55988Y105877D01*
X56188Y105549D01*
X56438Y105257D01*
X56730Y105007D01*
X57058Y104807D01*
X57413Y104659D01*
X57786Y104570D01*
X58169Y104540D01*
X58552Y104570D01*
X58926Y104659D01*
X59281Y104807D01*
X59609Y105007D01*
X59901Y105257D01*
X60150Y105549D01*
X60351Y105877D01*
X60498Y106232D01*
X60588Y106605D01*
X60618Y106988D01*
X60588Y107371D01*
X60498Y107745D01*
X60351Y108100D01*
X60150Y108427D01*
X59901Y108720D01*
X59609Y108969D01*
X59281Y109170D01*
X58926Y109317D01*
X58552Y109406D01*
X58169Y109437D01*
D02*
G37*
G36*
X217323Y114142D02*
X216909Y114109D01*
X216505Y114013D01*
X216122Y113854D01*
X215768Y113637D01*
X215452Y113367D01*
X215182Y113051D01*
X214965Y112697D01*
X214806Y112314D01*
X214709Y111910D01*
X214677Y111496D01*
X214709Y111082D01*
X214806Y110678D01*
X214965Y110295D01*
X215182Y109941D01*
X215452Y109625D01*
X215768Y109355D01*
X216122Y109139D01*
X216505Y108980D01*
X216909Y108883D01*
X217323Y108850D01*
X217737Y108883D01*
X218141Y108980D01*
X218524Y109139D01*
X218878Y109355D01*
X219194Y109625D01*
X219463Y109941D01*
X219680Y110295D01*
X219839Y110678D01*
X219936Y111082D01*
X219969Y111496D01*
X219936Y111910D01*
X219839Y112314D01*
X219680Y112697D01*
X219463Y113051D01*
X219194Y113367D01*
X218878Y113637D01*
X218524Y113854D01*
X218141Y114013D01*
X217737Y114109D01*
X217323Y114142D01*
D02*
G37*
G36*
X23524Y112980D02*
X23141Y112950D01*
X22767Y112860D01*
X22412Y112713D01*
X22084Y112512D01*
X21792Y112263D01*
X21543Y111971D01*
X21342Y111643D01*
X21195Y111288D01*
X21105Y110915D01*
X21075Y110531D01*
X21105Y110149D01*
X21195Y109775D01*
X21342Y109420D01*
X21543Y109092D01*
X21792Y108800D01*
X22084Y108551D01*
X22412Y108350D01*
X22767Y108203D01*
X23141Y108113D01*
X23524Y108083D01*
X23907Y108113D01*
X24280Y108203D01*
X24635Y108350D01*
X24963Y108551D01*
X25255Y108800D01*
X25504Y109092D01*
X25705Y109420D01*
X25852Y109775D01*
X25942Y110149D01*
X25972Y110531D01*
X25942Y110915D01*
X25852Y111288D01*
X25705Y111643D01*
X25504Y111971D01*
X25255Y112263D01*
X24963Y112512D01*
X24635Y112713D01*
X24280Y112860D01*
X23907Y112950D01*
X23524Y112980D01*
D02*
G37*
G36*
X85925Y106267D02*
X85542Y106237D01*
X85169Y106148D01*
X84814Y106000D01*
X84486Y105800D01*
X84194Y105550D01*
X83944Y105258D01*
X83744Y104930D01*
X83597Y104576D01*
X83574Y104482D01*
X83060D01*
X83037Y104576D01*
X82890Y104930D01*
X82689Y105258D01*
X82440Y105550D01*
X82148Y105800D01*
X81820Y106000D01*
X81465Y106148D01*
X81092Y106237D01*
X80709Y106267D01*
X80326Y106237D01*
X79952Y106148D01*
X79597Y106000D01*
X79269Y105800D01*
X78977Y105550D01*
X78728Y105258D01*
X78527Y104930D01*
X78380Y104576D01*
X78290Y104202D01*
X78260Y103819D01*
X78290Y103436D01*
X78380Y103062D01*
X78527Y102707D01*
X78728Y102380D01*
X78977Y102087D01*
X79269Y101838D01*
X79597Y101637D01*
X79952Y101490D01*
X80326Y101400D01*
X80709Y101370D01*
X81092Y101400D01*
X81465Y101490D01*
X81820Y101637D01*
X82148Y101838D01*
X82440Y102087D01*
X82689Y102380D01*
X82890Y102707D01*
X83037Y103062D01*
X83060Y103156D01*
X83574D01*
X83597Y103062D01*
X83744Y102707D01*
X83944Y102380D01*
X84194Y102087D01*
X84486Y101838D01*
X84814Y101637D01*
X85169Y101490D01*
X85542Y101400D01*
X85925Y101370D01*
X86308Y101400D01*
X86682Y101490D01*
X87037Y101637D01*
X87364Y101838D01*
X87656Y102087D01*
X87906Y102380D01*
X88107Y102707D01*
X88254Y103062D01*
X88344Y103436D01*
X88374Y103819D01*
X88344Y104202D01*
X88254Y104576D01*
X88107Y104930D01*
X87906Y105258D01*
X87656Y105550D01*
X87364Y105800D01*
X87037Y106000D01*
X86682Y106148D01*
X86308Y106237D01*
X85925Y106267D01*
D02*
G37*
G36*
X232087Y106681D02*
X231704Y106651D01*
X231330Y106561D01*
X230975Y106414D01*
X230647Y106213D01*
X230355Y105964D01*
X230106Y105672D01*
X229905Y105344D01*
X229758Y104989D01*
X229668Y104615D01*
X229638Y104232D01*
X229668Y103849D01*
X229758Y103476D01*
X229905Y103121D01*
X230106Y102793D01*
X230355Y102501D01*
X230647Y102251D01*
X230975Y102051D01*
X231330Y101904D01*
X231704Y101814D01*
X232087Y101784D01*
X232470Y101814D01*
X232843Y101904D01*
X233198Y102051D01*
X233526Y102251D01*
X233818Y102501D01*
X234068Y102793D01*
X234268Y103121D01*
X234415Y103476D01*
X234505Y103849D01*
X234535Y104232D01*
X234505Y104615D01*
X234415Y104989D01*
X234268Y105344D01*
X234068Y105672D01*
X233818Y105964D01*
X233526Y106213D01*
X233198Y106414D01*
X232843Y106561D01*
X232470Y106651D01*
X232087Y106681D01*
D02*
G37*
G36*
X137500Y106267D02*
X137117Y106237D01*
X136743Y106148D01*
X136388Y106000D01*
X136061Y105800D01*
X135769Y105550D01*
X135519Y105258D01*
X135318Y104930D01*
X135171Y104576D01*
X135082Y104202D01*
X135052Y103819D01*
X135082Y103436D01*
X135171Y103062D01*
X135318Y102707D01*
X135519Y102380D01*
X135769Y102087D01*
X136061Y101838D01*
X136388Y101637D01*
X136743Y101490D01*
X137117Y101400D01*
X137500Y101370D01*
X137883Y101400D01*
X138257Y101490D01*
X138612Y101637D01*
X138939Y101838D01*
X139231Y102087D01*
X139481Y102380D01*
X139682Y102707D01*
X139829Y103062D01*
X139918Y103436D01*
X139948Y103819D01*
X139918Y104202D01*
X139829Y104576D01*
X139682Y104930D01*
X139481Y105258D01*
X139231Y105550D01*
X138939Y105800D01*
X138612Y106000D01*
X138257Y106148D01*
X137883Y106237D01*
X137500Y106267D01*
D02*
G37*
G36*
X55512Y104102D02*
X55129Y104072D01*
X54755Y103982D01*
X54400Y103835D01*
X54073Y103634D01*
X53781Y103385D01*
X53658Y103241D01*
X53493Y103192D01*
X53200D01*
X53035Y103241D01*
X52912Y103385D01*
X52620Y103634D01*
X52293Y103835D01*
X51938Y103982D01*
X51564Y104072D01*
X51181Y104102D01*
X50798Y104072D01*
X50424Y103982D01*
X50069Y103835D01*
X49742Y103634D01*
X49450Y103385D01*
X49200Y103093D01*
X49000Y102765D01*
X48852Y102410D01*
X48763Y102037D01*
X48733Y101654D01*
X48763Y101270D01*
X48852Y100897D01*
X49000Y100542D01*
X49200Y100214D01*
X49450Y99922D01*
X49742Y99673D01*
X50069Y99472D01*
X50424Y99325D01*
X50798Y99235D01*
X51181Y99205D01*
X51564Y99235D01*
X51938Y99325D01*
X52293Y99472D01*
X52620Y99673D01*
X52912Y99922D01*
X53035Y100066D01*
X53200Y100115D01*
X53493D01*
X53658Y100066D01*
X53781Y99922D01*
X54073Y99673D01*
X54400Y99472D01*
X54755Y99325D01*
X55129Y99235D01*
X55512Y99205D01*
X55895Y99235D01*
X56268Y99325D01*
X56623Y99472D01*
X56951Y99673D01*
X57243Y99922D01*
X57493Y100214D01*
X57693Y100542D01*
X57841Y100897D01*
X57930Y101270D01*
X57960Y101654D01*
X57930Y102037D01*
X57841Y102410D01*
X57693Y102765D01*
X57493Y103093D01*
X57243Y103385D01*
X56951Y103634D01*
X56623Y103835D01*
X56268Y103982D01*
X55895Y104072D01*
X55512Y104102D01*
D02*
G37*
G36*
X23524Y107448D02*
X23141Y107418D01*
X22767Y107329D01*
X22412Y107182D01*
X22084Y106981D01*
X21792Y106731D01*
X21543Y106439D01*
X21342Y106112D01*
X21195Y105757D01*
X21105Y105383D01*
X21075Y105000D01*
X21105Y104617D01*
X21195Y104243D01*
X21342Y103888D01*
X21543Y103561D01*
X21792Y103269D01*
X22084Y103019D01*
X22412Y102818D01*
X22767Y102671D01*
X23141Y102582D01*
X23524Y102551D01*
X23907Y102582D01*
X24280Y102671D01*
X24635Y102818D01*
X24963Y103019D01*
X25255Y103269D01*
X25504Y103561D01*
X25705Y103888D01*
X25852Y104243D01*
X25942Y104617D01*
X25972Y105000D01*
X25942Y105383D01*
X25852Y105757D01*
X25705Y106112D01*
X25504Y106439D01*
X25255Y106731D01*
X24963Y106981D01*
X24635Y107182D01*
X24280Y107329D01*
X23907Y107418D01*
X23524Y107448D01*
D02*
G37*
%LPD*%
D39*
X22933Y126457D02*
D03*
Y91024D02*
D03*
Y37874D02*
D03*
Y73307D02*
D03*
D42*
X223701Y124193D02*
D03*
Y33720D02*
D03*
X232598D02*
D03*
Y124193D02*
D03*
D43*
X111024Y129528D02*
D03*
X138287Y72441D02*
D03*
X111024Y72244D02*
D03*
X107874Y53839D02*
D03*
X109843Y103819D02*
D03*
X223228Y87185D02*
D03*
X253150Y24882D02*
D03*
X2559Y132953D02*
D03*
X2657Y24685D02*
D03*
X229724Y154705D02*
D03*
X253248Y125472D02*
D03*
X224311Y2539D02*
D03*
X23228D02*
D03*
X27756Y22520D02*
D03*
X35630Y9035D02*
D03*
X232087Y104232D02*
D03*
X214075Y141220D02*
D03*
X204823Y7382D02*
D03*
X191240Y7461D02*
D03*
X57579Y137972D02*
D03*
X68740Y101850D02*
D03*
X111909Y139941D02*
D03*
X137008D02*
D03*
X112008Y89055D02*
D03*
X112205Y41221D02*
D03*
X137303D02*
D03*
Y23898D02*
D03*
X112205Y27835D02*
D03*
Y23701D02*
D03*
X232972Y62776D02*
D03*
X237795Y68484D02*
D03*
Y73012D02*
D03*
X232972Y68484D02*
D03*
X57087Y116909D02*
D03*
X237795Y62776D02*
D03*
X214075Y150276D02*
D03*
Y145945D02*
D03*
X137106Y88957D02*
D03*
X212795Y10709D02*
D03*
X52854Y116909D02*
D03*
X75197Y56575D02*
D03*
X23524Y105000D02*
D03*
X26772Y154705D02*
D03*
X235138Y43287D02*
D03*
X247146Y122323D02*
D03*
X39173Y136890D02*
D03*
X158366Y54429D02*
D03*
X51968Y40039D02*
D03*
X137500Y103819D02*
D03*
X52165Y137874D02*
D03*
X70374Y56575D02*
D03*
X66437D02*
D03*
X65059Y39941D02*
D03*
X71752Y149980D02*
D03*
X85925Y103819D02*
D03*
X51181Y101654D02*
D03*
X230610Y108661D02*
D03*
X214075Y135433D02*
D03*
X55512Y101654D02*
D03*
X58169Y106988D02*
D03*
X80709Y103819D02*
D03*
X10039Y84252D02*
D03*
X12106Y78543D02*
D03*
X23524Y110531D02*
D03*
X65256Y46634D02*
D03*
X11122Y31693D02*
D03*
X7087D02*
D03*
X180020Y58760D02*
D03*
X181398Y9646D02*
D03*
X179331Y109153D02*
D03*
X137303Y76279D02*
D03*
X111811Y76476D02*
D03*
X138287Y122638D02*
D03*
Y126673D02*
D03*
X111024Y122638D02*
D03*
X137303Y27854D02*
D03*
X52461Y7972D02*
D03*
X57776D02*
D03*
X63681D02*
D03*
X175492Y24606D02*
D03*
Y29528D02*
D03*
X175295Y73622D02*
D03*
Y79035D02*
D03*
X175098Y123031D02*
D03*
Y128445D02*
D03*
X102953Y53937D02*
D03*
X145551Y102165D02*
D03*
X138091Y34843D02*
D03*
X184646Y82185D02*
D03*
X137402Y133465D02*
D03*
X210335Y7382D02*
D03*
D45*
X200098Y78425D02*
D03*
X206594Y37087D02*
D03*
X207579Y120650D02*
D03*
X217323Y111496D02*
D03*
X217028Y86496D02*
D03*
X216929Y76457D02*
D03*
X217028Y66417D02*
D03*
X217126Y56575D02*
D03*
X216929Y46437D02*
D03*
D46*
X257037Y78760D02*
D03*
D47*
X128150Y-787D02*
D03*
X127953Y158169D02*
D03*
D48*
X251772Y147097D02*
D03*
X251870Y10285D02*
D03*
X4429Y147097D02*
D03*
X4921Y10285D02*
D03*
D49*
X245620Y152362D02*
D03*
X245522Y4823D02*
D03*
X10187Y152264D02*
D03*
X10285Y4823D02*
D03*
D50*
X-541Y137106D02*
D03*
D51*
X-1230Y22687D02*
D03*
D52*
X230660Y154823D02*
D03*
X25935Y154724D02*
D03*
D53*
X253150Y24065D02*
D03*
X2559Y22687D02*
D03*
X1181Y23770D02*
D03*
X23130Y1526D02*
D03*
D54*
X224370Y142461D02*
D03*
Y14902D02*
D03*
X31457Y142461D02*
D03*
D55*
X12303Y12284D02*
D03*
Y145079D02*
D03*
X243524D02*
D03*
Y12284D02*
D03*
M02*
