M48
;Layer_Color=9474304
;FILE_FORMAT=4:4
METRIC,LZ
;TYPE=PLATED
T2F00S00C0.8000
T3F00S00C1.0000
T4F00S00C1.6000
T5F00S00C2.2000
T6F00S00C3.2000
T7F00S00C4.2200
;TYPE=NON_PLATED
T8F00S00C1.1900
%
T02
X-0008Y-0033
Y-0031
Y-0029
Y-0027
Y-002
Y-0018
Y-0016
T03
X0071591Y-0032156
Y-0029616
Y-0027076
Y-0024536
Y-0021996
Y-0019456
Y-0016916
Y-0014376
Y-0011836
Y-0009296
Y-0006756
Y-0004216
X0074131
Y-0006756
Y-0009296
Y-0011836
Y-0014376
Y-0016916
Y-0019456
Y-0021996
Y-0024536
Y-0027076
Y-0029616
Y-0032156
X0076671
X0079211
Y-0029616
X0076671
Y-0027076
X0079211
Y-0024536
X0076671
Y-0021996
X0079211
Y-0019456
X0076671
Y-0016916
X0079211
Y-0014376
X0076671
Y-0011836
X0079211
Y-0009296
X0076671
Y-0006756
X0079211
Y-0004216
X0076671
Y-0001676
X0074131
Y0000864
Y0003404
Y0005944
Y0008484
Y0011024
Y0013564
Y0016104
Y0018644
Y0021184
Y0023724
Y0026264
Y0028804
Y0031344
X0071591
Y0028804
Y0026264
Y0023724
Y0021184
Y0018644
Y0016104
Y0013564
Y0011024
Y0008484
Y0005944
Y0003404
Y0000864
Y-0001676
X0079211
Y0000864
X0076671
Y0003404
X0079211
Y0005944
X0076671
Y0008484
X0079211
Y0011024
X0076671
Y0013564
X0079211
Y0016104
X0076671
Y0018644
X0079211
Y0021184
X0076671
Y0023724
X0079211
Y0026264
X0076671
Y0028804
X0079211
Y0031344
X0076671
T04
X0008Y-0005665
X0057
Y0005665
X0008
T05
X-000275Y00135
Y00325
T06
X-0006865Y-004
X0078865Y-003746
X-0006865Y004001
X0078865Y00362
T07
X0003135Y-003873
Y-0005
X0061865
Y-003873
Y0005
X0003135
Y003873
X0061865
T08
X0059165Y-0034
Y-003223
Y-0025
Y-002323
Y-00205
Y-001873
Y-00115
Y-000973
Y000973
Y00115
Y001873
Y00205
Y002323
Y0025
Y003223
Y0034
M30
