M48
;Layer_Color=9474304
;FILE_FORMAT=4:4
METRIC,LZ
;TYPE=PLATED
T1F00S00C0.3000
T2F00S00C0.8000
T3F00S00C1.0000
T4F00S00C1.6000
T5F00S00C3.2000
;TYPE=NON_PLATED
T6F00S00C6.0000
T7F00S00C14.0000
%
T01
X00425Y00081
X004375Y0008075
X0045
X004625
X00475
X00487Y00081
X0046275Y0018475
X0046975Y00192
X0047725Y0019925
X00485Y0020625
X00492Y002135
X004425Y008925
X004251Y008928
T02
X00485Y00785
T03
X005388Y002088
X004638Y006975
X004395
X005403Y007785
T04
X00452Y00397
X00528Y00583
T05
X00243Y00032
X00737
X00243Y00948
X00737
T06
X004899Y002565
T07
X0049Y0049
M30
