%FSLAX44Y44*%
%MOMM*%
G71*
G01*
G75*
G04 Layer_Physical_Order=1*
G04 Layer_Color=255*
%ADD10R,4.4000X1.5000*%
%ADD11R,1.5000X1.5000*%
%ADD12R,1.5000X7.0000*%
%ADD13C,0.8000*%
%ADD14C,0.2000*%
%ADD15R,1.5900X6.9300*%
%ADD16C,5.8000*%
%ADD17C,5.0000*%
%ADD18C,0.8000*%
%ADD19C,2.0000*%
%ADD20C,1.5000*%
D10*
X465000Y912500D02*
D03*
D11*
X425000D02*
D03*
D12*
X417500Y492500D02*
D03*
Y697500D02*
D03*
Y287500D02*
D03*
X562500Y697500D02*
D03*
Y287500D02*
D03*
Y492500D02*
D03*
D13*
X437700Y810000D02*
X550200Y697500D01*
X418200Y810000D02*
X437700D01*
X550200Y697500D02*
X562500D01*
X417900Y776700D02*
X419700Y774900D01*
X420600Y174300D02*
X473100D01*
X562500Y263700D01*
Y287500D01*
X439500Y697500D02*
X463800D01*
X417500D02*
X439500D01*
X538800Y208800D02*
X562200D01*
X540300Y778500D02*
X563400D01*
X417500Y287500D02*
Y492500D01*
Y697500D01*
X562500Y492500D02*
Y697500D01*
Y287500D02*
Y492500D01*
D14*
X465000Y897900D02*
Y912500D01*
X459600Y892500D02*
X465000Y897900D01*
X442500Y892500D02*
X459600D01*
X425100Y892800D02*
Y912400D01*
X352500Y-194500D02*
X357500D01*
D15*
X562050Y208050D02*
D03*
X562350Y778950D02*
D03*
X417450Y779250D02*
D03*
X417150Y204450D02*
D03*
D16*
X243000Y32000D02*
D03*
X737000D02*
D03*
X243000Y948000D02*
D03*
X737000D02*
D03*
D17*
X528000Y583000D02*
D03*
X452000Y397000D02*
D03*
D18*
X492000Y213500D02*
D03*
X485000Y206250D02*
D03*
X462750Y184750D02*
D03*
X469750Y192000D02*
D03*
X425100Y892800D02*
D03*
X425000Y81000D02*
D03*
X487000D02*
D03*
X437500Y80750D02*
D03*
X450000D02*
D03*
X462500D02*
D03*
X475000D02*
D03*
X477250Y199250D02*
D03*
X442500Y892500D02*
D03*
D19*
X463800Y697500D02*
D03*
X439500D02*
D03*
X538800Y208800D02*
D03*
X540300Y778500D02*
D03*
D20*
X485000Y785000D02*
D03*
M02*
