M48
;Layer_Color=9474304
;FILE_FORMAT=4:4
METRIC,TZ
;TYPE=PLATED
T1F00S00C0.1000
%
T01
X314500Y-370000
X319500
X326500
X331500
X342000Y-370000
X347000
X354000
X359000
X360500Y-356000
Y-351000
Y-344000
Y-339000
Y-328500
Y-323500
Y-316500
Y-311500
X349500Y-310000
X346250
X344500Y-315000
X349500
Y-320000
Y-325000
X344500
Y-320000
X334750Y-315000
X334500Y-305000
Y-300000
X329500
Y-305000
X324500
Y-300000
X339500
Y-303500
X341000Y-282500
X336000
X326500Y-285000
X321500
X314500
X314501Y-252501
X319501
X326501
X331501
X342000Y-252500
X347000
X354000
X359000
X360500Y-238500
Y-233500
Y-226500
Y-221500
X360500Y-211000
Y-206000
Y-199000
Y-194000
X349500Y-192500
X346000Y-192500
X344500Y-197500
X349500
Y-202500
X344500
Y-207500
X349500
Y-217500
X344500
Y-222500
X349500
Y-227500
X344500
X339500Y-232500
Y-237500
X334500
Y-232500
X329500
Y-237500
X324500
Y-232500
X334000Y-217500
X322000Y-200250
X324500Y-187500
Y-182500
X329500
Y-187500
X334500
Y-182500
X339500
X339500Y-186500
X355000Y-282500
X360000
X349500Y-335000
Y-340000
X344500
Y-335000
Y-345000
X349500
X339500Y-350000
Y-355000
X334500
X329500
Y-350000
X334500
X324500
Y-355000
X334000Y-335750
X299500Y-335000
X294500
Y-340000
X299500
X298000Y-345000
X294500
Y-330000
Y-325000
Y-320000
X299500
Y-325000
Y-330000
Y-315000
Y-310000
X294500
Y-315000
X304500Y-305000
X309500
Y-300000
X304500
X309500Y-285000
X306500Y-252500
X301500
X294500
X289500
X294500Y-227500
X299500
Y-222500
X294500
Y-217500
X299500
X300500Y-212500
X297250
X296750Y-207500
X293500
X294500Y-202500
X299500
Y-197500
X294500
X293500Y-192500
X296750
X304500Y-184750
Y-181500
X309500Y-182500
Y-187500
Y-232500
Y-237500
X304500
Y-232500
X220000Y-244249
X216900
X213500
X200000
X196900
X193500
X180000Y-244250
X176900
X173500
X160000
X156900
X153500
X140400Y-245750
X136900
X133400
Y-249250
Y-252750
X136900
Y-249250
X140400
X140250Y-253000
X144000Y-265750
X144000Y-269500
Y-276500
Y-281500
X156000
Y-276500
Y-269500
Y-264500
X168000
Y-269500
Y-276500
Y-281500
X180000
Y-276500
Y-269500
Y-264500
X192000
Y-269500
Y-276500
Y-281500
X202000
Y-276500
X204000Y-269500
Y-264500
X216000Y-264500
Y-269500
Y-276500
Y-281500
X228000Y-281500
Y-276500
Y-269500
Y-264500
X225650Y-328500
X230650
X218650
X213650
X205650Y-329000
X200650
X193650Y-329000
X188650
X178650Y-329000
X173650Y-329000
X166650
X161650
X150650Y-331500
X145650
Y-341000
X150650
Y-350500
X145650
X126650Y-350500
X121650
X124150Y-363500
Y-368500
X126150Y-375500
Y-380500
X135150Y-380250
Y-375500
X137150Y-368500
Y-363500
X154000Y-373000
X153901Y-377750
X158651
Y-372750
X164150Y-361500
Y-356500
X174400Y-356500
X177150
X179900
Y-361500
X177150
X174400
X174650Y-366500
X179650
Y-371500
X174650
X185650Y-370000
X185650Y-364000
X190650
X190650Y-358000
X185650
X196650Y-356500
X199950
Y-361500
X196650
X196650Y-366500
X199950
Y-371500
X196650
X194650Y-383000
X199650Y-383750
Y-395000
X194650Y-396500
X187650Y-395000
X182650
Y-383000
X187650
X172150Y-381500
X172150Y-385250
Y-393500
X172150Y-398500
X158651Y-396750
X153901
Y-391750
X158651
X141250Y-390000
X141500Y-395000
X136500Y-395000
X136250Y-390250
X124150
X119400
Y-395250
X124150
X106150Y-396500
Y-391500
Y-380500
Y-375500
Y-366500
Y-361500
Y-354500
Y-349500
X106650Y-340000
X111650
X99650
X94650
X92150Y-352500
Y-357500
Y-364500
Y-369500
Y-378500
Y-383500
Y-390500
Y-395500
X121650Y-331500
X126750Y-331500
X164150Y-340500
Y-345500
X177650Y-343000
X181750Y-343250
X193650Y-343000
X198650Y-343000
X212150
X215350
X218650
X217150Y-346000
X218150Y-355750
X218650Y-359000
X215400Y-360750
X214900Y-357000
X225750Y-359000
X228950
X232250
X227400Y-356000
X228950Y-343000
X225750
X227400Y-340000
X232250Y-343000
Y-375000
X228950
X225750
X227150Y-372000
X216900Y-371750
X215350Y-375000
X212150
X218650
X216900Y-387750
X215350Y-391000
X212150
X218650
X225750
X228950
X232250
X227400Y-388000
X289500Y-370000
X294500
X301500
X306500
X304500Y-355000
Y-351750
X309500Y-350000
Y-355000
X220300Y-186050
X216900
X213800
X200300
X196900
X193800
X180300
X176900
X173800
X160300
X156900
X153800
X140400Y-184550
Y-181050
X136900
X133400
Y-184550
X136900
X120400
Y-181050
X116900
X113400
Y-184550
X116900
X100400
X96900
X93400
Y-181050
X96900
X100400
X80400
X76900
X73400
Y-184550
X76900
X80400
X60400
X56900
X53400
Y-181050
X56900
X60400
X40400
X36900
X33400
Y-184550
X36900
X40400
X20400
Y-181050
X16900
X13400
Y-184550
X16900
X400
Y-181050
X-3100
X-6600
Y-184550
X-3100
X-19600
X-23100
X-26600
Y-181050
X-23100
X-19600
X-39600
X-43100
X-46600
Y-184550
X-43100
X-39600
X-59600
X-63100
X-66600
Y-181050
X-63100
X-59600
X-79600
X-83100
Y-184550
X-79600
X-79600Y-245750
X-83100
Y-249250
X-79600
Y-252750
X-83100
X-66600
Y-249250
Y-245750
X-63100
X-59600
Y-249250
X-63100
Y-252750
X-59600
X-46600
Y-249250
X-43100
Y-252750
X-39600
Y-249250
Y-245750
X-43100
X-46600
X-26600
X-23100
X-19600
Y-249250
Y-252750
X-23100
Y-249250
X-26600
Y-252750
X-6600
Y-249250
X-3101
Y-252750
X399
Y-249250
Y-245750
X-3101
X-6600
X13399
X16899
X20399
Y-249250
Y-252750
X16899
Y-249250
X13399
Y-252750
X33400
Y-249250
X36900
Y-252750
X40400
Y-249250
Y-245750
X36900
X33400
X53400
X56900
X60400
Y-249250
Y-252750
X56900
Y-249250
X53400
Y-252750
X73400
Y-249250
Y-245750
X76900
X80400
Y-249250
X76900
Y-252750
X80400
X93400
Y-249250
Y-245750
X96900
X100400
Y-249250
X96900
Y-252750
X100400
X113500
X116900
Y-249250
X113500
Y-245750
X116900
X120400
Y-249250
Y-252750
X-42050Y-271500
Y-274750
X-40550Y-283500
Y-288500
X-50500Y-286250
X-52750Y-288500
X-52550Y-296500
Y-301500
Y-308500
Y-313500
X-68250Y-310000
X-73000Y-310000
X-79000Y-297000
X-84000
X-84000Y-285000
X-80500Y-285000
X-79000Y-274750
X-83000
X-69050Y-273095
X-64100
Y-278095
X-69050
Y-289905
X-64100
Y-294905
X-69050
X-52500Y-275000
X-52550Y-271500
X-91000Y-274750
X-95250
X-96000Y-285000
X-91000
X-91000Y-297000
X-96000
X-106000Y-289500
X-111000
X-111550Y-276500
Y-271500
X-116550
Y-276500
X-130550Y-274000
Y-269000
X-135550
Y-274000
X-145000Y-276500
X-148000
X-146000Y-266000
X-151000
X-158000
X-163000
X-170000Y-270000
X-175000
Y-275000
X-170000
X-169750Y-280000
X-172500
X-175250
Y-285000
X-172500
X-169750
X-162000Y-283000
X-157000
X-157250Y-300500
X-162000Y-296250
X-175500Y-298500
X-180500
X-191500Y-297000
X-194750Y-297250
X-205500Y-300250
X-208500Y-301500
X-207000Y-308500
Y-313500
X-218550Y-309300
X-223550
Y-304300
X-218550
Y-295700
X-223550
Y-290700
X-218550
X-234550
Y-295700
X-239550
Y-290700
X-250550
Y-295700
X-255550
Y-290700
X-266550
Y-295700
X-271550
Y-290700
Y-304300
Y-309300
X-266550
Y-304300
X-255550
Y-309300
X-250550
Y-304300
X-239550
Y-309300
X-234550
Y-304300
X-226500Y-275000
X-221500
X-214500
X-209500
X-197000Y-275000
Y-270000
X-192000
Y-275000
Y-280000
X-197000
Y-285000
X-192000
X-186000Y-283500
X-181000
X-181000Y-277500
X-184500Y-279500
X-181000Y-271500
X-179900Y-244750
X-183000
X-186400
X-202900Y-242000
X-206200
X-209400
X-208000Y-239000
X-218250Y-238750
X-219800Y-242000
X-223000
X-216500
X-218250Y-254750
X-221500Y-255000
X-219800Y-258000
X-216500
X-209400
X-206200
X-202900
X-207750Y-255000
X-206200Y-226000
X-209400
X-207750Y-223000
X-202900Y-226000
X-216500
X-217000Y-222750
X-220250Y-224000
X-219750Y-227750
X-235200Y-228500
X-238500
Y-223500
X-235200
X-235200Y-233500
X-238500
Y-238500
X-235200
X-235500Y-250750
X-240500Y-250000
X-247500Y-250000
X-252500
X-263000Y-248500
X-263000Y-252250
Y-260500
X-263000Y-265500
X-252500Y-262000
X-247500
X-240500Y-263500
X-235500Y-262000
X-249500Y-237000
X-249500Y-231000
X-244500
X-244500Y-225000
X-249500
X-255250Y-223500
X-258000
X-260750
Y-228500
X-258000
X-255250
X-255500Y-233500
Y-238500
X-260500
Y-233500
X-271000Y-228500
Y-223500
X-271000Y-212500
Y-207500
X-268500Y-196000
X-273500
X-284500Y-197000
X-289500
Y-206500
X-284500
X-285000Y-217000
X-290000
X-308500Y-216000
X-313500
X-329000Y-216500
Y-221500
Y-228500
Y-233500
Y-242500
Y-247500
Y-258500
Y-263500
X-315750Y-262250
X-311000
Y-257250
X-315750
X-309000Y-247500
Y-242500
X-300000
Y-247250
X-298750Y-257250
X-294000
Y-262250
X-298750
X-302250Y-275000
X-305500
X-312500
X-317500
X-317000Y-285000
X-314000Y-287000
X-305500Y-287000
X-300500
X-290500Y-288500
X-290500Y-285000
Y-278000
Y-273000
X-281249Y-263750
X-276499
Y-258750
X-281249
Y-244750
X-276499
Y-239750
X-281249
X-298000Y-235500
Y-230500
X-311000
Y-235500
X-343000Y-236500
Y-231500
Y-224500
Y-219500
X-340500Y-207000
X-335500
X-328500
X-323500
X-313500Y-197000
X-308500
X-311000Y-182250
X-315750
X-329000Y-183500
X-343000Y-182500
X-298750Y-182250
X-294000
X-281249Y-183750
X-276499
X-263000Y-185500
X-263000Y-180500
X-252500Y-182000
X-247500
X-240500Y-183500
X-235500Y-182000
X-234500Y-196000
X-229500
X-221500Y-195500
X-216500
X-209500
X-204500
X-207750Y-207000
X-206200Y-210000
X-209400
X-202900
X-216500
X-219800
X-223000
X-218000Y-213000
X-236500Y-210000
X-241500Y-210000
X-252500Y-210000
X-257500
X-256500Y-196000
X-261500Y-196000
X-246500Y-196000
X-241500
X-186200Y-186050
X-183100
X-179700
X-166200
X-163100
X-159700
X-146200
X-143100
X-139700
X-126200
X-123100
X-119700
X-106200
X-103100
X-99700
X-86600Y-184550
Y-181050
X-86750Y-245900
X-86500Y-249500
X-86600Y-252750
X-99500Y-244000
X-102750Y-244250
X-106000
X-119500Y-246250
X-123000
Y-249750
Y-253250
X-119500
Y-249750
X-126500
Y-253250
Y-246250
X-139500
X-143000
X-146500
Y-249750
Y-253250
X-143000
Y-249750
X-139500
Y-253250
X-159900Y-244750
X-163000
X-166400
X-148000Y-293500
X-145000
X-133000Y-290000
X-129000
X-130000Y-299000
X-135000
Y-308500
X-130000
X-111000
X-106000
X-89000Y-310000
X-88000Y-307000
X-148500Y-312000
X-153500
X-160500
X-165500
X-173500Y-312000
X-178500
X-185500
X-190500
X-328500Y-311000
X-333500
X-342000
X-345500
X-343250Y-323000
Y-326500
X-344000Y-333500
Y-338500
X-332500
Y-333500
X-333000Y-326500
Y-323000
X-357000Y-314000
X-361250
X-359001Y-301999
Y-296999
Y-289999
Y-284999
X-359097Y-274999
X-354347
Y-269999
X-359097
X-371157
X-375907
X-375907Y-274999
X-371157
X-370000Y-285250
Y-289750
X-372001Y-296999
Y-301999
X-379501Y-314999
X-384501
Y-324499
X-379501
Y-333999
X-384501
X-394000Y-336250
X-399000
X-406000
X-409000Y-335000
X-411501Y-322499
X-416501
X-427501
X-432501
X-433750Y-309000
X-430501Y-308999
Y-303999
X-433750Y-304000
Y-299000
X-430501Y-298999
Y-293999
X-433750Y-294000
X-424501Y-295499
X-424501Y-301499
X-419501
X-419501Y-307499
X-424501
X-413751Y-308999
X-411001
X-408251
Y-303999
X-411001
X-413751
X-413501Y-298999
Y-293999
X-408501
Y-298999
X-398001Y-303999
Y-308999
X-398001Y-319999
Y-324999
X-393502Y-292749
X-388752
Y-287749
X-393502
X-393502Y-273749
X-388752
Y-268749
X-393502
X-407001Y-266999
X-407001Y-271999
X-407001Y-278999
Y-283999
X-419500Y-284000
X-422501Y-282499
X-429501Y-282499
X-434501
Y-270499
X-429501
X-422501
X-417501
X-341001Y-272999
Y-277999
Y-288999
Y-293999
X-343000Y-262500
Y-257500
Y-250500
Y-245500
X-355501Y-333999
X-360501
X-355350Y-352500
X-350350
Y-357500
X-355350
Y-368500
X-350350
Y-373500
X-355350
X-341750
Y-368500
X-336750
Y-373500
Y-357500
Y-352500
X-341750
Y-357500
X-369550Y-355700
Y-350700
X-374550
Y-355700
Y-364300
X-369550
Y-369300
X-374550
X-408750Y-357500
X-413750
Y-352500
X-408750
X-422350
X-427350
Y-357500
X-422350
X-343000Y-177500
Y-170500
Y-165500
Y-156500
Y-151500
Y-144500
Y-139500
X-340500Y-127000
X-335500
X-328500
X-323500
X-329000Y-136500
Y-141500
Y-148500
Y-153500
Y-162500
Y-167500
Y-178500
X-315750Y-177250
X-311000
X-309000Y-167500
Y-162500
X-300000
Y-167250
X-298750Y-177250
X-294000
X-281249Y-178750
X-276499
Y-164750
X-281249
Y-159750
X-276499
X-271000Y-148500
Y-143500
X-260750Y-143500
X-258000
X-255250
Y-148500
X-258000
X-260750
X-260500Y-153500
Y-158500
X-255500
Y-153500
X-249500Y-151000
X-244500
X-244500Y-145000
X-249500
Y-157000
X-238500Y-158500
X-235200
Y-153500
X-238500
X-238500Y-148500
X-235200
Y-143500
X-238500
X-236500Y-130000
X-241500Y-130000
X-252500Y-130000
X-257500
X-256500Y-116000
X-261500Y-116000
X-268500
X-273500
X-273750Y-104050
X-269750
Y-100050
X-273750
X-277750Y-100050
Y-104050
X-281750
Y-100050
X-285750Y-100050
Y-104050
X-289750
Y-100050
X-293750
Y-104050
X-293750Y-90750
Y-86750
X-289750Y-86750
Y-90750
X-285750Y-90750
X-281750
X-277750
X-273750
X-269750
Y-86750
X-273750Y-86750
X-277750Y-86750
X-281750
X-285750
X-265750
X-261750
X-257750
X-257750Y-90750
X-253750
X-249750
Y-86750
X-253750Y-86750
X-245750Y-86750
X-241750Y-86750
Y-90750
X-245750Y-90750
X-237750
Y-86750
X-238750Y-75250
Y-70250
X-246750
Y-75250
X-257250Y-69750
X-262250
X-269250Y-67750
X-274250
Y-59750
X-269250
X-262250Y-57750
X-257250
X-246750Y-57250
Y-52250
X-238750
Y-57250
X-224750Y-58250
Y-53250
Y-65250
Y-70250
X-227250Y-80600
X-222250
X-212250Y-86750
X-207250
X-206250Y-100750
X-211250
X-222250Y-102900
X-227250
X-237750Y-104050
Y-100050
X-241750Y-100050
X-245750
Y-104050
X-241750
X-249750
Y-100050
X-253750
Y-104050
X-257750Y-104050
Y-100050
X-261750Y-100050
Y-104050
X-265750Y-104050
Y-100050
Y-90750
X-261750
X-246500Y-116000
X-241500
X-234500Y-116000
X-229500
X-221500Y-115500
X-216500
X-209500
X-204500
X-207750Y-127000
X-206200Y-130000
X-209400
X-202900
X-216500
X-219800
X-223000
X-218000Y-133000
X-217000Y-142750
X-216500Y-146000
X-219750Y-147750
X-220250Y-144000
X-209400Y-146000
X-206200
X-202900
X-207750Y-143000
X-208000Y-159000
X-209400Y-162000
X-206200
X-202900
X-216500Y-162000
X-219800
X-223000
X-218250Y-158750
Y-174750
X-219800Y-178000
X-223000
X-216500
X-209400
X-206200
X-202900
X-207750Y-175000
X-235500Y-170750
X-240500Y-170000
X-247500Y-170000
X-252500
X-263000Y-168500
X-263000Y-172250
X-271000Y-132500
Y-127500
X-284500Y-128000
X-289500
Y-118500
X-284500
Y-137500
X-289500
X-308500Y-137500
X-313500
X-311000Y-150500
Y-155500
X-298000
Y-150500
X-308500Y-118500
X-313500
X-311250Y-100250
X-306250
X-306250Y-94750
X-311250
X-307250Y-81750
Y-76750
X-326250
Y-81750
X-340250Y-83250
Y-78250
X-340250Y-71250
Y-66250
X-340750Y-57750
Y-52750
Y-45750
Y-40750
X-341500Y-32250
X-338250
X-329500Y-30250
X-324500
X-325250Y-41750
X-330250
X-318250
X-313250
X-302250Y-39750
X-297250
Y-31750
X-302250
X-306500Y-13250
X-311500Y-13250
X-311500Y-7750
X-306500
X-307500Y5250
Y10250
X-326500
Y5250
X-340500Y3750
Y8750
X-340500Y15750
Y20750
X-341000Y29250
Y34250
X-341000Y41250
Y46250
X-341750Y54750
X-338500Y54750
X-329750Y56750
X-324750Y56750
X-325500Y45250
X-330500
X-318500
X-313500
X-302500Y47250
X-297500
X-297500Y55250
X-302500
X-306500Y73750
X-311500
X-311500Y79250
X-306500
X-307500Y92250
Y97250
Y116250
Y121250
X-317000Y121250
Y116250
X-326500Y116250
Y121250
X-325500Y132250
X-330500
X-341000Y133250
Y128250
Y121250
Y116250
X-340500Y107750
Y102750
X-340500Y95750
Y90750
X-339500Y79250
X-334500
X-334500Y72250
X-339500
X-326500Y92250
Y97250
X-294000Y87250
Y83250
X-290000
X-286000
Y87250
X-282000
X-278000
Y83250
X-282000
X-274000
X-270000Y83250
Y87250
X-274000
X-266000
X-262000
X-262000Y83250
X-266000
X-258000
X-254000
Y87250
X-250000
Y83250
X-246000Y83250
X-246000Y87250
X-242000Y87250
Y83250
X-238000Y83250
X-238000Y87250
X-239000Y98750
Y103750
X-247000
Y98750
X-257500Y104250
X-262500
X-269500Y106250
X-274500
Y114250
X-269500
X-262500Y116250
X-257500
X-247000Y116750
Y121750
X-239000
Y116750
X-225000Y115750
X-225000Y120750
X-226500Y131250
X-223500Y134250
Y142250
X-228500
X-227500Y157850
X-222500
X-211500Y160000
X-206500
X-195500
X-190500
X-180500
X-175500
X-164500
X-159500
X-149000Y157500
Y162500
X-149000Y169500
Y174500
X-161500Y174000
X-166500
X-173500
X-178500
X-187500Y174000
X-192500
X-207500
X-212500
X-222500Y180150
X-227500
X-225000Y190500
Y195500
Y202500
Y207500
X-239000Y208500
Y203500
X-247000Y203500
Y208500
X-257500Y203000
X-262500
X-269500Y201000
X-274500
Y193000
X-269500
X-262500Y191000
X-257500
X-247000Y190500
Y185500
X-239000Y185500
Y190500
X-238000Y174000
X-238000Y170000
X-242000Y170000
Y174000
X-246000Y174000
X-246000Y170000
X-250000
X-254000
Y174000
X-250000Y174000
X-258000
Y170000
X-262000
X-262000Y174000
X-266000Y174000
Y170000
X-270000
X-274000
Y174000
X-270000Y174000
X-278000
Y170000
X-282000
X-286000
Y174000
X-282000
X-290000Y174000
Y170000
X-294000Y170000
Y174000
X-294000Y160700
Y156700
X-290000Y156700
X-286000
Y160700
X-290000
X-282000
X-278000Y160700
Y156700
X-282000Y156700
X-274000Y156700
Y160700
X-270000
Y156700
X-266000Y156700
X-266000Y160700
X-262000Y160700
Y156700
X-258000Y156700
Y160700
X-254000Y160700
Y156700
X-250000
Y160700
X-246000
Y156700
X-242000Y156700
Y160700
X-238000Y160700
X-238000Y156700
X-251500Y142250
X-256500
Y134250
X-251500
X-269500
X-274500
Y142250
X-269500
X-297500
X-302500
Y134250
X-297500
X-313500Y132250
X-318500
X-324750Y143750
X-329750
X-338500Y141750
X-341750
X-339500Y159000
X-334500
Y166000
X-339500
X-340500Y177500
Y182500
Y189500
Y194500
X-341000Y203000
Y208000
Y215000
X-326500Y208000
Y203000
X-317000
Y208000
X-307500
Y203000
Y184000
Y179000
X-306500Y166000
X-311500
X-311500Y160500
X-306500
X-326500Y179000
Y184000
X-209750Y188950
X-204750
Y201650
X-209750
X-155250
X-150250
Y214350
X-155250
X-137000Y214500
X-137000Y206500
Y201500
Y194500
Y189500
X-137000Y181500
Y176500
Y169500
Y164500
X-137000Y144750
Y139750
Y132750
Y127750
X-137000Y119750
X-137000Y114750
X-137000Y107750
Y102750
X-137000Y94750
Y89750
Y82750
Y77750
X-149000Y75750
Y70750
X-149000Y82750
X-149000Y87750
X-161500Y87250
X-166500
X-173500
X-178500
X-187500Y87250
X-192500
X-207500
X-212500
X-211500Y73250
X-206500
X-195500
X-190500
X-180500
X-175500
X-164500
X-159500
X-155250Y53300
X-150250
X-150250Y40600
X-155250
Y27900
X-150250
X-150250Y15200
X-155250
X-137000Y15750
Y20750
Y27750
X-137000Y32750
Y40750
Y45750
Y52750
Y57750
Y7750
Y2750
X-137000Y-4250
Y-9250
X-149000Y-11250
Y-16250
X-149000Y-4250
Y750
X-161500Y250
X-166500
X-173500
X-178500
X-187500Y250
X-192500
X-207500
X-212500
X-211500Y-13750
X-206500
X-195500
X-190500
X-180500
X-175500
X-164500
X-159500
X-155000Y-33700
X-150000
X-150000Y-46400
X-155000
Y-59100
X-150000
X-150000Y-71800
X-155000
X-136750Y-71250
X-136750Y-66250
X-136750Y-59250
Y-54250
X-136750Y-46250
Y-41250
Y-34250
Y-29250
X-136750Y-79250
Y-84250
Y-91250
Y-96250
X-148750Y-98250
Y-103250
Y-91250
Y-86250
X-161250Y-86750
X-166250
X-173250
X-178250
X-187250Y-86750
X-192250
X-190250Y-100750
X-195250
X-180250
X-175250
X-164250
X-159250
X-204500Y-71800
X-209500
Y-59100
X-204500
Y-33700
X-209500
X-223250Y-31750
X-228250
X-226250Y-42750
X-223250Y-39750
X-222500Y-15900
X-227500
X-238000Y-17050
Y-13050
X-242000Y-13050
X-246000
Y-17050
X-242000Y-17050
X-250000
Y-13050
X-254000
Y-17050
X-258000Y-17050
Y-13050
X-262000Y-13050
X-262000Y-17050
X-266000Y-17050
Y-13050
X-270000Y-13050
Y-17050
X-274000Y-17050
Y-13050
X-278000Y-13050
Y-17050
X-282000Y-17050
Y-13050
X-286000Y-13050
Y-17050
X-290000
Y-13050
X-294000
Y-17050
Y-3750
X-294000Y250
X-290000
Y-3750
X-286000Y-3750
Y250
X-282000
X-278000
Y-3750
X-282000
X-274000
X-270000
Y250
X-274000Y250
X-266000Y250
X-262000
X-262000Y-3750
X-266000
X-258000
X-254000
Y250
X-250000Y250
Y-3750
X-246000
X-246000Y250
X-242000
Y-3750
X-238000Y-3750
X-238000Y250
X-239000Y11750
Y16750
X-247000Y16750
Y11750
X-257500Y17250
X-262500
X-269500Y19250
X-274500
Y27250
X-269500
X-262500Y29250
X-257500
X-247000Y29750
Y34750
X-239000Y34750
Y29750
X-225000Y28750
Y33750
X-225000Y21750
Y16750
X-227500Y6400
X-222500
X-209750Y15200
X-204750
Y27900
X-209750
Y53300
X-204750
X-223500Y55250
X-228500
X-226500Y44250
X-223500Y47250
X-222500Y71100
X-227500
X-238000Y69950
Y73950
X-242000Y73950
X-246000Y73950
Y69950
X-242000Y69950
X-250000
Y73950
X-254000Y73950
Y69950
X-258000Y69950
Y73950
X-262000Y73950
Y69950
X-266000Y69950
Y73950
X-270000Y73950
Y69950
X-274000Y69950
Y73950
X-278000Y73950
Y69950
X-282000
Y73950
X-286000Y73950
Y69950
X-290000
Y73950
X-294000
X-294000Y69950
X-290000Y87250
X-258000Y87250
X-256500Y55250
X-251500
Y47250
X-256500
X-269500
X-274500
Y55250
X-269500
X-307500Y34250
Y29250
X-317000
Y34250
X-326500
Y29250
X-334500Y-7750
X-339500
X-339500Y-14750
X-334500
X-326250Y-52750
Y-57750
X-316750
Y-52750
X-307250
Y-57750
X-274250Y-39750
X-269250
Y-31750
X-274250
X-256250
X-251250
Y-39750
X-256250
X-258000Y250
X-227500Y93400
X-222500
X-225000Y103750
Y108750
X-209750Y114900
X-204750
Y102200
X-209750Y102200
X-209750Y140300
X-204750
X-155250Y140300
X-150250
X-150250Y127600
X-155250
X-155250Y114900
X-150250Y114900
X-150250Y102200
X-155250
X-115000Y125000
X-111000
X-103000
X-99000
X-99000Y151000
X-103000
X-115000Y149000
Y153000
Y163000
Y167000
Y177000
Y181000
X-115000Y192000
X-111000
X-103000
X-99000
Y179000
X-103000
Y165000
X-99000
X-99000Y205000
X-103000
X-111000
X-115000
X-150250Y188950
X-155250
X-91000Y78000
Y74000
Y66000
Y62000
X-94000Y41500
X-98000
X-98000Y36500
X-94000
Y31500
X-98000
X-98000Y26500
X-94000
X-87000Y10000
Y6000
Y-2000
Y-6000
X-98250Y-51500
Y-56500
Y-63500
Y-68500
X-103100Y-149500
X-103000Y-153000
X-103250Y-162750
X-103100Y-166500
X-86600Y-177550
X-334250Y-101750
X-339250
X-339250Y-94750
X-334250
X-83000Y-93000
Y-98000
X-76500
Y-93000
X-70000
Y-98000
X-63500
Y-93000
X-48250Y-92250
Y-97250
X-48250Y-83500
X-48250Y-80250
X-48250Y-68250
X-48250Y-64250
X-48250Y-56250
Y-51250
X-35750
Y-56250
Y-63250
Y-68250
X-34250Y-80250
X-34250Y-83500
X-34250Y-92250
Y-97250
X-33000Y-38750
X-38000
X-45000Y-36750
X-50000
X-59750Y-38750
X-63000Y-38750
X-71750Y-38750
X-76750
X-76500Y-51500
Y-56500
X-70000
Y-51500
X-63500
Y-56500
X-83000
Y-51500
X-74000Y-6000
Y-2000
X-74000Y6000
Y10000
X-78000Y25500
X-68000Y26500
X-64000
X-64000Y31500
X-68000
Y36500
X-64000
Y41500
X-68000
X-76750Y41750
X-78250Y62500
X-74250
X-61750
X-57750
Y75500
X-61750
X-74250
X-78250
X-45000Y74000
Y78000
Y66000
Y62000
X-44000Y51000
Y47000
Y39000
Y35000
X-46000Y23000
X-42000
X-34000
X-30000
X-30000Y11000
X-34000
X-42000
X-46000
X-46000Y750
X-43250Y-1750
X-34000Y-1000
X-30000
Y-13000
X-34000
X-42000
X-46000
X-16000Y30000
Y34000
Y42000
Y46000
X-3000
Y42000
Y34000
Y30000
X-3000Y57000
Y61000
Y73000
Y77000
X-17000Y78000
Y74000
Y66000
Y62000
X-32000
Y66000
Y74000
Y78000
X-32000Y98000
Y102000
X-27000
Y98000
X-22000
Y102000
X-17000
Y98000
X-12000
Y102000
X-7000
Y98000
X-2000Y98000
Y102000
X3000
Y98000
X23000
Y102000
X43000
Y98000
X48000
Y102000
X53000
Y98000
X58000
Y102000
X71000Y115000
X75000
Y120000
X71000
Y130000
X75000
Y135000
X71000
X71000Y140000
X75000
Y145000
X71000
Y150000
X75000
Y155000
X71000
Y160000
X75000
Y165000
X71000
X71000Y170000
X75000
X75000Y175000
X71000
Y180000
X75000
Y185000
X71000
X71000Y190000
X75000
Y195000
X71000
Y200000
X75000
Y205000
X71000
Y210000
X75000
Y215000
X71000
X95000Y215000
X99000
X107000
X111000
X122000Y215000
X126000
X134000Y213000
Y217000
Y202000
Y198000
X126000Y200000
X122000
X111000
X107000
X99000
X95000
Y185000
X99000
X107000
X111000
X122000
X126000
X134000Y187000
Y183000
Y172000
Y168000
X126000Y170000
X122000
X111000Y170000
X107000
X99000
X95000
Y155000
X99000
X107000
X111000
X122000
X126000
X134000Y157000
Y153000
Y142000
Y138000
X126000Y140000
X122000
X111000
X107000
X99000
X95000
Y125000
X99000
X107000
X111000
X122000
X126000
X134000Y127000
Y123000
Y112000
Y108000
X126000Y110000
X122000
X111000
X107000
X99000
X95000
Y95000
X99000
X107000
X111000
X122000Y95000
X126000
X134000Y97000
Y93000
X117000Y78000
Y74000
Y66000
Y62000
X104000Y62000
Y66000
Y74000
Y78000
X91000Y78000
Y74000
Y66000
Y62000
X78000
Y66000
Y74000
Y78000
X65000
Y74000
Y66000
Y62000
X52000
Y66000
Y74000
Y78000
X37000Y77000
Y73000
Y61000
Y57000
X23000Y62000
Y66000
Y74000
Y78000
X11000
Y74000
Y66000
Y62000
X-37000Y98000
Y102000
X-47000Y102000
Y98000
X-52000
Y102000
X-75000Y115000
X-79000
Y120000
X-75000
Y125000
X-79000
Y130000
X-75000
Y135000
X-79000
Y140000
X-75000
X-75000Y150000
X-79000
X-79000Y170000
X-75000
Y175000
X-79000
Y180000
X-75000
Y185000
X-79000
Y190000
X-75000
Y195000
X-79000
Y200000
X-75000
Y205000
X-79000
Y210000
X-75000
Y215000
X-79000
X236641Y209835
X234889Y206584
X246389Y210335
X250389
X258891Y208835
X262891
Y195335
X258891
X250389Y195337
X246389
X292654Y198327
Y202327
Y210327
Y214327
X305250Y213500
X309250
Y208500
X305250
Y203500
X309250
Y198500
X305250
X310654Y186327
X302000Y133000
Y129000
Y121000
Y117000
X305222Y105499
Y101499
X310222
Y105499
X299721Y95999
X295721
Y90999
X299721
Y85999
X295721
Y80999
X299721
Y65999
X295721
Y60999
X299721
X310222Y55499
Y51499
X305000Y35000
X301000
Y23000
X305000
X305000Y11000
X301000
X299000Y-46000
X295000
X287000
X283000
Y-58000
X287000
X295000
X299000
X299000Y-70000
X295000
X287000
X283000
X283000Y-85000
X287000
X295000
X299000
X299000Y-97000
X295000
X287000
X283000
X283000Y-109000
X287000
X295000
X299000
X312001Y-70001
X312001Y-58001
X312001Y-46001
X262000Y-52000
X258000
X249498Y-51998
X245498
Y-63500
X249498
X258000Y-65000
X262000
Y-78500
X258000
X249498Y-78498
X245498
X233998Y-67250
X235750Y-64000
X234000Y-54000
Y-50748
X237891Y-6165
X243891
Y5835
X237891
X215891
X209891
Y-6165
X215891
X234889Y69584
X236641Y72835
X246389Y73335
X250389
X258891Y71835
X262891
Y84835
X258891
X250389Y84837
X246389
X234891Y86087
Y82835
X246389Y58337
X250389
X258891Y58335
X262891
X277000Y53500
X281000
Y72500
X277000
X283000Y86000
Y90000
Y98000
Y102000
X243891Y130835
X237891
Y142835
X243891
X215891
X209891
Y130835
X215891
X215000Y-131000
X209000
Y-143000
X215000
X237000
X243000
Y-131000
X237000
X309500Y-167500
X140400Y-177550
X136900
X133400
X120400
X116900
X113400
X100400
X96900
X93400
X80400
X76900
X73400
X60400
X56900
X53400
X40400
X36900
X33400
X20400
X16900
X13400
X400
X-3100
X-6600
X-19600
X-23100
X-26600
X-39600
X-43100
X-46600
X-59600
X-63100
X-66600
X-79600
X-83100
X-65400Y-163999
X-60400
Y-158999
X-65400
Y-146999
X-60400
Y-141999
X-65400
X-46552Y-155250
Y-160250
X-41552
Y-155250
X-17596
Y-160250
X-12596
Y-155250
X47951Y-87249
Y-81249
X60651
Y-87249
X73351
Y-81249
X86051
Y-87249
X105000Y-67000
Y-63000
Y-55000
Y-51000
X105000Y-39000
Y-35000
Y-27000
Y-23000
X86051Y-8749
Y-2749
X73351
Y-8749
X60651
Y-2749
X47951
Y-8749
X313000Y11000
X317000
X317000Y23000
X313000
X313000Y35000
X317000
X315222Y51499
Y55499
X320221
Y51499
X325221
Y55499
X322720Y78500
X333251Y80999
X345722
X349721
Y85999
X345722
Y90999
X349721
Y95999
X345722
X340221Y101499
Y105499
X335221
Y101499
X330221
Y105499
X320221
Y101499
X315222
Y105499
X316500Y120000
Y124000
X335500
Y120000
X350000Y121000
Y117000
Y129000
Y133000
X338000Y143000
Y147000
Y155000
Y159000
X326000
Y155000
Y147000
Y143000
X314000Y143000
Y147000
Y155000
Y159000
X314653Y186327
X322654
X326654
X337654Y186327
X341654
X349654Y186327
X353653
X353000Y198500
X349000
X349000Y203500
X353000
X353000Y208500
X349750Y208500
X349000Y213500
X353000
X363000Y119000
Y115000
Y107000
Y103000
X363000Y93000
Y89000
Y81000
Y77000
X363000Y67000
Y63000
Y55000
Y51000
X349721Y60999
X345722
X328001Y-46001
X324001
X316001
X316001Y-58001
X324001
X328001
X328001Y-70001
X324001
X316001
X314500Y-167500
X321500
X326500
X336000Y-165000
X340999
X355000
X360000
X347654Y245327
X343653
X335653Y245327
X331654
X320653Y245327
X316653
Y258327
X320653
X328653
X332654
X333000Y274000
X329000
X321000
X317000
X317000Y286000
X321000
X329000
X333000
X333000Y298000
X329000
X321000
X317000
X308654Y245327
X304653
X305250Y233500
X309250
Y228500
X305250
X305250Y223500
X309250
Y218500
X305250
X262891Y221835
X258891
X250389Y221837
X246389
X234891Y223087
Y219835
X238250Y268000
X244250
Y280000
X238250
X216250
X210250
Y268000
X216250
X235248Y343750
X237000Y347000
X246748Y347500
X250748
X259250Y346000
X263250
Y359000
X259250
X250748Y359002
X246748
X235250Y360252
Y357000
X230501Y379500
X225501Y379500
Y389000
X230501Y389000
Y398500
X225501Y398500
X206500Y398500
X201500Y398500
X188500Y403000
X183500Y403000
X176500Y403000
X171500Y403000
X171500Y390000
X176500Y390000
X183500Y390000
X188500Y390000
Y376000
X183500Y376000
X176500Y376000
X171500Y376000
X161500Y393500
X156500Y393500
X145000Y395500
X145000Y400500
X145000Y407500
X145000Y412500
X132000Y412500
X132000Y407500
X132000Y400500
X132000Y395500
X119000
X119000Y400500
X119000Y407500
X119000Y412500
X104000Y413500
X104000Y408500
X104000Y401500
X104000Y396500
Y388500
X104000Y383500
X104000Y376500
X104000Y371500
X104000Y363500
X104000Y358500
X104000Y351500
X104000Y346500
X88000Y342500
Y337500
X75500Y340000
X70500Y340000
X63500Y340000
X58500Y340000
X46000Y339500
X46000Y336000
X32000Y337500
Y342500
Y353500
Y358500
X31250Y371950
X36250
Y384650
X31250
X15000Y383500
X15000Y388500
Y376500
Y371500
X12500Y361150
X17500
X2000Y355000
X2000Y351000
X-2000Y351000
Y355000
X-6000Y355000
X-6000Y351000
X-10000
X-14000
Y355000
X-10000Y355000
X-18000
Y351000
X-22000
X-26000
Y355000
X-22000
X-30000
X-30000Y351000
X-34000
Y355000
X-38000Y355000
Y351000
X-42000
X-42000Y355000
X-46000
X-46000Y351000
X-50000Y351000
Y355000
X-54000Y355000
X-54000Y351000
X-54000Y341700
X-50000
X-46000
Y337700
X-50000
X-54000Y337700
X-42000Y337700
X-38000
Y341700
X-42000
X-34000Y341700
X-34000Y337700
X-30000Y337700
Y341700
X-26000Y341700
X-22000Y341700
X-22000Y337700
X-26000Y337700
X-18000
Y341700
X-14000Y341700
X-14000Y337700
X-10000Y337700
Y341700
X-6000
X-2000
Y337700
X-6000Y337700
X2000Y337700
Y341700
X12500Y338850
X17500
X46000Y354500
X46000Y359500
X58500Y355000
X63500Y355000
X70500Y355000
X75500Y355000
X88000Y353500
Y358500
X85750Y371950
X90750
Y384650
X85750
Y397350
X90750
Y410050
X85750
X36250
X31250
X16500Y410000
X11500
X13500Y399000
X16500Y402000
X1000Y389500
Y384500
X-7000Y384500
Y389500
X-17500Y384000
X-22500
X-29500Y382000
X-34500
Y374000
X-29500
X-22500Y372000
X-17500
X-7000Y371500
Y366500
X1000Y366500
Y371500
X-11500Y402000
X-16500
Y410000
X-11500
X-29500
X-34500
Y402000
X-29500
X-57500
X-62500
Y410000
X-57500
X-73500Y400000
X-78500
X-77000Y389000
Y384000
X-67500
Y389000
X-67500Y365000
X-67500Y360000
X-66500Y347000
X-71500
X-71500Y341500
X-66500
X-59000Y315000
Y311000
Y303000
Y299000
X-45000
Y303000
X-45500Y311000
Y315000
X-31000Y315000
Y311000
Y303000
Y299000
X-32000Y288000
Y284000
Y276000
Y272000
X-47000Y272000
Y276000
Y284000
Y288000
X-62000
Y284000
X-62000Y275500
Y271500
X-62000Y252000
Y248000
X-57000
Y252000
X-52000
Y248000
X-47000
Y252000
X-42000
Y248000
X-37000
Y252000
X-32000
Y248000
X-27000
Y252000
X-22000
Y248000
X-17000
Y252000
X-12000
Y248000
X-7000
Y252000
X-2000
Y248000
X3000
Y252000
X8000Y252000
Y248000
X13000
Y252000
X18000
Y248000
X23000
Y252000
X38000Y252000
Y248000
X43000
Y252000
X48000
Y248000
X53000
Y252000
X58000
Y248000
X71000Y235250
X75000
Y230000
X71000
Y225000
X75000
Y220000
X71000
X95000Y230000
X99000
X107000Y230000
X111000
X122000
X126000
X134000Y232000
Y228000
X111000Y245000
X107000
X99000Y245000
X95000
Y260000
X99000
X107000Y260000
X111000
Y275000
X107000
X99000Y275000
X95000
X81000Y276000
Y272000
Y284000
Y288000
X67000
Y284000
Y276000
Y272000
X53000
Y276000
Y284000
Y288000
X38000
Y284000
Y276000
Y272000
X18000
Y276000
Y284000
Y288000
X4250Y288000
Y284000
X3000Y276000
Y272000
X-12000
Y276000
Y284000
Y288000
X-17000Y299000
Y303000
Y311000
Y315000
X-3000
Y311000
Y303000
Y299000
X43000
Y303000
Y311000
Y315000
X-75000Y235000
X-79000
Y230000
X-75000
Y225000
X-79000
Y220000
X-75000
X156500Y410500
X161500Y410500
X201500Y379500
X206500Y379500
X242500Y388000
X247500Y388000
X254500Y388000
X259500Y388000
Y402000
X254500Y402000
X247500Y402000
X242500Y402000
X246748Y332502
X250748
X259250Y332500
X263250
X-94500Y340000
X-99500
X-99500Y347000
X-94500
X-100500Y358500
Y363500
X-100500Y370500
Y375500
X-101000Y384000
Y389000
Y396000
Y401000
X-101750Y409500
X-98500
X-89750Y411500
X-84750
X-85500Y400000
X-90500
X-86500Y389000
Y384000
Y365000
Y360000
X-87000Y288000
Y284000
X-87000Y276000
Y272000
X-99000Y257000
X-103000
X-111000
X-115000
X-115000Y246000
Y242000
X-115000Y233000
Y229000
X-115000Y218000
X-111000
X-103000
X-99000
X-99000Y231000
X-103000
Y244000
X-99000
X-137000Y251250
Y256250
Y263250
Y268250
X-137000Y276250
Y281250
Y288250
Y293250
X-137000Y301250
X-137000Y305000
Y315000
X-137000Y318250
X-150250Y313800
X-155250
X-155250Y301100
X-150250
Y288400
X-155250
X-155250Y275700
X-150250
X-149000Y261250
Y256250
X-149000Y249250
Y244250
X-159500Y246750
X-164500
X-175500
X-180500
X-190500
X-195500
X-206500
X-211500
X-222500Y244600
X-227500
X-238000Y243450
Y247450
X-242000Y247450
X-246000
Y243450
X-242000Y243450
X-250000
X-254000Y243450
X-254000Y247450
X-250000
X-258000Y247450
Y243450
X-262000Y243450
X-262000Y247450
X-266000Y247450
Y243450
X-270000Y243450
Y247450
X-274000
X-274000Y243450
X-278000Y243450
Y247450
X-282000
X-286000Y247450
X-286000Y243450
X-290000
X-294000Y243450
Y247450
X-290000
X-290000Y256750
Y260750
X-286000Y260750
Y256750
X-282000
X-278000
X-278000Y260750
X-282000
X-274000Y260750
X-270000Y260750
Y256750
X-274000
X-266000
X-266000Y260750
X-262000
X-262000Y256750
X-258000
X-258000Y260750
X-254000Y260750
X-254000Y256750
X-250000
Y260750
X-246000
X-242000Y260750
Y256750
X-246000Y256750
X-238000
X-238000Y260750
X-239000Y272250
Y277250
X-247000
Y272250
X-257500Y277750
X-262500
X-269500Y279750
X-274500
Y287750
X-269500Y287750
X-262500Y289750
X-257500
X-247000Y290250
Y295250
X-239000
Y290250
X-225000Y289250
Y294250
Y282250
Y277250
X-227500Y266900
X-222500
X-212500Y260750
X-207500
X-192500
X-187500Y260750
X-178500Y260750
X-173500
X-166500Y260750
X-161500
X-155250Y227050
X-150250
X-137000Y226500
Y231500
Y219500
X-204750Y227050
X-209750
X-223500Y229000
X-228500
X-226500Y218000
X-223500Y221000
X-251500
X-256500
Y229000
X-251500
X-269500
X-274500
Y221000
X-269500
X-297500
X-302500
Y229000
X-297500
X-313500Y219000
X-318500
X-325500
X-330500
X-341000Y220000
X-341750Y228500
X-338500
X-329750Y230500
X-324750
X-334500Y245750
X-339500
X-339500Y252750
X-334500
X-340500Y264250
Y269250
X-340500Y276250
Y281250
X-341000Y289750
Y294750
Y301750
Y306750
X-341750Y315250
X-338500
X-329750Y317250
X-324750
X-325500Y305750
X-330500
X-318500
X-313500
X-302500Y307750
X-297500
Y315750
X-302500
X-307500Y294750
Y289750
X-317000
Y294750
X-326500
Y289750
Y270750
Y265750
X-307500
Y270750
X-306500Y252750
X-311500
X-311500Y247250
X-306500
X-294000Y256750
Y260750
X-282000Y243450
X-274500Y307750
X-269500
Y315750
X-274500
X-256500
X-251500
Y307750
X-256500
X-226500Y304750
X-223500Y307750
Y315750
X-228500
X-209750Y313800
X-204750
X-204750Y288400
X-209750
Y275700
X-204750
M30
