G04 Layer_Color=128*
%FSLAX25Y25*%
%MOIN*%
G70*
G01*
G75*
G04:AMPARAMS|DCode=14|XSize=11.81mil|YSize=31.5mil|CornerRadius=2.95mil|HoleSize=0mil|Usage=FLASHONLY|Rotation=270.000|XOffset=0mil|YOffset=0mil|HoleType=Round|Shape=RoundedRectangle|*
%AMROUNDEDRECTD14*
21,1,0.01181,0.02559,0,0,270.0*
21,1,0.00591,0.03150,0,0,270.0*
1,1,0.00591,-0.01280,-0.00295*
1,1,0.00591,-0.01280,0.00295*
1,1,0.00591,0.01280,0.00295*
1,1,0.00591,0.01280,-0.00295*
%
%ADD14ROUNDEDRECTD14*%
%ADD17R,0.02756X0.03543*%
%ADD31R,0.02362X0.02362*%
%ADD32R,0.02362X0.02362*%
%ADD76R,0.02165X0.03150*%
%ADD77R,0.03937X0.04331*%
%ADD78R,0.03150X0.03543*%
G04:AMPARAMS|DCode=79|XSize=17.72mil|YSize=35.43mil|CornerRadius=4.43mil|HoleSize=0mil|Usage=FLASHONLY|Rotation=0.000|XOffset=0mil|YOffset=0mil|HoleType=Round|Shape=RoundedRectangle|*
%AMROUNDEDRECTD79*
21,1,0.01772,0.02658,0,0,0.0*
21,1,0.00886,0.03543,0,0,0.0*
1,1,0.00886,0.00443,-0.01329*
1,1,0.00886,-0.00443,-0.01329*
1,1,0.00886,-0.00443,0.01329*
1,1,0.00886,0.00443,0.01329*
%
%ADD79ROUNDEDRECTD79*%
%ADD80R,0.09449X0.06693*%
%ADD81R,0.04331X0.06693*%
%ADD82R,0.08661X0.02559*%
G04:AMPARAMS|DCode=83|XSize=15.75mil|YSize=43.31mil|CornerRadius=3.94mil|HoleSize=0mil|Usage=FLASHONLY|Rotation=270.000|XOffset=0mil|YOffset=0mil|HoleType=Round|Shape=RoundedRectangle|*
%AMROUNDEDRECTD83*
21,1,0.01575,0.03543,0,0,270.0*
21,1,0.00787,0.04331,0,0,270.0*
1,1,0.00787,-0.01772,-0.00394*
1,1,0.00787,-0.01772,0.00394*
1,1,0.00787,0.01772,0.00394*
1,1,0.00787,0.01772,-0.00394*
%
%ADD83ROUNDEDRECTD83*%
%ADD84R,0.06693X0.04331*%
G04:AMPARAMS|DCode=85|XSize=11.81mil|YSize=31.5mil|CornerRadius=2.95mil|HoleSize=0mil|Usage=FLASHONLY|Rotation=0.000|XOffset=0mil|YOffset=0mil|HoleType=Round|Shape=RoundedRectangle|*
%AMROUNDEDRECTD85*
21,1,0.01181,0.02559,0,0,0.0*
21,1,0.00591,0.03150,0,0,0.0*
1,1,0.00591,0.00295,-0.01280*
1,1,0.00591,-0.00295,-0.01280*
1,1,0.00591,-0.00295,0.01280*
1,1,0.00591,0.00295,0.01280*
%
%ADD85ROUNDEDRECTD85*%
G04:AMPARAMS|DCode=86|XSize=10.63mil|YSize=17.72mil|CornerRadius=2.66mil|HoleSize=0mil|Usage=FLASHONLY|Rotation=0.000|XOffset=0mil|YOffset=0mil|HoleType=Round|Shape=RoundedRectangle|*
%AMROUNDEDRECTD86*
21,1,0.01063,0.01240,0,0,0.0*
21,1,0.00532,0.01772,0,0,0.0*
1,1,0.00532,0.00266,-0.00620*
1,1,0.00532,-0.00266,-0.00620*
1,1,0.00532,-0.00266,0.00620*
1,1,0.00532,0.00266,0.00620*
%
%ADD86ROUNDEDRECTD86*%
%ADD87R,0.07087X0.03937*%
%ADD89R,0.03937X0.02165*%
%ADD90R,0.03150X0.01575*%
G04:AMPARAMS|DCode=91|XSize=11.81mil|YSize=39.37mil|CornerRadius=2.95mil|HoleSize=0mil|Usage=FLASHONLY|Rotation=0.000|XOffset=0mil|YOffset=0mil|HoleType=Round|Shape=RoundedRectangle|*
%AMROUNDEDRECTD91*
21,1,0.01181,0.03347,0,0,0.0*
21,1,0.00591,0.03937,0,0,0.0*
1,1,0.00591,0.00295,-0.01673*
1,1,0.00591,-0.00295,-0.01673*
1,1,0.00591,-0.00295,0.01673*
1,1,0.00591,0.00295,0.01673*
%
%ADD91ROUNDEDRECTD91*%
G04:AMPARAMS|DCode=92|XSize=11.81mil|YSize=39.37mil|CornerRadius=2.95mil|HoleSize=0mil|Usage=FLASHONLY|Rotation=90.000|XOffset=0mil|YOffset=0mil|HoleType=Round|Shape=RoundedRectangle|*
%AMROUNDEDRECTD92*
21,1,0.01181,0.03347,0,0,90.0*
21,1,0.00591,0.03937,0,0,90.0*
1,1,0.00591,0.01673,0.00295*
1,1,0.00591,0.01673,-0.00295*
1,1,0.00591,-0.01673,-0.00295*
1,1,0.00591,-0.01673,0.00295*
%
%ADD92ROUNDEDRECTD92*%
%ADD93R,0.12402X0.12402*%
%ADD94R,0.12402X0.12402*%
%ADD95R,0.09449X0.06496*%
%ADD96R,0.03543X0.02756*%
D14*
X160067Y110725D02*
D03*
Y112694D02*
D03*
Y114662D02*
D03*
Y116631D02*
D03*
Y120568D02*
D03*
X171879D02*
D03*
Y116631D02*
D03*
Y114662D02*
D03*
Y112694D02*
D03*
Y110725D02*
D03*
X160067Y61513D02*
D03*
Y63481D02*
D03*
Y65450D02*
D03*
Y67418D02*
D03*
Y71355D02*
D03*
X171879D02*
D03*
Y67418D02*
D03*
Y65450D02*
D03*
Y63481D02*
D03*
Y61513D02*
D03*
X160067Y12300D02*
D03*
Y14269D02*
D03*
Y16237D02*
D03*
Y18206D02*
D03*
Y22143D02*
D03*
X171879D02*
D03*
Y18206D02*
D03*
Y16237D02*
D03*
Y14269D02*
D03*
Y12300D02*
D03*
D17*
X50098Y113976D02*
D03*
X44193D02*
D03*
X75689D02*
D03*
X69784D02*
D03*
X103248D02*
D03*
X97342D02*
D03*
X75689Y76575D02*
D03*
X69784D02*
D03*
X103248D02*
D03*
X97342D02*
D03*
X75689Y39173D02*
D03*
X69784D02*
D03*
X103248D02*
D03*
X97342D02*
D03*
X75689Y1772D02*
D03*
X69784D02*
D03*
X103248D02*
D03*
X97342D02*
D03*
X192618Y132185D02*
D03*
X186713D02*
D03*
D31*
X130217Y100000D02*
D03*
Y96063D02*
D03*
X126050Y100000D02*
D03*
Y96063D02*
D03*
X117717Y100000D02*
D03*
Y96063D02*
D03*
X131102Y22638D02*
D03*
Y26575D02*
D03*
X126936Y22638D02*
D03*
Y26575D02*
D03*
X118602Y22638D02*
D03*
Y26575D02*
D03*
X121883Y100000D02*
D03*
Y96063D02*
D03*
X122769Y22638D02*
D03*
Y26575D02*
D03*
X233760Y114469D02*
D03*
Y110531D02*
D03*
X231496Y77362D02*
D03*
Y73425D02*
D03*
X235827Y77362D02*
D03*
Y73425D02*
D03*
X231496Y69291D02*
D03*
Y65354D02*
D03*
X235827D02*
D03*
Y69291D02*
D03*
X74016Y18898D02*
D03*
Y22835D02*
D03*
X101575D02*
D03*
Y18898D02*
D03*
X74016Y56299D02*
D03*
Y60236D02*
D03*
X101575D02*
D03*
Y56299D02*
D03*
X74016Y93701D02*
D03*
Y97638D02*
D03*
X101575D02*
D03*
Y93701D02*
D03*
Y131102D02*
D03*
Y135039D02*
D03*
X74016D02*
D03*
Y131102D02*
D03*
X48425D02*
D03*
Y135039D02*
D03*
X46235Y42323D02*
D03*
Y38386D02*
D03*
X55401D02*
D03*
Y42323D02*
D03*
X46235Y52132D02*
D03*
Y48195D02*
D03*
X55401D02*
D03*
Y52132D02*
D03*
X46235Y61942D02*
D03*
Y58005D02*
D03*
X55401D02*
D03*
Y61942D02*
D03*
Y67815D02*
D03*
Y71752D02*
D03*
X46235D02*
D03*
Y67815D02*
D03*
X153375Y17025D02*
D03*
Y20962D02*
D03*
Y70174D02*
D03*
Y66237D02*
D03*
Y115450D02*
D03*
Y119387D02*
D03*
X167323Y3937D02*
D03*
Y0D02*
D03*
Y49213D02*
D03*
Y53150D02*
D03*
Y102362D02*
D03*
Y98425D02*
D03*
X181102Y7874D02*
D03*
Y3937D02*
D03*
Y53150D02*
D03*
Y57087D02*
D03*
Y106299D02*
D03*
Y102362D02*
D03*
X153375Y9446D02*
D03*
Y13383D02*
D03*
Y62595D02*
D03*
Y58658D02*
D03*
Y107871D02*
D03*
Y111808D02*
D03*
X159449Y0D02*
D03*
Y3937D02*
D03*
Y53150D02*
D03*
Y49213D02*
D03*
Y98425D02*
D03*
Y102362D02*
D03*
X81102Y22835D02*
D03*
Y18898D02*
D03*
X108661D02*
D03*
Y22835D02*
D03*
X81102Y60236D02*
D03*
Y56299D02*
D03*
X108661D02*
D03*
Y60236D02*
D03*
X81102Y97638D02*
D03*
Y93701D02*
D03*
X108661D02*
D03*
Y97638D02*
D03*
Y135039D02*
D03*
Y131102D02*
D03*
X81102D02*
D03*
Y135039D02*
D03*
X55512D02*
D03*
Y131102D02*
D03*
X77559Y18898D02*
D03*
Y22835D02*
D03*
X105118D02*
D03*
Y18898D02*
D03*
X77559Y56299D02*
D03*
Y60236D02*
D03*
X105118D02*
D03*
Y56299D02*
D03*
X77559Y93701D02*
D03*
Y97638D02*
D03*
X105118D02*
D03*
Y93701D02*
D03*
Y131102D02*
D03*
Y135039D02*
D03*
X77559D02*
D03*
Y131102D02*
D03*
X51968D02*
D03*
Y135039D02*
D03*
X41769Y42323D02*
D03*
Y38386D02*
D03*
X50935D02*
D03*
Y42323D02*
D03*
X41769Y52132D02*
D03*
Y48195D02*
D03*
X50935D02*
D03*
Y52132D02*
D03*
X41769Y61942D02*
D03*
Y58005D02*
D03*
X50935D02*
D03*
Y61942D02*
D03*
Y67815D02*
D03*
Y71752D02*
D03*
X41769D02*
D03*
Y67815D02*
D03*
X181102Y23622D02*
D03*
Y19685D02*
D03*
Y68898D02*
D03*
Y72835D02*
D03*
Y122047D02*
D03*
Y118110D02*
D03*
X155512Y3937D02*
D03*
Y0D02*
D03*
Y49213D02*
D03*
Y53150D02*
D03*
Y102362D02*
D03*
Y98425D02*
D03*
X163386Y0D02*
D03*
Y3937D02*
D03*
Y53150D02*
D03*
Y49213D02*
D03*
Y98425D02*
D03*
Y102362D02*
D03*
X171260Y0D02*
D03*
Y3937D02*
D03*
Y53150D02*
D03*
Y49213D02*
D03*
Y98425D02*
D03*
Y102362D02*
D03*
X135925Y58071D02*
D03*
Y62008D02*
D03*
X175197Y0D02*
D03*
Y3937D02*
D03*
Y53150D02*
D03*
Y49213D02*
D03*
Y98425D02*
D03*
Y102362D02*
D03*
X181102Y15748D02*
D03*
Y11811D02*
D03*
Y61024D02*
D03*
Y64961D02*
D03*
Y114173D02*
D03*
Y110236D02*
D03*
X151575Y3937D02*
D03*
Y0D02*
D03*
Y49213D02*
D03*
Y53150D02*
D03*
Y102362D02*
D03*
Y98425D02*
D03*
X235827Y86122D02*
D03*
Y82185D02*
D03*
X23425Y787D02*
D03*
Y4724D02*
D03*
X15650Y4823D02*
D03*
Y886D02*
D03*
X227854Y69390D02*
D03*
Y65453D02*
D03*
X227756Y77362D02*
D03*
Y73425D02*
D03*
X31693Y9646D02*
D03*
Y5709D02*
D03*
X28150Y5413D02*
D03*
Y1476D02*
D03*
D32*
X47736Y102559D02*
D03*
X43799D02*
D03*
Y82874D02*
D03*
X47736D02*
D03*
X50886D02*
D03*
X54823D02*
D03*
X54921Y102559D02*
D03*
X50984D02*
D03*
X201378Y107087D02*
D03*
X197441D02*
D03*
X202854Y79035D02*
D03*
X206791D02*
D03*
X7480Y14764D02*
D03*
X11417D02*
D03*
X218307Y15354D02*
D03*
X222244D02*
D03*
X213779Y15354D02*
D03*
X209842D02*
D03*
X230709Y15354D02*
D03*
X226772D02*
D03*
X131595Y66437D02*
D03*
X127657D02*
D03*
X193110Y86417D02*
D03*
X189173D02*
D03*
X201378D02*
D03*
X197441D02*
D03*
X193110Y90158D02*
D03*
X189173D02*
D03*
X201378D02*
D03*
X197441D02*
D03*
X193110Y94882D02*
D03*
X189173D02*
D03*
X201378D02*
D03*
X197441D02*
D03*
Y102362D02*
D03*
X201378D02*
D03*
Y98622D02*
D03*
X197441D02*
D03*
X193110D02*
D03*
X189173D02*
D03*
X42224Y76279D02*
D03*
X46161D02*
D03*
X15453Y-4232D02*
D03*
X19390D02*
D03*
X60335Y23720D02*
D03*
X64272D02*
D03*
X127756Y80807D02*
D03*
X123819D02*
D03*
X119685Y66437D02*
D03*
X123622D02*
D03*
X119587Y49705D02*
D03*
X123524D02*
D03*
X54921Y76279D02*
D03*
X50984D02*
D03*
X127657Y49705D02*
D03*
X131595D02*
D03*
X196653Y110925D02*
D03*
X200590D02*
D03*
X189173Y110925D02*
D03*
X193110D02*
D03*
X28346Y-4331D02*
D03*
X32283D02*
D03*
D76*
X19291Y6594D02*
D03*
X15551Y14469D02*
D03*
X23031D02*
D03*
X192913Y122441D02*
D03*
X196653Y114567D02*
D03*
X189173D02*
D03*
X120276Y106102D02*
D03*
X127756D02*
D03*
X124016Y113976D02*
D03*
X124606Y40650D02*
D03*
X128347Y32776D02*
D03*
X120866D02*
D03*
D77*
X198130Y132185D02*
D03*
Y125492D02*
D03*
D78*
X49902Y109055D02*
D03*
X55413D02*
D03*
X44488Y109055D02*
D03*
X38976D02*
D03*
X75492Y109055D02*
D03*
X81004D02*
D03*
X70079Y109055D02*
D03*
X64567D02*
D03*
X103051Y109055D02*
D03*
X108563D02*
D03*
X97638Y109055D02*
D03*
X92126D02*
D03*
X75492Y71653D02*
D03*
X81004D02*
D03*
X70079Y71653D02*
D03*
X64567D02*
D03*
X103051Y71653D02*
D03*
X108563D02*
D03*
X97638Y71653D02*
D03*
X92126D02*
D03*
X75492Y34252D02*
D03*
X81004D02*
D03*
X70079Y34252D02*
D03*
X64567D02*
D03*
X75492Y-3150D02*
D03*
X81004D02*
D03*
X103051Y34252D02*
D03*
X108563D02*
D03*
X97638Y34252D02*
D03*
X92126D02*
D03*
X70079Y-3150D02*
D03*
X64567D02*
D03*
X103051Y-3150D02*
D03*
X108563D02*
D03*
X97638Y-3150D02*
D03*
X92126D02*
D03*
D79*
X127854Y121949D02*
D03*
X125295D02*
D03*
X122736D02*
D03*
X120177D02*
D03*
Y133957D02*
D03*
X122736D02*
D03*
X125295D02*
D03*
X127854D02*
D03*
Y-98D02*
D03*
X125295D02*
D03*
X122736D02*
D03*
X120177D02*
D03*
Y11909D02*
D03*
X122736D02*
D03*
X125295D02*
D03*
X127854D02*
D03*
D80*
X124016Y129724D02*
D03*
Y7677D02*
D03*
D81*
X154921Y33661D02*
D03*
X144291D02*
D03*
X169882Y132087D02*
D03*
X180512D02*
D03*
X169882Y82874D02*
D03*
X180512D02*
D03*
X169882Y33661D02*
D03*
X180512D02*
D03*
X202854Y32480D02*
D03*
X192224D02*
D03*
X202854Y19291D02*
D03*
X192224D02*
D03*
X154921Y82874D02*
D03*
X144291D02*
D03*
X154921Y132087D02*
D03*
X144291D02*
D03*
D82*
X212598Y29094D02*
D03*
Y34095D02*
D03*
Y39094D02*
D03*
Y44094D02*
D03*
Y49095D02*
D03*
Y54094D02*
D03*
Y59095D02*
D03*
X233071Y29094D02*
D03*
Y34095D02*
D03*
Y39094D02*
D03*
Y44094D02*
D03*
Y49095D02*
D03*
Y54094D02*
D03*
Y59095D02*
D03*
D83*
X92323Y81398D02*
D03*
Y83957D02*
D03*
Y86516D02*
D03*
Y89075D02*
D03*
X108071Y81398D02*
D03*
Y83957D02*
D03*
Y86516D02*
D03*
Y89075D02*
D03*
X39173Y118799D02*
D03*
Y121358D02*
D03*
Y123917D02*
D03*
Y126476D02*
D03*
X54921Y118799D02*
D03*
Y121358D02*
D03*
Y123917D02*
D03*
Y126476D02*
D03*
X64764Y118799D02*
D03*
Y121358D02*
D03*
Y123917D02*
D03*
Y126476D02*
D03*
X80512Y118799D02*
D03*
Y121358D02*
D03*
Y123917D02*
D03*
Y126476D02*
D03*
X92323Y118799D02*
D03*
Y121358D02*
D03*
Y123917D02*
D03*
Y126476D02*
D03*
X108071Y118799D02*
D03*
Y121358D02*
D03*
Y123917D02*
D03*
Y126476D02*
D03*
X64764Y81398D02*
D03*
Y83957D02*
D03*
Y86516D02*
D03*
Y89075D02*
D03*
X80512Y81398D02*
D03*
Y83957D02*
D03*
Y86516D02*
D03*
Y89075D02*
D03*
X92323Y43996D02*
D03*
Y46555D02*
D03*
Y49114D02*
D03*
Y51673D02*
D03*
X108071Y43996D02*
D03*
Y46555D02*
D03*
Y49114D02*
D03*
Y51673D02*
D03*
X64764Y43996D02*
D03*
Y46555D02*
D03*
Y49114D02*
D03*
Y51673D02*
D03*
X80512Y43996D02*
D03*
Y46555D02*
D03*
Y49114D02*
D03*
Y51673D02*
D03*
X92323Y6594D02*
D03*
Y9154D02*
D03*
Y11713D02*
D03*
Y14272D02*
D03*
X108071Y6594D02*
D03*
Y9154D02*
D03*
Y11713D02*
D03*
Y14272D02*
D03*
X64764Y6594D02*
D03*
Y9154D02*
D03*
Y11713D02*
D03*
Y14272D02*
D03*
X80512Y6594D02*
D03*
Y9154D02*
D03*
Y11713D02*
D03*
Y14272D02*
D03*
D84*
X145669Y119488D02*
D03*
Y108858D02*
D03*
Y70276D02*
D03*
Y59646D02*
D03*
Y21063D02*
D03*
Y10433D02*
D03*
D85*
X163020Y123521D02*
D03*
X164989D02*
D03*
X166957D02*
D03*
X168926D02*
D03*
Y107773D02*
D03*
X166957D02*
D03*
X164989D02*
D03*
X163020D02*
D03*
Y74308D02*
D03*
X164989D02*
D03*
X166957D02*
D03*
X168926D02*
D03*
Y58560D02*
D03*
X166957D02*
D03*
X164989D02*
D03*
X163020D02*
D03*
X163020Y25095D02*
D03*
X164989D02*
D03*
X166957D02*
D03*
X168926D02*
D03*
Y9347D02*
D03*
X166957D02*
D03*
X164989D02*
D03*
X163020D02*
D03*
X46358Y86713D02*
D03*
X48327D02*
D03*
X50295D02*
D03*
X52264D02*
D03*
Y98524D02*
D03*
X50295D02*
D03*
X48327D02*
D03*
X46358D02*
D03*
D86*
X165973Y116847D02*
D03*
Y119879D02*
D03*
Y67635D02*
D03*
Y70666D02*
D03*
X165973Y18422D02*
D03*
Y21454D02*
D03*
D87*
X201969Y46654D02*
D03*
Y56496D02*
D03*
D89*
X130709Y54429D02*
D03*
Y58169D02*
D03*
Y61910D02*
D03*
X120473Y61909D02*
D03*
Y58169D02*
D03*
Y54429D02*
D03*
D90*
X129823Y72146D02*
D03*
Y77264D02*
D03*
X121358D02*
D03*
Y74705D02*
D03*
Y72146D02*
D03*
D91*
X228248Y83858D02*
D03*
X226279D02*
D03*
X224311D02*
D03*
X222342D02*
D03*
X220374D02*
D03*
X218406D02*
D03*
X216437D02*
D03*
X214469D02*
D03*
Y103543D02*
D03*
X216437D02*
D03*
X218406D02*
D03*
X220374D02*
D03*
X222342D02*
D03*
X224311D02*
D03*
X226279D02*
D03*
X228248D02*
D03*
X38976Y-1575D02*
D03*
X40945D02*
D03*
X42913D02*
D03*
X44882D02*
D03*
X46850D02*
D03*
X48819D02*
D03*
X50787D02*
D03*
X52756D02*
D03*
Y18110D02*
D03*
X50787D02*
D03*
X48819D02*
D03*
X46850D02*
D03*
X44882D02*
D03*
X42913D02*
D03*
X40945D02*
D03*
X38976D02*
D03*
D92*
X211516Y86811D02*
D03*
Y88779D02*
D03*
Y90748D02*
D03*
Y92716D02*
D03*
Y94685D02*
D03*
Y96653D02*
D03*
Y98622D02*
D03*
Y100591D02*
D03*
X231201D02*
D03*
Y98622D02*
D03*
Y96653D02*
D03*
Y94685D02*
D03*
Y92716D02*
D03*
Y90748D02*
D03*
Y88779D02*
D03*
Y86811D02*
D03*
X55709Y1378D02*
D03*
Y3347D02*
D03*
Y5315D02*
D03*
Y7283D02*
D03*
Y9252D02*
D03*
Y11220D02*
D03*
Y13189D02*
D03*
Y15157D02*
D03*
X36024D02*
D03*
Y13189D02*
D03*
Y11220D02*
D03*
Y9252D02*
D03*
Y7283D02*
D03*
Y5315D02*
D03*
Y3347D02*
D03*
Y1378D02*
D03*
D93*
X221358Y93701D02*
D03*
D94*
X45866Y8268D02*
D03*
D95*
X49311Y92618D02*
D03*
D96*
X138681Y121358D02*
D03*
Y115453D02*
D03*
X133760Y121358D02*
D03*
Y115453D02*
D03*
X139173Y6299D02*
D03*
Y12205D02*
D03*
X134449Y6299D02*
D03*
Y12205D02*
D03*
M02*
