M48
;Layer_Color=9474304
;FILE_FORMAT=4:4
METRIC,LZ
;TYPE=PLATED
T1F00S00C0.3000
;TYPE=NON_PLATED
%
T01
X00431Y000462
X0044225
X00475Y000422
Y000322
X0049425Y000272
Y000372
Y000472
X0049725Y0005695
X0048725
X00515
X00525
X0051825Y000422
Y000322
X0053725Y0003745
Y000472
X005395Y0011165
Y0012435
Y0013705
Y0014975
Y0016245
Y0017515
Y0018785
Y0020055
Y0021325
Y0022595
Y0023865
Y0025135
X005245
Y0023865
Y0022595
Y0021325
Y0020055
Y0018785
Y0017515
Y0016245
Y0014975
Y0013705
Y0012435
Y0011165
X00507Y0013495
X0046675Y001347
X004665Y0017645
X004755
X00498
X0050775
X0050775Y0022595
X00467Y002262
X0044175Y001692
X004305
X0040275Y0012195
X0046525Y000852
X0047325
X0049825
X00508
X0058725Y001922
X00402197Y002447
X0033675Y0022595
X0029525Y002262
X002705Y002297
X0026175
X0020225Y0024895
X00193
X0016725Y002502
X0015725
X0015525Y002377
X0016925
Y002207
X0015525
X0014475Y0022145
Y0022945
Y002132
X0015725Y002082
X0016725
Y001967
X0015725
Y0018445
X0016725
X00169Y0017095
X00155
X00144Y0017195
Y001802
X0014425Y001947
Y001551
X001535
X0013475
X0012475Y0014345
X0011175Y0014295
X0010125Y0014525
X0009325
X0008125Y00146
X0007175Y001367
X0006175
X0006225Y001456
X0006675Y001627
X0007675Y0017395
X001125Y0017595
X0011475Y0020695
X0011125Y0021875
X0007625Y002222
X0007675Y002555
X0005575Y0025345
X0004275Y002462
X000305Y002472
X000205
X0001875Y002327
Y002227
X000295Y0022695
X00034Y002372
X0001875Y0020595
Y0019595
X0001875Y0018045
Y0017045
Y001547
Y001447
X00031
Y001547
X0003325Y0016495
X000335Y0017695
Y0018625
X00045Y001512
X0004575Y0013995
Y0012975
X0006225Y0012295
Y0010895
X0007825Y0010695
X0007375Y000967
X0008375
X0008875Y0008645
X000775Y0008445
X0006475Y0008645
X0007275Y0006745
X000855Y0006495
X0009575Y0005645
X00105
X0010975Y000407
X0012175Y0004
X001305
X0011575Y0002775
X000995Y0003245
X000805Y0002845
X0010025Y000787
X0011625Y0008545
X0012925Y000802
X0012575Y000627
X0014375Y0006295
X00168Y000632
X0016725Y0007995
X0016575Y0003695
X00232197Y000307
X00214Y0000645
X0020475Y001062
X0019275
X00166Y0012995
X001295
X001075Y001342
X000975
Y001227
X001075
Y001112
X000975
X000775Y0012495
X00031Y0011895
X0001875Y0011645
Y0012645
Y00104
X000188Y00094
X0003105Y00094
Y00104
X000393Y000722
X000493
X0008925Y0019945
X001025Y002545
X0011675Y0025395
X00231697Y001537
X0026225Y001067
X00271
X00296Y000847
X0033725Y0008495
X00337Y0013495
X00296
X002955Y0017595
X0033725
X003625Y001692
X00376
X003765Y000462
X00363
X00328Y000437
Y000337
X0031725
Y000437
X003065
Y000337
X002955Y002622
X0033675Y0026245
X0033725Y0031245
X00316625
X00296
X003085Y003482
X003225
X0032625Y003637
Y003737
X0031575
Y003637
X00305
Y003737
X0027025Y0035745
X002615
X00204Y0035695
X00192
X00164Y003737
X001645Y003372
X0016425Y002962
Y0028745
Y002742
X0011375
X0010975Y0025975
X000975Y0026525
X0008925Y0025625
X00083Y0026125
X0007925Y0026995
Y0027995
X00069Y0028295
Y0027295
X0007075Y00263
X00063Y00258
X000335Y0025895
X00021
X000215Y0028045
X0002125Y0029095
X000335Y002915
X0003825Y002985
X0004775Y00291
Y0028045
X00039Y0026645
X0002945Y0027295
X0002125Y0031245
X0002025Y003237
X0003025
X000475Y0031245
X0006125Y003062
Y002962
X0007925Y0029495
Y0030495
X0009025
Y0029495
X0009375Y0032295
X0007675
X0011425Y003107
X00114Y0033595
X0011425Y0037395
X00231447Y0028145
X0036225Y0029695
X0037575
X0043025
X004415
X0046675Y003117
X00476
X0049825
X005065
X0052275Y0033195
X00513Y003427
Y003527
X0051125Y003707
X0050125
X004835
X004735
X004705Y003527
Y003427
X004895Y003477
Y003577
Y003377
X0053475Y0035145
X00523Y003637
X005245Y0028945
Y0027675
Y0026405
X005395
Y0027675
Y0028945
X00507Y0026245
X00468
X00401947Y0037245
M30
