G04 Layer_Physical_Order=10*
G04 Layer_Color=16711680*
%FSLAX44Y44*%
%MOMM*%
G71*
G01*
G75*
%ADD12R,1.1000X1.0000*%
%ADD28R,0.6000X0.6000*%
%ADD29R,0.6000X0.6000*%
%ADD30C,0.5000*%
%ADD31C,0.2000*%
%ADD33C,0.2500*%
%ADD35R,58.8500X2.0300*%
%ADD39C,1.1900*%
%ADD40C,3.0000*%
%ADD41C,6.0000*%
%ADD42C,1.5000*%
%ADD43C,0.8000*%
%ADD44C,0.6000*%
%ADD45C,0.9000*%
%ADD46R,1.5750X33.7300*%
%ADD47R,58.8500X1.3500*%
%ADD48R,4.2000X6.9750*%
%ADD49R,6.9750X4.2000*%
%ADD50R,1.6750X3.9000*%
%ADD51R,1.6750X5.5750*%
%ADD52R,1.2750X0.8500*%
%ADD53R,0.8500X1.2750*%
%ADD71C,0.4000*%
%ADD72R,1.4500X1.7500*%
G04:AMPARAMS|DCode=73|XSize=0.25mm|YSize=0.8mm|CornerRadius=0.0625mm|HoleSize=0mm|Usage=FLASHONLY|Rotation=0.000|XOffset=0mm|YOffset=0mm|HoleType=Round|Shape=RoundedRectangle|*
%AMROUNDEDRECTD73*
21,1,0.2500,0.6750,0,0,0.0*
21,1,0.1250,0.8000,0,0,0.0*
1,1,0.1250,0.0625,-0.3375*
1,1,0.1250,-0.0625,-0.3375*
1,1,0.1250,-0.0625,0.3375*
1,1,0.1250,0.0625,0.3375*
%
%ADD73ROUNDEDRECTD73*%
G04:AMPARAMS|DCode=74|XSize=0.4mm|YSize=1.1mm|CornerRadius=0.1mm|HoleSize=0mm|Usage=FLASHONLY|Rotation=180.000|XOffset=0mm|YOffset=0mm|HoleType=Round|Shape=RoundedRectangle|*
%AMROUNDEDRECTD74*
21,1,0.4000,0.9000,0,0,180.0*
21,1,0.2000,1.1000,0,0,180.0*
1,1,0.2000,-0.1000,0.4500*
1,1,0.2000,0.1000,0.4500*
1,1,0.2000,0.1000,-0.4500*
1,1,0.2000,-0.1000,-0.4500*
%
%ADD74ROUNDEDRECTD74*%
G04:AMPARAMS|DCode=75|XSize=0.45mm|YSize=0.9mm|CornerRadius=0.1125mm|HoleSize=0mm|Usage=FLASHONLY|Rotation=180.000|XOffset=0mm|YOffset=0mm|HoleType=Round|Shape=RoundedRectangle|*
%AMROUNDEDRECTD75*
21,1,0.4500,0.6750,0,0,180.0*
21,1,0.2250,0.9000,0,0,180.0*
1,1,0.2250,-0.1125,0.3375*
1,1,0.2250,0.1125,0.3375*
1,1,0.2250,0.1125,-0.3375*
1,1,0.2250,-0.1125,-0.3375*
%
%ADD75ROUNDEDRECTD75*%
%ADD76R,2.4000X1.7000*%
%ADD77R,3.5500X0.6100*%
%ADD78R,1.0000X1.1000*%
%ADD79R,1.7000X1.1000*%
%ADD80R,1.1000X1.7000*%
%ADD81R,0.8000X0.8000*%
%ADD82R,1.1000X2.0000*%
%ADD83R,4.8000X4.7500*%
%ADD84R,1.4000X1.2700*%
%ADD85R,2.1500X1.2000*%
G04:AMPARAMS|DCode=86|XSize=0.35mm|YSize=0.8mm|CornerRadius=0.0875mm|HoleSize=0mm|Usage=FLASHONLY|Rotation=0.000|XOffset=0mm|YOffset=0mm|HoleType=Round|Shape=RoundedRectangle|*
%AMROUNDEDRECTD86*
21,1,0.3500,0.6250,0,0,0.0*
21,1,0.1750,0.8000,0,0,0.0*
1,1,0.1750,0.0875,-0.3125*
1,1,0.1750,-0.0875,-0.3125*
1,1,0.1750,-0.0875,0.3125*
1,1,0.1750,0.0875,0.3125*
%
%ADD86ROUNDEDRECTD86*%
%ADD87R,2.2000X0.6500*%
G04:AMPARAMS|DCode=88|XSize=0.3mm|YSize=1.1mm|CornerRadius=0.075mm|HoleSize=0mm|Usage=FLASHONLY|Rotation=180.000|XOffset=0mm|YOffset=0mm|HoleType=Round|Shape=RoundedRectangle|*
%AMROUNDEDRECTD88*
21,1,0.3000,0.9500,0,0,180.0*
21,1,0.1500,1.1000,0,0,180.0*
1,1,0.1500,-0.0750,0.4750*
1,1,0.1500,0.0750,0.4750*
1,1,0.1500,0.0750,-0.4750*
1,1,0.1500,-0.0750,-0.4750*
%
%ADD88ROUNDEDRECTD88*%
%ADD89R,1.0000X1.8000*%
%ADD90R,0.8000X1.2000*%
%ADD91R,0.7000X0.9000*%
%ADD92R,1.0500X0.6000*%
G04:AMPARAMS|DCode=93|XSize=0.4mm|YSize=1.1mm|CornerRadius=0.1mm|HoleSize=0mm|Usage=FLASHONLY|Rotation=90.000|XOffset=0mm|YOffset=0mm|HoleType=Round|Shape=RoundedRectangle|*
%AMROUNDEDRECTD93*
21,1,0.4000,0.9000,0,0,90.0*
21,1,0.2000,1.1000,0,0,90.0*
1,1,0.2000,0.4500,0.1000*
1,1,0.2000,0.4500,-0.1000*
1,1,0.2000,-0.4500,-0.1000*
1,1,0.2000,-0.4500,0.1000*
%
%ADD93ROUNDEDRECTD93*%
%ADD94R,58.8500X1.9700*%
%ADD95R,2.2750X33.7300*%
D12*
X627000Y327450D02*
D03*
X610000D02*
D03*
D28*
X426000Y51500D02*
D03*
X416000D02*
D03*
X446000D02*
D03*
X436000D02*
D03*
X381050Y227192D02*
D03*
X391050D02*
D03*
X445500Y174500D02*
D03*
X435500D02*
D03*
X65750Y207950D02*
D03*
X75750D02*
D03*
X56500D02*
D03*
X46500D02*
D03*
X527750Y226300D02*
D03*
X537750D02*
D03*
X614500Y92700D02*
D03*
X624500D02*
D03*
Y82700D02*
D03*
X614500D02*
D03*
X415250Y302250D02*
D03*
X425250D02*
D03*
X425500Y174500D02*
D03*
X415500D02*
D03*
X416000Y355000D02*
D03*
X406000D02*
D03*
X406200Y227451D02*
D03*
X416200D02*
D03*
X416700Y104451D02*
D03*
X406700D02*
D03*
X587250Y228700D02*
D03*
X597250D02*
D03*
X237500Y377200D02*
D03*
X227500D02*
D03*
X227750Y249450D02*
D03*
X237750D02*
D03*
X238250Y126450D02*
D03*
X228250D02*
D03*
X435250Y302250D02*
D03*
X445250D02*
D03*
X390800Y354942D02*
D03*
X380800D02*
D03*
X381550Y104192D02*
D03*
X391550D02*
D03*
X92750Y77200D02*
D03*
X102750D02*
D03*
X70000Y77250D02*
D03*
X60000D02*
D03*
X616250Y310700D02*
D03*
X606250D02*
D03*
D29*
X247558Y154300D02*
D03*
Y164300D02*
D03*
X369442Y164200D02*
D03*
Y154200D02*
D03*
X358442D02*
D03*
Y164200D02*
D03*
X271250Y292000D02*
D03*
Y282000D02*
D03*
X271500Y154250D02*
D03*
Y164250D02*
D03*
X272000Y41250D02*
D03*
Y31250D02*
D03*
X629000Y209700D02*
D03*
Y199700D02*
D03*
X618000D02*
D03*
Y209700D02*
D03*
X607000D02*
D03*
Y199700D02*
D03*
X238942Y316200D02*
D03*
Y306200D02*
D03*
X239692Y178450D02*
D03*
Y188450D02*
D03*
Y65450D02*
D03*
Y55450D02*
D03*
X238942Y354700D02*
D03*
Y364700D02*
D03*
X239442Y236950D02*
D03*
Y226950D02*
D03*
X239692Y103950D02*
D03*
Y113950D02*
D03*
X239000Y340250D02*
D03*
Y330250D02*
D03*
X239250Y202500D02*
D03*
Y212500D02*
D03*
X239750Y89500D02*
D03*
Y79500D02*
D03*
X226692Y354700D02*
D03*
Y364700D02*
D03*
X227192Y236950D02*
D03*
Y226950D02*
D03*
X228942Y103950D02*
D03*
Y113950D02*
D03*
X258558Y292050D02*
D03*
Y282050D02*
D03*
X258808Y154300D02*
D03*
Y164300D02*
D03*
X259308Y41300D02*
D03*
Y31300D02*
D03*
X124000Y360700D02*
D03*
Y370700D02*
D03*
X124250Y241950D02*
D03*
Y231950D02*
D03*
X124750Y110950D02*
D03*
Y120950D02*
D03*
X173442Y326700D02*
D03*
Y336700D02*
D03*
X173692Y208950D02*
D03*
Y198950D02*
D03*
X174192Y75950D02*
D03*
Y85950D02*
D03*
X215192Y316200D02*
D03*
Y306200D02*
D03*
X215442Y178450D02*
D03*
Y188450D02*
D03*
X215942Y65450D02*
D03*
Y55450D02*
D03*
X184407Y282200D02*
D03*
Y292200D02*
D03*
X184657Y164450D02*
D03*
Y154450D02*
D03*
X185157Y31450D02*
D03*
Y41450D02*
D03*
X392764Y291950D02*
D03*
Y281950D02*
D03*
X393014Y154200D02*
D03*
Y164200D02*
D03*
X393514Y41200D02*
D03*
Y31200D02*
D03*
X417728Y291950D02*
D03*
Y281950D02*
D03*
X417978Y154200D02*
D03*
Y164200D02*
D03*
X418478Y41200D02*
D03*
Y31200D02*
D03*
X405121Y281950D02*
D03*
Y291950D02*
D03*
X405371Y164200D02*
D03*
Y154200D02*
D03*
X405871Y31200D02*
D03*
Y41200D02*
D03*
X441442Y291950D02*
D03*
Y281950D02*
D03*
X441692Y154200D02*
D03*
Y164200D02*
D03*
X442192Y41200D02*
D03*
Y31200D02*
D03*
X369192Y291950D02*
D03*
Y281950D02*
D03*
X369942Y31200D02*
D03*
Y41200D02*
D03*
X457250Y324200D02*
D03*
Y334200D02*
D03*
X457500Y206450D02*
D03*
Y196450D02*
D03*
X458000Y73450D02*
D03*
Y83450D02*
D03*
X222299Y282200D02*
D03*
Y292200D02*
D03*
X222549Y164450D02*
D03*
Y154450D02*
D03*
X223049Y31450D02*
D03*
Y41450D02*
D03*
X209585Y282200D02*
D03*
Y292200D02*
D03*
X209835Y164450D02*
D03*
Y154450D02*
D03*
X210335Y31450D02*
D03*
Y41450D02*
D03*
X508000Y292950D02*
D03*
Y282950D02*
D03*
X508250Y155200D02*
D03*
Y165200D02*
D03*
X508750Y42200D02*
D03*
Y32200D02*
D03*
X247308Y292050D02*
D03*
Y282050D02*
D03*
X248058Y31300D02*
D03*
Y41300D02*
D03*
X358192Y291950D02*
D03*
Y281950D02*
D03*
X358942Y31200D02*
D03*
Y41200D02*
D03*
X227692Y306200D02*
D03*
Y316200D02*
D03*
X227942Y188450D02*
D03*
Y178450D02*
D03*
X228942Y55450D02*
D03*
Y65450D02*
D03*
X124000Y282950D02*
D03*
Y292950D02*
D03*
X124250Y165200D02*
D03*
Y155200D02*
D03*
X124750Y32200D02*
D03*
Y42200D02*
D03*
X124000Y318867D02*
D03*
Y308867D02*
D03*
X124250Y181117D02*
D03*
Y191117D02*
D03*
X124750Y68117D02*
D03*
Y58117D02*
D03*
X228192Y330450D02*
D03*
Y340450D02*
D03*
X228442Y212700D02*
D03*
Y202700D02*
D03*
X228942Y79700D02*
D03*
Y89700D02*
D03*
X124000Y344783D02*
D03*
Y334783D02*
D03*
X124250Y205533D02*
D03*
Y215533D02*
D03*
X124750Y93533D02*
D03*
Y83533D02*
D03*
X235014Y282200D02*
D03*
Y292200D02*
D03*
X235264Y164450D02*
D03*
Y154450D02*
D03*
X235764Y31450D02*
D03*
Y41450D02*
D03*
X215500Y340200D02*
D03*
Y330200D02*
D03*
X215500Y202450D02*
D03*
Y212450D02*
D03*
X216000Y89450D02*
D03*
Y79450D02*
D03*
X508000Y370700D02*
D03*
Y360700D02*
D03*
X508250Y232950D02*
D03*
Y242950D02*
D03*
X508750Y119950D02*
D03*
Y109950D02*
D03*
X196871Y292200D02*
D03*
Y282200D02*
D03*
X197121Y154450D02*
D03*
Y164450D02*
D03*
X197621Y41450D02*
D03*
Y31450D02*
D03*
X380906Y291950D02*
D03*
Y281950D02*
D03*
X381157Y154200D02*
D03*
Y164200D02*
D03*
X381656Y41200D02*
D03*
Y31200D02*
D03*
X429335Y291950D02*
D03*
Y281950D02*
D03*
X429585Y154200D02*
D03*
Y164200D02*
D03*
X430085Y41200D02*
D03*
Y31200D02*
D03*
X508000Y344783D02*
D03*
Y334783D02*
D03*
X508250Y208783D02*
D03*
Y218783D02*
D03*
X508750Y94033D02*
D03*
Y84033D02*
D03*
X397058Y333800D02*
D03*
Y343800D02*
D03*
X397308Y216050D02*
D03*
Y206050D02*
D03*
X397808Y83050D02*
D03*
Y93050D02*
D03*
X508000Y308867D02*
D03*
Y318867D02*
D03*
X508250Y189367D02*
D03*
Y179367D02*
D03*
X508750Y58117D02*
D03*
Y68117D02*
D03*
X626250Y285950D02*
D03*
Y275950D02*
D03*
Y260950D02*
D03*
Y250950D02*
D03*
X567750Y272700D02*
D03*
Y282700D02*
D03*
X548500Y79950D02*
D03*
Y89950D02*
D03*
D30*
X165250Y101450D02*
X174942D01*
D31*
X487384Y60135D02*
Y71950D01*
X485200Y57950D02*
X487384Y60135D01*
X481000Y57950D02*
X485200D01*
X480885Y58066D02*
Y71950D01*
X486884Y183134D02*
Y194950D01*
X484700Y180950D02*
X486884Y183134D01*
X480500Y180950D02*
X484700D01*
X273500Y192950D02*
X274000Y193450D01*
X274250Y70200D02*
X274500Y70450D01*
X152500Y356700D02*
Y369200D01*
X144000Y357200D02*
X146000Y359200D01*
X140000Y357200D02*
X144000D01*
X139500Y356700D02*
X140000Y357200D01*
X152500Y329200D02*
Y343200D01*
X143750Y343200D02*
X146000Y340950D01*
X139500Y343200D02*
X143750D01*
X146000Y329200D02*
Y340950D01*
Y359200D02*
Y369200D01*
X186942Y339950D02*
X196500D01*
X186692Y303950D02*
X191692D01*
X488500Y297700D02*
X492250D01*
X486634Y295835D02*
X488500Y297700D01*
X486634Y282700D02*
Y295835D01*
Y310565D02*
Y322700D01*
X488500Y308700D02*
X492250D01*
X486634Y310565D02*
X488500Y308700D01*
X480134Y308815D02*
Y322700D01*
X152750Y201450D02*
Y215450D01*
X144000Y215450D02*
X146250Y213200D01*
X139750Y215450D02*
X144000D01*
X146250Y201450D02*
Y213200D01*
X152750Y228950D02*
Y241450D01*
X146250Y231450D02*
Y241450D01*
X143750Y228950D02*
X146250Y231450D01*
X139750Y228950D02*
X143750D01*
X187192Y212200D02*
X196500D01*
X186942Y176200D02*
X191942D01*
X488750Y169950D02*
X492500D01*
X486884Y168084D02*
X488750Y169950D01*
X486884Y154950D02*
Y168084D01*
X480384Y154950D02*
Y169834D01*
Y181066D02*
Y194950D01*
X480134Y282700D02*
Y297584D01*
X80250Y126200D02*
X93800D01*
Y116200D02*
X107250D01*
X93800Y126200D02*
X99250D01*
X104250D01*
X89250Y116200D02*
X93800D01*
X22700Y166200D02*
X31250D01*
X22700Y156200D02*
X30500D01*
X30250Y156450D02*
X30500Y156200D01*
X22700Y146200D02*
X22750D01*
X13500Y136200D02*
X22700D01*
Y176200D02*
X35250D01*
X22700Y186200D02*
X30250D01*
X87750Y136200D02*
X93800D01*
X583750Y247200D02*
Y256700D01*
X578750Y237700D02*
Y247200D01*
X588750Y237700D02*
Y247200D01*
X593750D02*
Y256700D01*
X598750Y237700D02*
Y247200D01*
X603750D02*
Y256700D01*
X608750Y237950D02*
Y247200D01*
X613750D02*
Y256700D01*
X583750Y290950D02*
Y300450D01*
X598750Y281950D02*
Y290950D01*
X603750D02*
Y300450D01*
X608750Y281700D02*
Y290950D01*
X613750Y290950D02*
Y300450D01*
X153250Y78450D02*
Y92450D01*
Y105950D02*
Y118450D01*
X480885Y31950D02*
Y46835D01*
X187442Y53200D02*
X192442D01*
X187450Y89200D02*
X197442D01*
X140250Y105950D02*
X144250D01*
X146750Y108450D01*
Y118450D01*
X140250Y92450D02*
X144500D01*
X146750Y90200D01*
Y78450D02*
Y90200D01*
X487384Y31950D02*
Y45085D01*
X489250Y46950D01*
X493000D01*
X374000Y90700D02*
Y96500D01*
X418250Y63000D02*
Y76508D01*
X424750Y63000D02*
Y74750D01*
X431250Y63000D02*
Y74750D01*
X380500Y90700D02*
Y103000D01*
X296750Y41250D02*
X310000D01*
X322500Y47750D02*
X336750D01*
X296750Y28250D02*
X310000D01*
X318000D02*
X336750D01*
X286500Y34750D02*
X296750D01*
X336750Y41250D02*
X347000D01*
X325250Y34750D02*
X336750D01*
X197442Y42414D02*
Y56200D01*
X418250Y90750D02*
Y93000D01*
Y103250D01*
X272500Y41250D02*
X280750D01*
X287250Y47750D01*
X296750D01*
X358942Y31200D02*
X369942D01*
X424750Y93000D02*
Y99500D01*
X431250Y93000D02*
Y104000D01*
X397808Y93000D02*
X411750D01*
X201692Y80692D02*
Y86200D01*
X194942Y73942D02*
X201692Y80692D01*
X185750Y87500D02*
X187450Y89200D01*
X337500Y164250D02*
X347750D01*
X318750Y151250D02*
X337500D01*
X297500D02*
X310750D01*
X297500Y164250D02*
X310750D01*
X287250Y157750D02*
X297500D01*
X326000D02*
X337500D01*
X358442Y154200D02*
X369442D01*
X403750Y63000D02*
X411750D01*
X397358Y216000D02*
X411250D01*
X417750D02*
Y225901D01*
X416200Y227451D02*
X417750Y225901D01*
X424250Y216000D02*
Y223000D01*
X430750Y216000D02*
Y227500D01*
X431000Y227750D01*
X379750Y341450D02*
Y353892D01*
X417500Y343750D02*
Y353651D01*
X397108Y343750D02*
X411000D01*
X424000D02*
Y351250D01*
X430500Y343750D02*
Y355750D01*
X417500Y313750D02*
Y327250D01*
X424000Y313750D02*
Y325500D01*
X430500Y313750D02*
Y323750D01*
X380000Y213700D02*
Y226142D01*
X367500Y90700D02*
Y98750D01*
X371750D01*
X374000Y96500D01*
X358192Y281950D02*
X369192D01*
X336500Y292000D02*
X346750D01*
X286250Y285500D02*
X296500D01*
X317750Y279000D02*
X336500D01*
X296500D02*
X309750D01*
X296500Y292000D02*
X309750D01*
X196942Y165414D02*
Y179200D01*
X417750Y186000D02*
Y197750D01*
X424250Y186000D02*
Y197750D01*
X430750Y186000D02*
Y197000D01*
X325000Y285500D02*
X336500D01*
X323250Y170750D02*
X337500D01*
X322250Y298500D02*
X336500D01*
X281000D02*
X296500D01*
X196692Y293164D02*
Y306950D01*
X404500Y186000D02*
X411250D01*
X402000Y313750D02*
X403000D01*
X411000D01*
X271500Y164250D02*
Y169500D01*
X272750Y170750D01*
X280500D01*
X297500D01*
X271250Y292000D02*
Y296750D01*
X273000Y298500D01*
X281000D01*
D33*
X268000Y64000D02*
Y70450D01*
X367000Y211200D02*
Y221750D01*
X267500Y187000D02*
Y193450D01*
X261000Y188000D02*
Y193450D01*
X266250Y185750D02*
X267500Y187000D01*
X261000Y185750D02*
X266250D01*
X261500Y62500D02*
Y70450D01*
X266500Y62500D02*
X268000Y64000D01*
X261000Y62500D02*
X266500D01*
X260750Y315250D02*
Y321200D01*
X267250Y314250D02*
Y321200D01*
X266000Y313000D02*
X267250Y314250D01*
X260750Y313000D02*
X266000D01*
X260750Y315250D02*
X262250Y313750D01*
X367000Y221750D02*
X371750D01*
X373500Y211950D02*
X374250Y211200D01*
X373500Y211950D02*
Y220000D01*
X371750Y221750D02*
X373500Y220000D01*
X373250Y339700D02*
X374000Y338950D01*
X373250Y339700D02*
Y348500D01*
X372250Y349500D02*
X373250Y348500D01*
X366750Y339700D02*
X367500Y338950D01*
X366750Y339700D02*
Y349500D01*
X372250D01*
D35*
X324750Y398600D02*
D03*
D39*
X58250Y321200D02*
D03*
Y231200D02*
D03*
Y96200D02*
D03*
Y186200D02*
D03*
D40*
X569900Y361850D02*
D03*
Y37850D02*
D03*
X79900Y361850D02*
D03*
D41*
X31250Y31200D02*
D03*
Y368500D02*
D03*
X618550D02*
D03*
Y31200D02*
D03*
D42*
X568200Y315450D02*
D03*
Y85650D02*
D03*
X590800D02*
D03*
Y315450D02*
D03*
D43*
X282000Y329000D02*
D03*
X351250Y184000D02*
D03*
X282000Y183500D02*
D03*
X274000Y136750D02*
D03*
X279000Y263700D02*
D03*
X567000Y221450D02*
D03*
X643000Y63200D02*
D03*
X6500Y337700D02*
D03*
X6750Y62700D02*
D03*
X583500Y392950D02*
D03*
X643250Y318700D02*
D03*
X569750Y6450D02*
D03*
X59000D02*
D03*
X70500Y57200D02*
D03*
X90500Y22950D02*
D03*
X589500Y264750D02*
D03*
X543750Y358700D02*
D03*
X520250Y18750D02*
D03*
X485750Y18950D02*
D03*
X146250Y350450D02*
D03*
X174600Y258700D02*
D03*
X284250Y355450D02*
D03*
X348000D02*
D03*
X284500Y226200D02*
D03*
X285000Y104700D02*
D03*
X348750D02*
D03*
Y60700D02*
D03*
X285000Y70700D02*
D03*
Y60200D02*
D03*
X591750Y159450D02*
D03*
X604000Y173950D02*
D03*
Y185450D02*
D03*
X591750Y173950D02*
D03*
X145000Y296950D02*
D03*
X604000Y159450D02*
D03*
X543750Y381700D02*
D03*
Y370700D02*
D03*
X348250Y225950D02*
D03*
X540500Y27200D02*
D03*
X134250Y296950D02*
D03*
X191000Y143700D02*
D03*
X59750Y266700D02*
D03*
X68000Y392950D02*
D03*
X597250Y109950D02*
D03*
X627750Y310700D02*
D03*
X99500Y347700D02*
D03*
X402250Y138250D02*
D03*
X132000Y101700D02*
D03*
X349250Y263700D02*
D03*
X132500Y350200D02*
D03*
X178750Y143700D02*
D03*
X168750D02*
D03*
X165250Y101450D02*
D03*
X182250Y380950D02*
D03*
X218250Y263700D02*
D03*
X130000Y258200D02*
D03*
X585750Y276000D02*
D03*
X543750Y344000D02*
D03*
X141000Y258200D02*
D03*
X147750Y271750D02*
D03*
X205000Y263700D02*
D03*
X25500Y214000D02*
D03*
X30750Y199500D02*
D03*
X59750Y280750D02*
D03*
X165750Y118450D02*
D03*
X28250Y80500D02*
D03*
X18000D02*
D03*
X457250Y149250D02*
D03*
X460750Y24500D02*
D03*
X455500Y277250D02*
D03*
X348750Y193750D02*
D03*
X284000Y194250D02*
D03*
X351250Y311500D02*
D03*
Y321750D02*
D03*
X282000Y311500D02*
D03*
X348750Y70750D02*
D03*
X133250Y20250D02*
D03*
X146750D02*
D03*
X161750D02*
D03*
X445750Y62500D02*
D03*
Y75000D02*
D03*
X445250Y187000D02*
D03*
Y200750D02*
D03*
X444750Y312500D02*
D03*
Y326250D02*
D03*
X261500Y137000D02*
D03*
X369700Y259500D02*
D03*
X350750Y88500D02*
D03*
X469000Y208750D02*
D03*
X349000Y339000D02*
D03*
X534250Y18750D02*
D03*
D44*
X370000Y319500D02*
D03*
X361250Y325250D02*
D03*
X379000Y324750D02*
D03*
X508750Y94033D02*
D03*
X392764Y281950D02*
D03*
Y291950D02*
D03*
X274500Y321250D02*
D03*
X253500Y321700D02*
D03*
X253750Y194200D02*
D03*
X254250Y70450D02*
D03*
X524250Y352533D02*
D03*
X548500Y89950D02*
D03*
Y79950D02*
D03*
X624500Y92700D02*
D03*
X614500D02*
D03*
X552500Y131200D02*
D03*
X577250Y293450D02*
D03*
X153000Y357450D02*
D03*
X101500Y241200D02*
D03*
X86750Y231200D02*
D03*
X28000Y320950D02*
D03*
X16250Y311200D02*
D03*
X101500Y321200D02*
D03*
X86750Y311200D02*
D03*
X101500Y301200D02*
D03*
X86750Y291200D02*
D03*
X101500Y281200D02*
D03*
X86750Y271200D02*
D03*
X101500Y261200D02*
D03*
X86750Y251200D02*
D03*
X16250Y231200D02*
D03*
X28000Y241200D02*
D03*
X16250Y251200D02*
D03*
X28000Y261200D02*
D03*
X16250Y271200D02*
D03*
X28000Y281200D02*
D03*
X16250Y291200D02*
D03*
X28000Y301200D02*
D03*
X160250Y241200D02*
D03*
X174442Y241450D02*
D03*
X192500Y367700D02*
D03*
X160000Y369200D02*
D03*
X152500Y343200D02*
D03*
X139500D02*
D03*
Y357450D02*
D03*
X194250Y316700D02*
D03*
Y327200D02*
D03*
X203250Y336950D02*
D03*
X264000Y340950D02*
D03*
X480250Y308700D02*
D03*
X138500Y369450D02*
D03*
X417728Y281950D02*
D03*
X494250Y282700D02*
D03*
X191192Y352450D02*
D03*
X459942Y372450D02*
D03*
Y355450D02*
D03*
X304000Y365950D02*
D03*
Y344950D02*
D03*
X330250Y314950D02*
D03*
X322250D02*
D03*
X272000Y336700D02*
D03*
X309250Y314950D02*
D03*
X301250D02*
D03*
X256250Y336700D02*
D03*
X143000Y283450D02*
D03*
X484442Y372450D02*
D03*
X355750Y371700D02*
D03*
X328750Y365950D02*
D03*
Y344950D02*
D03*
X203250Y306950D02*
D03*
X215500Y340200D02*
D03*
X252500Y371950D02*
D03*
X279500D02*
D03*
X405121Y291950D02*
D03*
X166750Y283450D02*
D03*
X405121Y281950D02*
D03*
X380906D02*
D03*
Y291950D02*
D03*
X429335Y281950D02*
D03*
X417728Y291950D02*
D03*
X441442D02*
D03*
X429335D02*
D03*
X185250Y306950D02*
D03*
X472500Y282700D02*
D03*
X456634Y288700D02*
D03*
X441442Y281950D02*
D03*
X160000Y329200D02*
D03*
X143000Y310450D02*
D03*
X174192Y369200D02*
D03*
X484442Y346700D02*
D03*
X472500Y322700D02*
D03*
X441692Y351200D02*
D03*
X456634Y305700D02*
D03*
X207942Y351200D02*
D03*
X174192Y352200D02*
D03*
X425000Y372250D02*
D03*
X208192Y369450D02*
D03*
X185250Y336950D02*
D03*
X166750Y310450D02*
D03*
X152750Y215450D02*
D03*
X139750D02*
D03*
X152750Y228950D02*
D03*
X139750D02*
D03*
X194500Y188950D02*
D03*
Y199450D02*
D03*
X203500Y209200D02*
D03*
X264250Y213200D02*
D03*
X480500Y180950D02*
D03*
X138750Y241700D02*
D03*
X494500Y154950D02*
D03*
X191442Y241700D02*
D03*
Y224700D02*
D03*
X460192Y243950D02*
D03*
Y227700D02*
D03*
X304250Y238200D02*
D03*
Y217200D02*
D03*
X330500Y187200D02*
D03*
X322500D02*
D03*
X272250Y208950D02*
D03*
X309500Y187200D02*
D03*
X301500D02*
D03*
X256500Y208950D02*
D03*
X143250Y155700D02*
D03*
X383000Y243950D02*
D03*
X356000D02*
D03*
X329000Y238200D02*
D03*
Y217200D02*
D03*
X203500Y179200D02*
D03*
X252750Y244200D02*
D03*
X279750D02*
D03*
X167000Y155700D02*
D03*
X381157Y154200D02*
D03*
Y164200D02*
D03*
X441692D02*
D03*
X185500Y179200D02*
D03*
X472750Y154950D02*
D03*
X456884Y160950D02*
D03*
X441692Y154200D02*
D03*
X160250Y201450D02*
D03*
X143250Y182700D02*
D03*
X484692Y218950D02*
D03*
X472750Y194950D02*
D03*
X441942Y223450D02*
D03*
X456884Y177950D02*
D03*
X208192Y223450D02*
D03*
X174442Y224450D02*
D03*
X425250Y243950D02*
D03*
X208442Y241700D02*
D03*
X185500Y209200D02*
D03*
X167000Y182700D02*
D03*
X398250Y243950D02*
D03*
X492250Y297700D02*
D03*
X480250D02*
D03*
X492250Y308700D02*
D03*
X492500Y169950D02*
D03*
X480500D02*
D03*
X80250Y126200D02*
D03*
X99250D02*
D03*
X89250Y116200D02*
D03*
Y96200D02*
D03*
X99250Y106200D02*
D03*
X80250D02*
D03*
X18150Y116200D02*
D03*
X28150Y126200D02*
D03*
X36150Y116200D02*
D03*
X9150Y126200D02*
D03*
X18150Y96200D02*
D03*
X28150Y106200D02*
D03*
X36150Y96200D02*
D03*
X9150Y106200D02*
D03*
X31250Y166200D02*
D03*
X30500Y156200D02*
D03*
X22750Y146200D02*
D03*
X13500Y136200D02*
D03*
X35250Y176200D02*
D03*
X30250Y186200D02*
D03*
X89250Y136200D02*
D03*
X80250Y146200D02*
D03*
X89250Y156200D02*
D03*
X80250Y166200D02*
D03*
X89250Y176200D02*
D03*
X80250Y186200D02*
D03*
X102000Y146150D02*
D03*
Y136200D02*
D03*
X530000Y135450D02*
D03*
X570000Y145700D02*
D03*
X529750Y152950D02*
D03*
X529500Y179950D02*
D03*
X529500Y108200D02*
D03*
X570000Y132950D02*
D03*
Y120200D02*
D03*
Y107700D02*
D03*
X623250D02*
D03*
Y120200D02*
D03*
Y132950D02*
D03*
Y145700D02*
D03*
Y171200D02*
D03*
Y183700D02*
D03*
X570000D02*
D03*
Y171200D02*
D03*
Y158450D02*
D03*
X591500Y204450D02*
D03*
X566500Y204700D02*
D03*
X583750Y300450D02*
D03*
X578750Y237700D02*
D03*
X583750Y256700D02*
D03*
X593750D02*
D03*
X598750Y237700D02*
D03*
X588750D02*
D03*
X603750Y256700D02*
D03*
X613750D02*
D03*
X609000Y237700D02*
D03*
X603750Y300450D02*
D03*
X608750Y281700D02*
D03*
X613750Y300450D02*
D03*
X598750Y281700D02*
D03*
X610000Y327450D02*
D03*
X627250D02*
D03*
X588500Y335200D02*
D03*
X573500D02*
D03*
X82000Y58700D02*
D03*
X101000D02*
D03*
X91500Y35950D02*
D03*
X143750Y32700D02*
D03*
X167500D02*
D03*
Y59700D02*
D03*
X143750D02*
D03*
X185157Y41450D02*
D03*
X197621D02*
D03*
Y31450D02*
D03*
X210335D02*
D03*
Y41450D02*
D03*
X223049D02*
D03*
Y31450D02*
D03*
X235764D02*
D03*
Y41450D02*
D03*
X239750Y79500D02*
D03*
X228942Y79700D02*
D03*
Y89700D02*
D03*
X257000Y85950D02*
D03*
X272750D02*
D03*
X264750Y90200D02*
D03*
X195000Y76450D02*
D03*
Y65950D02*
D03*
X174942Y101450D02*
D03*
Y118450D02*
D03*
X191942Y118700D02*
D03*
Y101700D02*
D03*
X208692Y100450D02*
D03*
X208942Y118700D02*
D03*
X302000Y64200D02*
D03*
X310000D02*
D03*
X323000D02*
D03*
X331000D02*
D03*
X370750Y70950D02*
D03*
X379500Y76200D02*
D03*
X362000D02*
D03*
X406700Y104451D02*
D03*
X416700D02*
D03*
X381656Y41200D02*
D03*
Y31200D02*
D03*
X393514D02*
D03*
Y41200D02*
D03*
X405871Y31200D02*
D03*
X418478D02*
D03*
X430085Y41200D02*
D03*
Y31200D02*
D03*
X442192D02*
D03*
Y41200D02*
D03*
X457884Y37950D02*
D03*
Y54950D02*
D03*
X485192Y121700D02*
D03*
Y95950D02*
D03*
X460692Y104700D02*
D03*
Y121700D02*
D03*
X442692Y118700D02*
D03*
X442442Y100450D02*
D03*
X425750Y120950D02*
D03*
X398750D02*
D03*
X383500Y120950D02*
D03*
X356500D02*
D03*
X280250Y121200D02*
D03*
X253250D02*
D03*
X139250Y118700D02*
D03*
X140250Y105950D02*
D03*
Y92450D02*
D03*
X153250D02*
D03*
Y105950D02*
D03*
X160750Y78450D02*
D03*
X495000Y31950D02*
D03*
X473250Y71950D02*
D03*
X481000Y46950D02*
D03*
X493000D02*
D03*
X481000Y57950D02*
D03*
X473250Y31950D02*
D03*
X304750Y115200D02*
D03*
X329500D02*
D03*
Y94200D02*
D03*
X304750D02*
D03*
X204000Y56200D02*
D03*
X186000D02*
D03*
Y86200D02*
D03*
X405871Y41200D02*
D03*
X484692Y243950D02*
D03*
X124750Y32200D02*
D03*
Y42200D02*
D03*
Y58117D02*
D03*
Y68117D02*
D03*
Y83533D02*
D03*
Y93533D02*
D03*
Y110950D02*
D03*
Y120950D02*
D03*
X174192Y75950D02*
D03*
Y85950D02*
D03*
X397808Y83050D02*
D03*
Y93050D02*
D03*
X185157Y31450D02*
D03*
X391550Y104192D02*
D03*
X381550D02*
D03*
X458000Y73450D02*
D03*
Y83450D02*
D03*
X508750Y68117D02*
D03*
Y58117D02*
D03*
Y42200D02*
D03*
Y32200D02*
D03*
Y84033D02*
D03*
Y109950D02*
D03*
Y119950D02*
D03*
X358942Y41200D02*
D03*
X369942D02*
D03*
X215942Y55450D02*
D03*
X228942D02*
D03*
X239692D02*
D03*
Y65450D02*
D03*
X228942D02*
D03*
X215942D02*
D03*
X259308Y41300D02*
D03*
X248058D02*
D03*
X259308Y31300D02*
D03*
X248058D02*
D03*
X216000Y79450D02*
D03*
Y89450D02*
D03*
X228942Y103950D02*
D03*
X239692D02*
D03*
Y113950D02*
D03*
X228942D02*
D03*
X228250Y126450D02*
D03*
X238250D02*
D03*
X124250Y155200D02*
D03*
Y165200D02*
D03*
Y181117D02*
D03*
Y191117D02*
D03*
X173692Y198950D02*
D03*
Y208950D02*
D03*
X124250Y205533D02*
D03*
Y215533D02*
D03*
Y231950D02*
D03*
Y241950D02*
D03*
X227750Y249450D02*
D03*
X237750D02*
D03*
X239442Y236950D02*
D03*
X227192D02*
D03*
Y226950D02*
D03*
X239442D02*
D03*
X215500Y212450D02*
D03*
Y202450D02*
D03*
X227942Y188450D02*
D03*
X239692D02*
D03*
X215442D02*
D03*
Y178450D02*
D03*
X227942D02*
D03*
X239692D02*
D03*
X457500Y196450D02*
D03*
Y206450D02*
D03*
X614500Y82700D02*
D03*
X624500D02*
D03*
X629000Y199700D02*
D03*
X618000D02*
D03*
X607000D02*
D03*
Y209700D02*
D03*
X618000D02*
D03*
X629000D02*
D03*
X597250Y228700D02*
D03*
X587250D02*
D03*
X626250Y250950D02*
D03*
Y260950D02*
D03*
Y275950D02*
D03*
Y285950D02*
D03*
X616250Y310700D02*
D03*
X606250D02*
D03*
X567750Y272700D02*
D03*
Y282700D02*
D03*
X527750Y226300D02*
D03*
X537750D02*
D03*
X508250Y242950D02*
D03*
Y232950D02*
D03*
Y218783D02*
D03*
Y208783D02*
D03*
Y189367D02*
D03*
Y179367D02*
D03*
Y165200D02*
D03*
Y155200D02*
D03*
X124000Y282950D02*
D03*
Y292950D02*
D03*
Y308867D02*
D03*
Y318867D02*
D03*
Y334783D02*
D03*
Y344783D02*
D03*
Y360700D02*
D03*
Y370700D02*
D03*
X173442Y336700D02*
D03*
X508000Y282950D02*
D03*
Y292950D02*
D03*
Y308867D02*
D03*
Y318867D02*
D03*
Y334783D02*
D03*
Y344783D02*
D03*
Y360700D02*
D03*
Y370700D02*
D03*
X457250Y324200D02*
D03*
Y334200D02*
D03*
X238942Y306200D02*
D03*
X227692D02*
D03*
X215192D02*
D03*
Y316200D02*
D03*
X227692D02*
D03*
X238942D02*
D03*
X215500Y330200D02*
D03*
X226692Y354700D02*
D03*
X238942D02*
D03*
Y364700D02*
D03*
X226692D02*
D03*
X227500Y377200D02*
D03*
X237500D02*
D03*
X173442Y326700D02*
D03*
X553500Y249200D02*
D03*
Y258700D02*
D03*
Y239700D02*
D03*
X526500Y258700D02*
D03*
Y239700D02*
D03*
X75750Y207950D02*
D03*
X65750D02*
D03*
X56500D02*
D03*
X46500D02*
D03*
X102750Y77200D02*
D03*
X92750D02*
D03*
X405250Y269750D02*
D03*
X360250Y90750D02*
D03*
X275250Y70500D02*
D03*
X274750Y193750D02*
D03*
X261000Y185750D02*
D03*
X261500Y62500D02*
D03*
X260750Y313000D02*
D03*
X70000Y77250D02*
D03*
X60000D02*
D03*
X358942Y31200D02*
D03*
X239750Y89500D02*
D03*
X272000Y31250D02*
D03*
Y41250D02*
D03*
X322500Y47750D02*
D03*
X310000Y41250D02*
D03*
Y28250D02*
D03*
X318000D02*
D03*
X286500Y34750D02*
D03*
X325250D02*
D03*
X347000Y41250D02*
D03*
X424750Y100250D02*
D03*
X431250Y105000D02*
D03*
X347750Y164250D02*
D03*
X326000Y157750D02*
D03*
X287250D02*
D03*
X318750Y151250D02*
D03*
X310750D02*
D03*
Y164250D02*
D03*
X323250Y170750D02*
D03*
X209835Y154450D02*
D03*
X197121D02*
D03*
Y164450D02*
D03*
X184657Y154450D02*
D03*
X222549Y164450D02*
D03*
X235264D02*
D03*
Y154450D02*
D03*
X222514D02*
D03*
X184621Y164450D02*
D03*
X271464Y154250D02*
D03*
X258772Y154300D02*
D03*
X247522D02*
D03*
Y164300D02*
D03*
X258772D02*
D03*
X239214Y212500D02*
D03*
X228407Y212700D02*
D03*
Y202700D02*
D03*
X239214Y202500D02*
D03*
X369407Y164200D02*
D03*
X358407D02*
D03*
Y154200D02*
D03*
X416000Y51500D02*
D03*
X426000D02*
D03*
X416000Y78000D02*
D03*
X428000D02*
D03*
X403750Y63000D02*
D03*
X436000Y51500D02*
D03*
X446000D02*
D03*
X359500Y213500D02*
D03*
X362000Y197250D02*
D03*
X378000D02*
D03*
X370000Y191500D02*
D03*
X381050Y227192D02*
D03*
X391050D02*
D03*
X406200Y227451D02*
D03*
X416200D02*
D03*
X397308Y216050D02*
D03*
Y206050D02*
D03*
X424250Y223500D02*
D03*
X430750Y228500D02*
D03*
X445500Y174500D02*
D03*
X435500D02*
D03*
X425500D02*
D03*
X415500D02*
D03*
X415950Y354942D02*
D03*
X380800D02*
D03*
X390800D02*
D03*
X405950D02*
D03*
X397058Y343800D02*
D03*
Y333800D02*
D03*
X424000Y351250D02*
D03*
X430500Y356500D02*
D03*
X359250Y341750D02*
D03*
X366750Y349500D02*
D03*
X367500Y99000D02*
D03*
X358192Y281950D02*
D03*
X415250Y302250D02*
D03*
X425250D02*
D03*
X435250D02*
D03*
X445250D02*
D03*
X346750Y292000D02*
D03*
X325000Y285500D02*
D03*
X286250D02*
D03*
X317750Y279000D02*
D03*
X309750D02*
D03*
Y292000D02*
D03*
X322250Y298500D02*
D03*
X271250Y282000D02*
D03*
X258558Y282050D02*
D03*
Y292050D02*
D03*
X247308D02*
D03*
Y282050D02*
D03*
X235014Y282200D02*
D03*
Y292200D02*
D03*
X222299D02*
D03*
X209585Y282200D02*
D03*
X196871D02*
D03*
X184407D02*
D03*
Y292200D02*
D03*
X196871D02*
D03*
X228192Y330450D02*
D03*
X239000Y330250D02*
D03*
Y340250D02*
D03*
X228192Y340450D02*
D03*
X209585Y292200D02*
D03*
X222299Y282200D02*
D03*
X209835Y164450D02*
D03*
X418478Y41200D02*
D03*
X405371Y164200D02*
D03*
X393014D02*
D03*
Y154200D02*
D03*
X405371D02*
D03*
X417978D02*
D03*
Y164200D02*
D03*
X429585D02*
D03*
Y154200D02*
D03*
X367000Y221750D02*
D03*
X427500Y200750D02*
D03*
X427250Y328750D02*
D03*
X415000Y329000D02*
D03*
X398000Y372250D02*
D03*
X382750D02*
D03*
X441942D02*
D03*
X358192Y291950D02*
D03*
X369192D02*
D03*
X403000Y313750D02*
D03*
X415500Y201000D02*
D03*
X403500Y186000D02*
D03*
X280500Y170750D02*
D03*
X281000Y298500D02*
D03*
X442192Y243950D02*
D03*
D45*
X508250Y199200D02*
D03*
X524750Y94200D02*
D03*
X527250Y306450D02*
D03*
X552000Y283200D02*
D03*
X551250Y219700D02*
D03*
X551000Y194200D02*
D03*
X551250Y168700D02*
D03*
X551500Y143700D02*
D03*
X551000Y117950D02*
D03*
D46*
X652875Y200050D02*
D03*
D47*
X325500Y-2000D02*
D03*
X325000Y401750D02*
D03*
D48*
X639500Y373625D02*
D03*
X639750Y26125D02*
D03*
X11250Y373625D02*
D03*
X12500Y26125D02*
D03*
D49*
X623875Y387000D02*
D03*
X623625Y12250D02*
D03*
X25875Y386750D02*
D03*
X26125Y12250D02*
D03*
D50*
X-1375Y348250D02*
D03*
D51*
X-3125Y57625D02*
D03*
D52*
X585875Y393250D02*
D03*
X65875Y393000D02*
D03*
D53*
X643000Y61125D02*
D03*
X6500Y57625D02*
D03*
X3000Y60375D02*
D03*
X58750Y3875D02*
D03*
D71*
X159750Y118450D02*
X174942D01*
D72*
X194192Y321950D02*
D03*
X194442Y194200D02*
D03*
X194942Y71200D02*
D03*
D73*
X200942Y336950D02*
D03*
X196442D02*
D03*
X191942D02*
D03*
X187442D02*
D03*
Y306950D02*
D03*
X191942D02*
D03*
X196442D02*
D03*
X200942D02*
D03*
X201192Y179200D02*
D03*
X196692D02*
D03*
X192192D02*
D03*
X187692D02*
D03*
Y209200D02*
D03*
X192192D02*
D03*
X196692D02*
D03*
X201192D02*
D03*
X201692Y86200D02*
D03*
X197192D02*
D03*
X192692D02*
D03*
X188192D02*
D03*
Y56200D02*
D03*
X192692D02*
D03*
X197192D02*
D03*
X201692D02*
D03*
D74*
X493134Y282700D02*
D03*
X486634D02*
D03*
X480134D02*
D03*
X473634D02*
D03*
X493134Y322700D02*
D03*
X486634D02*
D03*
X480134D02*
D03*
X473634D02*
D03*
X473885Y194950D02*
D03*
X480384D02*
D03*
X486884D02*
D03*
X493385D02*
D03*
X473885Y154950D02*
D03*
X480384D02*
D03*
X486884D02*
D03*
X493385D02*
D03*
X159000Y329200D02*
D03*
X152500D02*
D03*
X146000D02*
D03*
X139500D02*
D03*
X159000Y369200D02*
D03*
X152500D02*
D03*
X146000D02*
D03*
X139500D02*
D03*
X139750Y241450D02*
D03*
X146250D02*
D03*
X152750D02*
D03*
X159250D02*
D03*
X139750Y201450D02*
D03*
X146250D02*
D03*
X152750D02*
D03*
X159250D02*
D03*
X159750Y78450D02*
D03*
X153250D02*
D03*
X146750D02*
D03*
X140250D02*
D03*
X159750Y118450D02*
D03*
X153250D02*
D03*
X146750D02*
D03*
X140250D02*
D03*
X493885Y31950D02*
D03*
X487384D02*
D03*
X480885D02*
D03*
X474384D02*
D03*
X493885Y71950D02*
D03*
X487384D02*
D03*
X480885D02*
D03*
X474384D02*
D03*
D75*
X360250Y341450D02*
D03*
X366750D02*
D03*
X373250D02*
D03*
X379750D02*
D03*
Y310950D02*
D03*
X373250D02*
D03*
X366750D02*
D03*
X360250D02*
D03*
X360500Y213700D02*
D03*
X367000D02*
D03*
X373500D02*
D03*
X380000D02*
D03*
Y183200D02*
D03*
X373500D02*
D03*
X367000D02*
D03*
X360500D02*
D03*
X361000Y90700D02*
D03*
X367500D02*
D03*
X374000D02*
D03*
X380500D02*
D03*
Y60200D02*
D03*
X374000D02*
D03*
X367500D02*
D03*
X361000D02*
D03*
X274500Y70450D02*
D03*
X268000D02*
D03*
X261500D02*
D03*
X255000D02*
D03*
Y100950D02*
D03*
X261500D02*
D03*
X268000D02*
D03*
X274500D02*
D03*
X274000Y193450D02*
D03*
X267500D02*
D03*
X261000D02*
D03*
X254500D02*
D03*
Y223950D02*
D03*
X261000D02*
D03*
X267500D02*
D03*
X274000D02*
D03*
X273750Y321200D02*
D03*
X267250D02*
D03*
X260750D02*
D03*
X254250D02*
D03*
Y351700D02*
D03*
X260750D02*
D03*
X267250D02*
D03*
X273750D02*
D03*
D76*
X370000Y321700D02*
D03*
X370250Y193950D02*
D03*
X370750Y70950D02*
D03*
X264750Y90200D02*
D03*
X264250Y213200D02*
D03*
X264000Y340950D02*
D03*
D77*
X22700Y231200D02*
D03*
Y241200D02*
D03*
Y251200D02*
D03*
Y261200D02*
D03*
Y271200D02*
D03*
Y281200D02*
D03*
Y291200D02*
D03*
Y301200D02*
D03*
Y311200D02*
D03*
Y321200D02*
D03*
X93800D02*
D03*
Y311200D02*
D03*
Y301200D02*
D03*
Y291200D02*
D03*
Y281200D02*
D03*
Y271200D02*
D03*
Y261200D02*
D03*
Y251200D02*
D03*
Y241200D02*
D03*
Y231200D02*
D03*
Y96200D02*
D03*
Y106200D02*
D03*
Y116200D02*
D03*
Y126200D02*
D03*
Y136200D02*
D03*
Y146200D02*
D03*
Y156200D02*
D03*
Y166200D02*
D03*
Y176200D02*
D03*
Y186200D02*
D03*
X22700D02*
D03*
Y176200D02*
D03*
Y166200D02*
D03*
Y156200D02*
D03*
Y146200D02*
D03*
Y136200D02*
D03*
Y126200D02*
D03*
Y116200D02*
D03*
Y106200D02*
D03*
Y96200D02*
D03*
D78*
X191192Y369450D02*
D03*
Y352450D02*
D03*
X459942Y372450D02*
D03*
Y355450D02*
D03*
X456634Y305700D02*
D03*
Y288700D02*
D03*
X174192Y352200D02*
D03*
Y369200D02*
D03*
X191442Y241700D02*
D03*
Y224700D02*
D03*
X460192Y244700D02*
D03*
Y227700D02*
D03*
X456884Y177950D02*
D03*
Y160950D02*
D03*
X174442Y224450D02*
D03*
Y241450D02*
D03*
X460692Y121700D02*
D03*
Y104700D02*
D03*
X174942Y101450D02*
D03*
Y118450D02*
D03*
X457884Y54950D02*
D03*
Y37950D02*
D03*
X191942Y118700D02*
D03*
Y101700D02*
D03*
D79*
X143000Y283450D02*
D03*
Y310450D02*
D03*
X484442Y373700D02*
D03*
Y346700D02*
D03*
X166750Y283450D02*
D03*
Y310450D02*
D03*
X143250Y155700D02*
D03*
Y182700D02*
D03*
X484692Y245950D02*
D03*
Y218950D02*
D03*
X167000Y155700D02*
D03*
Y182700D02*
D03*
X485192Y122950D02*
D03*
Y95950D02*
D03*
X143750Y32700D02*
D03*
Y59700D02*
D03*
X167500Y32700D02*
D03*
Y59700D02*
D03*
X530000Y179950D02*
D03*
Y152950D02*
D03*
Y108200D02*
D03*
Y135200D02*
D03*
D80*
X252500Y371950D02*
D03*
X279500D02*
D03*
X252750Y244200D02*
D03*
X279750D02*
D03*
X383500Y120950D02*
D03*
X356500D02*
D03*
X383000Y243950D02*
D03*
X356000D02*
D03*
X382750Y371700D02*
D03*
X355750D02*
D03*
X253250Y121200D02*
D03*
X280250D02*
D03*
X425750Y120950D02*
D03*
X398750D02*
D03*
X425250Y243950D02*
D03*
X398250D02*
D03*
X425000Y371700D02*
D03*
X398000D02*
D03*
D81*
X441692Y351200D02*
D03*
X207942D02*
D03*
X441942Y223450D02*
D03*
X208192D02*
D03*
X208692Y100450D02*
D03*
X442442D02*
D03*
D82*
X441942Y369450D02*
D03*
X208192D02*
D03*
X442192Y241700D02*
D03*
X208442D02*
D03*
X208942Y118700D02*
D03*
X442692D02*
D03*
D83*
X316442Y103950D02*
D03*
X315942Y226950D02*
D03*
X315692Y354700D02*
D03*
D84*
X326842Y67450D02*
D03*
X306042D02*
D03*
X326342Y190450D02*
D03*
X305542D02*
D03*
X326092Y318200D02*
D03*
X305292D02*
D03*
D85*
X421500Y77000D02*
D03*
X421000Y200000D02*
D03*
X420750Y327500D02*
D03*
D86*
X431250Y92000D02*
D03*
X424750D02*
D03*
X418250D02*
D03*
X411750D02*
D03*
Y62000D02*
D03*
X418250D02*
D03*
X424750D02*
D03*
X431250D02*
D03*
X430750Y215000D02*
D03*
X424250D02*
D03*
X417750D02*
D03*
X411250D02*
D03*
Y185000D02*
D03*
X417750D02*
D03*
X424250D02*
D03*
X430750D02*
D03*
X430500Y342500D02*
D03*
X424000D02*
D03*
X417500D02*
D03*
X411000D02*
D03*
Y312500D02*
D03*
X417500D02*
D03*
X424000D02*
D03*
X430500D02*
D03*
D87*
X622000Y183800D02*
D03*
Y171100D02*
D03*
Y158400D02*
D03*
Y145700D02*
D03*
Y133000D02*
D03*
Y120300D02*
D03*
Y107600D02*
D03*
X570000Y183800D02*
D03*
Y171100D02*
D03*
Y158400D02*
D03*
Y145700D02*
D03*
Y133000D02*
D03*
Y120300D02*
D03*
Y107600D02*
D03*
D88*
X593750Y247200D02*
D03*
X588750D02*
D03*
X583750D02*
D03*
X578750D02*
D03*
X598750D02*
D03*
X603750D02*
D03*
X608750D02*
D03*
X613750D02*
D03*
X578750Y290950D02*
D03*
X583750D02*
D03*
X593750D02*
D03*
X588750D02*
D03*
X603750D02*
D03*
X598750D02*
D03*
X613750D02*
D03*
X608750D02*
D03*
D89*
X566500Y204700D02*
D03*
X591500D02*
D03*
D90*
X81750Y59201D02*
D03*
X100750D02*
D03*
X91250Y37199D02*
D03*
D91*
X573500Y335200D02*
D03*
X588500D02*
D03*
D92*
X526500Y258700D02*
D03*
Y249200D02*
D03*
Y239700D02*
D03*
X553500D02*
D03*
Y249200D02*
D03*
Y258700D02*
D03*
D93*
X296750Y28250D02*
D03*
Y34750D02*
D03*
Y41250D02*
D03*
Y47750D02*
D03*
X336750Y28250D02*
D03*
Y34750D02*
D03*
Y41250D02*
D03*
Y47750D02*
D03*
X296250Y151250D02*
D03*
Y157750D02*
D03*
Y164250D02*
D03*
Y170750D02*
D03*
X336250Y151250D02*
D03*
Y157750D02*
D03*
Y164250D02*
D03*
Y170750D02*
D03*
X296000Y279000D02*
D03*
Y285500D02*
D03*
Y292000D02*
D03*
Y298500D02*
D03*
X336000Y279000D02*
D03*
Y285500D02*
D03*
Y292000D02*
D03*
Y298500D02*
D03*
D94*
X325500Y1350D02*
D03*
D95*
X649875Y200050D02*
D03*
M02*
