G04 Layer_Physical_Order=4*
G04 Layer_Color=36540*
%FSLAX44Y44*%
%MOMM*%
G71*
G01*
G75*
%ADD31C,0.2000*%
%ADD43C,0.8000*%
%ADD44C,0.6000*%
%ADD46R,1.5750X33.7300*%
%ADD47R,58.8500X1.3500*%
%ADD48R,4.2000X6.9750*%
%ADD49R,6.9750X4.2000*%
%ADD50R,1.6750X3.9000*%
%ADD51R,1.6750X5.5750*%
%ADD52R,1.2750X0.8500*%
%ADD53R,0.8500X1.2750*%
%ADD55C,4.5000*%
G36*
X577281Y389000D02*
X577357Y388426D01*
X577578Y387891D01*
X577931Y387431D01*
X578391Y387078D01*
X578926Y386857D01*
X579500Y386781D01*
X582862D01*
X583500Y386731D01*
X584138Y386781D01*
X586781D01*
Y366000D01*
X586857Y365426D01*
X587078Y364891D01*
X587431Y364431D01*
X587891Y364078D01*
X588426Y363857D01*
X589000Y363781D01*
X594280D01*
X594295Y363675D01*
X594885Y361321D01*
X595703Y359036D01*
X596740Y356842D01*
X597988Y354761D01*
X599434Y352812D01*
X601063Y351013D01*
X602862Y349384D01*
X604811Y347938D01*
X606893Y346690D01*
X609086Y345653D01*
X611371Y344835D01*
X613725Y344245D01*
X616126Y343889D01*
X616281Y343882D01*
Y338750D01*
X616357Y338176D01*
X616578Y337640D01*
X616931Y337181D01*
X617391Y336828D01*
X617926Y336607D01*
X618500Y336531D01*
X642781D01*
Y324882D01*
X642277Y324843D01*
X641328Y324615D01*
X640427Y324241D01*
X639594Y323731D01*
X638852Y323098D01*
X638219Y322355D01*
X637709Y321523D01*
X637335Y320622D01*
X637107Y319673D01*
X637031Y318700D01*
X637107Y317727D01*
X637335Y316778D01*
X637709Y315877D01*
X638219Y315044D01*
X638852Y314302D01*
X639594Y313669D01*
X640427Y313159D01*
X641328Y312785D01*
X642277Y312557D01*
X642781Y312518D01*
Y69719D01*
X638750D01*
X638176Y69643D01*
X637640Y69422D01*
X637181Y69069D01*
X636828Y68609D01*
X636607Y68074D01*
X636531Y67500D01*
Y63219D01*
X618750D01*
X618176Y63143D01*
X617640Y62922D01*
X617181Y62569D01*
X616828Y62109D01*
X616607Y61574D01*
X616531Y61000D01*
Y55831D01*
X616126Y55811D01*
X613725Y55455D01*
X611371Y54865D01*
X609086Y54047D01*
X606893Y53010D01*
X604811Y51762D01*
X602862Y50316D01*
X601063Y48687D01*
X599434Y46888D01*
X597988Y44939D01*
X596740Y42857D01*
X595703Y40664D01*
X594885Y38379D01*
X594295Y36024D01*
X594213Y35469D01*
X588750D01*
X588176Y35393D01*
X587640Y35172D01*
X587181Y34819D01*
X586828Y34360D01*
X586607Y33824D01*
X586531Y33250D01*
Y6969D01*
X575928D01*
X575893Y7423D01*
X575665Y8372D01*
X575291Y9273D01*
X574781Y10106D01*
X574148Y10848D01*
X573405Y11481D01*
X572573Y11991D01*
X571672Y12365D01*
X570723Y12593D01*
X569750Y12669D01*
X568777Y12593D01*
X567828Y12365D01*
X566927Y11991D01*
X566094Y11481D01*
X565352Y10848D01*
X564719Y10106D01*
X564209Y9273D01*
X563835Y8372D01*
X563607Y7423D01*
X563572Y6969D01*
X220178D01*
X220143Y7423D01*
X219915Y8372D01*
X219541Y9273D01*
X219031Y10106D01*
X218398Y10848D01*
X217656Y11481D01*
X216823Y11991D01*
X215922Y12365D01*
X214973Y12593D01*
X214000Y12669D01*
X213027Y12593D01*
X212078Y12365D01*
X211177Y11991D01*
X210345Y11481D01*
X209602Y10848D01*
X208969Y10106D01*
X208459Y9273D01*
X208085Y8372D01*
X207857Y7423D01*
X207822Y6969D01*
X65219D01*
Y10250D01*
X65143Y10824D01*
X64922Y11359D01*
X64569Y11819D01*
X64110Y12172D01*
X63574Y12393D01*
X63219Y12440D01*
Y22257D01*
X64392Y22743D01*
X74218Y12918D01*
X74886Y12405D01*
X75665Y12082D01*
X76500Y11972D01*
X118250D01*
X119085Y12082D01*
X119864Y12405D01*
X120532Y12918D01*
X126012Y18398D01*
X126628Y18365D01*
X127453Y18043D01*
X127709Y17427D01*
X128219Y16595D01*
X128852Y15852D01*
X129594Y15219D01*
X130427Y14709D01*
X131328Y14335D01*
X132277Y14107D01*
X133250Y14031D01*
X134223Y14107D01*
X135172Y14335D01*
X136073Y14709D01*
X136905Y15219D01*
X137648Y15852D01*
X138281Y16595D01*
X138791Y17427D01*
X139165Y18328D01*
X139393Y19277D01*
X140607D01*
X140835Y18328D01*
X141209Y17427D01*
X141719Y16595D01*
X142352Y15852D01*
X143095Y15219D01*
X143927Y14709D01*
X144828Y14335D01*
X145777Y14107D01*
X146750Y14031D01*
X147723Y14107D01*
X148672Y14335D01*
X149573Y14709D01*
X150406Y15219D01*
X151148Y15852D01*
X151781Y16595D01*
X152291Y17427D01*
X152665Y18328D01*
X152893Y19277D01*
X152969Y20250D01*
X152893Y21223D01*
X152665Y22172D01*
X152291Y23073D01*
X151781Y23905D01*
X151148Y24648D01*
X150406Y25281D01*
X149573Y25791D01*
X148672Y26165D01*
X147723Y26393D01*
X146750Y26469D01*
X145777Y26393D01*
X144828Y26165D01*
X143927Y25791D01*
X143095Y25281D01*
X142352Y24648D01*
X141719Y23905D01*
X141209Y23073D01*
X140835Y22172D01*
X140607Y21223D01*
X139393D01*
X139165Y22172D01*
X138791Y23073D01*
X138281Y23905D01*
X137648Y24648D01*
X136905Y25281D01*
X136073Y25791D01*
X135172Y26165D01*
X134791Y26256D01*
X134203Y26436D01*
X133728Y27450D01*
Y35922D01*
X134195Y36305D01*
X134845Y37097D01*
X135327Y38000D01*
X135625Y38981D01*
X135725Y40000D01*
X135625Y41019D01*
X135327Y42000D01*
X134845Y42903D01*
X134195Y43695D01*
X133403Y44345D01*
X132500Y44827D01*
X131519Y45125D01*
X130500Y45225D01*
X129481Y45125D01*
X128500Y44827D01*
X127597Y44345D01*
X126805Y43695D01*
X126155Y42903D01*
X125673Y42000D01*
X125375Y41019D01*
X125275Y40000D01*
X125375Y38981D01*
X125673Y38000D01*
X126155Y37097D01*
X126805Y36305D01*
X127272Y35922D01*
Y28787D01*
X116913Y18428D01*
X77837D01*
X68728Y27537D01*
Y35000D01*
X68728Y35000D01*
X68618Y35835D01*
X68295Y36614D01*
X67782Y37282D01*
X39323Y65742D01*
X39833Y67027D01*
X40319Y67075D01*
X41300Y67373D01*
X42203Y67855D01*
X42995Y68505D01*
X43566Y69202D01*
X44214Y69297D01*
X44386D01*
X45034Y69202D01*
X45605Y68505D01*
X46397Y67855D01*
X47300Y67373D01*
X48281Y67075D01*
X49300Y66975D01*
X50319Y67075D01*
X51300Y67373D01*
X51502Y67481D01*
X52772Y66720D01*
Y61500D01*
X52882Y60665D01*
X53205Y59886D01*
X53718Y59218D01*
X66018Y46918D01*
X66018Y46918D01*
X66686Y46405D01*
X67465Y46082D01*
X68300Y45972D01*
X68300Y45972D01*
X105976D01*
X106430Y44702D01*
X106055Y44395D01*
X105405Y43603D01*
X104923Y42700D01*
X104625Y41719D01*
X104525Y40700D01*
X104625Y39681D01*
X104923Y38700D01*
X105405Y37797D01*
X106055Y37005D01*
X106847Y36355D01*
X107750Y35873D01*
X108731Y35575D01*
X109750Y35475D01*
X110769Y35575D01*
X111750Y35873D01*
X112653Y36355D01*
X113445Y37005D01*
X114095Y37797D01*
X114577Y38700D01*
X114875Y39681D01*
X114975Y40700D01*
X114875Y41719D01*
X114577Y42700D01*
X114095Y43603D01*
X113445Y44395D01*
X113070Y44702D01*
X113524Y45972D01*
X122250D01*
X123085Y46082D01*
X123864Y46405D01*
X124532Y46918D01*
X137337Y59722D01*
X139672D01*
X140055Y59255D01*
X140847Y58605D01*
X141750Y58123D01*
X142731Y57825D01*
X143750Y57725D01*
X144769Y57825D01*
X145750Y58123D01*
X146653Y58605D01*
X147445Y59255D01*
X148095Y60047D01*
X148577Y60950D01*
X148875Y61931D01*
X148975Y62950D01*
X148875Y63969D01*
X148577Y64949D01*
X148095Y65853D01*
X147445Y66645D01*
X146653Y67295D01*
X145750Y67777D01*
X144769Y68075D01*
X143750Y68175D01*
X142731Y68075D01*
X141750Y67777D01*
X140847Y67295D01*
X140055Y66645D01*
X139672Y66178D01*
X136000D01*
X135165Y66068D01*
X134386Y65745D01*
X133718Y65232D01*
X132156Y63670D01*
X131709Y63687D01*
X130766Y64077D01*
X130577Y64700D01*
X130095Y65603D01*
X129445Y66395D01*
X128653Y67045D01*
X127750Y67527D01*
X126769Y67825D01*
X125750Y67925D01*
X124731Y67825D01*
X123750Y67527D01*
X122847Y67045D01*
X122055Y66395D01*
X121405Y65603D01*
X120923Y64700D01*
X120625Y63719D01*
X120525Y62700D01*
X120625Y61681D01*
X120923Y60700D01*
X121405Y59797D01*
X122055Y59005D01*
X122847Y58355D01*
X123750Y57873D01*
X124373Y57684D01*
X124763Y56741D01*
X124780Y56294D01*
X120913Y52428D01*
X110069D01*
X109598Y53155D01*
X109425Y53698D01*
X109827Y54450D01*
X110125Y55431D01*
X110225Y56450D01*
X110125Y57469D01*
X109827Y58450D01*
X109345Y59353D01*
X108695Y60145D01*
X107903Y60795D01*
X107000Y61277D01*
X106019Y61575D01*
X105000Y61675D01*
X103981Y61575D01*
X103000Y61277D01*
X102097Y60795D01*
X101305Y60145D01*
X101235Y60060D01*
X99952Y59997D01*
X98978Y60939D01*
Y65200D01*
X98868Y66035D01*
X98545Y66814D01*
X98032Y67482D01*
X91428Y74086D01*
X91422Y74102D01*
X91419Y74668D01*
X91664Y75647D01*
X92082Y75968D01*
X93844Y77730D01*
X94291Y77713D01*
X95234Y77323D01*
X95423Y76700D01*
X95905Y75797D01*
X96555Y75005D01*
X97347Y74355D01*
X98250Y73873D01*
X99231Y73575D01*
X100250Y73475D01*
X101269Y73575D01*
X102250Y73873D01*
X103153Y74355D01*
X103945Y75005D01*
X104595Y75797D01*
X105077Y76700D01*
X105375Y77681D01*
X105475Y78700D01*
X105375Y79719D01*
X105077Y80700D01*
X104809Y81202D01*
X105282Y82246D01*
X105524Y82472D01*
X111967D01*
X112555Y81755D01*
X113347Y81105D01*
X114250Y80623D01*
X115231Y80325D01*
X116250Y80225D01*
X117269Y80325D01*
X118250Y80623D01*
X119153Y81105D01*
X119945Y81755D01*
X120595Y82547D01*
X121077Y83450D01*
X121266Y84073D01*
X122209Y84463D01*
X122656Y84480D01*
X122968Y84168D01*
X122968Y84168D01*
X123636Y83655D01*
X123738Y83613D01*
X124333Y82543D01*
X124387Y82337D01*
X124379Y82056D01*
X124125Y81219D01*
X124025Y80200D01*
X124125Y79181D01*
X124423Y78200D01*
X124905Y77297D01*
X125555Y76505D01*
X126347Y75855D01*
X127250Y75373D01*
X128231Y75075D01*
X129250Y74975D01*
X130269Y75075D01*
X131250Y75373D01*
X132153Y75855D01*
X132945Y76505D01*
X133595Y77297D01*
X134077Y78200D01*
X134375Y79181D01*
X134475Y80200D01*
X134375Y81219D01*
X134152Y81952D01*
X134500Y82683D01*
X134971Y83222D01*
X161663D01*
X162424Y81952D01*
X162423Y81950D01*
X162125Y80969D01*
X162025Y79950D01*
X162125Y78931D01*
X162423Y77950D01*
X162905Y77047D01*
X163555Y76255D01*
X164347Y75605D01*
X165250Y75123D01*
X166231Y74825D01*
X167250Y74725D01*
X168269Y74825D01*
X169250Y75123D01*
X170153Y75605D01*
X170945Y76255D01*
X171595Y77047D01*
X172077Y77950D01*
X172375Y78931D01*
X172475Y79950D01*
X172375Y80969D01*
X172077Y81950D01*
X171595Y82853D01*
X170945Y83645D01*
X170153Y84295D01*
X169250Y84777D01*
X168627Y84966D01*
X168237Y85909D01*
X168220Y86356D01*
X182032Y100168D01*
X182545Y100836D01*
X182868Y101615D01*
X182978Y102450D01*
Y110863D01*
X209587Y137472D01*
X254844D01*
X255281Y137000D01*
X255357Y136027D01*
X255585Y135078D01*
X255959Y134177D01*
X256469Y133344D01*
X257102Y132602D01*
X257845Y131969D01*
X258677Y131459D01*
X259578Y131085D01*
X260527Y130857D01*
X261500Y130781D01*
X262473Y130857D01*
X263422Y131085D01*
X264323Y131459D01*
X265156Y131969D01*
X265898Y132602D01*
X266531Y133344D01*
X267005Y134117D01*
X267227Y134166D01*
X268386Y134103D01*
X268459Y133927D01*
X268969Y133095D01*
X269602Y132352D01*
X270345Y131719D01*
X271177Y131209D01*
X272078Y130835D01*
X273027Y130607D01*
X274000Y130531D01*
X274973Y130607D01*
X275922Y130835D01*
X276823Y131209D01*
X277656Y131719D01*
X278398Y132352D01*
X279031Y133095D01*
X279541Y133927D01*
X279915Y134828D01*
X280143Y135777D01*
X280219Y136750D01*
X280143Y137723D01*
X279915Y138672D01*
X279541Y139573D01*
X279031Y140406D01*
X278398Y141148D01*
X277656Y141781D01*
X276823Y142291D01*
X275922Y142665D01*
X274973Y142893D01*
X274000Y142969D01*
X273027Y142893D01*
X272078Y142665D01*
X271177Y142291D01*
X270345Y141781D01*
X269602Y141148D01*
X268969Y140406D01*
X268495Y139633D01*
X268273Y139584D01*
X267115Y139647D01*
X267041Y139823D01*
X266531Y140655D01*
X265898Y141398D01*
X265156Y142031D01*
X264412Y142487D01*
X264032Y142982D01*
X263364Y143495D01*
X262585Y143818D01*
X261750Y143928D01*
X208250D01*
X207415Y143818D01*
X206636Y143495D01*
X205968Y142982D01*
X205968Y142982D01*
X177468Y114482D01*
X176955Y113814D01*
X176632Y113035D01*
X176522Y112200D01*
Y103787D01*
X172536Y99801D01*
X171385Y100446D01*
X171393Y100477D01*
X171469Y101450D01*
X171393Y102423D01*
X171165Y103372D01*
X170791Y104273D01*
X170281Y105105D01*
X169648Y105848D01*
X168906Y106481D01*
X168074Y106991D01*
X167172Y107365D01*
X166223Y107593D01*
X165250Y107669D01*
X164277Y107593D01*
X163328Y107365D01*
X162427Y106991D01*
X161595Y106481D01*
X160852Y105848D01*
X160219Y105105D01*
X159709Y104273D01*
X159335Y103372D01*
X159107Y102423D01*
X159031Y101450D01*
X159107Y100477D01*
X159335Y99528D01*
X159709Y98626D01*
X160219Y97794D01*
X160852Y97052D01*
X161595Y96419D01*
X162427Y95909D01*
X163328Y95535D01*
X164277Y95307D01*
X165250Y95231D01*
X166223Y95307D01*
X166254Y95315D01*
X166899Y94164D01*
X162413Y89678D01*
X153338D01*
X152812Y90948D01*
X156532Y94668D01*
X157045Y95336D01*
X157368Y96115D01*
X157478Y96950D01*
Y128613D01*
X159573Y130709D01*
X160793Y130132D01*
X160775Y129950D01*
X160875Y128931D01*
X161173Y127950D01*
X161655Y127047D01*
X162305Y126255D01*
X163097Y125605D01*
X163275Y125510D01*
X163206Y124107D01*
X162927Y123991D01*
X162094Y123481D01*
X161352Y122848D01*
X160719Y122106D01*
X160209Y121273D01*
X159835Y120372D01*
X159607Y119423D01*
X159531Y118450D01*
X159607Y117477D01*
X159835Y116528D01*
X160209Y115627D01*
X160719Y114795D01*
X161352Y114052D01*
X162094Y113419D01*
X162927Y112909D01*
X163828Y112535D01*
X164777Y112307D01*
X165750Y112231D01*
X166723Y112307D01*
X167672Y112535D01*
X168573Y112909D01*
X169406Y113419D01*
X170148Y114052D01*
X170781Y114795D01*
X171291Y115627D01*
X171665Y116528D01*
X171893Y117477D01*
X171969Y118450D01*
X171893Y119423D01*
X171665Y120372D01*
X171291Y121273D01*
X170781Y122106D01*
X170148Y122848D01*
X169406Y123481D01*
X168573Y123991D01*
X168556Y123998D01*
X168507Y125394D01*
X168903Y125605D01*
X169695Y126255D01*
X170345Y127047D01*
X170827Y127950D01*
X171125Y128931D01*
X171225Y129950D01*
X171125Y130969D01*
X170827Y131950D01*
X170799Y132002D01*
X171560Y133272D01*
X183550D01*
X184385Y133382D01*
X185164Y133705D01*
X185832Y134218D01*
X189338Y137723D01*
X190027Y137557D01*
X191000Y137481D01*
X191973Y137557D01*
X192922Y137785D01*
X193823Y138159D01*
X194655Y138669D01*
X195398Y139302D01*
X196031Y140044D01*
X196541Y140877D01*
X196915Y141778D01*
X197143Y142727D01*
X197219Y143700D01*
X197143Y144673D01*
X196915Y145622D01*
X196541Y146523D01*
X196031Y147355D01*
X195398Y148098D01*
X194655Y148731D01*
X193823Y149241D01*
X192922Y149615D01*
X191973Y149843D01*
X191000Y149919D01*
X190027Y149843D01*
X189078Y149615D01*
X188177Y149241D01*
X187344Y148731D01*
X186602Y148098D01*
X185969Y147355D01*
X185582Y146725D01*
X184875Y146615D01*
X184168Y146725D01*
X183781Y147355D01*
X183148Y148098D01*
X182406Y148731D01*
X181573Y149241D01*
X180672Y149615D01*
X179723Y149843D01*
X178750Y149919D01*
X177777Y149843D01*
X176828Y149615D01*
X175927Y149241D01*
X175095Y148731D01*
X174352Y148098D01*
X173148D01*
X172405Y148731D01*
X171573Y149241D01*
X170672Y149615D01*
X170151Y149740D01*
X169729Y150775D01*
X169730Y151116D01*
X175837Y157222D01*
X226258D01*
X227005Y155952D01*
X226870Y155700D01*
X226572Y154719D01*
X226472Y153700D01*
X226572Y152681D01*
X226870Y151700D01*
X227353Y150797D01*
X228002Y150005D01*
X228794Y149355D01*
X229697Y148873D01*
X230678Y148575D01*
X231697Y148475D01*
X232717Y148575D01*
X233697Y148873D01*
X234600Y149355D01*
X235392Y150005D01*
X236042Y150797D01*
X236525Y151700D01*
X236822Y152681D01*
X236922Y153700D01*
X236822Y154719D01*
X236525Y155700D01*
X236389Y155952D01*
X237136Y157222D01*
X443250D01*
X444085Y157332D01*
X444864Y157655D01*
X445532Y158168D01*
X455532Y168168D01*
X456045Y168836D01*
X456368Y169615D01*
X456478Y170450D01*
Y208250D01*
X456368Y209085D01*
X456045Y209864D01*
X455532Y210532D01*
X422728Y243337D01*
Y314363D01*
X431387Y323022D01*
X439456D01*
X439719Y322594D01*
X440352Y321852D01*
X441095Y321219D01*
X441927Y320709D01*
X442828Y320335D01*
X443777Y320107D01*
X444750Y320031D01*
X445723Y320107D01*
X446672Y320335D01*
X447574Y320709D01*
X448406Y321219D01*
X449148Y321852D01*
X449781Y322594D01*
X450291Y323427D01*
X450665Y324328D01*
X450893Y325277D01*
X450969Y326250D01*
X450893Y327223D01*
X450665Y328172D01*
X450291Y329073D01*
X449781Y329906D01*
X449148Y330648D01*
X448406Y331281D01*
X447574Y331791D01*
X446672Y332165D01*
X445723Y332393D01*
X444750Y332469D01*
X443777Y332393D01*
X442828Y332165D01*
X441927Y331791D01*
X441095Y331281D01*
X440352Y330648D01*
X439719Y329906D01*
X439456Y329478D01*
X430050D01*
X429215Y329368D01*
X428436Y329045D01*
X427768Y328532D01*
X417218Y317982D01*
X416705Y317314D01*
X416382Y316535D01*
X416272Y315700D01*
Y242000D01*
X416382Y241165D01*
X416705Y240386D01*
X417218Y239718D01*
X449364Y207572D01*
X449339Y207006D01*
X448073Y206291D01*
X447172Y206665D01*
X446223Y206893D01*
X445250Y206969D01*
X444277Y206893D01*
X443328Y206665D01*
X442427Y206291D01*
X441595Y205781D01*
X440852Y205148D01*
X440219Y204405D01*
X439956Y203978D01*
X439800D01*
X438965Y203868D01*
X438186Y203545D01*
X437518Y203032D01*
X405913Y171428D01*
X391337D01*
X384532Y178232D01*
X383864Y178745D01*
X383085Y179068D01*
X382250Y179178D01*
X358000D01*
X358000Y179178D01*
X357165Y179068D01*
X356614Y178840D01*
X355927Y179930D01*
X356281Y180344D01*
X356791Y181176D01*
X357165Y182078D01*
X357393Y183027D01*
X357469Y184000D01*
X357393Y184973D01*
X357165Y185922D01*
X356791Y186823D01*
X356281Y187656D01*
X355648Y188398D01*
X354906Y189031D01*
X354668Y189177D01*
X354102Y189763D01*
X354242Y190846D01*
X354291Y190927D01*
X354665Y191828D01*
X354893Y192777D01*
X354969Y193750D01*
X354893Y194723D01*
X354665Y195672D01*
X354291Y196573D01*
X353781Y197405D01*
X353148Y198148D01*
X352406Y198781D01*
X351573Y199291D01*
X350672Y199665D01*
X349723Y199893D01*
X348750Y199969D01*
X347777Y199893D01*
X346828Y199665D01*
X345927Y199291D01*
X345094Y198781D01*
X344352Y198148D01*
X343719Y197405D01*
X343209Y196573D01*
X342835Y195672D01*
X342607Y194723D01*
X342531Y193750D01*
X342607Y192777D01*
X342835Y191828D01*
X343209Y190927D01*
X343719Y190095D01*
X344352Y189352D01*
X345094Y188719D01*
X345332Y188573D01*
X345898Y187987D01*
X345758Y186904D01*
X345709Y186823D01*
X345335Y185922D01*
X345107Y184973D01*
X345031Y184000D01*
X345107Y183027D01*
X345335Y182078D01*
X345709Y181176D01*
X346219Y180344D01*
X346852Y179602D01*
X347594Y178969D01*
X348427Y178459D01*
X349328Y178085D01*
X350277Y177857D01*
X351250Y177781D01*
X352223Y177857D01*
X353172Y178085D01*
X354073Y178459D01*
X354266Y178577D01*
X355058Y177573D01*
X349663Y172178D01*
X342524D01*
X342282Y172404D01*
X341809Y173448D01*
X342077Y173950D01*
X342375Y174931D01*
X342475Y175950D01*
X342375Y176969D01*
X342077Y177950D01*
X341595Y178853D01*
X340945Y179645D01*
X340153Y180295D01*
X339250Y180777D01*
X338269Y181075D01*
X337250Y181175D01*
X336231Y181075D01*
X335250Y180777D01*
X334347Y180295D01*
X333555Y179645D01*
X332905Y178853D01*
X332423Y177950D01*
X332125Y176969D01*
X332025Y175950D01*
X332125Y174931D01*
X332423Y173950D01*
X332691Y173448D01*
X332218Y172404D01*
X331976Y172178D01*
X300774D01*
X300532Y172404D01*
X300059Y173448D01*
X300327Y173950D01*
X300625Y174931D01*
X300725Y175950D01*
X300625Y176969D01*
X300327Y177950D01*
X299845Y178853D01*
X299195Y179645D01*
X298403Y180295D01*
X297500Y180777D01*
X296519Y181075D01*
X295500Y181175D01*
X294481Y181075D01*
X293500Y180777D01*
X292597Y180295D01*
X291805Y179645D01*
X291155Y178853D01*
X290673Y177950D01*
X290375Y176969D01*
X290275Y175950D01*
X290375Y174931D01*
X290673Y173950D01*
X290941Y173448D01*
X290468Y172404D01*
X290226Y172178D01*
X176500D01*
X175665Y172068D01*
X175402Y171959D01*
X175194Y171961D01*
X174159Y172404D01*
X173930Y172612D01*
X173827Y172950D01*
X173345Y173853D01*
X172695Y174645D01*
X171903Y175295D01*
X171000Y175777D01*
X170019Y176075D01*
X169000Y176175D01*
X167981Y176075D01*
X167949Y176065D01*
X166828Y177187D01*
X166859Y178097D01*
X167250Y179225D01*
X168269Y179325D01*
X169250Y179623D01*
X170153Y180105D01*
X170945Y180755D01*
X171595Y181547D01*
X172077Y182450D01*
X172375Y183431D01*
X172475Y184450D01*
X172375Y185469D01*
X172077Y186450D01*
X171595Y187353D01*
X170945Y188145D01*
X170153Y188795D01*
X169250Y189277D01*
X168269Y189575D01*
X167250Y189675D01*
X166231Y189575D01*
X165250Y189277D01*
X164347Y188795D01*
X163555Y188145D01*
X162984Y187448D01*
X162336Y187353D01*
X162164D01*
X161516Y187448D01*
X160945Y188145D01*
X160153Y188795D01*
X159250Y189277D01*
X158269Y189575D01*
X157250Y189675D01*
X156876Y189638D01*
X154478Y192037D01*
Y197250D01*
X154368Y198085D01*
X154045Y198864D01*
X153532Y199532D01*
X141978Y211087D01*
Y214863D01*
X143507Y216393D01*
X143731Y216325D01*
X144750Y216225D01*
X145769Y216325D01*
X146750Y216623D01*
X147653Y217105D01*
X148445Y217755D01*
X149095Y218547D01*
X149125Y218604D01*
X149886Y218660D01*
X150520Y218519D01*
X150905Y217797D01*
X151555Y217005D01*
X152347Y216355D01*
X153250Y215873D01*
X154231Y215575D01*
X155250Y215475D01*
X156269Y215575D01*
X157250Y215873D01*
X158153Y216355D01*
X158945Y217005D01*
X159595Y217797D01*
X160077Y218700D01*
X160375Y219681D01*
X160475Y220700D01*
X160375Y221719D01*
X160077Y222700D01*
X159595Y223603D01*
X158945Y224395D01*
X158153Y225045D01*
X157250Y225527D01*
X156269Y225825D01*
X155250Y225925D01*
X154231Y225825D01*
X153250Y225527D01*
X152347Y225045D01*
X151555Y224395D01*
X150905Y223603D01*
X150875Y223546D01*
X150114Y223490D01*
X149480Y223631D01*
X149095Y224353D01*
X148445Y225145D01*
Y225755D01*
X149095Y226547D01*
X149577Y227450D01*
X149875Y228431D01*
X149975Y229450D01*
X149875Y230469D01*
X149577Y231450D01*
X149095Y232353D01*
X148445Y233145D01*
X147653Y233795D01*
X146750Y234277D01*
X145769Y234575D01*
X144750Y234675D01*
X143731Y234575D01*
X142750Y234277D01*
X141847Y233795D01*
X141055Y233145D01*
X140405Y232353D01*
X139923Y231450D01*
X139625Y230469D01*
X139525Y229450D01*
X139625Y228431D01*
X139923Y227450D01*
X140405Y226547D01*
X141055Y225755D01*
Y225145D01*
X140405Y224353D01*
X139923Y223450D01*
X139625Y222469D01*
X139535Y221549D01*
X137651Y219665D01*
X136478Y220152D01*
Y235863D01*
X150792Y250177D01*
X152077Y249667D01*
X152125Y249181D01*
X152423Y248200D01*
X152905Y247297D01*
X153555Y246505D01*
X154347Y245855D01*
X155250Y245373D01*
X156231Y245075D01*
X157250Y244975D01*
X158269Y245075D01*
X159250Y245373D01*
X160153Y245855D01*
X160945Y246505D01*
X161516Y247202D01*
X162164Y247297D01*
X162336D01*
X162984Y247202D01*
X163555Y246505D01*
X164347Y245855D01*
X165250Y245373D01*
X166231Y245075D01*
X167250Y244975D01*
X168269Y245075D01*
X169250Y245373D01*
X170153Y245855D01*
X170945Y246505D01*
X171595Y247297D01*
X172077Y248200D01*
X172375Y249181D01*
X172475Y250200D01*
X172375Y251219D01*
X172256Y251612D01*
X172285Y251692D01*
X173222Y252655D01*
X173627Y252557D01*
X174600Y252481D01*
X175573Y252557D01*
X176522Y252785D01*
X177423Y253159D01*
X178256Y253669D01*
X178998Y254302D01*
X179631Y255044D01*
X180141Y255877D01*
X180515Y256778D01*
X180743Y257727D01*
X180819Y258700D01*
X180743Y259673D01*
X180515Y260622D01*
X180141Y261523D01*
X180865Y262772D01*
X194413D01*
X195768Y261418D01*
X196436Y260905D01*
X197215Y260582D01*
X198050Y260472D01*
X199706D01*
X199969Y260044D01*
X200602Y259302D01*
X201345Y258669D01*
X202177Y258159D01*
X203078Y257785D01*
X204027Y257557D01*
X205000Y257481D01*
X205973Y257557D01*
X206922Y257785D01*
X207823Y258159D01*
X208655Y258669D01*
X209398Y259302D01*
X210031Y260044D01*
X210541Y260877D01*
X210915Y261778D01*
X210972Y262016D01*
X212278D01*
X212335Y261778D01*
X212709Y260877D01*
X213219Y260044D01*
X213852Y259302D01*
X214594Y258669D01*
X215427Y258159D01*
X216328Y257785D01*
X217277Y257557D01*
X218250Y257481D01*
X219223Y257557D01*
X220172Y257785D01*
X221073Y258159D01*
X221906Y258669D01*
X222648Y259302D01*
X223281Y260044D01*
X223791Y260877D01*
X224165Y261778D01*
X224393Y262727D01*
X224469Y263700D01*
X224393Y264673D01*
X224165Y265622D01*
X223791Y266523D01*
X223682Y266702D01*
X224393Y267972D01*
X272857D01*
X273568Y266702D01*
X273459Y266523D01*
X273085Y265622D01*
X272857Y264673D01*
X272781Y263700D01*
X272857Y262727D01*
X273085Y261778D01*
X273459Y260877D01*
X273969Y260044D01*
X274602Y259302D01*
X275345Y258669D01*
X276177Y258159D01*
X277078Y257785D01*
X278027Y257557D01*
X279000Y257481D01*
X279973Y257557D01*
X280922Y257785D01*
X281823Y258159D01*
X282656Y258669D01*
X283398Y259302D01*
X284031Y260044D01*
X284541Y260877D01*
X284915Y261778D01*
X285143Y262727D01*
X285219Y263700D01*
X285143Y264673D01*
X284915Y265622D01*
X284541Y266523D01*
X284432Y266702D01*
X285143Y267972D01*
X292574D01*
X292892Y266702D01*
X292597Y266544D01*
X291805Y265895D01*
X291155Y265103D01*
X290673Y264200D01*
X290375Y263219D01*
X290275Y262200D01*
X290375Y261181D01*
X290673Y260200D01*
X291155Y259297D01*
X291805Y258505D01*
X292597Y257855D01*
X293500Y257372D01*
X294481Y257075D01*
X295500Y256975D01*
X296519Y257075D01*
X297500Y257372D01*
X298403Y257855D01*
X299195Y258505D01*
X299845Y259297D01*
X300327Y260200D01*
X300625Y261181D01*
X300725Y262200D01*
X300625Y263219D01*
X300327Y264200D01*
X299845Y265103D01*
X299195Y265895D01*
X298403Y266544D01*
X298108Y266702D01*
X298426Y267972D01*
X317463D01*
X331718Y253718D01*
X332386Y253205D01*
X332842Y253016D01*
X333165Y252882D01*
X334000Y252772D01*
X334000Y252772D01*
X358050D01*
X358885Y252882D01*
X359664Y253205D01*
X360332Y253718D01*
X362887Y256272D01*
X364406D01*
X364669Y255844D01*
X365302Y255102D01*
X366045Y254469D01*
X366877Y253959D01*
X367778Y253585D01*
X368727Y253357D01*
X369700Y253281D01*
X370673Y253357D01*
X371622Y253585D01*
X372523Y253959D01*
X373355Y254469D01*
X374098Y255102D01*
X374731Y255844D01*
X375241Y256677D01*
X375615Y257578D01*
X375843Y258527D01*
X375919Y259500D01*
X375843Y260473D01*
X375615Y261422D01*
X375241Y262323D01*
X374731Y263155D01*
X374098Y263898D01*
X373355Y264531D01*
X372523Y265041D01*
X371622Y265415D01*
X370673Y265643D01*
X369700Y265719D01*
X368727Y265643D01*
X367778Y265415D01*
X366877Y265041D01*
X366045Y264531D01*
X365302Y263898D01*
X364669Y263155D01*
X364406Y262728D01*
X361550D01*
X361550Y262728D01*
X360715Y262618D01*
X359936Y262295D01*
X359268Y261782D01*
X359268Y261782D01*
X356713Y259228D01*
X355250D01*
X355090Y259362D01*
X354559Y260498D01*
X354791Y260877D01*
X355165Y261778D01*
X355393Y262727D01*
X355469Y263700D01*
X355393Y264673D01*
X355165Y265622D01*
X354791Y266523D01*
X354281Y267355D01*
X353648Y268098D01*
X352906Y268731D01*
X352073Y269241D01*
X351172Y269615D01*
X350223Y269843D01*
X349250Y269919D01*
X348277Y269843D01*
X347789Y269725D01*
X339782Y277732D01*
X339114Y278245D01*
X338335Y278568D01*
X337500Y278678D01*
X237158D01*
X236425Y279948D01*
X236572Y280431D01*
X236672Y281450D01*
X236572Y282469D01*
X236275Y283450D01*
X235792Y284353D01*
X235142Y285145D01*
X234350Y285795D01*
X233447Y286277D01*
X232467Y286575D01*
X231447Y286675D01*
X230428Y286575D01*
X229447Y286277D01*
X228544Y285795D01*
X227752Y285145D01*
X227103Y284353D01*
X226620Y283450D01*
X226322Y282469D01*
X226222Y281450D01*
X226322Y280431D01*
X226469Y279948D01*
X225736Y278678D01*
X192337D01*
X188032Y282982D01*
X187364Y283495D01*
X186585Y283818D01*
X185750Y283928D01*
X169689D01*
X168942Y285198D01*
X169077Y285450D01*
X169375Y286431D01*
X169475Y287450D01*
X169375Y288469D01*
X169077Y289450D01*
X168595Y290353D01*
X167945Y291145D01*
Y292505D01*
X168595Y293297D01*
X169077Y294200D01*
X169375Y295181D01*
X169475Y296200D01*
X169375Y297219D01*
X169077Y298200D01*
X168595Y299103D01*
X167945Y299895D01*
X167153Y300545D01*
X166250Y301027D01*
X165269Y301325D01*
X164250Y301425D01*
X163231Y301325D01*
X162250Y301027D01*
X161347Y300545D01*
X160555Y299895D01*
X159905Y299103D01*
X159423Y298200D01*
X159125Y297219D01*
X159025Y296200D01*
X159125Y295181D01*
X159423Y294200D01*
X159905Y293297D01*
X160555Y292505D01*
Y291145D01*
X159905Y290353D01*
X159423Y289450D01*
X159125Y288469D01*
X159025Y287450D01*
X159125Y286431D01*
X159423Y285450D01*
X159558Y285198D01*
X158811Y283928D01*
X111450D01*
X110615Y283818D01*
X109836Y283495D01*
X109168Y282982D01*
X103468Y277282D01*
X102955Y276614D01*
X102632Y275835D01*
X102522Y275000D01*
Y269329D01*
X101252Y268874D01*
X101195Y268945D01*
X100403Y269595D01*
X99500Y270077D01*
X98519Y270375D01*
X97500Y270475D01*
X96481Y270375D01*
X95500Y270077D01*
X94597Y269595D01*
X93805Y268945D01*
X93155Y268153D01*
X92673Y267250D01*
X92375Y266269D01*
X92275Y265250D01*
X92375Y264231D01*
X92673Y263250D01*
X93155Y262347D01*
X93805Y261555D01*
X94597Y260905D01*
X95500Y260423D01*
X96481Y260125D01*
X97500Y260025D01*
X98338Y260107D01*
X98890Y259652D01*
X99358Y259053D01*
X99324Y258620D01*
X98805Y258195D01*
X98155Y257403D01*
X97673Y256500D01*
X97375Y255519D01*
X97275Y254500D01*
X97375Y253481D01*
X97385Y253449D01*
X80998Y237062D01*
X79952Y237388D01*
X79728Y237565D01*
Y242163D01*
X88649Y251084D01*
X89250Y251025D01*
X90269Y251125D01*
X91250Y251423D01*
X92153Y251905D01*
X92945Y252555D01*
X93595Y253347D01*
X94077Y254250D01*
X94375Y255231D01*
X94475Y256250D01*
X94375Y257269D01*
X94077Y258250D01*
X93595Y259153D01*
X92945Y259945D01*
X92153Y260595D01*
X91250Y261077D01*
X90269Y261375D01*
X89328Y261467D01*
X89172Y261674D01*
X88768Y262704D01*
X88782Y262718D01*
X89295Y263386D01*
X89618Y264165D01*
X89728Y265000D01*
X89728Y265000D01*
X89728Y267863D01*
X113657Y291793D01*
X125837Y303972D01*
X131684D01*
X131936Y302702D01*
X131427Y302491D01*
X130595Y301981D01*
X129852Y301348D01*
X129219Y300606D01*
X128709Y299773D01*
X128335Y298872D01*
X128107Y297923D01*
X128031Y296950D01*
X128107Y295977D01*
X128335Y295028D01*
X128709Y294126D01*
X129219Y293294D01*
X129852Y292552D01*
X130595Y291919D01*
X131427Y291409D01*
X132328Y291035D01*
X133277Y290807D01*
X134250Y290731D01*
X135223Y290807D01*
X136172Y291035D01*
X137073Y291409D01*
X137906Y291919D01*
X138648Y292552D01*
X138814Y292747D01*
X138990Y292831D01*
X140260D01*
X140436Y292747D01*
X140602Y292552D01*
X141344Y291919D01*
X142177Y291409D01*
X143078Y291035D01*
X144027Y290807D01*
X145000Y290731D01*
X145973Y290807D01*
X146922Y291035D01*
X147823Y291409D01*
X148656Y291919D01*
X149398Y292552D01*
X150031Y293294D01*
X150541Y294126D01*
X150915Y295028D01*
X151143Y295977D01*
X151219Y296950D01*
X151143Y297923D01*
X150915Y298872D01*
X150541Y299773D01*
X150031Y300606D01*
X149398Y301348D01*
X148656Y301981D01*
X147823Y302491D01*
X147314Y302702D01*
X147566Y303972D01*
X176500D01*
X177335Y304082D01*
X178114Y304405D01*
X178782Y304918D01*
X209837Y335972D01*
X279313D01*
X279565Y334702D01*
X279177Y334541D01*
X278344Y334031D01*
X277602Y333398D01*
X276969Y332655D01*
X276459Y331823D01*
X276085Y330922D01*
X275857Y329973D01*
X275781Y329000D01*
X275857Y328027D01*
X276085Y327078D01*
X276459Y326177D01*
X276969Y325345D01*
X277602Y324602D01*
X278344Y323969D01*
X279177Y323459D01*
X280078Y323085D01*
X281027Y322857D01*
X282000Y322781D01*
X282973Y322857D01*
X283922Y323085D01*
X284823Y323459D01*
X285655Y323969D01*
X286398Y324602D01*
X287031Y325345D01*
X287541Y326177D01*
X287915Y327078D01*
X288143Y328027D01*
X288219Y329000D01*
X288143Y329973D01*
X287915Y330922D01*
X287541Y331823D01*
X287031Y332655D01*
X286398Y333398D01*
X285655Y334031D01*
X284823Y334541D01*
X284435Y334702D01*
X284687Y335972D01*
X327288D01*
X334543Y328718D01*
X335211Y328205D01*
X335990Y327882D01*
X336825Y327772D01*
X346847D01*
X347268Y326502D01*
X346852Y326148D01*
X346219Y325406D01*
X345709Y324573D01*
X345335Y323672D01*
X345107Y322723D01*
X345031Y321750D01*
X345107Y320777D01*
X345335Y319828D01*
X345709Y318927D01*
X346219Y318095D01*
X346852Y317352D01*
Y315898D01*
X346219Y315156D01*
X345709Y314324D01*
X345335Y313422D01*
X345107Y312473D01*
X345031Y311500D01*
X345107Y310527D01*
X345335Y309578D01*
X345709Y308677D01*
X346219Y307845D01*
X346852Y307102D01*
X347594Y306469D01*
X348427Y305959D01*
X349328Y305585D01*
X350277Y305357D01*
X351250Y305281D01*
X352223Y305357D01*
X353172Y305585D01*
X354073Y305959D01*
X354906Y306469D01*
X355648Y307102D01*
X356281Y307845D01*
X356791Y308677D01*
X357165Y309578D01*
X357393Y310527D01*
X357469Y311500D01*
X357393Y312473D01*
X357165Y313422D01*
X356791Y314324D01*
X356281Y315156D01*
X355648Y315898D01*
Y317352D01*
X356281Y318095D01*
X356791Y318927D01*
X357165Y319828D01*
X357393Y320777D01*
X357469Y321750D01*
X357393Y322723D01*
X357165Y323672D01*
X356791Y324573D01*
X356281Y325406D01*
X355648Y326148D01*
X355232Y326502D01*
X355653Y327772D01*
X365000D01*
X365835Y327882D01*
X366614Y328205D01*
X367282Y328718D01*
X388037Y349472D01*
X466422D01*
X466805Y349005D01*
X467502Y348434D01*
X467597Y347786D01*
Y347614D01*
X467502Y346966D01*
X466805Y346395D01*
X466155Y345603D01*
X465673Y344700D01*
X465375Y343719D01*
X465275Y342700D01*
X465375Y341681D01*
X465673Y340700D01*
X466155Y339797D01*
X466805Y339005D01*
X467597Y338355D01*
X468500Y337873D01*
X469481Y337575D01*
X470500Y337475D01*
X471519Y337575D01*
X472500Y337873D01*
X473403Y338355D01*
X474195Y339005D01*
X474845Y339797D01*
X475327Y340700D01*
X475625Y341681D01*
X475725Y342700D01*
X475625Y343719D01*
X475327Y344700D01*
X474845Y345603D01*
X474195Y346395D01*
X473498Y346966D01*
X473403Y347614D01*
Y347786D01*
X473498Y348434D01*
X474195Y349005D01*
X474845Y349797D01*
X475327Y350700D01*
X475625Y351681D01*
X475725Y352700D01*
X475625Y353719D01*
X475327Y354700D01*
X474845Y355603D01*
X474195Y356395D01*
X473403Y357044D01*
X472500Y357527D01*
X471519Y357825D01*
X470500Y357925D01*
X469481Y357825D01*
X468500Y357527D01*
X467597Y357044D01*
X466805Y356395D01*
X466422Y355928D01*
X386700D01*
X385865Y355818D01*
X385086Y355495D01*
X384418Y354982D01*
X363663Y334228D01*
X338162D01*
X330907Y341482D01*
X330239Y341995D01*
X329460Y342318D01*
X328625Y342428D01*
X311426D01*
X311108Y343698D01*
X311403Y343855D01*
X312195Y344505D01*
X312845Y345297D01*
X313327Y346200D01*
X313625Y347181D01*
X313725Y348200D01*
X313625Y349219D01*
X313327Y350200D01*
X312845Y351103D01*
X312195Y351895D01*
X311403Y352545D01*
X310500Y353027D01*
X309519Y353325D01*
X308500Y353425D01*
X307481Y353325D01*
X306500Y353027D01*
X305597Y352545D01*
X304805Y351895D01*
X304155Y351103D01*
X303673Y350200D01*
X303375Y349219D01*
X303275Y348200D01*
X303375Y347181D01*
X303673Y346200D01*
X304155Y345297D01*
X304805Y344505D01*
X305597Y343855D01*
X305892Y343698D01*
X305574Y342428D01*
X208500D01*
X208500Y342428D01*
X207665Y342318D01*
X206886Y341995D01*
X206218Y341482D01*
X175163Y310428D01*
X124500D01*
X123665Y310318D01*
X122886Y309995D01*
X122218Y309482D01*
X109093Y296357D01*
X84218Y271482D01*
X83705Y270814D01*
X83382Y270035D01*
X83272Y269200D01*
X83272Y266722D01*
X83000Y266475D01*
X81981Y266375D01*
X81000Y266077D01*
X80097Y265595D01*
X79305Y264945D01*
X78655Y264153D01*
X78173Y263250D01*
X77875Y262269D01*
X77782Y261322D01*
X76680Y260819D01*
X75854Y261913D01*
X75875Y261981D01*
X75975Y263000D01*
X75875Y264019D01*
X75577Y265000D01*
X75095Y265903D01*
X74445Y266695D01*
X73653Y267345D01*
X72750Y267827D01*
X71769Y268125D01*
X70750Y268225D01*
X69731Y268125D01*
X68750Y267827D01*
X67847Y267345D01*
X67232Y266840D01*
X66541Y266975D01*
X65921Y267314D01*
X65893Y267673D01*
X65665Y268622D01*
X65291Y269523D01*
X64781Y270355D01*
X64148Y271098D01*
X63405Y271731D01*
X62573Y272241D01*
X61672Y272615D01*
X60723Y272843D01*
X59750Y272919D01*
X58777Y272843D01*
X57828Y272615D01*
X56927Y272241D01*
X56094Y271731D01*
X55352Y271098D01*
X54719Y270355D01*
X54209Y269523D01*
X53835Y268622D01*
X53607Y267673D01*
X53531Y266700D01*
X53607Y265727D01*
X53835Y264778D01*
X54209Y263877D01*
X54719Y263044D01*
X55352Y262302D01*
X56094Y261669D01*
X56927Y261159D01*
X57275Y261014D01*
X57888Y260321D01*
X58002Y259437D01*
X57875Y259019D01*
X56769Y258575D01*
X55750Y258675D01*
X54731Y258575D01*
X53750Y258277D01*
X52847Y257795D01*
X52055Y257145D01*
X51405Y256353D01*
X50923Y255450D01*
X50625Y254469D01*
X50525Y253450D01*
X50625Y252431D01*
X50923Y251450D01*
X51405Y250547D01*
X52055Y249755D01*
X52847Y249105D01*
X53750Y248623D01*
X54731Y248325D01*
X55750Y248225D01*
X56769Y248325D01*
X57750Y248623D01*
X58653Y249105D01*
X59445Y249755D01*
X60095Y250547D01*
X60577Y251450D01*
X60750Y252018D01*
X60875Y252431D01*
X61981Y252875D01*
X63000Y252775D01*
X64019Y252875D01*
X65000Y253173D01*
X65903Y253655D01*
X66695Y254305D01*
X67345Y255097D01*
X67827Y256000D01*
X68125Y256981D01*
X68133Y257063D01*
X68205Y257192D01*
X69465Y257956D01*
X69731Y257875D01*
X70681Y257782D01*
X70761Y257760D01*
X71646Y256587D01*
X71625Y256519D01*
X71525Y255500D01*
X71589Y254853D01*
X62963Y246228D01*
X55500D01*
X54665Y246118D01*
X53886Y245795D01*
X53218Y245282D01*
X53218Y245282D01*
X44718Y236782D01*
X44205Y236114D01*
X43882Y235335D01*
X43772Y234500D01*
Y200837D01*
X38413Y195478D01*
X37046D01*
X36291Y196677D01*
X36665Y197578D01*
X36893Y198527D01*
X36969Y199500D01*
X36893Y200473D01*
X36665Y201422D01*
X36291Y202323D01*
X35781Y203155D01*
X35148Y203898D01*
X34406Y204531D01*
X33573Y205041D01*
X32672Y205415D01*
X31723Y205643D01*
X30750Y205719D01*
X29777Y205643D01*
X28828Y205415D01*
X27927Y205041D01*
X27095Y204531D01*
X26352Y203898D01*
X25719Y203155D01*
X25209Y202323D01*
X24835Y201422D01*
X24607Y200473D01*
X24531Y199500D01*
X24607Y198527D01*
X23385Y198310D01*
X23094Y198853D01*
X22445Y199645D01*
X21748Y200216D01*
X21653Y200864D01*
Y201036D01*
X21748Y201684D01*
X22445Y202255D01*
X23094Y203047D01*
X23577Y203950D01*
X23875Y204931D01*
X23975Y205950D01*
X23901Y206702D01*
X24162Y207184D01*
X24210Y207238D01*
X24942Y207825D01*
X25500Y207781D01*
X26473Y207857D01*
X27422Y208085D01*
X28323Y208459D01*
X29155Y208969D01*
X29898Y209602D01*
X30531Y210345D01*
X31041Y211177D01*
X31415Y212078D01*
X31643Y213027D01*
X31719Y214000D01*
X31643Y214973D01*
X31415Y215922D01*
X31041Y216823D01*
X30531Y217656D01*
X29898Y218398D01*
X29155Y219031D01*
X28323Y219541D01*
X27422Y219915D01*
X26473Y220143D01*
X25500Y220219D01*
X24703Y220156D01*
X24568Y220222D01*
X24310Y220454D01*
X23748Y221262D01*
X23875Y221681D01*
X23975Y222700D01*
X23875Y223719D01*
X23577Y224700D01*
X23095Y225603D01*
X22445Y226395D01*
X21653Y227045D01*
X20750Y227527D01*
X19769Y227825D01*
X18750Y227925D01*
X17731Y227825D01*
X16750Y227527D01*
X15847Y227045D01*
X15055Y226395D01*
X14405Y225603D01*
X13923Y224700D01*
X13625Y223719D01*
X13525Y222700D01*
X13625Y221681D01*
X13923Y220700D01*
X14405Y219797D01*
X15055Y219005D01*
X15847Y218355D01*
X16750Y217873D01*
X17731Y217575D01*
X18750Y217475D01*
X18876Y217487D01*
X19045Y217384D01*
X19740Y216296D01*
X19585Y215922D01*
X19357Y214973D01*
X19281Y214000D01*
X19357Y213027D01*
X19514Y212376D01*
X19029Y211564D01*
X18591Y211159D01*
X17731Y211075D01*
X16750Y210777D01*
X15847Y210295D01*
X15055Y209645D01*
X14405Y208853D01*
X13923Y207950D01*
X13734Y207327D01*
X12791Y206937D01*
X12344Y206920D01*
X10978Y208287D01*
Y318663D01*
X14077Y321762D01*
X14734Y321732D01*
X15558Y321447D01*
X15905Y320797D01*
X16555Y320005D01*
X17347Y319355D01*
X18250Y318873D01*
X19231Y318575D01*
X19300Y317292D01*
X19250Y317277D01*
X18347Y316794D01*
X17555Y316145D01*
X16905Y315353D01*
X16423Y314450D01*
X16125Y313469D01*
X16025Y312450D01*
X16125Y311431D01*
X16423Y310450D01*
X16905Y309547D01*
X17555Y308755D01*
X18347Y308105D01*
X19250Y307623D01*
X20231Y307325D01*
X21250Y307225D01*
X22269Y307325D01*
X23250Y307623D01*
X24153Y308105D01*
X24945Y308755D01*
X25595Y309547D01*
X25752Y309842D01*
X27022Y309524D01*
Y295000D01*
X27132Y294165D01*
X27455Y293386D01*
X27968Y292718D01*
X28356Y292329D01*
X28275Y291500D01*
X28375Y290481D01*
X28673Y289500D01*
X29155Y288597D01*
X29805Y287805D01*
X30597Y287155D01*
X31500Y286673D01*
X32481Y286375D01*
X33240Y286301D01*
X33632Y285638D01*
X33760Y285024D01*
X32163Y283428D01*
X25783D01*
X25195Y284145D01*
X24403Y284795D01*
X23931Y285047D01*
X23829Y286265D01*
X23897Y286469D01*
X24153Y286605D01*
X24945Y287255D01*
X25595Y288047D01*
X26077Y288950D01*
X26375Y289931D01*
X26475Y290950D01*
X26375Y291969D01*
X26077Y292950D01*
X25595Y293853D01*
X24945Y294645D01*
X24153Y295294D01*
X23250Y295777D01*
X22269Y296075D01*
X21250Y296175D01*
X20231Y296075D01*
X19250Y295777D01*
X18347Y295294D01*
X17555Y294645D01*
X16905Y293853D01*
X16423Y292950D01*
X16125Y291969D01*
X16025Y290950D01*
X16125Y289931D01*
X16423Y288950D01*
X16905Y288047D01*
X17555Y287255D01*
X18347Y286605D01*
X18819Y286353D01*
X18921Y285135D01*
X18853Y284931D01*
X18597Y284795D01*
X17805Y284145D01*
X17155Y283353D01*
X16673Y282450D01*
X16375Y281469D01*
X16275Y280450D01*
X16375Y279431D01*
X16673Y278450D01*
X17155Y277547D01*
X17805Y276755D01*
X18597Y276105D01*
X19500Y275623D01*
X20481Y275325D01*
X21500Y275225D01*
X22519Y275325D01*
X23500Y275623D01*
X23559Y275655D01*
X24191Y275236D01*
X24562Y274750D01*
X24325Y273969D01*
X24225Y272950D01*
X24325Y271931D01*
X24623Y270950D01*
X25105Y270047D01*
X25755Y269255D01*
X26547Y268605D01*
X27450Y268123D01*
X28431Y267825D01*
X29450Y267725D01*
X30469Y267825D01*
X31450Y268123D01*
X32353Y268605D01*
X33145Y269255D01*
X33198Y269320D01*
X34259Y268611D01*
X34173Y268450D01*
X33875Y267469D01*
X33775Y266450D01*
X33875Y265431D01*
X33880Y265414D01*
X33788Y265114D01*
X32945Y264121D01*
X32481Y264075D01*
X31500Y263777D01*
X30597Y263295D01*
X29805Y262645D01*
X29155Y261853D01*
X28673Y260950D01*
X28375Y259969D01*
X28275Y258950D01*
X28312Y258576D01*
X27336Y257601D01*
X26841Y257736D01*
X26153Y258213D01*
X26225Y258950D01*
X26125Y259969D01*
X25827Y260950D01*
X25345Y261853D01*
X24695Y262645D01*
X23903Y263295D01*
X23000Y263777D01*
X22019Y264075D01*
X21000Y264175D01*
X19981Y264075D01*
X19000Y263777D01*
X18097Y263295D01*
X17305Y262645D01*
X16655Y261853D01*
X16173Y260950D01*
X15875Y259969D01*
X15775Y258950D01*
X15875Y257931D01*
X16173Y256950D01*
X16655Y256047D01*
X17305Y255255D01*
X18097Y254605D01*
X19000Y254123D01*
X19981Y253825D01*
X20660Y253758D01*
X20722Y253719D01*
X21253Y252906D01*
X21318Y252695D01*
X21263Y252475D01*
X21100Y252366D01*
X20500Y252425D01*
X19481Y252325D01*
X18500Y252027D01*
X17597Y251545D01*
X16805Y250895D01*
X16155Y250103D01*
X15673Y249200D01*
X15375Y248219D01*
X15275Y247200D01*
X15375Y246181D01*
X15673Y245200D01*
X16155Y244297D01*
X16805Y243505D01*
X17597Y242855D01*
X18500Y242373D01*
X19481Y242075D01*
X20500Y241975D01*
X21519Y242075D01*
X22500Y242373D01*
X23403Y242855D01*
X24195Y243505D01*
X24766Y244202D01*
X25414Y244297D01*
X25586D01*
X26234Y244202D01*
X26805Y243505D01*
X27597Y242855D01*
X28500Y242373D01*
X29481Y242075D01*
X29714Y242052D01*
X30055Y241385D01*
X30171Y240731D01*
X29655Y240103D01*
X29173Y239200D01*
X28875Y238219D01*
X28775Y237200D01*
X28875Y236181D01*
X29173Y235200D01*
X29655Y234297D01*
X30305Y233505D01*
X31097Y232855D01*
X32000Y232373D01*
X32981Y232075D01*
X34000Y231975D01*
X35019Y232075D01*
X36000Y232373D01*
X36903Y232855D01*
X37695Y233505D01*
X38345Y234297D01*
X38827Y235200D01*
X39125Y236181D01*
X39225Y237200D01*
X39125Y238219D01*
X38827Y239200D01*
X38345Y240103D01*
X37695Y240895D01*
X36903Y241545D01*
X36000Y242027D01*
X35019Y242325D01*
X34786Y242348D01*
X34445Y243015D01*
X34329Y243669D01*
X34845Y244297D01*
X35327Y245200D01*
X35625Y246181D01*
X35725Y247200D01*
X35625Y248219D01*
X35327Y249200D01*
X34845Y250103D01*
X34195Y250895D01*
X33403Y251545D01*
X33169Y251670D01*
X32885Y253115D01*
X33470Y253728D01*
X33500Y253725D01*
X34519Y253825D01*
X35500Y254123D01*
X36403Y254605D01*
X37195Y255255D01*
X37845Y256047D01*
X38327Y256950D01*
X38625Y257931D01*
X38725Y258950D01*
X38625Y259969D01*
X38620Y259986D01*
X38712Y260286D01*
X39555Y261279D01*
X40019Y261325D01*
X41000Y261623D01*
X41903Y262105D01*
X42695Y262755D01*
X43345Y263547D01*
X43827Y264450D01*
X44125Y265431D01*
X44225Y266450D01*
X44125Y267469D01*
X43827Y268450D01*
X43345Y269353D01*
X42695Y270145D01*
X41903Y270795D01*
X41000Y271277D01*
X40019Y271575D01*
X39000Y271675D01*
X37981Y271575D01*
X37000Y271277D01*
X36097Y270795D01*
X35305Y270145D01*
X35252Y270080D01*
X34191Y270789D01*
X34277Y270950D01*
X34575Y271931D01*
X34675Y272950D01*
X34575Y273969D01*
X34277Y274950D01*
X33856Y275738D01*
X33989Y276295D01*
X34329Y277068D01*
X34405Y277111D01*
X35114Y277405D01*
X35782Y277918D01*
X42532Y284668D01*
X42532Y284668D01*
X43045Y285336D01*
X43193Y285694D01*
X44388Y286122D01*
X44620Y286123D01*
X44629Y286118D01*
X44732Y285493D01*
X44619Y284608D01*
X44055Y284145D01*
X43405Y283353D01*
X42923Y282450D01*
X42625Y281469D01*
X42525Y280450D01*
X42625Y279431D01*
X42923Y278450D01*
X43405Y277547D01*
X44055Y276755D01*
X44847Y276105D01*
X45750Y275623D01*
X46731Y275325D01*
X47750Y275225D01*
X48769Y275325D01*
X49750Y275623D01*
X50653Y276105D01*
X51445Y276755D01*
X52095Y277547D01*
X52577Y278450D01*
X52601Y278530D01*
X53168Y278667D01*
X53941Y278572D01*
X54209Y277927D01*
X54719Y277094D01*
X55352Y276352D01*
X56094Y275719D01*
X56927Y275209D01*
X57828Y274835D01*
X58777Y274607D01*
X59750Y274531D01*
X60723Y274607D01*
X61672Y274835D01*
X62573Y275209D01*
X63405Y275719D01*
X64148Y276352D01*
X64781Y277094D01*
X65168Y277725D01*
X65405Y277950D01*
X66793Y278233D01*
X67000Y278123D01*
X67981Y277825D01*
X69000Y277725D01*
X70019Y277825D01*
X71000Y278123D01*
X71903Y278605D01*
X72695Y279255D01*
X72804Y279388D01*
X74120Y278989D01*
X74125Y278931D01*
X74423Y277950D01*
X74905Y277047D01*
X75555Y276255D01*
X76347Y275605D01*
X77250Y275123D01*
X78231Y274825D01*
X79250Y274725D01*
X80269Y274825D01*
X81250Y275123D01*
X82153Y275605D01*
X82945Y276255D01*
X83595Y277047D01*
X84077Y277950D01*
X84375Y278931D01*
X84475Y279950D01*
X84375Y280969D01*
X84077Y281950D01*
X83595Y282853D01*
X82945Y283645D01*
X82153Y284294D01*
X81858Y284452D01*
X82176Y285722D01*
X84250D01*
X85085Y285832D01*
X85864Y286155D01*
X86532Y286668D01*
X89649Y289784D01*
X90250Y289725D01*
X91269Y289825D01*
X92250Y290123D01*
X93153Y290605D01*
X93945Y291255D01*
X94595Y292047D01*
X95077Y292950D01*
X95375Y293931D01*
X95475Y294950D01*
X95375Y295969D01*
X95077Y296950D01*
X94595Y297853D01*
X93945Y298645D01*
X93153Y299295D01*
X92250Y299777D01*
X91269Y300075D01*
X90250Y300175D01*
X89231Y300075D01*
X88250Y299777D01*
X87347Y299295D01*
X86555Y298645D01*
X85905Y297853D01*
X85423Y296950D01*
X85414Y296920D01*
X84086D01*
X84077Y296950D01*
X83595Y297853D01*
X82945Y298645D01*
X82153Y299295D01*
X81250Y299777D01*
X80269Y300075D01*
X79250Y300175D01*
X78231Y300075D01*
X77816Y299949D01*
X74228Y303537D01*
Y305700D01*
X74228Y305700D01*
X74118Y306535D01*
X73795Y307314D01*
X73282Y307982D01*
X66782Y314482D01*
X66114Y314995D01*
X65541Y315232D01*
X65224Y315777D01*
X65015Y316641D01*
X65534Y317488D01*
X66025Y318674D01*
X66325Y319921D01*
X66425Y321200D01*
X66325Y322479D01*
X66025Y323726D01*
X65534Y324911D01*
X64864Y326005D01*
X64439Y326502D01*
X65025Y327772D01*
X67363D01*
X71584Y323551D01*
X71525Y322950D01*
X71625Y321931D01*
X71923Y320950D01*
X72406Y320047D01*
X73055Y319255D01*
X73847Y318605D01*
X74750Y318123D01*
X75731Y317825D01*
X76750Y317725D01*
X77769Y317825D01*
X78750Y318123D01*
X79653Y318605D01*
X80445Y319255D01*
X81095Y320047D01*
X81578Y320950D01*
X81875Y321931D01*
X81975Y322950D01*
X81875Y323969D01*
X81578Y324950D01*
X81095Y325853D01*
X80445Y326645D01*
X79653Y327295D01*
X78750Y327777D01*
X77769Y328075D01*
X76750Y328175D01*
X76149Y328116D01*
X70982Y333282D01*
X70314Y333795D01*
X69535Y334118D01*
X68700Y334228D01*
X18750D01*
X17915Y334118D01*
X17136Y333795D01*
X16468Y333282D01*
X5468Y322282D01*
X4955Y321614D01*
X4632Y320835D01*
X4522Y320000D01*
Y206950D01*
X4632Y206115D01*
X4955Y205336D01*
X5468Y204668D01*
X13584Y196551D01*
X13525Y195950D01*
X13625Y194931D01*
X13923Y193950D01*
X13971Y193860D01*
X14001Y193667D01*
X13994Y193554D01*
X13452Y192338D01*
X13405Y192303D01*
X13386Y192295D01*
X12718Y191782D01*
X12718Y191782D01*
X5968Y185032D01*
X5455Y184364D01*
X5132Y183585D01*
X5022Y182750D01*
Y87719D01*
X2651D01*
X1473Y88500D01*
Y326000D01*
X1939Y326531D01*
X7000D01*
X7574Y326607D01*
X8109Y326828D01*
X8569Y327181D01*
X8922Y327640D01*
X9143Y328176D01*
X9219Y328750D01*
Y332115D01*
X9323Y332159D01*
X10156Y332669D01*
X10898Y333302D01*
X11531Y334044D01*
X12041Y334877D01*
X12415Y335778D01*
X12596Y336531D01*
X32250D01*
X32824Y336607D01*
X33359Y336828D01*
X33819Y337181D01*
X34172Y337640D01*
X34393Y338176D01*
X34469Y338750D01*
Y344007D01*
X36075Y344245D01*
X38429Y344835D01*
X40714Y345653D01*
X42908Y346690D01*
X44989Y347938D01*
X46938Y349384D01*
X48737Y351013D01*
X50366Y352812D01*
X51812Y354761D01*
X53060Y356842D01*
X54097Y359036D01*
X54915Y361321D01*
X55468Y363531D01*
X60750D01*
X61324Y363607D01*
X61859Y363828D01*
X62319Y364181D01*
X62672Y364641D01*
X62893Y365176D01*
X62969Y365750D01*
Y386531D01*
X72250D01*
X72824Y386607D01*
X73359Y386828D01*
X73819Y387181D01*
X74172Y387640D01*
X74393Y388176D01*
X74469Y388750D01*
Y392781D01*
X577281D01*
Y389000D01*
D02*
G37*
G36*
X124886Y263382D02*
X125308Y262252D01*
X124969Y261856D01*
X124459Y261023D01*
X124085Y260122D01*
X123857Y259173D01*
X123781Y258200D01*
X123857Y257227D01*
X124085Y256278D01*
X124459Y255377D01*
X124969Y254544D01*
X125602Y253802D01*
X126344Y253169D01*
X127177Y252659D01*
X128078Y252285D01*
X129027Y252057D01*
X130000Y251981D01*
X130973Y252057D01*
X131922Y252285D01*
X132823Y252659D01*
X133656Y253169D01*
X134398Y253802D01*
X134710Y254168D01*
X135128Y254293D01*
X135872D01*
X136290Y254168D01*
X136602Y253802D01*
X137345Y253169D01*
X138177Y252659D01*
X139078Y252285D01*
X140027Y252057D01*
X141000Y251981D01*
X141728Y252038D01*
X142136Y251483D01*
X142320Y250835D01*
X130968Y239482D01*
X130455Y238814D01*
X130132Y238035D01*
X130022Y237200D01*
Y178700D01*
X130132Y177865D01*
X130455Y177086D01*
X130968Y176418D01*
X137718Y169668D01*
X138386Y169155D01*
X139165Y168832D01*
X139346Y168808D01*
X139750Y168198D01*
X139068Y166928D01*
X119700D01*
X118865Y166818D01*
X118086Y166495D01*
X117418Y165982D01*
X101851Y150416D01*
X101250Y150475D01*
X100231Y150375D01*
X99250Y150077D01*
X98347Y149595D01*
X97555Y148945D01*
X96945D01*
X96153Y149595D01*
X95250Y150077D01*
X94269Y150375D01*
X93250Y150475D01*
X92231Y150375D01*
X91748Y150228D01*
X91138Y150455D01*
X90676Y150776D01*
X90428Y151078D01*
X90368Y151535D01*
X90045Y152314D01*
X89532Y152982D01*
X86228Y156287D01*
Y166613D01*
X98532Y178918D01*
X99045Y179586D01*
X99368Y180365D01*
X99478Y181200D01*
X99478Y181200D01*
Y224363D01*
X112032Y236918D01*
X112545Y237586D01*
X112868Y238365D01*
X112978Y239200D01*
Y255672D01*
X113445Y256055D01*
X114095Y256847D01*
X114577Y257750D01*
X114875Y258731D01*
X114975Y259750D01*
X114875Y260769D01*
X114749Y261184D01*
X117087Y263522D01*
X124757D01*
X124886Y263382D01*
D02*
G37*
G36*
X21522Y186000D02*
Y176161D01*
X20252Y175428D01*
X19769Y175575D01*
X18750Y175675D01*
X17731Y175575D01*
X16750Y175277D01*
X15847Y174795D01*
X15055Y174145D01*
X14405Y173353D01*
X13923Y172450D01*
X13625Y171469D01*
X13525Y170450D01*
X13625Y169431D01*
X13923Y168450D01*
X14405Y167547D01*
X15055Y166755D01*
X15847Y166105D01*
X16750Y165623D01*
X17731Y165325D01*
X18750Y165225D01*
X19769Y165325D01*
X20252Y165472D01*
X21522Y164739D01*
Y160411D01*
X20252Y159678D01*
X19769Y159825D01*
X18750Y159925D01*
X17731Y159825D01*
X16750Y159527D01*
X15847Y159045D01*
X15055Y158395D01*
X14405Y157603D01*
X13923Y156700D01*
X13625Y155719D01*
X13525Y154700D01*
X13625Y153681D01*
X13923Y152700D01*
X14405Y151797D01*
X15055Y151005D01*
X15752Y150434D01*
X15847Y149786D01*
Y149614D01*
X15752Y148966D01*
X15055Y148395D01*
X14405Y147603D01*
X13923Y146700D01*
X13625Y145719D01*
X13525Y144700D01*
X13625Y143681D01*
X13923Y142700D01*
X14405Y141797D01*
X15055Y141005D01*
X15847Y140355D01*
X16750Y139873D01*
X17731Y139575D01*
X18750Y139475D01*
X19769Y139575D01*
X20252Y139722D01*
X21522Y138989D01*
Y132161D01*
X20252Y131428D01*
X19769Y131575D01*
X18750Y131675D01*
X17731Y131575D01*
X16750Y131277D01*
X15847Y130795D01*
X15055Y130145D01*
X14405Y129353D01*
X13923Y128450D01*
X13625Y127469D01*
X13525Y126450D01*
X13625Y125431D01*
X13923Y124450D01*
X14405Y123547D01*
X15055Y122755D01*
X15752Y122184D01*
X15847Y121536D01*
Y121364D01*
X15752Y120716D01*
X15055Y120145D01*
X14405Y119353D01*
X13923Y118450D01*
X13625Y117469D01*
X13525Y116450D01*
X13625Y115431D01*
X13923Y114450D01*
X14405Y113547D01*
X15055Y112755D01*
X15847Y112105D01*
X16750Y111623D01*
X17731Y111325D01*
X18750Y111225D01*
X19769Y111325D01*
X20252Y111472D01*
X21522Y110739D01*
Y100300D01*
X21582Y99850D01*
X21218Y99374D01*
X20911Y99126D01*
X20482Y98924D01*
X19819Y99125D01*
X18800Y99225D01*
X17781Y99125D01*
X16800Y98827D01*
X15897Y98345D01*
X15105Y97695D01*
X14455Y96903D01*
X13973Y96000D01*
X13675Y95019D01*
X13575Y94000D01*
X13675Y92981D01*
X13973Y92001D01*
X14455Y91097D01*
X15105Y90305D01*
X15897Y89656D01*
X16800Y89173D01*
X17781Y88875D01*
X18800Y88775D01*
X19819Y88875D01*
X20800Y89173D01*
X21703Y89656D01*
X22495Y90305D01*
X23145Y91097D01*
X23627Y92001D01*
X23925Y92981D01*
X24025Y94000D01*
X23970Y94559D01*
X25048Y95177D01*
X25867Y94431D01*
X25825Y94000D01*
X25925Y92981D01*
X26223Y92000D01*
X26705Y91097D01*
X27355Y90305D01*
X28147Y89655D01*
X29050Y89173D01*
X30031Y88875D01*
X31050Y88775D01*
X32069Y88875D01*
X33050Y89173D01*
X33953Y89655D01*
X34745Y90305D01*
X35395Y91097D01*
X35502Y91299D01*
X36772Y90981D01*
Y90000D01*
X36882Y89165D01*
X37205Y88386D01*
X37718Y87718D01*
X47235Y78200D01*
X46852Y76788D01*
X46397Y76545D01*
X45605Y75895D01*
X45034Y75198D01*
X44386Y75103D01*
X44214D01*
X43566Y75198D01*
X42995Y75895D01*
X42203Y76545D01*
X41300Y77027D01*
X40319Y77325D01*
X39300Y77425D01*
X38281Y77325D01*
X37300Y77027D01*
X36397Y76545D01*
X35605Y75895D01*
X34955Y75103D01*
X34473Y74200D01*
X34175Y73219D01*
X34075Y72200D01*
X34175Y71181D01*
X34473Y70200D01*
X34955Y69297D01*
X35605Y68505D01*
X35615Y68498D01*
X35160Y67228D01*
X24837D01*
X18980Y73084D01*
X18979Y73425D01*
X19401Y74460D01*
X19922Y74585D01*
X20823Y74959D01*
X21655Y75469D01*
X22398Y76102D01*
X23852D01*
X24595Y75469D01*
X25427Y74959D01*
X26328Y74585D01*
X27277Y74357D01*
X28250Y74281D01*
X29223Y74357D01*
X30172Y74585D01*
X31073Y74959D01*
X31906Y75469D01*
X32648Y76102D01*
X33281Y76844D01*
X33791Y77677D01*
X34165Y78578D01*
X34393Y79527D01*
X34469Y80500D01*
X34393Y81473D01*
X34165Y82422D01*
X33791Y83323D01*
X33281Y84156D01*
X32648Y84898D01*
X31906Y85531D01*
X31073Y86041D01*
X30172Y86415D01*
X29223Y86643D01*
X28250Y86719D01*
X27277Y86643D01*
X26328Y86415D01*
X25427Y86041D01*
X24595Y85531D01*
X23852Y84898D01*
X22398D01*
X21655Y85531D01*
X20823Y86041D01*
X19922Y86415D01*
X18973Y86643D01*
X18000Y86719D01*
X17027Y86643D01*
X16078Y86415D01*
X15177Y86041D01*
X14344Y85531D01*
X13602Y84898D01*
X12969Y84156D01*
X12748Y83795D01*
X11478Y84153D01*
Y181413D01*
X16337Y186272D01*
X21284D01*
X21522Y186000D01*
D02*
G37*
G36*
X142899Y201036D02*
X142528Y199612D01*
X142250Y199527D01*
X141347Y199045D01*
X140555Y198395D01*
X139905Y197603D01*
X139423Y196700D01*
X139125Y195719D01*
X139025Y194700D01*
X139125Y193681D01*
X139423Y192700D01*
X139905Y191797D01*
X140555Y191005D01*
X141347Y190355D01*
X142250Y189873D01*
X143231Y189575D01*
X144250Y189475D01*
X145269Y189575D01*
X146250Y189873D01*
X146811Y190173D01*
X147610Y189986D01*
X147799Y189909D01*
X148240Y189605D01*
X148455Y189086D01*
X148968Y188418D01*
X152107Y185279D01*
X152025Y184450D01*
X152125Y183431D01*
X152423Y182450D01*
X152905Y181547D01*
X153555Y180755D01*
X154347Y180105D01*
X155250Y179623D01*
X156231Y179325D01*
X157250Y179225D01*
X158079Y179307D01*
X159522Y177863D01*
Y176700D01*
X159632Y175865D01*
X159955Y175086D01*
X160468Y174418D01*
X163789Y171096D01*
X163775Y170950D01*
X163875Y169931D01*
X164173Y168950D01*
X164575Y168198D01*
X164402Y167656D01*
X163931Y166928D01*
X148079D01*
X147625Y168198D01*
X147695Y168255D01*
X148345Y169047D01*
X148827Y169950D01*
X149125Y170931D01*
X149225Y171950D01*
X149125Y172969D01*
X148827Y173950D01*
X148345Y174853D01*
X147695Y175645D01*
Y176505D01*
X148345Y177297D01*
X148827Y178200D01*
X149125Y179181D01*
X149225Y180200D01*
X149125Y181219D01*
X148827Y182200D01*
X148345Y183103D01*
X147695Y183895D01*
X146903Y184545D01*
X146000Y185027D01*
X145019Y185325D01*
X144000Y185425D01*
X142981Y185325D01*
X142000Y185027D01*
X141097Y184545D01*
X140305Y183895D01*
X139655Y183103D01*
X139173Y182200D01*
X138875Y181219D01*
X138775Y180200D01*
X138847Y179463D01*
X138159Y178986D01*
X137664Y178851D01*
X136478Y180037D01*
Y205798D01*
X137651Y206285D01*
X142899Y201036D01*
D02*
G37*
G36*
X159424Y276202D02*
X159423Y276200D01*
X159125Y275219D01*
X159025Y274200D01*
X159125Y273181D01*
X159423Y272200D01*
X159905Y271297D01*
X160555Y270505D01*
X161347Y269855D01*
X161437Y269807D01*
X161795Y268242D01*
X161791Y268232D01*
X161397Y267728D01*
X146087D01*
X144782Y269032D01*
X144114Y269545D01*
X143335Y269868D01*
X142500Y269978D01*
X118655D01*
X118054Y271248D01*
X118095Y271297D01*
X118577Y272200D01*
X118875Y273181D01*
X118975Y274200D01*
X118875Y275219D01*
X118577Y276200D01*
X118576Y276202D01*
X119337Y277472D01*
X158663D01*
X159424Y276202D01*
D02*
G37*
G36*
X131209Y160417D02*
X131552Y159202D01*
X131055Y158795D01*
X130405Y158003D01*
X129923Y157100D01*
X129625Y156119D01*
X129525Y155100D01*
X129625Y154081D01*
X129923Y153100D01*
X130405Y152197D01*
X131055Y151405D01*
X131847Y150756D01*
X132750Y150273D01*
X133731Y149975D01*
X134750Y149875D01*
X135151Y149914D01*
X138069Y146868D01*
X138096Y146846D01*
X138118Y146818D01*
X138425Y146582D01*
X138726Y146340D01*
X138758Y146326D01*
X138786Y146305D01*
X139144Y146157D01*
X139497Y146001D01*
X139532Y145996D01*
X139565Y145982D01*
X139948Y145932D01*
X140330Y145873D01*
X140365Y145877D01*
X140400Y145872D01*
X161589D01*
X162595Y144687D01*
X162602Y144602D01*
X162531Y143700D01*
X162607Y142727D01*
X162835Y141778D01*
X163159Y140998D01*
X163009Y140584D01*
X162423Y139728D01*
X160800D01*
X159965Y139618D01*
X159186Y139295D01*
X158518Y138782D01*
X151968Y132232D01*
X151455Y131564D01*
X151132Y130785D01*
X151022Y129950D01*
Y98287D01*
X148163Y95428D01*
X128837D01*
X124478Y99787D01*
Y125871D01*
X125748Y126326D01*
X125805Y126255D01*
X126597Y125605D01*
X127500Y125123D01*
X128481Y124825D01*
X129500Y124725D01*
X130519Y124825D01*
X131500Y125123D01*
X132403Y125605D01*
X133195Y126255D01*
X133845Y127047D01*
X134327Y127950D01*
X134625Y128931D01*
X134725Y129950D01*
X134625Y130969D01*
X134327Y131950D01*
X133845Y132853D01*
X133195Y133645D01*
X132403Y134295D01*
X131500Y134777D01*
X130519Y135075D01*
X129500Y135175D01*
X128481Y135075D01*
X127500Y134777D01*
X126597Y134295D01*
X125805Y133645D01*
X125715Y133535D01*
X124412Y133949D01*
X124368Y134285D01*
X124045Y135064D01*
X123532Y135732D01*
X123532Y135732D01*
X116916Y142349D01*
X116975Y142950D01*
X116875Y143969D01*
X116577Y144950D01*
X116095Y145853D01*
X115445Y146645D01*
X114653Y147295D01*
X113750Y147777D01*
X112769Y148075D01*
X111750Y148175D01*
X110731Y148075D01*
X110307Y147946D01*
X109634Y149069D01*
X121037Y160472D01*
X131173D01*
X131209Y160417D01*
D02*
G37*
G36*
X67522Y173999D02*
Y169700D01*
X67599Y169118D01*
X67002Y168194D01*
X66801Y167980D01*
X66651Y167915D01*
X65731Y167825D01*
X64750Y167527D01*
X63847Y167045D01*
X63055Y166395D01*
X62405Y165603D01*
X61923Y164700D01*
X61625Y163719D01*
X61525Y162700D01*
X61625Y161681D01*
X61923Y160700D01*
X62405Y159797D01*
X63055Y159005D01*
X63847Y158355D01*
X64750Y157873D01*
X65731Y157575D01*
X66750Y157475D01*
X67769Y157575D01*
X68750Y157873D01*
X69252Y158141D01*
X70296Y157668D01*
X70522Y157426D01*
Y144000D01*
X70632Y143165D01*
X70955Y142386D01*
X71468Y141718D01*
X75022Y138163D01*
Y135587D01*
X67718Y128282D01*
X67267Y127695D01*
X66542Y127578D01*
X65893Y127544D01*
X65478Y127943D01*
Y133045D01*
X66095Y133797D01*
X66577Y134700D01*
X66875Y135681D01*
X66975Y136700D01*
X66875Y137719D01*
X66577Y138700D01*
X66095Y139603D01*
X65686Y140100D01*
X65481Y140545D01*
X65775Y141766D01*
X65945Y141905D01*
X66595Y142697D01*
X67077Y143600D01*
X67375Y144581D01*
X67475Y145600D01*
X67375Y146619D01*
X67077Y147600D01*
X66595Y148503D01*
X65945Y149295D01*
X65153Y149945D01*
X64250Y150427D01*
X63269Y150725D01*
X62250Y150825D01*
X61231Y150725D01*
X60250Y150427D01*
X60248Y150426D01*
X58978Y151187D01*
Y167113D01*
X66349Y174485D01*
X67522Y173999D01*
D02*
G37*
G36*
X81968Y103168D02*
X86772Y98363D01*
Y91284D01*
X86750Y91277D01*
X85847Y90795D01*
X85055Y90145D01*
X84405Y89353D01*
X83923Y88450D01*
X83625Y87469D01*
X83525Y86450D01*
X83625Y85431D01*
X83923Y84450D01*
X84405Y83547D01*
X85055Y82755D01*
X85065Y82748D01*
X84610Y81478D01*
X68890D01*
X68435Y82748D01*
X68445Y82755D01*
X69095Y83547D01*
X69577Y84450D01*
X69875Y85431D01*
X69975Y86450D01*
X69912Y87087D01*
X70295Y87586D01*
X70618Y88365D01*
X70728Y89200D01*
X70728Y89200D01*
Y90979D01*
X71267Y91451D01*
X71998Y91798D01*
X72731Y91575D01*
X73750Y91475D01*
X74769Y91575D01*
X75750Y91873D01*
X76653Y92355D01*
X77445Y93005D01*
X78095Y93797D01*
X78577Y94700D01*
X78875Y95681D01*
X78975Y96700D01*
X78875Y97719D01*
X78577Y98700D01*
X78095Y99603D01*
X77445Y100395D01*
X77260Y100546D01*
X77768Y101772D01*
X78250Y101725D01*
X79269Y101825D01*
X80250Y102123D01*
X81153Y102605D01*
X81854Y103181D01*
X81968Y103168D01*
D02*
G37*
G36*
X118022Y132113D02*
Y100038D01*
X116752Y99512D01*
X113032Y103232D01*
X112364Y103745D01*
X111585Y104068D01*
X110750Y104178D01*
X98087D01*
X92228Y110037D01*
Y118926D01*
X93498Y119380D01*
X93805Y119005D01*
X94597Y118355D01*
X95500Y117873D01*
X96481Y117575D01*
X97500Y117475D01*
X98519Y117575D01*
X99500Y117873D01*
X100403Y118355D01*
X101195Y119005D01*
X101766Y119702D01*
X102414Y119797D01*
X102586D01*
X103234Y119702D01*
X103805Y119005D01*
X104597Y118355D01*
X105500Y117873D01*
X106481Y117575D01*
Y116325D01*
X105500Y116027D01*
X104597Y115545D01*
X103805Y114895D01*
X103155Y114103D01*
X102673Y113200D01*
X102375Y112219D01*
X102275Y111200D01*
X102375Y110181D01*
X102673Y109200D01*
X103155Y108297D01*
X103805Y107505D01*
X104597Y106855D01*
X105500Y106373D01*
X106481Y106075D01*
X107500Y105975D01*
X108519Y106075D01*
X109500Y106373D01*
X110403Y106855D01*
X111195Y107505D01*
X111845Y108297D01*
X112327Y109200D01*
X112625Y110181D01*
X112725Y111200D01*
X112625Y112219D01*
X112327Y113200D01*
X111845Y114103D01*
X111195Y114895D01*
X110403Y115545D01*
X109500Y116027D01*
X108519Y116325D01*
Y117575D01*
X109500Y117873D01*
X110403Y118355D01*
X111195Y119005D01*
X111845Y119797D01*
X112327Y120700D01*
X112625Y121681D01*
X112725Y122700D01*
X112625Y123719D01*
X112327Y124700D01*
X111845Y125603D01*
X111195Y126395D01*
X110403Y127045D01*
X109500Y127527D01*
X108519Y127825D01*
Y129075D01*
X109500Y129373D01*
X110403Y129855D01*
X111195Y130505D01*
X111845Y131297D01*
X112327Y132200D01*
X112625Y133181D01*
X112725Y134200D01*
X112625Y135219D01*
X112409Y135930D01*
X113309Y136613D01*
X113460Y136676D01*
X118022Y132113D01*
D02*
G37*
%LPC*%
G36*
X524500Y142275D02*
X523481Y142175D01*
X522500Y141877D01*
X521597Y141395D01*
X520805Y140745D01*
X520155Y139953D01*
X519673Y139050D01*
X519375Y138069D01*
X519275Y137050D01*
X519375Y136031D01*
X519673Y135050D01*
X520155Y134147D01*
X520805Y133355D01*
X521597Y132705D01*
X522500Y132223D01*
X523481Y131925D01*
X524500Y131825D01*
X525519Y131925D01*
X526500Y132223D01*
X527403Y132705D01*
X528195Y133355D01*
X528845Y134147D01*
X529327Y135050D01*
X529625Y136031D01*
X529725Y137050D01*
X529625Y138069D01*
X529327Y139050D01*
X528845Y139953D01*
X528195Y140745D01*
X527403Y141395D01*
X526500Y141877D01*
X525519Y142175D01*
X524500Y142275D01*
D02*
G37*
G36*
X508250Y205921D02*
X507199Y205838D01*
X506173Y205592D01*
X505199Y205188D01*
X504300Y204637D01*
X503498Y203952D01*
X502813Y203150D01*
X502262Y202251D01*
X501858Y201277D01*
X501612Y200251D01*
X501529Y199200D01*
X501612Y198149D01*
X501858Y197123D01*
X502262Y196149D01*
X502813Y195250D01*
X503498Y194448D01*
X504300Y193763D01*
X505199Y193212D01*
X506173Y192808D01*
X507199Y192562D01*
X508250Y192479D01*
X509301Y192562D01*
X510327Y192808D01*
X511301Y193212D01*
X512200Y193763D01*
X513002Y194448D01*
X513687Y195250D01*
X514238Y196149D01*
X514642Y197123D01*
X514888Y198149D01*
X514971Y199200D01*
X514888Y200251D01*
X514642Y201277D01*
X514238Y202251D01*
X513687Y203150D01*
X513002Y203952D01*
X512200Y204637D01*
X511301Y205188D01*
X510327Y205592D01*
X509301Y205838D01*
X508250Y205921D01*
D02*
G37*
G36*
X524500Y205775D02*
X523481Y205675D01*
X522500Y205377D01*
X521597Y204895D01*
X520805Y204245D01*
X520155Y203453D01*
X519673Y202550D01*
X519375Y201569D01*
X519275Y200550D01*
X519375Y199531D01*
X519673Y198550D01*
X520155Y197647D01*
X520805Y196855D01*
X521597Y196205D01*
X522500Y195723D01*
X523481Y195425D01*
X524500Y195325D01*
X525519Y195425D01*
X526500Y195723D01*
X527403Y196205D01*
X528195Y196855D01*
X528845Y197647D01*
X529327Y198550D01*
X529625Y199531D01*
X529725Y200550D01*
X529625Y201569D01*
X529327Y202550D01*
X528845Y203453D01*
X528195Y204245D01*
X527403Y204895D01*
X526500Y205377D01*
X525519Y205675D01*
X524500Y205775D01*
D02*
G37*
G36*
X457250Y155469D02*
X456277Y155393D01*
X455328Y155165D01*
X454427Y154791D01*
X453595Y154281D01*
X452852Y153648D01*
X452219Y152906D01*
X451709Y152073D01*
X451335Y151172D01*
X451107Y150223D01*
X451031Y149250D01*
X451107Y148277D01*
X451335Y147328D01*
X451709Y146427D01*
X452219Y145595D01*
X452852Y144852D01*
X453595Y144219D01*
X454427Y143709D01*
X455328Y143335D01*
X456277Y143107D01*
X457250Y143031D01*
X458223Y143107D01*
X459172Y143335D01*
X460074Y143709D01*
X460906Y144219D01*
X461648Y144852D01*
X462281Y145595D01*
X462791Y146427D01*
X463165Y147328D01*
X463393Y148277D01*
X463469Y149250D01*
X463393Y150223D01*
X463165Y151172D01*
X462791Y152073D01*
X462281Y152906D01*
X461648Y153648D01*
X460906Y154281D01*
X460074Y154791D01*
X459172Y155165D01*
X458223Y155393D01*
X457250Y155469D01*
D02*
G37*
G36*
X551500Y150421D02*
X550449Y150338D01*
X549423Y150092D01*
X548449Y149688D01*
X547550Y149137D01*
X546748Y148452D01*
X546063Y147650D01*
X545512Y146751D01*
X545108Y145777D01*
X544862Y144751D01*
X544779Y143700D01*
X544862Y142649D01*
X545108Y141623D01*
X545512Y140649D01*
X546063Y139750D01*
X546748Y138948D01*
X547550Y138263D01*
X548449Y137712D01*
X549423Y137308D01*
X550449Y137062D01*
X551500Y136979D01*
X552551Y137062D01*
X553577Y137308D01*
X554551Y137712D01*
X555450Y138263D01*
X556252Y138948D01*
X556937Y139750D01*
X557488Y140649D01*
X557892Y141623D01*
X558138Y142649D01*
X558221Y143700D01*
X558138Y144751D01*
X557892Y145777D01*
X557488Y146751D01*
X556937Y147650D01*
X556252Y148452D01*
X555450Y149137D01*
X554551Y149688D01*
X553577Y150092D01*
X552551Y150338D01*
X551500Y150421D01*
D02*
G37*
G36*
X539500Y142275D02*
X538481Y142175D01*
X537500Y141877D01*
X536597Y141395D01*
X535805Y140745D01*
X535155Y139953D01*
X534673Y139050D01*
X534375Y138069D01*
X534275Y137050D01*
X534375Y136031D01*
X534673Y135050D01*
X535155Y134147D01*
X535805Y133355D01*
X536597Y132705D01*
X537500Y132223D01*
X538481Y131925D01*
X539500Y131825D01*
X540519Y131925D01*
X541500Y132223D01*
X542403Y132705D01*
X543195Y133355D01*
X543845Y134147D01*
X544327Y135050D01*
X544625Y136031D01*
X544725Y137050D01*
X544625Y138069D01*
X544327Y139050D01*
X543845Y139953D01*
X543195Y140745D01*
X542403Y141395D01*
X541500Y141877D01*
X540519Y142175D01*
X539500Y142275D01*
D02*
G37*
G36*
X114750Y212175D02*
X113731Y212075D01*
X112750Y211777D01*
X111847Y211294D01*
X111055Y210645D01*
X110405Y209853D01*
X109923Y208950D01*
X109625Y207969D01*
X109525Y206950D01*
X109625Y205931D01*
X109923Y204950D01*
X110405Y204047D01*
X111055Y203255D01*
X111847Y202605D01*
X112750Y202123D01*
X113731Y201825D01*
X114750Y201725D01*
X115769Y201825D01*
X116750Y202123D01*
X117653Y202605D01*
X118445Y203255D01*
X119095Y204047D01*
X119577Y204950D01*
X119875Y205931D01*
X119975Y206950D01*
X119875Y207969D01*
X119577Y208950D01*
X119095Y209853D01*
X118445Y210645D01*
X117653Y211294D01*
X116750Y211777D01*
X115769Y212075D01*
X114750Y212175D01*
D02*
G37*
G36*
X466750Y139925D02*
X465731Y139825D01*
X464750Y139527D01*
X463847Y139045D01*
X463055Y138395D01*
X462405Y137603D01*
X461923Y136700D01*
X461625Y135719D01*
X461525Y134700D01*
X461625Y133681D01*
X461923Y132700D01*
X462405Y131797D01*
X463055Y131005D01*
X463847Y130355D01*
X464750Y129873D01*
X465731Y129575D01*
X466750Y129475D01*
X467769Y129575D01*
X468750Y129873D01*
X469653Y130355D01*
X470445Y131005D01*
X471095Y131797D01*
X471577Y132700D01*
X471875Y133681D01*
X471975Y134700D01*
X471875Y135719D01*
X471577Y136700D01*
X471095Y137603D01*
X470445Y138395D01*
X469653Y139045D01*
X468750Y139527D01*
X467769Y139825D01*
X466750Y139925D01*
D02*
G37*
G36*
X524500Y218475D02*
X523481Y218375D01*
X522500Y218077D01*
X521597Y217595D01*
X520805Y216945D01*
X520155Y216153D01*
X519673Y215250D01*
X519375Y214269D01*
X519275Y213250D01*
X519375Y212231D01*
X519673Y211250D01*
X520155Y210347D01*
X520805Y209555D01*
X521597Y208905D01*
X522500Y208423D01*
X523481Y208125D01*
X524500Y208025D01*
X525519Y208125D01*
X526500Y208423D01*
X527403Y208905D01*
X528195Y209555D01*
X528845Y210347D01*
X529327Y211250D01*
X529625Y212231D01*
X529725Y213250D01*
X529625Y214269D01*
X529327Y215250D01*
X528845Y216153D01*
X528195Y216945D01*
X527403Y217595D01*
X526500Y218077D01*
X525519Y218375D01*
X524500Y218475D01*
D02*
G37*
G36*
X539500D02*
X538481Y218375D01*
X537500Y218077D01*
X536597Y217595D01*
X535805Y216945D01*
X535155Y216153D01*
X534673Y215250D01*
X534375Y214269D01*
X534275Y213250D01*
X534375Y212231D01*
X534673Y211250D01*
X535155Y210347D01*
X535805Y209555D01*
X536597Y208905D01*
X537500Y208423D01*
X538481Y208125D01*
X539500Y208025D01*
X540519Y208125D01*
X541500Y208423D01*
X542403Y208905D01*
X543195Y209555D01*
X543845Y210347D01*
X544327Y211250D01*
X544625Y212231D01*
X544725Y213250D01*
X544625Y214269D01*
X544327Y215250D01*
X543845Y216153D01*
X543195Y216945D01*
X542403Y217595D01*
X541500Y218077D01*
X540519Y218375D01*
X539500Y218475D01*
D02*
G37*
G36*
X507000Y140175D02*
X505981Y140075D01*
X505000Y139777D01*
X504097Y139295D01*
X503305Y138645D01*
X502655Y137853D01*
X502173Y136950D01*
X501875Y135969D01*
X501775Y134950D01*
X501875Y133931D01*
X502173Y132950D01*
X502655Y132047D01*
X503305Y131255D01*
X504097Y130605D01*
X505000Y130123D01*
X505981Y129825D01*
X507000Y129725D01*
X508019Y129825D01*
X509000Y130123D01*
X509903Y130605D01*
X510695Y131255D01*
X511345Y132047D01*
X511827Y132950D01*
X512125Y133931D01*
X512225Y134950D01*
X512125Y135969D01*
X511827Y136950D01*
X511345Y137853D01*
X510695Y138645D01*
X509903Y139295D01*
X509000Y139777D01*
X508019Y140075D01*
X507000Y140175D01*
D02*
G37*
G36*
X337000Y140175D02*
X335981Y140075D01*
X335000Y139777D01*
X334097Y139295D01*
X333305Y138645D01*
X332655Y137853D01*
X332173Y136950D01*
X331875Y135969D01*
X331775Y134950D01*
X331875Y133931D01*
X332173Y132950D01*
X332655Y132047D01*
X333305Y131255D01*
X334097Y130605D01*
X335000Y130122D01*
X335981Y129825D01*
X337000Y129725D01*
X338019Y129825D01*
X339000Y130122D01*
X339903Y130605D01*
X340695Y131255D01*
X341345Y132047D01*
X341827Y132950D01*
X342125Y133931D01*
X342225Y134950D01*
X342125Y135969D01*
X341827Y136950D01*
X341345Y137853D01*
X340695Y138645D01*
X339903Y139295D01*
X339000Y139777D01*
X338019Y140075D01*
X337000Y140175D01*
D02*
G37*
G36*
X296000D02*
X294981Y140075D01*
X294000Y139777D01*
X293097Y139295D01*
X292305Y138645D01*
X291655Y137853D01*
X291173Y136950D01*
X290875Y135969D01*
X290775Y134950D01*
X290875Y133931D01*
X291173Y132950D01*
X291655Y132047D01*
X292305Y131255D01*
X293097Y130605D01*
X294000Y130122D01*
X294981Y129825D01*
X296000Y129725D01*
X297019Y129825D01*
X298000Y130122D01*
X298903Y130605D01*
X299695Y131255D01*
X300345Y132047D01*
X300827Y132950D01*
X301125Y133931D01*
X301225Y134950D01*
X301125Y135969D01*
X300827Y136950D01*
X300345Y137853D01*
X299695Y138645D01*
X298903Y139295D01*
X298000Y139777D01*
X297019Y140075D01*
X296000Y140175D01*
D02*
G37*
G36*
X539500Y180375D02*
X538481Y180275D01*
X537500Y179977D01*
X536597Y179495D01*
X535805Y178845D01*
X535155Y178053D01*
X534673Y177150D01*
X534375Y176169D01*
X534275Y175150D01*
X534375Y174131D01*
X534673Y173150D01*
X535155Y172247D01*
X535805Y171455D01*
X536597Y170805D01*
X537500Y170323D01*
X538481Y170025D01*
X539500Y169925D01*
X540519Y170025D01*
X541500Y170323D01*
X542403Y170805D01*
X543195Y171455D01*
X543845Y172247D01*
X544327Y173150D01*
X544625Y174131D01*
X544725Y175150D01*
X544625Y176169D01*
X544327Y177150D01*
X543845Y178053D01*
X543195Y178845D01*
X542403Y179495D01*
X541500Y179977D01*
X540519Y180275D01*
X539500Y180375D01*
D02*
G37*
G36*
X524500D02*
X523481Y180275D01*
X522500Y179977D01*
X521597Y179495D01*
X520805Y178845D01*
X520155Y178053D01*
X519673Y177150D01*
X519375Y176169D01*
X519275Y175150D01*
X519375Y174131D01*
X519673Y173150D01*
X520155Y172247D01*
X520805Y171455D01*
X521597Y170805D01*
X522500Y170323D01*
X523481Y170025D01*
X524500Y169925D01*
X525519Y170025D01*
X526500Y170323D01*
X527403Y170805D01*
X528195Y171455D01*
X528845Y172247D01*
X529327Y173150D01*
X529625Y174131D01*
X529725Y175150D01*
X529625Y176169D01*
X529327Y177150D01*
X528845Y178053D01*
X528195Y178845D01*
X527403Y179495D01*
X526500Y179977D01*
X525519Y180275D01*
X524500Y180375D01*
D02*
G37*
G36*
X475500Y181675D02*
X474481Y181575D01*
X473500Y181277D01*
X472597Y180795D01*
X471805Y180145D01*
X470195D01*
X469403Y180795D01*
X468500Y181277D01*
X467519Y181575D01*
X466500Y181675D01*
X465481Y181575D01*
X464500Y181277D01*
X463597Y180795D01*
X462805Y180145D01*
X462155Y179353D01*
X461673Y178450D01*
X461375Y177469D01*
X461275Y176450D01*
X461375Y175431D01*
X461673Y174450D01*
X462155Y173547D01*
X462805Y172755D01*
X463597Y172105D01*
X464500Y171623D01*
X465481Y171325D01*
X466500Y171225D01*
X467519Y171325D01*
X468500Y171623D01*
X469403Y172105D01*
X470195Y172755D01*
X471805D01*
X472597Y172105D01*
X473500Y171623D01*
X474481Y171325D01*
X475500Y171225D01*
X476519Y171325D01*
X477500Y171623D01*
X478403Y172105D01*
X479195Y172755D01*
X479845Y173547D01*
X480327Y174450D01*
X480625Y175431D01*
X480725Y176450D01*
X480625Y177469D01*
X480327Y178450D01*
X479845Y179353D01*
X479195Y180145D01*
X478403Y180795D01*
X477500Y181277D01*
X476519Y181575D01*
X475500Y181675D01*
D02*
G37*
G36*
X284000Y200469D02*
X283027Y200393D01*
X282078Y200165D01*
X281177Y199791D01*
X280344Y199281D01*
X279602Y198648D01*
X278969Y197906D01*
X278459Y197073D01*
X278085Y196172D01*
X277857Y195223D01*
X277781Y194250D01*
X277857Y193277D01*
X278085Y192328D01*
X278459Y191427D01*
X278969Y190595D01*
X279136Y190399D01*
X279154Y189798D01*
X278942Y188972D01*
X278839Y188834D01*
X278344Y188531D01*
X277602Y187898D01*
X276969Y187155D01*
X276459Y186323D01*
X276085Y185422D01*
X275857Y184473D01*
X275781Y183500D01*
X275857Y182527D01*
X276085Y181578D01*
X276459Y180676D01*
X276969Y179844D01*
X277602Y179102D01*
X278344Y178469D01*
X279177Y177959D01*
X280078Y177585D01*
X281027Y177357D01*
X282000Y177281D01*
X282973Y177357D01*
X283922Y177585D01*
X284823Y177959D01*
X285655Y178469D01*
X286398Y179102D01*
X287031Y179844D01*
X287541Y180676D01*
X287915Y181578D01*
X288143Y182527D01*
X288219Y183500D01*
X288143Y184473D01*
X287915Y185422D01*
X287541Y186323D01*
X287031Y187155D01*
X286864Y187351D01*
X286846Y187952D01*
X287058Y188778D01*
X287161Y188916D01*
X287656Y189219D01*
X288398Y189852D01*
X289031Y190595D01*
X289541Y191427D01*
X289915Y192328D01*
X290143Y193277D01*
X290219Y194250D01*
X290143Y195223D01*
X289915Y196172D01*
X289541Y197073D01*
X289031Y197906D01*
X288398Y198648D01*
X287656Y199281D01*
X286823Y199791D01*
X285922Y200165D01*
X284973Y200393D01*
X284000Y200469D01*
D02*
G37*
G36*
X507750Y181675D02*
X506731Y181575D01*
X505750Y181277D01*
X504847Y180795D01*
X504055Y180145D01*
X503635Y179633D01*
X503023Y179500D01*
X502727D01*
X502115Y179633D01*
X501695Y180145D01*
X500903Y180795D01*
X500000Y181277D01*
X499019Y181575D01*
X498000Y181675D01*
X496981Y181575D01*
X496000Y181277D01*
X495097Y180795D01*
X494305Y180145D01*
X493655Y179353D01*
X493173Y178450D01*
X492875Y177469D01*
X492775Y176450D01*
X492875Y175431D01*
X493173Y174450D01*
X493655Y173547D01*
X494305Y172755D01*
X495097Y172105D01*
X496000Y171623D01*
X496981Y171325D01*
X498000Y171225D01*
X499019Y171325D01*
X500000Y171623D01*
X500903Y172105D01*
X501695Y172755D01*
X502115Y173267D01*
X502727Y173400D01*
X503023D01*
X503635Y173267D01*
X504055Y172755D01*
X504847Y172105D01*
X505750Y171623D01*
X506731Y171325D01*
X507750Y171225D01*
X508769Y171325D01*
X509750Y171623D01*
X510653Y172105D01*
X511445Y172755D01*
X512095Y173547D01*
X512577Y174450D01*
X512875Y175431D01*
X512975Y176450D01*
X512875Y177469D01*
X512577Y178450D01*
X512095Y179353D01*
X511445Y180145D01*
X510653Y180795D01*
X509750Y181277D01*
X508769Y181575D01*
X507750Y181675D01*
D02*
G37*
G36*
X112500Y181175D02*
X111481Y181075D01*
X110500Y180777D01*
X109597Y180295D01*
X108805Y179645D01*
X108155Y178853D01*
X107673Y177950D01*
X107375Y176969D01*
X107275Y175950D01*
X107375Y174931D01*
X107673Y173950D01*
X108155Y173047D01*
X108805Y172255D01*
X109597Y171605D01*
X110500Y171123D01*
X111481Y170825D01*
X112500Y170725D01*
X113519Y170825D01*
X114500Y171123D01*
X115403Y171605D01*
X116195Y172255D01*
X116845Y173047D01*
X117327Y173950D01*
X117625Y174931D01*
X117725Y175950D01*
X117625Y176969D01*
X117327Y177950D01*
X116845Y178853D01*
X116195Y179645D01*
X115403Y180295D01*
X114500Y180777D01*
X113519Y181075D01*
X112500Y181175D01*
D02*
G37*
G36*
X551250Y175421D02*
X550199Y175338D01*
X549173Y175092D01*
X548199Y174688D01*
X547300Y174137D01*
X546498Y173452D01*
X545813Y172650D01*
X545262Y171751D01*
X544858Y170777D01*
X544612Y169751D01*
X544529Y168700D01*
X544612Y167649D01*
X544858Y166623D01*
X545262Y165649D01*
X545813Y164750D01*
X546498Y163948D01*
X547300Y163263D01*
X548199Y162712D01*
X549173Y162308D01*
X550199Y162062D01*
X551250Y161979D01*
X552301Y162062D01*
X553327Y162308D01*
X554301Y162712D01*
X555200Y163263D01*
X556002Y163948D01*
X556687Y164750D01*
X557238Y165649D01*
X557642Y166623D01*
X557888Y167649D01*
X557971Y168700D01*
X557888Y169751D01*
X557642Y170777D01*
X557238Y171751D01*
X556687Y172650D01*
X556002Y173452D01*
X555200Y174137D01*
X554301Y174688D01*
X553327Y175092D01*
X552301Y175338D01*
X551250Y175421D01*
D02*
G37*
G36*
X539500Y205775D02*
X538481Y205675D01*
X537500Y205377D01*
X536597Y204895D01*
X535805Y204245D01*
X535155Y203453D01*
X534673Y202550D01*
X534375Y201569D01*
X534275Y200550D01*
X534375Y199531D01*
X534673Y198550D01*
X535155Y197647D01*
X535805Y196855D01*
X536597Y196205D01*
X537500Y195723D01*
X538481Y195425D01*
X539500Y195325D01*
X540519Y195425D01*
X541500Y195723D01*
X542403Y196205D01*
X543195Y196855D01*
X543700Y197471D01*
X543845Y197647D01*
X544909Y197003D01*
X544844Y196847D01*
X544608Y196277D01*
X544362Y195251D01*
X544279Y194200D01*
X544362Y193149D01*
X544608Y192123D01*
X544844Y191553D01*
X544909Y191397D01*
X543845Y190753D01*
X543700Y190929D01*
X543195Y191545D01*
X542403Y192195D01*
X541500Y192677D01*
X540519Y192975D01*
X539500Y193075D01*
X538481Y192975D01*
X537500Y192677D01*
X536597Y192195D01*
X535805Y191545D01*
X535155Y190753D01*
X534673Y189850D01*
X534375Y188869D01*
X534275Y187850D01*
X534375Y186831D01*
X534673Y185850D01*
X535155Y184947D01*
X535805Y184155D01*
X536597Y183505D01*
X537500Y183023D01*
X538481Y182725D01*
X539500Y182625D01*
X540519Y182725D01*
X541500Y183023D01*
X542403Y183505D01*
X543195Y184155D01*
X543845Y184947D01*
X544327Y185850D01*
X544625Y186831D01*
X544725Y187850D01*
X544625Y188869D01*
X544388Y189649D01*
X544328Y189850D01*
X545449Y190436D01*
X545563Y190250D01*
X546248Y189448D01*
X547050Y188763D01*
X547949Y188212D01*
X548923Y187808D01*
X549949Y187562D01*
X551000Y187479D01*
X552051Y187562D01*
X553077Y187808D01*
X554051Y188212D01*
X554950Y188763D01*
X555752Y189448D01*
X556437Y190250D01*
X556988Y191149D01*
X557392Y192123D01*
X557638Y193149D01*
X557721Y194200D01*
X557638Y195251D01*
X557392Y196277D01*
X556988Y197251D01*
X556437Y198150D01*
X555752Y198952D01*
X554950Y199637D01*
X554051Y200188D01*
X553077Y200592D01*
X552051Y200838D01*
X551000Y200921D01*
X549949Y200838D01*
X548923Y200592D01*
X547949Y200188D01*
X547050Y199637D01*
X546248Y198952D01*
X545563Y198150D01*
X545449Y197964D01*
X544328Y198550D01*
X544388Y198751D01*
X544625Y199531D01*
X544725Y200550D01*
X544625Y201569D01*
X544327Y202550D01*
X543845Y203453D01*
X543195Y204245D01*
X542403Y204895D01*
X541500Y205377D01*
X540519Y205675D01*
X539500Y205775D01*
D02*
G37*
G36*
Y154975D02*
X538481Y154875D01*
X537500Y154577D01*
X536597Y154095D01*
X535805Y153445D01*
X535155Y152653D01*
X534673Y151750D01*
X534375Y150769D01*
X534275Y149750D01*
X534375Y148731D01*
X534673Y147750D01*
X535155Y146847D01*
X535805Y146055D01*
X536597Y145405D01*
X537500Y144923D01*
X538481Y144625D01*
X539500Y144525D01*
X540519Y144625D01*
X541500Y144923D01*
X542403Y145405D01*
X543195Y146055D01*
X543845Y146847D01*
X544327Y147750D01*
X544625Y148731D01*
X544725Y149750D01*
X544625Y150769D01*
X544327Y151750D01*
X543845Y152653D01*
X543195Y153445D01*
X542403Y154095D01*
X541500Y154577D01*
X540519Y154875D01*
X539500Y154975D01*
D02*
G37*
G36*
X524500D02*
X523481Y154875D01*
X522500Y154577D01*
X521597Y154095D01*
X520805Y153445D01*
X520155Y152653D01*
X519673Y151750D01*
X519375Y150769D01*
X519275Y149750D01*
X519375Y148731D01*
X519673Y147750D01*
X520155Y146847D01*
X520805Y146055D01*
X521597Y145405D01*
X522500Y144923D01*
X523481Y144625D01*
X524500Y144525D01*
X525519Y144625D01*
X526500Y144923D01*
X527403Y145405D01*
X528195Y146055D01*
X528845Y146847D01*
X529327Y147750D01*
X529625Y148731D01*
X529725Y149750D01*
X529625Y150769D01*
X529327Y151750D01*
X528845Y152653D01*
X528195Y153445D01*
X527403Y154095D01*
X526500Y154577D01*
X525519Y154875D01*
X524500Y154975D01*
D02*
G37*
G36*
X539500Y167675D02*
X538481Y167575D01*
X537500Y167277D01*
X536597Y166795D01*
X535805Y166145D01*
X535155Y165353D01*
X534673Y164450D01*
X534375Y163469D01*
X534275Y162450D01*
X534375Y161431D01*
X534673Y160450D01*
X535155Y159547D01*
X535805Y158755D01*
X536597Y158105D01*
X537500Y157623D01*
X538481Y157325D01*
X539500Y157225D01*
X540519Y157325D01*
X541500Y157623D01*
X542403Y158105D01*
X543195Y158755D01*
X543845Y159547D01*
X544327Y160450D01*
X544625Y161431D01*
X544725Y162450D01*
X544625Y163469D01*
X544327Y164450D01*
X543845Y165353D01*
X543195Y166145D01*
X542403Y166795D01*
X541500Y167277D01*
X540519Y167575D01*
X539500Y167675D01*
D02*
G37*
G36*
X524500Y193075D02*
X523481Y192975D01*
X522500Y192677D01*
X521597Y192195D01*
X520805Y191545D01*
X520155Y190753D01*
X519673Y189850D01*
X519375Y188869D01*
X519275Y187850D01*
X519375Y186831D01*
X519673Y185850D01*
X520155Y184947D01*
X520805Y184155D01*
X521597Y183505D01*
X522500Y183023D01*
X523481Y182725D01*
X524500Y182625D01*
X525519Y182725D01*
X526500Y183023D01*
X527403Y183505D01*
X528195Y184155D01*
X528845Y184947D01*
X529327Y185850D01*
X529625Y186831D01*
X529725Y187850D01*
X529625Y188869D01*
X529327Y189850D01*
X528845Y190753D01*
X528195Y191545D01*
X527403Y192195D01*
X526500Y192677D01*
X525519Y192975D01*
X524500Y193075D01*
D02*
G37*
G36*
Y167675D02*
X523481Y167575D01*
X522500Y167277D01*
X521597Y166795D01*
X520805Y166145D01*
X520155Y165353D01*
X519673Y164450D01*
X519375Y163469D01*
X519275Y162450D01*
X519375Y161431D01*
X519673Y160450D01*
X520155Y159547D01*
X520805Y158755D01*
X521597Y158105D01*
X522500Y157623D01*
X523481Y157325D01*
X524500Y157225D01*
X525519Y157325D01*
X526500Y157623D01*
X527403Y158105D01*
X528195Y158755D01*
X528845Y159547D01*
X529327Y160450D01*
X529625Y161431D01*
X529725Y162450D01*
X529625Y163469D01*
X529327Y164450D01*
X528845Y165353D01*
X528195Y166145D01*
X527403Y166795D01*
X526500Y167277D01*
X525519Y167575D01*
X524500Y167675D01*
D02*
G37*
G36*
X165750Y42175D02*
X164731Y42075D01*
X163750Y41777D01*
X162847Y41295D01*
X162055Y40645D01*
X161405Y39853D01*
X160923Y38950D01*
X160625Y37969D01*
X160525Y36950D01*
X160625Y35931D01*
X160923Y34950D01*
X161405Y34047D01*
X162055Y33255D01*
X162847Y32605D01*
X163750Y32123D01*
X164731Y31825D01*
X165750Y31725D01*
X166769Y31825D01*
X167750Y32123D01*
X168653Y32605D01*
X169445Y33255D01*
X170095Y34047D01*
X170577Y34950D01*
X170875Y35931D01*
X170975Y36950D01*
X170875Y37969D01*
X170577Y38950D01*
X170095Y39853D01*
X169445Y40645D01*
X168653Y41295D01*
X167750Y41777D01*
X166769Y42075D01*
X165750Y42175D01*
D02*
G37*
G36*
X99500Y37675D02*
X98481Y37575D01*
X97500Y37277D01*
X96597Y36795D01*
X95805Y36145D01*
X95155Y35353D01*
X94673Y34450D01*
X94375Y33469D01*
X94275Y32450D01*
X94375Y31431D01*
X94673Y30450D01*
X95155Y29547D01*
X95805Y28755D01*
X96597Y28105D01*
X97500Y27623D01*
X98481Y27325D01*
X99500Y27225D01*
X100519Y27325D01*
X101500Y27623D01*
X102403Y28105D01*
X103195Y28755D01*
X103845Y29547D01*
X104327Y30450D01*
X104625Y31431D01*
X104725Y32450D01*
X104625Y33469D01*
X104327Y34450D01*
X103845Y35353D01*
X103195Y36145D01*
X102403Y36795D01*
X101500Y37277D01*
X100519Y37575D01*
X99500Y37675D01*
D02*
G37*
G36*
X475000Y47425D02*
X473981Y47325D01*
X473000Y47027D01*
X472097Y46545D01*
X471305Y45895D01*
X470655Y45103D01*
X470173Y44200D01*
X469875Y43219D01*
X469775Y42200D01*
X469875Y41181D01*
X470173Y40200D01*
X470655Y39297D01*
X471305Y38505D01*
X472002Y37934D01*
X472097Y37286D01*
Y37114D01*
X472002Y36466D01*
X471305Y35895D01*
X470655Y35103D01*
X470173Y34200D01*
X469875Y33219D01*
X469775Y32200D01*
X469875Y31181D01*
X470173Y30200D01*
X470655Y29297D01*
X471305Y28505D01*
X472097Y27855D01*
X473000Y27373D01*
X473981Y27075D01*
X475000Y26975D01*
X476019Y27075D01*
X477000Y27373D01*
X477903Y27855D01*
X478695Y28505D01*
X479345Y29297D01*
X479827Y30200D01*
X480125Y31181D01*
X480225Y32200D01*
X480125Y33219D01*
X479827Y34200D01*
X479345Y35103D01*
X478695Y35895D01*
X477998Y36466D01*
X477903Y37114D01*
Y37286D01*
X477998Y37934D01*
X478695Y38505D01*
X479345Y39297D01*
X479827Y40200D01*
X480125Y41181D01*
X480225Y42200D01*
X480125Y43219D01*
X479827Y44200D01*
X479345Y45103D01*
X478695Y45895D01*
X477903Y46545D01*
X477000Y47027D01*
X476019Y47325D01*
X475000Y47425D01*
D02*
G37*
G36*
X363000Y51425D02*
X361981Y51325D01*
X361000Y51027D01*
X360097Y50545D01*
X359305Y49895D01*
X358655Y49103D01*
X358173Y48200D01*
X357875Y47219D01*
X357775Y46200D01*
X357875Y45181D01*
X358173Y44200D01*
X358655Y43297D01*
X359305Y42505D01*
X360097Y41855D01*
X361000Y41373D01*
X361981Y41075D01*
X363000Y40975D01*
X364019Y41075D01*
X365000Y41373D01*
X365903Y41855D01*
X366695Y42505D01*
X367345Y43297D01*
X367827Y44200D01*
X368125Y45181D01*
X368225Y46200D01*
X368125Y47219D01*
X367827Y48200D01*
X367345Y49103D01*
X366695Y49895D01*
X365903Y50545D01*
X365000Y51027D01*
X364019Y51325D01*
X363000Y51425D01*
D02*
G37*
G36*
X442250D02*
X441231Y51325D01*
X440250Y51027D01*
X439347Y50545D01*
X438555Y49895D01*
X437905Y49103D01*
X437423Y48200D01*
X437289Y47758D01*
X435961D01*
X435827Y48200D01*
X435345Y49103D01*
X434695Y49895D01*
X433903Y50545D01*
X433000Y51027D01*
X432019Y51325D01*
X431000Y51425D01*
X429981Y51325D01*
X429000Y51027D01*
X428097Y50545D01*
X427305Y49895D01*
X426655Y49103D01*
X426173Y48200D01*
X425875Y47219D01*
X425775Y46200D01*
X425875Y45181D01*
X426173Y44200D01*
X426655Y43297D01*
X427305Y42505D01*
X428097Y41855D01*
X429000Y41373D01*
X429981Y41075D01*
X431000Y40975D01*
X432019Y41075D01*
X433000Y41373D01*
X433903Y41855D01*
X434695Y42505D01*
X435345Y43297D01*
X435827Y44200D01*
X435961Y44642D01*
X437289D01*
X437423Y44200D01*
X437905Y43297D01*
X438555Y42505D01*
X439347Y41855D01*
X440250Y41373D01*
X441231Y41075D01*
X442250Y40975D01*
X443269Y41075D01*
X444250Y41373D01*
X445153Y41855D01*
X445945Y42505D01*
X446595Y43297D01*
X447077Y44200D01*
X447375Y45181D01*
X447475Y46200D01*
X447375Y47219D01*
X447077Y48200D01*
X446595Y49103D01*
X445945Y49895D01*
X445153Y50545D01*
X444250Y51027D01*
X443269Y51325D01*
X442250Y51425D01*
D02*
G37*
G36*
X328000Y48925D02*
X326981Y48825D01*
X326000Y48527D01*
X325097Y48045D01*
X324305Y47395D01*
X323655Y46603D01*
X323321Y45977D01*
X322672Y45832D01*
X322578D01*
X321929Y45977D01*
X321595Y46603D01*
X320945Y47395D01*
X320153Y48045D01*
X319250Y48527D01*
X318269Y48825D01*
X317250Y48925D01*
X316231Y48825D01*
X315250Y48527D01*
X314347Y48045D01*
X313555Y47395D01*
X312905Y46603D01*
X312571Y45977D01*
X311922Y45832D01*
X311828D01*
X311179Y45977D01*
X310845Y46603D01*
X310195Y47395D01*
X309403Y48045D01*
X308500Y48527D01*
X307519Y48825D01*
X306500Y48925D01*
X305481Y48825D01*
X304500Y48527D01*
X303597Y48045D01*
X302805Y47395D01*
X302155Y46603D01*
X301673Y45700D01*
X301375Y44719D01*
X301275Y43700D01*
X301375Y42681D01*
X301673Y41700D01*
X302155Y40797D01*
X302805Y40005D01*
X303597Y39355D01*
X304500Y38873D01*
X305481Y38575D01*
X306500Y38475D01*
X307519Y38575D01*
X308500Y38873D01*
X309403Y39355D01*
X310195Y40005D01*
X310845Y40797D01*
X311179Y41424D01*
X311828Y41568D01*
X311922D01*
X312571Y41424D01*
X312905Y40797D01*
X313555Y40005D01*
X314252Y39434D01*
X314347Y38786D01*
Y38614D01*
X314252Y37966D01*
X313555Y37395D01*
X312905Y36603D01*
X312423Y35700D01*
X312125Y34719D01*
X312025Y33700D01*
X312125Y32681D01*
X312423Y31700D01*
X312905Y30797D01*
X313555Y30005D01*
X314347Y29355D01*
X315250Y28873D01*
X316231Y28575D01*
X317250Y28475D01*
X318269Y28575D01*
X319250Y28873D01*
X320153Y29355D01*
X320945Y30005D01*
X321595Y30797D01*
X321929Y31424D01*
X322578Y31568D01*
X322672D01*
X323321Y31424D01*
X323655Y30797D01*
X324305Y30005D01*
X325097Y29355D01*
X326000Y28873D01*
X326981Y28575D01*
X328000Y28475D01*
X329019Y28575D01*
X330000Y28873D01*
X330903Y29355D01*
X331695Y30005D01*
X332345Y30797D01*
X332827Y31700D01*
X333125Y32681D01*
X333225Y33700D01*
X333125Y34719D01*
X332827Y35700D01*
X332345Y36603D01*
X331695Y37395D01*
X330998Y37966D01*
X330903Y38614D01*
Y38786D01*
X330998Y39434D01*
X331695Y40005D01*
X332345Y40797D01*
X332827Y41700D01*
X333125Y42681D01*
X333225Y43700D01*
X333125Y44719D01*
X332827Y45700D01*
X332345Y46603D01*
X331695Y47395D01*
X330903Y48045D01*
X330000Y48527D01*
X329019Y48825D01*
X328000Y48925D01*
D02*
G37*
G36*
X376500Y51425D02*
X375481Y51325D01*
X374500Y51027D01*
X373597Y50545D01*
X372805Y49895D01*
X372155Y49103D01*
X371673Y48200D01*
X371375Y47219D01*
X371275Y46200D01*
X371375Y45181D01*
X371673Y44200D01*
X372155Y43297D01*
X372805Y42505D01*
X373597Y41855D01*
X374500Y41373D01*
X375481Y41075D01*
X376500Y40975D01*
X377519Y41075D01*
X378500Y41373D01*
X379403Y41855D01*
X380195Y42505D01*
X380845Y43297D01*
X381327Y44200D01*
X381625Y45181D01*
X381725Y46200D01*
X381625Y47219D01*
X381327Y48200D01*
X380845Y49103D01*
X380195Y49895D01*
X379403Y50545D01*
X378500Y51027D01*
X377519Y51325D01*
X376500Y51425D01*
D02*
G37*
G36*
X232197Y35925D02*
X231178Y35825D01*
X230198Y35527D01*
X229294Y35045D01*
X228502Y34395D01*
X227852Y33603D01*
X227370Y32700D01*
X227072Y31719D01*
X226972Y30700D01*
X227072Y29681D01*
X227370Y28700D01*
X227852Y27797D01*
X228502Y27005D01*
X229294Y26355D01*
X230198Y25873D01*
X231178Y25575D01*
X232197Y25475D01*
X233216Y25575D01*
X234197Y25873D01*
X235100Y26355D01*
X235892Y27005D01*
X236542Y27797D01*
X237024Y28700D01*
X237322Y29681D01*
X237422Y30700D01*
X237322Y31719D01*
X237024Y32700D01*
X236542Y33603D01*
X235892Y34395D01*
X235100Y35045D01*
X234197Y35527D01*
X233216Y35825D01*
X232197Y35925D01*
D02*
G37*
G36*
X161750Y26469D02*
X160777Y26393D01*
X159828Y26165D01*
X158927Y25791D01*
X158095Y25281D01*
X157352Y24648D01*
X156719Y23905D01*
X156209Y23073D01*
X155835Y22172D01*
X155607Y21223D01*
X155531Y20250D01*
X155607Y19277D01*
X155835Y18328D01*
X156209Y17427D01*
X156719Y16595D01*
X157352Y15852D01*
X158095Y15219D01*
X158927Y14709D01*
X159828Y14335D01*
X160777Y14107D01*
X161750Y14031D01*
X162723Y14107D01*
X163672Y14335D01*
X164573Y14709D01*
X165406Y15219D01*
X166148Y15852D01*
X166781Y16595D01*
X167291Y17427D01*
X167665Y18328D01*
X167893Y19277D01*
X167969Y20250D01*
X167893Y21223D01*
X167665Y22172D01*
X167291Y23073D01*
X166781Y23905D01*
X166148Y24648D01*
X165406Y25281D01*
X164573Y25791D01*
X163672Y26165D01*
X162723Y26393D01*
X161750Y26469D01*
D02*
G37*
G36*
X540500Y33419D02*
X539527Y33343D01*
X538578Y33115D01*
X537677Y32741D01*
X536844Y32231D01*
X536102Y31598D01*
X535469Y30856D01*
X534959Y30023D01*
X534585Y29122D01*
X534357Y28173D01*
X534281Y27200D01*
X534357Y26227D01*
X534349Y26132D01*
X533408Y24903D01*
X533277Y24893D01*
X532328Y24665D01*
X531427Y24291D01*
X530594Y23781D01*
X529852Y23148D01*
X529219Y22406D01*
X528709Y21573D01*
X528335Y20672D01*
X528107Y19723D01*
X528031Y18750D01*
X528107Y17777D01*
X528335Y16828D01*
X528709Y15927D01*
X529219Y15094D01*
X529852Y14352D01*
X530594Y13719D01*
X531427Y13209D01*
X532328Y12835D01*
X533277Y12607D01*
X534250Y12531D01*
X535223Y12607D01*
X536172Y12835D01*
X537073Y13209D01*
X537906Y13719D01*
X538648Y14352D01*
X539281Y15094D01*
X539791Y15927D01*
X540165Y16828D01*
X540393Y17777D01*
X540469Y18750D01*
X540393Y19723D01*
X540401Y19818D01*
X541343Y21047D01*
X541473Y21057D01*
X542422Y21285D01*
X543323Y21659D01*
X544156Y22169D01*
X544898Y22802D01*
X545531Y23544D01*
X546041Y24377D01*
X546415Y25278D01*
X546643Y26227D01*
X546719Y27200D01*
X546643Y28173D01*
X546415Y29122D01*
X546041Y30023D01*
X545531Y30856D01*
X544898Y31598D01*
X544156Y32231D01*
X543323Y32741D01*
X542422Y33115D01*
X541473Y33343D01*
X540500Y33419D01*
D02*
G37*
G36*
X520250Y24969D02*
X519277Y24893D01*
X518328Y24665D01*
X517427Y24291D01*
X516595Y23781D01*
X515852Y23148D01*
X515219Y22406D01*
X514709Y21573D01*
X514335Y20672D01*
X514107Y19723D01*
X514031Y18750D01*
X514107Y17777D01*
X514335Y16828D01*
X514709Y15927D01*
X515219Y15094D01*
X515852Y14352D01*
X516595Y13719D01*
X517427Y13209D01*
X518328Y12835D01*
X519277Y12607D01*
X520250Y12531D01*
X521223Y12607D01*
X522172Y12835D01*
X523074Y13209D01*
X523906Y13719D01*
X524648Y14352D01*
X525281Y15094D01*
X525791Y15927D01*
X526165Y16828D01*
X526393Y17777D01*
X526469Y18750D01*
X526393Y19723D01*
X526165Y20672D01*
X525791Y21573D01*
X525281Y22406D01*
X524648Y23148D01*
X523906Y23781D01*
X523074Y24291D01*
X522172Y24665D01*
X521223Y24893D01*
X520250Y24969D01*
D02*
G37*
G36*
X460750Y30719D02*
X459777Y30643D01*
X458828Y30415D01*
X457927Y30041D01*
X457094Y29531D01*
X456352Y28898D01*
X455719Y28156D01*
X455209Y27323D01*
X454835Y26422D01*
X454607Y25473D01*
X454531Y24500D01*
X454607Y23527D01*
X454835Y22578D01*
X455209Y21677D01*
X455719Y20845D01*
X456352Y20102D01*
X457094Y19469D01*
X457927Y18959D01*
X458828Y18585D01*
X459777Y18357D01*
X460750Y18281D01*
X461723Y18357D01*
X462672Y18585D01*
X463573Y18959D01*
X464406Y19469D01*
X465148Y20102D01*
X465781Y20845D01*
X466291Y21677D01*
X466665Y22578D01*
X466893Y23527D01*
X466969Y24500D01*
X466893Y25473D01*
X466665Y26422D01*
X466291Y27323D01*
X465781Y28156D01*
X465148Y28898D01*
X464406Y29531D01*
X463573Y30041D01*
X462672Y30415D01*
X461723Y30643D01*
X460750Y30719D01*
D02*
G37*
G36*
X80500Y33675D02*
X79481Y33575D01*
X78500Y33277D01*
X77597Y32794D01*
X76805Y32145D01*
X76155Y31353D01*
X75673Y30450D01*
X75375Y29469D01*
X75275Y28450D01*
X75375Y27431D01*
X75673Y26450D01*
X76155Y25547D01*
X76805Y24755D01*
X77597Y24105D01*
X78500Y23623D01*
X79481Y23325D01*
X80500Y23225D01*
X81519Y23325D01*
X82500Y23623D01*
X83403Y24105D01*
X84195Y24755D01*
X84845Y25547D01*
X85327Y26450D01*
X85625Y27431D01*
X85725Y28450D01*
X85625Y29469D01*
X85327Y30450D01*
X84845Y31353D01*
X84195Y32145D01*
X83403Y32794D01*
X82500Y33277D01*
X81519Y33575D01*
X80500Y33675D01*
D02*
G37*
G36*
X115750Y32975D02*
X114731Y32875D01*
X113750Y32577D01*
X112847Y32095D01*
X112055Y31445D01*
X111405Y30653D01*
X110923Y29750D01*
X110625Y28769D01*
X110525Y27750D01*
X110625Y26731D01*
X110923Y25750D01*
X111405Y24847D01*
X112055Y24055D01*
X112847Y23405D01*
X113750Y22923D01*
X114731Y22625D01*
X115750Y22525D01*
X116769Y22625D01*
X117750Y22923D01*
X118653Y23405D01*
X119445Y24055D01*
X120095Y24847D01*
X120577Y25750D01*
X120875Y26731D01*
X120975Y27750D01*
X120875Y28769D01*
X120577Y29750D01*
X120095Y30653D01*
X119445Y31445D01*
X118653Y32095D01*
X117750Y32577D01*
X116769Y32875D01*
X115750Y32975D01*
D02*
G37*
G36*
X569900Y53575D02*
X568139Y53476D01*
X566401Y53180D01*
X564706Y52692D01*
X563077Y52017D01*
X561534Y51164D01*
X560096Y50144D01*
X558781Y48969D01*
X557606Y47654D01*
X556586Y46216D01*
X555732Y44673D01*
X555058Y43043D01*
X554570Y41349D01*
X554274Y39611D01*
X554175Y37850D01*
X554274Y36089D01*
X554570Y34351D01*
X555058Y32656D01*
X555732Y31027D01*
X556586Y29484D01*
X557606Y28046D01*
X558781Y26731D01*
X560096Y25556D01*
X561534Y24536D01*
X563077Y23682D01*
X564706Y23008D01*
X566401Y22520D01*
X568139Y22224D01*
X569900Y22125D01*
X571661Y22224D01*
X573399Y22520D01*
X575093Y23008D01*
X576723Y23682D01*
X578266Y24536D01*
X579704Y25556D01*
X581019Y26731D01*
X582194Y28046D01*
X583214Y29484D01*
X584067Y31027D01*
X584742Y32656D01*
X585230Y34351D01*
X585526Y36089D01*
X585625Y37850D01*
X585526Y39611D01*
X585230Y41349D01*
X584742Y43043D01*
X584067Y44673D01*
X583214Y46216D01*
X582194Y47654D01*
X581019Y48969D01*
X579704Y50144D01*
X578266Y51164D01*
X576723Y52017D01*
X575093Y52692D01*
X573399Y53180D01*
X571661Y53476D01*
X569900Y53575D01*
D02*
G37*
G36*
X204750Y111425D02*
X203731Y111325D01*
X202750Y111027D01*
X201847Y110545D01*
X201055Y109895D01*
X200405Y109103D01*
X199923Y108200D01*
X199625Y107219D01*
X199525Y106200D01*
X199625Y105181D01*
X199923Y104200D01*
X200405Y103297D01*
X201055Y102505D01*
X201847Y101855D01*
X202750Y101373D01*
X203731Y101075D01*
X204750Y100975D01*
X205769Y101075D01*
X206750Y101373D01*
X207653Y101855D01*
X208445Y102505D01*
X209095Y103297D01*
X209577Y104200D01*
X209875Y105181D01*
X209975Y106200D01*
X209875Y107219D01*
X209577Y108200D01*
X209095Y109103D01*
X208445Y109895D01*
X207653Y110545D01*
X206750Y111027D01*
X205769Y111325D01*
X204750Y111425D01*
D02*
G37*
G36*
X192750D02*
X191731Y111325D01*
X190750Y111027D01*
X189847Y110545D01*
X189055Y109895D01*
X188405Y109103D01*
X187923Y108200D01*
X187625Y107219D01*
X187525Y106200D01*
X187625Y105181D01*
X187923Y104200D01*
X188405Y103297D01*
X189055Y102505D01*
X189847Y101855D01*
X190750Y101373D01*
X191731Y101075D01*
X192750Y100975D01*
X193769Y101075D01*
X194750Y101373D01*
X195653Y101855D01*
X196445Y102505D01*
X197095Y103297D01*
X197577Y104200D01*
X197875Y105181D01*
X197975Y106200D01*
X197875Y107219D01*
X197577Y108200D01*
X197095Y109103D01*
X196445Y109895D01*
X195653Y110545D01*
X194750Y111027D01*
X193769Y111325D01*
X192750Y111425D01*
D02*
G37*
G36*
X348750Y110919D02*
X347777Y110843D01*
X346828Y110615D01*
X345927Y110241D01*
X345094Y109731D01*
X344352Y109098D01*
X343719Y108356D01*
X343209Y107523D01*
X342835Y106622D01*
X342607Y105673D01*
X342531Y104700D01*
X342607Y103727D01*
X342835Y102778D01*
X343209Y101877D01*
X343719Y101045D01*
X344352Y100302D01*
X345094Y99669D01*
X345927Y99159D01*
X346828Y98785D01*
X347777Y98557D01*
X348750Y98481D01*
X349723Y98557D01*
X350672Y98785D01*
X351573Y99159D01*
X352406Y99669D01*
X353148Y100302D01*
X353781Y101045D01*
X354291Y101877D01*
X354665Y102778D01*
X354893Y103727D01*
X354969Y104700D01*
X354893Y105673D01*
X354665Y106622D01*
X354291Y107523D01*
X353781Y108356D01*
X353148Y109098D01*
X352406Y109731D01*
X351573Y110241D01*
X350672Y110615D01*
X349723Y110843D01*
X348750Y110919D01*
D02*
G37*
G36*
X524500Y116875D02*
X523481Y116775D01*
X522500Y116477D01*
X521597Y115995D01*
X520805Y115345D01*
X520155Y114553D01*
X519673Y113650D01*
X519375Y112669D01*
X519275Y111650D01*
X519375Y110631D01*
X519673Y109650D01*
X520155Y108747D01*
X520805Y107955D01*
X521597Y107305D01*
X522500Y106823D01*
X523481Y106525D01*
X524500Y106425D01*
X525519Y106525D01*
X526500Y106823D01*
X527403Y107305D01*
X528195Y107955D01*
X528845Y108747D01*
X529327Y109650D01*
X529625Y110631D01*
X529725Y111650D01*
X529625Y112669D01*
X529327Y113650D01*
X528845Y114553D01*
X528195Y115345D01*
X527403Y115995D01*
X526500Y116477D01*
X525519Y116775D01*
X524500Y116875D01*
D02*
G37*
G36*
Y129575D02*
X523481Y129475D01*
X522500Y129177D01*
X521597Y128695D01*
X520805Y128045D01*
X520155Y127253D01*
X519673Y126350D01*
X519375Y125369D01*
X519275Y124350D01*
X519375Y123331D01*
X519673Y122350D01*
X520155Y121447D01*
X520805Y120655D01*
X521597Y120005D01*
X522500Y119523D01*
X523481Y119225D01*
X524500Y119125D01*
X525519Y119225D01*
X526500Y119523D01*
X527403Y120005D01*
X528195Y120655D01*
X528845Y121447D01*
X529327Y122350D01*
X529625Y123331D01*
X529725Y124350D01*
X529625Y125369D01*
X529327Y126350D01*
X528845Y127253D01*
X528195Y128045D01*
X527403Y128695D01*
X526500Y129177D01*
X525519Y129475D01*
X524500Y129575D01*
D02*
G37*
G36*
X402750Y127175D02*
X401731Y127075D01*
X400750Y126777D01*
X399847Y126294D01*
X399055Y125645D01*
X398405Y124853D01*
X397923Y123950D01*
X397625Y122969D01*
X397525Y121950D01*
X397625Y120931D01*
X397923Y119950D01*
X398405Y119047D01*
X399055Y118255D01*
X399847Y117605D01*
X400750Y117122D01*
X401731Y116825D01*
X402750Y116725D01*
X403769Y116825D01*
X404750Y117122D01*
X405653Y117605D01*
X406445Y118255D01*
X407095Y119047D01*
X407577Y119950D01*
X407875Y120931D01*
X407975Y121950D01*
X407875Y122969D01*
X407577Y123950D01*
X407095Y124853D01*
X406445Y125645D01*
X405653Y126294D01*
X404750Y126777D01*
X403769Y127075D01*
X402750Y127175D01*
D02*
G37*
G36*
X271000Y111925D02*
X269981Y111825D01*
X269000Y111527D01*
X268097Y111045D01*
X267305Y110395D01*
X265945D01*
X265153Y111045D01*
X264250Y111527D01*
X263269Y111825D01*
X262250Y111925D01*
X261231Y111825D01*
X260250Y111527D01*
X259347Y111045D01*
X258555Y110395D01*
X257905Y109603D01*
X257423Y108700D01*
X257125Y107719D01*
X257025Y106700D01*
X257125Y105681D01*
X257423Y104700D01*
X257905Y103797D01*
X258555Y103005D01*
X259347Y102355D01*
X260250Y101873D01*
X261231Y101575D01*
X262250Y101475D01*
X263269Y101575D01*
X264250Y101873D01*
X265153Y102355D01*
X265945Y103005D01*
X267305D01*
X268097Y102355D01*
X269000Y101873D01*
X269981Y101575D01*
X271000Y101475D01*
X272019Y101575D01*
X273000Y101873D01*
X273903Y102355D01*
X274695Y103005D01*
X275345Y103797D01*
X275827Y104700D01*
X276125Y105681D01*
X276225Y106700D01*
X276125Y107719D01*
X275827Y108700D01*
X275345Y109603D01*
X274695Y110395D01*
X273903Y111045D01*
X273000Y111527D01*
X272019Y111825D01*
X271000Y111925D01*
D02*
G37*
G36*
X285000Y110919D02*
X284027Y110843D01*
X283078Y110615D01*
X282177Y110241D01*
X281344Y109731D01*
X280602Y109098D01*
X279969Y108356D01*
X279459Y107523D01*
X279085Y106622D01*
X278857Y105673D01*
X278781Y104700D01*
X278857Y103727D01*
X279085Y102778D01*
X279459Y101877D01*
X279969Y101045D01*
X280602Y100302D01*
X281344Y99669D01*
X282177Y99159D01*
X283078Y98785D01*
X284027Y98557D01*
X285000Y98481D01*
X285973Y98557D01*
X286922Y98785D01*
X287823Y99159D01*
X288655Y99669D01*
X289398Y100302D01*
X290031Y101045D01*
X290541Y101877D01*
X290915Y102778D01*
X291143Y103727D01*
X291219Y104700D01*
X291143Y105673D01*
X290915Y106622D01*
X290541Y107523D01*
X290031Y108356D01*
X289398Y109098D01*
X288655Y109731D01*
X287823Y110241D01*
X286922Y110615D01*
X285973Y110843D01*
X285000Y110919D01*
D02*
G37*
G36*
X445750Y81219D02*
X444777Y81143D01*
X443828Y80915D01*
X442927Y80541D01*
X442094Y80031D01*
X441352Y79398D01*
X440719Y78656D01*
X440209Y77823D01*
X439835Y76922D01*
X439607Y75973D01*
X439531Y75000D01*
X439607Y74027D01*
X439835Y73078D01*
X440209Y72177D01*
X440719Y71344D01*
X441352Y70602D01*
X442094Y69969D01*
X442927Y69459D01*
X442978Y69437D01*
Y68063D01*
X442927Y68041D01*
X442094Y67531D01*
X441352Y66898D01*
X440719Y66156D01*
X440209Y65323D01*
X439835Y64422D01*
X439607Y63473D01*
X439531Y62500D01*
X439607Y61527D01*
X439835Y60578D01*
X440209Y59677D01*
X440719Y58844D01*
X441352Y58102D01*
X442094Y57469D01*
X442927Y56959D01*
X443828Y56585D01*
X444777Y56357D01*
X445750Y56281D01*
X446723Y56357D01*
X447672Y56585D01*
X448573Y56959D01*
X449406Y57469D01*
X450148Y58102D01*
X450781Y58844D01*
X451291Y59677D01*
X451665Y60578D01*
X451893Y61527D01*
X451969Y62500D01*
X451893Y63473D01*
X451665Y64422D01*
X451291Y65323D01*
X450781Y66156D01*
X450148Y66898D01*
X449406Y67531D01*
X448573Y68041D01*
X448522Y68063D01*
Y69437D01*
X448573Y69459D01*
X449406Y69969D01*
X450148Y70602D01*
X450781Y71344D01*
X451291Y72177D01*
X451665Y73078D01*
X451893Y74027D01*
X451969Y75000D01*
X451893Y75973D01*
X451665Y76922D01*
X451291Y77823D01*
X450781Y78656D01*
X450148Y79398D01*
X449406Y80031D01*
X448573Y80541D01*
X447672Y80915D01*
X446723Y81143D01*
X445750Y81219D01*
D02*
G37*
G36*
X348750Y76969D02*
X347777Y76893D01*
X346828Y76665D01*
X345927Y76291D01*
X345094Y75781D01*
X344352Y75148D01*
X343719Y74405D01*
X343209Y73573D01*
X342835Y72672D01*
X342607Y71723D01*
X342531Y70750D01*
X342607Y69777D01*
X342835Y68828D01*
X343209Y67927D01*
X343719Y67094D01*
X344147Y66593D01*
X344293Y65725D01*
X344147Y64857D01*
X343719Y64356D01*
X343209Y63523D01*
X342835Y62622D01*
X342607Y61673D01*
X342531Y60700D01*
X342607Y59727D01*
X342835Y58778D01*
X343209Y57877D01*
X343719Y57044D01*
X344352Y56302D01*
X345094Y55669D01*
X345927Y55159D01*
X346828Y54785D01*
X347777Y54557D01*
X348750Y54481D01*
X349723Y54557D01*
X350672Y54785D01*
X351573Y55159D01*
X352406Y55669D01*
X353148Y56302D01*
X353781Y57044D01*
X354291Y57877D01*
X354665Y58778D01*
X354893Y59727D01*
X354969Y60700D01*
X354893Y61673D01*
X354665Y62622D01*
X354291Y63523D01*
X353781Y64356D01*
X353353Y64857D01*
X353207Y65725D01*
X353353Y66593D01*
X353781Y67094D01*
X354291Y67927D01*
X354665Y68828D01*
X354893Y69777D01*
X354969Y70750D01*
X354893Y71723D01*
X354665Y72672D01*
X354291Y73573D01*
X353781Y74405D01*
X353148Y75148D01*
X352406Y75781D01*
X351573Y76291D01*
X350672Y76665D01*
X349723Y76893D01*
X348750Y76969D01*
D02*
G37*
G36*
X285000Y76919D02*
X284027Y76843D01*
X283078Y76615D01*
X282177Y76241D01*
X281344Y75731D01*
X280602Y75098D01*
X279969Y74356D01*
X279459Y73523D01*
X279085Y72622D01*
X278857Y71673D01*
X278781Y70700D01*
X278857Y69727D01*
X279085Y68778D01*
X279459Y67877D01*
X279969Y67044D01*
X280602Y66302D01*
X280646Y66266D01*
X280669Y66231D01*
Y64669D01*
X280646Y64634D01*
X280602Y64598D01*
X279969Y63856D01*
X279459Y63023D01*
X279085Y62122D01*
X278857Y61173D01*
X278781Y60200D01*
X278857Y59227D01*
X279085Y58278D01*
X279459Y57376D01*
X279969Y56544D01*
X280602Y55802D01*
X281344Y55169D01*
X282177Y54659D01*
X283078Y54285D01*
X284027Y54057D01*
X285000Y53981D01*
X285973Y54057D01*
X286922Y54285D01*
X287823Y54659D01*
X288655Y55169D01*
X289398Y55802D01*
X290031Y56544D01*
X290541Y57376D01*
X290915Y58278D01*
X291143Y59227D01*
X291219Y60200D01*
X291143Y61173D01*
X290915Y62122D01*
X290541Y63023D01*
X290031Y63856D01*
X289398Y64598D01*
X289354Y64634D01*
X289331Y64669D01*
Y66231D01*
X289354Y66266D01*
X289398Y66302D01*
X290031Y67044D01*
X290541Y67877D01*
X290915Y68778D01*
X291143Y69727D01*
X291219Y70700D01*
X291143Y71673D01*
X290915Y72622D01*
X290541Y73523D01*
X290031Y74356D01*
X289398Y75098D01*
X288655Y75731D01*
X287823Y76241D01*
X286922Y76615D01*
X285973Y76843D01*
X285000Y76919D01*
D02*
G37*
G36*
X296000Y89925D02*
X294981Y89825D01*
X294000Y89527D01*
X293097Y89045D01*
X292305Y88395D01*
X291655Y87603D01*
X291173Y86700D01*
X290875Y85719D01*
X290775Y84700D01*
X290875Y83681D01*
X291173Y82700D01*
X291655Y81797D01*
X292305Y81005D01*
X293097Y80355D01*
X294000Y79873D01*
X294981Y79575D01*
X296000Y79475D01*
X297019Y79575D01*
X298000Y79873D01*
X298903Y80355D01*
X299695Y81005D01*
X300345Y81797D01*
X300827Y82700D01*
X301125Y83681D01*
X301225Y84700D01*
X301125Y85719D01*
X300827Y86700D01*
X300345Y87603D01*
X299695Y88395D01*
X298903Y89045D01*
X298000Y89527D01*
X297019Y89825D01*
X296000Y89925D01*
D02*
G37*
G36*
X473250Y90425D02*
X472231Y90325D01*
X471250Y90027D01*
X470347Y89545D01*
X469555Y88895D01*
X468945D01*
X468153Y89545D01*
X467250Y90027D01*
X466269Y90325D01*
X465250Y90425D01*
X464231Y90325D01*
X463250Y90027D01*
X462347Y89545D01*
X461555Y88895D01*
X460905Y88103D01*
X460423Y87200D01*
X460125Y86219D01*
X460025Y85200D01*
X460125Y84181D01*
X460423Y83200D01*
X460905Y82297D01*
X461555Y81505D01*
X462347Y80855D01*
X463250Y80373D01*
X464231Y80075D01*
X465250Y79975D01*
X466269Y80075D01*
X467250Y80373D01*
X468153Y80855D01*
X468945Y81505D01*
X469555D01*
X470347Y80855D01*
X471250Y80373D01*
X472231Y80075D01*
X473250Y79975D01*
X474269Y80075D01*
X475250Y80373D01*
X476153Y80855D01*
X476945Y81505D01*
X477595Y82297D01*
X478077Y83200D01*
X478375Y84181D01*
X478475Y85200D01*
X478375Y86219D01*
X478077Y87200D01*
X477595Y88103D01*
X476945Y88895D01*
X476153Y89545D01*
X475250Y90027D01*
X474269Y90325D01*
X473250Y90425D01*
D02*
G37*
G36*
X508000D02*
X506981Y90325D01*
X506000Y90027D01*
X505097Y89545D01*
X504305Y88895D01*
X503885Y88383D01*
X503273Y88250D01*
X502977D01*
X502365Y88383D01*
X501945Y88895D01*
X501153Y89545D01*
X500250Y90027D01*
X499269Y90325D01*
X498250Y90425D01*
X497231Y90325D01*
X496250Y90027D01*
X495347Y89545D01*
X494555Y88895D01*
X493905Y88103D01*
X493423Y87200D01*
X493125Y86219D01*
X493025Y85200D01*
X493125Y84181D01*
X493423Y83200D01*
X493905Y82297D01*
X494555Y81505D01*
X495347Y80855D01*
X496250Y80373D01*
X497231Y80075D01*
X498250Y79975D01*
X499269Y80075D01*
X500250Y80373D01*
X501153Y80855D01*
X501945Y81505D01*
X502365Y82017D01*
X502977Y82150D01*
X503273D01*
X503885Y82017D01*
X504305Y81505D01*
X505097Y80855D01*
X506000Y80373D01*
X506981Y80075D01*
X508000Y79975D01*
X509019Y80075D01*
X510000Y80373D01*
X510903Y80855D01*
X511695Y81505D01*
X512345Y82297D01*
X512827Y83200D01*
X513125Y84181D01*
X513225Y85200D01*
X513125Y86219D01*
X512827Y87200D01*
X512345Y88103D01*
X511695Y88895D01*
X510903Y89545D01*
X510000Y90027D01*
X509019Y90325D01*
X508000Y90425D01*
D02*
G37*
G36*
X337250Y90175D02*
X336231Y90075D01*
X335250Y89777D01*
X334347Y89295D01*
X333555Y88645D01*
X332905Y87853D01*
X332423Y86950D01*
X332125Y85969D01*
X332025Y84950D01*
X332125Y83931D01*
X332423Y82950D01*
X332905Y82047D01*
X333555Y81255D01*
X334347Y80605D01*
X335250Y80122D01*
X336231Y79825D01*
X337250Y79725D01*
X338269Y79825D01*
X339250Y80122D01*
X340153Y80605D01*
X340945Y81255D01*
X341595Y82047D01*
X342077Y82950D01*
X342375Y83931D01*
X342475Y84950D01*
X342375Y85969D01*
X342077Y86950D01*
X341595Y87853D01*
X340945Y88645D01*
X340153Y89295D01*
X339250Y89777D01*
X338269Y90075D01*
X337250Y90175D01*
D02*
G37*
G36*
X506500Y316925D02*
X505481Y316825D01*
X504500Y316527D01*
X503597Y316045D01*
X503273Y315778D01*
X502375Y315519D01*
X501477Y315778D01*
X501153Y316045D01*
X500250Y316527D01*
X499269Y316825D01*
X498250Y316925D01*
X497231Y316825D01*
X496250Y316527D01*
X495347Y316045D01*
X494555Y315395D01*
X493905Y314603D01*
X493423Y313700D01*
X493125Y312719D01*
X493025Y311700D01*
X493125Y310681D01*
X493423Y309700D01*
X493905Y308797D01*
X494555Y308005D01*
X495347Y307355D01*
X496250Y306873D01*
X497231Y306575D01*
X498250Y306475D01*
X499269Y306575D01*
X500250Y306873D01*
X501153Y307355D01*
X501945Y308005D01*
X502805D01*
X503597Y307355D01*
X504500Y306873D01*
X505481Y306575D01*
X506500Y306475D01*
X507519Y306575D01*
X508500Y306873D01*
X509403Y307355D01*
X510195Y308005D01*
X510845Y308797D01*
X511327Y309700D01*
X511625Y310681D01*
X511725Y311700D01*
X511625Y312719D01*
X511327Y313700D01*
X510845Y314603D01*
X510195Y315395D01*
X509403Y316045D01*
X508500Y316527D01*
X507519Y316825D01*
X506500Y316925D01*
D02*
G37*
G36*
X476000D02*
X474981Y316825D01*
X474000Y316527D01*
X473097Y316045D01*
X472305Y315395D01*
X472174Y315235D01*
X472106Y315195D01*
X470644D01*
X470576Y315235D01*
X470445Y315395D01*
X469653Y316045D01*
X468750Y316527D01*
X467769Y316825D01*
X466750Y316925D01*
X465731Y316825D01*
X464750Y316527D01*
X463847Y316045D01*
X463055Y315395D01*
X462405Y314603D01*
X461923Y313700D01*
X461625Y312719D01*
X461525Y311700D01*
X461625Y310681D01*
X461923Y309700D01*
X462405Y308797D01*
X463055Y308005D01*
X463847Y307355D01*
X464750Y306873D01*
X465731Y306575D01*
X466750Y306475D01*
X467769Y306575D01*
X468750Y306873D01*
X469653Y307355D01*
X470445Y308005D01*
X470576Y308165D01*
X470644Y308205D01*
X472106D01*
X472174Y308165D01*
X472305Y308005D01*
X473097Y307355D01*
X474000Y306873D01*
X474981Y306575D01*
X476000Y306475D01*
X477019Y306575D01*
X478000Y306873D01*
X478903Y307355D01*
X479695Y308005D01*
X480345Y308797D01*
X480827Y309700D01*
X481125Y310681D01*
X481225Y311700D01*
X481125Y312719D01*
X480827Y313700D01*
X480345Y314603D01*
X479695Y315395D01*
X478903Y316045D01*
X478000Y316527D01*
X477019Y316825D01*
X476000Y316925D01*
D02*
G37*
G36*
X337250Y317675D02*
X336231Y317575D01*
X335250Y317277D01*
X334347Y316795D01*
X333555Y316145D01*
X332905Y315353D01*
X332423Y314450D01*
X332125Y313469D01*
X332025Y312450D01*
X332125Y311431D01*
X332423Y310450D01*
X332905Y309547D01*
X333555Y308755D01*
X334347Y308105D01*
X335250Y307623D01*
X336231Y307325D01*
X337250Y307225D01*
X338269Y307325D01*
X339250Y307623D01*
X340153Y308105D01*
X340945Y308755D01*
X341595Y309547D01*
X342077Y310450D01*
X342375Y311431D01*
X342475Y312450D01*
X342375Y313469D01*
X342077Y314450D01*
X341595Y315353D01*
X340945Y316145D01*
X340153Y316795D01*
X339250Y317277D01*
X338269Y317575D01*
X337250Y317675D01*
D02*
G37*
G36*
X93750Y328175D02*
X92731Y328075D01*
X91750Y327777D01*
X90847Y327295D01*
X90055Y326645D01*
X89405Y325853D01*
X88923Y324950D01*
X88625Y323969D01*
X88525Y322950D01*
X88625Y321931D01*
X88923Y320950D01*
X89405Y320047D01*
X90055Y319255D01*
X90847Y318605D01*
X91750Y318123D01*
X92731Y317825D01*
X93750Y317725D01*
X94769Y317825D01*
X95750Y318123D01*
X96653Y318605D01*
X97445Y319255D01*
X98095Y320047D01*
X98577Y320950D01*
X98875Y321931D01*
X98975Y322950D01*
X98875Y323969D01*
X98577Y324950D01*
X98095Y325853D01*
X97445Y326645D01*
X96653Y327295D01*
X95750Y327777D01*
X94769Y328075D01*
X93750Y328175D01*
D02*
G37*
G36*
X543750Y350219D02*
X542777Y350143D01*
X541828Y349915D01*
X540927Y349541D01*
X540094Y349031D01*
X539352Y348398D01*
X538719Y347655D01*
X538209Y346823D01*
X537835Y345922D01*
X537607Y344973D01*
X537531Y344000D01*
X537607Y343027D01*
X537835Y342078D01*
X538209Y341177D01*
X538719Y340345D01*
X539352Y339602D01*
X540094Y338969D01*
X540927Y338459D01*
X541828Y338085D01*
X542777Y337857D01*
X543750Y337781D01*
X544723Y337857D01*
X545672Y338085D01*
X546573Y338459D01*
X547406Y338969D01*
X548148Y339602D01*
X548781Y340345D01*
X549291Y341177D01*
X549665Y342078D01*
X549893Y343027D01*
X549969Y344000D01*
X549893Y344973D01*
X549665Y345922D01*
X549291Y346823D01*
X548781Y347655D01*
X548148Y348398D01*
X547406Y349031D01*
X546573Y349541D01*
X545672Y349915D01*
X544723Y350143D01*
X543750Y350219D01*
D02*
G37*
G36*
X164500Y342425D02*
X163481Y342325D01*
X162500Y342027D01*
X161597Y341545D01*
X160805Y340895D01*
X160155Y340103D01*
X159673Y339200D01*
X159375Y338219D01*
X159275Y337200D01*
X159375Y336181D01*
X159673Y335200D01*
X160155Y334297D01*
X160805Y333505D01*
X161597Y332855D01*
X162500Y332373D01*
X163481Y332075D01*
X164500Y331975D01*
X165519Y332075D01*
X166500Y332373D01*
X167403Y332855D01*
X168195Y333505D01*
X168845Y334297D01*
X169327Y335200D01*
X169625Y336181D01*
X169725Y337200D01*
X169625Y338219D01*
X169327Y339200D01*
X168845Y340103D01*
X168195Y340895D01*
X167403Y341545D01*
X166500Y342027D01*
X165519Y342325D01*
X164500Y342425D01*
D02*
G37*
G36*
X114000Y341175D02*
X112981Y341075D01*
X112000Y340777D01*
X111097Y340295D01*
X110305Y339645D01*
X109655Y338853D01*
X109173Y337950D01*
X108875Y336969D01*
X108775Y335950D01*
X108875Y334931D01*
X109173Y333950D01*
X109655Y333047D01*
X110305Y332255D01*
X111097Y331605D01*
X112000Y331123D01*
X112981Y330825D01*
X114000Y330725D01*
X115019Y330825D01*
X116000Y331123D01*
X116903Y331605D01*
X117695Y332255D01*
X118345Y333047D01*
X118827Y333950D01*
X119125Y334931D01*
X119225Y335950D01*
X119125Y336969D01*
X118827Y337950D01*
X118345Y338853D01*
X117695Y339645D01*
X116903Y340295D01*
X116000Y340777D01*
X115019Y341075D01*
X114000Y341175D01*
D02*
G37*
G36*
X316625Y317675D02*
X315606Y317575D01*
X314625Y317277D01*
X313722Y316795D01*
X312930Y316145D01*
X312280Y315353D01*
X311798Y314450D01*
X311500Y313469D01*
X311400Y312450D01*
X311500Y311431D01*
X311798Y310450D01*
X312280Y309547D01*
X312930Y308755D01*
X313722Y308105D01*
X314625Y307623D01*
X315606Y307325D01*
X316625Y307225D01*
X317644Y307325D01*
X318625Y307623D01*
X319528Y308105D01*
X320320Y308755D01*
X320970Y309547D01*
X321452Y310450D01*
X321750Y311431D01*
X321850Y312450D01*
X321750Y313469D01*
X321452Y314450D01*
X320970Y315353D01*
X320320Y316145D01*
X319528Y316795D01*
X318625Y317277D01*
X317644Y317575D01*
X316625Y317675D01*
D02*
G37*
G36*
X114250Y315925D02*
X113231Y315825D01*
X112250Y315527D01*
X111347Y315045D01*
X110555Y314395D01*
X109905Y313603D01*
X109423Y312700D01*
X109125Y311719D01*
X109025Y310700D01*
X109125Y309681D01*
X109423Y308700D01*
X109905Y307797D01*
X110555Y307005D01*
X111347Y306355D01*
X112250Y305873D01*
X113231Y305575D01*
X114250Y305475D01*
X115269Y305575D01*
X116250Y305873D01*
X117153Y306355D01*
X117945Y307005D01*
X118595Y307797D01*
X119077Y308700D01*
X119375Y309681D01*
X119475Y310700D01*
X119375Y311719D01*
X119077Y312700D01*
X118595Y313603D01*
X117945Y314395D01*
X117153Y315045D01*
X116250Y315527D01*
X115269Y315825D01*
X114250Y315925D01*
D02*
G37*
G36*
X282000Y317719D02*
X281027Y317643D01*
X280078Y317415D01*
X279177Y317041D01*
X278344Y316531D01*
X277602Y315898D01*
X276969Y315156D01*
X276459Y314324D01*
X276085Y313422D01*
X275857Y312473D01*
X275781Y311500D01*
X275857Y310527D01*
X276085Y309578D01*
X276459Y308677D01*
X276969Y307845D01*
X277602Y307102D01*
X278344Y306469D01*
X279177Y305959D01*
X280078Y305585D01*
X281027Y305357D01*
X282000Y305281D01*
X282973Y305357D01*
X283922Y305585D01*
X284823Y305959D01*
X285655Y306469D01*
X286398Y307102D01*
X287031Y307845D01*
X287541Y308677D01*
X287915Y309578D01*
X288143Y310527D01*
X288219Y311500D01*
X288143Y312473D01*
X287915Y313422D01*
X287541Y314324D01*
X287031Y315156D01*
X286398Y315898D01*
X285655Y316531D01*
X284823Y317041D01*
X283922Y317415D01*
X282973Y317643D01*
X282000Y317719D01*
D02*
G37*
G36*
X441500Y302175D02*
X440481Y302075D01*
X439500Y301777D01*
X438597Y301294D01*
X437805Y300645D01*
X437155Y299853D01*
X436673Y298950D01*
X436539Y298508D01*
X435211D01*
X435077Y298950D01*
X434595Y299853D01*
X433945Y300645D01*
X433153Y301294D01*
X432250Y301777D01*
X431269Y302075D01*
X430250Y302175D01*
X429231Y302075D01*
X428250Y301777D01*
X427347Y301294D01*
X426555Y300645D01*
X425905Y299853D01*
X425423Y298950D01*
X425125Y297969D01*
X425025Y296950D01*
X425125Y295931D01*
X425423Y294950D01*
X425905Y294047D01*
X426555Y293255D01*
X427347Y292605D01*
X428250Y292123D01*
X429231Y291825D01*
X430250Y291725D01*
X431269Y291825D01*
X432250Y292123D01*
X433153Y292605D01*
X433945Y293255D01*
X434595Y294047D01*
X435077Y294950D01*
X435211Y295392D01*
X436539D01*
X436673Y294950D01*
X437155Y294047D01*
X437805Y293255D01*
X438597Y292605D01*
X439500Y292123D01*
X440481Y291825D01*
X441500Y291725D01*
X442519Y291825D01*
X443500Y292123D01*
X444403Y292605D01*
X445195Y293255D01*
X445844Y294047D01*
X446327Y294950D01*
X446625Y295931D01*
X446725Y296950D01*
X446625Y297969D01*
X446327Y298950D01*
X445844Y299853D01*
X445195Y300645D01*
X444403Y301294D01*
X443500Y301777D01*
X442519Y302075D01*
X441500Y302175D01*
D02*
G37*
G36*
X568200Y325180D02*
X566678Y325060D01*
X565193Y324704D01*
X563783Y324119D01*
X562481Y323322D01*
X561320Y322330D01*
X560328Y321169D01*
X559530Y319867D01*
X558946Y318457D01*
X558590Y316972D01*
X558470Y315450D01*
X558590Y313928D01*
X558946Y312443D01*
X559530Y311033D01*
X560328Y309731D01*
X561320Y308570D01*
X562481Y307578D01*
X563783Y306780D01*
X565193Y306196D01*
X566678Y305840D01*
X568200Y305720D01*
X569722Y305840D01*
X571207Y306196D01*
X572617Y306780D01*
X573919Y307578D01*
X575080Y308570D01*
X576072Y309731D01*
X576870Y311033D01*
X577454Y312443D01*
X577810Y313928D01*
X577930Y315450D01*
X577810Y316972D01*
X577454Y318457D01*
X576870Y319867D01*
X576072Y321169D01*
X575080Y322330D01*
X573919Y323322D01*
X572617Y324119D01*
X571207Y324704D01*
X569722Y325060D01*
X568200Y325180D01*
D02*
G37*
G36*
X296000Y317675D02*
X294981Y317575D01*
X294000Y317277D01*
X293097Y316795D01*
X292305Y316145D01*
X291655Y315353D01*
X291173Y314450D01*
X290875Y313469D01*
X290775Y312450D01*
X290875Y311431D01*
X291173Y310450D01*
X291655Y309547D01*
X292305Y308755D01*
X293097Y308105D01*
X294000Y307623D01*
X294981Y307325D01*
X296000Y307225D01*
X297019Y307325D01*
X298000Y307623D01*
X298903Y308105D01*
X299695Y308755D01*
X300345Y309547D01*
X300827Y310450D01*
X301125Y311431D01*
X301225Y312450D01*
X301125Y313469D01*
X300827Y314450D01*
X300345Y315353D01*
X299695Y316145D01*
X298903Y316795D01*
X298000Y317277D01*
X297019Y317575D01*
X296000Y317675D01*
D02*
G37*
G36*
X444750Y318719D02*
X443777Y318643D01*
X442828Y318415D01*
X441927Y318041D01*
X441095Y317531D01*
X440352Y316898D01*
X439719Y316156D01*
X439209Y315323D01*
X438835Y314422D01*
X438607Y313473D01*
X438531Y312500D01*
X438607Y311527D01*
X438835Y310578D01*
X439209Y309677D01*
X439719Y308845D01*
X440352Y308102D01*
X441095Y307469D01*
X441927Y306959D01*
X442828Y306585D01*
X443777Y306357D01*
X444750Y306281D01*
X445723Y306357D01*
X446672Y306585D01*
X447574Y306959D01*
X448406Y307469D01*
X449148Y308102D01*
X449781Y308845D01*
X450291Y309677D01*
X450665Y310578D01*
X450893Y311527D01*
X450969Y312500D01*
X450893Y313473D01*
X450665Y314422D01*
X450291Y315323D01*
X449781Y316156D01*
X449148Y316898D01*
X448406Y317531D01*
X447574Y318041D01*
X446672Y318415D01*
X445723Y318643D01*
X444750Y318719D01*
D02*
G37*
G36*
X590800Y325180D02*
X589278Y325060D01*
X587793Y324704D01*
X586383Y324119D01*
X585081Y323322D01*
X583920Y322330D01*
X582928Y321169D01*
X582131Y319867D01*
X581546Y318457D01*
X581190Y316972D01*
X581070Y315450D01*
X581190Y313928D01*
X581546Y312443D01*
X582131Y311033D01*
X582928Y309731D01*
X583920Y308570D01*
X585081Y307578D01*
X586383Y306780D01*
X587793Y306196D01*
X589278Y305840D01*
X590800Y305720D01*
X592322Y305840D01*
X593807Y306196D01*
X595217Y306780D01*
X596519Y307578D01*
X597680Y308570D01*
X598672Y309731D01*
X599469Y311033D01*
X600054Y312443D01*
X600410Y313928D01*
X600530Y315450D01*
X600410Y316972D01*
X600054Y318457D01*
X599469Y319867D01*
X598672Y321169D01*
X597680Y322330D01*
X596519Y323322D01*
X595217Y324119D01*
X593807Y324704D01*
X592322Y325060D01*
X590800Y325180D01*
D02*
G37*
G36*
X146250Y356669D02*
X145277Y356593D01*
X144328Y356365D01*
X143427Y355991D01*
X142594Y355481D01*
X141852Y354848D01*
X141219Y354105D01*
X140709Y353273D01*
X140335Y352372D01*
X140107Y351423D01*
X140031Y350450D01*
X140107Y349477D01*
X140335Y348528D01*
X140709Y347627D01*
X141219Y346795D01*
X141852Y346052D01*
X142594Y345419D01*
X143427Y344909D01*
X144328Y344535D01*
X145277Y344307D01*
X146250Y344231D01*
X147223Y344307D01*
X148172Y344535D01*
X149073Y344909D01*
X149906Y345419D01*
X150648Y346052D01*
X151281Y346795D01*
X151791Y347627D01*
X152165Y348528D01*
X152393Y349477D01*
X152469Y350450D01*
X152393Y351423D01*
X152165Y352372D01*
X151791Y353273D01*
X151281Y354105D01*
X150648Y354848D01*
X149906Y355481D01*
X149073Y355991D01*
X148172Y356365D01*
X147223Y356593D01*
X146250Y356669D01*
D02*
G37*
G36*
X164000Y378925D02*
X162981Y378825D01*
X162000Y378527D01*
X161097Y378045D01*
X160305Y377395D01*
X159655Y376603D01*
X159173Y375700D01*
X158875Y374719D01*
X158775Y373700D01*
X158875Y372681D01*
X159173Y371700D01*
X159655Y370797D01*
X160305Y370005D01*
X161097Y369355D01*
X162000Y368873D01*
X162981Y368575D01*
X164000Y368475D01*
X165019Y368575D01*
X166000Y368873D01*
X166903Y369355D01*
X167695Y370005D01*
X168345Y370797D01*
X168827Y371700D01*
X169125Y372681D01*
X169225Y373700D01*
X169125Y374719D01*
X168827Y375700D01*
X168345Y376603D01*
X167695Y377395D01*
X166903Y378045D01*
X166000Y378527D01*
X165019Y378825D01*
X164000Y378925D01*
D02*
G37*
G36*
X401947Y377675D02*
X400928Y377575D01*
X399948Y377277D01*
X399044Y376795D01*
X398252Y376145D01*
X397603Y375353D01*
X397120Y374450D01*
X396822Y373469D01*
X396722Y372450D01*
X396822Y371431D01*
X397120Y370450D01*
X397603Y369547D01*
X398252Y368755D01*
X399044Y368106D01*
X399948Y367623D01*
X400928Y367325D01*
X401947Y367225D01*
X402966Y367325D01*
X403947Y367623D01*
X404850Y368106D01*
X405642Y368755D01*
X406292Y369547D01*
X406774Y370450D01*
X407072Y371431D01*
X407172Y372450D01*
X407072Y373469D01*
X406774Y374450D01*
X406292Y375353D01*
X405642Y376145D01*
X404850Y376795D01*
X403947Y377277D01*
X402966Y377575D01*
X401947Y377675D01*
D02*
G37*
G36*
X511250Y375925D02*
X510231Y375825D01*
X509250Y375527D01*
X508347Y375045D01*
X507555Y374395D01*
X506905Y373603D01*
X506423Y372700D01*
X506125Y371719D01*
X506025Y370700D01*
X506125Y369681D01*
X506423Y368700D01*
X506905Y367797D01*
X507555Y367005D01*
X508235Y366448D01*
X508220Y366051D01*
X507856Y365178D01*
X493250D01*
X492415Y365068D01*
X491636Y364745D01*
X490968Y364232D01*
X489646Y362911D01*
X489500Y362925D01*
X488481Y362825D01*
X487500Y362527D01*
X486597Y362045D01*
X485805Y361395D01*
X485155Y360603D01*
X484673Y359700D01*
X484375Y358719D01*
X484275Y357700D01*
X484375Y356681D01*
X484673Y355700D01*
X485155Y354797D01*
X485805Y354005D01*
X486502Y353434D01*
X486597Y352786D01*
Y352614D01*
X486502Y351966D01*
X485805Y351395D01*
X485155Y350603D01*
X484673Y349700D01*
X484375Y348719D01*
X484275Y347700D01*
X484375Y346681D01*
X484673Y345700D01*
X485155Y344797D01*
X485805Y344005D01*
X486502Y343434D01*
X486597Y342786D01*
Y342614D01*
X486502Y341966D01*
X485805Y341395D01*
X485155Y340603D01*
X484673Y339700D01*
X484375Y338719D01*
X484275Y337700D01*
X484375Y336681D01*
X484673Y335700D01*
X485155Y334797D01*
X485805Y334005D01*
X486597Y333355D01*
X487500Y332873D01*
X488481Y332575D01*
X489500Y332475D01*
X490519Y332575D01*
X491500Y332873D01*
X492403Y333355D01*
X493195Y334005D01*
X493845Y334797D01*
X494327Y335700D01*
X494625Y336681D01*
X494725Y337700D01*
X494625Y338719D01*
X494327Y339700D01*
X493845Y340603D01*
X493195Y341395D01*
X492498Y341966D01*
X492403Y342614D01*
Y342786D01*
X492498Y343434D01*
X493195Y344005D01*
X493845Y344797D01*
X494327Y345700D01*
X494625Y346681D01*
X494725Y347700D01*
X494625Y348719D01*
X494327Y349700D01*
X493845Y350603D01*
X493195Y351395D01*
X492498Y351966D01*
X492403Y352614D01*
Y352786D01*
X492498Y353434D01*
X493195Y354005D01*
X493845Y354797D01*
X494327Y355700D01*
X494625Y356681D01*
X494725Y357700D01*
X495901Y358722D01*
X510190D01*
X510279Y358574D01*
X510097Y357044D01*
X509305Y356395D01*
X508655Y355603D01*
X508173Y354700D01*
X507875Y353719D01*
X507785Y352799D01*
X502968Y347982D01*
X502455Y347314D01*
X502132Y346535D01*
X502022Y345700D01*
Y334200D01*
X502132Y333365D01*
X502455Y332586D01*
X502968Y331918D01*
X512968Y321918D01*
X513636Y321405D01*
X514415Y321082D01*
X515250Y320972D01*
X523599D01*
X531185Y313386D01*
X530393Y312382D01*
X530301Y312438D01*
X529327Y312842D01*
X528301Y313088D01*
X527250Y313171D01*
X526199Y313088D01*
X525173Y312842D01*
X524199Y312438D01*
X523300Y311887D01*
X522498Y311202D01*
X521813Y310400D01*
X521262Y309501D01*
X520858Y308527D01*
X520612Y307501D01*
X520529Y306450D01*
X520612Y305399D01*
X520858Y304373D01*
X521262Y303399D01*
X521813Y302500D01*
X522498Y301698D01*
X523300Y301013D01*
X524199Y300462D01*
X525173Y300058D01*
X526199Y299812D01*
X527250Y299729D01*
X528301Y299812D01*
X529327Y300058D01*
X530301Y300462D01*
X531200Y301013D01*
X532002Y301698D01*
X532687Y302500D01*
X533238Y303399D01*
X533642Y304373D01*
X533888Y305399D01*
X533971Y306450D01*
X533888Y307501D01*
X533642Y308527D01*
X533238Y309501D01*
X533182Y309593D01*
X534186Y310385D01*
X553545Y291025D01*
X553158Y290095D01*
X552927Y289848D01*
X552000Y289921D01*
X550949Y289838D01*
X549923Y289592D01*
X548949Y289188D01*
X548050Y288637D01*
X547248Y287952D01*
X546563Y287150D01*
X546012Y286251D01*
X545608Y285277D01*
X545362Y284251D01*
X545279Y283200D01*
X545362Y282149D01*
X545608Y281123D01*
X546012Y280149D01*
X546563Y279250D01*
X547248Y278448D01*
X548050Y277763D01*
X548949Y277212D01*
X549923Y276808D01*
X550949Y276562D01*
X552000Y276479D01*
X553051Y276562D01*
X554077Y276808D01*
X555051Y277212D01*
X555950Y277763D01*
X556752Y278448D01*
X557437Y279250D01*
X557988Y280149D01*
X558252Y280787D01*
X559522Y280534D01*
Y241950D01*
X559632Y241115D01*
X559955Y240336D01*
X560468Y239668D01*
X578272Y221863D01*
Y197700D01*
X578382Y196865D01*
X578705Y196086D01*
X579218Y195418D01*
X582062Y192574D01*
X582025Y192200D01*
X582125Y191181D01*
X582423Y190200D01*
X582905Y189297D01*
X583555Y188505D01*
X584347Y187855D01*
X585250Y187373D01*
X586231Y187075D01*
X587250Y186975D01*
X588269Y187075D01*
X589250Y187373D01*
X590153Y187855D01*
X590945Y188505D01*
X591595Y189297D01*
X591752Y189592D01*
X593022Y189274D01*
Y184178D01*
X583500D01*
X582665Y184068D01*
X581886Y183745D01*
X581218Y183232D01*
X573968Y175982D01*
X573455Y175314D01*
X573132Y174535D01*
X573022Y173700D01*
Y131537D01*
X558957Y117472D01*
X557900Y117881D01*
X557715Y118025D01*
X557638Y119001D01*
X557392Y120027D01*
X556988Y121001D01*
X556437Y121900D01*
X555752Y122702D01*
X554950Y123387D01*
X554051Y123938D01*
X553077Y124342D01*
X552051Y124588D01*
X551000Y124671D01*
X549949Y124588D01*
X548923Y124342D01*
X547949Y123938D01*
X547050Y123387D01*
X546248Y122702D01*
X545578Y121918D01*
X545563Y121900D01*
X545560Y121897D01*
X544328Y122350D01*
X544392Y122562D01*
X544625Y123331D01*
X544725Y124350D01*
X544625Y125369D01*
X544327Y126350D01*
X543845Y127253D01*
X543195Y128045D01*
X542403Y128695D01*
X541500Y129177D01*
X540519Y129475D01*
X539500Y129575D01*
X538481Y129475D01*
X537500Y129177D01*
X536597Y128695D01*
X535805Y128045D01*
X535155Y127253D01*
X534673Y126350D01*
X534375Y125369D01*
X534275Y124350D01*
X534375Y123331D01*
X534673Y122350D01*
X535155Y121447D01*
X535805Y120655D01*
X536597Y120005D01*
X537500Y119523D01*
X538481Y119225D01*
X539500Y119125D01*
X540519Y119225D01*
X541500Y119523D01*
X542403Y120005D01*
X543195Y120655D01*
X543844Y121447D01*
X543845Y121447D01*
X543545Y121082D01*
X543856Y121441D01*
X544937Y120830D01*
X544747Y120362D01*
X544940Y120828D01*
D01*
X544608Y120027D01*
X544362Y119001D01*
X544279Y117950D01*
X544362Y116899D01*
X544545Y116135D01*
X544128Y114958D01*
X544128Y114958D01*
Y114958D01*
X543715Y114711D01*
X543712Y114715D01*
X543195Y115345D01*
X542403Y115995D01*
X541500Y116477D01*
X540519Y116775D01*
X539500Y116875D01*
X538481Y116775D01*
X537500Y116477D01*
X536597Y115995D01*
X535805Y115345D01*
X535155Y114553D01*
X534673Y113650D01*
X534375Y112669D01*
X534275Y111650D01*
X534375Y110631D01*
X534673Y109650D01*
X535155Y108747D01*
X535805Y107955D01*
X536597Y107305D01*
X537500Y106823D01*
X538481Y106525D01*
X539500Y106425D01*
X540519Y106525D01*
X541500Y106823D01*
X542403Y107305D01*
X543195Y107955D01*
X543845Y108747D01*
X544327Y109650D01*
X544625Y110631D01*
X544725Y111650D01*
X544625Y112669D01*
X544337Y113617D01*
X544328Y113650D01*
X544725Y113835D01*
Y113835D01*
X544725Y113835D01*
X545929Y113571D01*
X546248Y113198D01*
X547050Y112513D01*
X547949Y111962D01*
X548923Y111558D01*
X549949Y111312D01*
X550925Y111235D01*
X551069Y111050D01*
X551479Y109993D01*
X531584Y90099D01*
X530580Y90890D01*
X530738Y91149D01*
X531142Y92123D01*
X531388Y93149D01*
X531471Y94200D01*
X531388Y95251D01*
X531142Y96277D01*
X530738Y97251D01*
X530187Y98150D01*
X529502Y98952D01*
X528700Y99637D01*
X527801Y100188D01*
X526827Y100592D01*
X525801Y100838D01*
X524750Y100921D01*
X523699Y100838D01*
X522673Y100592D01*
X521699Y100188D01*
X520800Y99637D01*
X519998Y98952D01*
X519313Y98150D01*
X518762Y97251D01*
X518358Y96277D01*
X518112Y95251D01*
X518029Y94200D01*
X518112Y93149D01*
X518358Y92123D01*
X518762Y91149D01*
X519313Y90250D01*
X519998Y89448D01*
X520800Y88763D01*
X521699Y88212D01*
X522673Y87808D01*
X523699Y87562D01*
X524750Y87479D01*
X525801Y87562D01*
X526827Y87808D01*
X527801Y88212D01*
X528060Y88370D01*
X528851Y87366D01*
X503218Y61732D01*
X502705Y61064D01*
X502544Y60675D01*
X501467Y60391D01*
X501120Y60431D01*
X500945Y60645D01*
X500153Y61295D01*
X499250Y61777D01*
X498269Y62075D01*
X497250Y62175D01*
X496231Y62075D01*
X495250Y61777D01*
X494347Y61295D01*
X493555Y60645D01*
X492984Y59948D01*
X492336Y59853D01*
X492164D01*
X491516Y59948D01*
X490945Y60645D01*
X490153Y61295D01*
X489250Y61777D01*
X488269Y62075D01*
X487250Y62175D01*
X486231Y62075D01*
X485250Y61777D01*
X484347Y61295D01*
X483555Y60645D01*
X482905Y59853D01*
X482423Y58950D01*
X482125Y57969D01*
X482025Y56950D01*
X482125Y55931D01*
X482423Y54950D01*
X482905Y54047D01*
X483555Y53255D01*
X484347Y52606D01*
X485250Y52123D01*
X486231Y51825D01*
X487250Y51725D01*
X488269Y51825D01*
X489250Y52123D01*
X490153Y52606D01*
X490945Y53255D01*
X491443Y53862D01*
X492654Y53662D01*
X492804Y53386D01*
X492260Y52050D01*
X492219Y52010D01*
X491347Y51545D01*
X490555Y50895D01*
X489905Y50103D01*
X489423Y49200D01*
X489125Y48219D01*
X489025Y47200D01*
X489125Y46181D01*
X489423Y45200D01*
X489905Y44297D01*
X490555Y43505D01*
X491252Y42934D01*
X491347Y42286D01*
Y42114D01*
X491252Y41466D01*
X490555Y40895D01*
X489905Y40103D01*
X489423Y39200D01*
X489125Y38219D01*
X489025Y37200D01*
X489125Y36181D01*
X489423Y35200D01*
X489905Y34297D01*
X490555Y33505D01*
X491252Y32934D01*
X491347Y32286D01*
Y32114D01*
X491252Y31466D01*
X490555Y30895D01*
X489905Y30103D01*
X489423Y29200D01*
X489125Y28219D01*
X489025Y27200D01*
X489125Y26181D01*
X489326Y25520D01*
X488898Y24935D01*
X488854Y24897D01*
X488302Y24604D01*
X487672Y24865D01*
X486723Y25093D01*
X485750Y25169D01*
X484777Y25093D01*
X483828Y24865D01*
X482927Y24491D01*
X482094Y23981D01*
X481352Y23348D01*
X480719Y22606D01*
X480209Y21773D01*
X479835Y20872D01*
X479607Y19923D01*
X479531Y18950D01*
X479607Y17977D01*
X479835Y17028D01*
X480209Y16127D01*
X480719Y15294D01*
X481352Y14552D01*
X482094Y13919D01*
X482927Y13409D01*
X483828Y13035D01*
X484777Y12807D01*
X485750Y12731D01*
X486723Y12807D01*
X487672Y13035D01*
X488573Y13409D01*
X489406Y13919D01*
X490148Y14552D01*
X490781Y15294D01*
X491291Y16127D01*
X491665Y17028D01*
X491893Y17977D01*
X491969Y18950D01*
X491893Y19923D01*
X491665Y20872D01*
X491466Y21352D01*
X491982Y22023D01*
X492396Y22329D01*
X493231Y22075D01*
X494250Y21975D01*
X495269Y22075D01*
X496250Y22373D01*
X497153Y22855D01*
X497945Y23505D01*
X498595Y24297D01*
X499077Y25200D01*
X499375Y26181D01*
X499475Y27200D01*
X499375Y28219D01*
X499077Y29200D01*
X498595Y30103D01*
X497945Y30895D01*
X497248Y31466D01*
X497153Y32114D01*
Y32286D01*
X497248Y32934D01*
X497945Y33505D01*
X498595Y34297D01*
X499077Y35200D01*
X499375Y36181D01*
X499475Y37200D01*
X499375Y38219D01*
X499077Y39200D01*
X498595Y40103D01*
X497945Y40895D01*
X497248Y41466D01*
X497153Y42114D01*
Y42286D01*
X497248Y42934D01*
X497945Y43505D01*
X498328Y43972D01*
X500750D01*
X501585Y44082D01*
X502364Y44405D01*
X503032Y44918D01*
X507782Y49668D01*
X508295Y50336D01*
X508618Y51115D01*
X508728Y51950D01*
Y58113D01*
X546502Y95888D01*
X547772Y95362D01*
Y72037D01*
X531336Y55601D01*
X530841Y55736D01*
X530153Y56213D01*
X530225Y56950D01*
X530125Y57969D01*
X529827Y58950D01*
X529345Y59853D01*
X528695Y60645D01*
X527903Y61295D01*
X527000Y61777D01*
X526019Y62075D01*
X525000Y62175D01*
X523981Y62075D01*
X523000Y61777D01*
X522097Y61295D01*
X521305Y60645D01*
X520655Y59853D01*
X520173Y58950D01*
X519875Y57969D01*
X519775Y56950D01*
X519875Y55931D01*
X520173Y54950D01*
X520655Y54047D01*
X521305Y53255D01*
X522097Y52606D01*
X523000Y52123D01*
X523981Y51825D01*
X525000Y51725D01*
X525737Y51797D01*
X526214Y51109D01*
X526349Y50614D01*
X521772Y46037D01*
X521153Y46545D01*
X520250Y47027D01*
X519269Y47325D01*
X518250Y47425D01*
X517231Y47325D01*
X516250Y47027D01*
X515347Y46545D01*
X514555Y45895D01*
X513905Y45103D01*
X513423Y44200D01*
X513125Y43219D01*
X513025Y42200D01*
X513125Y41181D01*
X513423Y40200D01*
X513905Y39297D01*
X514555Y38505D01*
X515252Y37934D01*
X515347Y37286D01*
Y37114D01*
X515252Y36466D01*
X514555Y35895D01*
X513905Y35103D01*
X513423Y34200D01*
X513125Y33219D01*
X513025Y32200D01*
X513125Y31181D01*
X513423Y30200D01*
X513905Y29297D01*
X514555Y28505D01*
X515347Y27855D01*
X516250Y27373D01*
X517231Y27075D01*
X518250Y26975D01*
X519269Y27075D01*
X520250Y27373D01*
X521153Y27855D01*
X521945Y28505D01*
X522595Y29297D01*
X523077Y30200D01*
X523375Y31181D01*
X523475Y32200D01*
X523375Y33219D01*
X523077Y34200D01*
X522595Y35103D01*
X521945Y35895D01*
X521248Y36466D01*
X521153Y37114D01*
Y37286D01*
X521248Y37934D01*
X521945Y38505D01*
X522328Y38972D01*
X522500D01*
X523335Y39082D01*
X524114Y39405D01*
X524782Y39918D01*
X530935Y46071D01*
X532292Y45631D01*
X532423Y45200D01*
X532905Y44297D01*
X533555Y43505D01*
X534347Y42855D01*
X535250Y42373D01*
X536231Y42075D01*
X537250Y41975D01*
X538269Y42075D01*
X539250Y42373D01*
X540153Y42855D01*
X540945Y43505D01*
X541595Y44297D01*
X542077Y45200D01*
X542375Y46181D01*
X542475Y47200D01*
X542416Y47801D01*
X562587Y67972D01*
X574750D01*
X575585Y68082D01*
X576364Y68405D01*
X577032Y68918D01*
X581532Y73418D01*
X581532Y73418D01*
X582045Y74086D01*
X582368Y74865D01*
X582478Y75700D01*
X582478Y75700D01*
Y78503D01*
X583748Y78972D01*
X583920Y78770D01*
X585081Y77778D01*
X586383Y76981D01*
X587793Y76396D01*
X589278Y76040D01*
X590800Y75920D01*
X592322Y76040D01*
X593807Y76396D01*
X595217Y76981D01*
X596519Y77778D01*
X597680Y78770D01*
X598672Y79931D01*
X599469Y81233D01*
X600054Y82643D01*
X600410Y84128D01*
X600530Y85650D01*
X600410Y87172D01*
X600054Y88657D01*
X599469Y90067D01*
X598672Y91369D01*
X597680Y92530D01*
X596519Y93522D01*
X595217Y94319D01*
X593807Y94904D01*
X592322Y95260D01*
X590800Y95380D01*
X589278Y95260D01*
X587793Y94904D01*
X586383Y94319D01*
X585081Y93522D01*
X583920Y92530D01*
X583748Y92328D01*
X582478Y92797D01*
Y103613D01*
X616032Y137168D01*
X616545Y137836D01*
X616868Y138615D01*
X616978Y139450D01*
Y208700D01*
X616868Y209535D01*
X616545Y210314D01*
X616032Y210982D01*
X580728Y246287D01*
Y270466D01*
X581998Y271051D01*
X582094Y270969D01*
X582927Y270459D01*
X583828Y270085D01*
X584777Y269857D01*
X585750Y269781D01*
X586723Y269857D01*
X587672Y270085D01*
X588573Y270459D01*
X589406Y270969D01*
X590148Y271602D01*
X590781Y272344D01*
X591291Y273177D01*
X591665Y274078D01*
X591893Y275027D01*
X591969Y276000D01*
X591893Y276973D01*
X591665Y277922D01*
X591291Y278823D01*
X590781Y279655D01*
X590148Y280398D01*
X589406Y281031D01*
X588573Y281541D01*
X587672Y281915D01*
X586723Y282143D01*
X585750Y282219D01*
X584777Y282143D01*
X583828Y281915D01*
X582927Y281541D01*
X582094Y281031D01*
X581998Y280949D01*
X580728Y281534D01*
Y285762D01*
X580618Y286598D01*
X580295Y287376D01*
X579782Y288045D01*
X537728Y330099D01*
Y338450D01*
X537618Y339285D01*
X537295Y340064D01*
X536782Y340732D01*
X530228Y347287D01*
Y359700D01*
X530118Y360535D01*
X529795Y361314D01*
X529282Y361982D01*
X528166Y363099D01*
X528225Y363700D01*
X528125Y364719D01*
X527827Y365700D01*
X527345Y366603D01*
X526695Y367395D01*
X525903Y368045D01*
X525000Y368527D01*
X524019Y368825D01*
X523000Y368925D01*
X521981Y368825D01*
X521000Y368527D01*
X520097Y368045D01*
X519305Y367395D01*
X518655Y366603D01*
X518172Y365700D01*
X517875Y364719D01*
X517872Y364688D01*
X516549Y364215D01*
X516532Y364232D01*
X515864Y364745D01*
X515085Y365068D01*
X514566Y365136D01*
X514257Y366048D01*
X514260Y366443D01*
X514945Y367005D01*
X515594Y367797D01*
X516077Y368700D01*
X516375Y369681D01*
X516475Y370700D01*
X516375Y371719D01*
X516077Y372700D01*
X515594Y373603D01*
X514945Y374395D01*
X514153Y375045D01*
X513250Y375527D01*
X512269Y375825D01*
X511250Y375925D01*
D02*
G37*
G36*
X114250Y379175D02*
X113231Y379075D01*
X112250Y378777D01*
X111347Y378295D01*
X110555Y377645D01*
X109905Y376853D01*
X109423Y375950D01*
X109125Y374969D01*
X109025Y373950D01*
X109125Y372931D01*
X109423Y371950D01*
X109905Y371047D01*
X110555Y370255D01*
X111347Y369605D01*
X112250Y369123D01*
X113231Y368825D01*
X114250Y368725D01*
X115269Y368825D01*
X116250Y369123D01*
X117153Y369605D01*
X117945Y370255D01*
X118595Y371047D01*
X119077Y371950D01*
X119375Y372931D01*
X119475Y373950D01*
X119375Y374969D01*
X119077Y375950D01*
X118595Y376853D01*
X117945Y377645D01*
X117153Y378295D01*
X116250Y378777D01*
X115269Y379075D01*
X114250Y379175D01*
D02*
G37*
G36*
X326250Y378925D02*
X325231Y378825D01*
X324250Y378527D01*
X323347Y378045D01*
X322555Y377395D01*
X321905Y376603D01*
X321704Y376227D01*
X320295D01*
X320095Y376603D01*
X319445Y377395D01*
X318653Y378045D01*
X317750Y378527D01*
X316769Y378825D01*
X315750Y378925D01*
X314731Y378825D01*
X313750Y378527D01*
X312847Y378045D01*
X312055Y377395D01*
X311405Y376603D01*
X311071Y375976D01*
X310422Y375832D01*
X310328D01*
X309679Y375976D01*
X309345Y376603D01*
X308695Y377395D01*
X307903Y378045D01*
X307000Y378527D01*
X306019Y378825D01*
X305000Y378925D01*
X303981Y378825D01*
X303000Y378527D01*
X302097Y378045D01*
X301305Y377395D01*
X300655Y376603D01*
X300173Y375700D01*
X299875Y374719D01*
X299775Y373700D01*
X299875Y372681D01*
X300173Y371700D01*
X300655Y370797D01*
X301305Y370005D01*
X302002Y369434D01*
X302097Y368786D01*
Y368614D01*
X302002Y367966D01*
X301305Y367395D01*
X300655Y366603D01*
X300173Y365700D01*
X299875Y364719D01*
X299775Y363700D01*
X299875Y362681D01*
X300173Y361700D01*
X300655Y360797D01*
X301305Y360005D01*
X302097Y359355D01*
X303000Y358873D01*
X303981Y358575D01*
X305000Y358475D01*
X306019Y358575D01*
X307000Y358873D01*
X307903Y359355D01*
X308695Y360005D01*
X309345Y360797D01*
X309679Y361423D01*
X310328Y361568D01*
X310422D01*
X311071Y361423D01*
X311405Y360797D01*
X312055Y360005D01*
X312847Y359355D01*
X313750Y358873D01*
X314731Y358575D01*
X315750Y358475D01*
X316769Y358575D01*
X317750Y358873D01*
X318653Y359355D01*
X319445Y360005D01*
X320095Y360797D01*
X320295Y361173D01*
X321704D01*
X321905Y360797D01*
X322555Y360005D01*
X323347Y359355D01*
X324250Y358873D01*
X325231Y358575D01*
X326250Y358475D01*
X327269Y358575D01*
X328250Y358873D01*
X329153Y359355D01*
X329945Y360005D01*
X330595Y360797D01*
X331077Y361700D01*
X331375Y362681D01*
X331475Y363700D01*
X331375Y364719D01*
X331077Y365700D01*
X330595Y366603D01*
X329945Y367395D01*
X329248Y367966D01*
X329153Y368614D01*
Y368786D01*
X329248Y369434D01*
X329945Y370005D01*
X330595Y370797D01*
X331077Y371700D01*
X331375Y372681D01*
X331475Y373700D01*
X331375Y374719D01*
X331077Y375700D01*
X330595Y376603D01*
X329945Y377395D01*
X329153Y378045D01*
X328250Y378527D01*
X327269Y378825D01*
X326250Y378925D01*
D02*
G37*
G36*
X182250Y387169D02*
X181277Y387093D01*
X180328Y386865D01*
X179427Y386491D01*
X178594Y385981D01*
X177852Y385348D01*
X177219Y384605D01*
X176709Y383773D01*
X176335Y382872D01*
X176107Y381923D01*
X176031Y380950D01*
X176107Y379977D01*
X176335Y379028D01*
X176709Y378126D01*
X177219Y377294D01*
X177852Y376552D01*
X178594Y375919D01*
X179427Y375409D01*
X180328Y375035D01*
X181277Y374807D01*
X182250Y374731D01*
X183223Y374807D01*
X184172Y375035D01*
X185073Y375409D01*
X185905Y375919D01*
X186648Y376552D01*
X187281Y377294D01*
X187791Y378126D01*
X188165Y379028D01*
X188393Y379977D01*
X188469Y380950D01*
X188393Y381923D01*
X188165Y382872D01*
X187791Y383773D01*
X187281Y384605D01*
X186648Y385348D01*
X185905Y385981D01*
X185073Y386491D01*
X184172Y386865D01*
X183223Y387093D01*
X182250Y387169D01*
D02*
G37*
G36*
X483500Y375925D02*
X482481Y375825D01*
X481500Y375527D01*
X480597Y375045D01*
X479805Y374395D01*
X479234Y373698D01*
X478586Y373603D01*
X478414D01*
X477766Y373698D01*
X477195Y374395D01*
X476403Y375045D01*
X475500Y375527D01*
X474519Y375825D01*
X473500Y375925D01*
X472481Y375825D01*
X471500Y375527D01*
X470597Y375045D01*
X469805Y374395D01*
X469155Y373603D01*
X468673Y372700D01*
X468375Y371719D01*
X468275Y370700D01*
X468375Y369681D01*
X468673Y368700D01*
X469155Y367797D01*
X469805Y367005D01*
X470597Y366355D01*
X471500Y365873D01*
X472481Y365575D01*
X473500Y365475D01*
X474519Y365575D01*
X475500Y365873D01*
X476403Y366355D01*
X477195Y367005D01*
X477766Y367702D01*
X478414Y367797D01*
X478586D01*
X479234Y367702D01*
X479805Y367005D01*
X480597Y366355D01*
X481500Y365873D01*
X482481Y365575D01*
X483500Y365475D01*
X484519Y365575D01*
X485500Y365873D01*
X486403Y366355D01*
X487195Y367005D01*
X487845Y367797D01*
X488327Y368700D01*
X488625Y369681D01*
X488725Y370700D01*
X488625Y371719D01*
X488327Y372700D01*
X487845Y373603D01*
X487195Y374395D01*
X486403Y375045D01*
X485500Y375527D01*
X484519Y375825D01*
X483500Y375925D01*
D02*
G37*
G36*
X270250Y362675D02*
X269231Y362575D01*
X268250Y362277D01*
X267347Y361795D01*
X266555Y361145D01*
X265195D01*
X264403Y361795D01*
X263500Y362277D01*
X262519Y362575D01*
X261500Y362675D01*
X260481Y362575D01*
X259500Y362277D01*
X258597Y361795D01*
X257805Y361145D01*
X257155Y360353D01*
X256673Y359450D01*
X256375Y358469D01*
X256275Y357450D01*
X256375Y356431D01*
X256673Y355450D01*
X257155Y354547D01*
X257805Y353755D01*
X258597Y353105D01*
X259500Y352623D01*
X260481Y352325D01*
X261500Y352225D01*
X262519Y352325D01*
X263500Y352623D01*
X264403Y353105D01*
X265195Y353755D01*
X266555D01*
X267347Y353105D01*
X268250Y352623D01*
X269231Y352325D01*
X270250Y352225D01*
X271269Y352325D01*
X272250Y352623D01*
X273153Y353105D01*
X273945Y353755D01*
X274594Y354547D01*
X275077Y355450D01*
X275375Y356431D01*
X275475Y357450D01*
X275375Y358469D01*
X275077Y359450D01*
X274594Y360353D01*
X273945Y361145D01*
X273153Y361795D01*
X272250Y362277D01*
X271269Y362575D01*
X270250Y362675D01*
D02*
G37*
G36*
X284250Y361669D02*
X283277Y361593D01*
X282328Y361365D01*
X281427Y360991D01*
X280594Y360481D01*
X279852Y359848D01*
X279219Y359105D01*
X278709Y358273D01*
X278335Y357372D01*
X278107Y356423D01*
X278031Y355450D01*
X278107Y354477D01*
X278335Y353528D01*
X278709Y352626D01*
X279219Y351794D01*
X279852Y351052D01*
X280594Y350419D01*
X281427Y349909D01*
X282328Y349535D01*
X283277Y349307D01*
X284250Y349231D01*
X285223Y349307D01*
X286172Y349535D01*
X287073Y349909D01*
X287906Y350419D01*
X288648Y351052D01*
X289281Y351794D01*
X289791Y352626D01*
X290165Y353528D01*
X290393Y354477D01*
X290469Y355450D01*
X290393Y356423D01*
X290165Y357372D01*
X289791Y358273D01*
X289281Y359105D01*
X288648Y359848D01*
X287906Y360481D01*
X287073Y360991D01*
X286172Y361365D01*
X285223Y361593D01*
X284250Y361669D01*
D02*
G37*
G36*
X569900Y377575D02*
X568139Y377476D01*
X566401Y377180D01*
X564706Y376692D01*
X563077Y376017D01*
X561534Y375164D01*
X560096Y374144D01*
X558781Y372969D01*
X557606Y371654D01*
X556586Y370216D01*
X555732Y368673D01*
X555058Y367043D01*
X554570Y365349D01*
X554274Y363611D01*
X554175Y361850D01*
X554274Y360089D01*
X554570Y358351D01*
X555058Y356656D01*
X555732Y355027D01*
X556586Y353484D01*
X557606Y352046D01*
X558781Y350731D01*
X560096Y349556D01*
X561534Y348535D01*
X563077Y347682D01*
X564706Y347008D01*
X566401Y346520D01*
X568139Y346224D01*
X569900Y346125D01*
X571661Y346224D01*
X573399Y346520D01*
X575093Y347008D01*
X576723Y347682D01*
X578266Y348535D01*
X579704Y349556D01*
X581019Y350731D01*
X582194Y352046D01*
X583214Y353484D01*
X584067Y355027D01*
X584742Y356656D01*
X585230Y358351D01*
X585526Y360089D01*
X585625Y361850D01*
X585526Y363611D01*
X585230Y365349D01*
X584742Y367043D01*
X584067Y368673D01*
X583214Y370216D01*
X582194Y371654D01*
X581019Y372969D01*
X579704Y374144D01*
X578266Y375164D01*
X576723Y376017D01*
X575093Y376692D01*
X573399Y377180D01*
X571661Y377476D01*
X569900Y377575D01*
D02*
G37*
G36*
X79900D02*
X78139Y377476D01*
X76401Y377180D01*
X74707Y376692D01*
X73077Y376017D01*
X71534Y375164D01*
X70096Y374144D01*
X68781Y372969D01*
X67606Y371654D01*
X66585Y370216D01*
X65732Y368673D01*
X65058Y367043D01*
X64570Y365349D01*
X64274Y363611D01*
X64175Y361850D01*
X64274Y360089D01*
X64570Y358351D01*
X65058Y356656D01*
X65732Y355027D01*
X66585Y353484D01*
X67606Y352046D01*
X68781Y350731D01*
X70096Y349556D01*
X71534Y348535D01*
X73077Y347682D01*
X74707Y347008D01*
X76401Y346520D01*
X78139Y346224D01*
X79900Y346125D01*
X81661Y346224D01*
X83399Y346520D01*
X85093Y347008D01*
X86723Y347682D01*
X88266Y348535D01*
X89704Y349556D01*
X91019Y350731D01*
X92194Y352046D01*
X93215Y353484D01*
X94067Y355027D01*
X94742Y356656D01*
X95231Y358351D01*
X95526Y360089D01*
X95625Y361850D01*
X95526Y363611D01*
X95231Y365349D01*
X94742Y367043D01*
X94067Y368673D01*
X93215Y370216D01*
X92194Y371654D01*
X91019Y372969D01*
X89704Y374144D01*
X88266Y375164D01*
X86723Y376017D01*
X85093Y376692D01*
X83399Y377180D01*
X81661Y377476D01*
X79900Y377575D01*
D02*
G37*
G36*
X348000Y361669D02*
X347027Y361593D01*
X346078Y361365D01*
X345177Y360991D01*
X344344Y360481D01*
X343602Y359848D01*
X342969Y359105D01*
X342459Y358273D01*
X342085Y357372D01*
X341857Y356423D01*
X341781Y355450D01*
X341857Y354477D01*
X342085Y353528D01*
X342459Y352626D01*
X342969Y351794D01*
X343602Y351052D01*
X344344Y350419D01*
X345177Y349909D01*
X346078Y349535D01*
X347027Y349307D01*
X348000Y349231D01*
X348973Y349307D01*
X349922Y349535D01*
X350823Y349909D01*
X351656Y350419D01*
X352398Y351052D01*
X353031Y351794D01*
X353541Y352626D01*
X353915Y353528D01*
X354143Y354477D01*
X354219Y355450D01*
X354143Y356423D01*
X353915Y357372D01*
X353541Y358273D01*
X353031Y359105D01*
X352398Y359848D01*
X351656Y360481D01*
X350823Y360991D01*
X349922Y361365D01*
X348973Y361593D01*
X348000Y361669D01*
D02*
G37*
G36*
X543750Y387919D02*
X542777Y387843D01*
X541828Y387615D01*
X540927Y387241D01*
X540094Y386731D01*
X539352Y386098D01*
X538719Y385355D01*
X538209Y384523D01*
X537835Y383622D01*
X537607Y382673D01*
X537531Y381700D01*
X537607Y380727D01*
X537835Y379778D01*
X538209Y378877D01*
X538719Y378045D01*
X539352Y377302D01*
X539718Y376990D01*
X539843Y376572D01*
Y375828D01*
X539718Y375410D01*
X539352Y375098D01*
X538719Y374356D01*
X538209Y373523D01*
X537835Y372622D01*
X537607Y371673D01*
X537531Y370700D01*
X537607Y369727D01*
X537835Y368778D01*
X538209Y367877D01*
X538719Y367044D01*
X539352Y366302D01*
X540094Y365669D01*
X540481Y365432D01*
X540576Y365179D01*
Y364221D01*
X540481Y363969D01*
X540094Y363731D01*
X539352Y363098D01*
X538719Y362355D01*
X538209Y361523D01*
X537835Y360622D01*
X537607Y359673D01*
X537531Y358700D01*
X537607Y357727D01*
X537835Y356778D01*
X538209Y355877D01*
X538719Y355045D01*
X539352Y354302D01*
X540094Y353669D01*
X540927Y353159D01*
X541828Y352785D01*
X542777Y352557D01*
X543750Y352481D01*
X544723Y352557D01*
X545672Y352785D01*
X546573Y353159D01*
X547406Y353669D01*
X548148Y354302D01*
X548781Y355045D01*
X549291Y355877D01*
X549665Y356778D01*
X549893Y357727D01*
X549969Y358700D01*
X549893Y359673D01*
X549665Y360622D01*
X549291Y361523D01*
X548781Y362355D01*
X548148Y363098D01*
X547406Y363731D01*
X547019Y363969D01*
X546924Y364221D01*
Y365179D01*
X547019Y365432D01*
X547406Y365669D01*
X548148Y366302D01*
X548781Y367044D01*
X549291Y367877D01*
X549665Y368778D01*
X549893Y369727D01*
X549969Y370700D01*
X549893Y371673D01*
X549665Y372622D01*
X549291Y373523D01*
X548781Y374356D01*
X548148Y375098D01*
X547782Y375410D01*
X547657Y375828D01*
Y376572D01*
X547782Y376990D01*
X548148Y377302D01*
X548781Y378045D01*
X549291Y378877D01*
X549665Y379778D01*
X549893Y380727D01*
X549969Y381700D01*
X549893Y382673D01*
X549665Y383622D01*
X549291Y384523D01*
X548781Y385355D01*
X548148Y386098D01*
X547406Y386731D01*
X546573Y387241D01*
X545672Y387615D01*
X544723Y387843D01*
X543750Y387919D01*
D02*
G37*
G36*
X204000Y362175D02*
X202981Y362075D01*
X202000Y361777D01*
X201097Y361295D01*
X200305Y360645D01*
X199655Y359853D01*
X199173Y358950D01*
X198875Y357969D01*
X198775Y356950D01*
X198875Y355931D01*
X199173Y354950D01*
X199655Y354047D01*
X200305Y353255D01*
X201097Y352605D01*
X202000Y352123D01*
X202981Y351825D01*
X204000Y351725D01*
X205019Y351825D01*
X206000Y352123D01*
X206903Y352605D01*
X207695Y353255D01*
X208345Y354047D01*
X208827Y354950D01*
X209125Y355931D01*
X209225Y356950D01*
X209125Y357969D01*
X208827Y358950D01*
X208345Y359853D01*
X207695Y360645D01*
X206903Y361295D01*
X206000Y361777D01*
X205019Y362075D01*
X204000Y362175D01*
D02*
G37*
G36*
X192000D02*
X190981Y362075D01*
X190000Y361777D01*
X189097Y361295D01*
X188305Y360645D01*
X187655Y359853D01*
X187173Y358950D01*
X186875Y357969D01*
X186775Y356950D01*
X186875Y355931D01*
X187173Y354950D01*
X187655Y354047D01*
X188305Y353255D01*
X189097Y352605D01*
X190000Y352123D01*
X190981Y351825D01*
X192000Y351725D01*
X193019Y351825D01*
X194000Y352123D01*
X194903Y352605D01*
X195695Y353255D01*
X196345Y354047D01*
X196827Y354950D01*
X197125Y355931D01*
X197225Y356950D01*
X197125Y357969D01*
X196827Y358950D01*
X196345Y359853D01*
X195695Y360645D01*
X194903Y361295D01*
X194000Y361777D01*
X193019Y362075D01*
X192000Y362175D01*
D02*
G37*
G36*
X375750Y302175D02*
X374731Y302075D01*
X373750Y301777D01*
X372847Y301294D01*
X372055Y300645D01*
X371405Y299853D01*
X370923Y298950D01*
X370625Y297969D01*
X370525Y296950D01*
X370625Y295931D01*
X370923Y294950D01*
X371405Y294047D01*
X372055Y293255D01*
X372847Y292605D01*
X373750Y292123D01*
X374731Y291825D01*
X375750Y291725D01*
X376769Y291825D01*
X377750Y292123D01*
X378653Y292605D01*
X379445Y293255D01*
X380095Y294047D01*
X380577Y294950D01*
X380875Y295931D01*
X380975Y296950D01*
X380875Y297969D01*
X380577Y298950D01*
X380095Y299853D01*
X379445Y300645D01*
X378653Y301294D01*
X377750Y301777D01*
X376769Y302075D01*
X375750Y302175D01*
D02*
G37*
G36*
X348250Y232169D02*
X347277Y232093D01*
X346328Y231865D01*
X345427Y231491D01*
X344594Y230981D01*
X343852Y230348D01*
X343219Y229606D01*
X342709Y228773D01*
X342651Y228635D01*
X341248Y228566D01*
X341095Y228853D01*
X340445Y229645D01*
X339653Y230295D01*
X338750Y230777D01*
X337769Y231075D01*
X336750Y231175D01*
X335731Y231075D01*
X334750Y230777D01*
X333847Y230295D01*
X333055Y229645D01*
X332405Y228853D01*
X331923Y227950D01*
X331625Y226969D01*
X331525Y225950D01*
X331625Y224931D01*
X331923Y223950D01*
X332405Y223047D01*
X333055Y222255D01*
X333847Y221605D01*
X334750Y221123D01*
X335731Y220825D01*
X336750Y220725D01*
X337769Y220825D01*
X338750Y221123D01*
X339653Y221605D01*
X340445Y222255D01*
X341095Y223047D01*
X341248Y223334D01*
X342651Y223265D01*
X342709Y223127D01*
X343219Y222294D01*
X343852Y221552D01*
X344594Y220919D01*
X345427Y220409D01*
X346328Y220035D01*
X347277Y219807D01*
X348250Y219731D01*
X349223Y219807D01*
X350172Y220035D01*
X351073Y220409D01*
X351906Y220919D01*
X352648Y221552D01*
X353281Y222294D01*
X353791Y223127D01*
X354165Y224028D01*
X354393Y224977D01*
X354469Y225950D01*
X354393Y226923D01*
X354165Y227872D01*
X353791Y228773D01*
X353281Y229606D01*
X352648Y230348D01*
X351906Y230981D01*
X351073Y231491D01*
X350172Y231865D01*
X349223Y232093D01*
X348250Y232169D01*
D02*
G37*
G36*
X467000Y231425D02*
X465981Y231325D01*
X465000Y231027D01*
X464097Y230544D01*
X463305Y229895D01*
X462655Y229103D01*
X462173Y228200D01*
X461875Y227219D01*
X461775Y226200D01*
X461875Y225181D01*
X462173Y224200D01*
X462655Y223297D01*
X463305Y222505D01*
X464097Y221855D01*
X465000Y221373D01*
X465981Y221075D01*
X467000Y220975D01*
X468019Y221075D01*
X469000Y221373D01*
X469903Y221855D01*
X470695Y222505D01*
X471345Y223297D01*
X471827Y224200D01*
X472125Y225181D01*
X472225Y226200D01*
X472125Y227219D01*
X471827Y228200D01*
X471345Y229103D01*
X470695Y229895D01*
X469903Y230544D01*
X469000Y231027D01*
X468019Y231325D01*
X467000Y231425D01*
D02*
G37*
G36*
X284500Y232419D02*
X283527Y232343D01*
X282578Y232115D01*
X281677Y231741D01*
X280844Y231231D01*
X280102Y230598D01*
X279469Y229855D01*
X278959Y229023D01*
X278585Y228122D01*
X278357Y227173D01*
X278281Y226200D01*
X278357Y225227D01*
X278585Y224278D01*
X278959Y223377D01*
X279469Y222544D01*
X280102Y221802D01*
X280844Y221169D01*
X281677Y220659D01*
X282578Y220285D01*
X283527Y220057D01*
X284500Y219981D01*
X285473Y220057D01*
X286422Y220285D01*
X287323Y220659D01*
X288155Y221169D01*
X288898Y221802D01*
X289531Y222544D01*
X289711Y222838D01*
X290028Y222959D01*
X291053Y222977D01*
X291223Y222910D01*
X291555Y222505D01*
X292347Y221855D01*
X293250Y221373D01*
X294231Y221075D01*
X295250Y220975D01*
X296269Y221075D01*
X297250Y221373D01*
X298153Y221855D01*
X298945Y222505D01*
X299595Y223297D01*
X300077Y224200D01*
X300375Y225181D01*
X300475Y226200D01*
X300375Y227219D01*
X300077Y228200D01*
X299595Y229103D01*
X298945Y229895D01*
X298153Y230544D01*
X297250Y231027D01*
X296269Y231325D01*
X295250Y231425D01*
X294231Y231325D01*
X293250Y231027D01*
X292347Y230544D01*
X291555Y229895D01*
X291223Y229490D01*
X291053Y229423D01*
X290028Y229441D01*
X289711Y229562D01*
X289531Y229855D01*
X288898Y230598D01*
X288155Y231231D01*
X287323Y231741D01*
X286422Y232115D01*
X285473Y232343D01*
X284500Y232419D01*
D02*
G37*
G36*
X155250Y242925D02*
X154231Y242825D01*
X153250Y242527D01*
X152347Y242045D01*
X151555Y241395D01*
X150905Y240603D01*
X150423Y239700D01*
X150125Y238719D01*
X150025Y237700D01*
X150125Y236681D01*
X150423Y235700D01*
X150905Y234797D01*
X151555Y234005D01*
X152347Y233355D01*
X153250Y232873D01*
X154231Y232575D01*
X155250Y232475D01*
X156269Y232575D01*
X157250Y232873D01*
X158153Y233355D01*
X158945Y234005D01*
X159595Y234797D01*
X160077Y235700D01*
X160375Y236681D01*
X160475Y237700D01*
X160375Y238719D01*
X160077Y239700D01*
X159595Y240603D01*
X158945Y241395D01*
X158153Y242045D01*
X157250Y242527D01*
X156269Y242825D01*
X155250Y242925D01*
D02*
G37*
G36*
X524500Y243875D02*
X523481Y243775D01*
X522500Y243477D01*
X521597Y242995D01*
X520805Y242345D01*
X520155Y241553D01*
X519673Y240650D01*
X519375Y239669D01*
X519275Y238650D01*
X519375Y237631D01*
X519673Y236650D01*
X520155Y235747D01*
X520805Y234955D01*
X521597Y234305D01*
X522500Y233823D01*
X523481Y233525D01*
X524500Y233425D01*
X525519Y233525D01*
X526500Y233823D01*
X527403Y234305D01*
X528195Y234955D01*
X528845Y235747D01*
X529327Y236650D01*
X529625Y237631D01*
X529725Y238650D01*
X529625Y239669D01*
X529327Y240650D01*
X528845Y241553D01*
X528195Y242345D01*
X527403Y242995D01*
X526500Y243477D01*
X525519Y243775D01*
X524500Y243875D01*
D02*
G37*
G36*
X270500Y234925D02*
X269481Y234825D01*
X268500Y234527D01*
X267597Y234044D01*
X266805Y233395D01*
X265445D01*
X264653Y234044D01*
X263750Y234527D01*
X262769Y234825D01*
X261750Y234925D01*
X260731Y234825D01*
X259750Y234527D01*
X258847Y234044D01*
X258055Y233395D01*
X257405Y232603D01*
X256923Y231700D01*
X256625Y230719D01*
X256525Y229700D01*
X256625Y228681D01*
X256923Y227700D01*
X257405Y226797D01*
X258055Y226005D01*
X258847Y225355D01*
X259750Y224872D01*
X260731Y224575D01*
X261750Y224475D01*
X262769Y224575D01*
X263750Y224872D01*
X264653Y225355D01*
X265445Y226005D01*
X266805D01*
X267597Y225355D01*
X268500Y224872D01*
X269481Y224575D01*
X270500Y224475D01*
X271519Y224575D01*
X272500Y224872D01*
X273403Y225355D01*
X274195Y226005D01*
X274845Y226797D01*
X275327Y227700D01*
X275625Y228681D01*
X275725Y229700D01*
X275625Y230719D01*
X275327Y231700D01*
X274845Y232603D01*
X274195Y233395D01*
X273403Y234044D01*
X272500Y234527D01*
X271519Y234825D01*
X270500Y234925D01*
D02*
G37*
G36*
X169250Y242925D02*
X168231Y242825D01*
X167250Y242527D01*
X166347Y242045D01*
X165555Y241395D01*
X164905Y240603D01*
X164423Y239700D01*
X164125Y238719D01*
X164025Y237700D01*
X164125Y236681D01*
X164423Y235700D01*
X164905Y234797D01*
X165555Y234005D01*
X166347Y233355D01*
X167250Y232873D01*
X168231Y232575D01*
X169250Y232475D01*
X170269Y232575D01*
X171250Y232873D01*
X172153Y233355D01*
X172945Y234005D01*
X173595Y234797D01*
X174077Y235700D01*
X174375Y236681D01*
X174475Y237700D01*
X174375Y238719D01*
X174077Y239700D01*
X173595Y240603D01*
X172945Y241395D01*
X172153Y242045D01*
X171250Y242527D01*
X170269Y242825D01*
X169250Y242925D01*
D02*
G37*
G36*
X539500Y231175D02*
X538481Y231075D01*
X537500Y230777D01*
X536597Y230295D01*
X535805Y229645D01*
X535155Y228853D01*
X534673Y227950D01*
X534375Y226969D01*
X534275Y225950D01*
X534375Y224931D01*
X534673Y223950D01*
X535155Y223047D01*
X535805Y222255D01*
X536597Y221605D01*
X537500Y221123D01*
X538481Y220825D01*
X539500Y220725D01*
X540519Y220825D01*
X541500Y221123D01*
X542403Y221605D01*
X543195Y222255D01*
X543845Y223047D01*
X544327Y223950D01*
X544625Y224931D01*
X544725Y225950D01*
X544625Y226969D01*
X544327Y227950D01*
X543845Y228853D01*
X543195Y229645D01*
X542403Y230295D01*
X541500Y230777D01*
X540519Y231075D01*
X539500Y231175D01*
D02*
G37*
G36*
X111250Y223975D02*
X110231Y223875D01*
X109250Y223577D01*
X108347Y223095D01*
X107555Y222445D01*
X106905Y221653D01*
X106423Y220750D01*
X106125Y219769D01*
X106025Y218750D01*
X106125Y217731D01*
X106423Y216750D01*
X106905Y215847D01*
X107555Y215055D01*
X108347Y214405D01*
X109250Y213923D01*
X110231Y213625D01*
X111250Y213525D01*
X112269Y213625D01*
X113250Y213923D01*
X114153Y214405D01*
X114945Y215055D01*
X115595Y215847D01*
X116077Y216750D01*
X116375Y217731D01*
X116475Y218750D01*
X116375Y219769D01*
X116077Y220750D01*
X115595Y221653D01*
X114945Y222445D01*
X114153Y223095D01*
X113250Y223577D01*
X112269Y223875D01*
X111250Y223975D01*
D02*
G37*
G36*
X551250Y226421D02*
X550199Y226338D01*
X549173Y226092D01*
X548199Y225688D01*
X547300Y225137D01*
X546498Y224452D01*
X545813Y223650D01*
X545262Y222751D01*
X544858Y221777D01*
X544612Y220751D01*
X544529Y219700D01*
X544612Y218649D01*
X544858Y217623D01*
X545262Y216649D01*
X545813Y215750D01*
X546498Y214948D01*
X547300Y214263D01*
X548199Y213712D01*
X549173Y213308D01*
X550199Y213062D01*
X551250Y212979D01*
X552301Y213062D01*
X553327Y213308D01*
X554301Y213712D01*
X555200Y214263D01*
X556002Y214948D01*
X556687Y215750D01*
X557238Y216649D01*
X557642Y217623D01*
X557888Y218649D01*
X557971Y219700D01*
X557888Y220751D01*
X557642Y221777D01*
X557238Y222751D01*
X556687Y223650D01*
X556002Y224452D01*
X555200Y225137D01*
X554301Y225688D01*
X553327Y226092D01*
X552301Y226338D01*
X551250Y226421D01*
D02*
G37*
G36*
X167250Y213425D02*
X166231Y213325D01*
X165250Y213027D01*
X164347Y212545D01*
X163555Y211895D01*
X162984Y211198D01*
X162336Y211103D01*
X162164D01*
X161516Y211198D01*
X160945Y211895D01*
X160153Y212545D01*
X159250Y213027D01*
X158269Y213325D01*
X157250Y213425D01*
X156231Y213325D01*
X155250Y213027D01*
X154347Y212545D01*
X153555Y211895D01*
X152905Y211103D01*
X152423Y210200D01*
X152125Y209219D01*
X152025Y208200D01*
X152125Y207181D01*
X152423Y206200D01*
X152905Y205297D01*
X153555Y204505D01*
X154347Y203855D01*
X155250Y203373D01*
X156231Y203075D01*
X157250Y202975D01*
X158269Y203075D01*
X159250Y203373D01*
X160153Y203855D01*
X160945Y204505D01*
X161516Y205202D01*
X162164Y205297D01*
X162336D01*
X162984Y205202D01*
X163555Y204505D01*
X164347Y203855D01*
X165250Y203373D01*
X166231Y203075D01*
Y201825D01*
X165250Y201527D01*
X164347Y201045D01*
X163555Y200395D01*
X162905Y199603D01*
X162423Y198700D01*
X162125Y197719D01*
X162025Y196700D01*
X162125Y195681D01*
X162423Y194700D01*
X162905Y193797D01*
X163555Y193005D01*
X164347Y192355D01*
X165250Y191873D01*
X166231Y191575D01*
X167250Y191475D01*
X168269Y191575D01*
X169250Y191873D01*
X170153Y192355D01*
X170945Y193005D01*
X171595Y193797D01*
X172077Y194700D01*
X172375Y195681D01*
X172475Y196700D01*
X172375Y197719D01*
X172077Y198700D01*
X171595Y199603D01*
X170945Y200395D01*
X170153Y201045D01*
X169250Y201527D01*
X168269Y201825D01*
Y203075D01*
X169250Y203373D01*
X170153Y203855D01*
X170945Y204505D01*
X171595Y205297D01*
X172077Y206200D01*
X172375Y207181D01*
X172475Y208200D01*
X172375Y209219D01*
X172077Y210200D01*
X171595Y211103D01*
X170945Y211895D01*
X170153Y212545D01*
X169250Y213027D01*
X168269Y213325D01*
X167250Y213425D01*
D02*
G37*
G36*
X567000Y227669D02*
X566027Y227593D01*
X565078Y227365D01*
X564177Y226991D01*
X563344Y226481D01*
X562602Y225848D01*
X561969Y225105D01*
X561459Y224273D01*
X561085Y223372D01*
X560857Y222423D01*
X560781Y221450D01*
X560857Y220477D01*
X561085Y219528D01*
X561459Y218626D01*
X561969Y217794D01*
X562602Y217052D01*
X563344Y216419D01*
X564177Y215909D01*
X565078Y215535D01*
X566027Y215307D01*
X567000Y215231D01*
X567973Y215307D01*
X568922Y215535D01*
X569823Y215909D01*
X570656Y216419D01*
X571398Y217052D01*
X572031Y217794D01*
X572541Y218626D01*
X572915Y219528D01*
X573143Y220477D01*
X573219Y221450D01*
X573143Y222423D01*
X572915Y223372D01*
X572541Y224273D01*
X572031Y225105D01*
X571398Y225848D01*
X570656Y226481D01*
X569823Y226991D01*
X568922Y227365D01*
X567973Y227593D01*
X567000Y227669D01*
D02*
G37*
G36*
X524500Y231175D02*
X523481Y231075D01*
X522500Y230777D01*
X521597Y230295D01*
X520805Y229645D01*
X520155Y228853D01*
X519673Y227950D01*
X519375Y226969D01*
X519275Y225950D01*
X519375Y224931D01*
X519673Y223950D01*
X520155Y223047D01*
X520805Y222255D01*
X521597Y221605D01*
X522500Y221123D01*
X523481Y220825D01*
X524500Y220725D01*
X525519Y220825D01*
X526500Y221123D01*
X527403Y221605D01*
X528195Y222255D01*
X528845Y223047D01*
X529327Y223950D01*
X529625Y224931D01*
X529725Y225950D01*
X529625Y226969D01*
X529327Y227950D01*
X528845Y228853D01*
X528195Y229645D01*
X527403Y230295D01*
X526500Y230777D01*
X525519Y231075D01*
X524500Y231175D01*
D02*
G37*
G36*
X507750D02*
X506731Y231075D01*
X505750Y230777D01*
X504847Y230295D01*
X504055Y229645D01*
X503405Y228853D01*
X502923Y227950D01*
X502625Y226969D01*
X502525Y225950D01*
X502625Y224931D01*
X502923Y223950D01*
X503405Y223047D01*
X504055Y222255D01*
X504847Y221605D01*
X505750Y221123D01*
X506731Y220825D01*
X507750Y220725D01*
X508769Y220825D01*
X509750Y221123D01*
X510653Y221605D01*
X511445Y222255D01*
X512095Y223047D01*
X512577Y223950D01*
X512875Y224931D01*
X512975Y225950D01*
X512875Y226969D01*
X512577Y227950D01*
X512095Y228853D01*
X511445Y229645D01*
X510653Y230295D01*
X509750Y230777D01*
X508769Y231075D01*
X507750Y231175D01*
D02*
G37*
G36*
X169250Y225925D02*
X168231Y225825D01*
X167250Y225527D01*
X166347Y225045D01*
X165555Y224395D01*
X164905Y223603D01*
X164423Y222700D01*
X164125Y221719D01*
X164025Y220700D01*
X164125Y219681D01*
X164423Y218700D01*
X164905Y217797D01*
X165555Y217005D01*
X166347Y216355D01*
X167250Y215873D01*
X168231Y215575D01*
X169250Y215475D01*
X170269Y215575D01*
X171250Y215873D01*
X172153Y216355D01*
X172945Y217005D01*
X173595Y217797D01*
X174077Y218700D01*
X174375Y219681D01*
X174475Y220700D01*
X174375Y221719D01*
X174077Y222700D01*
X173595Y223603D01*
X172945Y224395D01*
X172153Y225045D01*
X171250Y225527D01*
X170269Y225825D01*
X169250Y225925D01*
D02*
G37*
G36*
X539500Y243875D02*
X538481Y243775D01*
X537500Y243477D01*
X536597Y242995D01*
X535805Y242345D01*
X535155Y241553D01*
X534673Y240650D01*
X534375Y239669D01*
X534275Y238650D01*
X534375Y237631D01*
X534673Y236650D01*
X535155Y235747D01*
X535805Y234955D01*
X536597Y234305D01*
X537500Y233823D01*
X538481Y233525D01*
X539500Y233425D01*
X540519Y233525D01*
X541500Y233823D01*
X542403Y234305D01*
X543195Y234955D01*
X543845Y235747D01*
X544327Y236650D01*
X544625Y237631D01*
X544725Y238650D01*
X544625Y239669D01*
X544327Y240650D01*
X543845Y241553D01*
X543195Y242345D01*
X542403Y242995D01*
X541500Y243477D01*
X540519Y243775D01*
X539500Y243875D01*
D02*
G37*
G36*
X524500Y281975D02*
X523481Y281875D01*
X522500Y281577D01*
X521597Y281095D01*
X520805Y280445D01*
X520155Y279653D01*
X519673Y278750D01*
X519375Y277769D01*
X519275Y276750D01*
X519375Y275731D01*
X519673Y274750D01*
X520155Y273847D01*
X520805Y273055D01*
X521597Y272405D01*
X522500Y271923D01*
X523481Y271625D01*
X524500Y271525D01*
X525519Y271625D01*
X526500Y271923D01*
X527403Y272405D01*
X528195Y273055D01*
X528845Y273847D01*
X529327Y274750D01*
X529625Y275731D01*
X529725Y276750D01*
X529625Y277769D01*
X529327Y278750D01*
X528845Y279653D01*
X528195Y280445D01*
X527403Y281095D01*
X526500Y281577D01*
X525519Y281875D01*
X524500Y281975D01*
D02*
G37*
G36*
X455500Y283469D02*
X454527Y283393D01*
X453578Y283165D01*
X452677Y282791D01*
X451844Y282281D01*
X451102Y281648D01*
X450469Y280905D01*
X449959Y280073D01*
X449585Y279172D01*
X449357Y278223D01*
X449281Y277250D01*
X449357Y276277D01*
X449585Y275328D01*
X449959Y274427D01*
X450469Y273594D01*
X451102Y272852D01*
X451844Y272219D01*
X452677Y271709D01*
X453578Y271335D01*
X454527Y271107D01*
X455500Y271031D01*
X456473Y271107D01*
X457422Y271335D01*
X458323Y271709D01*
X459156Y272219D01*
X459898Y272852D01*
X460531Y273594D01*
X461041Y274427D01*
X461415Y275328D01*
X461643Y276277D01*
X461719Y277250D01*
X461643Y278223D01*
X461415Y279172D01*
X461041Y280073D01*
X460531Y280905D01*
X459898Y281648D01*
X459156Y282281D01*
X458323Y282791D01*
X457422Y283165D01*
X456473Y283393D01*
X455500Y283469D01*
D02*
G37*
G36*
X539500Y269275D02*
X538481Y269175D01*
X537500Y268877D01*
X536597Y268395D01*
X535805Y267745D01*
X535155Y266953D01*
X534673Y266050D01*
X534375Y265069D01*
X534275Y264050D01*
X534375Y263031D01*
X534673Y262050D01*
X535155Y261147D01*
X535805Y260355D01*
X536597Y259705D01*
X537500Y259223D01*
X538481Y258925D01*
X539500Y258825D01*
X540519Y258925D01*
X541500Y259223D01*
X542403Y259705D01*
X543195Y260355D01*
X543845Y261147D01*
X544327Y262050D01*
X544625Y263031D01*
X544725Y264050D01*
X544625Y265069D01*
X544327Y266050D01*
X543845Y266953D01*
X543195Y267745D01*
X542403Y268395D01*
X541500Y268877D01*
X540519Y269175D01*
X539500Y269275D01*
D02*
G37*
G36*
Y281975D02*
X538481Y281875D01*
X537500Y281577D01*
X536597Y281095D01*
X535805Y280445D01*
X535155Y279653D01*
X534673Y278750D01*
X534375Y277769D01*
X534275Y276750D01*
X534375Y275731D01*
X534673Y274750D01*
X535155Y273847D01*
X535805Y273055D01*
X536597Y272405D01*
X537500Y271923D01*
X538481Y271625D01*
X539500Y271525D01*
X540519Y271625D01*
X541500Y271923D01*
X542403Y272405D01*
X543195Y273055D01*
X543845Y273847D01*
X544327Y274750D01*
X544625Y275731D01*
X544725Y276750D01*
X544625Y277769D01*
X544327Y278750D01*
X543845Y279653D01*
X543195Y280445D01*
X542403Y281095D01*
X541500Y281577D01*
X540519Y281875D01*
X539500Y281975D01*
D02*
G37*
G36*
X362250Y302175D02*
X361231Y302075D01*
X360250Y301777D01*
X359347Y301294D01*
X358555Y300645D01*
X357905Y299853D01*
X357423Y298950D01*
X357125Y297969D01*
X357025Y296950D01*
X357125Y295931D01*
X357423Y294950D01*
X357905Y294047D01*
X358555Y293255D01*
X359347Y292605D01*
X360250Y292123D01*
X361231Y291825D01*
X362250Y291725D01*
X363269Y291825D01*
X364250Y292123D01*
X365153Y292605D01*
X365945Y293255D01*
X366595Y294047D01*
X367077Y294950D01*
X367375Y295931D01*
X367475Y296950D01*
X367375Y297969D01*
X367077Y298950D01*
X366595Y299853D01*
X365945Y300645D01*
X365153Y301294D01*
X364250Y301777D01*
X363269Y302075D01*
X362250Y302175D01*
D02*
G37*
G36*
X539500Y294675D02*
X538481Y294575D01*
X537500Y294277D01*
X536597Y293795D01*
X535805Y293145D01*
X535155Y292353D01*
X534673Y291450D01*
X534375Y290469D01*
X534275Y289450D01*
X534375Y288431D01*
X534673Y287450D01*
X535155Y286547D01*
X535805Y285755D01*
X536597Y285105D01*
X537500Y284623D01*
X538481Y284325D01*
X539500Y284225D01*
X540519Y284325D01*
X541500Y284623D01*
X542403Y285105D01*
X543195Y285755D01*
X543845Y286547D01*
X544327Y287450D01*
X544625Y288431D01*
X544725Y289450D01*
X544625Y290469D01*
X544327Y291450D01*
X543845Y292353D01*
X543195Y293145D01*
X542403Y293795D01*
X541500Y294277D01*
X540519Y294575D01*
X539500Y294675D01*
D02*
G37*
G36*
X524500D02*
X523481Y294575D01*
X522500Y294277D01*
X521597Y293795D01*
X520805Y293145D01*
X520155Y292353D01*
X519673Y291450D01*
X519375Y290469D01*
X519275Y289450D01*
X519375Y288431D01*
X519673Y287450D01*
X520155Y286547D01*
X520805Y285755D01*
X521597Y285105D01*
X522500Y284623D01*
X523481Y284325D01*
X524500Y284225D01*
X525519Y284325D01*
X526500Y284623D01*
X527403Y285105D01*
X528195Y285755D01*
X528845Y286547D01*
X529327Y287450D01*
X529625Y288431D01*
X529725Y289450D01*
X529625Y290469D01*
X529327Y291450D01*
X528845Y292353D01*
X528195Y293145D01*
X527403Y293795D01*
X526500Y294277D01*
X525519Y294575D01*
X524500Y294675D01*
D02*
G37*
G36*
Y269275D02*
X523481Y269175D01*
X522500Y268877D01*
X521597Y268395D01*
X520805Y267745D01*
X520155Y266953D01*
X519673Y266050D01*
X519375Y265069D01*
X519275Y264050D01*
X519375Y263031D01*
X519673Y262050D01*
X520155Y261147D01*
X520805Y260355D01*
X521597Y259705D01*
X522500Y259223D01*
X523481Y258925D01*
X524500Y258825D01*
X525519Y258925D01*
X526500Y259223D01*
X527403Y259705D01*
X528195Y260355D01*
X528845Y261147D01*
X529327Y262050D01*
X529625Y263031D01*
X529725Y264050D01*
X529625Y265069D01*
X529327Y266050D01*
X528845Y266953D01*
X528195Y267745D01*
X527403Y268395D01*
X526500Y268877D01*
X525519Y269175D01*
X524500Y269275D01*
D02*
G37*
G36*
Y256575D02*
X523481Y256475D01*
X522500Y256177D01*
X521597Y255695D01*
X520805Y255045D01*
X520155Y254253D01*
X519673Y253350D01*
X519375Y252369D01*
X519275Y251350D01*
X519375Y250331D01*
X519673Y249350D01*
X520155Y248447D01*
X520805Y247655D01*
X521597Y247005D01*
X522500Y246523D01*
X523481Y246225D01*
X524500Y246125D01*
X525519Y246225D01*
X526500Y246523D01*
X527403Y247005D01*
X528195Y247655D01*
X528845Y248447D01*
X529327Y249350D01*
X529625Y250331D01*
X529725Y251350D01*
X529625Y252369D01*
X529327Y253350D01*
X528845Y254253D01*
X528195Y255045D01*
X527403Y255695D01*
X526500Y256177D01*
X525519Y256475D01*
X524500Y256575D01*
D02*
G37*
G36*
X42750Y251425D02*
X41731Y251325D01*
X40750Y251027D01*
X39847Y250545D01*
X39055Y249895D01*
X38405Y249103D01*
X37923Y248200D01*
X37625Y247219D01*
X37525Y246200D01*
X37625Y245181D01*
X37923Y244200D01*
X38405Y243297D01*
X39055Y242505D01*
X39847Y241855D01*
X40750Y241373D01*
X41731Y241075D01*
X42750Y240975D01*
X43769Y241075D01*
X44750Y241373D01*
X45653Y241855D01*
X46445Y242505D01*
X47095Y243297D01*
X47577Y244200D01*
X47875Y245181D01*
X47975Y246200D01*
X47875Y247219D01*
X47577Y248200D01*
X47095Y249103D01*
X46445Y249895D01*
X45653Y250545D01*
X44750Y251027D01*
X43769Y251325D01*
X42750Y251425D01*
D02*
G37*
G36*
X402197Y249925D02*
X401178Y249825D01*
X400197Y249527D01*
X399294Y249045D01*
X398502Y248395D01*
X397853Y247603D01*
X397370Y246700D01*
X397072Y245719D01*
X396972Y244700D01*
X397072Y243681D01*
X397370Y242700D01*
X397853Y241797D01*
X398502Y241005D01*
X399294Y240355D01*
X400197Y239873D01*
X401178Y239575D01*
X402197Y239475D01*
X403217Y239575D01*
X404197Y239873D01*
X405100Y240355D01*
X405892Y241005D01*
X406542Y241797D01*
X407024Y242700D01*
X407322Y243681D01*
X407422Y244700D01*
X407322Y245719D01*
X407024Y246700D01*
X406542Y247603D01*
X405892Y248395D01*
X405100Y249045D01*
X404197Y249527D01*
X403217Y249825D01*
X402197Y249925D01*
D02*
G37*
G36*
X539500Y256575D02*
X538481Y256475D01*
X537500Y256177D01*
X536597Y255695D01*
X535805Y255045D01*
X535155Y254253D01*
X534673Y253350D01*
X534375Y252369D01*
X534275Y251350D01*
X534375Y250331D01*
X534673Y249350D01*
X535155Y248447D01*
X535805Y247655D01*
X536597Y247005D01*
X537500Y246523D01*
X538481Y246225D01*
X539500Y246125D01*
X540519Y246225D01*
X541500Y246523D01*
X542403Y247005D01*
X543195Y247655D01*
X543845Y248447D01*
X544327Y249350D01*
X544625Y250331D01*
X544725Y251350D01*
X544625Y252369D01*
X544327Y253350D01*
X543845Y254253D01*
X543195Y255045D01*
X542403Y255695D01*
X541500Y256177D01*
X540519Y256475D01*
X539500Y256575D01*
D02*
G37*
G36*
X507000Y267675D02*
X505981Y267575D01*
X505000Y267277D01*
X504097Y266795D01*
X503305Y266145D01*
X502655Y265353D01*
X502173Y264450D01*
X501875Y263469D01*
X501775Y262450D01*
X501875Y261431D01*
X502173Y260450D01*
X502655Y259547D01*
X503305Y258755D01*
X504097Y258105D01*
X505000Y257623D01*
X505981Y257325D01*
X507000Y257225D01*
X508019Y257325D01*
X509000Y257623D01*
X509903Y258105D01*
X510695Y258755D01*
X511345Y259547D01*
X511827Y260450D01*
X512125Y261431D01*
X512225Y262450D01*
X512125Y263469D01*
X511827Y264450D01*
X511345Y265353D01*
X510695Y266145D01*
X509903Y266795D01*
X509000Y267277D01*
X508019Y267575D01*
X507000Y267675D01*
D02*
G37*
G36*
X468000D02*
X466981Y267575D01*
X466000Y267277D01*
X465097Y266795D01*
X464305Y266145D01*
X463655Y265353D01*
X463173Y264450D01*
X462875Y263469D01*
X462775Y262450D01*
X462875Y261431D01*
X463173Y260450D01*
X463655Y259547D01*
X464305Y258755D01*
X465097Y258105D01*
X466000Y257623D01*
X466981Y257325D01*
X468000Y257225D01*
X469019Y257325D01*
X470000Y257623D01*
X470903Y258105D01*
X471695Y258755D01*
X472345Y259547D01*
X472827Y260450D01*
X473125Y261431D01*
X473225Y262450D01*
X473125Y263469D01*
X472827Y264450D01*
X472345Y265353D01*
X471695Y266145D01*
X470903Y266795D01*
X470000Y267277D01*
X469019Y267575D01*
X468000Y267675D01*
D02*
G37*
G36*
X202250Y254175D02*
X201231Y254075D01*
X200250Y253777D01*
X199347Y253295D01*
X198555Y252645D01*
X198424Y252485D01*
X198356Y252445D01*
X196894D01*
X196826Y252485D01*
X196695Y252645D01*
X195903Y253295D01*
X195000Y253777D01*
X194019Y254075D01*
X193000Y254175D01*
X191981Y254075D01*
X191000Y253777D01*
X190097Y253295D01*
X189305Y252645D01*
X188655Y251853D01*
X188172Y250950D01*
X187875Y249969D01*
X187775Y248950D01*
X187875Y247931D01*
X188172Y246950D01*
X188655Y246047D01*
X189305Y245255D01*
X190097Y244605D01*
X191000Y244123D01*
X191981Y243825D01*
X193000Y243725D01*
X194019Y243825D01*
X195000Y244123D01*
X195903Y244605D01*
X196695Y245255D01*
X196826Y245415D01*
X196894Y245455D01*
X198356D01*
X198424Y245415D01*
X198555Y245255D01*
X199347Y244605D01*
X200250Y244123D01*
X201231Y243825D01*
X202250Y243725D01*
X203269Y243825D01*
X204250Y244123D01*
X205153Y244605D01*
X205945Y245255D01*
X206595Y246047D01*
X207077Y246950D01*
X207375Y247931D01*
X207475Y248950D01*
X207375Y249969D01*
X207077Y250950D01*
X206595Y251853D01*
X205945Y252645D01*
X205153Y253295D01*
X204250Y253777D01*
X203269Y254075D01*
X202250Y254175D01*
D02*
G37*
%LPD*%
D31*
X151250Y190700D02*
Y197250D01*
X138750Y209750D02*
X151250Y197250D01*
X138750Y209750D02*
Y216200D01*
X153550Y257500D02*
X163300D01*
X133250Y237200D02*
X153550Y257500D01*
X64300Y243000D02*
X75750Y254450D01*
X55500Y243000D02*
X64300D01*
X47000Y234500D02*
X55500Y243000D01*
X70750Y176950D02*
X83000Y189200D01*
X45375Y297125D02*
Y299825D01*
X40250Y292000D02*
X45375Y297125D01*
X40250Y286950D02*
Y292000D01*
X551000Y70700D02*
Y95950D01*
X522500Y42200D02*
X551000Y70700D01*
X574750Y71200D02*
X579250Y75700D01*
X561250Y71200D02*
X574750D01*
X537250Y47200D02*
X561250Y71200D01*
X579250Y75700D02*
Y104950D01*
X613750Y139450D02*
Y208700D01*
X579250Y104950D02*
X613750Y139450D01*
X577500Y244950D02*
X613750Y208700D01*
X577500Y244950D02*
Y285762D01*
X520250Y343950D02*
X529250Y334950D01*
Y328200D02*
Y334950D01*
Y328200D02*
X568250Y289200D01*
X520250Y343950D02*
Y355950D01*
X568250Y244700D02*
Y289200D01*
X562750Y241950D02*
Y286385D01*
X524935Y324200D02*
X562750Y286385D01*
X515250Y324200D02*
X524935D01*
X590500Y209263D02*
Y222450D01*
X568250Y244700D02*
X590500Y222450D01*
X562750Y241950D02*
X581500Y223200D01*
Y197700D02*
Y223200D01*
X576250Y130200D02*
Y173700D01*
X505500Y59450D02*
X576250Y130200D01*
X505500Y51950D02*
Y59450D01*
X576250Y173700D02*
X583500Y180950D01*
X551000Y95950D02*
X581000Y125950D01*
Y169200D01*
X581500Y197700D02*
X587125Y192075D01*
X585750Y173950D02*
X591750D01*
X581000Y169200D02*
X585750Y173950D01*
X603750Y185450D02*
X613750D01*
X65500Y26200D02*
X76500Y15200D01*
X118250D01*
X122250Y49200D02*
X136000Y62950D01*
X143750D01*
X95750Y56450D02*
Y65200D01*
X118250Y15200D02*
X130500Y27450D01*
X84250Y105450D02*
Y138950D01*
X89000Y108700D02*
X96750Y100950D01*
X70750Y169700D02*
Y176950D01*
X33500Y186950D02*
X40000Y180450D01*
Y156950D02*
Y180450D01*
X64750Y86450D02*
X67500Y89200D01*
X500750Y47200D02*
X505500Y51950D01*
X494250Y47200D02*
X500750D01*
X518250Y42200D02*
X522500D01*
X505250Y334200D02*
X515250Y324200D01*
X505250Y334200D02*
Y345700D01*
X512625Y353075D01*
X489625Y358325D02*
X493250Y361950D01*
X514250D01*
X520250Y355950D01*
X140000Y171950D02*
X144000D01*
X47750Y278950D02*
Y280200D01*
X21500Y278950D02*
X22750Y280200D01*
X33500D01*
X40250Y286950D01*
X47750Y280200D02*
X56500Y288950D01*
X83000Y154950D02*
Y167950D01*
X96250Y181200D01*
Y225700D01*
X527000Y345950D02*
Y359700D01*
X523000Y363700D02*
X527000Y359700D01*
X351000Y168950D02*
X358000Y175950D01*
X382250D01*
X208250Y140700D02*
X261750D01*
X176500Y307200D02*
X208500Y339200D01*
X84250Y288950D02*
X90250Y294950D01*
X56500Y288950D02*
X84250D01*
X67500Y89200D02*
Y101450D01*
X70000Y103950D01*
X62250Y122950D02*
Y135450D01*
X60750Y136950D02*
X62250Y135450D01*
X18750Y194950D02*
Y195950D01*
X45375Y299825D02*
X57750Y312200D01*
X64500D01*
X71000Y305700D01*
Y302200D02*
Y305700D01*
Y302200D02*
X78250Y294950D01*
X79250D01*
X151250Y190700D02*
X157250Y184700D01*
X162750Y176700D02*
X168250Y171200D01*
X162750Y176700D02*
Y179200D01*
X157250Y184700D02*
X162750Y179200D01*
X149500Y92200D02*
X154250Y96950D01*
Y129950D01*
X111750Y142950D02*
X121250Y133450D01*
X89000Y108700D02*
Y135700D01*
X127500Y92200D02*
X149500D01*
X121250Y98450D02*
X127500Y92200D01*
X121250Y98450D02*
Y133450D01*
X96750Y100950D02*
X110750D01*
X125250Y86450D01*
X97250Y85700D02*
X116000D01*
X185750Y280700D02*
X191000Y275450D01*
X337500D01*
X111375Y294075D02*
X124500Y307200D01*
X176500D01*
X133250Y178700D02*
X140000Y171950D01*
X133250Y178700D02*
Y237200D01*
X138750Y216200D02*
X144000Y221450D01*
X144750D01*
X176500Y168950D02*
X351000D01*
X171250Y163700D02*
X176500Y168950D01*
X174500Y160450D02*
X443250D01*
X179750Y112200D02*
X208250Y140700D01*
X125250Y86450D02*
X163750D01*
X179750Y102450D01*
Y112200D01*
X443250Y160450D02*
X453250Y170450D01*
X89800Y78250D02*
X97250Y85700D01*
X70750Y169700D02*
X73750Y166700D01*
X86950Y74000D02*
X95750Y65200D01*
X170500Y271200D02*
X318800D01*
X334000Y256000D01*
X358050D01*
X337500Y275450D02*
X349250Y263700D01*
X144750Y264500D02*
X163800D01*
X170500Y271200D01*
X142500Y266750D02*
X144750Y264500D01*
X198050Y263700D02*
X204000D01*
X163300Y257500D02*
X171800Y266000D01*
X195750D01*
X198050Y263700D01*
X93250Y139950D02*
Y145250D01*
X89000Y135700D02*
X93250Y139950D01*
X84250Y138950D02*
X87250Y141950D01*
Y150700D01*
X83000Y154950D02*
X87250Y150700D01*
X73750Y144000D02*
Y166700D01*
Y144000D02*
X78250Y139500D01*
X70000Y103950D02*
Y126000D01*
X78250Y134250D01*
Y139500D01*
X55750Y114950D02*
Y168450D01*
X44000Y117500D02*
X51750Y125250D01*
Y133950D01*
X45750Y139950D02*
X51750Y133950D01*
X49000Y108200D02*
X55750Y114950D01*
X49000Y92750D02*
Y108200D01*
Y92750D02*
X63500Y78250D01*
X89800D01*
X44000Y91750D02*
Y117500D01*
Y91750D02*
X61750Y74000D01*
X86950D01*
X40000Y90000D02*
X56000Y74000D01*
X88750Y86450D02*
X90000Y87700D01*
Y99700D01*
X84250Y105450D02*
X90000Y99700D01*
X47000Y199500D02*
Y234500D01*
X40000Y90000D02*
Y122500D01*
X38000Y124500D02*
X40000Y122500D01*
X38000Y124500D02*
Y154950D01*
X40000Y156950D01*
X21750Y189500D02*
X30750Y198500D01*
Y199500D01*
X39750Y192250D02*
X47000Y199500D01*
X31000Y192250D02*
X39750D01*
X24750Y100300D02*
Y186000D01*
X31000Y192250D01*
X24750Y100300D02*
X31050Y94000D01*
X134750Y155000D02*
X140400Y149100D01*
X163150D01*
X174500Y160450D01*
X101250Y145250D02*
X119700Y163700D01*
X171250D01*
X83000Y261250D02*
Y262500D01*
X76500Y243500D02*
X88700Y255700D01*
X111450Y280700D02*
X185750D01*
X83000Y262500D02*
X84000D01*
X86500Y265000D01*
X96250Y225700D02*
X109750Y239200D01*
X102500Y254500D02*
X103500Y255500D01*
X105750Y275000D02*
X111450Y280700D01*
X103500Y255500D02*
Y263250D01*
X105750Y265500D01*
Y275000D01*
X83000Y189200D02*
Y234500D01*
X102125Y253625D01*
X103375D01*
X109750Y239200D02*
Y260750D01*
X115750Y266750D01*
X142500D01*
X596250Y181700D02*
Y203512D01*
X590500Y209263D02*
X596250Y203512D01*
X56000Y61500D02*
Y74000D01*
Y61500D02*
X68300Y49200D01*
X122250D01*
X154250Y129950D02*
X160800Y136500D01*
X183550D01*
X191000Y143950D01*
X597000Y180950D02*
X604000Y173950D01*
X583500Y180950D02*
X597000D01*
X30250Y321200D02*
X31250Y322200D01*
X21500Y247200D02*
X32625Y258325D01*
X86500Y269200D02*
X86500Y265000D01*
X86500Y269200D02*
X111375Y294075D01*
X30250Y295000D02*
Y323700D01*
Y295000D02*
X33000Y292250D01*
Y289950D02*
Y292250D01*
X534500Y328763D02*
X577500Y285762D01*
X534500Y328763D02*
Y338450D01*
X527000Y345950D02*
X534500Y338450D01*
X382250Y175950D02*
X390000Y168200D01*
X407250D01*
X439800Y200750D02*
X445250D01*
X407250Y168200D02*
X439800Y200750D01*
X419500Y315700D02*
X430050Y326250D01*
X444750D01*
X358050Y256000D02*
X361550Y259500D01*
X369700D01*
X419500Y242000D02*
Y315700D01*
Y242000D02*
X453250Y208250D01*
Y170450D02*
Y208250D01*
X386700Y352700D02*
X470500D01*
X336825Y331000D02*
X365000D01*
X386700Y352700D01*
X208500Y339200D02*
X328625D01*
X336825Y331000D01*
X55750Y168450D02*
X69750Y182450D01*
Y225750D01*
X76500Y232500D01*
Y243500D01*
X15000Y189500D02*
X21750D01*
X130500Y27450D02*
Y40000D01*
X18750Y331000D02*
X68700D01*
X76750Y322950D01*
X65500Y26200D02*
Y35000D01*
X23500Y64000D02*
X36500D01*
X65500Y35000D01*
X8250Y79250D02*
X23500Y64000D01*
X8250Y79250D02*
Y182750D01*
X15000Y189500D01*
X7750Y206950D02*
X18750Y195950D01*
X7750Y206950D02*
Y320000D01*
X18750Y331000D01*
D43*
X643000Y63200D02*
D03*
X6500Y337700D02*
D03*
X6750Y62700D02*
D03*
X583500Y392950D02*
D03*
X643250Y318700D02*
D03*
X214000Y6450D02*
D03*
X569750D02*
D03*
X59000D02*
D03*
X90500Y22950D02*
D03*
X589500Y264750D02*
D03*
X604000Y173950D02*
D03*
Y185450D02*
D03*
X591750Y173950D02*
D03*
X191000Y143700D02*
D03*
X68000Y392950D02*
D03*
X597250Y109950D02*
D03*
X627750Y310700D02*
D03*
X99500Y347700D02*
D03*
X402250Y138250D02*
D03*
X132000Y101700D02*
D03*
X349250Y263700D02*
D03*
X132500Y350200D02*
D03*
X147750Y271750D02*
D03*
X205000Y263700D02*
D03*
X30750Y199500D02*
D03*
X445250Y200750D02*
D03*
X444750Y326250D02*
D03*
X261500Y137000D02*
D03*
X369700Y259500D02*
D03*
X350750Y88500D02*
D03*
X469000Y208750D02*
D03*
X349000Y339000D02*
D03*
D44*
X109750Y259750D02*
D03*
X38250Y298500D02*
D03*
X47750Y291000D02*
D03*
X33500Y291500D02*
D03*
X115750Y27750D02*
D03*
X524500Y276750D02*
D03*
Y289450D02*
D03*
X539500D02*
D03*
Y276750D02*
D03*
Y264050D02*
D03*
X524500D02*
D03*
Y251350D02*
D03*
X539500D02*
D03*
Y238650D02*
D03*
X524500D02*
D03*
Y225950D02*
D03*
X539500D02*
D03*
Y213250D02*
D03*
X524500D02*
D03*
Y200550D02*
D03*
X539500D02*
D03*
Y187850D02*
D03*
X524500D02*
D03*
Y175150D02*
D03*
X539500D02*
D03*
Y162450D02*
D03*
X524500D02*
D03*
Y149750D02*
D03*
X539500D02*
D03*
X524500Y124350D02*
D03*
Y137050D02*
D03*
X539500D02*
D03*
Y124350D02*
D03*
Y111650D02*
D03*
X524500D02*
D03*
X587250Y192200D02*
D03*
X107500Y122700D02*
D03*
X97500D02*
D03*
X165750Y36950D02*
D03*
X99500Y32450D02*
D03*
X125750Y62700D02*
D03*
X143750Y62950D02*
D03*
X116750Y253950D02*
D03*
X316625Y312450D02*
D03*
X337250D02*
D03*
X296000D02*
D03*
X144750Y213200D02*
D03*
X114750Y206950D02*
D03*
X144750Y221450D02*
D03*
X155250Y237700D02*
D03*
X169250D02*
D03*
Y220700D02*
D03*
X76250Y222200D02*
D03*
X89250Y199450D02*
D03*
X112500Y175950D02*
D03*
X155250Y220700D02*
D03*
X77500Y124950D02*
D03*
X202250Y248950D02*
D03*
X193000D02*
D03*
X164250Y274200D02*
D03*
X114250Y310700D02*
D03*
X113750Y274200D02*
D03*
X475500Y176450D02*
D03*
X466500D02*
D03*
X467000Y226200D02*
D03*
X507750Y225950D02*
D03*
X507000Y262450D02*
D03*
X468000D02*
D03*
X476000Y311700D02*
D03*
X466750D02*
D03*
X498250D02*
D03*
X506500D02*
D03*
X295250Y226200D02*
D03*
X336750Y225950D02*
D03*
X401947Y372450D02*
D03*
X231447Y281450D02*
D03*
X231697Y153700D02*
D03*
X402197Y244700D02*
D03*
X375750Y296950D02*
D03*
X362250D02*
D03*
X270250Y357450D02*
D03*
X261500D02*
D03*
X114000Y335950D02*
D03*
X114250Y373950D02*
D03*
X441500Y296950D02*
D03*
X430250D02*
D03*
X204000Y356950D02*
D03*
X192000D02*
D03*
X164500Y337200D02*
D03*
X164000Y373700D02*
D03*
X376000Y169200D02*
D03*
X362500D02*
D03*
X270500Y229700D02*
D03*
X261750D02*
D03*
X441750Y169200D02*
D03*
X430500D02*
D03*
X507750Y176450D02*
D03*
X498000D02*
D03*
X336750Y262450D02*
D03*
X295500Y262200D02*
D03*
X337250Y175950D02*
D03*
X295500D02*
D03*
X72750Y67450D02*
D03*
X168000Y63200D02*
D03*
X105000Y56450D02*
D03*
X121750Y40000D02*
D03*
X109750Y40700D02*
D03*
X62250Y145600D02*
D03*
X66750Y162700D02*
D03*
X76750Y173950D02*
D03*
X77500Y84450D02*
D03*
X85500Y64950D02*
D03*
X64750Y86450D02*
D03*
X88750D02*
D03*
X62250Y108950D02*
D03*
Y122950D02*
D03*
X95750Y56450D02*
D03*
X80500Y28450D02*
D03*
X29500Y226950D02*
D03*
X47750Y280450D02*
D03*
X39000Y266450D02*
D03*
X21500Y280450D02*
D03*
X21000Y258950D02*
D03*
X33500D02*
D03*
X29450Y272950D02*
D03*
X47500Y312450D02*
D03*
X21250Y290950D02*
D03*
Y312450D02*
D03*
X322500Y348200D02*
D03*
X308500D02*
D03*
X513000Y352700D02*
D03*
Y342700D02*
D03*
X489500Y347700D02*
D03*
Y357700D02*
D03*
X470500Y352700D02*
D03*
Y342700D02*
D03*
X489500Y337700D02*
D03*
X537250Y37450D02*
D03*
X494250Y27200D02*
D03*
Y37200D02*
D03*
X475000Y42200D02*
D03*
X494250Y47200D02*
D03*
X537250D02*
D03*
X475000Y32200D02*
D03*
X518250D02*
D03*
Y42200D02*
D03*
X442250Y46200D02*
D03*
X431000D02*
D03*
X363000D02*
D03*
X376500D02*
D03*
X465250Y85200D02*
D03*
X498250D02*
D03*
X508000D02*
D03*
X473250D02*
D03*
X271000Y106700D02*
D03*
X262250D02*
D03*
X402750Y121950D02*
D03*
X337250Y84950D02*
D03*
X296000Y84700D02*
D03*
X337000Y134950D02*
D03*
X296000D02*
D03*
X232197Y30700D02*
D03*
X192750Y106200D02*
D03*
X204750D02*
D03*
X507000Y134950D02*
D03*
X466750Y134700D02*
D03*
X129250Y80200D02*
D03*
X167250Y79950D02*
D03*
X129500Y129950D02*
D03*
X166000D02*
D03*
X100250Y78700D02*
D03*
X78250Y106950D02*
D03*
X33500Y176950D02*
D03*
X169000Y170950D02*
D03*
X155000D02*
D03*
X144000Y171950D02*
D03*
Y180200D02*
D03*
X111750Y142950D02*
D03*
X33250Y164950D02*
D03*
X522750Y331950D02*
D03*
X93750Y322950D02*
D03*
X76750D02*
D03*
X523000Y363700D02*
D03*
X534750Y351450D02*
D03*
X69000Y282950D02*
D03*
Y272950D02*
D03*
X34000Y237200D02*
D03*
X45000Y151200D02*
D03*
X42750Y246200D02*
D03*
X55750Y253450D02*
D03*
X144250Y194700D02*
D03*
X306500Y33700D02*
D03*
X317250D02*
D03*
X328000D02*
D03*
Y43700D02*
D03*
X317250D02*
D03*
X306500D02*
D03*
X315750Y373700D02*
D03*
X326250D02*
D03*
Y363700D02*
D03*
X315750D02*
D03*
X305000D02*
D03*
Y373700D02*
D03*
X483500Y370700D02*
D03*
X473500D02*
D03*
X501250D02*
D03*
X511250D02*
D03*
X487250Y56950D02*
D03*
X497250D02*
D03*
X515000D02*
D03*
X525000D02*
D03*
X39300Y72200D02*
D03*
X49300D02*
D03*
X83750Y96700D02*
D03*
X73750D02*
D03*
X18800Y94000D02*
D03*
X31000Y118950D02*
D03*
X18750Y116450D02*
D03*
Y126450D02*
D03*
X31000Y144700D02*
D03*
X18750D02*
D03*
X31000Y154700D02*
D03*
X18750D02*
D03*
Y170450D02*
D03*
Y180450D02*
D03*
X18750Y195950D02*
D03*
Y205950D02*
D03*
X18750Y222700D02*
D03*
Y232700D02*
D03*
X30500Y247200D02*
D03*
X157250Y250200D02*
D03*
X167250D02*
D03*
Y208200D02*
D03*
X157250D02*
D03*
Y196700D02*
D03*
Y184450D02*
D03*
X167250D02*
D03*
Y196700D02*
D03*
X97500Y111200D02*
D03*
X107500D02*
D03*
Y134200D02*
D03*
X97500D02*
D03*
X61750Y136700D02*
D03*
X71750D02*
D03*
X20250Y323700D02*
D03*
X61250Y306200D02*
D03*
Y296200D02*
D03*
X79250Y294950D02*
D03*
X90250D02*
D03*
Y304950D02*
D03*
X79250D02*
D03*
Y279950D02*
D03*
Y269950D02*
D03*
X45750Y139950D02*
D03*
X31050Y94000D02*
D03*
Y104000D02*
D03*
X116250Y85450D02*
D03*
X164250Y287450D02*
D03*
Y296200D02*
D03*
X93250Y145250D02*
D03*
X81250Y146000D02*
D03*
X45750Y129750D02*
D03*
X33500Y186250D02*
D03*
X18750Y104000D02*
D03*
X144750Y229450D02*
D03*
X153500Y155100D02*
D03*
X144250D02*
D03*
X134750D02*
D03*
X76750Y255500D02*
D03*
X70750Y263000D02*
D03*
X63000Y258000D02*
D03*
X83000Y261250D02*
D03*
X89250Y256250D02*
D03*
X101250Y145250D02*
D03*
X102500Y254500D02*
D03*
X97500Y265250D02*
D03*
X111250Y218750D02*
D03*
X124750Y143450D02*
D03*
X20500Y247200D02*
D03*
X30250Y323700D02*
D03*
X130500Y40000D02*
D03*
D46*
X652875Y200050D02*
D03*
D47*
X325500Y-2000D02*
D03*
X325000Y401750D02*
D03*
D48*
X639500Y373625D02*
D03*
X639750Y26125D02*
D03*
X11250Y373625D02*
D03*
X12500Y26125D02*
D03*
D49*
X623875Y387000D02*
D03*
X623625Y12250D02*
D03*
X25875Y386750D02*
D03*
X26125Y12250D02*
D03*
D50*
X-1375Y348250D02*
D03*
D51*
X-3125Y57625D02*
D03*
D52*
X585875Y393250D02*
D03*
X65875Y393000D02*
D03*
D53*
X643000Y61125D02*
D03*
X6500Y57625D02*
D03*
X3000Y60375D02*
D03*
X58750Y3875D02*
D03*
D55*
X31250Y31200D02*
D03*
Y368500D02*
D03*
X618550D02*
D03*
Y31200D02*
D03*
M02*
