M48
;Layer_Color=9474304
;FILE_FORMAT=4:4
METRIC,LZ
;TYPE=PLATED
T1F00S00C0.3000
T2F00S00C0.4000
;TYPE=NON_PLATED
%
T01
X00409Y-003315
X00409Y-003225
X00419
X00419Y-003315
X0043325
Y-003225
X0044325
Y-003315
X004645Y-0033675
X004845
X00503
X00523
Y-00316375
X00503
X004845
X004645
Y-00296
X004845
X00503
X00523
Y-00275625
X00503
X004845
X004645
X00503Y-0025525
X00523
X0054975Y-0026
Y-0027
Y-0028
Y-0029
Y-003
Y-0031
Y-0032
Y-0033
Y-0034
Y-0025
X00555Y-00205
Y-00195
Y-00185
Y-00175
Y-00165
Y-00155
Y-00145
Y-00135
Y-00125
Y-00115
X0063
Y-00125
Y-00135
Y-00145
Y-00155
Y-00165
Y-00175
Y-00185
Y-00195
Y-00205
X0063355Y-0025
Y-0026
Y-0027
Y-0028
Y-0029
Y-003
Y-0031
Y-0032
Y-0033
Y-0034
Y000973
Y001073
Y001173
Y001273
Y001373
Y001473
Y001573
Y001673
Y001773
Y001873
Y002323
Y002423
Y002523
Y002623
Y002723
Y002823
Y002923
Y003023
Y003123
Y003223
X0054975
X0055Y003125
Y003025
Y002925
X0054975Y002823
Y002723
Y002623
Y002523
Y002423
Y002323
Y001873
Y001773
Y001673
Y001573
Y001473
Y001373
Y001273
Y001173
Y001073
Y000973
X0052475Y000995
X0050475
X0048525
X0046525
Y00120063
X0048525
X0050475
X0052475
Y00140625
X0050475
X0048525
X0046525
Y00161187
X0048525
X0050475
X0052475
Y0018175
X0050475
X002165Y00185
Y00195
X00204Y00197
Y00183
X00187
Y00197
X0017475Y00195
Y00185
X0019575Y0020675
T02
X-00072Y-0033975
X-0002Y-0031375
Y-0029875
Y-0028375
Y-0026875
Y-0025375
Y-0023875
X00015Y-00259
Y-00274
X00015Y-0029575
Y-0031075
X00077Y-004145
X-00072Y-0021275
Y-0018175
X00174Y-004145
X0021
X00236Y-003625
X00251
X00281
X00296
X00397Y-004145
X0042725
X0045325Y-003625
X0046825
X0051325
X0052825
X0054325
X0041725Y-00303
X0040225
X006705Y-003005
X006855
Y-0027125
X006705
Y-0033025
X006855
X006855Y-0036
X006705
X007105
X007255
X0056925Y-004145
X0066975Y00217404
X0068475Y00217365
X0068475Y0023825
X0066975Y00238058
X0002175Y0027175
Y0028675
Y0030475
Y0031975
X-0002Y00323
Y00308
Y00293
Y00278
Y00263
Y00248
X-00072Y00222
Y0019025
X-0002Y0016425
Y0014925
Y0013425
Y0011925
Y0010425
Y0008925
Y0007425
Y0005925
X-00072Y0003325
Y0000525
Y00349
X00101Y0036325
X00116
X00131
X00075Y0041525
X00217
X00191Y0036325
X00176
X0030225Y0041525
X0042925
X00478
X00575
M30
