%
M48
M72
T01C0.0118
T02C0.0138
T03C0.0236
T04C0.0329
T05C0.0335
T06C0.0394
T07C0.1496
%
T01
X19345Y19072
X22440Y18979
X22979Y19677
X23373Y19244
T02
X13906Y19541
X13437Y19541
X9873Y19635
X9873Y20104
X9873Y19166
X3496Y18979
X3496Y19447
X3496Y19916
X3496Y18510
X3496Y18041
X3496Y17572
T03
X1743Y6472
X1695Y11839
X1695Y17717
X1695Y23457
X1695Y28402
X1652Y33303
X11207Y38575
X27743Y38535
X36983Y33398
X37030Y28126
X37125Y23039
X37077Y17256
X37073Y11886
X37073Y6331
X27703Y937
X11168Y937
T04
X24409Y19166
X25722Y20104
T05
X15500Y20104
T06
X15577Y21409
X14790Y22197
X15577Y22984
X14790Y23772
X15577Y24559
X14790Y25346
X15577Y26134
X14790Y26921
X15577Y27709
X14790Y28496
X15577Y29283
X16365Y28496
X17152Y27709
X17940Y28496
X18727Y27709
X19514Y28496
X18727Y29283
X19514Y30071
X18727Y30858
X17940Y30071
X17152Y30858
X16365Y30071
X17152Y29283
X15577Y30858
X14790Y30071
X14003Y29283
X13215Y28496
X12428Y27709
X11640Y28496
X10566Y28496
X10853Y27709
X10566Y26921
X10853Y26134
X10566Y25346
X10853Y24559
X10566Y23772
X10853Y22984
X10566Y22197
X10853Y21409
X11640Y22197
X12428Y22984
X13215Y22197
X14003Y22984
X13215Y23772
X12428Y24559
X13215Y25346
X14003Y24559
X14003Y26134
X13215Y26921
X12428Y26134
X11640Y26921
X11640Y25346
X11640Y23772
X12428Y21409
X14003Y21409
X16365Y22197
X17152Y22984
X17940Y22197
X18727Y22984
X19514Y22197
X18727Y21409
X20302Y21409
X21089Y22197
X20302Y22984
X21089Y23772
X20302Y24559
X21089Y25346
X21877Y24559
X22664Y23772
X23451Y24559
X22664Y25346
X23451Y26134
X22664Y26921
X21877Y26134
X21089Y26921
X20302Y26134
X19514Y26921
X18727Y26134
X17940Y26921
X17152Y26134
X16365Y26921
X16365Y25346
X17152Y24559
X16365Y23772
X17940Y23772
X18727Y24559
X19514Y23772
X19514Y25346
X17940Y25346
X20302Y27709
X21089Y28496
X20302Y29283
X21089Y30071
X20302Y30858
X21089Y31646
X21877Y30858
X22664Y30071
X23451Y30858
X22664Y31646
X24239Y30071
X25026Y29283
X24239Y28496
X25026Y27709
X25814Y28496
X26601Y27709
X27388Y28496
X26601Y29283
X27388Y30071
X28176Y29283
X28463Y28496
X28176Y27709
X28463Y26921
X28176Y26134
X28463Y25346
X28176Y24559
X28463Y23772
X28176Y22984
X28463Y22197
X28176Y21409
X27388Y22197
X26601Y22984
X25814Y22197
X26601Y21409
X25026Y21409
X24239Y22197
X25026Y22984
X24239Y23772
X25026Y24559
X24239Y25346
X25026Y26134
X24239Y26921
X23451Y27709
X22664Y28496
X21877Y27709
X21877Y29283
X23451Y29283
X25814Y30071
X28463Y30071
X27388Y26921
X26601Y26134
X25814Y26921
X25814Y25346
X26601Y24559
X27388Y23772
X27388Y25346
X25814Y23772
X23451Y22984
X22664Y22197
X21877Y22984
X21877Y21409
X23451Y21409
X23451Y17906
X22664Y17118
X23451Y16331
X22664Y15543
X23451Y14756
X22664Y13969
X21877Y14756
X21089Y15543
X20302Y14756
X21089Y13969
X20302Y13181
X21089Y12394
X21877Y13181
X22664Y12394
X23451Y13181
X24239Y12394
X25026Y13181
X24239Y13969
X25026Y14756
X24239Y15543
X25026Y16331
X24239Y17118
X25026Y17906
X25814Y17118
X26601Y16331
X27388Y17118
X26601Y17906
X28176Y17906
X28463Y17118
X28176Y16331
X28463Y15543
X28176Y14756
X28463Y13969
X28176Y13181
X28463Y12394
X28176Y11606
X28463Y10819
X28176Y10031
X27388Y9244
X26601Y10031
X25814Y9244
X25026Y10031
X24239Y9244
X23451Y8457
X22664Y9244
X21877Y8457
X22664Y7669
X21089Y7669
X20302Y8457
X21089Y9244
X20302Y10031
X19514Y9244
X18727Y8457
X17940Y9244
X18727Y10031
X19514Y10819
X18727Y11606
X17940Y10819
X17152Y11606
X16365Y10819
X17152Y10031
X16365Y9244
X17152Y8457
X16365Y7669
X15577Y8457
X14790Y9244
X15577Y10031
X14790Y10819
X15577Y11606
X14790Y12394
X15577Y13181
X14790Y13969
X15577Y14756
X14790Y15543
X15577Y16331
X14790Y17118
X15577Y17906
X16365Y17118
X17152Y16331
X17940Y17118
X18727Y16331
X19514Y17118
X18727Y17906
X20302Y17906
X21089Y17118
X20302Y16331
X19514Y15543
X18727Y14756
X17940Y15543
X17152Y14756
X16365Y15543
X16365Y13969
X17152Y13181
X16365Y12394
X17940Y12394
X18727Y13181
X19514Y12394
X20302Y11606
X21089Y10819
X21877Y11606
X22664Y10819
X23451Y11606
X24239Y10819
X25026Y11606
X25814Y10819
X26601Y11606
X27388Y10819
X27388Y12394
X26601Y13181
X25814Y12394
X25814Y13969
X26601Y14756
X27388Y15543
X25814Y15543
X27388Y13969
X23451Y10031
X21877Y10031
X19514Y7669
X17940Y7669
X14003Y10031
X13215Y9244
X12428Y10031
X11640Y9244
X10566Y9244
X10853Y10031
X10566Y10819
X10853Y11606
X10566Y12394
X10853Y13181
X10566Y13969
X10853Y14756
X10566Y15543
X10853Y16331
X10566Y17118
X10853Y17906
X11640Y17118
X12428Y16331
X13215Y17118
X12428Y17906
X14003Y17906
X14003Y16331
X13215Y15543
X12428Y14756
X13215Y13969
X14003Y14756
X14003Y13181
X13215Y12394
X12428Y13181
X11640Y12394
X12428Y11606
X13215Y10819
X14003Y11606
X11640Y10819
X11640Y13969
X11640Y15543
X17152Y17906
X17152Y21409
X21877Y17906
X21877Y16331
X19514Y13969
X17940Y13969
X14003Y27709
X12428Y29283
X13215Y30071
X11640Y30071
X10853Y29283
X16365Y31646
X17940Y31646
X19514Y31646
T07
X29199Y37827
X9751Y37827
X9751Y1764
X29199Y1764
M30
