M48
;Layer_Color=9474304
;FILE_FORMAT=2:5
INCH,LZ
;TYPE=PLATED
T1F00S00C0.00394
;TYPE=NON_PLATED
%
T01
X-0025Y-0142028
X-0023031
X-0004528Y-0131791
X-0002559
Y-0125886
X-0004528
Y-011998
X-0002559
Y-0114075
X-0004528
X0013386Y-0115945
X0014567Y-0115847
X0016783
X0018161
X0020472Y-0116535
X002185
X0024165Y-0116535
X0025543
X0027854Y-0115847
X0029232
X0031398Y-0116634
X0032185Y-011752
X0031398Y-0120866
X0032185Y-0121752
X0029232Y-0122539
X0027854
X0025543
X0024165
X002185Y-0122539
X0020472
X0018161Y-0120739
X0016783
X0014567
X0013386Y-0120641
X0015551Y-011125
Y-0109282
X0023228
Y-011125
X0025787
Y-0109282
X0028346
Y-011125
X0036614Y-0111221
Y-0109252
X0039173
Y-0111221
X0041732
Y-0109252
X0044291
Y-0111221
X0048819Y-0112205
X0050787Y-0110237
X0055315Y-0111516
X0056496Y-0110728
Y-0117421
X0055315Y-0118209
X0050787Y-011693
X0048819Y-0118898
X0051083Y-0124114
X0052264Y-0123327
X005502Y-0124114
X0056201Y-0123327
X0055315Y-0135925
X0056496Y-0137106
Y-0141043
X0055315Y-0139862
X0052165Y-0141043
X0050984Y-0139862
X0052165Y-0137106
X0050984Y-0135925
X0044291Y-0128543
Y-0126575
X0041732
Y-0128543
X0039173
Y-0126575
X0036614
Y-0128543
X0031948Y-0127591
X0032046Y-0126409
X0025452
X0025354Y-0127591
X0033662Y-0102953
X003563Y-0104921
X0042323
X0040355Y-0102953
X00423Y-00996
Y-00983
X0045866Y-0098327
X0047047
X0050492Y-0097539
X0049705Y-0096358
X0050492Y-0093602
X0049705Y-0092421
X0047047Y-0091634
X0045866Y-0091634
X00423Y-00918
Y-00904
X0042224Y-0085925
X004124Y-0085236
Y-0086614
X0043209
Y-0085236
Y-0081614
Y-0080236
X0042224Y-0080925
X004124Y-0080236
Y-0081614
Y-0076614
Y-0075236
X0042224Y-0075925
X0043209Y-0075236
Y-0076614
Y-0071614
Y-0070236
X0042224Y-0070925
X004124Y-0070236
Y-0071614
X0034055Y-0071752
Y-0070374
X0033071Y-0071063
X0032087Y-0071752
Y-0070374
Y-0075374
Y-0076752
X0033071Y-0076063
X0034055Y-0076752
Y-0075374
Y-0080374
Y-0081752
X0033071Y-0081063
X0032087Y-0081752
Y-0080374
Y-0085374
Y-0086752
X0033071Y-0086063
X0034055Y-0086752
Y-0085374
X0034252Y-0091634
X0032972Y-0091634
X0037205Y-0091634
X0038484
X0038386Y-0098327
X0037106
X0034252Y-0098327
X0032972
X00281Y-0094669
Y-00927
X0025787Y-0092687
Y-0094656
X0023228
Y-0092687
X0020669
Y-0094656
X001811
Y-0092687
X0015551
Y-0094656
X0010189Y-0093454
X0008909
X0008811Y-0100146
X0010091
X0013386Y-0084793
X0016191
X0018996
X0021801
X0024606
X0024705Y-0081717
X0024606Y-0078642
X0021801Y-0078642
X0018996Y-0078642
X0016191Y-0078642
X0013386Y-0078642
Y-0081717
X0018996
Y-0075566
Y-007249
X0016191
X0013386
Y-0075566
X0024606
Y-007249
X0021801
X0029331Y-0064567
X0029232Y-0063386
X0035925
X0035827Y-0064567
X0036061Y-0057605
X0037258
X0038456
X0039653
X0040851
X004026Y-0056522
Y-0052043
X0040851Y-0050961
X0039653
X0038456
X0037258
X0036061
X0034863
X0033666
X0034256Y-0052043
Y-0056522
X0033666Y-0057605
X0034863
X004439Y-006196
Y-0063929
X0046949
Y-006196
X0049508
Y-0063929
X0052067
Y-006196
X0055512Y-0059842
X0055413Y-0058661
X0055512Y-0056299
X0055413Y-0055118
X0055512Y-0052953
X0055413Y-0051772
X0055512Y-0049606
X0055413Y-0048425
X004951Y-0046459
X0049508Y-0044637
X0046949
Y-0046606
X004439
Y-0044637
X0043602Y-0040157
X0042421
Y-0038878
X0043602
Y-0037648
X0042421
Y-0036417
X0043602
X0039862Y-0036417
X0038681
Y-0037648
X0039862
Y-0038878
X0038681
Y-0040157
X0039862
X0030807
X0029626
Y-0038878
X0030807
Y-0037648
X0029626
Y-0036417
X0030807
X001939Y-004394
Y-0045318
Y-0047582
X0019291Y-0048763
X0018602Y-0052756
Y-0054724
X0013484
Y-0052756
X0012795Y-0048763
X0012697Y-0047582
Y-0045318
Y-004394
X0016043Y-0060236
Y-0062205
X-0002559Y-0069488
X-0004528
Y-0075394
X-0002559
Y-0081299
X-0004528
Y-0087205
X-0002559
X-0023031Y-0097441
X-0025
Y-0103839
X-0023031
Y-0059252
X-0025
X-0021949Y-004872
X-0021949Y-0047449
X-0020669
X-0020669Y-004872
X-001939Y-0048713
X-001939Y-0047441
X-001811
X-001811Y-0048713
X-0016831
X-0016831Y-0047441
X-0016831Y-0040839
X-0016831Y-0039567
X-001811
X-001811Y-0040839
X-001939
X-001939Y-0039567
X-0020669Y-0039575
X-0020669Y-0040846
X-0021949
X-0021949Y-0039575
X-0021949Y-0032972
X-0021949Y-0031701
X-0020669
X-0020669Y-0032972
X-001939Y-0032965
X-001939Y-0031693
X-001811
X-001811Y-0032965
X-0016831
X-0016831Y-0031693
X-0016831Y-0025091
X-0016831Y-0023819
X-001811
X-001811Y-0025091
X-001939
X-001939Y-0023819
X-0020669Y-0023827
X-0020669Y-0025098
X-0021949
X-0021949Y-0023827
X-0021949Y-0017323
X-0021949Y-0016051
X-0020669
X-0020669Y-0017323
X-001939Y-0017315
X-001939Y-0016043
X-001811
X-001811Y-0017315
X-0016831
X-0016831Y-0016043
X-0031693
X-0031693Y-0017315
X-0032972
X-0032972Y-0016043
X-0034252
X-0034252Y-0017315
X-0035532Y-0017323
X-0035532Y-0016051
X-0036811
X-0036811Y-0017323
X-0036811Y-0023827
X-0036811Y-0025098
X-0035532
X-0035532Y-0023827
X-0034252Y-0023819
X-0034252Y-0025091
X-0032972
X-0032972Y-0023819
X-0031693
X-0031693Y-0025091
X-0031693Y-0031693
X-0031693Y-0032965
X-0032972
X-0032972Y-0031693
X-0034252
X-0034252Y-0032965
X-0035532Y-0032972
X-0035532Y-0031701
X-0036811
X-0036811Y-0032972
X-0036811Y-0039575
X-0036811Y-0040846
X-0035532
X-0035532Y-0039575
X-0034252Y-0039567
X-0034252Y-0040839
X-0032972
X-0032972Y-0039567
X-0031693
X-0031693Y-0040839
X-0031693Y-0047441
X-0031693Y-0048713
X-0032972
X-0032972Y-0047441
X-0034252
X-0034252Y-0048713
X-0035532Y-004872
X-0035532Y-0047449
X-0036811
X-0036811Y-004872
X0051476Y-0040157
X0052657
Y-0038878
X0051476
Y-0037648
X0052657
Y-0036417
X0051476
X0050787Y-007249
X0053592
X0056398
X0059203
X0056398Y-0075566
Y-0078642
X0053592Y-0078642
X0050787Y-0078642
Y-0081717
Y-0084793
X0053592
X0056398
X0059203
X0056398Y-0081717
X0059203Y-0078642
X0050787Y-0075566
X0053544Y-0102953
X0055512Y-0104921
X0048819
X0046851Y-0102953
X0077165Y-0102854
X0077166Y-0101673
X0076575Y-0105807
Y-0107776
X0079134
Y-0105807
X0081693
Y-0107776
X0082284Y-0102854
X0081102
X0079331Y-0098032
Y-009685
X0079134Y-0092914
Y-0091732
X0081693
Y-0092914
X0076575Y-0092421
Y-009124
X0074016Y-0091732
Y-0092914
X0074213Y-0098032
X0075394Y-0098032
X0087002Y-00959
X0087702Y-00948
X0087002Y-0091863
X0087702Y-0090863
X00975Y-0092919
Y-00941
Y-0097619
Y-00988
X0102461Y-0099705
X0103642
X0104429Y-0105413
Y-0106595
X0107579Y-0106595
Y-0105413
X0097768Y-0105413
Y-0106595
X0102461Y-0092224
X0103642
X0109609Y-009593
X0110791
X0110908Y-0087891
Y-0086709
X0116892Y-0086709
Y-008789
X0116831Y-0092953
X0118012
X0122441Y-0091614
X0123622
X0128839Y-0093405
X013002
X0129991Y-009853
X0128809
X0123622Y-0099724
X0122441
X0118012Y-0098937
X0116831
X0117618Y-0105413
Y-0106595
X0116891Y-0115521
X0115709
X0115709Y-012208
X0116891
X0122638Y-012342
X0123819
X0123819Y-0127067
X0122638
Y-0132185
X0123819
X0117492Y-0129891
Y-0128709
X0111508Y-0128709
Y-0129891
X0131408Y-0129691
Y-0128509
X0137392Y-0128509
Y-0129691
X0141732Y-0123622
X0142913
Y-0115748
X0141732
X0136691Y-011963
X013551
X012915Y-0122689
X0127969
X0127969Y-0116311
X012915
X0123819Y-011338
X0122638
X0136319Y-0095965
X01375
X0141732Y-0098642
X0142913
Y-0092736
X0141732
X0138327Y-0080315
Y-0079134
X0132343Y-0079134
Y-0080315
X0127894Y-0080315
Y-0079134
X0121909Y-0079134
Y-0080315
X0117618Y-0080315
Y-0079134
X0117815Y-007248
X0116634
X0116634Y-0066496
X0117815
X0122441Y-0065158
X0123622
X0129331
X0130512
X0130315Y-0058957
X0131496
Y-0053839
X0130315
X0122736Y-0052953
Y-0051772
X0123169Y-0057776
Y-0058957
X0117185Y-0058957
Y-0057776
X0116043Y-0052953
Y-0051772
X0116043Y-0046555
Y-0045374
X0124705
Y-0046555
X0110728Y-0049705
X0109547
X0103937Y-0049606
X0102756
X009685Y-0050394
X0095669
X0089961Y-0049606
X0088779
Y-0059055
X0089961
X0095669
X009685
X0102756Y-0059744
X0103937
X0109547
X0110728
X0110728Y-0069508
X0109547
X0103642Y-0065768
X0102461
X0097342Y-0066496
X0096161
X0096161Y-007248
X0097342
X0102461Y-0073248
X0103642
X0104429Y-0079134
Y-0080315
X0107579Y-0080315
Y-0079134
X0095768Y-0079134
Y-0080315
X0081693Y-0076378
Y-007441
X0079134
Y-0076378
X0076575
Y-007441
X0077165Y-0071457
X0077166Y-0070276
X0082284
Y-0071457
X007697Y-0064118
Y-0062937
X0075691
Y-0064118
X007446
Y-0062937
X007323
Y-0064118
X006957
Y-0062937
X0068291
Y-0064118
X006706
Y-0062937
X006583
Y-0064118
X0062008Y-0059842
X0062106Y-0058661
X0062008Y-0056299
X0062106Y-0055118
X0062008Y-0052953
X0062106Y-0051772
X0062008Y-0049606
X0062106Y-0048425
X006583Y-0053882
Y-0055063
X006711
Y-0053882
X006834
Y-0055063
X006957
Y-0053882
X007323
Y-0055063
X007451
Y-0053882
X007574
Y-0055063
X007697
Y-0053882
X0062008Y-007249
Y-0075566
Y-0078642
X0062106Y-0081717
X0062008Y-0084793
X0074016Y-012313
Y-0125099
X0076575
Y-012313
X0079134
Y-0125099
X0081693
Y-012313
X00828Y-01285
X00839Y-01292
X0086737Y-01285
X0087837Y-01292
X0079331Y-0129429
Y-0128248
X0074213
X0074213Y-0129429
X015561Y-0128091
X0156791
X0156791Y-0123091
X015561
X0161319Y-0122362
X01625
X0163681Y-0129232
Y-0130413
X0168405Y-0126102
X0169587
X0174114Y-0129075
X0175295
X0178937Y-0128642
X0180118
Y-0123524
X0178937
X0175295Y-0123091
X0174114
X0174114Y-011313
X0175295
X0178937Y-0112697
X0180118
Y-0107579
X0178937
X0175295Y-0107146
X0174114
X0169587Y-0110158
X0168405
X01625Y-0106417
X0161319
Y-0113898
X01625
X0161319Y-0097539
X0160138
X0163681Y-009124
Y-0090059
X0163779Y-0082972
Y-0081791
X0162598Y-0075295
X0161417
X0163386Y-0069291
Y-006811
X0168504
Y-0069291
X016811Y-0063957
X0166929
Y-0055295
X016811
Y-0048878
X0166929
X0166732Y-0044488
Y-0043307
X0163091Y-0042717
Y-0041535
X0161909Y-0049606
X0160728
X0154823Y-0045866
X0153642
Y-0055906
X0154823
X0148228Y-005626
X0147047
X0147047Y-0062244
X0148228
X0153642Y-0063386
X0154823
X0160728Y-0059646
X0161909
X0179167Y-0061319
Y-00625
Y-0063681
X0180479
Y-00625
Y-0061319
X0180446Y-0056857
X0181627
Y-0055545
X0180446
X0179265
Y-0056857
X0179167Y-0048589
Y-0047408
Y-0046227
X0180479
Y-0047408
Y-0048589
X0180512Y-0041831
X0181693
X0181102Y-0040748
X0179921
X0179331Y-0041831
X0188419Y-0041043
Y-0039862
Y-0038681
X0189731
Y-0039862
Y-0041043
X0194619Y-0041043
Y-0039862
Y-0038681
X0195932
Y-0039862
Y-0041043
Y-0046227
Y-0047408
Y-0048589
X0194619
Y-0047408
Y-0046227
X0188189Y-0045472
X0187008
Y-0046654
Y-0047835
Y-0049016
X0188189Y-0049016
X0188419Y-0053773
Y-0054954
Y-0056135
X0189731
Y-0054954
Y-0053773
X0194619Y-0053773
Y-0054954
Y-0056135
X0195932
Y-0054954
Y-0053773
Y-0061319
Y-00625
Y-0063681
X0194619
Y-00625
Y-0061319
X0189731Y-0061319
Y-00625
Y-0063681
X0188419
Y-00625
Y-0061319
X0194619Y-0069193
Y-0070374
Y-0071555
X0195932
Y-0070374
Y-0069193
X0203871Y-0069193
Y-0070374
Y-0071555
X0205184
Y-0070374
Y-0069193
Y-0063681
Y-00625
Y-0061319
X0203871
Y-00625
Y-0063681
Y-0056135
Y-0054954
Y-0053773
X0205184
Y-0054954
Y-0056135
Y-0048589
Y-0047408
Y-0046227
X0203871
Y-0047408
Y-0048589
Y-0041043
Y-0039862
Y-0038681
X0205184
Y-0039862
Y-0041043
X0212894Y-0041673
X0214075
X0215256
X0216437
X0216437Y-0042854
X0215256
X0214075
X0212894
X0212894Y-004561
X0214075
X0215256
X0216437
X0216437Y-0046791
X0215256
X0214075
X0212894
X0212894Y-0049547
X0214075
X0215256
X0216437
X0216437Y-0050728
X0215256
X0214075
X0212894
X0212894Y-0053484
X0214075
X0215256
X0216437
X0216437Y-0054665
X0215256
X0214075
X0212894
X0212894Y-0057421
X0214075
X0215256
X0216437
X0216437Y-0058602
X0215256
X0214075
X0212894
X0212894Y-0061358
X0214075
X0215256
X0216437
X0216437Y-0062539
X0215256
X0214075
X0212894
X0212894Y-0065295
X0214075
X0215256
X0216437
X0216437Y-0066476
X0215256
X0214075
X0212894
X0212894Y-0069193
X0212894Y-0070374
X0214075
X0215256
X0216437
X0216437Y-0069193
X0215256
X0214075
Y-007313
X0215256
X0216437
X0216437Y-0074311
X0215256
X0214075
X0212894
X0212894Y-007313
X0212894Y-009876
X0214075
X0215256
X0216437
X0216437Y-0099941
X0215256
X0214075
X0212894
X0212894Y-0102697
X0214075
X0215256
X0216437
X0216437Y-0103878
X0215256
X0214075
X0212894
X0212894Y-0106634
X0214075
X0215256
X0216437
X0216437Y-0107815
X0215256
X0214075
X0212894
X0212894Y-0110571
X0214075
X0215256
X0216437
X0216437Y-0111752
X0215256
X0214075
X0212894
X0212894Y-0114508
X0214075
X0215256
X0216437
X0216437Y-0115689
X0215256
X0214075
X0212894
X0212894Y-0118445
X0214075
X0215256
X0216437
X0216437Y-0119626
X0215256
X0214075
X0212894
X0212894Y-0122343
X0214075
X0215256
X0216437
X0216437Y-0123524
X0215256
X0214075
X0212894
X0212894Y-0126279
X0214075
X0215256
X0216437
X0216437Y-0127461
X0215256
X0214075
X0212894
X0206249Y-0125512
X020492
X0203591
X0204331Y-0121161
X0204331Y-0119882
X0204331Y-0118602
Y-0115945
X0204331Y-0114665
X0204331Y-0113386
Y-0110531
X0205512Y-0110531
X0205512Y-0109252
X0204331Y-0109252
X0204331Y-0107973
X0205512Y-0107972
Y-0105315
X0204331Y-0105315
X0204331Y-0104035
X0205512Y-0104035
X0205512Y-0102756
X0204331Y-0102756
Y-0100197
X0205512Y-0100197
X0205512Y-0098917
X0204331Y-0098917
X0204331Y-0097638
X0205512Y-0097638
X0205315Y-0094996
X0205315Y-0093717
X0205315Y-0092437
X0199803
X0199803Y-0093717
X0199803Y-0094996
X0198524Y-009498
X0198524Y-0093701
X0198524Y-0092421
X0198917Y-0097638
X0198917Y-0098917
X0198917Y-0100197
X0197638Y-0100197
X0197638Y-0098917
X0197638Y-0097638
Y-0102756
X0198819Y-0102756
X0198819Y-0104035
X0197638Y-0104035
X0197638Y-0105315
X0198819Y-0105315
Y-0107972
X0197638Y-0107973
X0197638Y-0109252
X0198819Y-0109252
X0198819Y-0110531
X0197638Y-0110531
X019685Y-0113386
X019685Y-0114665
X019685Y-0115945
X0197638Y-0118602
X0197638Y-0119882
X0197638Y-0121161
X0187598Y-0126083
Y-0110138
X0186417
X0169587Y-009439
X0168405
X0168504Y-0078642
X0169685
X0151279Y-0077579
X0150098
Y-0069705
X0151279
X014439Y-0069488
X0143209
X0136516Y-0071457
Y-0072638
X0136909Y-0066929
X0135728
X0130512Y-0073819
X0129331
X0123622
X0122441
X0137795Y-0056398
X0138976
X0143602Y-0050787
Y-0049606
X0146161Y-0043307
Y-0042126
X0145758Y-0038287
X0146939
X0141847
X0140665
X014065Y-0042126
Y-0043307
X0140748Y-0029626
X0139567Y-0029724
X0137598Y-0029626
X0136417Y-0029724
X0134449Y-0029626
X0133268Y-0029724
X0131201Y-0029724
X0129921
X0131299Y-0025
X0129724Y-0023031
X0133268Y-002313
X0134449Y-0023031
X0136417Y-002313
X0137598Y-0023031
X0139567Y-002313
X0140748Y-0023031
X0142889Y-0016531
X0144858
Y-0013972
X0142889
X0127535
X0125566
Y-0016531
X0127535
Y-001909
X0125566
X0117913Y-0020325
Y-002313
Y-001752
Y-0014715
X0114838Y-001752
X0111762
X0111762Y-0014715
Y-0020325
X0111762Y-002313
X010561
Y-0020325
Y-0014715
X0108686Y-001752
X009499Y-0019926
X009371
X00891Y-00191
Y-00177
X0084428Y-0020124
X0083247Y-0020026
X0083247Y-0026522
X0084428Y-0026424
X00891Y-0027
Y-00255
X0093909Y-0026522
X0095188
X0075Y-0021681
X0075Y-00205
X0069294Y-0020692
Y-0021873
Y-001636
Y-001508
X00748Y-00148
X0075987Y-0014785
X0212894Y-0037736
X0214075
X0215256
X0216437
X0216437Y-0038917
X0215256
X0214075
X0212894
X0206251Y-0136102
X0204922
X0203594
X0217618Y-0127461
X0218799
X021998
X021998Y-0126279
X0218799
X0217618
X0217618Y-0123524
X0218799
X021998
X021998Y-0122343
X0218799
X0217618
X0217618Y-0119626
X0218799
X0218799Y-0118445
X0217618
X021998
X021998Y-0119626
Y-0115689
X0218799
X0217618
X0217618Y-0114508
X0218799
X021998
X021998Y-0111752
X021998Y-0110571
X0218799
X0217618
X0217618Y-0111752
X0218799
Y-0107815
X0217618
X0217618Y-0106634
X0218799
X021998
X021998Y-0107815
Y-0103878
X021998Y-0102697
X0218799
X0217618
X0217618Y-0103878
X0218799
Y-0099941
X0217618
X0217618Y-009876
X0218799
X021998
X021998Y-0099941
X021998Y-0074311
X0218799
X0217618
X0217618Y-007313
X0218799
X021998
X021998Y-0070374
X0218799
X0217618
X0217618Y-0069193
X0218799
X021998
X021998Y-0066476
X021998Y-0065295
X0218799
X0217618
X0217618Y-0066476
X0218799
Y-0062539
X0217618
X0217618Y-0061358
X0218799
X021998
X021998Y-0062539
Y-0058602
X0218799
X0217618
X0217618Y-0057421
X0218799
X021998
X021998Y-0054665
X0218799
X0217618
X0217618Y-0053484
X0218799
X021998
X021998Y-0050728
X0218799
X0217618
X0217618Y-0049547
X0218799
X021998
X021998Y-0046791
X0218799
X0217618
X0217618Y-004561
X0218799
X021998
X021998Y-0042854
X0218799
X0217618
X0217618Y-0041673
X0218799
X021998
X021998Y-0038917
X0218799
X0217618
X0217618Y-0037736
X0218799
X021998
X0245886
X0247067
X0248248
X0249429
X025061
X0251791
X0252972
X0252972Y-0038917
X0251791
X025061
X0249429
X0248248
X0247067
X0245886
X0245886Y-0041673
X0247067
X0248248
X0249429
X025061
X0251791
X0252972
X0252972Y-0042854
X0251791
X025061
X0249429
X0248248
X0247067
X0245886
X0245886Y-0045571
X0245886Y-0046752
X0247067
X0248248
X0249429
X025061
X0251791
X0252973
X0252972Y-0045571
X0251791
X025061
X0249429
X0248248
X0247067
Y-0049508
X0248248
X0249429
X025061
X0251791
X0252972
X0252973Y-0050689
X0251791
X025061
X0249429
X0248248
X0247067
X0245886
X0245886Y-0049508
Y-0053445
X0247067
X0248248
X0249429
X025061
X0251791
X0252972
X0252973Y-0054626
X0251791
X025061
X0249429
X0248248
X0247067
X0245886
X0245886Y-0057382
X0247067
X0248248
X0249429
X025061
X0251791
X0252972
X0252973Y-0058563
X0251791
X025061
X0249429
X0248248
X0247067
X0245886
X0245886Y-0061319
X0247067
X0248248
X0249429
X025061
X0251791
X0252972
X0252973Y-00625
X0251791
X025061
X0249429
X0248248
X0247067
X0245886
X0245886Y-0065256
X0247067
X0248248
X0249429
X025061
X0251791
X0252972
X0252973Y-0066437
X0251791
X025061
X0249429
X0248248
X0247067
X0245886
X0245886Y-0069193
X0247067
X0248248
X0249429
X025061
X0251791
X0252972
X0252973Y-0070374
X0251791
X025061
X0249429
X0248248
X0247067
X0245886
X0245886Y-007313
X0247067
X0248248
X0249429
X025061
X0251791
X0252972
X0252973Y-0074311
X0251791
X025061
X0249429
X0248248
X0247067
X0245886
X0245886Y-0090847
X0245886Y-0092027
X0247067
X0248248
X0249429
X025061
X0251791
X0252973
X0252972Y-0090847
X0251791
X025061
X0249429
X0248248
X0247067
Y-0094784
X0248248
X0249429
X025061
X0251791
X0252972
X0252973Y-0095965
X0251791
X025061
X0249429
X0248248
X0247067
X0245886
X0245886Y-0094784
Y-0098721
X0245886Y-0099902
X0247067
X0248248
X0249429
X025061
X0251791
X0252973
X0252972Y-0098721
X0251791
X025061
X0249429
X0248248
X0247067
Y-0102657
X0248248
X0249429
X025061
X0251791
X0252972
X0252973Y-0103839
X0251791
X025061
X0249429
X0248248
X0247067
X0245886
X0245886Y-0102657
Y-0106595
X0245886Y-0107776
X0247067
X0248248
X0249429
X025061
X0251791
X0252973
X0252972Y-0106595
X0251791
X025061
X0249429
X0248248
X0247067
Y-0110531
X0248248
X0249429
X025061
X0251791
X0252972
X0252973Y-0111713
X0251791
X025061
X0249429
X0248248
X0247067
X0245886
X0245886Y-0110531
Y-0114469
X0247067
X0248248
X0249429
X025061
X0251791
X0252972
X0252973Y-011565
X0251791
X025061
X0249429
X0248248
X0247067
X0245886
X0245886Y-0118405
X0245886Y-0119587
X0247067
X0248248
X0249429
X025061
X0251791
X0252973
X0252972Y-0118405
X0251791
X025061
X0249429
X0248248
X0247067
X0247067Y-0122382
X0245886
X0245886Y-0123563
X0247067
X0248248
X0249429
X025061
X0251791
X0252972
X0252972Y-0122382
X0251791
X025061
X0249429
X0248248
Y-0126319
X0249429
X025061
X0251791
X0251791Y-01275
X025061
X0249429
X0248248
X0247067
X0245886
X0245886Y-0126319
X0247067
X0252972
X0252972Y-01275
X0262787Y-0102462
Y-0101281
X02627Y-01001
X026387Y-010069
Y-0101872
X0268799Y-0101378
Y-0100197
X0269882Y-0100787
Y-0101968
X0268799Y-0102559
X0268799Y-0087008
Y-0085827
Y-0084645
X0269882Y-0085236
Y-0086417
X0263976
Y-0085236
X0262894Y-0085827
Y-0084645
Y-0087008
Y-0079941
Y-007876
Y-0077579
X0263976Y-0078169
Y-007935
X0268799Y-007876
Y-0077579
X0269882Y-0078169
Y-007935
X0268799Y-0079941
X0269291Y-0072283
Y-0071102
X0270374Y-0071693
Y-0070512
Y-0072874
X0263976Y-0072283
Y-0071102
X0262894Y-0071693
Y-0070512
Y-0072874
X0262894Y-0065807
Y-0064626
Y-0063445
X0263976Y-0064035
Y-0065216
X0269291
Y-0064035
X0270374Y-0064626
Y-0063445
Y-0065807
Y-005874
Y-0057559
Y-0056378
X0269291Y-0056968
Y-0058149
X0263976
Y-0056968
X0262894Y-0057559
Y-0056378
Y-005874
Y-0051673
Y-0050492
Y-0049311
X0263976Y-0049902
Y-0051083
X0269291
Y-0049902
X0270374Y-0050492
Y-0049311
Y-0051673
X0270374Y-0044606
Y-0043425
Y-0042244
X0269291Y-0042834
Y-0044016
X0263976
Y-0042834
X0262894Y-0043425
Y-0042244
Y-0044606
Y-0037539
Y-0036358
Y-0035177
X0263976Y-0035768
Y-0036949
X0269291
Y-0035768
X0270374Y-0036358
Y-0035177
Y-0037539
Y-0030472
Y-0029291
Y-002811
X0269291Y-0028701
Y-0029882
X0263976
Y-0028701
X0262894Y-0029291
Y-002811
Y-0030472
X0262894Y-0023405
Y-0022224
Y-0021043
X0263976Y-0021634
Y-0022815
X0268799Y-0022224
Y-0021043
X0269882Y-0021634
Y-0022815
X0268799Y-0023405
Y-0016339
Y-0015157
Y-0013976
X0269882Y-0014567
Y-0015748
X0263976
Y-0014567
X0262894Y-0013976
Y-0015157
Y-0016339
X0268307Y-0154921
X0269488
X0268898Y-0156004
X0267716
X0270079
X0275492
X0276673
X0277854
X0277264Y-0154921
X0276082
Y-0160827
X0277264
X0276673Y-0161909
X0275492
X0277854
X0270079
X0268898
X0267716
X0268307Y-0160827
X0269488
X0252972Y0044665
X0251791
X025061
X0249429
X0248248
X0247067
X0247067Y0045846
X0245886
X0245866Y0044665
X0248248Y0045846
X0249429
X025061
X0251791
X0252972
X0252972Y0048602
X0251791
X025061
X0249429
X0248248
X0247067
X0245886
X0245886Y0049783
X0247067
X0248248
X0249429
X025061
X0251791
X0252972
X0252972Y0052539
X0251791
X025061
X0249429
X0248248
X0247067
X0245886
X0245886Y005372
X0247067
X0248248
X0249429
X025061
X0251791
X0252972
X0252972Y0056476
X0251791
X025061
X0249429
X0248248
X0247067
X0245886
X0245886Y0057657
X0247067
X0248248
X0249429
X025061
X0251791
X0252972
X0252972Y0060413
X0252972Y0061594
X0251791
X025061
X0249429
X0248248
X0247067
X0245886
X0245886Y0060413
X0247067
X0248248
X0249429
X025061
X0251791
Y006435
X025061
X0249429
X0248248
X0247067
X0245886
X0245886Y0065531
X0247067
X0248248
X0249429
X025061
X0251791
X0252972
X0252972Y006435
Y0068287
X0251791
X025061
X0249429
X0248248
X0247067
X0245886
X0245886Y0069468
X0247067
X0248248
X0249429
X025061
X0251791
X0252972
X0252972Y0072224
X0251791
X025061
X0249429
X0248248
X0247067
X0245886
X0245886Y0073405
X0247067
X0248248
X0249429
X025061
X0251791
X0252972
X0252972Y0076161
X0252972Y0077342
X0251791
X025061
X0249429
X0248248
X0247067
X0245886
X0245886Y0076161
X0247067
X0248248
X0249429
X025061
X0251791
Y0080098
X025061
X0249429
X0248248
X0247067
X0245886
X0245886Y0081279
X0247067
X0248248
X0249429
X025061
X0251791
X0252972
X0252972Y0080098
X0263386Y008061
Y0081791
X0264469Y0081201
Y0082382
Y008002
X0269094Y0079921
Y0081102
Y0082283
X0270177Y0081693
Y0080512
X0269882Y0074606
Y0073425
X0268799Y0072835
Y0074016
Y0075197
X0264469Y0075197
Y0074016
Y0072835
X0263386Y0073425
Y0074606
Y0087795
Y0088977
X0264469Y0088386
Y0089567
Y0087205
X0269291Y0087795
Y0088977
X0270374Y0088386
Y0089567
Y0087205
X0270374Y009439
Y0095571
Y0096752
X0269291Y0096162
Y009498
X0264469Y0095571
Y0096752
X0263386Y0096162
Y009498
X0264469Y009439
Y0101083
Y0102264
Y0103445
X0263386Y0102854
Y0101673
X0269193
Y0102854
X0270276Y0102264
Y0103445
Y0101083
X0270374Y0108268
Y0109449
Y011063
X0269291Y0110039
Y0108858
X0263976
Y0110039
X0262894Y011063
Y0109449
Y0108268
X0262894Y0115453
Y0116634
Y0117815
X0263976Y0117225
Y0116043
X0269291
Y0117225
X0270374Y0116634
Y0117815
Y0115453
X0270374Y0122638
Y0123819
Y0125
X0269291Y0124409
Y0123228
X0263976
Y0124409
X0262894Y0125
Y0123819
Y0122638
Y0129823
Y0131004
Y0132185
X0263976Y0131595
Y0130413
X0269291
Y0131595
X0270374Y0131004
Y0132185
Y0129823
X0270374Y0137008
Y0138189
Y013937
X0269291Y013878
Y0137599
X0263976
Y013878
X0262894Y013937
Y0138189
Y0137008
X0252972Y0134429
X0251791
X025061
X0249429
X0248248
X0247067
X0245886
X0245886Y0133248
X0247067
X0248248
X0249429
X025061
X0251791
X0252972
X0252972Y0130492
X0251791
X025061
X0249429
X0248248
X0247067
X0245886
X0245886Y0129311
X0247067
X0248248
X0249429
X025061
X0251791
X0252972
X0252972Y0126594
X0251791
X025061
X0249429
X0248248
X0247067
X0247067Y0125413
X0248248
X0249429
X025061
X0251791
X0252973
X0252972Y0122658
X0251791
X025061
X0249429
X0248248
X0247067
X0245886
X0245886Y0121476
X0247067
X0248248
X0249429
X025061
X0251791
X0252973
X0252972Y011872
X0251791
X025061
X0249429
X0248248
X0247067
X0245886
X0245886Y0117539
X0247067
X0248248
X0249429
X025061
X0251791
X0252973
X0252972Y0114783
X0251791
X025061
X0249429
X0248248
X0247067
X0245886
X0245886Y0113602
X0247067
X0248248
X0249429
X025061
X0251791
X0252973
X0252972Y0110846
X0251791
X025061
X0249429
X0248248
X0247067
X0245886
X0245886Y0109665
X0247067
X0248248
X0249429
X025061
X0251791
X0252973
X0252972Y0106909
X0251791
X025061
X0249429
X0248248
X0247067
X0247067Y0105728
X0248248
X0249429
X025061
X0251791
X0252973
X0252972Y0102972
X0251791
X025061
X0249429
X0248248
X0247067
X0245886
X0245886Y0101791
X0247067
X0248248
X0249429
X025061
X0251791
X0252973
X0252972Y0099035
X0251791
X025061
X0249429
X0248248
X0247067
X0245886
X0245886Y0097854
X0247067
X0248248
X0249429
X025061
X0251791
X0252973
X0245886Y0105728
X0245886Y0106909
X0245886Y0125413
X0245886Y0126594
X021998Y0126555
X0218799
X0217618
X0217618Y0125374
X0218799
X021998
X021998Y0122618
X021998Y0121437
X0218799
X0217618
X0217618Y0122618
X0218799
Y0118681
X0217618
X0217618Y01175
X0218799
X021998
X021998Y0118681
Y0114744
X021998Y0113563
X0218799
X0217618
X0217618Y0114744
X0218799
Y0110807
X0217618
X0217618Y0109626
X0218799
X021998
X021998Y0110807
Y010687
X0218799
X0217618
X0217618Y0105689
X0218799
X021998
X021998Y0102972
X0218799
X0217618
X0217618Y0101791
X0218799
X021998
X021998Y0099035
X0218799
X0217618
X0217618Y0097854
X0218799
X021998
Y0073405
X0218799
X0217618
X0217618Y0072224
X0218799
X021998
X021998Y0069468
X0218799
X0217618
X0217618Y0068287
X0218799
X021998
X021998Y0065531
X0218799
X0217618
X0217618Y006435
X0218799
X021998
X021998Y0061594
X0218799
X0217618
X0217618Y0060413
X0218799
X021998
X021998Y0057657
X0218799
X0217618
X0217618Y0056476
X0218799
X021998
X021998Y005372
X0218799
X0217618
X0217618Y0052539
X0218799
X021998
X021998Y0049783
X0218799
X0217618
X0217618Y0048602
X0218799
X021998
X021998Y0045846
X0218799
X0217618
X0217618Y0044665
X0218799
X021998
X021998Y0129311
X021998Y0130492
X0218799
X0217618
X0217618Y0129311
X0218799
Y0133248
X0217618
X0217618Y0134429
X0218799
X021998
X021998Y0133248
X0216437
X0215256
X0214075
X0212894
X0212894Y0134429
X0214075
X0215256
X0216437
Y0130492
X0215256
X0214075
X0212894
X0212894Y0129311
X0214075
X0215256
X0216437
X0216437Y0126555
X0215256
X0214075
X0212894
X0212894Y0125374
X0214075
X0215256
X0216437
X0216437Y0122618
X0215256
X0214075
X0212894
X0212894Y0121437
X0214075
X0215256
X0216437
X0216437Y0118681
X0215256
X0214075
X0212894
X0212894Y01175
X0214075
X0215256
X0216437
X0216437Y0114744
X0215256
X0214075
X0212894
X0212894Y0113563
X0214075
X0215256
X0216437
X0216437Y0110807
X0215256
X0214075
X0212894
X0212894Y0109626
X0214075
X0215256
X0216437
X0216437Y010687
X0215256
X0214075
X0212894
X0212894Y0105689
X0214075
X0215256
X0216437
X0216437Y0102972
X0215256
X0214075
X0214075Y0101791
X0215256
X0216437
X0216437Y0099035
X0215256
X0214075
X0214075Y0097854
X0215256
X0216437
X0212894
X0212894Y0099035
X0212894Y0101791
X0212894Y0102972
X0205971Y0102854
Y0104035
Y0105217
X0204659
Y0104035
Y0102854
X0196719Y0102854
Y0104035
Y0105217
X0195407
Y0104035
Y0102854
Y0111024
Y0112205
Y0113386
X0196719
Y0112205
Y0111024
X0191207Y0111024
Y0112205
Y0113386
X0189895
Y0112205
Y0111024
X0182054Y0111024
Y0112205
Y0113386
X0180742
Y0112205
Y0111024
Y0118766
Y0119948
Y0121129
X0182054
Y0119948
Y0118766
Y0126509
Y012769
Y0128871
X0180742
Y012769
Y0126509
Y0134252
Y0135433
Y0136614
X0182054
Y0135433
Y0134252
X0189993Y0134252
Y0135433
Y0136614
X0191306
Y0135433
Y0134252
X0195407Y0134252
Y0135433
Y0136614
X0196719
Y0135433
Y0134252
Y0128871
Y012769
Y0126509
X0195407
Y012769
Y0128871
X0191306Y0128871
Y012769
Y0126509
X0189993
Y012769
Y0128871
Y0121129
Y0119948
Y0118766
X0191306
Y0119948
Y0121129
X0195407Y0121129
Y0119948
Y0118766
X0196719
Y0119948
Y0121129
X0204757Y0121129
Y0119948
Y0118766
X0205971
Y0119948
Y0121129
Y0126509
Y012769
Y0128871
X0204659
Y012769
Y0126509
Y0134252
Y0135433
Y0136614
X0205971
Y0135433
Y0134252
Y0113386
Y0112205
Y0111024
X0204659
Y0112205
Y0113386
X0204085Y0086614
X0202756
Y0085285
X0204085
X0205413
Y0086614
X0200098Y0087205
X019877
X0197441
Y0085876
X019877
X0200098
X0198671Y0079823
Y0078494
Y0077165
X0197343
Y0078494
Y0079823
Y0074622
Y0073294
X0198671
Y0071965
X0197343
Y0069422
Y0068093
Y0066764
X0198671
Y0068093
Y0069422
Y0064221
X0197343
Y0062893
Y0061564
X0198671
Y0062893
X0197343Y0059005
Y00578
X0197928Y00566
X0196653Y0053788
Y005246
Y0051131
X0189567Y0051181
X0188386Y0051083
X0185433Y0051181
X0184153
X0180905Y0051181
X0179626
X0175098Y0049045
X0172539
Y0050226
X016998
Y0049045
X0167421
Y0050226
X0164862
Y0049045
X0162303
Y0050226
X0164961Y0055807
Y0057185
X0165945Y0056496
X0166929Y0057185
Y0055807
Y0060807
Y0062185
X0165945Y0061496
X0164961Y0062185
Y0060807
Y0065807
Y0067185
X0165945Y0066496
X0166929Y0067185
Y0065807
Y0070807
Y0072185
X0165945Y0071496
X0164961Y0072185
Y0070807
X0167913Y0077559
Y0078839
X0173445Y0078642
Y0079823
X0176004
Y0078642
X0178563
Y0079823
X0181122
Y0078642
X0184449Y0078543
Y0079823
X0184547Y0082185
X0184449Y0083366
X0184547Y0085531
X0184449Y0086712
X0184547Y0088878
X0184449Y0090059
X0184449Y0092323
Y0093602
X0184449Y0096063
Y0097342
X0178563Y0097146
Y0095964
X0176004
Y0097146
X0173445
Y0095964
X0168Y0098
X0167Y00973
X0166043Y0098032
X0165157Y0097244
X0164272Y0098032
X0164567Y0104232
Y0105413
X0165797
Y0104232
X0167027
Y0105413
X0168307
Y0104232
X0168708Y0090724
X0167511
X0166313
X0165116
X0163918
X0162721
X0163311Y0089641
X0164517
X0165723
X0166929
X0168122
X0169315
X0169906Y0090724
X0169315Y0086146
X0168122
X0166929
X0165723
X0164517
X0163311
X0162721Y0085064
X0163918
X0165116
X0166313
X0167511
X0168708
X0169906
X0161221Y007874
Y0077461
X0152264Y0066634
X0151083
Y0065404
X0152264
Y0064173
X0151083
Y0062894
X0152264
X0143209
X0142027
Y0064173
X0143209
Y0065404
X0142027
Y0066634
X0143209
X0138239Y0066404
Y0065207
Y0064009
Y0062812
Y0061614
X0137156Y0062205
Y0063398
Y0064592
Y0065797
Y0067003
Y0068209
X0138239Y0068799
Y0067602
X0133661Y0067003
Y0065797
Y0064592
Y0063398
Y0062205
X0132579Y0061614
Y0062812
Y0064009
Y0065207
Y0066404
Y0067602
Y0068799
X0133661Y0068209
X0133268Y0074803
X0134449Y0074902
X0136417Y0074803
X0137598Y0074902
X0139567Y0074803
X0140748Y0074902
X0140748Y0081496
X0139567Y0081398
X0137598Y0081496
X0136417Y0081398
X0134449Y0081496
X0133268Y0081398
X0129724Y0081496
X0131299Y0079528
X0131201Y0074803
X0129921
X0125984Y0069095
X0124409Y0069095
X0119921Y006752
X0118543
X0119232Y0066535
X0119921Y0065551
X0118543
X0113543
X0114232Y0066535
X0114921Y006752
X0113543
X0109921
X0108543
X0109232Y0066535
X0109921Y0065551
X0108543
X0104921
X0103543
X0104232Y0066535
X0104921Y006752
X0103543
X0098976Y006624
X0097008
Y0063681
X0098976
Y0061122
X0097008
Y0058563
X0098976
X0099Y0056
X0097008Y0056004
X0095178Y0049577
X0093899
X00891Y00506
Y00521
X0084517Y0049479
X0083335Y0049577
X0083335Y0043081
X0084517Y004318
X00892Y00427
Y00442
X0093997Y0043081
X0095276
X0096811Y0034055
X0098779
Y0031496
X0096811
Y0028937
X0098779
Y0026378
X0096811
Y0023819
X0098779
Y002126
X0096811
X0095134Y0014774
X0093854
X00891Y00158
Y00171
X0084472Y0014676
X0083291Y0014774
X0083291Y0008278
X0084473Y0008376
X00891Y00078
Y00092
X0093953Y0008278
X0095232
X0096811Y-0000689
X0098779
Y-0003248
X0096811
Y-0005807
X0098779
Y-0008366
X0096811
X0096953Y-0010926
X0098779Y-0010925
Y-0013484
X0096811
X0108686Y-0011909
X0111762
X0114838
X0117913
X0118347Y-0003937
X0119724
X0119035Y-0002953
X0119724Y-0001969
X0118347
X0114724
X0113347
X0114035Y-0002953
X0114724Y-0003937
X0113347
X0109724
X0108346
X0109035Y-0002953
X0109724Y-0001969
X0108346
X0104724
X0103347
X0104035Y-0002953
X0104724Y-0003937
X0103347
X010561Y0011811
Y0014616
Y0017421
Y0020226
Y0023031
X0108686
X0111762
X0111762Y0020226
X0111762Y0017421
X0111762Y0014616
X0111762Y0011811
X0114838
X0117913
Y0014616
X0117618Y0017421
X0114838
Y0023031
X0117913
Y0020226
X0125566Y0020772
X0127535
Y0023331
X0125566
X0125787Y0027657
X0124213Y0027657
X0124213Y003435
X0125787Y003435
X0132382Y0034055
Y0032858
Y003166
Y0030463
Y0029265
Y0028068
Y002687
X0133465Y0027461
Y0028654
Y0029847
Y0031053
Y0032259
Y0033465
X0136959
Y0032259
Y0031053
Y0029847
Y0028654
Y0027461
X0138042Y002687
Y0028068
Y0029265
Y0030463
Y003166
Y0032858
Y0034055
X0141831Y003189
X0143012
Y0030659
X0141831
Y0029429
X0143012
Y002815
X0141831
X0142889Y0023331
X0144858
Y0020772
X0142889
Y0018213
X0144858
X0140748Y0011713
X0139567Y0011614
X0137598Y0011713
X0136417Y0011614
X0134449Y0011713
X0133268Y0011614
X0129724Y0011713
X0131299Y0009744
X0131201Y000502
X0129921
X0133268Y000502
X0134449Y0005118
X0136417Y000502
X0137598Y0005118
X0139567Y000502
X0140748Y0005118
X0138042Y-0000689
Y-0001887
Y-0003084
Y-0004281
Y-0005479
Y-0006677
Y-0007874
X0136959Y-0007283
Y-000609
Y-0004897
Y-0003691
Y-0002485
Y-000128
X0133465
Y-0002485
Y-0003691
Y-0004897
Y-000609
Y-0007283
X0132382Y-0007874
Y-0006677
Y-0005479
Y-0004281
Y-0003084
Y-0001887
Y-0000689
X0125787Y-0000394
X0124213Y-0000394
X0124213Y-0006102
X0125787Y-0006102
X0126944Y-0011413
X0128125
X0142889
X0144858
X0143012Y-0006594
X0141831
Y-0005315
X0143012
Y-0004085
X0141831
Y-0002854
X0143012
X0150886
X0152067
Y-0004085
X0150886
Y-0005315
X0152067
Y-0006594
X0150886
Y002815
X0152067
Y0029429
X0150886
Y0030659
X0152067
Y003189
X0150886
X0162303Y0032451
Y0033632
X0162742Y0028492
X0161492Y0028492
X0165178Y0028445
X0166359Y0028543
X0168738
X0170017
X0172888Y0028445
X0174069Y0028543
X0176448
X0177727
X0180598Y0028445
X0181779Y0028543
X0184158
X0185437
X0190521Y0029134
Y0030315
X0191751
Y0029134
X0193031
Y0030315
X01905Y00279
X019027Y002126
Y0020079
X01915
Y002126
X0192731
Y0020079
X018899
Y002126
X0185536Y002185
X0184256
X0181779Y0021949
X0180598Y002185
X0177826
X0176546
X0174069Y0021949
X0172888Y002185
X0170116
X0168836
X0166359Y0021949
X0165178Y002185
X0162742Y0021892
X0161492Y0021892
X016998Y0032677
X016998Y0033927
X0172539Y0033632
Y0032451
X0175098
Y0033632
X0181447Y0034055
X0182726
Y0039173
X0181447
X0181004Y0044488
X0179724
X0184252Y0044488
X0185531
X01896Y0044819
X0189602Y00461
X0188927Y0036614
X0201133Y0035846
X0202462
X020379
X0203788Y0046437
X020246
X0201131
X0206043Y0051328
Y0052656
Y0053985
Y0056052
Y0057381
Y005871
X0205354Y0061564
Y0062893
Y0064221
X0204026
Y0062893
Y0061564
Y0066764
Y0068093
Y0069422
X0205354
Y0068093
Y0066764
Y0071965
X0204045Y0071952
X0204026Y0073294
X0205354
Y0074622
X0204026
Y0077165
Y0078494
Y0079823
X0205354
Y0078494
Y0077165
X0198671Y0074622
X0191142Y0078642
Y0079921
X0191142Y0082185
X0191043Y0083366
X0191043Y0085532
X0189764
X0189469Y0090059
X0190748
X0191142Y0092421
Y0093701
X0191142Y0096161
Y0097441
X0186319Y0070029
X0183514
X0180709
X0177903
X0175098
Y0066954
Y0063878
X0177903Y0063878
X0180709Y0063878
X0183514Y0063878
X0186319Y0063878
Y0066954
X0180709
Y0060802
Y0057726
X0183514
X0186319
X0186417Y0060802
X0175098
Y0057726
X0177903
X0145054Y0058075
X0143086
Y0055516
X0145054
Y0052957
X0143086
X0140945Y0046457
X0139764Y0046358
X0137795Y0046457
X0136614Y0046358
X0134646Y0046457
X0133465Y0046358
X0129921Y0046457
X0131496Y0044488
X0131398Y0039764
X0130118
X0133465Y0039764
X0134646Y0039862
X0136614Y0039764
X0137795Y0039862
X0139764Y0039764
X0140945Y0039862
X0127732Y0050398
X0125763
Y0052957
X0127732
Y0055516
X0125763
Y0058075
X0127732
X0125984Y0062402
X0124409Y0062401
X0117913Y0057382
Y0054577
Y0051772
Y0048967
Y0046161
X0114838
X0111762
X0111762Y0048967
X0111762Y0051772
X0111762Y0054577
X0111762Y0057382
X0108686
X010561
Y0054577
Y0051772
Y0048967
Y0046161
X0108686Y0046063
Y0051772
X0114838
Y0057382
X0114173Y0064468
X0114838Y0081496
X0117913
Y0084301
Y0087106
Y0089911
Y0092716
X0114838
X0111762
X0111762Y0089911
X0111762Y0087106
X0111762Y0084301
X0111762Y0081496
X0108686Y0081398
X010561Y0081496
Y0084301
Y0087106
Y0089911
X0108686Y0087106
Y0092716
X0108346Y01
Y0101181
X0109547Y0101181
X0109724Y01
X0113347Y0100591
X0114724
X0114035Y0101575
X0114724Y0102559
X0113347
X0118347
X0119724
X0119035Y0101575
X0119724Y0100591
X0118347
X0124213Y0097441
X0125787Y0097441
X0125566Y0093115
X0127535
Y0090556
X0125566
Y0087997
X0127535
Y0085437
X0125566
X0114838Y0087106
X0098779Y0091043
X0096811
Y0093602
X0098583
X0098779Y0096161
X0096811
Y0098721
X0098779
Y0101279
X0096811
Y0103839
X0098779
X0103347Y0102559
X0104724
X0104035Y0101575
X0104724Y0100591
X0103347
X010561Y0116339
Y0119144
Y0121949
Y0124754
Y0127559
X0107702
X0112845
X0114838
X0117913
Y0124754
Y0121949
Y0119144
Y0116339
X0114838
X0111762
X0111762Y0119144
X0111762Y0121949
X0111762Y0124754
X0114838Y0121949
X0108686
Y011624
X009506Y0118376
X009378
X0089Y01192
Y01207
X0084398Y0118277
X0083217Y0118376
X0083217Y011188
X0084398Y0111978
X00891Y01114
Y01129
X0093879Y011188
X0095158
X0096909Y0125886
X0098878
Y0128445
X0096909
Y0131004
X0098878
Y0133563
X0096909
Y0136122
X0098878
Y0138681
X0096909
X0103445Y0137402
X0104823
X0104134Y0136417
X0104823Y0135433
X0103445
X0108445
X0109823
X0109134Y0136417
X0109823Y0137402
X0108445
X0113445
X0114823
X0114134Y0136417
X0113445Y0135433
X0114764Y0135335
X0118445Y0135433
X0119823
X0119134Y0136417
X0119823Y0137402
X0118445
X0124311Y0138976
X0125886Y0138976
X0125886Y0132283
X0124311Y0132283
X0125665Y0127957
X0127633
Y0125398
X0125665
Y0122839
X0127633
Y012028
X0125665
X0129823Y0116339
X0131398Y011437
X0133366Y011624
X0134547Y0116339
X0136516Y011624
X0137697Y0116339
X01398Y01163
X0141046Y0116339
X0140847Y0109744
X0139665Y0109646
X0137697Y0109744
X0136516Y0109646
X0134547Y0109744
X0133366Y0109646
X0131299Y0109646
X013002
X0132382Y0103839
Y0102641
Y0101444
Y0100246
Y0099049
Y0097851
Y0096653
X0133465Y0097244
Y0098438
Y0099631
Y0100837
Y0102042
Y0103248
X0136959
Y0102042
Y0100837
Y0099631
Y0098438
Y0097244
X0138042Y0096653
Y0097851
Y0099049
Y0100246
Y0101444
Y0102641
Y0103839
X0141831Y0101673
X0143012
Y0100443
X0141831
Y0099213
X0143012
Y0097933
X0141831
X0142889Y0093115
X0144692Y0093115
X0144858Y0090556
X0142889
Y0087997
X0144858
X0150886Y0097933
X0152067
Y0099213
X0150886
Y0100443
X0152067
Y0101673
X0150886
X0144956Y0122839
X0142988
Y0125398
X0144956
Y0127957
X0142988
X014311Y0132776
X0141929
Y0134055
X014311
Y0135285
X0141929
Y0136516
X014311
X013814Y0136286
Y0135089
Y0133891
Y0132694
Y0131496
X0137058Y0132087
Y013328
Y0134474
Y0135679
Y0136885
Y0138091
X013814Y0138681
Y0137484
X0133563Y0136885
Y0135679
Y0134474
Y013328
Y0132087
X013248Y0131496
Y0132694
Y0133891
Y0135089
Y0136286
Y0137484
Y0138681
X0133563Y0138091
X0150984Y0136516
X0152165
Y0135285
X0150984
Y0134055
X0152165
Y0132776
X0150984
X0125787Y0104134
X0124213Y0104134
X0082185Y0103839
X0080216
Y0096161
X0082185
Y0093602
X0080216
Y0091043
X0082185
X0083398Y0082981
X00833Y00818
X0083275Y0077178
X0084456Y0077276
X00891Y00765
Y00781
X0093936Y0077178
X0095216
X0095117Y0083674
X0093838
X00894Y00844
Y00859
X0075979Y0084005
Y0082725
X00695Y0082819
Y0084
Y00883
X0069524Y0089532
X007419Y0089715
Y0088534
X0074387Y0095243
X00756Y00952
X0070844Y0095243
X0069565
X0069761Y0099195
X0069663Y0100376
X0074092Y0100376
Y0099195
X0076028Y0117725
X0076028Y0118965
X0074732Y0123137
Y0124416
X0070205
Y0123137
X0070516Y0118903
X0070516Y0117722
X0070303Y0129255
X0069319Y0128566
X007424Y0130141
X0075717Y0130141
X0075981Y0134225
X0074603Y0134225
X0071257
Y0135406
X0080315Y0138681
X0082283
Y0131004
X0080315
Y0128445
X0082283
Y0125886
X0080315
X0080413Y0068799
X0082382
Y0061122
X0080413
Y0058563
X0082382
Y0056004
X0080413
X00759Y00546
X00759Y005332
X0075942Y0048809
Y004753
X00694Y0047519
Y00487
X0069302Y0053137
X0069302Y0054417
X00693Y0058819
X00693Y006
X0069573Y0063627
X0069475Y0064808
X0075999Y0064808
X0076098Y0063627
X00759Y00601
X00759Y005882
X0075657Y0030705
X0075755Y0029524
X007576Y0025544
X007576Y0024068
X0075941Y001982
Y001854
X0076Y0014503
Y0013125
X0069302Y0013224
X0069302Y0014405
X0069248Y001854
X0069248Y0019918
Y0024068
X0069248Y0025347
X0069428Y0029524
X0069329Y0030705
X0080216Y0034055
X0082185
Y0026378
X0080216
Y0023819
X0082185
Y002126
X0080216
Y-0000689
X0082185
X0081299Y-0008366
X0080118
X0080118Y-0010925
X0081299
Y-0013287
X0080118
X0074708Y-0010783
X00747Y-00095
X0075906Y-0005276
X0075808Y-0004095
X0069384Y-0004095
X0069482Y-0005276
X0069294Y-0009553
X0069294Y-0010832
X0108686Y0011713
Y0017421
X0108346Y0030807
X0109724
X0109035Y0031791
X0109724Y0032776
X0108346
X0104724
X0103347
X0104035Y0031791
X0104724Y0030807
X0103347
X0113347
X0114724
X0114035Y0031791
X0114724Y0032776
X0113347
X0118347
X0119724
X0119035Y0031791
X0119724Y0030807
X0118347
X0125566Y0018213
X0127535
Y0015654
X0125566
X0098976Y0068799
X0097008
X0212894Y0068287
X0212894Y0069468
X0214075
X0215256
X0216437
X0216437Y0068287
X0215256
X0214075
X0214075Y0065531
X0215256
X0216437
X0216437Y006435
X0215256
X0214075
X0212894
X0212894Y0065531
Y0061594
X0212894Y0060413
X0214075
X0215256
X0216437
X0216437Y0061594
X0215256
X0214075
Y0057657
X0215256
X0216437
X0216437Y0056476
X0215256
X0214075
X0212894
X0212894Y0057657
Y005372
X0212894Y0052539
X0214075
X0215256
X0216437
X0216437Y005372
X0215256
X0214075
Y0049783
X0215256
X0216437
X0216437Y0048602
X0215256
X0214075
X0212894
X0212894Y0049783
Y0045846
X0214075
X0215256
X0216437
X0216437Y0044665
X0215256
X0214075
X0212894
Y0072224
X0214075
X0215256
X0216437
X0216437Y0073405
X0215256
X0214075
X0212894
X0042028Y0061614
Y0060433
X0036909
Y0061614
X0033957
Y0060433
X0028937
Y0061614
X0026083
Y0060433
X0020965
Y0061614
X0020965Y0057579
X0022146
X0017618
X0016437
X0013091
X0011909
Y0053461
X0013091
X0016437Y0052461
X0017618
X0020965
X0022146
X002628Y0052067
X0027461
Y0054035
X0028642
Y0056004
X0027461
X0027559Y0050098
X0026378
X0027461Y004813
X0028642
X0019081Y0042972
X0019081Y0041692
X00179Y00412
Y0042381
Y0043562
X0008281Y0042872
X0008281Y0041592
X00071Y00411
Y0042281
Y0043462
X-0002362Y0041339
X-0003543
X-0004724
X-0004232Y0040157
X-0002953Y0040157
X-0003543Y0035433
X-0004724
X-0004232Y0034252
X-0002953Y0034252
X-0002362Y0035433
Y0029528
X-0003543
X-0004724
X-0004232Y0028346
X-0002953Y0028346
Y0046063
X-0004232Y0046063
X-0004724Y0047244
X-0003543
X-0002362
X-0002953Y0051969
X-0004232Y0051969
X-0004724Y005315
X-0003543
X-0002362
X-0002953Y0057874
X-0004232Y0057874
X-0004724Y0059055
X-0003543
X-0002362
X-0022441Y0068602
X-0025197
X-0025Y0081496
X-0023031
X-0004528Y0091732
X-0002559
Y0097638
X-0004528Y0097638
Y0103543
X-0002559
Y0109449
X-0004528
Y0115354
X-0002559
Y012126
X-0004528
Y0127165
X-0002559
X0014764Y0124664
X001597
X0015946Y0120774
X0014764Y0120727
X0022383Y0119742
X0024352
Y0121711
X0022679
Y0123679
X0024352
Y0125648
X0022679
X0027657Y0125
X0030709
X0034194Y0125648
Y0123679
X0036163
Y0125648
Y0121711
X0034194
Y0119742
X0036163
Y0117774
Y0115805
X0034194
Y0117774
X0031596Y011664
X0028053Y0116935
X002386Y0117774
X0022679
Y0115805
X002386
X0039173Y0114075
X0040256Y0114567
X004311Y0114075
X0044193Y0114567
X0043446Y0122006
X0042265
Y0127124
X0043446
X0050394Y0124606
X0051575Y0124609
Y012205
X0050394Y0122047
X0041495Y0135969
X0040412Y0135376
X0037558Y0135932
X0036475Y0135339
X0020177Y0132677
Y0131398
X0015256Y0131693
X0013976
X-0023031Y0137402
X-0025
X-0025591Y0018504
X-0022933
X-0021949Y0007669
X-0021949Y0006398
X-0020669
X-0020669Y0007669
X-001939Y0007677
X-001939Y0006406
X-001811
X-001811Y0007677
X-0016831
X-0016831Y0006406
X-0016831Y-0000197
X-0016831Y-0001469
X-001811
X-001811Y-0000197
X-001939
X-001939Y-0001469
X-0020669Y-0001476
X-0020669Y-0000205
X-0021949
X-0021949Y-0001476
X-0021949Y-0008177
X-0021949Y-0009449
X-0020669
X-0020669Y-0008177
X-001939Y-0008169
X-001939Y-0009441
X-001811
X-001811Y-0008169
X-0016831
X-0016831Y-0009441
X-0031693
X-0031693Y-0008169
X-0032972
X-0032972Y-0009441
X-0034252
X-0034252Y-0008169
X-0035532Y-0008177
X-0035532Y-0009449
X-0036811
X-0036811Y-0008177
X-0036811Y-0001476
X-0036811Y-0000205
X-0035532
X-0035532Y-0001476
X-0034252Y-0001469
X-0034252Y-0000197
X-0032972
X-0032972Y-0001469
X-0031693
X-0031693Y-0000197
X-0031693Y0006406
X-0031693Y0007677
X-0032972
X-0032972Y0006406
X-0034252
X-0034252Y0007677
X-0035532Y0007669
X-0035532Y0006398
X-0036811
X-0036811Y0007669
X0045177Y0009318
Y0005413
X0049081
Y0009318
Y0013222
Y0017126
X0045177
Y0013222
X0052986
Y0017126
X005689
Y0013222
Y0009318
X0052986
Y0005413
X005689
X0057185Y-000315
X0059154
X0055216
X0055216Y-001378
X0057185
X0059154
X0056713Y0023819
Y0025394
X0055138
Y0023819
X0053563
Y0025394
Y0026969
X0055138
X0056713
X0057185Y003375
X0055216
X0059154
X0059154Y004438
X0057185
X0055216
X0045768Y004813
X0044587Y0048127
X004439Y0050098
X0045571Y0050098
Y0052067
X0044193
X004439Y0054035
X0045571
Y0056007
X004439Y0056004
X0045374Y0026969
X0046949
X0048524
Y0025394
X0046949
X0045374
Y0023819
X0046949
X0048524
X0049016Y0145669
Y0147638
X005689
Y0145669
X003878Y0157441
Y0159409
X0071063
Y0157441
X0080315Y0157638
Y0159606
X0090551Y0147835
Y0145866
X0098425
Y0147835
X0102362
Y0145866
X0112598Y0157638
Y0159606
X0060827Y0147638
Y0145669
X0263386Y0145276
Y0146457
X0264469Y0145866
Y0144685
X0263386Y0144095
X0269291Y0144685
Y0145866
X0270374Y0145276
Y0146457
Y0144095
X0270374Y0151378
Y0152559
Y015374
X0269291Y015315
Y0151969
X0263976
Y015315
X0262894Y015374
Y0152559
Y0151378
X0262894Y0158563
Y0159744
Y0160925
X0263976Y0160335
Y0159153
X0269291
Y0160335
X0270374Y0160925
Y0159744
Y0158563
M30
