M48
;Layer_Color=9474304
;FILE_FORMAT=2:5
INCH,LZ
;TYPE=PLATED
T1F00S00C0.00394
;TYPE=NON_PLATED
%
T01
X-0025Y-0137598
X-0023031
X-0004724Y-0127953
Y-0126772
X-0003543
Y-0127953
X-0002362
Y-0126772
Y-0122047
X-0003543
Y-0120866
X-0002362
X-0004724
Y-0122047
Y-0116142
Y-0114961
X-0003543
Y-0116142
X-0002362
Y-0114961
Y-0110236
Y-0109055
X-0003543
Y-0110236
X-0004724
Y-0109055
X-0004528Y-010374
X-0002559
Y-0097835
X-0004528
Y-0091929
X-0002559
Y-0086024
X-0004528
X0003331Y-0091685
X0003331Y-0093063
X0004316Y-0094047
X0006284
X00053Y-0093063
X00053Y-0091685
X0007269
X0007269Y-0093063
X0006284Y-0099953
X0007269Y-0100937
X0007269Y-0102315
X00053
X00053Y-0100937
X0004316Y-0099953
X0003331Y-0100937
X0003331Y-0102315
X0003361Y-0114933
X0003361Y-0116311
X0004346Y-0117295
X0006314
X00072Y-0116311
X00072Y-0114933
X000533
X000533Y-0116311
X0004346Y-0123201
X000533Y-0124185
X000533Y-0125563
X00072
X00072Y-0124185
X0006314Y-0123201
X0003361Y-0124185
X0003361Y-0125563
X0016043Y-0120965
X0014862Y-0119783
X0016043Y-0117027
X0014862Y-0115847
X0018799
X001998Y-0117027
X0018799Y-0119783
X001998Y-0120965
X0025098Y-0122146
X0027067
Y-0118405
X0025098
Y-0114665
X0027067
X0035335Y-0114665
X0037303
X0037697Y-0118405
X0036516
Y-0122146
X0037697
X0042421Y-0122146
X0043602Y-0122244
X0046358Y-0121752
X0047539Y-0122933
Y-0118996
X0046358Y-0117815
X0043602Y-0118405
X0042421Y-0118307
X0050295Y-0117815
X0051476Y-0118996
Y-0122933
X0050295Y-0121752
X0056988Y-0124016
X0058169Y-0125197
Y-0129134
X0056988Y-0127953
X0052953Y-0132185
X0050984
X0051968Y-0133563
X0051968Y-0134941
X005
X005Y-0133563
X0053937
X0053937Y-0134941
X0051968Y-0143209
X0052953Y-0144193
X0052953Y-0145571
X0050984
X0050984Y-0144193
X005Y-0143209
X0049016Y-0144193
X0049016Y-0145571
X005Y-0150886
X0051968
X0052953Y-0152264
X0052953Y-0153642
X0050984
X0050984Y-0152264
X0049016
X0049016Y-0153642
X005Y-0161516
X0051968
X0052953Y-0162894
X0052953Y-0164272
X0050984
X0050984Y-0162894
X0049016
X0049016Y-0164272
X0038681Y-0164272
X0038681Y-0162894
X0036713
X0036713Y-0164272
X0034744
X0034744Y-0162894
X0035728Y-0161516
X0037697
X0036713Y-0153642
X0036713Y-0152264
X0038681
X0038681Y-0153642
X0037697Y-0150886
X0035728
X0034744Y-0152264
X0034744Y-0153642
X0034744Y-0145571
X0034744Y-0144193
X0036713
X0036713Y-0145571
X0038681
X0038681Y-0144193
X0037697Y-0142815
X0035728
X0036713Y-0134941
X0036713Y-0133563
X0038681
X0038681Y-0134941
X0037697Y-0132185
X0035728
X0034744Y-0133563
X0034744Y-0134941
X0035728Y-0106102
X0037697
X0036713Y-0104724
X0036713Y-0103347
X0038681
X0038681Y-0104724
X0034744
X0034744Y-0103347
X0035728Y-0095472
X0037697
X0036713Y-0094095
X0036713Y-0092716
X0038681
X0038681Y-0094095
X0034744
X0034744Y-0092716
X0035728Y-0087992
X0037697
X0036713Y-0086614
X0036713Y-0085236
X0034744
X0034744Y-0086614
X0038681
X0038681Y-0085236
X0037697Y-0077362
X0035728
X0034744Y-0075984
X0034744Y-0074606
X0036713
X0036713Y-0075984
X0038681
X0038681Y-0074606
X0047244
X0047244Y-0075984
X0049016
X0049016Y-0074606
X0050787
X0050787Y-0075984
X005Y-0077362
X0048031
X0049016Y-0085236
X0049016Y-0086614
X0050984
X0050984Y-0085236
X0052953
X0052953Y-0086614
X0051968Y-0087992
X005
X0050984Y-0092716
X0050984Y-0094095
X0049016
X0049016Y-0092716
X005Y-0095472
X0051968
X0052953Y-0094095
X0052953Y-0092716
X00525Y-01042
X00513
X00501
X00489
X00477
X00465
X00537
X00549
X0058858Y-0105118
X0060039Y-0106299
Y-0102362
X0058858Y-0101181
X0058169Y-007185
X0056988Y-0070669
Y-0066732
X0058169Y-0067913
X005689Y-0049803
X0055709
X0052953
X0051772
Y-0044685
X0052953
X0055709
X005689
X0057677Y-0042323
X0057579Y-0041142
X0060039Y-0041142
X0060138Y-0042323
X0051083
X0050984Y-0041142
Y-0020965
X0052165
Y-0016142
X0050984
X0046801
X004562
Y-0020965
X0046801
X0058071Y-0020965
Y-0022933
X0060039Y-0022933
Y-0020965
Y-0018996
X0058071Y-0018996
Y-0017028
X0060039
X-0002559Y-0023524
X-0004528
Y-0029429
X-0002559
Y-0035335
X-0004528
Y-004124
X-0002559
Y-0053051
X-0004528
X0005118Y-0052854
Y-0054823
X0010236
Y-0052854
X0009843Y-0049803
Y-0047835
X0015748
Y-0049803
X0015748Y-0052854
Y-0054823
X0021654
Y-0052854
X0007677Y-0060335
Y-0062303
X-0023031Y-0063287
X-0025
Y-0075787
X-0023031
X0062008Y-007185
X0060827Y-0070669
X0064665
X0065846Y-007185
Y-0067913
X0064665Y-0066732
X0062008Y-0067913
X0060827Y-0066732
X0060827Y-0049803
X0062008
X0064764
X0065945
X0069488
X0070669
X0073425
X0074606
X007815
X0079331
X0082087
X0083268Y-0049803
X0086811Y-0049803
X0087996Y-0049806
X0090748Y-0049803
X0091929
Y-0044685
X0090748
X0087992
X0086811
X0086122Y-0042323
X0086024Y-0041142
X0083957Y-0041142
X0084055Y-0042323
X0082087Y-0044685
Y-0045866
X0079331Y-0044685
X007815
X0077461Y-0042323
X0077362Y-0041142
X0075299Y-0041144
X0075394Y-0042323
X0073425Y-0044685
Y-0045866
X0070669Y-0044685
X0069488
X0068799Y-0042323
X0068701Y-0041142
X0066634Y-0041142
X0066732Y-0042323
X0065945Y-0044685
X0064764
X0062008
X0060827
X0065945Y-0034744
X0067913
X0069882
X007185
X0073819
X0075787
Y-0033563
X0073819Y-0032776
X007185
X0069882
X0067913
X0065945
X0066339Y-0029331
X0068602Y-0025787
X0063681Y-0025984
X0063878Y-0020669
X0063976Y-0015453
Y-0014173
X0062008
Y-0015453
X0065945Y-0015354
Y-0014075
X0069882Y-0015059
X007185
X0073819
X0075787
X0077756Y-0017028
X0079035
X0079331Y-0018996
X0077756Y-0018996
X0077854Y-0020965
X0079724
Y-0022933
X0077756
Y-0028839
X0079724
Y-0030807
X0078543
X0086614Y-0028937
X0087795
X0090551
X0091732
X009252Y-0026575
X0092421Y-0025394
X0085827Y-0025394
X0085925Y-0026575
X0085929Y-0018702
X0087205Y-0018701
X0091437
Y-001752
X0090354Y-0014764
X009498Y-0014567
X0096161
Y-0018701
X009498
X0102756Y-0018602
Y-0017421
X0103937
X0101575
X0101575Y-0014961
X0102756
X0103937
X010748Y-0018602
Y-0019783
X0109449
Y-0018602
X0111417
Y-0019783
X0113386
Y-0018602
X0112008Y-001624
X0110827
X0111221Y-0023819
Y-0025
X0113976
X0115157
X011811
Y-0023819
X012313
Y-0025
X0126181
Y-0023819
X0131201
Y-0025
X0134646
Y-0023819
X0138484Y-0025
X0139574Y-0023919
X0138979Y-0019923
X0137798
Y-0017364
X0138979
Y-0014805
X0137798
X0144193Y-0014173
X0145374
X0146555
X0154724Y-0014469
X0155905
X0157087
X0155905Y-001565
X0155905Y-0020571
Y-0021752
X0157087
X0154724
X016063Y-0020571
Y-001939
X0162598
Y-0020571
X0164567
Y-001939
X0166535
Y-0020571
X0168307Y-0023819
Y-0025
X017117Y-0025
X0171358Y-0023819
X0176181
X0176288Y-0025
X0179232Y-0025
Y-0023819
X018435
Y-0025
X0187697
Y-0023819
X019184Y-0023917
X0192815Y-0025
X0192176Y-0019903
X0190995
Y-0017343
X0192176
Y-0014784
X0190995
X0174854
X0173672
Y-0017343
X0174854
X0164173Y-0015256
X0162992
X0163189Y-0023819
Y-0025
X0164156Y-0036122
Y-0037303
X0160138
Y-0036122
X0157087Y-0036024
X0155905
X0154724
X0155905Y-0037205
X0155905Y-0042323
Y-0043504
X0157087
X0154725
X0154724Y-0045965
X0155905
X0157087
X0155905Y-0047146
X0155905Y-0052067
Y-0053248
X0157087
X0154724
X016063Y-0052067
Y-0050886
X0162598
Y-0052067
X0164567
Y-0050886
X0166535
Y-0052067
X0168307Y-0055315
Y-0056496
X017117Y-0056496
X0171358Y-0055315
X0176181
X0176288Y-0056496
X0179232Y-0056496
Y-0055315
X018435
Y-0056496
X0187697
Y-0055315
X0191634Y-0055905
X0192815Y-0055915
X0192176Y-0051398
X0190995
X019198Y-004884
X0193161
Y-004628
X019198
X0192176Y-0043721
X0190995
X0192224Y-0038189
X0193405
Y-0037008
Y-003937
X0187106Y-0038189
X0185925
Y-0037008
Y-003937
X0183071Y-003937
Y-0038189
Y-0037008
X018189Y-0038189
X0176772Y-0038189
X0175591
Y-0037008
Y-003937
X0175753Y-0043521
X0174572Y-0043921
X0174854Y-004628
X0173672
Y-004884
X0174854
X0170276Y-0043012
X0169095
X0166535Y-0042618
Y-0041437
X0164567
Y-0042618
X0162598
Y-0041437
X016063
Y-0042618
X0162992Y-0046752
X0164173
X0163189Y-0055315
Y-0056496
X0162008Y-0059842
Y-0061024
X0165157
X0166339
X0169095
X0170276
X0166929Y-0070669
X0166929Y-0072047
X0164961
X0164961Y-0070669
X0162992
X0162992Y-0072047
X0163976Y-0073425
X0165945
X0166929Y-0081299
X0166929Y-0082677
X0164961
X0164961Y-0081299
X0162992
X0162992Y-0082677
X0163976Y-0084055
X0165945
X0166929Y-0088287
X0166929Y-0089665
X0164961
X0164961Y-0088287
X0162992
X0162992Y-0089665
X0163976Y-0091043
X0165945
X0166929Y-0098917
X0166929Y-0100295
X0164961
X0164961Y-0098917
X0162992
X0162992Y-0100295
X0163976Y-0101673
X0165945
X0152067
X0150098
X0149114Y-0100295
X0149114Y-0098917
X0151083
X0151083Y-0100295
X0153051
X0153051Y-0098917
X0152067Y-0091043
X0150098
X0149114Y-0089665
X0149114Y-0088287
X0151083
X0151083Y-0089665
X0153051
X0153051Y-0088287
X0152067Y-0084055
X0150098
X0149114Y-0082677
X0149114Y-0081299
X0151083
X0151083Y-0082677
X0153051
X0153051Y-0081299
X0152067Y-0073425
X0150098
X0149114Y-0072047
X0149114Y-0070669
X0151083
X0151083Y-0072047
X0153051
X0153051Y-0070669
X0139665
X0139665Y-0072047
X0137697
X0137697Y-0070669
X0135728
X0135728Y-0072047
X0136713Y-0073425
X0138681
X0139665Y-0081299
X0139665Y-0082677
X0137697
X0137697Y-0081299
X0135728
X0135728Y-0082677
X0136713Y-0084055
X0138681
X0139665Y-0088287
X0139665Y-0089665
X0137697
X0137697Y-0088287
X0135728
X0135728Y-0089665
X0136713Y-0091043
X0138681
X0139665Y-0098917
X0139665Y-0100295
X0137697
X0137697Y-0098917
X0135728
X0135728Y-0100295
X0136713Y-0101673
X0138681
X0127362Y-0091929
Y-0089961
Y-0087992
X0125787Y-00875
Y-0089468
Y-0091437
Y-0093405
Y-0085532
Y-0083563
Y-0081595
X0126083Y-0056496
Y-0055315
X0123031
X0123138Y-0056496
X011802
X0118209Y-0055315
X0115157
Y-0056496
X0110039
Y-0055315
X0109449Y-0052067
Y-0050886
X010748
Y-0052067
X0111417
Y-0050886
X0113386
Y-0052067
X0111024Y-0046752
X0109843
X0109449Y-0042618
Y-0041437
X010748
Y-0042618
X0111417
Y-0041437
X0113386
Y-0042618
X0115945Y-0043012
X0117126
Y-0037894
X0115945
X0110906Y-0037303
Y-0036122
X0106988
Y-0037303
X0102756Y-0037205
Y-0036024
X0103937
X0101575
X0102756Y-0042323
Y-0043504
X0103937
X0101575
X0101575Y-0045965
X0102756
X0103937
X0102756Y-0047146
X0102756Y-0052067
Y-0053248
X0103937
X0101575
X0092716Y-0042323
X0092618Y-0041142
X0091732Y-0034055
X0090551
X0087795
X0086614
X0101575Y-0024902
X0102756
X0103937
X0102756Y-002372
X0120571Y-0017323
X0121752
Y-0014764
X0120571
X0122441Y-0037008
Y-0038189
Y-003937
X0123622Y-0038189
X012874Y-0038189
X0129921
Y-0037008
Y-003937
X0132776Y-003937
Y-0038189
Y-0037008
X0133957Y-0038189
X0139075Y-0038189
X0140256
Y-0037008
Y-003937
X0139027Y-0043721
X0137846
Y-004628
X0139027
Y-004884
X0137846
Y-0051398
X0139027
X013869Y-0055413
X0139665Y-0056496
X0134547
Y-0055315
X0131201
Y-0056496
X0121704Y-004884
X0120523
Y-004628
X0121704
X0121423Y-0043921
X0122604Y-0043521
X015689Y-0059842
Y-0061024
X0169095Y-0037894
X0170276
X0203839Y-0036024
X0205118
X0206299
X020748Y-0036024
X0207579Y-0046654
X0206299
X0205118
X0203937Y-0046654
X0200512Y-0051276
Y-0052556
Y-0053835
Y-0056201
X0201717Y-0056203
X0200623Y-0057446
X0200585Y-0063188
X0201865
Y-0064517
X0200585
Y-0065845
X0201865
X020185Y-0068061
X0200571
Y-006939
X020185
Y-0070718
X0200571
Y-0073081
X020185
Y-0074409
X0200571
Y-0075738
X020185
Y-0078002
X0200571
Y-0079331
X020185
Y-0080659
X0200571
X0205906Y-0080709
X0207185
Y-007938
X0205906
Y-0078051
X0207185
Y-0075787
X0205906
Y-0074459
X0207185
Y-007313
X0205906
X0205827Y-0070718
X0207106
Y-006939
X0205827
Y-0068061
X0207106
X0207121Y-0065845
X0205841
Y-0064517
X0207121
Y-0063188
X0205841
X0207365Y-005876
Y-005748
Y-0056201
Y-0053835
Y-0052556
Y-0051276
X0212894Y-0052559
X0214075
X0215256
X0216437
X0216437Y-005374
X0215256
X0214075
X0212894
X0212894Y-0056496
X0214075
X0215256
X0216437
X0216437Y-0057677
X0215256
X0214075
X0212894
X0212894Y-0060433
X0214075
X0215256
X0216437
X0216437Y-0061614
X0215256
X0214075
X0212894
X0212894Y-006437
X0214075
X0215256
X0216437
X0216437Y-0065551
X0215256
X0214075
X0212894
X0212894Y-0068307
X0214075
X0215256
X0216437
X0216437Y-0069488
X0215256
X0214075
X0212894
X0212894Y-0072244
X0214075
X0215256
X0216437
X0216437Y-0073425
X0215256
X0214075
X0212894
Y-0049803
X0214075
X0215256
X0216437
X0216437Y-0048622
X0215256
X0214075
X0212894
X0212894Y-0045866
X0214075
X0215256
X0216437
X0216437Y-0044685
X0215256
X0214075
X0212894
X0207579Y-0023524
X0206299
X0205118
X0203937Y-0023524
X0205217Y-0099213
X0206491
Y-0100492
X0205217
Y-0101772
X0206491
X0206589Y-0107234
X0205315
Y-0108514
X0206589
Y-0109793
X0205315
X0205217Y-0115256
X0206491
Y-0116535
X0205217
Y-0117815
X0206491
X0205906Y-0123278
X020718
Y-0124557
X0205906
Y-0125837
X020718
Y-0131305
X0205906
Y-0132584
X020718
Y-0133864
X0205906
X0212894Y-0134449
X0214075
X0215256
X0216437
X0216437Y-0133268
X0215256
X0214075
X0212894
X0212894Y-0130512
X0214075
X0215256
X0216437
X0216437Y-0129331
X0215256
X0214075
X0212894
X0212894Y-0126575
X0214075
X0215256
X0216437
X0216437Y-0125394
X0215256
X0214075
X0212894
X0212894Y-0122638
X0214075
X0215256
X0216437
X0216437Y-0121457
X0215256
X0214075
X0212894
X0212894Y-0118701
X0214075
X0215256
X0216437
X0216437Y-011752
X0215256
X0214075
X0212894
X0212894Y-0114764
X0214075
X0215256
X0216437
X0216437Y-0113583
X0215256
X0214075
X0212894
X0212894Y-0110827
X0214075
X0215256
X0216437
X0216437Y-0109646
X0215256
X0214075
X0212894
X0212894Y-010689
X0214075
X0215256
X0216437
X0216437Y-0105709
X0215256
X0214075
X0212894
X0212894Y-0102953
X0214075
X0215256
X0216437
X0216437Y-0101772
X0215256
X0214075
X0212894
X0212894Y-0099016
X0214075
X0215256
X0216437
X0216437Y-0097835
X0215256
X0214075
X0212894
X0199409Y-0099213
X0198135
Y-0100492
X0199409
Y-0101772
X0198135
Y-0107234
X0199409
Y-0108514
X0198135
Y-0109793
X0199409
X0199016Y-0115256
X0197742
Y-0116535
X0199016
Y-0117815
X0197742
X0192022
X0190748
Y-0116535
X0192022
Y-0115256
X0190748
Y-0109793
X0192022
Y-0108514
X0190748
Y-0107234
X0192022
X0182874
X01816
Y-0108514
X0182874
Y-0109793
X01816
Y-0115256
X0182874
Y-0116535
X01816
Y-0117815
X0182874
Y-0123278
X01816
Y-0124557
X0182874
Y-0125837
X01816
Y-0131299
X0182874
Y-0132579
X01816
Y-0133858
X0182874
X0190748
X0192022
Y-0132579
X0190748
Y-0131299
X0192022
X0196757Y-0131305
X0198031
Y-0132584
X0196757
Y-0133864
X0198031
Y-0125837
X0196757
Y-0124557
X0198031
Y-0123278
X0196757
X0192022
X0190748
Y-0124557
X0192022
Y-0125837
X0190748
X0166929Y-0129429
X0166929Y-0130807
X0164961
X0164961Y-0129429
X0162992
X0162992Y-0130807
X0163976Y-0132185
X0165945
X0164961Y-0140059
X0164961Y-0141437
X0162992
X0162992Y-0140059
X0163976Y-0142815
X0165945
X0166929Y-0141437
X0166929Y-0140059
Y-0148327
X0166929Y-0149705
X0164961
X0164961Y-0148327
X0162992
X0162992Y-0149705
X0163976Y-0151083
X0165945
X0166929Y-0158957
X0166929Y-0160335
X0164961
X0164961Y-0158957
X0162992
X0162992Y-0160335
X0163976Y-0161713
X0165945
X0152067
X0150098
X0149114Y-0160335
X0149114Y-0158957
X0151083
X0151083Y-0160335
X0153051
X0153051Y-0158957
X0152067Y-0151083
X0150098
X0149114Y-0149705
X0149114Y-0148327
X0151083
X0151083Y-0149705
X0153051
X0153051Y-0148327
X0152067Y-0142815
X0150098
X0149114Y-0141437
X0149114Y-0140059
X0151083
X0151083Y-0141437
X0153051
X0153051Y-0140059
X0152067Y-0132185
X0150098
X0149114Y-0130807
X0149114Y-0129429
X0151083
X0151083Y-0130807
X0153051
X0153051Y-0129429
X0139665
X0139665Y-0130807
X0137697
X0137697Y-0129429
X0135728
X0135728Y-0130807
X0136713Y-0132185
X0138681
X0137697Y-0140059
X0137697Y-0141437
X0135728
X0135728Y-0140059
X0136713Y-0142815
X0138681
X0139665Y-0141437
X0139665Y-0140059
Y-0148327
X0139665Y-0149705
X0137697
X0137697Y-0148327
X0135728
X0135728Y-0149705
X0136713Y-0151083
X0138681
X0139665Y-0158957
X0139665Y-0160335
X0137697
X0137697Y-0158957
X0135728
X0135728Y-0160335
X0136713Y-0161713
X0138681
X0127362Y-0150787
Y-0148819
Y-014685
X0125787Y-0146358
Y-0148327
Y-0150295
Y-0152264
Y-014439
Y-0142421
Y-0140453
X0125098Y-0113583
Y-0111614
X0117224
Y-0113583
X009124Y-0125197
X0090059Y-0124016
Y-0128543
X009124Y-0128642
X0086313Y-0129134
X0085132Y-0127953
X0086313Y-0125197
X0085132Y-0124016
X0080604
X0081785Y-0125197
Y-0129134
X0080604Y-0127953
X0076575Y-0133957
Y-0135138
Y-0136319
X0074606
Y-0135138
Y-0133957
X0072638
Y-0135138
Y-0136319
X0070669
Y-0135138
Y-0133957
X0068898Y-0138091
X0067716
X0066535
Y-0140059
X0067716
X0068898
Y-0142028
X0067716
X0066535
Y-0143996
X0067716
X0068898
Y-0145965
X0067716
X0066535
Y-0147933
X0067716
X0068898
Y-0149902
X0067716
X0066535
Y-015187
X0067716
X0068898
Y-0153839
X0067716
X0066535
Y-0155807
X0067716
X0068898
X0070669Y-0157579
Y-015876
Y-0159941
X0072638
Y-015876
Y-0157579
X0074606
Y-015876
Y-0159941
X0076575
Y-015876
Y-0157579
X0078346Y-0155807
X0079527
X0080709
Y-0153839
X0079527
X0078346
Y-015187
X0079527
X0080709
Y-0149901
X0079527
X0078346
Y-0147933
X0079527
X0080709
Y-0145965
X0079527
X0078346
Y-0143996
X0079527
X0080709
Y-0142027
X0079527
X0078346
Y-0140059
X0079527
X0080709
Y-0138091
X0079527
X0078346
X0074213Y-013937
X007185
Y-0143135
X0071063Y-0144587
X0073425
X0072638Y-0145768
X007185Y-01469
X0071063Y-0148327
X0073425
X0072441Y-0149508
X007185Y-0150664
X0074213
X0074803Y-0149508
X0074213Y-01469
X0075Y-0145768
X0074213Y-0143135
Y-0154429
X007185
X0082382Y-0160335
X008248Y-0161516
X00875
X0087402Y-0160335
X0087598Y-0149311
X0086417Y-014813
Y-0142618
X0087598Y-0143799
X0094291Y-014439
Y-0142421
Y-0140453
Y-0146358
Y-0148327
Y-0150295
Y-0152264
X0092716Y-0150787
Y-0148819
Y-014685
X0065846Y-0129134
X0064665Y-0127953
X0062008Y-0129134
X0060827Y-0127953
X0062008Y-0125197
X0060827Y-0124016
X0064665
X0065846Y-0125197
X0066535Y-0098524
X0067716
X0068898
Y-0096555
X0067716
X0066535
Y-0094587
X0067716
X0068898
Y-0092618
X0067716
X0066535
Y-009065
X0067716
X0068898
Y-0088681
X0067716
X0066535
Y-0086713
X0067716
X0068898
Y-0084744
X0067716
X0066535
Y-0082776
X0067716
X0068898
Y-0080807
X0067716
X0066535
X0070669Y-0079036
Y-0077854
Y-0076673
X0072638
Y-0077854
Y-0079036
X0074606
Y-0077854
Y-0076673
X0076575
Y-0077854
Y-0079036
X0078346Y-0080807
X0079527
X0080709
Y-0082776
X0079527
X0078346
Y-0084744
X0079527
X0080709
Y-0086713
X0079527
X0078346
Y-0088681
X0079527
X0080709
Y-009065
X0079527
X0078346
Y-0092618
X0079527
X0080709
Y-0094587
X0079527
X0078346
Y-0096555
X0079527
X0080709
Y-0098524
X0079527
X0078346
X0076575Y-0100295
Y-0101476
Y-0102657
X0074606
Y-0101476
Y-0100295
X0072638
Y-0101476
Y-0102657
X0070669
Y-0101476
Y-0100295
X007185Y-0097146
X0074213
Y-0093381
X0075295Y-0092421
X0072933
X0073622Y-0091339
X0074213Y-0089616
X007185
X007126Y-0091339
X007185Y-0093381
X0071752Y-0087303
X007185Y-0085851
X0074213
X0074114Y-0087303
X0075295Y-0088287
X0072933
X007185Y-0082087
X0074213
X0086417Y-0085335
X0087598Y-0086516
Y-0092027
X0086417Y-0090847
X0092815Y-0090158
Y-0092126
X0094291Y-0091437
Y-0093405
Y-0089468
Y-00875
Y-0085532
Y-0083563
Y-0081595
X0092815Y-0088189
X0091339Y-0071358
X0090158Y-007126
X0086319Y-007185
X0085138Y-0070669
Y-0066732
X0086319Y-0067913
X0081791
X008061Y-0066732
Y-0070669
X0081791Y-007185
X0090164Y-0066732
X0091345Y-0067914
X00875Y-0103051
X00875Y-0104232
X0083563
X0082382Y-0103051
X0217618Y-0102953
X0218799
X021998
X021998Y-0101772
X0218799
X0217618
X0217618Y-0099016
X0218799
X0218799Y-0097835
X0217618
X021998
X021998Y-0099016
X021998Y-0105709
X0218799
X0217618
X0217618Y-010689
X0218799
X021998
X021998Y-0109646
X021998Y-0110827
X0218799
X0217618
X0217618Y-0109646
X0218799
Y-0113583
X0217618
X0217618Y-0114764
X0218799
X021998
X021998Y-0113583
Y-011752
X021998Y-0118701
X0218799
X0217618
X0217618Y-011752
X0218799
Y-0121457
X0217618
X0217618Y-0122638
X0218799
X021998
X021998Y-0121457
Y-0125394
X021998Y-0126575
X0218799
X0217618
X0217618Y-0125394
X0218799
Y-0129331
X0217618
X0217618Y-0130512
X0218799
X021998
X021998Y-0129331
X021998Y-0133268
X0218799
X0217618
X0217618Y-0134449
X0218799
X021998
X0245886Y-0134449
X0247067
X0248248
X0249429
X025061
X0251791
X0251791Y-0133268
X025061
X0249429
X0248248
X0247067
X0245886
X0245886Y-0130512
X0247067
X0248248
X0249429
X025061
X0251791
X0252972
X0252972Y-0129331
X0251791
X025061
X0249429
X0248248
X0247067
X0245886
X0245886Y-0126575
X0247067
X0248248
X0249429
X025061
X0251791
X0252972
X0252972Y-0125394
X0251791
X025061
X0249429
X0248248
X0247067
X0245886
X0245886Y-0122638
X0245886Y-0121457
X0247067
X0248248
X0249429
X025061
X0251791
X0252973
X0252973Y-0122638
X0251791
X025061
X0249429
X0248248
X0247067
Y-0118701
X0248248
X0249429
X025061
X0251791
X0252973
X0252973Y-011752
X0251791
X025061
X0249429
X0248248
X0247067
X0245886
X0245886Y-0118701
Y-0114764
X0245886Y-0113583
X0247067
X0248248
X0249429
X025061
X0251791
X0252973
X0252973Y-0114764
X0251791
X025061
X0249429
X0248248
X0247067
Y-0110827
X0248248
X0249429
X025061
X0251791
X0252973
X0252973Y-0109646
X0251791
X025061
X0249429
X0248248
X0247067
X0245886
X0245886Y-0110827
Y-010689
X0245886Y-0105709
X0247067
X0248248
X0249429
X025061
X0251791
X0252973
X0252973Y-010689
X0251791
X025061
X0249429
X0248248
X0247067
Y-0102953
X0248248
X0249429
X025061
X0251791
X0252973
X0252973Y-0101772
X0251791
X025061
X0249429
X0248248
X0247067
X0245886
X0245886Y-0102953
Y-0099016
X0245886Y-0097835
X0247067
X0248248
X0249429
X025061
X0251791
X0252973
X0252973Y-0099016
X0251791
X025061
X0249429
X0248248
X0247067
X0262594Y-0099508
Y-0098327
X0263676Y-0098917
Y-0100099
X0262594Y-0100689
X0262894Y-010571
Y-0106891
Y-0108072
X0263976Y-0107482
Y-0106301
X0269291Y-0106201
Y-0107382
X0270374Y-0106791
Y-010561
Y-0107973
Y-0112894
Y-0114075
Y-0115256
X0269291Y-0114665
Y-0113484
X0263976
Y-0114665
X0262894Y-0114075
Y-0112894
Y-0115256
X0262894Y-0120177
Y-0121358
Y-0122539
X0263976Y-0121949
Y-0120768
X0269291
Y-0121949
X0270374Y-0121358
Y-0120177
Y-0122539
X0270374Y-0127461
Y-0128642
Y-0129823
X0269291Y-0129232
Y-0128051
X0263976
Y-0129232
X0262894Y-0128642
Y-0127461
Y-0129823
Y-0134744
Y-0135925
Y-0137106
X0263976Y-0136516
Y-0135335
X0269291
Y-0136516
X0270374Y-0135925
Y-0134744
Y-0137106
X0270374Y-0142028
Y-0143209
Y-014439
X0269291Y-0143799
Y-0142618
X0263976
Y-0143799
X0262894Y-0143209
Y-0142028
Y-014439
X0262894Y-0149311
Y-0150492
Y-0151673
X0263976Y-0151083
Y-0149902
X0269291
Y-0151083
X0270374Y-0150492
Y-0149311
Y-0151673
X0276575Y-0151673
Y-0150492
Y-0149311
X0277658Y-0149902
Y-0151083
X0282972
Y-0149902
X0284055Y-0150492
Y-0149311
Y-0151673
Y-014439
Y-0143209
Y-0142028
X0282972Y-0142618
Y-0143799
X0277658
Y-0142618
X0276575Y-0143209
Y-0142028
Y-014439
X0252972Y-0134449
X0252972Y-0133268
X0262894Y-0093406
Y-0092225
Y-0091043
X0263976Y-0091634
Y-0092815
X0269291
Y-0091634
X0270374Y-0092225
Y-0091043
Y-0093406
X0270374Y-0098227
Y-0099408
Y-0100589
X0269193Y-0099408
Y-0098227
X0269291Y-0085532
Y-0084351
X0270374Y-008376
Y-0084941
Y-0086122
X0263976Y-0085532
X0263976Y-0084351
X0262894Y-008376
X0263976Y-0078248
Y-0077067
X0262894Y-0076477
X0269291Y-0077067
Y-0078248
X0270374Y-0077658
Y-0076477
Y-0078839
X0252972Y-0080118
X0252972Y-0081299
X0251791
X025061
X0249429
X0248248
X0247067
X0245886
X0245886Y-0080118
X0247067
X0248248
X0249429
X025061
X0251791
X0251791Y-0077362
X025061
X0249429
X0248248
X0247067
X0245886
X0245886Y-0076181
X0247067
X0248248
X0249429
X025061
X0251791
X0252972
X0252972Y-0077362
Y-0073425
X0252972Y-0072244
X0251791
X025061
X0249429
X0248248
X0247067
X0245886
X0245886Y-0073425
X0247067
X0248248
X0249429
X025061
X0251791
X0251791Y-0069488
X0252973
X0252973Y-0068307
X0251791
X025061
X0249429
X0248248
X0247067
X0247067Y-0069488
X0248248
X0249429
X025061
Y-0065551
X0249429
X0248248
X0247067
X0245886
X0245886Y-006437
X0247067
X0248248
X0249429
X025061
X0251791
X0252973
X0252973Y-0065551
X0251791
Y-0061614
X0252973
X0252973Y-0060433
X0251791
X025061
X0249429
X0248248
X0247067
X0247067Y-0061614
X0248248
X0249429
X025061
Y-0057677
X0249429
X0248248
X0247067
X0245886
X0245886Y-0056496
X0247067
X0248248
X0249429
X025061
X0251791
X0252973
X0252973Y-0057677
X0251791
Y-005374
X0252973
X0252973Y-0052559
X0251791
X025061
X0249429
X0248248
X0247067
X0247067Y-005374
X0248248
X0249429
X025061
Y-0049803
X0249429
X0248248
X0247067
X0245886
X0245886Y-0048622
X0247067
X0248248
X0249429
X025061
X0251791
X0252973
X0252973Y-0049803
X0251791
Y-0045866
X0252973
X0252973Y-0044685
X0251791
X025061
X0249429
X0248248
X0247067
X0247067Y-0045866
X0248248
X0249429
X025061
X0245886
X0245886Y-0044685
Y-0052559
X0245886Y-005374
X0245886Y-0060433
X0245886Y-0061614
X0245886Y-0068307
X0245886Y-0069488
X021998Y-0069488
X021998Y-0068307
X0218799
X0217618
X0217618Y-0069488
X0218799
X0218799Y-0072244
X0217618
X0217618Y-0073425
X0218799
X021998
X021998Y-0072244
X021998Y-0065551
X0218799
X0217618
X0217618Y-006437
X0218799
X021998
X021998Y-0061614
X021998Y-0060433
X0218799
X0217618
X0217618Y-0061614
X0218799
Y-0057677
X0217618
X0217618Y-0056496
X0218799
X021998
X021998Y-0057677
Y-005374
X021998Y-0052559
X0218799
X0217618
X0217618Y-005374
X0218799
Y-0049803
X0217618
X0217618Y-0048622
X0218799
X021998
X021998Y-0049803
Y-0045866
X021998Y-0044685
X0218799
X0217618
X0217618Y-0045866
X0218799
X0262894Y-0022736
Y-0021555
Y-0020374
X0263976Y-0020965
Y-0022146
X0269291Y-0022146
Y-0020965
X0270374Y-0021555
Y-0020374
Y-0022736
X0270374Y-0015315
Y-0014134
X0269291Y-0014724
X0263976Y-0014724
X0262894Y-0014134
Y-0015315
Y-0012953
X0263976Y-0013543
X0269291Y-0013543
X0270374Y-0012953
Y0006949
Y000813
Y0009311
X0269291Y0008721
Y0007539
X0263976Y0007539
Y0008721
X0262894Y0009311
Y000813
Y0006949
Y001437
Y0015551
Y0016732
X0263976Y0016142
Y0014961
X0269291Y0014961
Y0016142
X0270374Y0015551
Y0016732
Y001437
Y0027559
Y002874
Y0029921
X0269291Y0029331
Y002815
X0263976Y002815
Y0029331
X0262894Y0029921
Y002874
Y0027559
X0262894Y0034449
Y003563
Y0036811
X0263976Y003622
Y0035039
X0269291Y0035004
Y0036185
X0270374Y0035594
Y0036775
Y0034413
X0270374Y0041267
Y0042448
Y0043629
X0269291Y0043039
Y0041858
X0263976Y0041831
Y0043012
X0262894Y0043602
Y0042421
Y004124
Y004813
Y0049311
Y0050492
X0263976Y0049902
Y004872
X0269291Y0048711
Y0049893
X0270374Y0049302
Y0050483
Y0048121
Y0054975
Y0056156
Y0057337
X0269291Y0056747
Y0055566
X0263976Y005561
Y0056791
X0262894Y0057382
Y0056201
Y005502
Y0061811
Y0062992
Y0064173
X0263976Y0063583
Y0062402
X0269291Y0062419
Y0063601
X0270374Y006301
Y0064191
Y0061829
X0270374Y0068683
Y0069864
Y0071045
X0269291Y0070455
Y0069274
X0263976Y0069291
Y0070472
X0262894Y0071063
Y0069882
Y0068701
X0262992Y007559
Y0076772
Y0077953
X0264075Y0077362
Y0076181
X0269291Y0076127
Y0077308
X0270374Y0076718
Y0077899
Y0075537
X0270374Y0082391
Y0083572
Y0084753
X0269291Y0084162
Y0082981
X0263976Y0082972
Y0084153
X0262894Y0084744
Y0083563
Y0082382
Y0089272
Y0090453
Y0091634
X0263976Y0091043
Y0089862
X0269291Y0089835
Y0091017
X0270374Y0090426
Y0091607
Y0089245
X0270374Y0096099
Y009728
Y0098461
X0269291Y009787
Y0096689
X0263976Y0096752
Y0097933
X0262894Y0098524
Y0097342
Y0096161
Y0102953
Y0104134
Y0105315
X0263976Y0104724
Y0103543
X0269291
Y0104724
X0270374Y0105315
Y0104134
Y0102953
X0252973Y0102677
X0251791
X025061
X0249429
X0248248
X0247067
X0247067Y0103858
X0248248
X0249429
X025061
X0251791
X0252973
X0252973Y0106614
X0251791
X025061
X0249429
X0248248
X0247067
X0247067Y0107795
X0248248
X0249429
X025061
X0251791
X0252973
X0252973Y0110551
X0251791
X025061
X0249429
X0248248
X0247067
X0247067Y0111732
X0248248
X0249429
X025061
X0251791
X0252973
X0252973Y0114488
X0251791
X025061
X0249429
X0248248
X0247067
X0245886
X0245886Y0115669
X0247067
X0248248
X0249429
X025061
X0251791
X0252973
X0252973Y0118425
X0251791
X025061
X0249429
X0248248
X0247067
X0247067Y0119606
X0248248
X0249429
X025061
X0251791
X0252973
X0252973Y0122362
X0251791
X025061
X0249429
X0248248
X0247067
X0245886
X0245886Y0123543
X0247067
X0248248
X0249429
X025061
X0251791
X0252973
X0252973Y0126299
X0251791
X025061
X0249429
X0248248
X0247067
X0247067Y012748
X0248248
X0249429
X025061
X0251791
X0252973
X0245886
X0245886Y0126299
X0245886Y0119606
X0245886Y0118425
X0245886Y0111732
X0245886Y0110551
X0245886Y0107795
X0245886Y0106614
X0245886Y0103858
X0245886Y0102677
X0245886Y0099921
X0247067
X0248248
X0249429
X025061
X0251791
X0251791Y009874
X025061
X0249429
X0248248
X0247067
X0245886
X0245886Y0095984
X0247067
X0248248
X0249429
X025061
X0251791
X0251791Y0094803
X025061
X0249429
X0248248
X0247067
X0245886
X0245886Y0092047
X0247067
X0248248
X0249429
X025061
X0251791
X0252972
X0252972Y0090866
X0251791
X025061
X0249429
X0248248
X0247067
X0245886
X0252972Y0094803
X0252972Y0095984
X0252972Y009874
X0252972Y0099921
X0252973Y0074331
X0251791
X025061
X0249429
X0248248
X0247067
X0247067Y007315
X0248248
X0249429
X025061
X0251791
X0252973
X0252973Y0070394
X0251791
X025061
X0249429
X0248248
X0247067
X0245886
X0245886Y0069213
X0247067
X0248248
X0249429
X025061
X0251791
X0252973
X0252973Y0066457
X0251791
X025061
X0249429
X0248248
X0247067
X0247067Y0065276
X0248248
X0249429
X025061
X0251791
X0252973
X0252973Y006252
X0251791
X025061
X0249429
X0248248
X0247067
X0245886
X0245886Y0061339
X0247067
X0248248
X0249429
X025061
X0251791
X0252973
X0252973Y0058583
X0251791
X025061
X0249429
X0248248
X0247067
X0245886
X0245886Y0057402
X0247067
X0248248
X0249429
X025061
X0251791
X0252973
X0252973Y0054646
X0251791
X025061
X0249429
X0248248
X0247067
X0245886
X0245886Y0053465
X0247067
X0248248
X0249429
X025061
X0251791
X0252973
X0252973Y0050709
X0251791
X025061
X0249429
X0248248
X0247067
X0247067Y0049528
X0248248
X0249429
X025061
X0251791
X0252973
X0252972Y0046772
X0251791
X025061
X0249429
X0248248
X0247067
X0245886
X0245886Y0045591
X0247067
X0248248
X0249429
X025061
X0251791
X0252972
X0252972Y0042835
X0251791
X025061
X0249429
X0248248
X0247067
X0245886
X0245886Y0041654
X0247067
X0248248
X0249429
X025061
X0251791
X0252972
X0252972Y0038898
X0252972Y0037717
X0251791
X025061
X0249429
X0248248
X0247067
X0245886
X0245886Y0038898
X0247067
X0248248
X0249429
X025061
X0251791
X0245886Y0049528
X0245886Y0050709
X0245886Y0065276
X0245886Y0066457
X0245886Y007315
X0245886Y0074331
X021998Y0074331
X021998Y007315
X0218799
X0217618
X0217618Y0074331
X0218799
Y0070394
X0217618
X0217618Y0069213
X0218799
X021998
X021998Y0070394
Y0066457
X021998Y0065276
X0218799
X0217618
X0217618Y0066457
X0218799
Y006252
X0217618
X0217618Y0061339
X0218799
X021998
X021998Y006252
Y0058583
X021998Y0057402
X0218799
X0217618
X0217618Y0058583
X0218799
Y0054646
X0217618
X0217618Y0053465
X0218799
X021998
X021998Y0054646
Y0050709
X021998Y0049528
X0218799
X0217618
X0217618Y0050709
X0218799
Y0046772
X0217618
X0217618Y0045591
X0218799
X021998
X021998Y0046772
Y0042835
X021998Y0041654
X0218799
X0217618
X0217618Y0042835
X0218799
X0218799Y0038898
X021998
X021998Y0037716
X0218799
X0217618
X0217618Y0038898
X0217815Y0001969
Y0000689
Y-0000492
X0217815Y-0001673
X0228937Y-0001772
Y-0000492
Y0000689
X0228937Y000187
X0239567Y0001969
Y0000689
Y-0000492
X0239567Y-0001673
X0244685Y-000187
Y-0000591
Y0000591
X0244685Y0001772
X0255315Y000187
Y0000591
Y-0000591
X0255315Y-0001772
X021998Y009874
X0218799
X0217618
X0217618Y0099921
X0218799
X021998
X021998Y0102677
X021998Y0103858
X0218799
X0217618
X0217618Y0102677
X0218799
Y0106614
X0217618
X0217618Y0107795
X0218799
X021998
X021998Y0106614
Y0110551
X0218799
X0217618
X0217618Y0111732
X0218799
X021998
X021998Y0114488
X0218799
X0217618
X0217618Y0115669
X0218799
X021998
X021998Y0118425
X0218799
X0217618
X0217618Y0119606
X0218799
X021998
X021998Y0122362
X021998Y0123543
X0218799
X0217618
X0217618Y0122362
X0218799
Y0126299
X0217618
X0217618Y012748
X0218799
X021998
X021998Y0126299
X0279035Y0137008
X0280217
X0281398
X0280807Y0138091
X0279626
X0284842
X0286024
X0286614Y0137008
X0285433
X0284252
X0216437Y012748
X0215256
X0214075
X0212894
X0212894Y0126299
X0214075
X0215256
X0216437
X0216437Y0123543
X0215256
X0214075
X0212894
X0212894Y0122362
X0214075
X0215256
X0216437
X0216437Y0119606
X0215256
X0214075
X0212894
X0212894Y0118425
X0214075
X0215256
X0216437
X0216437Y0115669
X0215256
X0214075
X0212894
X0212894Y0114488
X0214075
X0215256
X0216437
X0216437Y0111732
X0215256
X0214075
X0212894
X0212894Y0110551
X0214075
X0215256
X0216437
X0216437Y0107795
X0215256
X0214075
X0212894
X0212894Y0106614
X0214075
X0215256
X0216437
X0216437Y0103858
X0215256
X0214075
X0212894
X0212894Y0102677
X0214075
X0215256
X0216437
X0216437Y0099921
X0215256
X0214075
X0212894
X0212894Y009874
X0214075
X0215256
X0216437
X0207402Y009936
X0206122
Y0098032
X0207402
Y0096703
X0206122
Y0094439
X0207402
Y009311
X0206122
Y0091782
X0207402
X0203327
X0202047
X0200768
Y009311
X0202047
X0203327
Y0098032
X0202047
X0200768
Y009936
X0202047
X0203327
Y0101723
X0202047
X0200768
Y0103051
X0202047
X0203327
X0206122
X0207402
Y010438
X0206122
X0206136Y0106596
X0207416
Y0107924
X0206136
Y0109253
X0207416
X0203346Y0109252
X0202067
X0200787
Y0107923
X0202067
X0203346
X0206122Y0101723
X0207402
X0207542Y0113386
Y0114665
Y0115945
Y011831
Y011959
Y0120869
X0206988Y0125399
X0205709
X0204429
X0200689Y0120869
Y011959
Y011831
Y0115945
X0201894Y0115942
X02008Y01147
X0192815Y0116732
Y0117913
X0193703Y0121908
X0194884
X0194589Y0124368
X019577
Y0126927
X0194589
Y0129486
X019577
X0195177Y0133858
X0195177Y0135039
X0195177Y0136221
X0194095Y013563
Y0134449
X0189173Y0134449
Y013563
X0188091Y0136221
X0188091Y0135039
X0188091Y0133858
X0185039
X0185039Y0135039
X0185039Y0136221
X0183957Y013563
Y0134449
X0179134Y0135039
X0179134Y0133858
X0178051Y0134449
Y013563
X0179134Y0136221
X0178543Y0129528
X0177362
Y0126969
X0178543
Y0124409
X0177362
X0176279Y0117913
Y0116732
X0179232
Y0117913
X018435
Y0116732
X0187697
Y0117913
X0187106Y0105512
X0185925
Y0106693
Y0104331
X0183071Y0104331
Y0105512
Y0106693
X018189Y0105512
X0176772Y0105512
X0175591
Y0106693
Y0104331
X0175802Y01002
X017462Y00998
X0174902Y0097441
X0173721
Y0094882
X0174902
X0176279Y0088386
Y0087205
X0179232
Y0088386
X018435
Y0087205
X0187697
Y0088386
X0192824Y0088292
X0192028Y0087303
X0192128Y0092282
X0190947
X019065Y0094882
X0190849Y00974
X0192037Y0097544
X0192128Y0099959
X0190947
X0192224Y0105512
X0193405
Y0106693
Y0104331
X0170276Y0105807
X0169095
Y0100689
X0170276
X0166535Y0101083
Y0102264
X0164567
X0164567Y0101083
X0162598Y0101083
Y0102264
X016063
Y0101083
X015689Y0101378
X0155709
X0155905Y0100197
X0157087
X0157087Y0097736
X0155905
X0155709Y0096555
X015689
X0161221Y0096358
X0162402Y0098032
X0162599Y0092815
X0162598Y0091634
X016063
Y0092815
X0164567
Y0091634
X0166535
Y0092815
X0167126Y0088386
X0168307
X0171161
X0172343
X0163189
Y0087205
X0157087Y0090256
X0155905
X0155905Y0091437
X0157087
X0144589Y009238
X0143408
Y0094841
X0144589
Y00974
X0143408
Y0099959
X0144589
X0144193Y0104331
X0144193Y0105512
X0144193Y0106693
X0137992Y0106102
Y0104921
X0136909Y0104331
X0136909Y0105512
X0136909Y0106693
X0133858
X0133858Y0105512
X0133858Y0104331
X0132776Y0104921
Y0106102
X0127953Y0105512
X0127953Y0104331
X012687Y0104921
Y0106102
X0127953Y0106693
X0127362Y01
X0126181
Y0097441
X0127362
Y0094882
X0126181
X0125098Y0088386
Y0087205
X0128051
Y0088386
X0133169
X0132979Y0087209
X0136516Y0087205
Y0088386
X0141634
Y0087205
X0145453Y0078937
Y0077756
X0149488
Y0078937
X0151378Y0073721
Y0072539
X0143898
Y0073721
X0147638Y0066732
Y0065551
X01509Y00578
Y0056619
X01443
Y00578
X0143996Y0045276
X0145177
X0148622
X0149803
Y0040157
X0148622
X0145177
X0143996
X0136614Y0040551
X0135433
X0134843Y0038583
X0136024
Y0036614
X0134843
Y0034646
X0136024
X0135039Y002874
X0133858
Y0026772
X0135039
X0132283Y0025197
Y0024016
X0130315
Y0025197
X0128347
Y0024016
X0126378
Y0025197
X0124409
Y0024016
X0122441Y0024213
Y0023031
X0120473Y0024016
Y0025197
X0118504
Y0024016
X0116929Y0026772
X0115748
Y002874
X0116929
Y0034646
X0115748
Y0036614
X0116929
Y0038583
X0115748
Y0040551
X0116929
X0118504Y0042126
Y0043307
X0120472
Y0042126
X0122441
Y0043307
X0126378
Y0042126
X0128346
Y0043307
X0130315
Y0042126
X0132283Y0043701
Y0044882
X0129724Y0036516
X0126181Y0032185
X0126476Y0028937
X0122539Y0033661
X0119882
Y0036319
X012185
X012185Y0049705
Y0050886
X0125984
Y0049705
X0107972Y0045276
X0106791
X0103248Y0045276
X0102067
Y0040157
X0103248
Y0037697
X0102067
Y0033779
X0103248
X01068Y00337
X0108
X0107972Y0037697
X0106791
Y0040157
X0107972
X0107382Y0059252
Y0060433
X0108071Y0066535
X010689Y0067716
X0103642Y0067913
X0102461Y0067913
X0102657Y0069882
X0103839
Y007185
X0102657
X0107382Y0072441
Y0073622
X010935
X010935Y0072441
X0112106Y007185
X0113287
Y0069882
X0112106
Y0067913
X0113287Y0067913
Y0065945
X0112106
Y0063976
X0113287
X0103937
X0102657
X0102953Y0065945
X0104232
X0093602Y0071457
X0092618Y0072835
X0094587
Y0080118
X0092618
X0093602Y0081201
X0087008Y0081299
X0085728Y0082087
X0084547Y0081299
X0084744Y0073819
X0086713
X0085728Y0072736
X008435Y0065551
X0082382
X0080413
Y0055709
X0082382
X008435
X008435Y0047047
X0080413
X0075492Y0045472
X0071555
X0067618Y0045472
X0062697Y0047047
X0061319Y0057284
Y0060728
Y0064173
X0069095Y0065256
X0070276
X0070079Y0062205
X007126Y0062205
X0071653Y0059055
X0070377Y005896
X0070571Y0055905
X0071752Y0055905
X0071555Y0034744
X0075492
X0080413
X008435
X0088287
Y0047047
X0067618Y0034744
X0062697
X0062008Y0003937
Y-0003937
X0065748Y-0007776
X0066929Y-0007776
X0070866Y-0007776
Y-0008957
X007185Y-0013091
X0069882
X0073819Y-0013386
X0075787Y-0013091
X0086024Y-0013583
X0087205
X0090403
X009065Y-0006594
Y-0005413
X0096161Y-0004921
X0096063Y-000374
X0096161Y-0001083
X009498Y0000099
Y0004036
X0096161Y0002854
X009065Y0002362
Y0001181
X0083169
Y0002362
X0083957Y-0006299
Y-000748
X009498Y-0008858
X0096161Y-0008858
X010158Y-0008563
X0102756Y-0009055
X0103937Y-0008563
X0102165Y-000748
X0106988Y-0005807
Y-0004626
X0110908
Y-0005807
X0111417Y-0009941
Y-0011122
X0109449
Y-0009941
X010748
Y-0011122
X0113386
Y-0009941
X0115945Y-0011417
X0117126
Y-0006398
X0115945
X012687Y-0006791
Y-000561
Y-0007972
X0128051Y-0006791
X0133169Y-0006791
X013435
Y-000561
Y-0007972
X0137798Y-0012246
X0138979
X0145374Y-0012992
X0145374Y-0007874
Y-0006693
X0144193
X0146555
X0155905Y-0005709
Y-0004528
X0157087
X0154724
X0160138Y-0004626
Y-0005807
X016063Y-0009941
Y-0011122
X0162598
Y-0009941
X0164567
Y-0011122
X0166535
Y-0009941
X0169095Y-0011516
X0170276
X0173672Y-0012225
X0174854
X0175591Y-0007874
Y-0006693
Y-0005512
X0176772Y-0006693
X018189Y-0006693
X0183071
Y-0005512
Y-0007874
X0185925Y-0007874
Y-0006693
Y-0005512
X0187106Y-0006693
X0192224Y-0006693
X0193405
Y-0005512
Y-0007874
X0192176Y-0012225
X0190995
X0203839Y-0012894
X0205118
X0206299
X020748Y-0012894
X0207185Y-0001772
Y-0000492
Y0000689
X0207185Y000187
X0207579Y0008563
X0206299
X0205118
X0203937Y0008563
X0203839Y0019193
X0205118
X0206299
X020748Y0019193
X0192176Y0019271
X0190995
Y0016712
X0192176
Y0014153
X0190995
Y0011594
X0192176
X019184Y0007579
X0192815Y0006496
X0187697
Y0007677
X018435
Y0006496
X0179232
Y0007677
X0176181
X0176288Y0006496
X017117
X0171358Y0007677
X0168307
Y0006496
X0163189
Y0007677
X0162598Y0010925
Y0012106
X016063
Y0010925
X0164567
Y0012106
X0166535
Y0010925
X0164173Y001624
X0162992
X0162598Y0020374
Y0021555
X016063
Y0020374
X0164567
Y0021555
X0166535
Y0020374
X0169095Y001998
X0170276
Y0025098
X0169095
X0164056Y0025689
Y002687
X0160138
Y0025689
X0155905Y0025787
Y0026969
X0157087
X0154724
X0155905Y0020669
Y0019488
X0154725
X0157087
X0157087Y0017028
X0155905
X0154724
X0155905Y0015846
X0155905Y0010925
Y0009744
X0154724
X0157087
X0145965Y0008563
Y0007283
Y0006102
X0145965Y0004921
X0135335Y0004823
Y0006102
Y0007283
X0135335Y0008465
X0123917Y0008563
Y0007283
Y0006102
X0123917Y0004921
X0113287Y0004823
Y0006102
Y0007283
X0113287Y0008465
X0121471Y-0012405
X0122652Y-0012005
X0102756Y-001378
X0154725Y-0012008
X0155905
X0157087
X0155905Y-0010827
X0165256Y-0005807
Y-0004626
X0169095Y-0006398
X0170276
X0173672Y0014153
X0174854
Y0016712
X0173672
X0174572Y0019071
X0175753Y0019471
X0175591Y0023622
Y0024803
Y0025984
X0176772Y0024803
X018189Y0024803
X0183071
Y0023622
Y0025984
X0185925Y0025984
Y0024803
Y0023622
X0187106Y0024803
X0192224Y0024803
X0193405
Y0023622
Y0025984
X0191043Y0037894
X0189769
Y0039173
X0191043
Y0040453
X0189769
Y0045989
X0191043
Y0047269
X0189769
Y0048548
X0191043
X0190945Y0054036
X0189671
Y0055315
X0190945
Y0056595
X0189671
X0183071
X0181797
Y0055315
X0183071
Y0054036
X0181797
X0181895Y0048548
X0183169
Y0047269
X0181895
Y0045989
X0183169
Y0040453
X0181895
Y0039173
X0183169
Y0037894
X0181895
X0197446Y0037894
X0198721
Y0039173
X0197446
Y0040453
X0198721
Y0045989
X0197446
Y0047269
X0198721
Y0048548
X0197446
Y0054085
X0198721
Y0055364
X0197446
Y0056644
X0198721
X0198431Y0062574
X0199705
Y0063853
X0198431
Y0065133
X0199705
X020532Y0064739
X0206594
Y006346
X020532
Y006218
X0206594
Y0056644
X020532
Y0055364
X0206594
Y0054085
X020532
Y0048548
X0206594
Y0047269
X020532
Y0045989
X0206594
Y0040453
X020532
Y0039173
X0206594
Y0037894
X020532
X0212894Y0037716
X0212894Y0038898
X0214075
X0215256
X0216437
X0216437Y0037716
X0215256
X0214075
X0214075Y0041654
X0212894
X0212894Y0042835
X0214075
X0215256
X0216437
X0216437Y0041654
X0215256
Y0045591
X0216437
X0216437Y0046772
X0215256
X0214075
X0212894
X0212894Y0045591
X0214075
Y0049528
X0212894
X0212894Y0050709
X0214075
X0215256
X0216437
X0216437Y0049528
X0215256
Y0053465
X0216437
X0216437Y0054646
X0215256
X0214075
X0212894
X0212894Y0053465
X0214075
Y0057402
X0212894
X0212894Y0058583
X0214075
X0215256
X0216437
X0216437Y0057402
X0215256
Y0061339
X0216437
X0216437Y006252
X0215256
X0214075
X0212894
X0212894Y0061339
X0214075
Y0065276
X0212894
X0212894Y0066457
X0214075
X0215256
X0216437
X0216437Y0065276
X0215256
Y0069213
X0216437
X0216437Y0070394
X0215256
X0214075
X0212894
X0212894Y0069213
X0214075
Y007315
X0212894
X0212894Y0074331
X0214075
X0215256
X0216437
X0216437Y007315
X0215256
X0206594Y0072835
X020532
Y0071555
X0206594
Y0070276
X020532
X0198721
X0197446
Y0071555
X0198721
Y0072835
X0197446
X0192317Y0064862
X0191043
Y0063583
X0192317
Y0062303
X0191043
X018435Y0062795
Y0064069
X0183071
Y0062795
X0181791
Y0064069
X01651Y00629
Y0061719
X01649Y00578
Y0056619
X01593
Y00578
X01601Y0061719
Y00629
X01626Y0069119
Y00703
X0163287Y0075098
Y0076427
Y0077756
X0170472Y0077707
Y0076378
Y0075049
X0164056Y0106398
Y0107579
X0160138
Y0106398
X0157087
X0155905
Y0107677
X0157087
X0157087Y0119783
X0155905Y0119783
X0154724Y0119783
Y0125295
X0155905Y0125295
X0157087Y0125295
X016063Y012313
Y0121949
X0162598
Y012313
X0164567Y0122736
X0164567Y0121457
X0166535Y0121949
Y012313
X0163484Y0126673
X0162205Y0126083
X0162598Y013061
Y0131791
X016063
Y013061
X0164567Y013061
X0164567Y0131791
X0166535
Y013061
X0169095Y013061
X0170276
Y0135335
X0169095
X0164056Y0135925
Y0137106
X0160138
Y0135925
X0157087Y0137205
X0155905Y0137205
X0154724Y0137205
Y0131299
X0155905Y0131299
X0157087Y0131299
X0143209Y0133858
X0143209Y0135039
X0143209Y0136221
X0137008Y013563
Y0134449
X0135925Y0133858
X0135925Y0135039
X0135925Y0136221
X0132874
X0132874Y0135039
X0132874Y0133858
X0131791Y0134449
X0131791Y013563
X0126476Y0135728
X0126476Y0134547
X0125394Y0135039
X0125394Y0133858
Y0136221
X0119095Y0135335
X0117913
Y0130217
X0119095
X0115354Y0129823
Y0131004
X0113386Y013061
Y0131791
X0111417
Y013061
X0109449
Y0131791
X0110039Y0136024
X0108957Y0137106
X0105905Y0137205
X0104724Y0137205
X0103543Y0137205
X0105709Y0136024
X0105905Y0129724
X0104724Y0129724
X0103543Y0129724
X0104134Y0130807
X0103543Y0127067
X0104724Y0127067
X0104724Y0125886
X0105905Y0127067
X0111417Y0125492
X0112894
X0113386Y0122736
Y0121555
X0115354
Y0122736
X0111417Y0121555
X0109449
Y0122736
X0105905Y011998
X0104724Y011998
X0103543Y011998
X0104134Y0121063
X0100098Y0123327
X0098425
X0096752
X0099213Y0124213
X0097638Y0117028
X0098425Y0116142
X01
X009685
X0103543Y0107677
X0104724Y0107677
X0105905Y0107677
X0104134Y0106595
X0108957Y0106398
Y0107579
X0112875
Y0106398
X0113386Y0102264
X0113386Y0101083
X0111417Y0101083
Y0102264
X0109449
Y0101083
X0105905Y0101772
X0104724Y0101772
X0103543Y0101772
X0105315Y0100689
X0105315Y009685
X0105905Y0095768
X0104724Y0095768
X0103543Y0095768
X0100098Y0096949
X0098819
X0097539Y0097146
Y0089764
X0098819
X0100098
X0103543Y0090256
X0104724Y0090256
X0105905Y0090256
X010532Y0091343
X0109449Y0092421
Y0093602
X0111417
Y0092421
X0113386Y0091929
X0113386Y0093209
X0115354Y0093602
Y0092421
X0117132Y008839
X0117126Y0087205
X011998
Y0088386
X0112008
Y0087205
X0112598Y0078937
Y0077756
X0117717
Y0078937
X0117913Y0100683
X0119095
X01191Y0104619
Y01058
X0115354Y0102264
Y0101083
X0112303Y0097146
X0111024Y0096555
X0112008Y0116732
Y0117913
X011723Y0117919
X0117126Y0116732
X011998
Y0117913
X0125098
Y0116732
X0128051
Y0117913
X0133169
Y0116732
X0136516Y0116732
Y0117913
X0141634
Y0116732
X0140947Y0121809
X0139766
Y0124368
X0140947
Y0126927
X0139766
Y0129486
X0140947
X0123721Y0129528
X0122539
X0123425Y0126969
X0124606
Y0124409
X0123425
X0114075Y0136713
X0112894
X0087008Y0140748
Y0141929
X008248
Y0140748
X0075Y0140256
X0073819
X0070472Y0140453
Y0139272
X0066535Y0139764
X0065354
X0063624Y0127698
X0062443
X0062477Y012573
X0063722Y012573
X0063624Y0123761
X0062443Y0123761
Y0121793
X0063624Y0121793
Y0119824
X0062443Y0119824
Y0117856
X0063624
Y0115887
X0062443Y0115887
Y0113919
X0063624Y0113919
Y011195
X0062443Y011195
Y0109982
X0063624Y0109982
Y0108013
X0062443
Y0106045
X0063624Y0106045
X0063525Y0104076
X0062344Y0104076
X0062443Y0102108
X0063624Y0102108
Y0100139
X0062443Y0100139
Y0098171
X0063624
X0072342Y0096752
X0073524
X0076279
X0077461
Y0100157
X0076279
X0073524
X0072342
Y0103563
X0073524
X0076279
X0077461
Y0106968
X0076279
X0073524Y0106378
X0072342
X0072342Y0110374
X0073524
X0076279
X0077461
Y0113779
X0076279
X0073524
X0072441Y0114272
X007185Y008189
Y0080709
X007571Y0080769
X0076891
X0061811Y007815
Y0083661
X0062992Y008809
X0064173Y008691
X0163189Y0116732
Y0117913
X0168307
Y0116732
X0171161
Y0117913
X0203248Y0133366
Y0134646
Y0135925
X0059884Y013134
Y0130159
X0057915
X0057915Y013134
X0055947Y0131439
X0055947Y0130217
X0053978Y0130159
X0053978Y013134
X005201
X005201Y0130159
X0050041
Y013134
X0046104
X0046104Y0130159
X0044136
X0044136Y013134
X0042167
X0042167Y0130159
X0040199
Y013134
X003823Y0130848
X003823Y0132029
X0036261Y013134
X0036261Y0130159
X0034293
X0034293Y013134
X0032324
X0032324Y0130159
X0030356
Y013134
X0027895Y0127698
X0026714
Y012573
X0027895Y012573
Y0123761
X0026714Y0123761
Y0121793
X0027895Y0121793
Y0119824
X0026714Y0119824
Y0117856
X0027895
Y0115887
X0026708Y0115887
X0027502Y0113919
X0028742
X0028781Y011195
X0027541
X0027895Y0109982
X0026644Y0109982
X0026714Y0108013
X0027895
Y0106045
X0026714Y0106045
Y0104076
X0027895Y0104076
Y0102108
X0026714Y0102108
Y0100139
X0027895Y0100139
X0027195Y0098171
X0026014
X0030356Y0095612
Y009439
X0032324Y009389
X0032324Y0095112
X0034293Y0095612
X0034293Y009439
X0036261
X0036261Y0095612
X003823
X003823Y009439
X0040199
Y0095612
X0048073
X0048073Y009439
X0050041
Y0095612
X005201
X005201Y009439
X0053978
X0053978Y0095612
X0055947
X0055947Y009439
X0057915
X0057915Y0095612
X0059884
Y009439
X005935Y008809
X0060236Y008691
X0059842Y0083661
X0055118
X005315
X0052953Y008691
X0051772Y008809
X0055709
X0056594Y008691
X0055118Y007815
X005315
X0059842
X005502Y0065354
X0053839Y0065354
X0053839Y0062205
X005502Y0062205
X0054429Y0059055
X005561Y005876
X0056004Y005561
X0054724Y0055905
X0054823Y0047047
X005876
X0049311Y0045571
X004813
X004813Y0050295
X0049311
X0039469Y0045669
Y0042913
X003435Y0042815
Y0045669
X0035138Y0037402
Y0035433
X0031398
Y0037402
X0025886Y0038583
X0024705
Y0043701
X0025886
X0016732Y0040059
Y0038091
X0009252
X0009252Y0040059
X0009252Y004872
Y0050689
X0012992
X0012992Y004872
X0016732
X0016732Y0050689
X0031694Y0052069
X0031102Y005315
X0032874Y0058268
X0031693Y0059449
Y0063386
X0032874Y0062205
X0037106
X0035925Y0063386
X0040157
X0041339Y0062205
X0040157Y0059449
X0041339Y0058268
X0037106Y0058563
X0035925Y0058464
X0037106Y0068602
X0035925Y0069784
X0037106Y0072539
X0035925Y0073721
X0040157
X0041339Y0072539
Y0068602
X0040157Y0069784
X0040945Y0079528
X0043307
Y0085039
X0040945
X0036811
X0034449
Y0079528
X0036811
X0028248Y0078937
X0027067
Y0080905
X0028248
Y0082874
X0027067
X0023031Y0082579
X0020177
X0016437Y0082874
X0015256
Y0080905
X0016437
Y0078937
X0015256
Y0076968
X0016437
X0020276
X0023031
X0027067
X0028248
X0021752Y0079921
X0022835Y0070669
X0024016Y0069488
X0020079
X0018898Y0070669
X0011713Y0070965
X0010531Y0072146
X0007972Y0073524
X0006791Y0074705
Y0078642
X0007972
Y0081201
X0006791Y0082087
Y0086024
X0007972Y0085138
Y0088583
X0006791Y0089764
Y0093701
X0007972Y009252
X0010925Y0093996
X0011909Y0093012
X0014862Y0093996
X0015846Y0093012
Y0089764
X0015945Y0088583
X0011909Y0088681
X0010925Y0089665
X0011417Y0097047
Y0098228
X0015954
Y0097047
X0011909Y0108957
X0011909Y0110236
X0010728Y0109941
X0010728Y0108661
X0009547Y0108957
X0009547Y0110236
X0006496
X0006496Y0108957
X0005315Y0108661
X0005315Y0109941
X0004134Y0110236
X0004134Y0108957
Y0114862
X0004134Y0116142
X0005315Y0115846
Y0114567
X0006496Y0114862
X0006496Y0116142
X0009547
X0009547Y0114862
X0010728Y0114567
Y0115846
X0011909Y0116142
X0011909Y0114862
X-0002953Y0114764
X-0004232Y0114764
X-0004724Y0115945
X-0003543
X-0002362
X-0002953Y0120669
X-0004232Y0120669
X-0004724Y012185
X-0003543
X-0002362
X-0002953Y0126575
X-0004232Y0126575
X-0004724Y0127756
X-0003543
X-0002362
X0005709Y0132776
Y013435
X0013583Y0134055
Y0132874
X0037894Y0120177
X0052264
Y0105807
X004512Y0112935
X0037894Y0105807
X-0002362Y0104134
X-0003543
X-0004724
X-0004232Y0102953
X-0002953Y0102953
X-0003543Y0098228
X-0004724
X-0004232Y0097047
X-0002953Y0097047
X-0002362Y0098228
X-0002953Y0108858
X-0004232Y0108858
X-0004724Y0110039
X-0003543
X-0002362
X-0023031Y0087402
X-0025
Y0074902
X-0023031
X-0004724Y0065256
X-0003543
X-0002362
X-0002953Y0064075
X-0004232Y0064075
X-0004724Y005935
X-0003543
X-0002362
X-0002953Y0058169
X-0004232Y0058169
X-0004724Y0053445
X-0003543
X-0002362
X-0002953Y0052264
X-0004232Y0052264
X-0004724Y0047539
X-0003543
X-0002362
X-0002953Y0046358
X-0004232Y0046358
X-0004724Y0041634
X-0003543
X-0002362
X-0002953Y0040453
X-0004232Y0040453
X-0004626Y0035728
X-0003445
X-0002264
X-0002854Y0034547
X-0004134Y0034547
X-0004626Y0029823
X-0003445
X-0002264
X-0002854Y0028642
X-0004134Y0028642
X-0003543Y0023917
X-0002362
X-0002953Y0022736
X-0004232Y0022736
X-0004724Y0023917
X-0023031Y0013091
X-0025
Y-0013287
X-0023031
X004562Y-0013091
X0046801
X0050984Y-0013091
X0052165
Y-0007972
X0050984
X0046801Y-0007972
X004562
X0049803Y-0002559
X0048622Y-0001378
X0049803Y0001378
X0048622Y0002559
X0052559
X005374Y0001378
Y-0002559
X0052559Y-0001378
X0060039Y-0003937
Y0003937
X0041142Y0004921
Y0002953
X0033661
Y0004921
X0038091Y0030413
Y0031594
X0042618
Y0030413
X0042618Y0035433
Y0037402
X0054823Y0034744
X005876
X0011713Y0074902
X0010531Y0076083
X-0023031Y0137402
X-0025
X-0009154Y0143405
X-0007972
Y0151083
X-0009154
Y015374
X-0007972
Y0158858
X-0009154
X0029626Y0160335
Y0162303
X0047736Y0153445
Y0152264
X0049705
Y0153445
X0051673
X0051673Y0152264
X0053642
Y0153445
X005561
X005561Y0152264
X0057579
Y0153445
X0059547
Y0152264
X0052265Y0149123
X0051084
Y01443
X0052265
X0065339Y0144193
X006652
Y0148524
X0065339
X0065453Y0152264
X0065453Y0153453
X0063484Y0153445
Y0152264
X0061516
X0061516Y0153445
X0067421
X0067424Y0152173
X0071752Y0160335
Y0162303
X0081102Y0159508
Y0157539
X0075Y0146063
X0073819
X0095276Y0145768
Y0147736
X0099213
Y0145768
X010315
Y0147736
X0113386Y0157539
Y0159508
X0127559Y0159508
Y0157539
X0137795Y0147736
Y0145767
X0141732
Y0147736
X0151969Y0157539
Y0159508
X0164173Y015
Y0148031
Y0146063
X0174803
Y0148031
Y015
X0279626Y0143996
X0280807
X0281398Y0142913
X0280217
X0279035
X0284252
X0285433
X0286614
X0286024Y0143996
X0284842
M30
