G04 Layer_Color=8421504*
%FSLAX44Y44*%
%MOMM*%
G71*
G01*
G75*
%ADD11R,1.0000X0.7000*%
%ADD12R,6.0000X6.0000*%
%ADD13R,6.0000X2.0000*%
%ADD14R,1.7500X0.6000*%
%ADD16R,1.0000X1.1000*%
%ADD17R,0.6100X1.2700*%
%ADD18R,3.9100X3.7500*%
%ADD19R,0.8000X1.3000*%
%ADD20R,2.1000X3.0000*%
%ADD21R,3.2000X1.0000*%
%ADD22R,2.0000X1.2000*%
%ADD23R,5.6000X6.3500*%
%ADD24R,0.9100X3.0000*%
%ADD25R,4.0000X4.0000*%
%ADD26R,3.5000X1.4000*%
G04:AMPARAMS|DCode=27|XSize=4mm|YSize=10mm|CornerRadius=1mm|HoleSize=0mm|Usage=FLASHONLY|Rotation=0.000|XOffset=0mm|YOffset=0mm|HoleType=Round|Shape=RoundedRectangle|*
%AMROUNDEDRECTD27*
21,1,4.0000,8.0000,0,0,0.0*
21,1,2.0000,10.0000,0,0,0.0*
1,1,2.0000,1.0000,-4.0000*
1,1,2.0000,-1.0000,-4.0000*
1,1,2.0000,-1.0000,4.0000*
1,1,2.0000,1.0000,4.0000*
%
%ADD27ROUNDEDRECTD27*%
%ADD28R,1.5000X1.9000*%
%ADD29R,1.2000X1.1000*%
%ADD30R,4.5000X3.0000*%
%ADD31R,0.6500X1.0500*%
%ADD32R,1.4000X3.5000*%
%ADD33R,1.1000X1.1000*%
%ADD34R,1.1000X1.2000*%
%ADD234R,2.2500X3.0000*%
D11*
X13750Y723750D02*
D03*
Y733250D02*
D03*
Y742750D02*
D03*
X-12250Y742750D02*
D03*
Y733250D02*
D03*
Y723750D02*
D03*
X557000Y724000D02*
D03*
Y733500D02*
D03*
Y743000D02*
D03*
X531000Y743000D02*
D03*
Y733500D02*
D03*
Y724000D02*
D03*
X261750Y723750D02*
D03*
Y733250D02*
D03*
Y742750D02*
D03*
X287750Y742750D02*
D03*
Y733250D02*
D03*
Y723750D02*
D03*
D12*
X347500Y17950D02*
D03*
X-8910Y650730D02*
D03*
X619000Y18200D02*
D03*
X532000Y650900D02*
D03*
X263000D02*
D03*
D13*
X347500Y-30150D02*
D03*
X-8910Y698830D02*
D03*
X619000Y-29900D02*
D03*
X532000Y699000D02*
D03*
X263000D02*
D03*
D14*
X506000Y223050D02*
D03*
Y210350D02*
D03*
Y197650D02*
D03*
Y184950D02*
D03*
X558000Y223050D02*
D03*
Y210350D02*
D03*
Y197650D02*
D03*
Y184950D02*
D03*
D16*
X528999Y236000D02*
D03*
X511999D02*
D03*
X597499Y186000D02*
D03*
X580499D02*
D03*
D17*
X131000Y155000D02*
D03*
X118300D02*
D03*
X105600D02*
D03*
X92900D02*
D03*
Y101600D02*
D03*
X105600D02*
D03*
X118300D02*
D03*
X131000D02*
D03*
X70000Y155000D02*
D03*
X57300D02*
D03*
X44600D02*
D03*
X31900D02*
D03*
Y101600D02*
D03*
X44600D02*
D03*
X57300D02*
D03*
X70000D02*
D03*
D18*
X111950Y121700D02*
D03*
X50950D02*
D03*
D19*
X365000Y790700D02*
D03*
X352500D02*
D03*
X340000D02*
D03*
X327500D02*
D03*
X758750Y53000D02*
D03*
X771250D02*
D03*
X125750Y22000D02*
D03*
X113250D02*
D03*
X100750D02*
D03*
X88250D02*
D03*
X138250D02*
D03*
X150750D02*
D03*
X693000Y790750D02*
D03*
X680500D02*
D03*
X668000D02*
D03*
X655500D02*
D03*
X436500Y790700D02*
D03*
X449000D02*
D03*
X461500D02*
D03*
X474000D02*
D03*
X255750D02*
D03*
X243250D02*
D03*
X230750D02*
D03*
X218250D02*
D03*
X545999Y790700D02*
D03*
X558499D02*
D03*
X570999D02*
D03*
X583499D02*
D03*
X109250Y790700D02*
D03*
X121750D02*
D03*
X134250D02*
D03*
X146750D02*
D03*
D20*
X390360Y819080D02*
D03*
X301860D02*
D03*
X733390Y24620D02*
D03*
X796890D02*
D03*
X62890Y-6380D02*
D03*
X176390D02*
D03*
X718360Y819130D02*
D03*
X629860D02*
D03*
X410860Y819080D02*
D03*
X499360D02*
D03*
X281110D02*
D03*
X192610D02*
D03*
X520359Y819080D02*
D03*
X608859D02*
D03*
X83610Y819080D02*
D03*
X172110D02*
D03*
D21*
X22000Y415000D02*
D03*
X70000D02*
D03*
X22000Y395000D02*
D03*
X70000D02*
D03*
X22000Y375000D02*
D03*
X70000D02*
D03*
D22*
X255750Y409000D02*
D03*
X230750D02*
D03*
X255750Y429000D02*
D03*
X230750D02*
D03*
X255750Y449000D02*
D03*
X230750D02*
D03*
X255750Y469000D02*
D03*
X230750D02*
D03*
X255750Y489000D02*
D03*
X230750D02*
D03*
X255750Y509000D02*
D03*
X230750D02*
D03*
X255750Y529000D02*
D03*
X230750D02*
D03*
D23*
X254700Y900D02*
D03*
X526200Y1150D02*
D03*
D24*
X216600Y93150D02*
D03*
X229300D02*
D03*
X242000D02*
D03*
X254700D02*
D03*
X267400D02*
D03*
X280100D02*
D03*
X292800D02*
D03*
X564300Y93400D02*
D03*
X551600D02*
D03*
X538900D02*
D03*
X526200D02*
D03*
X513500D02*
D03*
X500800D02*
D03*
X488100D02*
D03*
D25*
X148740Y685880D02*
D03*
X48740D02*
D03*
X602500Y115500D02*
D03*
X702500D02*
D03*
X431500D02*
D03*
X331500D02*
D03*
X689560Y686090D02*
D03*
X589560D02*
D03*
X320220Y685860D02*
D03*
X420220D02*
D03*
D26*
X-21000Y571500D02*
D03*
Y530500D02*
D03*
X742910Y747540D02*
D03*
Y706540D02*
D03*
X473570Y706310D02*
D03*
Y747310D02*
D03*
X202090Y747330D02*
D03*
Y706330D02*
D03*
D27*
X59480Y290660D02*
D03*
Y506900D02*
D03*
D28*
X517000Y130000D02*
D03*
X548000D02*
D03*
X245500Y129750D02*
D03*
X276500D02*
D03*
D29*
X598500Y200500D02*
D03*
X580500D02*
D03*
D30*
X197090Y631830D02*
D03*
Y677830D02*
D03*
X-10500Y64000D02*
D03*
Y110000D02*
D03*
X686200Y-24900D02*
D03*
Y21100D02*
D03*
X414700Y-25150D02*
D03*
Y20850D02*
D03*
X737910Y632040D02*
D03*
Y678040D02*
D03*
X468570Y631810D02*
D03*
Y677810D02*
D03*
D31*
X685750Y387500D02*
D03*
X695250D02*
D03*
X704750D02*
D03*
Y410000D02*
D03*
X695250D02*
D03*
X685750D02*
D03*
D32*
X36500Y185000D02*
D03*
X-4500D02*
D03*
D33*
X466500Y125250D02*
D03*
Y144250D02*
D03*
X195000Y125000D02*
D03*
Y144000D02*
D03*
X482600Y144900D02*
D03*
Y125900D02*
D03*
X211100Y144650D02*
D03*
Y125650D02*
D03*
X498600Y144900D02*
D03*
Y125900D02*
D03*
X227100Y144650D02*
D03*
Y125650D02*
D03*
D34*
X244000Y168750D02*
D03*
Y150750D02*
D03*
X466500Y107750D02*
D03*
Y89750D02*
D03*
X195000Y107500D02*
D03*
Y89500D02*
D03*
X515500Y169000D02*
D03*
Y151000D02*
D03*
D234*
X532000Y204000D02*
D03*
M02*
