G04 Layer_Color=128*
%FSLAX44Y44*%
%MOMM*%
G71*
G01*
G75*
%ADD11R,1.0000X0.7000*%
%ADD16R,1.0000X1.1000*%
%ADD19R,0.8000X1.3000*%
%ADD20R,2.1000X3.0000*%
%ADD26R,3.5000X1.4000*%
%ADD29R,1.2000X1.1000*%
%ADD30R,4.5000X3.0000*%
%ADD31R,0.6500X1.0500*%
%ADD33R,1.1000X1.1000*%
%ADD34R,1.1000X1.2000*%
%ADD153R,1.0000X1.8000*%
%ADD154R,0.5500X0.9500*%
%ADD155R,1.0500X0.6500*%
%ADD156R,1.3000X0.7000*%
%ADD157R,0.9000X0.6500*%
%ADD158R,1.8000X0.6000*%
%ADD159R,1.0000X1.4000*%
%ADD160R,2.4000X3.3000*%
%ADD161R,2.4000X1.0000*%
%ADD162O,0.6000X1.9500*%
%ADD163R,0.6500X2.2000*%
%ADD164R,0.9000X0.7000*%
%ADD165R,0.7000X0.8000*%
%ADD166O,1.7000X0.3500*%
%ADD167R,0.6500X3.0000*%
%ADD168R,0.6500X1.1000*%
%ADD169R,1.1000X1.8000*%
%ADD170R,1.1000X1.0000*%
%ADD171R,1.5000X1.6000*%
%ADD172R,0.6000X0.8000*%
%ADD173R,1.0800X1.0500*%
%ADD174R,2.5000X1.0000*%
%ADD175R,6.0000X3.0000*%
%ADD176O,1.8000X0.3000*%
%ADD177O,0.3000X1.8000*%
%ADD178R,0.7000X0.9000*%
%ADD179R,0.8000X0.7000*%
%ADD180R,1.1000X1.1000*%
%ADD181R,0.7000X1.3000*%
%ADD182R,0.6000X1.8000*%
%ADD183R,1.4000X1.0000*%
%ADD184R,6.0000X6.0000*%
%ADD185R,2.0000X6.0000*%
%ADD186R,0.6500X0.9000*%
%ADD187R,1.9000X1.5000*%
%ADD188R,1.1000X0.6500*%
%ADD189R,1.0500X1.0800*%
D11*
X567500Y378000D02*
D03*
Y387500D02*
D03*
Y397000D02*
D03*
X541500Y397000D02*
D03*
Y387500D02*
D03*
Y378000D02*
D03*
D16*
X191500Y135500D02*
D03*
Y152500D02*
D03*
X178000Y135500D02*
D03*
Y152500D02*
D03*
X334500Y771500D02*
D03*
Y754500D02*
D03*
X105000Y223500D02*
D03*
Y206500D02*
D03*
X-3000Y240500D02*
D03*
Y223500D02*
D03*
X600211Y8690D02*
D03*
X617211D02*
D03*
X244751Y8580D02*
D03*
X261751D02*
D03*
X422861Y8560D02*
D03*
X439861D02*
D03*
X651779Y336020D02*
D03*
X634779D02*
D03*
X474389Y336000D02*
D03*
X457389D02*
D03*
X297099Y335400D02*
D03*
X280099D02*
D03*
X568211Y8690D02*
D03*
X585211D02*
D03*
X212751Y8580D02*
D03*
X229751D02*
D03*
X390861Y8560D02*
D03*
X407861D02*
D03*
X683779Y336020D02*
D03*
X666779D02*
D03*
X506389Y336000D02*
D03*
X489389D02*
D03*
X329099Y335400D02*
D03*
X312099D02*
D03*
D19*
X232250Y791500D02*
D03*
X219750D02*
D03*
X207250D02*
D03*
X194750D02*
D03*
X244750D02*
D03*
X257250D02*
D03*
X366250D02*
D03*
X353750D02*
D03*
X341250D02*
D03*
X328750D02*
D03*
X123000Y791500D02*
D03*
X110500D02*
D03*
D20*
X169390Y819880D02*
D03*
X282890D02*
D03*
X391890Y819880D02*
D03*
X303390D02*
D03*
X148640Y819880D02*
D03*
X85140D02*
D03*
D26*
X589000Y783000D02*
D03*
Y824000D02*
D03*
X660710Y142190D02*
D03*
Y101190D02*
D03*
X305250Y101080D02*
D03*
Y142080D02*
D03*
X483360Y142060D02*
D03*
Y101060D02*
D03*
X591280Y243520D02*
D03*
Y202520D02*
D03*
X413890Y202500D02*
D03*
Y243500D02*
D03*
X236600Y242900D02*
D03*
Y201900D02*
D03*
X619710Y142190D02*
D03*
Y101190D02*
D03*
X264250Y101080D02*
D03*
Y142080D02*
D03*
X442360Y142060D02*
D03*
Y101060D02*
D03*
X632280Y243520D02*
D03*
Y202520D02*
D03*
X454890Y202500D02*
D03*
Y243500D02*
D03*
X277600Y242900D02*
D03*
Y201900D02*
D03*
D29*
X124000Y204000D02*
D03*
X142000D02*
D03*
X644000Y753000D02*
D03*
X626000D02*
D03*
X374000D02*
D03*
X356000D02*
D03*
X102000Y752000D02*
D03*
X84000D02*
D03*
X43000Y568000D02*
D03*
X25000D02*
D03*
X383750Y577000D02*
D03*
X365750D02*
D03*
X573000Y480250D02*
D03*
X591000D02*
D03*
X516000Y552250D02*
D03*
X534000D02*
D03*
X516000Y477250D02*
D03*
X534000D02*
D03*
X648500Y477250D02*
D03*
X630500D02*
D03*
X648000Y552250D02*
D03*
X630000D02*
D03*
X554000Y441500D02*
D03*
X536000D02*
D03*
X587660Y684290D02*
D03*
X605660D02*
D03*
X318320Y684060D02*
D03*
X336320D02*
D03*
X46840Y684080D02*
D03*
X64840D02*
D03*
D30*
X672710Y28690D02*
D03*
Y74690D02*
D03*
X317250Y28580D02*
D03*
Y74580D02*
D03*
X495360Y28560D02*
D03*
Y74560D02*
D03*
X579280Y316020D02*
D03*
Y270020D02*
D03*
X401890Y316000D02*
D03*
Y270000D02*
D03*
X224600Y315400D02*
D03*
Y269400D02*
D03*
D31*
X574500Y645250D02*
D03*
X584000D02*
D03*
X593500D02*
D03*
Y622750D02*
D03*
X584000D02*
D03*
X574500D02*
D03*
X35500Y639250D02*
D03*
X45000D02*
D03*
X54500D02*
D03*
Y616750D02*
D03*
X45000D02*
D03*
X35500D02*
D03*
X71500D02*
D03*
X81000D02*
D03*
X90500D02*
D03*
Y639250D02*
D03*
X81000D02*
D03*
X71500D02*
D03*
D33*
X335500Y141000D02*
D03*
Y160000D02*
D03*
X188500Y469500D02*
D03*
Y450500D02*
D03*
X204000Y469500D02*
D03*
Y450500D02*
D03*
X318000Y753500D02*
D03*
Y772500D02*
D03*
X696500Y640000D02*
D03*
Y621000D02*
D03*
X105000Y638500D02*
D03*
Y619500D02*
D03*
X662000Y600500D02*
D03*
Y581500D02*
D03*
X682000Y600500D02*
D03*
Y581500D02*
D03*
X195500Y101500D02*
D03*
Y120500D02*
D03*
X470000Y798000D02*
D03*
Y779000D02*
D03*
X122000Y237750D02*
D03*
Y218750D02*
D03*
X415000Y771500D02*
D03*
Y790500D02*
D03*
X109500Y95000D02*
D03*
Y76000D02*
D03*
X65500Y143500D02*
D03*
Y162500D02*
D03*
X51000Y107500D02*
D03*
Y126500D02*
D03*
Y143500D02*
D03*
Y162500D02*
D03*
X51000Y91500D02*
D03*
Y72500D02*
D03*
X17000Y126500D02*
D03*
Y107500D02*
D03*
X90000Y539500D02*
D03*
Y520500D02*
D03*
X157000Y504500D02*
D03*
Y485500D02*
D03*
X142000Y451500D02*
D03*
Y470500D02*
D03*
X172000Y485500D02*
D03*
Y504500D02*
D03*
X157000Y451500D02*
D03*
Y470500D02*
D03*
X120000Y556500D02*
D03*
Y575500D02*
D03*
X83000Y463500D02*
D03*
Y482500D02*
D03*
X120000Y520500D02*
D03*
Y539500D02*
D03*
X152000Y556500D02*
D03*
Y575500D02*
D03*
X136000Y556500D02*
D03*
Y575500D02*
D03*
X602660Y738040D02*
D03*
Y719040D02*
D03*
X333320Y737810D02*
D03*
Y718810D02*
D03*
X62000Y737500D02*
D03*
Y718500D02*
D03*
X674660Y718040D02*
D03*
Y737040D02*
D03*
X405320Y717810D02*
D03*
Y736810D02*
D03*
X133840Y717830D02*
D03*
Y736830D02*
D03*
X658660Y737040D02*
D03*
Y718040D02*
D03*
X389320Y736810D02*
D03*
Y717810D02*
D03*
X117840Y736830D02*
D03*
Y717830D02*
D03*
X128000Y75500D02*
D03*
Y56500D02*
D03*
X695000Y390500D02*
D03*
Y409500D02*
D03*
X75000Y223500D02*
D03*
Y242500D02*
D03*
X178000Y712500D02*
D03*
Y693500D02*
D03*
X445000Y710500D02*
D03*
Y691500D02*
D03*
X716000Y709500D02*
D03*
Y690500D02*
D03*
X353000Y245500D02*
D03*
Y264500D02*
D03*
X597000Y361000D02*
D03*
Y342000D02*
D03*
X367000Y152500D02*
D03*
Y133500D02*
D03*
X534000Y68500D02*
D03*
Y87500D02*
D03*
X745000Y159500D02*
D03*
Y178500D02*
D03*
X762000Y159500D02*
D03*
Y178500D02*
D03*
D34*
X488000Y379000D02*
D03*
Y397000D02*
D03*
X172000Y539000D02*
D03*
Y521000D02*
D03*
X136000Y539000D02*
D03*
Y521000D02*
D03*
X487000Y537000D02*
D03*
Y519000D02*
D03*
X294000Y479000D02*
D03*
Y461000D02*
D03*
X34000Y126000D02*
D03*
Y108000D02*
D03*
X105000Y539000D02*
D03*
Y521000D02*
D03*
X142000Y504000D02*
D03*
Y486000D02*
D03*
X152000Y521000D02*
D03*
Y539000D02*
D03*
X587660Y737540D02*
D03*
Y719540D02*
D03*
X318320Y737310D02*
D03*
Y719310D02*
D03*
X46840Y737330D02*
D03*
Y719330D02*
D03*
X90000Y224000D02*
D03*
Y242000D02*
D03*
X64000Y578000D02*
D03*
Y560000D02*
D03*
X162000Y694000D02*
D03*
Y712000D02*
D03*
X429000Y692000D02*
D03*
Y710000D02*
D03*
X700000Y691000D02*
D03*
Y709000D02*
D03*
D153*
X687500Y443500D02*
D03*
X712500D02*
D03*
D154*
X129500Y115750D02*
D03*
X139000D02*
D03*
X148500D02*
D03*
Y140250D02*
D03*
X139000D02*
D03*
X129500D02*
D03*
D155*
X385750Y619500D02*
D03*
Y610000D02*
D03*
Y600500D02*
D03*
X408250D02*
D03*
Y610000D02*
D03*
Y619500D02*
D03*
X194250Y-12500D02*
D03*
Y-22000D02*
D03*
Y-31500D02*
D03*
X171750D02*
D03*
Y-22000D02*
D03*
Y-12500D02*
D03*
X626250Y576500D02*
D03*
Y586000D02*
D03*
Y595500D02*
D03*
X603750D02*
D03*
Y586000D02*
D03*
Y576500D02*
D03*
D156*
X143000Y217500D02*
D03*
Y227000D02*
D03*
Y236500D02*
D03*
X167000D02*
D03*
Y217500D02*
D03*
X670000Y622500D02*
D03*
Y641500D02*
D03*
X646000D02*
D03*
Y632000D02*
D03*
Y622500D02*
D03*
X408000Y653750D02*
D03*
Y644250D02*
D03*
Y634750D02*
D03*
X384000D02*
D03*
Y653750D02*
D03*
D157*
X182000Y726500D02*
D03*
Y745500D02*
D03*
X158000D02*
D03*
Y736000D02*
D03*
Y726500D02*
D03*
X34000Y250500D02*
D03*
Y231500D02*
D03*
X58000D02*
D03*
Y241000D02*
D03*
Y250500D02*
D03*
X-24600Y588800D02*
D03*
Y569800D02*
D03*
X-600D02*
D03*
Y579300D02*
D03*
Y588800D02*
D03*
X717000Y725500D02*
D03*
Y744500D02*
D03*
X693000D02*
D03*
Y735000D02*
D03*
Y725500D02*
D03*
X447000Y724500D02*
D03*
Y743500D02*
D03*
X423000D02*
D03*
Y734000D02*
D03*
Y724500D02*
D03*
D158*
X555000Y429000D02*
D03*
Y410000D02*
D03*
X535000Y419500D02*
D03*
D159*
X134090Y702831D02*
D03*
X124590Y680829D02*
D03*
X143590D02*
D03*
X19500Y69501D02*
D03*
X10000Y47499D02*
D03*
X29000D02*
D03*
X116000Y481999D02*
D03*
X125500Y504001D02*
D03*
X106500D02*
D03*
X674910Y703041D02*
D03*
X665410Y681039D02*
D03*
X684410D02*
D03*
X405570Y702811D02*
D03*
X396070Y680809D02*
D03*
X415070D02*
D03*
D160*
X549500Y801500D02*
D03*
D161*
X491500Y824500D02*
D03*
Y801500D02*
D03*
Y778500D02*
D03*
D162*
X600080Y79210D02*
D03*
X612780D02*
D03*
X625480D02*
D03*
X638180D02*
D03*
X600080Y28210D02*
D03*
X612780D02*
D03*
X625480D02*
D03*
X638180D02*
D03*
X297230Y264880D02*
D03*
X284530D02*
D03*
X271830D02*
D03*
X259130D02*
D03*
X297230Y315880D02*
D03*
X284530D02*
D03*
X271830D02*
D03*
X259130D02*
D03*
X474520Y265480D02*
D03*
X461820D02*
D03*
X449120D02*
D03*
X436420D02*
D03*
X474520Y316480D02*
D03*
X461820D02*
D03*
X449120D02*
D03*
X436420D02*
D03*
X651910Y265500D02*
D03*
X639210D02*
D03*
X626510D02*
D03*
X613810D02*
D03*
X651910Y316500D02*
D03*
X639210D02*
D03*
X626510D02*
D03*
X613810D02*
D03*
X422730Y79080D02*
D03*
X435430D02*
D03*
X448130D02*
D03*
X460830D02*
D03*
X422730Y28080D02*
D03*
X435430D02*
D03*
X448130D02*
D03*
X460830D02*
D03*
X244620Y79100D02*
D03*
X257320D02*
D03*
X270020D02*
D03*
X282720D02*
D03*
X244620Y28100D02*
D03*
X257320D02*
D03*
X270020D02*
D03*
X282720D02*
D03*
D163*
X680900Y524000D02*
D03*
X693600D02*
D03*
X706300D02*
D03*
X719000D02*
D03*
X731700D02*
D03*
X744400D02*
D03*
X757100D02*
D03*
X680900Y472000D02*
D03*
X693600D02*
D03*
X706300D02*
D03*
X719000D02*
D03*
X731700D02*
D03*
X744400D02*
D03*
X757100D02*
D03*
D164*
X583500Y395000D02*
D03*
Y380000D02*
D03*
D165*
X694000Y547000D02*
D03*
Y559000D02*
D03*
X745500Y559000D02*
D03*
Y547000D02*
D03*
D166*
X553500Y494750D02*
D03*
Y501250D02*
D03*
Y507750D02*
D03*
Y514250D02*
D03*
Y520750D02*
D03*
Y527250D02*
D03*
Y533750D02*
D03*
X610500Y494750D02*
D03*
Y501250D02*
D03*
Y507750D02*
D03*
Y514250D02*
D03*
Y520750D02*
D03*
Y527250D02*
D03*
Y533750D02*
D03*
D167*
X719500Y338500D02*
D03*
X734500D02*
D03*
D168*
X75500Y714000D02*
D03*
X94500D02*
D03*
Y738000D02*
D03*
X85000D02*
D03*
X75500D02*
D03*
X198500Y192000D02*
D03*
X179500D02*
D03*
Y168000D02*
D03*
X189000D02*
D03*
X198500D02*
D03*
X616500Y715000D02*
D03*
X635500D02*
D03*
Y739000D02*
D03*
X626000D02*
D03*
X616500D02*
D03*
X346500Y714000D02*
D03*
X365500D02*
D03*
Y738000D02*
D03*
X356000D02*
D03*
X346500D02*
D03*
D169*
X633500Y455500D02*
D03*
X606500D02*
D03*
D170*
X43500Y19750D02*
D03*
X60500D02*
D03*
D171*
X105500Y695000D02*
D03*
X86500D02*
D03*
X143500Y254000D02*
D03*
X162500D02*
D03*
X642500Y695000D02*
D03*
X623500D02*
D03*
X373500D02*
D03*
X354500D02*
D03*
D172*
X758000Y547000D02*
D03*
Y559000D02*
D03*
D173*
X534000Y36750D02*
D03*
Y54250D02*
D03*
X688710Y120440D02*
D03*
Y102940D02*
D03*
X333250Y120330D02*
D03*
Y102830D02*
D03*
X511360Y120310D02*
D03*
Y102810D02*
D03*
X563280Y224270D02*
D03*
Y241770D02*
D03*
X385890Y224250D02*
D03*
Y241750D02*
D03*
X208600Y223650D02*
D03*
Y241150D02*
D03*
X367000Y228250D02*
D03*
Y245750D02*
D03*
X581500Y342750D02*
D03*
Y360250D02*
D03*
X353000Y134250D02*
D03*
Y151750D02*
D03*
D174*
X25400Y277980D02*
D03*
X-25400D02*
D03*
X25400Y297980D02*
D03*
X-25400D02*
D03*
X25400Y317980D02*
D03*
X-25400D02*
D03*
X25400Y337980D02*
D03*
X-25400D02*
D03*
X25400Y357980D02*
D03*
X-25400D02*
D03*
X25400Y377980D02*
D03*
X-25400D02*
D03*
X25400Y397980D02*
D03*
X-25400D02*
D03*
Y417980D02*
D03*
X25400D02*
D03*
D175*
X261500Y656000D02*
D03*
Y702000D02*
D03*
X531500Y658500D02*
D03*
Y704500D02*
D03*
D176*
X465500Y415000D02*
D03*
Y420000D02*
D03*
Y425000D02*
D03*
Y430000D02*
D03*
Y435000D02*
D03*
Y440000D02*
D03*
Y445000D02*
D03*
Y450000D02*
D03*
Y455000D02*
D03*
Y460000D02*
D03*
Y465000D02*
D03*
Y470000D02*
D03*
Y475000D02*
D03*
Y480000D02*
D03*
Y485000D02*
D03*
Y490000D02*
D03*
Y495000D02*
D03*
Y500000D02*
D03*
Y505000D02*
D03*
Y510000D02*
D03*
Y515000D02*
D03*
Y520000D02*
D03*
Y525000D02*
D03*
Y530000D02*
D03*
Y535000D02*
D03*
X314500D02*
D03*
Y530000D02*
D03*
Y525000D02*
D03*
Y520000D02*
D03*
Y515000D02*
D03*
Y510000D02*
D03*
Y505000D02*
D03*
Y500000D02*
D03*
Y495000D02*
D03*
Y490000D02*
D03*
Y485000D02*
D03*
Y480000D02*
D03*
Y475000D02*
D03*
Y470000D02*
D03*
Y465000D02*
D03*
Y460000D02*
D03*
Y455000D02*
D03*
Y450000D02*
D03*
Y445000D02*
D03*
Y440000D02*
D03*
Y435000D02*
D03*
Y430000D02*
D03*
Y425000D02*
D03*
Y420000D02*
D03*
Y415000D02*
D03*
D177*
X450000Y550500D02*
D03*
X445000D02*
D03*
X440000D02*
D03*
X435000D02*
D03*
X430000D02*
D03*
X425000D02*
D03*
X420000D02*
D03*
X415000D02*
D03*
X410000D02*
D03*
X405000D02*
D03*
X400000D02*
D03*
X395000D02*
D03*
X390000D02*
D03*
X385000D02*
D03*
X380000D02*
D03*
X375000D02*
D03*
X370000D02*
D03*
X365000D02*
D03*
X360000D02*
D03*
X355000D02*
D03*
X350000D02*
D03*
X345000D02*
D03*
X340000D02*
D03*
X335000D02*
D03*
X330000D02*
D03*
Y399500D02*
D03*
X335000D02*
D03*
X340000D02*
D03*
X345000D02*
D03*
X350000D02*
D03*
X355000D02*
D03*
X360000D02*
D03*
X365000D02*
D03*
X370000D02*
D03*
X375000D02*
D03*
X380000D02*
D03*
X385000D02*
D03*
X390000D02*
D03*
X395000D02*
D03*
X400000D02*
D03*
X405000D02*
D03*
X410000D02*
D03*
X415000D02*
D03*
X420000D02*
D03*
X425000D02*
D03*
X430000D02*
D03*
X435000D02*
D03*
X440000D02*
D03*
X445000D02*
D03*
X450000D02*
D03*
D178*
X461000Y381000D02*
D03*
X446000D02*
D03*
D179*
X757500Y434000D02*
D03*
X745500D02*
D03*
D180*
X131000Y154500D02*
D03*
X150000D02*
D03*
X182000Y101500D02*
D03*
X163000D02*
D03*
X149000D02*
D03*
X130000D02*
D03*
X752500Y400000D02*
D03*
X733500D02*
D03*
X752500Y383000D02*
D03*
X733500D02*
D03*
X439500Y352000D02*
D03*
X458500D02*
D03*
X368500Y318000D02*
D03*
X349500D02*
D03*
X422500Y348000D02*
D03*
X403500D02*
D03*
X526500Y301000D02*
D03*
X545500D02*
D03*
X349500Y298000D02*
D03*
X368500D02*
D03*
X287500Y352000D02*
D03*
X268500D02*
D03*
X458500Y367000D02*
D03*
X439500D02*
D03*
X349500Y336000D02*
D03*
X368500D02*
D03*
X403500Y363000D02*
D03*
X422500D02*
D03*
X545500Y279000D02*
D03*
X526500D02*
D03*
X368500Y280000D02*
D03*
X349500D02*
D03*
X268500Y367000D02*
D03*
X287500D02*
D03*
X90500Y598000D02*
D03*
X71500D02*
D03*
X356500Y651000D02*
D03*
X337500D02*
D03*
X337500Y634000D02*
D03*
X356500D02*
D03*
X470500Y824500D02*
D03*
X451500D02*
D03*
X515500Y537250D02*
D03*
X534500D02*
D03*
X515500Y492250D02*
D03*
X534500D02*
D03*
X649000Y492250D02*
D03*
X630000D02*
D03*
X648500Y537250D02*
D03*
X629500D02*
D03*
X534500Y522250D02*
D03*
X515500D02*
D03*
X515500Y507250D02*
D03*
X534500D02*
D03*
X630000Y507250D02*
D03*
X649000D02*
D03*
X648500Y522250D02*
D03*
X629500D02*
D03*
X554500Y457500D02*
D03*
X535500D02*
D03*
X584210Y137690D02*
D03*
X565210D02*
D03*
X228750Y137580D02*
D03*
X209750D02*
D03*
X406860Y137560D02*
D03*
X387860D02*
D03*
X667780Y207020D02*
D03*
X686780D02*
D03*
X490390Y207000D02*
D03*
X509390D02*
D03*
X313100Y206400D02*
D03*
X332100D02*
D03*
X584210Y122690D02*
D03*
X565210D02*
D03*
X228750Y122580D02*
D03*
X209750D02*
D03*
X406860Y122560D02*
D03*
X387860D02*
D03*
X667780Y222020D02*
D03*
X686780D02*
D03*
X490390Y222000D02*
D03*
X509390D02*
D03*
X313100Y221400D02*
D03*
X332100D02*
D03*
X42500Y37000D02*
D03*
X61500D02*
D03*
X87000Y131000D02*
D03*
X106000D02*
D03*
X70500Y197000D02*
D03*
X51500D02*
D03*
X51500Y180000D02*
D03*
X70500D02*
D03*
X14500Y197000D02*
D03*
X33500D02*
D03*
X15500Y143000D02*
D03*
X34500D02*
D03*
X206500Y498000D02*
D03*
X187500D02*
D03*
X587160Y699290D02*
D03*
X606160D02*
D03*
X317820Y699060D02*
D03*
X336820D02*
D03*
X46340Y699080D02*
D03*
X65340D02*
D03*
X606160Y668290D02*
D03*
X587160D02*
D03*
X336820Y668060D02*
D03*
X317820D02*
D03*
X65340Y668080D02*
D03*
X46340D02*
D03*
X284500Y568000D02*
D03*
X303500D02*
D03*
X284500Y584000D02*
D03*
X303500D02*
D03*
X332500Y592000D02*
D03*
X351500D02*
D03*
X43500Y582000D02*
D03*
X24500D02*
D03*
X498500Y363000D02*
D03*
X517500D02*
D03*
X169500Y64000D02*
D03*
X188500D02*
D03*
D181*
X119500Y616000D02*
D03*
X138500D02*
D03*
Y640000D02*
D03*
X129000D02*
D03*
X119500D02*
D03*
D182*
X197000Y538000D02*
D03*
X187500Y518000D02*
D03*
X206500D02*
D03*
D183*
X431999Y779000D02*
D03*
X454001Y769500D02*
D03*
Y788500D02*
D03*
X452001Y810000D02*
D03*
X429999Y819500D02*
D03*
Y800500D02*
D03*
X111001Y54000D02*
D03*
X88999Y63500D02*
D03*
Y44500D02*
D03*
X109156Y170343D02*
D03*
X87155Y179843D02*
D03*
Y160844D02*
D03*
X89001Y117000D02*
D03*
X66999Y126500D02*
D03*
Y107500D02*
D03*
X-14501Y171000D02*
D03*
X7501Y161500D02*
D03*
Y180500D02*
D03*
X126001Y454000D02*
D03*
X103999Y463500D02*
D03*
Y444500D02*
D03*
D184*
X674100Y802500D02*
D03*
D185*
X626000D02*
D03*
D186*
X583210Y108690D02*
D03*
X564210D02*
D03*
Y84690D02*
D03*
X573710D02*
D03*
X583210D02*
D03*
X227750Y108580D02*
D03*
X208750D02*
D03*
Y84580D02*
D03*
X218250D02*
D03*
X227750D02*
D03*
X405860Y108560D02*
D03*
X386860D02*
D03*
Y84560D02*
D03*
X396360D02*
D03*
X405860D02*
D03*
X668780Y239020D02*
D03*
X687780D02*
D03*
Y263020D02*
D03*
X678280D02*
D03*
X668780D02*
D03*
X491390Y239000D02*
D03*
X510390D02*
D03*
Y263000D02*
D03*
X500890D02*
D03*
X491390D02*
D03*
X314100Y238400D02*
D03*
X333100D02*
D03*
Y262400D02*
D03*
X323600D02*
D03*
X314100D02*
D03*
D187*
X574710Y60190D02*
D03*
Y29190D02*
D03*
X219250Y60080D02*
D03*
Y29080D02*
D03*
X397360Y60060D02*
D03*
Y29060D02*
D03*
X677280Y282520D02*
D03*
Y313520D02*
D03*
X499890Y282500D02*
D03*
Y313500D02*
D03*
X322600Y281900D02*
D03*
Y312900D02*
D03*
D188*
X105000Y555500D02*
D03*
Y574500D02*
D03*
X81000D02*
D03*
Y565000D02*
D03*
Y555500D02*
D03*
X192000D02*
D03*
Y574500D02*
D03*
X168000D02*
D03*
Y565000D02*
D03*
Y555500D02*
D03*
D189*
X551750Y363000D02*
D03*
X534250D02*
D03*
X187250Y49500D02*
D03*
X169750D02*
D03*
M02*
