M48
;Layer_Color=9474304
;FILE_FORMAT=2:5
INCH,LZ
;TYPE=PLATED
T1F00S00C0.01181
T2F00S00C0.01575
T3F00S00C0.06299
T4F00S00C0.12598
;TYPE=NON_PLATED
T5F00S00C0.03307
T6F00S00C0.04685
%
T01
X0181398Y0009646
X019124Y0007461
X0204823Y0007382
X0210335
X0212795Y0010709
X0224311Y0002539
X025315Y0024882
X0235138Y0043287
X0232972Y0062776
X0237795
Y0068484
Y0073012
X0232972Y0068484
X0223228Y0087185
X0184646Y0082185
X0175295Y0079035
Y0073622
X018002Y005876
X0158366Y0054429
X0175492Y0029528
Y0024606
X0137303Y0023898
Y0027854
X0138091Y0034843
X0137303Y0041221
X0112205
Y0027835
Y0023701
X0107874Y0053839
X0102953Y0053937
X0111024Y0072244
X0111811Y0076476
X0112008Y0089055
X0137106Y0088957
X0137303Y0076279
X0138287Y0072441
X0075197Y0056575
X0070374
X0066437
X0065256Y0046634
X0065059Y0039941
X0051968Y0040039
X0052461Y0007972
X0057776
X0063681
X003563Y0009035
X0023228Y0002539
X0027756Y002252
X0011122Y0031693
X0007087
X0002657Y0024685
X0012106Y0078543
X0010039Y0084252
X0023524Y0105
Y0110531
X0052854Y0116909
X0057087
X0058169Y0106988
X0055512Y0101654
X0051181
X006874Y010185
X0080709Y0103819
X0085925
X0109843
X0111024Y0122638
Y0129528
X0111909Y0139941
X0137008
X0137402Y0133465
X0138287Y0126673
Y0122638
X01375Y0103819
X0145551Y0102165
X0071752Y014998
X0057579Y0137972
X0052165Y0137874
X0039173Y013689
X0026772Y0154705
X0002559Y0132953
X0175098Y0128445
Y0123031
X0179331Y0109153
X023061Y0108661
X0232087Y0104232
X0247146Y0122323
X0253248Y0125472
X0214075Y0135433
Y014122
Y0145945
Y0150276
X0229724Y0154705
T02
X0206594Y0037087
X0216929Y0046437
X0217126Y0056575
X0217028Y0066417
X0216929Y0076457
X0217028Y0086496
X0200098Y0078425
X0207579Y012065
X0217323Y0111496
T03
X022437Y0014902
X0031457Y0142461
X022437
T04
X0243524Y0012284
X0012303
Y0145079
X0243524
T05
X0223701Y003372
X0232598
Y0124193
X0223701
T06
X0022933Y0037874
Y0073307
Y0091024
Y0126457
M30
