M48
;Layer_Color=9474304
;FILE_FORMAT=2:5
INCH,LZ
;TYPE=PLATED
T1F00S00C0.01181
;TYPE=NON_PLATED
%
T01
X0154927Y0012284
Y001622
X0159792
Y0012284
X0164755
Y001622
X0169325
Y0012284
X0174091
Y001622
X0175591Y0020276
X0171653
X0167717
X0163779
X0158957Y0024803
X0156617Y0032697
Y0036634
X0154154Y0041021
X0160118Y0041122
X0164055
X0167224Y0039469
X0169783Y0041339
X017419Y0039547
X0174288Y0046732
X0167618Y0047618
X0156988
X015473Y0060709
Y0064646
X0159595
Y0060709
X0164558
Y0064646
X0169128
Y0060709
X0173895
Y0064646
X0175394Y0068701
X0171457
X016752
X0163583
X0158858Y0073228
X015642Y0081122
Y0085059
X0153957Y0089446
X0159921Y0089547
X0163858
X0167028Y0087992
X0169587Y0089961
X0173993Y0087972
X0174091Y0096043
X0167421
X0156791
X0163583Y0079134
X0168307Y0079035
X0180118Y0077342
Y0081279
X0181178Y0089646
Y0096043
X0190824
X0200098Y009565
Y0091713
Y0086135
Y0082198
Y0074554
Y0070617
Y0065039
Y0061102
X0194685Y0061004
X0193898Y0066909
X0189173
Y007124
X0186122Y0076752
X0179876Y0070059
Y0063366
X0186122Y0061004
X0181375Y0047913
Y0041221
X0180315Y0032854
Y0028917
X0186319Y0028327
X018937Y0022815
Y0018484
X0194095
X0194882Y0012579
X0200295Y0012677
Y0016614
Y0022881
Y0026818
Y0033084
Y0037021
Y0043287
Y0047224
X0191021Y0047913
Y0037776
X0208465Y0042598
X0208661Y0053327
X0208563Y0060216
X0208465Y0070846
X022441Y0072323
Y0067402
Y0062382
Y0057362
Y0052342
Y0047323
Y0042402
X0215945Y0035413
Y0031476
X021752Y0051653
X0245374Y0052342
Y0047323
Y0042402
X0245866Y0036496
X0241929
Y0032559
X0245866
X0245374Y0057362
Y0067402
Y0072323
X0243307Y0078622
Y0082559
X0238976
Y0078622
X0232874Y0080492
X0223031Y008059
X0231201Y0090039
X0235138
X0235728Y0093583
X0231791
X0227854
X0217913Y009437
Y009811
X0207283Y009437
X0207776Y0089095
X0211713
X0190824Y0086201
X0239764Y0093583
X0246555Y0098799
X0247638Y0082559
Y0078622
X018027Y0021634
Y0014941
X0186319Y0012579
X0168504Y0030709
X0163779
X0149409Y003
X0145965Y0027933
X014252Y003
X0141831Y0035728
X0144685Y0038976
X0150216Y0041021
X0150984Y0047618
X0140354
X0129724Y0045354
Y0037087
X011998
Y0045354
X0110335Y0047717
X0099705
X0093799Y0049784
X0089862
X0090135Y0044862
Y0040925
X0094367
Y0044862
X009439Y0035236
Y0031299
X0090135Y0031378
Y0035315
X0085039Y0035217
Y003128
X0085017Y0025768
Y0021831
X0080315Y0022126
X0073228
X0072896Y0016319
Y0012382
X0077803
Y0016319
X0082809
Y0012382
X0087815
Y0016319
X009282
Y0012382
X009766Y0012323
Y001626
X010209
Y0012323
X0107087Y0012303
Y001624
X0112795Y0013681
X0122047Y0011122
X0125197
X0128051Y0013681
X0126969Y0018799
X0127165Y0025276
X0130315
X0122047
X0118898
X0122047Y001624
X0136614
X0141316Y001622
Y0012284
X0145647Y001622
X0150259Y001622
Y0012284
X0150062Y0060709
Y0064646
X0145436Y0064646
X0141105
Y0060709
X0136909Y0064665
X0128347Y0062106
X0125492Y0059547
X0122343
Y0064665
X0127264Y0067224
X0126969Y0073701
X0130118
X012185
X0118701
X0119783Y0085512
Y0093779
X0129528
Y0085512
X0141535Y0084055
X0144488Y0087303
X015002Y0089446
X0150787Y0096043
X0140157
X014252Y0077658
X0145669Y0075394
X0148819Y0077658
X0108169Y0076279
X0107185Y0082264
X0104035Y0083937
X0100984Y0082264
X0099902Y0076457
X0102756Y007313
X0101879Y0064685
Y0060748
X009745
Y0064685
X0092624Y0064744
Y0060807
X0087604
X0087618Y0064744
X0082612
Y0060807
X0077607
Y0064744
X0072685
X0072699Y0060807
X0065748Y0061299
X0056398
X0048917Y0061102
Y0065039
Y0071306
Y0075243
Y0080919
Y0084856
X005502Y0084823
X0060138
Y0090138
X005502
X0054626Y0095157
X0048917Y0095256
Y0091319
X0039961Y0094961
X0034154Y0098898
Y0091024
X0029823Y008187
X0025886
X0022244
X0018307
X0011909Y0073307
X0013878Y006937
X0012303Y0065433
X0012008Y0061496
X0008957Y0057559
X0005315Y0053622
X0003602Y0049685
X0007146Y0045748
X0014232
X0011083Y0049685
Y0041811
X0014232Y0037874
X0007146
X0003602Y0041811
X0031594
X0035138Y0037874
X0039075Y0041811
Y0049685
X0040157Y0053622
Y0057539
X0031594Y0057559
X0035138Y0053622
X0031594Y0049685
X0035138Y0045748
Y0061496
X0031594Y0065433
X0035138Y006937
X0031594Y0073307
X0056398Y0071929
X0065748
X0073032Y0070551
X0080118
X008482Y0070256
Y0074193
X0089741
Y0070256
X0094367
Y0074193
X0094179Y0079724
Y0083661
X0089924Y008374
Y0079803
X0084842Y0079705
Y0083642
X0080118Y0082362
X0073032
X0068383Y0082264
Y0078327
X006309Y0079311
X0076575Y0078524
Y007439
X0075371Y0088465
Y0095157
X0082064Y0095157
X0081965Y0087972
X0089446Y008935
Y0093287
X0094269
Y008935
X0093602Y0098209
X0089665
X0099508Y0096142
X0110138
X0110433Y0067224
X0113091Y0062106
X0106876Y0060728
X0107382Y0033839
X0104232Y0035512
X0101181Y0033839
X0100098Y0027736
X0102953Y0024606
X0108366Y0027756
X0094367Y0025768
Y0021831
X0090135
Y0025768
X0076772Y0025965
Y0030098
X0073228Y0033937
X006858Y0033839
Y0029902
X0063287Y0030886
X0060335Y0036398
X0055216
Y0041713
X0060335
X0068875Y0039941
Y0046634
X0075568Y0046732
Y0040039
X0082162Y0039547
X0082261Y0046732
X0054823Y0046732
X0049114Y0047618
Y0043681
Y0036824
Y0032887
Y0026818
Y0022881
Y0016614
Y0012677
X0056595Y0012874
X0065945
Y0023504
X0056595
X0039764Y002311
X0032283
X0036516Y0030394
X0040453
X0027559Y0030413
X0023622
X0036024Y0014153
X0011024Y0094961
X0006398Y0091024
Y0098898
X006309Y0094961
X0068678Y0095059
Y0088366
X006565Y0111594
X0072601Y0111102
Y0115039
X0077508
Y0111102
X0082514
Y0115039
X0087519
Y0111102
X0092525
Y0115039
X0097365Y011498
Y0111043
X0101794
Y011498
X0106791Y0111024
X0112697Y0112402
X011063Y011752
X0108071Y0126476
X0107087Y0132559
X0103937Y0134232
X0100886Y0132559
X0099803Y0126654
X0102657Y0123228
X0094072Y0124488
Y0120551
X0089643
Y0124488
X0084721
Y0120551
X008002Y0120846
X0072933
X0076476Y0124685
Y0128819
X0072933Y0132658
X0068284Y0132559
Y0128622
X0062992Y0129606
X0060039Y0135118
X0054921
Y0140728
X0054528Y0145453
X0048819Y0145945
Y0142008
Y0135741
Y0131805
Y0125538
Y0121601
Y0115335
Y0111398
X0056299Y0111594
Y0122224
X006565
X006858Y0138661
Y0145354
X0062992
X0060236Y0140728
X0075273Y013876
X0075787Y0144764
X0081965Y0145453
X0081867Y0138268
X0084842Y0133937
Y013
X0089839Y0130098
Y0134035
X0094095Y0133957
Y013002
X0094072Y0139646
Y0143583
X0089249
Y0139646
X0089567Y0148504
X0093504
X009941Y0146437
X0110039
X0119685Y0144075
Y0135807
X0129429
Y0144075
X0140059Y0146339
X0150689Y0146555
X0149921Y0139741
X014439Y0137598
X0141437Y0134547
X0142224Y0128051
X0145669Y0125787
X0149213Y0127854
X0149963Y0114941
Y0111004
X0145351Y0114941
X0141021
Y0111004
X0136516Y0114961
X0127953Y0112402
X0125098Y0109843
X0121949
Y0114961
X012687Y011752
Y0123996
X013002
X0121752
X0118602
X008002Y0132658
X0039961Y0126457
Y0118583
Y0110709
Y0102835
X0034154Y0106772
Y0114646
Y012252
X0011024Y0126358
Y0118583
Y0110709
Y0102835
X0006398Y0106772
Y0114646
Y012252
X0158661Y0123524
X0163484Y0118996
X0167421
X0171358
X0175295
X0173796Y0114941
Y0111004
X016903
Y0114941
X016446
Y0111004
X0159496
Y0114941
X0154631
Y0111004
X0159547Y0106201
X0163386Y0129528
X0168209Y0129429
X0166929Y0138287
X016376Y0139741
X0159823
X0153858
X0156322Y0135354
Y0131417
X0156693Y0146555
X0167323
X0173993
X018108Y0146634
Y0139941
X0173895Y0138268
X0169488Y0140354
X018002Y0131575
Y0127638
X0186024Y0127047
X0189075Y0121535
Y0117205
X0193799
Y0121535
X02Y0121601
Y0125538
Y0131805
Y0135741
Y0142008
Y0145945
X0190725Y0146634
Y0136496
X0206398Y0138793
X0225787Y0131968
X0231693
X0240158Y0128917
X0246949
X0242618Y0122323
X0238681
X0237697Y0118287
X0241634
X0239665Y0110906
X0235728
X0237697Y0101063
X023376
X0229823
X0241634
X0246555Y0102736
Y0108642
Y0112579
X0227264Y0115532
X0229823Y0118287
X0223524Y0111299
Y0107362
X0217913Y010185
X0207283
X02Y0111398
Y0115335
X0194587Y0111299
X0186024
X0179777Y0113661
Y0120354
M30
