M48
;Layer_Color=9474304
;FILE_FORMAT=2:5
INCH,LZ
;TYPE=PLATED
T1F00S00C0.01181
;TYPE=NON_PLATED
%
T01
X0169685Y0018189
X0174114
X0187008Y0016614
Y0012677
X0194587Y0010709
Y0014646
Y0018583
X0195768Y0022421
X0191831
X0202756
X0206693
X0204035Y0016614
Y0012677
X0211516Y0014744
Y0018583
X0212402Y0043957
Y0048957
Y0053957
Y0058957
Y0063957
Y0068957
Y0073957
Y0078957
Y0083957
Y0088957
Y0093957
Y0098957
X0206496
Y0093957
Y0088957
Y0083957
Y0078957
Y0073957
Y0068957
Y0063957
Y0058957
Y0053957
Y0048957
Y0043957
X0199606Y005313
X018376Y0053031
X0183661Y0069468
X0187205
X0196063
X0199902
X0199902Y0088957
X0183858Y0089055
X0173917Y0066614
X0169488
X0158563Y0048012
X0183169Y0033543
X0186319
X0196161
X02
X0231201Y0075669
X0158345Y0096339
X0132579Y0088957
X011624Y0089055
X0106496Y0090433
X0103051
X0079626Y0098012
X0075984
X0065847Y0098504
X006191
X0061122Y0093583
X0066634
Y008689
X0061122
X0056988Y0087185
Y0090335
Y0083937
X006191Y0081968
X0065847
Y0077441
X006191
Y0072618
X0065847
X0066535Y0067303
X0061024
X0056693Y0067697
Y0070945
X0056791Y0076653
Y0061063
X0060433
X0053051
X0049114Y0056476
X0043996Y0056279
X0039862Y0057185
X0036713
X0031988Y005748
X0028248Y0053819
X0024311
X0024508Y0057323
X002628Y0064055
X0030217Y0068484
X0044291Y0069272
X0045177Y0081476
X0043799Y0086122
X003002Y008748
X0030217Y0100591
X0021949Y0099783
X0016831Y0096929
X0012008Y0097323
X0008071
X0007382Y0091614
Y0087677
X0011614Y008935
X0013386Y0093386
X0007382Y0081083
Y0077146
X0007382Y0071043
Y0067106
Y0060905
Y0056968
X0012205
Y0060905
X0013091Y0064941
X0013189Y0069665
Y0073327
X0017717Y0059527
X0018012Y0055098
Y0051083
X0024508Y0048406
Y0042894
X0030807Y0042106
X0029035Y0038071
X0032972
X0034941Y0034035
X0030512Y0033248
X0025492Y0034035
X0028642Y0026555
X0033661Y0025571
X0037697Y0022224
X0041339
X0043209Y0016024
X0047933Y0015748
X0051378
X0045571Y0010925
X0039173Y0012776
X0031693Y0011201
X0039469Y0030984
X0045768Y0033642
X0050886Y0031575
X0049508Y0024685
X0056595Y0024783
X0066142Y0024882
X0065847Y0031476
X0065256Y0014547
X0091416Y0012087
X0084252Y0002539
X008061Y0041811
X0075886
X0065354Y0051161
X0050984
X0042323Y0052835
X0038386
Y0048307
X0042323
Y004378
X0038386
X0030512Y0049193
X0012205Y0046831
X0007382Y0045847
Y0049784
Y0040945
X0007402Y0037008
X0012224Y0037008
Y0040945
X0015473Y0028425
X001941
X0035138Y0078524
X0040354Y0100197
X0045965Y009998
X0091219Y0060512
X0103248Y0042008
X0106693
X0116535Y0033346
X0132776Y0033445
X0132677Y005313
X0116535
X0116339Y0069272
X0132776
X0142717Y0066614
X0148031
X0148228Y0018189
X0142913
X0129134Y0017205
Y0013268
X0124902
Y0017205
X0120669
Y0013268
X0116339Y0103228
X0132579Y0103327
X0132776Y0123012
X0124655
X0116535
X0121457Y0137087
X0126969
X0128445Y0143189
Y0147126
X0124311
Y0143189
X0120079
Y0147126
X0106398Y0140728
X0102953
X0080315Y0140532
X007559
X0064567Y0147126
X0064764Y0132756
X0064665Y0116614
Y0113169
Y0107953
X0044783
X0043209Y0102264
X0038386Y0104429
X0035138Y0100886
X0032677Y0102854
X0031201Y010628
Y0110216
X0027165Y0111398
Y0107461
X0027854Y0103543
X0024803Y0101575
X0013189Y0101949
X0008268
X0008465Y0110413
X0008366Y0114547
X0013189Y0114764
X0015059Y011752
X0018799Y0114567
Y0110413
X0015354Y0104902
X0011594Y0107461
X0008366Y0123012
X0007972Y0127441
X0011909
X0018701Y0123012
X0024114Y0120551
Y0116614
X0031201Y0116122
Y0120059
X0035531
Y0116122
X0036909Y0127146
X0030217
X004498Y0122323
X0044882Y0132264
X004498Y0147224
X0091121Y0110807
X0142618Y0116909
X0147933
X016939
X0173819
X018376Y0122716
X0187402
X0196161
X0199409
X0205807Y0130689
X0201969Y0134921
Y0138858
X0201279Y0145945
X0197343
X0190354
X0186417
X0185236Y0138858
Y0134921
X0192717Y013689
Y0140827
Y0132953
X0210531Y0138366
X0205906Y0143189
X0206496Y0113957
Y0108957
Y0103957
X0212402
Y0108957
Y0113957
X0199606Y0103327
X0184252
X0158247Y0146634
M30
