G04 Layer_Color=8421504*
%FSLAX44Y44*%
%MOMM*%
G71*
G01*
G75*
%ADD10R,1.0000X1.3000*%
%ADD11R,2.2000X0.6500*%
%ADD12R,1.0000X1.8000*%
%ADD13R,1.7000X1.1000*%
%ADD14R,1.0500X0.6000*%
%ADD15R,0.5000X0.3000*%
%ADD16R,0.9000X0.8000*%
%ADD17R,0.3500X0.7000*%
%ADD18R,0.6000X2.6000*%
%ADD19R,2.2600X0.6100*%
%ADD20R,2.0000X1.2000*%
G04:AMPARAMS|DCode=21|XSize=0.3mm|YSize=1mm|CornerRadius=0.12mm|HoleSize=0mm|Usage=FLASHONLY|Rotation=90.000|XOffset=0mm|YOffset=0mm|HoleType=Round|Shape=RoundedRectangle|*
%AMROUNDEDRECTD21*
21,1,0.3000,0.7600,0,0,90.0*
21,1,0.0600,1.0000,0,0,90.0*
1,1,0.2400,0.3800,0.0300*
1,1,0.2400,0.3800,-0.0300*
1,1,0.2400,-0.3800,-0.0300*
1,1,0.2400,-0.3800,0.0300*
%
%ADD21ROUNDEDRECTD21*%
G04:AMPARAMS|DCode=22|XSize=0.3mm|YSize=1mm|CornerRadius=0.12mm|HoleSize=0mm|Usage=FLASHONLY|Rotation=0.000|XOffset=0mm|YOffset=0mm|HoleType=Round|Shape=RoundedRectangle|*
%AMROUNDEDRECTD22*
21,1,0.3000,0.7600,0,0,0.0*
21,1,0.0600,1.0000,0,0,0.0*
1,1,0.2400,0.0300,-0.3800*
1,1,0.2400,-0.0300,-0.3800*
1,1,0.2400,-0.0300,0.3800*
1,1,0.2400,0.0300,0.3800*
%
%ADD22ROUNDEDRECTD22*%
%ADD23R,6.0000X6.0000*%
%ADD24R,0.6000X0.6000*%
%ADD25R,0.6000X0.6000*%
D10*
X499000Y212250D02*
D03*
X479000D02*
D03*
X499000Y194719D02*
D03*
X479000D02*
D03*
X499000Y177187D02*
D03*
X479000D02*
D03*
X499000Y159656D02*
D03*
X479000D02*
D03*
X499000Y142125D02*
D03*
X479000D02*
D03*
X499000Y124594D02*
D03*
X479000D02*
D03*
X499000Y107063D02*
D03*
X479000D02*
D03*
X499000Y89531D02*
D03*
X479000D02*
D03*
X499000Y72000D02*
D03*
X479000D02*
D03*
X501500Y-222750D02*
D03*
X481500D02*
D03*
X501500Y-240656D02*
D03*
X481500D02*
D03*
X501500Y-258563D02*
D03*
X481500D02*
D03*
X501500Y-276469D02*
D03*
X481500D02*
D03*
X501500Y-294375D02*
D03*
X481500D02*
D03*
X501500Y-312281D02*
D03*
X481500D02*
D03*
X501500Y-330187D02*
D03*
X481500D02*
D03*
X501500Y-348094D02*
D03*
X481500D02*
D03*
X501500Y-366000D02*
D03*
X481500D02*
D03*
D11*
X184216Y338082D02*
D03*
Y325382D02*
D03*
Y312682D02*
D03*
Y299982D02*
D03*
Y287282D02*
D03*
Y274582D02*
D03*
Y261882D02*
D03*
X236216Y338082D02*
D03*
Y325382D02*
D03*
Y312682D02*
D03*
Y299982D02*
D03*
Y287282D02*
D03*
Y274582D02*
D03*
Y261882D02*
D03*
D12*
X366048Y337332D02*
D03*
X391048D02*
D03*
D13*
X260766Y342082D02*
D03*
Y315082D02*
D03*
X281566Y342082D02*
D03*
Y315082D02*
D03*
D14*
X325632Y338332D02*
D03*
Y328832D02*
D03*
Y319332D02*
D03*
X298632D02*
D03*
Y328832D02*
D03*
Y338332D02*
D03*
D15*
X263250Y243250D02*
D03*
X270250D02*
D03*
D16*
X351498Y329582D02*
D03*
Y343582D02*
D03*
X338698Y329582D02*
D03*
Y343582D02*
D03*
D17*
X485000Y400000D02*
D03*
X490000D02*
D03*
X495000D02*
D03*
X500000D02*
D03*
X505000D02*
D03*
X510000D02*
D03*
X515000D02*
D03*
X520000D02*
D03*
X525000D02*
D03*
X530000D02*
D03*
X480000D02*
D03*
X475000D02*
D03*
X470000D02*
D03*
X465000D02*
D03*
X460000D02*
D03*
X455000D02*
D03*
X450000D02*
D03*
X445000D02*
D03*
D18*
X434000Y422000D02*
D03*
X541000D02*
D03*
D19*
X549750Y-115000D02*
D03*
Y-125000D02*
D03*
Y-135000D02*
D03*
Y-145000D02*
D03*
Y-155000D02*
D03*
Y-165000D02*
D03*
Y-175000D02*
D03*
Y-185000D02*
D03*
Y-195000D02*
D03*
Y-205000D02*
D03*
X633550D02*
D03*
Y-195000D02*
D03*
Y-185000D02*
D03*
Y-175000D02*
D03*
Y-165000D02*
D03*
Y-155000D02*
D03*
Y-145000D02*
D03*
Y-135000D02*
D03*
Y-125000D02*
D03*
Y-115000D02*
D03*
X549750Y322300D02*
D03*
Y312300D02*
D03*
Y302300D02*
D03*
Y292300D02*
D03*
Y282300D02*
D03*
Y272300D02*
D03*
Y262300D02*
D03*
Y252300D02*
D03*
Y242300D02*
D03*
Y232300D02*
D03*
X633550D02*
D03*
Y242300D02*
D03*
Y252300D02*
D03*
Y262300D02*
D03*
Y272300D02*
D03*
Y282300D02*
D03*
Y292300D02*
D03*
Y302300D02*
D03*
Y312300D02*
D03*
Y322300D02*
D03*
X549750Y187300D02*
D03*
Y177300D02*
D03*
Y167300D02*
D03*
Y157300D02*
D03*
Y147300D02*
D03*
Y137300D02*
D03*
Y127300D02*
D03*
Y117300D02*
D03*
Y107300D02*
D03*
Y97300D02*
D03*
X633550D02*
D03*
Y107300D02*
D03*
Y117300D02*
D03*
Y127300D02*
D03*
Y137300D02*
D03*
Y147300D02*
D03*
Y157300D02*
D03*
Y167300D02*
D03*
Y177300D02*
D03*
Y187300D02*
D03*
X549750Y-250000D02*
D03*
Y-260000D02*
D03*
Y-270000D02*
D03*
Y-280000D02*
D03*
Y-290000D02*
D03*
Y-300000D02*
D03*
Y-310000D02*
D03*
Y-320000D02*
D03*
Y-330000D02*
D03*
Y-340000D02*
D03*
X633550D02*
D03*
Y-330000D02*
D03*
Y-320000D02*
D03*
Y-310000D02*
D03*
Y-300000D02*
D03*
Y-290000D02*
D03*
Y-280000D02*
D03*
Y-270000D02*
D03*
Y-260000D02*
D03*
Y-250000D02*
D03*
D20*
X0Y170000D02*
D03*
X-25000D02*
D03*
X0Y190000D02*
D03*
X-25000D02*
D03*
X0Y210000D02*
D03*
X-25000D02*
D03*
X0Y230000D02*
D03*
X-25000D02*
D03*
X0Y250000D02*
D03*
X-25000D02*
D03*
X0Y270000D02*
D03*
X-25000D02*
D03*
X0Y290000D02*
D03*
X-25000D02*
D03*
D21*
X73650Y335566D02*
D03*
Y330566D02*
D03*
Y325566D02*
D03*
Y320566D02*
D03*
Y315566D02*
D03*
Y310566D02*
D03*
Y305566D02*
D03*
Y300566D02*
D03*
Y295566D02*
D03*
Y290566D02*
D03*
Y285566D02*
D03*
Y280566D02*
D03*
Y275566D02*
D03*
Y270566D02*
D03*
Y265566D02*
D03*
Y260566D02*
D03*
X163650D02*
D03*
Y265566D02*
D03*
Y270566D02*
D03*
Y275566D02*
D03*
Y280566D02*
D03*
Y285566D02*
D03*
Y290566D02*
D03*
Y295566D02*
D03*
Y300566D02*
D03*
Y305566D02*
D03*
Y310566D02*
D03*
Y315566D02*
D03*
Y320566D02*
D03*
Y325566D02*
D03*
Y330566D02*
D03*
Y335566D02*
D03*
D22*
X81150Y253066D02*
D03*
X86150D02*
D03*
X91150D02*
D03*
X96150D02*
D03*
X101150D02*
D03*
X106150D02*
D03*
X111150D02*
D03*
X116150D02*
D03*
X121150D02*
D03*
X126150D02*
D03*
X131150D02*
D03*
X136150D02*
D03*
X141150D02*
D03*
X146150D02*
D03*
X151150D02*
D03*
X156150D02*
D03*
Y343066D02*
D03*
X151150D02*
D03*
X146150D02*
D03*
X141150D02*
D03*
X136150D02*
D03*
X131150D02*
D03*
X126150D02*
D03*
X121150D02*
D03*
X116150D02*
D03*
X111150D02*
D03*
X106150D02*
D03*
X101150D02*
D03*
X96150D02*
D03*
X91150D02*
D03*
X86150D02*
D03*
X81150D02*
D03*
D23*
X118650Y298066D02*
D03*
D24*
X78950Y241250D02*
D03*
Y231250D02*
D03*
X68150Y241250D02*
D03*
Y231250D02*
D03*
X230150Y241250D02*
D03*
Y231250D02*
D03*
X186950D02*
D03*
Y241250D02*
D03*
X122150D02*
D03*
Y231250D02*
D03*
X165350D02*
D03*
Y241250D02*
D03*
X176150D02*
D03*
Y231250D02*
D03*
X154550D02*
D03*
Y241250D02*
D03*
X132950D02*
D03*
Y231250D02*
D03*
X143750D02*
D03*
Y241250D02*
D03*
X219350D02*
D03*
Y231250D02*
D03*
X197750D02*
D03*
Y241250D02*
D03*
X208550D02*
D03*
Y231250D02*
D03*
X436998Y344082D02*
D03*
Y334082D02*
D03*
X447798Y344082D02*
D03*
Y334082D02*
D03*
X426198Y344082D02*
D03*
Y334082D02*
D03*
X404598Y344082D02*
D03*
Y334082D02*
D03*
X415398Y344082D02*
D03*
Y334082D02*
D03*
X100550Y241250D02*
D03*
Y231250D02*
D03*
X111350D02*
D03*
Y241250D02*
D03*
X89750D02*
D03*
Y231250D02*
D03*
D25*
X240950Y241250D02*
D03*
X250950D02*
D03*
M02*
