G04 Layer_Color=8388736*
%FSLAX44Y44*%
%MOMM*%
G71*
G01*
G75*
%ADD42R,1.2032X1.5032*%
%ADD43R,2.4032X0.8532*%
%ADD44R,1.2032X2.0032*%
%ADD45R,1.9032X1.3032*%
%ADD46R,1.2532X0.8032*%
%ADD47R,0.7032X0.5032*%
%ADD48R,1.1032X1.0032*%
%ADD49R,0.5532X0.9032*%
%ADD50R,0.8032X2.8032*%
%ADD51R,2.4632X0.8132*%
%ADD52R,2.2032X1.4032*%
G04:AMPARAMS|DCode=53|XSize=0.5032mm|YSize=1.2032mm|CornerRadius=0.2216mm|HoleSize=0mm|Usage=FLASHONLY|Rotation=90.000|XOffset=0mm|YOffset=0mm|HoleType=Round|Shape=RoundedRectangle|*
%AMROUNDEDRECTD53*
21,1,0.5032,0.7600,0,0,90.0*
21,1,0.0600,1.2032,0,0,90.0*
1,1,0.4432,0.3800,0.0300*
1,1,0.4432,0.3800,-0.0300*
1,1,0.4432,-0.3800,-0.0300*
1,1,0.4432,-0.3800,0.0300*
%
%ADD53ROUNDEDRECTD53*%
G04:AMPARAMS|DCode=54|XSize=0.5032mm|YSize=1.2032mm|CornerRadius=0.2216mm|HoleSize=0mm|Usage=FLASHONLY|Rotation=0.000|XOffset=0mm|YOffset=0mm|HoleType=Round|Shape=RoundedRectangle|*
%AMROUNDEDRECTD54*
21,1,0.5032,0.7600,0,0,0.0*
21,1,0.0600,1.2032,0,0,0.0*
1,1,0.4432,0.0300,-0.3800*
1,1,0.4432,-0.0300,-0.3800*
1,1,0.4432,-0.0300,0.3800*
1,1,0.4432,0.0300,0.3800*
%
%ADD54ROUNDEDRECTD54*%
%ADD55R,6.2032X6.2032*%
%ADD56R,0.8032X0.8032*%
%ADD57R,0.8032X0.8032*%
%ADD58C,1.5032*%
%ADD59R,1.5032X1.5032*%
%ADD60C,6.7032*%
%ADD61C,1.3932*%
%ADD62C,6.2032*%
%ADD63C,1.7032*%
%ADD64C,3.2032*%
%ADD65C,4.2032*%
%ADD66C,0.8032*%
D42*
X499000Y212250D02*
D03*
X479000D02*
D03*
X499000Y194719D02*
D03*
X479000D02*
D03*
X499000Y177187D02*
D03*
X479000D02*
D03*
X499000Y159656D02*
D03*
X479000D02*
D03*
X499000Y142125D02*
D03*
X479000D02*
D03*
X499000Y124594D02*
D03*
X479000D02*
D03*
X499000Y107063D02*
D03*
X479000D02*
D03*
X499000Y89531D02*
D03*
X479000D02*
D03*
X499000Y72000D02*
D03*
X479000D02*
D03*
X501500Y-222750D02*
D03*
X481500D02*
D03*
X501500Y-240656D02*
D03*
X481500D02*
D03*
X501500Y-258563D02*
D03*
X481500D02*
D03*
X501500Y-276469D02*
D03*
X481500D02*
D03*
X501500Y-294375D02*
D03*
X481500D02*
D03*
X501500Y-312281D02*
D03*
X481500D02*
D03*
X501500Y-330187D02*
D03*
X481500D02*
D03*
X501500Y-348094D02*
D03*
X481500D02*
D03*
X501500Y-366000D02*
D03*
X481500D02*
D03*
D43*
X184216Y338082D02*
D03*
Y325382D02*
D03*
Y312682D02*
D03*
Y299982D02*
D03*
Y287282D02*
D03*
Y274582D02*
D03*
Y261882D02*
D03*
X236216Y338082D02*
D03*
Y325382D02*
D03*
Y312682D02*
D03*
Y299982D02*
D03*
Y287282D02*
D03*
Y274582D02*
D03*
Y261882D02*
D03*
D44*
X366048Y337332D02*
D03*
X391048D02*
D03*
D45*
X260766Y342082D02*
D03*
Y315082D02*
D03*
X281566Y342082D02*
D03*
Y315082D02*
D03*
D46*
X325632Y338332D02*
D03*
Y328832D02*
D03*
Y319332D02*
D03*
X298632D02*
D03*
Y328832D02*
D03*
Y338332D02*
D03*
D47*
X263250Y243250D02*
D03*
X270250D02*
D03*
D48*
X351498Y329582D02*
D03*
Y343582D02*
D03*
X338698Y329582D02*
D03*
Y343582D02*
D03*
D49*
X485000Y400000D02*
D03*
X490000D02*
D03*
X495000D02*
D03*
X500000D02*
D03*
X505000D02*
D03*
X510000D02*
D03*
X515000D02*
D03*
X520000D02*
D03*
X525000D02*
D03*
X530000D02*
D03*
X480000D02*
D03*
X475000D02*
D03*
X470000D02*
D03*
X465000D02*
D03*
X460000D02*
D03*
X455000D02*
D03*
X450000D02*
D03*
X445000D02*
D03*
D50*
X434000Y422000D02*
D03*
X541000D02*
D03*
D51*
X549750Y-115000D02*
D03*
Y-125000D02*
D03*
Y-135000D02*
D03*
Y-145000D02*
D03*
Y-155000D02*
D03*
Y-165000D02*
D03*
Y-175000D02*
D03*
Y-185000D02*
D03*
Y-195000D02*
D03*
Y-205000D02*
D03*
X633550D02*
D03*
Y-195000D02*
D03*
Y-185000D02*
D03*
Y-175000D02*
D03*
Y-165000D02*
D03*
Y-155000D02*
D03*
Y-145000D02*
D03*
Y-135000D02*
D03*
Y-125000D02*
D03*
Y-115000D02*
D03*
X549750Y322300D02*
D03*
Y312300D02*
D03*
Y302300D02*
D03*
Y292300D02*
D03*
Y282300D02*
D03*
Y272300D02*
D03*
Y262300D02*
D03*
Y252300D02*
D03*
Y242300D02*
D03*
Y232300D02*
D03*
X633550D02*
D03*
Y242300D02*
D03*
Y252300D02*
D03*
Y262300D02*
D03*
Y272300D02*
D03*
Y282300D02*
D03*
Y292300D02*
D03*
Y302300D02*
D03*
Y312300D02*
D03*
Y322300D02*
D03*
X549750Y187300D02*
D03*
Y177300D02*
D03*
Y167300D02*
D03*
Y157300D02*
D03*
Y147300D02*
D03*
Y137300D02*
D03*
Y127300D02*
D03*
Y117300D02*
D03*
Y107300D02*
D03*
Y97300D02*
D03*
X633550D02*
D03*
Y107300D02*
D03*
Y117300D02*
D03*
Y127300D02*
D03*
Y137300D02*
D03*
Y147300D02*
D03*
Y157300D02*
D03*
Y167300D02*
D03*
Y177300D02*
D03*
Y187300D02*
D03*
X549750Y-250000D02*
D03*
Y-260000D02*
D03*
Y-270000D02*
D03*
Y-280000D02*
D03*
Y-290000D02*
D03*
Y-300000D02*
D03*
Y-310000D02*
D03*
Y-320000D02*
D03*
Y-330000D02*
D03*
Y-340000D02*
D03*
X633550D02*
D03*
Y-330000D02*
D03*
Y-320000D02*
D03*
Y-310000D02*
D03*
Y-300000D02*
D03*
Y-290000D02*
D03*
Y-280000D02*
D03*
Y-270000D02*
D03*
Y-260000D02*
D03*
Y-250000D02*
D03*
D52*
X0Y170000D02*
D03*
X-25000D02*
D03*
X0Y190000D02*
D03*
X-25000D02*
D03*
X0Y210000D02*
D03*
X-25000D02*
D03*
X0Y230000D02*
D03*
X-25000D02*
D03*
X0Y250000D02*
D03*
X-25000D02*
D03*
X0Y270000D02*
D03*
X-25000D02*
D03*
X0Y290000D02*
D03*
X-25000D02*
D03*
D53*
X73650Y335566D02*
D03*
Y330566D02*
D03*
Y325566D02*
D03*
Y320566D02*
D03*
Y315566D02*
D03*
Y310566D02*
D03*
Y305566D02*
D03*
Y300566D02*
D03*
Y295566D02*
D03*
Y290566D02*
D03*
Y285566D02*
D03*
Y280566D02*
D03*
Y275566D02*
D03*
Y270566D02*
D03*
Y265566D02*
D03*
Y260566D02*
D03*
X163650D02*
D03*
Y265566D02*
D03*
Y270566D02*
D03*
Y275566D02*
D03*
Y280566D02*
D03*
Y285566D02*
D03*
Y290566D02*
D03*
Y295566D02*
D03*
Y300566D02*
D03*
Y305566D02*
D03*
Y310566D02*
D03*
Y315566D02*
D03*
Y320566D02*
D03*
Y325566D02*
D03*
Y330566D02*
D03*
Y335566D02*
D03*
D54*
X81150Y253066D02*
D03*
X86150D02*
D03*
X91150D02*
D03*
X96150D02*
D03*
X101150D02*
D03*
X106150D02*
D03*
X111150D02*
D03*
X116150D02*
D03*
X121150D02*
D03*
X126150D02*
D03*
X131150D02*
D03*
X136150D02*
D03*
X141150D02*
D03*
X146150D02*
D03*
X151150D02*
D03*
X156150D02*
D03*
Y343066D02*
D03*
X151150D02*
D03*
X146150D02*
D03*
X141150D02*
D03*
X136150D02*
D03*
X131150D02*
D03*
X126150D02*
D03*
X121150D02*
D03*
X116150D02*
D03*
X111150D02*
D03*
X106150D02*
D03*
X101150D02*
D03*
X96150D02*
D03*
X91150D02*
D03*
X86150D02*
D03*
X81150D02*
D03*
D55*
X118650Y298066D02*
D03*
D56*
X78950Y241250D02*
D03*
Y231250D02*
D03*
X68150Y241250D02*
D03*
Y231250D02*
D03*
X230150Y241250D02*
D03*
Y231250D02*
D03*
X186950D02*
D03*
Y241250D02*
D03*
X122150D02*
D03*
Y231250D02*
D03*
X165350D02*
D03*
Y241250D02*
D03*
X176150D02*
D03*
Y231250D02*
D03*
X154550D02*
D03*
Y241250D02*
D03*
X132950D02*
D03*
Y231250D02*
D03*
X143750D02*
D03*
Y241250D02*
D03*
X219350D02*
D03*
Y231250D02*
D03*
X197750D02*
D03*
Y241250D02*
D03*
X208550D02*
D03*
Y231250D02*
D03*
X436998Y344082D02*
D03*
Y334082D02*
D03*
X447798Y344082D02*
D03*
Y334082D02*
D03*
X426198Y344082D02*
D03*
Y334082D02*
D03*
X404598Y344082D02*
D03*
Y334082D02*
D03*
X415398Y344082D02*
D03*
Y334082D02*
D03*
X100550Y241250D02*
D03*
Y231250D02*
D03*
X111350D02*
D03*
Y241250D02*
D03*
X89750D02*
D03*
Y231250D02*
D03*
D57*
X240950Y241250D02*
D03*
X250950D02*
D03*
D58*
X-80000Y-290000D02*
D03*
Y-310000D02*
D03*
Y-270000D02*
D03*
Y-160000D02*
D03*
Y-180000D02*
D03*
D59*
Y-330000D02*
D03*
Y-200000D02*
D03*
D60*
X618650Y-387300D02*
D03*
Y387300D02*
D03*
Y50000D02*
D03*
Y-50000D02*
D03*
X31350Y387300D02*
D03*
Y50000D02*
D03*
Y-50000D02*
D03*
Y-387300D02*
D03*
D61*
X591650Y-97300D02*
D03*
Y-187300D02*
D03*
Y250000D02*
D03*
Y340000D02*
D03*
Y-115000D02*
D03*
Y-205000D02*
D03*
Y322300D02*
D03*
Y232300D02*
D03*
Y187300D02*
D03*
Y97300D02*
D03*
Y-322300D02*
D03*
Y-232300D02*
D03*
Y115000D02*
D03*
Y205000D02*
D03*
Y-250000D02*
D03*
Y-340000D02*
D03*
D62*
X788650Y362000D02*
D03*
Y-374600D02*
D03*
X-68650Y400100D02*
D03*
Y-400000D02*
D03*
D63*
X715910Y313440D02*
D03*
X741310D02*
D03*
X715910Y288040D02*
D03*
X741310D02*
D03*
X715910Y262640D02*
D03*
X741310D02*
D03*
X715910Y237240D02*
D03*
X741310D02*
D03*
X715910Y211840D02*
D03*
X741310D02*
D03*
X715910Y186440D02*
D03*
X741310D02*
D03*
X715910Y161040D02*
D03*
X741310D02*
D03*
X715910Y135640D02*
D03*
X741310D02*
D03*
X715910Y110240D02*
D03*
X741310D02*
D03*
X715910Y84840D02*
D03*
X741310D02*
D03*
X715910Y59440D02*
D03*
X741310D02*
D03*
X715910Y34040D02*
D03*
X741310D02*
D03*
X715910Y8640D02*
D03*
X741310D02*
D03*
X715910Y-16760D02*
D03*
X741310D02*
D03*
X715910Y-42160D02*
D03*
X741310D02*
D03*
X715910Y-67560D02*
D03*
X741310D02*
D03*
X715910Y-92960D02*
D03*
X741310D02*
D03*
X715910Y-118360D02*
D03*
X741310D02*
D03*
X715910Y-143760D02*
D03*
X741310D02*
D03*
X715910Y-169160D02*
D03*
X741310D02*
D03*
X715910Y-194560D02*
D03*
X741310D02*
D03*
X715910Y-219960D02*
D03*
X741310D02*
D03*
X715910Y-245360D02*
D03*
X741310D02*
D03*
X715910Y-270760D02*
D03*
X741310D02*
D03*
X715910Y-296160D02*
D03*
X741310D02*
D03*
X715910Y-321560D02*
D03*
X741310D02*
D03*
X792110D02*
D03*
X766710D02*
D03*
X792110Y-296160D02*
D03*
X766710D02*
D03*
X792110Y-270760D02*
D03*
X766710D02*
D03*
X792110Y-245360D02*
D03*
X766710D02*
D03*
X792110Y-219960D02*
D03*
X766710D02*
D03*
X792110Y-194560D02*
D03*
X766710D02*
D03*
X792110Y-169160D02*
D03*
X766710D02*
D03*
X792110Y-143760D02*
D03*
X766710D02*
D03*
X792110Y-118360D02*
D03*
X766710D02*
D03*
X792110Y-92960D02*
D03*
X766710D02*
D03*
X792110Y-67560D02*
D03*
X766710D02*
D03*
X792110Y-42160D02*
D03*
X766710D02*
D03*
X792110Y-16760D02*
D03*
X766710D02*
D03*
X792110Y8640D02*
D03*
X766710D02*
D03*
X792110Y34040D02*
D03*
X766710D02*
D03*
X792110Y59440D02*
D03*
X766710D02*
D03*
X792110Y84840D02*
D03*
X766710D02*
D03*
X792110Y110240D02*
D03*
X766710D02*
D03*
X792110Y135640D02*
D03*
X766710D02*
D03*
X792110Y161040D02*
D03*
X766710D02*
D03*
X792110Y186440D02*
D03*
X766710D02*
D03*
X792110Y211840D02*
D03*
X766710D02*
D03*
X792110Y237240D02*
D03*
X766710D02*
D03*
X792110Y262640D02*
D03*
X766710D02*
D03*
X792110Y288040D02*
D03*
X766710D02*
D03*
X792110Y313440D02*
D03*
X766710D02*
D03*
D64*
X570000Y56650D02*
D03*
X80000D02*
D03*
X570000Y-56650D02*
D03*
X80000D02*
D03*
D65*
X-27500Y135000D02*
D03*
Y325000D02*
D03*
D66*
X630000Y-185000D02*
D03*
Y-175000D02*
D03*
Y-195000D02*
D03*
Y-205000D02*
D03*
X555000D02*
D03*
Y-195000D02*
D03*
Y-185000D02*
D03*
Y-175000D02*
D03*
Y-165000D02*
D03*
Y-155000D02*
D03*
Y-145000D02*
D03*
Y-135000D02*
D03*
Y-125000D02*
D03*
Y-115000D02*
D03*
X630000D02*
D03*
Y-125000D02*
D03*
Y-135000D02*
D03*
Y-145000D02*
D03*
Y-155000D02*
D03*
Y-165000D02*
D03*
X633550Y97300D02*
D03*
Y107300D02*
D03*
Y117300D02*
D03*
Y127300D02*
D03*
Y137300D02*
D03*
Y147300D02*
D03*
Y157300D02*
D03*
Y167300D02*
D03*
Y177300D02*
D03*
Y187300D02*
D03*
X549750D02*
D03*
Y177300D02*
D03*
Y167300D02*
D03*
Y157300D02*
D03*
Y147300D02*
D03*
Y137300D02*
D03*
Y127300D02*
D03*
Y117300D02*
D03*
Y107300D02*
D03*
Y97300D02*
D03*
X633550Y322300D02*
D03*
Y312300D02*
D03*
Y302300D02*
D03*
Y292300D02*
D03*
Y282300D02*
D03*
Y272300D02*
D03*
Y262300D02*
D03*
Y252300D02*
D03*
Y242300D02*
D03*
Y232300D02*
D03*
X549750D02*
D03*
Y242300D02*
D03*
Y252300D02*
D03*
Y262300D02*
D03*
Y272300D02*
D03*
Y282300D02*
D03*
X550000Y292500D02*
D03*
Y302500D02*
D03*
Y312500D02*
D03*
X549750Y322300D02*
D03*
Y-250000D02*
D03*
Y-260000D02*
D03*
Y-270000D02*
D03*
Y-280000D02*
D03*
Y-290000D02*
D03*
Y-300000D02*
D03*
Y-310000D02*
D03*
Y-320000D02*
D03*
Y-330000D02*
D03*
Y-340000D02*
D03*
X633550D02*
D03*
Y-330000D02*
D03*
Y-320000D02*
D03*
Y-310000D02*
D03*
Y-300000D02*
D03*
Y-290000D02*
D03*
Y-280000D02*
D03*
Y-270000D02*
D03*
Y-260000D02*
D03*
Y-250000D02*
D03*
M02*
