G04 Layer_Physical_Order=8*
G04 Layer_Color=8388736*
%FSLAX44Y44*%
%MOMM*%
G71*
G01*
G75*
%ADD27C,1.3000*%
%ADD28R,1.3000X1.3000*%
%ADD29C,6.5000*%
%ADD30C,1.1900*%
%ADD31C,6.0000*%
%ADD32C,1.5000*%
%ADD33C,3.0000*%
%ADD34C,4.0000*%
%ADD37C,2.8000*%
D27*
X-80000Y-290000D02*
D03*
Y-310000D02*
D03*
Y-270000D02*
D03*
Y-160000D02*
D03*
Y-180000D02*
D03*
D28*
Y-330000D02*
D03*
Y-200000D02*
D03*
D29*
X618650Y-387300D02*
D03*
Y387300D02*
D03*
Y50000D02*
D03*
Y-50000D02*
D03*
X31350Y387300D02*
D03*
Y50000D02*
D03*
Y-50000D02*
D03*
Y-387300D02*
D03*
D30*
X591650Y-97300D02*
D03*
Y-187300D02*
D03*
Y250000D02*
D03*
Y340000D02*
D03*
Y-115000D02*
D03*
Y-205000D02*
D03*
Y322300D02*
D03*
Y232300D02*
D03*
Y187300D02*
D03*
Y97300D02*
D03*
Y-322300D02*
D03*
Y-232300D02*
D03*
Y115000D02*
D03*
Y205000D02*
D03*
Y-250000D02*
D03*
Y-340000D02*
D03*
D31*
X788650Y362000D02*
D03*
Y-374600D02*
D03*
X-68650Y400100D02*
D03*
Y-400000D02*
D03*
D32*
X715910Y313440D02*
D03*
X741310D02*
D03*
X715910Y288040D02*
D03*
X741310D02*
D03*
X715910Y262640D02*
D03*
X741310D02*
D03*
X715910Y237240D02*
D03*
X741310D02*
D03*
X715910Y211840D02*
D03*
X741310D02*
D03*
X715910Y186440D02*
D03*
X741310D02*
D03*
X715910Y161040D02*
D03*
X741310D02*
D03*
X715910Y135640D02*
D03*
X741310D02*
D03*
X715910Y110240D02*
D03*
X741310D02*
D03*
X715910Y84840D02*
D03*
X741310D02*
D03*
X715910Y59440D02*
D03*
X741310D02*
D03*
X715910Y34040D02*
D03*
X741310D02*
D03*
X715910Y8640D02*
D03*
X741310D02*
D03*
X715910Y-16760D02*
D03*
X741310D02*
D03*
X715910Y-42160D02*
D03*
X741310D02*
D03*
X715910Y-67560D02*
D03*
X741310D02*
D03*
X715910Y-92960D02*
D03*
X741310D02*
D03*
X715910Y-118360D02*
D03*
X741310D02*
D03*
X715910Y-143760D02*
D03*
X741310D02*
D03*
X715910Y-169160D02*
D03*
X741310D02*
D03*
X715910Y-194560D02*
D03*
X741310D02*
D03*
X715910Y-219960D02*
D03*
X741310D02*
D03*
X715910Y-245360D02*
D03*
X741310D02*
D03*
X715910Y-270760D02*
D03*
X741310D02*
D03*
X715910Y-296160D02*
D03*
X741310D02*
D03*
X715910Y-321560D02*
D03*
X741310D02*
D03*
X792110D02*
D03*
X766710D02*
D03*
X792110Y-296160D02*
D03*
X766710D02*
D03*
X792110Y-270760D02*
D03*
X766710D02*
D03*
X792110Y-245360D02*
D03*
X766710D02*
D03*
X792110Y-219960D02*
D03*
X766710D02*
D03*
X792110Y-194560D02*
D03*
X766710D02*
D03*
X792110Y-169160D02*
D03*
X766710D02*
D03*
X792110Y-143760D02*
D03*
X766710D02*
D03*
X792110Y-118360D02*
D03*
X766710D02*
D03*
X792110Y-92960D02*
D03*
X766710D02*
D03*
X792110Y-67560D02*
D03*
X766710D02*
D03*
X792110Y-42160D02*
D03*
X766710D02*
D03*
X792110Y-16760D02*
D03*
X766710D02*
D03*
X792110Y8640D02*
D03*
X766710D02*
D03*
X792110Y34040D02*
D03*
X766710D02*
D03*
X792110Y59440D02*
D03*
X766710D02*
D03*
X792110Y84840D02*
D03*
X766710D02*
D03*
X792110Y110240D02*
D03*
X766710D02*
D03*
X792110Y135640D02*
D03*
X766710D02*
D03*
X792110Y161040D02*
D03*
X766710D02*
D03*
X792110Y186440D02*
D03*
X766710D02*
D03*
X792110Y211840D02*
D03*
X766710D02*
D03*
X792110Y237240D02*
D03*
X766710D02*
D03*
X792110Y262640D02*
D03*
X766710D02*
D03*
X792110Y288040D02*
D03*
X766710D02*
D03*
X792110Y313440D02*
D03*
X766710D02*
D03*
D33*
X80000Y56650D02*
D03*
Y-56650D02*
D03*
D34*
X-27500Y135000D02*
D03*
Y325000D02*
D03*
D37*
X570000Y56650D02*
D03*
Y-56650D02*
D03*
M02*
