G04 Layer_Color=16711935*
%FSLAX25Y25*%
%MOIN*%
G70*
G01*
G75*
%ADD205R,0.04934X0.03162*%
%ADD206R,0.07887X0.05721*%
%ADD207R,0.05761X0.05918*%
%ADD208R,0.02769X0.04737*%
%ADD210R,0.09698X0.03202*%
G04:AMPARAMS|DCode=222|XSize=19.81mil|YSize=39.5mil|CornerRadius=6.95mil|HoleSize=0mil|Usage=FLASHONLY|Rotation=270.000|XOffset=0mil|YOffset=0mil|HoleType=Round|Shape=RoundedRectangle|*
%AMROUNDEDRECTD222*
21,1,0.01981,0.02559,0,0,270.0*
21,1,0.00591,0.03950,0,0,270.0*
1,1,0.01391,-0.01280,-0.00295*
1,1,0.01391,-0.01280,0.00295*
1,1,0.01391,0.01280,0.00295*
1,1,0.01391,0.01280,-0.00295*
%
%ADD222ROUNDEDRECTD222*%
%ADD229R,0.03950X0.04343*%
G04:AMPARAMS|DCode=231|XSize=35.56mil|YSize=43.43mil|CornerRadius=5.38mil|HoleSize=0mil|Usage=FLASHONLY|Rotation=0.000|XOffset=0mil|YOffset=0mil|HoleType=Round|Shape=RoundedRectangle|*
%AMROUNDEDRECTD231*
21,1,0.03556,0.03268,0,0,0.0*
21,1,0.02480,0.04343,0,0,0.0*
1,1,0.01076,0.01240,-0.01634*
1,1,0.01076,-0.01240,-0.01634*
1,1,0.01076,-0.01240,0.01634*
1,1,0.01076,0.01240,0.01634*
%
%ADD231ROUNDEDRECTD231*%
%ADD232R,0.03950X0.03556*%
%ADD233R,0.03162X0.03162*%
%ADD234R,0.03950X0.03162*%
%ADD235R,0.04658X0.04658*%
%ADD236R,0.04737X0.05918*%
%ADD237R,0.03162X0.03162*%
%ADD238R,0.05918X0.04737*%
%ADD239R,0.04658X0.04658*%
G04:AMPARAMS|DCode=240|XSize=24.14mil|YSize=51.31mil|CornerRadius=8.04mil|HoleSize=0mil|Usage=FLASHONLY|Rotation=90.000|XOffset=0mil|YOffset=0mil|HoleType=Round|Shape=RoundedRectangle|*
%AMROUNDEDRECTD240*
21,1,0.02414,0.03524,0,0,90.0*
21,1,0.00807,0.05131,0,0,90.0*
1,1,0.01607,0.01762,0.00404*
1,1,0.01607,0.01762,-0.00404*
1,1,0.01607,-0.01762,-0.00404*
1,1,0.01607,-0.01762,0.00404*
%
%ADD240ROUNDEDRECTD240*%
%ADD241R,0.04737X0.05131*%
%ADD242C,0.05485*%
%ADD243C,0.06706*%
%ADD244C,0.24422*%
%ADD245C,0.26391*%
%ADD246C,0.12611*%
%ADD247C,0.01981*%
%ADD248R,0.19698X0.19501*%
%ADD249R,0.06312X0.05800*%
%ADD250R,0.03950X0.02375*%
G04:AMPARAMS|DCode=251|XSize=35.56mil|YSize=43.43mil|CornerRadius=5.38mil|HoleSize=0mil|Usage=FLASHONLY|Rotation=90.000|XOffset=0mil|YOffset=0mil|HoleType=Round|Shape=RoundedRectangle|*
%AMROUNDEDRECTD251*
21,1,0.03556,0.03268,0,0,90.0*
21,1,0.02480,0.04343,0,0,90.0*
1,1,0.01076,0.01634,0.01240*
1,1,0.01076,0.01634,-0.01240*
1,1,0.01076,-0.01634,-0.01240*
1,1,0.01076,-0.01634,0.01240*
%
%ADD251ROUNDEDRECTD251*%
%ADD252R,0.02769X0.03950*%
%ADD253R,0.03280X0.04068*%
%ADD254R,0.09461X0.03556*%
%ADD255R,0.06312X0.04540*%
G04:AMPARAMS|DCode=256|XSize=24.14mil|YSize=51.31mil|CornerRadius=8.04mil|HoleSize=0mil|Usage=FLASHONLY|Rotation=180.000|XOffset=0mil|YOffset=0mil|HoleType=Round|Shape=RoundedRectangle|*
%AMROUNDEDRECTD256*
21,1,0.02414,0.03524,0,0,180.0*
21,1,0.00807,0.05131,0,0,180.0*
1,1,0.01607,-0.00404,0.01762*
1,1,0.01607,0.00404,0.01762*
1,1,0.01607,0.00404,-0.01762*
1,1,0.01607,-0.00404,-0.01762*
%
%ADD256ROUNDEDRECTD256*%
G04:AMPARAMS|DCode=257|XSize=19.81mil|YSize=51.31mil|CornerRadius=6.95mil|HoleSize=0mil|Usage=FLASHONLY|Rotation=90.000|XOffset=0mil|YOffset=0mil|HoleType=Round|Shape=RoundedRectangle|*
%AMROUNDEDRECTD257*
21,1,0.01981,0.03740,0,0,90.0*
21,1,0.00591,0.05131,0,0,90.0*
1,1,0.01391,0.01870,0.00295*
1,1,0.01391,0.01870,-0.00295*
1,1,0.01391,-0.01870,-0.00295*
1,1,0.01391,-0.01870,0.00295*
%
%ADD257ROUNDEDRECTD257*%
%ADD258R,0.02454X0.04300*%
%ADD259R,0.05524X0.03359*%
%ADD260R,0.07690X0.13989*%
%ADD261R,0.03950X0.03162*%
%ADD262R,0.04934X0.06312*%
%ADD263R,0.04737X0.04343*%
%ADD264R,0.03162X0.03950*%
%ADD265R,0.08674X0.04737*%
%ADD266R,0.05131X0.11036*%
%ADD267R,0.03162X0.02769*%
%ADD268R,0.06312X0.04934*%
%ADD269R,0.03556X0.03950*%
%ADD270R,0.04343X0.04737*%
%ADD271R,0.02769X0.03162*%
%ADD272R,0.04068X0.03280*%
%ADD273R,0.05524X0.03162*%
%ADD274R,0.03359X0.05524*%
%ADD275R,0.05131X0.04737*%
%ADD276R,0.03556X0.09461*%
%ADD277R,0.04300X0.02454*%
G36*
X120919Y131106D02*
X120970Y131096D01*
X121019Y131079D01*
X121067Y131056D01*
X121110Y131027D01*
X121150Y130992D01*
X121184Y130953D01*
X121213Y130909D01*
X121237Y130862D01*
X121253Y130813D01*
X121264Y130761D01*
X121267Y130709D01*
Y112992D01*
Y111024D01*
X121264Y110971D01*
X121253Y110920D01*
X121237Y110870D01*
X121213Y110823D01*
X121184Y110780D01*
X121150Y110740D01*
X121110Y110706D01*
X121067Y110677D01*
X121019Y110653D01*
X120970Y110636D01*
X120919Y110626D01*
X120866Y110623D01*
X118110D01*
X118058Y110626D01*
X118007Y110636D01*
X117957Y110653D01*
X117910Y110677D01*
X117866Y110706D01*
X117827Y110740D01*
X117792Y110780D01*
X117763Y110823D01*
X117740Y110870D01*
X117723Y110920D01*
X117713Y110971D01*
X117709Y111024D01*
Y112591D01*
X116011D01*
Y111024D01*
X116008Y110971D01*
X115997Y110920D01*
X115981Y110870D01*
X115957Y110823D01*
X115928Y110780D01*
X115894Y110740D01*
X115854Y110706D01*
X115811Y110677D01*
X115764Y110653D01*
X115714Y110636D01*
X115663Y110626D01*
X115610Y110623D01*
X112854D01*
X112802Y110626D01*
X112751Y110636D01*
X112701Y110653D01*
X112654Y110677D01*
X112610Y110706D01*
X112571Y110740D01*
X112536Y110780D01*
X112507Y110823D01*
X112484Y110870D01*
X112467Y110920D01*
X112457Y110971D01*
X112453Y111024D01*
Y112591D01*
X110775D01*
Y111024D01*
X110771Y110971D01*
X110761Y110920D01*
X110744Y110870D01*
X110721Y110823D01*
X110692Y110780D01*
X110657Y110740D01*
X110618Y110706D01*
X110574Y110677D01*
X110527Y110653D01*
X110478Y110636D01*
X110426Y110626D01*
X110374Y110623D01*
X107618D01*
X107566Y110626D01*
X107514Y110636D01*
X107465Y110653D01*
X107418Y110677D01*
X107374Y110706D01*
X107335Y110740D01*
X107300Y110780D01*
X107271Y110823D01*
X107248Y110870D01*
X107231Y110920D01*
X107221Y110971D01*
X107217Y111024D01*
Y112591D01*
X105519D01*
Y111024D01*
X105516Y110971D01*
X105505Y110920D01*
X105488Y110870D01*
X105465Y110823D01*
X105436Y110780D01*
X105402Y110740D01*
X105362Y110706D01*
X105318Y110677D01*
X105271Y110653D01*
X105222Y110636D01*
X105170Y110626D01*
X105118Y110623D01*
X102362D01*
X102310Y110626D01*
X102258Y110636D01*
X102209Y110653D01*
X102162Y110677D01*
X102118Y110706D01*
X102079Y110740D01*
X102044Y110780D01*
X102015Y110823D01*
X101992Y110870D01*
X101975Y110920D01*
X101965Y110971D01*
X101961Y111024D01*
Y112992D01*
Y130709D01*
X101965Y130761D01*
X101975Y130813D01*
X101992Y130862D01*
X102015Y130909D01*
X102044Y130953D01*
X102079Y130992D01*
X102118Y131027D01*
X102162Y131056D01*
X102209Y131079D01*
X102258Y131096D01*
X102310Y131106D01*
X102362Y131110D01*
X120866D01*
X120919Y131106D01*
D02*
G37*
G36*
X120820Y96264D02*
X120871Y96253D01*
X120921Y96237D01*
X120968Y96213D01*
X121012Y96184D01*
X121051Y96150D01*
X121086Y96110D01*
X121115Y96067D01*
X121138Y96020D01*
X121155Y95970D01*
X121165Y95919D01*
X121169Y95866D01*
Y78150D01*
Y76181D01*
X121165Y76129D01*
X121155Y76077D01*
X121138Y76028D01*
X121115Y75981D01*
X121086Y75937D01*
X121051Y75898D01*
X121012Y75863D01*
X120968Y75834D01*
X120921Y75811D01*
X120871Y75794D01*
X120820Y75784D01*
X120768Y75780D01*
X118012D01*
X117959Y75784D01*
X117908Y75794D01*
X117858Y75811D01*
X117811Y75834D01*
X117768Y75863D01*
X117728Y75898D01*
X117694Y75937D01*
X117665Y75981D01*
X117641Y76028D01*
X117625Y76077D01*
X117614Y76129D01*
X117611Y76181D01*
Y77749D01*
X115913D01*
Y76181D01*
X115909Y76129D01*
X115899Y76077D01*
X115882Y76028D01*
X115859Y75981D01*
X115830Y75937D01*
X115795Y75898D01*
X115756Y75863D01*
X115712Y75834D01*
X115665Y75811D01*
X115615Y75794D01*
X115564Y75784D01*
X115512Y75780D01*
X112756D01*
X112704Y75784D01*
X112652Y75794D01*
X112602Y75811D01*
X112556Y75834D01*
X112512Y75863D01*
X112472Y75898D01*
X112438Y75937D01*
X112409Y75981D01*
X112385Y76028D01*
X112369Y76077D01*
X112358Y76129D01*
X112355Y76181D01*
Y77749D01*
X110676D01*
Y76181D01*
X110673Y76129D01*
X110663Y76077D01*
X110646Y76028D01*
X110623Y75981D01*
X110594Y75937D01*
X110559Y75898D01*
X110520Y75863D01*
X110476Y75834D01*
X110429Y75811D01*
X110379Y75794D01*
X110328Y75784D01*
X110276Y75780D01*
X107520D01*
X107467Y75784D01*
X107416Y75794D01*
X107366Y75811D01*
X107319Y75834D01*
X107276Y75863D01*
X107236Y75898D01*
X107202Y75937D01*
X107173Y75981D01*
X107149Y76028D01*
X107132Y76077D01*
X107122Y76129D01*
X107119Y76181D01*
Y77749D01*
X105420D01*
Y76181D01*
X105417Y76129D01*
X105407Y76077D01*
X105390Y76028D01*
X105367Y75981D01*
X105338Y75937D01*
X105303Y75898D01*
X105264Y75863D01*
X105220Y75834D01*
X105173Y75811D01*
X105123Y75794D01*
X105072Y75784D01*
X105020Y75780D01*
X102264D01*
X102211Y75784D01*
X102160Y75794D01*
X102110Y75811D01*
X102063Y75834D01*
X102020Y75863D01*
X101980Y75898D01*
X101946Y75937D01*
X101917Y75981D01*
X101893Y76028D01*
X101877Y76077D01*
X101866Y76129D01*
X101863Y76181D01*
Y78150D01*
Y95866D01*
X101866Y95919D01*
X101877Y95970D01*
X101893Y96020D01*
X101917Y96067D01*
X101946Y96110D01*
X101980Y96150D01*
X102020Y96184D01*
X102063Y96213D01*
X102110Y96237D01*
X102160Y96253D01*
X102211Y96264D01*
X102264Y96267D01*
X120768D01*
X120820Y96264D01*
D02*
G37*
G36*
X191391Y73626D02*
X191442Y73615D01*
X191492Y73599D01*
X191539Y73576D01*
X191583Y73546D01*
X191622Y73512D01*
X191657Y73472D01*
X191686Y73429D01*
X191709Y73382D01*
X191726Y73332D01*
X191736Y73281D01*
X191739Y73228D01*
Y70472D01*
X191736Y70420D01*
X191726Y70369D01*
X191709Y70319D01*
X191686Y70272D01*
X191657Y70228D01*
X191622Y70189D01*
X191583Y70154D01*
X191539Y70125D01*
X191492Y70102D01*
X191442Y70085D01*
X191391Y70075D01*
X191339Y70072D01*
X189771D01*
Y68373D01*
X191339D01*
X191391Y68370D01*
X191442Y68360D01*
X191492Y68343D01*
X191539Y68320D01*
X191583Y68290D01*
X191622Y68256D01*
X191657Y68216D01*
X191686Y68173D01*
X191709Y68126D01*
X191726Y68076D01*
X191736Y68025D01*
X191739Y67972D01*
Y65216D01*
X191736Y65164D01*
X191726Y65113D01*
X191709Y65063D01*
X191686Y65016D01*
X191657Y64973D01*
X191622Y64933D01*
X191583Y64899D01*
X191539Y64869D01*
X191492Y64846D01*
X191442Y64829D01*
X191391Y64819D01*
X191339Y64816D01*
X189771D01*
Y63137D01*
X191339D01*
X191391Y63134D01*
X191442Y63123D01*
X191492Y63107D01*
X191539Y63083D01*
X191583Y63054D01*
X191622Y63020D01*
X191657Y62980D01*
X191686Y62937D01*
X191709Y62890D01*
X191726Y62840D01*
X191736Y62788D01*
X191739Y62736D01*
Y59980D01*
X191736Y59928D01*
X191726Y59877D01*
X191709Y59827D01*
X191686Y59780D01*
X191657Y59736D01*
X191622Y59697D01*
X191583Y59662D01*
X191539Y59633D01*
X191492Y59610D01*
X191442Y59593D01*
X191391Y59583D01*
X191339Y59579D01*
X189771D01*
Y57881D01*
X191339D01*
X191391Y57878D01*
X191442Y57867D01*
X191492Y57851D01*
X191539Y57827D01*
X191583Y57798D01*
X191622Y57764D01*
X191657Y57724D01*
X191686Y57681D01*
X191709Y57634D01*
X191726Y57584D01*
X191736Y57533D01*
X191739Y57480D01*
Y54724D01*
X191736Y54672D01*
X191726Y54621D01*
X191709Y54571D01*
X191686Y54524D01*
X191657Y54480D01*
X191622Y54441D01*
X191583Y54406D01*
X191539Y54377D01*
X191492Y54354D01*
X191442Y54337D01*
X191391Y54327D01*
X191339Y54324D01*
X171653D01*
X171601Y54327D01*
X171550Y54337D01*
X171500Y54354D01*
X171453Y54377D01*
X171409Y54406D01*
X171370Y54441D01*
X171335Y54480D01*
X171306Y54524D01*
X171283Y54571D01*
X171266Y54621D01*
X171256Y54672D01*
X171253Y54724D01*
Y73228D01*
X171256Y73281D01*
X171266Y73332D01*
X171283Y73382D01*
X171306Y73429D01*
X171335Y73472D01*
X171370Y73512D01*
X171409Y73546D01*
X171453Y73576D01*
X171500Y73599D01*
X171550Y73615D01*
X171601Y73626D01*
X171653Y73629D01*
X191339D01*
X191391Y73626D01*
D02*
G37*
G36*
X121017Y61224D02*
X121068Y61214D01*
X121118Y61197D01*
X121165Y61174D01*
X121209Y61145D01*
X121248Y61110D01*
X121283Y61071D01*
X121312Y61027D01*
X121335Y60980D01*
X121352Y60931D01*
X121362Y60879D01*
X121365Y60827D01*
Y43110D01*
Y41142D01*
X121362Y41089D01*
X121352Y41038D01*
X121335Y40988D01*
X121312Y40941D01*
X121283Y40898D01*
X121248Y40858D01*
X121209Y40824D01*
X121165Y40795D01*
X121118Y40771D01*
X121068Y40755D01*
X121017Y40744D01*
X120965Y40741D01*
X118209D01*
X118156Y40744D01*
X118105Y40755D01*
X118055Y40771D01*
X118008Y40795D01*
X117965Y40824D01*
X117925Y40858D01*
X117891Y40898D01*
X117861Y40941D01*
X117838Y40988D01*
X117821Y41038D01*
X117811Y41089D01*
X117808Y41142D01*
Y42709D01*
X116110D01*
Y41142D01*
X116106Y41089D01*
X116096Y41038D01*
X116079Y40988D01*
X116056Y40941D01*
X116027Y40898D01*
X115992Y40858D01*
X115953Y40824D01*
X115909Y40795D01*
X115862Y40771D01*
X115812Y40755D01*
X115761Y40744D01*
X115709Y40741D01*
X112953D01*
X112900Y40744D01*
X112849Y40755D01*
X112799Y40771D01*
X112752Y40795D01*
X112709Y40824D01*
X112669Y40858D01*
X112635Y40898D01*
X112606Y40941D01*
X112582Y40988D01*
X112566Y41038D01*
X112555Y41089D01*
X112552Y41142D01*
Y42709D01*
X110873D01*
Y41142D01*
X110870Y41089D01*
X110860Y41038D01*
X110843Y40988D01*
X110820Y40941D01*
X110790Y40898D01*
X110756Y40858D01*
X110716Y40824D01*
X110673Y40795D01*
X110626Y40771D01*
X110576Y40755D01*
X110525Y40744D01*
X110472Y40741D01*
X107717D01*
X107664Y40744D01*
X107613Y40755D01*
X107563Y40771D01*
X107516Y40795D01*
X107473Y40824D01*
X107433Y40858D01*
X107398Y40898D01*
X107369Y40941D01*
X107346Y40988D01*
X107329Y41038D01*
X107319Y41089D01*
X107316Y41142D01*
Y42709D01*
X105617D01*
Y41142D01*
X105614Y41089D01*
X105604Y41038D01*
X105587Y40988D01*
X105564Y40941D01*
X105535Y40898D01*
X105500Y40858D01*
X105461Y40824D01*
X105417Y40795D01*
X105370Y40771D01*
X105320Y40755D01*
X105269Y40744D01*
X105217Y40741D01*
X102461D01*
X102408Y40744D01*
X102357Y40755D01*
X102307Y40771D01*
X102260Y40795D01*
X102217Y40824D01*
X102177Y40858D01*
X102143Y40898D01*
X102113Y40941D01*
X102090Y40988D01*
X102073Y41038D01*
X102063Y41089D01*
X102060Y41142D01*
Y43110D01*
Y60827D01*
X102063Y60879D01*
X102073Y60931D01*
X102090Y60980D01*
X102113Y61027D01*
X102143Y61071D01*
X102177Y61110D01*
X102217Y61145D01*
X102260Y61174D01*
X102307Y61197D01*
X102357Y61214D01*
X102408Y61224D01*
X102461Y61228D01*
X120965D01*
X121017Y61224D01*
D02*
G37*
G36*
X120820Y26480D02*
X120871Y26470D01*
X120921Y26453D01*
X120968Y26430D01*
X121012Y26401D01*
X121051Y26366D01*
X121086Y26327D01*
X121115Y26283D01*
X121138Y26236D01*
X121155Y26186D01*
X121165Y26135D01*
X121169Y26083D01*
Y8366D01*
Y6398D01*
X121165Y6345D01*
X121155Y6294D01*
X121138Y6244D01*
X121115Y6197D01*
X121086Y6154D01*
X121051Y6114D01*
X121012Y6080D01*
X120968Y6051D01*
X120921Y6027D01*
X120871Y6010D01*
X120820Y6000D01*
X120768Y5997D01*
X118012D01*
X117959Y6000D01*
X117908Y6010D01*
X117858Y6027D01*
X117811Y6051D01*
X117768Y6080D01*
X117728Y6114D01*
X117694Y6154D01*
X117665Y6197D01*
X117641Y6244D01*
X117625Y6294D01*
X117614Y6345D01*
X117611Y6398D01*
Y7965D01*
X115913D01*
Y6398D01*
X115909Y6345D01*
X115899Y6294D01*
X115882Y6244D01*
X115859Y6197D01*
X115830Y6154D01*
X115795Y6114D01*
X115756Y6080D01*
X115712Y6051D01*
X115665Y6027D01*
X115615Y6010D01*
X115564Y6000D01*
X115512Y5997D01*
X112756D01*
X112704Y6000D01*
X112652Y6010D01*
X112602Y6027D01*
X112556Y6051D01*
X112512Y6080D01*
X112472Y6114D01*
X112438Y6154D01*
X112409Y6197D01*
X112385Y6244D01*
X112369Y6294D01*
X112358Y6345D01*
X112355Y6398D01*
Y7965D01*
X110676D01*
Y6398D01*
X110673Y6345D01*
X110663Y6294D01*
X110646Y6244D01*
X110623Y6197D01*
X110594Y6154D01*
X110559Y6114D01*
X110520Y6080D01*
X110476Y6051D01*
X110429Y6027D01*
X110379Y6010D01*
X110328Y6000D01*
X110276Y5997D01*
X107520D01*
X107467Y6000D01*
X107416Y6010D01*
X107366Y6027D01*
X107319Y6051D01*
X107276Y6080D01*
X107236Y6114D01*
X107202Y6154D01*
X107173Y6197D01*
X107149Y6244D01*
X107132Y6294D01*
X107122Y6345D01*
X107119Y6398D01*
Y7965D01*
X105420D01*
Y6398D01*
X105417Y6345D01*
X105407Y6294D01*
X105390Y6244D01*
X105367Y6197D01*
X105338Y6154D01*
X105303Y6114D01*
X105264Y6080D01*
X105220Y6051D01*
X105173Y6027D01*
X105123Y6010D01*
X105072Y6000D01*
X105020Y5997D01*
X102264D01*
X102211Y6000D01*
X102160Y6010D01*
X102110Y6027D01*
X102063Y6051D01*
X102020Y6080D01*
X101980Y6114D01*
X101946Y6154D01*
X101917Y6197D01*
X101893Y6244D01*
X101877Y6294D01*
X101866Y6345D01*
X101863Y6398D01*
Y8366D01*
Y26083D01*
X101866Y26135D01*
X101877Y26186D01*
X101893Y26236D01*
X101917Y26283D01*
X101946Y26327D01*
X101980Y26366D01*
X102020Y26401D01*
X102063Y26430D01*
X102110Y26453D01*
X102160Y26470D01*
X102211Y26480D01*
X102264Y26484D01*
X120768D01*
X120820Y26480D01*
D02*
G37*
G36*
Y-8264D02*
X120871Y-8274D01*
X120921Y-8291D01*
X120968Y-8314D01*
X121012Y-8343D01*
X121051Y-8378D01*
X121086Y-8417D01*
X121115Y-8461D01*
X121138Y-8508D01*
X121155Y-8558D01*
X121165Y-8609D01*
X121169Y-8661D01*
Y-26378D01*
Y-28346D01*
X121165Y-28399D01*
X121155Y-28450D01*
X121138Y-28500D01*
X121115Y-28547D01*
X121086Y-28590D01*
X121051Y-28630D01*
X121012Y-28664D01*
X120968Y-28694D01*
X120921Y-28717D01*
X120871Y-28734D01*
X120820Y-28744D01*
X120768Y-28747D01*
X118012D01*
X117959Y-28744D01*
X117908Y-28734D01*
X117858Y-28717D01*
X117811Y-28694D01*
X117768Y-28664D01*
X117728Y-28630D01*
X117694Y-28590D01*
X117665Y-28547D01*
X117641Y-28500D01*
X117625Y-28450D01*
X117614Y-28399D01*
X117611Y-28346D01*
Y-26779D01*
X115913D01*
Y-28346D01*
X115909Y-28399D01*
X115899Y-28450D01*
X115882Y-28500D01*
X115859Y-28547D01*
X115830Y-28590D01*
X115795Y-28630D01*
X115756Y-28664D01*
X115712Y-28694D01*
X115665Y-28717D01*
X115615Y-28734D01*
X115564Y-28744D01*
X115512Y-28747D01*
X112756D01*
X112704Y-28744D01*
X112652Y-28734D01*
X112602Y-28717D01*
X112556Y-28694D01*
X112512Y-28664D01*
X112472Y-28630D01*
X112438Y-28590D01*
X112409Y-28547D01*
X112385Y-28500D01*
X112369Y-28450D01*
X112358Y-28399D01*
X112355Y-28346D01*
Y-26779D01*
X110676D01*
Y-28346D01*
X110673Y-28399D01*
X110663Y-28450D01*
X110646Y-28500D01*
X110623Y-28547D01*
X110594Y-28590D01*
X110559Y-28630D01*
X110520Y-28664D01*
X110476Y-28694D01*
X110429Y-28717D01*
X110379Y-28734D01*
X110328Y-28744D01*
X110276Y-28747D01*
X107520D01*
X107467Y-28744D01*
X107416Y-28734D01*
X107366Y-28717D01*
X107319Y-28694D01*
X107276Y-28664D01*
X107236Y-28630D01*
X107202Y-28590D01*
X107173Y-28547D01*
X107149Y-28500D01*
X107132Y-28450D01*
X107122Y-28399D01*
X107119Y-28346D01*
Y-26779D01*
X105420D01*
Y-28346D01*
X105417Y-28399D01*
X105407Y-28450D01*
X105390Y-28500D01*
X105367Y-28547D01*
X105338Y-28590D01*
X105303Y-28630D01*
X105264Y-28664D01*
X105220Y-28694D01*
X105173Y-28717D01*
X105123Y-28734D01*
X105072Y-28744D01*
X105020Y-28747D01*
X102264D01*
X102211Y-28744D01*
X102160Y-28734D01*
X102110Y-28717D01*
X102063Y-28694D01*
X102020Y-28664D01*
X101980Y-28630D01*
X101946Y-28590D01*
X101917Y-28547D01*
X101893Y-28500D01*
X101877Y-28450D01*
X101866Y-28399D01*
X101863Y-28346D01*
Y-26378D01*
Y-8661D01*
X101866Y-8609D01*
X101877Y-8558D01*
X101893Y-8508D01*
X101917Y-8461D01*
X101946Y-8417D01*
X101980Y-8378D01*
X102020Y-8343D01*
X102063Y-8314D01*
X102110Y-8291D01*
X102160Y-8274D01*
X102211Y-8264D01*
X102264Y-8260D01*
X120768D01*
X120820Y-8264D01*
D02*
G37*
G36*
X67670Y-68796D02*
X67722Y-68806D01*
X67772Y-68823D01*
X67818Y-68846D01*
X67862Y-68875D01*
X67901Y-68910D01*
X67936Y-68949D01*
X67965Y-68993D01*
X67988Y-69039D01*
X68005Y-69089D01*
X68015Y-69141D01*
X68019Y-69193D01*
Y-71949D01*
X68015Y-72001D01*
X68005Y-72053D01*
X67988Y-72102D01*
X67965Y-72149D01*
X67936Y-72193D01*
X67901Y-72232D01*
X67862Y-72267D01*
X67818Y-72296D01*
X67772Y-72319D01*
X67722Y-72336D01*
X67670Y-72346D01*
X67618Y-72350D01*
X66050D01*
Y-74048D01*
X67618D01*
X67670Y-74051D01*
X67722Y-74062D01*
X67772Y-74079D01*
X67818Y-74102D01*
X67862Y-74131D01*
X67901Y-74165D01*
X67936Y-74205D01*
X67965Y-74248D01*
X67988Y-74295D01*
X68005Y-74345D01*
X68015Y-74397D01*
X68019Y-74449D01*
Y-77205D01*
X68015Y-77257D01*
X68005Y-77308D01*
X67988Y-77358D01*
X67965Y-77405D01*
X67936Y-77449D01*
X67901Y-77488D01*
X67862Y-77523D01*
X67818Y-77552D01*
X67772Y-77575D01*
X67722Y-77592D01*
X67670Y-77602D01*
X67618Y-77606D01*
X66050D01*
Y-79284D01*
X67618D01*
X67670Y-79288D01*
X67722Y-79298D01*
X67772Y-79315D01*
X67818Y-79338D01*
X67862Y-79367D01*
X67901Y-79402D01*
X67936Y-79441D01*
X67965Y-79485D01*
X67988Y-79532D01*
X68005Y-79581D01*
X68015Y-79633D01*
X68019Y-79685D01*
Y-82441D01*
X68015Y-82493D01*
X68005Y-82545D01*
X67988Y-82594D01*
X67965Y-82641D01*
X67936Y-82685D01*
X67901Y-82724D01*
X67862Y-82759D01*
X67818Y-82788D01*
X67772Y-82811D01*
X67722Y-82828D01*
X67670Y-82838D01*
X67618Y-82842D01*
X66050D01*
Y-84540D01*
X67618D01*
X67670Y-84544D01*
X67722Y-84554D01*
X67772Y-84571D01*
X67818Y-84594D01*
X67862Y-84623D01*
X67901Y-84658D01*
X67936Y-84697D01*
X67965Y-84741D01*
X67988Y-84787D01*
X68005Y-84837D01*
X68015Y-84889D01*
X68019Y-84941D01*
Y-87697D01*
X68015Y-87749D01*
X68005Y-87801D01*
X67988Y-87850D01*
X67965Y-87897D01*
X67936Y-87941D01*
X67901Y-87980D01*
X67862Y-88015D01*
X67818Y-88044D01*
X67772Y-88067D01*
X67722Y-88084D01*
X67670Y-88094D01*
X67618Y-88098D01*
X47933D01*
X47881Y-88094D01*
X47829Y-88084D01*
X47780Y-88067D01*
X47733Y-88044D01*
X47689Y-88015D01*
X47650Y-87980D01*
X47615Y-87941D01*
X47586Y-87897D01*
X47563Y-87850D01*
X47546Y-87801D01*
X47536Y-87749D01*
X47532Y-87697D01*
Y-69193D01*
X47536Y-69141D01*
X47546Y-69089D01*
X47563Y-69039D01*
X47586Y-68993D01*
X47615Y-68949D01*
X47650Y-68910D01*
X47689Y-68875D01*
X47733Y-68846D01*
X47780Y-68823D01*
X47829Y-68806D01*
X47881Y-68796D01*
X47933Y-68792D01*
X67618D01*
X67670Y-68796D01*
D02*
G37*
G36*
X27415Y-68894D02*
X27466Y-68904D01*
X27516Y-68921D01*
X27563Y-68944D01*
X27606Y-68973D01*
X27646Y-69008D01*
X27680Y-69047D01*
X27709Y-69091D01*
X27733Y-69138D01*
X27749Y-69188D01*
X27760Y-69239D01*
X27763Y-69291D01*
Y-87795D01*
X27760Y-87848D01*
X27749Y-87899D01*
X27733Y-87949D01*
X27709Y-87996D01*
X27680Y-88039D01*
X27646Y-88079D01*
X27606Y-88113D01*
X27563Y-88142D01*
X27516Y-88166D01*
X27466Y-88182D01*
X27415Y-88193D01*
X27362Y-88196D01*
X7677D01*
X7625Y-88193D01*
X7573Y-88182D01*
X7524Y-88166D01*
X7477Y-88142D01*
X7433Y-88113D01*
X7394Y-88079D01*
X7359Y-88039D01*
X7330Y-87996D01*
X7307Y-87949D01*
X7290Y-87899D01*
X7280Y-87848D01*
X7276Y-87795D01*
Y-85039D01*
X7280Y-84987D01*
X7290Y-84936D01*
X7307Y-84886D01*
X7330Y-84839D01*
X7359Y-84795D01*
X7394Y-84756D01*
X7433Y-84721D01*
X7477Y-84692D01*
X7524Y-84669D01*
X7573Y-84652D01*
X7625Y-84642D01*
X7677Y-84639D01*
X9245D01*
Y-82940D01*
X7677D01*
X7625Y-82937D01*
X7573Y-82927D01*
X7524Y-82910D01*
X7477Y-82886D01*
X7433Y-82857D01*
X7394Y-82823D01*
X7359Y-82783D01*
X7330Y-82740D01*
X7307Y-82693D01*
X7290Y-82643D01*
X7280Y-82592D01*
X7276Y-82539D01*
Y-79783D01*
X7280Y-79731D01*
X7290Y-79680D01*
X7307Y-79630D01*
X7330Y-79583D01*
X7359Y-79539D01*
X7394Y-79500D01*
X7433Y-79465D01*
X7477Y-79436D01*
X7524Y-79413D01*
X7573Y-79396D01*
X7625Y-79386D01*
X7677Y-79383D01*
X9245D01*
Y-77704D01*
X7677D01*
X7625Y-77701D01*
X7573Y-77690D01*
X7524Y-77674D01*
X7477Y-77650D01*
X7433Y-77621D01*
X7394Y-77587D01*
X7359Y-77547D01*
X7330Y-77504D01*
X7307Y-77457D01*
X7290Y-77407D01*
X7280Y-77355D01*
X7276Y-77303D01*
Y-74547D01*
X7280Y-74495D01*
X7290Y-74444D01*
X7307Y-74394D01*
X7330Y-74347D01*
X7359Y-74303D01*
X7394Y-74264D01*
X7433Y-74229D01*
X7477Y-74200D01*
X7524Y-74177D01*
X7573Y-74160D01*
X7625Y-74150D01*
X7677Y-74146D01*
X9245D01*
Y-72448D01*
X7677D01*
X7625Y-72445D01*
X7573Y-72435D01*
X7524Y-72418D01*
X7477Y-72394D01*
X7433Y-72365D01*
X7394Y-72331D01*
X7359Y-72291D01*
X7330Y-72248D01*
X7307Y-72201D01*
X7290Y-72151D01*
X7280Y-72100D01*
X7276Y-72047D01*
Y-69291D01*
X7280Y-69239D01*
X7290Y-69188D01*
X7307Y-69138D01*
X7330Y-69091D01*
X7359Y-69047D01*
X7394Y-69008D01*
X7433Y-68973D01*
X7477Y-68944D01*
X7524Y-68921D01*
X7573Y-68904D01*
X7625Y-68894D01*
X7677Y-68891D01*
X27362D01*
X27415Y-68894D01*
D02*
G37*
D205*
X-3543Y127165D02*
D03*
Y121260D02*
D03*
Y115354D02*
D03*
Y109449D02*
D03*
Y103543D02*
D03*
Y97638D02*
D03*
Y91732D02*
D03*
Y-69488D02*
D03*
Y-75394D02*
D03*
Y-81299D02*
D03*
Y-87205D02*
D03*
Y58465D02*
D03*
Y52559D02*
D03*
Y46654D02*
D03*
Y40748D02*
D03*
Y34843D02*
D03*
Y28937D02*
D03*
Y-114075D02*
D03*
Y-119980D02*
D03*
Y-125886D02*
D03*
Y-131791D02*
D03*
D206*
X-24016Y137402D02*
D03*
Y81496D02*
D03*
Y-59252D02*
D03*
Y-97441D02*
D03*
Y68701D02*
D03*
Y18701D02*
D03*
Y-103839D02*
D03*
Y-142028D02*
D03*
D207*
X71063Y158425D02*
D03*
X38780D02*
D03*
X112598Y158622D02*
D03*
X80315D02*
D03*
D208*
X60827Y146653D02*
D03*
X49016D02*
D03*
X52953D02*
D03*
X56890D02*
D03*
X102362Y146850D02*
D03*
X90551D02*
D03*
X94488D02*
D03*
X98425D02*
D03*
D210*
X249429Y-73740D02*
D03*
Y-69803D02*
D03*
Y-65866D02*
D03*
Y-61929D02*
D03*
Y-57992D02*
D03*
Y-54055D02*
D03*
Y-50118D02*
D03*
Y-46181D02*
D03*
Y-42244D02*
D03*
Y-38307D02*
D03*
X216437D02*
D03*
Y-42244D02*
D03*
Y-46181D02*
D03*
Y-50118D02*
D03*
Y-54055D02*
D03*
Y-57992D02*
D03*
Y-61929D02*
D03*
Y-65866D02*
D03*
Y-69803D02*
D03*
Y-73740D02*
D03*
Y98425D02*
D03*
Y102362D02*
D03*
Y106299D02*
D03*
Y110236D02*
D03*
Y114173D02*
D03*
Y118110D02*
D03*
Y122047D02*
D03*
Y125984D02*
D03*
Y129921D02*
D03*
Y133858D02*
D03*
X249429D02*
D03*
Y129921D02*
D03*
Y125984D02*
D03*
Y122047D02*
D03*
Y118110D02*
D03*
Y114173D02*
D03*
Y110236D02*
D03*
Y106299D02*
D03*
Y102362D02*
D03*
Y98425D02*
D03*
X216437Y45276D02*
D03*
Y49213D02*
D03*
Y53150D02*
D03*
Y57087D02*
D03*
Y61024D02*
D03*
Y64961D02*
D03*
Y68898D02*
D03*
Y72835D02*
D03*
Y76772D02*
D03*
Y80709D02*
D03*
X249429D02*
D03*
Y76772D02*
D03*
Y72835D02*
D03*
Y68898D02*
D03*
Y64961D02*
D03*
Y61024D02*
D03*
Y57087D02*
D03*
Y53150D02*
D03*
Y49213D02*
D03*
Y45276D02*
D03*
X216437Y-126890D02*
D03*
Y-122953D02*
D03*
Y-119016D02*
D03*
Y-115079D02*
D03*
Y-111142D02*
D03*
Y-107205D02*
D03*
Y-103268D02*
D03*
Y-99331D02*
D03*
Y-95394D02*
D03*
Y-91457D02*
D03*
X249429D02*
D03*
Y-95394D02*
D03*
Y-99331D02*
D03*
Y-103268D02*
D03*
Y-107205D02*
D03*
Y-111142D02*
D03*
Y-115079D02*
D03*
Y-119016D02*
D03*
Y-122953D02*
D03*
Y-126890D02*
D03*
D222*
X23368Y123679D02*
D03*
Y125648D02*
D03*
Y119742D02*
D03*
Y121711D02*
D03*
Y117774D02*
D03*
Y115805D02*
D03*
X35179D02*
D03*
Y117774D02*
D03*
Y119742D02*
D03*
Y121711D02*
D03*
Y123679D02*
D03*
Y125648D02*
D03*
D229*
X14608Y132045D02*
D03*
X20120D02*
D03*
D231*
X143602Y-50197D02*
D03*
X146161Y-42717D02*
D03*
X141043D02*
D03*
X16043Y-61221D02*
D03*
X18602Y-53740D02*
D03*
X13484D02*
D03*
D232*
X185433Y93012D02*
D03*
X190157D02*
D03*
X56398Y-59252D02*
D03*
X61122D02*
D03*
X116262Y-87300D02*
D03*
X111538D02*
D03*
X112138Y-129300D02*
D03*
X116862D02*
D03*
X132038Y-129100D02*
D03*
X136762D02*
D03*
X122539Y-79724D02*
D03*
X127264D02*
D03*
X137697Y-79724D02*
D03*
X132972D02*
D03*
X141240Y-37913D02*
D03*
X145965D02*
D03*
X122539Y-58366D02*
D03*
X117815D02*
D03*
X75011Y48200D02*
D03*
X70287D02*
D03*
X74957Y13814D02*
D03*
X70232D02*
D03*
X75062Y83400D02*
D03*
X70338D02*
D03*
X75002Y-21086D02*
D03*
X70278D02*
D03*
X75043Y118316D02*
D03*
X70319D02*
D03*
X75011Y53924D02*
D03*
X70287D02*
D03*
X74957Y19328D02*
D03*
X70232D02*
D03*
X75076Y88928D02*
D03*
X70352D02*
D03*
X75002Y-15572D02*
D03*
X70278D02*
D03*
X75028Y123881D02*
D03*
X70303D02*
D03*
X70287Y59452D02*
D03*
X75011D02*
D03*
X74957Y24855D02*
D03*
X70232D02*
D03*
X70352Y94455D02*
D03*
X75076D02*
D03*
X75002Y-10045D02*
D03*
X70278D02*
D03*
X70303Y129447D02*
D03*
X75028D02*
D03*
X30217Y-63976D02*
D03*
X34941D02*
D03*
X18406Y-44629D02*
D03*
X13681D02*
D03*
X190157Y79232D02*
D03*
X185433D02*
D03*
X162205Y78150D02*
D03*
X166929D02*
D03*
X190157Y96752D02*
D03*
X185433D02*
D03*
D233*
X123228Y-127657D02*
D03*
Y-131595D02*
D03*
X55905Y-140453D02*
D03*
Y-136516D02*
D03*
X51575D02*
D03*
Y-140453D02*
D03*
X15380Y124664D02*
D03*
Y120727D02*
D03*
X21555Y56988D02*
D03*
Y53051D02*
D03*
X17028Y56988D02*
D03*
Y53051D02*
D03*
X12500Y56988D02*
D03*
Y53051D02*
D03*
D234*
X55905Y-117815D02*
D03*
Y-111122D02*
D03*
X56398Y-55709D02*
D03*
X61122D02*
D03*
X61122Y-52362D02*
D03*
X56398D02*
D03*
X61122Y-49016D02*
D03*
X56398D02*
D03*
X31062Y-127000D02*
D03*
X26338D02*
D03*
X75113Y64217D02*
D03*
X70389D02*
D03*
X74957Y30114D02*
D03*
X70232D02*
D03*
X75076Y99786D02*
D03*
X70352D02*
D03*
X74922Y-4686D02*
D03*
X70198D02*
D03*
X74997Y134816D02*
D03*
X70272D02*
D03*
X13681Y-48172D02*
D03*
X18406D02*
D03*
X190157Y82775D02*
D03*
X185433D02*
D03*
X185433Y86122D02*
D03*
X190157D02*
D03*
X185433Y89468D02*
D03*
X190157D02*
D03*
D235*
X276673Y-155492D02*
D03*
Y-160846D02*
D03*
X268898Y-155492D02*
D03*
Y-160846D02*
D03*
D236*
X204626Y104035D02*
D03*
X196752D02*
D03*
X204626Y112205D02*
D03*
X196752D02*
D03*
X204626Y119948D02*
D03*
X196752D02*
D03*
X204626Y127690D02*
D03*
X196752D02*
D03*
X204626Y135433D02*
D03*
X196752D02*
D03*
X203839Y-70374D02*
D03*
X195965D02*
D03*
X203839Y-62500D02*
D03*
X195965D02*
D03*
X203839Y-54954D02*
D03*
X195965D02*
D03*
X203839Y-47408D02*
D03*
X195965D02*
D03*
X203839Y-39862D02*
D03*
X195965D02*
D03*
X189961Y112205D02*
D03*
X182087D02*
D03*
X189961Y119948D02*
D03*
X182087D02*
D03*
X189961Y127690D02*
D03*
X182087D02*
D03*
X189961Y135433D02*
D03*
X182087D02*
D03*
X188386Y-62500D02*
D03*
X180512D02*
D03*
X188386Y-54954D02*
D03*
X180512D02*
D03*
X188386Y-47408D02*
D03*
X180512D02*
D03*
X188386Y-39862D02*
D03*
X180512D02*
D03*
D237*
X39706Y114640D02*
D03*
X43643D02*
D03*
X74803Y-97441D02*
D03*
X78740D02*
D03*
X78740Y-128839D02*
D03*
X74803D02*
D03*
X77756Y-70866D02*
D03*
X81693D02*
D03*
X81693Y-102264D02*
D03*
X77756D02*
D03*
X29528Y61024D02*
D03*
X33465D02*
D03*
X37500D02*
D03*
X41437D02*
D03*
X21555D02*
D03*
X25492D02*
D03*
D238*
X57185Y35128D02*
D03*
Y43002D02*
D03*
Y-12402D02*
D03*
Y-4528D02*
D03*
X202461Y37205D02*
D03*
Y45079D02*
D03*
X204921Y-134744D02*
D03*
Y-126870D02*
D03*
D239*
X169606Y-68701D02*
D03*
X164252D02*
D03*
X204055Y86614D02*
D03*
X198701D02*
D03*
X269311Y81201D02*
D03*
X263957D02*
D03*
X269311Y74016D02*
D03*
X263957D02*
D03*
X269311Y102264D02*
D03*
X263957D02*
D03*
Y-22224D02*
D03*
X269311D02*
D03*
Y-71693D02*
D03*
X263957D02*
D03*
X269311Y-78760D02*
D03*
X263957D02*
D03*
Y131004D02*
D03*
X269311D02*
D03*
X263957Y159744D02*
D03*
X269311D02*
D03*
X263957Y152559D02*
D03*
X269311D02*
D03*
X263957Y123819D02*
D03*
X269311D02*
D03*
X263957Y88386D02*
D03*
X269311D02*
D03*
X263957Y109449D02*
D03*
X269311D02*
D03*
Y95571D02*
D03*
X263957D02*
D03*
X269311Y145276D02*
D03*
X263957D02*
D03*
X269311Y138189D02*
D03*
X263957D02*
D03*
X269311Y116634D02*
D03*
X263957D02*
D03*
X269311Y-85827D02*
D03*
X263957D02*
D03*
Y-50492D02*
D03*
X269311D02*
D03*
X263957Y-57559D02*
D03*
X269311D02*
D03*
X263957Y-64626D02*
D03*
X269311D02*
D03*
X263957Y-15157D02*
D03*
X269311D02*
D03*
Y-29291D02*
D03*
X263957D02*
D03*
X269311Y-36358D02*
D03*
X263957D02*
D03*
X269311Y-43425D02*
D03*
X263957D02*
D03*
Y-101378D02*
D03*
X269311D02*
D03*
X198701Y78495D02*
D03*
X204055D02*
D03*
X198898Y-93650D02*
D03*
X204252D02*
D03*
X198701Y73295D02*
D03*
X204055D02*
D03*
X198898Y-98851D02*
D03*
X204252D02*
D03*
X198701Y68094D02*
D03*
X204055D02*
D03*
X198898Y-104051D02*
D03*
X204252D02*
D03*
X198701Y62894D02*
D03*
X204055D02*
D03*
X198898Y-109252D02*
D03*
X204252D02*
D03*
D240*
X126747Y50398D02*
D03*
Y52957D02*
D03*
Y55516D02*
D03*
Y58075D02*
D03*
X144070Y50398D02*
D03*
Y52957D02*
D03*
Y55516D02*
D03*
Y58075D02*
D03*
X126550Y15654D02*
D03*
Y18213D02*
D03*
Y20772D02*
D03*
Y23331D02*
D03*
X143873Y15654D02*
D03*
Y18213D02*
D03*
Y20772D02*
D03*
Y23331D02*
D03*
X126550Y85437D02*
D03*
Y87997D02*
D03*
Y90556D02*
D03*
Y93115D02*
D03*
X143873Y85437D02*
D03*
Y87997D02*
D03*
Y90556D02*
D03*
Y93115D02*
D03*
X126550Y-19090D02*
D03*
Y-16531D02*
D03*
Y-13972D02*
D03*
Y-11413D02*
D03*
X143873Y-19090D02*
D03*
Y-16531D02*
D03*
Y-13972D02*
D03*
Y-11413D02*
D03*
X126649Y120280D02*
D03*
Y122839D02*
D03*
Y125398D02*
D03*
Y127957D02*
D03*
X143972Y120280D02*
D03*
Y122839D02*
D03*
Y125398D02*
D03*
Y127957D02*
D03*
D241*
X47835Y-103937D02*
D03*
X54528D02*
D03*
X198031Y57677D02*
D03*
X204724D02*
D03*
X198228Y-114665D02*
D03*
X204921D02*
D03*
X198031Y52461D02*
D03*
X204724D02*
D03*
X198228Y-119882D02*
D03*
X204921D02*
D03*
X34646Y-103937D02*
D03*
X41339D02*
D03*
D242*
X232933Y-45276D02*
D03*
Y-80709D02*
D03*
Y-38307D02*
D03*
Y-73740D02*
D03*
Y98425D02*
D03*
Y133858D02*
D03*
Y-98425D02*
D03*
Y-133858D02*
D03*
Y45276D02*
D03*
Y80709D02*
D03*
Y-126890D02*
D03*
Y-91457D02*
D03*
Y73740D02*
D03*
Y38307D02*
D03*
Y126890D02*
D03*
Y91457D02*
D03*
D243*
X280494Y122518D02*
D03*
X290494D02*
D03*
X280494Y112518D02*
D03*
X290494D02*
D03*
X280494Y102518D02*
D03*
X290494D02*
D03*
X280494Y92518D02*
D03*
X290494D02*
D03*
X280494Y82518D02*
D03*
X290494D02*
D03*
X280494Y72518D02*
D03*
X290494D02*
D03*
X280494Y62518D02*
D03*
X290494D02*
D03*
X280494Y52518D02*
D03*
X290494D02*
D03*
X280494Y42518D02*
D03*
X290494D02*
D03*
X280494Y32518D02*
D03*
X290494D02*
D03*
X280494Y22518D02*
D03*
X290494D02*
D03*
X280494Y12518D02*
D03*
X290494D02*
D03*
X280494Y2518D02*
D03*
X290494D02*
D03*
X280494Y-7482D02*
D03*
X290494D02*
D03*
X280494Y-17482D02*
D03*
X290494D02*
D03*
X280494Y-27482D02*
D03*
X290494D02*
D03*
X280494Y-37482D02*
D03*
X290494D02*
D03*
X280494Y-47482D02*
D03*
X290494D02*
D03*
X280494Y-57482D02*
D03*
X290494D02*
D03*
X280494Y-67482D02*
D03*
X290494D02*
D03*
X280494Y-77482D02*
D03*
X290494D02*
D03*
X280494Y-87482D02*
D03*
X290494D02*
D03*
X280494Y-97482D02*
D03*
X290494D02*
D03*
X280494Y-107482D02*
D03*
X290494D02*
D03*
X280494Y-117482D02*
D03*
X290494D02*
D03*
X280494Y-127482D02*
D03*
X290494D02*
D03*
X310494D02*
D03*
X300494D02*
D03*
X310494Y-117482D02*
D03*
X300494D02*
D03*
X310494Y-107482D02*
D03*
X300494D02*
D03*
X310494Y-97482D02*
D03*
X300494D02*
D03*
X310494Y-87482D02*
D03*
X300494D02*
D03*
X310494Y-77482D02*
D03*
X300494D02*
D03*
X310494Y-67482D02*
D03*
X300494D02*
D03*
X310494Y-57482D02*
D03*
X300494D02*
D03*
X310494Y-47482D02*
D03*
X300494D02*
D03*
X310494Y-37482D02*
D03*
X300494D02*
D03*
X310494Y-27482D02*
D03*
X300494D02*
D03*
X310494Y-17482D02*
D03*
X300494D02*
D03*
X310494Y-7482D02*
D03*
X300494D02*
D03*
X310494Y2518D02*
D03*
X300494D02*
D03*
X310494Y12518D02*
D03*
X300494D02*
D03*
X310494Y22518D02*
D03*
X300494D02*
D03*
X310494Y32518D02*
D03*
X300494D02*
D03*
X310494Y42518D02*
D03*
X300494D02*
D03*
X310494Y52518D02*
D03*
X300494D02*
D03*
X310494Y62518D02*
D03*
X300494D02*
D03*
X310494Y72518D02*
D03*
X300494D02*
D03*
X310494Y82518D02*
D03*
X300494D02*
D03*
X310494Y92518D02*
D03*
X300494D02*
D03*
X310494Y102518D02*
D03*
X300494D02*
D03*
X310494Y112518D02*
D03*
X300494D02*
D03*
X310494Y122518D02*
D03*
X300494D02*
D03*
D244*
X-27028Y-157480D02*
D03*
Y157520D02*
D03*
X310492Y-147480D02*
D03*
Y142520D02*
D03*
D245*
X12342Y-152480D02*
D03*
Y-19685D02*
D03*
Y19685D02*
D03*
Y152480D02*
D03*
X243563Y-152480D02*
D03*
Y-19685D02*
D03*
Y19685D02*
D03*
Y152480D02*
D03*
D246*
X31496Y-22303D02*
D03*
Y22303D02*
D03*
X224409Y-22303D02*
D03*
Y22303D02*
D03*
D247*
X125566Y18213D02*
D03*
Y20772D02*
D03*
X117618Y17421D02*
D03*
X114838D02*
D03*
X89400Y84400D02*
D03*
X197343Y59005D02*
D03*
Y57800D02*
D03*
X186417Y60802D02*
D03*
X183514Y70029D02*
D03*
Y63878D02*
D03*
X186319Y70029D02*
D03*
X175098Y33632D02*
D03*
X181004Y44488D02*
D03*
X179724D02*
D03*
X42265Y122006D02*
D03*
X43446D02*
D03*
X50394Y124606D02*
D03*
X41495Y135969D02*
D03*
X40412Y135376D02*
D03*
X252972Y56476D02*
D03*
X250610D02*
D03*
X251791D02*
D03*
X249429Y57657D02*
D03*
X250610D02*
D03*
X251791D02*
D03*
X248248D02*
D03*
X249429Y56476D02*
D03*
X248248D02*
D03*
X245886Y57657D02*
D03*
X245886Y56476D02*
D03*
X247067D02*
D03*
X247067Y57657D02*
D03*
X252972Y52539D02*
D03*
X249429D02*
D03*
X250610D02*
D03*
X251791D02*
D03*
X251791Y53720D02*
D03*
X249429D02*
D03*
X250610D02*
D03*
X248248D02*
D03*
X248248Y52539D02*
D03*
X245886D02*
D03*
X247067D02*
D03*
X245886Y53720D02*
D03*
X247067D02*
D03*
X202460Y46437D02*
D03*
X201131D02*
D03*
X219980Y61594D02*
D03*
X219980Y64350D02*
D03*
X219980Y73405D02*
D03*
X219980Y72224D02*
D03*
X206043Y56052D02*
D03*
X81299Y-8366D02*
D03*
X-2362Y47244D02*
D03*
X-3543D02*
D03*
X94990Y-19926D02*
D03*
X89100Y-19100D02*
D03*
Y-17700D02*
D03*
Y-25500D02*
D03*
Y-27000D02*
D03*
X98779Y-13484D02*
D03*
X96811D02*
D03*
X69294Y-20692D02*
D03*
Y-21873D02*
D03*
X74800Y-14800D02*
D03*
X75000Y-21681D02*
D03*
X75000Y-20500D02*
D03*
X74708Y-10783D02*
D03*
X74700Y-9500D02*
D03*
X89000Y119200D02*
D03*
Y120700D02*
D03*
X89100Y112900D02*
D03*
Y111400D02*
D03*
X42300Y-98300D02*
D03*
Y-99600D02*
D03*
Y-91800D02*
D03*
Y-90400D02*
D03*
X96909Y125886D02*
D03*
X98878D02*
D03*
X137598Y-23031D02*
D03*
X136417Y-23130D02*
D03*
X127535Y-16531D02*
D03*
X125566D02*
D03*
X137598Y11713D02*
D03*
X127535Y18213D02*
D03*
X136417Y11614D02*
D03*
X136614Y46358D02*
D03*
X137795Y46457D02*
D03*
X127732Y52957D02*
D03*
X125763D02*
D03*
X137598Y81496D02*
D03*
X136417Y81398D02*
D03*
X127535Y87997D02*
D03*
X125566D02*
D03*
X127633Y122839D02*
D03*
X125665D02*
D03*
X136516Y116240D02*
D03*
X137697Y116339D02*
D03*
X55413Y-51772D02*
D03*
X55512Y-52953D02*
D03*
X49508Y-63929D02*
D03*
Y-61960D02*
D03*
X87002Y-91863D02*
D03*
X87702Y-94800D02*
D03*
X87002Y-95900D02*
D03*
X87702Y-90863D02*
D03*
X86737Y-128500D02*
D03*
X87837Y-129200D02*
D03*
X83900D02*
D03*
X82800Y-128500D02*
D03*
X80118Y-8366D02*
D03*
X69384Y-4095D02*
D03*
X98779Y-8366D02*
D03*
X69294Y-10832D02*
D03*
X69294Y-9553D02*
D03*
X75987Y-14785D02*
D03*
X75808Y-4095D02*
D03*
X69294Y-15080D02*
D03*
X75941Y19820D02*
D03*
Y18540D02*
D03*
X69248Y24068D02*
D03*
X69248Y25347D02*
D03*
X76000Y14503D02*
D03*
Y13125D02*
D03*
X75657Y30705D02*
D03*
X69248Y19918D02*
D03*
X69475Y64808D02*
D03*
X75900Y58820D02*
D03*
X75999Y64808D02*
D03*
X75900Y53320D02*
D03*
X75900Y54600D02*
D03*
Y60100D02*
D03*
X74190Y88534D02*
D03*
Y89715D02*
D03*
X80315Y128445D02*
D03*
Y131004D02*
D03*
X74732Y124416D02*
D03*
Y123137D02*
D03*
X28053Y116935D02*
D03*
X15946Y120774D02*
D03*
X22679Y115805D02*
D03*
Y123679D02*
D03*
X245866Y44665D02*
D03*
X251791Y61594D02*
D03*
X252972D02*
D03*
Y57657D02*
D03*
X245886Y61594D02*
D03*
X247067D02*
D03*
X204026Y68093D02*
D03*
Y69422D02*
D03*
X195407Y105217D02*
D03*
X143012Y28150D02*
D03*
X142889Y20772D02*
D03*
X205184Y-41043D02*
D03*
X203871D02*
D03*
X203788Y46437D02*
D03*
X212894Y56476D02*
D03*
X214075D02*
D03*
X212894Y57657D02*
D03*
X214075Y60413D02*
D03*
X212894D02*
D03*
X215256Y61594D02*
D03*
X215256Y60413D02*
D03*
X214075Y61594D02*
D03*
X212894D02*
D03*
X206043Y57381D02*
D03*
Y58710D02*
D03*
X196653Y53788D02*
D03*
X198671Y71965D02*
D03*
Y73294D02*
D03*
X268799Y-100197D02*
D03*
Y-102559D02*
D03*
X219980Y129311D02*
D03*
Y133248D02*
D03*
X218799D02*
D03*
X219980Y134429D02*
D03*
X219980Y121437D02*
D03*
X144692Y93115D02*
D03*
X188189Y-45472D02*
D03*
X187008Y-49016D02*
D03*
Y-45472D02*
D03*
Y-46654D02*
D03*
Y-47835D02*
D03*
X179921Y-40748D02*
D03*
X181102D02*
D03*
X195932Y-71555D02*
D03*
X194619D02*
D03*
X195932Y-70374D02*
D03*
X194619D02*
D03*
X195932Y-69193D02*
D03*
X194619D02*
D03*
X203871Y-69193D02*
D03*
X205184D02*
D03*
X203871Y-70374D02*
D03*
X205184D02*
D03*
X203871Y-71555D02*
D03*
X205184D02*
D03*
X195932Y-63681D02*
D03*
X194619D02*
D03*
X195932Y-62500D02*
D03*
X194619D02*
D03*
X195932Y-61319D02*
D03*
X194619D02*
D03*
X203871Y-61319D02*
D03*
X205184D02*
D03*
X203871Y-62500D02*
D03*
X205184D02*
D03*
X203871Y-63681D02*
D03*
X205184D02*
D03*
X195932Y-56135D02*
D03*
X194619D02*
D03*
X195932Y-54954D02*
D03*
X194619D02*
D03*
X195932Y-53773D02*
D03*
X194619D02*
D03*
X203871Y-53773D02*
D03*
X205184D02*
D03*
X203871Y-54954D02*
D03*
X205184D02*
D03*
X203871Y-56135D02*
D03*
X205184D02*
D03*
X195932Y-48589D02*
D03*
X194619D02*
D03*
X195932Y-47408D02*
D03*
X194619D02*
D03*
X195932Y-46227D02*
D03*
X194619D02*
D03*
X203871Y-47408D02*
D03*
Y-48589D02*
D03*
X205184D02*
D03*
X195932Y-41043D02*
D03*
X194619D02*
D03*
X195932Y-39862D02*
D03*
X194619D02*
D03*
X195932Y-38681D02*
D03*
X194619D02*
D03*
X203871Y-38681D02*
D03*
X205184D02*
D03*
X203871Y-39862D02*
D03*
X205184D02*
D03*
X180479Y-63681D02*
D03*
X179167D02*
D03*
X180479Y-62500D02*
D03*
X179167D02*
D03*
X180479Y-61319D02*
D03*
X179167D02*
D03*
X188419Y-61319D02*
D03*
X189731D02*
D03*
X188419Y-62500D02*
D03*
X189731D02*
D03*
X188419Y-63681D02*
D03*
X189731D02*
D03*
Y-56135D02*
D03*
X188419D02*
D03*
X189731Y-54954D02*
D03*
X188419D02*
D03*
X189731Y-53773D02*
D03*
X188419D02*
D03*
X189731Y-41043D02*
D03*
X188419D02*
D03*
X189731Y-39862D02*
D03*
X188419D02*
D03*
X189731Y-38681D02*
D03*
X188419D02*
D03*
X179265Y-56857D02*
D03*
Y-55545D02*
D03*
X180446Y-56857D02*
D03*
Y-55545D02*
D03*
X181627Y-56857D02*
D03*
Y-55545D02*
D03*
X179167Y-46227D02*
D03*
X180479D02*
D03*
X179167Y-47408D02*
D03*
X180479D02*
D03*
X179167Y-48589D02*
D03*
X180479D02*
D03*
X179331Y-41831D02*
D03*
X180512D02*
D03*
X181693D02*
D03*
X110728Y-69508D02*
D03*
X109547D02*
D03*
X163386Y-68110D02*
D03*
Y-69291D02*
D03*
X168504Y-68110D02*
D03*
Y-69291D02*
D03*
X218799Y110807D02*
D03*
X217618D02*
D03*
X160728Y-49606D02*
D03*
X49510Y-46459D02*
D03*
X205315Y-93717D02*
D03*
X205315Y-94996D02*
D03*
Y-92437D02*
D03*
X199803D02*
D03*
X199803Y-93717D02*
D03*
X199803Y-94996D02*
D03*
X163091Y-42717D02*
D03*
X196653Y52460D02*
D03*
Y51131D02*
D03*
X206043Y51328D02*
D03*
Y52656D02*
D03*
X197343Y64221D02*
D03*
Y62893D02*
D03*
Y61564D02*
D03*
X198671Y64221D02*
D03*
Y62893D02*
D03*
Y61564D02*
D03*
X205354D02*
D03*
Y62893D02*
D03*
Y64221D02*
D03*
X204026Y61564D02*
D03*
Y62893D02*
D03*
Y64221D02*
D03*
X197343Y69422D02*
D03*
Y68093D02*
D03*
Y66764D02*
D03*
X198671Y69422D02*
D03*
Y68093D02*
D03*
Y66764D02*
D03*
X205354D02*
D03*
Y68093D02*
D03*
Y69422D02*
D03*
X204026Y66764D02*
D03*
X197343Y74622D02*
D03*
Y73294D02*
D03*
Y71965D02*
D03*
X198671Y74622D02*
D03*
X205354Y71965D02*
D03*
Y73294D02*
D03*
Y74622D02*
D03*
X204026Y73294D02*
D03*
Y74622D02*
D03*
Y78494D02*
D03*
Y77165D02*
D03*
X205354D02*
D03*
X198671D02*
D03*
Y78494D02*
D03*
Y79823D02*
D03*
X197343Y77165D02*
D03*
Y78494D02*
D03*
Y79823D02*
D03*
X196719Y105217D02*
D03*
X195407Y104035D02*
D03*
X196719D02*
D03*
X195407Y102854D02*
D03*
X196719D02*
D03*
X204659Y105217D02*
D03*
X205971D02*
D03*
X204659Y104035D02*
D03*
X205971D02*
D03*
X204659Y102854D02*
D03*
X205971D02*
D03*
Y111024D02*
D03*
X204659D02*
D03*
X205971Y112205D02*
D03*
X204659D02*
D03*
X205971Y113386D02*
D03*
X204659D02*
D03*
X196719Y111024D02*
D03*
X195407D02*
D03*
X196719Y112205D02*
D03*
X195407D02*
D03*
X196719Y113386D02*
D03*
X195407D02*
D03*
X180742D02*
D03*
X182054D02*
D03*
X180742Y112205D02*
D03*
X182054D02*
D03*
X180742Y111024D02*
D03*
X182054D02*
D03*
X189895Y113386D02*
D03*
X191207D02*
D03*
X189895Y112205D02*
D03*
X191207D02*
D03*
X189895Y111024D02*
D03*
X191207D02*
D03*
X205971Y118766D02*
D03*
X204757D02*
D03*
X205971Y119948D02*
D03*
X204757D02*
D03*
X205971Y121129D02*
D03*
X204757D02*
D03*
X196719Y118766D02*
D03*
X195407D02*
D03*
X196719Y119948D02*
D03*
X195407D02*
D03*
X196719Y121129D02*
D03*
X195407D02*
D03*
X180742D02*
D03*
X182054D02*
D03*
X180742Y119948D02*
D03*
X182054D02*
D03*
X180742Y118766D02*
D03*
X182054D02*
D03*
X189993Y121129D02*
D03*
X191306D02*
D03*
X189993Y119948D02*
D03*
X191306D02*
D03*
X189993Y118766D02*
D03*
X191306D02*
D03*
X205971Y126509D02*
D03*
X204659D02*
D03*
X205971Y127690D02*
D03*
X204659D02*
D03*
X205971Y128871D02*
D03*
X204659D02*
D03*
X196719Y126509D02*
D03*
X195407D02*
D03*
X196719Y127690D02*
D03*
X195407D02*
D03*
X196719Y128871D02*
D03*
X195407D02*
D03*
X180742D02*
D03*
X182054D02*
D03*
X180742Y127690D02*
D03*
X182054D02*
D03*
X180742Y126509D02*
D03*
X182054D02*
D03*
X189993Y128871D02*
D03*
X191306D02*
D03*
X189993Y127690D02*
D03*
X191306D02*
D03*
X189993Y126509D02*
D03*
X191306D02*
D03*
Y134252D02*
D03*
X189993D02*
D03*
X191306Y135433D02*
D03*
X189993D02*
D03*
X191306Y136614D02*
D03*
X189993D02*
D03*
X182054Y134252D02*
D03*
X180742D02*
D03*
X182054Y135433D02*
D03*
X180742D02*
D03*
X182054Y136614D02*
D03*
X180742D02*
D03*
X195407D02*
D03*
X196719D02*
D03*
X195407Y135433D02*
D03*
X196719D02*
D03*
X195407Y134252D02*
D03*
X196719D02*
D03*
X204659Y136614D02*
D03*
X205971D02*
D03*
X204659Y135433D02*
D03*
X205971D02*
D03*
X204659Y134252D02*
D03*
X205971D02*
D03*
X89961Y-49606D02*
D03*
X88779Y-59055D02*
D03*
X89961D02*
D03*
X88779Y-49606D02*
D03*
X109547Y-59744D02*
D03*
X110728D02*
D03*
X109547Y-49705D02*
D03*
X110728D02*
D03*
X95669Y-50394D02*
D03*
X96850D02*
D03*
X95669Y-59055D02*
D03*
X96850D02*
D03*
X102756Y-49606D02*
D03*
X103937D02*
D03*
Y-59744D02*
D03*
X102756D02*
D03*
X163091Y-41535D02*
D03*
X131201Y-29724D02*
D03*
X129921D02*
D03*
X146939Y-38287D02*
D03*
X145758D02*
D03*
X140665D02*
D03*
X141847D02*
D03*
X136516Y-71457D02*
D03*
Y-72638D02*
D03*
X163779Y-82972D02*
D03*
Y-81791D02*
D03*
X163681Y-91240D02*
D03*
Y-90059D02*
D03*
Y-130413D02*
D03*
Y-129232D02*
D03*
X104429Y-105413D02*
D03*
Y-106595D02*
D03*
X107579Y-106595D02*
D03*
Y-105413D02*
D03*
X102461Y-99705D02*
D03*
X97500Y-94100D02*
D03*
X107579Y-79134D02*
D03*
Y-80315D02*
D03*
X117618Y-79134D02*
D03*
Y-80315D02*
D03*
Y-105413D02*
D03*
Y-106595D02*
D03*
X135728Y-66929D02*
D03*
X136909D02*
D03*
X143209Y-69488D02*
D03*
X144390D02*
D03*
X151279Y-69705D02*
D03*
X150098D02*
D03*
X151279Y-77579D02*
D03*
X150098D02*
D03*
X142913Y-92736D02*
D03*
X141732D02*
D03*
X142913Y-98642D02*
D03*
X141732D02*
D03*
Y-123622D02*
D03*
X142913D02*
D03*
X141732Y-115748D02*
D03*
X142913D02*
D03*
X122638Y-132185D02*
D03*
X123819D02*
D03*
X122638Y-127067D02*
D03*
X123819D02*
D03*
X166929Y-48878D02*
D03*
X168110D02*
D03*
X166732Y-43307D02*
D03*
Y-44488D02*
D03*
X168110Y-55295D02*
D03*
X166929D02*
D03*
Y-63957D02*
D03*
X168110D02*
D03*
X122736Y-52953D02*
D03*
Y-51772D02*
D03*
X116043D02*
D03*
Y-52953D02*
D03*
X124705Y-46555D02*
D03*
Y-45374D02*
D03*
X116043D02*
D03*
Y-46555D02*
D03*
X129331Y-73819D02*
D03*
X130512D02*
D03*
Y-65158D02*
D03*
X129331D02*
D03*
X122441Y-73819D02*
D03*
X123622D02*
D03*
Y-65158D02*
D03*
X122441D02*
D03*
X95768Y-79134D02*
D03*
Y-80315D02*
D03*
X104429D02*
D03*
Y-79134D02*
D03*
X132343D02*
D03*
Y-80315D02*
D03*
X138327Y-80315D02*
D03*
Y-79134D02*
D03*
X121909Y-79134D02*
D03*
Y-80315D02*
D03*
X127894Y-80315D02*
D03*
Y-79134D02*
D03*
X117815Y-66496D02*
D03*
X116634D02*
D03*
X116634Y-72480D02*
D03*
X117815D02*
D03*
X97342Y-66496D02*
D03*
X96161D02*
D03*
X96161Y-72480D02*
D03*
X97342D02*
D03*
X117185Y-58957D02*
D03*
Y-57776D02*
D03*
X123169Y-57776D02*
D03*
Y-58957D02*
D03*
X147047Y-56260D02*
D03*
X148228D02*
D03*
X148228Y-62244D02*
D03*
X147047D02*
D03*
X116831Y-92953D02*
D03*
X118012D02*
D03*
X97500Y-92919D02*
D03*
Y-97619D02*
D03*
Y-98800D02*
D03*
X174114Y-107146D02*
D03*
X175295D02*
D03*
X175295Y-113130D02*
D03*
X174114D02*
D03*
X174114Y-123091D02*
D03*
X175295D02*
D03*
X175295Y-129075D02*
D03*
X174114D02*
D03*
X155610Y-123091D02*
D03*
X156791D02*
D03*
X156791Y-128091D02*
D03*
X155610D02*
D03*
X97768Y-106595D02*
D03*
Y-105413D02*
D03*
X122441Y-91614D02*
D03*
X123622D02*
D03*
X143602Y-49606D02*
D03*
Y-50787D02*
D03*
X140650Y-42126D02*
D03*
Y-43307D02*
D03*
X146161Y-42126D02*
D03*
Y-43307D02*
D03*
X103642Y-73248D02*
D03*
X102461D02*
D03*
X103642Y-65768D02*
D03*
X102461D02*
D03*
X131496Y-58957D02*
D03*
X130315D02*
D03*
X131496Y-53839D02*
D03*
X130315D02*
D03*
X138976Y-56398D02*
D03*
X137795D02*
D03*
X154823Y-45866D02*
D03*
X153642D02*
D03*
X161909Y-49606D02*
D03*
X154823Y-55906D02*
D03*
X153642D02*
D03*
X154823Y-63386D02*
D03*
X153642D02*
D03*
X161909Y-59646D02*
D03*
X160728D02*
D03*
X162598Y-75295D02*
D03*
X161417D02*
D03*
X169685Y-78642D02*
D03*
X168504D02*
D03*
X161319Y-97539D02*
D03*
X160138D02*
D03*
X169587Y-94390D02*
D03*
X168405D02*
D03*
X137500Y-95965D02*
D03*
X136319D02*
D03*
X130020Y-93405D02*
D03*
X128839D02*
D03*
X103642Y-99705D02*
D03*
Y-92224D02*
D03*
X102461D02*
D03*
X162500Y-113898D02*
D03*
X161319D02*
D03*
X162500Y-106417D02*
D03*
X161319D02*
D03*
X169587Y-110158D02*
D03*
X168405D02*
D03*
X180118Y-107579D02*
D03*
X178937D02*
D03*
X180118Y-112697D02*
D03*
X178937D02*
D03*
X187598Y-110138D02*
D03*
X186417D02*
D03*
X169587Y-126102D02*
D03*
X168405D02*
D03*
X162500Y-122362D02*
D03*
X161319D02*
D03*
X180118Y-128642D02*
D03*
X178937D02*
D03*
X180118Y-123524D02*
D03*
X178937D02*
D03*
X187598Y-126083D02*
D03*
X151083Y62894D02*
D03*
X59154Y-13780D02*
D03*
X57185D02*
D03*
X55216D02*
D03*
X59154Y-3150D02*
D03*
X57185D02*
D03*
X55216D02*
D03*
X18161Y-120739D02*
D03*
X16783D02*
D03*
X20472Y-122539D02*
D03*
X13386Y-120641D02*
D03*
X26378Y50098D02*
D03*
X125566Y23331D02*
D03*
X124213Y104134D02*
D03*
X109547Y101181D02*
D03*
X119823Y135433D02*
D03*
X114764Y135335D02*
D03*
X137058Y132087D02*
D03*
Y138091D02*
D03*
X138140Y131496D02*
D03*
Y132694D02*
D03*
Y133891D02*
D03*
Y135089D02*
D03*
Y136286D02*
D03*
Y137484D02*
D03*
Y138681D02*
D03*
X137058Y136885D02*
D03*
Y135679D02*
D03*
Y134474D02*
D03*
Y133280D02*
D03*
X133563D02*
D03*
Y134474D02*
D03*
Y135679D02*
D03*
Y136885D02*
D03*
X125886Y132283D02*
D03*
X124311Y132283D02*
D03*
X125886Y138976D02*
D03*
X84398Y118277D02*
D03*
X83217Y118376D02*
D03*
X84398Y111978D02*
D03*
X83217Y111880D02*
D03*
X93780Y118376D02*
D03*
X95060D02*
D03*
X93879Y111880D02*
D03*
X95158D02*
D03*
X130020Y109646D02*
D03*
X131299D02*
D03*
X139665D02*
D03*
X140847Y109744D02*
D03*
X137697D02*
D03*
X43209Y-70236D02*
D03*
Y-71614D02*
D03*
X42224Y-70925D02*
D03*
X41240Y-70236D02*
D03*
Y-71614D02*
D03*
X37205Y-91634D02*
D03*
X32185Y-117520D02*
D03*
X31398Y-120866D02*
D03*
X32185Y-121752D02*
D03*
X29232Y-122539D02*
D03*
X44291Y-128543D02*
D03*
Y-109252D02*
D03*
Y-111221D02*
D03*
X41732Y-109252D02*
D03*
Y-111221D02*
D03*
X14567Y-120739D02*
D03*
X27854Y-122539D02*
D03*
X25543D02*
D03*
X76028Y118965D02*
D03*
X52165Y-137106D02*
D03*
X50984Y-135925D02*
D03*
X52165Y-141043D02*
D03*
X50984Y-139862D02*
D03*
X56496Y-137106D02*
D03*
X55315Y-135925D02*
D03*
X56496Y-141043D02*
D03*
X55315Y-139862D02*
D03*
X-35532Y7669D02*
D03*
X114838Y116339D02*
D03*
X105610Y119144D02*
D03*
X114838Y127559D02*
D03*
X107702D02*
D03*
X105610Y124754D02*
D03*
X108686Y121949D02*
D03*
X114838D02*
D03*
X111762Y119144D02*
D03*
Y124754D02*
D03*
X197638Y-110531D02*
D03*
X204331D02*
D03*
X204331Y-109252D02*
D03*
X197638Y-102756D02*
D03*
Y-100197D02*
D03*
X197638Y-98917D02*
D03*
X197638Y-97638D02*
D03*
X45571Y54035D02*
D03*
X111762Y116339D02*
D03*
X105610D02*
D03*
Y121949D02*
D03*
X111762D02*
D03*
X117913D02*
D03*
Y116339D02*
D03*
Y127559D02*
D03*
X112845D02*
D03*
X22679Y125648D02*
D03*
X36163Y123679D02*
D03*
Y121711D02*
D03*
Y117774D02*
D03*
Y115805D02*
D03*
X20177Y132677D02*
D03*
X15970Y124664D02*
D03*
X43446Y127124D02*
D03*
X39173Y114075D02*
D03*
X43110D02*
D03*
X-25197Y68602D02*
D03*
X-22441D02*
D03*
X-25591Y18504D02*
D03*
X-22933D02*
D03*
X-25000Y81496D02*
D03*
Y137402D02*
D03*
X-23031D02*
D03*
Y81496D02*
D03*
X-4528Y127165D02*
D03*
Y121260D02*
D03*
Y115354D02*
D03*
Y109449D02*
D03*
Y91732D02*
D03*
X-2559Y127165D02*
D03*
Y121260D02*
D03*
Y115354D02*
D03*
Y109449D02*
D03*
Y103543D02*
D03*
Y97638D02*
D03*
Y91732D02*
D03*
X-25000Y-59252D02*
D03*
Y-97441D02*
D03*
Y-103839D02*
D03*
Y-142028D02*
D03*
X-23031Y-59252D02*
D03*
Y-97441D02*
D03*
Y-103839D02*
D03*
Y-142028D02*
D03*
X-4528Y-75394D02*
D03*
Y-81299D02*
D03*
Y-87205D02*
D03*
Y-114075D02*
D03*
Y-119980D02*
D03*
Y-125886D02*
D03*
Y-131791D02*
D03*
X-2559Y-69488D02*
D03*
Y-75394D02*
D03*
Y-81299D02*
D03*
Y-87205D02*
D03*
Y-114075D02*
D03*
Y-119980D02*
D03*
Y-125886D02*
D03*
Y-131791D02*
D03*
X38780Y159409D02*
D03*
X71063D02*
D03*
X80315Y159606D02*
D03*
X112598D02*
D03*
X49016Y147638D02*
D03*
X56890D02*
D03*
X60827D02*
D03*
X90551Y147835D02*
D03*
X98425D02*
D03*
X102362D02*
D03*
X38780Y157441D02*
D03*
X71063D02*
D03*
X80315Y157638D02*
D03*
X112598D02*
D03*
X49016Y145669D02*
D03*
X56890D02*
D03*
X60827D02*
D03*
X90551Y145866D02*
D03*
X98425D02*
D03*
X102362D02*
D03*
X176004Y95964D02*
D03*
X178563D02*
D03*
X204331Y-105315D02*
D03*
Y-97638D02*
D03*
Y-100197D02*
D03*
X204331Y-98917D02*
D03*
Y-104035D02*
D03*
X204331Y-102756D02*
D03*
X197638Y-104035D02*
D03*
X204331Y-107973D02*
D03*
X197638Y-109252D02*
D03*
X197638Y-105315D02*
D03*
Y-107973D02*
D03*
X270374Y160925D02*
D03*
Y159744D02*
D03*
Y158563D02*
D03*
X269291Y160335D02*
D03*
Y159153D02*
D03*
X269291Y151969D02*
D03*
Y153150D02*
D03*
X270374Y151378D02*
D03*
Y152559D02*
D03*
Y153740D02*
D03*
X269291Y144685D02*
D03*
Y145866D02*
D03*
X270374Y144095D02*
D03*
Y145276D02*
D03*
Y146457D02*
D03*
X269291Y137599D02*
D03*
Y138780D02*
D03*
X270374Y137008D02*
D03*
Y138189D02*
D03*
Y139370D02*
D03*
X269291Y130413D02*
D03*
Y131595D02*
D03*
X270374Y129823D02*
D03*
Y131004D02*
D03*
Y132185D02*
D03*
X269291Y123228D02*
D03*
Y124409D02*
D03*
X270374Y122638D02*
D03*
Y123819D02*
D03*
Y125000D02*
D03*
X269291Y116043D02*
D03*
Y117225D02*
D03*
X270374Y115453D02*
D03*
Y116634D02*
D03*
Y117815D02*
D03*
X269291Y108858D02*
D03*
Y110039D02*
D03*
X270374Y108268D02*
D03*
Y109449D02*
D03*
Y110630D02*
D03*
X269193Y101673D02*
D03*
Y102854D02*
D03*
X270276Y101083D02*
D03*
Y102264D02*
D03*
Y103445D02*
D03*
X269291Y94980D02*
D03*
Y96162D02*
D03*
X270374Y94390D02*
D03*
Y95571D02*
D03*
Y96752D02*
D03*
X269291Y87795D02*
D03*
Y88977D02*
D03*
X270374Y87205D02*
D03*
Y88386D02*
D03*
Y89567D02*
D03*
X263976Y159153D02*
D03*
Y160335D02*
D03*
X262894Y158563D02*
D03*
Y159744D02*
D03*
Y160925D02*
D03*
X262894Y153740D02*
D03*
Y152559D02*
D03*
Y151378D02*
D03*
X263976Y153150D02*
D03*
Y151969D02*
D03*
X263386Y146457D02*
D03*
Y145276D02*
D03*
Y144095D02*
D03*
X264469Y145866D02*
D03*
Y144685D02*
D03*
X262894Y139370D02*
D03*
Y138189D02*
D03*
Y137008D02*
D03*
X263976Y138780D02*
D03*
Y137599D02*
D03*
X262894Y132185D02*
D03*
Y131004D02*
D03*
Y129823D02*
D03*
X263976Y131595D02*
D03*
Y130413D02*
D03*
X262894Y125000D02*
D03*
Y123819D02*
D03*
Y122638D02*
D03*
X263976Y124409D02*
D03*
Y123228D02*
D03*
X262894Y117815D02*
D03*
Y116634D02*
D03*
Y115453D02*
D03*
X263976Y117225D02*
D03*
Y116043D02*
D03*
X262894Y110630D02*
D03*
Y109449D02*
D03*
Y108268D02*
D03*
X263976Y110039D02*
D03*
Y108858D02*
D03*
X264469Y103445D02*
D03*
Y102264D02*
D03*
Y101083D02*
D03*
X263386Y102854D02*
D03*
Y101673D02*
D03*
Y94980D02*
D03*
Y96162D02*
D03*
X264469Y94390D02*
D03*
Y95571D02*
D03*
Y96752D02*
D03*
X263386Y87795D02*
D03*
Y88977D02*
D03*
X264469Y87205D02*
D03*
Y88386D02*
D03*
Y89567D02*
D03*
X269882Y-15748D02*
D03*
Y-14567D02*
D03*
X268799Y-16339D02*
D03*
Y-15157D02*
D03*
Y-13976D02*
D03*
X262894D02*
D03*
X269882Y-22815D02*
D03*
Y-21634D02*
D03*
X268799Y-23405D02*
D03*
Y-22224D02*
D03*
Y-21043D02*
D03*
X262894Y-22224D02*
D03*
Y-21043D02*
D03*
X263976Y-29882D02*
D03*
Y-28701D02*
D03*
X262894Y-30472D02*
D03*
Y-29291D02*
D03*
Y-28110D02*
D03*
X270374Y-30472D02*
D03*
X269291Y-36949D02*
D03*
Y-35768D02*
D03*
X270374Y-37539D02*
D03*
Y-36358D02*
D03*
Y-35177D02*
D03*
X263976Y-36949D02*
D03*
Y-35768D02*
D03*
X262894Y-37539D02*
D03*
Y-36358D02*
D03*
Y-35177D02*
D03*
X263976Y-44016D02*
D03*
Y-42834D02*
D03*
X262894Y-44606D02*
D03*
Y-43425D02*
D03*
Y-42244D02*
D03*
X269291Y-44016D02*
D03*
Y-42834D02*
D03*
X270374Y-44606D02*
D03*
Y-43425D02*
D03*
Y-42244D02*
D03*
X269291Y-51083D02*
D03*
Y-49902D02*
D03*
X270374Y-51673D02*
D03*
Y-50492D02*
D03*
Y-49311D02*
D03*
X263976Y-51083D02*
D03*
Y-49902D02*
D03*
X262894Y-51673D02*
D03*
Y-50492D02*
D03*
Y-49311D02*
D03*
X269291Y-58149D02*
D03*
Y-56968D02*
D03*
X270374Y-58740D02*
D03*
Y-57559D02*
D03*
Y-56378D02*
D03*
X263976Y-58149D02*
D03*
Y-56968D02*
D03*
X262894Y-58740D02*
D03*
Y-57559D02*
D03*
Y-56378D02*
D03*
X269291Y-65216D02*
D03*
Y-64035D02*
D03*
X270374Y-65807D02*
D03*
Y-64626D02*
D03*
Y-63445D02*
D03*
X263976Y-65216D02*
D03*
Y-64035D02*
D03*
X262894Y-65807D02*
D03*
Y-64626D02*
D03*
Y-63445D02*
D03*
X269291Y-72283D02*
D03*
Y-71102D02*
D03*
X270374Y-72874D02*
D03*
Y-71693D02*
D03*
Y-70512D02*
D03*
X263976Y-72283D02*
D03*
Y-71102D02*
D03*
X262894Y-72874D02*
D03*
Y-71693D02*
D03*
Y-70512D02*
D03*
X268799Y-77579D02*
D03*
X263976Y-78169D02*
D03*
Y-86417D02*
D03*
Y-85236D02*
D03*
X262894Y-87008D02*
D03*
Y-85827D02*
D03*
Y-84645D02*
D03*
X269882Y-101968D02*
D03*
X268799Y-101378D02*
D03*
X275492Y-156004D02*
D03*
X276673D02*
D03*
X277854D02*
D03*
X276082Y-154921D02*
D03*
X277264D02*
D03*
X275492Y-161909D02*
D03*
X276673D02*
D03*
X277854D02*
D03*
X276082Y-160827D02*
D03*
X277264D02*
D03*
X267716Y-156004D02*
D03*
X268898D02*
D03*
X268307Y-154921D02*
D03*
X30709Y125000D02*
D03*
X27657D02*
D03*
X22383Y119742D02*
D03*
X22679Y121711D02*
D03*
Y117774D02*
D03*
X75981Y134225D02*
D03*
X80315Y138681D02*
D03*
Y125886D02*
D03*
X82283Y138681D02*
D03*
Y131004D02*
D03*
Y128445D02*
D03*
Y125886D02*
D03*
X98878Y128445D02*
D03*
Y131004D02*
D03*
Y133563D02*
D03*
Y136122D02*
D03*
Y138681D02*
D03*
X96909Y128445D02*
D03*
Y131004D02*
D03*
Y133563D02*
D03*
Y136122D02*
D03*
Y138681D02*
D03*
X124311Y138976D02*
D03*
X103445Y137402D02*
D03*
X104823D02*
D03*
X104134Y136417D02*
D03*
X103445Y135433D02*
D03*
X104823D02*
D03*
X109823D02*
D03*
X108445D02*
D03*
X109134Y136417D02*
D03*
X109823Y137402D02*
D03*
X108445D02*
D03*
X113445Y135433D02*
D03*
X114134Y136417D02*
D03*
X114823Y137402D02*
D03*
X113445D02*
D03*
X118445Y135433D02*
D03*
X119134Y136417D02*
D03*
X119823Y137402D02*
D03*
X118445D02*
D03*
X108686Y116240D02*
D03*
X105610Y127559D02*
D03*
X117913Y119144D02*
D03*
Y124754D02*
D03*
X125665Y127957D02*
D03*
X127633D02*
D03*
X125665Y125398D02*
D03*
X127633D02*
D03*
X125665Y120280D02*
D03*
X144956Y122839D02*
D03*
X142988D02*
D03*
X144956Y125398D02*
D03*
X142988D02*
D03*
X144956Y127957D02*
D03*
X142988D02*
D03*
X141929Y136516D02*
D03*
Y134055D02*
D03*
Y135285D02*
D03*
Y132776D02*
D03*
X143110Y135285D02*
D03*
Y134055D02*
D03*
Y132776D02*
D03*
Y136516D02*
D03*
X150984D02*
D03*
Y132776D02*
D03*
Y134055D02*
D03*
Y135285D02*
D03*
X152165Y132776D02*
D03*
Y135285D02*
D03*
Y134055D02*
D03*
Y136516D02*
D03*
X132480Y138681D02*
D03*
Y137484D02*
D03*
Y136286D02*
D03*
Y135089D02*
D03*
Y133891D02*
D03*
Y132694D02*
D03*
Y131496D02*
D03*
X133563Y138091D02*
D03*
Y132087D02*
D03*
X34252Y-98327D02*
D03*
X32972Y-91634D02*
D03*
X38386Y-98327D02*
D03*
X47047Y-98327D02*
D03*
X12697Y-45318D02*
D03*
X13484Y-52756D02*
D03*
Y-54724D02*
D03*
X18602D02*
D03*
Y-52756D02*
D03*
X16043Y-62205D02*
D03*
Y-60236D02*
D03*
X15551Y-94656D02*
D03*
Y-92687D02*
D03*
X18110Y-94656D02*
D03*
Y-92687D02*
D03*
X20669Y-94656D02*
D03*
X23228D02*
D03*
Y-92687D02*
D03*
X28100Y-94669D02*
D03*
X28346Y-109282D02*
D03*
Y-111250D02*
D03*
X25787Y-109282D02*
D03*
Y-111250D02*
D03*
X23228Y-109282D02*
D03*
Y-111250D02*
D03*
X15551Y-109282D02*
D03*
Y-111250D02*
D03*
X31398Y-116634D02*
D03*
X49705Y-96358D02*
D03*
X50492Y-97539D02*
D03*
Y-93602D02*
D03*
X49705Y-92421D02*
D03*
X33662Y-102953D02*
D03*
X35630Y-104921D02*
D03*
X42323D02*
D03*
X40355Y-102953D02*
D03*
X53544D02*
D03*
X55512Y-104921D02*
D03*
X48819D02*
D03*
X46851Y-102953D02*
D03*
X48819Y-112205D02*
D03*
X50787Y-110237D02*
D03*
Y-116930D02*
D03*
X48819Y-118898D02*
D03*
X44390Y-46606D02*
D03*
X46949D02*
D03*
X44390Y-44637D02*
D03*
X46949D02*
D03*
X49508D02*
D03*
X52067Y-61960D02*
D03*
X46949D02*
D03*
X44390D02*
D03*
X52067Y-63929D02*
D03*
X46949D02*
D03*
X44390D02*
D03*
X36614Y-111221D02*
D03*
X39173D02*
D03*
X36614Y-109252D02*
D03*
X39173D02*
D03*
X41732Y-126575D02*
D03*
X39173D02*
D03*
X36614D02*
D03*
X41732Y-128543D02*
D03*
X39173D02*
D03*
X36614D02*
D03*
X55020Y-124114D02*
D03*
X56201Y-123327D02*
D03*
X52264D02*
D03*
X51083Y-124114D02*
D03*
X41240Y-76614D02*
D03*
Y-75236D02*
D03*
X42224Y-75925D02*
D03*
X43209Y-76614D02*
D03*
Y-75236D02*
D03*
X41240Y-81614D02*
D03*
Y-80236D02*
D03*
X42224Y-80925D02*
D03*
X43209Y-81614D02*
D03*
Y-80236D02*
D03*
X41240Y-86614D02*
D03*
Y-85236D02*
D03*
X42224Y-85925D02*
D03*
X43209Y-86614D02*
D03*
Y-85236D02*
D03*
X34055Y-70374D02*
D03*
Y-71752D02*
D03*
X33071Y-71063D02*
D03*
X32087Y-70374D02*
D03*
Y-71752D02*
D03*
X34055Y-75374D02*
D03*
Y-76752D02*
D03*
X33071Y-76063D02*
D03*
X32087Y-75374D02*
D03*
Y-76752D02*
D03*
X34055Y-80374D02*
D03*
Y-81752D02*
D03*
X33071Y-81063D02*
D03*
X32087Y-80374D02*
D03*
Y-81752D02*
D03*
X34055Y-85374D02*
D03*
Y-86752D02*
D03*
X33071Y-86063D02*
D03*
X32087Y-85374D02*
D03*
Y-86752D02*
D03*
X53592Y-72490D02*
D03*
X59203D02*
D03*
X50787Y-84793D02*
D03*
X62106Y-81717D02*
D03*
X50787Y-78642D02*
D03*
Y-72490D02*
D03*
X62008D02*
D03*
X56398D02*
D03*
Y-78642D02*
D03*
Y-84793D02*
D03*
X62008D02*
D03*
Y-78642D02*
D03*
X53592Y-78642D02*
D03*
X59203D02*
D03*
X56398Y-75566D02*
D03*
Y-81717D02*
D03*
X53592Y-84793D02*
D03*
X50787Y-81717D02*
D03*
Y-75566D02*
D03*
X59203Y-84793D02*
D03*
X62008Y-75566D02*
D03*
X16191Y-72490D02*
D03*
X21801D02*
D03*
X13386Y-84793D02*
D03*
X24705Y-81717D02*
D03*
X13386Y-78642D02*
D03*
Y-72490D02*
D03*
X24606D02*
D03*
X18996D02*
D03*
Y-78642D02*
D03*
Y-84793D02*
D03*
X24606D02*
D03*
Y-78642D02*
D03*
X16191Y-78642D02*
D03*
X21801D02*
D03*
X18996Y-75566D02*
D03*
Y-81717D02*
D03*
X16191Y-84793D02*
D03*
X13386Y-81717D02*
D03*
Y-75566D02*
D03*
X21801Y-84793D02*
D03*
X24606Y-75566D02*
D03*
X56496Y-117421D02*
D03*
X55315Y-118209D02*
D03*
X56496Y-110728D02*
D03*
X55315Y-111516D02*
D03*
X30807Y-36417D02*
D03*
Y-40157D02*
D03*
Y-38878D02*
D03*
Y-37648D02*
D03*
X29626Y-40157D02*
D03*
Y-37648D02*
D03*
Y-38878D02*
D03*
Y-36417D02*
D03*
X43602Y-36417D02*
D03*
Y-40157D02*
D03*
Y-38878D02*
D03*
Y-37648D02*
D03*
X42421Y-40157D02*
D03*
Y-37648D02*
D03*
Y-38878D02*
D03*
Y-36417D02*
D03*
X33666Y-50961D02*
D03*
X34863D02*
D03*
X36061D02*
D03*
X37258D02*
D03*
X38456D02*
D03*
X39653D02*
D03*
X40851D02*
D03*
X34256Y-52043D02*
D03*
X40260D02*
D03*
Y-56522D02*
D03*
X34256D02*
D03*
X40851Y-57605D02*
D03*
X39653D02*
D03*
X38456D02*
D03*
X37258D02*
D03*
X36061D02*
D03*
X34863D02*
D03*
X33666D02*
D03*
X34252Y-91634D02*
D03*
X32972Y-98327D02*
D03*
X37106Y-98327D02*
D03*
X38484Y-91634D02*
D03*
X45866Y-91634D02*
D03*
X47047Y-91634D02*
D03*
X45866Y-98327D02*
D03*
X51476Y-36417D02*
D03*
Y-40157D02*
D03*
Y-38878D02*
D03*
Y-37648D02*
D03*
X52657Y-40157D02*
D03*
Y-37648D02*
D03*
Y-38878D02*
D03*
Y-36417D02*
D03*
X39862Y-36417D02*
D03*
Y-38878D02*
D03*
Y-37648D02*
D03*
Y-40157D02*
D03*
X38681Y-37648D02*
D03*
Y-38878D02*
D03*
Y-40157D02*
D03*
Y-36417D02*
D03*
X12697Y-43940D02*
D03*
X19390Y-45318D02*
D03*
Y-43940D02*
D03*
Y-47582D02*
D03*
X19291Y-48763D02*
D03*
X12697Y-47582D02*
D03*
X12795Y-48763D02*
D03*
X55512Y-49606D02*
D03*
X55413Y-48425D02*
D03*
X62008Y-49606D02*
D03*
X62106Y-48425D02*
D03*
X62008Y-52953D02*
D03*
X62106Y-51772D02*
D03*
X55512Y-56299D02*
D03*
X55413Y-55118D02*
D03*
X62008Y-56299D02*
D03*
X62106Y-55118D02*
D03*
X55512Y-59842D02*
D03*
X55413Y-58661D02*
D03*
X62008Y-59842D02*
D03*
X62106Y-58661D02*
D03*
X29331Y-64567D02*
D03*
X29232Y-63386D02*
D03*
X35827Y-64567D02*
D03*
X35925Y-63386D02*
D03*
X14567Y-115847D02*
D03*
X13386Y-115945D02*
D03*
X18161Y-115847D02*
D03*
X16783D02*
D03*
X21850Y-122539D02*
D03*
Y-116535D02*
D03*
X20472D02*
D03*
X24165Y-122539D02*
D03*
X25543Y-116535D02*
D03*
X24165D02*
D03*
X29232Y-115847D02*
D03*
X27854D02*
D03*
X13976Y131693D02*
D03*
X131201Y74803D02*
D03*
X129921D02*
D03*
X133268Y74803D02*
D03*
X134449Y74902D02*
D03*
X133268Y81398D02*
D03*
X134449Y81496D02*
D03*
X84456Y77276D02*
D03*
X83275Y77178D02*
D03*
X93936D02*
D03*
X95216D02*
D03*
X136417Y74803D02*
D03*
X137598Y74902D02*
D03*
X125566Y90556D02*
D03*
X127535D02*
D03*
X140748Y81496D02*
D03*
X139567Y74803D02*
D03*
X140748Y74902D02*
D03*
X80216Y103839D02*
D03*
X82185D02*
D03*
X150886Y97933D02*
D03*
Y99213D02*
D03*
Y100443D02*
D03*
X152067Y97933D02*
D03*
Y99213D02*
D03*
Y100443D02*
D03*
X150886Y101673D02*
D03*
X152067D02*
D03*
X136959Y98438D02*
D03*
Y97244D02*
D03*
Y99631D02*
D03*
X138042Y96653D02*
D03*
Y97851D02*
D03*
Y99049D02*
D03*
X136959Y100837D02*
D03*
Y102042D02*
D03*
X138042Y100246D02*
D03*
Y102641D02*
D03*
Y101444D02*
D03*
X136959Y103248D02*
D03*
X138042Y103839D02*
D03*
X142889Y93115D02*
D03*
X141831Y99213D02*
D03*
Y97933D02*
D03*
X143012D02*
D03*
Y99213D02*
D03*
X141831Y100443D02*
D03*
Y101673D02*
D03*
X143012Y100443D02*
D03*
Y101673D02*
D03*
X93838Y83674D02*
D03*
X95117D02*
D03*
X96811Y96161D02*
D03*
X98779D02*
D03*
X125787Y104134D02*
D03*
X118347Y100591D02*
D03*
X119035Y101575D02*
D03*
X118347Y102559D02*
D03*
X124213Y97441D02*
D03*
X125787Y97441D02*
D03*
X119724Y100591D02*
D03*
Y102559D02*
D03*
X113347Y100591D02*
D03*
X114035Y101575D02*
D03*
X114724Y100591D02*
D03*
X113347Y102559D02*
D03*
X114724D02*
D03*
X108346Y101181D02*
D03*
X109724Y100000D02*
D03*
X108346D02*
D03*
X96811Y98721D02*
D03*
X98779D02*
D03*
X103347Y100591D02*
D03*
X104724D02*
D03*
X103347Y102559D02*
D03*
X104035Y101575D02*
D03*
X104724Y102559D02*
D03*
X131299Y79528D02*
D03*
X129724Y81496D02*
D03*
X125566Y93115D02*
D03*
X127535D02*
D03*
X132382Y97851D02*
D03*
Y99049D02*
D03*
Y96653D02*
D03*
X133465Y97244D02*
D03*
Y98438D02*
D03*
Y99631D02*
D03*
X132382Y101444D02*
D03*
Y100246D02*
D03*
X133465Y100837D02*
D03*
Y102042D02*
D03*
X132382Y102641D02*
D03*
Y103839D02*
D03*
X133465Y103248D02*
D03*
X142889Y87997D02*
D03*
Y90556D02*
D03*
X144858Y87997D02*
D03*
Y90556D02*
D03*
X80216Y91043D02*
D03*
X82185D02*
D03*
X80216Y93602D02*
D03*
X82185D02*
D03*
X80216Y96161D02*
D03*
X82185D02*
D03*
X96811Y93602D02*
D03*
X98583D02*
D03*
X98779Y101279D02*
D03*
X96811D02*
D03*
Y103839D02*
D03*
X98779D02*
D03*
X130118Y39764D02*
D03*
X134646Y39862D02*
D03*
X83335Y49577D02*
D03*
X84517Y49479D02*
D03*
X84517Y43180D02*
D03*
X83335Y43081D02*
D03*
X93997D02*
D03*
X95276D02*
D03*
X136614Y39764D02*
D03*
X137795Y39862D02*
D03*
X125763Y55516D02*
D03*
X140945Y46457D02*
D03*
X139764Y39764D02*
D03*
X140945Y39862D02*
D03*
X76098Y63627D02*
D03*
X80413Y68799D02*
D03*
X82382D02*
D03*
X69573Y63627D02*
D03*
X151083Y64173D02*
D03*
X152264Y62894D02*
D03*
Y64173D02*
D03*
Y65404D02*
D03*
X151083Y66634D02*
D03*
Y65404D02*
D03*
X152264Y66634D02*
D03*
X137156Y63398D02*
D03*
Y62205D02*
D03*
Y64592D02*
D03*
X138239Y61614D02*
D03*
Y62812D02*
D03*
Y64009D02*
D03*
X137156Y65797D02*
D03*
Y67003D02*
D03*
X138239Y65207D02*
D03*
Y67602D02*
D03*
Y66404D02*
D03*
X137156Y68209D02*
D03*
X138239Y68799D02*
D03*
X143086Y58075D02*
D03*
X145054D02*
D03*
X142027Y64173D02*
D03*
Y62894D02*
D03*
X143209D02*
D03*
Y64173D02*
D03*
X142027Y65404D02*
D03*
Y66634D02*
D03*
X143209Y65404D02*
D03*
Y66634D02*
D03*
X93899Y49577D02*
D03*
X95178D02*
D03*
X97008Y61122D02*
D03*
X98976D02*
D03*
X124409Y69095D02*
D03*
X125984Y69095D02*
D03*
X118543Y65551D02*
D03*
X119232Y66535D02*
D03*
X118543Y67520D02*
D03*
X124409Y62401D02*
D03*
X125984Y62402D02*
D03*
X119921Y65551D02*
D03*
Y67520D02*
D03*
X114232Y66535D02*
D03*
X113543Y67520D02*
D03*
X114921D02*
D03*
X108543D02*
D03*
X109921Y65551D02*
D03*
X108543D02*
D03*
X109232Y66535D02*
D03*
X109921Y67520D02*
D03*
X97008Y63681D02*
D03*
X98976D02*
D03*
X103543Y65551D02*
D03*
X104921D02*
D03*
X103543Y67520D02*
D03*
X104232Y66535D02*
D03*
X104921Y67520D02*
D03*
X75942Y48809D02*
D03*
X69302Y53137D02*
D03*
X125763Y50398D02*
D03*
Y58075D02*
D03*
X127732D02*
D03*
X132579Y62812D02*
D03*
Y64009D02*
D03*
Y61614D02*
D03*
X133661Y62205D02*
D03*
Y63398D02*
D03*
Y64592D02*
D03*
X132579Y66404D02*
D03*
Y65207D02*
D03*
X133661Y65797D02*
D03*
Y67003D02*
D03*
X132579Y67602D02*
D03*
Y68799D02*
D03*
X133661Y68209D02*
D03*
X143086Y52957D02*
D03*
X145054D02*
D03*
Y55516D02*
D03*
X143086D02*
D03*
X80413Y56004D02*
D03*
X82382D02*
D03*
Y58563D02*
D03*
X80413D02*
D03*
Y61122D02*
D03*
X82382D02*
D03*
X97008Y58563D02*
D03*
X98976D02*
D03*
Y66240D02*
D03*
X97008D02*
D03*
Y68799D02*
D03*
X98976D02*
D03*
X131201Y5020D02*
D03*
X129921D02*
D03*
X133268Y5020D02*
D03*
X134449Y5118D02*
D03*
X133268Y11614D02*
D03*
X134449Y11713D02*
D03*
X83291Y14774D02*
D03*
X84472Y14676D02*
D03*
X84473Y8376D02*
D03*
X83291Y8278D02*
D03*
X93953D02*
D03*
X95232D02*
D03*
X136417Y5020D02*
D03*
X137598Y5118D02*
D03*
X139567Y11614D02*
D03*
X127535Y20772D02*
D03*
X140748Y11713D02*
D03*
X139567Y5020D02*
D03*
X140748Y5118D02*
D03*
X75755Y29524D02*
D03*
X80216Y34055D02*
D03*
X82185D02*
D03*
X69329Y30705D02*
D03*
X69428Y29524D02*
D03*
X152067Y28150D02*
D03*
X150886D02*
D03*
Y29429D02*
D03*
X152067D02*
D03*
X150886Y31890D02*
D03*
Y30659D02*
D03*
X152067D02*
D03*
Y31890D02*
D03*
X136959Y28654D02*
D03*
Y27461D02*
D03*
Y29847D02*
D03*
X138042Y26870D02*
D03*
Y28068D02*
D03*
Y29265D02*
D03*
X136959Y31053D02*
D03*
Y32259D02*
D03*
X138042Y30463D02*
D03*
Y32858D02*
D03*
Y31660D02*
D03*
X136959Y33465D02*
D03*
X138042Y34055D02*
D03*
X142889Y23331D02*
D03*
X144858D02*
D03*
X141831Y29429D02*
D03*
Y28150D02*
D03*
X143012Y29429D02*
D03*
X141831Y30659D02*
D03*
Y31890D02*
D03*
X143012Y30659D02*
D03*
Y31890D02*
D03*
X93854Y14774D02*
D03*
X95134D02*
D03*
X96811Y26378D02*
D03*
X98779D02*
D03*
X125787Y34350D02*
D03*
X118347Y30807D02*
D03*
X119035Y31791D02*
D03*
X118347Y32776D02*
D03*
X124213Y27657D02*
D03*
X125787Y27657D02*
D03*
X119724Y30807D02*
D03*
Y32776D02*
D03*
X114035Y31791D02*
D03*
X113347Y32776D02*
D03*
X114724D02*
D03*
X108346D02*
D03*
X109724Y30807D02*
D03*
X108346D02*
D03*
X109035Y31791D02*
D03*
X109724Y32776D02*
D03*
X96811Y28937D02*
D03*
X98779D02*
D03*
X103347Y30807D02*
D03*
X104724D02*
D03*
X103347Y32776D02*
D03*
X104035Y31791D02*
D03*
X104724Y32776D02*
D03*
X69248Y18540D02*
D03*
X125566Y15654D02*
D03*
X127535D02*
D03*
X131299Y9744D02*
D03*
X129724Y11713D02*
D03*
X127535Y23331D02*
D03*
X132382Y28068D02*
D03*
Y29265D02*
D03*
Y26870D02*
D03*
X133465Y27461D02*
D03*
Y28654D02*
D03*
Y29847D02*
D03*
X132382Y31660D02*
D03*
Y30463D02*
D03*
X133465Y31053D02*
D03*
Y32259D02*
D03*
X132382Y32858D02*
D03*
Y34055D02*
D03*
X133465Y33465D02*
D03*
X142889Y18213D02*
D03*
X144858D02*
D03*
Y20772D02*
D03*
X80216Y21260D02*
D03*
X82185D02*
D03*
X80216Y23819D02*
D03*
X82185D02*
D03*
X80216Y26378D02*
D03*
X82185D02*
D03*
X98779Y23819D02*
D03*
X96811D02*
D03*
X98779Y31496D02*
D03*
X96811D02*
D03*
Y34055D02*
D03*
X98779D02*
D03*
X133268Y-29724D02*
D03*
X134449Y-29626D02*
D03*
X133268Y-23130D02*
D03*
X134449Y-23031D02*
D03*
X83247Y-20026D02*
D03*
X84428Y-20124D02*
D03*
X84428Y-26424D02*
D03*
X83247Y-26522D02*
D03*
X93909D02*
D03*
X95188D02*
D03*
X136417Y-29724D02*
D03*
X137598Y-29626D02*
D03*
X125566Y-13972D02*
D03*
X127535D02*
D03*
X139567Y-23130D02*
D03*
X140748Y-23031D02*
D03*
X139567Y-29724D02*
D03*
X140748Y-29626D02*
D03*
X75906Y-5276D02*
D03*
X80216Y-689D02*
D03*
X82185D02*
D03*
X69482Y-5276D02*
D03*
X152067Y-6594D02*
D03*
X150886D02*
D03*
Y-5315D02*
D03*
X152067D02*
D03*
X150886Y-4085D02*
D03*
Y-2854D02*
D03*
X152067Y-4085D02*
D03*
Y-2854D02*
D03*
X136959Y-6090D02*
D03*
Y-7283D02*
D03*
Y-4897D02*
D03*
X138042Y-7874D02*
D03*
Y-6677D02*
D03*
Y-5479D02*
D03*
X136959Y-3691D02*
D03*
Y-2485D02*
D03*
X138042Y-4281D02*
D03*
Y-1887D02*
D03*
Y-3084D02*
D03*
X136959Y-1280D02*
D03*
X138042Y-689D02*
D03*
X142889Y-11413D02*
D03*
X144858D02*
D03*
X141831Y-5315D02*
D03*
Y-6594D02*
D03*
X143012D02*
D03*
Y-5315D02*
D03*
X141831Y-4085D02*
D03*
Y-2854D02*
D03*
X143012Y-4085D02*
D03*
Y-2854D02*
D03*
X93710Y-19926D02*
D03*
X96811Y-8366D02*
D03*
X124213Y-394D02*
D03*
X125787Y-394D02*
D03*
X118347Y-3937D02*
D03*
X119035Y-2953D02*
D03*
X118347Y-1969D02*
D03*
X124213Y-6102D02*
D03*
X125787Y-6102D02*
D03*
X119724Y-3937D02*
D03*
Y-1969D02*
D03*
X113347Y-3937D02*
D03*
X114035Y-2953D02*
D03*
X114724Y-3937D02*
D03*
X113347Y-1969D02*
D03*
X114724D02*
D03*
X108346D02*
D03*
X109724Y-3937D02*
D03*
X108346D02*
D03*
X109035Y-2953D02*
D03*
X109724Y-1969D02*
D03*
X96811Y-5807D02*
D03*
X98779D02*
D03*
X103347Y-3937D02*
D03*
X104724D02*
D03*
X103347Y-1969D02*
D03*
X104035Y-2953D02*
D03*
X104724Y-1969D02*
D03*
X69294Y-16360D02*
D03*
X125566Y-19090D02*
D03*
X127535D02*
D03*
X131299Y-25000D02*
D03*
X129724Y-23031D02*
D03*
X126944Y-11413D02*
D03*
X128125D02*
D03*
X132382Y-6677D02*
D03*
Y-5479D02*
D03*
Y-7874D02*
D03*
X133465Y-7283D02*
D03*
Y-6090D02*
D03*
Y-4897D02*
D03*
X132382Y-3084D02*
D03*
Y-4281D02*
D03*
X133465Y-3691D02*
D03*
Y-2485D02*
D03*
X132382Y-1887D02*
D03*
Y-689D02*
D03*
X133465Y-1280D02*
D03*
X142889Y-16531D02*
D03*
Y-13972D02*
D03*
X144858Y-16531D02*
D03*
Y-13972D02*
D03*
X81299Y-13287D02*
D03*
X80118Y-10925D02*
D03*
X81299D02*
D03*
X98779D02*
D03*
Y-3248D02*
D03*
X96811D02*
D03*
Y-689D02*
D03*
X98779D02*
D03*
X111762Y87106D02*
D03*
Y51772D02*
D03*
Y17421D02*
D03*
Y-17520D02*
D03*
X117913Y89911D02*
D03*
Y84301D02*
D03*
X108686Y81398D02*
D03*
X111762Y92716D02*
D03*
X117913D02*
D03*
Y81496D02*
D03*
Y87106D02*
D03*
X105610D02*
D03*
Y81496D02*
D03*
X111762D02*
D03*
X111762Y89911D02*
D03*
Y84301D02*
D03*
X114838Y87106D02*
D03*
X108686D02*
D03*
X105610Y89911D02*
D03*
X108686Y92716D02*
D03*
X114838D02*
D03*
X105610Y84301D02*
D03*
X114838Y81496D02*
D03*
X117913Y54577D02*
D03*
Y48967D02*
D03*
X105610Y57382D02*
D03*
X108686Y46063D02*
D03*
X111762Y57382D02*
D03*
X117913D02*
D03*
Y51772D02*
D03*
X105610D02*
D03*
Y46161D02*
D03*
X111762D02*
D03*
X111762Y54577D02*
D03*
Y48967D02*
D03*
X114838Y51772D02*
D03*
X108686D02*
D03*
X105610Y54577D02*
D03*
X108686Y57382D02*
D03*
X114838D02*
D03*
X105610Y48967D02*
D03*
X114838Y46161D02*
D03*
X117913Y20226D02*
D03*
Y14616D02*
D03*
X105610Y23031D02*
D03*
X108686Y11713D02*
D03*
X111762Y23031D02*
D03*
X117913D02*
D03*
Y11811D02*
D03*
X105610Y17421D02*
D03*
Y11811D02*
D03*
X111762D02*
D03*
X111762Y20226D02*
D03*
Y14616D02*
D03*
X108686Y17421D02*
D03*
X105610Y20226D02*
D03*
X108686Y23031D02*
D03*
X114838D02*
D03*
X105610Y14616D02*
D03*
X114838Y11811D02*
D03*
X117913Y-14715D02*
D03*
Y-20325D02*
D03*
X111762Y-11909D02*
D03*
X117913D02*
D03*
Y-23130D02*
D03*
Y-17520D02*
D03*
X105610Y-23130D02*
D03*
X111762D02*
D03*
X111762Y-14715D02*
D03*
Y-20325D02*
D03*
X114838Y-17520D02*
D03*
X108686D02*
D03*
X105610Y-14715D02*
D03*
X108686Y-11909D02*
D03*
X114838D02*
D03*
X105610Y-20325D02*
D03*
X127732Y55516D02*
D03*
Y50398D02*
D03*
X134646Y46457D02*
D03*
X139764Y46358D02*
D03*
X133465Y46358D02*
D03*
X131496Y44488D02*
D03*
X129921Y46457D02*
D03*
X133465Y39764D02*
D03*
X131398Y39764D02*
D03*
X80118Y-13287D02*
D03*
X113543Y65551D02*
D03*
X114173Y64468D02*
D03*
X117913Y46161D02*
D03*
X27559Y50098D02*
D03*
X28642Y56004D02*
D03*
Y48130D02*
D03*
X27461Y54035D02*
D03*
X26280Y52067D02*
D03*
X27461D02*
D03*
X28642Y54035D02*
D03*
X27461Y48130D02*
D03*
X42028Y61614D02*
D03*
Y60433D02*
D03*
X36909Y61614D02*
D03*
Y60433D02*
D03*
X28937D02*
D03*
Y61614D02*
D03*
X33957Y60433D02*
D03*
Y61614D02*
D03*
X20965Y60433D02*
D03*
Y61614D02*
D03*
X26083Y60433D02*
D03*
Y61614D02*
D03*
X44587Y48127D02*
D03*
X44390Y56004D02*
D03*
Y54035D02*
D03*
X11909Y57579D02*
D03*
X13091D02*
D03*
Y53461D02*
D03*
X16437Y57579D02*
D03*
Y52461D02*
D03*
X17618D02*
D03*
X20965Y57579D02*
D03*
X22146D02*
D03*
X20965Y52461D02*
D03*
X22146D02*
D03*
X27461Y56004D02*
D03*
X176004Y97146D02*
D03*
X178563D02*
D03*
X181122Y79823D02*
D03*
X176004D02*
D03*
X181122Y78642D02*
D03*
X176004D02*
D03*
X169980Y33927D02*
D03*
X162303Y33632D02*
D03*
Y32451D02*
D03*
X172539D02*
D03*
X175098D02*
D03*
X172539Y33632D02*
D03*
X175098Y49045D02*
D03*
X162303D02*
D03*
X164862D02*
D03*
X167421D02*
D03*
X169980D02*
D03*
X162303Y50226D02*
D03*
X164862D02*
D03*
X167421D02*
D03*
X169980D02*
D03*
X191142Y97441D02*
D03*
Y96161D02*
D03*
X184449Y97342D02*
D03*
Y96063D02*
D03*
X184449Y92323D02*
D03*
Y93602D02*
D03*
X191142Y92421D02*
D03*
Y93701D02*
D03*
X184547Y88878D02*
D03*
X184449Y90059D02*
D03*
X190748Y90059D02*
D03*
X189469D02*
D03*
X184449Y78543D02*
D03*
Y79823D02*
D03*
X191142Y78642D02*
D03*
Y79921D02*
D03*
X189764Y85532D02*
D03*
X191043D02*
D03*
X191043Y83366D02*
D03*
X191142Y82185D02*
D03*
X184449Y83366D02*
D03*
X184547Y82185D02*
D03*
X165178Y28445D02*
D03*
X166359Y28543D02*
D03*
X165178Y21850D02*
D03*
X166359Y21949D02*
D03*
X172888Y28445D02*
D03*
X174069Y28543D02*
D03*
X172888Y21850D02*
D03*
X174069Y21949D02*
D03*
X181779Y28543D02*
D03*
X180598Y21850D02*
D03*
X181779Y21949D02*
D03*
X188386Y51083D02*
D03*
X189567Y51181D02*
D03*
X189600Y44819D02*
D03*
X161221Y77461D02*
D03*
Y78740D02*
D03*
X167913Y77559D02*
D03*
Y78839D02*
D03*
X180905Y51181D02*
D03*
X179626D02*
D03*
X170116Y21850D02*
D03*
X168836D02*
D03*
X170017Y28543D02*
D03*
X168738D02*
D03*
X177826Y21850D02*
D03*
X176546D02*
D03*
X177727Y28543D02*
D03*
X176448D02*
D03*
X185536Y21850D02*
D03*
X184256D02*
D03*
X185531Y44488D02*
D03*
X184252D02*
D03*
X185433Y51181D02*
D03*
X184153D02*
D03*
X188927Y36614D02*
D03*
X182726Y34055D02*
D03*
X181447D02*
D03*
X182726Y39173D02*
D03*
X181447D02*
D03*
X163311Y86146D02*
D03*
X162721Y85064D02*
D03*
X163918D02*
D03*
X164517Y86146D02*
D03*
X165723D02*
D03*
X166313Y85064D02*
D03*
X165116D02*
D03*
X166929Y86146D02*
D03*
X168122D02*
D03*
X169315D02*
D03*
X169906Y85064D02*
D03*
X167511D02*
D03*
X168708D02*
D03*
X173445Y79823D02*
D03*
Y78642D02*
D03*
Y97146D02*
D03*
Y95964D02*
D03*
X162721Y90724D02*
D03*
X163311Y89641D02*
D03*
X165116Y90724D02*
D03*
X163918D02*
D03*
X166313D02*
D03*
X164517Y89641D02*
D03*
X165723D02*
D03*
X167511Y90724D02*
D03*
X168708D02*
D03*
X169906D02*
D03*
X166929Y89641D02*
D03*
X169315D02*
D03*
X168122D02*
D03*
X186319Y66954D02*
D03*
X183514Y57726D02*
D03*
X175098Y66954D02*
D03*
Y60802D02*
D03*
X177903Y57726D02*
D03*
X180709Y60802D02*
D03*
Y66954D02*
D03*
X177903Y63878D02*
D03*
X186319Y63878D02*
D03*
Y57726D02*
D03*
X180709D02*
D03*
Y70029D02*
D03*
X175098D02*
D03*
Y63878D02*
D03*
X177903Y70029D02*
D03*
X180709Y63878D02*
D03*
X175098Y57726D02*
D03*
X164961Y72185D02*
D03*
X165945Y71496D02*
D03*
X164961Y70807D02*
D03*
X166929Y72185D02*
D03*
Y70807D02*
D03*
Y65807D02*
D03*
Y67185D02*
D03*
X164961Y65807D02*
D03*
X165945Y66496D02*
D03*
X164961Y67185D02*
D03*
X166929Y60807D02*
D03*
Y62185D02*
D03*
X164961Y60807D02*
D03*
X165945Y61496D02*
D03*
X164961Y62185D02*
D03*
X166929Y55807D02*
D03*
Y57185D02*
D03*
X164961Y55807D02*
D03*
X165945Y56496D02*
D03*
X164961Y57185D02*
D03*
X184158Y28543D02*
D03*
X180598Y28445D02*
D03*
X185437Y28543D02*
D03*
X169980Y32677D02*
D03*
X96953Y-10926D02*
D03*
X76575Y-107776D02*
D03*
X79134Y-105807D02*
D03*
X81693D02*
D03*
Y-107776D02*
D03*
X79134Y-123130D02*
D03*
X76575Y-74410D02*
D03*
Y-76378D02*
D03*
X79134Y-74410D02*
D03*
Y-76378D02*
D03*
X81693Y-74410D02*
D03*
Y-76378D02*
D03*
X79331Y-129429D02*
D03*
X74213Y-128248D02*
D03*
X74213Y-129429D02*
D03*
X79331Y-128248D02*
D03*
X77165Y-102854D02*
D03*
X82284Y-70276D02*
D03*
X77165Y-71457D02*
D03*
X77166Y-70276D02*
D03*
X82284Y-71457D02*
D03*
X74213Y-98032D02*
D03*
X75394Y-98032D02*
D03*
X82284Y-102854D02*
D03*
X34194Y125648D02*
D03*
Y123679D02*
D03*
Y121711D02*
D03*
Y119742D02*
D03*
Y117774D02*
D03*
Y115805D02*
D03*
X24352Y119742D02*
D03*
Y121711D02*
D03*
Y123679D02*
D03*
Y125648D02*
D03*
X42265Y127124D02*
D03*
X44193Y114567D02*
D03*
X40256D02*
D03*
X15256Y131693D02*
D03*
X20177Y131398D02*
D03*
X14764Y120727D02*
D03*
Y124664D02*
D03*
X51575Y124609D02*
D03*
Y122050D02*
D03*
X50394Y122047D02*
D03*
X219980Y-123524D02*
D03*
X219980Y-122343D02*
D03*
X218799Y-123524D02*
D03*
X218799Y-122343D02*
D03*
X217618Y-123524D02*
D03*
X217618Y-122343D02*
D03*
X216437Y-123524D02*
D03*
X216437Y-122343D02*
D03*
X215256Y-123524D02*
D03*
X215256Y-122343D02*
D03*
X214075Y-123524D02*
D03*
X214075Y-122343D02*
D03*
X212894D02*
D03*
X212894Y-123524D02*
D03*
X219980Y-127461D02*
D03*
X219980Y-126279D02*
D03*
X218799Y-127461D02*
D03*
X218799Y-126279D02*
D03*
X217618Y-127461D02*
D03*
X217618Y-126279D02*
D03*
X216437Y-127461D02*
D03*
X216437Y-126279D02*
D03*
X215256Y-127461D02*
D03*
X215256Y-126279D02*
D03*
X214075Y-127461D02*
D03*
X214075Y-126279D02*
D03*
X212894D02*
D03*
X212894Y-127461D02*
D03*
X245886Y-126319D02*
D03*
X245886Y-127500D02*
D03*
X247067Y-126319D02*
D03*
X247067Y-127500D02*
D03*
X248248Y-126319D02*
D03*
X248248Y-127500D02*
D03*
X249429Y-126319D02*
D03*
X249429Y-127500D02*
D03*
X250610Y-126319D02*
D03*
X250610Y-127500D02*
D03*
X251791Y-126319D02*
D03*
X251791Y-127500D02*
D03*
X252972D02*
D03*
X252972Y-126319D02*
D03*
Y-122382D02*
D03*
X252972Y-123563D02*
D03*
X251791D02*
D03*
X251791Y-122382D02*
D03*
X250610Y-123563D02*
D03*
X250610Y-122382D02*
D03*
X249429Y-123563D02*
D03*
X249429Y-122382D02*
D03*
X248248Y-123563D02*
D03*
X248248Y-122382D02*
D03*
X247067Y-123563D02*
D03*
X247067Y-122382D02*
D03*
X245886Y-123563D02*
D03*
X245886Y-122382D02*
D03*
X212894Y-115689D02*
D03*
X214075D02*
D03*
X219980D02*
D03*
X218799D02*
D03*
X219980Y-98760D02*
D03*
X219980Y-99941D02*
D03*
X218799D02*
D03*
X218799Y-98760D02*
D03*
X217618Y-99941D02*
D03*
X217618Y-98760D02*
D03*
X216437Y-99941D02*
D03*
X216437Y-98760D02*
D03*
X215256Y-99941D02*
D03*
X215256Y-98760D02*
D03*
X214075Y-99941D02*
D03*
X214075Y-98760D02*
D03*
X212894Y-99941D02*
D03*
X212894Y-98760D02*
D03*
X219980Y-106634D02*
D03*
X219980Y-107815D02*
D03*
X218799D02*
D03*
X218799Y-106634D02*
D03*
X217618Y-107815D02*
D03*
X217618Y-106634D02*
D03*
X216437Y-107815D02*
D03*
X216437Y-106634D02*
D03*
X215256Y-107815D02*
D03*
X215256Y-106634D02*
D03*
X214075Y-107815D02*
D03*
X214075Y-106634D02*
D03*
X212894Y-107815D02*
D03*
X212894Y-106634D02*
D03*
X219980Y-110571D02*
D03*
X219980Y-111752D02*
D03*
X218799D02*
D03*
X218799Y-110571D02*
D03*
X217618Y-111752D02*
D03*
X217618Y-110571D02*
D03*
X216437Y-111752D02*
D03*
X216437Y-110571D02*
D03*
X215256Y-111752D02*
D03*
X215256Y-110571D02*
D03*
X214075Y-111752D02*
D03*
X214075Y-110571D02*
D03*
X212894Y-111752D02*
D03*
X212894Y-110571D02*
D03*
X219980Y-114508D02*
D03*
X218799D02*
D03*
X217618Y-115689D02*
D03*
X217618Y-114508D02*
D03*
X216437Y-115689D02*
D03*
X216437Y-114508D02*
D03*
X215256Y-115689D02*
D03*
X215256Y-114508D02*
D03*
X214075D02*
D03*
X212894D02*
D03*
Y-118445D02*
D03*
X212894Y-119626D02*
D03*
X214075Y-118445D02*
D03*
X214075Y-119626D02*
D03*
X215256Y-118445D02*
D03*
X215256Y-119626D02*
D03*
X216437Y-118445D02*
D03*
X216437Y-119626D02*
D03*
X217618Y-118445D02*
D03*
X217618Y-119626D02*
D03*
X218799Y-118445D02*
D03*
X218799Y-119626D02*
D03*
X219980D02*
D03*
X219980Y-118445D02*
D03*
X252973Y-103839D02*
D03*
X251791D02*
D03*
X251791Y-102657D02*
D03*
X250610Y-103839D02*
D03*
X250610Y-102657D02*
D03*
X249429Y-103839D02*
D03*
X249429Y-102657D02*
D03*
X248248Y-103839D02*
D03*
X248248Y-102657D02*
D03*
X247067Y-103839D02*
D03*
X247067Y-102657D02*
D03*
X245886D02*
D03*
X245886Y-103839D02*
D03*
Y-99902D02*
D03*
X245886Y-98721D02*
D03*
X247067D02*
D03*
X247067Y-99902D02*
D03*
X248248Y-98721D02*
D03*
X248248Y-99902D02*
D03*
X249429Y-98721D02*
D03*
X249429Y-99902D02*
D03*
X250610Y-98721D02*
D03*
X251791D02*
D03*
X252973Y-111713D02*
D03*
X252972Y-110531D02*
D03*
X251791Y-111713D02*
D03*
X251791Y-110531D02*
D03*
X250610Y-111713D02*
D03*
X250610Y-110531D02*
D03*
X249429Y-111713D02*
D03*
X249429Y-110531D02*
D03*
X248248Y-111713D02*
D03*
X248248Y-110531D02*
D03*
X247067Y-111713D02*
D03*
X247067Y-110531D02*
D03*
X245886D02*
D03*
X245886Y-111713D02*
D03*
Y-107776D02*
D03*
X245886Y-106595D02*
D03*
X247067D02*
D03*
X247067Y-107776D02*
D03*
X248248Y-106595D02*
D03*
X248248Y-107776D02*
D03*
X249429Y-106595D02*
D03*
X249429Y-107776D02*
D03*
X250610Y-106595D02*
D03*
X250610Y-107776D02*
D03*
X251791Y-106595D02*
D03*
X251791Y-107776D02*
D03*
X252972Y-106595D02*
D03*
X252973Y-107776D02*
D03*
Y-115650D02*
D03*
X252972Y-114469D02*
D03*
X251791Y-115650D02*
D03*
X251791Y-114469D02*
D03*
X250610Y-115650D02*
D03*
X250610Y-114469D02*
D03*
X249429Y-115650D02*
D03*
X249429Y-114469D02*
D03*
X248248Y-115650D02*
D03*
X248248Y-114469D02*
D03*
X247067Y-115650D02*
D03*
X247067Y-114469D02*
D03*
X245886D02*
D03*
X245886Y-115650D02*
D03*
Y-119587D02*
D03*
X245886Y-118405D02*
D03*
X247067D02*
D03*
X247067Y-119587D02*
D03*
X248248Y-118405D02*
D03*
X248248Y-119587D02*
D03*
X249429Y-118405D02*
D03*
X249429Y-119587D02*
D03*
X250610Y-118405D02*
D03*
X250610Y-119587D02*
D03*
X251791Y-118405D02*
D03*
X251791Y-119587D02*
D03*
X252972Y-118405D02*
D03*
X252973Y-119587D02*
D03*
X-4528Y103543D02*
D03*
Y97638D02*
D03*
X252972Y-98721D02*
D03*
X268799Y-87008D02*
D03*
Y-84645D02*
D03*
Y-85827D02*
D03*
X269882Y-85236D02*
D03*
Y-86417D02*
D03*
X263976Y-79350D02*
D03*
X262894Y-77579D02*
D03*
Y-78760D02*
D03*
X268799D02*
D03*
Y-79941D02*
D03*
X269882Y-78169D02*
D03*
Y-79350D02*
D03*
X262894Y-79941D02*
D03*
X262787Y-101281D02*
D03*
X263870Y-100690D02*
D03*
X262787Y-102462D02*
D03*
X263870Y-101872D02*
D03*
X36163Y119742D02*
D03*
Y125648D02*
D03*
X31596Y116640D02*
D03*
X23860Y115805D02*
D03*
Y117774D02*
D03*
X114724Y30807D02*
D03*
X113347D02*
D03*
X74016Y-91732D02*
D03*
Y-92914D02*
D03*
X76575Y-91240D02*
D03*
Y-92421D02*
D03*
X79331Y-98032D02*
D03*
Y-96850D02*
D03*
X268898Y-161909D02*
D03*
X270079D02*
D03*
X268307Y-160827D02*
D03*
X269488D02*
D03*
X270079Y-156004D02*
D03*
X269488Y-154921D02*
D03*
X267716Y-161909D02*
D03*
X81693Y-92914D02*
D03*
X79134D02*
D03*
X81693Y-91732D02*
D03*
X79134D02*
D03*
X79134Y-125099D02*
D03*
X74016D02*
D03*
X81693Y-123130D02*
D03*
Y-125099D02*
D03*
X76575Y-123130D02*
D03*
Y-125099D02*
D03*
X74016Y-123130D02*
D03*
X219980Y-65295D02*
D03*
X219980Y-66476D02*
D03*
X218799D02*
D03*
X218799Y-65295D02*
D03*
X217618Y-66476D02*
D03*
X217618Y-65295D02*
D03*
X216437Y-66476D02*
D03*
X216437Y-65295D02*
D03*
X215256Y-66476D02*
D03*
X215256Y-65295D02*
D03*
X214075Y-66476D02*
D03*
X214075Y-65295D02*
D03*
X212894Y-66476D02*
D03*
X212894Y-65295D02*
D03*
Y-61358D02*
D03*
X214075D02*
D03*
X215256D02*
D03*
X215256Y-62539D02*
D03*
X216437Y-61358D02*
D03*
X216437Y-62539D02*
D03*
X217618Y-61358D02*
D03*
X217618Y-62539D02*
D03*
X218799Y-61358D02*
D03*
X219980D02*
D03*
X212894Y-57421D02*
D03*
X212894Y-58602D02*
D03*
X214075Y-57421D02*
D03*
X214075Y-58602D02*
D03*
X215256Y-57421D02*
D03*
X215256Y-58602D02*
D03*
X216437Y-57421D02*
D03*
X216437Y-58602D02*
D03*
X217618Y-57421D02*
D03*
X217618Y-58602D02*
D03*
X218799Y-57421D02*
D03*
X218799Y-58602D02*
D03*
X219980D02*
D03*
X219980Y-57421D02*
D03*
X212894Y-53484D02*
D03*
X212894Y-54665D02*
D03*
X214075Y-53484D02*
D03*
X214075Y-54665D02*
D03*
X215256Y-53484D02*
D03*
X215256Y-54665D02*
D03*
X216437Y-53484D02*
D03*
X216437Y-54665D02*
D03*
X217618Y-53484D02*
D03*
X217618Y-54665D02*
D03*
X218799Y-53484D02*
D03*
X218799Y-54665D02*
D03*
X219980D02*
D03*
X219980Y-53484D02*
D03*
X212894Y-49547D02*
D03*
X212894Y-50728D02*
D03*
X214075Y-49547D02*
D03*
X214075Y-50728D02*
D03*
X215256Y-49547D02*
D03*
X215256Y-50728D02*
D03*
X216437Y-49547D02*
D03*
X216437Y-50728D02*
D03*
X217618Y-49547D02*
D03*
X217618Y-50728D02*
D03*
X218799Y-49547D02*
D03*
X218799Y-50728D02*
D03*
X219980D02*
D03*
X219980Y-49547D02*
D03*
X212894Y-45610D02*
D03*
X212894Y-46791D02*
D03*
X214075Y-45610D02*
D03*
X214075Y-46791D02*
D03*
X215256Y-45610D02*
D03*
X215256Y-46791D02*
D03*
X216437Y-45610D02*
D03*
X216437Y-46791D02*
D03*
X217618Y-45610D02*
D03*
X217618Y-46791D02*
D03*
X218799Y-45610D02*
D03*
X218799Y-46791D02*
D03*
X219980D02*
D03*
X219980Y-45610D02*
D03*
X212894Y-41673D02*
D03*
X212894Y-42854D02*
D03*
X214075Y-41673D02*
D03*
X214075Y-42854D02*
D03*
X215256Y-41673D02*
D03*
X215256Y-42854D02*
D03*
X216437Y-41673D02*
D03*
X216437Y-42854D02*
D03*
X217618Y-41673D02*
D03*
X217618Y-42854D02*
D03*
X218799Y-41673D02*
D03*
X218799Y-42854D02*
D03*
X219980D02*
D03*
X219980Y-41673D02*
D03*
X212894Y-37736D02*
D03*
X212894Y-38917D02*
D03*
X214075Y-37736D02*
D03*
X214075Y-38917D02*
D03*
X215256Y-37736D02*
D03*
X215256Y-38917D02*
D03*
X216437Y-37736D02*
D03*
X216437Y-38917D02*
D03*
X217618Y-37736D02*
D03*
X217618Y-38917D02*
D03*
X218799Y-37736D02*
D03*
X218799Y-38917D02*
D03*
X219980D02*
D03*
X219980Y-37736D02*
D03*
X218799Y-62539D02*
D03*
X219980D02*
D03*
X214075D02*
D03*
X212894D02*
D03*
X212894Y-74311D02*
D03*
X212894Y-73130D02*
D03*
X214075D02*
D03*
X214075Y-74311D02*
D03*
X215256Y-73130D02*
D03*
X215256Y-74311D02*
D03*
X216437Y-73130D02*
D03*
X216437Y-74311D02*
D03*
X217618Y-73130D02*
D03*
X217618Y-74311D02*
D03*
X218799Y-73130D02*
D03*
X218799Y-74311D02*
D03*
X219980Y-73130D02*
D03*
X219980Y-74311D02*
D03*
X212894Y-70374D02*
D03*
X212894Y-69193D02*
D03*
X214075D02*
D03*
X214075Y-70374D02*
D03*
X215256Y-69193D02*
D03*
X215256Y-70374D02*
D03*
X216437Y-69193D02*
D03*
X216437Y-70374D02*
D03*
X217618Y-69193D02*
D03*
X217618Y-70374D02*
D03*
X218799Y-69193D02*
D03*
X218799Y-70374D02*
D03*
X219980Y-69193D02*
D03*
X219980Y-70374D02*
D03*
X245886Y-46752D02*
D03*
X245886Y-45571D02*
D03*
X247067D02*
D03*
X247067Y-46752D02*
D03*
X248248Y-45571D02*
D03*
X248248Y-46752D02*
D03*
X249429Y-45571D02*
D03*
X249429Y-46752D02*
D03*
X250610Y-45571D02*
D03*
X250610Y-46752D02*
D03*
X251791Y-45571D02*
D03*
X251791Y-46752D02*
D03*
X252972Y-45571D02*
D03*
X252973Y-46752D02*
D03*
Y-50689D02*
D03*
X251791D02*
D03*
X250610D02*
D03*
X250610Y-49508D02*
D03*
X249429Y-50689D02*
D03*
X249429Y-49508D02*
D03*
X248248Y-50689D02*
D03*
X248248Y-49508D02*
D03*
X247067Y-50689D02*
D03*
X245886D02*
D03*
X252973Y-54626D02*
D03*
X252972Y-53445D02*
D03*
X251791Y-54626D02*
D03*
X251791Y-53445D02*
D03*
X250610Y-54626D02*
D03*
X250610Y-53445D02*
D03*
X249429Y-54626D02*
D03*
X249429Y-53445D02*
D03*
X248248Y-54626D02*
D03*
X248248Y-53445D02*
D03*
X247067Y-54626D02*
D03*
X247067Y-53445D02*
D03*
X245886D02*
D03*
X245886Y-54626D02*
D03*
X252973Y-58563D02*
D03*
X252972Y-57382D02*
D03*
X251791Y-58563D02*
D03*
X251791Y-57382D02*
D03*
X250610Y-58563D02*
D03*
X250610Y-57382D02*
D03*
X249429Y-58563D02*
D03*
X249429Y-57382D02*
D03*
X248248Y-58563D02*
D03*
X248248Y-57382D02*
D03*
X247067Y-58563D02*
D03*
X247067Y-57382D02*
D03*
X245886D02*
D03*
X245886Y-58563D02*
D03*
X252973Y-62500D02*
D03*
X252972Y-61319D02*
D03*
X251791Y-62500D02*
D03*
X251791Y-61319D02*
D03*
X250610Y-62500D02*
D03*
X250610Y-61319D02*
D03*
X249429Y-62500D02*
D03*
X249429Y-61319D02*
D03*
X248248Y-62500D02*
D03*
X248248Y-61319D02*
D03*
X247067Y-62500D02*
D03*
X247067Y-61319D02*
D03*
X245886D02*
D03*
X245886Y-62500D02*
D03*
X252973Y-66437D02*
D03*
X252972Y-65256D02*
D03*
X251791Y-66437D02*
D03*
X251791Y-65256D02*
D03*
X250610Y-66437D02*
D03*
X250610Y-65256D02*
D03*
X249429Y-66437D02*
D03*
X249429Y-65256D02*
D03*
X248248Y-66437D02*
D03*
X248248Y-65256D02*
D03*
X247067Y-66437D02*
D03*
X247067Y-65256D02*
D03*
X245886D02*
D03*
X245886Y-66437D02*
D03*
X252973Y-70374D02*
D03*
X252972Y-69193D02*
D03*
X251791Y-70374D02*
D03*
X251791Y-69193D02*
D03*
X250610Y-70374D02*
D03*
X250610Y-69193D02*
D03*
X249429Y-70374D02*
D03*
X249429Y-69193D02*
D03*
X248248Y-70374D02*
D03*
X248248Y-69193D02*
D03*
X247067Y-70374D02*
D03*
X247067Y-69193D02*
D03*
X245886D02*
D03*
X245886Y-70374D02*
D03*
X252973Y-74311D02*
D03*
X252972Y-73130D02*
D03*
X251791Y-74311D02*
D03*
X251791Y-73130D02*
D03*
X250610Y-74311D02*
D03*
X250610Y-73130D02*
D03*
X249429Y-74311D02*
D03*
X249429Y-73130D02*
D03*
X248248Y-74311D02*
D03*
X248248Y-73130D02*
D03*
X247067Y-74311D02*
D03*
X247067Y-73130D02*
D03*
X245886D02*
D03*
X245886Y-74311D02*
D03*
X247067Y-49508D02*
D03*
X245886D02*
D03*
X251791D02*
D03*
X252972D02*
D03*
X252972Y-37736D02*
D03*
X252972Y-38917D02*
D03*
X251791D02*
D03*
X251791Y-37736D02*
D03*
X250610Y-38917D02*
D03*
X250610Y-37736D02*
D03*
X249429Y-38917D02*
D03*
X249429Y-37736D02*
D03*
X248248Y-38917D02*
D03*
X248248Y-37736D02*
D03*
X247067Y-38917D02*
D03*
X247067Y-37736D02*
D03*
X245886Y-38917D02*
D03*
X245886Y-37736D02*
D03*
X252972Y-41673D02*
D03*
X252972Y-42854D02*
D03*
X251791D02*
D03*
X251791Y-41673D02*
D03*
X250610Y-42854D02*
D03*
X250610Y-41673D02*
D03*
X249429Y-42854D02*
D03*
X249429Y-41673D02*
D03*
X248248Y-42854D02*
D03*
X248248Y-41673D02*
D03*
X247067Y-42854D02*
D03*
X247067Y-41673D02*
D03*
X245886Y-42854D02*
D03*
X245886Y-41673D02*
D03*
X219980Y101791D02*
D03*
X218799D02*
D03*
X217618D02*
D03*
X217618Y102972D02*
D03*
X216437Y101791D02*
D03*
X216437Y102972D02*
D03*
X215256Y101791D02*
D03*
X215256Y102972D02*
D03*
X214075Y101791D02*
D03*
X214075Y102972D02*
D03*
X212894D02*
D03*
X212894Y101791D02*
D03*
X219980Y97854D02*
D03*
X218799D02*
D03*
X218799Y99035D02*
D03*
X217618Y97854D02*
D03*
X217618Y99035D02*
D03*
X216437Y97854D02*
D03*
X216437Y99035D02*
D03*
X215256Y97854D02*
D03*
X215256Y99035D02*
D03*
X214075Y97854D02*
D03*
X214075Y99035D02*
D03*
X212894D02*
D03*
X212894Y97854D02*
D03*
X212894Y109626D02*
D03*
X214075D02*
D03*
X219980D02*
D03*
X218799D02*
D03*
X218799Y134429D02*
D03*
X217618Y133248D02*
D03*
X217618Y134429D02*
D03*
X216437Y133248D02*
D03*
X216437Y134429D02*
D03*
X215256Y133248D02*
D03*
X215256Y134429D02*
D03*
X214075Y133248D02*
D03*
X214075Y134429D02*
D03*
X212894Y133248D02*
D03*
X212894Y134429D02*
D03*
X218799Y130492D02*
D03*
X217618Y129311D02*
D03*
X217618Y130492D02*
D03*
X216437Y129311D02*
D03*
X216437Y130492D02*
D03*
X215256Y129311D02*
D03*
X215256Y130492D02*
D03*
X214075Y129311D02*
D03*
X214075Y130492D02*
D03*
X212894Y129311D02*
D03*
X212894Y130492D02*
D03*
X212894Y125374D02*
D03*
X212894Y126555D02*
D03*
X214075Y121437D02*
D03*
X212894D02*
D03*
X212894Y122618D02*
D03*
X219980Y118681D02*
D03*
X219980Y117500D02*
D03*
X218799D02*
D03*
X218799Y118681D02*
D03*
X217618Y117500D02*
D03*
X217618Y118681D02*
D03*
X216437Y117500D02*
D03*
X216437Y118681D02*
D03*
X215256Y117500D02*
D03*
X215256Y118681D02*
D03*
X214075Y117500D02*
D03*
X214075Y118681D02*
D03*
X212894Y117500D02*
D03*
X212894Y118681D02*
D03*
X219980Y114744D02*
D03*
X219980Y113563D02*
D03*
X218799D02*
D03*
X218799Y114744D02*
D03*
X217618Y113563D02*
D03*
X217618Y114744D02*
D03*
X216437Y113563D02*
D03*
X216437Y114744D02*
D03*
X215256Y113563D02*
D03*
X215256Y114744D02*
D03*
X214075Y113563D02*
D03*
X214075Y114744D02*
D03*
X212894Y113563D02*
D03*
X212894Y114744D02*
D03*
X219980Y110807D02*
D03*
X217618Y109626D02*
D03*
X216437D02*
D03*
X216437Y110807D02*
D03*
X215256Y109626D02*
D03*
X215256Y110807D02*
D03*
X214075D02*
D03*
X212894D02*
D03*
Y106870D02*
D03*
X212894Y105689D02*
D03*
X214075Y106870D02*
D03*
X214075Y105689D02*
D03*
X215256Y106870D02*
D03*
X215256Y105689D02*
D03*
X216437Y106870D02*
D03*
X216437Y105689D02*
D03*
X217618Y106870D02*
D03*
X217618Y105689D02*
D03*
X218799Y106870D02*
D03*
X218799Y105689D02*
D03*
X245886Y130492D02*
D03*
X245886Y129311D02*
D03*
X247067Y130492D02*
D03*
X247067Y129311D02*
D03*
X248248Y130492D02*
D03*
X248248Y129311D02*
D03*
X249429Y130492D02*
D03*
X249429Y129311D02*
D03*
X250610Y130492D02*
D03*
X250610Y129311D02*
D03*
X251791Y130492D02*
D03*
X251791Y129311D02*
D03*
X252972D02*
D03*
X252972Y130492D02*
D03*
X245886Y134429D02*
D03*
X245886Y133248D02*
D03*
X247067Y134429D02*
D03*
X247067Y133248D02*
D03*
X248248Y134429D02*
D03*
X248248Y133248D02*
D03*
X249429Y134429D02*
D03*
X249429Y133248D02*
D03*
X250610Y134429D02*
D03*
X250610Y133248D02*
D03*
X251791Y134429D02*
D03*
X251791Y133248D02*
D03*
X252972D02*
D03*
X252972Y134429D02*
D03*
X252972Y122658D02*
D03*
X251791D02*
D03*
X245886D02*
D03*
X247067D02*
D03*
X245886Y97854D02*
D03*
X245886Y99035D02*
D03*
X247067D02*
D03*
X247067Y97854D02*
D03*
X248248Y99035D02*
D03*
X248248Y97854D02*
D03*
X249429Y99035D02*
D03*
X249429Y97854D02*
D03*
X250610Y99035D02*
D03*
X250610Y97854D02*
D03*
X251791Y99035D02*
D03*
X251791Y97854D02*
D03*
X252972Y99035D02*
D03*
X252973Y97854D02*
D03*
X245886Y101791D02*
D03*
X245886Y102972D02*
D03*
X247067D02*
D03*
X247067Y101791D02*
D03*
X248248Y102972D02*
D03*
X248248Y101791D02*
D03*
X249429Y102972D02*
D03*
X249429Y101791D02*
D03*
X250610Y102972D02*
D03*
X250610Y101791D02*
D03*
X251791Y102972D02*
D03*
X251791Y101791D02*
D03*
X252972Y102972D02*
D03*
X252973Y101791D02*
D03*
X247067Y106909D02*
D03*
X247067Y105728D02*
D03*
X248248Y106909D02*
D03*
X248248Y105728D02*
D03*
X249429Y106909D02*
D03*
X249429Y105728D02*
D03*
X250610Y106909D02*
D03*
X250610Y105728D02*
D03*
X251791Y106909D02*
D03*
X251791Y105728D02*
D03*
X252972Y106909D02*
D03*
X252973Y105728D02*
D03*
X245886Y109665D02*
D03*
X245886Y110846D02*
D03*
X247067D02*
D03*
X247067Y109665D02*
D03*
X248248Y110846D02*
D03*
X248248Y109665D02*
D03*
X249429Y110846D02*
D03*
X249429Y109665D02*
D03*
X250610Y110846D02*
D03*
X250610Y109665D02*
D03*
X251791Y110846D02*
D03*
X251791Y109665D02*
D03*
X252972Y110846D02*
D03*
X252973Y109665D02*
D03*
X245886Y113602D02*
D03*
X245886Y114783D02*
D03*
X247067D02*
D03*
X247067Y113602D02*
D03*
X248248Y114783D02*
D03*
X248248Y113602D02*
D03*
X249429Y114783D02*
D03*
X249429Y113602D02*
D03*
X250610Y114783D02*
D03*
X250610Y113602D02*
D03*
X251791Y114783D02*
D03*
X251791Y113602D02*
D03*
X252972Y114783D02*
D03*
X252973Y113602D02*
D03*
X245886Y117539D02*
D03*
X245886Y118720D02*
D03*
X247067D02*
D03*
X247067Y117539D02*
D03*
X248248Y118720D02*
D03*
X248248Y117539D02*
D03*
X249429Y118720D02*
D03*
X249429Y117539D02*
D03*
X250610Y118720D02*
D03*
X250610Y117539D02*
D03*
X251791Y118720D02*
D03*
X251791Y117539D02*
D03*
X252972Y118720D02*
D03*
X252973Y117539D02*
D03*
X245886Y121476D02*
D03*
X247067D02*
D03*
X248248Y122658D02*
D03*
X248248Y121476D02*
D03*
X249429Y122658D02*
D03*
X249429Y121476D02*
D03*
X250610Y122658D02*
D03*
X250610Y121476D02*
D03*
X251791D02*
D03*
X252973D02*
D03*
Y125413D02*
D03*
X252972Y126594D02*
D03*
X251791Y125413D02*
D03*
X251791Y126594D02*
D03*
X250610Y125413D02*
D03*
X250610Y126594D02*
D03*
X249429Y125413D02*
D03*
X249429Y126594D02*
D03*
X248248Y125413D02*
D03*
X248248Y126594D02*
D03*
X247067Y125413D02*
D03*
X247067Y126594D02*
D03*
X245886D02*
D03*
X245886Y125413D02*
D03*
X-36811Y7669D02*
D03*
X-32972Y7677D02*
D03*
X-34252D02*
D03*
X-31693D02*
D03*
X-31693Y6406D02*
D03*
X-34252D02*
D03*
X-32972D02*
D03*
X-36811Y6398D02*
D03*
X-35532D02*
D03*
X-20669D02*
D03*
X-21949D02*
D03*
X-18110Y6406D02*
D03*
X-19390D02*
D03*
X-16831D02*
D03*
X-16831Y7677D02*
D03*
X-19390D02*
D03*
X-18110D02*
D03*
X-21949Y7669D02*
D03*
X-20669D02*
D03*
X-35532Y-1476D02*
D03*
X-36811D02*
D03*
X-32972Y-1469D02*
D03*
X-34252D02*
D03*
X-31693D02*
D03*
X-31693Y-197D02*
D03*
X-34252D02*
D03*
X-32972D02*
D03*
X-36811Y-205D02*
D03*
X-35532D02*
D03*
X-20669Y-1476D02*
D03*
X-21949D02*
D03*
X-18110Y-1469D02*
D03*
X-19390D02*
D03*
X-16831D02*
D03*
X-16831Y-197D02*
D03*
X-19390D02*
D03*
X-18110D02*
D03*
X-21949Y-205D02*
D03*
X-20669D02*
D03*
X-35532Y-25098D02*
D03*
X-36811D02*
D03*
X-32972Y-25091D02*
D03*
X-34252D02*
D03*
X-31693D02*
D03*
X-31693Y-23819D02*
D03*
X-34252D02*
D03*
X-32972D02*
D03*
X-36811Y-23827D02*
D03*
X-35532D02*
D03*
X-20669Y-25098D02*
D03*
X-21949D02*
D03*
X-18110Y-25091D02*
D03*
X-19390D02*
D03*
X-16831D02*
D03*
X-16831Y-23819D02*
D03*
X-19390D02*
D03*
X-18110D02*
D03*
X-21949Y-23827D02*
D03*
X-20669D02*
D03*
X-35532Y-32972D02*
D03*
X-36811D02*
D03*
X-32972Y-32965D02*
D03*
X-34252D02*
D03*
X-31693D02*
D03*
X-31693Y-31693D02*
D03*
X-34252D02*
D03*
X-32972D02*
D03*
X-36811Y-31701D02*
D03*
X-35532D02*
D03*
X-20669Y-32972D02*
D03*
X-21949D02*
D03*
X-18110Y-32965D02*
D03*
X-19390D02*
D03*
X-16831D02*
D03*
X-16831Y-31693D02*
D03*
X-19390D02*
D03*
X-18110D02*
D03*
X-21949Y-31701D02*
D03*
X-20669D02*
D03*
X-35532Y-40846D02*
D03*
X-36811D02*
D03*
X-32972Y-40839D02*
D03*
X-34252D02*
D03*
X-31693D02*
D03*
X-31693Y-39567D02*
D03*
X-34252D02*
D03*
X-32972D02*
D03*
X-36811Y-39575D02*
D03*
X-35532D02*
D03*
X-20669Y-40846D02*
D03*
X-21949D02*
D03*
X-18110Y-40839D02*
D03*
X-19390D02*
D03*
X-16831D02*
D03*
X-16831Y-39567D02*
D03*
X-19390D02*
D03*
X-18110D02*
D03*
X-21949Y-39575D02*
D03*
X-20669D02*
D03*
X-35532Y-48720D02*
D03*
X-36811D02*
D03*
X-32972Y-48713D02*
D03*
X-34252D02*
D03*
X-31693D02*
D03*
X-31693Y-47441D02*
D03*
X-34252D02*
D03*
X-32972D02*
D03*
X-36811Y-47449D02*
D03*
X-35532D02*
D03*
X-20669Y-48720D02*
D03*
X-21949D02*
D03*
X-18110Y-48713D02*
D03*
X-19390D02*
D03*
X-16831D02*
D03*
X-16831Y-47441D02*
D03*
X-19390D02*
D03*
X-18110D02*
D03*
X-21949Y-47449D02*
D03*
X-20669D02*
D03*
X-4724Y59055D02*
D03*
X-4232Y57874D02*
D03*
X-3543Y59055D02*
D03*
X-2953Y57874D02*
D03*
X-4232Y51969D02*
D03*
X-3543Y53150D02*
D03*
X-2953Y51969D02*
D03*
X-2362Y53150D02*
D03*
Y59055D02*
D03*
X-4724Y53150D02*
D03*
X-2953Y46063D02*
D03*
X-4232Y46063D02*
D03*
X-4724Y47244D02*
D03*
Y29528D02*
D03*
X-2362D02*
D03*
X-2953Y28346D02*
D03*
X-3543Y29528D02*
D03*
X-4232Y28346D02*
D03*
X45177Y17126D02*
D03*
X49081D02*
D03*
X52986D02*
D03*
X56890D02*
D03*
X45177Y5413D02*
D03*
Y9318D02*
D03*
Y13222D02*
D03*
X49081Y5413D02*
D03*
Y9318D02*
D03*
Y13222D02*
D03*
X52986Y5413D02*
D03*
Y9318D02*
D03*
Y13222D02*
D03*
X56890Y5413D02*
D03*
Y9318D02*
D03*
Y13222D02*
D03*
X45374Y26969D02*
D03*
X46949D02*
D03*
X48524D02*
D03*
X45374Y23819D02*
D03*
Y25394D02*
D03*
X46949Y23819D02*
D03*
Y25394D02*
D03*
X48524Y23819D02*
D03*
Y25394D02*
D03*
X56713D02*
D03*
Y23819D02*
D03*
X55138Y25394D02*
D03*
Y23819D02*
D03*
X53563Y25394D02*
D03*
Y23819D02*
D03*
X56713Y26969D02*
D03*
X55138D02*
D03*
X53563D02*
D03*
X124213Y34350D02*
D03*
X77166Y-101673D02*
D03*
X79134Y-107776D02*
D03*
X81102Y-102854D02*
D03*
X76575Y-105807D02*
D03*
X-4528Y-69488D02*
D03*
X20669Y-92687D02*
D03*
X139567Y81398D02*
D03*
X127535Y85437D02*
D03*
X125566D02*
D03*
X44291Y-126575D02*
D03*
X245886Y73405D02*
D03*
X245886Y72224D02*
D03*
X247067Y73405D02*
D03*
X247067Y72224D02*
D03*
X248248Y73405D02*
D03*
X248248Y72224D02*
D03*
X249429Y73405D02*
D03*
X249429Y72224D02*
D03*
X250610Y73405D02*
D03*
X250610Y72224D02*
D03*
X251791Y73405D02*
D03*
X251791Y72224D02*
D03*
X252972D02*
D03*
X252972Y73405D02*
D03*
X245886Y69468D02*
D03*
X245886Y68287D02*
D03*
X247067Y69468D02*
D03*
X247067Y68287D02*
D03*
X248248Y69468D02*
D03*
X248248Y68287D02*
D03*
X249429Y69468D02*
D03*
X249429Y68287D02*
D03*
X250610Y69468D02*
D03*
X250610Y68287D02*
D03*
X251791Y69468D02*
D03*
X251791Y68287D02*
D03*
X252972D02*
D03*
X252972Y69468D02*
D03*
X245886Y65531D02*
D03*
X245886Y64350D02*
D03*
X247067Y65531D02*
D03*
X247067Y64350D02*
D03*
X248248Y65531D02*
D03*
X248248Y64350D02*
D03*
X249429Y65531D02*
D03*
X249429Y64350D02*
D03*
X250610Y65531D02*
D03*
X250610Y64350D02*
D03*
X251791Y65531D02*
D03*
X251791Y64350D02*
D03*
X252972D02*
D03*
X252972Y65531D02*
D03*
X245886Y60413D02*
D03*
X247067D02*
D03*
X248248Y61594D02*
D03*
X248248Y60413D02*
D03*
X249429Y61594D02*
D03*
X249429Y60413D02*
D03*
X250610Y61594D02*
D03*
X250610Y60413D02*
D03*
X251791D02*
D03*
X252972D02*
D03*
X252972Y53720D02*
D03*
X245886Y49783D02*
D03*
X245886Y48602D02*
D03*
X247067Y49783D02*
D03*
X247067Y48602D02*
D03*
X248248Y49783D02*
D03*
X248248Y48602D02*
D03*
X249429Y49783D02*
D03*
X249429Y48602D02*
D03*
X250610Y49783D02*
D03*
X250610Y48602D02*
D03*
X251791Y49783D02*
D03*
X251791Y48602D02*
D03*
X252972D02*
D03*
X252972Y49783D02*
D03*
X245886Y45846D02*
D03*
X247067D02*
D03*
X247067Y44665D02*
D03*
X248248Y45846D02*
D03*
X248248Y44665D02*
D03*
X249429Y45846D02*
D03*
X249429Y44665D02*
D03*
X250610Y45846D02*
D03*
X250610Y44665D02*
D03*
X251791Y45846D02*
D03*
X251791Y44665D02*
D03*
X252972D02*
D03*
X252972Y45846D02*
D03*
X216437Y73405D02*
D03*
X216437Y72224D02*
D03*
X215256Y73405D02*
D03*
X215256Y72224D02*
D03*
X214075Y73405D02*
D03*
X214075Y72224D02*
D03*
X212894D02*
D03*
X212894Y73405D02*
D03*
X219980Y65531D02*
D03*
X218799D02*
D03*
X218799Y64350D02*
D03*
X217618Y65531D02*
D03*
X217618Y64350D02*
D03*
X216437Y65531D02*
D03*
X216437Y64350D02*
D03*
X215256Y65531D02*
D03*
X215256Y64350D02*
D03*
X214075Y65531D02*
D03*
X214075Y64350D02*
D03*
X212894D02*
D03*
X212894Y65531D02*
D03*
X219980Y60413D02*
D03*
X218799Y61594D02*
D03*
X218799Y60413D02*
D03*
X217618Y61594D02*
D03*
X217618Y60413D02*
D03*
X216437Y61594D02*
D03*
X216437Y60413D02*
D03*
X219980Y57657D02*
D03*
X219980Y56476D02*
D03*
X218799Y57657D02*
D03*
X218799Y56476D02*
D03*
X217618Y57657D02*
D03*
X217618Y56476D02*
D03*
X216437Y57657D02*
D03*
X216437Y56476D02*
D03*
X215256D02*
D03*
X219980Y52539D02*
D03*
X218799D02*
D03*
X217618D02*
D03*
X216437D02*
D03*
X215256D02*
D03*
X214075D02*
D03*
X212894D02*
D03*
X219980Y48602D02*
D03*
X218799D02*
D03*
X217618D02*
D03*
X216437D02*
D03*
X215256D02*
D03*
X214075D02*
D03*
X212894D02*
D03*
X218799Y45846D02*
D03*
X218799Y44665D02*
D03*
X217618Y45846D02*
D03*
X217618Y44665D02*
D03*
X216437Y45846D02*
D03*
X216437Y44665D02*
D03*
X215256Y45846D02*
D03*
X215256Y44665D02*
D03*
X214075Y45846D02*
D03*
X214075Y44665D02*
D03*
X212894D02*
D03*
X212894Y45846D02*
D03*
X219980Y99035D02*
D03*
X219980Y105689D02*
D03*
X219980Y106870D02*
D03*
X245886Y105728D02*
D03*
X245886Y106909D02*
D03*
X214075Y126555D02*
D03*
X215256D02*
D03*
X215256Y125374D02*
D03*
X214075D02*
D03*
X219980Y130492D02*
D03*
X214075Y122618D02*
D03*
X215256Y121437D02*
D03*
X215256Y122618D02*
D03*
X217618Y121437D02*
D03*
X217618Y122618D02*
D03*
X216437Y121437D02*
D03*
X216437Y122618D02*
D03*
X218799Y121437D02*
D03*
X218799Y122618D02*
D03*
X219980D02*
D03*
X216437Y126555D02*
D03*
X218799Y129311D02*
D03*
X218799Y126555D02*
D03*
X217618D02*
D03*
X216437Y125374D02*
D03*
X218799D02*
D03*
X217618D02*
D03*
X219980Y126555D02*
D03*
X219980Y125374D02*
D03*
X218799Y53720D02*
D03*
X217618D02*
D03*
X216437D02*
D03*
X215256D02*
D03*
X214075D02*
D03*
X212894D02*
D03*
X219980D02*
D03*
X218799Y49783D02*
D03*
X217618D02*
D03*
X216437D02*
D03*
X215256D02*
D03*
X219980D02*
D03*
X215256Y57657D02*
D03*
X214075D02*
D03*
X204026Y79823D02*
D03*
X205354Y78494D02*
D03*
Y79823D02*
D03*
X218799Y102972D02*
D03*
X219980D02*
D03*
X263976Y-21634D02*
D03*
Y-22815D02*
D03*
X262894Y-23405D02*
D03*
Y-15157D02*
D03*
Y-16339D02*
D03*
X263976Y-14567D02*
D03*
Y-15748D02*
D03*
X198917Y-97638D02*
D03*
X198917Y-98917D02*
D03*
X198917Y-100197D02*
D03*
X198524Y-92421D02*
D03*
X198524Y-93701D02*
D03*
X198524Y-94980D02*
D03*
X198819Y-102756D02*
D03*
X198819Y-104035D02*
D03*
X198819Y-105315D02*
D03*
Y-107972D02*
D03*
X198819Y-109252D02*
D03*
X198819Y-110531D02*
D03*
X205512Y-97638D02*
D03*
X205512Y-98917D02*
D03*
X205512Y-100197D02*
D03*
Y-102756D02*
D03*
X205512Y-104035D02*
D03*
X205512Y-105315D02*
D03*
Y-107972D02*
D03*
X205512Y-109252D02*
D03*
X205512Y-110531D02*
D03*
X206043Y53985D02*
D03*
X203790Y35846D02*
D03*
X202462D02*
D03*
X201133D02*
D03*
X189602Y46100D02*
D03*
X270374Y-28110D02*
D03*
Y-29291D02*
D03*
X269291Y-28701D02*
D03*
Y-29882D02*
D03*
X203594Y-136102D02*
D03*
X204922D02*
D03*
X206251D02*
D03*
X206249Y-125512D02*
D03*
X204920D02*
D03*
X203591D02*
D03*
X214075Y49783D02*
D03*
X212894D02*
D03*
X219980Y45846D02*
D03*
X219980Y44665D02*
D03*
X203871Y-46227D02*
D03*
X205184Y-47408D02*
D03*
Y-46227D02*
D03*
X204045Y71952D02*
D03*
X70205Y124416D02*
D03*
Y123137D02*
D03*
X75717Y130141D02*
D03*
X74603Y134225D02*
D03*
X76028Y117725D02*
D03*
X74240Y130141D02*
D03*
X71257Y134225D02*
D03*
Y135406D02*
D03*
X75979Y82725D02*
D03*
X69500Y88300D02*
D03*
X74387Y95243D02*
D03*
X75979Y84005D02*
D03*
X83300Y81800D02*
D03*
X83398Y82981D02*
D03*
X75942Y47530D02*
D03*
X69302Y54417D02*
D03*
X-4724Y35433D02*
D03*
X-4232Y34252D02*
D03*
X-3543Y35433D02*
D03*
X-2953Y34252D02*
D03*
X-2362Y35433D02*
D03*
Y41339D02*
D03*
X-4232Y40157D02*
D03*
X-3543Y41339D02*
D03*
X-2953Y40157D02*
D03*
X-4724Y41339D02*
D03*
X-20669Y-16051D02*
D03*
X-21949D02*
D03*
X-18110Y-16043D02*
D03*
X-19390D02*
D03*
X-16831D02*
D03*
X-16831Y-17315D02*
D03*
X-19390D02*
D03*
X-18110D02*
D03*
X-21949Y-17323D02*
D03*
X-20669D02*
D03*
X-35532Y-16051D02*
D03*
X-36811D02*
D03*
X-32972Y-16043D02*
D03*
X-34252D02*
D03*
X-31693D02*
D03*
X-31693Y-17315D02*
D03*
X-34252D02*
D03*
X-32972D02*
D03*
X-36811Y-17323D02*
D03*
X-35532D02*
D03*
X-20669Y-8177D02*
D03*
X-21949D02*
D03*
X-18110Y-8169D02*
D03*
X-19390D02*
D03*
X-16831D02*
D03*
X-16831Y-9441D02*
D03*
X-19390D02*
D03*
X-18110D02*
D03*
X-21949Y-9449D02*
D03*
X-20669D02*
D03*
X-35532Y-8177D02*
D03*
X-36811D02*
D03*
X-32972Y-8169D02*
D03*
X-34252D02*
D03*
X-31693D02*
D03*
X-31693Y-9441D02*
D03*
X-34252D02*
D03*
X-32972D02*
D03*
X-36811Y-9449D02*
D03*
X-35532D02*
D03*
X25787Y-92687D02*
D03*
Y-94656D02*
D03*
X37558Y135932D02*
D03*
X36475Y135339D02*
D03*
X172539Y49045D02*
D03*
Y50226D02*
D03*
X184547Y85531D02*
D03*
X184449Y86712D02*
D03*
X178563Y78642D02*
D03*
Y79823D02*
D03*
X164567Y105413D02*
D03*
Y104232D02*
D03*
X165797Y105413D02*
D03*
X167027D02*
D03*
X168307D02*
D03*
X165797Y104232D02*
D03*
X167027D02*
D03*
X168307D02*
D03*
X164272Y98032D02*
D03*
X190521Y30315D02*
D03*
X191751D02*
D03*
X193031D02*
D03*
X190521Y29134D02*
D03*
X191751D02*
D03*
X193031D02*
D03*
X192731Y20079D02*
D03*
Y21260D02*
D03*
X191500Y20079D02*
D03*
X190270D02*
D03*
X188990D02*
D03*
X191500Y21260D02*
D03*
X190270D02*
D03*
X188990D02*
D03*
X165157Y97244D02*
D03*
X166043Y98032D02*
D03*
X167000Y97300D02*
D03*
X168000Y98000D02*
D03*
X190500Y27900D02*
D03*
X161492Y28492D02*
D03*
X162742Y21892D02*
D03*
X161492Y21892D02*
D03*
X162742Y28492D02*
D03*
X69570Y-53882D02*
D03*
X67110D02*
D03*
X68340D02*
D03*
X65830D02*
D03*
X68340Y-55063D02*
D03*
X67110D02*
D03*
X65830D02*
D03*
X69570D02*
D03*
X76970Y-53882D02*
D03*
X74510D02*
D03*
X75740D02*
D03*
X73230D02*
D03*
X75740Y-55063D02*
D03*
X74510D02*
D03*
X73230D02*
D03*
X76970D02*
D03*
X65830Y-64118D02*
D03*
X68291D02*
D03*
X67060D02*
D03*
X69570D02*
D03*
X67060Y-62937D02*
D03*
X68291D02*
D03*
X69570D02*
D03*
X65830D02*
D03*
X73230Y-64118D02*
D03*
X75691D02*
D03*
X74460D02*
D03*
X76970D02*
D03*
X74460Y-62937D02*
D03*
X75691D02*
D03*
X76970D02*
D03*
X73230D02*
D03*
X8811Y-100146D02*
D03*
X10091D02*
D03*
X10189Y-93454D02*
D03*
X8909D02*
D03*
X28100Y-92700D02*
D03*
X110908Y-86709D02*
D03*
Y-87891D02*
D03*
X116892Y-87890D02*
D03*
Y-86709D02*
D03*
X116831Y-98937D02*
D03*
X118012D02*
D03*
X117492Y-129891D02*
D03*
Y-128709D02*
D03*
X111508Y-128709D02*
D03*
Y-129891D02*
D03*
X131408Y-128509D02*
D03*
Y-129691D02*
D03*
X137392Y-129691D02*
D03*
Y-128509D02*
D03*
X129150Y-116311D02*
D03*
X127969D02*
D03*
X127969Y-122689D02*
D03*
X129150D02*
D03*
X122638Y-123420D02*
D03*
X123819D02*
D03*
X123819Y-113380D02*
D03*
X122638D02*
D03*
X116891Y-115521D02*
D03*
X115709D02*
D03*
X115709Y-122080D02*
D03*
X116891D02*
D03*
X135510Y-119630D02*
D03*
X136691D02*
D03*
X109609Y-95930D02*
D03*
X110791D02*
D03*
X122441Y-99724D02*
D03*
X123622D02*
D03*
X128809Y-98530D02*
D03*
X129991D02*
D03*
X7100Y41100D02*
D03*
X8281Y42872D02*
D03*
X7100Y42281D02*
D03*
X8281Y41592D02*
D03*
X7100Y43462D02*
D03*
X17900Y41200D02*
D03*
X19081Y42972D02*
D03*
X17900Y42381D02*
D03*
X19081Y41692D02*
D03*
X17900Y43562D02*
D03*
X11909Y53461D02*
D03*
X17618Y57579D02*
D03*
X32046Y-126409D02*
D03*
X31948Y-127591D02*
D03*
X25354D02*
D03*
X25452Y-126409D02*
D03*
X45768Y48130D02*
D03*
X45571Y50098D02*
D03*
X44390Y50098D02*
D03*
X45571Y52067D02*
D03*
Y56007D02*
D03*
X44193Y52067D02*
D03*
X70303Y129255D02*
D03*
X69319Y128566D02*
D03*
X70516Y117722D02*
D03*
X70516Y118903D02*
D03*
X98779Y91043D02*
D03*
X96811D02*
D03*
X69500Y82819D02*
D03*
Y84000D02*
D03*
X69565Y95243D02*
D03*
X70844D02*
D03*
X89400Y85900D02*
D03*
X89100Y76500D02*
D03*
Y78100D02*
D03*
X69761Y99195D02*
D03*
X69663Y100376D02*
D03*
X74092Y99195D02*
D03*
Y100376D02*
D03*
X75600Y95200D02*
D03*
X69524Y89532D02*
D03*
X127633Y120280D02*
D03*
X141046Y116339D02*
D03*
X131398Y114370D02*
D03*
X129823Y116339D02*
D03*
X134547Y109744D02*
D03*
X133366Y109646D02*
D03*
X136516Y109646D02*
D03*
X134547Y116339D02*
D03*
X133366Y116240D02*
D03*
X139800Y116300D02*
D03*
X69400Y48700D02*
D03*
Y47519D02*
D03*
X69300Y60000D02*
D03*
X69300Y58819D02*
D03*
X89100Y52100D02*
D03*
Y50600D02*
D03*
X89200Y42700D02*
D03*
Y44200D02*
D03*
X97008Y56004D02*
D03*
X99000Y56000D02*
D03*
X98779Y21260D02*
D03*
X96811D02*
D03*
X69302Y13224D02*
D03*
X69302Y14405D02*
D03*
X75760Y25544D02*
D03*
X75760Y24068D02*
D03*
X89100Y17100D02*
D03*
Y15800D02*
D03*
Y7800D02*
D03*
Y9200D02*
D03*
X55216Y33750D02*
D03*
X57185D02*
D03*
X59154D02*
D03*
X59154Y44380D02*
D03*
X57185D02*
D03*
X55216D02*
D03*
X204331Y-118602D02*
D03*
Y-121161D02*
D03*
X204331Y-119882D02*
D03*
X197638Y-118602D02*
D03*
Y-121161D02*
D03*
X197638Y-119882D02*
D03*
X204331Y-113386D02*
D03*
X204331Y-114665D02*
D03*
X204331Y-115945D02*
D03*
X197928Y56600D02*
D03*
X196850Y-115945D02*
D03*
X196850Y-114665D02*
D03*
X196850Y-113386D02*
D03*
X188189Y-49016D02*
D03*
X269882Y-100787D02*
D03*
X252972Y-102657D02*
D03*
X250610Y-99902D02*
D03*
X252973D02*
D03*
X251791D02*
D03*
X262700Y-100100D02*
D03*
X219980Y-102697D02*
D03*
X219980Y-103878D02*
D03*
X218799D02*
D03*
X218799Y-102697D02*
D03*
X217618Y-103878D02*
D03*
X217618Y-102697D02*
D03*
X216437Y-103878D02*
D03*
X216437Y-102697D02*
D03*
X215256Y-103878D02*
D03*
X215256Y-102697D02*
D03*
X214075Y-103878D02*
D03*
X214075Y-102697D02*
D03*
X212894Y-103878D02*
D03*
X212894Y-102697D02*
D03*
X252972Y-94784D02*
D03*
X251791D02*
D03*
X250610D02*
D03*
X249429D02*
D03*
X248248D02*
D03*
X247067D02*
D03*
X245886D02*
D03*
X245886Y-92027D02*
D03*
X245886Y-90847D02*
D03*
X247067D02*
D03*
X247067Y-92027D02*
D03*
X248248Y-90847D02*
D03*
X248248Y-92027D02*
D03*
X249429Y-90847D02*
D03*
X249429Y-92027D02*
D03*
X250610Y-90847D02*
D03*
X250610Y-92027D02*
D03*
X251791Y-90847D02*
D03*
X251791Y-92027D02*
D03*
X252972Y-90847D02*
D03*
X252973Y-92027D02*
D03*
X250610Y-95965D02*
D03*
X249429D02*
D03*
X248248D02*
D03*
X247067D02*
D03*
X245886D02*
D03*
X252973D02*
D03*
X251791D02*
D03*
X252972Y77342D02*
D03*
X252972Y76161D02*
D03*
X251791D02*
D03*
X251791Y77342D02*
D03*
X250610Y76161D02*
D03*
X250610Y77342D02*
D03*
X249429Y76161D02*
D03*
X249429Y77342D02*
D03*
X248248Y76161D02*
D03*
X248248Y77342D02*
D03*
X247067Y76161D02*
D03*
X247067Y77342D02*
D03*
X245886Y76161D02*
D03*
X245886Y77342D02*
D03*
Y81279D02*
D03*
X245886Y80098D02*
D03*
X247067Y81279D02*
D03*
X247067Y80098D02*
D03*
X248248Y81279D02*
D03*
X248248Y80098D02*
D03*
X249429Y81279D02*
D03*
X249429Y80098D02*
D03*
X250610Y81279D02*
D03*
X250610Y80098D02*
D03*
X251791Y81279D02*
D03*
X251791Y80098D02*
D03*
X252972D02*
D03*
X252972Y81279D02*
D03*
X263386Y81791D02*
D03*
Y80610D02*
D03*
X269094Y82283D02*
D03*
X270177Y81693D02*
D03*
X263386Y74606D02*
D03*
Y73425D02*
D03*
X264469Y74016D02*
D03*
Y72835D02*
D03*
X269882Y73425D02*
D03*
X268799Y72835D02*
D03*
Y75197D02*
D03*
Y74016D02*
D03*
X270177Y80512D02*
D03*
X264469Y81201D02*
D03*
Y80020D02*
D03*
Y82382D02*
D03*
X269094Y81102D02*
D03*
Y79921D02*
D03*
X269882Y74606D02*
D03*
X264469Y75197D02*
D03*
X212894Y69468D02*
D03*
X212894Y68287D02*
D03*
X214075D02*
D03*
X214075Y69468D02*
D03*
X215256Y68287D02*
D03*
X215256Y69468D02*
D03*
X216437Y68287D02*
D03*
X216437Y69468D02*
D03*
X217618Y68287D02*
D03*
X217618Y69468D02*
D03*
X218799Y68287D02*
D03*
X218799Y69468D02*
D03*
X219980Y68287D02*
D03*
X219980Y69468D02*
D03*
X202756Y86614D02*
D03*
X204085D02*
D03*
X202756Y85285D02*
D03*
X205413Y86614D02*
D03*
Y85285D02*
D03*
X204085D02*
D03*
X198770Y87205D02*
D03*
X197441D02*
D03*
Y85876D02*
D03*
X200098Y87205D02*
D03*
X198770Y85876D02*
D03*
X200098D02*
D03*
X217618Y73405D02*
D03*
X217618Y72224D02*
D03*
X218799D02*
D03*
X218799Y73405D02*
D03*
D248*
X51043Y11024D02*
D03*
D249*
X46949Y25394D02*
D03*
X55138D02*
D03*
D250*
X42462Y127124D02*
D03*
Y122006D02*
D03*
X50927D02*
D03*
Y124565D02*
D03*
Y127124D02*
D03*
D251*
X189567Y36614D02*
D03*
X182087Y39173D02*
D03*
Y34055D02*
D03*
X143799Y-69488D02*
D03*
X136319Y-66929D02*
D03*
Y-72047D02*
D03*
X136040Y-119500D02*
D03*
X128560Y-116941D02*
D03*
Y-122059D02*
D03*
X138386Y-56398D02*
D03*
X130905Y-53839D02*
D03*
Y-58957D02*
D03*
X136909Y-95965D02*
D03*
X129429Y-93405D02*
D03*
Y-98524D02*
D03*
X187008Y-126083D02*
D03*
X179527Y-123524D02*
D03*
Y-128642D02*
D03*
X187008Y-110138D02*
D03*
X179527Y-107579D02*
D03*
Y-112697D02*
D03*
D252*
X184744Y43898D02*
D03*
Y51772D02*
D03*
X89158Y51266D02*
D03*
Y43392D02*
D03*
X89114Y16463D02*
D03*
Y8589D02*
D03*
X89098Y85263D02*
D03*
Y77389D02*
D03*
X89070Y-18337D02*
D03*
Y-26211D02*
D03*
X89040Y120065D02*
D03*
Y112191D02*
D03*
X42224Y-98917D02*
D03*
Y-91043D02*
D03*
D253*
X108209Y-106004D02*
D03*
X116988D02*
D03*
X108209Y-79724D02*
D03*
X116988D02*
D03*
D254*
X166358Y90453D02*
D03*
Y85335D02*
D03*
X37303Y-56842D02*
D03*
Y-51724D02*
D03*
D255*
X89370Y-50886D02*
D03*
Y-58169D02*
D03*
D256*
X181122Y79232D02*
D03*
X178563D02*
D03*
X176004D02*
D03*
X173445D02*
D03*
X181122Y96555D02*
D03*
X178563D02*
D03*
X176004D02*
D03*
X173445D02*
D03*
X44390Y-45621D02*
D03*
X46949D02*
D03*
X49508D02*
D03*
X52067D02*
D03*
X44390Y-62944D02*
D03*
X46949D02*
D03*
X49508D02*
D03*
X52067D02*
D03*
X81693Y-92717D02*
D03*
X79134D02*
D03*
X76575D02*
D03*
X74016D02*
D03*
X81693Y-75394D02*
D03*
X79134D02*
D03*
X76575D02*
D03*
X74016D02*
D03*
X81693Y-124114D02*
D03*
X79134D02*
D03*
X76575D02*
D03*
X74016D02*
D03*
X81693Y-106791D02*
D03*
X79134D02*
D03*
X76575D02*
D03*
X74016D02*
D03*
X36614Y-110236D02*
D03*
X39173D02*
D03*
X41732D02*
D03*
X44291D02*
D03*
X36614Y-127559D02*
D03*
X39173D02*
D03*
X41732D02*
D03*
X44291D02*
D03*
D257*
X27461Y56004D02*
D03*
X44390D02*
D03*
Y54035D02*
D03*
Y52067D02*
D03*
X27461Y54035D02*
D03*
Y52067D02*
D03*
Y50098D02*
D03*
Y48130D02*
D03*
X44390Y50098D02*
D03*
Y48130D02*
D03*
D258*
X175098Y33041D02*
D03*
X172539D02*
D03*
X169980D02*
D03*
X167421D02*
D03*
X164862D02*
D03*
X162303D02*
D03*
X175098Y49636D02*
D03*
X172539D02*
D03*
X169980D02*
D03*
X167421D02*
D03*
X164862D02*
D03*
X162303D02*
D03*
X28346Y-110266D02*
D03*
X25787D02*
D03*
X23228D02*
D03*
X20669D02*
D03*
X18110D02*
D03*
X15551D02*
D03*
X28346Y-93671D02*
D03*
X25787D02*
D03*
X23228D02*
D03*
X20669D02*
D03*
X18110D02*
D03*
X15551D02*
D03*
D259*
X188854Y56076D02*
D03*
Y61376D02*
D03*
Y66576D02*
D03*
Y71876D02*
D03*
X166732Y71476D02*
D03*
Y66476D02*
D03*
Y61476D02*
D03*
Y56476D02*
D03*
X10161Y-70643D02*
D03*
Y-75943D02*
D03*
Y-81143D02*
D03*
Y-86443D02*
D03*
X32283Y-86043D02*
D03*
Y-81043D02*
D03*
Y-76043D02*
D03*
Y-71043D02*
D03*
X65134Y-86345D02*
D03*
Y-81045D02*
D03*
Y-75845D02*
D03*
Y-70545D02*
D03*
X43012Y-70945D02*
D03*
Y-75945D02*
D03*
Y-80945D02*
D03*
Y-85945D02*
D03*
D260*
X29273Y120727D02*
D03*
D261*
X142323Y-92518D02*
D03*
Y-99211D02*
D03*
Y-116319D02*
D03*
Y-123012D02*
D03*
X150689Y-76968D02*
D03*
Y-70276D02*
D03*
D262*
X31004Y-38287D02*
D03*
X38484D02*
D03*
X124114Y-44980D02*
D03*
X116634D02*
D03*
X124114Y-52362D02*
D03*
X116634D02*
D03*
X150886Y64764D02*
D03*
X143405D02*
D03*
X150689Y30020D02*
D03*
X143209D02*
D03*
X150689Y99803D02*
D03*
X143209D02*
D03*
X150689Y-4724D02*
D03*
X143209D02*
D03*
X150787Y134646D02*
D03*
X143307D02*
D03*
X51279Y-38287D02*
D03*
X43799D02*
D03*
D263*
X123031Y-92795D02*
D03*
Y-99094D02*
D03*
X116300Y-121450D02*
D03*
Y-115150D02*
D03*
X96398Y-57924D02*
D03*
Y-51625D02*
D03*
X167520Y-56476D02*
D03*
Y-62776D02*
D03*
D264*
X165769Y27559D02*
D03*
Y22835D02*
D03*
X134055Y40748D02*
D03*
Y45472D02*
D03*
X133858Y6004D02*
D03*
Y10728D02*
D03*
Y75787D02*
D03*
Y80512D02*
D03*
Y-28740D02*
D03*
Y-24016D02*
D03*
X133957Y110630D02*
D03*
Y115354D02*
D03*
X83926Y48691D02*
D03*
Y43967D02*
D03*
X83882Y13888D02*
D03*
Y9164D02*
D03*
X83865Y82788D02*
D03*
Y78064D02*
D03*
X83838Y-20912D02*
D03*
Y-25636D02*
D03*
X83808Y117490D02*
D03*
Y112765D02*
D03*
X137205Y45472D02*
D03*
Y40748D02*
D03*
X137008Y10728D02*
D03*
Y6004D02*
D03*
Y80512D02*
D03*
Y75787D02*
D03*
Y-24016D02*
D03*
Y-28740D02*
D03*
X137106Y115354D02*
D03*
Y110630D02*
D03*
X140354Y45472D02*
D03*
Y40748D02*
D03*
X140157Y10728D02*
D03*
Y6004D02*
D03*
Y80512D02*
D03*
Y75787D02*
D03*
Y-24016D02*
D03*
Y-28740D02*
D03*
X140256Y115354D02*
D03*
Y110630D02*
D03*
X46457Y-92618D02*
D03*
Y-97342D02*
D03*
X13976Y-116831D02*
D03*
Y-121555D02*
D03*
X188976Y50197D02*
D03*
Y45472D02*
D03*
X181188Y27559D02*
D03*
Y22835D02*
D03*
X173478Y27559D02*
D03*
Y22835D02*
D03*
D265*
X-19390Y7079D02*
D03*
X-34252D02*
D03*
Y-795D02*
D03*
X-19390D02*
D03*
X-34252Y-8669D02*
D03*
X-19390D02*
D03*
X-34252Y-16543D02*
D03*
X-19390D02*
D03*
X-34252Y-24417D02*
D03*
X-19390D02*
D03*
X-34252Y-32291D02*
D03*
X-19390D02*
D03*
X-34252Y-40165D02*
D03*
X-19390D02*
D03*
X-34252Y-48039D02*
D03*
X-19390D02*
D03*
D266*
X18307Y40748D02*
D03*
X7677D02*
D03*
D267*
X83332Y-128839D02*
D03*
X87269D02*
D03*
X40945Y135630D02*
D03*
X37008D02*
D03*
X55610Y-123721D02*
D03*
X51673D02*
D03*
D268*
X166437Y104035D02*
D03*
Y96555D02*
D03*
X190861Y21457D02*
D03*
Y28937D02*
D03*
X67700Y-55260D02*
D03*
Y-62740D02*
D03*
X75100Y-55260D02*
D03*
Y-62740D02*
D03*
X122736Y-65748D02*
D03*
Y-73228D02*
D03*
X103342Y-51034D02*
D03*
Y-58515D02*
D03*
X130118Y-73228D02*
D03*
Y-65748D02*
D03*
D269*
X9500Y-99162D02*
D03*
Y-94438D02*
D03*
X162100Y27562D02*
D03*
Y22838D02*
D03*
X96752Y-71850D02*
D03*
Y-67126D02*
D03*
X117224Y-67126D02*
D03*
Y-71850D02*
D03*
X167520Y-43524D02*
D03*
Y-48248D02*
D03*
X96752Y-98307D02*
D03*
Y-93583D02*
D03*
X117421Y-93583D02*
D03*
Y-98307D02*
D03*
X156201Y-128445D02*
D03*
Y-123721D02*
D03*
X174705Y-123721D02*
D03*
Y-128445D02*
D03*
Y-107776D02*
D03*
Y-112500D02*
D03*
X125197Y68110D02*
D03*
Y63386D02*
D03*
X125000Y33366D02*
D03*
Y28642D02*
D03*
Y103150D02*
D03*
Y98425D02*
D03*
Y-1378D02*
D03*
Y-6102D02*
D03*
X125098Y137992D02*
D03*
Y133268D02*
D03*
X94587Y43967D02*
D03*
Y48691D02*
D03*
X94543Y9164D02*
D03*
Y13888D02*
D03*
X94527Y78064D02*
D03*
Y82788D02*
D03*
X94499Y-25636D02*
D03*
Y-20912D02*
D03*
X94469Y112765D02*
D03*
Y117490D02*
D03*
X130709Y40748D02*
D03*
Y45472D02*
D03*
X130512Y6004D02*
D03*
Y10728D02*
D03*
Y75787D02*
D03*
Y80512D02*
D03*
Y-28740D02*
D03*
Y-24016D02*
D03*
X130610Y110630D02*
D03*
Y115354D02*
D03*
X33563Y-97342D02*
D03*
Y-92618D02*
D03*
X37795Y-92618D02*
D03*
Y-97342D02*
D03*
X28543Y-121555D02*
D03*
Y-116831D02*
D03*
X24854Y-121555D02*
D03*
Y-116831D02*
D03*
X21161Y-116831D02*
D03*
Y-121555D02*
D03*
X17472Y-121555D02*
D03*
Y-116831D02*
D03*
X180315Y50197D02*
D03*
Y45472D02*
D03*
X184847Y22835D02*
D03*
Y27559D02*
D03*
X169427Y22835D02*
D03*
Y27559D02*
D03*
X177137Y22835D02*
D03*
Y27559D02*
D03*
D270*
X103248Y-79724D02*
D03*
X96949D02*
D03*
X103248Y-106004D02*
D03*
X96949D02*
D03*
D271*
X31791Y-121161D02*
D03*
Y-117224D02*
D03*
X50098Y-96949D02*
D03*
Y-93012D02*
D03*
X87341Y-95368D02*
D03*
Y-91431D02*
D03*
D272*
X110177Y-59164D02*
D03*
Y-50385D02*
D03*
X123228Y-122790D02*
D03*
Y-114010D02*
D03*
D273*
X110138Y-69508D02*
D03*
X103051Y-65768D02*
D03*
Y-73248D02*
D03*
X161319Y-59646D02*
D03*
X154232Y-55905D02*
D03*
Y-63386D02*
D03*
Y-45866D02*
D03*
X161319Y-49606D02*
D03*
Y-42126D02*
D03*
X110138Y-95965D02*
D03*
X103051Y-92224D02*
D03*
Y-99705D02*
D03*
X168996Y-94390D02*
D03*
X161909Y-90650D02*
D03*
Y-98130D02*
D03*
X169095Y-78642D02*
D03*
X162008Y-74902D02*
D03*
Y-82382D02*
D03*
X168996Y-126102D02*
D03*
X161909Y-122362D02*
D03*
Y-129842D02*
D03*
X168996Y-110158D02*
D03*
X161909Y-106417D02*
D03*
Y-113898D02*
D03*
D274*
X103813Y43626D02*
D03*
X109113D02*
D03*
X114313D02*
D03*
X119613D02*
D03*
X119213Y65748D02*
D03*
X114213D02*
D03*
X109213D02*
D03*
X104213D02*
D03*
X103616Y8882D02*
D03*
X108916D02*
D03*
X114116D02*
D03*
X119416D02*
D03*
X119016Y31004D02*
D03*
X114016D02*
D03*
X109016D02*
D03*
X104016D02*
D03*
X103616Y78665D02*
D03*
X108916D02*
D03*
X114116D02*
D03*
X119416D02*
D03*
X119016Y100787D02*
D03*
X114016D02*
D03*
X109016D02*
D03*
X104016D02*
D03*
X103616Y-25862D02*
D03*
X108916D02*
D03*
X114116D02*
D03*
X119416D02*
D03*
X119016Y-3740D02*
D03*
X114016D02*
D03*
X109016D02*
D03*
X104016D02*
D03*
X103714Y113508D02*
D03*
X109014D02*
D03*
X114214D02*
D03*
X119514D02*
D03*
X119114Y135630D02*
D03*
X114114D02*
D03*
X109114D02*
D03*
X104114D02*
D03*
D275*
X147638Y-62598D02*
D03*
Y-55905D02*
D03*
X49803Y-111221D02*
D03*
Y-117914D02*
D03*
D276*
X137968Y65162D02*
D03*
X132850D02*
D03*
X137771Y30418D02*
D03*
X132653D02*
D03*
X137771Y100201D02*
D03*
X132653D02*
D03*
X137771Y-4326D02*
D03*
X132653D02*
D03*
X137869Y135044D02*
D03*
X132751D02*
D03*
D277*
X81398Y56004D02*
D03*
Y58563D02*
D03*
Y61122D02*
D03*
Y63681D02*
D03*
Y66240D02*
D03*
Y68799D02*
D03*
X97992Y56004D02*
D03*
Y58563D02*
D03*
Y61122D02*
D03*
Y63681D02*
D03*
Y66240D02*
D03*
Y68799D02*
D03*
X81201Y21260D02*
D03*
Y23819D02*
D03*
Y26378D02*
D03*
Y28937D02*
D03*
Y31496D02*
D03*
Y34055D02*
D03*
X97795Y21260D02*
D03*
Y23819D02*
D03*
Y26378D02*
D03*
Y28937D02*
D03*
Y31496D02*
D03*
Y34055D02*
D03*
X81201Y91043D02*
D03*
Y93602D02*
D03*
Y96161D02*
D03*
Y98721D02*
D03*
Y101279D02*
D03*
Y103839D02*
D03*
X97795Y91043D02*
D03*
Y93602D02*
D03*
Y96161D02*
D03*
Y98721D02*
D03*
Y101279D02*
D03*
Y103839D02*
D03*
X81201Y-13484D02*
D03*
Y-10925D02*
D03*
Y-8366D02*
D03*
Y-5807D02*
D03*
Y-3248D02*
D03*
Y-689D02*
D03*
X97795Y-13484D02*
D03*
Y-10925D02*
D03*
Y-8366D02*
D03*
Y-5807D02*
D03*
Y-3248D02*
D03*
Y-689D02*
D03*
X81299Y125886D02*
D03*
Y128445D02*
D03*
Y131004D02*
D03*
Y133563D02*
D03*
Y136122D02*
D03*
Y138681D02*
D03*
X97894Y125886D02*
D03*
Y128445D02*
D03*
Y131004D02*
D03*
Y133563D02*
D03*
Y136122D02*
D03*
Y138681D02*
D03*
M02*
