G04 Layer_Color=8388736*
%FSLAX25Y25*%
%MOIN*%
G70*
G01*
G75*
%ADD189R,0.07887X0.04737*%
G04:AMPARAMS|DCode=190|XSize=19.81mil|YSize=43.43mil|CornerRadius=5.18mil|HoleSize=0mil|Usage=FLASHONLY|Rotation=90.000|XOffset=0mil|YOffset=0mil|HoleType=Round|Shape=RoundedRectangle|*
%AMROUNDEDRECTD190*
21,1,0.01981,0.03307,0,0,90.0*
21,1,0.00945,0.04343,0,0,90.0*
1,1,0.01036,0.01654,0.00472*
1,1,0.01036,0.01654,-0.00472*
1,1,0.01036,-0.01654,-0.00472*
1,1,0.01036,-0.01654,0.00472*
%
%ADD190ROUNDEDRECTD190*%
G04:AMPARAMS|DCode=191|XSize=19.81mil|YSize=43.43mil|CornerRadius=5.18mil|HoleSize=0mil|Usage=FLASHONLY|Rotation=0.000|XOffset=0mil|YOffset=0mil|HoleType=Round|Shape=RoundedRectangle|*
%AMROUNDEDRECTD191*
21,1,0.01981,0.03307,0,0,0.0*
21,1,0.00945,0.04343,0,0,0.0*
1,1,0.01036,0.00472,-0.01654*
1,1,0.01036,-0.00472,-0.01654*
1,1,0.01036,-0.00472,0.01654*
1,1,0.01036,0.00472,0.01654*
%
%ADD191ROUNDEDRECTD191*%
%ADD192R,0.07296X0.19107*%
%ADD193R,0.04737X0.02965*%
%ADD194R,0.03162X0.05524*%
%ADD195R,0.03162X0.04934*%
%ADD196R,0.02965X0.03950*%
G04:AMPARAMS|DCode=197|XSize=35.56mil|YSize=51.31mil|CornerRadius=5.38mil|HoleSize=0mil|Usage=FLASHONLY|Rotation=0.000|XOffset=0mil|YOffset=0mil|HoleType=Round|Shape=RoundedRectangle|*
%AMROUNDEDRECTD197*
21,1,0.03556,0.04055,0,0,0.0*
21,1,0.02480,0.05131,0,0,0.0*
1,1,0.01076,0.01240,-0.02028*
1,1,0.01076,-0.01240,-0.02028*
1,1,0.01076,-0.01240,0.02028*
1,1,0.01076,0.01240,0.02028*
%
%ADD197ROUNDEDRECTD197*%
G04:AMPARAMS|DCode=198|XSize=51.31mil|YSize=51.31mil|CornerRadius=6.17mil|HoleSize=0mil|Usage=FLASHONLY|Rotation=0.000|XOffset=0mil|YOffset=0mil|HoleType=Round|Shape=RoundedRectangle|*
%AMROUNDEDRECTD198*
21,1,0.05131,0.03898,0,0,0.0*
21,1,0.03898,0.05131,0,0,0.0*
1,1,0.01233,0.01949,-0.01949*
1,1,0.01233,-0.01949,-0.01949*
1,1,0.01233,-0.01949,0.01949*
1,1,0.01233,0.01949,0.01949*
%
%ADD198ROUNDEDRECTD198*%
G04:AMPARAMS|DCode=199|XSize=19.81mil|YSize=47.37mil|CornerRadius=8.72mil|HoleSize=0mil|Usage=FLASHONLY|Rotation=90.000|XOffset=0mil|YOffset=0mil|HoleType=Round|Shape=RoundedRectangle|*
%AMROUNDEDRECTD199*
21,1,0.01981,0.02992,0,0,90.0*
21,1,0.00236,0.04737,0,0,90.0*
1,1,0.01745,0.01496,0.00118*
1,1,0.01745,0.01496,-0.00118*
1,1,0.01745,-0.01496,-0.00118*
1,1,0.01745,-0.01496,0.00118*
%
%ADD199ROUNDEDRECTD199*%
G04:AMPARAMS|DCode=200|XSize=19.81mil|YSize=47.37mil|CornerRadius=8.72mil|HoleSize=0mil|Usage=FLASHONLY|Rotation=0.000|XOffset=0mil|YOffset=0mil|HoleType=Round|Shape=RoundedRectangle|*
%AMROUNDEDRECTD200*
21,1,0.01981,0.02992,0,0,0.0*
21,1,0.00236,0.04737,0,0,0.0*
1,1,0.01745,0.00118,-0.01496*
1,1,0.01745,-0.00118,-0.01496*
1,1,0.01745,-0.00118,0.01496*
1,1,0.01745,0.00118,0.01496*
%
%ADD200ROUNDEDRECTD200*%
%ADD201R,0.24422X0.24422*%
G04:AMPARAMS|DCode=202|XSize=19.81mil|YSize=47.37mil|CornerRadius=6.95mil|HoleSize=0mil|Usage=FLASHONLY|Rotation=90.000|XOffset=0mil|YOffset=0mil|HoleType=Round|Shape=RoundedRectangle|*
%AMROUNDEDRECTD202*
21,1,0.01981,0.03347,0,0,90.0*
21,1,0.00591,0.04737,0,0,90.0*
1,1,0.01391,0.01673,0.00295*
1,1,0.01391,0.01673,-0.00295*
1,1,0.01391,-0.01673,-0.00295*
1,1,0.01391,-0.01673,0.00295*
%
%ADD202ROUNDEDRECTD202*%
G04:AMPARAMS|DCode=203|XSize=19.81mil|YSize=47.37mil|CornerRadius=6.95mil|HoleSize=0mil|Usage=FLASHONLY|Rotation=0.000|XOffset=0mil|YOffset=0mil|HoleType=Round|Shape=RoundedRectangle|*
%AMROUNDEDRECTD203*
21,1,0.01981,0.03347,0,0,0.0*
21,1,0.00591,0.04737,0,0,0.0*
1,1,0.01391,0.00295,-0.01673*
1,1,0.01391,-0.00295,-0.01673*
1,1,0.01391,-0.00295,0.01673*
1,1,0.01391,0.00295,0.01673*
%
%ADD203ROUNDEDRECTD203*%
%ADD204R,0.13202X0.13202*%
%ADD205R,0.04934X0.03162*%
%ADD206R,0.07887X0.05721*%
%ADD207R,0.05761X0.05918*%
%ADD208R,0.02769X0.04737*%
%ADD209R,0.03556X0.04343*%
%ADD210R,0.09698X0.03202*%
%ADD211R,0.04737X0.04147*%
%ADD212R,0.05131X0.09068*%
G04:AMPARAMS|DCode=213|XSize=19.81mil|YSize=39.5mil|CornerRadius=5.18mil|HoleSize=0mil|Usage=FLASHONLY|Rotation=0.000|XOffset=0mil|YOffset=0mil|HoleType=Round|Shape=RoundedRectangle|*
%AMROUNDEDRECTD213*
21,1,0.01981,0.02913,0,0,0.0*
21,1,0.00945,0.03950,0,0,0.0*
1,1,0.01036,0.00472,-0.01457*
1,1,0.01036,-0.00472,-0.01457*
1,1,0.01036,-0.00472,0.01457*
1,1,0.01036,0.00472,0.01457*
%
%ADD213ROUNDEDRECTD213*%
G04:AMPARAMS|DCode=214|XSize=19.81mil|YSize=39.5mil|CornerRadius=5.18mil|HoleSize=0mil|Usage=FLASHONLY|Rotation=90.000|XOffset=0mil|YOffset=0mil|HoleType=Round|Shape=RoundedRectangle|*
%AMROUNDEDRECTD214*
21,1,0.01981,0.02913,0,0,90.0*
21,1,0.00945,0.03950,0,0,90.0*
1,1,0.01036,0.01457,0.00472*
1,1,0.01036,0.01457,-0.00472*
1,1,0.01036,-0.01457,-0.00472*
1,1,0.01036,-0.01457,0.00472*
%
%ADD214ROUNDEDRECTD214*%
G04:AMPARAMS|DCode=215|XSize=19.81mil|YSize=39.5mil|CornerRadius=6.95mil|HoleSize=0mil|Usage=FLASHONLY|Rotation=180.000|XOffset=0mil|YOffset=0mil|HoleType=Round|Shape=RoundedRectangle|*
%AMROUNDEDRECTD215*
21,1,0.01981,0.02559,0,0,180.0*
21,1,0.00591,0.03950,0,0,180.0*
1,1,0.01391,-0.00295,0.01280*
1,1,0.01391,0.00295,0.01280*
1,1,0.01391,0.00295,-0.01280*
1,1,0.01391,-0.00295,-0.01280*
%
%ADD215ROUNDEDRECTD215*%
%ADD216R,0.07296X0.04540*%
%ADD217R,0.02769X0.01587*%
%ADD218R,0.09855X0.13398*%
G04:AMPARAMS|DCode=219|XSize=25.72mil|YSize=47.37mil|CornerRadius=5.77mil|HoleSize=0mil|Usage=FLASHONLY|Rotation=270.000|XOffset=0mil|YOffset=0mil|HoleType=Round|Shape=RoundedRectangle|*
%AMROUNDEDRECTD219*
21,1,0.02572,0.03583,0,0,270.0*
21,1,0.01417,0.04737,0,0,270.0*
1,1,0.01154,-0.01791,-0.00709*
1,1,0.01154,-0.01791,0.00709*
1,1,0.01154,0.01791,0.00709*
1,1,0.01154,0.01791,-0.00709*
%
%ADD219ROUNDEDRECTD219*%
G04:AMPARAMS|DCode=220|XSize=25.72mil|YSize=39.5mil|CornerRadius=5.77mil|HoleSize=0mil|Usage=FLASHONLY|Rotation=0.000|XOffset=0mil|YOffset=0mil|HoleType=Round|Shape=RoundedRectangle|*
%AMROUNDEDRECTD220*
21,1,0.02572,0.02795,0,0,0.0*
21,1,0.01417,0.03950,0,0,0.0*
1,1,0.01154,0.00709,-0.01398*
1,1,0.01154,-0.00709,-0.01398*
1,1,0.01154,-0.00709,0.01398*
1,1,0.01154,0.00709,0.01398*
%
%ADD220ROUNDEDRECTD220*%
%ADD221R,0.14973X0.11036*%
G04:AMPARAMS|DCode=222|XSize=19.81mil|YSize=39.5mil|CornerRadius=6.95mil|HoleSize=0mil|Usage=FLASHONLY|Rotation=270.000|XOffset=0mil|YOffset=0mil|HoleType=Round|Shape=RoundedRectangle|*
%AMROUNDEDRECTD222*
21,1,0.01981,0.02559,0,0,270.0*
21,1,0.00591,0.03950,0,0,270.0*
1,1,0.01391,-0.01280,-0.00295*
1,1,0.01391,-0.01280,0.00295*
1,1,0.01391,0.01280,0.00295*
1,1,0.01391,0.01280,-0.00295*
%
%ADD222ROUNDEDRECTD222*%
%ADD223R,0.07296X0.10249*%
%ADD224R,0.04343X0.03950*%
%ADD225R,0.11036X0.05131*%
%ADD226R,0.03162X0.11036*%
%ADD227R,0.01981X0.03556*%
%ADD228R,0.07887X0.24028*%
%ADD229R,0.03950X0.04343*%
%ADD230R,0.04343X0.03556*%
G04:AMPARAMS|DCode=231|XSize=35.56mil|YSize=43.43mil|CornerRadius=5.38mil|HoleSize=0mil|Usage=FLASHONLY|Rotation=0.000|XOffset=0mil|YOffset=0mil|HoleType=Round|Shape=RoundedRectangle|*
%AMROUNDEDRECTD231*
21,1,0.03556,0.03268,0,0,0.0*
21,1,0.02480,0.04343,0,0,0.0*
1,1,0.01076,0.01240,-0.01634*
1,1,0.01076,-0.01240,-0.01634*
1,1,0.01076,-0.01240,0.01634*
1,1,0.01076,0.01240,0.01634*
%
%ADD231ROUNDEDRECTD231*%
%ADD232R,0.03950X0.03556*%
%ADD233R,0.03162X0.03162*%
%ADD234R,0.03950X0.03162*%
%ADD235R,0.04658X0.04658*%
%ADD236R,0.04737X0.05918*%
%ADD237R,0.03162X0.03162*%
%ADD238R,0.05918X0.04737*%
%ADD239R,0.04658X0.04658*%
G04:AMPARAMS|DCode=240|XSize=24.14mil|YSize=51.31mil|CornerRadius=8.04mil|HoleSize=0mil|Usage=FLASHONLY|Rotation=90.000|XOffset=0mil|YOffset=0mil|HoleType=Round|Shape=RoundedRectangle|*
%AMROUNDEDRECTD240*
21,1,0.02414,0.03524,0,0,90.0*
21,1,0.00807,0.05131,0,0,90.0*
1,1,0.01607,0.01762,0.00404*
1,1,0.01607,0.01762,-0.00404*
1,1,0.01607,-0.01762,-0.00404*
1,1,0.01607,-0.01762,0.00404*
%
%ADD240ROUNDEDRECTD240*%
%ADD241R,0.04737X0.05131*%
%ADD242C,0.05485*%
%ADD243C,0.06706*%
%ADD244C,0.24422*%
%ADD245C,0.26391*%
%ADD246C,0.12611*%
%ADD247C,0.01981*%
D189*
X82382Y55709D02*
D03*
Y65551D02*
D03*
D190*
X67716Y-138091D02*
D03*
Y-140059D02*
D03*
Y-142028D02*
D03*
Y-143996D02*
D03*
Y-145965D02*
D03*
Y-147933D02*
D03*
Y-149902D02*
D03*
Y-151870D02*
D03*
Y-153839D02*
D03*
Y-155807D02*
D03*
X79527D02*
D03*
Y-153839D02*
D03*
Y-151870D02*
D03*
Y-149902D02*
D03*
Y-147933D02*
D03*
Y-145965D02*
D03*
Y-138091D02*
D03*
Y-140059D02*
D03*
Y-142028D02*
D03*
Y-143996D02*
D03*
X67716Y-80807D02*
D03*
Y-82776D02*
D03*
Y-84744D02*
D03*
Y-86713D02*
D03*
Y-88681D02*
D03*
Y-90650D02*
D03*
Y-92618D02*
D03*
Y-94587D02*
D03*
Y-96555D02*
D03*
Y-98524D02*
D03*
X79527D02*
D03*
Y-96555D02*
D03*
Y-94587D02*
D03*
Y-92618D02*
D03*
Y-90650D02*
D03*
Y-88681D02*
D03*
Y-80807D02*
D03*
Y-82776D02*
D03*
Y-84744D02*
D03*
Y-86713D02*
D03*
D191*
X70669Y-158760D02*
D03*
X72638D02*
D03*
X74606D02*
D03*
X76575D02*
D03*
X70669Y-135138D02*
D03*
X72638D02*
D03*
X74606D02*
D03*
X76575D02*
D03*
X70669Y-101476D02*
D03*
X72638D02*
D03*
X74606D02*
D03*
X76575D02*
D03*
X70669Y-77854D02*
D03*
X72638D02*
D03*
X74606D02*
D03*
X76575D02*
D03*
D192*
X73622Y-146949D02*
D03*
Y-89665D02*
D03*
D193*
X26083Y-114665D02*
D03*
Y-118405D02*
D03*
Y-122146D02*
D03*
X36319Y-122146D02*
D03*
Y-118405D02*
D03*
Y-114665D02*
D03*
D194*
X147638Y66043D02*
D03*
X143898Y73130D02*
D03*
X151378D02*
D03*
D195*
X16732Y49705D02*
D03*
X12992D02*
D03*
X9252D02*
D03*
Y39075D02*
D03*
X12992D02*
D03*
X16732D02*
D03*
D196*
X37402Y-3937D02*
D03*
X41142Y3937D02*
D03*
X33661D02*
D03*
D197*
X83169Y1772D02*
D03*
X90650D02*
D03*
Y-6890D02*
D03*
D198*
X83957D02*
D03*
D199*
X27403Y127698D02*
D03*
Y125730D02*
D03*
Y123761D02*
D03*
Y121793D02*
D03*
Y119824D02*
D03*
Y117856D02*
D03*
Y115887D02*
D03*
Y113919D02*
D03*
Y111950D02*
D03*
Y109982D02*
D03*
Y108013D02*
D03*
Y106045D02*
D03*
Y104076D02*
D03*
Y102108D02*
D03*
Y100139D02*
D03*
Y98171D02*
D03*
X62836D02*
D03*
Y100139D02*
D03*
Y102108D02*
D03*
Y104076D02*
D03*
Y106045D02*
D03*
Y108013D02*
D03*
Y109982D02*
D03*
Y111950D02*
D03*
Y113919D02*
D03*
Y115887D02*
D03*
Y117856D02*
D03*
Y119824D02*
D03*
Y121793D02*
D03*
Y123761D02*
D03*
Y125730D02*
D03*
Y127698D02*
D03*
D200*
X30356Y95218D02*
D03*
X32324D02*
D03*
X34293D02*
D03*
X36261D02*
D03*
X38230D02*
D03*
X40199D02*
D03*
X42167D02*
D03*
X44136D02*
D03*
X46104D02*
D03*
X48073D02*
D03*
X50041D02*
D03*
X52010D02*
D03*
X53978D02*
D03*
X55947D02*
D03*
X57915D02*
D03*
X59884D02*
D03*
Y130651D02*
D03*
X57915D02*
D03*
X55947D02*
D03*
X53978D02*
D03*
X52010D02*
D03*
X50041D02*
D03*
X48073D02*
D03*
X46104D02*
D03*
X44136D02*
D03*
X42167D02*
D03*
X40199D02*
D03*
X38230D02*
D03*
X36261D02*
D03*
X34293D02*
D03*
X32324D02*
D03*
X30356D02*
D03*
D201*
X45120Y112935D02*
D03*
D202*
X59055Y-17028D02*
D03*
Y-18996D02*
D03*
Y-20965D02*
D03*
Y-22933D02*
D03*
Y-24902D02*
D03*
Y-26870D02*
D03*
Y-28839D02*
D03*
Y-30807D02*
D03*
X78740D02*
D03*
Y-28839D02*
D03*
Y-26870D02*
D03*
Y-24902D02*
D03*
Y-22933D02*
D03*
Y-20965D02*
D03*
Y-18996D02*
D03*
Y-17028D02*
D03*
X115551Y40551D02*
D03*
Y38583D02*
D03*
Y36614D02*
D03*
Y34646D02*
D03*
Y32677D02*
D03*
Y30709D02*
D03*
Y28740D02*
D03*
Y26772D02*
D03*
X135236D02*
D03*
Y28740D02*
D03*
Y30709D02*
D03*
Y32677D02*
D03*
Y34646D02*
D03*
Y36614D02*
D03*
Y38583D02*
D03*
Y40551D02*
D03*
D203*
X62008Y-33760D02*
D03*
X63976D02*
D03*
X65945D02*
D03*
X67913D02*
D03*
X69882D02*
D03*
X71850D02*
D03*
X73819D02*
D03*
X75787D02*
D03*
Y-14075D02*
D03*
X73819D02*
D03*
X71850D02*
D03*
X69882D02*
D03*
X67913D02*
D03*
X65945D02*
D03*
X63976D02*
D03*
X62008D02*
D03*
X118504Y23819D02*
D03*
X120472D02*
D03*
X122441D02*
D03*
X124409D02*
D03*
X126378D02*
D03*
X128347D02*
D03*
X130315D02*
D03*
X132283D02*
D03*
Y43504D02*
D03*
X130315D02*
D03*
X128347D02*
D03*
X126378D02*
D03*
X124409D02*
D03*
X122441D02*
D03*
X120472D02*
D03*
X118504D02*
D03*
D204*
X68898Y-23917D02*
D03*
X125394Y33661D02*
D03*
D205*
X-3543Y-86024D02*
D03*
Y-91929D02*
D03*
Y-97835D02*
D03*
Y-103740D02*
D03*
Y-109646D02*
D03*
Y-115551D02*
D03*
Y-121457D02*
D03*
Y-127362D02*
D03*
Y23327D02*
D03*
Y29232D02*
D03*
Y35138D02*
D03*
Y41043D02*
D03*
Y46949D02*
D03*
Y52854D02*
D03*
Y58760D02*
D03*
Y64665D02*
D03*
Y-53051D02*
D03*
Y-47146D02*
D03*
Y-41240D02*
D03*
Y-35335D02*
D03*
Y-29429D02*
D03*
Y-23524D02*
D03*
Y97638D02*
D03*
Y103543D02*
D03*
Y109449D02*
D03*
Y115354D02*
D03*
Y121260D02*
D03*
Y127165D02*
D03*
D206*
X-24016Y-75787D02*
D03*
Y-137598D02*
D03*
Y13091D02*
D03*
Y74902D02*
D03*
Y-63287D02*
D03*
Y-13287D02*
D03*
Y87402D02*
D03*
Y137402D02*
D03*
D207*
X81102Y158524D02*
D03*
X113386D02*
D03*
X151969Y158523D02*
D03*
X127559D02*
D03*
D208*
X91339Y146752D02*
D03*
X103150D02*
D03*
X99213D02*
D03*
X95276D02*
D03*
X141732Y146752D02*
D03*
X137795D02*
D03*
D209*
X182283Y-38189D02*
D03*
X176378D02*
D03*
X21654Y-53839D02*
D03*
X15748D02*
D03*
X184252Y135039D02*
D03*
X178347D02*
D03*
X182283Y24803D02*
D03*
X176378D02*
D03*
X132087Y135039D02*
D03*
X126181D02*
D03*
X182283Y-6693D02*
D03*
X176378D02*
D03*
X133071Y105512D02*
D03*
X127165D02*
D03*
X182283D02*
D03*
X176378D02*
D03*
X133563Y-6791D02*
D03*
X127657D02*
D03*
X9843Y-48819D02*
D03*
X15748D02*
D03*
X129134Y-38189D02*
D03*
X123228D02*
D03*
D210*
X216437Y-45276D02*
D03*
Y-49213D02*
D03*
Y-53150D02*
D03*
Y-57087D02*
D03*
Y-61024D02*
D03*
Y-64961D02*
D03*
Y-68898D02*
D03*
Y-72835D02*
D03*
Y-76772D02*
D03*
Y-80709D02*
D03*
X249429D02*
D03*
Y-76772D02*
D03*
Y-72835D02*
D03*
Y-68898D02*
D03*
Y-64961D02*
D03*
Y-61024D02*
D03*
Y-57087D02*
D03*
Y-53150D02*
D03*
Y-49213D02*
D03*
Y-45276D02*
D03*
X216437Y-98425D02*
D03*
Y-102362D02*
D03*
Y-106299D02*
D03*
Y-110236D02*
D03*
Y-114173D02*
D03*
Y-118110D02*
D03*
Y-122047D02*
D03*
Y-125984D02*
D03*
Y-129921D02*
D03*
Y-133858D02*
D03*
X249429D02*
D03*
Y-129921D02*
D03*
Y-125984D02*
D03*
Y-122047D02*
D03*
Y-118110D02*
D03*
Y-114173D02*
D03*
Y-110236D02*
D03*
Y-106299D02*
D03*
Y-102362D02*
D03*
Y-98425D02*
D03*
X216437Y73740D02*
D03*
Y69803D02*
D03*
Y65866D02*
D03*
Y61929D02*
D03*
Y57992D02*
D03*
Y54055D02*
D03*
Y50118D02*
D03*
Y46181D02*
D03*
Y42244D02*
D03*
Y38307D02*
D03*
X249429D02*
D03*
Y42244D02*
D03*
Y46181D02*
D03*
Y50118D02*
D03*
Y54055D02*
D03*
Y57992D02*
D03*
Y61929D02*
D03*
Y65866D02*
D03*
Y69803D02*
D03*
Y73740D02*
D03*
X216437Y126890D02*
D03*
Y122953D02*
D03*
Y119016D02*
D03*
Y115079D02*
D03*
Y111142D02*
D03*
Y107205D02*
D03*
Y103268D02*
D03*
Y99331D02*
D03*
Y95394D02*
D03*
Y91457D02*
D03*
X249429D02*
D03*
Y95394D02*
D03*
Y99331D02*
D03*
Y103268D02*
D03*
Y107205D02*
D03*
Y111142D02*
D03*
Y115079D02*
D03*
Y119016D02*
D03*
Y122953D02*
D03*
Y126890D02*
D03*
D211*
X54134Y78150D02*
D03*
X60827D02*
D03*
Y83661D02*
D03*
X54134D02*
D03*
D212*
X108366Y66929D02*
D03*
D213*
X107382Y73622D02*
D03*
X109350D02*
D03*
Y60236D02*
D03*
X107382D02*
D03*
D214*
X113091Y71850D02*
D03*
Y69882D02*
D03*
Y67913D02*
D03*
Y65945D02*
D03*
Y63976D02*
D03*
Y62008D02*
D03*
X103642D02*
D03*
Y63976D02*
D03*
Y65945D02*
D03*
Y67913D02*
D03*
Y69882D02*
D03*
Y71850D02*
D03*
D215*
X160630Y92618D02*
D03*
X162598D02*
D03*
X164567D02*
D03*
X166535D02*
D03*
Y101279D02*
D03*
X164567D02*
D03*
X162598D02*
D03*
X160630D02*
D03*
Y-42421D02*
D03*
X162598D02*
D03*
X164567D02*
D03*
X166535D02*
D03*
Y-51083D02*
D03*
X164567D02*
D03*
X162598D02*
D03*
X160630D02*
D03*
Y122146D02*
D03*
X162598D02*
D03*
X164567D02*
D03*
X166535D02*
D03*
Y130807D02*
D03*
X164567D02*
D03*
X162598D02*
D03*
X160630D02*
D03*
Y11909D02*
D03*
X162598D02*
D03*
X164567D02*
D03*
X166535D02*
D03*
Y20571D02*
D03*
X164567D02*
D03*
X162598D02*
D03*
X160630D02*
D03*
X109449Y122146D02*
D03*
X111417D02*
D03*
X113386D02*
D03*
X115354D02*
D03*
Y130807D02*
D03*
X113386D02*
D03*
X111417D02*
D03*
X109449D02*
D03*
X160630Y-19587D02*
D03*
X162598D02*
D03*
X164567D02*
D03*
X166535D02*
D03*
Y-10925D02*
D03*
X164567D02*
D03*
X162598D02*
D03*
X160630D02*
D03*
X109449Y92618D02*
D03*
X111417D02*
D03*
X113386D02*
D03*
X115354D02*
D03*
Y101279D02*
D03*
X113386D02*
D03*
X111417D02*
D03*
X109449D02*
D03*
X107480Y-10925D02*
D03*
X109449D02*
D03*
X111417D02*
D03*
X113386D02*
D03*
Y-19587D02*
D03*
X111417D02*
D03*
X109449D02*
D03*
X107480D02*
D03*
Y-42421D02*
D03*
X109449D02*
D03*
X111417D02*
D03*
X113386D02*
D03*
Y-51083D02*
D03*
X111417D02*
D03*
X109449D02*
D03*
X107480D02*
D03*
D216*
X163583Y96949D02*
D03*
Y-46752D02*
D03*
Y126476D02*
D03*
Y16240D02*
D03*
X112402Y126476D02*
D03*
X163583Y-15256D02*
D03*
X112402Y96949D02*
D03*
X110433Y-15256D02*
D03*
Y-46752D02*
D03*
D217*
X161614Y100098D02*
D03*
Y-43602D02*
D03*
Y129626D02*
D03*
Y19390D02*
D03*
X110433Y129626D02*
D03*
X161614Y-12106D02*
D03*
X110433Y100098D02*
D03*
X108465Y-12106D02*
D03*
Y-43602D02*
D03*
D218*
X62697Y60630D02*
D03*
D219*
X55020Y55905D02*
D03*
Y59055D02*
D03*
Y62205D02*
D03*
Y65354D02*
D03*
X70374D02*
D03*
Y62205D02*
D03*
Y59055D02*
D03*
Y55905D02*
D03*
D220*
X42618Y52165D02*
D03*
X38878D02*
D03*
X35138D02*
D03*
X31398D02*
D03*
Y36417D02*
D03*
X35138D02*
D03*
X38878D02*
D03*
X42618D02*
D03*
D221*
X37008Y44291D02*
D03*
D222*
X27657Y76968D02*
D03*
Y78937D02*
D03*
Y80905D02*
D03*
Y82874D02*
D03*
X15846D02*
D03*
Y80905D02*
D03*
Y78937D02*
D03*
Y76968D02*
D03*
D223*
X21752Y79921D02*
D03*
D224*
X74409Y140256D02*
D03*
Y146161D02*
D03*
X87008Y-148721D02*
D03*
Y-143209D02*
D03*
Y-91437D02*
D03*
Y-85925D02*
D03*
X35630Y79528D02*
D03*
Y85039D02*
D03*
X42126Y79528D02*
D03*
Y85039D02*
D03*
X-8563Y150197D02*
D03*
Y144291D02*
D03*
X155905Y120768D02*
D03*
Y126279D02*
D03*
Y10531D02*
D03*
Y16043D02*
D03*
X104724Y120768D02*
D03*
Y126279D02*
D03*
X155905Y-20965D02*
D03*
Y-15453D02*
D03*
X104724Y91240D02*
D03*
Y96752D02*
D03*
X155905Y91240D02*
D03*
Y96752D02*
D03*
X145374Y-13189D02*
D03*
Y-7677D02*
D03*
X102756Y-23917D02*
D03*
Y-18406D02*
D03*
Y-52461D02*
D03*
Y-46949D02*
D03*
X155905Y-52461D02*
D03*
Y-46949D02*
D03*
D225*
X58760Y46260D02*
D03*
Y35630D02*
D03*
X137697Y-89665D02*
D03*
Y-100295D02*
D03*
X164961Y-149705D02*
D03*
Y-160335D02*
D03*
X137697Y-82677D02*
D03*
Y-72047D02*
D03*
Y-141437D02*
D03*
Y-130807D02*
D03*
X151083Y-149705D02*
D03*
Y-160335D02*
D03*
Y-82677D02*
D03*
Y-72047D02*
D03*
X36713Y-86614D02*
D03*
Y-75984D02*
D03*
X36713Y-133563D02*
D03*
Y-144193D02*
D03*
X50984Y-133563D02*
D03*
Y-144193D02*
D03*
Y-162894D02*
D03*
Y-152264D02*
D03*
X36713Y-162894D02*
D03*
Y-152264D02*
D03*
X50984Y-94095D02*
D03*
Y-104724D02*
D03*
X36713Y-94095D02*
D03*
Y-104724D02*
D03*
X50984Y-86614D02*
D03*
Y-75984D02*
D03*
X164961Y-141437D02*
D03*
Y-130807D02*
D03*
X151083Y-89665D02*
D03*
Y-100295D02*
D03*
X137697Y-149705D02*
D03*
Y-160335D02*
D03*
X164961Y-82677D02*
D03*
Y-72047D02*
D03*
Y-89665D02*
D03*
Y-100295D02*
D03*
X151083Y-141437D02*
D03*
Y-130807D02*
D03*
X71555Y46260D02*
D03*
Y35630D02*
D03*
X84350Y46260D02*
D03*
Y35630D02*
D03*
D226*
X71752Y161319D02*
D03*
X29626D02*
D03*
D227*
X33957Y152657D02*
D03*
X35925D02*
D03*
X37894D02*
D03*
X39862D02*
D03*
X41831D02*
D03*
X43799D02*
D03*
X45768D02*
D03*
X47736D02*
D03*
X67421D02*
D03*
X65453D02*
D03*
X63484D02*
D03*
X61516D02*
D03*
X59547D02*
D03*
X57579D02*
D03*
X55610D02*
D03*
X53642D02*
D03*
X51673D02*
D03*
X49705D02*
D03*
D228*
X94291Y-146358D02*
D03*
X125787D02*
D03*
Y-87500D02*
D03*
X94291D02*
D03*
D229*
X143209Y105512D02*
D03*
X137697D02*
D03*
X194390Y135039D02*
D03*
X188878D02*
D03*
X192421Y24803D02*
D03*
X186909D02*
D03*
X142224Y135039D02*
D03*
X136713D02*
D03*
X192421Y-6693D02*
D03*
X186909D02*
D03*
X192421Y105512D02*
D03*
X186909D02*
D03*
X139272Y-38189D02*
D03*
X133760D02*
D03*
X192421D02*
D03*
X186909D02*
D03*
D230*
X155905Y-42717D02*
D03*
Y-36811D02*
D03*
Y130512D02*
D03*
Y136417D02*
D03*
Y20276D02*
D03*
Y26181D02*
D03*
X104724Y130512D02*
D03*
Y136417D02*
D03*
X155905Y-11220D02*
D03*
Y-5315D02*
D03*
X104724Y100984D02*
D03*
Y106890D02*
D03*
X155905Y100984D02*
D03*
Y106890D02*
D03*
X102756Y-14173D02*
D03*
Y-8268D02*
D03*
Y-42717D02*
D03*
Y-36811D02*
D03*
D231*
X162600Y69640D02*
D03*
X165159Y62160D02*
D03*
X160041D02*
D03*
X10236Y-53839D02*
D03*
X5118D02*
D03*
X7677Y-61319D02*
D03*
D232*
X160238Y57200D02*
D03*
X164962D02*
D03*
X145256D02*
D03*
X149980D02*
D03*
Y78346D02*
D03*
X145256D02*
D03*
D233*
X95571Y-14173D02*
D03*
Y-18110D02*
D03*
X95571Y-4331D02*
D03*
Y-8268D02*
D03*
X85728Y-71260D02*
D03*
Y-67323D02*
D03*
X57579Y-124606D02*
D03*
Y-128543D02*
D03*
X65256D02*
D03*
Y-124606D02*
D03*
X81201Y-67323D02*
D03*
Y-71260D02*
D03*
X90748D02*
D03*
Y-67323D02*
D03*
X57579D02*
D03*
Y-71260D02*
D03*
X65256D02*
D03*
Y-67323D02*
D03*
X59449Y-105709D02*
D03*
Y-101772D02*
D03*
X81195Y-128543D02*
D03*
Y-124606D02*
D03*
X90650Y-124606D02*
D03*
Y-128543D02*
D03*
X61417Y-124606D02*
D03*
Y-128543D02*
D03*
X85722Y-124606D02*
D03*
Y-128543D02*
D03*
X61417Y-71260D02*
D03*
Y-67323D02*
D03*
X36516Y69193D02*
D03*
Y73130D02*
D03*
X40748D02*
D03*
Y69193D02*
D03*
X7382Y93110D02*
D03*
Y89173D02*
D03*
X36516Y58858D02*
D03*
Y62795D02*
D03*
X7382Y78051D02*
D03*
Y74114D02*
D03*
Y81496D02*
D03*
Y85433D02*
D03*
X56299Y-45276D02*
D03*
Y-49213D02*
D03*
X61417D02*
D03*
Y-45276D02*
D03*
X169685Y134744D02*
D03*
Y130807D02*
D03*
Y20571D02*
D03*
Y24508D02*
D03*
X118504Y134744D02*
D03*
Y130807D02*
D03*
X169685Y-10925D02*
D03*
Y-6988D02*
D03*
X118504Y105217D02*
D03*
Y101279D02*
D03*
X169685D02*
D03*
Y105217D02*
D03*
X48720Y50098D02*
D03*
Y46161D02*
D03*
X116535Y-6988D02*
D03*
Y-10925D02*
D03*
X32283Y58858D02*
D03*
Y62795D02*
D03*
X51675Y148827D02*
D03*
Y144890D02*
D03*
X-8563Y154331D02*
D03*
Y158268D02*
D03*
X40748Y62795D02*
D03*
Y58858D02*
D03*
X65929Y144488D02*
D03*
Y148425D02*
D03*
X25295Y43110D02*
D03*
Y39173D02*
D03*
X11122Y75492D02*
D03*
Y71555D02*
D03*
X49213Y-1969D02*
D03*
Y1969D02*
D03*
X53150Y-1969D02*
D03*
Y1969D02*
D03*
X102657Y33169D02*
D03*
Y37106D02*
D03*
X19390Y-116437D02*
D03*
Y-120374D02*
D03*
X46949Y-118405D02*
D03*
Y-122343D02*
D03*
X15453Y-116437D02*
D03*
Y-120374D02*
D03*
X43012Y-118405D02*
D03*
Y-122343D02*
D03*
X116535Y-42421D02*
D03*
Y-38484D02*
D03*
X169685D02*
D03*
Y-42421D02*
D03*
X50886Y-122343D02*
D03*
Y-118405D02*
D03*
X144587Y40748D02*
D03*
Y44685D02*
D03*
X46211Y-8563D02*
D03*
Y-12500D02*
D03*
X107382Y37106D02*
D03*
Y33169D02*
D03*
X46211Y-16732D02*
D03*
Y-20669D02*
D03*
X107382Y44685D02*
D03*
Y40748D02*
D03*
X51575Y-12500D02*
D03*
Y-8563D02*
D03*
X102657Y40748D02*
D03*
Y44685D02*
D03*
X149213Y40748D02*
D03*
Y44685D02*
D03*
X90896Y-18110D02*
D03*
Y-14173D02*
D03*
X86614D02*
D03*
Y-18110D02*
D03*
X51575Y-20669D02*
D03*
Y-16732D02*
D03*
X74016Y-45276D02*
D03*
Y-49213D02*
D03*
X78740D02*
D03*
Y-45276D02*
D03*
X87402Y-45276D02*
D03*
Y-49213D02*
D03*
X87205Y-33465D02*
D03*
Y-29528D02*
D03*
X52362Y-49213D02*
D03*
Y-45276D02*
D03*
X65354D02*
D03*
Y-49213D02*
D03*
X70079D02*
D03*
Y-45276D02*
D03*
X82677D02*
D03*
Y-49213D02*
D03*
X91339Y-49213D02*
D03*
Y-45276D02*
D03*
X91142Y-29528D02*
D03*
Y-33465D02*
D03*
X95571Y3445D02*
D03*
Y-492D02*
D03*
D234*
X86811Y-25984D02*
D03*
X91535D02*
D03*
X56693Y-41732D02*
D03*
X51968D02*
D03*
X65748D02*
D03*
X61024D02*
D03*
X69685D02*
D03*
X74409D02*
D03*
X78347D02*
D03*
X83071D02*
D03*
X87008D02*
D03*
X91732D02*
D03*
D235*
X5315Y115079D02*
D03*
Y109724D02*
D03*
X10728Y115079D02*
D03*
Y109724D02*
D03*
X285433Y138071D02*
D03*
Y143425D02*
D03*
X280217Y138071D02*
D03*
Y143425D02*
D03*
D236*
X5709Y133465D02*
D03*
X13583D02*
D03*
X206594Y71555D02*
D03*
X198721D02*
D03*
X206594Y63460D02*
D03*
X198721D02*
D03*
X206594Y55364D02*
D03*
X198721D02*
D03*
X206594Y47269D02*
D03*
X198721D02*
D03*
X206594Y39173D02*
D03*
X198721D02*
D03*
X205906Y-100492D02*
D03*
X198031D02*
D03*
X205906Y-108514D02*
D03*
X198031D02*
D03*
X205906Y-116535D02*
D03*
X198031D02*
D03*
X205906Y-124557D02*
D03*
X198031D02*
D03*
X205906Y-132579D02*
D03*
X198031D02*
D03*
X190945Y63484D02*
D03*
X183071D02*
D03*
X190945Y55315D02*
D03*
X183071D02*
D03*
X191043Y47269D02*
D03*
X183169D02*
D03*
X191043Y39173D02*
D03*
X183169D02*
D03*
X190748Y-108514D02*
D03*
X182874D02*
D03*
X190748Y-116535D02*
D03*
X182874D02*
D03*
X190748Y-124557D02*
D03*
X182874D02*
D03*
X190748Y-132579D02*
D03*
X182874D02*
D03*
X173425Y148031D02*
D03*
X165551D02*
D03*
X136713Y6693D02*
D03*
X144587D02*
D03*
X170472Y76673D02*
D03*
X162598D02*
D03*
X246063Y0D02*
D03*
X253937D02*
D03*
X230315Y98D02*
D03*
X238189D02*
D03*
X122539Y6693D02*
D03*
X114665D02*
D03*
X208563Y98D02*
D03*
X216437D02*
D03*
X125098Y-112598D02*
D03*
X117224D02*
D03*
X93602Y80118D02*
D03*
X85728D02*
D03*
X93602Y72835D02*
D03*
X85728D02*
D03*
D237*
X86909Y-160925D02*
D03*
X82972D02*
D03*
Y-103642D02*
D03*
X86909D02*
D03*
X76378Y81299D02*
D03*
X72441D02*
D03*
X42618Y31004D02*
D03*
X38681D02*
D03*
X19488Y70079D02*
D03*
X23425D02*
D03*
X59646Y87500D02*
D03*
X63583D02*
D03*
X56299D02*
D03*
X52362D02*
D03*
X76870Y113779D02*
D03*
X72933D02*
D03*
Y110374D02*
D03*
X76870D02*
D03*
Y103563D02*
D03*
X72933D02*
D03*
Y106968D02*
D03*
X76870D02*
D03*
X11417Y93504D02*
D03*
X15354D02*
D03*
Y97638D02*
D03*
X11417D02*
D03*
X175689Y117323D02*
D03*
X171752D02*
D03*
Y7087D02*
D03*
X175689D02*
D03*
X124508Y117323D02*
D03*
X120571D02*
D03*
X171752Y-24409D02*
D03*
X175689D02*
D03*
X124508Y87795D02*
D03*
X120571D02*
D03*
X171752D02*
D03*
X175689D02*
D03*
X192224Y117323D02*
D03*
X188287D02*
D03*
Y7087D02*
D03*
X192224D02*
D03*
X141043Y117323D02*
D03*
X137106D02*
D03*
X188287Y-24409D02*
D03*
X192224D02*
D03*
X141043Y87795D02*
D03*
X137106D02*
D03*
X188287D02*
D03*
X192224D02*
D03*
X160728Y136516D02*
D03*
X164665D02*
D03*
Y26280D02*
D03*
X160728D02*
D03*
X109547Y136516D02*
D03*
X113484D02*
D03*
X164665Y-5217D02*
D03*
X160728D02*
D03*
X109547Y106988D02*
D03*
X113484D02*
D03*
X164665D02*
D03*
X160728D02*
D03*
X167717Y117323D02*
D03*
X163779D02*
D03*
Y7087D02*
D03*
X167717D02*
D03*
X116535Y117323D02*
D03*
X112598D02*
D03*
X163779Y-24409D02*
D03*
X167717D02*
D03*
X116535Y87795D02*
D03*
X112598D02*
D03*
X163779D02*
D03*
X167717D02*
D03*
X69882Y139862D02*
D03*
X65945D02*
D03*
X183760Y117323D02*
D03*
X179823D02*
D03*
Y7087D02*
D03*
X183760D02*
D03*
X132579Y117323D02*
D03*
X128642D02*
D03*
X179823Y-24409D02*
D03*
X183760D02*
D03*
X132579Y87795D02*
D03*
X128642D02*
D03*
X179823D02*
D03*
X183760D02*
D03*
X122539Y-24409D02*
D03*
X118602D02*
D03*
X139075D02*
D03*
X135138D02*
D03*
X111516Y-5217D02*
D03*
X107579D02*
D03*
X114567Y-24409D02*
D03*
X110630D02*
D03*
X130610D02*
D03*
X126673D02*
D03*
X82480Y141339D02*
D03*
X86417D02*
D03*
X15354Y89173D02*
D03*
X11417D02*
D03*
X72933Y96752D02*
D03*
X76870D02*
D03*
Y100157D02*
D03*
X72933D02*
D03*
X122539Y-55905D02*
D03*
X118602D02*
D03*
X171752D02*
D03*
X175689D02*
D03*
X135138D02*
D03*
X139075D02*
D03*
X192224D02*
D03*
X188287D02*
D03*
X111516Y-36713D02*
D03*
X107579D02*
D03*
X160728D02*
D03*
X164665D02*
D03*
X110630Y-55905D02*
D03*
X114567D02*
D03*
X167717D02*
D03*
X163779D02*
D03*
X130610D02*
D03*
X126673D02*
D03*
X179823D02*
D03*
X183760D02*
D03*
X122441Y50295D02*
D03*
X126378D02*
D03*
X66339Y-8366D02*
D03*
X70276D02*
D03*
X113189Y78347D02*
D03*
X117126D02*
D03*
X165748Y-60433D02*
D03*
X169685D02*
D03*
X157480D02*
D03*
X161417D02*
D03*
D238*
X205709Y9941D02*
D03*
Y17815D02*
D03*
X61024Y-3937D02*
D03*
Y3937D02*
D03*
X98425Y116142D02*
D03*
Y124016D02*
D03*
X205709Y-22146D02*
D03*
Y-14272D02*
D03*
X98425Y89764D02*
D03*
Y97638D02*
D03*
X205118Y134646D02*
D03*
Y126772D02*
D03*
X205709Y-37402D02*
D03*
Y-45276D02*
D03*
X5300Y-100937D02*
D03*
Y-93063D02*
D03*
Y-124185D02*
D03*
Y-116311D02*
D03*
D239*
X263957Y-14134D02*
D03*
X269311D02*
D03*
Y97280D02*
D03*
X263957D02*
D03*
X269311Y-84941D02*
D03*
X263957D02*
D03*
X269311Y-106791D02*
D03*
X263957D02*
D03*
X269311Y-128642D02*
D03*
X263957D02*
D03*
X269311Y-150492D02*
D03*
X263957D02*
D03*
X263957Y104134D02*
D03*
X269311D02*
D03*
X277638Y-143209D02*
D03*
X282992D02*
D03*
X277638Y-150492D02*
D03*
X282992D02*
D03*
X263957Y28740D02*
D03*
X269311D02*
D03*
X269311Y-92225D02*
D03*
X263957D02*
D03*
X269311Y-114075D02*
D03*
X263957D02*
D03*
X269311Y-135925D02*
D03*
X263957D02*
D03*
Y-99508D02*
D03*
X269311D02*
D03*
X263957Y-121358D02*
D03*
X269311D02*
D03*
X263957Y-143209D02*
D03*
X269311D02*
D03*
Y-77658D02*
D03*
X263957D02*
D03*
X269311Y83572D02*
D03*
X263957D02*
D03*
X269311Y63010D02*
D03*
X263957D02*
D03*
X269311Y42448D02*
D03*
X263957D02*
D03*
Y76718D02*
D03*
X269311D02*
D03*
X263957Y56156D02*
D03*
X269311D02*
D03*
X263957Y35594D02*
D03*
X269311D02*
D03*
X263957Y90426D02*
D03*
X269311D02*
D03*
X263957Y69864D02*
D03*
X269311D02*
D03*
X263957Y49302D02*
D03*
X269311D02*
D03*
X263957Y15551D02*
D03*
X269311D02*
D03*
X263957Y8130D02*
D03*
X269311D02*
D03*
Y-21555D02*
D03*
X263957D02*
D03*
X202047Y93110D02*
D03*
X207402D02*
D03*
X201850Y-79331D02*
D03*
X207205D02*
D03*
X202047Y98032D02*
D03*
X207402D02*
D03*
X201850Y-74409D02*
D03*
X207205D02*
D03*
X202047Y103051D02*
D03*
X207402D02*
D03*
X201850Y-69390D02*
D03*
X207205D02*
D03*
X202062Y107924D02*
D03*
X207416D02*
D03*
X201865Y-64517D02*
D03*
X207219D02*
D03*
D240*
X195228Y121830D02*
D03*
Y124389D02*
D03*
Y126948D02*
D03*
Y129507D02*
D03*
X177905Y121830D02*
D03*
Y124389D02*
D03*
Y126948D02*
D03*
Y129507D02*
D03*
X191586Y11594D02*
D03*
Y14153D02*
D03*
Y16712D02*
D03*
Y19271D02*
D03*
X174263Y11594D02*
D03*
Y14153D02*
D03*
Y16712D02*
D03*
Y19271D02*
D03*
X140405Y121830D02*
D03*
Y124389D02*
D03*
Y126948D02*
D03*
Y129507D02*
D03*
X123082Y121830D02*
D03*
Y124389D02*
D03*
Y126948D02*
D03*
Y129507D02*
D03*
X191586Y-19903D02*
D03*
Y-17343D02*
D03*
Y-14784D02*
D03*
Y-12225D02*
D03*
X174263Y-19903D02*
D03*
Y-17343D02*
D03*
Y-14784D02*
D03*
Y-12225D02*
D03*
X144046Y92302D02*
D03*
Y94861D02*
D03*
Y97420D02*
D03*
Y99979D02*
D03*
X126724Y92302D02*
D03*
Y94861D02*
D03*
Y97420D02*
D03*
Y99979D02*
D03*
X191586Y92302D02*
D03*
Y94861D02*
D03*
Y97420D02*
D03*
Y99979D02*
D03*
X174263Y92302D02*
D03*
Y94861D02*
D03*
Y97420D02*
D03*
Y99979D02*
D03*
X121113Y-12225D02*
D03*
Y-14784D02*
D03*
Y-17343D02*
D03*
Y-19903D02*
D03*
X138436Y-12225D02*
D03*
Y-14784D02*
D03*
Y-17343D02*
D03*
Y-19903D02*
D03*
X121113Y-43721D02*
D03*
Y-46280D02*
D03*
Y-48840D02*
D03*
Y-51398D02*
D03*
X138436Y-43721D02*
D03*
Y-46280D02*
D03*
Y-48840D02*
D03*
Y-51398D02*
D03*
X174263Y-43721D02*
D03*
Y-46280D02*
D03*
Y-48840D02*
D03*
Y-51398D02*
D03*
X191586Y-43721D02*
D03*
Y-46280D02*
D03*
Y-48840D02*
D03*
Y-51398D02*
D03*
D241*
X201392Y114665D02*
D03*
X208085D02*
D03*
X201215Y-57480D02*
D03*
X207908D02*
D03*
X201392Y119790D02*
D03*
X208085D02*
D03*
X201215Y-52356D02*
D03*
X207908D02*
D03*
D242*
X232933Y-45276D02*
D03*
Y-80709D02*
D03*
Y-38307D02*
D03*
Y-73740D02*
D03*
Y98425D02*
D03*
Y133858D02*
D03*
Y-98425D02*
D03*
Y-133858D02*
D03*
Y45276D02*
D03*
Y80709D02*
D03*
Y-126890D02*
D03*
Y-91457D02*
D03*
Y73740D02*
D03*
Y38307D02*
D03*
Y126890D02*
D03*
Y91457D02*
D03*
D243*
X280494Y122518D02*
D03*
X290494D02*
D03*
X280494Y112518D02*
D03*
X290494D02*
D03*
X280494Y102518D02*
D03*
X290494D02*
D03*
X280494Y92518D02*
D03*
X290494D02*
D03*
X280494Y82518D02*
D03*
X290494D02*
D03*
X280494Y72518D02*
D03*
X290494D02*
D03*
X280494Y62518D02*
D03*
X290494D02*
D03*
X280494Y52518D02*
D03*
X290494D02*
D03*
X280494Y42518D02*
D03*
X290494D02*
D03*
X280494Y32518D02*
D03*
X290494D02*
D03*
X280494Y22518D02*
D03*
X290494D02*
D03*
X280494Y12518D02*
D03*
X290494D02*
D03*
X280494Y2518D02*
D03*
X290494D02*
D03*
X280494Y-7482D02*
D03*
X290494D02*
D03*
X280494Y-17482D02*
D03*
X290494D02*
D03*
X280494Y-27482D02*
D03*
X290494D02*
D03*
X280494Y-37482D02*
D03*
X290494D02*
D03*
X280494Y-47482D02*
D03*
X290494D02*
D03*
X280494Y-57482D02*
D03*
X290494D02*
D03*
X280494Y-67482D02*
D03*
X290494D02*
D03*
X280494Y-77482D02*
D03*
X290494D02*
D03*
X280494Y-87482D02*
D03*
X290494D02*
D03*
X280494Y-97482D02*
D03*
X290494D02*
D03*
X280494Y-107482D02*
D03*
X290494D02*
D03*
X280494Y-117482D02*
D03*
X290494D02*
D03*
X280494Y-127482D02*
D03*
X290494D02*
D03*
X310494D02*
D03*
X300494D02*
D03*
X310494Y-117482D02*
D03*
X300494D02*
D03*
X310494Y-107482D02*
D03*
X300494D02*
D03*
X310494Y-97482D02*
D03*
X300494D02*
D03*
X310494Y-87482D02*
D03*
X300494D02*
D03*
X310494Y-77482D02*
D03*
X300494D02*
D03*
X310494Y-67482D02*
D03*
X300494D02*
D03*
X310494Y-57482D02*
D03*
X300494D02*
D03*
X310494Y-47482D02*
D03*
X300494D02*
D03*
X310494Y-37482D02*
D03*
X300494D02*
D03*
X310494Y-27482D02*
D03*
X300494D02*
D03*
X310494Y-17482D02*
D03*
X300494D02*
D03*
X310494Y-7482D02*
D03*
X300494D02*
D03*
X310494Y2518D02*
D03*
X300494D02*
D03*
X310494Y12518D02*
D03*
X300494D02*
D03*
X310494Y22518D02*
D03*
X300494D02*
D03*
X310494Y32518D02*
D03*
X300494D02*
D03*
X310494Y42518D02*
D03*
X300494D02*
D03*
X310494Y52518D02*
D03*
X300494D02*
D03*
X310494Y62518D02*
D03*
X300494D02*
D03*
X310494Y72518D02*
D03*
X300494D02*
D03*
X310494Y82518D02*
D03*
X300494D02*
D03*
X310494Y92518D02*
D03*
X300494D02*
D03*
X310494Y102518D02*
D03*
X300494D02*
D03*
X310494Y112518D02*
D03*
X300494D02*
D03*
X310494Y122518D02*
D03*
X300494D02*
D03*
D244*
X-27028Y-157480D02*
D03*
Y157520D02*
D03*
X310492Y-147480D02*
D03*
Y142520D02*
D03*
D245*
X12342Y-152480D02*
D03*
Y-19685D02*
D03*
Y19685D02*
D03*
Y152480D02*
D03*
X243563Y-152480D02*
D03*
Y-19685D02*
D03*
Y19685D02*
D03*
Y152480D02*
D03*
D246*
X31496Y-22303D02*
D03*
Y22303D02*
D03*
X224409Y-22303D02*
D03*
Y22303D02*
D03*
D247*
X155905Y91437D02*
D03*
X157087D02*
D03*
X155709Y96555D02*
D03*
X156890D02*
D03*
X155905Y106398D02*
D03*
X157087D02*
D03*
X155709Y101378D02*
D03*
X262894Y-83760D02*
D03*
X269291Y-85532D02*
D03*
Y-84351D02*
D03*
X270374Y-86122D02*
D03*
Y-83760D02*
D03*
Y-84941D02*
D03*
X9843Y-47835D02*
D03*
X101580Y-8563D02*
D03*
X49705Y152264D02*
D03*
X28248Y78937D02*
D03*
X117132Y88390D02*
D03*
X109449Y92421D02*
D03*
X132979Y87209D02*
D03*
X198431Y65133D02*
D03*
Y62574D02*
D03*
X191043Y64862D02*
D03*
X199705Y62574D02*
D03*
X198431Y63853D02*
D03*
X199705D02*
D03*
X181797Y56595D02*
D03*
Y55315D02*
D03*
X183071Y56595D02*
D03*
X183071Y62795D02*
D03*
X184350D02*
D03*
X26644Y109982D02*
D03*
X40199Y130159D02*
D03*
X42167Y131340D02*
D03*
X42167Y130159D02*
D03*
X44136Y131340D02*
D03*
X46104D02*
D03*
X46104Y130159D02*
D03*
X44136D02*
D03*
X219980Y65276D02*
D03*
X106800Y33700D02*
D03*
X108000D02*
D03*
X173721Y97441D02*
D03*
X174854Y-46280D02*
D03*
X110906Y-36122D02*
D03*
X126378Y24016D02*
D03*
X66929Y-7776D02*
D03*
X151378Y73721D02*
D03*
Y72539D02*
D03*
X149488Y77756D02*
D03*
Y78937D02*
D03*
X62443Y119824D02*
D03*
X70866Y-7776D02*
D03*
X85929Y-18702D02*
D03*
X79035Y-17028D02*
D03*
X77756Y-18996D02*
D03*
X79331Y-18996D02*
D03*
X71850Y-15059D02*
D03*
X102756Y-13780D02*
D03*
X102165Y-7480D02*
D03*
X101575Y-14961D02*
D03*
X102756D02*
D03*
X70377Y58960D02*
D03*
X71752Y55905D02*
D03*
X70571Y55905D02*
D03*
X59547Y153445D02*
D03*
X87996Y-49806D02*
D03*
X26714Y106045D02*
D03*
X96161Y-18701D02*
D03*
X94980D02*
D03*
X219980Y58583D02*
D03*
X219980Y57402D02*
D03*
X218799D02*
D03*
X218799Y58583D02*
D03*
X217618Y57402D02*
D03*
X217618Y58583D02*
D03*
X216437Y57402D02*
D03*
X216437Y58583D02*
D03*
X215256D02*
D03*
X214075D02*
D03*
X212894D02*
D03*
X215256Y57402D02*
D03*
X214075D02*
D03*
X212894D02*
D03*
X26708Y115887D02*
D03*
X251791Y-72244D02*
D03*
X252972D02*
D03*
X245886Y69213D02*
D03*
X245886Y70394D02*
D03*
X247067Y69213D02*
D03*
X245886Y58583D02*
D03*
X162598Y-52067D02*
D03*
X192028Y87303D02*
D03*
X198721Y72835D02*
D03*
X190849Y97400D02*
D03*
X194884Y121908D02*
D03*
X144193Y106693D02*
D03*
X77756Y-22933D02*
D03*
X129724Y36516D02*
D03*
X126476Y28937D02*
D03*
X126181Y32185D02*
D03*
X122539Y33661D02*
D03*
X119882D02*
D03*
X121850Y36319D02*
D03*
X119882D02*
D03*
X191634Y-55905D02*
D03*
X198721Y70276D02*
D03*
X197446Y45989D02*
D03*
X198721D02*
D03*
X199705Y65133D02*
D03*
X248248Y38898D02*
D03*
X247067D02*
D03*
X245886D02*
D03*
X212894Y53465D02*
D03*
X212894Y54646D02*
D03*
X212894Y61339D02*
D03*
X214075D02*
D03*
X215256D02*
D03*
X212894Y62520D02*
D03*
X214075D02*
D03*
X198721Y55364D02*
D03*
X197446Y54085D02*
D03*
X198721D02*
D03*
X198721Y71555D02*
D03*
X263976Y-106301D02*
D03*
X269193Y-99408D02*
D03*
X170276Y-61024D02*
D03*
X169095D02*
D03*
X166339D02*
D03*
X165157D02*
D03*
X171170Y-56496D02*
D03*
X168307Y-56496D02*
D03*
X162008Y-61024D02*
D03*
Y-59842D02*
D03*
X156890Y-61024D02*
D03*
Y-59842D02*
D03*
X79331Y-49803D02*
D03*
X83268Y-49803D02*
D03*
X62008Y-49803D02*
D03*
X90748Y-49803D02*
D03*
X66339Y-29331D02*
D03*
X68602Y-25787D02*
D03*
X63681Y-25984D02*
D03*
X63878Y-20669D02*
D03*
X90354Y-14764D02*
D03*
X82087Y-45866D02*
D03*
X73425D02*
D03*
X16043Y-117027D02*
D03*
X18799Y-119783D02*
D03*
X16043Y-120965D02*
D03*
X19980D02*
D03*
X31102Y53150D02*
D03*
X31694Y52069D02*
D03*
X110827Y-16240D02*
D03*
X137798Y-19923D02*
D03*
X138979Y-17364D02*
D03*
X137798D02*
D03*
Y-12246D02*
D03*
X138979D02*
D03*
X137798Y-14805D02*
D03*
X138979D02*
D03*
X120571Y-17323D02*
D03*
X121752D02*
D03*
Y-14764D02*
D03*
X120571D02*
D03*
X122652Y-12005D02*
D03*
X121471Y-12405D02*
D03*
X110908Y-4626D02*
D03*
Y-5807D02*
D03*
X106988Y-4626D02*
D03*
Y-5807D02*
D03*
X117126Y-11417D02*
D03*
X115945D02*
D03*
X117126Y-6398D02*
D03*
X115945D02*
D03*
X134646Y-25000D02*
D03*
Y-23819D02*
D03*
X126181Y-25000D02*
D03*
Y-23819D02*
D03*
X131201Y-25000D02*
D03*
Y-23819D02*
D03*
X123130D02*
D03*
Y-25000D02*
D03*
X118110Y-23819D02*
D03*
Y-25000D02*
D03*
X115157D02*
D03*
X107480Y-18602D02*
D03*
X113386Y-19783D02*
D03*
X111417D02*
D03*
X111417Y-9941D02*
D03*
Y-11122D02*
D03*
X113386Y-9941D02*
D03*
Y-11122D02*
D03*
X109449D02*
D03*
Y-9941D02*
D03*
X107480Y-11122D02*
D03*
Y-9941D02*
D03*
X102756Y-9055D02*
D03*
X103937Y-8563D02*
D03*
X103937Y-24902D02*
D03*
X102756D02*
D03*
Y-23720D02*
D03*
X102756Y-18602D02*
D03*
X103937Y-17421D02*
D03*
X102756D02*
D03*
X101575D02*
D03*
X144193Y-6693D02*
D03*
X145374D02*
D03*
X146555D02*
D03*
X145374Y-7874D02*
D03*
X145374Y-12992D02*
D03*
X144193Y-14173D02*
D03*
X145374D02*
D03*
X146555D02*
D03*
X134350Y-5610D02*
D03*
Y-6791D02*
D03*
Y-7972D02*
D03*
X133169Y-6791D02*
D03*
X128051Y-6791D02*
D03*
X126870Y-5610D02*
D03*
Y-6791D02*
D03*
Y-7972D02*
D03*
X103937Y-14961D02*
D03*
X140256Y-37008D02*
D03*
Y-38189D02*
D03*
Y-39370D02*
D03*
X139075Y-38189D02*
D03*
X103937Y-53248D02*
D03*
X102756Y-52067D02*
D03*
Y-53248D02*
D03*
X101575D02*
D03*
X118209Y-55315D02*
D03*
X118020Y-56496D02*
D03*
X138690Y-55413D02*
D03*
X139665Y-56496D02*
D03*
X103937Y-36024D02*
D03*
X102756D02*
D03*
X101575D02*
D03*
X102756Y-37205D02*
D03*
X106988Y-36122D02*
D03*
Y-37303D02*
D03*
X115157Y-55315D02*
D03*
Y-56496D02*
D03*
X129921Y-37008D02*
D03*
Y-38189D02*
D03*
X128740D02*
D03*
X129921Y-39370D02*
D03*
X126083Y-55315D02*
D03*
Y-56496D02*
D03*
X123138Y-56496D02*
D03*
X123031Y-55315D02*
D03*
X109449Y-50886D02*
D03*
Y-52067D02*
D03*
X113386Y-50886D02*
D03*
Y-52067D02*
D03*
X117126Y-43012D02*
D03*
X115945D02*
D03*
X113386Y-41437D02*
D03*
Y-42618D02*
D03*
X110906Y-37303D02*
D03*
X111417Y-41437D02*
D03*
Y-42618D02*
D03*
X107480Y-41437D02*
D03*
X109449D02*
D03*
X102756Y-42323D02*
D03*
X103937Y-43504D02*
D03*
X102756D02*
D03*
X101575D02*
D03*
X111024Y-46752D02*
D03*
X109843D02*
D03*
X107480Y-50886D02*
D03*
Y-52067D02*
D03*
X103937Y-45965D02*
D03*
X101575D02*
D03*
X102756D02*
D03*
Y-47146D02*
D03*
X109449Y-42618D02*
D03*
X107480D02*
D03*
X139027Y-51398D02*
D03*
X137846D02*
D03*
X131201Y-55315D02*
D03*
Y-56496D02*
D03*
X139027Y-46280D02*
D03*
Y-48840D02*
D03*
X137846Y-46280D02*
D03*
Y-48840D02*
D03*
X111417Y-52067D02*
D03*
X134547Y-55315D02*
D03*
Y-56496D02*
D03*
X111417Y-50886D02*
D03*
X110039Y-55315D02*
D03*
Y-56496D02*
D03*
X133957Y-38189D02*
D03*
X132776Y-37008D02*
D03*
Y-38189D02*
D03*
X139027Y-43721D02*
D03*
X132776Y-39370D02*
D03*
X137846Y-43721D02*
D03*
X121704Y-46280D02*
D03*
X120523D02*
D03*
X121704Y-48840D02*
D03*
X120523D02*
D03*
X122441Y-37008D02*
D03*
X123622Y-38189D02*
D03*
X122441D02*
D03*
X115945Y-37894D02*
D03*
X117126D02*
D03*
X122441Y-39370D02*
D03*
X122604Y-43521D02*
D03*
X121423Y-43921D02*
D03*
X193405Y-37008D02*
D03*
Y-38189D02*
D03*
Y-39370D02*
D03*
X192224Y-38189D02*
D03*
X157087Y-53248D02*
D03*
X155905Y-52067D02*
D03*
Y-53248D02*
D03*
X154724D02*
D03*
X171358Y-55315D02*
D03*
X192815Y-55915D02*
D03*
X160138Y-36122D02*
D03*
Y-37303D02*
D03*
X168307Y-55315D02*
D03*
X183071Y-37008D02*
D03*
Y-38189D02*
D03*
X181890D02*
D03*
X183071Y-39370D02*
D03*
X179232Y-55315D02*
D03*
Y-56496D02*
D03*
X176288Y-56496D02*
D03*
X176181Y-55315D02*
D03*
X162598Y-50886D02*
D03*
X166535D02*
D03*
Y-52067D02*
D03*
X170276Y-43012D02*
D03*
X169095D02*
D03*
X166535Y-41437D02*
D03*
Y-42618D02*
D03*
X164156Y-36122D02*
D03*
Y-37303D02*
D03*
X164567Y-41437D02*
D03*
Y-42618D02*
D03*
X160630Y-41437D02*
D03*
X162598D02*
D03*
X155905Y-42323D02*
D03*
X157087Y-43504D02*
D03*
X155905D02*
D03*
X154725D02*
D03*
X164173Y-46752D02*
D03*
X162992D02*
D03*
X160630Y-50886D02*
D03*
Y-52067D02*
D03*
X157087Y-45965D02*
D03*
X155905D02*
D03*
X154724D02*
D03*
X155905Y-47146D02*
D03*
X162598Y-42618D02*
D03*
X160630D02*
D03*
X192176Y-51398D02*
D03*
X190995D02*
D03*
X184350Y-55315D02*
D03*
Y-56496D02*
D03*
X193161Y-46280D02*
D03*
Y-48840D02*
D03*
X191980Y-46280D02*
D03*
Y-48840D02*
D03*
X187697Y-55315D02*
D03*
X164567Y-50886D02*
D03*
Y-52067D02*
D03*
X187697Y-56496D02*
D03*
X163189Y-55315D02*
D03*
Y-56496D02*
D03*
X187106Y-38189D02*
D03*
X185925Y-37008D02*
D03*
Y-38189D02*
D03*
X192176Y-43721D02*
D03*
X185925Y-39370D02*
D03*
X190995Y-43721D02*
D03*
X173672Y-46280D02*
D03*
X174854Y-48840D02*
D03*
X173672D02*
D03*
X175591Y-37008D02*
D03*
X176772Y-38189D02*
D03*
X175591D02*
D03*
X169095Y-37894D02*
D03*
X170276D02*
D03*
X175591Y-39370D02*
D03*
X175753Y-43521D02*
D03*
X174572Y-43921D02*
D03*
X120473Y24016D02*
D03*
X128347D02*
D03*
X193405Y-5512D02*
D03*
Y-6693D02*
D03*
Y-7874D02*
D03*
X192224Y-6693D02*
D03*
X155905Y-21752D02*
D03*
X157087D02*
D03*
X155905Y-20571D02*
D03*
X154724Y-21752D02*
D03*
X171358Y-23819D02*
D03*
X171170Y-25000D02*
D03*
X191840Y-23917D02*
D03*
X192815Y-25000D02*
D03*
X157087Y-4528D02*
D03*
X155905Y-5709D02*
D03*
Y-4528D02*
D03*
X154724D02*
D03*
X160138Y-4626D02*
D03*
Y-5807D02*
D03*
X168307Y-23819D02*
D03*
Y-25000D02*
D03*
X183071Y-5512D02*
D03*
Y-6693D02*
D03*
X181890D02*
D03*
X183071Y-7874D02*
D03*
X179232Y-23819D02*
D03*
Y-25000D02*
D03*
X176288Y-25000D02*
D03*
X176181Y-23819D02*
D03*
X162598Y-19390D02*
D03*
Y-20571D02*
D03*
X166535D02*
D03*
Y-19390D02*
D03*
X170276Y-11516D02*
D03*
X169095D02*
D03*
X166535Y-9941D02*
D03*
Y-11122D02*
D03*
X165256Y-4626D02*
D03*
Y-5807D02*
D03*
X164567Y-9941D02*
D03*
Y-11122D02*
D03*
X160630Y-9941D02*
D03*
X162598D02*
D03*
X155905Y-10827D02*
D03*
X157087Y-12008D02*
D03*
X155905D02*
D03*
X154725D02*
D03*
X164173Y-15256D02*
D03*
X162992D02*
D03*
X160630Y-20571D02*
D03*
Y-19390D02*
D03*
X157087Y-14469D02*
D03*
X155905D02*
D03*
X154724D02*
D03*
X155905Y-15650D02*
D03*
X162598Y-11122D02*
D03*
X160630D02*
D03*
X192176Y-19903D02*
D03*
X190995D02*
D03*
X184350Y-23819D02*
D03*
Y-25000D02*
D03*
X192176Y-14784D02*
D03*
X190995D02*
D03*
X192176Y-17343D02*
D03*
X190995D02*
D03*
X164567Y-19390D02*
D03*
Y-20571D02*
D03*
X187697Y-23819D02*
D03*
Y-25000D02*
D03*
X163189Y-23819D02*
D03*
Y-25000D02*
D03*
X185925Y-5512D02*
D03*
Y-6693D02*
D03*
X187106D02*
D03*
X192176Y-12225D02*
D03*
X185925Y-7874D02*
D03*
X190995Y-12225D02*
D03*
X174854Y-14784D02*
D03*
X173672D02*
D03*
X174854Y-17343D02*
D03*
X173672D02*
D03*
X176772Y-6693D02*
D03*
X175591Y-5512D02*
D03*
Y-6693D02*
D03*
X169095Y-6398D02*
D03*
X170276D02*
D03*
X175591Y-7874D02*
D03*
X174854Y-12225D02*
D03*
X173672D02*
D03*
X160630Y121949D02*
D03*
X174803Y146063D02*
D03*
Y150000D02*
D03*
Y148031D02*
D03*
X164173D02*
D03*
Y146063D02*
D03*
Y150000D02*
D03*
X168307Y116732D02*
D03*
Y117913D02*
D03*
X171161Y116732D02*
D03*
Y117913D02*
D03*
X115748Y26772D02*
D03*
X157087Y119783D02*
D03*
X155905Y119783D02*
D03*
X154724Y119783D02*
D03*
X192815Y117913D02*
D03*
Y116732D02*
D03*
X157087Y137205D02*
D03*
X154724D02*
D03*
X155905Y137205D02*
D03*
X160138Y137106D02*
D03*
Y135925D02*
D03*
X185039Y136221D02*
D03*
X183957Y135630D02*
D03*
X185039Y135039D02*
D03*
X183957Y134449D02*
D03*
X185039Y133858D02*
D03*
X179232Y117913D02*
D03*
X176279D02*
D03*
X179232Y116732D02*
D03*
X176279D02*
D03*
X164567Y122736D02*
D03*
X164567Y121457D02*
D03*
X163189Y116732D02*
D03*
X166535Y123130D02*
D03*
Y121949D02*
D03*
X170276Y130610D02*
D03*
X169095D02*
D03*
X166535Y131791D02*
D03*
Y130610D02*
D03*
X164056Y137106D02*
D03*
Y135925D02*
D03*
X164567Y131791D02*
D03*
X164567Y130610D02*
D03*
X162598Y131791D02*
D03*
X160630D02*
D03*
X155905Y131299D02*
D03*
X154724Y131299D02*
D03*
X157087D02*
D03*
X163484Y126673D02*
D03*
X162205Y126083D02*
D03*
X157087Y125295D02*
D03*
X160630Y123130D02*
D03*
X155905Y125295D02*
D03*
X154724Y125295D02*
D03*
X162598Y130610D02*
D03*
X160630D02*
D03*
X193703Y121908D02*
D03*
X184350Y117913D02*
D03*
Y116732D02*
D03*
X195770Y126927D02*
D03*
X194589D02*
D03*
Y124368D02*
D03*
X187697Y117913D02*
D03*
X178543Y126969D02*
D03*
Y124409D02*
D03*
X177362Y126969D02*
D03*
Y124409D02*
D03*
X179134Y136221D02*
D03*
X178051Y135630D02*
D03*
X170276Y135335D02*
D03*
X179134Y135039D02*
D03*
X179134Y133858D02*
D03*
X178051Y134449D02*
D03*
X178543Y129528D02*
D03*
X177362D02*
D03*
X169095Y135335D02*
D03*
X195177Y136221D02*
D03*
X195177Y135039D02*
D03*
X195177Y133858D02*
D03*
X194095Y135630D02*
D03*
Y134449D02*
D03*
X194589Y129486D02*
D03*
X195770D02*
D03*
X188091Y136221D02*
D03*
X189173Y135630D02*
D03*
X188091Y135039D02*
D03*
X189173Y134449D02*
D03*
X188091Y133858D02*
D03*
X97539Y97146D02*
D03*
X98819Y96949D02*
D03*
X100098D02*
D03*
X98819Y89764D02*
D03*
X97539D02*
D03*
X100098D02*
D03*
X145177Y45276D02*
D03*
X113386Y101083D02*
D03*
X143209Y135039D02*
D03*
X143209Y136221D02*
D03*
Y133858D02*
D03*
X135925Y135039D02*
D03*
X135925Y133858D02*
D03*
Y136221D02*
D03*
X137008Y134449D02*
D03*
Y135630D02*
D03*
X144193Y105512D02*
D03*
X144193Y104331D02*
D03*
X136909Y105512D02*
D03*
X136909Y104331D02*
D03*
Y106693D02*
D03*
X137992Y104921D02*
D03*
Y106102D02*
D03*
X133858Y105512D02*
D03*
X133858Y106693D02*
D03*
Y104331D02*
D03*
X132776Y106102D02*
D03*
Y104921D02*
D03*
X126870D02*
D03*
Y106102D02*
D03*
X127953Y104331D02*
D03*
Y106693D02*
D03*
X127953Y105512D02*
D03*
X108957Y106398D02*
D03*
X105905Y101772D02*
D03*
X109449Y101083D02*
D03*
Y102264D02*
D03*
X113386D02*
D03*
X104724Y101772D02*
D03*
X111417Y101083D02*
D03*
Y102264D02*
D03*
X113386Y93209D02*
D03*
X112303Y97146D02*
D03*
X115354Y93602D02*
D03*
Y92421D02*
D03*
X111024Y96555D02*
D03*
X119100Y104619D02*
D03*
Y105800D02*
D03*
X119095Y100683D02*
D03*
X144589Y92380D02*
D03*
X143408D02*
D03*
Y94841D02*
D03*
X144589D02*
D03*
X143408Y97400D02*
D03*
X144589D02*
D03*
X143408Y99959D02*
D03*
X144589D02*
D03*
X126181Y94882D02*
D03*
X127362D02*
D03*
X126181Y97441D02*
D03*
X127362D02*
D03*
Y100000D02*
D03*
X126181D02*
D03*
X113386Y91929D02*
D03*
X111417Y93602D02*
D03*
Y92421D02*
D03*
X109449Y93602D02*
D03*
X105905Y90256D02*
D03*
X104724Y90256D02*
D03*
X105905Y95768D02*
D03*
X104724Y95768D02*
D03*
X103543Y95768D02*
D03*
X103543Y107677D02*
D03*
X104724Y107677D02*
D03*
X105905Y107677D02*
D03*
X103543Y101772D02*
D03*
X136516Y87205D02*
D03*
Y88386D02*
D03*
X141634Y87205D02*
D03*
Y88386D02*
D03*
X133169D02*
D03*
X112008Y87205D02*
D03*
Y88386D02*
D03*
X117126Y87205D02*
D03*
X108957Y107579D02*
D03*
X112875Y106398D02*
D03*
Y107579D02*
D03*
X80413Y47047D02*
D03*
X84350D02*
D03*
X75492Y45472D02*
D03*
X71555D02*
D03*
X104724Y119980D02*
D03*
X103543Y119980D02*
D03*
X100000Y116142D02*
D03*
X96850D02*
D03*
X98425D02*
D03*
X100098Y123327D02*
D03*
X98425D02*
D03*
X96752D02*
D03*
X110039Y136024D02*
D03*
X117230Y117919D02*
D03*
X112894Y125492D02*
D03*
X111417D02*
D03*
X109449Y121555D02*
D03*
X112008Y117913D02*
D03*
Y116732D02*
D03*
X140947Y121809D02*
D03*
X141634Y117913D02*
D03*
X132874Y133858D02*
D03*
X132874Y135039D02*
D03*
X132874Y136221D02*
D03*
X131791Y135630D02*
D03*
X131791Y134449D02*
D03*
X126476Y135728D02*
D03*
X126476Y134547D02*
D03*
X125394Y133858D02*
D03*
X125394Y135039D02*
D03*
X125394Y136221D02*
D03*
X113386Y121555D02*
D03*
X115354Y129823D02*
D03*
Y131004D02*
D03*
X111417Y131791D02*
D03*
X113386D02*
D03*
X112894Y136713D02*
D03*
X114075D02*
D03*
X115354Y121555D02*
D03*
Y122736D02*
D03*
X113386D02*
D03*
X109449D02*
D03*
X111417Y130610D02*
D03*
X109449D02*
D03*
Y131791D02*
D03*
X139766Y121809D02*
D03*
Y124368D02*
D03*
X140947D02*
D03*
X139766Y126927D02*
D03*
X140947D02*
D03*
X139766Y129486D02*
D03*
X140947D02*
D03*
X123425Y124409D02*
D03*
X124606D02*
D03*
X123425Y126969D02*
D03*
X124606D02*
D03*
X123721Y129528D02*
D03*
X122539D02*
D03*
X141634Y116732D02*
D03*
X136516Y117913D02*
D03*
X133169Y117913D02*
D03*
X128051D02*
D03*
Y116732D02*
D03*
X125098Y117913D02*
D03*
Y116732D02*
D03*
X119980Y117913D02*
D03*
Y116732D02*
D03*
X117126D02*
D03*
X119095Y130217D02*
D03*
X117913D02*
D03*
X119095Y135335D02*
D03*
X117913D02*
D03*
X108957Y137106D02*
D03*
X103543Y127067D02*
D03*
X104724Y127067D02*
D03*
X105905Y127067D02*
D03*
X105905Y129724D02*
D03*
X104724Y129724D02*
D03*
X103543Y129724D02*
D03*
X105905Y137205D02*
D03*
X104724Y137205D02*
D03*
X103543Y137205D02*
D03*
X80413Y55709D02*
D03*
X103248Y45276D02*
D03*
X106791Y45276D02*
D03*
X102067Y45276D02*
D03*
X103248Y40157D02*
D03*
X102067D02*
D03*
X107972Y45276D02*
D03*
X49311Y45571D02*
D03*
X48130D02*
D03*
X49311Y50295D02*
D03*
X48130D02*
D03*
X74213Y-143135D02*
D03*
Y-146900D02*
D03*
Y-150664D02*
D03*
Y-154429D02*
D03*
Y-139370D02*
D03*
X71850Y-143135D02*
D03*
Y-146900D02*
D03*
Y-150664D02*
D03*
Y-154429D02*
D03*
Y-139370D02*
D03*
X69882Y-13091D02*
D03*
X71850D02*
D03*
X79724Y-22933D02*
D03*
Y-28839D02*
D03*
Y-30807D02*
D03*
X75787Y-34744D02*
D03*
X73819D02*
D03*
X71850D02*
D03*
X69882D02*
D03*
X67913D02*
D03*
X65945D02*
D03*
X58071Y-22933D02*
D03*
Y-20965D02*
D03*
Y-18996D02*
D03*
Y-17028D02*
D03*
X125787Y-140453D02*
D03*
X94291D02*
D03*
Y-142421D02*
D03*
Y-144390D02*
D03*
Y-148327D02*
D03*
Y-150295D02*
D03*
Y-152264D02*
D03*
Y-146358D02*
D03*
X125787Y-81595D02*
D03*
X94291D02*
D03*
X-4724Y98228D02*
D03*
X-2362Y104134D02*
D03*
X-4724Y110039D02*
D03*
X-2362Y115945D02*
D03*
X-4724D02*
D03*
X-3543D02*
D03*
X-2953Y114764D02*
D03*
X-4232Y114764D02*
D03*
X-2362Y121850D02*
D03*
X-4724D02*
D03*
X-3543D02*
D03*
X-2953Y120669D02*
D03*
X-4232Y120669D02*
D03*
Y126575D02*
D03*
X-2953Y126575D02*
D03*
X-3543Y127756D02*
D03*
X10728Y108661D02*
D03*
X4134Y110236D02*
D03*
X4134Y114862D02*
D03*
X4134Y116142D02*
D03*
X5315Y114567D02*
D03*
Y115846D02*
D03*
X6496Y116142D02*
D03*
X6496Y114862D02*
D03*
X11909D02*
D03*
X11909Y116142D02*
D03*
X10728Y115846D02*
D03*
Y114567D02*
D03*
X62697Y34744D02*
D03*
X54823D02*
D03*
X58760D02*
D03*
X62697Y47047D02*
D03*
X54823D02*
D03*
X58760D02*
D03*
X67618Y45472D02*
D03*
X88287Y47047D02*
D03*
X75492Y34744D02*
D03*
X67618D02*
D03*
X71555D02*
D03*
X84350D02*
D03*
X80413D02*
D03*
X62443Y106045D02*
D03*
Y108013D02*
D03*
Y109982D02*
D03*
Y111950D02*
D03*
Y115887D02*
D03*
Y113919D02*
D03*
X107382Y60433D02*
D03*
X113287Y69882D02*
D03*
Y71850D02*
D03*
X48073Y95612D02*
D03*
X62443Y121793D02*
D03*
X277658Y-151083D02*
D03*
Y-149902D02*
D03*
X276575Y-151673D02*
D03*
Y-150492D02*
D03*
Y-149311D02*
D03*
X277658Y-143799D02*
D03*
Y-142618D02*
D03*
X276575Y-144390D02*
D03*
Y-143209D02*
D03*
Y-142028D02*
D03*
X282972Y-151083D02*
D03*
Y-149902D02*
D03*
X284055Y-151673D02*
D03*
Y-150492D02*
D03*
Y-149311D02*
D03*
X282972Y-143799D02*
D03*
Y-142618D02*
D03*
X284055Y-144390D02*
D03*
Y-143209D02*
D03*
Y-142028D02*
D03*
X269291Y-151083D02*
D03*
Y-149902D02*
D03*
X270374Y-151673D02*
D03*
Y-150492D02*
D03*
Y-149311D02*
D03*
X269291Y-143799D02*
D03*
Y-142618D02*
D03*
X270374Y-144390D02*
D03*
Y-143209D02*
D03*
Y-142028D02*
D03*
X269291Y-136516D02*
D03*
Y-135335D02*
D03*
X270374Y-137106D02*
D03*
Y-135925D02*
D03*
Y-134744D02*
D03*
X269291Y-129232D02*
D03*
Y-128051D02*
D03*
X270374Y-129823D02*
D03*
Y-128642D02*
D03*
Y-127461D02*
D03*
X269291Y-121949D02*
D03*
Y-120768D02*
D03*
X270374Y-122539D02*
D03*
Y-121358D02*
D03*
Y-120177D02*
D03*
X269291Y-114665D02*
D03*
Y-113484D02*
D03*
X270374Y-115256D02*
D03*
Y-114075D02*
D03*
Y-112894D02*
D03*
X269291Y-107382D02*
D03*
Y-106201D02*
D03*
X270374Y-107973D02*
D03*
Y-106791D02*
D03*
Y-105610D02*
D03*
X269193Y-98227D02*
D03*
X269291Y-92815D02*
D03*
Y-91634D02*
D03*
X270374Y-93406D02*
D03*
Y-92225D02*
D03*
Y-91043D02*
D03*
Y-76477D02*
D03*
Y-77658D02*
D03*
Y-78839D02*
D03*
X269291Y-77067D02*
D03*
Y-78248D02*
D03*
X262894Y-149311D02*
D03*
Y-150492D02*
D03*
Y-151673D02*
D03*
X263976Y-149902D02*
D03*
Y-151083D02*
D03*
X262894Y-142028D02*
D03*
Y-143209D02*
D03*
Y-144390D02*
D03*
X263976Y-142618D02*
D03*
Y-143799D02*
D03*
X262894Y-134744D02*
D03*
Y-135925D02*
D03*
Y-137106D02*
D03*
X263976Y-135335D02*
D03*
Y-136516D02*
D03*
X262894Y-127461D02*
D03*
Y-128642D02*
D03*
Y-129823D02*
D03*
X263976Y-128051D02*
D03*
Y-129232D02*
D03*
X262894Y-120177D02*
D03*
Y-121358D02*
D03*
Y-122539D02*
D03*
X263976Y-120768D02*
D03*
Y-121949D02*
D03*
X262894Y-112894D02*
D03*
Y-114075D02*
D03*
Y-115256D02*
D03*
X263976Y-113484D02*
D03*
Y-114665D02*
D03*
X262894Y-105710D02*
D03*
Y-106891D02*
D03*
Y-108072D02*
D03*
X263976Y-107482D02*
D03*
X262594Y-98327D02*
D03*
Y-99508D02*
D03*
Y-100689D02*
D03*
X263676Y-98917D02*
D03*
Y-100099D02*
D03*
X262894Y-91043D02*
D03*
Y-92225D02*
D03*
X263976Y-91634D02*
D03*
Y-92815D02*
D03*
Y-84351D02*
D03*
X262894Y-76477D02*
D03*
X263976Y-77067D02*
D03*
Y-78248D02*
D03*
X262992Y75590D02*
D03*
X263976Y7539D02*
D03*
Y8721D02*
D03*
X262894Y6949D02*
D03*
X263976Y14961D02*
D03*
Y16142D02*
D03*
X262894Y15551D02*
D03*
Y16732D02*
D03*
X270374Y-12953D02*
D03*
X269291Y7539D02*
D03*
Y8721D02*
D03*
X270374Y6949D02*
D03*
Y8130D02*
D03*
Y9311D02*
D03*
X269291Y14961D02*
D03*
Y16142D02*
D03*
X270374Y14370D02*
D03*
Y15551D02*
D03*
Y16732D02*
D03*
X269291Y28150D02*
D03*
Y29331D02*
D03*
X270374Y27559D02*
D03*
Y28740D02*
D03*
Y29921D02*
D03*
X269291Y35004D02*
D03*
Y36185D02*
D03*
X270374Y34413D02*
D03*
Y35594D02*
D03*
Y36775D02*
D03*
X269291Y41858D02*
D03*
Y43039D02*
D03*
X270374Y41267D02*
D03*
Y42448D02*
D03*
Y43629D02*
D03*
X269291Y48711D02*
D03*
Y49893D02*
D03*
X270374Y48121D02*
D03*
Y49302D02*
D03*
Y50483D02*
D03*
X269291Y55566D02*
D03*
Y56747D02*
D03*
X270374Y54975D02*
D03*
Y56156D02*
D03*
Y57337D02*
D03*
X269291Y62419D02*
D03*
Y63601D02*
D03*
X270374Y61829D02*
D03*
Y63010D02*
D03*
Y64191D02*
D03*
X270374Y68683D02*
D03*
Y69864D02*
D03*
Y71045D02*
D03*
X269291Y76127D02*
D03*
Y77308D02*
D03*
X270374Y75537D02*
D03*
Y76718D02*
D03*
Y77899D02*
D03*
X269291Y82981D02*
D03*
Y84162D02*
D03*
X270374Y82391D02*
D03*
Y83572D02*
D03*
Y84753D02*
D03*
X269291Y89835D02*
D03*
Y91017D02*
D03*
X270374Y90426D02*
D03*
Y91607D02*
D03*
X269291Y96689D02*
D03*
Y97870D02*
D03*
X270374Y97280D02*
D03*
Y98461D02*
D03*
X262894Y29921D02*
D03*
Y28740D02*
D03*
Y27559D02*
D03*
X263976Y29331D02*
D03*
Y28150D02*
D03*
X262894Y36811D02*
D03*
Y35630D02*
D03*
Y34449D02*
D03*
X263976Y36220D02*
D03*
Y35039D02*
D03*
X262894Y43602D02*
D03*
Y42421D02*
D03*
Y41240D02*
D03*
X263976Y43012D02*
D03*
Y41831D02*
D03*
X262894Y50492D02*
D03*
Y49311D02*
D03*
Y48130D02*
D03*
X263976Y49902D02*
D03*
Y48720D02*
D03*
X262894Y57382D02*
D03*
Y56201D02*
D03*
Y55020D02*
D03*
X263976Y56791D02*
D03*
Y55610D02*
D03*
X262894Y64173D02*
D03*
Y62992D02*
D03*
Y61811D02*
D03*
X263976Y63583D02*
D03*
Y62402D02*
D03*
X262894Y71063D02*
D03*
Y69882D02*
D03*
Y68701D02*
D03*
X263976Y70472D02*
D03*
Y69291D02*
D03*
X262992Y77953D02*
D03*
Y76772D02*
D03*
X264075Y77362D02*
D03*
Y76181D02*
D03*
X262894Y84744D02*
D03*
Y83563D02*
D03*
Y82382D02*
D03*
X263976Y84153D02*
D03*
Y82972D02*
D03*
X262894Y91634D02*
D03*
Y90453D02*
D03*
Y89272D02*
D03*
X263976Y91043D02*
D03*
Y89862D02*
D03*
X262894Y98524D02*
D03*
Y97342D02*
D03*
Y96161D02*
D03*
X263976Y97933D02*
D03*
Y96752D02*
D03*
X270374Y105315D02*
D03*
X269291Y104724D02*
D03*
Y103543D02*
D03*
X263976D02*
D03*
Y104724D02*
D03*
X262894Y102953D02*
D03*
Y104134D02*
D03*
Y105315D02*
D03*
X61319Y57284D02*
D03*
Y64173D02*
D03*
X77461Y96752D02*
D03*
Y100157D02*
D03*
X77461Y103563D02*
D03*
Y106968D02*
D03*
Y110374D02*
D03*
Y113779D02*
D03*
X73524D02*
D03*
Y110374D02*
D03*
Y106378D02*
D03*
Y103563D02*
D03*
X73524Y100157D02*
D03*
X16732Y40059D02*
D03*
X9252D02*
D03*
X16732Y50689D02*
D03*
X12992D02*
D03*
X9252D02*
D03*
X42618Y35433D02*
D03*
X35138D02*
D03*
X31398D02*
D03*
X40157Y59449D02*
D03*
Y63386D02*
D03*
X31693D02*
D03*
X88287Y34744D02*
D03*
X61319Y60728D02*
D03*
X54724Y55905D02*
D03*
X55020Y62205D02*
D03*
Y65354D02*
D03*
X71260Y62205D02*
D03*
X80413Y65551D02*
D03*
X92618Y72835D02*
D03*
X84744Y73819D02*
D03*
X92618Y80118D02*
D03*
X59842Y78150D02*
D03*
X53150D02*
D03*
X59842Y83661D02*
D03*
X53150D02*
D03*
X41339Y68602D02*
D03*
X37106D02*
D03*
X41339Y72539D02*
D03*
X37106D02*
D03*
X40945Y79528D02*
D03*
X34449D02*
D03*
X40945Y85039D02*
D03*
X34449D02*
D03*
X22835Y70669D02*
D03*
X18898D02*
D03*
X23031Y76968D02*
D03*
X20276D02*
D03*
X23031Y82579D02*
D03*
X20177D02*
D03*
X21752Y79921D02*
D03*
X28248Y76968D02*
D03*
X15256D02*
D03*
Y78937D02*
D03*
Y80905D02*
D03*
Y82874D02*
D03*
X10531Y72146D02*
D03*
X6791Y74705D02*
D03*
Y78642D02*
D03*
Y82087D02*
D03*
Y86024D02*
D03*
Y89764D02*
D03*
Y93701D02*
D03*
X15846Y89764D02*
D03*
X10925Y89665D02*
D03*
X14862Y93996D02*
D03*
X10925D02*
D03*
X9547Y116142D02*
D03*
X13583Y134055D02*
D03*
X5709Y134350D02*
D03*
X95276Y147736D02*
D03*
X99213D02*
D03*
X103150D02*
D03*
X81102Y159508D02*
D03*
X113386D02*
D03*
X127559Y159508D02*
D03*
X151969D02*
D03*
X137795Y147736D02*
D03*
X141732D02*
D03*
X81102Y157539D02*
D03*
X113386D02*
D03*
X127559Y157539D02*
D03*
X151969D02*
D03*
X95276Y145768D02*
D03*
X99213D02*
D03*
X103150D02*
D03*
X137795Y145767D02*
D03*
X141732D02*
D03*
X29626Y162303D02*
D03*
X71752D02*
D03*
X47736Y152264D02*
D03*
X49705Y153445D02*
D03*
X51673D02*
D03*
X67421D02*
D03*
X29626Y160335D02*
D03*
X71752D02*
D03*
X-25000Y137402D02*
D03*
Y87402D02*
D03*
X-4724Y127756D02*
D03*
X-23031Y87402D02*
D03*
X-2362Y127756D02*
D03*
X-23031Y137402D02*
D03*
X-25000Y74902D02*
D03*
X-23031D02*
D03*
X-25000Y-63287D02*
D03*
X-4528Y-53051D02*
D03*
X-23031Y-63287D02*
D03*
X-2559Y-23524D02*
D03*
Y-29429D02*
D03*
Y-35335D02*
D03*
Y-53051D02*
D03*
Y-41240D02*
D03*
X57915Y130159D02*
D03*
X59884D02*
D03*
X62443Y123761D02*
D03*
Y117856D02*
D03*
Y102108D02*
D03*
Y100139D02*
D03*
X59884Y95612D02*
D03*
X57915D02*
D03*
X55947D02*
D03*
X53978D02*
D03*
X52010D02*
D03*
X50041D02*
D03*
X40199D02*
D03*
X38230D02*
D03*
X36261D02*
D03*
X34293D02*
D03*
X32324Y95112D02*
D03*
X30356Y95612D02*
D03*
X27195Y98171D02*
D03*
X27895Y100139D02*
D03*
Y102108D02*
D03*
Y104076D02*
D03*
Y119824D02*
D03*
Y123761D02*
D03*
X37894Y120177D02*
D03*
X52264D02*
D03*
X37894Y105807D02*
D03*
X52264D02*
D03*
X45120Y112935D02*
D03*
X270374Y104134D02*
D03*
X263976Y-85532D02*
D03*
X281398Y142913D02*
D03*
X280217D02*
D03*
X279035D02*
D03*
X280807Y143996D02*
D03*
X279626D02*
D03*
X286614Y142913D02*
D03*
X285433D02*
D03*
X284252D02*
D03*
X286024Y143996D02*
D03*
X284842D02*
D03*
X281398Y137008D02*
D03*
X280217D02*
D03*
X279035D02*
D03*
X280807Y138091D02*
D03*
X279626D02*
D03*
X286614Y137008D02*
D03*
X285433D02*
D03*
X284252D02*
D03*
X286024Y138091D02*
D03*
X284842D02*
D03*
X51772Y88090D02*
D03*
X55709D02*
D03*
X62992D02*
D03*
X27895Y127698D02*
D03*
Y125730D02*
D03*
X61516Y153445D02*
D03*
X28248Y80905D02*
D03*
X34350Y42815D02*
D03*
Y45669D02*
D03*
X39469D02*
D03*
Y42913D02*
D03*
X73819Y-15059D02*
D03*
X75787D02*
D03*
X78543Y-30807D02*
D03*
X77756Y-28839D02*
D03*
X77854Y-20965D02*
D03*
X60039Y-22933D02*
D03*
Y-20965D02*
D03*
Y-18996D02*
D03*
X69882Y-15059D02*
D03*
X41142Y4921D02*
D03*
Y2953D02*
D03*
X33661Y4921D02*
D03*
Y2953D02*
D03*
X60039Y3937D02*
D03*
X62008D02*
D03*
X60039Y-3937D02*
D03*
X62008D02*
D03*
X36261Y131340D02*
D03*
X30356D02*
D03*
X59884D02*
D03*
X26714Y100139D02*
D03*
X26014Y98171D02*
D03*
X26714Y117856D02*
D03*
Y119824D02*
D03*
Y123761D02*
D03*
Y125730D02*
D03*
Y127698D02*
D03*
X59884Y94390D02*
D03*
X57915D02*
D03*
X55947D02*
D03*
X53978D02*
D03*
X52010D02*
D03*
X50041D02*
D03*
X36261D02*
D03*
X34293D02*
D03*
X32324Y93890D02*
D03*
X30356Y94390D02*
D03*
X48073D02*
D03*
X38230D02*
D03*
X63624Y106045D02*
D03*
X63722Y125730D02*
D03*
X63624Y102108D02*
D03*
Y100139D02*
D03*
Y98171D02*
D03*
Y111950D02*
D03*
Y109982D02*
D03*
Y113919D02*
D03*
Y115887D02*
D03*
Y121793D02*
D03*
Y119824D02*
D03*
Y123761D02*
D03*
X47736Y153445D02*
D03*
X51673Y152264D02*
D03*
X63484D02*
D03*
X65453D02*
D03*
X53642Y153445D02*
D03*
X61516Y152264D02*
D03*
X59547D02*
D03*
X57579Y153445D02*
D03*
X55610Y152264D02*
D03*
X55610Y153445D02*
D03*
X53642Y152264D02*
D03*
X57579D02*
D03*
X67424Y152173D02*
D03*
X76279Y113779D02*
D03*
Y110374D02*
D03*
X76279Y106968D02*
D03*
Y103563D02*
D03*
Y100157D02*
D03*
X72342D02*
D03*
Y103563D02*
D03*
Y106378D02*
D03*
X72342Y110374D02*
D03*
X72441Y114272D02*
D03*
X5709Y132776D02*
D03*
X13583Y132874D02*
D03*
X9547Y114862D02*
D03*
X16437Y76968D02*
D03*
Y78937D02*
D03*
Y80905D02*
D03*
Y82874D02*
D03*
X27067D02*
D03*
Y80905D02*
D03*
Y78937D02*
D03*
Y76968D02*
D03*
X15945Y88583D02*
D03*
X11909Y88681D02*
D03*
X15846Y93012D02*
D03*
X11909D02*
D03*
X7972Y73524D02*
D03*
Y78642D02*
D03*
Y81201D02*
D03*
Y85138D02*
D03*
Y88583D02*
D03*
Y92520D02*
D03*
X11713Y74902D02*
D03*
Y70965D02*
D03*
X20079Y69488D02*
D03*
X24016D02*
D03*
X43307Y79528D02*
D03*
X36811D02*
D03*
X43307Y85039D02*
D03*
X36811D02*
D03*
X40157Y69784D02*
D03*
X35925D02*
D03*
X40157Y73721D02*
D03*
X35925D02*
D03*
X61811Y78150D02*
D03*
X55118D02*
D03*
X61811Y83661D02*
D03*
X55118D02*
D03*
X56594Y86910D02*
D03*
X52953D02*
D03*
X60236D02*
D03*
X64173D02*
D03*
X59350Y88090D02*
D03*
X41339Y58268D02*
D03*
X37106Y58563D02*
D03*
X32874Y58268D02*
D03*
X41339Y62205D02*
D03*
X37106D02*
D03*
X35925Y58464D02*
D03*
X42618Y37402D02*
D03*
X35138D02*
D03*
X31398D02*
D03*
X16732Y38091D02*
D03*
X9252D02*
D03*
X16732Y48720D02*
D03*
X12992D02*
D03*
X9252D02*
D03*
X86713Y73819D02*
D03*
X94587Y80118D02*
D03*
Y72835D02*
D03*
X85728Y72736D02*
D03*
X93602Y71457D02*
D03*
Y81201D02*
D03*
X84547Y81299D02*
D03*
X85728Y82087D02*
D03*
X63624Y117856D02*
D03*
X72342Y96752D02*
D03*
X70669Y-79036D02*
D03*
X72638D02*
D03*
X74606D02*
D03*
X76575D02*
D03*
X70669Y-76673D02*
D03*
X72638D02*
D03*
X74606D02*
D03*
X76575D02*
D03*
X68898Y-86713D02*
D03*
Y-84744D02*
D03*
Y-82776D02*
D03*
Y-80807D02*
D03*
X66535Y-86713D02*
D03*
Y-82776D02*
D03*
Y-80807D02*
D03*
Y-94587D02*
D03*
Y-92618D02*
D03*
Y-90650D02*
D03*
Y-96555D02*
D03*
Y-98524D02*
D03*
X68898Y-96555D02*
D03*
Y-98524D02*
D03*
X70669Y-102657D02*
D03*
X72638D02*
D03*
X74606D02*
D03*
X76575D02*
D03*
X70669Y-100295D02*
D03*
X72638D02*
D03*
X74606D02*
D03*
X76575Y-157579D02*
D03*
X74606D02*
D03*
X72638D02*
D03*
X70669D02*
D03*
X76575Y-159941D02*
D03*
X74606D02*
D03*
X72638D02*
D03*
X70669D02*
D03*
X78346Y-149901D02*
D03*
Y-151870D02*
D03*
Y-153839D02*
D03*
Y-155807D02*
D03*
X80709Y-149901D02*
D03*
Y-151870D02*
D03*
Y-153839D02*
D03*
Y-155807D02*
D03*
X78346Y-142027D02*
D03*
Y-143996D02*
D03*
Y-145965D02*
D03*
Y-147933D02*
D03*
X80709Y-142027D02*
D03*
Y-143996D02*
D03*
Y-145965D02*
D03*
Y-147933D02*
D03*
Y-140059D02*
D03*
Y-138091D02*
D03*
X78346Y-140059D02*
D03*
Y-138091D02*
D03*
X68898Y-155807D02*
D03*
Y-153839D02*
D03*
X66535Y-155807D02*
D03*
Y-153839D02*
D03*
Y-145965D02*
D03*
Y-147933D02*
D03*
Y-149902D02*
D03*
Y-151870D02*
D03*
X68898Y-145965D02*
D03*
Y-147933D02*
D03*
Y-149902D02*
D03*
Y-151870D02*
D03*
X66535Y-138091D02*
D03*
Y-140059D02*
D03*
Y-142028D02*
D03*
Y-143996D02*
D03*
X68898Y-138091D02*
D03*
Y-140059D02*
D03*
Y-142028D02*
D03*
Y-143996D02*
D03*
X76575Y-133957D02*
D03*
X74606D02*
D03*
X72638D02*
D03*
X70669D02*
D03*
X76575Y-136319D02*
D03*
X74606D02*
D03*
X72638D02*
D03*
X70669D02*
D03*
X56988Y-66732D02*
D03*
X58169Y-67913D02*
D03*
X62008D02*
D03*
X60827Y-66732D02*
D03*
X65846Y-67913D02*
D03*
X64665Y-66732D02*
D03*
X58169Y-71850D02*
D03*
X56988Y-70669D02*
D03*
X62008Y-71850D02*
D03*
X60827Y-70669D02*
D03*
X65846Y-71850D02*
D03*
X64665Y-70669D02*
D03*
X80610Y-66732D02*
D03*
X81791Y-71850D02*
D03*
X80610Y-70669D02*
D03*
X86319Y-71850D02*
D03*
X85138Y-70669D02*
D03*
X91339Y-71358D02*
D03*
X90158Y-71260D02*
D03*
X87598Y-92027D02*
D03*
X86417Y-90847D02*
D03*
X60039Y-102362D02*
D03*
X58858Y-101181D02*
D03*
X60039Y-106299D02*
D03*
X58858Y-105118D02*
D03*
X14862Y-115847D02*
D03*
Y-119783D02*
D03*
X19980Y-117027D02*
D03*
X18799Y-115847D02*
D03*
X43602Y-118405D02*
D03*
X42421Y-118307D02*
D03*
X43602Y-122244D02*
D03*
X42421Y-122146D02*
D03*
X47539Y-118996D02*
D03*
X46358Y-117815D02*
D03*
X51476Y-118996D02*
D03*
X50295Y-117815D02*
D03*
X47539Y-122933D02*
D03*
X46358Y-121752D02*
D03*
X51476Y-122933D02*
D03*
X50295Y-121752D02*
D03*
X58169Y-125197D02*
D03*
X56988Y-124016D02*
D03*
X58169Y-129134D02*
D03*
X56988Y-127953D02*
D03*
X62008Y-125197D02*
D03*
X60827Y-124016D02*
D03*
X62008Y-129134D02*
D03*
X60827Y-127953D02*
D03*
X65846Y-125197D02*
D03*
X64665Y-124016D02*
D03*
X65846Y-129134D02*
D03*
X64665Y-127953D02*
D03*
X80604Y-124016D02*
D03*
X81785Y-129134D02*
D03*
X80604Y-127953D02*
D03*
X91240Y-125197D02*
D03*
X90059Y-124016D02*
D03*
X86313Y-129134D02*
D03*
X91240Y-128642D02*
D03*
X65945Y-32776D02*
D03*
X67913D02*
D03*
X69882D02*
D03*
X71850D02*
D03*
X73819D02*
D03*
X75787Y-33563D02*
D03*
X86417Y-142618D02*
D03*
X87598Y-143799D02*
D03*
Y-149311D02*
D03*
X82382Y-160335D02*
D03*
X82480Y-161516D02*
D03*
X87500D02*
D03*
X25098Y-114665D02*
D03*
X27067D02*
D03*
Y-118405D02*
D03*
X25098D02*
D03*
X27067Y-122146D02*
D03*
X25098D02*
D03*
X37303Y-114665D02*
D03*
X35335D02*
D03*
X37697Y-118405D02*
D03*
Y-122146D02*
D03*
X36516D02*
D03*
X117224Y-111614D02*
D03*
Y-113583D02*
D03*
X125098Y-111614D02*
D03*
Y-113583D02*
D03*
X96161Y-4921D02*
D03*
X94980Y4036D02*
D03*
X96161Y2854D02*
D03*
X94980Y99D02*
D03*
X96161Y-1083D02*
D03*
X49803Y-2559D02*
D03*
X48622Y-1378D02*
D03*
X49803Y1378D02*
D03*
X48622Y2559D02*
D03*
X53740Y-2559D02*
D03*
X52559Y-1378D02*
D03*
X53740Y1378D02*
D03*
X52559Y2559D02*
D03*
X9843Y-49803D02*
D03*
X15748D02*
D03*
Y-47835D02*
D03*
X5118Y-54823D02*
D03*
Y-52854D02*
D03*
X10236Y-54823D02*
D03*
Y-52854D02*
D03*
X15748Y-54823D02*
D03*
Y-52854D02*
D03*
X21654Y-54823D02*
D03*
Y-52854D02*
D03*
X7677Y-62303D02*
D03*
Y-60335D02*
D03*
X80709Y-98524D02*
D03*
Y-96555D02*
D03*
Y-94587D02*
D03*
Y-92618D02*
D03*
X78346Y-98524D02*
D03*
Y-96555D02*
D03*
Y-94587D02*
D03*
Y-92618D02*
D03*
X87500Y-104232D02*
D03*
X83563D02*
D03*
X82382Y-103051D02*
D03*
X87598Y-86516D02*
D03*
X86417Y-85335D02*
D03*
X80709Y-86713D02*
D03*
X78346Y-88681D02*
D03*
Y-84744D02*
D03*
X81791Y-67913D02*
D03*
X85138Y-66732D02*
D03*
X90164Y-66732D02*
D03*
X91345Y-67914D02*
D03*
X86319Y-67913D02*
D03*
X94291Y-87500D02*
D03*
Y-93405D02*
D03*
Y-91437D02*
D03*
Y-89468D02*
D03*
Y-85532D02*
D03*
Y-83563D02*
D03*
X71850Y-82087D02*
D03*
Y-97146D02*
D03*
Y-93381D02*
D03*
Y-89616D02*
D03*
Y-85851D02*
D03*
X74213Y-82087D02*
D03*
Y-97146D02*
D03*
Y-93381D02*
D03*
Y-85851D02*
D03*
X36713Y-86614D02*
D03*
X38681D02*
D03*
X34744D02*
D03*
X34744Y-85236D02*
D03*
X38681D02*
D03*
X36713D02*
D03*
X37697Y-87992D02*
D03*
X35728D02*
D03*
Y-77362D02*
D03*
X37697D02*
D03*
X36713Y-74606D02*
D03*
X38681D02*
D03*
X34744D02*
D03*
X34744Y-75984D02*
D03*
X38681D02*
D03*
X36713D02*
D03*
X48031Y-77362D02*
D03*
X50000D02*
D03*
X49016Y-74606D02*
D03*
X50787D02*
D03*
X47244D02*
D03*
X47244Y-75984D02*
D03*
X50787D02*
D03*
X49016D02*
D03*
X50000Y-87992D02*
D03*
X51968D02*
D03*
X50984Y-85236D02*
D03*
X52953D02*
D03*
X49016D02*
D03*
X49016Y-86614D02*
D03*
X52953D02*
D03*
X50984D02*
D03*
X50000Y-95472D02*
D03*
X51968D02*
D03*
X50984Y-92716D02*
D03*
X52953D02*
D03*
X49016D02*
D03*
X49016Y-94095D02*
D03*
X52953D02*
D03*
X50984D02*
D03*
X35728Y-95472D02*
D03*
X37697D02*
D03*
X36713Y-92716D02*
D03*
X38681D02*
D03*
X34744D02*
D03*
X34744Y-94095D02*
D03*
X38681D02*
D03*
X36713D02*
D03*
X35728Y-106102D02*
D03*
X37697D02*
D03*
X36713Y-103347D02*
D03*
X38681D02*
D03*
X34744D02*
D03*
X34744Y-104724D02*
D03*
X38681D02*
D03*
X36713D02*
D03*
X37697Y-142815D02*
D03*
X35728D02*
D03*
X36713Y-145571D02*
D03*
X34744D02*
D03*
X38681D02*
D03*
X38681Y-144193D02*
D03*
X34744D02*
D03*
X36713D02*
D03*
X51968Y-143209D02*
D03*
X50000D02*
D03*
X50984Y-145571D02*
D03*
X49016D02*
D03*
X52953D02*
D03*
X52953Y-144193D02*
D03*
X49016D02*
D03*
X50984D02*
D03*
X37697Y-132185D02*
D03*
X35728D02*
D03*
X36713Y-134941D02*
D03*
X34744D02*
D03*
X38681D02*
D03*
X38681Y-133563D02*
D03*
X34744D02*
D03*
X36713D02*
D03*
X52953Y-132185D02*
D03*
X50984D02*
D03*
X51968Y-134941D02*
D03*
X50000D02*
D03*
X53937D02*
D03*
X53937Y-133563D02*
D03*
X50000D02*
D03*
X51968D02*
D03*
X37697Y-161516D02*
D03*
X35728D02*
D03*
X36713Y-164272D02*
D03*
X34744D02*
D03*
X38681D02*
D03*
X38681Y-162894D02*
D03*
X34744D02*
D03*
X36713D02*
D03*
X51968Y-161516D02*
D03*
X50000D02*
D03*
X50984Y-164272D02*
D03*
X49016D02*
D03*
X52953D02*
D03*
X52953Y-162894D02*
D03*
X49016D02*
D03*
X50984D02*
D03*
X37697Y-150886D02*
D03*
X35728D02*
D03*
X36713Y-153642D02*
D03*
X34744D02*
D03*
X38681D02*
D03*
X38681Y-152264D02*
D03*
X34744D02*
D03*
X36713D02*
D03*
X51968Y-150886D02*
D03*
X50000D02*
D03*
X50984Y-153642D02*
D03*
X49016D02*
D03*
X52953D02*
D03*
X52953Y-152264D02*
D03*
X49016D02*
D03*
X50984D02*
D03*
X92716Y-150787D02*
D03*
Y-148819D02*
D03*
Y-146850D02*
D03*
X92815Y-92126D02*
D03*
Y-90158D02*
D03*
Y-88189D02*
D03*
X66535Y-84744D02*
D03*
X127362Y-146850D02*
D03*
Y-148819D02*
D03*
Y-150787D02*
D03*
X125787Y-146358D02*
D03*
Y-152264D02*
D03*
Y-150295D02*
D03*
Y-148327D02*
D03*
Y-144390D02*
D03*
Y-142421D02*
D03*
X127362Y-87992D02*
D03*
Y-89961D02*
D03*
Y-91929D02*
D03*
X125787Y-87500D02*
D03*
Y-93405D02*
D03*
Y-91437D02*
D03*
Y-89468D02*
D03*
Y-85532D02*
D03*
Y-83563D02*
D03*
X137697Y-72047D02*
D03*
X139665D02*
D03*
X135728D02*
D03*
X135728Y-70669D02*
D03*
X139665D02*
D03*
X137697D02*
D03*
X138681Y-73425D02*
D03*
X136713D02*
D03*
X151083Y-72047D02*
D03*
X153051D02*
D03*
X149114D02*
D03*
X149114Y-70669D02*
D03*
X153051D02*
D03*
X151083D02*
D03*
X152067Y-73425D02*
D03*
X150098D02*
D03*
X164961Y-72047D02*
D03*
X166929D02*
D03*
X162992D02*
D03*
X162992Y-70669D02*
D03*
X166929D02*
D03*
X164961D02*
D03*
X165945Y-73425D02*
D03*
X163976D02*
D03*
X137697Y-82677D02*
D03*
X139665D02*
D03*
X135728D02*
D03*
X135728Y-81299D02*
D03*
X139665D02*
D03*
X137697D02*
D03*
X138681Y-84055D02*
D03*
X136713D02*
D03*
X151083Y-82677D02*
D03*
X153051D02*
D03*
X149114D02*
D03*
X149114Y-81299D02*
D03*
X153051D02*
D03*
X151083D02*
D03*
X152067Y-84055D02*
D03*
X150098D02*
D03*
X164961Y-82677D02*
D03*
X166929D02*
D03*
X162992D02*
D03*
X162992Y-81299D02*
D03*
X166929D02*
D03*
X164961D02*
D03*
X165945Y-84055D02*
D03*
X163976D02*
D03*
X137697Y-89665D02*
D03*
X139665D02*
D03*
X135728D02*
D03*
X135728Y-88287D02*
D03*
X139665D02*
D03*
X137697D02*
D03*
X138681Y-91043D02*
D03*
X136713D02*
D03*
X151083Y-89665D02*
D03*
X153051D02*
D03*
X149114D02*
D03*
X149114Y-88287D02*
D03*
X153051D02*
D03*
X151083D02*
D03*
X152067Y-91043D02*
D03*
X150098D02*
D03*
X164961Y-89665D02*
D03*
X166929D02*
D03*
X162992D02*
D03*
X162992Y-88287D02*
D03*
X166929D02*
D03*
X164961D02*
D03*
X165945Y-91043D02*
D03*
X163976D02*
D03*
X137697Y-100295D02*
D03*
X139665D02*
D03*
X135728D02*
D03*
X135728Y-98917D02*
D03*
X139665D02*
D03*
X137697D02*
D03*
X138681Y-101673D02*
D03*
X136713D02*
D03*
X151083Y-100295D02*
D03*
X153051D02*
D03*
X149114D02*
D03*
X149114Y-98917D02*
D03*
X153051D02*
D03*
X151083D02*
D03*
X152067Y-101673D02*
D03*
X150098D02*
D03*
X164961Y-100295D02*
D03*
X166929D02*
D03*
X162992D02*
D03*
X162992Y-98917D02*
D03*
X166929D02*
D03*
X164961D02*
D03*
X165945Y-101673D02*
D03*
X163976D02*
D03*
Y-142815D02*
D03*
X165945D02*
D03*
X164961Y-140059D02*
D03*
X166929D02*
D03*
X162992D02*
D03*
X162992Y-141437D02*
D03*
X166929D02*
D03*
X164961D02*
D03*
X150098Y-142815D02*
D03*
X152067D02*
D03*
X151083Y-140059D02*
D03*
X153051D02*
D03*
X149114D02*
D03*
X149114Y-141437D02*
D03*
X153051D02*
D03*
X151083D02*
D03*
X136713Y-142815D02*
D03*
X138681D02*
D03*
X137697Y-140059D02*
D03*
X139665D02*
D03*
X135728D02*
D03*
X135728Y-141437D02*
D03*
X139665D02*
D03*
X137697D02*
D03*
X163976Y-132185D02*
D03*
X165945D02*
D03*
X164961Y-129429D02*
D03*
X166929D02*
D03*
X162992D02*
D03*
X162992Y-130807D02*
D03*
X166929D02*
D03*
X164961D02*
D03*
X150098Y-132185D02*
D03*
X152067D02*
D03*
X151083Y-129429D02*
D03*
X153051D02*
D03*
X149114D02*
D03*
X149114Y-130807D02*
D03*
X153051D02*
D03*
X151083D02*
D03*
X136713Y-132185D02*
D03*
X138681D02*
D03*
X137697Y-129429D02*
D03*
X139665D02*
D03*
X135728D02*
D03*
X135728Y-130807D02*
D03*
X139665D02*
D03*
X137697D02*
D03*
Y-149705D02*
D03*
X139665D02*
D03*
X135728D02*
D03*
X135728Y-148327D02*
D03*
X139665D02*
D03*
X137697D02*
D03*
X138681Y-151083D02*
D03*
X136713D02*
D03*
X151083Y-149705D02*
D03*
X153051D02*
D03*
X149114D02*
D03*
X149114Y-148327D02*
D03*
X153051D02*
D03*
X151083D02*
D03*
X152067Y-151083D02*
D03*
X150098D02*
D03*
X164961Y-149705D02*
D03*
X166929D02*
D03*
X162992D02*
D03*
X162992Y-148327D02*
D03*
X166929D02*
D03*
X164961D02*
D03*
X165945Y-151083D02*
D03*
X163976D02*
D03*
X137697Y-160335D02*
D03*
X139665D02*
D03*
X135728D02*
D03*
X135728Y-158957D02*
D03*
X139665D02*
D03*
X137697D02*
D03*
X138681Y-161713D02*
D03*
X136713D02*
D03*
X151083Y-160335D02*
D03*
X153051D02*
D03*
X149114D02*
D03*
X149114Y-158957D02*
D03*
X153051D02*
D03*
X151083D02*
D03*
X152067Y-161713D02*
D03*
X150098D02*
D03*
X164961Y-160335D02*
D03*
X166929D02*
D03*
X162992D02*
D03*
X162992Y-158957D02*
D03*
X166929D02*
D03*
X164961D02*
D03*
X165945Y-161713D02*
D03*
X163976D02*
D03*
X50984Y-41142D02*
D03*
X51772Y-44685D02*
D03*
X52953D02*
D03*
X55709D02*
D03*
X56890D02*
D03*
Y-49803D02*
D03*
X60827Y-44685D02*
D03*
Y-49803D02*
D03*
X64764Y-44685D02*
D03*
X65945D02*
D03*
Y-49803D02*
D03*
X64764D02*
D03*
X73425D02*
D03*
X74606D02*
D03*
X73425Y-44685D02*
D03*
X69488Y-49803D02*
D03*
X70669D02*
D03*
Y-44685D02*
D03*
X69488D02*
D03*
X82087Y-49803D02*
D03*
Y-44685D02*
D03*
X78150Y-49803D02*
D03*
X79331Y-44685D02*
D03*
X78150D02*
D03*
X91929Y-49803D02*
D03*
Y-44685D02*
D03*
X90748D02*
D03*
X86811Y-49803D02*
D03*
X87992Y-44685D02*
D03*
X86811D02*
D03*
X51083Y-42323D02*
D03*
X57579Y-41142D02*
D03*
X66634D02*
D03*
X60039Y-41142D02*
D03*
X75394Y-42323D02*
D03*
X68799Y-42323D02*
D03*
X68701Y-41142D02*
D03*
X84055Y-42323D02*
D03*
X83957Y-41142D02*
D03*
X77461Y-42323D02*
D03*
X77362Y-41142D02*
D03*
X92716Y-42323D02*
D03*
X92618Y-41142D02*
D03*
X86122Y-42323D02*
D03*
X86024Y-41142D02*
D03*
X75299Y-41144D02*
D03*
X86614Y-28937D02*
D03*
X87795D02*
D03*
Y-34055D02*
D03*
X86614D02*
D03*
X90551Y-28937D02*
D03*
X91732D02*
D03*
Y-34055D02*
D03*
X90551D02*
D03*
X92520Y-26575D02*
D03*
X92421Y-25394D02*
D03*
X66732Y-42323D02*
D03*
X46801Y-20965D02*
D03*
X45620D02*
D03*
X46801Y-16142D02*
D03*
X45620D02*
D03*
X52165Y-20965D02*
D03*
X50984D02*
D03*
X52165Y-16142D02*
D03*
X50984D02*
D03*
X52165Y-13091D02*
D03*
X50984D02*
D03*
X52165Y-7972D02*
D03*
X50984D02*
D03*
X46801Y-13091D02*
D03*
X45620D02*
D03*
X46801Y-7972D02*
D03*
X45620D02*
D03*
X87205Y-18701D02*
D03*
X86024Y-13583D02*
D03*
X96161Y-14567D02*
D03*
X94980D02*
D03*
X87205Y-13583D02*
D03*
X90403D02*
D03*
X65748Y-7776D02*
D03*
X63976Y-14173D02*
D03*
X62008Y-15453D02*
D03*
Y-14173D02*
D03*
X65945Y-15354D02*
D03*
X63976Y-15453D02*
D03*
X60039Y-17028D02*
D03*
X27502Y113919D02*
D03*
X68898Y-90650D02*
D03*
Y-92618D02*
D03*
Y-88681D02*
D03*
X66535D02*
D03*
X68898Y-94587D02*
D03*
X69095Y65256D02*
D03*
X73819Y-13386D02*
D03*
X75787Y-13091D02*
D03*
X79724Y-20965D02*
D03*
X103839Y69882D02*
D03*
X102953Y65945D02*
D03*
X103642Y67913D02*
D03*
X102657Y63976D02*
D03*
X65945Y-14075D02*
D03*
X96063Y-3740D02*
D03*
X115748Y40551D02*
D03*
Y38583D02*
D03*
X116929D02*
D03*
X115748Y36614D02*
D03*
X116929D02*
D03*
X115748Y34646D02*
D03*
X116929D02*
D03*
X122441Y43307D02*
D03*
Y42126D02*
D03*
X120472Y43307D02*
D03*
X118504D02*
D03*
Y42126D02*
D03*
X126378D02*
D03*
Y43307D02*
D03*
X128346Y42126D02*
D03*
Y43307D02*
D03*
X130315Y42126D02*
D03*
Y43307D02*
D03*
X132283Y44882D02*
D03*
Y43701D02*
D03*
X134843Y34646D02*
D03*
X136024D02*
D03*
Y36614D02*
D03*
X134843D02*
D03*
X136024Y38583D02*
D03*
X134843D02*
D03*
X136614Y40551D02*
D03*
X135433D02*
D03*
X133858Y28740D02*
D03*
X135039D02*
D03*
Y26772D02*
D03*
X133858D02*
D03*
X126378Y25197D02*
D03*
X128347D02*
D03*
X130315Y24016D02*
D03*
Y25197D02*
D03*
X132283Y24016D02*
D03*
Y25197D02*
D03*
X124409D02*
D03*
Y24016D02*
D03*
X122441Y23031D02*
D03*
X118504Y24016D02*
D03*
X120472Y42126D02*
D03*
X116929Y40551D02*
D03*
X103248Y33779D02*
D03*
X102067D02*
D03*
X103248Y37697D02*
D03*
X102067D02*
D03*
X145177Y40157D02*
D03*
X143996D02*
D03*
Y45276D02*
D03*
X149803Y40157D02*
D03*
X148622D02*
D03*
X149803Y45276D02*
D03*
X148622D02*
D03*
X125984Y50886D02*
D03*
Y49705D02*
D03*
X121850Y50886D02*
D03*
Y49705D02*
D03*
X107972Y37697D02*
D03*
X106791D02*
D03*
X107972Y40157D02*
D03*
X106791D02*
D03*
X35925Y63386D02*
D03*
X31693Y59449D02*
D03*
X32874Y62205D02*
D03*
X162598Y121949D02*
D03*
Y123130D02*
D03*
X105709Y136024D02*
D03*
X104724Y125886D02*
D03*
X104134Y130807D02*
D03*
X105905Y119980D02*
D03*
X104134Y121063D02*
D03*
X111417Y121555D02*
D03*
X97638Y117028D02*
D03*
X99213Y124213D02*
D03*
X113386Y130610D02*
D03*
X103543Y90256D02*
D03*
X163189Y87205D02*
D03*
Y88386D02*
D03*
X167126D02*
D03*
X168307D02*
D03*
X172343D02*
D03*
X171161D02*
D03*
X176279D02*
D03*
Y87205D02*
D03*
X179232D02*
D03*
Y88386D02*
D03*
X184350D02*
D03*
Y87205D02*
D03*
X187697D02*
D03*
Y88386D02*
D03*
X160138Y106398D02*
D03*
Y107579D02*
D03*
X164056D02*
D03*
Y106398D02*
D03*
X170276Y100689D02*
D03*
X169095D02*
D03*
Y105807D02*
D03*
X170276D02*
D03*
X104134Y106595D02*
D03*
X105315Y100689D02*
D03*
X115354Y102264D02*
D03*
X117913Y100683D02*
D03*
X115354Y101083D02*
D03*
X105315Y96850D02*
D03*
X105320Y91343D02*
D03*
X155905Y107677D02*
D03*
X157087D02*
D03*
X156890Y101378D02*
D03*
X155905Y100197D02*
D03*
X157087D02*
D03*
X157087Y90256D02*
D03*
X155905D02*
D03*
X157087Y97736D02*
D03*
X155905D02*
D03*
X183071Y106693D02*
D03*
Y105512D02*
D03*
Y104331D02*
D03*
X181890Y105512D02*
D03*
X176772Y105512D02*
D03*
X175591Y106693D02*
D03*
Y105512D02*
D03*
Y104331D02*
D03*
X193405Y106693D02*
D03*
Y105512D02*
D03*
Y104331D02*
D03*
X192224Y105512D02*
D03*
X187106Y105512D02*
D03*
X185925Y106693D02*
D03*
Y105512D02*
D03*
Y104331D02*
D03*
X174620Y99800D02*
D03*
X175802Y100200D02*
D03*
X173721Y94882D02*
D03*
X174902D02*
D03*
Y97441D02*
D03*
X190947Y99959D02*
D03*
X192128D02*
D03*
X166535Y101083D02*
D03*
Y102264D02*
D03*
X162598D02*
D03*
Y101083D02*
D03*
X164567Y102264D02*
D03*
X160630D02*
D03*
Y101083D02*
D03*
X164567Y101083D02*
D03*
X166535Y92815D02*
D03*
Y91634D02*
D03*
X160630D02*
D03*
Y92815D02*
D03*
X190650Y94882D02*
D03*
X164567Y91634D02*
D03*
Y92815D02*
D03*
X162598Y91634D02*
D03*
X162599Y92815D02*
D03*
X162402Y98032D02*
D03*
X161221Y96358D02*
D03*
X192128Y92282D02*
D03*
X190947D02*
D03*
X192824Y88292D02*
D03*
X192037Y97544D02*
D03*
X154725Y19488D02*
D03*
X155905Y20669D02*
D03*
X155905Y25787D02*
D03*
X157087Y26969D02*
D03*
X155905D02*
D03*
X154724D02*
D03*
X154724Y17028D02*
D03*
X155905D02*
D03*
X157087D02*
D03*
X155905Y15846D02*
D03*
X155905Y10925D02*
D03*
X154724Y9744D02*
D03*
X155905D02*
D03*
X157087D02*
D03*
X175591Y23622D02*
D03*
Y24803D02*
D03*
Y25984D02*
D03*
X176772Y24803D02*
D03*
X181890Y24803D02*
D03*
X183071Y23622D02*
D03*
Y24803D02*
D03*
Y25984D02*
D03*
X185925Y23622D02*
D03*
Y24803D02*
D03*
Y25984D02*
D03*
X187106Y24803D02*
D03*
X192224Y24803D02*
D03*
X193405Y23622D02*
D03*
Y24803D02*
D03*
Y25984D02*
D03*
X168307Y6496D02*
D03*
Y7677D02*
D03*
X163189D02*
D03*
Y6496D02*
D03*
X176181Y7677D02*
D03*
X171358D02*
D03*
X184350Y6496D02*
D03*
Y7677D02*
D03*
X179232D02*
D03*
Y6496D02*
D03*
X192815D02*
D03*
X187697Y7677D02*
D03*
Y6496D02*
D03*
X170276Y25098D02*
D03*
X169095D02*
D03*
Y19980D02*
D03*
X170276D02*
D03*
X160138Y26870D02*
D03*
Y25689D02*
D03*
X164056D02*
D03*
Y26870D02*
D03*
X160630Y20374D02*
D03*
X162598Y21555D02*
D03*
X166535Y20374D02*
D03*
X164567D02*
D03*
X162598Y10925D02*
D03*
Y12106D02*
D03*
X160630Y10925D02*
D03*
Y12106D02*
D03*
X164567D02*
D03*
Y10925D02*
D03*
X166535Y12106D02*
D03*
Y10925D02*
D03*
X175753Y19471D02*
D03*
X174572Y19071D02*
D03*
X173672Y16712D02*
D03*
X174854D02*
D03*
X173672Y14153D02*
D03*
X174854D02*
D03*
X192176Y16712D02*
D03*
X190995D02*
D03*
Y19271D02*
D03*
X192176D02*
D03*
Y11594D02*
D03*
X190995D02*
D03*
Y14153D02*
D03*
X192176D02*
D03*
X162992Y16240D02*
D03*
X164173D02*
D03*
X160630Y21555D02*
D03*
X155905Y19488D02*
D03*
X157087D02*
D03*
X162598Y20374D02*
D03*
X176288Y6496D02*
D03*
X187697Y116732D02*
D03*
X195770Y124368D02*
D03*
X191840Y7579D02*
D03*
X166535Y21555D02*
D03*
X164567D02*
D03*
X111221Y-25000D02*
D03*
Y-23819D02*
D03*
X138979Y-19923D02*
D03*
X138484Y-25000D02*
D03*
X112008Y-16240D02*
D03*
X109449Y-19783D02*
D03*
X111417Y-18602D02*
D03*
X107480Y-19783D02*
D03*
X109449Y-18602D02*
D03*
X113386D02*
D03*
X113976Y-25000D02*
D03*
X101575Y-24902D02*
D03*
X94980Y-8858D02*
D03*
X83169Y1181D02*
D03*
Y2362D02*
D03*
X90650D02*
D03*
Y1181D02*
D03*
X83957Y-6299D02*
D03*
Y-7480D02*
D03*
X90650Y-5413D02*
D03*
Y-6594D02*
D03*
X96161Y-8858D02*
D03*
X85827Y-25394D02*
D03*
X91437Y-17520D02*
D03*
Y-18701D02*
D03*
X76575Y-100295D02*
D03*
X78346Y-90650D02*
D03*
X80709D02*
D03*
X53839Y65354D02*
D03*
X53839Y62205D02*
D03*
X54429Y59055D02*
D03*
X56004Y55610D02*
D03*
X71653Y59055D02*
D03*
X70079Y62205D02*
D03*
X70276Y65256D02*
D03*
X55610Y58760D02*
D03*
X84350Y55709D02*
D03*
Y65551D02*
D03*
X82382D02*
D03*
Y55709D02*
D03*
X113287Y65945D02*
D03*
Y67913D02*
D03*
Y63976D02*
D03*
X55709Y-49803D02*
D03*
X51772D02*
D03*
X252972Y-125394D02*
D03*
X252972Y-126575D02*
D03*
X251791D02*
D03*
X251791Y-125394D02*
D03*
X250610Y-126575D02*
D03*
X250610Y-125394D02*
D03*
X249429Y-126575D02*
D03*
X249429Y-125394D02*
D03*
X248248Y-126575D02*
D03*
X248248Y-125394D02*
D03*
X247067Y-126575D02*
D03*
X247067Y-125394D02*
D03*
X245886Y-126575D02*
D03*
X245886Y-125394D02*
D03*
X252972Y-129331D02*
D03*
X252972Y-130512D02*
D03*
X251791D02*
D03*
X251791Y-129331D02*
D03*
X250610Y-130512D02*
D03*
X250610Y-129331D02*
D03*
X249429Y-130512D02*
D03*
X249429Y-129331D02*
D03*
X248248Y-130512D02*
D03*
X248248Y-129331D02*
D03*
X247067Y-130512D02*
D03*
X247067Y-129331D02*
D03*
X245886Y-130512D02*
D03*
X245886Y-129331D02*
D03*
Y-133268D02*
D03*
X245886Y-134449D02*
D03*
X247067Y-133268D02*
D03*
X247067Y-134449D02*
D03*
X248248Y-133268D02*
D03*
X248248Y-134449D02*
D03*
X249429Y-133268D02*
D03*
X249429Y-134449D02*
D03*
X250610Y-133268D02*
D03*
X250610Y-134449D02*
D03*
X251791Y-133268D02*
D03*
X251791Y-134449D02*
D03*
X252972D02*
D03*
X252972Y-133268D02*
D03*
X219980Y-134449D02*
D03*
X219980Y-133268D02*
D03*
X218799Y-134449D02*
D03*
X218799Y-133268D02*
D03*
X217618Y-134449D02*
D03*
X217618Y-133268D02*
D03*
X216437Y-134449D02*
D03*
X216437Y-133268D02*
D03*
X215256Y-134449D02*
D03*
X215256Y-133268D02*
D03*
X214075Y-134449D02*
D03*
X214075Y-133268D02*
D03*
X212894D02*
D03*
X212894Y-134449D02*
D03*
X219980Y-117520D02*
D03*
X219980Y-118701D02*
D03*
X218799D02*
D03*
X218799Y-117520D02*
D03*
X217618Y-118701D02*
D03*
X217618Y-117520D02*
D03*
X216437Y-118701D02*
D03*
X216437Y-117520D02*
D03*
X215256Y-118701D02*
D03*
X215256Y-117520D02*
D03*
X214075Y-118701D02*
D03*
X214075Y-117520D02*
D03*
X212894Y-118701D02*
D03*
X212894Y-117520D02*
D03*
Y-121457D02*
D03*
X212894Y-122638D02*
D03*
X214075Y-121457D02*
D03*
X214075Y-122638D02*
D03*
X215256Y-121457D02*
D03*
X215256Y-122638D02*
D03*
X216437Y-121457D02*
D03*
X216437Y-122638D02*
D03*
X217618Y-121457D02*
D03*
X217618Y-122638D02*
D03*
X218799Y-121457D02*
D03*
X218799Y-122638D02*
D03*
X219980D02*
D03*
X219980Y-121457D02*
D03*
Y-109646D02*
D03*
X219980Y-110827D02*
D03*
X218799D02*
D03*
X218799Y-109646D02*
D03*
X217618Y-110827D02*
D03*
X217618Y-109646D02*
D03*
X216437Y-110827D02*
D03*
X216437Y-109646D02*
D03*
X215256Y-110827D02*
D03*
X215256Y-109646D02*
D03*
X214075Y-110827D02*
D03*
X214075Y-109646D02*
D03*
X212894Y-110827D02*
D03*
X212894Y-109646D02*
D03*
Y-113583D02*
D03*
X212894Y-114764D02*
D03*
X214075Y-113583D02*
D03*
X214075Y-114764D02*
D03*
X215256Y-113583D02*
D03*
X215256Y-114764D02*
D03*
X216437Y-113583D02*
D03*
X216437Y-114764D02*
D03*
X217618Y-113583D02*
D03*
X217618Y-114764D02*
D03*
X218799Y-113583D02*
D03*
X218799Y-114764D02*
D03*
X219980D02*
D03*
X219980Y-113583D02*
D03*
Y-101772D02*
D03*
X219980Y-102953D02*
D03*
X218799D02*
D03*
X218799Y-101772D02*
D03*
X217618Y-102953D02*
D03*
X217618Y-101772D02*
D03*
X216437Y-102953D02*
D03*
X216437Y-101772D02*
D03*
X215256Y-102953D02*
D03*
X215256Y-101772D02*
D03*
X214075Y-106890D02*
D03*
X215256Y-105709D02*
D03*
X215256Y-106890D02*
D03*
X216437Y-105709D02*
D03*
X216437Y-106890D02*
D03*
X217618Y-105709D02*
D03*
X217618Y-106890D02*
D03*
X218799Y-105709D02*
D03*
X218799Y-106890D02*
D03*
X219980D02*
D03*
X219980Y-105709D02*
D03*
X212894Y-97835D02*
D03*
X212894Y-99016D02*
D03*
X214075Y-97835D02*
D03*
X214075Y-99016D02*
D03*
X215256Y-97835D02*
D03*
X215256Y-99016D02*
D03*
X216437Y-97835D02*
D03*
X216437Y-99016D02*
D03*
X217618Y-97835D02*
D03*
X217618Y-99016D02*
D03*
X218799Y-97835D02*
D03*
X218799Y-99016D02*
D03*
X219980D02*
D03*
X219980Y-97835D02*
D03*
X212894Y-126575D02*
D03*
X214075D02*
D03*
X215256D02*
D03*
X216437D02*
D03*
X217618D02*
D03*
X219980D02*
D03*
X218799D02*
D03*
X219980Y-125394D02*
D03*
X218799D02*
D03*
X217618D02*
D03*
X216437D02*
D03*
X215256D02*
D03*
X214075D02*
D03*
X212894D02*
D03*
Y-129331D02*
D03*
X212894Y-130512D02*
D03*
X214075Y-129331D02*
D03*
X214075Y-130512D02*
D03*
X215256Y-129331D02*
D03*
X215256Y-130512D02*
D03*
X216437Y-129331D02*
D03*
X216437Y-130512D02*
D03*
X217618Y-129331D02*
D03*
X217618Y-130512D02*
D03*
X218799Y-129331D02*
D03*
X218799Y-130512D02*
D03*
X219980D02*
D03*
X219980Y-129331D02*
D03*
X245886Y-99016D02*
D03*
X245886Y-97835D02*
D03*
X247067D02*
D03*
X247067Y-99016D02*
D03*
X248248Y-97835D02*
D03*
X248248Y-99016D02*
D03*
X249429Y-97835D02*
D03*
X249429Y-99016D02*
D03*
X250610Y-97835D02*
D03*
X250610Y-99016D02*
D03*
X251791Y-97835D02*
D03*
X251791Y-99016D02*
D03*
X252973Y-97835D02*
D03*
X252973Y-99016D02*
D03*
X245886Y-106890D02*
D03*
X245886Y-105709D02*
D03*
X247067D02*
D03*
X247067Y-106890D02*
D03*
X248248Y-105709D02*
D03*
X248248Y-106890D02*
D03*
X249429Y-105709D02*
D03*
X249429Y-106890D02*
D03*
X250610Y-105709D02*
D03*
X250610Y-106890D02*
D03*
X251791Y-105709D02*
D03*
X251791Y-106890D02*
D03*
X252973Y-105709D02*
D03*
X252973Y-106890D02*
D03*
Y-102953D02*
D03*
X252973Y-101772D02*
D03*
X251791Y-102953D02*
D03*
X251791Y-101772D02*
D03*
X250610Y-102953D02*
D03*
X250610Y-101772D02*
D03*
X249429Y-102953D02*
D03*
X249429Y-101772D02*
D03*
X248248Y-102953D02*
D03*
X248248Y-101772D02*
D03*
X247067Y-102953D02*
D03*
X247067Y-101772D02*
D03*
X245886D02*
D03*
X245886Y-102953D02*
D03*
Y-114764D02*
D03*
X245886Y-113583D02*
D03*
X247067D02*
D03*
X247067Y-114764D02*
D03*
X248248Y-113583D02*
D03*
X248248Y-114764D02*
D03*
X249429Y-113583D02*
D03*
X249429Y-114764D02*
D03*
X250610Y-113583D02*
D03*
X250610Y-114764D02*
D03*
X251791Y-113583D02*
D03*
X251791Y-114764D02*
D03*
X252973Y-113583D02*
D03*
X252973Y-114764D02*
D03*
Y-110827D02*
D03*
X252973Y-109646D02*
D03*
X251791Y-110827D02*
D03*
X251791Y-109646D02*
D03*
X250610Y-110827D02*
D03*
X250610Y-109646D02*
D03*
X249429Y-110827D02*
D03*
X249429Y-109646D02*
D03*
X248248Y-110827D02*
D03*
X248248Y-109646D02*
D03*
X247067Y-110827D02*
D03*
X247067Y-109646D02*
D03*
X245886D02*
D03*
X245886Y-110827D02*
D03*
Y-122638D02*
D03*
X245886Y-121457D02*
D03*
X247067D02*
D03*
X247067Y-122638D02*
D03*
X248248Y-121457D02*
D03*
X248248Y-122638D02*
D03*
X249429Y-121457D02*
D03*
X249429Y-122638D02*
D03*
X250610Y-121457D02*
D03*
X250610Y-122638D02*
D03*
X251791Y-121457D02*
D03*
X251791Y-122638D02*
D03*
X252973Y-121457D02*
D03*
X252973Y-122638D02*
D03*
Y-118701D02*
D03*
X252973Y-117520D02*
D03*
X251791Y-118701D02*
D03*
X251791Y-117520D02*
D03*
X250610Y-118701D02*
D03*
X250610Y-117520D02*
D03*
X249429Y-118701D02*
D03*
X249429Y-117520D02*
D03*
X248248Y-118701D02*
D03*
X248248Y-117520D02*
D03*
X247067Y-118701D02*
D03*
X247067Y-117520D02*
D03*
X245886D02*
D03*
X245886Y-118701D02*
D03*
X270374Y-99408D02*
D03*
Y-100589D02*
D03*
Y-98227D02*
D03*
X262894Y-93406D02*
D03*
X40199Y94390D02*
D03*
X28248Y82874D02*
D03*
X27895Y121793D02*
D03*
X26714Y121793D02*
D03*
X27895Y117856D02*
D03*
Y115887D02*
D03*
X28742Y113919D02*
D03*
X28781Y111950D02*
D03*
X26714Y108013D02*
D03*
Y104076D02*
D03*
X27895Y109982D02*
D03*
X26714Y102108D02*
D03*
X27895Y106045D02*
D03*
X27541Y111950D02*
D03*
X27895Y108013D02*
D03*
X30356Y130159D02*
D03*
X32324D02*
D03*
X32324Y131340D02*
D03*
X34293Y130159D02*
D03*
X34293Y131340D02*
D03*
X36261Y130159D02*
D03*
X50041Y131340D02*
D03*
X38230Y130848D02*
D03*
X38230Y132029D02*
D03*
X40199Y131340D02*
D03*
X53978D02*
D03*
X50041Y130159D02*
D03*
X52010D02*
D03*
X52010Y131340D02*
D03*
X55947Y130217D02*
D03*
X57915Y131340D02*
D03*
X55947Y131439D02*
D03*
X62477Y125730D02*
D03*
X53978Y130159D02*
D03*
X-2362Y98228D02*
D03*
X-2953Y97047D02*
D03*
X-3543Y98228D02*
D03*
X-4232Y97047D02*
D03*
X-2953Y102953D02*
D03*
X-3543Y104134D02*
D03*
X-4232Y102953D02*
D03*
X-4724Y104134D02*
D03*
X5315Y109941D02*
D03*
X-4232Y108858D02*
D03*
X-3543Y110039D02*
D03*
X4134Y108957D02*
D03*
X11909D02*
D03*
X6496Y110236D02*
D03*
X6496Y108957D02*
D03*
X9547D02*
D03*
X5315Y108661D02*
D03*
X11909Y110236D02*
D03*
X10728Y109941D02*
D03*
X9547Y110236D02*
D03*
X-2362Y110039D02*
D03*
X-2953Y108858D02*
D03*
X145453Y78937D02*
D03*
Y77756D02*
D03*
X143898Y72539D02*
D03*
Y73721D02*
D03*
X73524Y96752D02*
D03*
X76279D02*
D03*
X102657Y69882D02*
D03*
X102461Y67913D02*
D03*
X104232Y65945D02*
D03*
X103937Y63976D02*
D03*
X112106D02*
D03*
Y65945D02*
D03*
X107382Y59252D02*
D03*
X112106Y67913D02*
D03*
Y69882D02*
D03*
Y71850D02*
D03*
X109350Y72441D02*
D03*
X102657Y71850D02*
D03*
X108071Y66535D02*
D03*
X106890Y67716D02*
D03*
X77756Y-17028D02*
D03*
X117717Y77756D02*
D03*
X112598Y78937D02*
D03*
Y77756D02*
D03*
X117717Y78937D02*
D03*
X116929Y28740D02*
D03*
X122441Y24213D02*
D03*
X80709Y-82776D02*
D03*
Y-88681D02*
D03*
X78346Y-86713D02*
D03*
Y-80807D02*
D03*
X80709D02*
D03*
X78346Y-82776D02*
D03*
X80709Y-84744D02*
D03*
X74213Y-89616D02*
D03*
X87500Y-103051D02*
D03*
X87402Y-160335D02*
D03*
X86417Y-148130D02*
D03*
X155905Y-37205D02*
D03*
Y-36024D02*
D03*
X157087D02*
D03*
X154724D02*
D03*
X245886Y-65551D02*
D03*
X245886Y-64370D02*
D03*
X247067D02*
D03*
X247067Y-65551D02*
D03*
X248248Y-64370D02*
D03*
X248248Y-65551D02*
D03*
X249429Y-64370D02*
D03*
X249429Y-65551D02*
D03*
X250610Y-64370D02*
D03*
X250610Y-65551D02*
D03*
X251791Y-64370D02*
D03*
X251791Y-65551D02*
D03*
X252973Y-64370D02*
D03*
X252973Y-65551D02*
D03*
Y-69488D02*
D03*
X252973Y-68307D02*
D03*
X251791Y-69488D02*
D03*
X251791Y-68307D02*
D03*
X250610Y-69488D02*
D03*
X250610Y-68307D02*
D03*
X249429Y-69488D02*
D03*
X249429Y-68307D02*
D03*
X248248Y-69488D02*
D03*
X248248Y-68307D02*
D03*
X247067Y-69488D02*
D03*
X247067Y-68307D02*
D03*
X245886D02*
D03*
X245886Y-69488D02*
D03*
Y-57677D02*
D03*
X245886Y-56496D02*
D03*
X247067D02*
D03*
X247067Y-57677D02*
D03*
X248248Y-56496D02*
D03*
X248248Y-57677D02*
D03*
X249429Y-56496D02*
D03*
X249429Y-57677D02*
D03*
X250610Y-56496D02*
D03*
X250610Y-57677D02*
D03*
X251791Y-56496D02*
D03*
X251791Y-57677D02*
D03*
X252973Y-56496D02*
D03*
X252973Y-57677D02*
D03*
Y-61614D02*
D03*
X252973Y-60433D02*
D03*
X251791Y-61614D02*
D03*
X251791Y-60433D02*
D03*
X250610Y-61614D02*
D03*
X250610Y-60433D02*
D03*
X249429Y-61614D02*
D03*
X249429Y-60433D02*
D03*
X248248Y-61614D02*
D03*
X248248Y-60433D02*
D03*
X247067Y-61614D02*
D03*
X247067Y-60433D02*
D03*
X245886D02*
D03*
X245886Y-61614D02*
D03*
Y-49803D02*
D03*
X245886Y-48622D02*
D03*
X247067D02*
D03*
X247067Y-49803D02*
D03*
X248248Y-48622D02*
D03*
X248248Y-49803D02*
D03*
X249429Y-48622D02*
D03*
X249429Y-49803D02*
D03*
X250610Y-48622D02*
D03*
X250610Y-49803D02*
D03*
X251791Y-48622D02*
D03*
X251791Y-49803D02*
D03*
X252973Y-48622D02*
D03*
X252973Y-49803D02*
D03*
Y-53740D02*
D03*
X252973Y-52559D02*
D03*
X251791Y-53740D02*
D03*
X251791Y-52559D02*
D03*
X250610Y-53740D02*
D03*
X250610Y-52559D02*
D03*
X249429Y-53740D02*
D03*
X249429Y-52559D02*
D03*
X248248Y-53740D02*
D03*
X248248Y-52559D02*
D03*
X247067Y-53740D02*
D03*
X247067Y-52559D02*
D03*
X245886D02*
D03*
X245886Y-53740D02*
D03*
X252973Y-45866D02*
D03*
X252973Y-44685D02*
D03*
X251791Y-45866D02*
D03*
X251791Y-44685D02*
D03*
X250610Y-45866D02*
D03*
X250610Y-44685D02*
D03*
X249429Y-45866D02*
D03*
X249429Y-44685D02*
D03*
X248248Y-45866D02*
D03*
X248248Y-44685D02*
D03*
X247067Y-45866D02*
D03*
X247067Y-44685D02*
D03*
X245886D02*
D03*
X245886Y-45866D02*
D03*
X212894Y-72244D02*
D03*
X214075D02*
D03*
X215256D02*
D03*
X216437D02*
D03*
X217618D02*
D03*
X218799D02*
D03*
X219980D02*
D03*
X218799Y-73425D02*
D03*
X219980D02*
D03*
X217618D02*
D03*
X216437D02*
D03*
X215256D02*
D03*
X214075D02*
D03*
X212894D02*
D03*
X219980Y-44685D02*
D03*
X219980Y-45866D02*
D03*
X218799D02*
D03*
X218799Y-44685D02*
D03*
X217618Y-45866D02*
D03*
X217618Y-44685D02*
D03*
X216437Y-45866D02*
D03*
X216437Y-44685D02*
D03*
X215256Y-45866D02*
D03*
X215256Y-44685D02*
D03*
X214075Y-45866D02*
D03*
X214075Y-44685D02*
D03*
X212894Y-45866D02*
D03*
X212894Y-44685D02*
D03*
X219980Y-52559D02*
D03*
X219980Y-53740D02*
D03*
X218799D02*
D03*
X218799Y-52559D02*
D03*
X217618Y-53740D02*
D03*
X217618Y-52559D02*
D03*
X216437Y-53740D02*
D03*
X216437Y-52559D02*
D03*
X215256Y-53740D02*
D03*
X215256Y-52559D02*
D03*
X214075Y-53740D02*
D03*
X214075Y-52559D02*
D03*
X212894Y-53740D02*
D03*
X212894Y-52559D02*
D03*
Y-48622D02*
D03*
X212894Y-49803D02*
D03*
X214075Y-48622D02*
D03*
X214075Y-49803D02*
D03*
X215256Y-48622D02*
D03*
X215256Y-49803D02*
D03*
X216437Y-48622D02*
D03*
X216437Y-49803D02*
D03*
X217618Y-48622D02*
D03*
X217618Y-49803D02*
D03*
X218799Y-48622D02*
D03*
X218799Y-49803D02*
D03*
X219980D02*
D03*
X219980Y-48622D02*
D03*
Y-60433D02*
D03*
X219980Y-61614D02*
D03*
X218799D02*
D03*
X218799Y-60433D02*
D03*
X217618Y-61614D02*
D03*
X217618Y-60433D02*
D03*
X216437Y-61614D02*
D03*
X216437Y-60433D02*
D03*
X215256Y-61614D02*
D03*
X215256Y-60433D02*
D03*
X214075Y-61614D02*
D03*
X214075Y-60433D02*
D03*
X212894Y-61614D02*
D03*
X212894Y-60433D02*
D03*
Y-56496D02*
D03*
X212894Y-57677D02*
D03*
X214075Y-56496D02*
D03*
X214075Y-57677D02*
D03*
X215256Y-56496D02*
D03*
X215256Y-57677D02*
D03*
X216437Y-56496D02*
D03*
X216437Y-57677D02*
D03*
X217618Y-56496D02*
D03*
X217618Y-57677D02*
D03*
X218799Y-56496D02*
D03*
X218799Y-57677D02*
D03*
X219980D02*
D03*
X219980Y-56496D02*
D03*
Y-68307D02*
D03*
X219980Y-69488D02*
D03*
X218799D02*
D03*
X218799Y-68307D02*
D03*
X217618Y-69488D02*
D03*
X217618Y-68307D02*
D03*
X216437Y-69488D02*
D03*
X216437Y-68307D02*
D03*
X215256Y-69488D02*
D03*
X215256Y-68307D02*
D03*
X214075Y-69488D02*
D03*
X214075Y-68307D02*
D03*
X212894Y-69488D02*
D03*
X212894Y-68307D02*
D03*
Y-64370D02*
D03*
X212894Y-65551D02*
D03*
X214075Y-64370D02*
D03*
X214075Y-65551D02*
D03*
X215256Y-64370D02*
D03*
X215256Y-65551D02*
D03*
X216437Y-64370D02*
D03*
X216437Y-65551D02*
D03*
X217618Y-64370D02*
D03*
X217618Y-65551D02*
D03*
X218799Y-64370D02*
D03*
X218799Y-65551D02*
D03*
X219980D02*
D03*
X219980Y-64370D02*
D03*
X252972Y-80118D02*
D03*
X252972Y-81299D02*
D03*
X251791D02*
D03*
X251791Y-80118D02*
D03*
X250610Y-81299D02*
D03*
X250610Y-80118D02*
D03*
X249429Y-81299D02*
D03*
X249429Y-80118D02*
D03*
X248248Y-81299D02*
D03*
X248248Y-80118D02*
D03*
X247067Y-81299D02*
D03*
X247067Y-80118D02*
D03*
X245886Y-81299D02*
D03*
X245886Y-80118D02*
D03*
Y-76181D02*
D03*
X245886Y-77362D02*
D03*
X247067Y-76181D02*
D03*
X247067Y-77362D02*
D03*
X248248Y-76181D02*
D03*
X248248Y-77362D02*
D03*
X249429Y-76181D02*
D03*
X249429Y-77362D02*
D03*
X250610Y-76181D02*
D03*
X250610Y-77362D02*
D03*
X251791Y-76181D02*
D03*
X251791Y-77362D02*
D03*
X252972D02*
D03*
X252972Y-76181D02*
D03*
X245886Y-72244D02*
D03*
X245886Y-73425D02*
D03*
X247067Y-72244D02*
D03*
X247067Y-73425D02*
D03*
X248248Y-72244D02*
D03*
X248248Y-73425D02*
D03*
X249429Y-72244D02*
D03*
X249429Y-73425D02*
D03*
X250610Y-72244D02*
D03*
X250610Y-73425D02*
D03*
X251791D02*
D03*
X252972D02*
D03*
X245886Y53465D02*
D03*
X245886Y54646D02*
D03*
X247067D02*
D03*
X247067Y53465D02*
D03*
X248248Y54646D02*
D03*
X248248Y53465D02*
D03*
X249429Y54646D02*
D03*
X249429Y53465D02*
D03*
X250610Y54646D02*
D03*
X250610Y53465D02*
D03*
X251791Y54646D02*
D03*
X251791Y53465D02*
D03*
X252973Y54646D02*
D03*
X252973Y53465D02*
D03*
Y49528D02*
D03*
X252973Y50709D02*
D03*
X251791Y49528D02*
D03*
X251791Y50709D02*
D03*
X250610Y49528D02*
D03*
X250610Y50709D02*
D03*
X249429Y49528D02*
D03*
X249429Y50709D02*
D03*
X248248Y49528D02*
D03*
X248248Y50709D02*
D03*
X247067Y49528D02*
D03*
X247067Y50709D02*
D03*
X245886D02*
D03*
X245886Y49528D02*
D03*
Y61339D02*
D03*
X245886Y62520D02*
D03*
X247067D02*
D03*
X247067Y61339D02*
D03*
X248248Y62520D02*
D03*
X248248Y61339D02*
D03*
X249429Y62520D02*
D03*
X249429Y61339D02*
D03*
X250610Y62520D02*
D03*
X250610Y61339D02*
D03*
X251791Y62520D02*
D03*
X251791Y61339D02*
D03*
X252973Y62520D02*
D03*
X252973Y61339D02*
D03*
Y57402D02*
D03*
X252973Y58583D02*
D03*
X251791Y57402D02*
D03*
X251791Y58583D02*
D03*
X250610Y57402D02*
D03*
X250610Y58583D02*
D03*
X249429Y57402D02*
D03*
X249429Y58583D02*
D03*
X248248Y57402D02*
D03*
X248248Y58583D02*
D03*
X247067Y57402D02*
D03*
X247067Y58583D02*
D03*
X245886Y57402D02*
D03*
X247067Y70394D02*
D03*
X248248D02*
D03*
X248248Y69213D02*
D03*
X249429Y70394D02*
D03*
X249429Y69213D02*
D03*
X250610Y70394D02*
D03*
X250610Y69213D02*
D03*
X251791Y70394D02*
D03*
X251791Y69213D02*
D03*
X252973Y70394D02*
D03*
X252973Y69213D02*
D03*
Y65276D02*
D03*
X252973Y66457D02*
D03*
X251791Y65276D02*
D03*
X251791Y66457D02*
D03*
X250610Y65276D02*
D03*
X250610Y66457D02*
D03*
X249429Y65276D02*
D03*
X249429Y66457D02*
D03*
X248248Y65276D02*
D03*
X248248Y66457D02*
D03*
X247067Y65276D02*
D03*
X247067Y66457D02*
D03*
X245886D02*
D03*
X245886Y65276D02*
D03*
X252973Y73150D02*
D03*
X252973Y74331D02*
D03*
X251791Y73150D02*
D03*
X251791Y74331D02*
D03*
X250610Y73150D02*
D03*
X250610Y74331D02*
D03*
X249429Y73150D02*
D03*
X249429Y74331D02*
D03*
X248248Y73150D02*
D03*
X248248Y74331D02*
D03*
X247067Y73150D02*
D03*
X247067Y74331D02*
D03*
X245886D02*
D03*
X245886Y73150D02*
D03*
X219980Y42835D02*
D03*
X219980Y41654D02*
D03*
X218799D02*
D03*
X218799Y42835D02*
D03*
X217618Y41654D02*
D03*
X217618Y42835D02*
D03*
X216437Y41654D02*
D03*
X216437Y42835D02*
D03*
X215256Y41654D02*
D03*
X215256Y42835D02*
D03*
X214075Y41654D02*
D03*
X214075Y42835D02*
D03*
X212894Y41654D02*
D03*
X212894Y42835D02*
D03*
Y46772D02*
D03*
X214075D02*
D03*
X215256D02*
D03*
X216437D02*
D03*
X217618D02*
D03*
X218799D02*
D03*
X219980D02*
D03*
X218799Y45591D02*
D03*
X219980D02*
D03*
X217618D02*
D03*
X216437D02*
D03*
X215256D02*
D03*
X214075D02*
D03*
X212894D02*
D03*
X219980Y74331D02*
D03*
X219980Y73150D02*
D03*
X218799D02*
D03*
X218799Y74331D02*
D03*
X217618Y73150D02*
D03*
X217618Y74331D02*
D03*
X216437Y73150D02*
D03*
X216437Y74331D02*
D03*
X215256Y73150D02*
D03*
X215256Y74331D02*
D03*
X214075Y73150D02*
D03*
X214075Y74331D02*
D03*
X212894Y73150D02*
D03*
X212894Y74331D02*
D03*
X219980Y66457D02*
D03*
X218799Y65276D02*
D03*
X218799Y66457D02*
D03*
X217618Y65276D02*
D03*
X217618Y66457D02*
D03*
X216437Y65276D02*
D03*
X216437Y66457D02*
D03*
X215256Y65276D02*
D03*
X215256Y66457D02*
D03*
X214075Y65276D02*
D03*
X214075Y66457D02*
D03*
X212894Y65276D02*
D03*
X212894Y66457D02*
D03*
Y70394D02*
D03*
X212894Y69213D02*
D03*
X214075Y70394D02*
D03*
X214075Y69213D02*
D03*
X215256Y70394D02*
D03*
X215256Y69213D02*
D03*
X216437Y70394D02*
D03*
X216437Y69213D02*
D03*
X217618Y70394D02*
D03*
X217618Y69213D02*
D03*
X218799Y70394D02*
D03*
X218799Y69213D02*
D03*
X219980D02*
D03*
X219980Y70394D02*
D03*
X215256Y62520D02*
D03*
X216437D02*
D03*
X216437Y61339D02*
D03*
X217618Y62520D02*
D03*
X217618Y61339D02*
D03*
X218799Y62520D02*
D03*
X218799Y61339D02*
D03*
X219980D02*
D03*
X219980Y62520D02*
D03*
Y50709D02*
D03*
X219980Y49528D02*
D03*
X218799D02*
D03*
X218799Y50709D02*
D03*
X217618Y49528D02*
D03*
X217618Y50709D02*
D03*
X216437Y49528D02*
D03*
X216437Y50709D02*
D03*
X215256Y49528D02*
D03*
X215256Y50709D02*
D03*
X214075Y49528D02*
D03*
X214075Y50709D02*
D03*
X212894Y49528D02*
D03*
X212894Y50709D02*
D03*
X214075Y54646D02*
D03*
X214075Y53465D02*
D03*
X215256Y54646D02*
D03*
X215256Y53465D02*
D03*
X216437Y54646D02*
D03*
X216437Y53465D02*
D03*
X217618Y54646D02*
D03*
X217618Y53465D02*
D03*
X218799Y54646D02*
D03*
X218799Y53465D02*
D03*
X219980D02*
D03*
X219980Y54646D02*
D03*
X212894Y37716D02*
D03*
X212894Y38898D02*
D03*
X214075D02*
D03*
X214075Y37716D02*
D03*
X215256Y38898D02*
D03*
X215256Y37716D02*
D03*
X216437Y38898D02*
D03*
X216437Y37716D02*
D03*
X217618Y38898D02*
D03*
X217618Y37716D02*
D03*
X218799Y38898D02*
D03*
X218799Y37716D02*
D03*
X219980Y38898D02*
D03*
X219980Y37716D02*
D03*
X252972Y38898D02*
D03*
X252972Y37717D02*
D03*
X251791D02*
D03*
X251791Y38898D02*
D03*
X250610Y37717D02*
D03*
X250610Y38898D02*
D03*
X249429Y37717D02*
D03*
X249429Y38898D02*
D03*
X248248Y37717D02*
D03*
X247067D02*
D03*
X245886D02*
D03*
X245886Y42835D02*
D03*
X245886Y41654D02*
D03*
X247067Y42835D02*
D03*
X247067Y41654D02*
D03*
X248248Y42835D02*
D03*
X248248Y41654D02*
D03*
X249429Y42835D02*
D03*
X249429Y41654D02*
D03*
X250610Y42835D02*
D03*
X250610Y41654D02*
D03*
X251791Y42835D02*
D03*
X251791Y41654D02*
D03*
X252972D02*
D03*
X252972Y42835D02*
D03*
X245886Y46772D02*
D03*
X245886Y45591D02*
D03*
X247067Y46772D02*
D03*
X247067Y45591D02*
D03*
X248248Y46772D02*
D03*
X248248Y45591D02*
D03*
X249429Y46772D02*
D03*
X249429Y45591D02*
D03*
X250610Y46772D02*
D03*
X250610Y45591D02*
D03*
X251791Y46772D02*
D03*
X251791Y45591D02*
D03*
X252972D02*
D03*
X252972Y46772D02*
D03*
X247067Y107795D02*
D03*
X247067Y106614D02*
D03*
X248248Y107795D02*
D03*
X248248Y106614D02*
D03*
X249429Y107795D02*
D03*
X249429Y106614D02*
D03*
X250610Y107795D02*
D03*
X250610Y106614D02*
D03*
X251791Y107795D02*
D03*
X251791Y106614D02*
D03*
X252973Y107795D02*
D03*
X252973Y106614D02*
D03*
Y102677D02*
D03*
X252973Y103858D02*
D03*
X251791Y102677D02*
D03*
X251791Y103858D02*
D03*
X250610Y102677D02*
D03*
X250610Y103858D02*
D03*
X249429Y102677D02*
D03*
X249429Y103858D02*
D03*
X248248Y102677D02*
D03*
X248248Y103858D02*
D03*
X247067Y102677D02*
D03*
X247067Y103858D02*
D03*
X245886D02*
D03*
X245886Y102677D02*
D03*
Y114488D02*
D03*
X245886Y115669D02*
D03*
X247067D02*
D03*
X247067Y114488D02*
D03*
X248248Y115669D02*
D03*
X248248Y114488D02*
D03*
X249429Y115669D02*
D03*
X249429Y114488D02*
D03*
X250610Y115669D02*
D03*
X250610Y114488D02*
D03*
X251791Y115669D02*
D03*
X251791Y114488D02*
D03*
X252973Y115669D02*
D03*
X252973Y114488D02*
D03*
Y110551D02*
D03*
X252973Y111732D02*
D03*
X251791Y110551D02*
D03*
X251791Y111732D02*
D03*
X250610Y110551D02*
D03*
X250610Y111732D02*
D03*
X249429Y110551D02*
D03*
X249429Y111732D02*
D03*
X248248Y110551D02*
D03*
X248248Y111732D02*
D03*
X247067Y110551D02*
D03*
X247067Y111732D02*
D03*
X245886Y110551D02*
D03*
Y122362D02*
D03*
X245886Y123543D02*
D03*
X247067D02*
D03*
X247067Y122362D02*
D03*
X248248Y123543D02*
D03*
X248248Y122362D02*
D03*
X249429Y123543D02*
D03*
X249429Y122362D02*
D03*
X250610Y123543D02*
D03*
X250610Y122362D02*
D03*
X251791Y123543D02*
D03*
X251791Y122362D02*
D03*
X252973Y123543D02*
D03*
X252973Y118425D02*
D03*
X252973Y119606D02*
D03*
X251791Y118425D02*
D03*
X251791Y119606D02*
D03*
X250610Y118425D02*
D03*
X250610Y119606D02*
D03*
X249429Y118425D02*
D03*
X249429Y119606D02*
D03*
X248248Y118425D02*
D03*
X248248Y119606D02*
D03*
X247067Y118425D02*
D03*
X247067Y119606D02*
D03*
X245886D02*
D03*
X245886Y118425D02*
D03*
X252973Y126299D02*
D03*
X252973Y127480D02*
D03*
X251791Y126299D02*
D03*
X251791Y127480D02*
D03*
X250610Y126299D02*
D03*
X250610Y127480D02*
D03*
X249429Y126299D02*
D03*
X249429Y127480D02*
D03*
X248248Y126299D02*
D03*
X248248Y127480D02*
D03*
X247067Y126299D02*
D03*
X247067Y127480D02*
D03*
X245886D02*
D03*
X245886Y126299D02*
D03*
X212894Y99921D02*
D03*
X214075D02*
D03*
X215256D02*
D03*
X216437D02*
D03*
X217618D02*
D03*
X218799D02*
D03*
X218799Y98740D02*
D03*
X219980D02*
D03*
X217618D02*
D03*
X216437D02*
D03*
X215256D02*
D03*
X214075D02*
D03*
X212894D02*
D03*
X215256Y126299D02*
D03*
X215256Y127480D02*
D03*
X214075Y126299D02*
D03*
X214075Y127480D02*
D03*
X212894Y126299D02*
D03*
X212894Y127480D02*
D03*
X217618Y118425D02*
D03*
X216437D02*
D03*
X215256D02*
D03*
X215256Y119606D02*
D03*
X214075Y118425D02*
D03*
X214075Y119606D02*
D03*
X212894Y118425D02*
D03*
X212894Y119606D02*
D03*
X219980Y123543D02*
D03*
X219980Y110551D02*
D03*
X218799D02*
D03*
X218799Y111732D02*
D03*
X217618Y110551D02*
D03*
X217618Y111732D02*
D03*
X216437Y110551D02*
D03*
X216437Y111732D02*
D03*
X215256Y110551D02*
D03*
X215256Y111732D02*
D03*
X214075Y110551D02*
D03*
X214075Y111732D02*
D03*
X212894Y110551D02*
D03*
X212894Y111732D02*
D03*
Y115669D02*
D03*
X212894Y114488D02*
D03*
X214075Y115669D02*
D03*
X214075Y114488D02*
D03*
X215256Y115669D02*
D03*
X215256Y114488D02*
D03*
X216437Y115669D02*
D03*
X216437Y114488D02*
D03*
X217618Y115669D02*
D03*
X217618Y114488D02*
D03*
X218799Y115669D02*
D03*
X219980Y103858D02*
D03*
X219980Y102677D02*
D03*
X218799D02*
D03*
X218799Y103858D02*
D03*
X217618Y102677D02*
D03*
X217618Y103858D02*
D03*
X216437Y102677D02*
D03*
X216437Y103858D02*
D03*
X215256Y102677D02*
D03*
X215256Y103858D02*
D03*
X214075Y102677D02*
D03*
X214075Y103858D02*
D03*
X212894Y102677D02*
D03*
X212894Y103858D02*
D03*
Y107795D02*
D03*
X212894Y106614D02*
D03*
X214075Y107795D02*
D03*
X214075Y106614D02*
D03*
X215256Y107795D02*
D03*
X215256Y106614D02*
D03*
X216437Y107795D02*
D03*
X216437Y106614D02*
D03*
X217618Y107795D02*
D03*
X217618Y106614D02*
D03*
X218799Y107795D02*
D03*
X218799Y106614D02*
D03*
X252972Y92047D02*
D03*
X252972Y90866D02*
D03*
X251791D02*
D03*
X251791Y92047D02*
D03*
X250610Y90866D02*
D03*
X250610Y92047D02*
D03*
X249429Y90866D02*
D03*
X249429Y92047D02*
D03*
X248248Y90866D02*
D03*
X248248Y92047D02*
D03*
X247067Y90866D02*
D03*
X247067Y92047D02*
D03*
X245886Y90866D02*
D03*
X245886Y92047D02*
D03*
Y95984D02*
D03*
X245886Y94803D02*
D03*
X247067Y95984D02*
D03*
X247067Y94803D02*
D03*
X248248Y95984D02*
D03*
X248248Y94803D02*
D03*
X249429Y95984D02*
D03*
X249429Y94803D02*
D03*
X250610Y95984D02*
D03*
X250610Y94803D02*
D03*
X251791Y95984D02*
D03*
X251791Y94803D02*
D03*
X252972D02*
D03*
X252972Y95984D02*
D03*
X245886Y98740D02*
D03*
X247067Y99921D02*
D03*
X247067Y98740D02*
D03*
X248248Y99921D02*
D03*
X248248Y98740D02*
D03*
X249429Y99921D02*
D03*
X249429Y98740D02*
D03*
X250610Y99921D02*
D03*
X250610Y98740D02*
D03*
X251791Y99921D02*
D03*
X251791Y98740D02*
D03*
X252972D02*
D03*
X252972Y99921D02*
D03*
X-2953Y46358D02*
D03*
X-2362Y47539D02*
D03*
X-3543D02*
D03*
X-4232Y46358D02*
D03*
X-2362Y65256D02*
D03*
X-4724D02*
D03*
X-3543D02*
D03*
X-2953Y64075D02*
D03*
X-4232Y64075D02*
D03*
Y58169D02*
D03*
X-2953Y58169D02*
D03*
X-3543Y59350D02*
D03*
X-4724D02*
D03*
X-2362D02*
D03*
X-4232Y52264D02*
D03*
X-2953Y52264D02*
D03*
X-3543Y53445D02*
D03*
X-4724D02*
D03*
X-2362D02*
D03*
X-4724Y47539D02*
D03*
X-4528Y-23524D02*
D03*
Y-29429D02*
D03*
Y-41240D02*
D03*
Y-35335D02*
D03*
X115748Y28740D02*
D03*
X10531Y76083D02*
D03*
X113287Y6102D02*
D03*
X113287Y8465D02*
D03*
X113287Y7283D02*
D03*
Y4823D02*
D03*
X123917Y8563D02*
D03*
Y6102D02*
D03*
X123917Y4921D02*
D03*
X123917Y7283D02*
D03*
X135335Y4823D02*
D03*
Y7283D02*
D03*
X135335Y8465D02*
D03*
X135335Y6102D02*
D03*
X145965Y8563D02*
D03*
Y6102D02*
D03*
X145965Y4921D02*
D03*
X145965Y7283D02*
D03*
X203839Y19193D02*
D03*
X206299D02*
D03*
X207480Y19193D02*
D03*
X205118Y19193D02*
D03*
X207579Y8563D02*
D03*
X205118D02*
D03*
X203937Y8563D02*
D03*
X206299Y8563D02*
D03*
X217815Y1969D02*
D03*
Y-492D02*
D03*
X217815Y-1673D02*
D03*
X217815Y689D02*
D03*
X207185Y-1772D02*
D03*
Y689D02*
D03*
X207185Y1870D02*
D03*
X207185Y-492D02*
D03*
X203839Y-12894D02*
D03*
X206299D02*
D03*
X207480Y-12894D02*
D03*
X205118Y-12894D02*
D03*
X207579Y-23524D02*
D03*
X205118D02*
D03*
X203937Y-23524D02*
D03*
X206299Y-23524D02*
D03*
X228937Y-1772D02*
D03*
Y689D02*
D03*
X228937Y1870D02*
D03*
X228937Y-492D02*
D03*
X239567Y1969D02*
D03*
Y-492D02*
D03*
X239567Y-1673D02*
D03*
X239567Y689D02*
D03*
X244685Y-1870D02*
D03*
Y591D02*
D03*
X244685Y1772D02*
D03*
X244685Y-591D02*
D03*
X255315Y1870D02*
D03*
Y-591D02*
D03*
X255315Y-1772D02*
D03*
X255315Y591D02*
D03*
X-23031Y13091D02*
D03*
X-25000D02*
D03*
X-23031Y-13287D02*
D03*
X-25000D02*
D03*
X63484Y153445D02*
D03*
X65453Y153453D02*
D03*
X85925Y-26575D02*
D03*
X120473Y25197D02*
D03*
X118504D02*
D03*
X116929Y26772D02*
D03*
X125098Y87205D02*
D03*
Y88386D02*
D03*
X119980Y87205D02*
D03*
Y88386D02*
D03*
X128051D02*
D03*
Y87205D02*
D03*
X139574Y-23919D02*
D03*
X62008Y-44685D02*
D03*
X57677Y-42323D02*
D03*
X60138Y-42323D02*
D03*
X52953Y-49803D02*
D03*
X36516Y-118405D02*
D03*
X163287Y77756D02*
D03*
Y76427D02*
D03*
Y75098D02*
D03*
X170472Y75049D02*
D03*
Y76378D02*
D03*
Y77707D02*
D03*
X75710Y80769D02*
D03*
X71850Y80709D02*
D03*
Y81890D02*
D03*
X76891Y80769D02*
D03*
X51084Y149123D02*
D03*
X52265Y144300D02*
D03*
X51084D02*
D03*
X52265Y149123D02*
D03*
X65339Y148524D02*
D03*
X66520Y144193D02*
D03*
X65339D02*
D03*
X66520Y148524D02*
D03*
X65354Y139764D02*
D03*
X66535D02*
D03*
X70472Y139272D02*
D03*
Y140453D02*
D03*
X75000Y146063D02*
D03*
X73819D02*
D03*
X75000Y140256D02*
D03*
X73819D02*
D03*
X82480Y141929D02*
D03*
Y140748D02*
D03*
X87008Y141929D02*
D03*
Y140748D02*
D03*
X24705Y43701D02*
D03*
X25886D02*
D03*
X24705Y38583D02*
D03*
X25886D02*
D03*
X38091Y30413D02*
D03*
Y31594D02*
D03*
X42618Y30413D02*
D03*
Y31594D02*
D03*
X-7972Y158858D02*
D03*
X-9154D02*
D03*
X-7972Y153740D02*
D03*
X-9154D02*
D03*
X-7972Y151083D02*
D03*
X-9154D02*
D03*
X-7972Y143405D02*
D03*
X-9154D02*
D03*
X11417Y98228D02*
D03*
Y97047D02*
D03*
X15954Y98228D02*
D03*
Y97047D02*
D03*
X107382Y72441D02*
D03*
X109350Y73622D02*
D03*
X107382D02*
D03*
X103839Y71850D02*
D03*
X200787Y109252D02*
D03*
X202067D02*
D03*
X203346D02*
D03*
Y107923D02*
D03*
X202067D02*
D03*
X200787D02*
D03*
X206136Y106596D02*
D03*
X207416D02*
D03*
X206136Y107924D02*
D03*
X207416D02*
D03*
Y109253D02*
D03*
X206136D02*
D03*
X200768Y101723D02*
D03*
X202047D02*
D03*
X203327D02*
D03*
X200768Y103051D02*
D03*
X202047D02*
D03*
X203327D02*
D03*
X200768Y98032D02*
D03*
X202047D02*
D03*
X203327D02*
D03*
Y99360D02*
D03*
X202047D02*
D03*
X200768D02*
D03*
Y91782D02*
D03*
X202047D02*
D03*
X203327D02*
D03*
X200768Y93110D02*
D03*
X202047D02*
D03*
X203327D02*
D03*
X206122Y104380D02*
D03*
X207402D02*
D03*
Y103051D02*
D03*
X206122D02*
D03*
X207402Y101723D02*
D03*
X206122D02*
D03*
Y99360D02*
D03*
X207402D02*
D03*
Y98032D02*
D03*
X206122D02*
D03*
X207402Y96703D02*
D03*
X206122D02*
D03*
Y94439D02*
D03*
X207402D02*
D03*
Y93110D02*
D03*
X206122D02*
D03*
X207402Y91782D02*
D03*
X206122D02*
D03*
X200689Y120869D02*
D03*
Y118310D02*
D03*
Y115945D02*
D03*
X207542Y114665D02*
D03*
Y113386D02*
D03*
Y119590D02*
D03*
Y120869D02*
D03*
X219980Y99921D02*
D03*
X219980Y106614D02*
D03*
X219980Y107795D02*
D03*
X218799Y118425D02*
D03*
X219980Y119606D02*
D03*
X219980Y118425D02*
D03*
X245886Y99921D02*
D03*
X245886Y106614D02*
D03*
X245886Y107795D02*
D03*
Y111732D02*
D03*
X207542Y118310D02*
D03*
X205709Y125399D02*
D03*
X206988D02*
D03*
X204429D02*
D03*
X203248Y134646D02*
D03*
Y133366D02*
D03*
Y135925D02*
D03*
X216437Y127480D02*
D03*
X218799D02*
D03*
X217618D02*
D03*
X216437Y126299D02*
D03*
X218799D02*
D03*
X217618D02*
D03*
X219980Y127480D02*
D03*
X219980Y126299D02*
D03*
X218799Y119606D02*
D03*
X216437D02*
D03*
X217618Y123543D02*
D03*
X218799D02*
D03*
X218799Y122362D02*
D03*
X217618Y119606D02*
D03*
X219980Y122362D02*
D03*
X200689Y119590D02*
D03*
X252973Y122362D02*
D03*
X197446Y70276D02*
D03*
Y72835D02*
D03*
Y71555D02*
D03*
X206299Y-46654D02*
D03*
X203937Y-46654D02*
D03*
X205118Y-46654D02*
D03*
X207579D02*
D03*
X205118Y-36024D02*
D03*
X207480Y-36024D02*
D03*
X206299Y-36024D02*
D03*
X206594Y70276D02*
D03*
Y72835D02*
D03*
Y71555D02*
D03*
X205320D02*
D03*
Y72835D02*
D03*
Y70276D02*
D03*
X205320Y62180D02*
D03*
Y64739D02*
D03*
Y63460D02*
D03*
X206594D02*
D03*
Y64739D02*
D03*
Y62180D02*
D03*
X189671Y54036D02*
D03*
Y56595D02*
D03*
Y55315D02*
D03*
X190945D02*
D03*
Y56595D02*
D03*
Y54036D02*
D03*
X183071D02*
D03*
Y55315D02*
D03*
X181797Y54036D02*
D03*
X198721Y56644D02*
D03*
X197446Y55364D02*
D03*
Y56644D02*
D03*
X189769Y45989D02*
D03*
Y48548D02*
D03*
Y47269D02*
D03*
X191043D02*
D03*
Y48548D02*
D03*
Y45989D02*
D03*
X183169D02*
D03*
Y48548D02*
D03*
Y47269D02*
D03*
X181895D02*
D03*
Y48548D02*
D03*
Y45989D02*
D03*
X205320Y45989D02*
D03*
Y48548D02*
D03*
Y47269D02*
D03*
X206594D02*
D03*
Y48548D02*
D03*
Y45989D02*
D03*
X198721Y48548D02*
D03*
Y47269D02*
D03*
X197446D02*
D03*
Y48548D02*
D03*
X189769Y37894D02*
D03*
Y40453D02*
D03*
Y39173D02*
D03*
X191043D02*
D03*
Y40453D02*
D03*
Y37894D02*
D03*
X183169D02*
D03*
Y40453D02*
D03*
Y39173D02*
D03*
X181895D02*
D03*
Y40453D02*
D03*
Y37894D02*
D03*
X205320Y37894D02*
D03*
Y40453D02*
D03*
Y39173D02*
D03*
X206594D02*
D03*
Y40453D02*
D03*
Y37894D02*
D03*
X198721D02*
D03*
Y40453D02*
D03*
Y39173D02*
D03*
X197446D02*
D03*
Y40453D02*
D03*
Y37894D02*
D03*
X181791Y62795D02*
D03*
X183071Y64069D02*
D03*
X181791D02*
D03*
X184350D02*
D03*
X192317Y64862D02*
D03*
Y62303D02*
D03*
Y63583D02*
D03*
X191043D02*
D03*
Y62303D02*
D03*
X181600Y-109793D02*
D03*
Y-107234D02*
D03*
Y-108514D02*
D03*
X182874D02*
D03*
Y-107234D02*
D03*
Y-109793D02*
D03*
X192022Y-107234D02*
D03*
Y-109793D02*
D03*
Y-108514D02*
D03*
X190748D02*
D03*
Y-109793D02*
D03*
Y-107234D02*
D03*
X192022Y-115256D02*
D03*
X182874Y-117815D02*
D03*
Y-115256D02*
D03*
Y-116535D02*
D03*
X181600D02*
D03*
Y-115256D02*
D03*
Y-117815D02*
D03*
X190748Y-123278D02*
D03*
Y-125837D02*
D03*
Y-124557D02*
D03*
X192022D02*
D03*
Y-125837D02*
D03*
Y-123278D02*
D03*
X182874Y-125837D02*
D03*
Y-123278D02*
D03*
Y-124557D02*
D03*
X181600D02*
D03*
Y-123278D02*
D03*
Y-125837D02*
D03*
X190748Y-131299D02*
D03*
Y-133858D02*
D03*
Y-132579D02*
D03*
X192022D02*
D03*
Y-133858D02*
D03*
Y-131299D02*
D03*
X182874Y-133858D02*
D03*
Y-131299D02*
D03*
Y-132579D02*
D03*
X181600D02*
D03*
Y-131299D02*
D03*
Y-133858D02*
D03*
X205217Y-99213D02*
D03*
Y-101772D02*
D03*
Y-100492D02*
D03*
X206491D02*
D03*
Y-101772D02*
D03*
Y-99213D02*
D03*
X199409Y-101772D02*
D03*
Y-99213D02*
D03*
Y-100492D02*
D03*
X198135D02*
D03*
Y-99213D02*
D03*
Y-101772D02*
D03*
X205315Y-109793D02*
D03*
Y-108514D02*
D03*
X206589Y-109793D02*
D03*
X199409D02*
D03*
Y-107234D02*
D03*
Y-108514D02*
D03*
X198135D02*
D03*
Y-107234D02*
D03*
Y-109793D02*
D03*
X205217Y-115256D02*
D03*
Y-117815D02*
D03*
Y-116535D02*
D03*
X206491D02*
D03*
Y-117815D02*
D03*
Y-115256D02*
D03*
X199016Y-117815D02*
D03*
X197742D02*
D03*
X205906Y-123278D02*
D03*
Y-124557D02*
D03*
X207180D02*
D03*
Y-125837D02*
D03*
Y-123278D02*
D03*
X198031Y-125837D02*
D03*
Y-123278D02*
D03*
Y-124557D02*
D03*
X196757D02*
D03*
Y-123278D02*
D03*
Y-125837D02*
D03*
X205906Y-131305D02*
D03*
Y-133864D02*
D03*
Y-132584D02*
D03*
X207180D02*
D03*
Y-133864D02*
D03*
Y-131305D02*
D03*
X198031Y-133864D02*
D03*
Y-131305D02*
D03*
Y-132584D02*
D03*
X196757D02*
D03*
Y-131305D02*
D03*
Y-133864D02*
D03*
X218799Y114488D02*
D03*
X219980D02*
D03*
X219980Y115669D02*
D03*
Y111732D02*
D03*
X269291Y69274D02*
D03*
Y70455D02*
D03*
X262894Y14370D02*
D03*
Y9311D02*
D03*
Y8130D02*
D03*
X270374Y-21555D02*
D03*
Y-20374D02*
D03*
Y-22736D02*
D03*
X269291Y-13543D02*
D03*
X270374Y-14134D02*
D03*
Y-15315D02*
D03*
X269291Y-14724D02*
D03*
X263976Y-22146D02*
D03*
X262894Y-20374D02*
D03*
Y-22736D02*
D03*
X263976Y-13543D02*
D03*
X269291Y-20965D02*
D03*
Y-22146D02*
D03*
X262894Y-21555D02*
D03*
X262894Y-14134D02*
D03*
Y-12953D02*
D03*
X263976Y-14724D02*
D03*
X262894Y-15315D02*
D03*
X263976Y-20965D02*
D03*
X190748Y-117815D02*
D03*
X192022D02*
D03*
X190748Y-115256D02*
D03*
X192022Y-116535D02*
D03*
X190748D02*
D03*
X197742Y-115256D02*
D03*
X199016D02*
D03*
X197742Y-116535D02*
D03*
X199016D02*
D03*
X206589Y-108514D02*
D03*
X205315Y-107234D02*
D03*
X206589D02*
D03*
X214075Y-102953D02*
D03*
X212894D02*
D03*
X212894Y-105709D02*
D03*
X212894Y-106890D02*
D03*
X214075Y-105709D02*
D03*
Y-101772D02*
D03*
X212894D02*
D03*
X205906Y-125837D02*
D03*
X200585Y-65845D02*
D03*
X201865D02*
D03*
X200585Y-64517D02*
D03*
X201865D02*
D03*
Y-63188D02*
D03*
X200585D02*
D03*
X207121D02*
D03*
X205841D02*
D03*
X207121Y-64517D02*
D03*
X205841D02*
D03*
Y-65845D02*
D03*
X207121D02*
D03*
X200571Y-70718D02*
D03*
X201850D02*
D03*
X200571Y-69390D02*
D03*
X201850D02*
D03*
Y-68061D02*
D03*
X200571D02*
D03*
X207106D02*
D03*
X205827D02*
D03*
X207106Y-69390D02*
D03*
X205827D02*
D03*
Y-70718D02*
D03*
X207106D02*
D03*
X200571Y-75738D02*
D03*
X201850D02*
D03*
X200571Y-74409D02*
D03*
X201850D02*
D03*
Y-73081D02*
D03*
X200571D02*
D03*
Y-80659D02*
D03*
X201850D02*
D03*
X200571Y-79331D02*
D03*
X201850D02*
D03*
X200571Y-78002D02*
D03*
X201850D02*
D03*
X205906Y-79380D02*
D03*
X207185Y-80709D02*
D03*
X205906D02*
D03*
X207185Y-79380D02*
D03*
X205906Y-78051D02*
D03*
Y-73130D02*
D03*
X207185Y-74459D02*
D03*
X205906D02*
D03*
Y-75787D02*
D03*
X163189Y117913D02*
D03*
X207185Y-75787D02*
D03*
X171170Y6496D02*
D03*
X203839Y-36024D02*
D03*
X62443Y127698D02*
D03*
X63624D02*
D03*
X87008Y81299D02*
D03*
X-25000Y-75787D02*
D03*
X-23031D02*
D03*
X212894Y123543D02*
D03*
X214075D02*
D03*
X214075Y122362D02*
D03*
X215256Y123543D02*
D03*
X215256Y122362D02*
D03*
X216437Y123543D02*
D03*
X216437Y122362D02*
D03*
X217618D02*
D03*
X212894D02*
D03*
X-4232Y22736D02*
D03*
X-3543Y23917D02*
D03*
X-2953Y22736D02*
D03*
X-2362Y23917D02*
D03*
X-4724D02*
D03*
X-2264Y29823D02*
D03*
X-2854Y28642D02*
D03*
X-3445Y29823D02*
D03*
X-4134Y28642D02*
D03*
X-4626Y29823D02*
D03*
Y35728D02*
D03*
X-2264D02*
D03*
X-2854Y34547D02*
D03*
X-3445Y35728D02*
D03*
X-4134Y34547D02*
D03*
X-4232Y40453D02*
D03*
X-4724Y41634D02*
D03*
X-3543D02*
D03*
X-2362D02*
D03*
X-2953Y40453D02*
D03*
X147638Y66732D02*
D03*
Y65551D02*
D03*
X5330Y-124185D02*
D03*
X3361D02*
D03*
X7200D02*
D03*
X3361Y-125563D02*
D03*
X5330D02*
D03*
X4346Y-123201D02*
D03*
X6314D02*
D03*
X5330Y-116311D02*
D03*
X7200D02*
D03*
X3361D02*
D03*
X3361Y-114933D02*
D03*
X7200D02*
D03*
X5330D02*
D03*
X6314Y-117295D02*
D03*
X4346D02*
D03*
X4316Y-94047D02*
D03*
X6284D02*
D03*
X5300Y-91685D02*
D03*
X7269D02*
D03*
X3331D02*
D03*
X3331Y-93063D02*
D03*
X7269D02*
D03*
X5300D02*
D03*
X6284Y-99953D02*
D03*
X4316D02*
D03*
X5300Y-102315D02*
D03*
X3331D02*
D03*
X7269D02*
D03*
X7269Y-100937D02*
D03*
X3331D02*
D03*
X5300D02*
D03*
X90059Y-128543D02*
D03*
X86313Y-125197D02*
D03*
X85132Y-124016D02*
D03*
Y-127953D02*
D03*
X81785Y-125197D02*
D03*
X7200Y-125563D02*
D03*
X133169Y116732D02*
D03*
X136516Y116732D02*
D03*
X270374Y102953D02*
D03*
Y89245D02*
D03*
X270374Y96099D02*
D03*
X144300Y56619D02*
D03*
Y57800D02*
D03*
X150900Y56619D02*
D03*
Y57800D02*
D03*
X160100Y61719D02*
D03*
Y62900D02*
D03*
X165100Y61719D02*
D03*
Y62900D02*
D03*
X162600Y69119D02*
D03*
Y70300D02*
D03*
X159300Y56619D02*
D03*
Y57800D02*
D03*
X164900Y56619D02*
D03*
Y57800D02*
D03*
X46500Y-104200D02*
D03*
X47700D02*
D03*
X48900D02*
D03*
X50100D02*
D03*
X51300D02*
D03*
X52500D02*
D03*
X53700D02*
D03*
X54900D02*
D03*
X70866Y-8957D02*
D03*
X207542Y115945D02*
D03*
X207365Y-58760D02*
D03*
Y-57480D02*
D03*
Y-56201D02*
D03*
Y-53835D02*
D03*
Y-52556D02*
D03*
Y-51276D02*
D03*
X200800Y114700D02*
D03*
X201894Y115942D02*
D03*
X201717Y-56203D02*
D03*
X200623Y-57446D02*
D03*
X200512Y-56201D02*
D03*
Y-53835D02*
D03*
Y-52556D02*
D03*
Y-51276D02*
D03*
X206594Y54085D02*
D03*
Y56644D02*
D03*
Y55364D02*
D03*
X205320D02*
D03*
Y56644D02*
D03*
Y54085D02*
D03*
X207185Y-73130D02*
D03*
Y-78051D02*
D03*
X-23031Y-137598D02*
D03*
X-25000D02*
D03*
X-2559Y-86024D02*
D03*
X-4528D02*
D03*
X-2559Y-91929D02*
D03*
X-4528D02*
D03*
X-2559Y-97835D02*
D03*
X-4528D02*
D03*
X-2559Y-103740D02*
D03*
X-4528D02*
D03*
X-4724Y-109055D02*
D03*
X-3543D02*
D03*
X-2362D02*
D03*
Y-110236D02*
D03*
X-3543D02*
D03*
X-4724D02*
D03*
Y-116142D02*
D03*
X-3543D02*
D03*
X-2362D02*
D03*
Y-114961D02*
D03*
X-3543D02*
D03*
X-4724D02*
D03*
Y-122047D02*
D03*
X-3543D02*
D03*
X-2362D02*
D03*
Y-120866D02*
D03*
X-3543D02*
D03*
X-4724D02*
D03*
Y-127953D02*
D03*
X-3543D02*
D03*
X-2362D02*
D03*
Y-126772D02*
D03*
X-3543D02*
D03*
X-4724D02*
D03*
X74606Y-101476D02*
D03*
X76575D02*
D03*
X72638D02*
D03*
X70669D02*
D03*
X67716Y-86713D02*
D03*
Y-84744D02*
D03*
Y-80807D02*
D03*
Y-82776D02*
D03*
Y-94587D02*
D03*
Y-92618D02*
D03*
Y-88681D02*
D03*
Y-90650D02*
D03*
X76575Y-77854D02*
D03*
X74606D02*
D03*
X70669D02*
D03*
X72638D02*
D03*
X67716Y-96555D02*
D03*
Y-98524D02*
D03*
X79527Y-80807D02*
D03*
Y-82776D02*
D03*
Y-88681D02*
D03*
Y-90650D02*
D03*
Y-86713D02*
D03*
Y-84744D02*
D03*
Y-96555D02*
D03*
Y-98524D02*
D03*
Y-94587D02*
D03*
Y-92618D02*
D03*
X74114Y-87303D02*
D03*
X71752D02*
D03*
X75295Y-88287D02*
D03*
X72933D02*
D03*
X73622Y-91339D02*
D03*
X71260D02*
D03*
X75295Y-92421D02*
D03*
X72933D02*
D03*
X79527Y-149901D02*
D03*
Y-151870D02*
D03*
Y-155807D02*
D03*
Y-153839D02*
D03*
Y-142027D02*
D03*
Y-143996D02*
D03*
Y-147933D02*
D03*
Y-145965D02*
D03*
Y-140059D02*
D03*
Y-138091D02*
D03*
X67716Y-155807D02*
D03*
Y-153839D02*
D03*
X72638Y-135138D02*
D03*
X70669D02*
D03*
X74606D02*
D03*
X76575D02*
D03*
X67716Y-147933D02*
D03*
Y-145965D02*
D03*
Y-149902D02*
D03*
Y-151870D02*
D03*
Y-140059D02*
D03*
Y-138091D02*
D03*
Y-142028D02*
D03*
Y-143996D02*
D03*
X70669Y-158760D02*
D03*
X72638D02*
D03*
X76575D02*
D03*
X74606D02*
D03*
X71063Y-144587D02*
D03*
X73425D02*
D03*
X72638Y-145768D02*
D03*
X75000D02*
D03*
X71063Y-148327D02*
D03*
X73425D02*
D03*
X72441Y-149508D02*
D03*
X74803D02*
D03*
X63624Y108013D02*
D03*
X63525Y104076D02*
D03*
X62443Y98171D02*
D03*
X62344Y104076D02*
D03*
M02*
