%FSLAX44Y44*%
%MOMM*%
G71*
G01*
G75*
G04 Layer_Physical_Order=12*
G04 Layer_Color=16711680*
%ADD10R,1.5000X4.4000*%
%ADD11R,1.5000X1.5000*%
%ADD12R,1.5000X7.0000*%
%ADD13C,0.2000*%
%ADD14C,0.3500*%
%ADD15R,1.4750X4.1250*%
%ADD16R,1.5800X48.0000*%
%ADD17R,1.6250X48.0000*%
%ADD18R,2.0250X4.2000*%
%ADD19C,5.8000*%
%ADD20C,1.5000*%
%ADD21C,0.8000*%
%ADD22C,1.0000*%
%ADD23C,0.1700*%
%ADD24R,1.2000X1.1000*%
%ADD25R,1.1000X1.2000*%
%ADD26R,1.3000X0.8000*%
%ADD27R,3.0000X2.1000*%
%ADD28O,0.4500X1.7000*%
%ADD29R,6.0000X2.0000*%
%ADD30R,6.0000X6.0000*%
%ADD31O,1.9000X1.3500*%
%ADD32O,1.3500X1.9000*%
%ADD33C,0.8000*%
%ADD34C,1.0000*%
%ADD35C,0.4000*%
%ADD36C,1.5000*%
D13*
X145000Y559500D02*
X155000Y569500D01*
X168250Y427450D02*
X171350Y424350D01*
X168250Y427450D02*
Y449250D01*
X174750Y426000D02*
Y449750D01*
Y426000D02*
X175875Y424875D01*
X179500Y426200D02*
Y545050D01*
X183000Y427649D02*
X185912Y424737D01*
X183000Y427649D02*
Y543601D01*
X186500Y547100D01*
Y592399D01*
X172899Y606000D02*
X186500Y592399D01*
X158450Y606000D02*
X172899D01*
X158450Y606000D02*
X158450Y606000D01*
X179500Y545050D02*
X183000Y548550D01*
Y590950D01*
X171450Y602500D02*
X183000Y590950D01*
X153000Y602500D02*
X171450D01*
X153000Y602500D02*
X153000Y602500D01*
X174750Y449750D02*
Y537000D01*
X168250Y449250D02*
Y537000D01*
X174750D02*
Y548750D01*
X179500Y553500D01*
Y589500D01*
X170000Y599000D02*
X179500Y589500D01*
X126950Y599000D02*
X170000D01*
X117500Y589550D02*
X126950Y599000D01*
X125500Y602500D02*
X153000D01*
X124000Y606000D02*
X158450D01*
X120000Y602000D02*
X124000Y606000D01*
X117500Y568000D02*
Y589550D01*
X120000Y601964D02*
Y602000D01*
X117500Y568000D02*
X122500Y563000D01*
X130000D01*
X168250Y537000D02*
Y547250D01*
X165000Y550500D02*
X168250Y547250D01*
X130000Y550500D02*
X165000D01*
X168250Y579000D02*
Y589750D01*
X164500Y593500D02*
X168250Y589750D01*
X154250Y593500D02*
X164500D01*
X153200Y575500D02*
X155000Y577300D01*
X130000Y575500D02*
X153200D01*
X154750Y577550D02*
X155000Y577300D01*
Y569500D02*
Y577300D01*
X80750Y574750D02*
X117500Y538000D01*
X227500Y374500D02*
Y383149D01*
X183000Y427649D02*
X227500Y383149D01*
X224000Y377000D02*
Y381700D01*
X179500Y426200D02*
X224000Y381700D01*
X220500Y372250D02*
Y380250D01*
X175875Y424875D02*
X220500Y380250D01*
X204000Y371750D02*
Y391700D01*
X171350Y424350D02*
X204000Y391700D01*
X203250Y371000D02*
X204000Y371750D01*
X117500Y538000D02*
X130000D01*
X100000Y525500D02*
X130000D01*
X80000Y545500D02*
X100000Y525500D01*
X227500Y326250D02*
Y383149D01*
X215250Y314000D02*
X227500Y326250D01*
X203250Y314000D02*
X215250D01*
X99500Y513000D02*
X130000D01*
X106750Y500500D02*
X130000D01*
Y588000D02*
X132750D01*
X138250Y593500D01*
X154250D01*
X203250Y352000D02*
X216250D01*
X224000Y343250D02*
Y381700D01*
X216250Y352000D02*
X220500Y356250D01*
Y380250D01*
X213750Y333000D02*
X224000Y343250D01*
X203250Y333000D02*
X213750D01*
X67000Y540250D02*
X106750Y500500D01*
X71000Y541500D02*
X99500Y513000D01*
X71000Y541500D02*
Y578000D01*
X67000Y540250D02*
Y578950D01*
X71000Y578000D02*
X77000Y584000D01*
X107000D01*
X125500Y602500D01*
X75550Y587500D02*
X105535D01*
X120000Y601964D01*
X67000Y578950D02*
X75550Y587500D01*
D14*
X130000Y406500D02*
X134000Y410500D01*
X130000Y390750D02*
Y406500D01*
X128250Y389000D02*
X130000Y390750D01*
X78000Y408000D02*
X123000D01*
Y422000D01*
X126000D01*
Y450500D02*
X130000D01*
X182500Y688000D02*
Y700500D01*
X479000Y91000D02*
X487000Y83000D01*
X443000Y91000D02*
X479000D01*
X432000Y102000D02*
X443000Y91000D01*
X432000Y102000D02*
Y200500D01*
X376500Y256000D02*
X432000Y200500D01*
X122000Y488000D02*
X130000D01*
X83500Y449500D02*
X122000Y488000D01*
X425000Y84750D02*
Y198000D01*
X108000Y256000D02*
X376500D01*
X372750Y250250D02*
X425000Y198000D01*
X85000Y389000D02*
X109250D01*
X82250Y391750D02*
X85000Y389000D01*
X105250Y250250D02*
X372750D01*
X72000Y292000D02*
X108000Y256000D01*
X66000Y289500D02*
X105250Y250250D01*
X109250Y389000D02*
X128250D01*
X147250D02*
X164750D01*
X107000Y463000D02*
X130000D01*
X66000Y422000D02*
X107000Y463000D01*
X66000Y289500D02*
Y422000D01*
X72000Y402000D02*
X78000Y408000D01*
X72000Y292000D02*
Y402000D01*
X80500Y449500D02*
X81000D01*
X83500D01*
X126000Y422000D02*
Y450500D01*
D19*
X243000Y32000D02*
D03*
X737000D02*
D03*
X243000Y948000D02*
D03*
X737000D02*
D03*
D20*
X485000Y785000D02*
D03*
D21*
X487000Y81000D02*
D03*
X425000D02*
D03*
X437500Y80750D02*
D03*
X450000D02*
D03*
X462500D02*
D03*
X475000D02*
D03*
X462750Y184750D02*
D03*
X469750Y192000D02*
D03*
X477250Y199250D02*
D03*
X485000Y206250D02*
D03*
X492000Y213500D02*
D03*
X80750Y574750D02*
D03*
X80000Y545500D02*
D03*
X81000Y448000D02*
D03*
X81250Y391750D02*
D03*
D22*
X914500Y650500D02*
D03*
Y627500D02*
D03*
Y639000D02*
D03*
X76500Y652000D02*
D03*
Y640000D02*
D03*
Y628000D02*
D03*
D24*
X152000Y410500D02*
D03*
X134000D02*
D03*
D25*
X144000Y559500D02*
D03*
Y541500D02*
D03*
D26*
X182500Y663000D02*
D03*
Y675500D02*
D03*
Y688000D02*
D03*
Y700500D02*
D03*
X130000Y663000D02*
D03*
Y675500D02*
D03*
Y688000D02*
D03*
Y700500D02*
D03*
X130000Y588000D02*
D03*
Y575500D02*
D03*
Y563000D02*
D03*
Y550500D02*
D03*
Y538000D02*
D03*
Y525500D02*
D03*
Y513000D02*
D03*
Y500500D02*
D03*
Y488000D02*
D03*
Y475500D02*
D03*
Y463000D02*
D03*
Y450500D02*
D03*
D27*
X155000Y637500D02*
D03*
Y726000D02*
D03*
X102500Y637500D02*
D03*
Y726000D02*
D03*
X102500Y613500D02*
D03*
Y425000D02*
D03*
D28*
X155250Y579000D02*
D03*
X161750D02*
D03*
X168250D02*
D03*
X174750D02*
D03*
X155250Y537000D02*
D03*
X161750D02*
D03*
X168250D02*
D03*
X174750D02*
D03*
D29*
X232500Y725500D02*
D03*
D30*
Y677400D02*
D03*
D31*
X203250Y371000D02*
D03*
Y352000D02*
D03*
Y333000D02*
D03*
Y314000D02*
D03*
Y295000D02*
D03*
X91250D02*
D03*
Y314000D02*
D03*
Y333000D02*
D03*
Y352000D02*
D03*
Y371000D02*
D03*
D32*
X185250Y277000D02*
D03*
X166250D02*
D03*
X147250D02*
D03*
X128250D02*
D03*
X109250D02*
D03*
Y389000D02*
D03*
X128250D02*
D03*
X147250D02*
D03*
X166250D02*
D03*
X185250D02*
D03*
D33*
X147250Y410500D02*
Y475500D01*
Y392000D02*
Y410500D01*
X145250Y475500D02*
X147250D01*
X130000D02*
X145250D01*
D34*
X243000Y948000D02*
X322000D01*
X485000Y785000D01*
X232500Y725500D02*
X854750D01*
X914500Y650500D02*
Y665750D01*
Y639000D02*
Y650500D01*
Y627500D02*
Y639000D01*
X854750Y725500D02*
X914500Y665750D01*
X76500Y652000D02*
Y664250D01*
Y640000D02*
Y652000D01*
Y628000D02*
Y640000D01*
Y664250D02*
X106250Y694000D01*
X127000D01*
D35*
X145250Y537000D02*
X155250D01*
X145250Y475500D02*
Y537000D01*
X182500Y663000D02*
Y675500D01*
X130000Y688000D02*
Y700500D01*
Y663000D02*
Y675500D01*
D36*
X235000Y677400D02*
Y694000D01*
X232500D02*
X235000D01*
X190000D02*
X232500D01*
X137750Y669000D02*
X177000D01*
M02*
