M48
;Layer_Color=9474304
;FILE_FORMAT=4:4
METRIC,LZ
;TYPE=PLATED
T1F00S00C0.3000
T2F00S00C0.5000
T3F00S00C0.8000
T4F00S00C3.2000
%
T01
X00425Y00081
X004375Y0008075
X0045
X004625
X00475
X00487Y00081
X0046275Y0018475
X0046975Y00192
X0047725Y0019925
X00485Y0020625
X00492Y002135
X0008125Y0039175
X00081Y00448
X0008Y005455
X0008075Y0057475
T02
X000765Y00628
Y0064
Y00652
X009145Y006505
Y00639
Y006275
T03
X00485Y00785
T04
X00243Y00032
X00737
X00243Y00948
X00737
M30
