%FSLAX44Y44*%
%MOMM*%
G71*
G01*
G75*
G04 Layer_Physical_Order=6*
G04 Layer_Color=16776960*
%ADD10R,1.5000X4.4000*%
%ADD11R,1.5000X1.5000*%
%ADD12R,1.5000X7.0000*%
%ADD13C,0.2000*%
%ADD14C,0.3500*%
%ADD15R,1.4750X4.1250*%
%ADD16R,1.5800X48.0000*%
%ADD17R,1.6250X48.0000*%
%ADD18R,2.0250X4.2000*%
%ADD19C,5.8000*%
%ADD20C,1.5000*%
%ADD21C,0.8000*%
%ADD22C,1.0000*%
%ADD23C,0.1700*%
G36*
X899999Y979101D02*
X899914Y900000D01*
X900257Y897390D01*
X901265Y894957D01*
X902868Y892868D01*
X904957Y891265D01*
X907390Y890257D01*
X910000Y889914D01*
Y890000D01*
X980000D01*
Y90899D01*
X979101Y90001D01*
X910000Y90086D01*
X907390Y89743D01*
X904957Y88735D01*
X902868Y87132D01*
X901265Y85043D01*
X900257Y82611D01*
X899914Y80000D01*
X900000D01*
Y0D01*
X80899D01*
X80001Y899D01*
X80086Y80000D01*
X79743Y82611D01*
X78735Y85043D01*
X77132Y87132D01*
X75043Y88735D01*
X72611Y89743D01*
X70000Y90086D01*
Y90000D01*
X0D01*
Y889101D01*
X899Y889999D01*
X70000Y889914D01*
X72611Y890257D01*
X75043Y891265D01*
X77132Y892868D01*
X78735Y894957D01*
X79743Y897390D01*
X80086Y900000D01*
X80000D01*
Y900000D01*
Y980000D01*
X899101D01*
X899999Y979101D01*
D02*
G37*
%LPC*%
G36*
X965700Y887406D02*
X14800D01*
X13688Y887185D01*
X12745Y886555D01*
X12115Y885612D01*
X11894Y884500D01*
Y96400D01*
X12115Y95288D01*
X12745Y94345D01*
X13688Y93715D01*
X14800Y93494D01*
X447094D01*
Y86024D01*
X445674Y85076D01*
X444385Y83146D01*
X443115D01*
X441826Y85076D01*
X439841Y86402D01*
X437500Y86867D01*
X435159Y86402D01*
X433174Y85076D01*
X432224Y83654D01*
X430652Y83341D01*
X429326Y85326D01*
X427341Y86652D01*
X425000Y87118D01*
X422659Y86652D01*
X420674Y85326D01*
X419348Y83341D01*
X418882Y81000D01*
X419348Y78659D01*
X420674Y76674D01*
X422659Y75348D01*
X425000Y74882D01*
X427341Y75348D01*
X429326Y76674D01*
X430276Y78096D01*
X431848Y78409D01*
X433174Y76424D01*
X435159Y75098D01*
X437500Y74632D01*
X439841Y75098D01*
X441826Y76424D01*
X443115Y78353D01*
X444385D01*
X445674Y76424D01*
X447659Y75098D01*
X450000Y74632D01*
X452341Y75098D01*
X454326Y76424D01*
X455615Y78353D01*
X456885D01*
X458174Y76424D01*
X460159Y75098D01*
X462500Y74632D01*
X464841Y75098D01*
X466826Y76424D01*
X468115Y78353D01*
X469385D01*
X470674Y76424D01*
X472659Y75098D01*
X475000Y74632D01*
X477341Y75098D01*
X479326Y76424D01*
X480449Y78104D01*
X481719D01*
X482674Y76674D01*
X484659Y75348D01*
X487000Y74882D01*
X489341Y75348D01*
X491326Y76674D01*
X492652Y78659D01*
X493117Y81000D01*
X492652Y83341D01*
X491326Y85326D01*
X489341Y86652D01*
X487000Y87118D01*
X484659Y86652D01*
X482674Y85326D01*
X481551Y83645D01*
X480281D01*
X479326Y85076D01*
X477341Y86402D01*
X475000Y86867D01*
X472659Y86402D01*
X470674Y85076D01*
X469385Y83146D01*
X468115D01*
X466826Y85076D01*
X464841Y86402D01*
X462500Y86867D01*
X460159Y86402D01*
X458174Y85076D01*
X456885Y83146D01*
X455615D01*
X454326Y85076D01*
X452906Y86024D01*
Y96400D01*
X453558Y97194D01*
X965700D01*
X966812Y97415D01*
X967755Y98045D01*
X968385Y98988D01*
X968606Y100100D01*
Y884500D01*
X968385Y885612D01*
X967755Y886555D01*
X966812Y887185D01*
X965700Y887406D01*
D02*
G37*
%LPD*%
G36*
X881394Y698506D02*
X869500D01*
X868388Y698285D01*
X867445Y697655D01*
X866815Y696712D01*
X866594Y695600D01*
Y581100D01*
X866815Y579988D01*
X867445Y579045D01*
X868388Y578415D01*
X869500Y578194D01*
X881394D01*
Y184406D01*
X480156D01*
Y193976D01*
X481576Y194924D01*
X482902Y196909D01*
X483368Y199250D01*
X483340Y199386D01*
X484239Y200284D01*
X485000Y200132D01*
X487341Y200598D01*
X489326Y201924D01*
X490652Y203909D01*
X491118Y206250D01*
X491070Y206491D01*
X491968Y207389D01*
X492000Y207382D01*
X494341Y207848D01*
X496326Y209174D01*
X497652Y211159D01*
X498117Y213500D01*
X497652Y215841D01*
X496326Y217826D01*
X494341Y219152D01*
X492000Y219618D01*
X489659Y219152D01*
X487674Y217826D01*
X486348Y215841D01*
X485882Y213500D01*
X485930Y213259D01*
X485032Y212361D01*
X485000Y212367D01*
X482659Y211902D01*
X480674Y210576D01*
X479348Y208591D01*
X478882Y206250D01*
X478909Y206114D01*
X478011Y205216D01*
X477250Y205368D01*
X474909Y204902D01*
X472924Y203576D01*
X471598Y201591D01*
X471133Y199250D01*
X471201Y198906D01*
X470303Y198008D01*
X469750Y198118D01*
X467409Y197652D01*
X465424Y196326D01*
X464098Y194341D01*
X463632Y192000D01*
X463680Y191759D01*
X462782Y190861D01*
X462750Y190868D01*
X460409Y190402D01*
X458424Y189076D01*
X457098Y187091D01*
X456632Y184750D01*
X457098Y182409D01*
X457488Y181826D01*
X456889Y180706D01*
X99106D01*
Y363594D01*
X107300D01*
X108412Y363815D01*
X109355Y364445D01*
X109985Y365388D01*
X110206Y366500D01*
Y473800D01*
X109985Y474912D01*
X109355Y475855D01*
X108412Y476485D01*
X107300Y476706D01*
X99106D01*
Y511594D01*
X111000D01*
X112112Y511815D01*
X113055Y512445D01*
X113685Y513388D01*
X113906Y514500D01*
Y688200D01*
X113685Y689312D01*
X113055Y690255D01*
X112112Y690885D01*
X111000Y691106D01*
X99106D01*
Y800194D01*
X881394D01*
Y698506D01*
D02*
G37*
G36*
X85894Y442076D02*
Y397866D01*
X84755Y397304D01*
X84548Y397463D01*
X82957Y398122D01*
X81250Y398346D01*
X79543Y398122D01*
X77962Y397467D01*
X76906Y398172D01*
Y441474D01*
X77962Y442180D01*
X79293Y441628D01*
X81000Y441404D01*
X82707Y441628D01*
X84298Y442287D01*
X84755Y442638D01*
X85894Y442076D01*
D02*
G37*
G36*
Y614542D02*
Y580482D01*
X84755Y579920D01*
X84048Y580463D01*
X82457Y581122D01*
X80750Y581346D01*
X79043Y581122D01*
X77452Y580463D01*
X76086Y579414D01*
X75037Y578048D01*
X74451Y576634D01*
X73206Y576881D01*
Y615194D01*
X85100D01*
X85894Y614542D01*
D02*
G37*
G36*
X75037Y571452D02*
X76086Y570086D01*
X77452Y569037D01*
X79043Y568378D01*
X80750Y568154D01*
X82457Y568378D01*
X84048Y569037D01*
X84755Y569580D01*
X85894Y569018D01*
Y550537D01*
X84692Y550129D01*
X84664Y550164D01*
X83298Y551213D01*
X81707Y551872D01*
X80000Y552096D01*
X78293Y551872D01*
X76702Y551213D01*
X75336Y550164D01*
X74408Y548956D01*
X73206Y549364D01*
Y572619D01*
X74451Y572866D01*
X75037Y571452D01*
D02*
G37*
D19*
X243000Y32000D02*
D03*
X737000D02*
D03*
X243000Y948000D02*
D03*
X737000D02*
D03*
D20*
X485000Y785000D02*
D03*
D21*
X450000Y80750D02*
D03*
X477250Y199250D02*
D03*
D23*
Y181500D02*
Y199250D01*
X14800Y96400D02*
X450000D01*
Y80750D02*
Y96400D01*
X906500Y673600D02*
Y825300D01*
X902800Y677300D02*
Y821600D01*
X899100Y681000D02*
Y817900D01*
X921300Y658800D02*
Y840100D01*
X917600Y662500D02*
Y836400D01*
X913900Y666200D02*
Y832700D01*
X910200Y669900D02*
Y829000D01*
X884300Y695600D02*
Y803100D01*
X891700Y688200D02*
Y810500D01*
X895400Y684700D02*
Y814200D01*
X888000Y691900D02*
Y806800D01*
X96200Y803100D02*
X884300D01*
X96200Y688200D02*
Y803100D01*
X962000Y103800D02*
Y880800D01*
X958300Y107500D02*
Y877100D01*
X954600Y111200D02*
Y873400D01*
X950900Y114900D02*
Y869700D01*
X965700Y100100D02*
Y884500D01*
X939800Y126000D02*
Y858600D01*
X936100Y129700D02*
Y854900D01*
X932400Y133400D02*
Y851200D01*
X925000Y140800D02*
Y843800D01*
X928700Y137100D02*
Y847500D01*
X947200Y118600D02*
Y866000D01*
X943500Y122300D02*
Y862300D01*
X33300Y866000D02*
X947200D01*
X37000Y862300D02*
X943500D01*
X40700Y858600D02*
X939800D01*
X44400Y854900D02*
X936100D01*
X48100Y851200D02*
X932400D01*
X51800Y847500D02*
X928700D01*
X55500Y843800D02*
X925000D01*
X14800Y884500D02*
X965700D01*
X18500Y880800D02*
X962000D01*
X25900Y873400D02*
X954600D01*
X22200Y877100D02*
X958300D01*
X29600Y869700D02*
X950900D01*
X85100Y814200D02*
X895400D01*
X88800Y810500D02*
X891700D01*
X92500Y806800D02*
X888000D01*
X62900Y836400D02*
X917600D01*
X59200Y840100D02*
X921300D01*
X66600Y832700D02*
X913900D01*
X70300Y829000D02*
X910200D01*
X74000Y825300D02*
X906500D01*
X77700Y821600D02*
X902800D01*
X81400Y817900D02*
X899100D01*
X92500Y684500D02*
Y806800D01*
X88800Y681000D02*
Y810500D01*
X85100Y677300D02*
Y814200D01*
X81400Y673600D02*
Y817900D01*
X77700Y669900D02*
Y821600D01*
X70300Y662500D02*
Y829000D01*
X74000Y666200D02*
Y825300D01*
X51800Y133400D02*
Y847500D01*
X55500Y137100D02*
Y843800D01*
X44400Y126000D02*
Y854900D01*
X48100Y129700D02*
Y851200D01*
X40700Y122300D02*
Y858600D01*
X33300Y114900D02*
Y866000D01*
X37000Y118600D02*
Y862300D01*
X25900Y107500D02*
Y873400D01*
X29600Y111200D02*
Y869700D01*
X22200Y103800D02*
Y877100D01*
X14800Y96400D02*
Y884500D01*
X18500Y100100D02*
Y880800D01*
X62900Y144500D02*
Y836400D01*
X66600Y148200D02*
Y832700D01*
X59200Y140800D02*
Y840100D01*
X884300Y181500D02*
Y581100D01*
X869500D02*
X884300D01*
X96200Y514500D02*
X111000D01*
X96200Y473800D02*
Y514500D01*
Y473800D02*
X107300D01*
Y366500D02*
Y473800D01*
X96200Y366500D02*
X107300D01*
X96200Y177800D02*
Y366500D01*
X873200Y584800D02*
Y691900D01*
X888000Y177800D02*
Y584800D01*
X873200D02*
X888000D01*
X92500Y518200D02*
X107300D01*
X92500Y470100D02*
Y518200D01*
Y470100D02*
X103600D01*
Y370200D02*
Y470100D01*
X92500Y370200D02*
X103600D01*
X92500Y174100D02*
Y370200D01*
X891700Y174100D02*
Y588500D01*
X876900D02*
X891700D01*
X88800Y681000D02*
X103600D01*
Y521900D02*
Y681000D01*
X88800Y521900D02*
X103600D01*
X88800Y466400D02*
Y521900D01*
Y466400D02*
X99900D01*
Y373900D02*
Y466400D01*
X88800Y373900D02*
X99900D01*
X88800Y170400D02*
Y373900D01*
X895400Y170400D02*
Y592200D01*
X880600D02*
X895400D01*
X880600D02*
Y684700D01*
X895400D01*
X85100Y677300D02*
X99900D01*
Y525600D02*
Y677300D01*
X85100Y525600D02*
X99900D01*
X85100Y462700D02*
Y525600D01*
Y462700D02*
X96200D01*
Y377600D02*
Y462700D01*
X85100Y377600D02*
X96200D01*
X85100Y166700D02*
Y377600D01*
X899100Y166700D02*
Y595900D01*
X884300D02*
X899100D01*
X884300D02*
Y681000D01*
X899100D01*
X81400Y673600D02*
X96200D01*
Y529300D02*
Y673600D01*
X81400Y529300D02*
X96200D01*
X81400Y459000D02*
Y529300D01*
Y459000D02*
X92500D01*
Y381300D02*
Y459000D01*
X81400Y381300D02*
X92500D01*
X81400Y163000D02*
Y381300D01*
X902800Y163000D02*
Y599600D01*
X888000D02*
X902800D01*
X888000D02*
Y677300D01*
X902800D01*
X77700Y669900D02*
X92500D01*
Y533000D02*
Y669900D01*
X77700Y533000D02*
X92500D01*
X77700Y455300D02*
Y533000D01*
Y159300D02*
Y384900D01*
X906500Y159300D02*
Y603300D01*
X891700D02*
X906500D01*
X891700D02*
Y673600D01*
X906500D01*
X74000Y666200D02*
X88800D01*
Y536700D02*
Y666200D01*
X74000Y536700D02*
X88800D01*
X74000Y155600D02*
Y536700D01*
X910200Y155600D02*
Y607000D01*
X895400D02*
X910200D01*
X895400D02*
Y669900D01*
X910200D01*
X70300Y662500D02*
X85100D01*
Y618100D02*
Y662500D01*
X70300Y618100D02*
X85100D01*
X70300Y151900D02*
Y618100D01*
X913900Y151900D02*
Y610700D01*
X899100D02*
X913900D01*
X899100D02*
Y666200D01*
X913900D01*
X917600Y148200D02*
Y614400D01*
X902800D02*
X917600D01*
X902800D02*
Y662500D01*
X917600D01*
X921300Y144500D02*
Y618100D01*
X906500D02*
X921300D01*
X906500D02*
Y658800D01*
X921300D01*
X107300Y518200D02*
Y684500D01*
X92500D02*
X107300D01*
X111000Y514500D02*
Y688200D01*
X96200D02*
X111000D01*
X876900Y588500D02*
Y688200D01*
X891700D01*
X873200Y691900D02*
X888000D01*
X869500Y581100D02*
Y695600D01*
X884300D01*
X18500Y100100D02*
X965700D01*
X22200Y103800D02*
X962000D01*
X25900Y107500D02*
X958300D01*
X29600Y111200D02*
X954600D01*
X33300Y114900D02*
X950900D01*
X37000Y118600D02*
X947200D01*
X40700Y122300D02*
X943500D01*
X44400Y126000D02*
X939800D01*
X48100Y129700D02*
X936100D01*
X51800Y133400D02*
X932400D01*
X55500Y137100D02*
X928700D01*
X59200Y140800D02*
X925000D01*
X62900Y144500D02*
X921300D01*
X66600Y148200D02*
X917600D01*
X70300Y151900D02*
X913900D01*
X74000Y155600D02*
X910200D01*
X77700Y159300D02*
X906500D01*
X81400Y163000D02*
X902800D01*
X88800Y170400D02*
X895400D01*
X92500Y174100D02*
X891700D01*
X96200Y177800D02*
X888000D01*
X85100Y166700D02*
X899100D01*
X477250Y181500D02*
X884300D01*
X77700Y384900D02*
X88800D01*
Y455300D01*
X77700D02*
X88800D01*
M02*
