%FSLAX44Y44*%
%MOMM*%
G71*
G01*
G75*
G04 Layer_Physical_Order=1*
G04 Layer_Color=255*
%ADD10R,1.5000X4.4000*%
%ADD11R,1.5000X1.5000*%
%ADD12R,1.5000X7.0000*%
%ADD13C,0.2000*%
%ADD14C,0.3500*%
%ADD15R,1.4750X4.1250*%
%ADD16R,1.5800X48.0000*%
%ADD17R,1.6250X48.0000*%
%ADD18R,2.0250X4.2000*%
%ADD19C,5.8000*%
%ADD20C,1.5000*%
%ADD21C,0.8000*%
%ADD22C,1.0000*%
D10*
X80000Y585500D02*
D03*
D11*
Y545500D02*
D03*
D12*
X914000Y490000D02*
D03*
Y285000D02*
D03*
Y695000D02*
D03*
X76500Y490000D02*
D03*
Y285000D02*
D03*
Y695000D02*
D03*
D13*
X352500Y-194500D02*
X357500D01*
D14*
X82250Y391754D02*
X82250Y391750D01*
X81000Y448000D02*
X81250Y391754D01*
D15*
X913875Y641625D02*
D03*
D16*
X61600Y490000D02*
D03*
D17*
X927375D02*
D03*
D18*
X73625Y642250D02*
D03*
D19*
X243000Y32000D02*
D03*
X737000D02*
D03*
X243000Y948000D02*
D03*
X737000D02*
D03*
D20*
X485000Y785000D02*
D03*
D21*
X487000Y81000D02*
D03*
X425000D02*
D03*
X437500Y80750D02*
D03*
X450000D02*
D03*
X462500D02*
D03*
X475000D02*
D03*
X462750Y184750D02*
D03*
X469750Y192000D02*
D03*
X477250Y199250D02*
D03*
X485000Y206250D02*
D03*
X492000Y213500D02*
D03*
X80750Y574750D02*
D03*
X80000Y545500D02*
D03*
X81000Y448000D02*
D03*
X81250Y391750D02*
D03*
D22*
X914500Y650500D02*
D03*
Y627500D02*
D03*
Y639000D02*
D03*
X76500Y652000D02*
D03*
Y640000D02*
D03*
Y628000D02*
D03*
M02*
