M48
;Layer_Color=9474304
;FILE_FORMAT=4:4
METRIC,LZ
;TYPE=PLATED
T1F00S00C0.3000
T2F00S00C0.3300
T3F00S00C0.5000
T5F00S00C0.6000
T6F00S00C0.8000
T7F00S00C0.9000
T8F00S00C1.0000
T9F00S00C2.2000
T10F00S00C2.5000
T11F00S00C3.2000
%
T01
X0004475Y0000625
X0008825Y00022
X0010075
X0011325
X0012575
X0013825Y00022
X0015Y-00002
X00157Y-000125
X001505Y-00022
X001585Y-000315
X00211Y-0003575
X00221
X00231
X00241
Y-0002575
X00231
X00221
X00211
X00184Y00018
X00251Y-0002575
Y-0003575
X00261
X00271
X00281
X00291
X00301
X00311
Y-0002575
X00301
X00291
X00281
X00271
X00261
X00381
Y-0003575
X00391
Y-0002575
X00441
X00451
Y-0003575
X00441
X004825Y-000355
X004925
X005025
X005125
Y-000255
X005025
X004925
X004825
X005225
Y-000355
X005325
X005425
Y-000255
X005325
X005525
Y-000355
X005625
X005725
X005825
Y-000255
X005725
X005625
X00576Y-0001
X0046083Y0000317
X006525Y-000255
Y-000355
X006625
Y-000255
X007125
X007225
Y-000355
X007125
X0075975Y000155
X007725Y0001525
X0073925Y000615
X0074025Y00112
X00703Y00159
Y00168
X00694
Y00159
X00685
Y00168
X0072425Y0019325
X00695034Y00250012
X00675783Y00250762
X00663999Y00251
X0067193Y0031037
X0068243Y0031012
X00667Y00353
X00655Y0035325
X00689422Y00371828
X00704034Y00375768
X0072225Y0038295
X00726035Y0041752
X0075025Y0041425
X0075125Y003695
X00747Y0033725
X00643Y0035275
X006275Y003505
X0061275Y003465
X00569Y0035975
X0055175Y003505
X00536Y00346
X00522Y0034475
X005095Y003485
X00489389Y00350389
X00473Y003535
X0048225Y00365
X004725Y00378
X0047625Y0039825
X0046075Y003995
X004495Y0041625
X004945Y00411
X005005Y0037925
X00555Y003875
X005795Y004125
X0058268Y0030587
X00589999Y00306999
X0057393Y0030587
X0056493
X0050504Y003101
X0049454Y0031035
X00452Y00292
X00444
X00448Y00284
X0044
X00456
X00412999Y00306999
X0040529Y0030585
X0039654
X0038754
X0038775Y0035875
X003535Y0035025
X0034Y003675
X00335Y0038
X0035Y0038225
X00355Y0041575
X00370268Y00420271
X00395Y00417
X00335Y00416
X0029325Y00415
X002935Y003835
X00273Y003855
X00275Y0040025
X0030975Y00362
X00312099Y00347901
X0031725Y0030975
X0032775Y003095
X00338Y0025
X003141Y0024965
X0035225Y002305
X0038589Y0022425
X00371Y00193
X00414Y00168
Y00159
X00423
Y00168
X00432
Y00159
X0044154Y001996
X0045054
X0045929
X0046829
X004835Y00164
X005355Y00167
X005435
Y00159
X005355
X005515
Y00167
X00522Y00116
X00545Y00068
X0046Y00061
X00452
X00444
X00448Y00053
X00456
X00288Y00067
X00282Y00061
X00274
X00266
X00264Y0015875
X00272
Y0016675
X00264
X0028
Y0015875
X00282Y00199
X0027325
X0026425
X00291
X00278Y00283
X0027
X002623Y002834
X00266Y00292
X00274
X004355Y003745
X0049139Y0025025
X00504Y0025075
X00517Y0025
X006025Y00218
X0061893Y0019962
X0062793
X0063668
X0064568
X00633Y00284
X00625
X0061698Y0028402
X00621Y00292
X00629
X00237Y0030525
X00228
X0021925
X0021025
X00186Y003025
X001745Y00292
X0015025Y0026775
X00138Y00271
X0012625Y00271
X00126Y0028775
Y0029798
X0012625Y00308
X00126302Y00318092
X0012625Y0032825
X00127Y0034375
X001485Y003455
X001865
X00193Y00243
Y0021825
X002086Y0022365
X002125Y0018425
X00165Y0018
X0016792Y0017
X0014725Y0017125
X001385Y0017825
X00131504Y0016969
X00129Y0018875
X0015475Y001885
X0016575Y002065
X0015425Y00227
X0011825Y002495
X0009Y0020975
X00105Y001945
X00082004Y00149757
X000215Y0015575
X00023Y0017225
Y0021
X00011
X00034Y00212
X0005775Y00219
X-0002975Y0020025
Y00191
Y00182
Y00173
X-00002999Y00047499
X00029Y00033
X00052Y000525
X0006725Y0005225
X000765Y00077
X00089Y0007475
X00095Y000875
X00137
X0014025Y00073
X0015075Y000565
Y0004875
Y0004075
X0010775Y0004175
X00179Y00076
X00182Y0008975
X00166Y0014175
X00161508Y00151507
X0015475Y0043425
X0014975Y00486
X0015725Y0050475
X0016675Y0054275
X00178998Y00562999
Y00574999
X001605Y006
X00160258Y0061278
X00146Y005995
X0013325Y0059825
X0012325Y006035
X00113Y005995
X0010825Y0059025
X0009575Y00592
X000715Y0060775
X000545Y0060725
X00045Y00601
X000355Y0060725
X0001Y005888
X000107Y005698
X-000126Y005499
X-000304Y005506
X00054003Y00567778
X0005425Y00582
X00098Y005395
X0012Y005395
X001355Y005565
X0009275Y0050725
X0010075Y0049025
X00186009Y00485774
X00211Y00482
X0023075Y00489
Y00509
X0014875Y0064
X0012125Y00667
X0011784Y0075844
X0013384Y0075886
X0014575Y0075875
X00173Y00759
X00193Y007269
X002106Y007276
X00229Y00746
X0024Y00748
X00242Y0076
X002215Y0077
X0020725Y007915
X0019475
X00111Y00814
X000645Y0080925
X00097Y00775
X000135Y0075375
X0006125Y00431
X002725Y0042075
X00273263Y00447272
X002805Y0046
X002945Y0044675
X002925Y0043025
X00345
X00331266Y00447022
X003355Y0046525
X0035675Y004655
X003695Y004825
X0038875Y00484
X00385019Y00506025
X0039025Y0052425
X00384269Y00532526
X00364Y005355
X00368518Y00521275
X00349Y00529
X003395Y00519
X00336Y0049625
X0034925Y00494
X0035525Y005045
X0029425Y00504
X00293Y00514
X0027425Y0051175
X0028025Y0049725
X002875Y004855
X0025525Y004885
X00256Y0050875
X002715Y0055175
X0026575Y0056925
X0031575Y005675
X00321Y00582
X003375Y00579
X0035Y00576
X00368Y0058975
X0036625Y006045
X00356017Y0061428
X00342017Y0061853
X00345Y006045
X0031925Y006035
X003195Y0061425
X00373518Y0061728
X003855Y0059025
X00402Y00587
X004105Y00577
X00417Y005675
X0043775Y0056875
X0044775Y0058
X00436771Y00602279
X004275Y006145
X00420521Y00587029
X0042275Y0051925
X0043275Y00516775
X0043875Y0052625
X00445272Y00534276
X0044675Y005195
Y0050625
X0042275Y004945
X0042975Y0048175
X0044075Y0047475
X00436127Y00457873
X0042725Y00464
X004235Y0045325
X004045Y0044425
X0040952Y00432021
X0038375Y0043525
X0036725Y004405
X0044575Y0043975
X0044625Y0042775
X0049275Y004225
Y0043525
X0050825Y00442
X0051975Y004295
X0050275Y00466
X0048325Y00475
X0048375Y004535
X00482Y005
X0049625Y00499
X00502524Y00507775
X0050275Y0052225
X005155Y00545
X005535Y0054275
X00556571Y00577429
X005685Y0057925
X005835Y00574
X00583Y005855
X0059025Y006015
X0061525Y005925
X00615Y0057375
X00642Y00581
X0062275Y00613
X0061228Y0061628
X006105Y005435
Y004865
X005905Y004665
X0057275Y00467
X00582Y0045125
X0058225Y0043225
X005705Y004365
X00601029Y00439021
X006455Y0045575
X005535Y0048575
X00516Y00485
X00487Y0055725
X0048208Y0072758
X0046448Y0072688
X00440771Y00759479
X004145Y007585
X00403705Y00760455
X0038932Y0075842
X0039Y00786
X0040275Y007855
X0040175Y00809
X0038175Y007925
X0032875Y0081325
X002925Y0080875
X0030475Y0077
X003075Y0075375
X0028775Y0075325
X003845Y0067475
X0029975Y0054575
X00557Y00753
X0065866Y0075865
X0067466Y0075907
X0069Y00759
X00706535Y00759465
X0073425Y0078575
X00743
X0075175Y00786
X0073625Y0080875
X0073382Y0072711
X0075142Y0072781
X0069182Y006515
X0067382Y0065921
X0068475Y00631
X00708785Y0061153
X0070875Y005925
X0070225Y0058225
X0068275Y0054625
X00648282Y00545027
X0065975Y0056325
X00667Y00523
Y00507
X006809Y0049285
X0070275Y005
X00712035Y00495024
X00724Y00499
X0073175Y004915
X0075675Y0049325
X0075725Y0050625
X0075825Y0057075
X00751Y00446
X0075025Y0042425
X007295Y0044975
X0070475Y004215
X0069525Y00428
X0068575Y0042175
X006485Y00485
X0073625Y0081925
Y008295
X0040175Y0082975
Y008195
X002925Y0081925
Y008295
X0015825Y0081908
X000645Y0081975
Y0083
T02
X00526Y00216
X00538
T03
X0054175Y002365
Y0024925
X00166008Y00122506
X00157508
X001575Y0011375
X00166
X0000425Y0012875
X-00005Y001285
X-00014
X-00023Y0012825
X-00032
X-0002791Y0060383
X-0001291
X-0002041Y0061133
X-0002791Y0061883
X-0001291
X-0000541Y0061133
X0000959
X0000209Y0061883
X0001709
X0001709Y0060383
X0000209
X-0000391Y0075758
X-0001191Y0075158
Y0076383
X-0001991Y0075783
X-0002Y00744
X0023982Y0061881
X0024732Y0061131
X0023982Y0060381
X0025482
X0026232Y0061131
X0027732
X0026982Y0061881
X0028482
X0028482Y0060381
X0026982
X0025482Y0061881
X0025457Y0074356
X0025457Y0075781
X0026257Y0076381
Y0075156
X0027057Y0075756
X0052291Y0075804
X0052275Y0074425
X0053091Y0075179
Y0076404
X0053891Y0075779
X0053916Y0061904
X0054666Y0061154
X0053166
X0052416Y0061904
X0050916
X0051666Y0061154
X0052416Y0060404
X0050916
X0053916
X0055416
X0055416Y0061904
T05
X00577Y00159
X00579Y00171
X00225Y00167
X00213
X0016375Y0027425
X001Y0037
Y00385
Y004
X00085
Y00385
Y0037
X0007
Y00385
X00055Y0037
X001Y00415
X00194Y0002908
X00525026Y00793039
T06
X0074496Y0009454
X00753Y00217
T07
X00295Y0039878
X005235
X00027Y00482
Y005074
X000016
Y00482
T08
X007811Y000762
Y001016
Y00127
Y001524
Y001778
Y002032
Y002286
Y00254
Y002794
Y003048
Y003302
Y003556
Y00381
Y004064
X008065
Y00381
Y003556
Y003302
Y003048
Y002794
Y00254
Y002286
Y002032
Y001778
Y001524
Y00127
Y001016
Y000762
X008319
Y001016
Y00127
Y001524
Y001778
Y002032
Y002286
Y00254
Y002794
Y003048
Y003302
Y003556
Y00381
Y004064
X008573
Y00381
Y003556
Y003302
Y003048
Y002794
Y00254
Y002286
Y002032
Y001778
Y001524
Y00127
Y001016
Y000762
X0019709Y0060475
X0046875Y0060775
X0046825Y0057725
X0073775Y0057675
Y0060825
X007811Y006096
Y00635
Y006604
Y006858
Y007112
X008065
Y006858
Y006604
Y00635
Y006096
Y005842
X007811
Y005588
X008065
Y005334
X007811
Y00508
X008065
Y004826
X007811
Y004572
X008065
Y004318
X007811
X008319
Y004572
Y004826
Y00508
Y005334
Y005588
Y005842
Y006096
Y00635
Y006604
Y006858
Y007112
X008573
Y006858
Y006604
Y00635
Y006096
Y005842
Y005588
Y005334
Y00508
Y004826
Y004572
Y004318
T09
X0022825Y00374
Y00564
T10
X0062436Y0039878
X0018748
T11
X0Y0
X008573Y000254
X0Y008001
X008573Y00762
M30
