G04 Layer_Physical_Order=6*
G04 Layer_Color=16440176*
%FSLAX44Y44*%
%MOMM*%
G71*
G01*
G75*
%ADD36C,1.0000*%
%ADD40C,0.5000*%
%ADD41C,0.2000*%
%ADD44C,0.8000*%
%ADD99C,4.0000*%
%ADD100C,1.5000*%
%ADD101R,1.5000X1.5000*%
%ADD103R,1.5000X1.5000*%
%ADD104C,0.6600*%
%ADD105C,0.8000*%
%ADD106C,1.0000*%
%ADD107C,1.2000*%
%ADD108C,6.0000*%
%ADD109C,5.6000*%
%ADD110C,1.7000*%
%ADD111C,1.8000*%
%ADD112C,5.8000*%
G04:AMPARAMS|DCode=113|XSize=1mm|YSize=7mm|CornerRadius=0.25mm|HoleSize=0mm|Usage=FLASHONLY|Rotation=0.000|XOffset=0mm|YOffset=0mm|HoleType=Round|Shape=RoundedRectangle|*
%AMROUNDEDRECTD113*
21,1,1.0000,6.5000,0,0,0.0*
21,1,0.5000,7.0000,0,0,0.0*
1,1,0.5000,0.2500,-3.2500*
1,1,0.5000,-0.2500,-3.2500*
1,1,0.5000,-0.2500,3.2500*
1,1,0.5000,0.2500,3.2500*
%
%ADD113ROUNDEDRECTD113*%
%ADD115C,1.5000*%
%ADD116C,0.4000*%
%ADD122R,2.6000X1.7250*%
%ADD132R,2.3000X4.9750*%
%ADD133R,3.1000X1.5250*%
%ADD134R,2.5000X1.7250*%
%ADD135R,2.6750X1.7750*%
%ADD136R,3.6000X1.0000*%
%ADD137R,2.5250X1.6750*%
%ADD138R,1.5000X2.5250*%
%ADD139R,3.5500X0.8500*%
%ADD140R,2.7000X1.7500*%
%ADD141R,3.4250X1.0750*%
%ADD142R,3.5250X1.0500*%
%ADD143R,2.4250X1.7250*%
%ADD144R,2.4500X1.6500*%
%ADD145R,2.4500X1.2500*%
%ADD146R,5.3000X2.3000*%
%ADD147R,6.0250X2.3000*%
%ADD148R,6.0500X2.3250*%
%ADD149R,3.4250X34.9500*%
G36*
X749492Y836024D02*
X751221Y835308D01*
X752777Y834269D01*
X754100Y832945D01*
X755140Y831389D01*
X755856Y829661D01*
X756221Y827825D01*
Y809640D01*
X756308Y807875D01*
X756996Y804414D01*
X758347Y801154D01*
X760307Y798221D01*
X762802Y795725D01*
X765736Y793765D01*
X768996Y792415D01*
X772457Y791726D01*
X774221Y791639D01*
X864073D01*
X866153Y791226D01*
X868913Y790082D01*
X873863Y787049D01*
X878113Y783419D01*
X878121Y783404D01*
X880781Y780290D01*
X882816Y776969D01*
X884307Y773371D01*
X885216Y769584D01*
X885529Y765601D01*
X885445Y497757D01*
X885445Y497756D01*
X885445Y497756D01*
X885486Y497548D01*
X885260Y495253D01*
X884530Y492846D01*
X883344Y490628D01*
X881687Y488608D01*
X879332Y486353D01*
X879152Y486096D01*
X878936Y485868D01*
X877121Y482979D01*
X877019Y482711D01*
X876873Y482464D01*
X875746Y479243D01*
X875706Y478960D01*
X875619Y478687D01*
X875237Y475295D01*
X875249Y475151D01*
X875221Y475010D01*
Y302290D01*
X875249Y302148D01*
X875237Y302005D01*
X875619Y298614D01*
X875706Y298341D01*
X875746Y298057D01*
X876873Y294836D01*
X877019Y294589D01*
X877121Y294322D01*
X878936Y291432D01*
X879133Y291224D01*
X879292Y290986D01*
X881705Y288573D01*
X881705Y288573D01*
X881705Y288572D01*
X881881Y288455D01*
X883344Y286672D01*
X884530Y284454D01*
X885260Y282047D01*
X885519Y279419D01*
X885445Y24957D01*
X885484Y24758D01*
X885188Y20983D01*
X884153Y16675D01*
X882458Y12581D01*
X880143Y8804D01*
X877265Y5435D01*
X873896Y2557D01*
X870118Y242D01*
X866025Y-1453D01*
X861717Y-2487D01*
X859900Y-2630D01*
X773137Y-2629D01*
X772996Y-2657D01*
X772852Y-2645D01*
X770195Y-2944D01*
X769923Y-3031D01*
X769639Y-3071D01*
X767116Y-3954D01*
X766869Y-4100D01*
X766601Y-4202D01*
X764338Y-5624D01*
X764129Y-5821D01*
X764049Y-5875D01*
X763857Y-5954D01*
X761657Y-7425D01*
X759785Y-9296D01*
X758315Y-11497D01*
X757302Y-13942D01*
X756786Y-16537D01*
X756721Y-17861D01*
X756721Y-34860D01*
X756721Y-35944D01*
X756299Y-38069D01*
X755470Y-40071D01*
X754266Y-41873D01*
X752734Y-43405D01*
X750932Y-44609D01*
X748930Y-45438D01*
X746805Y-45861D01*
X745721Y-45861D01*
X10471D01*
X7456Y-45861D01*
X1478Y-45073D01*
X-4347Y-43513D01*
X-9918Y-41205D01*
X-15140Y-38190D01*
X-19924Y-34519D01*
X-24188Y-30255D01*
X-27858Y-25472D01*
X-30873Y-20249D01*
X-33181Y-14678D01*
X-34742Y-8854D01*
X-35529Y-2876D01*
X-35529Y139D01*
Y121169D01*
X-33529Y122437D01*
X-32000Y122133D01*
X-23000D01*
X-21743Y122382D01*
X-5000D01*
X-3743Y122633D01*
X4250D01*
X6591Y123098D01*
X8576Y124424D01*
X9902Y126409D01*
X10367Y128750D01*
X9902Y131091D01*
X8576Y133076D01*
X6591Y134402D01*
X4250Y134867D01*
X-4750D01*
X-6007Y134618D01*
X-22750D01*
X-24007Y134368D01*
X-32000D01*
X-33529Y134064D01*
X-35529Y135331D01*
Y165572D01*
X-34750Y166211D01*
X-500D01*
X280Y166366D01*
X942Y166808D01*
X1384Y167470D01*
X1539Y168250D01*
Y418041D01*
X51350D01*
X51350Y418041D01*
X52520Y418274D01*
X53513Y418937D01*
X59756Y425180D01*
X61250Y424883D01*
X63591Y425348D01*
X65576Y426674D01*
X66902Y428659D01*
X67368Y431000D01*
X66902Y433341D01*
X65576Y435326D01*
X63591Y436652D01*
X61250Y437118D01*
X58909Y436652D01*
X56924Y435326D01*
X55598Y433341D01*
X55132Y431000D01*
X55430Y429506D01*
X50083Y424159D01*
X1539D01*
Y465961D01*
X10750D01*
X11530Y466116D01*
X12192Y466558D01*
X12634Y467220D01*
X12789Y468000D01*
Y517750D01*
X12634Y518530D01*
X12192Y519192D01*
X11530Y519634D01*
X10750Y519789D01*
X-34750D01*
X-35529Y520428D01*
Y544405D01*
X-33529Y545474D01*
X-32741Y544948D01*
X-30400Y544482D01*
X-28059Y544948D01*
X-26074Y546274D01*
X-24748Y548259D01*
X-24283Y550600D01*
X-24748Y552941D01*
X-26074Y554926D01*
X-28059Y556252D01*
X-30400Y556717D01*
X-32741Y556252D01*
X-33529Y555726D01*
X-35529Y556795D01*
Y597831D01*
X-33529Y598438D01*
X-33442Y598308D01*
X-32780Y597866D01*
X-32000Y597711D01*
X21000D01*
X21780Y597866D01*
X22442Y598308D01*
X22884Y598970D01*
X23039Y599750D01*
Y602984D01*
X23207Y603830D01*
X23039Y604676D01*
Y617984D01*
X23207Y618830D01*
X23039Y619676D01*
Y622750D01*
X22884Y623530D01*
X22442Y624192D01*
X21780Y624634D01*
X21000Y624789D01*
X17886D01*
X17090Y624948D01*
X16294Y624789D01*
X2886D01*
X2090Y624948D01*
X1294Y624789D01*
X-12114D01*
X-12910Y624948D01*
X-13706Y624789D01*
X-27114D01*
X-27910Y624948D01*
X-28706Y624789D01*
X-32000D01*
X-32780Y624634D01*
X-33442Y624192D01*
X-33529Y624062D01*
X-35529Y624669D01*
Y804640D01*
Y806721D01*
X-34985Y810847D01*
X-33908Y814867D01*
X-32315Y818712D01*
X-30234Y822317D01*
X-27701Y825619D01*
X-24758Y828562D01*
X-21456Y831095D01*
X-17852Y833176D01*
X-14006Y834769D01*
X-9986Y835846D01*
X-5860Y836389D01*
X-3779Y836389D01*
Y836389D01*
X746721Y836389D01*
X747657D01*
X749492Y836024D01*
D02*
G37*
%LPC*%
G36*
X519750Y435617D02*
X517409Y435152D01*
X515424Y433826D01*
X514098Y431841D01*
X513632Y429500D01*
X514098Y427159D01*
X515424Y425174D01*
X517409Y423848D01*
X519750Y423382D01*
X522091Y423848D01*
X524076Y425174D01*
X525402Y427159D01*
X525868Y429500D01*
X525402Y431841D01*
X524076Y433826D01*
X522091Y435152D01*
X519750Y435617D01*
D02*
G37*
G36*
X857300Y136582D02*
X854820Y136256D01*
X852509Y135298D01*
X850525Y133775D01*
X849002Y131791D01*
X848045Y129480D01*
X847718Y127000D01*
X848045Y124520D01*
X849002Y122209D01*
X850525Y120225D01*
X852509Y118702D01*
X854820Y117745D01*
X857300Y117418D01*
X859780Y117745D01*
X862091Y118702D01*
X864075Y120225D01*
X865598Y122209D01*
X866555Y124520D01*
X866882Y127000D01*
X866555Y129480D01*
X865598Y131791D01*
X864075Y133775D01*
X862091Y135298D01*
X859780Y136256D01*
X857300Y136582D01*
D02*
G37*
G36*
X579500Y418618D02*
X577159Y418152D01*
X575174Y416826D01*
X573848Y414841D01*
X573382Y412500D01*
X573848Y410159D01*
X575174Y408174D01*
X577159Y406848D01*
X579500Y406382D01*
X581841Y406848D01*
X583826Y408174D01*
X585152Y410159D01*
X585617Y412500D01*
X585152Y414841D01*
X583826Y416826D01*
X581841Y418152D01*
X579500Y418618D01*
D02*
G37*
G36*
X857300Y441382D02*
X854820Y441055D01*
X852509Y440098D01*
X850525Y438575D01*
X849002Y436591D01*
X848045Y434280D01*
X847718Y431800D01*
X848045Y429320D01*
X849002Y427009D01*
X850525Y425024D01*
X852509Y423502D01*
X854820Y422545D01*
X857300Y422218D01*
X859780Y422545D01*
X862091Y423502D01*
X864075Y425024D01*
X865598Y427009D01*
X866555Y429320D01*
X866882Y431800D01*
X866555Y434280D01*
X865598Y436591D01*
X864075Y438575D01*
X862091Y440098D01*
X859780Y441055D01*
X857300Y441382D01*
D02*
G37*
G36*
X781100Y466782D02*
X778620Y466455D01*
X776309Y465498D01*
X774325Y463975D01*
X772802Y461991D01*
X771845Y459680D01*
X771518Y457200D01*
X771845Y454720D01*
X772802Y452409D01*
X774325Y450424D01*
X776309Y448902D01*
X778620Y447944D01*
X781100Y447618D01*
X783580Y447944D01*
X785891Y448902D01*
X787876Y450424D01*
X789398Y452409D01*
X790356Y454720D01*
X790682Y457200D01*
X790356Y459680D01*
X789398Y461991D01*
X787876Y463975D01*
X785891Y465498D01*
X783580Y466455D01*
X781100Y466782D01*
D02*
G37*
G36*
X857300D02*
X854820Y466455D01*
X852509Y465498D01*
X850525Y463975D01*
X849002Y461991D01*
X848045Y459680D01*
X847718Y457200D01*
X848045Y454720D01*
X849002Y452409D01*
X850525Y450424D01*
X852509Y448902D01*
X854820Y447944D01*
X857300Y447618D01*
X859780Y447944D01*
X862091Y448902D01*
X864075Y450424D01*
X865598Y452409D01*
X866555Y454720D01*
X866882Y457200D01*
X866555Y459680D01*
X865598Y461991D01*
X864075Y463975D01*
X862091Y465498D01*
X859780Y466455D01*
X857300Y466782D01*
D02*
G37*
G36*
X831900Y136582D02*
X829420Y136256D01*
X827109Y135298D01*
X825125Y133775D01*
X823602Y131791D01*
X822645Y129480D01*
X822318Y127000D01*
X822645Y124520D01*
X823602Y122209D01*
X825125Y120225D01*
X827109Y118702D01*
X829420Y117745D01*
X831900Y117418D01*
X834380Y117745D01*
X836691Y118702D01*
X838676Y120225D01*
X840198Y122209D01*
X841155Y124520D01*
X841482Y127000D01*
X841155Y129480D01*
X840198Y131791D01*
X838676Y133775D01*
X836691Y135298D01*
X834380Y136256D01*
X831900Y136582D01*
D02*
G37*
G36*
X806500Y466782D02*
X804020Y466455D01*
X801709Y465498D01*
X799725Y463975D01*
X798202Y461991D01*
X797245Y459680D01*
X796918Y457200D01*
X797245Y454720D01*
X798202Y452409D01*
X799725Y450424D01*
X801709Y448902D01*
X804020Y447944D01*
X806500Y447618D01*
X808980Y447944D01*
X811291Y448902D01*
X813276Y450424D01*
X814798Y452409D01*
X815755Y454720D01*
X816082Y457200D01*
X815755Y459680D01*
X814798Y461991D01*
X813276Y463975D01*
X811291Y465498D01*
X808980Y466455D01*
X806500Y466782D01*
D02*
G37*
G36*
X831900D02*
X829420Y466455D01*
X827109Y465498D01*
X825125Y463975D01*
X823602Y461991D01*
X822645Y459680D01*
X822318Y457200D01*
X822645Y454720D01*
X823602Y452409D01*
X825125Y450424D01*
X827109Y448902D01*
X829420Y447944D01*
X831900Y447618D01*
X834380Y447944D01*
X836691Y448902D01*
X838676Y450424D01*
X840198Y452409D01*
X841155Y454720D01*
X841482Y457200D01*
X841155Y459680D01*
X840198Y461991D01*
X838676Y463975D01*
X836691Y465498D01*
X834380Y466455D01*
X831900Y466782D01*
D02*
G37*
G36*
X781100Y161982D02*
X778620Y161656D01*
X776309Y160698D01*
X774325Y159175D01*
X772802Y157191D01*
X771845Y154880D01*
X771518Y152400D01*
X771845Y149920D01*
X772802Y147609D01*
X774325Y145625D01*
X776309Y144102D01*
X778620Y143145D01*
X781100Y142818D01*
X783580Y143145D01*
X785891Y144102D01*
X787876Y145625D01*
X789398Y147609D01*
X790356Y149920D01*
X790682Y152400D01*
X790356Y154880D01*
X789398Y157191D01*
X787876Y159175D01*
X785891Y160698D01*
X783580Y161656D01*
X781100Y161982D01*
D02*
G37*
G36*
X806500Y339782D02*
X804020Y339455D01*
X801709Y338498D01*
X799725Y336975D01*
X798202Y334991D01*
X797245Y332680D01*
X796918Y330200D01*
X797245Y327720D01*
X798202Y325409D01*
X799725Y323425D01*
X801709Y321902D01*
X804020Y320945D01*
X806500Y320618D01*
X808980Y320945D01*
X811291Y321902D01*
X813276Y323425D01*
X814798Y325409D01*
X815755Y327720D01*
X816082Y330200D01*
X815755Y332680D01*
X814798Y334991D01*
X813276Y336975D01*
X811291Y338498D01*
X808980Y339455D01*
X806500Y339782D01*
D02*
G37*
G36*
X831900Y314382D02*
X829420Y314056D01*
X827109Y313098D01*
X825125Y311575D01*
X823602Y309591D01*
X822645Y307280D01*
X822318Y304800D01*
X822645Y302320D01*
X823602Y300009D01*
X825125Y298025D01*
X827109Y296502D01*
X829420Y295544D01*
X831900Y295218D01*
X834380Y295544D01*
X836691Y296502D01*
X838676Y298025D01*
X840198Y300009D01*
X841155Y302320D01*
X841482Y304800D01*
X841155Y307280D01*
X840198Y309591D01*
X838676Y311575D01*
X836691Y313098D01*
X834380Y314056D01*
X831900Y314382D01*
D02*
G37*
G36*
X857300D02*
X854820Y314056D01*
X852509Y313098D01*
X850525Y311575D01*
X849002Y309591D01*
X848045Y307280D01*
X847718Y304800D01*
X848045Y302320D01*
X849002Y300009D01*
X850525Y298025D01*
X852509Y296502D01*
X854820Y295544D01*
X857300Y295218D01*
X859780Y295544D01*
X862091Y296502D01*
X864075Y298025D01*
X865598Y300009D01*
X866555Y302320D01*
X866882Y304800D01*
X866555Y307280D01*
X865598Y309591D01*
X864075Y311575D01*
X862091Y313098D01*
X859780Y314056D01*
X857300Y314382D01*
D02*
G37*
G36*
X806500Y365182D02*
X804020Y364855D01*
X801709Y363898D01*
X799725Y362375D01*
X798202Y360391D01*
X797245Y358080D01*
X796918Y355600D01*
X797245Y353120D01*
X798202Y350809D01*
X799725Y348825D01*
X801709Y347302D01*
X804020Y346344D01*
X806500Y346018D01*
X808980Y346344D01*
X811291Y347302D01*
X813276Y348825D01*
X814798Y350809D01*
X815755Y353120D01*
X816082Y355600D01*
X815755Y358080D01*
X814798Y360391D01*
X813276Y362375D01*
X811291Y363898D01*
X808980Y364855D01*
X806500Y365182D01*
D02*
G37*
G36*
X857300Y390582D02*
X854820Y390256D01*
X852509Y389298D01*
X850525Y387775D01*
X849002Y385791D01*
X848045Y383480D01*
X847718Y381000D01*
X848045Y378520D01*
X849002Y376209D01*
X850525Y374225D01*
X852509Y372702D01*
X854820Y371744D01*
X857300Y371418D01*
X859780Y371744D01*
X862091Y372702D01*
X864075Y374225D01*
X865598Y376209D01*
X866555Y378520D01*
X866882Y381000D01*
X866555Y383480D01*
X865598Y385791D01*
X864075Y387775D01*
X862091Y389298D01*
X859780Y390256D01*
X857300Y390582D01*
D02*
G37*
G36*
X722250Y389067D02*
X719909Y388602D01*
X717924Y387276D01*
X716598Y385291D01*
X716133Y382950D01*
X716598Y380609D01*
X717924Y378624D01*
X719909Y377298D01*
X722250Y376833D01*
X724591Y377298D01*
X726576Y378624D01*
X727902Y380609D01*
X728368Y382950D01*
X727902Y385291D01*
X726576Y387276D01*
X724591Y388602D01*
X722250Y389067D01*
D02*
G37*
G36*
X335000Y386118D02*
X332659Y385652D01*
X330674Y384326D01*
X329348Y382341D01*
X328882Y380000D01*
X329348Y377659D01*
X330674Y375674D01*
X332659Y374348D01*
X335000Y373882D01*
X335217Y373926D01*
X335997Y372042D01*
X335674Y371826D01*
X334348Y369841D01*
X333882Y367500D01*
X334348Y365159D01*
X335674Y363174D01*
X337659Y361848D01*
X340000Y361382D01*
X342341Y361848D01*
X344326Y363174D01*
X345652Y365159D01*
X346118Y367500D01*
X345652Y369841D01*
X344326Y371826D01*
X342341Y373152D01*
X340000Y373618D01*
X339783Y373574D01*
X339003Y375458D01*
X339326Y375674D01*
X340652Y377659D01*
X341118Y380000D01*
X340652Y382341D01*
X339326Y384326D01*
X337341Y385652D01*
X335000Y386118D01*
D02*
G37*
G36*
X704034Y381886D02*
X701693Y381420D01*
X699709Y380094D01*
X698382Y378109D01*
X697917Y375768D01*
X698382Y373427D01*
X699709Y371443D01*
X701693Y370117D01*
X704034Y369651D01*
X706375Y370117D01*
X708360Y371443D01*
X709686Y373427D01*
X710152Y375768D01*
X709686Y378109D01*
X708360Y380094D01*
X706375Y381420D01*
X704034Y381886D01*
D02*
G37*
G36*
X831900Y517582D02*
X829420Y517256D01*
X827109Y516298D01*
X825125Y514775D01*
X823602Y512791D01*
X822645Y510480D01*
X822318Y508000D01*
X822645Y505520D01*
X823602Y503209D01*
X825125Y501225D01*
X827109Y499702D01*
X829420Y498745D01*
X831900Y498418D01*
X834380Y498745D01*
X836691Y499702D01*
X838676Y501225D01*
X840198Y503209D01*
X841155Y505520D01*
X841482Y508000D01*
X841155Y510480D01*
X840198Y512791D01*
X838676Y514775D01*
X836691Y516298D01*
X834380Y517256D01*
X831900Y517582D01*
D02*
G37*
G36*
X857300D02*
X854820Y517256D01*
X852509Y516298D01*
X850525Y514775D01*
X849002Y512791D01*
X848045Y510480D01*
X847718Y508000D01*
X848045Y505520D01*
X849002Y503209D01*
X850525Y501225D01*
X852509Y499702D01*
X854820Y498745D01*
X857300Y498418D01*
X859780Y498745D01*
X862091Y499702D01*
X864075Y501225D01*
X865598Y503209D01*
X866555Y505520D01*
X866882Y508000D01*
X866555Y510480D01*
X865598Y512791D01*
X864075Y514775D01*
X862091Y516298D01*
X859780Y517256D01*
X857300Y517582D01*
D02*
G37*
G36*
X781100D02*
X778620Y517256D01*
X776309Y516298D01*
X774325Y514775D01*
X772802Y512791D01*
X771845Y510480D01*
X771518Y508000D01*
X771845Y505520D01*
X772802Y503209D01*
X774325Y501225D01*
X776309Y499702D01*
X778620Y498745D01*
X781100Y498418D01*
X783580Y498745D01*
X785891Y499702D01*
X787876Y501225D01*
X789398Y503209D01*
X790356Y505520D01*
X790682Y508000D01*
X790356Y510480D01*
X789398Y512791D01*
X787876Y514775D01*
X785891Y516298D01*
X783580Y517256D01*
X781100Y517582D01*
D02*
G37*
G36*
X806500D02*
X804020Y517256D01*
X801709Y516298D01*
X799725Y514775D01*
X798202Y512791D01*
X797245Y510480D01*
X796918Y508000D01*
X797245Y505520D01*
X798202Y503209D01*
X799725Y501225D01*
X801709Y499702D01*
X804020Y498745D01*
X806500Y498418D01*
X808980Y498745D01*
X811291Y499702D01*
X813276Y501225D01*
X814798Y503209D01*
X815755Y505520D01*
X816082Y508000D01*
X815755Y510480D01*
X814798Y512791D01*
X813276Y514775D01*
X811291Y516298D01*
X808980Y517256D01*
X806500Y517582D01*
D02*
G37*
G36*
X781100Y542982D02*
X778620Y542655D01*
X776309Y541698D01*
X774325Y540175D01*
X772802Y538191D01*
X771845Y535880D01*
X771518Y533400D01*
X771845Y530920D01*
X772802Y528609D01*
X774325Y526625D01*
X776309Y525102D01*
X778620Y524145D01*
X781100Y523818D01*
X783580Y524145D01*
X785891Y525102D01*
X787876Y526625D01*
X789398Y528609D01*
X790356Y530920D01*
X790682Y533400D01*
X790356Y535880D01*
X789398Y538191D01*
X787876Y540175D01*
X785891Y541698D01*
X783580Y542655D01*
X781100Y542982D01*
D02*
G37*
G36*
X857300D02*
X854820Y542655D01*
X852509Y541698D01*
X850525Y540175D01*
X849002Y538191D01*
X848045Y535880D01*
X847718Y533400D01*
X848045Y530920D01*
X849002Y528609D01*
X850525Y526625D01*
X852509Y525102D01*
X854820Y524145D01*
X857300Y523818D01*
X859780Y524145D01*
X862091Y525102D01*
X864075Y526625D01*
X865598Y528609D01*
X866555Y530920D01*
X866882Y533400D01*
X866555Y535880D01*
X865598Y538191D01*
X864075Y540175D01*
X862091Y541698D01*
X859780Y542655D01*
X857300Y542982D01*
D02*
G37*
G36*
X831900Y111182D02*
X829420Y110856D01*
X827109Y109898D01*
X825125Y108376D01*
X823602Y106391D01*
X822645Y104080D01*
X822318Y101600D01*
X822645Y99120D01*
X823602Y96809D01*
X825125Y94824D01*
X827109Y93302D01*
X829420Y92345D01*
X831900Y92018D01*
X834380Y92345D01*
X836691Y93302D01*
X838676Y94824D01*
X840198Y96809D01*
X841155Y99120D01*
X841482Y101600D01*
X841155Y104080D01*
X840198Y106391D01*
X838676Y108376D01*
X836691Y109898D01*
X834380Y110856D01*
X831900Y111182D01*
D02*
G37*
G36*
X806500Y542982D02*
X804020Y542655D01*
X801709Y541698D01*
X799725Y540175D01*
X798202Y538191D01*
X797245Y535880D01*
X796918Y533400D01*
X797245Y530920D01*
X798202Y528609D01*
X799725Y526625D01*
X801709Y525102D01*
X804020Y524145D01*
X806500Y523818D01*
X808980Y524145D01*
X811291Y525102D01*
X813276Y526625D01*
X814798Y528609D01*
X815755Y530920D01*
X816082Y533400D01*
X815755Y535880D01*
X814798Y538191D01*
X813276Y540175D01*
X811291Y541698D01*
X808980Y542655D01*
X806500Y542982D01*
D02*
G37*
G36*
X831900D02*
X829420Y542655D01*
X827109Y541698D01*
X825125Y540175D01*
X823602Y538191D01*
X822645Y535880D01*
X822318Y533400D01*
X822645Y530920D01*
X823602Y528609D01*
X825125Y526625D01*
X827109Y525102D01*
X829420Y524145D01*
X831900Y523818D01*
X834380Y524145D01*
X836691Y525102D01*
X838676Y526625D01*
X840198Y528609D01*
X841155Y530920D01*
X841482Y533400D01*
X841155Y535880D01*
X840198Y538191D01*
X838676Y540175D01*
X836691Y541698D01*
X834380Y542655D01*
X831900Y542982D01*
D02*
G37*
G36*
X781100Y492182D02*
X778620Y491856D01*
X776309Y490898D01*
X774325Y489375D01*
X772802Y487391D01*
X771845Y485080D01*
X771518Y482600D01*
X771845Y480120D01*
X772802Y477809D01*
X774325Y475825D01*
X776309Y474302D01*
X778620Y473344D01*
X781100Y473018D01*
X783580Y473344D01*
X785891Y474302D01*
X787876Y475825D01*
X789398Y477809D01*
X790356Y480120D01*
X790682Y482600D01*
X790356Y485080D01*
X789398Y487391D01*
X787876Y489375D01*
X785891Y490898D01*
X783580Y491856D01*
X781100Y492182D01*
D02*
G37*
G36*
X806500D02*
X804020Y491856D01*
X801709Y490898D01*
X799725Y489375D01*
X798202Y487391D01*
X797245Y485080D01*
X796918Y482600D01*
X797245Y480120D01*
X798202Y477809D01*
X799725Y475825D01*
X801709Y474302D01*
X804020Y473344D01*
X806500Y473018D01*
X808980Y473344D01*
X811291Y474302D01*
X813276Y475825D01*
X814798Y477809D01*
X815755Y480120D01*
X816082Y482600D01*
X815755Y485080D01*
X814798Y487391D01*
X813276Y489375D01*
X811291Y490898D01*
X808980Y491856D01*
X806500Y492182D01*
D02*
G37*
G36*
X61980Y543988D02*
X56980D01*
X55224Y543639D01*
X53736Y542644D01*
X52741Y541156D01*
X52392Y539400D01*
Y474400D01*
X52741Y472644D01*
X53736Y471156D01*
X55224Y470161D01*
X56980Y469812D01*
X61980D01*
X63736Y470161D01*
X65224Y471156D01*
X66219Y472644D01*
X66568Y474400D01*
Y539400D01*
X66219Y541156D01*
X65224Y542644D01*
X63736Y543639D01*
X61980Y543988D01*
D02*
G37*
G36*
X36500Y491500D02*
X17500D01*
Y472500D01*
X36500D01*
Y491500D01*
D02*
G37*
G36*
X831900Y492182D02*
X829420Y491856D01*
X827109Y490898D01*
X825125Y489375D01*
X823602Y487391D01*
X822645Y485080D01*
X822318Y482600D01*
X822645Y480120D01*
X823602Y477809D01*
X825125Y475825D01*
X827109Y474302D01*
X829420Y473344D01*
X831900Y473018D01*
X834380Y473344D01*
X836691Y474302D01*
X838676Y475825D01*
X840198Y477809D01*
X841155Y480120D01*
X841482Y482600D01*
X841155Y485080D01*
X840198Y487391D01*
X838676Y489375D01*
X836691Y490898D01*
X834380Y491856D01*
X831900Y492182D01*
D02*
G37*
G36*
X857300Y111182D02*
X854820Y110856D01*
X852509Y109898D01*
X850525Y108376D01*
X849002Y106391D01*
X848045Y104080D01*
X847718Y101600D01*
X848045Y99120D01*
X849002Y96809D01*
X850525Y94824D01*
X852509Y93302D01*
X854820Y92345D01*
X857300Y92018D01*
X859780Y92345D01*
X862091Y93302D01*
X864075Y94824D01*
X865598Y96809D01*
X866555Y99120D01*
X866882Y101600D01*
X866555Y104080D01*
X865598Y106391D01*
X864075Y108376D01*
X862091Y109898D01*
X859780Y110856D01*
X857300Y111182D01*
D02*
G37*
G36*
X27000Y516982D02*
X24520Y516655D01*
X22209Y515698D01*
X20224Y514175D01*
X18702Y512191D01*
X17744Y509880D01*
X17418Y507400D01*
X17744Y504920D01*
X18702Y502609D01*
X20224Y500624D01*
X22209Y499102D01*
X24520Y498144D01*
X27000Y497818D01*
X29480Y498144D01*
X31791Y499102D01*
X33775Y500624D01*
X35298Y502609D01*
X36255Y504920D01*
X36582Y507400D01*
X36255Y509880D01*
X35298Y512191D01*
X33775Y514175D01*
X31791Y515698D01*
X29480Y516655D01*
X27000Y516982D01*
D02*
G37*
G36*
X857300Y492182D02*
X854820Y491856D01*
X852509Y490898D01*
X850525Y489375D01*
X849002Y487391D01*
X848045Y485080D01*
X847718Y482600D01*
X848045Y480120D01*
X849002Y477809D01*
X850525Y475825D01*
X852509Y474302D01*
X854820Y473344D01*
X857300Y473018D01*
X859780Y473344D01*
X862091Y474302D01*
X864075Y475825D01*
X865598Y477809D01*
X866555Y480120D01*
X866882Y482600D01*
X866555Y485080D01*
X865598Y487391D01*
X864075Y489375D01*
X862091Y490898D01*
X859780Y491856D01*
X857300Y492182D01*
D02*
G37*
G36*
X806500Y136582D02*
X804020Y136256D01*
X801709Y135298D01*
X799725Y133775D01*
X798202Y131791D01*
X797245Y129480D01*
X796918Y127000D01*
X797245Y124520D01*
X798202Y122209D01*
X799725Y120225D01*
X801709Y118702D01*
X804020Y117745D01*
X806500Y117418D01*
X808980Y117745D01*
X811291Y118702D01*
X813276Y120225D01*
X814798Y122209D01*
X815755Y124520D01*
X816082Y127000D01*
X815755Y129480D01*
X814798Y131791D01*
X813276Y133775D01*
X811291Y135298D01*
X808980Y136256D01*
X806500Y136582D01*
D02*
G37*
G36*
Y187382D02*
X804020Y187055D01*
X801709Y186098D01*
X799725Y184575D01*
X798202Y182591D01*
X797245Y180280D01*
X796918Y177800D01*
X797245Y175320D01*
X798202Y173009D01*
X799725Y171024D01*
X801709Y169502D01*
X804020Y168545D01*
X806500Y168218D01*
X808980Y168545D01*
X811291Y169502D01*
X813276Y171024D01*
X814798Y173009D01*
X815755Y175320D01*
X816082Y177800D01*
X815755Y180280D01*
X814798Y182591D01*
X813276Y184575D01*
X811291Y186098D01*
X808980Y187055D01*
X806500Y187382D01*
D02*
G37*
G36*
X831900D02*
X829420Y187055D01*
X827109Y186098D01*
X825125Y184575D01*
X823602Y182591D01*
X822645Y180280D01*
X822318Y177800D01*
X822645Y175320D01*
X823602Y173009D01*
X825125Y171024D01*
X827109Y169502D01*
X829420Y168545D01*
X831900Y168218D01*
X834380Y168545D01*
X836691Y169502D01*
X838676Y171024D01*
X840198Y173009D01*
X841155Y175320D01*
X841482Y177800D01*
X841155Y180280D01*
X840198Y182591D01*
X838676Y184575D01*
X836691Y186098D01*
X834380Y187055D01*
X831900Y187382D01*
D02*
G37*
G36*
X138500Y184368D02*
X136159Y183902D01*
X134174Y182576D01*
X132848Y180591D01*
X132382Y178250D01*
X132502Y177648D01*
X131504Y175807D01*
X129163Y175342D01*
X127178Y174016D01*
X125852Y172031D01*
X125386Y169690D01*
X125683Y168195D01*
X110587Y153099D01*
X109924Y152107D01*
X109691Y150936D01*
X109691Y150936D01*
Y72517D01*
X48281Y11107D01*
X47091Y11902D01*
X44750Y12368D01*
X42409Y11902D01*
X40424Y10576D01*
X39098Y8591D01*
X38633Y6250D01*
X39098Y3909D01*
X40424Y1924D01*
X42409Y598D01*
X44750Y132D01*
X47091Y598D01*
X49076Y1924D01*
X50402Y3909D01*
X50567Y4742D01*
X114913Y69087D01*
X114913Y69087D01*
X115576Y70079D01*
X115809Y71250D01*
Y149669D01*
X130009Y163870D01*
X131504Y163573D01*
X133845Y164038D01*
X135829Y165364D01*
X137156Y167349D01*
X137621Y169690D01*
X137501Y170292D01*
X138500Y172132D01*
X140841Y172598D01*
X142826Y173924D01*
X144152Y175909D01*
X144618Y178250D01*
X144152Y180591D01*
X142826Y182576D01*
X140841Y183902D01*
X138500Y184368D01*
D02*
G37*
G36*
X23000Y178368D02*
X20659Y177902D01*
X18674Y176576D01*
X17348Y174591D01*
X16882Y172250D01*
X17348Y169909D01*
X18674Y167924D01*
X20659Y166598D01*
X23000Y166133D01*
X25341Y166598D01*
X27326Y167924D01*
X28652Y169909D01*
X29118Y172250D01*
X28652Y174591D01*
X27326Y176576D01*
X25341Y177902D01*
X23000Y178368D01*
D02*
G37*
G36*
X857300Y187382D02*
X854820Y187055D01*
X852509Y186098D01*
X850525Y184575D01*
X849002Y182591D01*
X848045Y180280D01*
X847718Y177800D01*
X848045Y175320D01*
X849002Y173009D01*
X850525Y171024D01*
X852509Y169502D01*
X854820Y168545D01*
X857300Y168218D01*
X859780Y168545D01*
X862091Y169502D01*
X864075Y171024D01*
X865598Y173009D01*
X866555Y175320D01*
X866882Y177800D01*
X866555Y180280D01*
X865598Y182591D01*
X864075Y184575D01*
X862091Y186098D01*
X859780Y187055D01*
X857300Y187382D01*
D02*
G37*
G36*
X295500Y205289D02*
X260000D01*
X259220Y205134D01*
X258558Y204692D01*
X258116Y204030D01*
X257961Y203250D01*
Y194750D01*
X258116Y193970D01*
X258558Y193308D01*
X259220Y192866D01*
X260000Y192711D01*
X295500D01*
X296280Y192866D01*
X296942Y193308D01*
X297384Y193970D01*
X297539Y194750D01*
Y203250D01*
X297384Y204030D01*
X296942Y204692D01*
X296280Y205134D01*
X295500Y205289D01*
D02*
G37*
G36*
X650250Y206039D02*
X614750D01*
X613970Y205884D01*
X613308Y205442D01*
X612866Y204780D01*
X612711Y204000D01*
Y195500D01*
X612866Y194720D01*
X613308Y194058D01*
X613970Y193616D01*
X614750Y193461D01*
X650250D01*
X651030Y193616D01*
X651692Y194058D01*
X652134Y194720D01*
X652289Y195500D01*
Y204000D01*
X652134Y204780D01*
X651692Y205442D01*
X651030Y205884D01*
X650250Y206039D01*
D02*
G37*
G36*
X105000Y200618D02*
X102659Y200152D01*
X100674Y198826D01*
X99348Y196841D01*
X98883Y194500D01*
X99348Y192159D01*
X100674Y190174D01*
X102659Y188848D01*
X105000Y188382D01*
X107341Y188848D01*
X109326Y190174D01*
X110652Y192159D01*
X111117Y194500D01*
X110652Y196841D01*
X109326Y198826D01*
X107341Y200152D01*
X105000Y200618D01*
D02*
G37*
G36*
X473000Y206539D02*
X437000D01*
X436220Y206384D01*
X435558Y205942D01*
X435116Y205280D01*
X434961Y204500D01*
Y194500D01*
X435116Y193720D01*
X435558Y193058D01*
X436220Y192616D01*
X437000Y192461D01*
X473000D01*
X473780Y192616D01*
X474442Y193058D01*
X474884Y193720D01*
X475039Y194500D01*
Y204500D01*
X474884Y205280D01*
X474442Y205942D01*
X473780Y206384D01*
X473000Y206539D01*
D02*
G37*
G36*
X857300Y161982D02*
X854820Y161656D01*
X852509Y160698D01*
X850525Y159175D01*
X849002Y157191D01*
X848045Y154880D01*
X847718Y152400D01*
X848045Y149920D01*
X849002Y147609D01*
X850525Y145625D01*
X852509Y144102D01*
X854820Y143145D01*
X857300Y142818D01*
X859780Y143145D01*
X862091Y144102D01*
X864075Y145625D01*
X865598Y147609D01*
X866555Y149920D01*
X866882Y152400D01*
X866555Y154880D01*
X865598Y157191D01*
X864075Y159175D01*
X862091Y160698D01*
X859780Y161656D01*
X857300Y161982D01*
D02*
G37*
G36*
X21500Y161868D02*
X19159Y161402D01*
X17174Y160076D01*
X15848Y158091D01*
X15382Y155750D01*
X15848Y153409D01*
X17174Y151424D01*
X19159Y150098D01*
X21500Y149633D01*
X23841Y150098D01*
X25826Y151424D01*
X27152Y153409D01*
X27308Y154191D01*
X73244D01*
X76184Y151252D01*
X75887Y149757D01*
X76352Y147416D01*
X77678Y145432D01*
X79663Y144105D01*
X82004Y143640D01*
X84345Y144105D01*
X86330Y145432D01*
X87656Y147416D01*
X88122Y149757D01*
X87656Y152098D01*
X86330Y154083D01*
X84345Y155409D01*
X82004Y155875D01*
X80510Y155578D01*
X76674Y159413D01*
X75682Y160076D01*
X74511Y160309D01*
X74511Y160309D01*
X25477D01*
X23841Y161402D01*
X21500Y161868D01*
D02*
G37*
G36*
X806500Y161982D02*
X804020Y161656D01*
X801709Y160698D01*
X799725Y159175D01*
X798202Y157191D01*
X797245Y154880D01*
X796918Y152400D01*
X797245Y149920D01*
X798202Y147609D01*
X799725Y145625D01*
X801709Y144102D01*
X804020Y143145D01*
X806500Y142818D01*
X808980Y143145D01*
X811291Y144102D01*
X813276Y145625D01*
X814798Y147609D01*
X815755Y149920D01*
X816082Y152400D01*
X815755Y154880D01*
X814798Y157191D01*
X813276Y159175D01*
X811291Y160698D01*
X808980Y161656D01*
X806500Y161982D01*
D02*
G37*
G36*
X831900D02*
X829420Y161656D01*
X827109Y160698D01*
X825125Y159175D01*
X823602Y157191D01*
X822645Y154880D01*
X822318Y152400D01*
X822645Y149920D01*
X823602Y147609D01*
X825125Y145625D01*
X827109Y144102D01*
X829420Y143145D01*
X831900Y142818D01*
X834380Y143145D01*
X836691Y144102D01*
X838676Y145625D01*
X840198Y147609D01*
X841155Y149920D01*
X841482Y152400D01*
X841155Y154880D01*
X840198Y157191D01*
X838676Y159175D01*
X836691Y160698D01*
X834380Y161656D01*
X831900Y161982D01*
D02*
G37*
G36*
X585250Y179789D02*
X570250D01*
X569470Y179634D01*
X568808Y179192D01*
X568366Y178530D01*
X568211Y177750D01*
Y152500D01*
X568366Y151720D01*
X568808Y151058D01*
X569470Y150616D01*
X570250Y150461D01*
X585250D01*
X586030Y150616D01*
X586692Y151058D01*
X587134Y151720D01*
X587289Y152500D01*
Y177750D01*
X587134Y178530D01*
X586692Y179192D01*
X586030Y179634D01*
X585250Y179789D01*
D02*
G37*
G36*
X483500Y170117D02*
X481159Y169652D01*
X479174Y168326D01*
X477848Y166341D01*
X477383Y164000D01*
X477848Y161659D01*
X479174Y159674D01*
X481159Y158348D01*
X483500Y157882D01*
X485841Y158348D01*
X487826Y159674D01*
X489152Y161659D01*
X489618Y164000D01*
X489152Y166341D01*
X487826Y168326D01*
X485841Y169652D01*
X483500Y170117D01*
D02*
G37*
G36*
X231000Y175539D02*
X206500D01*
X205720Y175384D01*
X205058Y174942D01*
X204616Y174280D01*
X204461Y173500D01*
Y161000D01*
X204616Y160220D01*
X205058Y159558D01*
X205720Y159116D01*
X206500Y158961D01*
X212773D01*
X213000Y158931D01*
X213227Y158961D01*
X224773D01*
X225000Y158931D01*
X225227Y158961D01*
X231000D01*
X231780Y159116D01*
X232442Y159558D01*
X232884Y160220D01*
X233039Y161000D01*
Y166773D01*
X233069Y167000D01*
X233039Y167227D01*
Y173500D01*
X232884Y174280D01*
X232442Y174942D01*
X231780Y175384D01*
X231000Y175539D01*
D02*
G37*
G36*
X284250Y173039D02*
X259750D01*
X258970Y172884D01*
X258308Y172442D01*
X257866Y171780D01*
X257711Y171000D01*
Y154500D01*
X257866Y153720D01*
X258308Y153058D01*
X258970Y152616D01*
X259750Y152461D01*
X284250D01*
X285030Y152616D01*
X285692Y153058D01*
X286134Y153720D01*
X286289Y154500D01*
Y171000D01*
X286134Y171780D01*
X285692Y172442D01*
X285030Y172884D01*
X284250Y173039D01*
D02*
G37*
G36*
X436250Y174539D02*
X409500D01*
X408720Y174384D01*
X408058Y173942D01*
X407616Y173280D01*
X407461Y172500D01*
Y154750D01*
X407616Y153970D01*
X408058Y153308D01*
X408720Y152866D01*
X409500Y152711D01*
X436250D01*
X437030Y152866D01*
X437692Y153308D01*
X438134Y153970D01*
X438289Y154750D01*
Y172500D01*
X438134Y173280D01*
X437692Y173942D01*
X437030Y174384D01*
X436250Y174539D01*
D02*
G37*
G36*
X857300Y263582D02*
X854820Y263256D01*
X852509Y262298D01*
X850525Y260776D01*
X849002Y258791D01*
X848045Y256480D01*
X847718Y254000D01*
X848045Y251520D01*
X849002Y249209D01*
X850525Y247225D01*
X852509Y245702D01*
X854820Y244744D01*
X857300Y244418D01*
X859780Y244744D01*
X862091Y245702D01*
X864075Y247225D01*
X865598Y249209D01*
X866555Y251520D01*
X866882Y254000D01*
X866555Y256480D01*
X865598Y258791D01*
X864075Y260776D01*
X862091Y262298D01*
X859780Y263256D01*
X857300Y263582D01*
D02*
G37*
G36*
X163750Y282319D02*
X161662Y282044D01*
X159715Y281238D01*
X158044Y279956D01*
X156762Y278284D01*
X155956Y276338D01*
X155681Y274250D01*
X155956Y272162D01*
X156762Y270215D01*
X158044Y268544D01*
X159715Y267262D01*
X161662Y266456D01*
X163750Y266181D01*
X165838Y266456D01*
X167785Y267262D01*
X169456Y268544D01*
X170738Y270215D01*
X171544Y272162D01*
X171819Y274250D01*
X171544Y276338D01*
X170738Y278284D01*
X169456Y279956D01*
X167785Y281238D01*
X165838Y282044D01*
X163750Y282319D01*
D02*
G37*
G36*
X806500Y263582D02*
X804020Y263256D01*
X801709Y262298D01*
X799725Y260776D01*
X798202Y258791D01*
X797245Y256480D01*
X796918Y254000D01*
X797245Y251520D01*
X798202Y249209D01*
X799725Y247225D01*
X801709Y245702D01*
X804020Y244744D01*
X806500Y244418D01*
X808980Y244744D01*
X811291Y245702D01*
X813276Y247225D01*
X814798Y249209D01*
X815755Y251520D01*
X816082Y254000D01*
X815755Y256480D01*
X814798Y258791D01*
X813276Y260776D01*
X811291Y262298D01*
X808980Y263256D01*
X806500Y263582D01*
D02*
G37*
G36*
X831900D02*
X829420Y263256D01*
X827109Y262298D01*
X825125Y260776D01*
X823602Y258791D01*
X822645Y256480D01*
X822318Y254000D01*
X822645Y251520D01*
X823602Y249209D01*
X825125Y247225D01*
X827109Y245702D01*
X829420Y244744D01*
X831900Y244418D01*
X834380Y244744D01*
X836691Y245702D01*
X838676Y247225D01*
X840198Y249209D01*
X841155Y251520D01*
X841482Y254000D01*
X841155Y256480D01*
X840198Y258791D01*
X838676Y260776D01*
X836691Y262298D01*
X834380Y263256D01*
X831900Y263582D01*
D02*
G37*
G36*
X806500Y288982D02*
X804020Y288655D01*
X801709Y287698D01*
X799725Y286175D01*
X798202Y284191D01*
X797245Y281880D01*
X796918Y279400D01*
X797245Y276920D01*
X798202Y274609D01*
X799725Y272624D01*
X801709Y271102D01*
X804020Y270145D01*
X806500Y269818D01*
X808980Y270145D01*
X811291Y271102D01*
X813276Y272624D01*
X814798Y274609D01*
X815755Y276920D01*
X816082Y279400D01*
X815755Y281880D01*
X814798Y284191D01*
X813276Y286175D01*
X811291Y287698D01*
X808980Y288655D01*
X806500Y288982D01*
D02*
G37*
G36*
X460500Y298789D02*
X434500D01*
X433720Y298634D01*
X433058Y298192D01*
X432616Y297530D01*
X432461Y296750D01*
Y279500D01*
X432616Y278720D01*
X433058Y278058D01*
X433720Y277616D01*
X434500Y277461D01*
X460500D01*
X461280Y277616D01*
X461942Y278058D01*
X462384Y278720D01*
X462539Y279500D01*
Y296750D01*
X462384Y297530D01*
X461942Y298192D01*
X461280Y298634D01*
X460500Y298789D01*
D02*
G37*
G36*
X806500Y314382D02*
X804020Y314056D01*
X801709Y313098D01*
X799725Y311575D01*
X798202Y309591D01*
X797245Y307280D01*
X796918Y304800D01*
X797245Y302320D01*
X798202Y300009D01*
X799725Y298025D01*
X801709Y296502D01*
X804020Y295544D01*
X806500Y295218D01*
X808980Y295544D01*
X811291Y296502D01*
X813276Y298025D01*
X814798Y300009D01*
X815755Y302320D01*
X816082Y304800D01*
X815755Y307280D01*
X814798Y309591D01*
X813276Y311575D01*
X811291Y313098D01*
X808980Y314056D01*
X806500Y314382D01*
D02*
G37*
G36*
X831900Y288982D02*
X829420Y288655D01*
X827109Y287698D01*
X825125Y286175D01*
X823602Y284191D01*
X822645Y281880D01*
X822318Y279400D01*
X822645Y276920D01*
X823602Y274609D01*
X825125Y272624D01*
X827109Y271102D01*
X829420Y270145D01*
X831900Y269818D01*
X834380Y270145D01*
X836691Y271102D01*
X838676Y272624D01*
X840198Y274609D01*
X841155Y276920D01*
X841482Y279400D01*
X841155Y281880D01*
X840198Y284191D01*
X838676Y286175D01*
X836691Y287698D01*
X834380Y288655D01*
X831900Y288982D01*
D02*
G37*
G36*
X857300D02*
X854820Y288655D01*
X852509Y287698D01*
X850525Y286175D01*
X849002Y284191D01*
X848045Y281880D01*
X847718Y279400D01*
X848045Y276920D01*
X849002Y274609D01*
X850525Y272624D01*
X852509Y271102D01*
X854820Y270145D01*
X857300Y269818D01*
X859780Y270145D01*
X862091Y271102D01*
X864075Y272624D01*
X865598Y274609D01*
X866555Y276920D01*
X866882Y279400D01*
X866555Y281880D01*
X865598Y284191D01*
X864075Y286175D01*
X862091Y287698D01*
X859780Y288655D01*
X857300Y288982D01*
D02*
G37*
G36*
Y212782D02*
X854820Y212456D01*
X852509Y211498D01*
X850525Y209975D01*
X849002Y207991D01*
X848045Y205680D01*
X847718Y203200D01*
X848045Y200720D01*
X849002Y198409D01*
X850525Y196425D01*
X852509Y194902D01*
X854820Y193944D01*
X857300Y193618D01*
X859780Y193944D01*
X862091Y194902D01*
X864075Y196425D01*
X865598Y198409D01*
X866555Y200720D01*
X866882Y203200D01*
X866555Y205680D01*
X865598Y207991D01*
X864075Y209975D01*
X862091Y211498D01*
X859780Y212456D01*
X857300Y212782D01*
D02*
G37*
G36*
X57750Y225117D02*
X55409Y224652D01*
X53424Y223326D01*
X52098Y221341D01*
X51632Y219000D01*
X52098Y216659D01*
X53424Y214674D01*
X55409Y213348D01*
X57750Y212882D01*
X60091Y213348D01*
X62076Y214674D01*
X63402Y216659D01*
X63868Y219000D01*
X63402Y221341D01*
X62076Y223326D01*
X60091Y224652D01*
X57750Y225117D01*
D02*
G37*
G36*
X806500Y212782D02*
X804020Y212456D01*
X801709Y211498D01*
X799725Y209975D01*
X798202Y207991D01*
X797245Y205680D01*
X796918Y203200D01*
X797245Y200720D01*
X798202Y198409D01*
X799725Y196425D01*
X801709Y194902D01*
X804020Y193944D01*
X806500Y193618D01*
X808980Y193944D01*
X811291Y194902D01*
X813276Y196425D01*
X814798Y198409D01*
X815755Y200720D01*
X816082Y203200D01*
X815755Y205680D01*
X814798Y207991D01*
X813276Y209975D01*
X811291Y211498D01*
X808980Y212456D01*
X806500Y212782D01*
D02*
G37*
G36*
X831900D02*
X829420Y212456D01*
X827109Y211498D01*
X825125Y209975D01*
X823602Y207991D01*
X822645Y205680D01*
X822318Y203200D01*
X822645Y200720D01*
X823602Y198409D01*
X825125Y196425D01*
X827109Y194902D01*
X829420Y193944D01*
X831900Y193618D01*
X834380Y193944D01*
X836691Y194902D01*
X838676Y196425D01*
X840198Y198409D01*
X841155Y200720D01*
X841482Y203200D01*
X841155Y205680D01*
X840198Y207991D01*
X838676Y209975D01*
X836691Y211498D01*
X834380Y212456D01*
X831900Y212782D01*
D02*
G37*
G36*
X34000Y218118D02*
X31659Y217652D01*
X29674Y216326D01*
X29035Y215368D01*
X27674Y214538D01*
X26489Y214885D01*
X25341Y215652D01*
X23000Y216118D01*
X20659Y215652D01*
X18674Y214326D01*
X18203Y213620D01*
X15797D01*
X15326Y214326D01*
X13341Y215652D01*
X11000Y216118D01*
X8659Y215652D01*
X6674Y214326D01*
X5348Y212341D01*
X4882Y210000D01*
X5348Y207659D01*
X6674Y205674D01*
X8659Y204348D01*
X11000Y203883D01*
X13341Y204348D01*
X15326Y205674D01*
X15797Y206380D01*
X18203D01*
X18674Y205674D01*
X20659Y204348D01*
X23000Y203883D01*
X25341Y204348D01*
X27326Y205674D01*
X27966Y206632D01*
X29326Y207462D01*
X30511Y207115D01*
X31659Y206348D01*
X34000Y205882D01*
X36341Y206348D01*
X38326Y207674D01*
X39652Y209659D01*
X40118Y212000D01*
X39652Y214341D01*
X38326Y216326D01*
X36341Y217652D01*
X34000Y218118D01*
D02*
G37*
G36*
X857300Y238182D02*
X854820Y237855D01*
X852509Y236898D01*
X850525Y235375D01*
X849002Y233391D01*
X848045Y231080D01*
X847718Y228600D01*
X848045Y226120D01*
X849002Y223809D01*
X850525Y221824D01*
X852509Y220302D01*
X854820Y219345D01*
X857300Y219018D01*
X859780Y219345D01*
X862091Y220302D01*
X864075Y221824D01*
X865598Y223809D01*
X866555Y226120D01*
X866882Y228600D01*
X866555Y231080D01*
X865598Y233391D01*
X864075Y235375D01*
X862091Y236898D01*
X859780Y237855D01*
X857300Y238182D01*
D02*
G37*
G36*
X338000Y256117D02*
X335659Y255652D01*
X333674Y254326D01*
X332348Y252341D01*
X331883Y250000D01*
X332348Y247659D01*
X333674Y245674D01*
X335659Y244348D01*
X338000Y243883D01*
X340341Y244348D01*
X342326Y245674D01*
X343652Y247659D01*
X344118Y250000D01*
X343652Y252341D01*
X342326Y254326D01*
X340341Y255652D01*
X338000Y256117D01*
D02*
G37*
G36*
X806500Y238182D02*
X804020Y237855D01*
X801709Y236898D01*
X799725Y235375D01*
X798202Y233391D01*
X797245Y231080D01*
X796918Y228600D01*
X797245Y226120D01*
X798202Y223809D01*
X799725Y221824D01*
X801709Y220302D01*
X804020Y219345D01*
X806500Y219018D01*
X808980Y219345D01*
X811291Y220302D01*
X813276Y221824D01*
X814798Y223809D01*
X815755Y226120D01*
X816082Y228600D01*
X815755Y231080D01*
X814798Y233391D01*
X813276Y235375D01*
X811291Y236898D01*
X808980Y237855D01*
X806500Y238182D01*
D02*
G37*
G36*
X831900D02*
X829420Y237855D01*
X827109Y236898D01*
X825125Y235375D01*
X823602Y233391D01*
X822645Y231080D01*
X822318Y228600D01*
X822645Y226120D01*
X823602Y223809D01*
X825125Y221824D01*
X827109Y220302D01*
X829420Y219345D01*
X831900Y219018D01*
X834380Y219345D01*
X836691Y220302D01*
X838676Y221824D01*
X840198Y223809D01*
X841155Y226120D01*
X841482Y228600D01*
X841155Y231080D01*
X840198Y233391D01*
X838676Y235375D01*
X836691Y236898D01*
X834380Y237855D01*
X831900Y238182D01*
D02*
G37*
G36*
X67250Y58368D02*
X64909Y57902D01*
X62924Y56576D01*
X61598Y54591D01*
X61132Y52250D01*
X61598Y49909D01*
X62924Y47924D01*
X64909Y46598D01*
X67250Y46132D01*
X69591Y46598D01*
X71576Y47924D01*
X72902Y49909D01*
X73368Y52250D01*
X72902Y54591D01*
X71576Y56576D01*
X69591Y57902D01*
X67250Y58368D01*
D02*
G37*
G36*
X107750Y47867D02*
X105409Y47402D01*
X103424Y46076D01*
X102098Y44091D01*
X101632Y41750D01*
X102098Y39409D01*
X103424Y37424D01*
X105409Y36098D01*
X107750Y35633D01*
X110091Y36098D01*
X112076Y37424D01*
X113402Y39409D01*
X113868Y41750D01*
X113402Y44091D01*
X112076Y46076D01*
X110091Y47402D01*
X107750Y47867D01*
D02*
G37*
G36*
X806500Y85782D02*
X804020Y85456D01*
X801709Y84498D01*
X799725Y82975D01*
X798202Y80991D01*
X797245Y78680D01*
X796918Y76200D01*
X797245Y73720D01*
X798202Y71409D01*
X799725Y69425D01*
X801709Y67902D01*
X804020Y66944D01*
X806500Y66618D01*
X808980Y66944D01*
X811291Y67902D01*
X813276Y69425D01*
X814798Y71409D01*
X815755Y73720D01*
X816082Y76200D01*
X815755Y78680D01*
X814798Y80991D01*
X813276Y82975D01*
X811291Y84498D01*
X808980Y85456D01*
X806500Y85782D01*
D02*
G37*
G36*
X831900Y669982D02*
X829420Y669656D01*
X827109Y668698D01*
X825125Y667176D01*
X823602Y665191D01*
X822645Y662880D01*
X822318Y660400D01*
X822645Y657920D01*
X823602Y655609D01*
X825125Y653624D01*
X827109Y652102D01*
X829420Y651144D01*
X831900Y650818D01*
X834380Y651144D01*
X836691Y652102D01*
X838676Y653624D01*
X840198Y655609D01*
X841155Y657920D01*
X841482Y660400D01*
X841155Y662880D01*
X840198Y665191D01*
X838676Y667176D01*
X836691Y668698D01*
X834380Y669656D01*
X831900Y669982D01*
D02*
G37*
G36*
X857300D02*
X854820Y669656D01*
X852509Y668698D01*
X850525Y667176D01*
X849002Y665191D01*
X848045Y662880D01*
X847718Y660400D01*
X848045Y657920D01*
X849002Y655609D01*
X850525Y653624D01*
X852509Y652102D01*
X854820Y651144D01*
X857300Y650818D01*
X859780Y651144D01*
X862091Y652102D01*
X864075Y653624D01*
X865598Y655609D01*
X866555Y657920D01*
X866882Y660400D01*
X866555Y662880D01*
X865598Y665191D01*
X864075Y667176D01*
X862091Y668698D01*
X859780Y669656D01*
X857300Y669982D01*
D02*
G37*
G36*
Y695382D02*
X854820Y695055D01*
X852509Y694098D01*
X850525Y692575D01*
X849002Y690591D01*
X848045Y688280D01*
X847718Y685800D01*
X848045Y683320D01*
X849002Y681009D01*
X850525Y679025D01*
X852509Y677502D01*
X854820Y676544D01*
X857300Y676218D01*
X859780Y676544D01*
X862091Y677502D01*
X864075Y679025D01*
X865598Y681009D01*
X866555Y683320D01*
X866882Y685800D01*
X866555Y688280D01*
X865598Y690591D01*
X864075Y692575D01*
X862091Y694098D01*
X859780Y695055D01*
X857300Y695382D01*
D02*
G37*
G36*
X781100Y720782D02*
X778620Y720455D01*
X776309Y719498D01*
X774325Y717975D01*
X772802Y715991D01*
X771845Y713680D01*
X771518Y711200D01*
X771845Y708720D01*
X772802Y706409D01*
X774325Y704425D01*
X776309Y702902D01*
X778620Y701945D01*
X781100Y701618D01*
X783580Y701945D01*
X785891Y702902D01*
X787876Y704425D01*
X789398Y706409D01*
X790356Y708720D01*
X790682Y711200D01*
X790356Y713680D01*
X789398Y715991D01*
X787876Y717975D01*
X785891Y719498D01*
X783580Y720455D01*
X781100Y720782D01*
D02*
G37*
G36*
X831900Y695382D02*
X829420Y695055D01*
X827109Y694098D01*
X825125Y692575D01*
X823602Y690591D01*
X822645Y688280D01*
X822318Y685800D01*
X822645Y683320D01*
X823602Y681009D01*
X825125Y679025D01*
X827109Y677502D01*
X829420Y676544D01*
X831900Y676218D01*
X834380Y676544D01*
X836691Y677502D01*
X838676Y679025D01*
X840198Y681009D01*
X841155Y683320D01*
X841482Y685800D01*
X841155Y688280D01*
X840198Y690591D01*
X838676Y692575D01*
X836691Y694098D01*
X834380Y695055D01*
X831900Y695382D01*
D02*
G37*
G36*
X781100D02*
X778620Y695055D01*
X776309Y694098D01*
X774325Y692575D01*
X772802Y690591D01*
X771845Y688280D01*
X771518Y685800D01*
X771845Y683320D01*
X772802Y681009D01*
X774325Y679025D01*
X776309Y677502D01*
X778620Y676544D01*
X781100Y676218D01*
X783580Y676544D01*
X785891Y677502D01*
X787876Y679025D01*
X789398Y681009D01*
X790356Y683320D01*
X790682Y685800D01*
X790356Y688280D01*
X789398Y690591D01*
X787876Y692575D01*
X785891Y694098D01*
X783580Y695055D01*
X781100Y695382D01*
D02*
G37*
G36*
X806500D02*
X804020Y695055D01*
X801709Y694098D01*
X799725Y692575D01*
X798202Y690591D01*
X797245Y688280D01*
X796918Y685800D01*
X797245Y683320D01*
X798202Y681009D01*
X799725Y679025D01*
X801709Y677502D01*
X804020Y676544D01*
X806500Y676218D01*
X808980Y676544D01*
X811291Y677502D01*
X813276Y679025D01*
X814798Y681009D01*
X815755Y683320D01*
X816082Y685800D01*
X815755Y688280D01*
X814798Y690591D01*
X813276Y692575D01*
X811291Y694098D01*
X808980Y695055D01*
X806500Y695382D01*
D02*
G37*
G36*
Y669982D02*
X804020Y669656D01*
X801709Y668698D01*
X799725Y667176D01*
X798202Y665191D01*
X797245Y662880D01*
X796918Y660400D01*
X797245Y657920D01*
X798202Y655609D01*
X799725Y653624D01*
X801709Y652102D01*
X804020Y651144D01*
X806500Y650818D01*
X808980Y651144D01*
X811291Y652102D01*
X813276Y653624D01*
X814798Y655609D01*
X815755Y657920D01*
X816082Y660400D01*
X815755Y662880D01*
X814798Y665191D01*
X813276Y667176D01*
X811291Y668698D01*
X808980Y669656D01*
X806500Y669982D01*
D02*
G37*
G36*
X71500Y613867D02*
X69159Y613402D01*
X67174Y612076D01*
X65848Y610091D01*
X65382Y607750D01*
X65848Y605409D01*
X67174Y603424D01*
X69159Y602098D01*
X71500Y601632D01*
X73841Y602098D01*
X75826Y603424D01*
X77152Y605409D01*
X77618Y607750D01*
X77152Y610091D01*
X75826Y612076D01*
X73841Y613402D01*
X71500Y613867D01*
D02*
G37*
G36*
X831900Y85782D02*
X829420Y85456D01*
X827109Y84498D01*
X825125Y82975D01*
X823602Y80991D01*
X822645Y78680D01*
X822318Y76200D01*
X822645Y73720D01*
X823602Y71409D01*
X825125Y69425D01*
X827109Y67902D01*
X829420Y66944D01*
X831900Y66618D01*
X834380Y66944D01*
X836691Y67902D01*
X838676Y69425D01*
X840198Y71409D01*
X841155Y73720D01*
X841482Y76200D01*
X841155Y78680D01*
X840198Y80991D01*
X838676Y82975D01*
X836691Y84498D01*
X834380Y85456D01*
X831900Y85782D01*
D02*
G37*
G36*
X857300Y619182D02*
X854820Y618856D01*
X852509Y617898D01*
X850525Y616375D01*
X849002Y614391D01*
X848045Y612080D01*
X847718Y609600D01*
X848045Y607120D01*
X849002Y604809D01*
X850525Y602825D01*
X852509Y601302D01*
X854820Y600345D01*
X857300Y600018D01*
X859780Y600345D01*
X862091Y601302D01*
X864075Y602825D01*
X865598Y604809D01*
X866555Y607120D01*
X866882Y609600D01*
X866555Y612080D01*
X865598Y614391D01*
X864075Y616375D01*
X862091Y617898D01*
X859780Y618856D01*
X857300Y619182D01*
D02*
G37*
G36*
X806500D02*
X804020Y618856D01*
X801709Y617898D01*
X799725Y616375D01*
X798202Y614391D01*
X797245Y612080D01*
X796918Y609600D01*
X797245Y607120D01*
X798202Y604809D01*
X799725Y602825D01*
X801709Y601302D01*
X804020Y600345D01*
X806500Y600018D01*
X808980Y600345D01*
X811291Y601302D01*
X813276Y602825D01*
X814798Y604809D01*
X815755Y607120D01*
X816082Y609600D01*
X815755Y612080D01*
X814798Y614391D01*
X813276Y616375D01*
X811291Y617898D01*
X808980Y618856D01*
X806500Y619182D01*
D02*
G37*
G36*
X831900D02*
X829420Y618856D01*
X827109Y617898D01*
X825125Y616375D01*
X823602Y614391D01*
X822645Y612080D01*
X822318Y609600D01*
X822645Y607120D01*
X823602Y604809D01*
X825125Y602825D01*
X827109Y601302D01*
X829420Y600345D01*
X831900Y600018D01*
X834380Y600345D01*
X836691Y601302D01*
X838676Y602825D01*
X840198Y604809D01*
X841155Y607120D01*
X841482Y609600D01*
X841155Y612080D01*
X840198Y614391D01*
X838676Y616375D01*
X836691Y617898D01*
X834380Y618856D01*
X831900Y619182D01*
D02*
G37*
G36*
X857300Y644582D02*
X854820Y644256D01*
X852509Y643298D01*
X850525Y641775D01*
X849002Y639791D01*
X848045Y637480D01*
X847718Y635000D01*
X848045Y632520D01*
X849002Y630209D01*
X850525Y628224D01*
X852509Y626702D01*
X854820Y625745D01*
X857300Y625418D01*
X859780Y625745D01*
X862091Y626702D01*
X864075Y628224D01*
X865598Y630209D01*
X866555Y632520D01*
X866882Y635000D01*
X866555Y637480D01*
X865598Y639791D01*
X864075Y641775D01*
X862091Y643298D01*
X859780Y644256D01*
X857300Y644582D01*
D02*
G37*
G36*
X781100Y669982D02*
X778620Y669656D01*
X776309Y668698D01*
X774325Y667176D01*
X772802Y665191D01*
X771845Y662880D01*
X771518Y660400D01*
X771845Y657920D01*
X772802Y655609D01*
X774325Y653624D01*
X776309Y652102D01*
X778620Y651144D01*
X781100Y650818D01*
X783580Y651144D01*
X785891Y652102D01*
X787876Y653624D01*
X789398Y655609D01*
X790356Y657920D01*
X790682Y660400D01*
X790356Y662880D01*
X789398Y665191D01*
X787876Y667176D01*
X785891Y668698D01*
X783580Y669656D01*
X781100Y669982D01*
D02*
G37*
G36*
X831900Y644582D02*
X829420Y644256D01*
X827109Y643298D01*
X825125Y641775D01*
X823602Y639791D01*
X822645Y637480D01*
X822318Y635000D01*
X822645Y632520D01*
X823602Y630209D01*
X825125Y628224D01*
X827109Y626702D01*
X829420Y625745D01*
X831900Y625418D01*
X834380Y625745D01*
X836691Y626702D01*
X838676Y628224D01*
X840198Y630209D01*
X841155Y632520D01*
X841482Y635000D01*
X841155Y637480D01*
X840198Y639791D01*
X838676Y641775D01*
X836691Y643298D01*
X834380Y644256D01*
X831900Y644582D01*
D02*
G37*
G36*
X781100D02*
X778620Y644256D01*
X776309Y643298D01*
X774325Y641775D01*
X772802Y639791D01*
X771845Y637480D01*
X771518Y635000D01*
X771845Y632520D01*
X772802Y630209D01*
X774325Y628224D01*
X776309Y626702D01*
X778620Y625745D01*
X781100Y625418D01*
X783580Y625745D01*
X785891Y626702D01*
X787876Y628224D01*
X789398Y630209D01*
X790356Y632520D01*
X790682Y635000D01*
X790356Y637480D01*
X789398Y639791D01*
X787876Y641775D01*
X785891Y643298D01*
X783580Y644256D01*
X781100Y644582D01*
D02*
G37*
G36*
X806500D02*
X804020Y644256D01*
X801709Y643298D01*
X799725Y641775D01*
X798202Y639791D01*
X797245Y637480D01*
X796918Y635000D01*
X797245Y632520D01*
X798202Y630209D01*
X799725Y628224D01*
X801709Y626702D01*
X804020Y625745D01*
X806500Y625418D01*
X808980Y625745D01*
X811291Y626702D01*
X813276Y628224D01*
X814798Y630209D01*
X815755Y632520D01*
X816082Y635000D01*
X815755Y637480D01*
X814798Y639791D01*
X813276Y641775D01*
X811291Y643298D01*
X808980Y644256D01*
X806500Y644582D01*
D02*
G37*
G36*
X440771Y765596D02*
X438430Y765130D01*
X436446Y763804D01*
X435120Y761820D01*
X434654Y759479D01*
X435120Y757137D01*
X436446Y755153D01*
X438430Y753827D01*
X440771Y753361D01*
X443113Y753827D01*
X445097Y755153D01*
X446423Y757137D01*
X446889Y759479D01*
X446423Y761820D01*
X445097Y763804D01*
X443113Y765130D01*
X440771Y765596D01*
D02*
G37*
G36*
X221500Y776117D02*
X219159Y775652D01*
X217174Y774326D01*
X215848Y772341D01*
X215382Y770000D01*
X215848Y767659D01*
X217174Y765674D01*
X219159Y764348D01*
X221500Y763883D01*
X223841Y764348D01*
X225826Y765674D01*
X227152Y767659D01*
X227617Y770000D01*
X227152Y772341D01*
X225826Y774326D01*
X223841Y775652D01*
X221500Y776117D01*
D02*
G37*
G36*
X173000Y765117D02*
X170659Y764652D01*
X168674Y763326D01*
X167348Y761341D01*
X166882Y759000D01*
X167348Y756659D01*
X168674Y754674D01*
X170659Y753348D01*
X173000Y752883D01*
X175341Y753348D01*
X177326Y754674D01*
X178652Y756659D01*
X179118Y759000D01*
X178652Y761341D01*
X177326Y763326D01*
X175341Y764652D01*
X173000Y765117D01*
D02*
G37*
G36*
X414500Y764617D02*
X412159Y764152D01*
X410174Y762826D01*
X408848Y760841D01*
X408382Y758500D01*
X408848Y756159D01*
X410174Y754174D01*
X412159Y752848D01*
X414500Y752383D01*
X416841Y752848D01*
X418826Y754174D01*
X420152Y756159D01*
X420617Y758500D01*
X420152Y760841D01*
X418826Y762826D01*
X416841Y764152D01*
X414500Y764617D01*
D02*
G37*
G36*
X145750Y764867D02*
X143409Y764402D01*
X141424Y763076D01*
X140098Y761091D01*
X139633Y758750D01*
X140098Y756409D01*
X141424Y754424D01*
X143409Y753098D01*
X145750Y752633D01*
X148091Y753098D01*
X150076Y754424D01*
X151402Y756409D01*
X151868Y758750D01*
X151402Y761091D01*
X150076Y763076D01*
X148091Y764402D01*
X145750Y764867D01*
D02*
G37*
G36*
X525026Y801108D02*
X522937Y800833D01*
X520991Y800027D01*
X519320Y798744D01*
X518038Y797073D01*
X517232Y795127D01*
X516957Y793039D01*
X517232Y790950D01*
X518038Y789004D01*
X519320Y787333D01*
X520991Y786051D01*
X522937Y785245D01*
X525026Y784970D01*
X527114Y785245D01*
X529060Y786051D01*
X530731Y787333D01*
X532014Y789004D01*
X532820Y790950D01*
X533095Y793039D01*
X532820Y795127D01*
X532014Y797073D01*
X530731Y798744D01*
X529060Y800027D01*
X527114Y800833D01*
X525026Y801108D01*
D02*
G37*
G36*
X207250Y797618D02*
X204909Y797152D01*
X202924Y795826D01*
X201598Y793841D01*
X201132Y791500D01*
X201598Y789159D01*
X202924Y787174D01*
X204909Y785848D01*
X207250Y785383D01*
X209591Y785848D01*
X211576Y787174D01*
X212902Y789159D01*
X213367Y791500D01*
X212902Y793841D01*
X211576Y795826D01*
X209591Y797152D01*
X207250Y797618D01*
D02*
G37*
G36*
X751750Y792117D02*
X743250D01*
X741993Y791868D01*
X734250D01*
X731909Y791402D01*
X729924Y790076D01*
X728598Y788091D01*
X728133Y785750D01*
X728598Y783409D01*
X729924Y781424D01*
X731909Y780098D01*
X734250Y779632D01*
X743000D01*
X744257Y779883D01*
X751750D01*
X754091Y780348D01*
X756076Y781674D01*
X757402Y783659D01*
X757868Y786000D01*
X757402Y788341D01*
X756076Y790326D01*
X754091Y791652D01*
X751750Y792117D01*
D02*
G37*
G36*
X304750Y776118D02*
X302409Y775652D01*
X300424Y774326D01*
X299098Y772341D01*
X298633Y770000D01*
X299098Y767659D01*
X300424Y765674D01*
X302409Y764348D01*
X304750Y763883D01*
X307091Y764348D01*
X309076Y765674D01*
X310402Y767659D01*
X310868Y770000D01*
X310402Y772341D01*
X309076Y774326D01*
X307091Y775652D01*
X304750Y776118D01*
D02*
G37*
G36*
X381750Y798617D02*
X379409Y798152D01*
X377424Y796826D01*
X376098Y794841D01*
X375633Y792500D01*
X376098Y790159D01*
X377424Y788174D01*
X379409Y786848D01*
X381750Y786383D01*
X382088Y786450D01*
X384076Y785029D01*
X384348Y783659D01*
X385674Y781674D01*
X387659Y780348D01*
X390000Y779883D01*
X392341Y780348D01*
X394326Y781674D01*
X395118Y782860D01*
X395816Y782966D01*
X397359Y782769D01*
X398424Y781174D01*
X400409Y779848D01*
X402750Y779382D01*
X405091Y779848D01*
X407076Y781174D01*
X408402Y783159D01*
X408867Y785500D01*
X408402Y787841D01*
X407076Y789826D01*
X405091Y791152D01*
X402750Y791618D01*
X400409Y791152D01*
X398424Y789826D01*
X397632Y788640D01*
X396934Y788534D01*
X395391Y788731D01*
X394326Y790326D01*
X392341Y791652D01*
X390000Y792117D01*
X389662Y792050D01*
X387674Y793471D01*
X387402Y794841D01*
X386076Y796826D01*
X384091Y798152D01*
X381750Y798617D01*
D02*
G37*
G36*
X307500Y759867D02*
X305159Y759402D01*
X303174Y758076D01*
X301848Y756091D01*
X301383Y753750D01*
X301848Y751409D01*
X303174Y749424D01*
X305159Y748098D01*
X307500Y747633D01*
X309841Y748098D01*
X311826Y749424D01*
X313152Y751409D01*
X313617Y753750D01*
X313152Y756091D01*
X311826Y758076D01*
X309841Y759402D01*
X307500Y759867D01*
D02*
G37*
G36*
X29000Y39118D02*
X26659Y38652D01*
X24674Y37326D01*
X23348Y35341D01*
X22882Y33000D01*
X23348Y30659D01*
X24674Y28674D01*
X26659Y27348D01*
X29000Y26883D01*
X31341Y27348D01*
X33326Y28674D01*
X34652Y30659D01*
X35117Y33000D01*
X34652Y35341D01*
X33326Y37326D01*
X31341Y38652D01*
X29000Y39118D01*
D02*
G37*
G36*
X733820Y733227D02*
X731479Y732762D01*
X729494Y731436D01*
X728168Y729451D01*
X727702Y727110D01*
X728168Y724769D01*
X729494Y722784D01*
X731479Y721458D01*
X733820Y720992D01*
X736161Y721458D01*
X738146Y722784D01*
X739472Y724769D01*
X739938Y727110D01*
X739472Y729451D01*
X738146Y731436D01*
X736161Y732762D01*
X733820Y733227D01*
D02*
G37*
G36*
X857300Y720782D02*
X854820Y720455D01*
X852509Y719498D01*
X850525Y717975D01*
X849002Y715991D01*
X848045Y713680D01*
X847718Y711200D01*
X848045Y708720D01*
X849002Y706409D01*
X850525Y704425D01*
X852509Y702902D01*
X854820Y701945D01*
X857300Y701618D01*
X859780Y701945D01*
X862091Y702902D01*
X864075Y704425D01*
X865598Y706409D01*
X866555Y708720D01*
X866882Y711200D01*
X866555Y713680D01*
X865598Y715991D01*
X864075Y717975D01*
X862091Y719498D01*
X859780Y720455D01*
X857300Y720782D01*
D02*
G37*
G36*
X806500D02*
X804020Y720455D01*
X801709Y719498D01*
X799725Y717975D01*
X798202Y715991D01*
X797245Y713680D01*
X796918Y711200D01*
X797245Y708720D01*
X798202Y706409D01*
X799725Y704425D01*
X801709Y702902D01*
X804020Y701945D01*
X806500Y701618D01*
X808980Y701945D01*
X811291Y702902D01*
X813276Y704425D01*
X814798Y706409D01*
X815755Y708720D01*
X816082Y711200D01*
X815755Y713680D01*
X814798Y715991D01*
X813276Y717975D01*
X811291Y719498D01*
X808980Y720455D01*
X806500Y720782D01*
D02*
G37*
G36*
X831900D02*
X829420Y720455D01*
X827109Y719498D01*
X825125Y717975D01*
X823602Y715991D01*
X822645Y713680D01*
X822318Y711200D01*
X822645Y708720D01*
X823602Y706409D01*
X825125Y704425D01*
X827109Y702902D01*
X829420Y701945D01*
X831900Y701618D01*
X834380Y701945D01*
X836691Y702902D01*
X838676Y704425D01*
X840198Y706409D01*
X841155Y708720D01*
X841482Y711200D01*
X841155Y713680D01*
X840198Y715991D01*
X838676Y717975D01*
X836691Y719498D01*
X834380Y720455D01*
X831900Y720782D01*
D02*
G37*
G36*
X287750Y759368D02*
X285409Y758902D01*
X283424Y757576D01*
X282098Y755591D01*
X281632Y753250D01*
X282098Y750909D01*
X283424Y748924D01*
X285409Y747598D01*
X287750Y747133D01*
X290091Y747598D01*
X292076Y748924D01*
X293402Y750909D01*
X293867Y753250D01*
X293402Y755591D01*
X292076Y757576D01*
X290091Y758902D01*
X287750Y759368D01*
D02*
G37*
G36*
X13500Y759867D02*
X11159Y759402D01*
X9174Y758076D01*
X7848Y756091D01*
X7383Y753750D01*
X7848Y751409D01*
X9174Y749424D01*
X11159Y748098D01*
X13500Y747633D01*
X15841Y748098D01*
X17826Y749424D01*
X19152Y751409D01*
X19618Y753750D01*
X19152Y756091D01*
X17826Y758076D01*
X15841Y759402D01*
X13500Y759867D01*
D02*
G37*
G36*
X557000Y759118D02*
X554659Y758652D01*
X552674Y757326D01*
X551348Y755341D01*
X550882Y753000D01*
X551348Y750659D01*
X552674Y748674D01*
X554659Y747348D01*
X557000Y746882D01*
X559341Y747348D01*
X561326Y748674D01*
X562652Y750659D01*
X563117Y753000D01*
X562652Y755341D01*
X561326Y757326D01*
X559341Y758652D01*
X557000Y759118D01*
D02*
G37*
G36*
X772500Y21367D02*
X770159Y20902D01*
X768174Y19576D01*
X766848Y17591D01*
X766383Y15250D01*
X766848Y12909D01*
X768174Y10924D01*
X770159Y9598D01*
X772500Y9133D01*
X774841Y9598D01*
X776826Y10924D01*
X778152Y12909D01*
X778617Y15250D01*
X778152Y17591D01*
X776826Y19576D01*
X774841Y20902D01*
X772500Y21367D01*
D02*
G37*
G36*
X751420Y733928D02*
X749079Y733462D01*
X747094Y732136D01*
X745768Y730151D01*
X745302Y727810D01*
X745768Y725469D01*
X747094Y723484D01*
X749079Y722158D01*
X751420Y721692D01*
X753761Y722158D01*
X755746Y723484D01*
X757072Y725469D01*
X757538Y727810D01*
X757072Y730151D01*
X755746Y732136D01*
X753761Y733462D01*
X751420Y733928D01*
D02*
G37*
G36*
X806500Y593782D02*
X804020Y593456D01*
X801709Y592498D01*
X799725Y590975D01*
X798202Y588991D01*
X797245Y586680D01*
X796918Y584200D01*
X797245Y581720D01*
X798202Y579409D01*
X799725Y577425D01*
X801709Y575902D01*
X804020Y574944D01*
X806500Y574618D01*
X808980Y574944D01*
X811291Y575902D01*
X813276Y577425D01*
X814798Y579409D01*
X815755Y581720D01*
X816082Y584200D01*
X815755Y586680D01*
X814798Y588991D01*
X813276Y590975D01*
X811291Y592498D01*
X808980Y593456D01*
X806500Y593782D01*
D02*
G37*
G36*
X97000Y781117D02*
X94659Y780652D01*
X92674Y779326D01*
X91348Y777341D01*
X90883Y775000D01*
X91180Y773505D01*
X39337Y721663D01*
X38674Y720670D01*
X38441Y719500D01*
X38441Y719500D01*
Y627517D01*
X26337Y615413D01*
X25674Y614421D01*
X25441Y613250D01*
X25441Y613250D01*
Y598250D01*
X25441Y598250D01*
X25674Y597080D01*
X26337Y596087D01*
X38441Y583983D01*
Y561750D01*
X38441Y561750D01*
X38674Y560579D01*
X39337Y559587D01*
X46837Y552087D01*
X46837Y552087D01*
X47829Y551424D01*
X49000Y551191D01*
X64233D01*
X69566Y545858D01*
Y494875D01*
X69566Y494875D01*
X69799Y493704D01*
X70462Y492712D01*
X87191Y475983D01*
Y434017D01*
X36837Y383663D01*
X36174Y382671D01*
X35941Y381500D01*
X35941Y381500D01*
Y349750D01*
X35941Y349750D01*
X36174Y348579D01*
X36837Y347587D01*
X74191Y310233D01*
Y203750D01*
X74191Y203750D01*
X74424Y202579D01*
X75087Y201587D01*
X97837Y178837D01*
X97837Y178837D01*
X98829Y178174D01*
X100000Y177941D01*
X121250D01*
X121250Y177941D01*
X122421Y178174D01*
X123413Y178837D01*
X127506Y182930D01*
X129000Y182633D01*
X131341Y183098D01*
X133326Y184424D01*
X134652Y186409D01*
X135118Y188750D01*
X134652Y191091D01*
X133326Y193076D01*
X131341Y194402D01*
X129000Y194867D01*
X126659Y194402D01*
X124674Y193076D01*
X123348Y191091D01*
X122882Y188750D01*
X123180Y187255D01*
X119983Y184059D01*
X101267D01*
X80309Y205017D01*
Y311500D01*
X80309Y311500D01*
X80076Y312670D01*
X79413Y313663D01*
X79413Y313663D01*
X42059Y351017D01*
Y380233D01*
X92413Y430587D01*
X92413Y430587D01*
X93076Y431580D01*
X93309Y432750D01*
X93309Y432750D01*
Y473502D01*
X95157Y474268D01*
X108691Y460733D01*
Y376750D01*
X108691Y376750D01*
X108924Y375579D01*
X109587Y374587D01*
X123941Y360233D01*
Y348923D01*
X122674Y348076D01*
X121348Y346091D01*
X120882Y343750D01*
X121268Y341809D01*
X120195Y339809D01*
X117250D01*
X117250Y339809D01*
X116080Y339576D01*
X115087Y338913D01*
X115087Y338913D01*
X87837Y311663D01*
X87174Y310671D01*
X86941Y309500D01*
X86941Y309500D01*
Y214922D01*
X85674Y214076D01*
X84348Y212091D01*
X83883Y209750D01*
X84348Y207409D01*
X85674Y205424D01*
X87659Y204098D01*
X90000Y203633D01*
X92341Y204098D01*
X94326Y205424D01*
X95652Y207409D01*
X96117Y209750D01*
X95652Y212091D01*
X94326Y214076D01*
X93059Y214922D01*
Y308233D01*
X118421Y333595D01*
X120408Y333428D01*
X121333Y331691D01*
X120598Y330591D01*
X120132Y328250D01*
X120598Y325909D01*
X121525Y324521D01*
X121802Y323231D01*
X121545Y321772D01*
X120651Y320433D01*
X120185Y318092D01*
X120651Y315750D01*
X121515Y314457D01*
X121797Y312989D01*
X121494Y311683D01*
X120598Y310341D01*
X120132Y308000D01*
X120598Y305659D01*
X121924Y303674D01*
Y302473D01*
X121674Y302306D01*
X120348Y300321D01*
X119882Y297980D01*
X120348Y295639D01*
X121292Y294226D01*
X121534Y292865D01*
X121292Y291504D01*
X120348Y290091D01*
X119882Y287750D01*
X120348Y285409D01*
X121674Y283424D01*
X123230Y282384D01*
X123702Y281773D01*
X123938Y280003D01*
X123799Y279795D01*
X123566Y278625D01*
X123566Y278625D01*
Y276423D01*
X121924Y275326D01*
X120598Y273341D01*
X120133Y271000D01*
X120598Y268659D01*
X121924Y266674D01*
X123909Y265348D01*
X126250Y264882D01*
X128591Y265348D01*
X130576Y266674D01*
X130922Y267193D01*
X133328D01*
X133674Y266674D01*
X135659Y265348D01*
X138000Y264883D01*
X140341Y265348D01*
X142326Y266674D01*
X143652Y268659D01*
X144117Y271000D01*
X143652Y273341D01*
X142326Y275326D01*
X140727Y276394D01*
Y281651D01*
X172267Y313191D01*
X174502D01*
X175268Y311343D01*
X172337Y308413D01*
X171674Y307421D01*
X171441Y306250D01*
X171441Y306250D01*
Y297172D01*
X170174Y296326D01*
X168848Y294341D01*
X168382Y292000D01*
X168848Y289659D01*
X170174Y287674D01*
X172159Y286348D01*
X174500Y285882D01*
X174781Y285652D01*
Y195425D01*
X172934Y194660D01*
X168817Y198777D01*
Y201333D01*
X170076Y202174D01*
X171402Y204159D01*
X171868Y206500D01*
X171402Y208841D01*
X170076Y210826D01*
X168091Y212152D01*
X165750Y212617D01*
X163409Y212152D01*
X161424Y210826D01*
X160098Y208841D01*
X159633Y206500D01*
X160098Y204159D01*
X161424Y202174D01*
X162699Y201322D01*
Y197508D01*
X162932Y196338D01*
X163595Y195345D01*
X163600Y195342D01*
X169941Y189001D01*
Y186320D01*
X167941Y185251D01*
X167341Y185652D01*
X165000Y186117D01*
X162659Y185652D01*
X162112Y185287D01*
X161635Y185530D01*
X160491Y186609D01*
X160868Y188500D01*
X160402Y190841D01*
X159076Y192826D01*
X157091Y194152D01*
X154750Y194618D01*
X152409Y194152D01*
X150424Y192826D01*
X149098Y190841D01*
X148632Y188500D01*
X149098Y186159D01*
X150424Y184174D01*
X152409Y182848D01*
X154750Y182383D01*
X157091Y182848D01*
X157638Y183213D01*
X158115Y182970D01*
X159259Y181891D01*
X158883Y180000D01*
X159329Y177755D01*
X145587Y164013D01*
X144924Y163021D01*
X144691Y161850D01*
X144691Y161850D01*
Y89840D01*
X142691Y89643D01*
X142652Y89841D01*
X141326Y91826D01*
X139341Y93152D01*
X137000Y93617D01*
X134659Y93152D01*
X132674Y91826D01*
X131348Y89841D01*
X130883Y87500D01*
X131348Y85159D01*
X132674Y83174D01*
X134659Y81848D01*
X137000Y81383D01*
X139341Y81848D01*
X141326Y83174D01*
X142652Y85159D01*
X142691Y85357D01*
X144691Y85160D01*
Y79654D01*
X142691Y78585D01*
X142591Y78652D01*
X140250Y79117D01*
X137909Y78652D01*
X135924Y77326D01*
X134598Y75341D01*
X134132Y73000D01*
X134598Y70659D01*
X135924Y68674D01*
X137909Y67348D01*
X140250Y66883D01*
X142591Y67348D01*
X142691Y67415D01*
X144353Y66527D01*
X144530Y64505D01*
X141587Y61562D01*
X140924Y60570D01*
X140691Y59399D01*
X140691Y59399D01*
Y37851D01*
X140691Y37850D01*
X140924Y36680D01*
X141587Y35688D01*
X144691Y32583D01*
Y26760D01*
X142691Y26153D01*
X142576Y26326D01*
X140591Y27652D01*
X138250Y28117D01*
X135909Y27652D01*
X133924Y26326D01*
X133128Y25134D01*
X130872D01*
X130076Y26326D01*
X128091Y27652D01*
X125750Y28117D01*
X123409Y27652D01*
X121424Y26326D01*
X120628Y25134D01*
X118372D01*
X117576Y26326D01*
X115591Y27652D01*
X113250Y28117D01*
X110909Y27652D01*
X108924Y26326D01*
X108128Y25134D01*
X105872D01*
X105076Y26326D01*
X103091Y27652D01*
X100750Y28117D01*
X98409Y27652D01*
X96424Y26326D01*
X95098Y24341D01*
X94632Y22000D01*
X95098Y19659D01*
X96424Y17674D01*
X98409Y16348D01*
X100750Y15883D01*
X103091Y16348D01*
X105076Y17674D01*
X105872Y18866D01*
X108128D01*
X108924Y17674D01*
X110909Y16348D01*
X113250Y15883D01*
X115591Y16348D01*
X117576Y17674D01*
X118372Y18866D01*
X120628D01*
X121424Y17674D01*
X123409Y16348D01*
X125750Y15883D01*
X128091Y16348D01*
X130076Y17674D01*
X130872Y18866D01*
X133128D01*
X133924Y17674D01*
X135909Y16348D01*
X138250Y15882D01*
X140591Y16348D01*
X142576Y17674D01*
X142691Y17847D01*
X144691Y17240D01*
Y855D01*
X144348Y341D01*
X143883Y-2000D01*
X144348Y-4341D01*
X145674Y-6326D01*
X147659Y-7652D01*
X150000Y-8117D01*
X150354Y-8047D01*
X151557Y-9847D01*
X151348Y-10159D01*
X150883Y-12500D01*
X151176Y-13978D01*
X150699Y-15323D01*
X149740Y-16034D01*
X148159Y-16348D01*
X146174Y-17674D01*
X144848Y-19659D01*
X144382Y-22000D01*
X144848Y-24341D01*
X146174Y-26326D01*
X148159Y-27652D01*
X150500Y-28117D01*
X151236Y-27971D01*
X151754Y-28353D01*
X152738Y-29711D01*
X152382Y-31500D01*
X152848Y-33841D01*
X154174Y-35826D01*
X156159Y-37152D01*
X158500Y-37617D01*
X160841Y-37152D01*
X162826Y-35826D01*
X164152Y-33841D01*
X164618Y-31500D01*
X164320Y-30006D01*
X173623Y-20703D01*
X173623Y-20703D01*
X174286Y-19711D01*
X174519Y-18540D01*
X174519Y-18540D01*
Y69373D01*
X176519Y70442D01*
X176659Y70348D01*
X179000Y69882D01*
X181341Y70348D01*
X183326Y71674D01*
X184652Y73659D01*
X185117Y76000D01*
X184820Y77495D01*
X191093Y83768D01*
X192941Y83002D01*
Y65267D01*
X181837Y54163D01*
X181174Y53170D01*
X180941Y52000D01*
X180941Y52000D01*
Y23172D01*
X179674Y22326D01*
X178348Y20341D01*
X177882Y18000D01*
X178348Y15659D01*
X179674Y13674D01*
X181659Y12348D01*
X184000Y11882D01*
X186341Y12348D01*
X188326Y13674D01*
X189652Y15659D01*
X190117Y18000D01*
X189652Y20341D01*
X188326Y22326D01*
X187059Y23172D01*
Y50733D01*
X198163Y61837D01*
X198163Y61837D01*
X198826Y62829D01*
X199059Y64000D01*
Y176383D01*
X210868Y188191D01*
X219500D01*
X219500Y188191D01*
X220671Y188424D01*
X221663Y189087D01*
X305913Y273337D01*
X306576Y274329D01*
X306809Y275500D01*
Y341814D01*
X308809Y342883D01*
X309758Y342249D01*
X312099Y341784D01*
X314440Y342249D01*
X316424Y343576D01*
X317751Y345560D01*
X318216Y347901D01*
X317751Y350242D01*
X316424Y352227D01*
X314440Y353553D01*
X312099Y354019D01*
X310297Y353661D01*
X308661Y354499D01*
X308566Y354581D01*
X309750Y355882D01*
X312091Y356348D01*
X314076Y357674D01*
X315402Y359659D01*
X315868Y362000D01*
X315402Y364341D01*
X314076Y366326D01*
X312430Y367425D01*
X311775Y369599D01*
X338618Y396441D01*
X362750D01*
X362750Y396441D01*
X363921Y396674D01*
X364913Y397337D01*
X395941Y428366D01*
X397941Y427537D01*
Y423750D01*
X397941Y423750D01*
X398174Y422579D01*
X398837Y421587D01*
X401191Y419233D01*
Y411767D01*
X374733Y385309D01*
X355172D01*
X354326Y386576D01*
X352341Y387902D01*
X350000Y388368D01*
X347659Y387902D01*
X345674Y386576D01*
X344348Y384591D01*
X343882Y382250D01*
X344348Y379909D01*
X345674Y377924D01*
X347659Y376598D01*
X350000Y376133D01*
X352341Y376598D01*
X354326Y377924D01*
X355172Y379191D01*
X375787D01*
X376189Y378694D01*
X376719Y377295D01*
X360587Y361163D01*
X359924Y360171D01*
X359691Y359000D01*
X359691Y359000D01*
Y355384D01*
X358393Y354822D01*
X357691Y354666D01*
X355841Y355902D01*
X353500Y356367D01*
X351159Y355902D01*
X349174Y354576D01*
X347848Y352591D01*
X347383Y350250D01*
X347680Y348755D01*
X339087Y340163D01*
X338424Y339170D01*
X338191Y338000D01*
X338191Y338000D01*
Y293517D01*
X300587Y255913D01*
X299924Y254921D01*
X299691Y253750D01*
X299691Y253750D01*
Y83517D01*
X290213Y74039D01*
X261250D01*
X260470Y73884D01*
X259808Y73442D01*
X259366Y72780D01*
X259211Y72000D01*
Y56750D01*
X259366Y55970D01*
X259808Y55308D01*
X260470Y54866D01*
X261250Y54711D01*
X292250D01*
X293030Y54866D01*
X293692Y55308D01*
X294134Y55970D01*
X294289Y56750D01*
Y69463D01*
X304913Y80087D01*
X305576Y81080D01*
X305809Y82250D01*
X305809Y82250D01*
Y252483D01*
X343413Y290087D01*
X343413Y290087D01*
X344076Y291079D01*
X344309Y292250D01*
Y336733D01*
X350612Y343036D01*
X350892Y342966D01*
X351505Y340751D01*
X350087Y339333D01*
X349424Y338341D01*
X349191Y337170D01*
X349191Y337170D01*
Y235672D01*
X347924Y234826D01*
X346598Y232841D01*
X346133Y230500D01*
X346598Y228159D01*
X347924Y226174D01*
X349909Y224848D01*
X352250Y224382D01*
X354591Y224848D01*
X356426Y226074D01*
X357185Y225900D01*
X358426Y225343D01*
Y202516D01*
X358426Y202516D01*
X358658Y201345D01*
X359322Y200353D01*
X365180Y194494D01*
X364883Y193000D01*
X365348Y190659D01*
X366674Y188674D01*
X368659Y187348D01*
X371000Y186882D01*
X373341Y187348D01*
X373481Y187442D01*
X375481Y186373D01*
Y85460D01*
X375481Y85460D01*
X375714Y84289D01*
X376377Y83297D01*
X455010Y4665D01*
X454712Y3170D01*
X455178Y829D01*
X456504Y-1156D01*
X458489Y-2482D01*
X460830Y-2948D01*
X463171Y-2482D01*
X465156Y-1156D01*
X466482Y829D01*
X466948Y3170D01*
X466482Y5511D01*
X465156Y7496D01*
X463171Y8822D01*
X460830Y9288D01*
X459336Y8990D01*
X381599Y86727D01*
Y198663D01*
X381366Y199834D01*
X380703Y200826D01*
X380703Y200826D01*
X368559Y212970D01*
Y336233D01*
X373191Y340865D01*
X375191Y340037D01*
Y281290D01*
X375191Y281290D01*
X375424Y280119D01*
X376087Y279127D01*
X391941Y263273D01*
Y110000D01*
X391941Y110000D01*
X392174Y108829D01*
X392837Y107837D01*
X437461Y63213D01*
Y48500D01*
X437616Y47720D01*
X438058Y47058D01*
X438720Y46616D01*
X439500Y46461D01*
X464500D01*
X465280Y46616D01*
X465942Y47058D01*
X466384Y47720D01*
X466539Y48500D01*
Y65750D01*
X466384Y66530D01*
X465942Y67192D01*
X465280Y67634D01*
X464500Y67789D01*
X441537D01*
X398059Y111267D01*
Y264540D01*
X398059Y264540D01*
X397826Y265711D01*
X397163Y266703D01*
X397163Y266703D01*
X381309Y282557D01*
Y347983D01*
X386255Y352930D01*
X387750Y352632D01*
X390091Y353098D01*
X392076Y354424D01*
X393402Y356409D01*
X393867Y358750D01*
X393402Y361091D01*
X392076Y363076D01*
X390091Y364402D01*
X389436Y364532D01*
X388778Y366702D01*
X422462Y400386D01*
X424462Y399558D01*
Y345480D01*
X424462Y345479D01*
X424695Y344309D01*
X425358Y343316D01*
X471401Y297273D01*
Y233120D01*
X471401Y233120D01*
X471634Y231949D01*
X472297Y230957D01*
X502941Y200312D01*
Y157000D01*
X502941Y157000D01*
X503174Y155829D01*
X503837Y154837D01*
X541941Y116733D01*
Y73172D01*
X540674Y72326D01*
X539348Y70341D01*
X538882Y68000D01*
X539348Y65659D01*
X540674Y63674D01*
X542659Y62348D01*
X545000Y61883D01*
X547341Y62348D01*
X549326Y63674D01*
X550652Y65659D01*
X551118Y68000D01*
X550652Y70341D01*
X549326Y72326D01*
X548059Y73172D01*
Y116787D01*
X550059Y117615D01*
X572941Y94733D01*
Y-4828D01*
X571674Y-5674D01*
X570348Y-7659D01*
X569883Y-10000D01*
X570348Y-12341D01*
X571674Y-14326D01*
X573659Y-15652D01*
X576000Y-16118D01*
X578341Y-15652D01*
X580326Y-14326D01*
X581652Y-12341D01*
X582118Y-10000D01*
X581652Y-7659D01*
X580326Y-5674D01*
X579059Y-4828D01*
Y94787D01*
X581059Y95616D01*
X617337Y59337D01*
X618329Y58674D01*
X619500Y58441D01*
X619500Y58441D01*
X734078D01*
X734924Y57174D01*
X736909Y55848D01*
X739250Y55382D01*
X741591Y55848D01*
X743576Y57174D01*
X744902Y59159D01*
X745368Y61500D01*
X744902Y63841D01*
X743576Y65826D01*
X741591Y67152D01*
X739250Y67618D01*
X736909Y67152D01*
X734924Y65826D01*
X734078Y64559D01*
X620767D01*
X534713Y150613D01*
X535478Y152461D01*
X556000D01*
X556780Y152616D01*
X557442Y153058D01*
X557884Y153720D01*
X558039Y154500D01*
Y164888D01*
X563826Y170674D01*
X565152Y172659D01*
X565617Y175000D01*
Y251250D01*
X565152Y253591D01*
X563826Y255576D01*
X542118Y277284D01*
Y343295D01*
X543965Y344060D01*
X547688Y340337D01*
X547688Y340337D01*
X548681Y339674D01*
X549851Y339441D01*
X567500D01*
X567500Y339441D01*
X568671Y339674D01*
X569663Y340337D01*
X579663Y350337D01*
X580326Y351329D01*
X580559Y352500D01*
X580559Y352500D01*
Y380000D01*
X580326Y381171D01*
X579663Y382163D01*
X579663Y382163D01*
X572163Y389663D01*
X571171Y390326D01*
X570000Y390559D01*
X570000Y390559D01*
X560172D01*
X559326Y391826D01*
X557341Y393152D01*
X555000Y393618D01*
X552659Y393152D01*
X550674Y391826D01*
X549348Y389841D01*
X548882Y387500D01*
X549348Y385159D01*
X550674Y383174D01*
X552659Y381848D01*
X555000Y381382D01*
X557341Y381848D01*
X559326Y383174D01*
X560172Y384441D01*
X568733D01*
X574441Y378733D01*
Y365732D01*
X572441Y364667D01*
X571341Y365402D01*
X569000Y365868D01*
X567505Y365570D01*
X562513Y370563D01*
X561521Y371226D01*
X560350Y371459D01*
X560350Y371459D01*
X531774D01*
X515953Y387280D01*
X516781Y389280D01*
X533000D01*
Y408280D01*
X514000D01*
Y393653D01*
X512000Y392620D01*
X511309Y393111D01*
Y436828D01*
X512576Y437674D01*
X513902Y439659D01*
X514368Y442000D01*
X513902Y444341D01*
X513501Y444941D01*
X514570Y446941D01*
X566427D01*
X575281Y438087D01*
X575281Y438087D01*
X576143Y437511D01*
X576294Y437363D01*
X577028Y435235D01*
X576598Y434591D01*
X576133Y432250D01*
X576598Y429909D01*
X577924Y427924D01*
X579909Y426598D01*
X582250Y426133D01*
X584591Y426598D01*
X586576Y427924D01*
X587902Y429909D01*
X588325Y432036D01*
X593530Y437241D01*
X595546Y436428D01*
X596704Y434696D01*
X598688Y433369D01*
X601029Y432904D01*
X603370Y433369D01*
X605355Y434696D01*
X606605Y436566D01*
X682358D01*
X688467Y430457D01*
X688258Y429083D01*
X686266Y427765D01*
X685750Y427868D01*
X683409Y427402D01*
X681424Y426076D01*
X680098Y424091D01*
X679632Y421750D01*
X680098Y419409D01*
X681424Y417424D01*
X683409Y416098D01*
X685750Y415633D01*
X687244Y415930D01*
X696337Y406837D01*
X696337Y406837D01*
X697329Y406174D01*
X698500Y405941D01*
X698500Y405941D01*
X731500D01*
X731500Y405941D01*
X732671Y406174D01*
X733663Y406837D01*
X735093Y408268D01*
X736941Y407502D01*
Y344250D01*
X736941Y344250D01*
X737174Y343079D01*
X737837Y342087D01*
X741180Y338745D01*
X740882Y337250D01*
X741348Y334909D01*
X742674Y332924D01*
X744659Y331598D01*
X747000Y331133D01*
X749341Y331598D01*
X751326Y332924D01*
X752652Y334909D01*
X753118Y337250D01*
X752652Y339591D01*
X751326Y341576D01*
X749341Y342902D01*
X747000Y343368D01*
X745506Y343070D01*
X743059Y345517D01*
Y410613D01*
X745059Y411219D01*
X745924Y409924D01*
X747909Y408598D01*
X750250Y408133D01*
X752591Y408598D01*
X753940Y409499D01*
X755890Y408661D01*
X755940Y408613D01*
Y394000D01*
Y375988D01*
X753940Y374919D01*
X753591Y375152D01*
X751250Y375617D01*
X748909Y375152D01*
X746924Y373826D01*
X745598Y371841D01*
X745133Y369500D01*
X745598Y367159D01*
X746924Y365174D01*
X748909Y363848D01*
X751250Y363382D01*
X753591Y363848D01*
X753940Y364081D01*
X755940Y363012D01*
Y229925D01*
X752536Y226521D01*
X750520Y226255D01*
X748209Y225298D01*
X746225Y223775D01*
X744702Y221791D01*
X743745Y219480D01*
X743418Y217000D01*
X743745Y214520D01*
X744702Y212209D01*
X745584Y211059D01*
X744598Y209059D01*
X728604D01*
X695679Y241984D01*
X696337Y244154D01*
X697375Y244360D01*
X699360Y245686D01*
X700686Y247671D01*
X701152Y250012D01*
X700686Y252353D01*
X699360Y254338D01*
X697375Y255664D01*
X695034Y256130D01*
X692693Y255664D01*
X692553Y255570D01*
X690553Y256639D01*
Y283347D01*
X690553Y283347D01*
X690320Y284518D01*
X689657Y285510D01*
X658059Y317108D01*
Y348078D01*
X659326Y348924D01*
X659714Y349505D01*
X662119D01*
X662674Y348674D01*
X664659Y347348D01*
X667000Y346883D01*
X669341Y347348D01*
X671326Y348674D01*
X672652Y350659D01*
X673118Y353000D01*
X672652Y355341D01*
X671326Y357326D01*
X669341Y358652D01*
X667000Y359118D01*
X664659Y358652D01*
X662674Y357326D01*
X662286Y356745D01*
X659881D01*
X659326Y357576D01*
X657341Y358902D01*
X655000Y359367D01*
X652659Y358902D01*
X650674Y357576D01*
X650036Y356620D01*
X647660Y356576D01*
X647326Y357076D01*
X645341Y358402D01*
X643000Y358867D01*
X640659Y358402D01*
X638674Y357076D01*
X637348Y355091D01*
X636883Y352750D01*
X637348Y350409D01*
X638674Y348424D01*
X639941Y347578D01*
Y325761D01*
X638093Y324996D01*
X632115Y330975D01*
X632076Y331171D01*
X631413Y332163D01*
X631413Y332163D01*
X618570Y345005D01*
X618867Y346500D01*
X618402Y348841D01*
X617076Y350826D01*
X615091Y352152D01*
X612750Y352617D01*
X610409Y352152D01*
X608424Y350826D01*
X607098Y348841D01*
X606632Y346500D01*
X606751Y345903D01*
X604908Y344918D01*
X598309Y351517D01*
Y354733D01*
X600017Y356441D01*
X618233D01*
X621846Y352829D01*
X621382Y350500D01*
X621848Y348159D01*
X623174Y346174D01*
X625159Y344848D01*
X627500Y344383D01*
X629841Y344848D01*
X631826Y346174D01*
X633152Y348159D01*
X633618Y350500D01*
X633152Y352841D01*
X631826Y354826D01*
X629841Y356152D01*
X627500Y356618D01*
X626840Y356486D01*
X621663Y361663D01*
X620671Y362326D01*
X619500Y362559D01*
X619500Y362559D01*
X598750D01*
X598750Y362559D01*
X597579Y362326D01*
X596587Y361663D01*
X596587Y361663D01*
X593087Y358163D01*
X592424Y357170D01*
X592191Y356000D01*
X592191Y356000D01*
Y350250D01*
X592191Y350250D01*
X592424Y349080D01*
X593087Y348087D01*
X648191Y292983D01*
Y253624D01*
X646344Y252858D01*
X634582Y264620D01*
Y274649D01*
X635460Y274764D01*
X637771Y275722D01*
X639756Y277244D01*
X641278Y279229D01*
X642235Y281540D01*
X642562Y284020D01*
X642235Y286500D01*
X641278Y288811D01*
X639756Y290795D01*
X638546Y291724D01*
X638582Y292000D01*
X638256Y294480D01*
X637298Y296791D01*
X635775Y298776D01*
X633791Y300298D01*
X631480Y301255D01*
X629000Y301582D01*
X621000D01*
X618520Y301255D01*
X616209Y300298D01*
X614225Y298776D01*
X612702Y296791D01*
X611744Y294480D01*
X611418Y292000D01*
X611451Y291752D01*
X610205Y290795D01*
X608682Y288811D01*
X607725Y286500D01*
X607398Y284020D01*
X607725Y281540D01*
X608682Y279229D01*
X610205Y277244D01*
X612189Y275722D01*
X614500Y274764D01*
X615418Y274644D01*
Y260651D01*
X615745Y258171D01*
X616702Y255860D01*
X618224Y253875D01*
X649625Y222474D01*
X651610Y220952D01*
X653921Y219995D01*
X656401Y219668D01*
X660281D01*
X704131Y175818D01*
X703855Y175154D01*
X703004Y174117D01*
X703000Y174118D01*
X702606Y174039D01*
X694394D01*
X694000Y174118D01*
X693606Y174039D01*
X685394D01*
X685000Y174118D01*
X684606Y174039D01*
X680250D01*
X679470Y173884D01*
X678808Y173442D01*
X678366Y172780D01*
X678211Y172000D01*
Y154500D01*
X678366Y153720D01*
X678808Y153058D01*
X679470Y152616D01*
X680250Y152461D01*
X707250D01*
X708030Y152616D01*
X708692Y153058D01*
X709134Y153720D01*
X709289Y154500D01*
Y168047D01*
X711137Y168812D01*
X754168Y125781D01*
Y101431D01*
X752168Y100752D01*
X751735Y101315D01*
X749751Y102838D01*
X747440Y103795D01*
X744960Y104122D01*
X742480Y103795D01*
X740169Y102838D01*
X738185Y101315D01*
X736662Y99331D01*
X735704Y97020D01*
X735378Y94540D01*
X735704Y92060D01*
X736662Y89749D01*
X738185Y87765D01*
X740169Y86242D01*
X742480Y85285D01*
X744960Y84958D01*
X747440Y85285D01*
X749751Y86242D01*
X751735Y87765D01*
X752795Y89146D01*
X754713Y89083D01*
X755050Y88928D01*
X755452Y87959D01*
X756975Y85975D01*
X773524Y69425D01*
X775509Y67902D01*
X777820Y66944D01*
X780300Y66618D01*
X780700Y66671D01*
X781100Y66618D01*
X783580Y66944D01*
X785891Y67902D01*
X787876Y69425D01*
X789398Y71409D01*
X790356Y73720D01*
X790682Y76200D01*
X790356Y78680D01*
X789398Y80991D01*
X787876Y82975D01*
X785891Y84498D01*
X785313Y84737D01*
X779891Y90160D01*
X780825Y92054D01*
X781100Y92018D01*
X783580Y92345D01*
X785891Y93302D01*
X787876Y94824D01*
X789398Y96809D01*
X790356Y99120D01*
X790682Y101600D01*
X790356Y104080D01*
X789398Y106391D01*
X787876Y108376D01*
X785891Y109898D01*
X783580Y110856D01*
X781100Y111182D01*
X778620Y110856D01*
X776309Y109898D01*
X775332Y109149D01*
X773332Y110135D01*
Y118465D01*
X775332Y119452D01*
X776309Y118702D01*
X778620Y117745D01*
X781100Y117418D01*
X783580Y117745D01*
X785891Y118702D01*
X787876Y120225D01*
X789398Y122209D01*
X790356Y124520D01*
X790682Y127000D01*
X790356Y129480D01*
X789398Y131791D01*
X787876Y133775D01*
X785891Y135298D01*
X783580Y136256D01*
X781100Y136582D01*
X778620Y136256D01*
X776309Y135298D01*
X774481Y133895D01*
X774131Y133818D01*
X772168Y134251D01*
X772048Y134541D01*
X770526Y136525D01*
X721204Y185847D01*
X722374Y187506D01*
X724250Y187132D01*
X726591Y187598D01*
X728576Y188924D01*
X729902Y190909D01*
X730368Y193250D01*
X729902Y195591D01*
X729167Y196691D01*
X730232Y198691D01*
X757103D01*
X772976Y182818D01*
X772802Y182591D01*
X771845Y180280D01*
X771518Y177800D01*
X771845Y175320D01*
X772802Y173009D01*
X774325Y171024D01*
X776309Y169502D01*
X778620Y168545D01*
X781100Y168218D01*
X783580Y168545D01*
X785891Y169502D01*
X787876Y171024D01*
X789398Y173009D01*
X790356Y175320D01*
X790682Y177800D01*
X790356Y180280D01*
X789398Y182591D01*
X787876Y184575D01*
X785891Y186098D01*
X783580Y187055D01*
X781100Y187382D01*
X778620Y187055D01*
X777750Y186695D01*
X763352Y201094D01*
X764118Y202941D01*
X771552D01*
X771845Y200720D01*
X772802Y198409D01*
X774325Y196425D01*
X776309Y194902D01*
X778620Y193944D01*
X781100Y193618D01*
X783580Y193944D01*
X785891Y194902D01*
X787876Y196425D01*
X789398Y198409D01*
X790356Y200720D01*
X790682Y203200D01*
X790356Y205680D01*
X789398Y207991D01*
X787876Y209975D01*
X785891Y211498D01*
X783580Y212456D01*
X781100Y212782D01*
X778620Y212456D01*
X776309Y211498D01*
X774325Y209975D01*
X773621Y209059D01*
X761402D01*
X760416Y211059D01*
X761298Y212209D01*
X762255Y214520D01*
X762521Y216536D01*
X767992Y222008D01*
X769115Y223470D01*
X769820Y225173D01*
X771769Y225957D01*
X771934Y225905D01*
X772802Y223809D01*
X774325Y221824D01*
X776309Y220302D01*
X778620Y219345D01*
X781100Y219018D01*
X783580Y219345D01*
X785891Y220302D01*
X787876Y221824D01*
X789398Y223809D01*
X790356Y226120D01*
X790682Y228600D01*
X790356Y231080D01*
X789398Y233391D01*
X787876Y235375D01*
X785891Y236898D01*
X783580Y237855D01*
X781100Y238182D01*
X778620Y237855D01*
X776309Y236898D01*
X774325Y235375D01*
X772802Y233391D01*
X772060Y231601D01*
X770060Y231999D01*
Y250601D01*
X772060Y250999D01*
X772802Y249209D01*
X774325Y247225D01*
X776309Y245702D01*
X778620Y244744D01*
X781100Y244418D01*
X783580Y244744D01*
X785891Y245702D01*
X787876Y247225D01*
X789398Y249209D01*
X790356Y251520D01*
X790682Y254000D01*
X790356Y256480D01*
X789398Y258791D01*
X787876Y260776D01*
X785891Y262298D01*
X783580Y263256D01*
X781100Y263582D01*
X778620Y263256D01*
X776309Y262298D01*
X774325Y260776D01*
X772802Y258791D01*
X772060Y257001D01*
X770060Y257399D01*
Y276001D01*
X772060Y276399D01*
X772802Y274609D01*
X774325Y272624D01*
X776309Y271102D01*
X778620Y270145D01*
X781100Y269818D01*
X783580Y270145D01*
X785891Y271102D01*
X787876Y272624D01*
X789398Y274609D01*
X790356Y276920D01*
X790682Y279400D01*
X790356Y281880D01*
X789398Y284191D01*
X787876Y286175D01*
X785891Y287698D01*
X783580Y288655D01*
X781100Y288982D01*
X778620Y288655D01*
X776309Y287698D01*
X774325Y286175D01*
X772802Y284191D01*
X772060Y282401D01*
X770060Y282799D01*
Y301401D01*
X772060Y301799D01*
X772802Y300009D01*
X774325Y298025D01*
X776309Y296502D01*
X778620Y295544D01*
X781100Y295218D01*
X783580Y295544D01*
X785891Y296502D01*
X787876Y298025D01*
X789398Y300009D01*
X790356Y302320D01*
X790682Y304800D01*
X790356Y307280D01*
X789398Y309591D01*
X787876Y311575D01*
X785891Y313098D01*
X783580Y314056D01*
X781100Y314382D01*
X778620Y314056D01*
X776309Y313098D01*
X774325Y311575D01*
X772802Y309591D01*
X772060Y307801D01*
X770060Y308199D01*
Y326801D01*
X772060Y327199D01*
X772802Y325409D01*
X774325Y323425D01*
X776309Y321902D01*
X778620Y320945D01*
X781100Y320618D01*
X783580Y320945D01*
X785891Y321902D01*
X787876Y323425D01*
X789398Y325409D01*
X790356Y327720D01*
X790682Y330200D01*
X790356Y332680D01*
X789398Y334991D01*
X787876Y336975D01*
X785891Y338498D01*
X783580Y339455D01*
X781100Y339782D01*
X778620Y339455D01*
X776309Y338498D01*
X774325Y336975D01*
X772802Y334991D01*
X772060Y333201D01*
X770060Y333599D01*
Y352201D01*
X772060Y352599D01*
X772802Y350809D01*
X774325Y348825D01*
X776309Y347302D01*
X778620Y346344D01*
X781100Y346018D01*
X783580Y346344D01*
X785891Y347302D01*
X787876Y348825D01*
X789398Y350809D01*
X790356Y353120D01*
X790682Y355600D01*
X790356Y358080D01*
X789398Y360391D01*
X787876Y362375D01*
X785891Y363898D01*
X783580Y364855D01*
X781100Y365182D01*
X778620Y364855D01*
X776309Y363898D01*
X774325Y362375D01*
X772802Y360391D01*
X772060Y358601D01*
X770060Y358999D01*
Y377601D01*
X772060Y377999D01*
X772802Y376209D01*
X774325Y374225D01*
X776309Y372702D01*
X778620Y371744D01*
X781100Y371418D01*
X783580Y371744D01*
X785891Y372702D01*
X787876Y374225D01*
X789398Y376209D01*
X790356Y378520D01*
X790682Y381000D01*
X790356Y383480D01*
X789398Y385791D01*
X788385Y387112D01*
X789256Y389112D01*
X798344D01*
X799215Y387112D01*
X798202Y385791D01*
X797245Y383480D01*
X796918Y381000D01*
X797245Y378520D01*
X798202Y376209D01*
X799725Y374225D01*
X801709Y372702D01*
X804020Y371744D01*
X806500Y371418D01*
X808980Y371744D01*
X811291Y372702D01*
X813276Y374225D01*
X814798Y376209D01*
X815755Y378520D01*
X816082Y381000D01*
X815755Y383480D01*
X815224Y384763D01*
X815934Y386013D01*
X816563Y386640D01*
X820420D01*
X821971Y386844D01*
X822230Y386677D01*
X822644Y386262D01*
X823344Y385170D01*
X822645Y383480D01*
X822318Y381000D01*
X822645Y378520D01*
X823602Y376209D01*
X825125Y374225D01*
X827109Y372702D01*
X829420Y371744D01*
X831900Y371418D01*
X834380Y371744D01*
X836691Y372702D01*
X838676Y374225D01*
X840198Y376209D01*
X841155Y378520D01*
X841482Y381000D01*
X841155Y383480D01*
X840198Y385791D01*
X838676Y387775D01*
X836691Y389298D01*
X834380Y390256D01*
X831900Y390582D01*
X829845Y390311D01*
X829036Y391415D01*
X828808Y392103D01*
X833769Y397064D01*
X834380Y397145D01*
X836691Y398102D01*
X838304Y399340D01*
X850896D01*
X852509Y398102D01*
X854820Y397145D01*
X857300Y396818D01*
X859780Y397145D01*
X862091Y398102D01*
X864075Y399624D01*
X865598Y401609D01*
X866555Y403920D01*
X866882Y406400D01*
X866555Y408880D01*
X865598Y411191D01*
X864075Y413175D01*
X862091Y414698D01*
X859780Y415656D01*
X857300Y415982D01*
X854820Y415656D01*
X852509Y414698D01*
X850896Y413460D01*
X838304D01*
X836691Y414698D01*
X834380Y415656D01*
X833769Y415736D01*
X828808Y420697D01*
X829036Y421385D01*
X829845Y422489D01*
X831900Y422218D01*
X834380Y422545D01*
X836691Y423502D01*
X838676Y425024D01*
X840198Y427009D01*
X841155Y429320D01*
X841482Y431800D01*
X841155Y434280D01*
X840198Y436591D01*
X838676Y438575D01*
X836691Y440098D01*
X834380Y441055D01*
X831900Y441382D01*
X829420Y441055D01*
X827109Y440098D01*
X825125Y438575D01*
X823602Y436591D01*
X822645Y434280D01*
X822318Y431800D01*
X822645Y429320D01*
X823344Y427630D01*
X822644Y426538D01*
X822230Y426123D01*
X821971Y425956D01*
X820420Y426160D01*
X816563D01*
X815934Y426787D01*
X815224Y428037D01*
X815755Y429320D01*
X816082Y431800D01*
X815755Y434280D01*
X814798Y436591D01*
X813276Y438575D01*
X811291Y440098D01*
X808980Y441055D01*
X806500Y441382D01*
X804020Y441055D01*
X801709Y440098D01*
X799725Y438575D01*
X798202Y436591D01*
X797245Y434280D01*
X796918Y431800D01*
X797245Y429320D01*
X798202Y427009D01*
X799215Y425688D01*
X798344Y423688D01*
X789256D01*
X788385Y425688D01*
X789398Y427009D01*
X790356Y429320D01*
X790682Y431800D01*
X790356Y434280D01*
X789398Y436591D01*
X787876Y438575D01*
X785891Y440098D01*
X783580Y441055D01*
X781100Y441382D01*
X778620Y441055D01*
X776309Y440098D01*
X774325Y438575D01*
X772802Y436591D01*
X771845Y434280D01*
X771518Y431800D01*
X771845Y429320D01*
X772802Y427009D01*
X773815Y425688D01*
X772944Y423688D01*
X767100D01*
X765344Y423339D01*
X763856Y422344D01*
X763505Y421994D01*
X763000Y422060D01*
X761173Y421820D01*
X759470Y421115D01*
X758008Y419992D01*
X757936Y419899D01*
X755421Y419907D01*
X755014Y420443D01*
X755064Y420655D01*
X755902Y421909D01*
X756367Y424250D01*
X755902Y426591D01*
X754576Y428576D01*
X752720Y429816D01*
X752417Y430168D01*
X751911Y431836D01*
X762163Y442087D01*
X762163Y442087D01*
X762826Y443079D01*
X763059Y444250D01*
X763059Y444250D01*
Y450750D01*
X762826Y451921D01*
X762163Y452913D01*
X762163Y452913D01*
X758163Y456913D01*
X757170Y457576D01*
X756000Y457809D01*
X756000Y457809D01*
X741500D01*
X741500Y457809D01*
X740330Y457576D01*
X739337Y456913D01*
X736337Y453913D01*
X733826Y454076D01*
X731841Y455402D01*
X729500Y455868D01*
X727159Y455402D01*
X725174Y454076D01*
X723848Y452091D01*
X723382Y449750D01*
X723848Y447409D01*
X725174Y445424D01*
X727159Y444098D01*
X729500Y443633D01*
X731841Y444098D01*
X733826Y445424D01*
X734672Y446691D01*
X736500D01*
X736500Y446691D01*
X737671Y446924D01*
X738663Y447587D01*
X742767Y451691D01*
X745364D01*
X745414Y451639D01*
X746250Y449691D01*
X745348Y448341D01*
X744883Y446000D01*
X745180Y444506D01*
X733837Y433163D01*
X733174Y432170D01*
X732941Y431000D01*
X732941Y431000D01*
Y421585D01*
X730941Y420978D01*
X730361Y421846D01*
X728376Y423172D01*
X726035Y423638D01*
X723694Y423172D01*
X721710Y421846D01*
X720384Y419861D01*
X719918Y417520D01*
X720384Y415179D01*
X721132Y414059D01*
X720084Y412059D01*
X699767D01*
X692533Y419293D01*
X692742Y420667D01*
X694734Y421985D01*
X695250Y421883D01*
X696728Y422176D01*
X698072Y421699D01*
X698784Y420740D01*
X699098Y419159D01*
X700424Y417174D01*
X702409Y415848D01*
X704750Y415382D01*
X707091Y415848D01*
X709076Y417174D01*
X710402Y419159D01*
X710867Y421500D01*
X710402Y423841D01*
X709076Y425826D01*
X707809Y426672D01*
Y487733D01*
X709546Y489471D01*
X709694Y489372D01*
X712035Y488907D01*
X714376Y489372D01*
X716360Y490698D01*
X717687Y492683D01*
X717896Y493736D01*
X718547Y494079D01*
X720069Y494410D01*
X721659Y493348D01*
X724000Y492882D01*
X726341Y493348D01*
X728326Y494674D01*
X729652Y496659D01*
X730117Y499000D01*
X729652Y501341D01*
X728326Y503326D01*
X726341Y504652D01*
X724000Y505117D01*
X721659Y504652D01*
X719674Y503326D01*
X718348Y501341D01*
X718161Y500399D01*
X716038Y499976D01*
X715913Y500163D01*
X714921Y500826D01*
X713750Y501059D01*
X713101Y500930D01*
X712035Y501142D01*
X710731Y500882D01*
X708456Y502071D01*
X708402Y502341D01*
X707076Y504326D01*
X705091Y505652D01*
X704893Y505691D01*
X705090Y507691D01*
X737983D01*
X750930Y494744D01*
X750632Y493250D01*
X751098Y490909D01*
X752424Y488924D01*
X754409Y487598D01*
X756750Y487132D01*
X759091Y487598D01*
X761076Y488924D01*
X762402Y490909D01*
X762868Y493250D01*
X762402Y495591D01*
X761076Y497576D01*
X759601Y498561D01*
X759594Y499943D01*
X759673Y500523D01*
X759735Y500694D01*
X761576Y501924D01*
X762902Y503909D01*
X763367Y506250D01*
X762902Y508591D01*
X761576Y510576D01*
X759591Y511902D01*
X757250Y512368D01*
X754909Y511902D01*
X752924Y510576D01*
X751598Y508591D01*
X751133Y506250D01*
X751189Y505965D01*
X749346Y504980D01*
X741413Y512913D01*
X740421Y513576D01*
X739250Y513809D01*
X739250Y513809D01*
X701750D01*
X700580Y513576D01*
X699587Y512913D01*
X699587Y512913D01*
X689587Y502913D01*
X688924Y501921D01*
X688691Y500750D01*
X688691Y500750D01*
Y487017D01*
X652608Y450934D01*
X652137Y450818D01*
X651877Y450894D01*
X651029Y453225D01*
X651152Y453409D01*
X651618Y455750D01*
X651152Y458091D01*
X649826Y460076D01*
X647841Y461402D01*
X645500Y461867D01*
X643159Y461402D01*
X641174Y460076D01*
X639848Y458091D01*
X639383Y455750D01*
X639848Y453409D01*
X640917Y451809D01*
X640466Y450424D01*
X640031Y449809D01*
X603054D01*
X602289Y451657D01*
X659144Y508512D01*
X660987Y507527D01*
X660882Y507000D01*
X661348Y504659D01*
X662674Y502674D01*
X664659Y501348D01*
X667000Y500882D01*
X669341Y501348D01*
X671326Y502674D01*
X672652Y504659D01*
X673118Y507000D01*
X672652Y509341D01*
X671326Y511326D01*
X669341Y512652D01*
X667000Y513117D01*
X664900Y512700D01*
X663931Y513223D01*
X663059Y513988D01*
Y516195D01*
X665059Y517269D01*
X667000Y516883D01*
X669341Y517348D01*
X671326Y518674D01*
X672652Y520659D01*
X673118Y523000D01*
X672652Y525341D01*
X671326Y527326D01*
X669341Y528652D01*
X667000Y529118D01*
X665059Y528731D01*
X663059Y529805D01*
Y558245D01*
X664076Y558924D01*
X665402Y560909D01*
X665867Y563250D01*
X665563Y564783D01*
X667406Y565769D01*
X669191Y563983D01*
Y556750D01*
X669191Y556750D01*
X669424Y555579D01*
X670087Y554587D01*
X676930Y547744D01*
X676633Y546250D01*
X677098Y543909D01*
X678424Y541924D01*
X680409Y540598D01*
X682750Y540132D01*
X685091Y540598D01*
X687076Y541924D01*
X688402Y543909D01*
X688867Y546250D01*
X688402Y548591D01*
X687076Y550576D01*
X685091Y551902D01*
X682750Y552368D01*
X681255Y552070D01*
X675309Y558017D01*
Y565250D01*
X675309Y565250D01*
X675076Y566421D01*
X674413Y567413D01*
X653384Y588441D01*
X654213Y590441D01*
X693250D01*
X693250Y590441D01*
X694420Y590674D01*
X695413Y591337D01*
X709663Y605587D01*
X711126Y605878D01*
X713110Y607204D01*
X713672Y608044D01*
X715672Y607437D01*
Y596541D01*
X713672Y595934D01*
X713076Y596826D01*
X711091Y598152D01*
X708750Y598618D01*
X706409Y598152D01*
X704424Y596826D01*
X703098Y594841D01*
X702633Y592500D01*
X703098Y590159D01*
X702841Y589615D01*
X701932Y588304D01*
X699909Y587902D01*
X697924Y586576D01*
X696598Y584591D01*
X696133Y582250D01*
X696598Y579909D01*
X697924Y577924D01*
X699909Y576598D01*
X702250Y576133D01*
X704591Y576598D01*
X706576Y577924D01*
X706741Y578172D01*
X711750D01*
X711750Y578172D01*
X713311Y578482D01*
X714634Y579366D01*
X722634Y587366D01*
X723518Y588689D01*
X723828Y590250D01*
Y761250D01*
X723828Y761250D01*
X723518Y762811D01*
X722634Y764134D01*
X722634Y764134D01*
X712884Y773884D01*
X711561Y774768D01*
X710000Y775078D01*
X710000Y775078D01*
X671010D01*
X669449Y774768D01*
X668126Y773884D01*
X668126Y773884D01*
X658952Y764709D01*
X658660Y764768D01*
X656319Y764302D01*
X654334Y762976D01*
X653008Y760991D01*
X652542Y758650D01*
X652600Y758358D01*
X632821Y738578D01*
X508189D01*
X503134Y743634D01*
X501811Y744518D01*
X500250Y744828D01*
X500250Y744828D01*
X408679D01*
X395379Y758128D01*
X395438Y758420D01*
X394972Y760761D01*
X393646Y762746D01*
X391661Y764072D01*
X389320Y764538D01*
X386979Y764072D01*
X384994Y762746D01*
X383668Y760761D01*
X383202Y758420D01*
X383260Y758128D01*
X363481Y738348D01*
X240169D01*
X238345Y740172D01*
X239331Y742016D01*
X240000Y741882D01*
X242341Y742348D01*
X244326Y743674D01*
X245652Y745659D01*
X246117Y748000D01*
X245652Y750341D01*
X244326Y752326D01*
X244332Y753190D01*
X244620Y754535D01*
X246326Y755674D01*
X247652Y757659D01*
X248118Y760000D01*
X247652Y762341D01*
X246326Y764326D01*
X244341Y765652D01*
X242000Y766117D01*
X239659Y765652D01*
X237674Y764326D01*
X236348Y762341D01*
X235882Y760000D01*
X236348Y757659D01*
X237674Y755674D01*
X237668Y754810D01*
X237380Y753465D01*
X235674Y752326D01*
X235035Y751368D01*
X233674Y750538D01*
X232489Y750885D01*
X231341Y751652D01*
X229000Y752117D01*
X226659Y751652D01*
X224674Y750326D01*
X223348Y748341D01*
X222882Y746000D01*
X223314Y743828D01*
X223257Y743338D01*
X222450Y741828D01*
X140219D01*
X123899Y758148D01*
X123958Y758440D01*
X123492Y760781D01*
X122166Y762766D01*
X120181Y764092D01*
X117840Y764557D01*
X115499Y764092D01*
X113514Y762766D01*
X112188Y760781D01*
X111722Y758440D01*
X111781Y758148D01*
X84116Y730484D01*
X83232Y729161D01*
X82922Y727600D01*
X82922Y727600D01*
Y618848D01*
X82922Y618848D01*
X82926Y618828D01*
Y607750D01*
Y571763D01*
X81078Y570998D01*
X57559Y594517D01*
Y602078D01*
X58826Y602924D01*
X60152Y604909D01*
X60617Y607250D01*
X60152Y609591D01*
X58826Y611576D01*
X56841Y612902D01*
X54500Y613368D01*
X52159Y612902D01*
X50174Y611576D01*
X48848Y609591D01*
X48578Y608231D01*
X47695Y607104D01*
X46426Y606834D01*
X45000Y607118D01*
X43574Y606834D01*
X42305Y607104D01*
X41422Y608231D01*
X41152Y609591D01*
X39826Y611576D01*
X37841Y612902D01*
X35727Y613322D01*
X35248Y614114D01*
X34854Y615278D01*
X43663Y624087D01*
X44326Y625079D01*
X44559Y626250D01*
Y718233D01*
X95506Y769180D01*
X97000Y768883D01*
X99341Y769348D01*
X101326Y770674D01*
X102652Y772659D01*
X103118Y775000D01*
X102652Y777341D01*
X101326Y779326D01*
X99341Y780652D01*
X97000Y781117D01*
D02*
G37*
G36*
X857300Y85782D02*
X854820Y85456D01*
X852509Y84498D01*
X850525Y82975D01*
X849002Y80991D01*
X848045Y78680D01*
X847718Y76200D01*
X848045Y73720D01*
X849002Y71409D01*
X850525Y69425D01*
X852509Y67902D01*
X854820Y66944D01*
X857300Y66618D01*
X859780Y66944D01*
X862091Y67902D01*
X864075Y69425D01*
X865598Y71409D01*
X866555Y73720D01*
X866882Y76200D01*
X866555Y78680D01*
X865598Y80991D01*
X864075Y82975D01*
X862091Y84498D01*
X859780Y85456D01*
X857300Y85782D01*
D02*
G37*
G36*
X781100Y593782D02*
X778620Y593456D01*
X776309Y592498D01*
X774325Y590975D01*
X772802Y588991D01*
X771845Y586680D01*
X771518Y584200D01*
X771845Y581720D01*
X772802Y579409D01*
X774325Y577425D01*
X776309Y575902D01*
X778620Y574944D01*
X781100Y574618D01*
X783580Y574944D01*
X785891Y575902D01*
X787876Y577425D01*
X789398Y579409D01*
X790356Y581720D01*
X790682Y584200D01*
X790356Y586680D01*
X789398Y588991D01*
X787876Y590975D01*
X785891Y592498D01*
X783580Y593456D01*
X781100Y593782D01*
D02*
G37*
G36*
X857300Y568382D02*
X854820Y568055D01*
X852509Y567098D01*
X850525Y565575D01*
X849002Y563591D01*
X848045Y561280D01*
X847718Y558800D01*
X848045Y556320D01*
X849002Y554009D01*
X850525Y552025D01*
X852509Y550502D01*
X854820Y549544D01*
X857300Y549218D01*
X859780Y549544D01*
X862091Y550502D01*
X864075Y552025D01*
X865598Y554009D01*
X866555Y556320D01*
X866882Y558800D01*
X866555Y561280D01*
X865598Y563591D01*
X864075Y565575D01*
X862091Y567098D01*
X859780Y568055D01*
X857300Y568382D01*
D02*
G37*
G36*
X95000Y93617D02*
X92659Y93152D01*
X90674Y91826D01*
X89828Y90559D01*
X74000D01*
X74000Y90559D01*
X72829Y90326D01*
X71837Y89663D01*
X71837Y89663D01*
X49837Y67663D01*
X49174Y66670D01*
X48941Y65500D01*
X48941Y65500D01*
Y57672D01*
X47674Y56826D01*
X46348Y54841D01*
X45883Y52500D01*
X46348Y50159D01*
X47674Y48174D01*
X49659Y46848D01*
X52000Y46382D01*
X54341Y46848D01*
X56326Y48174D01*
X57652Y50159D01*
X58117Y52500D01*
X57652Y54841D01*
X56326Y56826D01*
X55059Y57672D01*
Y64233D01*
X75267Y84441D01*
X89828D01*
X90674Y83174D01*
X92285Y82098D01*
X91341Y80402D01*
X89000Y80868D01*
X86659Y80402D01*
X84674Y79076D01*
X83348Y77091D01*
X82882Y74750D01*
X83348Y72409D01*
X84674Y70424D01*
X86659Y69098D01*
X89000Y68632D01*
X91341Y69098D01*
X93326Y70424D01*
X94652Y72409D01*
X95118Y74750D01*
X94652Y77091D01*
X93326Y79076D01*
X91715Y80152D01*
X92659Y81848D01*
X95000Y81383D01*
X97341Y81848D01*
X99326Y83174D01*
X100652Y85159D01*
X101117Y87500D01*
X100652Y89841D01*
X99326Y91826D01*
X97341Y93152D01*
X95000Y93617D01*
D02*
G37*
G36*
X10700Y575918D02*
X8359Y575452D01*
X6374Y574126D01*
X5048Y572141D01*
X4582Y569800D01*
X5048Y567459D01*
X6374Y565474D01*
X8359Y564148D01*
X10700Y563683D01*
X13041Y564148D01*
X15026Y565474D01*
X16352Y567459D01*
X16818Y569800D01*
X16352Y572141D01*
X15026Y574126D01*
X13041Y575452D01*
X10700Y575918D01*
D02*
G37*
G36*
X831900Y568382D02*
X829420Y568055D01*
X827109Y567098D01*
X825125Y565575D01*
X823602Y563591D01*
X822645Y561280D01*
X822318Y558800D01*
X822645Y556320D01*
X823602Y554009D01*
X825125Y552025D01*
X827109Y550502D01*
X829420Y549544D01*
X831900Y549218D01*
X834380Y549544D01*
X836691Y550502D01*
X838676Y552025D01*
X840198Y554009D01*
X841155Y556320D01*
X841482Y558800D01*
X841155Y561280D01*
X840198Y563591D01*
X838676Y565575D01*
X836691Y567098D01*
X834380Y568055D01*
X831900Y568382D01*
D02*
G37*
G36*
X857300Y593782D02*
X854820Y593456D01*
X852509Y592498D01*
X850525Y590975D01*
X849002Y588991D01*
X848045Y586680D01*
X847718Y584200D01*
X848045Y581720D01*
X849002Y579409D01*
X850525Y577425D01*
X852509Y575902D01*
X854820Y574944D01*
X857300Y574618D01*
X859780Y574944D01*
X862091Y575902D01*
X864075Y577425D01*
X865598Y579409D01*
X866555Y581720D01*
X866882Y584200D01*
X866555Y586680D01*
X865598Y588991D01*
X864075Y590975D01*
X862091Y592498D01*
X859780Y593456D01*
X857300Y593782D01*
D02*
G37*
G36*
X806500Y111182D02*
X804020Y110856D01*
X801709Y109898D01*
X799725Y108376D01*
X798202Y106391D01*
X797245Y104080D01*
X796918Y101600D01*
X797245Y99120D01*
X798202Y96809D01*
X799725Y94824D01*
X801709Y93302D01*
X804020Y92345D01*
X806500Y92018D01*
X808980Y92345D01*
X811291Y93302D01*
X813276Y94824D01*
X814798Y96809D01*
X815755Y99120D01*
X816082Y101600D01*
X815755Y104080D01*
X814798Y106391D01*
X813276Y108376D01*
X811291Y109898D01*
X808980Y110856D01*
X806500Y111182D01*
D02*
G37*
G36*
X781100Y619182D02*
X778620Y618856D01*
X776309Y617898D01*
X774325Y616375D01*
X772802Y614391D01*
X771845Y612080D01*
X771518Y609600D01*
X771845Y607120D01*
X772802Y604809D01*
X774325Y602825D01*
X776309Y601302D01*
X778620Y600345D01*
X781100Y600018D01*
X783580Y600345D01*
X785891Y601302D01*
X787876Y602825D01*
X789398Y604809D01*
X790356Y607120D01*
X790682Y609600D01*
X790356Y612080D01*
X789398Y614391D01*
X787876Y616375D01*
X785891Y617898D01*
X783580Y618856D01*
X781100Y619182D01*
D02*
G37*
G36*
X-12600Y556017D02*
X-14941Y555552D01*
X-16926Y554226D01*
X-18252Y552241D01*
X-18717Y549900D01*
X-18252Y547559D01*
X-16926Y545574D01*
X-14941Y544248D01*
X-12600Y543783D01*
X-10259Y544248D01*
X-8274Y545574D01*
X-6948Y547559D01*
X-6482Y549900D01*
X-6948Y552241D01*
X-8274Y554226D01*
X-10259Y555552D01*
X-12600Y556017D01*
D02*
G37*
G36*
X806500Y568382D02*
X804020Y568055D01*
X801709Y567098D01*
X799725Y565575D01*
X798202Y563591D01*
X797245Y561280D01*
X796918Y558800D01*
X797245Y556320D01*
X798202Y554009D01*
X799725Y552025D01*
X801709Y550502D01*
X804020Y549544D01*
X806500Y549218D01*
X808980Y549544D01*
X811291Y550502D01*
X813276Y552025D01*
X814798Y554009D01*
X815755Y556320D01*
X816082Y558800D01*
X815755Y561280D01*
X814798Y563591D01*
X813276Y565575D01*
X811291Y567098D01*
X808980Y568055D01*
X806500Y568382D01*
D02*
G37*
G36*
X831900Y593782D02*
X829420Y593456D01*
X827109Y592498D01*
X825125Y590975D01*
X823602Y588991D01*
X822645Y586680D01*
X822318Y584200D01*
X822645Y581720D01*
X823602Y579409D01*
X825125Y577425D01*
X827109Y575902D01*
X829420Y574944D01*
X831900Y574618D01*
X834380Y574944D01*
X836691Y575902D01*
X838676Y577425D01*
X840198Y579409D01*
X841155Y581720D01*
X841482Y584200D01*
X841155Y586680D01*
X840198Y588991D01*
X838676Y590975D01*
X836691Y592498D01*
X834380Y593456D01*
X831900Y593782D01*
D02*
G37*
G36*
X781100Y568382D02*
X778620Y568055D01*
X776309Y567098D01*
X774325Y565575D01*
X772802Y563591D01*
X771845Y561280D01*
X771518Y558800D01*
X771845Y556320D01*
X772802Y554009D01*
X774325Y552025D01*
X776309Y550502D01*
X778620Y549544D01*
X781100Y549218D01*
X783580Y549544D01*
X785891Y550502D01*
X787876Y552025D01*
X789398Y554009D01*
X790356Y556320D01*
X790682Y558800D01*
X790356Y561280D01*
X789398Y563591D01*
X787876Y565575D01*
X785891Y567098D01*
X783580Y568055D01*
X781100Y568382D01*
D02*
G37*
%LPD*%
G36*
X291941Y489983D02*
Y475767D01*
X281994Y465820D01*
X280500Y466118D01*
X278559Y465731D01*
X276559Y466805D01*
Y489233D01*
X278755Y491430D01*
X280250Y491133D01*
X282591Y491598D01*
X284576Y492924D01*
X285215Y493881D01*
X287658Y494266D01*
X291941Y489983D01*
D02*
G37*
G36*
X241093Y515941D02*
X241109Y515928D01*
Y479332D01*
X241109Y479332D01*
X241342Y478161D01*
X242005Y477169D01*
X268393Y450782D01*
X267612Y449613D01*
X267146Y447272D01*
X267612Y444931D01*
X268938Y442946D01*
X270922Y441620D01*
X272085Y441389D01*
X272743Y439219D01*
X262337Y428812D01*
X261674Y427820D01*
X261441Y426650D01*
X261441Y426649D01*
Y418248D01*
X259594Y417482D01*
X206059Y471017D01*
Y475680D01*
X208059Y476749D01*
X208659Y476348D01*
X211000Y475882D01*
X213341Y476348D01*
X215326Y477674D01*
X216652Y479659D01*
X217118Y482000D01*
X216652Y484341D01*
X215326Y486326D01*
X214059Y487172D01*
Y509983D01*
X220017Y515941D01*
X241093D01*
X241093Y515941D01*
D02*
G37*
G36*
X360941Y572233D02*
Y540672D01*
X359674Y539826D01*
X358575Y538180D01*
X356401Y537525D01*
X352763Y541163D01*
X351771Y541826D01*
X350601Y542059D01*
X350600Y542059D01*
X339250D01*
X338079Y541826D01*
X337087Y541163D01*
X332733Y536809D01*
X310498D01*
X309732Y538657D01*
X331163Y560087D01*
X331826Y561079D01*
X332059Y562250D01*
Y573018D01*
X334011Y574115D01*
X335159Y573348D01*
X337500Y572882D01*
X339841Y573348D01*
X341826Y574674D01*
X342043Y574999D01*
X344166Y574576D01*
X344348Y573659D01*
X345674Y571674D01*
X347659Y570348D01*
X350000Y569883D01*
X352341Y570348D01*
X354326Y571674D01*
X355652Y573659D01*
X355824Y574522D01*
X357994Y575181D01*
X360941Y572233D01*
D02*
G37*
G36*
X263768Y524094D02*
X254180Y514506D01*
X253659Y514402D01*
X251674Y513076D01*
X250348Y511091D01*
X249883Y508750D01*
X250348Y506409D01*
X251674Y504424D01*
X253659Y503098D01*
X256000Y502632D01*
X257941Y503019D01*
X259941Y501945D01*
Y497517D01*
X256744Y494320D01*
X255250Y494618D01*
X252909Y494152D01*
X250924Y492826D01*
X249598Y490841D01*
X249227Y488974D01*
X247227Y489171D01*
Y515151D01*
X258017Y525941D01*
X263002D01*
X263768Y524094D01*
D02*
G37*
G36*
X637674Y576674D02*
X639659Y575348D01*
X642000Y574883D01*
X643494Y575180D01*
X653930Y564744D01*
X653632Y563250D01*
X654098Y560909D01*
X655424Y558924D01*
X656941Y557911D01*
Y514961D01*
X615406Y473426D01*
X613559Y474191D01*
Y481328D01*
X614826Y482174D01*
X616152Y484159D01*
X616618Y486500D01*
X616152Y488841D01*
X614826Y490826D01*
X612841Y492152D01*
X610500Y492617D01*
X608159Y492152D01*
X606174Y490826D01*
X604848Y488841D01*
X604383Y486500D01*
X604848Y484159D01*
X606174Y482174D01*
X607441Y481328D01*
Y471118D01*
X589599Y453275D01*
X587425Y453930D01*
X586326Y455576D01*
X584341Y456902D01*
X582000Y457368D01*
X580505Y457070D01*
X576413Y461163D01*
X575420Y461826D01*
X574250Y462059D01*
X574250Y462059D01*
X509555D01*
X508481Y464059D01*
X508867Y466000D01*
X508402Y468341D01*
X507076Y470326D01*
X505782Y471190D01*
X505576Y472227D01*
X504913Y473219D01*
X496539Y481593D01*
X497304Y483441D01*
X501750D01*
X501750Y483441D01*
X502920Y483674D01*
X503913Y484337D01*
X527373Y507797D01*
X528036Y508789D01*
X528269Y509960D01*
Y524693D01*
X545506Y541931D01*
X547676Y541272D01*
X547848Y540409D01*
X549174Y538424D01*
X551159Y537098D01*
X553500Y536632D01*
X555841Y537098D01*
X557826Y538424D01*
X559152Y540409D01*
X559618Y542750D01*
X559152Y545091D01*
X557826Y547076D01*
X555841Y548402D01*
X554978Y548574D01*
X554319Y550744D01*
X555767Y552191D01*
X620250D01*
X620250Y552191D01*
X621421Y552424D01*
X622413Y553087D01*
X634163Y564837D01*
X634163Y564837D01*
X634826Y565830D01*
X635059Y567000D01*
X635059Y567000D01*
Y576989D01*
X637059Y577595D01*
X637674Y576674D01*
D02*
G37*
G36*
X703834Y766153D02*
X703900Y764922D01*
X702209Y763791D01*
X700883Y761807D01*
X700417Y759465D01*
X700883Y757124D01*
X702209Y755140D01*
X703476Y754293D01*
Y632802D01*
X698087Y627413D01*
X697424Y626421D01*
X697191Y625250D01*
X697191Y625250D01*
Y608767D01*
X688983Y600559D01*
X661248D01*
X660482Y602407D01*
X683255Y625180D01*
X684750Y624883D01*
X687091Y625348D01*
X689076Y626674D01*
X690402Y628659D01*
X690867Y631000D01*
X690402Y633341D01*
X689076Y635326D01*
X687091Y636652D01*
X684750Y637118D01*
X684553Y637078D01*
X683567Y638922D01*
X690325Y645680D01*
X691820Y645383D01*
X694161Y645848D01*
X696146Y647174D01*
X697472Y649159D01*
X697937Y651500D01*
X697472Y653841D01*
X696146Y655826D01*
X694161Y657152D01*
X691820Y657617D01*
X689479Y657152D01*
X687494Y655826D01*
X686168Y653841D01*
X685702Y651500D01*
X686000Y650005D01*
X667073Y631079D01*
X431101D01*
X431000Y631099D01*
X431000Y631099D01*
X428767D01*
X428203Y631663D01*
X427211Y632326D01*
X426040Y632559D01*
X426040Y632559D01*
X160500D01*
X160500Y632559D01*
X159330Y632326D01*
X158337Y631663D01*
X158337Y631663D01*
X151087Y624413D01*
X150424Y623420D01*
X150191Y622250D01*
X150191Y622250D01*
Y607250D01*
X150191Y607250D01*
X150404Y606179D01*
X150179Y605875D01*
X148878Y604793D01*
X148341Y605152D01*
X146000Y605617D01*
X143659Y605152D01*
X141674Y603826D01*
X140348Y601841D01*
X138253Y601562D01*
X137576Y602576D01*
X135591Y603902D01*
X133250Y604367D01*
X130909Y603902D01*
X129056Y605069D01*
X128902Y605841D01*
X127576Y607826D01*
X125591Y609152D01*
X123510Y609566D01*
X122913Y610163D01*
X121920Y610826D01*
X120750Y611059D01*
X120750Y611059D01*
X91082D01*
Y618844D01*
X91082Y618844D01*
X91078Y618863D01*
Y725911D01*
X117548Y752381D01*
X117840Y752322D01*
X118132Y752381D01*
X135646Y734866D01*
X135646Y734866D01*
X136969Y733982D01*
X138530Y733672D01*
X188735D01*
X189342Y731672D01*
X188674Y731226D01*
X187348Y729241D01*
X186882Y726900D01*
X187348Y724559D01*
X188674Y722574D01*
X190659Y721248D01*
X193000Y720782D01*
X195341Y721248D01*
X197326Y722574D01*
X198652Y724559D01*
X199118Y726900D01*
X198652Y729241D01*
X197326Y731226D01*
X196658Y731672D01*
X197265Y733672D01*
X205287D01*
X205815Y732739D01*
X206105Y731672D01*
X204948Y729941D01*
X204482Y727600D01*
X204948Y725259D01*
X206274Y723274D01*
X208259Y721948D01*
X210600Y721482D01*
X212941Y721948D01*
X214926Y723274D01*
X216252Y725259D01*
X216717Y727600D01*
X216252Y729941D01*
X215096Y731672D01*
X215385Y732739D01*
X215913Y733672D01*
X233311D01*
X235596Y731386D01*
X236919Y730502D01*
X238480Y730192D01*
X238480Y730192D01*
X365170D01*
X365170Y730192D01*
X366731Y730502D01*
X368054Y731386D01*
X389028Y752360D01*
X389320Y752302D01*
X389612Y752360D01*
X404106Y737866D01*
X404106Y737866D01*
X405429Y736982D01*
X406990Y736672D01*
X406990Y736672D01*
X498561D01*
X503616Y731616D01*
X504939Y730732D01*
X506500Y730422D01*
X506500Y730422D01*
X634510D01*
X634510Y730422D01*
X636071Y730732D01*
X637394Y731616D01*
X658368Y752590D01*
X658660Y752532D01*
X661001Y752998D01*
X662986Y754324D01*
X664312Y756309D01*
X664778Y758650D01*
X664719Y758942D01*
X672699Y766922D01*
X688505D01*
X688995Y765125D01*
X688997Y765111D01*
X687659Y764652D01*
X687289Y764405D01*
X685674Y763326D01*
X684348Y761341D01*
X683883Y759000D01*
X684348Y756659D01*
X685674Y754674D01*
X687659Y753348D01*
X690000Y752883D01*
X692341Y753348D01*
X694326Y754674D01*
X695652Y756659D01*
X696117Y759000D01*
X695652Y761341D01*
X694326Y763326D01*
X692711Y764405D01*
X692341Y764652D01*
X691003Y765111D01*
X691005Y765125D01*
X691495Y766922D01*
X703568D01*
X703834Y766153D01*
D02*
G37*
G36*
X395076Y517853D02*
X395087Y517837D01*
X416930Y495994D01*
X416632Y494500D01*
X417098Y492159D01*
X418424Y490174D01*
X420409Y488848D01*
X422750Y488382D01*
X425091Y488848D01*
X427076Y490174D01*
X428402Y492159D01*
X428753Y493923D01*
X430359Y494663D01*
X430793Y494710D01*
X443056Y482448D01*
X442070Y480605D01*
X440750Y480868D01*
X438409Y480402D01*
X437520Y479808D01*
X435720Y481011D01*
X435868Y481750D01*
X435402Y484091D01*
X434076Y486076D01*
X432091Y487402D01*
X429750Y487868D01*
X427409Y487402D01*
X425424Y486076D01*
X424098Y484091D01*
X423633Y481750D01*
X423698Y481423D01*
X422146Y479599D01*
X395431D01*
X394362Y481599D01*
X394402Y481659D01*
X394868Y484000D01*
X394402Y486341D01*
X393076Y488326D01*
X391091Y489652D01*
X388750Y490117D01*
X386409Y489652D01*
X384424Y488326D01*
X383098Y486341D01*
X382632Y484000D01*
X383098Y481659D01*
X384424Y479674D01*
X384286Y477361D01*
X369309Y462384D01*
X367309Y463213D01*
Y470000D01*
X367076Y471171D01*
X366413Y472163D01*
X365559Y473017D01*
Y475695D01*
X367559Y476769D01*
X369500Y476382D01*
X371841Y476848D01*
X373826Y478174D01*
X375152Y480159D01*
X375617Y482500D01*
X375152Y484841D01*
X373826Y486826D01*
X371841Y488152D01*
X369500Y488618D01*
X367559Y488231D01*
X365559Y489305D01*
Y495233D01*
X376989Y506663D01*
X378144Y506278D01*
X378947Y505793D01*
X379367Y503684D01*
X380693Y501699D01*
X382678Y500373D01*
X385019Y499907D01*
X387360Y500373D01*
X389344Y501699D01*
X390671Y503684D01*
X391136Y506025D01*
X390671Y508366D01*
X389344Y510350D01*
X387360Y511677D01*
X385250Y512096D01*
X384766Y512900D01*
X384380Y514054D01*
X388755Y518430D01*
X390250Y518133D01*
X392591Y518598D01*
X395076Y517853D01*
D02*
G37*
G36*
X358938Y526337D02*
X359930Y525674D01*
X361101Y525441D01*
X361964D01*
X362765Y523942D01*
X362831Y523441D01*
X362400Y521275D01*
X362866Y518934D01*
X364192Y516950D01*
X366177Y515624D01*
X368518Y515158D01*
X370859Y515624D01*
X372844Y516950D01*
X374170Y518934D01*
X374636Y521275D01*
X374205Y523441D01*
X374271Y523942D01*
X375072Y525441D01*
X380750D01*
X380750Y525441D01*
X381921Y525674D01*
X382446Y526025D01*
X383889Y525293D01*
X384261Y524895D01*
X384132Y524250D01*
X384430Y522756D01*
X362248Y500574D01*
X360695Y501849D01*
X360902Y502159D01*
X361367Y504500D01*
X360902Y506841D01*
X359576Y508826D01*
X357591Y510152D01*
X355250Y510617D01*
X352909Y510152D01*
X350924Y508826D01*
X349598Y506841D01*
X349132Y504500D01*
X349453Y502887D01*
X348321Y501044D01*
X348127Y500874D01*
X346874Y500702D01*
X341413Y506163D01*
X340420Y506826D01*
X339250Y507059D01*
X339250Y507059D01*
X324017D01*
X306982Y524094D01*
X307748Y525941D01*
X335489D01*
X336095Y523941D01*
X335174Y523326D01*
X333848Y521341D01*
X333382Y519000D01*
X333848Y516659D01*
X335174Y514674D01*
X337159Y513348D01*
X339500Y512882D01*
X341841Y513348D01*
X343826Y514674D01*
X345152Y516659D01*
X345617Y519000D01*
X345152Y521341D01*
X344417Y522441D01*
X345859Y523883D01*
X346659Y523348D01*
X349000Y522882D01*
X351341Y523348D01*
X353326Y524674D01*
X354652Y526659D01*
X354840Y527606D01*
X357010Y528264D01*
X358938Y526337D01*
D02*
G37*
G36*
X383829Y540595D02*
X383171Y538425D01*
X381928Y538178D01*
X379943Y536852D01*
X378617Y534867D01*
X378151Y532526D01*
X377357Y531559D01*
X370805D01*
X369731Y533559D01*
X370117Y535500D01*
X369652Y537841D01*
X368326Y539826D01*
X367059Y540672D01*
Y554752D01*
X368907Y555518D01*
X383829Y540595D01*
D02*
G37*
G36*
X162010Y168956D02*
X162268Y167659D01*
X163594Y165674D01*
X165579Y164348D01*
X167920Y163883D01*
X169861Y164269D01*
X171861Y163195D01*
Y151937D01*
X169226Y149302D01*
X167383Y150287D01*
X167625Y151507D01*
X167160Y153848D01*
X165834Y155833D01*
X163849Y157159D01*
X161508Y157625D01*
X159167Y157159D01*
X157182Y155833D01*
X155856Y153848D01*
X155390Y151507D01*
X155856Y149166D01*
X157182Y147182D01*
X159136Y145876D01*
X159816Y145376D01*
X160348Y144091D01*
X159882Y141750D01*
X160348Y139409D01*
X161674Y137424D01*
X163659Y136098D01*
X166000Y135632D01*
X168341Y136098D01*
X170326Y137424D01*
X171652Y139409D01*
X172118Y141750D01*
X171820Y143244D01*
X174014Y145438D01*
X175861Y144672D01*
Y109150D01*
X160217Y93506D01*
X159554Y92514D01*
X159321Y91343D01*
X159321Y91343D01*
Y-4199D01*
X157609Y-5705D01*
X157180Y-5653D01*
X156846Y-5366D01*
X155788Y-3658D01*
X156117Y-2000D01*
X155652Y341D01*
X154326Y2326D01*
X152341Y3652D01*
X150809Y3957D01*
Y33850D01*
X150809Y33851D01*
X152619Y35004D01*
X153091Y35098D01*
X155076Y36424D01*
X156402Y38409D01*
X156868Y40750D01*
Y48750D01*
Y56500D01*
X156402Y58841D01*
X155076Y60826D01*
X153091Y62152D01*
X152619Y62246D01*
X150809Y63400D01*
X150809Y63400D01*
Y109364D01*
X152809Y109971D01*
X153174Y109424D01*
X155159Y108098D01*
X157500Y107632D01*
X166000D01*
X168341Y108098D01*
X170326Y109424D01*
X171652Y111409D01*
X172118Y113750D01*
Y122218D01*
X172126Y122259D01*
Y122506D01*
X171660Y124847D01*
X170334Y126832D01*
X168349Y128158D01*
X166008Y128624D01*
X157508D01*
X155167Y128158D01*
X153182Y126832D01*
X152809Y126273D01*
X150809Y126880D01*
Y160583D01*
X159842Y169617D01*
X162010Y168956D01*
D02*
G37*
G36*
X491998Y504076D02*
X491924Y503326D01*
X490598Y501341D01*
X490509Y500891D01*
X488384Y499915D01*
X488278Y499928D01*
X488080Y500189D01*
X487652Y502341D01*
X486326Y504326D01*
X484341Y505652D01*
X482000Y506118D01*
X479659Y505652D01*
X477674Y504326D01*
X476534Y502620D01*
X474410Y501916D01*
X465309Y511017D01*
Y528152D01*
X467156Y528918D01*
X491998Y504076D01*
D02*
G37*
G36*
X718430Y194744D02*
X718132Y193250D01*
X718506Y191374D01*
X716847Y190204D01*
X671025Y236025D01*
X670809Y236191D01*
X671488Y238191D01*
X674983D01*
X718430Y194744D01*
D02*
G37*
G36*
X287269Y515941D02*
X286882Y514000D01*
X287097Y512923D01*
X285087Y510913D01*
X284424Y509921D01*
X284191Y508750D01*
X284191Y508750D01*
Y504055D01*
X282191Y502981D01*
X280250Y503368D01*
X277909Y502902D01*
X275924Y501576D01*
X274598Y499591D01*
X274132Y497250D01*
X274430Y495756D01*
X271337Y492663D01*
X270674Y491670D01*
X270441Y490500D01*
X270441Y490500D01*
Y459998D01*
X268593Y459232D01*
X247227Y480599D01*
Y487829D01*
X249227Y488026D01*
X249598Y486159D01*
X250924Y484174D01*
X252909Y482848D01*
X255250Y482382D01*
X257591Y482848D01*
X259576Y484174D01*
X260902Y486159D01*
X261367Y488500D01*
X261070Y489995D01*
X265163Y494087D01*
X265826Y495079D01*
X266059Y496250D01*
X266059Y496250D01*
Y509780D01*
X266435Y510032D01*
X268366Y509476D01*
X268752Y509178D01*
X269924Y507424D01*
X271909Y506098D01*
X274250Y505633D01*
X276591Y506098D01*
X278576Y507424D01*
X279902Y509409D01*
X280368Y511750D01*
X279902Y514091D01*
X278666Y515941D01*
X278822Y516643D01*
X279384Y517941D01*
X286195D01*
X287269Y515941D01*
D02*
G37*
G36*
X451791Y529633D02*
X455191Y526233D01*
Y508093D01*
X455191Y508093D01*
X455424Y506923D01*
X456087Y505930D01*
X475111Y486907D01*
X474346Y485059D01*
X462368D01*
X442809Y504618D01*
Y512512D01*
X443203Y512906D01*
X444809Y513769D01*
X446750Y513382D01*
X449091Y513848D01*
X451076Y515174D01*
X452402Y517159D01*
X452868Y519500D01*
X452402Y521841D01*
X451076Y523826D01*
X449091Y525152D01*
X447582Y525452D01*
X446288Y527205D01*
X446194Y527529D01*
X446415Y528386D01*
X447613Y528624D01*
X449597Y529950D01*
X451791Y529633D01*
D02*
G37*
G36*
X96672Y519811D02*
Y514068D01*
X94672Y512985D01*
X92750Y513368D01*
X90409Y512902D01*
X88424Y511576D01*
X87098Y509591D01*
X86632Y507250D01*
X87098Y504909D01*
X88424Y502924D01*
X90409Y501598D01*
X92750Y501132D01*
X94672Y501515D01*
X96672Y500432D01*
Y494741D01*
X96424Y494576D01*
X95098Y492591D01*
X94911Y491650D01*
X92741Y490992D01*
X84309Y499424D01*
Y529560D01*
X86157Y530326D01*
X96672Y519811D01*
D02*
G37*
G36*
X78191Y565233D02*
Y555498D01*
X76343Y554732D01*
X69413Y561663D01*
X68421Y562326D01*
X67250Y562559D01*
X67250Y562559D01*
X52517D01*
X49309Y565767D01*
Y575680D01*
X51309Y576749D01*
X51909Y576348D01*
X54250Y575882D01*
X56591Y576348D01*
X58576Y577674D01*
X59902Y579659D01*
X60074Y580522D01*
X62244Y581180D01*
X78191Y565233D01*
D02*
G37*
G36*
X421180Y458950D02*
X421171Y458929D01*
X421073Y458845D01*
X419174Y457576D01*
X417848Y455591D01*
X417383Y453250D01*
X417848Y450909D01*
X419174Y448924D01*
X420441Y448078D01*
Y436434D01*
X417403Y433396D01*
X415233Y434054D01*
X415172Y434362D01*
X413846Y436347D01*
X411861Y437673D01*
X409700Y438103D01*
X409217Y438992D01*
X408915Y440057D01*
X410152Y441909D01*
X410617Y444250D01*
X410152Y446591D01*
X408826Y448576D01*
X406841Y449902D01*
X404500Y450368D01*
X402159Y449902D01*
X400174Y448576D01*
X400059Y448403D01*
X398059Y449010D01*
Y452233D01*
X406767Y460941D01*
X420405D01*
X421180Y458950D01*
D02*
G37*
G36*
X424441Y619672D02*
X423174Y618826D01*
X421848Y616841D01*
X421382Y614500D01*
X421848Y612159D01*
X423174Y610174D01*
X424287Y609431D01*
X424715Y607154D01*
X424663Y606957D01*
X423960Y606059D01*
X417517D01*
X398982Y624593D01*
X399748Y626441D01*
X424441D01*
Y619672D01*
D02*
G37*
G36*
X309961Y624593D02*
X306337Y620969D01*
X305674Y619977D01*
X305441Y618806D01*
X305441Y618806D01*
Y612774D01*
X296387Y603720D01*
X294539Y604486D01*
Y622750D01*
X294384Y623530D01*
X293942Y624192D01*
X293569Y624441D01*
X293627Y625643D01*
X293902Y626441D01*
X309196D01*
X309961Y624593D01*
D02*
G37*
G36*
X157518Y327343D02*
X133721Y303546D01*
X131425Y303600D01*
X131166Y303748D01*
X131031Y304356D01*
X131902Y305659D01*
X132367Y308000D01*
X131902Y310341D01*
X131038Y311634D01*
X130756Y313103D01*
X131058Y314409D01*
X131954Y315750D01*
X132420Y318092D01*
X131954Y320433D01*
X131027Y321820D01*
X130816Y322804D01*
X131904Y324691D01*
X133500D01*
X133500Y324691D01*
X134670Y324924D01*
X135663Y325587D01*
X139267Y329191D01*
X156752D01*
X157518Y327343D01*
D02*
G37*
G36*
X626385Y328539D02*
X626424Y328343D01*
X627087Y327351D01*
X672724Y281714D01*
Y258250D01*
Y255935D01*
X671457Y255088D01*
X670131Y253103D01*
X669665Y250762D01*
X670131Y248421D01*
X671457Y246437D01*
X671648Y246309D01*
X671042Y244309D01*
X662267D01*
X654309Y252267D01*
Y294250D01*
X654309Y294250D01*
X654076Y295420D01*
X653413Y296413D01*
X611168Y338658D01*
X612153Y340501D01*
X612750Y340382D01*
X614244Y340680D01*
X626385Y328539D01*
D02*
G37*
G36*
X504929Y353393D02*
X505084Y352691D01*
X503848Y350841D01*
X503382Y348500D01*
X503848Y346159D01*
X505174Y344174D01*
X507159Y342848D01*
X507992Y342682D01*
X509941Y340733D01*
Y303517D01*
X501837Y295413D01*
X501174Y294421D01*
X500941Y293250D01*
X500941Y293250D01*
Y255922D01*
X499674Y255076D01*
X498348Y253091D01*
X497882Y250750D01*
X498348Y248409D01*
X499674Y246424D01*
X501659Y245098D01*
X504000Y244632D01*
X506341Y245098D01*
X508326Y246424D01*
X509273Y247841D01*
X511019Y247688D01*
X511378Y247614D01*
X512674Y245674D01*
X514659Y244348D01*
X517000Y243883D01*
X519341Y244348D01*
X521326Y245674D01*
X522652Y247659D01*
X523117Y250000D01*
X522652Y252341D01*
X521326Y254326D01*
X519341Y255652D01*
X517000Y256117D01*
X514659Y255652D01*
X512674Y254326D01*
X511727Y252909D01*
X509981Y253062D01*
X509622Y253136D01*
X508326Y255076D01*
X507059Y255922D01*
Y291983D01*
X515163Y300087D01*
X515163Y300087D01*
X515826Y301080D01*
X516059Y302250D01*
Y339281D01*
X516674Y339716D01*
X518059Y340167D01*
X519659Y339098D01*
X522000Y338633D01*
X524341Y339098D01*
X526326Y340424D01*
X527652Y342409D01*
X527882Y343568D01*
X529883Y343371D01*
Y274750D01*
X530348Y272409D01*
X531674Y270424D01*
X544181Y257918D01*
X543970Y257272D01*
X543143Y256127D01*
X541750Y256310D01*
X539923Y256070D01*
X538220Y255364D01*
X536758Y254242D01*
X535635Y252780D01*
X534930Y251077D01*
X534690Y249250D01*
X534930Y247423D01*
X535635Y245720D01*
X536758Y244258D01*
X536917Y244135D01*
Y241614D01*
X536758Y241492D01*
X535635Y240030D01*
X534930Y238327D01*
X534690Y236500D01*
X534930Y234673D01*
X535635Y232970D01*
X536758Y231507D01*
X538220Y230385D01*
X539923Y229680D01*
X541750Y229439D01*
X543577Y229680D01*
X545280Y230385D01*
X546742Y231507D01*
X547864Y232970D01*
X548570Y234673D01*
X548810Y236500D01*
X548570Y238327D01*
X547864Y240030D01*
X546742Y241492D01*
X546583Y241614D01*
Y244135D01*
X546742Y244258D01*
X547864Y245720D01*
X548570Y247423D01*
X548810Y249250D01*
X548627Y250643D01*
X549772Y251470D01*
X550418Y251681D01*
X553382Y248716D01*
Y177534D01*
X549138Y173289D01*
X536644D01*
X536250Y173368D01*
X535856Y173289D01*
X530750D01*
X529970Y173134D01*
X529308Y172692D01*
X528866Y172030D01*
X528711Y171250D01*
Y159228D01*
X526863Y158463D01*
X517809Y167517D01*
Y205670D01*
X517809Y205671D01*
X517576Y206841D01*
X516913Y207833D01*
X516913Y207833D01*
X486599Y238148D01*
Y323881D01*
X486366Y325051D01*
X485703Y326043D01*
X485703Y326043D01*
X476059Y335687D01*
Y348328D01*
X477326Y349174D01*
X478652Y351159D01*
X478979Y352803D01*
X479118Y353500D01*
X480920Y354691D01*
X482673D01*
X483801Y353054D01*
X483729Y352691D01*
X483271Y350389D01*
X483737Y348048D01*
X485063Y346063D01*
X487048Y344737D01*
X489389Y344271D01*
X491730Y344737D01*
X493714Y346063D01*
X495041Y348048D01*
X495506Y350389D01*
X495048Y352691D01*
X494976Y353054D01*
X496105Y354691D01*
X504366D01*
X504929Y353393D01*
D02*
G37*
G36*
X697098Y497659D02*
X698424Y495674D01*
X700409Y494348D01*
X702523Y493927D01*
X703002Y493136D01*
X703396Y491972D01*
X702587Y491163D01*
X701924Y490170D01*
X701691Y489000D01*
X701691Y489000D01*
Y432760D01*
X699691Y432153D01*
X699576Y432326D01*
X697591Y433652D01*
X695250Y434118D01*
X693755Y433820D01*
X685788Y441788D01*
X684796Y442451D01*
X683625Y442684D01*
X683625Y442684D01*
X655664D01*
X655038Y444271D01*
X655010Y444684D01*
X693913Y483587D01*
X694576Y484580D01*
X694809Y485750D01*
Y497658D01*
X695034Y497782D01*
X697098Y497659D01*
D02*
G37*
G36*
X502999Y444941D02*
X502598Y444341D01*
X502132Y442000D01*
X502598Y439659D01*
X503924Y437674D01*
X505191Y436828D01*
Y390657D01*
X505191Y390657D01*
X505424Y389486D01*
X506087Y388494D01*
X528344Y366237D01*
X529336Y365574D01*
X530507Y365341D01*
X530507Y365341D01*
X559083D01*
X563180Y361245D01*
X562882Y359750D01*
X563348Y357409D01*
X564674Y355424D01*
X566659Y354098D01*
X569000Y353633D01*
X570691Y353969D01*
X572499Y353082D01*
X572897Y352733D01*
X572963Y352289D01*
X566233Y345559D01*
X551118D01*
X536764Y359913D01*
X535772Y360576D01*
X534601Y360809D01*
X534601Y360809D01*
X488787D01*
X487964Y362349D01*
X487932Y362809D01*
X488368Y365000D01*
X487902Y367341D01*
X486576Y369326D01*
X486559Y369337D01*
Y382556D01*
X486559Y382556D01*
X486326Y383727D01*
X485663Y384719D01*
X479489Y390893D01*
X479803Y393408D01*
X480576Y393924D01*
X481902Y395909D01*
X482368Y398250D01*
X481902Y400591D01*
X480576Y402576D01*
X479309Y403422D01*
Y431233D01*
X484908Y436832D01*
X486751Y435847D01*
X486632Y435250D01*
X487098Y432909D01*
X488424Y430924D01*
X489828Y429986D01*
X489904Y429746D01*
Y428004D01*
X489828Y427764D01*
X488424Y426826D01*
X487098Y424841D01*
X486632Y422500D01*
X487098Y420159D01*
X488424Y418174D01*
X489631Y417368D01*
X490095Y415622D01*
X489923Y414950D01*
X488848Y413341D01*
X488382Y411000D01*
X488848Y408659D01*
X490174Y406674D01*
X492159Y405348D01*
X494500Y404883D01*
X496841Y405348D01*
X498826Y406674D01*
X500152Y408659D01*
X500617Y411000D01*
X500152Y413341D01*
X498826Y415326D01*
X497619Y416132D01*
X497155Y417878D01*
X497327Y418550D01*
X498402Y420159D01*
X498867Y422500D01*
X498402Y424841D01*
X497076Y426826D01*
X495672Y427764D01*
X495596Y428004D01*
Y429746D01*
X495672Y429986D01*
X497076Y430924D01*
X498402Y432909D01*
X498867Y435250D01*
X498402Y437591D01*
X497076Y439576D01*
X495091Y440902D01*
X492750Y441367D01*
X492153Y441249D01*
X491168Y443092D01*
X495017Y446941D01*
X501930D01*
X502999Y444941D01*
D02*
G37*
G36*
X339370Y434191D02*
X338741Y433309D01*
X333694D01*
X332523Y433076D01*
X331531Y432413D01*
X331531Y432413D01*
X319837Y420719D01*
X319174Y419727D01*
X318941Y418556D01*
X318941Y418556D01*
Y396730D01*
X315657Y393446D01*
X313809Y394211D01*
Y408750D01*
X313576Y409921D01*
X312913Y410913D01*
X312913Y410913D01*
X306663Y417163D01*
X305671Y417826D01*
X304500Y418059D01*
X304500Y418059D01*
X298422D01*
X297576Y419326D01*
X295591Y420652D01*
X293250Y421118D01*
X290909Y420652D01*
X288924Y419326D01*
X287659Y417432D01*
X287510Y417404D01*
X285659Y418074D01*
Y426089D01*
X287659Y426696D01*
X288174Y425924D01*
X290159Y424598D01*
X292500Y424132D01*
X294841Y424598D01*
X296826Y425924D01*
X298152Y427909D01*
X298617Y430250D01*
X298152Y432591D01*
X297083Y434191D01*
X297534Y435577D01*
X297969Y436191D01*
X338339D01*
X339370Y434191D01*
D02*
G37*
G36*
X460941Y435287D02*
Y407539D01*
X460796Y406082D01*
X459074Y405284D01*
X458409Y405152D01*
X456424Y403826D01*
X455098Y401841D01*
X454632Y399500D01*
X455098Y397159D01*
X456424Y395174D01*
X458409Y393848D01*
X460750Y393382D01*
X461155Y393463D01*
X469261Y385357D01*
X468947Y382842D01*
X468174Y382326D01*
X466848Y380341D01*
X466382Y378000D01*
X466680Y376506D01*
X463087Y372913D01*
X462424Y371921D01*
X462191Y370750D01*
X462191Y370750D01*
Y335750D01*
X462191Y335750D01*
X462424Y334580D01*
X463087Y333587D01*
X475941Y320733D01*
Y303998D01*
X474094Y303232D01*
X430579Y346746D01*
Y368166D01*
X432579Y369235D01*
X433159Y368848D01*
X435500Y368382D01*
X437841Y368848D01*
X439826Y370174D01*
X441152Y372159D01*
X441618Y374500D01*
X441152Y376841D01*
X439826Y378826D01*
X437841Y380152D01*
X435500Y380617D01*
X433159Y380152D01*
X432579Y379765D01*
X430579Y380834D01*
Y417000D01*
X438760Y425180D01*
X441086Y424678D01*
X441924Y423424D01*
X443909Y422098D01*
X446250Y421632D01*
X448591Y422098D01*
X450576Y423424D01*
X451902Y425409D01*
X452368Y427750D01*
X452070Y429244D01*
X458941Y436115D01*
X460941Y435287D01*
D02*
G37*
G36*
X366467Y614956D02*
X367783Y614290D01*
X367924Y613579D01*
X368587Y612587D01*
X369580Y611924D01*
X370750Y611691D01*
X370750Y611691D01*
X371083D01*
X371177Y611628D01*
X373518Y611163D01*
X375859Y611628D01*
X375954Y611691D01*
X397132D01*
X415517Y593307D01*
X416195Y591354D01*
X415636Y590518D01*
X414869Y589370D01*
X414403Y587029D01*
X414869Y584688D01*
X416195Y582703D01*
X418179Y581377D01*
X420521Y580911D01*
X422862Y581377D01*
X422941Y581430D01*
X424941Y580361D01*
Y575823D01*
X424587Y575469D01*
X423924Y574477D01*
X423691Y573306D01*
X423691Y573306D01*
Y571885D01*
X421691Y571279D01*
X421326Y571826D01*
X419341Y573152D01*
X417760Y573466D01*
X416801Y574178D01*
X416324Y575522D01*
X416618Y577000D01*
X416152Y579341D01*
X414826Y581326D01*
X412841Y582652D01*
X410500Y583117D01*
X408802Y582780D01*
X407503Y584436D01*
X407652Y584659D01*
X408117Y587000D01*
X407652Y589341D01*
X406326Y591326D01*
X404341Y592652D01*
X402000Y593117D01*
X399659Y592652D01*
X397674Y591326D01*
X396348Y589341D01*
X395882Y587000D01*
X396348Y584659D01*
X397674Y582674D01*
X399659Y581348D01*
X402000Y580882D01*
X403698Y581220D01*
X404997Y579564D01*
X404848Y579341D01*
X404383Y577000D01*
X404848Y574659D01*
X406174Y572674D01*
X408159Y571348D01*
X409740Y571034D01*
X410699Y570322D01*
X411176Y568978D01*
X410882Y567500D01*
X411348Y565159D01*
X412674Y563174D01*
X414659Y561848D01*
X417000Y561382D01*
X419341Y561848D01*
X421326Y563174D01*
X421691Y563721D01*
X423691Y563115D01*
Y535180D01*
X413047Y524536D01*
X412384Y523544D01*
X412151Y522373D01*
X412151Y522373D01*
Y514436D01*
X412151Y514436D01*
X412384Y513266D01*
X413047Y512273D01*
X421637Y503684D01*
X420982Y501510D01*
X420220Y501356D01*
X400309Y521267D01*
Y531500D01*
X400309Y531500D01*
X400076Y532671D01*
X399413Y533663D01*
X399413Y533663D01*
X371269Y561807D01*
Y575790D01*
X371269Y575790D01*
X371036Y576960D01*
X370373Y577953D01*
X370373Y577953D01*
X366418Y581908D01*
X367403Y583751D01*
X368000Y583633D01*
X370341Y584098D01*
X372326Y585424D01*
X373652Y587409D01*
X374117Y589750D01*
X373652Y592091D01*
X372326Y594076D01*
X370341Y595402D01*
X368000Y595868D01*
X365659Y595402D01*
X363674Y594076D01*
X362348Y592091D01*
X361882Y589750D01*
X362001Y589153D01*
X360158Y588168D01*
X355059Y593267D01*
Y606314D01*
X355823Y607788D01*
X356911Y608340D01*
X358358Y608628D01*
X359126Y609141D01*
X360933Y609495D01*
X361045Y609408D01*
X361152Y607670D01*
X360598Y606841D01*
X360132Y604500D01*
X360598Y602159D01*
X361924Y600174D01*
X363909Y598848D01*
X366250Y598382D01*
X368591Y598848D01*
X370576Y600174D01*
X371902Y602159D01*
X372368Y604500D01*
X371902Y606841D01*
X370576Y608826D01*
X368591Y610152D01*
X366250Y610617D01*
X363909Y610152D01*
X363262Y609720D01*
X361625Y611031D01*
X361789Y611454D01*
X362781Y612117D01*
X365742Y615078D01*
X366467Y614956D01*
D02*
G37*
G36*
X287659Y412568D02*
X288924Y410674D01*
X290909Y409348D01*
X293250Y408882D01*
X295591Y409348D01*
X297576Y410674D01*
X298422Y411941D01*
X303233D01*
X307691Y407483D01*
Y391137D01*
X301391Y384837D01*
X299221Y385495D01*
X299152Y385841D01*
X297826Y387826D01*
X295841Y389152D01*
X293500Y389618D01*
X291159Y389152D01*
X289174Y387826D01*
X289059Y387653D01*
X287059Y388260D01*
Y390056D01*
X287059Y390056D01*
X286826Y391227D01*
X286163Y392219D01*
X286163Y392219D01*
X285659Y392723D01*
Y411926D01*
X287510Y412596D01*
X287659Y412568D01*
D02*
G37*
G36*
X479424Y449174D02*
X481409Y447848D01*
X483750Y447383D01*
X484035Y447439D01*
X485020Y445596D01*
X474087Y434663D01*
X473424Y433671D01*
X473191Y432500D01*
X473191Y432500D01*
Y405017D01*
X472219Y404248D01*
X469913Y404562D01*
X469913Y404562D01*
X467059Y407416D01*
Y443733D01*
X473767Y450441D01*
X478578D01*
X479424Y449174D01*
D02*
G37*
G36*
X715672Y759416D02*
Y615622D01*
X713672Y615016D01*
X713110Y615856D01*
X711126Y617182D01*
X708785Y617647D01*
X706443Y617182D01*
X705309Y616423D01*
X703309Y617460D01*
Y623983D01*
X708697Y629371D01*
X708697Y629372D01*
X709360Y630364D01*
X709593Y631535D01*
X709593Y631535D01*
Y754293D01*
X710860Y755140D01*
X712186Y757124D01*
X712652Y759465D01*
X712646Y759498D01*
X714402Y760424D01*
X715672Y759416D01*
D02*
G37*
G36*
X478924Y470674D02*
X480909Y469348D01*
X483250Y468882D01*
X485191Y469269D01*
X486576Y468564D01*
X487233Y468040D01*
X487424Y467080D01*
X488087Y466087D01*
X488325Y465849D01*
X487340Y464006D01*
X486873Y464099D01*
X486873Y464099D01*
X470210D01*
X469040Y463866D01*
X468048Y463203D01*
X468048Y463203D01*
X456087Y451242D01*
X455424Y450250D01*
X455191Y449080D01*
X455191Y449079D01*
Y441017D01*
X453780Y439606D01*
X453495Y439627D01*
X451740Y440394D01*
X451402Y442091D01*
X450076Y444076D01*
X448091Y445402D01*
X447926Y445435D01*
X447267Y447605D01*
X471604Y471941D01*
X478078D01*
X478924Y470674D01*
D02*
G37*
G36*
X321837Y494087D02*
X321837Y494087D01*
X322829Y493424D01*
X324000Y493191D01*
X330828D01*
X331674Y491924D01*
X333659Y490598D01*
X336000Y490132D01*
X338341Y490598D01*
X340326Y491924D01*
X341235Y493286D01*
X343343Y492940D01*
X343598Y491659D01*
X344924Y489674D01*
X346909Y488348D01*
X349250Y487882D01*
X351191Y488269D01*
X353191Y487195D01*
Y470338D01*
X352424Y469826D01*
X351098Y467841D01*
X350633Y465500D01*
X351068Y463309D01*
X351036Y462849D01*
X350213Y461309D01*
X342305D01*
X341231Y463309D01*
X341618Y465250D01*
X341152Y467591D01*
X339826Y469576D01*
X337841Y470902D01*
X335500Y471367D01*
X333159Y470902D01*
X332269Y470307D01*
X300070Y502505D01*
X300368Y504000D01*
X299902Y506341D01*
X298576Y508326D01*
X298200Y510982D01*
X298652Y511659D01*
X299118Y514000D01*
X300966Y514958D01*
X321837Y494087D01*
D02*
G37*
G36*
X329558Y464366D02*
X329769Y463309D01*
X328695Y461309D01*
X288963D01*
X288419Y462055D01*
X288056Y463230D01*
X297163Y472337D01*
X297163Y472337D01*
X297826Y473329D01*
X298059Y474500D01*
Y491250D01*
X298059Y491250D01*
X297826Y492421D01*
X297163Y493413D01*
X297163Y493413D01*
X296006Y494569D01*
X296619Y496785D01*
X297035Y496889D01*
X329558Y464366D01*
D02*
G37*
G36*
X358426Y336144D02*
Y236396D01*
X356489Y235504D01*
X355309Y236399D01*
Y335829D01*
X356636Y336914D01*
X358426Y336144D01*
D02*
G37*
G36*
X324941Y614383D02*
Y610250D01*
X324941Y610250D01*
X325174Y609080D01*
X325837Y608087D01*
X331587Y602337D01*
X331587Y602337D01*
X332579Y601674D01*
X333750Y601441D01*
X339828D01*
X340674Y600174D01*
X341941Y599328D01*
Y592500D01*
X341941Y592500D01*
X342174Y591329D01*
X342837Y590337D01*
X349180Y583994D01*
X348522Y581824D01*
X347659Y581652D01*
X345674Y580326D01*
X345458Y580001D01*
X343334Y580424D01*
X343152Y581341D01*
X341826Y583326D01*
X339841Y584652D01*
X337500Y585117D01*
X335159Y584652D01*
X333174Y583326D01*
X331848Y581341D01*
X331382Y579000D01*
X331439Y578715D01*
X329596Y577730D01*
X326820Y580505D01*
X327118Y582000D01*
X326652Y584341D01*
X325326Y586326D01*
X323341Y587652D01*
X321000Y588117D01*
X318659Y587652D01*
X316674Y586326D01*
X316559Y586153D01*
X314559Y586760D01*
Y591983D01*
X320134Y597558D01*
X321591Y597848D01*
X323576Y599174D01*
X324902Y601159D01*
X325368Y603500D01*
X324902Y605841D01*
X323576Y607826D01*
X321591Y609152D01*
X319250Y609618D01*
X317559Y609281D01*
X315559Y610472D01*
Y615882D01*
X317868Y618191D01*
X321133D01*
X324941Y614383D01*
D02*
G37*
G36*
X308874Y594720D02*
X308674Y594421D01*
X308441Y593250D01*
X308441Y593250D01*
Y578500D01*
X308441Y578500D01*
X308674Y577329D01*
X309337Y576337D01*
X311436Y574239D01*
X311424Y571826D01*
X310098Y569841D01*
X309632Y567500D01*
X310098Y565159D01*
X310192Y565018D01*
X304147Y558973D01*
X277915D01*
X276744Y558740D01*
X275752Y558077D01*
X274093Y557234D01*
X273841Y557402D01*
X271500Y557868D01*
X269159Y557402D01*
X267174Y556076D01*
X265848Y554091D01*
X265382Y551750D01*
X265848Y549409D01*
X266917Y547809D01*
X266466Y546423D01*
X266031Y545809D01*
X253529D01*
X252510Y545606D01*
X252392Y545695D01*
X251874Y547799D01*
X267570Y563494D01*
X268091Y563598D01*
X270076Y564924D01*
X271402Y566909D01*
X271868Y569250D01*
X271402Y571591D01*
X270076Y573576D01*
X268091Y574902D01*
X265750Y575368D01*
X263409Y574902D01*
X261424Y573576D01*
X260098Y571591D01*
X259632Y569250D01*
X260098Y566909D01*
X260993Y565569D01*
X236733Y541309D01*
X203767D01*
X203059Y542017D01*
Y576250D01*
X202826Y577421D01*
X202163Y578413D01*
X202163Y578413D01*
X196732Y583843D01*
X197498Y585691D01*
X295750D01*
X295750Y585691D01*
X296921Y585924D01*
X297913Y586587D01*
X307321Y595995D01*
X308874Y594720D01*
D02*
G37*
G36*
X102598Y587909D02*
X103924Y585924D01*
X105909Y584598D01*
X108250Y584132D01*
X109745Y584430D01*
X114338Y579836D01*
X115331Y579173D01*
X116501Y578940D01*
X116501Y578940D01*
X172193D01*
X173266Y576940D01*
X172880Y574999D01*
X173346Y572658D01*
X174672Y570673D01*
X176656Y569347D01*
X178998Y568881D01*
X181339Y569347D01*
X181479Y569441D01*
X183479Y568372D01*
Y491299D01*
X181683Y490099D01*
X180357Y488115D01*
X179891Y485774D01*
X180357Y483433D01*
X181683Y481448D01*
X183668Y480122D01*
X186009Y479656D01*
X188350Y480122D01*
X190335Y481448D01*
X191661Y483433D01*
X192127Y485774D01*
X191661Y488115D01*
X190335Y490099D01*
X189596Y490593D01*
Y532749D01*
X191596Y533578D01*
X199587Y525587D01*
X199587Y525587D01*
X200579Y524924D01*
X201750Y524691D01*
X201750Y524691D01*
X209752D01*
X210518Y522844D01*
X200837Y513163D01*
X200174Y512170D01*
X199941Y511000D01*
X199941Y511000D01*
Y469750D01*
X199941Y469750D01*
X200174Y468579D01*
X200837Y467587D01*
X257191Y411233D01*
Y360267D01*
X245483Y348559D01*
X191672D01*
X190826Y349826D01*
X188841Y351152D01*
X186500Y351618D01*
X184159Y351152D01*
X182174Y349826D01*
X180848Y347841D01*
X180382Y345500D01*
X180848Y343159D01*
X181750Y341809D01*
X180914Y339861D01*
X180864Y339809D01*
X154136D01*
X154086Y339861D01*
X153250Y341809D01*
X154152Y343159D01*
X154618Y345500D01*
X154152Y347841D01*
X152826Y349826D01*
X150841Y351152D01*
X148500Y351618D01*
X147136Y351346D01*
X118809Y379674D01*
Y463657D01*
X118809Y463657D01*
X118576Y464827D01*
X117913Y465820D01*
X117913Y465820D01*
X101492Y482241D01*
X102150Y484411D01*
X103091Y484598D01*
X105076Y485924D01*
X106402Y487909D01*
X106868Y490250D01*
X106402Y492591D01*
X105076Y494576D01*
X104828Y494741D01*
Y520003D01*
X118505Y533680D01*
X120000Y533382D01*
X122341Y533848D01*
X124326Y535174D01*
X125425Y536820D01*
X127599Y537475D01*
X138941Y526133D01*
Y493750D01*
X138941Y493750D01*
X139174Y492579D01*
X139837Y491587D01*
X143930Y487495D01*
X143632Y486000D01*
X144098Y483659D01*
X145424Y481674D01*
X147409Y480348D01*
X149750Y479883D01*
X152091Y480348D01*
X154076Y481674D01*
X155402Y483659D01*
X155868Y486000D01*
X155402Y488341D01*
X154076Y490326D01*
X152091Y491652D01*
X149750Y492118D01*
X148256Y491820D01*
X145059Y495017D01*
Y527399D01*
X144826Y528570D01*
X144163Y529562D01*
X144163Y529562D01*
X125062Y548663D01*
X124070Y549326D01*
X122899Y549559D01*
X122899Y549559D01*
X105000D01*
X103829Y549326D01*
X102837Y548663D01*
X99494Y545320D01*
X98000Y545618D01*
X95659Y545152D01*
X93674Y543826D01*
X93082Y542940D01*
X91082Y543546D01*
Y585497D01*
X93082Y586566D01*
X93409Y586348D01*
X95750Y585882D01*
X98091Y586348D01*
X100076Y587674D01*
X100484Y588285D01*
X102598Y587909D01*
D02*
G37*
G36*
X404909Y466941D02*
X404329Y466826D01*
X403337Y466163D01*
X392837Y455663D01*
X392174Y454670D01*
X391941Y453500D01*
X391941Y453500D01*
Y434189D01*
X391666Y434041D01*
X389868Y435250D01*
X389402Y437591D01*
X388076Y439576D01*
X386091Y440902D01*
X383750Y441367D01*
X381409Y440902D01*
X379424Y439576D01*
X378098Y437591D01*
X377632Y435250D01*
X378098Y432909D01*
X379424Y430924D01*
X381409Y429598D01*
X383750Y429132D01*
X385595Y429500D01*
X386721Y427797D01*
X378234Y419309D01*
X376386Y420271D01*
X375920Y422612D01*
X374594Y424596D01*
X372609Y425922D01*
X370268Y426388D01*
X367927Y425922D01*
X367253Y425472D01*
X364853Y425723D01*
X364853Y425723D01*
X349163Y441413D01*
X348171Y442076D01*
X347000Y442309D01*
X347000Y442309D01*
X301154D01*
X300085Y444309D01*
X300152Y444409D01*
X300618Y446750D01*
X300177Y448963D01*
X300185Y449396D01*
X301022Y450963D01*
X334672D01*
X335479Y450424D01*
X336650Y450191D01*
X336650Y450191D01*
X363369D01*
X364438Y448191D01*
X364424Y448171D01*
X364191Y447000D01*
X364191Y447000D01*
Y445672D01*
X362924Y444826D01*
X361598Y442841D01*
X361133Y440500D01*
X361598Y438159D01*
X362924Y436174D01*
X364909Y434848D01*
X367250Y434383D01*
X369591Y434848D01*
X371576Y436174D01*
X372902Y438159D01*
X373368Y440500D01*
X372902Y442841D01*
X371576Y444826D01*
X371714Y447139D01*
X393517Y468941D01*
X404712D01*
X404909Y466941D01*
D02*
G37*
G36*
X678462Y631297D02*
X678757Y629333D01*
X653983Y604559D01*
X595422D01*
X594576Y605826D01*
X592591Y607152D01*
X590250Y607617D01*
X587909Y607152D01*
X585924Y605826D01*
X584598Y603841D01*
X584132Y601500D01*
X584598Y599159D01*
X585500Y597809D01*
X584664Y595861D01*
X584614Y595809D01*
X562439D01*
X562243Y597809D01*
X562530Y597866D01*
X563192Y598308D01*
X563634Y598970D01*
X563789Y599750D01*
Y623000D01*
X564901Y624706D01*
X565250Y624961D01*
X668340D01*
X668340Y624961D01*
X669510Y625194D01*
X670503Y625857D01*
X676754Y632108D01*
X678462Y631297D01*
D02*
G37*
G36*
X292691Y343582D02*
Y282267D01*
X212733Y202309D01*
X206287D01*
X205116Y202076D01*
X204124Y201413D01*
X191826Y189116D01*
X189979Y189881D01*
Y210830D01*
X191979Y212336D01*
X193000Y212132D01*
X195341Y212598D01*
X197326Y213924D01*
X198652Y215909D01*
X199118Y218250D01*
X198652Y220591D01*
X197326Y222576D01*
X195341Y223902D01*
X193000Y224368D01*
X191979Y224164D01*
X189979Y225670D01*
Y235653D01*
X191506Y237180D01*
X193000Y236882D01*
X195341Y237348D01*
X197326Y238674D01*
X198652Y240659D01*
X199118Y243000D01*
X198652Y245341D01*
X197326Y247326D01*
X195341Y248652D01*
X193000Y249118D01*
X190659Y248652D01*
X188674Y247326D01*
X187348Y245341D01*
X187059Y243886D01*
X185059Y244083D01*
Y279483D01*
X188163Y282587D01*
X188163Y282587D01*
X188826Y283580D01*
X189059Y284750D01*
X189059Y284750D01*
Y297328D01*
X190326Y298174D01*
X191652Y300159D01*
X192118Y302500D01*
X191652Y304841D01*
X190326Y306826D01*
X189779Y307191D01*
X190385Y309191D01*
X254441D01*
X254441Y309191D01*
X255611Y309424D01*
X256604Y310087D01*
X290663Y344146D01*
X290663Y344146D01*
X290691Y344188D01*
X292691Y343582D01*
D02*
G37*
G36*
X631954Y596593D02*
X620837Y585477D01*
X620174Y584484D01*
X619941Y583314D01*
X619941Y583313D01*
Y580070D01*
X617941Y579001D01*
X617341Y579402D01*
X615000Y579868D01*
X612659Y579402D01*
X610674Y578076D01*
X609348Y576091D01*
X608882Y573750D01*
X609348Y571409D01*
X610674Y569424D01*
X611595Y568809D01*
X610989Y566809D01*
X550080D01*
X550079Y566809D01*
X548909Y566576D01*
X547917Y565913D01*
X515047Y533043D01*
X514384Y532051D01*
X514151Y530881D01*
X514151Y530880D01*
Y523727D01*
X510468Y520044D01*
X508625Y521029D01*
X508868Y522250D01*
X508402Y524591D01*
X507076Y526576D01*
X505091Y527902D01*
X502750Y528368D01*
X500409Y527902D01*
X498424Y526576D01*
X497098Y524591D01*
X496632Y522250D01*
X497098Y519909D01*
X498424Y517924D01*
X500409Y516598D01*
X502398Y516203D01*
X503119Y515087D01*
X503422Y514227D01*
X503091Y513780D01*
X502524Y513892D01*
X500183Y513427D01*
X498199Y512100D01*
X497099Y510455D01*
X494926Y509800D01*
X450559Y554167D01*
Y574661D01*
X452076Y575674D01*
X453402Y577659D01*
X453867Y580000D01*
X453402Y582341D01*
X452076Y584326D01*
X450091Y585652D01*
X447750Y586118D01*
X445409Y585652D01*
X443424Y584326D01*
X442098Y582341D01*
X441632Y580000D01*
X442098Y577659D01*
X443424Y575674D01*
X444441Y574995D01*
Y573135D01*
X442441Y572529D01*
X442076Y573076D01*
X440091Y574402D01*
X437750Y574868D01*
X436809Y575640D01*
Y596169D01*
X439112Y596628D01*
X441097Y597954D01*
X442889Y597035D01*
X449337Y590587D01*
X449337Y590587D01*
X450329Y589924D01*
X451500Y589691D01*
X451500Y589691D01*
X576463D01*
X577286Y588151D01*
X577318Y587691D01*
X576883Y585500D01*
X577348Y583159D01*
X578674Y581174D01*
X580659Y579848D01*
X583000Y579383D01*
X585341Y579848D01*
X587326Y581174D01*
X588652Y583159D01*
X589118Y585500D01*
X588682Y587691D01*
X588714Y588151D01*
X589537Y589691D01*
X604054D01*
X604080Y589674D01*
X605250Y589441D01*
X610078D01*
X610924Y588174D01*
X612909Y586848D01*
X615250Y586382D01*
X617591Y586848D01*
X619576Y588174D01*
X620902Y590159D01*
X621367Y592500D01*
X620902Y594841D01*
X619833Y596441D01*
X620284Y597826D01*
X620719Y598441D01*
X631189D01*
X631954Y596593D01*
D02*
G37*
G36*
X231123Y625643D02*
X231181Y624441D01*
X230808Y624192D01*
X230366Y623530D01*
X230211Y622750D01*
Y599750D01*
X230366Y598970D01*
X230808Y598308D01*
X231470Y597866D01*
X231758Y597809D01*
X231561Y595809D01*
X189383D01*
X189030Y596162D01*
X188038Y596825D01*
X186868Y597058D01*
X186868Y597058D01*
X181619D01*
X179763Y598913D01*
X179763Y598913D01*
X166513Y612163D01*
X166283Y612317D01*
X166375Y612780D01*
X165910Y615121D01*
X164584Y617106D01*
X162599Y618432D01*
X160258Y618897D01*
X158668Y618581D01*
X156884Y619780D01*
X156721Y621396D01*
X161767Y626441D01*
X230849D01*
X231123Y625643D01*
D02*
G37*
G36*
X498099Y624706D02*
X499211Y623000D01*
Y599750D01*
X499366Y598970D01*
X499808Y598308D01*
X500470Y597866D01*
X500757Y597809D01*
X500560Y595809D01*
X452767D01*
X446830Y601746D01*
Y605179D01*
X446830Y605179D01*
X446597Y606349D01*
X445934Y607342D01*
X445934Y607342D01*
X441834Y611442D01*
X440841Y612105D01*
X439671Y612338D01*
X439671Y612338D01*
X434764D01*
X433495Y613884D01*
X433618Y614500D01*
X433152Y616841D01*
X431826Y618826D01*
X430559Y619672D01*
Y623014D01*
X431020Y624961D01*
X431020Y624961D01*
X497750D01*
X498099Y624706D01*
D02*
G37*
%LPC*%
G36*
X230750Y495118D02*
X228409Y494652D01*
X226425Y493326D01*
X225098Y491341D01*
X224633Y489000D01*
X225098Y486659D01*
X226425Y484674D01*
X228409Y483348D01*
X230750Y482882D01*
X233091Y483348D01*
X235076Y484674D01*
X236402Y486659D01*
X236868Y489000D01*
X236402Y491341D01*
X235076Y493326D01*
X233091Y494652D01*
X230750Y495118D01*
D02*
G37*
G36*
X590500Y472617D02*
X588159Y472152D01*
X586174Y470826D01*
X584848Y468841D01*
X584382Y466500D01*
X584848Y464159D01*
X586174Y462174D01*
X588159Y460848D01*
X590500Y460382D01*
X592841Y460848D01*
X594826Y462174D01*
X596152Y464159D01*
X596618Y466500D01*
X596152Y468841D01*
X594826Y470826D01*
X592841Y472152D01*
X590500Y472617D01*
D02*
G37*
G36*
X553500Y491867D02*
X551159Y491402D01*
X549174Y490076D01*
X547848Y488091D01*
X547383Y485750D01*
X547848Y483409D01*
X549174Y481424D01*
X551159Y480098D01*
X553500Y479632D01*
X555841Y480098D01*
X557826Y481424D01*
X559152Y483409D01*
X559618Y485750D01*
X559152Y488091D01*
X557826Y490076D01*
X555841Y491402D01*
X553500Y491867D01*
D02*
G37*
G36*
X610500Y549618D02*
X608159Y549152D01*
X606174Y547826D01*
X604848Y545841D01*
X604383Y543500D01*
X604848Y541159D01*
X606174Y539174D01*
X608159Y537848D01*
X610500Y537383D01*
X612841Y537848D01*
X614826Y539174D01*
X616152Y541159D01*
X616618Y543500D01*
X616152Y545841D01*
X614826Y547826D01*
X612841Y549152D01*
X610500Y549618D01*
D02*
G37*
G36*
X673820Y665328D02*
X671479Y664862D01*
X669494Y663536D01*
X668168Y661551D01*
X667702Y659210D01*
X668168Y656869D01*
X669494Y654884D01*
X671479Y653558D01*
X673820Y653092D01*
X676161Y653558D01*
X678146Y654884D01*
X679472Y656869D01*
X679938Y659210D01*
X679472Y661551D01*
X678146Y663536D01*
X676161Y664862D01*
X673820Y665328D01*
D02*
G37*
G36*
X121250Y673118D02*
X118909Y672652D01*
X116924Y671326D01*
X115598Y669341D01*
X115133Y667000D01*
X115598Y664659D01*
X116924Y662674D01*
X118909Y661348D01*
X121250Y660882D01*
X123591Y661348D01*
X125576Y662674D01*
X126902Y664659D01*
X127367Y667000D01*
X126902Y669341D01*
X125576Y671326D01*
X123591Y672652D01*
X121250Y673118D01*
D02*
G37*
G36*
X482080Y733698D02*
X479739Y733232D01*
X477754Y731906D01*
X476428Y729921D01*
X475962Y727580D01*
X476428Y725239D01*
X477754Y723254D01*
X479739Y721928D01*
X482080Y721462D01*
X484421Y721928D01*
X486406Y723254D01*
X487732Y725239D01*
X488198Y727580D01*
X487732Y729921D01*
X486406Y731906D01*
X484421Y733232D01*
X482080Y733698D01*
D02*
G37*
G36*
X464480Y732998D02*
X462139Y732532D01*
X460154Y731206D01*
X458828Y729221D01*
X458363Y726880D01*
X458828Y724539D01*
X460154Y722554D01*
X462139Y721228D01*
X464480Y720762D01*
X466821Y721228D01*
X468806Y722554D01*
X470132Y724539D01*
X470597Y726880D01*
X470132Y729221D01*
X468806Y731206D01*
X466821Y732532D01*
X464480Y732998D01*
D02*
G37*
G36*
X384500Y680867D02*
X382159Y680402D01*
X380174Y679076D01*
X378848Y677091D01*
X378382Y674750D01*
X378848Y672409D01*
X380174Y670424D01*
X382159Y669098D01*
X384500Y668633D01*
X386841Y669098D01*
X388826Y670424D01*
X390152Y672409D01*
X390617Y674750D01*
X390152Y677091D01*
X388826Y679076D01*
X386841Y680402D01*
X384500Y680867D01*
D02*
G37*
G36*
X135500Y562617D02*
X133159Y562152D01*
X131174Y560826D01*
X129848Y558841D01*
X129382Y556500D01*
X129848Y554159D01*
X131174Y552174D01*
X133159Y550848D01*
X135500Y550382D01*
X137841Y550848D01*
X139826Y552174D01*
X141152Y554159D01*
X141617Y556500D01*
X141152Y558841D01*
X139826Y560826D01*
X137841Y562152D01*
X135500Y562617D01*
D02*
G37*
G36*
X154750Y440368D02*
X152409Y439902D01*
X150424Y438576D01*
X149098Y436591D01*
X148632Y434250D01*
X149098Y431909D01*
X150424Y429924D01*
X152409Y428598D01*
X154750Y428133D01*
X157091Y428598D01*
X159076Y429924D01*
X160402Y431909D01*
X160868Y434250D01*
X160402Y436591D01*
X159076Y438576D01*
X157091Y439902D01*
X154750Y440368D01*
D02*
G37*
G36*
X166750Y548867D02*
X164409Y548402D01*
X162424Y547076D01*
X161098Y545091D01*
X160632Y542750D01*
X161098Y540409D01*
X162424Y538424D01*
X164409Y537098D01*
X166750Y536632D01*
X169091Y537098D01*
X171076Y538424D01*
X172402Y540409D01*
X172868Y542750D01*
X172402Y545091D01*
X171076Y547076D01*
X169091Y548402D01*
X166750Y548867D01*
D02*
G37*
G36*
X612280Y622398D02*
X609939Y621932D01*
X607954Y620606D01*
X606628Y618621D01*
X606162Y616280D01*
X606628Y613939D01*
X607954Y611954D01*
X609939Y610628D01*
X612280Y610163D01*
X614621Y610628D01*
X616606Y611954D01*
X617932Y613939D01*
X618397Y616280D01*
X617932Y618621D01*
X616606Y620606D01*
X614621Y621932D01*
X612280Y622398D01*
D02*
G37*
G36*
X274000Y298118D02*
X273606Y298039D01*
X266394D01*
X266000Y298118D01*
X265606Y298039D01*
X258000D01*
X257220Y297884D01*
X256558Y297442D01*
X256116Y296780D01*
X255961Y296000D01*
Y278750D01*
X256116Y277970D01*
X256558Y277308D01*
X257220Y276866D01*
X258000Y276711D01*
X282250D01*
X283030Y276866D01*
X283692Y277308D01*
X284134Y277970D01*
X284289Y278750D01*
Y296000D01*
X284134Y296780D01*
X283692Y297442D01*
X283030Y297884D01*
X282250Y298039D01*
X274394D01*
X274000Y298118D01*
D02*
G37*
G36*
X568500Y585368D02*
X566159Y584902D01*
X564174Y583576D01*
X563130Y582013D01*
X561398Y581713D01*
X560896Y581755D01*
X558912Y583081D01*
X556571Y583547D01*
X554230Y583081D01*
X552245Y581755D01*
X550919Y579770D01*
X550453Y577429D01*
X550919Y575088D01*
X552245Y573104D01*
X554230Y571777D01*
X556571Y571312D01*
X558912Y571777D01*
X560896Y573104D01*
X561941Y574667D01*
X563672Y574966D01*
X564174Y574924D01*
X566159Y573598D01*
X568500Y573133D01*
X570841Y573598D01*
X572826Y574924D01*
X574152Y576909D01*
X574618Y579250D01*
X574152Y581591D01*
X572826Y583576D01*
X570841Y584902D01*
X568500Y585368D01*
D02*
G37*
%LPD*%
D36*
X763000Y394000D02*
Y415000D01*
Y227000D02*
Y394000D01*
X816290Y393700D02*
X820420D01*
X833120Y406400D01*
X816290Y419100D02*
X820420D01*
X833120Y406400D01*
X858520D01*
X753000Y217000D02*
X763000Y227000D01*
D40*
Y394000D02*
X763300Y393700D01*
X816290D01*
X763000Y415000D02*
X767100Y419100D01*
X820420D01*
D41*
X282600Y431100D02*
X290750Y439250D01*
X282600Y391456D02*
Y431100D01*
Y391456D02*
X284000Y390056D01*
X560350Y368400D02*
X569000Y359750D01*
X530507Y368400D02*
X560350D01*
X508250Y390657D02*
X530507Y368400D01*
X28500Y613250D02*
X41500Y626250D01*
X28500Y598250D02*
Y613250D01*
Y598250D02*
X41500Y585250D01*
X43000Y4500D02*
X44750Y6250D01*
X47750D01*
X112750Y71250D01*
X39000Y349750D02*
Y381500D01*
X52000Y52500D02*
Y65500D01*
X112750Y71250D02*
Y150936D01*
X131504Y169690D01*
X121250Y181000D02*
X129000Y188750D01*
X534601Y357750D02*
X549851Y342500D01*
X595250Y350250D02*
X651250Y294250D01*
X676250Y241250D02*
X724250Y193250D01*
X627500Y350500D02*
Y351500D01*
X619500Y359500D02*
X627500Y351500D01*
X598750Y359500D02*
X619500D01*
X595250Y356000D02*
X598750Y359500D01*
X595250Y350250D02*
Y356000D01*
X567500Y342500D02*
X577500Y352500D01*
X549851Y342500D02*
X567500D01*
X577500Y352500D02*
Y380000D01*
X651250Y251000D02*
Y294250D01*
Y251000D02*
X661000Y241250D01*
X676250D01*
X675783Y258250D02*
Y282981D01*
X682954Y240796D02*
X722000Y201750D01*
X147750Y250D02*
X150000Y-2000D01*
X147750Y250D02*
Y33851D01*
X290750Y439250D02*
X347000D01*
X291872Y454022D02*
X335878D01*
X264500Y426650D02*
X291872Y454022D01*
X288650Y458250D02*
X360750D01*
X283400Y453000D02*
X288650Y458250D01*
X113000Y597750D02*
X114500D01*
X113000D02*
Y599500D01*
X525210Y509960D02*
Y525960D01*
X501750Y486500D02*
X525210Y509960D01*
X521210Y514061D02*
Y528460D01*
X497649Y490500D02*
X521210Y514061D01*
X517210Y522460D02*
Y530881D01*
X502000Y507250D02*
X517210Y522460D01*
X492963Y486500D02*
X501750D01*
X521210Y528460D02*
X552250Y559500D01*
X494620Y490500D02*
X497649D01*
X525210Y525960D02*
X554500Y555250D01*
X620250D01*
X552250Y559500D02*
X618500D01*
X620250Y555250D02*
X632000Y567000D01*
Y581000D01*
X627000Y568000D02*
Y581657D01*
X618500Y559500D02*
X627000Y568000D01*
X623000Y569657D02*
Y583314D01*
X617093Y563750D02*
X623000Y569657D01*
X550079Y563750D02*
X617093D01*
X627000Y581657D02*
X638843Y593500D01*
X623000Y583314D02*
X637186Y597500D01*
X638843Y593500D02*
X693250D01*
X637186Y597500D02*
X690250D01*
X458250Y508093D02*
Y527500D01*
X451750Y534000D02*
X458250Y527500D01*
X447250Y534000D02*
X451750D01*
X444500Y531250D02*
X447250Y534000D01*
X462250Y509750D02*
Y532000D01*
X437750Y556500D02*
X462250Y532000D01*
X437750Y556500D02*
Y568750D01*
X447500Y552900D02*
Y577250D01*
Y552900D02*
X496250Y504150D01*
Y499000D02*
Y504150D01*
X446250Y578500D02*
X447500Y577250D01*
X430750Y524351D02*
X434480Y520620D01*
X415210Y522373D02*
X426750Y533913D01*
X508250Y390657D02*
Y442000D01*
X295750Y363556D02*
X326000Y393806D01*
X322000Y395463D02*
Y418556D01*
X288500Y361963D02*
X322000Y395463D01*
Y418556D02*
X333694Y430250D01*
X337351Y399500D02*
X362750D01*
X299750Y361899D02*
X337351Y399500D01*
X304500Y415000D02*
X310750Y408750D01*
Y389870D02*
Y408750D01*
X284500Y363620D02*
X310750Y389870D01*
X293250Y415000D02*
X304500D01*
X100750Y520250D02*
X120000Y539500D01*
X100750Y490250D02*
Y520250D01*
X288500Y346309D02*
Y361963D01*
X284500Y347966D02*
Y363620D01*
X299750Y277750D02*
Y361899D01*
X295750Y281000D02*
Y363556D01*
X341250Y292250D02*
Y338000D01*
X302750Y253750D02*
X341250Y292250D01*
X196000Y64000D02*
Y177649D01*
X191460Y178766D02*
X207944Y195250D01*
X186920Y179883D02*
X206287Y199250D01*
X191460Y88460D02*
Y178766D01*
X207944Y195250D02*
X217250D01*
X206287Y199250D02*
X214000D01*
X186920Y179883D02*
Y214431D01*
X373000Y345000D02*
Y355250D01*
X365500Y337500D02*
X373000Y345000D01*
X365500Y211703D02*
Y337500D01*
X352250Y337170D02*
X362750Y347671D01*
X352250Y230500D02*
Y337170D01*
X361484Y339984D02*
X368000Y346500D01*
X361484Y202516D02*
Y339984D01*
X74511Y157250D02*
X82004Y149757D01*
X19000Y157250D02*
X74511D01*
X74000Y87500D02*
X95000D01*
X52000Y65500D02*
X74000Y87500D01*
X143750Y37850D02*
Y59399D01*
X147750Y63400D01*
X143750Y37850D02*
X147750Y33851D01*
X276500Y369934D02*
X284000Y377434D01*
X280000Y379090D02*
Y388400D01*
X272500Y371590D02*
X280000Y379090D01*
X284000Y377434D02*
Y390056D01*
X278500Y389899D02*
Y396750D01*
Y389899D02*
X280000Y388400D01*
X275000Y400250D02*
X278500Y396750D01*
X264500Y356250D02*
Y426650D01*
X260250Y359000D02*
Y412500D01*
X326000Y393806D02*
Y416899D01*
X332351Y423250D01*
X555000Y387500D02*
X570000D01*
X577500Y380000D01*
X474750Y362000D02*
X479000Y357750D01*
X474750Y362000D02*
Y368000D01*
X479500Y372750D01*
Y380900D01*
X467750Y396851D02*
Y402399D01*
Y396851D02*
X473350Y391250D01*
X474806D01*
X483500Y382556D01*
Y366250D02*
Y382556D01*
X482250Y365000D02*
X483500Y366250D01*
X473944Y385000D02*
X475400D01*
X460750Y398194D02*
X473944Y385000D01*
X460750Y398194D02*
Y399500D01*
X475400Y385000D02*
X479500Y380900D01*
X464000Y406149D02*
X467750Y402399D01*
X464000Y406149D02*
Y445000D01*
X668340Y628020D02*
X691820Y651500D01*
X431020Y628020D02*
X668340D01*
X364000Y535500D02*
Y573500D01*
X352000Y592000D02*
X368210Y575790D01*
X345000Y592500D02*
X364000Y573500D01*
X345000Y592500D02*
Y604500D01*
X352000Y592000D02*
Y607399D01*
X347900Y611500D02*
X352000Y607399D01*
X605000Y592750D02*
X605250Y592500D01*
X35500Y600601D02*
Y607250D01*
Y600601D02*
X46250Y589851D01*
X41500Y626250D02*
Y719500D01*
X97000Y775000D01*
X90250Y432750D02*
Y477250D01*
X39000Y381500D02*
X90250Y432750D01*
X115750Y378407D02*
Y463657D01*
X111750Y376750D02*
Y462000D01*
X54500Y593250D02*
Y607250D01*
X51350Y421100D02*
X61250Y431000D01*
X246750Y345500D02*
X260250Y359000D01*
X186500Y345500D02*
X246750D01*
X207351Y312250D02*
X254441D01*
X246157Y332250D02*
X268500Y354593D01*
X247814Y328250D02*
X272500Y352936D01*
X249471Y324250D02*
X276500Y351279D01*
X251127Y320250D02*
X280500Y349623D01*
X252784Y316250D02*
X284500Y347966D01*
X254441Y312250D02*
X288500Y346309D01*
X280500Y368277D02*
X295500Y383277D01*
X280500Y349623D02*
Y368277D01*
X276500Y351279D02*
Y369934D01*
X272500Y352936D02*
Y371590D01*
X268500Y373247D02*
X271500Y376247D01*
X268500Y354593D02*
Y373247D01*
X245000Y336750D02*
X264500Y356250D01*
X643000Y321421D02*
Y352750D01*
X655000Y315841D02*
Y353250D01*
X710351Y611500D02*
Y611530D01*
X708785Y611500D02*
X710351D01*
X315000Y565500D02*
Y567500D01*
X642000Y581000D02*
X659750Y563250D01*
X660000Y563000D01*
X356000Y466250D02*
X356250Y466500D01*
X355750Y466000D02*
X356000Y466250D01*
X127000Y327750D02*
X133500D01*
X90000Y309500D02*
X117250Y336750D01*
X160258Y612742D02*
Y612780D01*
Y612742D02*
X163000Y610000D01*
X192750Y536750D02*
Y575750D01*
X200000Y540750D02*
Y576250D01*
X296750Y542750D02*
X299750Y545750D01*
X273750Y551750D02*
X277915Y555914D01*
X305415D01*
X318750Y603000D02*
X319250Y603500D01*
X299750Y545750D02*
X303899D01*
X305415Y555914D02*
X315000Y565500D01*
X615250Y592500D02*
X615500D01*
X605250D02*
X615250D01*
X758370Y201750D02*
X782320Y177800D01*
X722000Y201750D02*
X758370D01*
X779520Y206000D02*
X782320Y203200D01*
X727337Y206000D02*
X779520D01*
X504000Y250750D02*
Y293250D01*
X612750Y346500D02*
X629250Y330000D01*
Y329514D02*
Y330000D01*
Y329514D02*
X675783Y282981D01*
X361484Y202516D02*
X371000Y193000D01*
X365500Y211703D02*
X378540Y198663D01*
X423500Y435167D02*
Y453250D01*
X412623Y424290D02*
X423500Y435167D01*
X356250Y465500D02*
X356750D01*
X355750Y466000D02*
X356250Y465500D01*
X355250Y504500D02*
X356250Y503500D01*
X333000Y465250D02*
X335500D01*
X294250Y504000D02*
X333000Y465250D01*
X376000Y382250D02*
X404250Y410500D01*
X401000Y423750D02*
Y440750D01*
X350000Y382250D02*
X376000D01*
X404250Y410500D02*
Y420500D01*
X401000Y423750D02*
X404250Y420500D01*
X401000Y440750D02*
X404500Y444250D01*
X405500Y464000D02*
X427250D01*
X395000Y453500D02*
X405500Y464000D01*
X395000Y431750D02*
Y453500D01*
X362750Y399500D02*
X395000Y431750D01*
X362690Y409190D02*
Y423560D01*
X347000Y439250D02*
X362690Y423560D01*
X321000Y582000D02*
X329000Y574000D01*
X349000Y529000D02*
X351000Y531000D01*
X451000Y470500D02*
Y478829D01*
X456250Y467334D02*
Y480000D01*
X446250Y465750D02*
X451000Y470500D01*
X433670Y444754D02*
X456250Y467334D01*
X682954Y240796D02*
X683250Y240500D01*
X437250Y455997D02*
Y456750D01*
X341250Y338000D02*
X353500Y350250D01*
X302750Y82250D02*
Y253750D01*
X473000Y334421D02*
Y353500D01*
X708785Y611530D02*
X710351D01*
X700250Y625250D02*
X706535Y631535D01*
X157000Y-12500D02*
X162380Y-7120D01*
X160670Y-22000D02*
X166920Y-15750D01*
X150500Y-22000D02*
X160670D01*
X158500Y-31500D02*
X171460Y-18540D01*
X184000Y18000D02*
Y52000D01*
X186538Y486538D02*
Y572462D01*
X184001Y574999D02*
X186538Y572462D01*
X178998Y574999D02*
X184001D01*
X178998D02*
X180999D01*
X473000Y334421D02*
X483540Y323881D01*
Y236880D02*
Y323881D01*
X395000Y110000D02*
Y264540D01*
Y110000D02*
X444000Y61000D01*
X474460Y233120D02*
Y298540D01*
X545000Y68000D02*
Y118000D01*
X479000Y235000D02*
Y322000D01*
X576000Y-10000D02*
Y96000D01*
X378540Y85460D02*
Y198663D01*
Y85460D02*
X460830Y3170D01*
X-8400Y424400D02*
Y437000D01*
X706535Y631535D02*
Y759465D01*
X45000Y601000D02*
X46290Y599710D01*
X378250Y281290D02*
X395000Y264540D01*
X378250Y281290D02*
Y349250D01*
X387750Y358750D01*
X362750Y347671D02*
Y359000D01*
X368000Y346500D02*
Y357500D01*
X362750Y359000D02*
X412623Y408873D01*
Y424290D01*
X427521Y345479D02*
Y418267D01*
X368000Y357500D02*
X417163Y406663D01*
X373000Y355250D02*
X421703Y403953D01*
Y418870D01*
X417163Y406663D02*
Y420751D01*
X427521Y345479D02*
X474460Y298540D01*
X427521Y418267D02*
X438210Y428956D01*
X417163Y420751D02*
X428561Y432148D01*
Y447307D02*
X437250Y455997D01*
X428561Y432148D02*
Y447307D01*
X433670Y430837D02*
Y444754D01*
X446250Y427750D02*
X458250Y439750D01*
X421703Y418870D02*
X433670Y430837D01*
X464000Y445000D02*
X472500Y453500D01*
X483750D01*
X470337Y475000D02*
X483250D01*
X458250Y439750D02*
Y449080D01*
X470210Y461040D01*
X486873D01*
X438210Y428956D02*
Y442873D01*
X436127Y457873D02*
X437250Y456750D01*
X502524Y507775D02*
Y507775D01*
X437250Y465750D02*
X446250D01*
X431000Y472000D02*
X437250Y465750D01*
X424540Y476540D02*
X429750Y481750D01*
X655000Y315841D02*
X687494Y283347D01*
X643000Y321421D02*
X682954Y281467D01*
X174500Y292000D02*
X177840Y288660D01*
X126000Y287750D02*
X129000D01*
X186000Y284750D02*
Y302500D01*
X186920Y237000D02*
X187000D01*
X309000Y364250D02*
Y365000D01*
X207351Y312250D02*
X207750D01*
X333694Y430250D02*
X345000D01*
X186000Y346000D02*
X186500Y345500D01*
X142000Y493750D02*
X149750Y486000D01*
X98000Y539500D02*
X105000Y546500D01*
X122899D02*
X142000Y527399D01*
X105000Y546500D02*
X122899D01*
X142000Y493750D02*
Y527399D01*
X244168Y479332D02*
X274750Y448750D01*
X292500Y514000D02*
X293000D01*
X334000Y533750D02*
X339250Y539000D01*
X324000Y496250D02*
X336000D01*
X339250Y504000D02*
X349250Y494000D01*
X322750Y504000D02*
X339250D01*
X126625Y278625D02*
X128750Y280750D01*
X128899D01*
X137668Y271332D02*
Y282918D01*
X303750Y275500D02*
Y359000D01*
X309000Y364250D01*
X271500Y384000D02*
X273000Y385500D01*
X271500Y376247D02*
Y384000D01*
X358000Y404500D02*
X362690Y409190D01*
X335000Y416000D02*
X346500Y404500D01*
X358000D01*
X332351Y423250D02*
X347500D01*
X355000Y415750D01*
X280500Y460000D02*
X295000Y474500D01*
Y491250D01*
X287250Y499000D02*
X295000Y491250D01*
X287250Y499000D02*
Y508750D01*
X292500Y514000D01*
X255250Y488500D02*
X263000Y496250D01*
Y512911D01*
X256000Y508750D02*
Y512000D01*
X263000Y512911D02*
X271089Y521000D01*
X299250D01*
X324000Y496250D01*
X301750Y525000D02*
X322750Y504000D01*
X465250Y335750D02*
X479000Y322000D01*
X465250Y335750D02*
Y370750D01*
X472500Y378000D01*
X509500Y345500D02*
Y348500D01*
X504000Y293250D02*
X513000Y302250D01*
X619500Y61500D02*
X739250D01*
X700250Y607500D02*
Y625250D01*
X708785Y609035D02*
Y611500D01*
X438210Y442873D02*
X470337Y475000D01*
X115750Y378407D02*
X148500Y345657D01*
Y345500D02*
Y345657D01*
X476250Y398250D02*
Y432500D01*
X493750Y450000D01*
X153250Y607250D02*
X160500Y600000D01*
X153250Y607250D02*
Y622250D01*
X120750Y608000D02*
X125125Y603625D01*
X87254Y608000D02*
X120750D01*
X87004Y607750D02*
X87254Y608000D01*
X370750Y614750D02*
X398400D01*
X431000Y628040D02*
X431020Y628020D01*
X427500Y628040D02*
X431000D01*
X427500Y614500D02*
Y628040D01*
X90000Y209750D02*
Y309500D01*
X127000Y343750D02*
Y361500D01*
X111750Y376750D02*
X127000Y361500D01*
X126625Y271625D02*
Y278625D01*
X-8400Y424400D02*
X-5100Y421100D01*
X51350D01*
X146000Y599500D02*
X151101D01*
X163000Y610000D02*
X164350D01*
X244168Y479332D02*
Y516418D01*
X192750Y536750D02*
X201750Y527750D01*
X211000Y511250D02*
X218750Y519000D01*
X241093D01*
X215750Y523750D02*
X240186D01*
X201750Y527750D02*
X238529D01*
X265750Y566000D02*
Y569250D01*
X200000Y540750D02*
X202500Y538250D01*
X256000Y512000D02*
X269000Y525000D01*
X301750D01*
X244168Y516418D02*
X256750Y529000D01*
X349000D01*
X241093Y519000D02*
X255843Y533750D01*
X334000D01*
X240186Y523750D02*
X254186Y537750D01*
X238529Y527750D02*
X253529Y542750D01*
X296750D01*
X202500Y538250D02*
X238000D01*
X265750Y566000D01*
X303899Y545750D02*
X323500Y565350D01*
Y571500D01*
X320000Y575000D02*
X323500Y571500D01*
X315000Y575000D02*
X320000D01*
X311500Y578500D02*
X315000Y575000D01*
X311500Y578500D02*
Y593250D01*
X318750Y600500D02*
Y603000D01*
X311500Y593250D02*
X318750Y600500D01*
X312500Y617150D02*
X316600Y621250D01*
X312250Y605250D02*
Y606399D01*
X308500Y611507D02*
Y618806D01*
X315194Y625500D01*
X312250Y606399D02*
X312500Y606650D01*
Y617150D01*
X426040Y629500D02*
X427500Y628040D01*
X153250Y622250D02*
X160500Y629500D01*
X426040D01*
X315194Y625500D02*
X327000D01*
X333250Y619250D01*
X322399Y621250D02*
X328000Y615649D01*
X333250Y610750D02*
Y619250D01*
X328000Y610250D02*
Y615649D01*
Y610250D02*
X333750Y604500D01*
X316600Y621250D02*
X322399D01*
X333250Y610750D02*
X335500Y608500D01*
X333750Y604500D02*
X345000D01*
X335500Y608500D02*
X339100D01*
X342100Y611500D02*
X347900D01*
X339100Y608500D02*
X342100Y611500D01*
X370750Y614750D02*
X373280Y617280D01*
X373518D01*
X356017Y614280D02*
X360619D01*
X370619Y624280D01*
X394970D01*
X690250Y597500D02*
X700250Y607500D01*
X693250Y593500D02*
X708785Y609035D01*
X655250Y601500D02*
X684750Y631000D01*
X184000Y52000D02*
X196000Y64000D01*
X179000Y76000D02*
X191460Y88460D01*
X186920Y104570D02*
Y179883D01*
X171460Y89109D02*
X186920Y104570D01*
X171460Y-18540D02*
Y89109D01*
X166920Y-15750D02*
Y90226D01*
X162380Y-7120D02*
Y91343D01*
X182000Y89750D02*
X182500Y89250D01*
X162380Y91343D02*
X178920Y107883D01*
X166000Y141750D02*
X174920Y150670D01*
X166920Y90226D02*
X182920Y106226D01*
X174920Y150670D02*
Y173729D01*
X173000Y175650D02*
X174920Y173729D01*
X173000Y175650D02*
Y190268D01*
X182920Y106226D02*
Y177043D01*
X178920Y107883D02*
Y175386D01*
X177840Y176466D02*
X178920Y175386D01*
X177840Y176466D02*
Y288660D01*
X147750Y161850D02*
X165000Y179100D01*
X165760Y197508D02*
X173000Y190268D01*
X165758Y197508D02*
X165760D01*
X165758D02*
Y206492D01*
X187000Y237000D02*
X193000Y243000D01*
X126000Y297980D02*
X132480D01*
X133500Y327750D02*
X138000Y332250D01*
X174500Y292000D02*
Y306250D01*
X180500Y312250D01*
X207351D01*
X137668Y282918D02*
X171000Y316250D01*
X252784D01*
X128899Y280750D02*
X168400Y320250D01*
X251127D01*
X129000Y287750D02*
X165500Y324250D01*
X249471D01*
X132480Y297980D02*
X162750Y328250D01*
X247814D01*
X138000Y332250D02*
X246157D01*
X117250Y336750D02*
X245000D01*
X211000Y482000D02*
Y511250D01*
X203000Y511000D02*
X215750Y523750D01*
X203000Y469750D02*
X260250Y412500D01*
X203000Y469750D02*
Y511000D01*
X186000Y215350D02*
X186920Y214431D01*
X186000Y215350D02*
Y221150D01*
X186920Y222069D01*
Y237000D01*
X182000Y177963D02*
Y280750D01*
Y177963D02*
X182920Y177043D01*
X182000Y280750D02*
X186000Y284750D01*
X165000Y179100D02*
Y180000D01*
X196000Y177649D02*
X209601Y191250D01*
X214000Y199250D02*
X295750Y281000D01*
X217250Y195250D02*
X299750Y277750D01*
X219500Y191250D02*
X303750Y275500D01*
X209601Y191250D02*
X219500D01*
X685750Y421750D02*
X698500Y409000D01*
X731500D01*
X729500Y449750D02*
X736500D01*
X741500Y454750D01*
X756000D01*
X760000Y450750D01*
Y444250D02*
Y450750D01*
X740000Y424250D02*
X760000Y444250D01*
X731500Y409000D02*
X736000Y413500D01*
Y431000D01*
X751000Y446000D01*
X740000Y344250D02*
Y424250D01*
Y344250D02*
X747000Y337250D01*
X704750Y421500D02*
Y489000D01*
X713750Y498000D01*
X444522Y533526D02*
X445272Y534276D01*
X444522Y531272D02*
Y533526D01*
X434480Y517250D02*
Y520620D01*
X415210Y514436D02*
Y522373D01*
X439750Y512605D02*
Y516600D01*
X439750Y512604D02*
X439750Y512605D01*
X439750Y503350D02*
Y512604D01*
X502750Y466000D02*
Y471056D01*
X490250Y468250D02*
X499500Y459000D01*
X486873Y461040D02*
X492913Y455000D01*
X499500Y459000D02*
X574250D01*
X492913Y455000D02*
X572593D01*
X574250Y459000D02*
X582000Y451250D01*
X493750Y450000D02*
X567694D01*
X572593Y455000D02*
X575000Y452593D01*
Y448350D02*
Y452593D01*
X660000Y513694D02*
Y563000D01*
X567694Y450000D02*
X577444Y440250D01*
X575000Y448350D02*
X579100Y444250D01*
X439750Y503350D02*
X461101Y482000D01*
X683625Y439625D02*
X695250Y428000D01*
X600375Y439625D02*
X683625D01*
X610500Y469851D02*
Y486500D01*
X600375Y439625D02*
X600979Y439021D01*
X601029D01*
X579100Y444250D02*
X584899D01*
X577444Y440250D02*
X586556D01*
X582250Y432250D02*
X584213D01*
X598713Y446750D01*
X586556Y440250D02*
X660000Y513694D01*
X584899Y444250D02*
X610500Y469851D01*
X598713Y446750D02*
X652750D01*
X691750Y485750D01*
Y500750D01*
X701750Y510750D01*
X739250D01*
X756750Y493250D01*
X672250Y556750D02*
X682750Y546250D01*
X672250Y556750D02*
Y565250D01*
X649500Y588000D02*
X672250Y565250D01*
X639000Y588000D02*
X649500D01*
X632000Y581000D02*
X639000Y588000D01*
X517210Y530881D02*
X550079Y563750D01*
X490250Y468250D02*
Y477900D01*
X489463Y490000D02*
X492963Y486500D01*
X482000Y490000D02*
X489463D01*
X482000Y500000D02*
X488000Y494000D01*
X491120D01*
X494620Y490500D01*
X486149Y482000D02*
X490250Y477900D01*
X487806Y486000D02*
X502750Y471056D01*
X461101Y482000D02*
X486149D01*
X480343Y486000D02*
X487806D01*
X458250Y508093D02*
X480343Y486000D01*
X254186Y537750D02*
X304500D01*
X329000Y562250D01*
Y574000D01*
X368210Y560540D02*
Y575790D01*
X432779Y609279D02*
X439671D01*
X443771Y605179D01*
Y600479D02*
Y605179D01*
X422750Y513317D02*
Y519250D01*
X438750Y526250D02*
X439750Y525250D01*
Y516600D02*
Y525250D01*
Y516600D02*
X439750Y516600D01*
X415210Y514436D02*
X429476Y500170D01*
X429660D01*
X451000Y478829D01*
X422750Y513317D02*
X431357Y504710D01*
X431540D01*
X456250Y480000D01*
X462250Y509750D02*
X482000Y490000D01*
X433750Y598770D02*
X434480Y599500D01*
X430750Y524351D02*
Y571650D01*
X384269Y532481D02*
X384500Y532250D01*
X384269Y532481D02*
Y532526D01*
X397250Y520000D02*
X422750Y494500D01*
X368210Y560540D02*
X397250Y531500D01*
X362500Y496500D02*
X390250Y524250D01*
X362500Y471750D02*
Y496500D01*
X356250Y466500D02*
Y503500D01*
X367250Y440500D02*
Y447000D01*
X392250Y472000D01*
X431000D01*
X387790Y476540D02*
X424540D01*
X364500Y453250D02*
X387790Y476540D01*
X362500Y471750D02*
X364250Y470000D01*
Y461750D02*
Y470000D01*
X336650Y453250D02*
X364500D01*
X360750Y458250D02*
X364250Y461750D01*
X335878Y454022D02*
X336650Y453250D01*
X273272Y447272D02*
X274750Y448750D01*
X273263Y447272D02*
X273272D01*
X277600Y453000D02*
X283400D01*
X273500Y457100D02*
Y490500D01*
X280250Y497250D01*
X273500Y457100D02*
X277600Y453000D01*
X339250Y539000D02*
X350601D01*
X361101Y528500D01*
X506000Y157000D02*
X545000Y118000D01*
X506000Y157000D02*
Y201579D01*
X474460Y233120D02*
X506000Y201579D01*
X510000Y162000D02*
X576000Y96000D01*
X510000Y162000D02*
Y204000D01*
X479000Y235000D02*
X510000Y204000D01*
X514750Y166250D02*
X619500Y61500D01*
X514750Y166250D02*
Y205671D01*
X483540Y236880D02*
X514750Y205671D01*
X590250Y601500D02*
X655250D01*
X433750Y595779D02*
Y598770D01*
X443771Y600479D02*
X451500Y592750D01*
X605000D01*
X426750Y533913D02*
Y573306D01*
X423420Y594029D02*
X428000Y589449D01*
X419121Y594029D02*
X423420D01*
X398400Y614750D02*
X419121Y594029D01*
X426750Y573306D02*
X428000Y574556D01*
X394970Y624280D02*
X416250Y603000D01*
X426500D01*
X432779Y609279D01*
X430750Y571650D02*
X433750Y574650D01*
X428000Y574556D02*
Y589449D01*
X433750Y574650D02*
Y595779D01*
X361101Y528500D02*
X380750D01*
X384500Y532250D01*
X397250Y520000D02*
Y531500D01*
X108250Y590250D02*
X116501Y581999D01*
X293743Y596750D02*
X308500Y611507D01*
X164350Y610000D02*
X177600Y596750D01*
X295750Y588750D02*
X312250Y605250D01*
X191500Y584750D02*
X200000Y576250D01*
X187750Y580750D02*
X192750Y575750D01*
X181897Y581999D02*
X183146Y580750D01*
X187750D01*
X183554Y585999D02*
X184803Y584750D01*
X185211Y589999D02*
X186460Y588750D01*
X186868Y593999D02*
X188116Y592750D01*
X180352Y593999D02*
X186868D01*
X184803Y584750D02*
X191500D01*
X188116Y592750D02*
X289743D01*
X126251Y585999D02*
X183554D01*
X116501Y581999D02*
X181897D01*
X160602Y589999D02*
X185211D01*
X114500Y597750D02*
X126251Y585999D01*
X151101Y599500D02*
X160602Y589999D01*
X186460Y588750D02*
X295750D01*
X177600Y596750D02*
X180352Y593999D01*
X289743Y592750D02*
X293743Y596750D01*
X687494Y245843D02*
Y283347D01*
Y245843D02*
X727337Y206000D01*
X682954Y240796D02*
Y281467D01*
X513000Y302250D02*
Y342000D01*
X479000Y357750D02*
X534601D01*
X509500Y345500D02*
Y348500D01*
Y345500D02*
X513000Y342000D01*
X675783Y250762D02*
Y258250D01*
X81250Y498157D02*
X115750Y463657D01*
X81250Y498157D02*
Y566500D01*
X54500Y593250D02*
X81250Y566500D01*
X77000Y496750D02*
Y549750D01*
Y496750D02*
X111750Y462000D01*
X46250Y564500D02*
Y589851D01*
Y564500D02*
X51250Y559500D01*
X67250D01*
X77000Y549750D01*
X72625Y494875D02*
X90250Y477250D01*
X59480Y506900D02*
Y513770D01*
X41500Y561750D02*
Y585250D01*
Y561750D02*
X49000Y554250D01*
X65500D01*
X72625Y547125D01*
Y494875D02*
Y547125D01*
X100000Y181000D02*
X121250D01*
X77250Y203750D02*
X100000Y181000D01*
X77250Y203750D02*
Y311500D01*
X39000Y349750D02*
X77250Y311500D01*
X147750Y63400D02*
Y161850D01*
X535500Y167000D02*
X536500D01*
X543500D01*
X551500D01*
X266000Y61000D02*
X274000D01*
X281500D01*
X302750Y82250D01*
D44*
X536000Y274750D02*
X559500Y251250D01*
Y175000D02*
Y251250D01*
X551500Y167000D02*
X559500Y175000D01*
X536000Y274750D02*
Y346000D01*
X536250Y167250D02*
X536500Y167000D01*
X743250Y786000D02*
X751750D01*
X743000Y785750D02*
X743250Y786000D01*
X734250Y785750D02*
X743000D01*
X-4750Y128750D02*
X4250D01*
X-5000Y128500D02*
X-4750Y128750D01*
X-14000Y128500D02*
X-5000D01*
X-22750D02*
X-14000D01*
X-23000Y128250D02*
X-22750Y128500D01*
X-32000Y128250D02*
X-23000D01*
X150750Y40750D02*
Y48750D01*
Y56500D01*
X157500Y113750D02*
X166000D01*
Y122498D02*
X166008Y122506D01*
X157508D02*
X166008D01*
X157508Y113758D02*
Y122506D01*
X166008Y122259D02*
Y122506D01*
X157500Y113750D02*
X157508Y113758D01*
X166000Y122250D02*
X166008Y122259D01*
X166000Y113750D02*
Y122250D01*
Y122498D01*
X157508Y113758D02*
X166000Y122250D01*
D99*
X228250Y374000D02*
D03*
Y564000D02*
D03*
D100*
X781100Y711200D02*
D03*
X806500D02*
D03*
X781100Y685800D02*
D03*
X806500D02*
D03*
X781100Y660400D02*
D03*
X806500D02*
D03*
X781100Y635000D02*
D03*
X806500D02*
D03*
X781100Y609600D02*
D03*
X806500D02*
D03*
X781100Y584200D02*
D03*
X806500D02*
D03*
X781100Y558800D02*
D03*
X806500D02*
D03*
X781100Y533400D02*
D03*
X806500D02*
D03*
X781100Y508000D02*
D03*
X806500D02*
D03*
X781100Y482600D02*
D03*
X806500D02*
D03*
X781100Y457200D02*
D03*
X806500D02*
D03*
X781100Y431800D02*
D03*
X806500D02*
D03*
X781100Y406400D02*
D03*
X806500D02*
D03*
X781100Y381000D02*
D03*
X806500D02*
D03*
X781100Y355600D02*
D03*
X806500D02*
D03*
X781100Y330200D02*
D03*
X806500D02*
D03*
X781100Y304800D02*
D03*
X806500D02*
D03*
X781100Y279400D02*
D03*
X806500D02*
D03*
X781100Y254000D02*
D03*
X806500D02*
D03*
X781100Y228600D02*
D03*
X806500D02*
D03*
X781100Y203200D02*
D03*
X806500D02*
D03*
X781100Y177800D02*
D03*
X806500D02*
D03*
X781100Y152400D02*
D03*
X806500D02*
D03*
X781100Y127000D02*
D03*
X806500D02*
D03*
X781100Y101600D02*
D03*
X806500D02*
D03*
X781100Y76200D02*
D03*
X806500D02*
D03*
X1600Y507400D02*
D03*
X27000D02*
D03*
X1600Y482000D02*
D03*
X831900Y711200D02*
D03*
X857300D02*
D03*
X831900Y685800D02*
D03*
X857300D02*
D03*
X831900Y660400D02*
D03*
X857300D02*
D03*
X831900Y635000D02*
D03*
X857300D02*
D03*
X831900Y609600D02*
D03*
X857300D02*
D03*
X831900Y584200D02*
D03*
X857300D02*
D03*
X831900Y558800D02*
D03*
X857300D02*
D03*
X831900Y533400D02*
D03*
X857300D02*
D03*
X831900Y508000D02*
D03*
X857300D02*
D03*
X831900Y482600D02*
D03*
X857300D02*
D03*
X831900Y457200D02*
D03*
X857300D02*
D03*
X831900Y431800D02*
D03*
X857300D02*
D03*
X831900Y406400D02*
D03*
X857300D02*
D03*
X831900Y381000D02*
D03*
X857300D02*
D03*
X831900Y355600D02*
D03*
X857300D02*
D03*
X831900Y330200D02*
D03*
X857300D02*
D03*
X831900Y304800D02*
D03*
X857300D02*
D03*
X831900Y279400D02*
D03*
X857300D02*
D03*
X831900Y254000D02*
D03*
X857300D02*
D03*
X831900Y228600D02*
D03*
X857300D02*
D03*
X831900Y203200D02*
D03*
X857300D02*
D03*
X831900Y177800D02*
D03*
X857300D02*
D03*
X831900Y152400D02*
D03*
X857300D02*
D03*
X831900Y127000D02*
D03*
X857300D02*
D03*
X831900Y101600D02*
D03*
X857300D02*
D03*
X831900Y76200D02*
D03*
X857300D02*
D03*
X744960Y94540D02*
D03*
X753000Y217000D02*
D03*
D101*
X27000Y482000D02*
D03*
D103*
X295000Y398780D02*
D03*
X523500D02*
D03*
D104*
X526000Y216000D02*
D03*
X538000D02*
D03*
D105*
X44750Y6250D02*
D03*
X29000Y33000D02*
D03*
X57750Y219000D02*
D03*
X52000Y52500D02*
D03*
X131504Y169690D02*
D03*
X483500Y164000D02*
D03*
X602500Y218000D02*
D03*
X535500Y167000D02*
D03*
X551500D02*
D03*
X543500D02*
D03*
X551500Y159000D02*
D03*
X543500D02*
D03*
X627500Y350500D02*
D03*
X551750Y350500D02*
D03*
X536000Y346000D02*
D03*
X663999Y251000D02*
D03*
X76500Y77000D02*
D03*
X67250Y52250D02*
D03*
X126250Y328250D02*
D03*
X34000Y212000D02*
D03*
X695034Y250012D02*
D03*
X522000Y344750D02*
D03*
X489389Y350389D02*
D03*
X583500Y574000D02*
D03*
X309750Y362000D02*
D03*
X312099Y347901D02*
D03*
X157500Y113750D02*
D03*
X166000D02*
D03*
X21500Y155750D02*
D03*
X23000Y172250D02*
D03*
X-5000Y128500D02*
D03*
X-32000Y128250D02*
D03*
X-23000D02*
D03*
X-14000Y128500D02*
D03*
X4250Y128750D02*
D03*
X82004Y149757D02*
D03*
X166008Y122506D02*
D03*
X157508D02*
D03*
X95000Y87500D02*
D03*
X275000Y400250D02*
D03*
X293500Y383500D02*
D03*
X273000Y385500D02*
D03*
X335000Y380000D02*
D03*
X555000Y387500D02*
D03*
X569000Y359750D02*
D03*
X460750Y399500D02*
D03*
X579500Y412500D02*
D03*
X494500Y411000D02*
D03*
X304750Y770000D02*
D03*
X350000Y576000D02*
D03*
X54003Y567778D02*
D03*
X158250Y819080D02*
D03*
X160258Y612780D02*
D03*
X319250Y603500D02*
D03*
X299750Y545750D02*
D03*
X642000Y581000D02*
D03*
X702250Y582250D02*
D03*
X583000Y585500D02*
D03*
X691820Y651500D02*
D03*
X722250Y382950D02*
D03*
X64500Y830000D02*
D03*
Y819750D02*
D03*
Y809250D02*
D03*
X401750Y829750D02*
D03*
Y819500D02*
D03*
Y809000D02*
D03*
X292500Y829500D02*
D03*
Y819250D02*
D03*
Y808750D02*
D03*
X736250D02*
D03*
Y819250D02*
D03*
Y829500D02*
D03*
X724250Y193250D02*
D03*
X482250Y365000D02*
D03*
X504000Y250750D02*
D03*
X612750Y346500D02*
D03*
X435500Y374500D02*
D03*
X335500Y465250D02*
D03*
X404500Y444250D02*
D03*
X370268Y420271D02*
D03*
X328750Y813250D02*
D03*
X240000Y748000D02*
D03*
X570500Y436500D02*
D03*
X126302Y318092D02*
D03*
X138250Y22000D02*
D03*
X751250Y369500D02*
D03*
X667000Y507000D02*
D03*
Y523000D02*
D03*
X321000Y582000D02*
D03*
X315750Y567500D02*
D03*
X349000Y529000D02*
D03*
X417000Y567500D02*
D03*
X422750Y519250D02*
D03*
X655000Y353250D02*
D03*
X643000Y352750D02*
D03*
X388750Y484000D02*
D03*
X689422Y371828D02*
D03*
X487000Y557250D02*
D03*
X519750Y429500D02*
D03*
X502750Y522250D02*
D03*
X524160Y619040D02*
D03*
X524160Y604040D02*
D03*
X554160Y619040D02*
D03*
X509160D02*
D03*
X509160Y604040D02*
D03*
X546660Y611540D02*
D03*
X531660D02*
D03*
X645500Y455750D02*
D03*
X500500Y379250D02*
D03*
X508250Y442000D02*
D03*
X483250Y475000D02*
D03*
X483750Y453500D02*
D03*
X492750Y435250D02*
D03*
Y422500D02*
D03*
X476250Y398250D02*
D03*
X336000Y496250D02*
D03*
X339500Y519000D02*
D03*
X294500Y446750D02*
D03*
X280500Y460000D02*
D03*
X383750Y435250D02*
D03*
X293250Y415000D02*
D03*
X395000Y417000D02*
D03*
X353500Y350250D02*
D03*
X314100Y249650D02*
D03*
X352250Y230500D02*
D03*
X340000Y367500D02*
D03*
X473000Y353500D02*
D03*
X350000Y382250D02*
D03*
X708785Y611530D02*
D03*
X174500Y292000D02*
D03*
X126250Y308000D02*
D03*
X228000Y305250D02*
D03*
X553500Y485750D02*
D03*
X610500Y486500D02*
D03*
Y543500D02*
D03*
X553500Y542750D02*
D03*
X622750Y613000D02*
D03*
X157000Y-12500D02*
D03*
X150500Y-22000D02*
D03*
X158500Y-31500D02*
D03*
X150000Y-2000D02*
D03*
X150750Y56500D02*
D03*
Y48750D02*
D03*
Y40750D02*
D03*
X402750Y785500D02*
D03*
X734250Y785750D02*
D03*
X743000D02*
D03*
X751750Y786000D02*
D03*
X690000Y759000D02*
D03*
X751420Y727810D02*
D03*
X733820Y727110D02*
D03*
X674660Y759070D02*
D03*
X658660Y758650D02*
D03*
X538910Y757790D02*
D03*
X530910Y764040D02*
D03*
X522910Y758040D02*
D03*
X530910Y751790D02*
D03*
X673820Y659210D02*
D03*
X539160Y619040D02*
D03*
X516660Y611540D02*
D03*
X539160Y604040D02*
D03*
X557000Y753000D02*
D03*
X414500Y758500D02*
D03*
X482080Y727580D02*
D03*
X464480Y726880D02*
D03*
X403705Y760455D02*
D03*
X389320Y758420D02*
D03*
X270570Y757560D02*
D03*
X262570Y763810D02*
D03*
X254570Y757810D02*
D03*
X254570Y743560D02*
D03*
X262570Y751560D02*
D03*
X384500Y674750D02*
D03*
X284820Y618810D02*
D03*
X269820D02*
D03*
X277320Y611310D02*
D03*
X262320D02*
D03*
X287750Y753250D02*
D03*
X160500Y600000D02*
D03*
X117840Y758440D02*
D03*
X133840Y758860D02*
D03*
X145750Y758750D02*
D03*
X193000Y726900D02*
D03*
X210600Y727600D02*
D03*
X590500Y466500D02*
D03*
X572750Y467000D02*
D03*
X516000Y485000D02*
D03*
X515500Y545000D02*
D03*
X135500Y556500D02*
D03*
X157250Y504750D02*
D03*
X178998Y562999D02*
D03*
Y574999D02*
D03*
X98000Y539500D02*
D03*
X120000Y539500D02*
D03*
X149750Y486000D02*
D03*
X90000Y209750D02*
D03*
X23000Y210000D02*
D03*
X11000D02*
D03*
X667000Y353000D02*
D03*
X739250Y61500D02*
D03*
X576000Y-10000D02*
D03*
X460830Y3170D02*
D03*
X184000Y18000D02*
D03*
X338000Y250000D02*
D03*
X694000Y168000D02*
D03*
X703000D02*
D03*
X545000Y68000D02*
D03*
X371000Y193000D02*
D03*
X179000Y76000D02*
D03*
X740250Y112000D02*
D03*
X625000Y284000D02*
D03*
X448000D02*
D03*
Y53000D02*
D03*
X456000D02*
D03*
X460000Y61000D02*
D03*
X452000D02*
D03*
X444000D02*
D03*
X288000Y67000D02*
D03*
X282000Y61000D02*
D03*
X274000D02*
D03*
X266000D02*
D03*
X522000Y116000D02*
D03*
X505040Y310100D02*
D03*
X494540Y310350D02*
D03*
X385890Y224250D02*
D03*
X450540Y199600D02*
D03*
X468290D02*
D03*
X459290D02*
D03*
X441540D02*
D03*
X491390Y250250D02*
D03*
X682430Y310120D02*
D03*
X671930Y310370D02*
D03*
X582680Y305870D02*
D03*
X573930D02*
D03*
X564930D02*
D03*
X645680Y199620D02*
D03*
X636680D02*
D03*
X618930D02*
D03*
X627930D02*
D03*
X208600Y223650D02*
D03*
X327750Y309500D02*
D03*
X317250Y309750D02*
D03*
X237000Y305250D02*
D03*
X113250Y22000D02*
D03*
X88250D02*
D03*
X100750D02*
D03*
X125750D02*
D03*
X129000Y188750D02*
D03*
X138500Y178250D02*
D03*
X441000Y-35750D02*
D03*
X451000D02*
D03*
Y-25750D02*
D03*
X441000D02*
D03*
X311000Y-35750D02*
D03*
Y-25750D02*
D03*
X381000Y-35750D02*
D03*
X391000D02*
D03*
X381000Y-25750D02*
D03*
X391000D02*
D03*
X211000Y-35750D02*
D03*
X221000D02*
D03*
X231000D02*
D03*
X241000D02*
D03*
X251000D02*
D03*
X261000D02*
D03*
X271000D02*
D03*
X281000D02*
D03*
X291000D02*
D03*
X301000D02*
D03*
Y-25750D02*
D03*
X291000D02*
D03*
X281000D02*
D03*
X271000D02*
D03*
X261000D02*
D03*
X251000D02*
D03*
X241000D02*
D03*
X231000D02*
D03*
X221000D02*
D03*
X211000D02*
D03*
X13500Y753750D02*
D03*
X-11910Y751580D02*
D03*
X-19910Y757830D02*
D03*
X-3910Y757580D02*
D03*
X-11910Y763830D02*
D03*
X-20000Y744000D02*
D03*
X121250Y667000D02*
D03*
X-27910Y618830D02*
D03*
X-12910D02*
D03*
X2090D02*
D03*
X17090D02*
D03*
X9590Y611330D02*
D03*
X-5410D02*
D03*
X-20410D02*
D03*
X17090Y603830D02*
D03*
X2090D02*
D03*
X-12910D02*
D03*
X-27910D02*
D03*
X482500Y-35500D02*
D03*
X492500D02*
D03*
X502500D02*
D03*
X482500Y-25500D02*
D03*
X492500D02*
D03*
X512500Y-35500D02*
D03*
X502500Y-25500D02*
D03*
X512500D02*
D03*
X522500Y-35500D02*
D03*
X532500D02*
D03*
X522500Y-25500D02*
D03*
X532500D02*
D03*
X542500Y-35500D02*
D03*
Y-25500D02*
D03*
X552500Y-35500D02*
D03*
X562500D02*
D03*
X572500D02*
D03*
X552500Y-25500D02*
D03*
X562500D02*
D03*
X572500D02*
D03*
X582500Y-35500D02*
D03*
Y-25500D02*
D03*
X722500D02*
D03*
Y-35500D02*
D03*
X652500D02*
D03*
Y-25500D02*
D03*
X662500Y-35500D02*
D03*
Y-25500D02*
D03*
X712500Y-35500D02*
D03*
Y-25500D02*
D03*
X535500Y159000D02*
D03*
X432000Y159000D02*
D03*
X423000D02*
D03*
X414000D02*
D03*
Y168000D02*
D03*
X423000D02*
D03*
X432000D02*
D03*
X685000Y159000D02*
D03*
X694000D02*
D03*
X703000D02*
D03*
X685000Y168000D02*
D03*
X-30400Y550600D02*
D03*
X-12600Y549900D02*
D03*
X10000Y588800D02*
D03*
X10700Y569800D02*
D03*
X54250Y582000D02*
D03*
X166750Y542750D02*
D03*
X337500Y579000D02*
D03*
X390000Y786000D02*
D03*
X307500Y753750D02*
D03*
X229000Y746000D02*
D03*
X173000Y759000D02*
D03*
X207250Y791500D02*
D03*
X194750D02*
D03*
X706535Y759465D02*
D03*
X440771Y759479D02*
D03*
X54500Y607250D02*
D03*
X45000Y601000D02*
D03*
X35500Y607250D02*
D03*
X568500Y579250D02*
D03*
X685750Y421750D02*
D03*
X695250Y428000D02*
D03*
X704750Y421500D02*
D03*
X97000Y775000D02*
D03*
X759750Y15500D02*
D03*
X772500Y15250D02*
D03*
X280000Y158750D02*
D03*
Y166750D02*
D03*
X272000D02*
D03*
X264000Y158750D02*
D03*
X272000D02*
D03*
X264000Y166750D02*
D03*
X282000Y199000D02*
D03*
X264250D02*
D03*
X291000D02*
D03*
X273250D02*
D03*
X405290Y305850D02*
D03*
X396540D02*
D03*
X387540D02*
D03*
X387750Y358750D02*
D03*
X127000Y343750D02*
D03*
X148500Y345500D02*
D03*
X482000Y500000D02*
D03*
X409520Y432021D02*
D03*
X423500Y453250D02*
D03*
X449500Y416250D02*
D03*
X446250Y427750D02*
D03*
X427250Y464000D02*
D03*
X440750Y474750D02*
D03*
X445750Y439750D02*
D03*
X436127Y457873D02*
D03*
X496250Y499000D02*
D03*
X502524Y507775D02*
D03*
X472500Y378000D02*
D03*
X648282Y545027D02*
D03*
X502750Y466000D02*
D03*
X186500Y345500D02*
D03*
X345000Y430250D02*
D03*
X355000Y415750D02*
D03*
X186009Y485774D02*
D03*
X456000Y284000D02*
D03*
X440000D02*
D03*
X444000Y292000D02*
D03*
X452000D02*
D03*
X412999Y306999D02*
D03*
X616980Y284020D02*
D03*
X629000Y292000D02*
D03*
X621000D02*
D03*
X589999Y306999D02*
D03*
X633000Y284000D02*
D03*
X126000Y287750D02*
D03*
X138000Y271000D02*
D03*
X126250Y271000D02*
D03*
X107750Y41750D02*
D03*
X219250Y305250D02*
D03*
X272500Y420750D02*
D03*
X522750Y744250D02*
D03*
X242000Y760000D02*
D03*
X221500Y770000D02*
D03*
X111000Y814000D02*
D03*
X126000Y297980D02*
D03*
X210250Y305250D02*
D03*
X186000Y302500D02*
D03*
X262300Y283400D02*
D03*
X278000Y283000D02*
D03*
X274000Y292000D02*
D03*
X270000Y283000D02*
D03*
X266000Y292000D02*
D03*
X335000Y416000D02*
D03*
X239820Y618810D02*
D03*
X254820D02*
D03*
X247320Y611310D02*
D03*
X271500Y551750D02*
D03*
X293000Y514000D02*
D03*
X280250Y497250D02*
D03*
X294250Y504000D02*
D03*
X355250Y504500D02*
D03*
X349250Y494000D02*
D03*
X287500Y485500D02*
D03*
X274250Y511750D02*
D03*
X256000Y508750D02*
D03*
X255250Y488500D02*
D03*
X230750Y509000D02*
D03*
Y489000D02*
D03*
X71500Y607750D02*
D03*
X108250Y590250D02*
D03*
X123250Y603500D02*
D03*
X113000Y599500D02*
D03*
X95750Y592000D02*
D03*
X133250Y598250D02*
D03*
X708750Y592500D02*
D03*
X615250D02*
D03*
X615000Y573750D02*
D03*
X659750Y563250D02*
D03*
X-29750Y173000D02*
D03*
Y182000D02*
D03*
Y191000D02*
D03*
Y200250D02*
D03*
X61250Y431000D02*
D03*
X100750Y490250D02*
D03*
X148750Y640000D02*
D03*
X146000Y599500D02*
D03*
X284820Y603810D02*
D03*
X319500Y614250D02*
D03*
X345000Y604500D02*
D03*
X447750Y580000D02*
D03*
X385500Y590250D02*
D03*
X368000Y589750D02*
D03*
X366250Y604500D02*
D03*
X373518Y617280D02*
D03*
X356017Y614280D02*
D03*
X342017Y618530D02*
D03*
X554160Y604040D02*
D03*
X556571Y577429D02*
D03*
X590250Y601500D02*
D03*
X612280Y616280D02*
D03*
X684750Y631000D02*
D03*
X381750Y792500D02*
D03*
X140250Y73000D02*
D03*
X105000Y194500D02*
D03*
X137000Y87500D02*
D03*
X182000Y89750D02*
D03*
X166000Y141750D02*
D03*
X161508Y151507D02*
D03*
X167920Y170000D02*
D03*
X154750Y188500D02*
D03*
X165750Y206500D02*
D03*
X154250Y227000D02*
D03*
X193000Y243000D02*
D03*
X211000Y482000D02*
D03*
X154750Y434250D02*
D03*
X193000Y218250D02*
D03*
X147250Y171250D02*
D03*
X165000Y180000D02*
D03*
X212500Y184250D02*
D03*
X704034Y375768D02*
D03*
X292500Y430250D02*
D03*
X648500Y485000D02*
D03*
X751000Y446000D02*
D03*
X726035Y417520D02*
D03*
X750250Y414250D02*
D03*
X729500Y449750D02*
D03*
X747000Y337250D02*
D03*
X731750Y491500D02*
D03*
X680900Y492850D02*
D03*
X757250Y506250D02*
D03*
X724000Y499000D02*
D03*
X702750Y500000D02*
D03*
X712035Y495024D02*
D03*
X750250Y424250D02*
D03*
X758250Y570750D02*
D03*
X445272Y534276D02*
D03*
X582000Y451250D02*
D03*
X582250Y432250D02*
D03*
X601029Y439021D02*
D03*
X756750Y493250D02*
D03*
X682750Y546250D02*
D03*
X410500Y577000D02*
D03*
X402000Y587000D02*
D03*
X436771Y602279D02*
D03*
X446750Y506250D02*
D03*
Y519500D02*
D03*
X432750Y516775D02*
D03*
X429750Y481750D02*
D03*
X422750Y494500D02*
D03*
X438750Y526250D02*
D03*
X364000Y535500D02*
D03*
X367250Y440500D02*
D03*
X356750Y465500D02*
D03*
X369500Y482500D02*
D03*
X331266Y447022D02*
D03*
X273263Y447272D02*
D03*
X517000Y250000D02*
D03*
X-2999Y47499D02*
D03*
X269820Y603810D02*
D03*
X265750Y569250D02*
D03*
X239820Y603810D02*
D03*
X254820D02*
D03*
X385019Y506025D02*
D03*
X427500Y614500D02*
D03*
X420521Y587029D02*
D03*
X437750Y568750D02*
D03*
X368518Y521275D02*
D03*
X390250Y524250D02*
D03*
X384269Y532526D02*
D03*
X675783Y250762D02*
D03*
X509500Y348500D02*
D03*
X92750Y507250D02*
D03*
X150250Y267750D02*
D03*
X118250Y249500D02*
D03*
X89000Y74750D02*
D03*
D106*
X541750Y249250D02*
D03*
Y236500D02*
D03*
D107*
X525026Y793039D02*
D03*
X194000Y29080D02*
D03*
X225000Y167000D02*
D03*
X213000D02*
D03*
X163750Y274250D02*
D03*
X579000Y171000D02*
D03*
X577000Y159000D02*
D03*
X100000Y415000D02*
D03*
Y400000D02*
D03*
Y385000D02*
D03*
Y370000D02*
D03*
X85000Y400000D02*
D03*
X55000Y370000D02*
D03*
X85000Y385000D02*
D03*
Y370000D02*
D03*
X70000Y385000D02*
D03*
Y370000D02*
D03*
D108*
X0Y0D02*
D03*
Y800100D02*
D03*
D109*
X857300Y762000D02*
D03*
Y25400D02*
D03*
D110*
X468250Y577250D02*
D03*
X468750Y607750D02*
D03*
D111*
X737750Y576750D02*
D03*
Y608250D02*
D03*
X197090Y604750D02*
D03*
D112*
X187480Y398780D02*
D03*
X624360D02*
D03*
D113*
X59480Y506900D02*
D03*
D115*
X625000Y260651D02*
X656401Y229250D01*
X664250D01*
X763750Y92750D02*
X780300Y76200D01*
X763750Y92750D02*
Y129750D01*
X664250Y229250D02*
X763750Y129750D01*
X625000Y260651D02*
Y284000D01*
X621000Y292000D02*
X629000D01*
X616980Y284020D02*
X632980D01*
D116*
X100750Y490250D02*
Y521500D01*
X87004Y535246D02*
X100750Y521500D01*
X87004Y535246D02*
Y607750D01*
X671010Y771000D02*
X710000D01*
X719750Y590250D02*
Y761250D01*
X710000Y771000D02*
X719750Y761250D01*
X658660Y758650D02*
X671010Y771000D01*
X500250Y740750D02*
X506500Y734500D01*
X406990Y740750D02*
X500250D01*
X389320Y758420D02*
X406990Y740750D01*
X506500Y734500D02*
X634510D01*
X235000Y737750D02*
X238480Y734270D01*
X138530Y737750D02*
X235000D01*
X117840Y758440D02*
X138530Y737750D01*
X238480Y734270D02*
X365170D01*
X389320Y758420D01*
X634510Y734500D02*
X658660Y758650D01*
X87000Y727600D02*
X117840Y758440D01*
X87000Y618848D02*
X87004Y618844D01*
X87000Y618848D02*
Y727600D01*
X87004Y607750D02*
Y618844D01*
X702250Y582250D02*
X711750D01*
X719750Y590250D01*
D122*
X447500Y288125D02*
D03*
D132*
X-750Y492875D02*
D03*
D133*
X276750Y64375D02*
D03*
D134*
X452000Y57125D02*
D03*
D135*
X422875Y163625D02*
D03*
D136*
X455000Y199500D02*
D03*
D137*
X543375Y162875D02*
D03*
D138*
X577750Y165125D02*
D03*
D139*
X632500Y199750D02*
D03*
X277750Y199000D02*
D03*
D140*
X693750Y163250D02*
D03*
D141*
X577125Y306875D02*
D03*
D142*
X399875Y306500D02*
D03*
D143*
X270125Y287375D02*
D03*
D144*
X272000Y162750D02*
D03*
D145*
X218750Y167250D02*
D03*
D146*
X-5500Y611250D02*
D03*
D147*
X262375D02*
D03*
D148*
X531500Y611375D02*
D03*
D149*
X-17625Y343000D02*
D03*
M02*
