G04 Layer_Physical_Order=1*
G04 Layer_Color=255*
%FSLAX43Y43*%
%MOMM*%
G71*
G01*
G75*
%ADD10R,6.000X6.000*%
%ADD11R,2.000X6.000*%
%ADD12R,1.250X1.800*%
%ADD13R,0.600X1.000*%
%ADD14R,1.800X1.250*%
%ADD15R,1.000X0.600*%
G36*
X113197Y78010D02*
X113445Y77907D01*
X113669Y77758D01*
X113858Y77569D01*
X114007Y77345D01*
X114110Y77097D01*
X114163Y76834D01*
Y76700D01*
X114163Y65900D01*
Y65766D01*
X114110Y65503D01*
X114007Y65255D01*
X113858Y65031D01*
X113669Y64842D01*
X113445Y64693D01*
X113197Y64590D01*
X112934Y64537D01*
X93400D01*
X93400Y64537D01*
X93400Y64537D01*
X93266Y64537D01*
X93003Y64590D01*
X92755Y64693D01*
X92531Y64842D01*
X92342Y65031D01*
X92193Y65255D01*
X92090Y65503D01*
X92037Y65766D01*
Y65900D01*
Y71000D01*
X94813D01*
X97413Y67100D01*
X107000Y67100D01*
X109200D01*
X109200Y71700D01*
X104710Y71700D01*
X104710Y78063D01*
X112800D01*
X112800Y78063D01*
X112800Y78063D01*
X112934Y78063D01*
X113197Y78010D01*
D02*
G37*
G36*
X103900Y70300D02*
X101805Y70300D01*
Y71585D01*
X97900Y75490D01*
Y78063D01*
X103900D01*
X103900Y70300D01*
D02*
G37*
G36*
X97390Y75490D02*
X97400Y75441D01*
Y71400D01*
X101269D01*
X101295Y71374D01*
Y70300D01*
X101305Y70251D01*
Y69800D01*
X101756D01*
X101805Y69790D01*
X103900Y69790D01*
X103949Y69800D01*
X104405D01*
Y70276D01*
X104410Y70300D01*
Y71100D01*
X108690Y71100D01*
X108690Y67610D01*
X107000D01*
X97686Y67610D01*
X95238Y71283D01*
X95202Y71319D01*
X95174Y71360D01*
X95132Y71388D01*
X95097Y71424D01*
X95050Y71443D01*
X95008Y71471D01*
X94959Y71481D01*
X94913Y71500D01*
X94863Y71500D01*
X94813Y71510D01*
X92037D01*
Y76700D01*
X92037Y76834D01*
X92090Y77097D01*
X92193Y77345D01*
X92342Y77569D01*
X92531Y77758D01*
X92755Y77907D01*
X93003Y78010D01*
X93266Y78063D01*
X97390D01*
Y75490D01*
D02*
G37*
D10*
X100900Y74900D02*
D03*
D11*
X105710D02*
D03*
D12*
X106210Y65610D02*
D03*
X96500D02*
D03*
D13*
X99105Y70800D02*
D03*
X100605D02*
D03*
X102105D02*
D03*
X103605D02*
D03*
D14*
X112998Y76155D02*
D03*
Y66445D02*
D03*
D15*
X107808Y69050D02*
D03*
Y70550D02*
D03*
Y72050D02*
D03*
Y73550D02*
D03*
M02*
