%FSLAX25Y25*%
%MOIN*%
G70*
G01*
G75*
G04 Layer_Physical_Order=3*
G04 Layer_Color=36540*
%ADD10R,0.04134X0.04252*%
%ADD11R,0.03543X0.02559*%
%ADD12R,0.04331X0.03937*%
%ADD13R,0.04331X0.02559*%
%ADD14R,0.04252X0.04134*%
%ADD15R,0.02362X0.08661*%
%ADD16R,0.14173X0.07874*%
%ADD17R,0.04331X0.04724*%
%ADD18R,0.03937X0.04331*%
%ADD19R,0.05118X0.02756*%
%ADD20R,0.06299X0.05906*%
%ADD21R,0.22047X0.22047*%
%ADD22O,0.03347X0.00984*%
%ADD23O,0.00984X0.03347*%
%ADD24R,0.04331X0.04331*%
%ADD25R,0.03937X0.05512*%
%ADD26R,0.08268X0.11811*%
%ADD27R,0.03150X0.05118*%
%ADD28R,0.03937X0.05906*%
%ADD29R,0.11811X0.08268*%
%ADD30R,0.05118X0.03150*%
%ADD31R,0.08661X0.06299*%
%ADD32R,0.04724X0.04331*%
%ADD33R,0.02362X0.05118*%
%ADD34C,0.01575*%
%ADD35C,0.01000*%
%ADD36C,0.00787*%
%ADD37C,0.00984*%
%ADD38C,0.02362*%
%ADD39R,0.03937X0.11909*%
%ADD40R,0.11811X0.65551*%
%ADD41R,0.11811X0.38681*%
%ADD42R,0.12008X0.30610*%
%ADD43R,0.11811X0.77953*%
%ADD44R,0.23622X0.38976*%
%ADD45R,0.08268X0.07480*%
%ADD46R,0.36614X0.19685*%
%ADD47R,0.07874X0.07480*%
%ADD48R,0.73622X0.06693*%
%ADD49R,0.10236X0.07480*%
%ADD50R,0.09843X0.07480*%
%ADD51R,0.41142X0.19685*%
%ADD52R,0.40650X0.19685*%
%ADD53R,1.22933X0.19685*%
%ADD54R,0.15748X0.59744*%
%ADD55O,0.39370X0.19685*%
%ADD56C,0.23622*%
%ADD57C,0.15748*%
%ADD58C,0.02598*%
%ADD59C,0.03150*%
%ADD60C,0.03937*%
%ADD61C,0.04724*%
%ADD62C,0.04000*%
%ADD63O,0.29528X0.05906*%
%ADD64C,0.14567*%
%ADD65C,0.10630*%
%ADD66C,0.03268*%
%ADD67C,0.03150*%
%ADD68C,0.03937*%
%ADD69C,0.03150*%
D35*
X100106Y-16823D02*
Y16197D01*
X95776Y-21154D02*
X100106Y-16823D01*
X95457Y20846D02*
X100106Y16197D01*
X79709Y-21154D02*
X95776D01*
X40748Y-4921D02*
X50197D01*
X-29134Y-24409D02*
X5187D01*
X6475Y-23122D01*
X22547D01*
X40748Y-4921D01*
X89181Y34063D02*
X152157D01*
X50197Y-4921D02*
X89181Y34063D01*
X-43209Y-43406D02*
X-35433D01*
X-48130Y-48327D02*
X-43209Y-43406D01*
X152157Y34063D02*
X161614Y24606D01*
X22146Y-51673D02*
X30906D01*
X9441Y-64378D02*
X22146Y-51673D01*
X-12016Y-64378D02*
X9441D01*
X8885Y-66041D02*
X10167Y-67323D01*
X6470Y-66041D02*
X8885D01*
X4498Y-68012D02*
X6470Y-66041D01*
X-12500Y-64862D02*
X-12016Y-64378D01*
X-25689Y-71555D02*
X32087D01*
X-26329Y-70915D02*
X-25689Y-71555D01*
X32087D02*
X35728Y-67913D01*
X-23705Y-68012D02*
X4498D01*
X10167Y-67323D02*
X25098D01*
X30906Y-61516D01*
X-26033Y-66191D02*
X-25780Y-65937D01*
X35728Y-67913D02*
Y-58563D01*
X33760Y-56595D02*
X35728Y-58563D01*
X30906Y-56595D02*
X33760D01*
X-58465Y-30020D02*
X-53051Y-24606D01*
X-47638D01*
X-58465Y-52165D02*
Y-30020D01*
X-25780Y-65937D02*
X-23705Y-68012D01*
X-35433Y-43406D02*
X-32283Y-40256D01*
Y-27559D01*
X-29134Y-24409D01*
D36*
X95457Y11004D02*
X98622Y7839D01*
X103331Y-18224D02*
Y11004D01*
X94587Y-26969D02*
X103331Y-18224D01*
X98622Y-6102D02*
Y7839D01*
X93413Y-11311D02*
X98622Y-6102D01*
X79709Y-11311D02*
X93413D01*
X76772Y-26969D02*
X94587D01*
X42035Y-8752D02*
X77150D01*
X15551Y-35236D02*
X42035Y-8752D01*
X42331Y-11311D02*
X71835D01*
X15453Y-38189D02*
X42331Y-11311D01*
X1771Y-35236D02*
X15551D01*
X7677Y-38189D02*
X15453D01*
X98Y-36909D02*
X1771Y-35236D01*
X98Y-40846D02*
Y-36909D01*
X77150Y-8752D02*
X79709Y-11311D01*
X98Y-40846D02*
X1969Y-42717D01*
X7776D01*
X16930Y-46752D02*
X30906D01*
X7776Y-55906D02*
X16930Y-46752D01*
X71752Y-11394D02*
X71835Y-11311D01*
X71752Y-21949D02*
Y-11394D01*
Y-21949D02*
X76772Y-26969D01*
X144193Y39665D02*
X152461D01*
X160039Y47244D01*
X140847Y47146D02*
X144193D01*
X137598Y43898D02*
X140847Y47146D01*
X137598Y39173D02*
Y43898D01*
X160039Y39764D02*
X181890Y61614D01*
X145669D02*
X160039Y47244D01*
X103740Y61614D02*
X145669D01*
X156299Y36024D02*
X160039Y39764D01*
X137598Y39173D02*
X140748Y36024D01*
X156299D01*
X181890Y61614D02*
X182480D01*
X183071D01*
D37*
X41535Y-6890D02*
X51378D01*
X18405Y-30020D02*
X41535Y-6890D01*
X-28150Y-26181D02*
X-5709D01*
X-1870Y-30020D01*
X18405D01*
X-42618Y-47047D02*
X-33661D01*
X51378Y-6890D02*
X90748Y32480D01*
X137205D01*
X145079Y24606D01*
X-33661Y-47047D02*
X-30512Y-43898D01*
Y-28543D01*
X-28150Y-26181D01*
X-39469Y-35236D02*
X-36516Y-32283D01*
Y-26772D01*
X-22835Y-13091D01*
X-3740Y26575D02*
Y33957D01*
X-22835Y-13091D02*
Y5253D01*
X-44685Y-17520D02*
Y-14370D01*
X-3740Y26575D01*
X-22835Y5253D02*
X3740Y31828D01*
Y33957D01*
D55*
X-42520Y39370D02*
D03*
X214173Y61614D02*
D03*
X-42520Y61614D02*
D03*
X214173Y39370D02*
D03*
D56*
X171653Y0D02*
D03*
X0D02*
D03*
D57*
X124984Y21831D02*
D03*
X50181D02*
D03*
Y-22138D02*
D03*
X124984D02*
D03*
D58*
X167913Y-31299D02*
D03*
Y-36024D02*
D03*
X163189Y-31299D02*
D03*
Y-36024D02*
D03*
X158465Y-31299D02*
D03*
Y-36024D02*
D03*
X-26870Y-48917D02*
D03*
X-22146D02*
D03*
Y-44193D02*
D03*
X-26870D02*
D03*
X-17421D02*
D03*
X-12697D02*
D03*
X-17421Y-48917D02*
D03*
X-12697D02*
D03*
X-7972D02*
D03*
Y-44193D02*
D03*
X-26870Y-39469D02*
D03*
X-12697Y-30020D02*
D03*
X-7972Y-34744D02*
D03*
X-22146Y-30020D02*
D03*
X-12697Y-34744D02*
D03*
X-17421Y-30020D02*
D03*
X-26870D02*
D03*
X-7972D02*
D03*
X-22146Y-34744D02*
D03*
X-17421D02*
D03*
X-26870D02*
D03*
X-7972Y-39469D02*
D03*
X-12697D02*
D03*
X-22146D02*
D03*
X-17421D02*
D03*
D59*
X18898Y-15354D02*
D03*
X-39567Y-39272D02*
D03*
X30911Y-42819D02*
D03*
X30906Y-46752D02*
D03*
X95457Y11004D02*
D03*
X165650Y-25689D02*
D03*
X153642Y47146D02*
D03*
X7677Y-38189D02*
D03*
X-44685Y-17520D02*
D03*
X-47638Y-24606D02*
D03*
X7776Y-42717D02*
D03*
X7579Y-32677D02*
D03*
X-42618Y-47047D02*
D03*
X-48130Y-48327D02*
D03*
X-41929Y-62599D02*
D03*
X7776Y-55906D02*
D03*
X30906Y-61516D02*
D03*
X7682Y-68706D02*
D03*
X-12500Y-64862D02*
D03*
X30906Y-51673D02*
D03*
Y-36909D02*
D03*
Y-56595D02*
D03*
X-26329Y-70915D02*
D03*
X-26033Y-66191D02*
D03*
X7776Y-49213D02*
D03*
X7677Y-61712D02*
D03*
X7579Y-25787D02*
D03*
X-40748Y-30610D02*
D03*
X-58858Y10236D02*
D03*
X-38386Y8957D02*
D03*
X95457Y20846D02*
D03*
X103331Y11004D02*
D03*
X79709Y-21154D02*
D03*
Y-11311D02*
D03*
X71835D02*
D03*
X153051Y-23622D02*
D03*
X149409D02*
D03*
X147835Y-40846D02*
D03*
X160689Y-24213D02*
D03*
X160728Y-26870D02*
D03*
X170571Y-56496D02*
D03*
Y-53445D02*
D03*
X160728Y-56496D02*
D03*
Y-53445D02*
D03*
X204429Y-41634D02*
D03*
X221457Y-41338D02*
D03*
X193110Y-40650D02*
D03*
X-55020Y-35728D02*
D03*
X-58465Y-53642D02*
D03*
X-33760Y-70078D02*
D03*
X-58465Y-64666D02*
D03*
X-48622Y-62894D02*
D03*
X-47736Y-30512D02*
D03*
X-67717Y-36811D02*
D03*
X103740Y61614D02*
D03*
X160039Y47244D02*
D03*
Y39764D02*
D03*
X144193Y39665D02*
D03*
Y47146D02*
D03*
X161614Y24606D02*
D03*
X168701D02*
D03*
X152165D02*
D03*
X145079D02*
D03*
X146161Y52756D02*
D03*
X182480Y61614D02*
D03*
X-39469Y-35236D02*
D03*
X3740Y33957D02*
D03*
X-3740D02*
D03*
X3543Y22638D02*
D03*
D60*
X180807Y-40846D02*
D03*
X110728Y-37992D02*
D03*
X103740Y-43110D02*
D03*
Y-37992D02*
D03*
Y-32677D02*
D03*
X110728D02*
D03*
X110630Y-43110D02*
D03*
X92815Y98D02*
D03*
X87697D02*
D03*
X82480Y197D02*
D03*
X71457Y31398D02*
D03*
X64468D02*
D03*
X64567Y26083D02*
D03*
X71752Y-28150D02*
D03*
X103347Y27854D02*
D03*
X71457Y26083D02*
D03*
X64468Y36713D02*
D03*
X64567Y41831D02*
D03*
X71457Y36713D02*
D03*
Y41831D02*
D03*
X110630Y-27362D02*
D03*
X103740D02*
D03*
X-21555Y21457D02*
D03*
X-28839Y16535D02*
D03*
X-21555Y17717D02*
D03*
Y13878D02*
D03*
D61*
X-31496Y-7677D02*
D03*
D69*
X210433Y61614D02*
X211417Y60630D01*
M02*
