%FSLAX25Y25*%
%MOIN*%
G70*
G01*
G75*
G04 Layer_Physical_Order=2*
G04 Layer_Color=128*
%ADD10R,0.04134X0.04252*%
%ADD11R,0.03543X0.02559*%
%ADD12R,0.04331X0.03937*%
%ADD13R,0.04331X0.02559*%
%ADD14R,0.04252X0.04134*%
%ADD15R,0.02362X0.08661*%
%ADD16R,0.14173X0.07874*%
%ADD17R,0.04331X0.04724*%
%ADD18R,0.03937X0.04331*%
%ADD19R,0.05118X0.02756*%
%ADD20R,0.06299X0.05906*%
%ADD21R,0.22047X0.22047*%
%ADD22O,0.03347X0.00984*%
%ADD23O,0.00984X0.03347*%
%ADD24R,0.04331X0.04331*%
%ADD25R,0.03937X0.05512*%
%ADD26R,0.08268X0.11811*%
%ADD27R,0.03150X0.05118*%
%ADD28R,0.03937X0.05906*%
%ADD29R,0.11811X0.08268*%
%ADD30R,0.05118X0.03150*%
%ADD31R,0.08661X0.06299*%
%ADD32R,0.04724X0.04331*%
%ADD33R,0.02362X0.05118*%
%ADD34C,0.01575*%
%ADD35C,0.01000*%
%ADD36C,0.00787*%
%ADD37C,0.00984*%
%ADD38C,0.02362*%
%ADD39R,0.03937X0.11909*%
%ADD40R,0.11811X0.65551*%
%ADD41R,0.11811X0.38681*%
%ADD42R,0.12008X0.30610*%
%ADD43R,0.11811X0.77953*%
%ADD44R,0.23622X0.38976*%
%ADD45R,0.08268X0.07480*%
%ADD46R,0.36614X0.19685*%
%ADD47R,0.07874X0.07480*%
%ADD48R,0.73622X0.06693*%
%ADD49R,0.10236X0.07480*%
%ADD50R,0.09843X0.07480*%
%ADD51R,0.41142X0.19685*%
%ADD52R,0.40650X0.19685*%
%ADD53R,1.22933X0.19685*%
%ADD54R,0.15748X0.59744*%
%ADD55O,0.39370X0.19685*%
%ADD56C,0.23622*%
%ADD57C,0.15748*%
%ADD58C,0.02598*%
%ADD59C,0.03150*%
%ADD60C,0.03937*%
%ADD61C,0.04724*%
%ADD62C,0.04000*%
%ADD63O,0.29528X0.05906*%
%ADD64C,0.14567*%
%ADD65C,0.10630*%
%ADD66C,0.03268*%
%ADD67C,0.03150*%
%ADD68C,0.03937*%
D61*
X-31496Y-7677D02*
D03*
D62*
X-83268Y-38386D02*
G03*
X-42913Y-78740I40354J0D01*
G01*
X214567D02*
G03*
X254921Y-38386I0J40354D01*
G01*
X239567Y-14764D02*
G03*
X243504Y-18701I3937J0D01*
G01*
X243504Y18701D02*
G03*
X239567Y14764I0J-3937D01*
G01*
X254921Y38386D02*
G03*
X214567Y78740I-40354J0D01*
G01*
X-42913D02*
G03*
X-83268Y38386I0J-40354D01*
G01*
X-67520Y14764D02*
G03*
X-71457Y18701I-3937J0D01*
G01*
Y-18701D02*
G03*
X-67520Y-14764I0J3937D01*
G01*
X-83268Y-38386D02*
Y-18701D01*
X-42913Y-78740D02*
X214567D01*
X254921Y-38386D02*
Y-18701D01*
X243504D02*
X254921D01*
X239567Y-14764D02*
Y14764D01*
X243504Y18701D02*
X254921D01*
Y38386D01*
X-42913Y78740D02*
X214567D01*
X-83268Y18701D02*
Y38386D01*
Y18701D02*
X-71457D01*
X-67520Y-14764D02*
Y14764D01*
X-83268Y-18701D02*
X-71457D01*
D63*
X-42520Y39370D02*
D03*
X214173Y61614D02*
D03*
X-42520Y61614D02*
D03*
X214173Y39370D02*
D03*
D64*
X171653Y0D02*
D03*
X0D02*
D03*
D65*
X124984Y21831D02*
D03*
X50181D02*
D03*
Y-22138D02*
D03*
X124984D02*
D03*
D66*
X167913Y-31299D02*
D03*
Y-36024D02*
D03*
X163189Y-31299D02*
D03*
Y-36024D02*
D03*
X158465Y-31299D02*
D03*
Y-36024D02*
D03*
X-26870Y-48917D02*
D03*
X-22146D02*
D03*
Y-44193D02*
D03*
X-26870D02*
D03*
X-17421D02*
D03*
X-12697D02*
D03*
X-17421Y-48917D02*
D03*
X-12697D02*
D03*
X-7972D02*
D03*
Y-44193D02*
D03*
X-26870Y-39469D02*
D03*
X-12697Y-30020D02*
D03*
X-7972Y-34744D02*
D03*
X-22146Y-30020D02*
D03*
X-12697Y-34744D02*
D03*
X-17421Y-30020D02*
D03*
X-26870D02*
D03*
X-7972D02*
D03*
X-22146Y-34744D02*
D03*
X-17421D02*
D03*
X-26870D02*
D03*
X-7972Y-39469D02*
D03*
X-12697D02*
D03*
X-22146D02*
D03*
X-17421D02*
D03*
D67*
X18898Y-15354D02*
D03*
X-39567Y-39272D02*
D03*
X30906Y-46752D02*
D03*
X95457Y11004D02*
D03*
X165650Y-25689D02*
D03*
X7677Y-38189D02*
D03*
X-44685Y-17520D02*
D03*
X-47638Y-24606D02*
D03*
X7776Y-42717D02*
D03*
X-42618Y-47047D02*
D03*
X-48130Y-48327D02*
D03*
X-41929Y-62599D02*
D03*
X7776Y-55906D02*
D03*
X30906Y-61516D02*
D03*
X7682Y-68706D02*
D03*
X-12500Y-64862D02*
D03*
X30906Y-51673D02*
D03*
Y-36909D02*
D03*
Y-56595D02*
D03*
X-26329Y-70915D02*
D03*
X-26033Y-66191D02*
D03*
X7579Y-25787D02*
D03*
X-58858Y10236D02*
D03*
X-38386Y8957D02*
D03*
X95457Y20846D02*
D03*
X103331Y11004D02*
D03*
X79709Y-21154D02*
D03*
Y-11311D02*
D03*
X71835D02*
D03*
X153051Y-23622D02*
D03*
X149409D02*
D03*
X147835Y-40846D02*
D03*
X160689Y-24213D02*
D03*
X160728Y-26870D02*
D03*
X170571Y-56496D02*
D03*
Y-53445D02*
D03*
X160728Y-56496D02*
D03*
Y-53445D02*
D03*
X204429Y-41634D02*
D03*
X221457Y-41338D02*
D03*
X193110Y-40650D02*
D03*
X-55020Y-35728D02*
D03*
X-58465Y-53642D02*
D03*
X-48622Y-62894D02*
D03*
X-47736Y-30512D02*
D03*
X-67717Y-36811D02*
D03*
X103740Y61614D02*
D03*
X160039Y47244D02*
D03*
Y39764D02*
D03*
X144193Y39665D02*
D03*
Y47146D02*
D03*
X161614Y24606D02*
D03*
X168701D02*
D03*
X152165D02*
D03*
X145079D02*
D03*
X146161Y52756D02*
D03*
X182480Y61614D02*
D03*
X-39469Y-35236D02*
D03*
X3740Y33957D02*
D03*
X-3740D02*
D03*
X3543Y22638D02*
D03*
D68*
X180807Y-40846D02*
D03*
X110728Y-37992D02*
D03*
X103740Y-43110D02*
D03*
Y-37992D02*
D03*
Y-32677D02*
D03*
X110728D02*
D03*
X110630Y-43110D02*
D03*
X92815Y98D02*
D03*
X87697D02*
D03*
X82480Y197D02*
D03*
X71457Y31398D02*
D03*
X64468D02*
D03*
X64567Y26083D02*
D03*
X71752Y-28150D02*
D03*
X103347Y27854D02*
D03*
X71457Y26083D02*
D03*
X64468Y36713D02*
D03*
X64567Y41831D02*
D03*
X71457Y36713D02*
D03*
Y41831D02*
D03*
X110630Y-27362D02*
D03*
X103740D02*
D03*
X-21555Y21457D02*
D03*
Y17717D02*
D03*
Y13878D02*
D03*
M02*
