M48
;Layer_Color=9474304
;FILE_FORMAT=4:4
METRIC,LZ
;TYPE=PLATED
T1F00S00C0.1000
;TYPE=NON_PLATED
%
T01
X-000635Y-0036075
X-000585
X-000115Y-0033475
X-000065
Y-0031975
X-000115
Y-0030475
X-000065
Y-0028975
X-000115
X00034Y-002945
X00037Y-0029425
X00042628
X00046128
X00052Y-00296
X000555
X00061378Y-00296
X00064878
X0007075Y-0029425
X0007425
X0007975Y-0029625
X0008175Y-002985
X0007975Y-00307
X0008175Y-0030925
X0007425Y-0031125
X0007075
X00064878
X00061378
X000555Y-0031125
X00052
X00046128Y-00306678
X00042628
X00037
X00034Y-00306428
X000395Y-00282575
Y-00277575
X00059
Y-00282575
X000655
Y-00277575
X00072
Y-00282575
X00093Y-002825
Y-002775
X000995
Y-002825
X00106
Y-002775
X001125
Y-002825
X00124Y-00285001
X00129Y-00280001
X001405Y-0028325
X001435Y-0028125
Y-0029825
X001405Y-0030025
X00129Y-00297001
X00124Y-00302001
X0012975Y-0031525
X0013275Y-0031325
X0013975Y-0031525
X0014275Y-0031325
X001405Y-0034525
X001435Y-0034825
Y-0035825
X001405Y-0035525
X001325Y-0035825
X001295Y-0035525
X001325Y-0034825
X001295Y-0034525
X001125Y-003265
Y-003215
X00106
Y-003265
X000995
Y-003215
X00093
Y-003265
X00081148Y-0032408
X00081398Y-0032108
X00064648
X00064398Y-0032408
X00085501Y-002615
X00090501Y-002665
X00107501
X00102501Y-002615
X00107442Y-00252984
Y-00249682
X001165Y-0024975
X001195
X0012825Y-0024775
X0012625Y-0024475
X0012825Y-0023775
X0012625Y-0023475
X001195Y-0023275
X001165Y-0023275
X00107442Y-00233172
Y-00229616
X0010725Y-0021825
X0010475Y-002165
Y-0022
X0010975
Y-002165
Y-002073
Y-002038
X0010725Y-0020555
X0010475Y-002038
Y-002073
Y-001946
Y-001911
X0010725Y-0019285
X0010975Y-001911
Y-001946
Y-001819
Y-001784
X0010725Y-0018015
X0010475Y-001784
Y-001819
X000865Y-0018225
Y-0017875
X00084Y-001805
X000815Y-0018225
Y-0017875
Y-0019145
Y-0019495
X00084Y-001932
X000865Y-0019495
Y-0019145
Y-0020415
Y-0020765
X00084Y-002059
X000815Y-0020765
Y-0020415
Y-0021685
Y-0022035
X00084Y-002186
X000865Y-0022035
Y-0021685
X00087Y-0023275
X0008375Y-0023275
X000945Y-0023275
X0009775
X000975Y-0024975
X0009425
X00087Y-0024975
X0008375
X00071374Y-00240458
Y-00235458
X000655Y-00235425
Y-00240425
X00059
Y-00235425
X000525
Y-00240425
X00046
Y-00235425
X000395
Y-00240425
X0002588Y-00237372
X0002263
X0002238Y-00254372
X0002563
X00034Y-00215375
X00041125
X0004825
X00055375
X000625
X0006275Y-00207563
X000625Y-0019975
X00055375Y-0019975
X0004825Y-0019975
X00041125Y-0019975
X00034Y-0019975
Y-00207563
X0004825
Y-00191938
Y-00184125
X00041125
X00034
Y-00191938
X000625
Y-00184125
X00055375
X000745Y-00164
X0007425Y-00161
X0009125
X00091Y-00164
X00091594Y-00146317
X00094636
X00097678
X00100719
X00103761
X00102261Y-00143567
Y-0013219
X00103761Y-0012944
X00100719
X00097678
X00094636
X00091594
X00088553
X00085511
X00087011Y-0013219
Y-00143567
X00085511Y-00146317
X00088553
X0011275Y-00157378
Y-00162378
X0011925
Y-00157378
X0012575
Y-00162378
X0013225
Y-00157378
X00141Y-00152
X0014075Y-00149
X00141Y-00143
X0014075Y-0014
X00141Y-001345
X0014075Y-001315
X00141Y-00126
X0014075Y-00123
X00125756Y-00118006
X0012575Y-00113378
X0011925
Y-00118378
X0011275
Y-00113378
X0011075Y-00102
X0010775
Y-0009875
X0011075
Y-00095625
X0010775
Y-000925
X0011075
X0010125Y-000925
X0009825
Y-00095625
X0010125
Y-0009875
X0009825
Y-00102
X0010125
X0007825
X0007525
Y-0009875
X0007825
Y-00095625
X0007525
Y-000925
X0007825
X0004925Y-00111608
Y-00115108
Y-00120858
X00049Y-00123858
X0004725Y-00134
Y-00139
X0003425
Y-00134
X000325Y-00123858
X0003225Y-00120858
Y-00115108
Y-00111608
X0004075Y-00153
Y-00158
X-000065Y-001765
X-000115
Y-001915
X-000065
Y-002065
X-000115
Y-002215
X-000065
X-000585Y-002475
X-000635
Y-0026375
X-000585
Y-001505
X-000635
X-0005575Y-0012375
X-0005575Y-0012052
X-000525
X-000525Y-0012375
X-0004925Y-0012373
X-0004925Y-001205
X-00046
X-00046Y-0012373
X-0004275
X-0004275Y-001205
X-0004275Y-0010373
X-0004275Y-001005
X-00046
X-00046Y-0010373
X-0004925
X-0004925Y-001005
X-000525Y-0010052
X-000525Y-0010375
X-0005575
X-0005575Y-0010052
X-0005575Y-0008375
X-0005575Y-0008052
X-000525
X-000525Y-0008375
X-0004925Y-0008373
X-0004925Y-000805
X-00046
X-00046Y-0008373
X-0004275
X-0004275Y-000805
X-0004275Y-0006373
X-0004275Y-000605
X-00046
X-00046Y-0006373
X-0004925
X-0004925Y-000605
X-000525Y-0006052
X-000525Y-0006375
X-0005575
X-0005575Y-0006052
X-0005575Y-00044
X-0005575Y-0004077
X-000525
X-000525Y-00044
X-0004925Y-0004398
X-0004925Y-0004075
X-00046
X-00046Y-0004398
X-0004275
X-0004275Y-0004075
X-000805
X-000805Y-0004398
X-0008375
X-0008375Y-0004075
X-00087
X-00087Y-0004398
X-0009025Y-00044
X-0009025Y-0004077
X-000935
X-000935Y-00044
X-000935Y-0006052
X-000935Y-0006375
X-0009025
X-0009025Y-0006052
X-00087Y-000605
X-00087Y-0006373
X-0008375
X-0008375Y-000605
X-000805
X-000805Y-0006373
X-000805Y-000805
X-000805Y-0008373
X-0008375
X-0008375Y-000805
X-00087
X-00087Y-0008373
X-0009025Y-0008375
X-0009025Y-0008052
X-000935
X-000935Y-0008375
X-000935Y-0010052
X-000935Y-0010375
X-0009025
X-0009025Y-0010052
X-00087Y-001005
X-00087Y-0010373
X-0008375
X-0008375Y-001005
X-000805
X-000805Y-0010373
X-000805Y-001205
X-000805Y-0012373
X-0008375
X-0008375Y-001205
X-00087
X-00087Y-0012373
X-0009025Y-0012375
X-0009025Y-0012052
X-000935
X-000935Y-0012375
X0013075Y-00102
X0013375
Y-0009875
X0013075
Y-00095625
X0013375
Y-000925
X0013075
X00129Y-00184125
X00136125
X0014325
X00150375
X0014325Y-00191938
Y-0019975
X00136125Y-0019975
X00129Y-0019975
Y-00207563
Y-00215375
X00136125
X0014325
X00150375
X0014325Y-00207563
X00150375Y-0019975
X00129Y-00191938
X00136001Y-002615
X00141001Y-002665
X00124001
X00119001Y-002615
X00196Y-0026125
X00196Y-0025825
X001945Y-0026875
Y-0027375
X00201
Y-0026875
X002075
Y-0027375
X00209Y-0026125
X00206
X002015Y-00249
Y-00246
X00201Y-00236
Y-00233
X002075
Y-00236
X001945Y-0023475
Y-0023175
X00188Y-00233
Y-00236
X001885Y-00249
X001915Y-00249
X00220986Y-00243586
X00222764Y-00240792
X00220986Y-00233332
X00222764Y-00230792
X0024765Y-00236014
Y-00239014
Y-00247952
Y-00250952
X0026025Y-0025325
X0026325
X0026525Y-0026775
Y-0027075
X0027325Y-0027075
Y-0026775
X0024833Y-0026775
Y-0027075
X0026025Y-0023425
X0026325
X00278408Y-00243662
X00281408
X00281706Y-00223242
Y-00220242
X00296906Y-00220242
Y-00223242
X0029675Y-002361
X0029975
X00311Y-002327
X00314
X0032725Y-0023725
X0033025
X00330176Y-00250266
X00327176
X00314Y-002533
X00311
X0029975Y-002513
X0029675
X0029875Y-0026775
Y-0027075
X00296902Y-00293422
X00293902
X00293902Y-00310082
X00296902
X003115Y-00313486
X003145
X003145Y-0032275
X003115
Y-0033575
X003145
X0029843Y-00329922
Y-00326922
X0028323Y-00326922
Y-00329922
X00333776Y-00329414
Y-00326414
X00348976Y-00326414
Y-00329414
X0036Y-00314
X00363
Y-00294
X0036
X00347194Y-0030386
X00344194
X00328042Y-0031163
X00325042
X00325042Y-0029543
X00328042
X003145Y-00287986
X003115
X0034625Y-0024375
X0034925
X0036Y-0025055
X00363
Y-0023555
X0036
X0035135Y-00204
Y-00201
X0033615Y-00201
Y-00204
X0032485Y-00204
Y-00201
X0030965Y-00201
Y-00204
X0029875Y-00204
Y-00201
X0029925Y-001841
X0029625
X0029625Y-001689
X0029925
X00311Y-001655
X00314
X003285
X003315
X00331Y-0014975
X00334
Y-0013675
X00331
X0031175Y-001345
Y-001315
X0031285Y-0014675
Y-0014975
X0029765Y-0014975
Y-0014675
X0029475Y-001345
Y-001315
X0029475Y-0011825
Y-0011525
X0031675
Y-0011825
X0028125Y-0012625
X0027825
X00264Y-00126
X00261
X00246Y-00128
X00243
X002285Y-00126
X002255
Y-0015
X002285
X00243
X00246
X00261Y-0015175
X00264
X0027825
X0028125
X0028125Y-0017655
X0027825
X0026325Y-0016705
X0026025
X0024725Y-001689
X0024425
X0024425Y-001841
X0024725
X0026025Y-0018605
X0026325
X0026525Y-00201
Y-00204
X0027325Y-00204
Y-00201
X0024325Y-00201
Y-00204
X002075Y-00194
Y-00189
X00201
Y-00194
X001945
Y-00189
X00196Y-001815
X00196Y-001785
X00209
Y-001815
X00195504Y-0016286
Y-0015986
X00192254
Y-0016286
X00189129
Y-0015986
X00186004
Y-0016286
X00176708
Y-0015986
X00173458
Y-0016286
X00170333
Y-0015986
X00167208
Y-0016286
X001575Y-00152
X0015775Y-00149
X001575Y-00143
X0015775Y-0014
X001575Y-001345
X0015775Y-001315
X001575Y-00126
X0015775Y-00123
X00167208Y-0013686
Y-0013986
X00170458
Y-0013686
X00173583
Y-0013986
X00176708
Y-0013686
X00186004
Y-0013986
X00189254
Y-0013686
X00192379
Y-0013986
X00195504
Y-0013686
X001575Y-00184125
Y-00191938
Y-0019975
X0015775Y-00207563
X001575Y-00215375
X00188Y-0031275
Y-0031775
X001945
Y-0031275
X00201
Y-0031775
X002075
Y-0031275
X00210312Y-0032639
X00213106Y-00328168
X00220312Y-0032639
X00223106Y-00328168
X002015Y-0032875
Y-0032575
X001885
X001885Y-0032875
X0039525Y-0032535
X0039825
X0039825Y-0031265
X0039525
X0040975Y-003108
X0041275
X0041575Y-0032825
Y-0033125
X0042775Y-003203
X0043075
X0044225Y-0032785
X0044525
X004545Y-0032675
X004575
Y-0031375
X004545
X0044525Y-0031265
X0044225
X0044225Y-0028735
X0044525
X004545Y-0028625
X004575
Y-0027325
X004545
X0044525Y-0027215
X0044225
X0043075Y-002798
X0042775
X0041275Y-002703
X0040975
Y-002893
X0041275
X0040975Y-0024775
X0040675
X0041575Y-0023175
Y-0022875
X00416Y-0021075
Y-0020775
X00413Y-0019125
X0041
X00415Y-00176
Y-00173
X00428
Y-00176
X00427Y-0016245
X00424
Y-0014045
X00427
Y-0012415
X00424
X004235Y-00113
Y-0011
X0041425Y-001085
Y-001055
X0041125Y-00126
X0040825
X0039325Y-001165
X0039025
Y-00142
X0039325
X003765Y-001429
X003735
X003735Y-001581
X003765
X0039025Y-00161
X0039325
X0040825Y-001515
X0041125
X00455083Y-0015575
Y-0015875
Y-0016175
X00458417
Y-0015875
Y-0015575
X00458333Y-00144417
X00461333
Y-00141083
X00458333
X00455333
Y-00144417
X00455083Y-00123417
Y-00120417
Y-00117417
X00458417
Y-00120417
Y-00123417
X004585Y-0010625
X004615
X0046Y-001035
X00457
X004555Y-0010625
X00478583Y-0010425
Y-0010125
Y-0009825
X00481917
Y-0010125
Y-0010425
X00494333Y-0010425
Y-0010125
Y-0009825
X00497667
Y-0010125
Y-0010425
Y-00117417
Y-00120417
Y-00123417
X00494333
Y-00120417
Y-00117417
X00478Y-001155
X00475
Y-001185
Y-001215
Y-001245
X00478Y-001245
X00478583Y-00136583
Y-00139583
Y-00142583
X00481917
Y-00139583
Y-00136583
X00494333Y-00136583
Y-00139583
Y-00142583
X00497667
Y-00139583
Y-00136583
Y-0015575
Y-0015875
Y-0016175
X00494333
Y-0015875
Y-0015575
X00481917Y-0015575
Y-0015875
Y-0016175
X00478583
Y-0015875
Y-0015575
X00494333Y-0017575
Y-0017875
Y-0018175
X00497667
Y-0017875
Y-0017575
X00517833Y-0017575
Y-0017875
Y-0018175
X00521167
Y-0017875
Y-0017575
Y-0016175
Y-0015875
Y-0015575
X00517833
Y-0015875
Y-0016175
Y-00142583
Y-00139583
Y-00136583
X00521167
Y-00139583
Y-00142583
Y-00123417
Y-00120417
Y-00117417
X00517833
Y-00120417
Y-00123417
Y-0010425
Y-0010125
Y-0009825
X00521167
Y-0010125
Y-0010425
X0054075Y-0010585
X0054375
X0054675
X0054975
X0054975Y-0010885
X0054675
X0054375
X0054075
X0054075Y-0011585
X0054375
X0054675
X0054975
X0054975Y-0011885
X0054675
X0054375
X0054075
X0054075Y-0012585
X0054375
X0054675
X0054975
X0054975Y-0012885
X0054675
X0054375
X0054075
X0054075Y-0013585
X0054375
X0054675
X0054975
X0054975Y-0013885
X0054675
X0054375
X0054075
X0054075Y-0014585
X0054375
X0054675
X0054975
X0054975Y-0014885
X0054675
X0054375
X0054075
X0054075Y-0015585
X0054375
X0054675
X0054975
X0054975Y-0015885
X0054675
X0054375
X0054075
X0054075Y-0016585
X0054375
X0054675
X0054975
X0054975Y-0016885
X0054675
X0054375
X0054075
X0054075Y-0017575
X0054075Y-0017875
X0054375
X0054675
X0054975
X0054975Y-0017575
X0054675
X0054375
Y-0018575
X0054675
X0054975
X0054975Y-0018875
X0054675
X0054375
X0054075
X0054075Y-0018575
X0054075Y-0025085
X0054375
X0054675
X0054975
X0054975Y-0025385
X0054675
X0054375
X0054075
X0054075Y-0026085
X0054375
X0054675
X0054975
X0054975Y-0026385
X0054675
X0054375
X0054075
X0054075Y-0027085
X0054375
X0054675
X0054975
X0054975Y-0027385
X0054675
X0054375
X0054075
X0054075Y-0028085
X0054375
X0054675
X0054975
X0054975Y-0028385
X0054675
X0054375
X0054075
X0054075Y-0029085
X0054375
X0054675
X0054975
X0054975Y-0029385
X0054675
X0054375
X0054075
X0054075Y-0030085
X0054375
X0054675
X0054975
X0054975Y-0030385
X0054675
X0054375
X0054075
X0054075Y-0031075
X0054375
X0054675
X0054975
X0054975Y-0031375
X0054675
X0054375
X0054075
X0054075Y-0032075
X0054375
X0054675
X0054975
X0054975Y-0032375
X0054675
X0054375
X0054075
X00523872Y-003188
X00520497
X00517122
X00519Y-0030775
X00519Y-003045
X00519Y-0030125
Y-002945
X00519Y-0029125
X00519Y-00288
Y-0028075
X00522Y-0028075
X00522Y-002775
X00519Y-002775
X00519Y-0027425
X00522Y-0027425
Y-002675
X00519Y-002675
X00519Y-0026425
X00522Y-0026425
X00522Y-00261
X00519Y-00261
Y-002545
X00522Y-002545
X00522Y-0025125
X00519Y-0025125
X00519Y-00248
X00522Y-00248
X005215Y-00241291
X005215Y-00238041
X005215Y-00234791
X005075
X005075Y-00238041
X005075Y-00241291
X0050425Y-0024125
X0050425Y-00238
X0050425Y-0023475
X0050525Y-00248
X0050525Y-0025125
X0050525Y-002545
X00502Y-002545
X00502Y-0025125
X00502Y-00248
Y-00261
X00505Y-00261
X00505Y-0026425
X00502Y-0026425
X00502Y-002675
X00505Y-002675
Y-0027425
X00502Y-0027425
X00502Y-002775
X00505Y-002775
X00505Y-0028075
X00502Y-0028075
X005Y-00288
X005Y-0029125
X005Y-002945
X00502Y-0030125
X00502Y-003045
X00502Y-0030775
X004765Y-0032025
Y-0027975
X004735
X0043075Y-0023975
X0042775
X00428Y-0019975
X00431
X0038425Y-0019705
X0038125
Y-0017705
X0038425
X0036675Y-001765
X0036375
X0034675Y-001815
Y-001845
X0034775Y-0017
X0034475
X003315Y-001875
X003285
X00314
X00311
X0035Y-0014325
X00353
X0036475Y-00129
Y-00126
X0037125Y-0011
Y-00107
X00370226Y-0009725
X00373226
X0036029
X0035729
X0035725Y-00107
Y-0011
X003575Y-0007525
X003545Y-000755
X003495Y-0007525
X003465Y-000755
X003415Y-0007525
X003385Y-000755
X0033325Y-000755
X0033
X003335Y-000635
X003295Y-000585
X003385Y-0005875
X003415Y-000585
X003465Y-0005875
X003495Y-000585
X003545Y-0005875
X003575Y-000585
X00362938Y-00041989
X00367938
Y-00035489
X00362938
X00323938
X00318938
Y-00041989
X00323938
Y-00048489
X00318938
X002995Y-00051625
Y-0005875
Y-000445
Y-00037375
X00291688Y-000445
X00283875
X00283875Y-00037375
Y-00051625
X00283875Y-0005875
X0026825
Y-00051625
Y-00037375
X00276063Y-000445
X00241274Y-00050612
X00238024
X00226314Y-00048514
Y-00044958
X00214448Y-00051116
X00211448Y-00050866
X00211448Y-00067366
X00214448Y-00067116
X00226314Y-0006858
Y-0006477
X00238528Y-00067366
X00241778
X001905Y-0005507
X001905Y-0005207
X00176006Y-00052558
Y-00055558
Y-00041554
Y-00038304
X00189992Y-00037592
X00193006Y-00037554
X0054075Y-0009585
X0054375
X0054675
X0054975
X0054975Y-0009885
X0054675
X0054375
X0054075
X00523878Y-003457
X00520503
X00517128
X0055275Y-0032375
X0055575
X0055875
X0055875Y-0032075
X0055575
X0055275
X0055275Y-0031375
X0055575
X0055875
X0055875Y-0031075
X0055575
X0055275
X0055275Y-0030385
X0055575
X0055575Y-0030085
X0055275
X0055875
X0055875Y-0030385
Y-0029385
X0055575
X0055275
X0055275Y-0029085
X0055575
X0055875
X0055875Y-0028385
X0055875Y-0028085
X0055575
X0055275
X0055275Y-0028385
X0055575
Y-0027385
X0055275
X0055275Y-0027085
X0055575
X0055875
X0055875Y-0027385
Y-0026385
X0055875Y-0026085
X0055575
X0055275
X0055275Y-0026385
X0055575
Y-0025385
X0055275
X0055275Y-0025085
X0055575
X0055875
X0055875Y-0025385
X0055875Y-0018875
X0055575
X0055275
X0055275Y-0018575
X0055575
X0055875
X0055875Y-0017875
X0055575
X0055275
X0055275Y-0017575
X0055575
X0055875
X0055875Y-0016885
X0055875Y-0016585
X0055575
X0055275
X0055275Y-0016885
X0055575
Y-0015885
X0055275
X0055275Y-0015585
X0055575
X0055875
X0055875Y-0015885
Y-0014885
X0055575
X0055275
X0055275Y-0014585
X0055575
X0055875
X0055875Y-0013885
X0055575
X0055275
X0055275Y-0013585
X0055575
X0055875
X0055875Y-0012885
X0055575
X0055275
X0055275Y-0012585
X0055575
X0055875
X0055875Y-0011885
X0055575
X0055275
X0055275Y-0011585
X0055575
X0055875
X0055875Y-0010885
X0055575
X0055275
X0055275Y-0010585
X0055575
X0055875
X0055875Y-0009885
X0055575
X0055275
X0055275Y-0009585
X0055575
X0055875
X0062455
X0062755
X0063055
X0063355
X0063655
X0063955
X0064255
X0064255Y-0009885
X0063955
X0063655
X0063355
X0063055
X0062755
X0062455
X0062455Y-0010585
X0062755
X0063055
X0063355
X0063655
X0063955
X0064255
X0064255Y-0010885
X0063955
X0063655
X0063355
X0063055
X0062755
X0062455
X0062455Y-0011575
X0062455Y-0011875
X0062755
X0063055
X0063355
X0063655
X0063955
X0064255
X0064255Y-0011575
X0063955
X0063655
X0063355
X0063055
X0062755
Y-0012575
X0063055
X0063355
X0063655
X0063955
X0064255
X0064255Y-0012875
X0063955
X0063655
X0063355
X0063055
X0062755
X0062455
X0062455Y-0012575
Y-0013575
X0062755
X0063055
X0063355
X0063655
X0063955
X0064255
X0064255Y-0013875
X0063955
X0063655
X0063355
X0063055
X0062755
X0062455
X0062455Y-0014575
X0062755
X0063055
X0063355
X0063655
X0063955
X0064255
X0064255Y-0014875
X0063955
X0063655
X0063355
X0063055
X0062755
X0062455
X0062455Y-0015575
X0062755
X0063055
X0063355
X0063655
X0063955
X0064255
X0064255Y-0015875
X0063955
X0063655
X0063355
X0063055
X0062755
X0062455
X0062455Y-0016575
X0062755
X0063055
X0063355
X0063655
X0063955
X0064255
X0064255Y-0016875
X0063955
X0063655
X0063355
X0063055
X0062755
X0062455
X0062455Y-0017575
X0062755
X0063055
X0063355
X0063655
X0063955
X0064255
X0064255Y-0017875
X0063955
X0063655
X0063355
X0063055
X0062755
X0062455
X0062455Y-0018575
X0062755
X0063055
X0063355
X0063655
X0063955
X0064255
X0064255Y-0018875
X0063955
X0063655
X0063355
X0063055
X0062755
X0062455
X0062455Y-0023075
X0062455Y-0023375
X0062755
X0063055
X0063355
X0063655
X0063955
X0064255
X0064255Y-0023075
X0063955
X0063655
X0063355
X0063055
X0062755
Y-0024075
X0063055
X0063355
X0063655
X0063955
X0064255
X0064255Y-0024375
X0063955
X0063655
X0063355
X0063055
X0062755
X0062455
X0062455Y-0024075
Y-0025075
X0062455Y-0025375
X0062755
X0063055
X0063355
X0063655
X0063955
X0064255
X0064255Y-0025075
X0063955
X0063655
X0063355
X0063055
X0062755
Y-0026075
X0063055
X0063355
X0063655
X0063955
X0064255
X0064255Y-0026375
X0063955
X0063655
X0063355
X0063055
X0062755
X0062455
X0062455Y-0026075
Y-0027075
X0062455Y-0027375
X0062755
X0063055
X0063355
X0063655
X0063955
X0064255
X0064255Y-0027075
X0063955
X0063655
X0063355
X0063055
X0062755
Y-0028075
X0063055
X0063355
X0063655
X0063955
X0064255
X0064255Y-0028375
X0063955
X0063655
X0063355
X0063055
X0062755
X0062455
X0062455Y-0028075
Y-0029075
X0062755
X0063055
X0063355
X0063655
X0063955
X0064255
X0064255Y-0029375
X0063955
X0063655
X0063355
X0063055
X0062755
X0062455
X0062455Y-0030075
X0062455Y-0030375
X0062755
X0063055
X0063355
X0063655
X0063955
X0064255
X0064255Y-0030075
X0063955
X0063655
X0063355
X0063055
X0062755
X0062755Y-0031085
X0062455
X0062455Y-0031385
X0062755
X0063055
X0063355
X0063655
X0063955
X0064255
X0064255Y-0031085
X0063955
X0063655
X0063355
X0063055
Y-0032085
X0063355
X0063655
X0063955
X0063955Y-0032385
X0063655
X0063355
X0063055
X0062755
X0062455
X0062455Y-0032085
X0062755
X0064255
X0064255Y-0032385
X0066748Y-00260254
Y-00257254
X00667258Y-00254254
X0067023Y-00255754
Y-00258754
X0068275Y-002575
Y-002545
X006855Y-00256
Y-00259
X0068275Y-002605
X0068275Y-00221
Y-00217999
Y-00215
X006855Y-002165
Y-00219499
X006705
Y-002165
X0066775Y-00217999
Y-00215
Y-00221
Y-0020305
Y-0020005
Y-0019705
X006705Y-0019855
Y-0020155
X0068275Y-0020005
Y-0019705
X006855Y-0019855
Y-0020155
X0068275Y-0020305
X00684Y-001836
Y-001806
X0068675Y-001821
Y-001791
Y-001851
X006705Y-001836
Y-001806
X0066775Y-001821
Y-001791
Y-001851
X0066775Y-0016715
Y-0016415
Y-0016115
X006705Y-0016265
Y-0016565
X00684
Y-0016265
X0068675Y-0016415
Y-0016115
Y-0016715
Y-001492
Y-001462
Y-001432
X00684Y-001447
Y-001477
X006705
Y-001447
X0066775Y-001462
Y-001432
Y-001492
Y-0013125
Y-0012825
Y-0012525
X006705Y-0012675
Y-0012975
X00684
Y-0012675
X0068675Y-0012825
Y-0012525
Y-0013125
X0068675Y-001133
Y-001103
Y-001073
X00684Y-001088
Y-001118
X006705
Y-001088
X0066775Y-001103
Y-001073
Y-001133
Y-0009535
Y-0009235
Y-0008935
X006705Y-0009085
Y-0009385
X00684
Y-0009085
X0068675Y-0009235
Y-0008935
Y-0009535
Y-000774
Y-000744
Y-000714
X00684Y-000729
Y-000759
X006705
Y-000729
X0066775Y-000744
Y-000714
Y-000774
X0066775Y-0005945
Y-0005645
Y-0005345
X006705Y-0005495
Y-0005795
X0068275Y-0005645
Y-0005345
X006855Y-0005495
Y-0005795
X0068275Y-0005945
Y-000415
Y-000385
Y-000355
X006855Y-00037
Y-0004
X006705
Y-00037
X0066775Y-000355
Y-000385
Y-000415
X006815Y-003935
X006845
X00683Y-0039625
X0068
X00686
X0069975
X0070275
X0070575
X0070425Y-003935
X0070125
Y-004085
X0070425
X0070275Y-0041125
X0069975
X0070575
X00686
X00683
X0068
X006815Y-004085
X006845
X0064255Y0011345
X0063955
X0063655
X0063355
X0063055
X0062755
X0062755Y0011645
X0062455
X006245Y0011345
X0063055Y0011645
X0063355
X0063655
X0063955
X0064255
X0064255Y0012345
X0063955
X0063655
X0063355
X0063055
X0062755
X0062455
X0062455Y0012645
X0062755
X0063055
X0063355
X0063655
X0063955
X0064255
X0064255Y0013345
X0063955
X0063655
X0063355
X0063055
X0062755
X0062455
X0062455Y0013645
X0062755
X0063055
X0063355
X0063655
X0063955
X0064255
X0064255Y0014345
X0063955
X0063655
X0063355
X0063055
X0062755
X0062455
X0062455Y0014645
X0062755
X0063055
X0063355
X0063655
X0063955
X0064255
X0064255Y0015345
X0064255Y0015645
X0063955
X0063655
X0063355
X0063055
X0062755
X0062455
X0062455Y0015345
X0062755
X0063055
X0063355
X0063655
X0063955
Y0016345
X0063655
X0063355
X0063055
X0062755
X0062455
X0062455Y0016645
X0062755
X0063055
X0063355
X0063655
X0063955
X0064255
X0064255Y0016345
Y0017345
X0063955
X0063655
X0063355
X0063055
X0062755
X0062455
X0062455Y0017645
X0062755
X0063055
X0063355
X0063655
X0063955
X0064255
X0064255Y0018345
X0063955
X0063655
X0063355
X0063055
X0062755
X0062455
X0062455Y0018645
X0062755
X0063055
X0063355
X0063655
X0063955
X0064255
X0064255Y0019345
X0064255Y0019645
X0063955
X0063655
X0063355
X0063055
X0062755
X0062455
X0062455Y0019345
X0062755
X0063055
X0063355
X0063655
X0063955
Y0020345
X0063655
X0063355
X0063055
X0062755
X0062455
X0062455Y0020645
X0062755
X0063055
X0063355
X0063655
X0063955
X0064255
X0064255Y0020345
X00669Y0020475
Y0020775
X0067175Y0020625
Y0020925
Y0020325
X006835Y00203
Y00206
Y00209
X0068625Y002075
Y002045
X006855Y001895
Y001865
X0068275Y00185
Y00188
Y00191
X0067175Y00191
Y00188
Y00185
X00669Y001865
Y001895
Y00223
Y00226
X0067175Y002245
Y002275
Y002215
X00684Y00223
Y00226
X0068675Y002245
Y002275
Y002215
X0068675Y0023975
Y0024275
Y0024575
X00684Y0024425
Y0024125
X0067175Y0024275
Y0024575
X00669Y0024425
Y0024125
X0067175Y0023975
Y0025675
Y0025975
Y0026275
X00669Y0026125
Y0025825
X0068375
Y0026125
X006865Y0025975
Y0026275
Y0025675
X0068675Y00275
Y00278
Y00281
X00684Y002795
Y002765
X006705
Y002795
X0066775Y00281
Y00278
Y00275
X0066775Y0029325
Y0029625
Y0029925
X006705Y0029775
Y0029475
X00684
Y0029775
X0068675Y0029625
Y0029925
Y0029325
X0068675Y003115
Y003145
Y003175
X00684Y00316
Y00313
X006705
Y00316
X0066775Y003175
Y003145
Y003115
Y0032975
Y0033275
Y0033575
X006705Y0033425
Y0033125
X00684
Y0033425
X0068675Y0033275
Y0033575
Y0032975
X0068675Y00348
Y00351
Y00354
X00684Y003525
Y003495
X006705
Y003525
X0066775Y00354
Y00351
Y00348
X0064255Y0034145
X0063955
X0063655
X0063355
X0063055
X0062755
X0062455
X0062455Y0033845
X0062755
X0063055
X0063355
X0063655
X0063955
X0064255
X0064255Y0033145
X0063955
X0063655
X0063355
X0063055
X0062755
X0062455
X0062455Y0032845
X0062755
X0063055
X0063355
X0063655
X0063955
X0064255
X0064255Y0032155
X0063955
X0063655
X0063355
X0063055
X0062755
X0062755Y0031855
X0063055
X0063355
X0063655
X0063955
X0064255
X0064255Y0031155
X0063955
X0063655
X0063355
X0063055
X0062755
X0062455
X0062455Y0030855
X0062755
X0063055
X0063355
X0063655
X0063955
X0064255
X0064255Y0030155
X0063955
X0063655
X0063355
X0063055
X0062755
X0062455
X0062455Y0029855
X0062755
X0063055
X0063355
X0063655
X0063955
X0064255
X0064255Y0029155
X0063955
X0063655
X0063355
X0063055
X0062755
X0062455
X0062455Y0028855
X0062755
X0063055
X0063355
X0063655
X0063955
X0064255
X0064255Y0028155
X0063955
X0063655
X0063355
X0063055
X0062755
X0062455
X0062455Y0027855
X0062755
X0063055
X0063355
X0063655
X0063955
X0064255
X0064255Y0027155
X0063955
X0063655
X0063355
X0063055
X0062755
X0062755Y0026855
X0063055
X0063355
X0063655
X0063955
X0064255
X0064255Y0026155
X0063955
X0063655
X0063355
X0063055
X0062755
X0062455
X0062455Y0025855
X0062755
X0063055
X0063355
X0063655
X0063955
X0064255
X0064255Y0025155
X0063955
X0063655
X0063355
X0063055
X0062755
X0062455
X0062455Y0024855
X0062755
X0063055
X0063355
X0063655
X0063955
X0064255
X0062455Y0026855
X0062455Y0027155
X0062455Y0031855
X0062455Y0032155
X0055875Y0032145
X0055575
X0055275
X0055275Y0031845
X0055575
X0055875
X0055875Y0031145
X0055875Y0030845
X0055575
X0055275
X0055275Y0031145
X0055575
Y0030145
X0055275
X0055275Y0029845
X0055575
X0055875
X0055875Y0030145
Y0029145
X0055875Y0028845
X0055575
X0055275
X0055275Y0029145
X0055575
Y0028145
X0055275
X0055275Y0027845
X0055575
X0055875
X0055875Y0028145
Y0027145
X0055575
X0055275
X0055275Y0026845
X0055575
X0055875
X0055875Y0026155
X0055575
X0055275
X0055275Y0025855
X0055575
X0055875
X0055875Y0025155
X0055575
X0055275
X0055275Y0024855
X0055575
X0055875
Y0018645
X0055575
X0055275
X0055275Y0018345
X0055575
X0055875
X0055875Y0017645
X0055575
X0055275
X0055275Y0017345
X0055575
X0055875
X0055875Y0016645
X0055575
X0055275
X0055275Y0016345
X0055575
X0055875
X0055875Y0015645
X0055575
X0055275
X0055275Y0015345
X0055575
X0055875
X0055875Y0014645
X0055575
X0055275
X0055275Y0014345
X0055575
X0055875
X0055875Y0013645
X0055575
X0055275
X0055275Y0013345
X0055575
X0055875
X0055875Y0012645
X0055575
X0055275
X0055275Y0012345
X0055575
X0055875
X0055875Y0011645
X0055575
X0055275
X0055275Y0011345
X0055575
X0055875
X0055875Y0032845
X0055875Y0033145
X0055575
X0055275
X0055275Y0032845
X0055575
Y0033845
X0055275
X0055275Y0034145
X0055575
X0055875
X0055875Y0033845
X0054975
X0054675
X0054375
X0054075
X0054075Y0034145
X0054375
X0054675
X0054975
Y0033145
X0054675
X0054375
X0054075
X0054075Y0032845
X0054375
X0054675
X0054975
X0054975Y0032145
X0054675
X0054375
X0054075
X0054075Y0031845
X0054375
X0054675
X0054975
X0054975Y0031145
X0054675
X0054375
X0054075
X0054075Y0030845
X0054375
X0054675
X0054975
X0054975Y0030145
X0054675
X0054375
X0054075
X0054075Y0029845
X0054375
X0054675
X0054975
X0054975Y0029145
X0054675
X0054375
X0054075
X0054075Y0028845
X0054375
X0054675
X0054975
X0054975Y0028145
X0054675
X0054375
X0054075
X0054075Y0027845
X0054375
X0054675
X0054975
X0054975Y0027145
X0054675
X0054375
X0054075
X0054075Y0026845
X0054375
X0054675
X0054975
X0054975Y0026155
X0054675
X0054375
X0054375Y0025855
X0054675
X0054975
X0054975Y0025155
X0054675
X0054375
X0054375Y0024855
X0054675
X0054975
X0054075
X0054075Y0025155
X0054075Y0025855
X0054075Y0026155
X00523167Y0026125
Y0026425
Y0026725
X00519833
Y0026425
Y0026125
X00499667Y0026125
Y0026425
Y0026725
X00496333
Y0026425
Y0026125
Y00282
Y00285
Y00288
X00499667
Y00285
Y00282
X00485667Y00282
Y00285
Y00288
X00482333
Y00285
Y00282
X00462417Y00282
Y00285
Y00288
X00459083
Y00285
Y00282
Y00301667
Y00304667
Y00307667
X00462417
Y00304667
Y00301667
Y00321333
Y00324333
Y00327333
X00459083
Y00324333
Y00321333
Y00341
Y00344
Y00347
X00462417
Y00344
Y00341
X00482583Y00341
Y00344
Y00347
X00485917
Y00344
Y00341
X00496333Y00341
Y00344
Y00347
X00499667
Y00344
Y00341
Y00327333
Y00324333
Y00321333
X00496333
Y00324333
Y00327333
X00485917Y00327333
Y00324333
Y00321333
X00482583
Y00324333
Y00327333
Y00307667
Y00304667
Y00301667
X00485917
Y00304667
Y00307667
X00496333Y00307667
Y00304667
Y00301667
X00499667
Y00304667
Y00307667
X00520083Y00307667
Y00304667
Y00301667
X00523167
Y00304667
Y00307667
Y00321333
Y00324333
Y00327333
X00519833
Y00324333
Y00321333
Y00341
Y00344
Y00347
X00523167
Y00344
Y00341
Y00288
Y00285
Y00282
X00519833
Y00285
Y00288
X00518375Y0022
X00515
Y00216625
X00518375
X0052175
Y0022
X0050825Y002215
X00504875
X005015
Y00218125
X00504875
X0050825
X00504625Y0020275
Y00199375
Y00196
X0050125
Y00199375
Y0020275
Y00189541
Y00186166
X00504625
Y00182791
X0050125
Y00176331
Y00172956
Y00169581
X00504625
Y00172956
Y00176331
Y00163122
X0050125
Y00159747
Y00156372
X00504625
Y00159747
X0050125Y00149872
Y00146812
X00502736Y00143764
X004995Y00136622
Y00133247
Y00129872
X004815Y0013
X004785Y0012975
X00471Y0013
X0046775
X004595Y0013
X0045625
X0044475Y00124575
X0043825
Y00127575
X0043175
Y00124575
X0042525
Y00127575
X0041875
Y00124575
X0041225
Y00127575
X00419Y0014175
Y0014525
X004215Y001435
X00424Y0014525
Y0014175
Y0015445
Y0015795
X004215Y001562
X00419Y0015795
Y0015445
Y0016715
Y0017065
X004215Y001689
X00424Y0017065
Y0016715
Y0017985
Y0018335
X004215Y001816
X00419Y0018335
Y0017985
X004265Y00197
Y0020025
X0044055Y0019975
Y0020275
X0044705
Y0019975
X0045355
Y0020275
X0046005
Y0019975
X004685Y001995
Y0020275
X0046875Y0020875
X004685Y0021175
X0046875Y0021725
X004685Y0022025
X0046875Y0022575
X004685Y0022875
X004685Y002345
Y0023775
X004685Y00244
Y0024725
X0045355Y0024675
Y0024375
X0044705
Y0024675
X0044055
Y0024375
X0042672Y0024892
X0042418Y00247142
X0042175Y00249
X004195Y00247
X0041725Y00249
X00418Y0026475
Y0026775
X00421125
Y0026475
X0042425
Y0026775
X004275
Y0026475
X00428519Y00230438
X00425478
X00422436
X00419394
X00416353
X00413311
X00414811Y00227688
X00417873
X00420936
X00423998
X0042703
X00430061
X00431561Y00230438
X00430061Y00218812
X0042703
X00423998
X00420936
X00417873
X00414811
X00413311Y00216062
X00416353
X00419394
X00422436
X00425478
X00428519
X00431561
X004095Y002
Y0019675
X0038675Y0016925
X0038375
Y00166125
X0038675
Y00163
X0038375
Y0015975
X0038675
X0036375
X0036075
Y00163
X0036375
Y00166125
X0036075
Y0016925
X0036375
X00351127Y00168667
Y00165625
Y00162583
Y00159542
Y001565
X00348377Y00158
Y00161031
Y00164063
Y00167125
Y00170187
Y0017325
X00351127Y0017475
Y00171708
X003395Y00170187
Y00167125
Y00164063
Y00161031
Y00158
X0033675Y001565
Y00159542
Y00162583
Y00165625
Y00168667
Y00171708
Y0017475
X003395Y0017325
X003385Y0019
X003415Y0019025
X003465Y0019
X003495Y0019025
X003545Y0019
X003575Y0019025
X003575Y00207
X003545Y0020675
X003495Y00207
X003465Y0020675
X003415Y00207
X003385Y0020675
X003295Y00207
X003335Y00202
X0033325Y0019
X0033
X0032Y001755
X00316Y001755
X003046Y001715
X003011
X0030285Y00169
X003046Y001665
X003011
X002884
X0029015Y00169
X002919Y001715
X002884
X002792
X002757
X0027745Y00169
X002792Y001665
X002757
X002665
X00263
X0026475Y00169
X002665Y001715
X00263
X002514Y0016825
X002464
Y0016175
X002514
Y0015525
X002464
Y0014875
X002514
X0025146Y0014224
X002464Y0014225
X00241752Y00125926
X00238502
X00226314Y00128524
Y00132334
X00214672Y00125676
X00211672Y00125926
X00211672Y00109426
X00214672Y00109676
X00226568Y00108458
Y00112268
X00238752Y00109426
X00242002
X002459Y000865
X002509
Y0008
X002459
Y000735
X002509
Y00067
X002459
Y000605
X002509
Y00054
X002459
X0024164Y00037526
X0023839
X00226314Y00040132
Y00043434
X0021456Y00037276
X0021156Y00037526
X0021156Y00021026
X0021456Y00021276
X00226314Y00019812
Y00023368
X0023864Y00021026
X0024189
X002459Y-0000175
X002509
Y-0000825
X002459
Y-0001475
X002509
Y-0002125
X002459
X00246262Y-00027751
X002509Y-0002775
Y-0003425
X002459
X00276063Y-0003025
X00283875
X00291688
X002995
X003006Y-0001
X003041
X0030235Y-000075
X003041Y-00005
X003006
X002914
X002879
X0028965Y-000075
X002914Y-0001
X002879
X002787
X002752
X0027695Y-000075
X002787Y-00005
X002752
X00266
X002625
X0026425Y-000075
X00266Y-0001
X002625
X0026825Y0003
Y00037125
Y0004425
Y00051375
Y000585
X00276063
X00283875
X00283875Y00051375
X00283875Y0004425
X00283875Y00037125
X00283875Y0003
X00291688
X002995
Y00037125
X0029875Y0004425
X00291688
Y000585
X002995
Y00051375
X00318938Y00052761
X00323938
Y00059261
X00318938
X003195Y0007025
X003155Y0007025
X003155Y0008725
X003195Y0008725
X0033625Y000865
Y00083458
Y00080417
Y00077375
Y00074333
Y00071292
Y0006825
X00339Y0006975
Y00072781
Y00075813
Y00078875
Y00081938
Y00085
X00347877
Y00081938
Y00078875
Y00075813
Y00072781
Y0006975
X00350627Y0006825
Y00071292
Y00074333
Y00077375
Y00080417
Y00083458
Y000865
X0036025Y00081
X0036325
Y00077875
X0036025
Y0007475
X0036325
Y000715
X0036025
X00362938Y00059261
X00367938
Y00052761
X00362938
Y00046261
X00367938
X003575Y0002975
X003545Y000295
X003495Y0002975
X003465Y000295
X003415Y0002975
X003385Y000295
X003295Y0002975
X003335Y0002475
X0033325Y0001275
X0033
X003385Y0001275
X003415Y00013
X003465Y0001275
X003495Y00013
X003545Y0001275
X003575Y00013
X00350627Y-0000175
Y-00004792
Y-00007833
Y-00010875
Y-00013917
Y-00016958
Y-0002
X00347877Y-000185
Y-00015469
Y-00012437
Y-00009375
Y-00006313
Y-0000325
X00339
Y-00006313
Y-00009375
Y-00012437
Y-00015469
Y-000185
X0033625Y-0002
Y-00016958
Y-00013917
Y-00010875
Y-00007833
Y-00004792
Y-0000175
X003195Y-00001
X003155Y-00001
X003155Y-000155
X003195Y-000155
X00322438Y-00028989
X00325438
X00362938
X00367938
X0036325Y-0001675
X0036025
Y-000135
X0036325
Y-00010375
X0036025
Y-0000725
X0036325
X0038325
X0038625
Y-00010375
X0038325
Y-000135
X0038625
Y-0001675
X0038325
Y000715
X0038625
Y0007475
X0038325
Y00077875
X0038625
Y00081
X0038325
X0041225Y00082425
Y00085425
X00413364Y00072369
X00410189Y00072369
X00419552Y0007225
X00422552Y000725
X00428594
X00431844
X00439135Y0007225
X00442135Y000725
X00448177
X00451427
X00458719Y0007225
X00461719Y000725
X0046776
X0047101
X00483923Y00074
Y00077
X00487048
Y00074
X00490298
Y00077
X0048387Y00070866
X00483286Y00054
Y00051
X00486411
Y00054
X00489536
Y00051
X00480036
Y00054
X0047126Y000555
X0046801
X00461719Y0005575
X00458719Y000555
X00451677
X00448427
X00442135Y0005575
X00439135Y000555
X00432094
X00428844
X00422552Y0005575
X00419552Y000555
X00413364Y00055605
X00410189Y00055605
X0043175Y00083
X0043175Y00086175
X0043825Y00085425
Y00082425
X0044475
Y00085425
X00460875Y000865
X00464125
Y000995
X00460875
X0045975Y00113
X004565
X00468Y00113
X0047125
X00481584Y0011384
X00481588Y00117094
X00479875Y00093
X00510878Y0009105
X00514253
X00517628
X00517622Y0011795
X00514247
X00510872
X0052335Y00130372
Y00133747
Y00137122
Y00142372
Y00145747
Y00149122
X005216Y00156372
Y00159747
Y00163122
X00518225
Y00159747
Y00156372
Y00169581
Y00172956
Y00176331
X005216
Y00172956
Y00169581
Y00182791
X00518275Y00182759
X00518225Y00186166
X005216
Y00189541
X00518225
Y00196
Y00199375
Y0020275
X005216
Y00199375
Y00196
X00504625Y00189541
X004855Y0019975
Y00203
X004855Y0020875
X0048525Y0021175
X0048525Y0021725
X00482
X0048125Y0022875
X004845
X004855Y0023475
Y00238
X004855Y0024425
Y002475
X0047325Y00177875
X00466125
X00459
X00451875
X0044475
Y00170063
Y0016225
X00451875Y0016225
X00459Y0016225
X00466125Y0016225
X0047325Y0016225
Y00170063
X00459
Y00154438
Y00146625
X00466125
X0047325
X004735Y00154438
X0044475
Y00146625
X00451875
X00368438Y00147511
X00363438
Y00141011
X00368438
Y00134511
X00363438
X00358Y00118
X00355Y0011775
X0035Y00118
X00347Y0011775
X00342Y00118
X00339Y0011775
X0033Y00118
X00334Y00113
X0033375Y00101
X003305
X00339Y00101
X00342Y0010125
X00347Y00101
X0035Y0010125
X00355Y00101
X00358Y0010125
X00324438Y00128011
X00319438
Y00134511
X00324438
Y00141011
X00319438
Y00147511
X00324438
X0032Y001585
X00316Y001585
X002995Y0014575
Y00138625
Y001315
Y00124375
Y0011725
X00291688
X00283875
X00283875Y00124375
X00283875Y001315
X00283875Y00138625
X00283875Y0014575
X00276063
X0026825
Y00138625
Y001315
Y00124375
Y0011725
X00276063Y00117
Y001315
X00291688
Y0014575
X0029Y0016375
X00291688Y00207
X002995
Y00214125
Y0022125
Y00228375
Y002355
X00291688
X00283875
X00283875Y00228375
X00283875Y0022125
X00283875Y00214125
X00283875Y00207
X00276063Y0020675
X0026825Y00207
Y00214125
Y0022125
Y00228375
X00276063Y0022125
Y002355
X002752Y00254
Y00257
X0027825Y00257
X002787Y00254
X002879Y002555
X002914
X0028965Y00258
X002914Y002605
X002879
X003006
X003041
X0030235Y00258
X003041Y002555
X003006
X003155Y002475
X003195Y002475
X00318938Y00236511
X00323938
Y00230011
X00318938
Y00223511
X00323938
Y00217011
X00318938
X00291688Y0022125
X002509Y0023125
X002459
Y0023775
X002504
X002509Y0024425
X002459
Y0025075
X002509
Y0025725
X002459
Y0026375
X002509
X002625Y002605
X00266
X0026425Y00258
X00266Y002555
X002625
X0026825Y002955
Y00302625
Y0030975
Y00316875
Y00324
X00273563
X00286625
X00291688
X002995
Y00316875
Y0030975
Y00302625
Y002955
X00291688
X00283875
X00283875Y00302625
X00283875Y0030975
X00283875Y00316875
X00291688Y0030975
X00276063
Y0029525
X00241452Y00300674
X00238202
X0022606Y00302768
Y00306578
X00214372Y00300424
X00211372Y00300674
X00211372Y00284174
X00214372Y00284424
X00226314Y00282956
Y00286766
X00238452Y00284174
X00241702
X0024615Y0031975
X0025115
Y0032625
X0024615
Y0033275
X0025115
Y0033925
X0024615
Y0034575
X0025115
Y0035225
X0024615
X0026275Y00349
X0026625
X002645Y003465
X0026625Y00344
X0026275
X0027545
X0027895
X002772Y003465
X0027895Y00349
X0027545
X0028815
X0029165
X002899Y003465
X0028815Y00344
X002915Y0034375
X0030085Y00344
X0030435
X003026Y003465
X0030435Y00349
X0030085
X0031575Y00353
X0031975Y00353
X0031975Y00336
X0031575Y00336
X00319188Y00325011
X00324188
Y00318511
X00319188
Y00312011
X00324188
Y00305511
X00319188
X0032975Y002955
X0033375Y002905
X0033875Y0029525
X0034175Y002955
X0034675Y0029525
X0034975Y002955
X00355092Y00295402
X00358258Y002955
X0035775Y0027875
X0035475Y002785
X0034975Y0027875
X0034675Y002785
X0034175Y0027875
X0033875Y002785
X003335Y002785
X0033025
X0033625Y0026375
Y00260708
Y00257667
Y00254625
Y00251583
Y00248542
Y002455
X00339Y00247
Y00250031
Y00253063
Y00256125
Y00259188
Y0026225
X00347877
Y00259188
Y00256125
Y00253063
Y00250031
Y00247
X00350627Y002455
Y00248542
Y00251583
Y00254625
Y00257667
Y00260708
Y0026375
X0036025Y0025825
X0036325
Y00255125
X0036025
Y00252
X0036325
Y0024875
X0036025
X00362938Y00236511
X00367518Y00236511
X00367938Y00230011
X00362938
Y00223511
X00367938
X0038325Y0024875
X0038625
Y00252
X0038325
Y00255125
X0038625
Y0025825
X0038325
X00368188Y00312011
X00363188
Y00318511
X00368188
Y00325011
X00363188
X003635Y0033725
X003605
Y003405
X003635
Y00343625
X003605
Y0034675
X003635
X00350877Y00346167
Y00343125
Y00340083
Y00337042
Y00334
X00348127Y003355
Y00338531
Y00341563
Y00344625
Y00347687
Y0035075
X00350877Y0035225
Y00349208
X0033925Y00347687
Y00344625
Y00341563
Y00338531
Y003355
X003365Y00334
Y00337042
Y00340083
Y00343125
Y00346167
Y00349208
Y0035225
X0033925Y0035075
X003835Y0034675
X003865
Y00343625
X003835
Y003405
X003865
Y0033725
X003835
X003195Y002645
X003155Y002645
X0020875Y0026375
X0020375
Y0024425
X0020875
Y0023775
X0020375
Y0023125
X0020875
X00211832Y00210772
X00211582Y00207772
X00211518Y00196032
X00214518Y00196282
X00226314Y0019431
Y00198374
X00238598Y00196032
X00241848
X00241598Y00212532
X00238348
X00227076Y00214376
Y00218186
X00192986Y00213372
Y00210122
X0017653Y0021036
Y0021336
Y00224282
X00176592Y00227412
X00188444Y00227876
Y00224876
X00188944Y00241916
X00192024Y00241808
X00179944Y00241916
X00176694
X00177194Y00251956
X00176944Y00254956
X00188194Y00254956
Y00251956
X0019311Y00299022
X0019311Y00302172
X0018982Y00312768
Y00316018
X0017832
Y00312768
X0017911Y00302014
X0017911Y00299014
X0017857Y00328308
X0017607Y00326558
X0018857Y00330558
X0019232Y00330558
X00192992Y00340932
X00189492Y00340932
X00180992
Y00343932
X00204Y0035225
X00209
Y0033275
X00204
Y0032625
X00209
Y0031975
X00204
X0020425Y0017475
X0020925
Y0015525
X0020425
Y0014875
X0020925
Y0014225
X0020425
X00192786Y00138684
X00192786Y00135434
X00192894Y00123976
Y00120726
X00176276Y00120698
Y00123698
X00176028Y00134968
X00176028Y00138218
X00176022Y001494
X00176022Y001524
X00176716Y00161612
X00176466Y00164612
X00193038Y00164612
X00193288Y00161612
X00192786Y00152654
X00192786Y00149404
X00192168Y0007799
X00192418Y0007499
X0019243Y00064882
X0019243Y00061132
X0019289Y00050342
Y00047092
X0019304Y00036838
Y00033338
X00176028Y00033588
X00176028Y00036588
X0017589Y00047092
X0017589Y00050592
Y00061132
X0017589Y00064382
X00176346Y0007499
X00176096Y0007799
X0020375Y000865
X0020875
Y00067
X0020375
Y000605
X0020875
Y00054
X0020375
Y-0000175
X0020875
X002065Y-0002125
X002035
X002035Y-0002775
X002065
Y-0003375
X002035
X00189758Y-00027388
X00189738Y-0002413
X00192802Y-00013402
X00192552Y-00010402
X00176234Y-00010402
X00176484Y-00013402
X00176006Y-00024264
X00176006Y-00027514
X00276063Y0002975
Y0004425
X002752Y0007825
X002787
X0027695Y0008075
X002787Y0008325
X002752
X00266
X002625
X0026425Y0008075
X00266Y0007825
X002625
X002879
X002914
X0028965Y0008075
X002914Y0008325
X002879
X003006
X003041
X0030235Y0008075
X003041Y0007825
X003006
X00318938Y00046261
X00323938
Y00039761
X00318938
X002514Y0017475
X002464
X0054075Y0017345
X0054075Y0017645
X0054375
X0054675
X0054975
X0054975Y0017345
X0054675
X0054375
X0054375Y0016645
X0054675
X0054975
X0054975Y0016345
X0054675
X0054375
X0054075
X0054075Y0016645
Y0015645
X0054075Y0015345
X0054375
X0054675
X0054975
X0054975Y0015645
X0054675
X0054375
Y0014645
X0054675
X0054975
X0054975Y0014345
X0054675
X0054375
X0054075
X0054075Y0014645
Y0013645
X0054075Y0013345
X0054375
X0054675
X0054975
X0054975Y0013645
X0054675
X0054375
Y0012645
X0054675
X0054975
X0054975Y0012345
X0054675
X0054375
X0054075
X0054075Y0012645
Y0011645
X0054375
X0054675
X0054975
X0054975Y0011345
X0054675
X0054375
X0054075
Y0018345
X0054375
X0054675
X0054975
X0054975Y0018645
X0054675
X0054375
X0054075
X0010675Y001565
Y001535
X0009375
Y001565
X0008625
Y001535
X000735
Y001565
X0006625
Y001535
X0005325
Y001565
X0005325Y0014625
X0005625
X0004475
X0004175
X0003325
X0003025
Y0013579
X0003325
X0004175Y0013325
X0004475
X0005325
X0005625
X0006675Y0013225
X0006975
Y0013725
X0007275
Y0014225
X0006975
X0007Y0012725
X00067
X0006975Y0012225
X0007275
X00048466Y00109148
X00048466Y00105898
X00045466Y00104648
Y00107648
Y00110648
X00021034Y00108894
X00021034Y00105644
X00018034Y00104394
Y00107394
Y00110394
X-00006Y00105
X-00009
X-00012
X-0001075Y00102
X-000075Y00102
X-00009Y0009
X-00012
X-0001075Y00087
X-000075Y00087
X-00006Y0009
Y00075
X-00009
X-00012
X-0001075Y00072
X-000075Y00072
Y00117
X-0001075Y00117
X-00012Y0012
X-00009
X-00006
X-000075Y00132
X-0001075Y00132
X-00012Y00135
X-00009
X-00006
X-000075Y00147
X-0001075Y00147
X-00012Y0015
X-00009
X-00006
X-00057Y0017425
X-00064
X-000635Y00207
X-000585
X-000115Y00233
X-000065
Y00248
X-000115Y00248
Y00263
X-000065
Y00278
X-000115
Y00293
X-000065
Y00308
X-000115
Y00323
X-000065
X000375Y00316646
X00040564
X00040502Y00306765
X000375Y00306646
X00056854Y00304146
X00061854
Y00309146
X00057604
Y00314146
X00061854
Y00319146
X00057604
X0007025Y003175
X00078
X00086854Y00319146
Y00314146
X00091854
Y00319146
Y00309146
X00086854
Y00304146
X00091854
Y00299146
Y00294146
X00086854
Y00299146
X00080254Y00296264
X00071253Y00297015
X00060604Y00299146
X00057604
Y00294146
X00060604
X000995Y0028975
X0010225Y00291
X001095Y0028975
X0011225Y00291
X00110354Y00309896
X00107354
Y00322896
X00110354
X00128Y003165
X00131Y00316507
Y00310007
X00128Y0031
X00105396Y00345361
X00102646Y00343854
X00095396Y00345268
X00092646Y00343761
X0005125Y00337
Y0033375
X0003875Y003345
X000355
X-000585Y00349
X-000635
X-00065Y00047
X-0005825
X-0005575Y0001948
X-0005575Y0001625
X-000525
X-000525Y0001948
X-0004925Y000195
X-0004925Y0001627
X-00046
X-00046Y000195
X-0004275
X-0004275Y0001627
X-0004275Y-000005
X-0004275Y-0000373
X-00046
X-00046Y-000005
X-0004925
X-0004925Y-0000373
X-000525Y-0000375
X-000525Y-0000052
X-0005575
X-0005575Y-0000375
X-0005575Y-0002077
X-0005575Y-00024
X-000525
X-000525Y-0002077
X-0004925Y-0002075
X-0004925Y-0002398
X-00046
X-00046Y-0002075
X-0004275
X-0004275Y-0002398
X-000805
X-000805Y-0002075
X-0008375
X-0008375Y-0002398
X-00087
X-00087Y-0002075
X-0009025Y-0002077
X-0009025Y-00024
X-000935
X-000935Y-0002077
X-000935Y-0000375
X-000935Y-0000052
X-0009025
X-0009025Y-0000375
X-00087Y-0000373
X-00087Y-000005
X-0008375
X-0008375Y-0000373
X-000805
X-000805Y-000005
X-000805Y0001627
X-000805Y000195
X-0008375
X-0008375Y0001627
X-00087
X-00087Y000195
X-0009025Y0001948
X-0009025Y0001625
X-000935
X-000935Y0001948
X0011475Y00023667
Y0001375
X00124667
Y00023667
Y00033583
Y000435
X0011475
Y00033583
X00134583
Y000435
X001445
Y00033583
Y00023667
X00134583
Y0001375
X001445
X0014525Y-00008
X0015025
X0014025
X0014025Y-00035
X0014525
X0015025
X0014405Y000605
Y000645
X0014005
Y000605
X0013605
Y000645
Y000685
X0014005
X0014405
X0014525Y00085726
X0014025
X0015025
X0015025Y00112726
X0014525
X0014025
X0011625Y0012225
X0011325Y00122243
X0011275Y0012725
X0011575Y0012725
Y0013225
X0011225
X0011275Y0013725
X0011575
Y00142257
X0011275Y0014225
X0011525Y000685
X0011925
X0012325
Y000645
X0011925
X0011525
Y000605
X0011925
X0012325
X001245Y0037
Y00375
X001445
Y0037
X000985Y003999
Y004049
X001805
Y003999
X00204Y004004
Y004054
X0023Y003755
Y003705
X0025
Y003755
X0026
Y003705
X00286Y004004
Y004054
X001545Y00375
Y0037
X00669Y00369
Y00372
X0067175Y003705
Y003675
X00669Y00366
X00684Y003675
Y003705
X0068675Y00369
Y00372
Y00366
X0068675Y003845
Y003875
Y003905
X00684Y00389
Y00386
X006705
Y00389
X0066775Y003905
Y003875
Y003845
X0066775Y0040275
Y0040575
Y0040875
X006705Y0040725
Y0040425
X00684
Y0040725
X0068675Y0040875
Y0040575
Y0040275
M30
