M48
;Layer_Color=9474304
;FILE_FORMAT=4:4
METRIC,LZ
;TYPE=PLATED
T4F00S00C1.0000
T5F00S00C1.6000
T6F00S00C3.2000
T7F00S00C4.2200
;TYPE=NON_PLATED
T8F00S00C1.1900
%
T04
X00712454Y-00323804
Y-00298404
Y-00273004
Y-00247604
Y-00222204
Y-00196804
Y-00171404
Y-00146004
Y-00120604
Y-00095204
Y-00069804
Y-00044404
X00737854
Y-00069804
Y-00095204
Y-00120604
Y-00146004
Y-00171404
Y-00196804
Y-00222204
Y-00247604
Y-00273004
Y-00298404
Y-00323804
X00763254
X00788654
Y-00298404
X00763254
Y-00273004
X00788654
Y-00247604
X00763254
Y-00222204
X00788654
Y-00196804
X00763254
Y-00171404
X00788654
Y-00146004
X00763254
Y-00120604
X00788654
Y-00095204
X00763254
Y-00069804
X00788654
Y-00044404
X00763254
Y-00019004
X00737854
Y00006396
Y00031796
Y00057196
Y00082596
Y00107996
Y00133396
Y00158796
Y00184196
Y00209596
Y00234996
Y00260396
Y00285796
Y00311196
X00712454
Y00285796
Y00260396
Y00234996
Y00209596
Y00184196
Y00158796
Y00133396
Y00107996
Y00082596
Y00057196
Y00031796
Y00006396
Y-00019004
X00788654
Y00006396
X00763254
Y00031796
X00788654
Y00057196
X00763254
Y00082596
X00788654
Y00107996
X00763254
Y00133396
X00788654
Y00158796
X00763254
Y00184196
X00788654
Y00209596
X00763254
Y00234996
X00788654
Y00260396
X00763254
Y00285796
X00788654
Y00311196
X00763254
T05
X0008Y-0005665
X0057
Y0005665
X0008
T06
X-0006865Y-004
X0078865Y-003746
X-0006865Y004001
X0078865Y00362
T07
X0003135Y-003873
Y-0005
X0061865
Y-003873
Y0005
X0003135
Y003873
X0061865
T08
X0059165Y-0034
Y-003223
Y-0025
Y-002323
Y-00205
Y-001873
Y-00115
Y-000973
Y000973
Y00115
Y001873
Y00205
Y002323
Y0025
Y003223
Y0034
M30
