G04 Layer_Color=32896*
%FSLAX44Y44*%
%MOMM*%
G71*
G01*
G75*
%ADD27C,0.1000*%
D27*
X1239152Y740143D02*
G03*
X1267436Y740143I14142J14142D01*
G01*
X2359724Y823072D02*
G03*
X2352652Y826000I-7071J-7071D01*
G01*
X2416259Y766536D02*
G03*
X2424795Y770071I3535J3535D01*
G01*
X2434795Y826000D02*
G03*
X2424795Y816000I0J-10000D01*
G01*
X3317795Y618430D02*
G03*
X3337795Y598430I20000J0D01*
G01*
X3337795Y488430D02*
G03*
X3317795Y468430I0J-20000D01*
G01*
X2424795Y10000D02*
G03*
X2434795Y0I10000J0D01*
G01*
X2424795Y55929D02*
G03*
X2416259Y59465I-5000J0D01*
G01*
X2352652Y0D02*
G03*
X2359724Y2929I0J10000D01*
G01*
X1267436Y85858D02*
G03*
X1239152Y85858I-14142J-14142D01*
G01*
X3317795Y443016D02*
Y468430D01*
X3110800Y-6D02*
X3211723D01*
X2434795Y0D02*
X3050844D01*
X2310800Y-6D02*
X2352646D01*
X1510800D02*
X2250850D01*
X1353294Y0D02*
X1450844D01*
X710800Y-6D02*
X1153288D01*
X135144Y0D02*
X650844D01*
X793Y134350D02*
Y140000D01*
Y199950D02*
Y383000D01*
Y442950D02*
Y626000D01*
Y685950D02*
Y691650D01*
X135150Y826007D02*
X650800D01*
X710756Y826000D02*
X1153294D01*
X1353300Y826007D02*
X1450800D01*
X1510750D02*
X2250800D01*
X2310750D02*
X2352646D01*
X2434801D02*
X3050800D01*
X3110756Y826000D02*
X3211729D01*
X3317795Y719934D01*
X3317780Y618446D02*
Y626050D01*
X3317795Y686016D02*
Y719934D01*
X3317780Y200000D02*
Y383050D01*
X3317795Y106066D02*
Y140035D01*
X710750Y826007D02*
Y936800D01*
X650800D02*
X710750D01*
X650800Y826007D02*
Y936800D01*
X1510750Y826007D02*
Y936800D01*
X1450800D02*
X1510750D01*
X1450800Y826007D02*
Y936800D01*
X2310750Y826007D02*
Y936800D01*
X2250800D02*
X2310750D01*
X2250800Y826007D02*
Y936800D01*
X3110750Y826007D02*
Y936800D01*
X3050800D02*
X3110750D01*
X3050800Y826007D02*
Y936800D01*
X3317780Y626050D02*
X3428573D01*
Y686001D01*
X3317780D02*
X3428573D01*
X3317780Y383050D02*
X3428573D01*
Y443000D01*
X3317780D02*
X3428573D01*
X3317780Y140050D02*
X3428573D01*
Y200000D01*
X3317780D02*
X3428573D01*
X3050850Y-110800D02*
Y-6D01*
Y-110800D02*
X3110800D01*
Y-6D01*
X2250850Y-110800D02*
Y-6D01*
Y-110800D02*
X2310800D01*
Y-6D01*
X1450850Y-110800D02*
Y-6D01*
Y-110800D02*
X1510800D01*
Y-6D01*
X650850Y-110800D02*
Y-6D01*
Y-110800D02*
X710800D01*
Y-6D01*
X-110000Y199950D02*
X793D01*
X-110000Y140000D02*
Y199950D01*
Y140000D02*
X793D01*
X-110000Y442950D02*
X793D01*
X-110000Y383000D02*
Y442950D01*
Y383000D02*
X793D01*
X-110000Y626000D02*
X793D01*
X-110000D02*
Y685950D01*
X793D01*
Y134350D02*
X135144Y0D01*
X793Y691650D02*
X135144Y826000D01*
X1153294D02*
X1239152Y740143D01*
Y740143D01*
X1267436D02*
X1267436Y740143D01*
X1353294Y826000D01*
X2359724Y823072D02*
X2416259Y766536D01*
X2424795Y770071D02*
X2424795D01*
Y816000D01*
X3337795Y598430D02*
X3787795D01*
Y488430D02*
Y598430D01*
X3337795Y488430D02*
X3787795D01*
X3211729Y0D02*
X3317795Y106066D01*
X2424795Y10000D02*
Y55929D01*
X2424795D02*
X2424795D01*
X2416259Y59465D02*
Y59465D01*
X2359724Y2929D02*
X2416259Y59465D01*
X1267436Y85858D02*
X1353294Y0D01*
X1267436Y85858D02*
X1267436D01*
X1153294Y0D02*
X1239152Y85858D01*
M02*
