G04 Layer_Color=8388736*
%FSLAX44Y44*%
%MOMM*%
G71*
G01*
G75*
%ADD19R,3.5000X1.5100*%
G04:AMPARAMS|DCode=20|XSize=7.8mm|YSize=2.3mm|CornerRadius=0mm|HoleSize=0mm|Usage=FLASHONLY|Rotation=315.000|XOffset=0mm|YOffset=0mm|HoleType=Round|Shape=Rectangle|*
%AMROTATEDRECTD20*
4,1,4,-3.5709,1.9445,-1.9445,3.5709,3.5709,-1.9445,1.9445,-3.5709,-3.5709,1.9445,0.0*
%
%ADD20ROTATEDRECTD20*%

%ADD21R,2.3000X7.8000*%
G04:AMPARAMS|DCode=22|XSize=7.8mm|YSize=2.3mm|CornerRadius=0mm|HoleSize=0mm|Usage=FLASHONLY|Rotation=225.000|XOffset=0mm|YOffset=0mm|HoleType=Round|Shape=Rectangle|*
%AMROTATEDRECTD22*
4,1,4,1.9445,3.5709,3.5709,1.9445,-1.9445,-3.5709,-3.5709,-1.9445,1.9445,3.5709,0.0*
%
%ADD22ROTATEDRECTD22*%

%ADD23R,3.8000X7.8000*%
D19*
X3773600Y538400D02*
D03*
Y548400D02*
D03*
Y518400D02*
D03*
Y528400D02*
D03*
Y498400D02*
D03*
Y508400D02*
D03*
Y568400D02*
D03*
Y558400D02*
D03*
Y588400D02*
D03*
Y578400D02*
D03*
D20*
X3258400Y751400D02*
D03*
X1309100Y74600D02*
D03*
D21*
X1672500Y618000D02*
D03*
Y413000D02*
D03*
Y208000D02*
D03*
X837500Y618000D02*
D03*
Y208000D02*
D03*
D22*
X1309100Y752000D02*
D03*
D23*
X432500Y763000D02*
D03*
Y63000D02*
D03*
M02*
