G04 Layer_Color=128*
%FSLAX44Y44*%
%MOMM*%
G71*
G01*
G75*
%ADD10R,1.4000X0.8800*%
%ADD11R,0.7000X0.9000*%
%ADD12R,0.6000X0.6000*%
%ADD13R,0.6000X0.6000*%
%ADD14R,0.8800X1.4000*%
%ADD30R,2.2600X0.6100*%
%ADD34R,1.0000X1.3000*%
%ADD55R,0.7000X0.3000*%
%ADD56R,2.6000X0.6000*%
G04:AMPARAMS|DCode=57|XSize=2.37mm|YSize=1mm|CornerRadius=0.25mm|HoleSize=0mm|Usage=FLASHONLY|Rotation=180.000|XOffset=0mm|YOffset=0mm|HoleType=Round|Shape=RoundedRectangle|*
%AMROUNDEDRECTD57*
21,1,2.3700,0.5000,0,0,180.0*
21,1,1.8700,1.0000,0,0,180.0*
1,1,0.5000,-0.9350,0.2500*
1,1,0.5000,0.9350,0.2500*
1,1,0.5000,0.9350,-0.2500*
1,1,0.5000,-0.9350,-0.2500*
%
%ADD57ROUNDEDRECTD57*%
G04:AMPARAMS|DCode=58|XSize=0.45mm|YSize=0.9mm|CornerRadius=0.1125mm|HoleSize=0mm|Usage=FLASHONLY|Rotation=90.000|XOffset=0mm|YOffset=0mm|HoleType=Round|Shape=RoundedRectangle|*
%AMROUNDEDRECTD58*
21,1,0.4500,0.6750,0,0,90.0*
21,1,0.2250,0.9000,0,0,90.0*
1,1,0.2250,0.3375,0.1125*
1,1,0.2250,0.3375,-0.1125*
1,1,0.2250,-0.3375,-0.1125*
1,1,0.2250,-0.3375,0.1125*
%
%ADD58ROUNDEDRECTD58*%
%ADD59R,1.7000X2.4000*%
G04:AMPARAMS|DCode=60|XSize=0.7mm|YSize=0.9mm|CornerRadius=0.035mm|HoleSize=0mm|Usage=FLASHONLY|Rotation=180.000|XOffset=0mm|YOffset=0mm|HoleType=Round|Shape=RoundedRectangle|*
%AMROUNDEDRECTD60*
21,1,0.7000,0.8300,0,0,180.0*
21,1,0.6300,0.9000,0,0,180.0*
1,1,0.0700,-0.3150,0.4150*
1,1,0.0700,0.3150,0.4150*
1,1,0.0700,0.3150,-0.4150*
1,1,0.0700,-0.3150,-0.4150*
%
%ADD60ROUNDEDRECTD60*%
%ADD61R,4.7500X4.8000*%
%ADD62R,1.2700X1.4000*%
D10*
X488000Y236000D02*
D03*
Y221000D02*
D03*
X507000Y236000D02*
D03*
Y221000D02*
D03*
X488000Y-201250D02*
D03*
Y-216250D02*
D03*
X507000Y-201250D02*
D03*
Y-216250D02*
D03*
D11*
X420750Y343250D02*
D03*
X435750D02*
D03*
X420750Y327750D02*
D03*
X435750D02*
D03*
X420750Y403250D02*
D03*
X435750D02*
D03*
X420750Y387500D02*
D03*
X435750D02*
D03*
X422000Y-411750D02*
D03*
X437000D02*
D03*
Y-396750D02*
D03*
X422000D02*
D03*
Y-336750D02*
D03*
X437000D02*
D03*
Y-351750D02*
D03*
X422000D02*
D03*
X437239Y-5500D02*
D03*
X422239D02*
D03*
X422250Y7125D02*
D03*
X437250D02*
D03*
D12*
X259500Y-6000D02*
D03*
Y4000D02*
D03*
Y398750D02*
D03*
Y388750D02*
D03*
Y-411000D02*
D03*
Y-401000D02*
D03*
Y339000D02*
D03*
Y329000D02*
D03*
Y-351000D02*
D03*
Y-341000D02*
D03*
D13*
X358000Y-10000D02*
D03*
X348000D02*
D03*
Y384750D02*
D03*
X358000D02*
D03*
Y-415000D02*
D03*
X348000D02*
D03*
Y325000D02*
D03*
X358000D02*
D03*
Y-355000D02*
D03*
X348000D02*
D03*
Y12250D02*
D03*
X358000D02*
D03*
Y407000D02*
D03*
X348000D02*
D03*
Y-392750D02*
D03*
X358000D02*
D03*
Y347250D02*
D03*
X348000D02*
D03*
Y-332750D02*
D03*
X358000D02*
D03*
D14*
X402250Y-303000D02*
D03*
X417250D02*
D03*
X669750Y341288D02*
D03*
X684750D02*
D03*
X684750Y279327D02*
D03*
X669750D02*
D03*
X684750Y258673D02*
D03*
X669750D02*
D03*
X669750Y238019D02*
D03*
X684750D02*
D03*
X669750Y299981D02*
D03*
X684750D02*
D03*
X684750Y361942D02*
D03*
X669750D02*
D03*
X684750Y403250D02*
D03*
X669750D02*
D03*
X684750Y382596D02*
D03*
X669750D02*
D03*
X669750Y320634D02*
D03*
X684750D02*
D03*
X684750Y196712D02*
D03*
X669750D02*
D03*
X669750Y217365D02*
D03*
X684750D02*
D03*
X684750Y134750D02*
D03*
X669750D02*
D03*
D30*
X633550Y-322300D02*
D03*
Y-312300D02*
D03*
Y-302300D02*
D03*
Y-292300D02*
D03*
Y-282300D02*
D03*
Y-272300D02*
D03*
Y-262300D02*
D03*
Y-252300D02*
D03*
Y-242300D02*
D03*
Y-232300D02*
D03*
X549750D02*
D03*
Y-242300D02*
D03*
Y-252300D02*
D03*
Y-262300D02*
D03*
Y-272300D02*
D03*
Y-282300D02*
D03*
Y-292300D02*
D03*
Y-302300D02*
D03*
Y-312300D02*
D03*
Y-322300D02*
D03*
X633550Y115000D02*
D03*
Y125000D02*
D03*
Y135000D02*
D03*
Y145000D02*
D03*
Y155000D02*
D03*
Y165000D02*
D03*
Y175000D02*
D03*
Y185000D02*
D03*
Y195000D02*
D03*
Y205000D02*
D03*
X549750D02*
D03*
Y195000D02*
D03*
Y185000D02*
D03*
Y175000D02*
D03*
Y165000D02*
D03*
Y155000D02*
D03*
Y145000D02*
D03*
Y135000D02*
D03*
Y125000D02*
D03*
Y115000D02*
D03*
X633550Y250000D02*
D03*
Y260000D02*
D03*
Y270000D02*
D03*
Y280000D02*
D03*
Y290000D02*
D03*
Y300000D02*
D03*
Y310000D02*
D03*
Y320000D02*
D03*
Y330000D02*
D03*
Y340000D02*
D03*
X549750D02*
D03*
Y330000D02*
D03*
Y320000D02*
D03*
Y310000D02*
D03*
Y300000D02*
D03*
Y290000D02*
D03*
Y280000D02*
D03*
Y270000D02*
D03*
Y260000D02*
D03*
Y250000D02*
D03*
Y-187300D02*
D03*
Y-177300D02*
D03*
Y-167300D02*
D03*
Y-157300D02*
D03*
Y-147300D02*
D03*
Y-137300D02*
D03*
Y-127300D02*
D03*
Y-117300D02*
D03*
Y-107300D02*
D03*
Y-97300D02*
D03*
X633550D02*
D03*
Y-107300D02*
D03*
Y-117300D02*
D03*
Y-127300D02*
D03*
Y-137300D02*
D03*
Y-147300D02*
D03*
Y-157300D02*
D03*
Y-167300D02*
D03*
Y-177300D02*
D03*
Y-187300D02*
D03*
D34*
X497750Y-120417D02*
D03*
X517750D02*
D03*
X497750Y-101250D02*
D03*
X517750D02*
D03*
X497750Y-139583D02*
D03*
X517750D02*
D03*
X497750Y-178750D02*
D03*
X517750D02*
D03*
X497750Y-158750D02*
D03*
X517750D02*
D03*
X458500Y-101250D02*
D03*
X478500D02*
D03*
X458500Y-120417D02*
D03*
X478500D02*
D03*
X458500Y-158750D02*
D03*
X478500D02*
D03*
X458500Y-139583D02*
D03*
X478500D02*
D03*
X499750Y316833D02*
D03*
X519750D02*
D03*
X462500Y297167D02*
D03*
X482500D02*
D03*
X499750Y277500D02*
D03*
X519750D02*
D03*
X499750Y336500D02*
D03*
X519750D02*
D03*
X499750Y256750D02*
D03*
X519750D02*
D03*
X499750Y297167D02*
D03*
X519750D02*
D03*
X462500Y316833D02*
D03*
X482500D02*
D03*
X462500Y277500D02*
D03*
X482500D02*
D03*
X462500Y336500D02*
D03*
X482500D02*
D03*
D55*
X-50000Y305000D02*
D03*
Y300000D02*
D03*
Y295000D02*
D03*
Y290000D02*
D03*
Y285000D02*
D03*
Y280000D02*
D03*
Y275000D02*
D03*
Y270000D02*
D03*
Y265000D02*
D03*
Y260000D02*
D03*
Y310000D02*
D03*
Y315000D02*
D03*
Y320000D02*
D03*
Y325000D02*
D03*
Y330000D02*
D03*
Y335000D02*
D03*
Y340000D02*
D03*
Y345000D02*
D03*
D56*
X-72000Y356000D02*
D03*
Y249000D02*
D03*
D57*
X-51800Y17980D02*
D03*
X-85500D02*
D03*
Y-2020D02*
D03*
X-51800D02*
D03*
X-85500Y-22020D02*
D03*
X-51800D02*
D03*
X-85500Y-42020D02*
D03*
X-51800D02*
D03*
X-85500Y-62020D02*
D03*
X-51800D02*
D03*
X-85500Y-82020D02*
D03*
X-51800D02*
D03*
X-85500Y-102020D02*
D03*
X-51800D02*
D03*
X-85500Y-122020D02*
D03*
X-51800D02*
D03*
D58*
X333750Y10500D02*
D03*
Y4000D02*
D03*
Y-2500D02*
D03*
Y-9000D02*
D03*
X303250D02*
D03*
Y-2500D02*
D03*
Y4000D02*
D03*
Y10500D02*
D03*
Y405250D02*
D03*
Y398750D02*
D03*
Y392250D02*
D03*
Y385750D02*
D03*
X333750D02*
D03*
Y392250D02*
D03*
Y398750D02*
D03*
Y405250D02*
D03*
Y-394500D02*
D03*
Y-401000D02*
D03*
Y-407500D02*
D03*
Y-414000D02*
D03*
X303250D02*
D03*
Y-407500D02*
D03*
Y-401000D02*
D03*
Y-394500D02*
D03*
Y345500D02*
D03*
Y339000D02*
D03*
Y332500D02*
D03*
Y326000D02*
D03*
X333750D02*
D03*
Y332500D02*
D03*
Y339000D02*
D03*
Y345500D02*
D03*
Y-334500D02*
D03*
Y-341000D02*
D03*
Y-347500D02*
D03*
Y-354000D02*
D03*
X303250D02*
D03*
Y-347500D02*
D03*
Y-341000D02*
D03*
Y-334500D02*
D03*
X403000Y-9000D02*
D03*
Y-2500D02*
D03*
Y4000D02*
D03*
Y10500D02*
D03*
X372500D02*
D03*
Y4000D02*
D03*
Y-2500D02*
D03*
Y-9000D02*
D03*
Y385750D02*
D03*
Y392250D02*
D03*
Y398750D02*
D03*
Y405250D02*
D03*
X403000D02*
D03*
Y398750D02*
D03*
Y392250D02*
D03*
Y385750D02*
D03*
Y-414000D02*
D03*
Y-407500D02*
D03*
Y-401000D02*
D03*
Y-394500D02*
D03*
X372500D02*
D03*
Y-401000D02*
D03*
Y-407500D02*
D03*
Y-414000D02*
D03*
Y326000D02*
D03*
Y332500D02*
D03*
Y339000D02*
D03*
Y345500D02*
D03*
X403000D02*
D03*
Y339000D02*
D03*
Y332500D02*
D03*
Y326000D02*
D03*
Y-354000D02*
D03*
Y-347500D02*
D03*
Y-341000D02*
D03*
Y-334500D02*
D03*
X372500D02*
D03*
Y-341000D02*
D03*
Y-347500D02*
D03*
Y-354000D02*
D03*
D59*
X314000Y750D02*
D03*
Y395500D02*
D03*
Y-404250D02*
D03*
Y335750D02*
D03*
Y-344250D02*
D03*
X392250Y750D02*
D03*
Y395500D02*
D03*
Y-404250D02*
D03*
Y335750D02*
D03*
Y-344250D02*
D03*
D60*
X286750Y385000D02*
D03*
X273750D02*
D03*
X280250Y404000D02*
D03*
X286750Y325250D02*
D03*
X273750D02*
D03*
X280250Y344250D02*
D03*
X286750Y-9750D02*
D03*
X273750D02*
D03*
X280250Y9250D02*
D03*
X286750Y-354750D02*
D03*
X273750D02*
D03*
X280250Y-335750D02*
D03*
X286750Y-414750D02*
D03*
X273750D02*
D03*
X280250Y-395750D02*
D03*
D61*
X450000Y174750D02*
D03*
Y-262500D02*
D03*
X483000Y389000D02*
D03*
Y-394500D02*
D03*
D62*
X486500Y185150D02*
D03*
Y164350D02*
D03*
Y-252100D02*
D03*
Y-272900D02*
D03*
X519500Y399400D02*
D03*
Y378600D02*
D03*
Y-384100D02*
D03*
Y-404900D02*
D03*
M02*
