G04 Layer_Physical_Order=2*
G04 Layer_Color=6736896*
%FSLAX44Y44*%
%MOMM*%
G71*
G01*
G75*
%ADD36C,0.2000*%
%ADD37C,3.0000*%
%ADD38C,1.1900*%
%ADD39C,1.5000*%
%ADD40C,6.0000*%
%ADD41C,6.5000*%
%ADD42C,1.0000*%
%ADD43C,0.8000*%
%ADD44C,0.6000*%
%ADD45C,0.5000*%
%ADD46C,1.3000*%
%ADD47C,1.0000*%
%ADD48C,2.8000*%
G36*
X692566Y435209D02*
X699855Y433759D01*
X706892Y431370D01*
X713558Y428083D01*
X719737Y423954D01*
X725089Y419261D01*
X725266Y418995D01*
X736345Y407916D01*
X737833Y406922D01*
X739589Y406572D01*
X740602Y406774D01*
X743095Y404545D01*
X748941Y400397D01*
X755215Y396930D01*
X761838Y394187D01*
X768726Y392202D01*
X775793Y391001D01*
X781549Y390678D01*
X781779Y390524D01*
X782950Y390291D01*
X788650D01*
X788719Y390305D01*
X793079Y389962D01*
X797398Y388925D01*
X801503Y387225D01*
X805290Y384903D01*
X808668Y382018D01*
X811553Y378640D01*
X813875Y374853D01*
X815575Y370748D01*
X816612Y366429D01*
X816955Y362069D01*
X816941Y362000D01*
Y351753D01*
X816791Y351000D01*
X816741Y-364750D01*
X816941Y-365756D01*
Y-374600D01*
X816955Y-374669D01*
X816612Y-379029D01*
X815575Y-383348D01*
X813875Y-387453D01*
X811553Y-391240D01*
X808668Y-394618D01*
X805290Y-397504D01*
X801503Y-399825D01*
X797398Y-401525D01*
X793079Y-402562D01*
X789877Y-402814D01*
X788650Y-402891D01*
D01*
X787387Y-402908D01*
X783087Y-402895D01*
X782956Y-402699D01*
X781468Y-401704D01*
X779712Y-401355D01*
Y-401338D01*
X773315Y-401757D01*
X767027Y-403008D01*
X760956Y-405069D01*
X755207Y-407904D01*
X749876Y-411466D01*
X745607Y-415210D01*
X744987Y-415624D01*
X733266Y-427345D01*
X733089Y-427611D01*
X727737Y-432304D01*
X721558Y-436433D01*
X714892Y-439720D01*
X707855Y-442109D01*
X700566Y-443559D01*
X693463Y-444024D01*
X693150Y-443962D01*
X-1611D01*
X-1753Y-443990D01*
X-4887Y-443681D01*
X-8038Y-442726D01*
X-10941Y-441174D01*
X-12524Y-439874D01*
X-13454Y-439054D01*
X-13454Y-439054D01*
X-17599Y-435419D01*
X-22183Y-432356D01*
X-27128Y-429918D01*
X-32348Y-428146D01*
X-37755Y-427070D01*
X-43257Y-426710D01*
Y-426712D01*
X-45012Y-427061D01*
X-46501Y-428056D01*
X-46625Y-428241D01*
X-59150D01*
X-59401Y-428291D01*
X-68650D01*
X-68719Y-428305D01*
X-73079Y-427962D01*
X-77399Y-426925D01*
X-81503Y-425225D01*
X-85290Y-422904D01*
X-88668Y-420018D01*
X-91554Y-416640D01*
X-93875Y-412853D01*
X-95575Y-408748D01*
X-96612Y-404429D01*
X-96955Y-400069D01*
X-96941Y-400000D01*
Y-390500D01*
X-97174Y-389329D01*
X-97401Y-388990D01*
Y129844D01*
Y389240D01*
X-97174Y389580D01*
X-96941Y390750D01*
Y400100D01*
X-96955Y400169D01*
X-96612Y404529D01*
X-95575Y408848D01*
X-93875Y412953D01*
X-91554Y416740D01*
X-88668Y420118D01*
X-85290Y423004D01*
X-81503Y425325D01*
X-77399Y427025D01*
X-73079Y428062D01*
X-68719Y428405D01*
X-68650Y428391D01*
X-59650Y428391D01*
X28432D01*
X28556Y428206D01*
X30044Y427211D01*
X31800Y426862D01*
X33556Y427211D01*
X35044Y428206D01*
X42450Y435612D01*
X493882D01*
X494508Y434342D01*
X493885Y433530D01*
X493180Y431827D01*
X492940Y430000D01*
X493180Y428173D01*
X493885Y426470D01*
X495008Y425008D01*
X496470Y423885D01*
X498173Y423180D01*
X500000Y422940D01*
X501827Y423180D01*
X503530Y423885D01*
X504992Y425008D01*
X506115Y426470D01*
X506820Y428173D01*
X507060Y430000D01*
X506820Y431827D01*
X506115Y433530D01*
X505492Y434342D01*
X506118Y435612D01*
X513882D01*
X514508Y434342D01*
X513885Y433530D01*
X513180Y431827D01*
X512940Y430000D01*
X513180Y428173D01*
X513885Y426470D01*
X515008Y425008D01*
X516470Y423885D01*
X518173Y423180D01*
X520000Y422940D01*
X521827Y423180D01*
X523530Y423885D01*
X524992Y425008D01*
X526115Y426470D01*
X526820Y428173D01*
X527060Y430000D01*
X526820Y431827D01*
X526115Y433530D01*
X525492Y434342D01*
X526118Y435612D01*
X685150D01*
X685463Y435674D01*
X692566Y435209D01*
D02*
G37*
%LPC*%
G36*
X715910Y-159578D02*
X713430Y-159905D01*
X711119Y-160862D01*
X709134Y-162385D01*
X707612Y-164369D01*
X706654Y-166680D01*
X706328Y-169160D01*
X706654Y-171640D01*
X707612Y-173951D01*
X709134Y-175935D01*
X711119Y-177458D01*
X713430Y-178416D01*
X715910Y-178742D01*
X718390Y-178416D01*
X720701Y-177458D01*
X722685Y-175935D01*
X724208Y-173951D01*
X725165Y-171640D01*
X725492Y-169160D01*
X725165Y-166680D01*
X724208Y-164369D01*
X722685Y-162385D01*
X720701Y-160862D01*
X718390Y-159905D01*
X715910Y-159578D01*
D02*
G37*
G36*
X741310D02*
X738830Y-159905D01*
X736519Y-160862D01*
X734534Y-162385D01*
X733012Y-164369D01*
X732054Y-166680D01*
X731728Y-169160D01*
X732054Y-171640D01*
X733012Y-173951D01*
X734534Y-175935D01*
X736519Y-177458D01*
X738830Y-178416D01*
X741310Y-178742D01*
X743790Y-178416D01*
X746101Y-177458D01*
X748085Y-175935D01*
X749608Y-173951D01*
X750565Y-171640D01*
X750892Y-169160D01*
X750565Y-166680D01*
X749608Y-164369D01*
X748085Y-162385D01*
X746101Y-160862D01*
X743790Y-159905D01*
X741310Y-159578D01*
D02*
G37*
G36*
X766710D02*
X764230Y-159905D01*
X761919Y-160862D01*
X759934Y-162385D01*
X758412Y-164369D01*
X757454Y-166680D01*
X757128Y-169160D01*
X757454Y-171640D01*
X758412Y-173951D01*
X759934Y-175935D01*
X761919Y-177458D01*
X764230Y-178416D01*
X766710Y-178742D01*
X769190Y-178416D01*
X771501Y-177458D01*
X773485Y-175935D01*
X775008Y-173951D01*
X775965Y-171640D01*
X776292Y-169160D01*
X775965Y-166680D01*
X775008Y-164369D01*
X773485Y-162385D01*
X771501Y-160862D01*
X769190Y-159905D01*
X766710Y-159578D01*
D02*
G37*
G36*
Y-184978D02*
X764230Y-185305D01*
X761919Y-186262D01*
X759934Y-187785D01*
X758412Y-189769D01*
X757454Y-192080D01*
X757128Y-194560D01*
X757454Y-197040D01*
X758412Y-199351D01*
X759934Y-201336D01*
X761919Y-202858D01*
X764230Y-203815D01*
X766710Y-204142D01*
X769190Y-203815D01*
X771501Y-202858D01*
X773485Y-201336D01*
X775008Y-199351D01*
X775965Y-197040D01*
X776292Y-194560D01*
X775965Y-192080D01*
X775008Y-189769D01*
X773485Y-187785D01*
X771501Y-186262D01*
X769190Y-185305D01*
X766710Y-184978D01*
D02*
G37*
G36*
X792110D02*
X789630Y-185305D01*
X787319Y-186262D01*
X785334Y-187785D01*
X783812Y-189769D01*
X782854Y-192080D01*
X782528Y-194560D01*
X782854Y-197040D01*
X783812Y-199351D01*
X785334Y-201336D01*
X787319Y-202858D01*
X789630Y-203815D01*
X792110Y-204142D01*
X794590Y-203815D01*
X796901Y-202858D01*
X798885Y-201336D01*
X800408Y-199351D01*
X801365Y-197040D01*
X801692Y-194560D01*
X801365Y-192080D01*
X800408Y-189769D01*
X798885Y-187785D01*
X796901Y-186262D01*
X794590Y-185305D01*
X792110Y-184978D01*
D02*
G37*
G36*
X630000Y-129902D02*
X628049Y-130290D01*
X626395Y-131395D01*
X625290Y-133049D01*
X624902Y-135000D01*
X625290Y-136951D01*
X626395Y-138605D01*
X627340Y-139236D01*
Y-140764D01*
X626395Y-141395D01*
X625290Y-143049D01*
X624902Y-145000D01*
X625290Y-146951D01*
X626395Y-148605D01*
X627340Y-149236D01*
Y-150764D01*
X626395Y-151395D01*
X625290Y-153049D01*
X624902Y-155000D01*
X625290Y-156951D01*
X626395Y-158605D01*
X627340Y-159236D01*
Y-160764D01*
X626395Y-161395D01*
X625290Y-163049D01*
X624902Y-165000D01*
X625290Y-166951D01*
X626395Y-168605D01*
X627340Y-169236D01*
Y-170764D01*
X626395Y-171395D01*
X625290Y-173049D01*
X624902Y-175000D01*
X625290Y-176951D01*
X626395Y-178605D01*
X627340Y-179236D01*
Y-180764D01*
X626395Y-181395D01*
X625290Y-183049D01*
X624902Y-185000D01*
X624993Y-185459D01*
X623823Y-186084D01*
X599244Y-161506D01*
X597756Y-160511D01*
X596000Y-160162D01*
X581323D01*
Y-155250D01*
X581031Y-153031D01*
X580175Y-150963D01*
X578812Y-149188D01*
X577037Y-147825D01*
X574969Y-146969D01*
X572750Y-146677D01*
X570531Y-146969D01*
X568463Y-147825D01*
X566688Y-149188D01*
X565748Y-150412D01*
X558186D01*
X557801Y-149142D01*
X558605Y-148605D01*
X559710Y-146951D01*
X560098Y-145000D01*
X559710Y-143049D01*
X558605Y-141395D01*
X557660Y-140764D01*
Y-139236D01*
X558605Y-138605D01*
X559710Y-136951D01*
X560098Y-135000D01*
X559710Y-133049D01*
X558605Y-131395D01*
X556951Y-130290D01*
X555000Y-129902D01*
X553049Y-130290D01*
X551395Y-131395D01*
X550290Y-133049D01*
X549902Y-135000D01*
X550290Y-136951D01*
X551395Y-138605D01*
X552340Y-139236D01*
Y-140764D01*
X551395Y-141395D01*
X550290Y-143049D01*
X549902Y-145000D01*
X550290Y-146951D01*
X551395Y-148605D01*
X552340Y-149236D01*
Y-150764D01*
X551395Y-151395D01*
X550290Y-153049D01*
X549902Y-155000D01*
X550290Y-156951D01*
X551395Y-158605D01*
X552340Y-159236D01*
Y-160764D01*
X551395Y-161395D01*
X550290Y-163049D01*
X549902Y-165000D01*
X550290Y-166951D01*
X551395Y-168605D01*
X552340Y-169236D01*
Y-170764D01*
X551395Y-171395D01*
X550290Y-173049D01*
X549902Y-175000D01*
X550290Y-176951D01*
X551395Y-178605D01*
X552340Y-179236D01*
Y-180764D01*
X551395Y-181395D01*
X550290Y-183049D01*
X549902Y-185000D01*
X550290Y-186951D01*
X551395Y-188605D01*
X552340Y-189236D01*
Y-190764D01*
X551395Y-191395D01*
X550290Y-193049D01*
X549902Y-195000D01*
X550290Y-196951D01*
X551395Y-198605D01*
X552340Y-199236D01*
Y-200764D01*
X551395Y-201395D01*
X550290Y-203049D01*
X549902Y-205000D01*
X550290Y-206951D01*
X551395Y-208605D01*
X553049Y-209710D01*
X555000Y-210098D01*
X556951Y-209710D01*
X558605Y-208605D01*
X559710Y-206951D01*
X560098Y-205000D01*
X559710Y-203049D01*
X558605Y-201395D01*
X557660Y-200764D01*
Y-199236D01*
X558605Y-198605D01*
X559710Y-196951D01*
X560098Y-195000D01*
X559710Y-193049D01*
X558605Y-191395D01*
X557801Y-190858D01*
X558186Y-189588D01*
X564177D01*
Y-356199D01*
X533938Y-386438D01*
X532575Y-388213D01*
X531719Y-390281D01*
X531427Y-392500D01*
X531719Y-394719D01*
X532575Y-396787D01*
X532940Y-397262D01*
Y-407750D01*
X533180Y-409577D01*
X533885Y-411280D01*
X535008Y-412743D01*
X536470Y-413865D01*
X538173Y-414570D01*
X540000Y-414810D01*
X541827Y-414570D01*
X543530Y-413865D01*
X544992Y-412743D01*
X546115Y-411280D01*
X546820Y-409577D01*
X547060Y-407750D01*
Y-397564D01*
X578812Y-365812D01*
X580175Y-364037D01*
X581031Y-361969D01*
X581323Y-359750D01*
X581323Y-359750D01*
Y-179588D01*
X586555D01*
X586986Y-180858D01*
X585980Y-181630D01*
X584706Y-183291D01*
X583904Y-185225D01*
X583631Y-187300D01*
X583904Y-189375D01*
X584706Y-191309D01*
X585980Y-192970D01*
X587641Y-194244D01*
X589575Y-195045D01*
X591650Y-195319D01*
X593725Y-195045D01*
X595659Y-194244D01*
X597320Y-192970D01*
X598392Y-191573D01*
X599532Y-191829D01*
X599662Y-191901D01*
Y-194250D01*
X600011Y-196006D01*
X601006Y-197494D01*
X611756Y-208244D01*
X613244Y-209239D01*
X615000Y-209588D01*
X627867D01*
X628049Y-209710D01*
X630000Y-210098D01*
X631951Y-209710D01*
X633605Y-208605D01*
X634710Y-206951D01*
X635098Y-205000D01*
X634710Y-203049D01*
X633605Y-201395D01*
X632660Y-200764D01*
Y-199236D01*
X633605Y-198605D01*
X634710Y-196951D01*
X635098Y-195000D01*
X634710Y-193049D01*
X633605Y-191395D01*
X632660Y-190764D01*
Y-189236D01*
X633605Y-188605D01*
X634710Y-186951D01*
X635098Y-185000D01*
X634710Y-183049D01*
X633605Y-181395D01*
X632660Y-180764D01*
Y-179236D01*
X633605Y-178605D01*
X634710Y-176951D01*
X635098Y-175000D01*
X634710Y-173049D01*
X633605Y-171395D01*
X632660Y-170764D01*
Y-169236D01*
X633605Y-168605D01*
X634710Y-166951D01*
X635098Y-165000D01*
X634710Y-163049D01*
X633605Y-161395D01*
X632660Y-160764D01*
Y-159236D01*
X633605Y-158605D01*
X634710Y-156951D01*
X635098Y-155000D01*
X634710Y-153049D01*
X633605Y-151395D01*
X632660Y-150764D01*
Y-149236D01*
X633605Y-148605D01*
X634710Y-146951D01*
X635098Y-145000D01*
X634710Y-143049D01*
X633605Y-141395D01*
X632660Y-140764D01*
Y-139236D01*
X633605Y-138605D01*
X634710Y-136951D01*
X635098Y-135000D01*
X634710Y-133049D01*
X633605Y-131395D01*
X631951Y-130290D01*
X630000Y-129902D01*
D02*
G37*
G36*
X766710Y-134178D02*
X764230Y-134505D01*
X761919Y-135462D01*
X759934Y-136985D01*
X758412Y-138969D01*
X757454Y-141280D01*
X757128Y-143760D01*
X757454Y-146240D01*
X758412Y-148551D01*
X759934Y-150535D01*
X761919Y-152058D01*
X764230Y-153015D01*
X766710Y-153342D01*
X769190Y-153015D01*
X771501Y-152058D01*
X773485Y-150535D01*
X775008Y-148551D01*
X775965Y-146240D01*
X776292Y-143760D01*
X775965Y-141280D01*
X775008Y-138969D01*
X773485Y-136985D01*
X771501Y-135462D01*
X769190Y-134505D01*
X766710Y-134178D01*
D02*
G37*
G36*
X792110D02*
X789630Y-134505D01*
X787319Y-135462D01*
X785334Y-136985D01*
X783812Y-138969D01*
X782854Y-141280D01*
X782528Y-143760D01*
X782854Y-146240D01*
X783812Y-148551D01*
X785334Y-150535D01*
X787319Y-152058D01*
X789630Y-153015D01*
X792110Y-153342D01*
X794590Y-153015D01*
X796901Y-152058D01*
X798885Y-150535D01*
X800408Y-148551D01*
X801365Y-146240D01*
X801692Y-143760D01*
X801365Y-141280D01*
X800408Y-138969D01*
X798885Y-136985D01*
X796901Y-135462D01*
X794590Y-134505D01*
X792110Y-134178D01*
D02*
G37*
G36*
X715910Y-108778D02*
X713430Y-109105D01*
X711119Y-110062D01*
X709134Y-111585D01*
X707612Y-113569D01*
X706654Y-115880D01*
X706328Y-118360D01*
X706654Y-120840D01*
X707612Y-123151D01*
X709134Y-125135D01*
X711119Y-126658D01*
X713430Y-127615D01*
X715910Y-127942D01*
X718390Y-127615D01*
X720701Y-126658D01*
X722685Y-125135D01*
X724208Y-123151D01*
X725165Y-120840D01*
X725492Y-118360D01*
X725165Y-115880D01*
X724208Y-113569D01*
X722685Y-111585D01*
X720701Y-110062D01*
X718390Y-109105D01*
X715910Y-108778D01*
D02*
G37*
G36*
X792110Y-159578D02*
X789630Y-159905D01*
X787319Y-160862D01*
X785334Y-162385D01*
X783812Y-164369D01*
X782854Y-166680D01*
X782528Y-169160D01*
X782854Y-171640D01*
X783812Y-173951D01*
X785334Y-175935D01*
X787319Y-177458D01*
X789630Y-178416D01*
X792110Y-178742D01*
X794590Y-178416D01*
X796901Y-177458D01*
X798885Y-175935D01*
X800408Y-173951D01*
X801365Y-171640D01*
X801692Y-169160D01*
X801365Y-166680D01*
X800408Y-164369D01*
X798885Y-162385D01*
X796901Y-160862D01*
X794590Y-159905D01*
X792110Y-159578D01*
D02*
G37*
G36*
X715910Y-134178D02*
X713430Y-134505D01*
X711119Y-135462D01*
X709134Y-136985D01*
X707612Y-138969D01*
X706654Y-141280D01*
X706328Y-143760D01*
X706654Y-146240D01*
X707612Y-148551D01*
X709134Y-150535D01*
X711119Y-152058D01*
X713430Y-153015D01*
X715910Y-153342D01*
X718390Y-153015D01*
X720701Y-152058D01*
X722685Y-150535D01*
X724208Y-148551D01*
X725165Y-146240D01*
X725492Y-143760D01*
X725165Y-141280D01*
X724208Y-138969D01*
X722685Y-136985D01*
X720701Y-135462D01*
X718390Y-134505D01*
X715910Y-134178D01*
D02*
G37*
G36*
X741310D02*
X738830Y-134505D01*
X736519Y-135462D01*
X734534Y-136985D01*
X733012Y-138969D01*
X732054Y-141280D01*
X731728Y-143760D01*
X732054Y-146240D01*
X733012Y-148551D01*
X734534Y-150535D01*
X736519Y-152058D01*
X738830Y-153015D01*
X741310Y-153342D01*
X743790Y-153015D01*
X746101Y-152058D01*
X748085Y-150535D01*
X749608Y-148551D01*
X750565Y-146240D01*
X750892Y-143760D01*
X750565Y-141280D01*
X749608Y-138969D01*
X748085Y-136985D01*
X746101Y-135462D01*
X743790Y-134505D01*
X741310Y-134178D01*
D02*
G37*
G36*
X-20000Y-232633D02*
X-22341Y-233098D01*
X-24326Y-234424D01*
X-25652Y-236409D01*
X-26118Y-238750D01*
X-25652Y-241091D01*
X-24326Y-243076D01*
X-22341Y-244402D01*
X-20000Y-244867D01*
X-17659Y-244402D01*
X-15674Y-243076D01*
X-14348Y-241091D01*
X-13882Y-238750D01*
X-14348Y-236409D01*
X-15674Y-234424D01*
X-17659Y-233098D01*
X-20000Y-232633D01*
D02*
G37*
G36*
X591650Y-224281D02*
X589575Y-224555D01*
X587641Y-225356D01*
X585980Y-226630D01*
X584706Y-228291D01*
X583904Y-230225D01*
X583631Y-232300D01*
X583904Y-234375D01*
X584706Y-236309D01*
X585980Y-237970D01*
X587641Y-239244D01*
X589575Y-240045D01*
X591650Y-240319D01*
X593725Y-240045D01*
X595659Y-239244D01*
X597320Y-237970D01*
X598594Y-236309D01*
X599395Y-234375D01*
X599669Y-232300D01*
X599395Y-230225D01*
X598594Y-228291D01*
X597320Y-226630D01*
X595659Y-225356D01*
X593725Y-224555D01*
X591650Y-224281D01*
D02*
G37*
G36*
X715910Y-210378D02*
X713430Y-210705D01*
X711119Y-211662D01*
X709134Y-213185D01*
X707612Y-215169D01*
X706654Y-217480D01*
X706328Y-219960D01*
X706654Y-222440D01*
X707612Y-224751D01*
X709134Y-226735D01*
X711119Y-228258D01*
X713430Y-229216D01*
X715910Y-229542D01*
X718390Y-229216D01*
X720701Y-228258D01*
X722685Y-226735D01*
X724208Y-224751D01*
X725165Y-222440D01*
X725492Y-219960D01*
X725165Y-217480D01*
X724208Y-215169D01*
X722685Y-213185D01*
X720701Y-211662D01*
X718390Y-210705D01*
X715910Y-210378D01*
D02*
G37*
G36*
X591650Y-241981D02*
X589575Y-242255D01*
X587641Y-243056D01*
X585980Y-244330D01*
X584706Y-245991D01*
X583904Y-247925D01*
X583631Y-250000D01*
X583904Y-252075D01*
X584706Y-254009D01*
X585980Y-255670D01*
X587641Y-256944D01*
X589575Y-257745D01*
X591650Y-258019D01*
X593725Y-257745D01*
X595659Y-256944D01*
X597320Y-255670D01*
X598594Y-254009D01*
X599395Y-252075D01*
X599669Y-250000D01*
X599395Y-247925D01*
X598594Y-245991D01*
X597320Y-244330D01*
X595659Y-243056D01*
X593725Y-242255D01*
X591650Y-241981D01*
D02*
G37*
G36*
X766710Y-235778D02*
X764230Y-236105D01*
X761919Y-237062D01*
X759934Y-238585D01*
X758412Y-240569D01*
X757454Y-242880D01*
X757128Y-245360D01*
X757454Y-247840D01*
X758412Y-250151D01*
X759934Y-252136D01*
X761919Y-253658D01*
X764230Y-254615D01*
X766710Y-254942D01*
X769190Y-254615D01*
X771501Y-253658D01*
X773485Y-252136D01*
X775008Y-250151D01*
X775965Y-247840D01*
X776292Y-245360D01*
X775965Y-242880D01*
X775008Y-240569D01*
X773485Y-238585D01*
X771501Y-237062D01*
X769190Y-236105D01*
X766710Y-235778D01*
D02*
G37*
G36*
X792110D02*
X789630Y-236105D01*
X787319Y-237062D01*
X785334Y-238585D01*
X783812Y-240569D01*
X782854Y-242880D01*
X782528Y-245360D01*
X782854Y-247840D01*
X783812Y-250151D01*
X785334Y-252136D01*
X787319Y-253658D01*
X789630Y-254615D01*
X792110Y-254942D01*
X794590Y-254615D01*
X796901Y-253658D01*
X798885Y-252136D01*
X800408Y-250151D01*
X801365Y-247840D01*
X801692Y-245360D01*
X801365Y-242880D01*
X800408Y-240569D01*
X798885Y-238585D01*
X796901Y-237062D01*
X794590Y-236105D01*
X792110Y-235778D01*
D02*
G37*
G36*
X591650Y-196981D02*
X589575Y-197255D01*
X587641Y-198056D01*
X585980Y-199330D01*
X584706Y-200991D01*
X583904Y-202925D01*
X583631Y-205000D01*
X583904Y-207075D01*
X584706Y-209009D01*
X585980Y-210670D01*
X587641Y-211944D01*
X589575Y-212745D01*
X591650Y-213019D01*
X593725Y-212745D01*
X595659Y-211944D01*
X597320Y-210670D01*
X598594Y-209009D01*
X599395Y-207075D01*
X599669Y-205000D01*
X599395Y-202925D01*
X598594Y-200991D01*
X597320Y-199330D01*
X595659Y-198056D01*
X593725Y-197255D01*
X591650Y-196981D01*
D02*
G37*
G36*
X715910Y-184978D02*
X713430Y-185305D01*
X711119Y-186262D01*
X709134Y-187785D01*
X707612Y-189769D01*
X706654Y-192080D01*
X706328Y-194560D01*
X706654Y-197040D01*
X707612Y-199351D01*
X709134Y-201336D01*
X711119Y-202858D01*
X713430Y-203815D01*
X715910Y-204142D01*
X718390Y-203815D01*
X720701Y-202858D01*
X722685Y-201336D01*
X724208Y-199351D01*
X725165Y-197040D01*
X725492Y-194560D01*
X725165Y-192080D01*
X724208Y-189769D01*
X722685Y-187785D01*
X720701Y-186262D01*
X718390Y-185305D01*
X715910Y-184978D01*
D02*
G37*
G36*
X741310D02*
X738830Y-185305D01*
X736519Y-186262D01*
X734534Y-187785D01*
X733012Y-189769D01*
X732054Y-192080D01*
X731728Y-194560D01*
X732054Y-197040D01*
X733012Y-199351D01*
X734534Y-201336D01*
X736519Y-202858D01*
X738830Y-203815D01*
X741310Y-204142D01*
X743790Y-203815D01*
X746101Y-202858D01*
X748085Y-201336D01*
X749608Y-199351D01*
X750565Y-197040D01*
X750892Y-194560D01*
X750565Y-192080D01*
X749608Y-189769D01*
X748085Y-187785D01*
X746101Y-186262D01*
X743790Y-185305D01*
X741310Y-184978D01*
D02*
G37*
G36*
Y-210378D02*
X738830Y-210705D01*
X736519Y-211662D01*
X734534Y-213185D01*
X733012Y-215169D01*
X732054Y-217480D01*
X731728Y-219960D01*
X732054Y-222440D01*
X733012Y-224751D01*
X734534Y-226735D01*
X736519Y-228258D01*
X738830Y-229216D01*
X741310Y-229542D01*
X743790Y-229216D01*
X746101Y-228258D01*
X748085Y-226735D01*
X749608Y-224751D01*
X750565Y-222440D01*
X750892Y-219960D01*
X750565Y-217480D01*
X749608Y-215169D01*
X748085Y-213185D01*
X746101Y-211662D01*
X743790Y-210705D01*
X741310Y-210378D01*
D02*
G37*
G36*
X766710D02*
X764230Y-210705D01*
X761919Y-211662D01*
X759934Y-213185D01*
X758412Y-215169D01*
X757454Y-217480D01*
X757128Y-219960D01*
X757454Y-222440D01*
X758412Y-224751D01*
X759934Y-226735D01*
X761919Y-228258D01*
X764230Y-229216D01*
X766710Y-229542D01*
X769190Y-229216D01*
X771501Y-228258D01*
X773485Y-226735D01*
X775008Y-224751D01*
X775965Y-222440D01*
X776292Y-219960D01*
X775965Y-217480D01*
X775008Y-215169D01*
X773485Y-213185D01*
X771501Y-211662D01*
X769190Y-210705D01*
X766710Y-210378D01*
D02*
G37*
G36*
X792110D02*
X789630Y-210705D01*
X787319Y-211662D01*
X785334Y-213185D01*
X783812Y-215169D01*
X782854Y-217480D01*
X782528Y-219960D01*
X782854Y-222440D01*
X783812Y-224751D01*
X785334Y-226735D01*
X787319Y-228258D01*
X789630Y-229216D01*
X792110Y-229542D01*
X794590Y-229216D01*
X796901Y-228258D01*
X798885Y-226735D01*
X800408Y-224751D01*
X801365Y-222440D01*
X801692Y-219960D01*
X801365Y-217480D01*
X800408Y-215169D01*
X798885Y-213185D01*
X796901Y-211662D01*
X794590Y-210705D01*
X792110Y-210378D01*
D02*
G37*
G36*
X741310Y-7178D02*
X738830Y-7505D01*
X736519Y-8462D01*
X734534Y-9985D01*
X733012Y-11969D01*
X732054Y-14280D01*
X731728Y-16760D01*
X732054Y-19240D01*
X733012Y-21551D01*
X734534Y-23535D01*
X736519Y-25058D01*
X738830Y-26016D01*
X741310Y-26342D01*
X743790Y-26016D01*
X746101Y-25058D01*
X748085Y-23535D01*
X749608Y-21551D01*
X750565Y-19240D01*
X750892Y-16760D01*
X750565Y-14280D01*
X749608Y-11969D01*
X748085Y-9985D01*
X746101Y-8462D01*
X743790Y-7505D01*
X741310Y-7178D01*
D02*
G37*
G36*
X766710D02*
X764230Y-7505D01*
X761919Y-8462D01*
X759934Y-9985D01*
X758412Y-11969D01*
X757454Y-14280D01*
X757128Y-16760D01*
X757454Y-19240D01*
X758412Y-21551D01*
X759934Y-23535D01*
X761919Y-25058D01*
X764230Y-26016D01*
X766710Y-26342D01*
X769190Y-26016D01*
X771501Y-25058D01*
X773485Y-23535D01*
X775008Y-21551D01*
X775965Y-19240D01*
X776292Y-16760D01*
X775965Y-14280D01*
X775008Y-11969D01*
X773485Y-9985D01*
X771501Y-8462D01*
X769190Y-7505D01*
X766710Y-7178D01*
D02*
G37*
G36*
X792110D02*
X789630Y-7505D01*
X787319Y-8462D01*
X785334Y-9985D01*
X783812Y-11969D01*
X782854Y-14280D01*
X782528Y-16760D01*
X782854Y-19240D01*
X783812Y-21551D01*
X785334Y-23535D01*
X787319Y-25058D01*
X789630Y-26016D01*
X792110Y-26342D01*
X794590Y-26016D01*
X796901Y-25058D01*
X798885Y-23535D01*
X800408Y-21551D01*
X801365Y-19240D01*
X801692Y-16760D01*
X801365Y-14280D01*
X800408Y-11969D01*
X798885Y-9985D01*
X796901Y-8462D01*
X794590Y-7505D01*
X792110Y-7178D01*
D02*
G37*
G36*
X715910Y-32578D02*
X713430Y-32905D01*
X711119Y-33862D01*
X709134Y-35385D01*
X707612Y-37369D01*
X706654Y-39680D01*
X706328Y-42160D01*
X706654Y-44640D01*
X707612Y-46951D01*
X709134Y-48935D01*
X711119Y-50458D01*
X713430Y-51416D01*
X715910Y-51742D01*
X718390Y-51416D01*
X720701Y-50458D01*
X722685Y-48935D01*
X724208Y-46951D01*
X725165Y-44640D01*
X725492Y-42160D01*
X725165Y-39680D01*
X724208Y-37369D01*
X722685Y-35385D01*
X720701Y-33862D01*
X718390Y-32905D01*
X715910Y-32578D01*
D02*
G37*
G36*
X741310D02*
X738830Y-32905D01*
X736519Y-33862D01*
X734534Y-35385D01*
X733012Y-37369D01*
X732054Y-39680D01*
X731728Y-42160D01*
X732054Y-44640D01*
X733012Y-46951D01*
X734534Y-48935D01*
X736519Y-50458D01*
X738830Y-51416D01*
X741310Y-51742D01*
X743790Y-51416D01*
X746101Y-50458D01*
X748085Y-48935D01*
X749608Y-46951D01*
X750565Y-44640D01*
X750892Y-42160D01*
X750565Y-39680D01*
X749608Y-37369D01*
X748085Y-35385D01*
X746101Y-33862D01*
X743790Y-32905D01*
X741310Y-32578D01*
D02*
G37*
G36*
X715910Y-7178D02*
X713430Y-7505D01*
X711119Y-8462D01*
X709134Y-9985D01*
X707612Y-11969D01*
X706654Y-14280D01*
X706328Y-16760D01*
X706654Y-19240D01*
X707612Y-21551D01*
X709134Y-23535D01*
X711119Y-25058D01*
X713430Y-26016D01*
X715910Y-26342D01*
X718390Y-26016D01*
X720701Y-25058D01*
X722685Y-23535D01*
X724208Y-21551D01*
X725165Y-19240D01*
X725492Y-16760D01*
X725165Y-14280D01*
X724208Y-11969D01*
X722685Y-9985D01*
X720701Y-8462D01*
X718390Y-7505D01*
X715910Y-7178D01*
D02*
G37*
G36*
X792110Y18222D02*
X789630Y17895D01*
X787319Y16938D01*
X785334Y15415D01*
X783812Y13431D01*
X782854Y11120D01*
X782528Y8640D01*
X782854Y6160D01*
X783812Y3849D01*
X785334Y1865D01*
X787319Y342D01*
X789630Y-615D01*
X792110Y-942D01*
X794590Y-615D01*
X796901Y342D01*
X798885Y1865D01*
X800408Y3849D01*
X801365Y6160D01*
X801692Y8640D01*
X801365Y11120D01*
X800408Y13431D01*
X798885Y15415D01*
X796901Y16938D01*
X794590Y17895D01*
X792110Y18222D01*
D02*
G37*
G36*
X240000Y7060D02*
X238173Y6820D01*
X236470Y6115D01*
X235008Y4992D01*
X233885Y3530D01*
X233180Y1827D01*
X233141Y1526D01*
X231859D01*
X231820Y1827D01*
X231115Y3530D01*
X229993Y4992D01*
X228530Y6115D01*
X226827Y6820D01*
X225000Y7060D01*
X223173Y6820D01*
X221470Y6115D01*
X220008Y4992D01*
X218885Y3530D01*
X218180Y1827D01*
X217940Y0D01*
X218180Y-1827D01*
X218885Y-3530D01*
X220008Y-4992D01*
X221470Y-6115D01*
X223173Y-6820D01*
X225000Y-7060D01*
X226827Y-6820D01*
X228530Y-6115D01*
X229993Y-4992D01*
X231115Y-3530D01*
X231820Y-1827D01*
X231859Y-1526D01*
X233141D01*
X233180Y-1827D01*
X233885Y-3530D01*
X235008Y-4992D01*
X236470Y-6115D01*
X238173Y-6820D01*
X240000Y-7060D01*
X241827Y-6820D01*
X243530Y-6115D01*
X244992Y-4992D01*
X246115Y-3530D01*
X246820Y-1827D01*
X247060Y0D01*
X246820Y1827D01*
X246115Y3530D01*
X244992Y4992D01*
X243530Y6115D01*
X241827Y6820D01*
X240000Y7060D01*
D02*
G37*
G36*
X715910Y43622D02*
X713430Y43295D01*
X711119Y42338D01*
X709134Y40815D01*
X707612Y38831D01*
X706654Y36520D01*
X706328Y34040D01*
X706654Y31560D01*
X707612Y29249D01*
X709134Y27264D01*
X711119Y25742D01*
X713430Y24785D01*
X715910Y24458D01*
X718390Y24785D01*
X720701Y25742D01*
X722685Y27264D01*
X724208Y29249D01*
X725165Y31560D01*
X725492Y34040D01*
X725165Y36520D01*
X724208Y38831D01*
X722685Y40815D01*
X720701Y42338D01*
X718390Y43295D01*
X715910Y43622D01*
D02*
G37*
G36*
Y18222D02*
X713430Y17895D01*
X711119Y16938D01*
X709134Y15415D01*
X707612Y13431D01*
X706654Y11120D01*
X706328Y8640D01*
X706654Y6160D01*
X707612Y3849D01*
X709134Y1865D01*
X711119Y342D01*
X713430Y-615D01*
X715910Y-942D01*
X718390Y-615D01*
X720701Y342D01*
X722685Y1865D01*
X724208Y3849D01*
X725165Y6160D01*
X725492Y8640D01*
X725165Y11120D01*
X724208Y13431D01*
X722685Y15415D01*
X720701Y16938D01*
X718390Y17895D01*
X715910Y18222D01*
D02*
G37*
G36*
X741310D02*
X738830Y17895D01*
X736519Y16938D01*
X734534Y15415D01*
X733012Y13431D01*
X732054Y11120D01*
X731728Y8640D01*
X732054Y6160D01*
X733012Y3849D01*
X734534Y1865D01*
X736519Y342D01*
X738830Y-615D01*
X741310Y-942D01*
X743790Y-615D01*
X746101Y342D01*
X748085Y1865D01*
X749608Y3849D01*
X750565Y6160D01*
X750892Y8640D01*
X750565Y11120D01*
X749608Y13431D01*
X748085Y15415D01*
X746101Y16938D01*
X743790Y17895D01*
X741310Y18222D01*
D02*
G37*
G36*
X766710D02*
X764230Y17895D01*
X761919Y16938D01*
X759934Y15415D01*
X758412Y13431D01*
X757454Y11120D01*
X757128Y8640D01*
X757454Y6160D01*
X758412Y3849D01*
X759934Y1865D01*
X761919Y342D01*
X764230Y-615D01*
X766710Y-942D01*
X769190Y-615D01*
X771501Y342D01*
X773485Y1865D01*
X775008Y3849D01*
X775965Y6160D01*
X776292Y8640D01*
X775965Y11120D01*
X775008Y13431D01*
X773485Y15415D01*
X771501Y16938D01*
X769190Y17895D01*
X766710Y18222D01*
D02*
G37*
G36*
X591650Y-106981D02*
X589575Y-107255D01*
X587641Y-108056D01*
X585980Y-109330D01*
X584706Y-110991D01*
X583904Y-112925D01*
X583631Y-115000D01*
X583904Y-117075D01*
X584706Y-119009D01*
X585980Y-120670D01*
X587641Y-121944D01*
X589575Y-122745D01*
X591650Y-123019D01*
X593725Y-122745D01*
X595659Y-121944D01*
X597320Y-120670D01*
X598594Y-119009D01*
X599395Y-117075D01*
X599669Y-115000D01*
X599395Y-112925D01*
X598594Y-110991D01*
X597320Y-109330D01*
X595659Y-108056D01*
X593725Y-107255D01*
X591650Y-106981D01*
D02*
G37*
G36*
Y-89281D02*
X589575Y-89555D01*
X587641Y-90356D01*
X585980Y-91630D01*
X584706Y-93291D01*
X583904Y-95225D01*
X583631Y-97300D01*
X583904Y-99375D01*
X584706Y-101309D01*
X585980Y-102970D01*
X587641Y-104244D01*
X589575Y-105045D01*
X591650Y-105319D01*
X593725Y-105045D01*
X595659Y-104244D01*
X597320Y-102970D01*
X598594Y-101309D01*
X599395Y-99375D01*
X599669Y-97300D01*
X599395Y-95225D01*
X598594Y-93291D01*
X597320Y-91630D01*
X595659Y-90356D01*
X593725Y-89555D01*
X591650Y-89281D01*
D02*
G37*
G36*
X715910Y-83378D02*
X713430Y-83705D01*
X711119Y-84662D01*
X709134Y-86185D01*
X707612Y-88169D01*
X706654Y-90480D01*
X706328Y-92960D01*
X706654Y-95440D01*
X707612Y-97751D01*
X709134Y-99735D01*
X711119Y-101258D01*
X713430Y-102215D01*
X715910Y-102542D01*
X718390Y-102215D01*
X720701Y-101258D01*
X722685Y-99735D01*
X724208Y-97751D01*
X725165Y-95440D01*
X725492Y-92960D01*
X725165Y-90480D01*
X724208Y-88169D01*
X722685Y-86185D01*
X720701Y-84662D01*
X718390Y-83705D01*
X715910Y-83378D01*
D02*
G37*
G36*
X741310Y-108778D02*
X738830Y-109105D01*
X736519Y-110062D01*
X734534Y-111585D01*
X733012Y-113569D01*
X732054Y-115880D01*
X731728Y-118360D01*
X732054Y-120840D01*
X733012Y-123151D01*
X734534Y-125135D01*
X736519Y-126658D01*
X738830Y-127615D01*
X741310Y-127942D01*
X743790Y-127615D01*
X746101Y-126658D01*
X748085Y-125135D01*
X749608Y-123151D01*
X750565Y-120840D01*
X750892Y-118360D01*
X750565Y-115880D01*
X749608Y-113569D01*
X748085Y-111585D01*
X746101Y-110062D01*
X743790Y-109105D01*
X741310Y-108778D01*
D02*
G37*
G36*
X766710D02*
X764230Y-109105D01*
X761919Y-110062D01*
X759934Y-111585D01*
X758412Y-113569D01*
X757454Y-115880D01*
X757128Y-118360D01*
X757454Y-120840D01*
X758412Y-123151D01*
X759934Y-125135D01*
X761919Y-126658D01*
X764230Y-127615D01*
X766710Y-127942D01*
X769190Y-127615D01*
X771501Y-126658D01*
X773485Y-125135D01*
X775008Y-123151D01*
X775965Y-120840D01*
X776292Y-118360D01*
X775965Y-115880D01*
X775008Y-113569D01*
X773485Y-111585D01*
X771501Y-110062D01*
X769190Y-109105D01*
X766710Y-108778D01*
D02*
G37*
G36*
X792110D02*
X789630Y-109105D01*
X787319Y-110062D01*
X785334Y-111585D01*
X783812Y-113569D01*
X782854Y-115880D01*
X782528Y-118360D01*
X782854Y-120840D01*
X783812Y-123151D01*
X785334Y-125135D01*
X787319Y-126658D01*
X789630Y-127615D01*
X792110Y-127942D01*
X794590Y-127615D01*
X796901Y-126658D01*
X798885Y-125135D01*
X800408Y-123151D01*
X801365Y-120840D01*
X801692Y-118360D01*
X801365Y-115880D01*
X800408Y-113569D01*
X798885Y-111585D01*
X796901Y-110062D01*
X794590Y-109105D01*
X792110Y-108778D01*
D02*
G37*
G36*
X715910Y-57978D02*
X713430Y-58305D01*
X711119Y-59262D01*
X709134Y-60785D01*
X707612Y-62769D01*
X706654Y-65080D01*
X706328Y-67560D01*
X706654Y-70040D01*
X707612Y-72351D01*
X709134Y-74335D01*
X711119Y-75858D01*
X713430Y-76816D01*
X715910Y-77142D01*
X718390Y-76816D01*
X720701Y-75858D01*
X722685Y-74335D01*
X724208Y-72351D01*
X725165Y-70040D01*
X725492Y-67560D01*
X725165Y-65080D01*
X724208Y-62769D01*
X722685Y-60785D01*
X720701Y-59262D01*
X718390Y-58305D01*
X715910Y-57978D01*
D02*
G37*
G36*
X741310D02*
X738830Y-58305D01*
X736519Y-59262D01*
X734534Y-60785D01*
X733012Y-62769D01*
X732054Y-65080D01*
X731728Y-67560D01*
X732054Y-70040D01*
X733012Y-72351D01*
X734534Y-74335D01*
X736519Y-75858D01*
X738830Y-76816D01*
X741310Y-77142D01*
X743790Y-76816D01*
X746101Y-75858D01*
X748085Y-74335D01*
X749608Y-72351D01*
X750565Y-70040D01*
X750892Y-67560D01*
X750565Y-65080D01*
X749608Y-62769D01*
X748085Y-60785D01*
X746101Y-59262D01*
X743790Y-58305D01*
X741310Y-57978D01*
D02*
G37*
G36*
X766710D02*
X764230Y-58305D01*
X761919Y-59262D01*
X759934Y-60785D01*
X758412Y-62769D01*
X757454Y-65080D01*
X757128Y-67560D01*
X757454Y-70040D01*
X758412Y-72351D01*
X759934Y-74335D01*
X761919Y-75858D01*
X764230Y-76816D01*
X766710Y-77142D01*
X769190Y-76816D01*
X771501Y-75858D01*
X773485Y-74335D01*
X775008Y-72351D01*
X775965Y-70040D01*
X776292Y-67560D01*
X775965Y-65080D01*
X775008Y-62769D01*
X773485Y-60785D01*
X771501Y-59262D01*
X769190Y-58305D01*
X766710Y-57978D01*
D02*
G37*
G36*
X741310Y-83378D02*
X738830Y-83705D01*
X736519Y-84662D01*
X734534Y-86185D01*
X733012Y-88169D01*
X732054Y-90480D01*
X731728Y-92960D01*
X732054Y-95440D01*
X733012Y-97751D01*
X734534Y-99735D01*
X736519Y-101258D01*
X738830Y-102215D01*
X741310Y-102542D01*
X743790Y-102215D01*
X746101Y-101258D01*
X748085Y-99735D01*
X749608Y-97751D01*
X750565Y-95440D01*
X750892Y-92960D01*
X750565Y-90480D01*
X749608Y-88169D01*
X748085Y-86185D01*
X746101Y-84662D01*
X743790Y-83705D01*
X741310Y-83378D01*
D02*
G37*
G36*
X766710D02*
X764230Y-83705D01*
X761919Y-84662D01*
X759934Y-86185D01*
X758412Y-88169D01*
X757454Y-90480D01*
X757128Y-92960D01*
X757454Y-95440D01*
X758412Y-97751D01*
X759934Y-99735D01*
X761919Y-101258D01*
X764230Y-102215D01*
X766710Y-102542D01*
X769190Y-102215D01*
X771501Y-101258D01*
X773485Y-99735D01*
X775008Y-97751D01*
X775965Y-95440D01*
X776292Y-92960D01*
X775965Y-90480D01*
X775008Y-88169D01*
X773485Y-86185D01*
X771501Y-84662D01*
X769190Y-83705D01*
X766710Y-83378D01*
D02*
G37*
G36*
X792110D02*
X789630Y-83705D01*
X787319Y-84662D01*
X785334Y-86185D01*
X783812Y-88169D01*
X782854Y-90480D01*
X782528Y-92960D01*
X782854Y-95440D01*
X783812Y-97751D01*
X785334Y-99735D01*
X787319Y-101258D01*
X789630Y-102215D01*
X792110Y-102542D01*
X794590Y-102215D01*
X796901Y-101258D01*
X798885Y-99735D01*
X800408Y-97751D01*
X801365Y-95440D01*
X801692Y-92960D01*
X801365Y-90480D01*
X800408Y-88169D01*
X798885Y-86185D01*
X796901Y-84662D01*
X794590Y-83705D01*
X792110Y-83378D01*
D02*
G37*
G36*
X-20000Y-247632D02*
X-22341Y-248098D01*
X-24326Y-249424D01*
X-25652Y-251409D01*
X-26118Y-253750D01*
X-25652Y-256091D01*
X-24326Y-258076D01*
X-22341Y-259402D01*
X-20000Y-259867D01*
X-17659Y-259402D01*
X-15674Y-258076D01*
X-14348Y-256091D01*
X-13882Y-253750D01*
X-14348Y-251409D01*
X-15674Y-249424D01*
X-17659Y-248098D01*
X-20000Y-247632D01*
D02*
G37*
G36*
X549750Y-244902D02*
X547799Y-245290D01*
X546145Y-246395D01*
X545040Y-248049D01*
X544652Y-250000D01*
X545040Y-251951D01*
X546145Y-253605D01*
X547090Y-254236D01*
Y-255764D01*
X546145Y-256395D01*
X545040Y-258049D01*
X544652Y-260000D01*
X545040Y-261951D01*
X546145Y-263605D01*
X547090Y-264236D01*
Y-265764D01*
X546145Y-266395D01*
X545040Y-268049D01*
X544652Y-270000D01*
X545040Y-271951D01*
X546145Y-273605D01*
X547090Y-274236D01*
Y-275764D01*
X546145Y-276395D01*
X545040Y-278049D01*
X544652Y-280000D01*
X545040Y-281951D01*
X546145Y-283605D01*
X547090Y-284236D01*
Y-285764D01*
X546145Y-286395D01*
X545040Y-288049D01*
X544652Y-290000D01*
X545040Y-291951D01*
X546145Y-293605D01*
X547090Y-294236D01*
Y-295764D01*
X546145Y-296395D01*
X545040Y-298049D01*
X544652Y-300000D01*
X545040Y-301951D01*
X546145Y-303605D01*
X547090Y-304236D01*
Y-305764D01*
X546145Y-306395D01*
X545040Y-308049D01*
X544652Y-310000D01*
X545040Y-311951D01*
X546145Y-313605D01*
X547090Y-314236D01*
Y-315764D01*
X546145Y-316395D01*
X545040Y-318049D01*
X544652Y-320000D01*
X545040Y-321951D01*
X546145Y-323605D01*
X547090Y-324236D01*
Y-325764D01*
X546145Y-326395D01*
X545040Y-328049D01*
X544652Y-330000D01*
X545040Y-331951D01*
X546145Y-333605D01*
X547799Y-334710D01*
X549750Y-335098D01*
X551701Y-334710D01*
X553355Y-333605D01*
X554460Y-331951D01*
X554848Y-330000D01*
X554460Y-328049D01*
X553355Y-326395D01*
X552410Y-325764D01*
Y-324236D01*
X553355Y-323605D01*
X554460Y-321951D01*
X554848Y-320000D01*
X554460Y-318049D01*
X553355Y-316395D01*
X552410Y-315764D01*
Y-314236D01*
X553355Y-313605D01*
X554460Y-311951D01*
X554848Y-310000D01*
X554460Y-308049D01*
X553355Y-306395D01*
X552410Y-305764D01*
Y-304236D01*
X553355Y-303605D01*
X554460Y-301951D01*
X554848Y-300000D01*
X554460Y-298049D01*
X553355Y-296395D01*
X552410Y-295764D01*
Y-294236D01*
X553355Y-293605D01*
X554460Y-291951D01*
X554848Y-290000D01*
X554460Y-288049D01*
X553355Y-286395D01*
X552410Y-285764D01*
Y-284236D01*
X553355Y-283605D01*
X554460Y-281951D01*
X554848Y-280000D01*
X554460Y-278049D01*
X553355Y-276395D01*
X552410Y-275764D01*
Y-274236D01*
X553355Y-273605D01*
X554460Y-271951D01*
X554848Y-270000D01*
X554460Y-268049D01*
X553355Y-266395D01*
X552410Y-265764D01*
Y-264236D01*
X553355Y-263605D01*
X554460Y-261951D01*
X554848Y-260000D01*
X554460Y-258049D01*
X553355Y-256395D01*
X552410Y-255764D01*
Y-254236D01*
X553355Y-253605D01*
X554460Y-251951D01*
X554848Y-250000D01*
X554460Y-248049D01*
X553355Y-246395D01*
X551701Y-245290D01*
X549750Y-244902D01*
D02*
G37*
G36*
X633550D02*
X631599Y-245290D01*
X629945Y-246395D01*
X628840Y-248049D01*
X628452Y-250000D01*
X628840Y-251951D01*
X629945Y-253605D01*
X630890Y-254236D01*
Y-255764D01*
X629945Y-256395D01*
X628840Y-258049D01*
X628452Y-260000D01*
X628840Y-261951D01*
X629945Y-263605D01*
X630890Y-264236D01*
Y-265764D01*
X629945Y-266395D01*
X628840Y-268049D01*
X628452Y-270000D01*
X628840Y-271951D01*
X629945Y-273605D01*
X630890Y-274236D01*
Y-275764D01*
X629945Y-276395D01*
X628840Y-278049D01*
X628452Y-280000D01*
X628840Y-281951D01*
X629945Y-283605D01*
X630890Y-284236D01*
Y-285764D01*
X629945Y-286395D01*
X628840Y-288049D01*
X628452Y-290000D01*
X628840Y-291951D01*
X629945Y-293605D01*
X630890Y-294236D01*
Y-295764D01*
X629945Y-296395D01*
X628840Y-298049D01*
X628452Y-300000D01*
X628840Y-301951D01*
X629945Y-303605D01*
X630890Y-304236D01*
Y-305764D01*
X629945Y-306395D01*
X628840Y-308049D01*
X628452Y-310000D01*
X628840Y-311951D01*
X629945Y-313605D01*
X630890Y-314236D01*
Y-315764D01*
X629945Y-316395D01*
X628840Y-318049D01*
X628452Y-320000D01*
X628840Y-321951D01*
X629945Y-323605D01*
X630890Y-324236D01*
Y-325764D01*
X629945Y-326395D01*
X628840Y-328049D01*
X628452Y-330000D01*
X628840Y-331951D01*
X629945Y-333605D01*
X631599Y-334710D01*
X633550Y-335098D01*
X635501Y-334710D01*
X637155Y-333605D01*
X638260Y-331951D01*
X638648Y-330000D01*
X638260Y-328049D01*
X637155Y-326395D01*
X636210Y-325764D01*
Y-324236D01*
X637155Y-323605D01*
X638260Y-321951D01*
X638648Y-320000D01*
X638260Y-318049D01*
X637155Y-316395D01*
X636210Y-315764D01*
Y-314236D01*
X637155Y-313605D01*
X638260Y-311951D01*
X638648Y-310000D01*
X638260Y-308049D01*
X637155Y-306395D01*
X636210Y-305764D01*
Y-304236D01*
X637155Y-303605D01*
X638260Y-301951D01*
X638648Y-300000D01*
X638260Y-298049D01*
X637155Y-296395D01*
X636210Y-295764D01*
Y-294236D01*
X637155Y-293605D01*
X638260Y-291951D01*
X638648Y-290000D01*
X638260Y-288049D01*
X637155Y-286395D01*
X636210Y-285764D01*
Y-284236D01*
X637155Y-283605D01*
X638260Y-281951D01*
X638648Y-280000D01*
X638260Y-278049D01*
X637155Y-276395D01*
X636210Y-275764D01*
Y-274236D01*
X637155Y-273605D01*
X638260Y-271951D01*
X638648Y-270000D01*
X638260Y-268049D01*
X637155Y-266395D01*
X636210Y-265764D01*
Y-264236D01*
X637155Y-263605D01*
X638260Y-261951D01*
X638648Y-260000D01*
X638260Y-258049D01*
X637155Y-256395D01*
X636210Y-255764D01*
Y-254236D01*
X637155Y-253605D01*
X638260Y-251951D01*
X638648Y-250000D01*
X638260Y-248049D01*
X637155Y-246395D01*
X635501Y-245290D01*
X633550Y-244902D01*
D02*
G37*
G36*
X715910Y-311978D02*
X713430Y-312305D01*
X711119Y-313262D01*
X709134Y-314785D01*
X707612Y-316769D01*
X706654Y-319080D01*
X706328Y-321560D01*
X706654Y-324040D01*
X707612Y-326351D01*
X709134Y-328335D01*
X711119Y-329858D01*
X713430Y-330816D01*
X715910Y-331142D01*
X718390Y-330816D01*
X720701Y-329858D01*
X722685Y-328335D01*
X724208Y-326351D01*
X725165Y-324040D01*
X725492Y-321560D01*
X725165Y-319080D01*
X724208Y-316769D01*
X722685Y-314785D01*
X720701Y-313262D01*
X718390Y-312305D01*
X715910Y-311978D01*
D02*
G37*
G36*
X523000Y-331652D02*
X521049Y-332040D01*
X519395Y-333145D01*
X518290Y-334799D01*
X517902Y-336750D01*
X518290Y-338701D01*
X519395Y-340355D01*
X521049Y-341460D01*
X523000Y-341848D01*
X524951Y-341460D01*
X526605Y-340355D01*
X527710Y-338701D01*
X528098Y-336750D01*
X527710Y-334799D01*
X526605Y-333145D01*
X524951Y-332040D01*
X523000Y-331652D01*
D02*
G37*
G36*
X670500Y-324132D02*
X668159Y-324598D01*
X666174Y-325924D01*
X664848Y-327909D01*
X664382Y-330250D01*
X664848Y-332591D01*
X666174Y-334576D01*
X668159Y-335902D01*
X670500Y-336368D01*
X672841Y-335902D01*
X674826Y-334576D01*
X676152Y-332591D01*
X676618Y-330250D01*
X676152Y-327909D01*
X674826Y-325924D01*
X672841Y-324598D01*
X670500Y-324132D01*
D02*
G37*
G36*
X685500D02*
X683159Y-324598D01*
X681174Y-325924D01*
X679848Y-327909D01*
X679382Y-330250D01*
X679848Y-332591D01*
X681174Y-334576D01*
X683159Y-335902D01*
X685500Y-336368D01*
X687841Y-335902D01*
X689826Y-334576D01*
X691152Y-332591D01*
X691618Y-330250D01*
X691152Y-327909D01*
X689826Y-325924D01*
X687841Y-324598D01*
X685500Y-324132D01*
D02*
G37*
G36*
X591650Y-314281D02*
X589575Y-314555D01*
X587641Y-315356D01*
X585980Y-316630D01*
X584706Y-318291D01*
X583904Y-320225D01*
X583631Y-322300D01*
X583904Y-324375D01*
X584706Y-326309D01*
X585980Y-327970D01*
X587641Y-329244D01*
X589575Y-330045D01*
X591650Y-330319D01*
X593725Y-330045D01*
X595659Y-329244D01*
X597320Y-327970D01*
X598594Y-326309D01*
X599395Y-324375D01*
X599669Y-322300D01*
X599395Y-320225D01*
X598594Y-318291D01*
X597320Y-316630D01*
X595659Y-315356D01*
X593725Y-314555D01*
X591650Y-314281D01*
D02*
G37*
G36*
X484500Y-311277D02*
X482549Y-311665D01*
X480895Y-312770D01*
X479790Y-314424D01*
X479402Y-316375D01*
X479790Y-318326D01*
X480895Y-319980D01*
X482549Y-321085D01*
X484500Y-321473D01*
X486451Y-321085D01*
X488105Y-319980D01*
X489210Y-318326D01*
X489598Y-316375D01*
X489210Y-314424D01*
X488105Y-312770D01*
X486451Y-311665D01*
X484500Y-311277D01*
D02*
G37*
G36*
X523000D02*
X521049Y-311665D01*
X519395Y-312770D01*
X518290Y-314424D01*
X517902Y-316375D01*
X518290Y-318326D01*
X519395Y-319980D01*
X521049Y-321085D01*
X523000Y-321473D01*
X524951Y-321085D01*
X526605Y-319980D01*
X527710Y-318326D01*
X528098Y-316375D01*
X527710Y-314424D01*
X526605Y-312770D01*
X524951Y-311665D01*
X523000Y-311277D01*
D02*
G37*
G36*
X741310Y-311978D02*
X738830Y-312305D01*
X736519Y-313262D01*
X734534Y-314785D01*
X733012Y-316769D01*
X732054Y-319080D01*
X731728Y-321560D01*
X732054Y-324040D01*
X733012Y-326351D01*
X734534Y-328335D01*
X736519Y-329858D01*
X738830Y-330816D01*
X741310Y-331142D01*
X743790Y-330816D01*
X746101Y-329858D01*
X748085Y-328335D01*
X749608Y-326351D01*
X750565Y-324040D01*
X750892Y-321560D01*
X750565Y-319080D01*
X749608Y-316769D01*
X748085Y-314785D01*
X746101Y-313262D01*
X743790Y-312305D01*
X741310Y-311978D01*
D02*
G37*
G36*
X766710D02*
X764230Y-312305D01*
X761919Y-313262D01*
X759934Y-314785D01*
X758412Y-316769D01*
X757454Y-319080D01*
X757128Y-321560D01*
X757454Y-324040D01*
X758412Y-326351D01*
X759934Y-328335D01*
X761919Y-329858D01*
X764230Y-330816D01*
X766710Y-331142D01*
X769190Y-330816D01*
X771501Y-329858D01*
X773485Y-328335D01*
X775008Y-326351D01*
X775965Y-324040D01*
X776292Y-321560D01*
X775965Y-319080D01*
X775008Y-316769D01*
X773485Y-314785D01*
X771501Y-313262D01*
X769190Y-312305D01*
X766710Y-311978D01*
D02*
G37*
G36*
X792110D02*
X789630Y-312305D01*
X787319Y-313262D01*
X785334Y-314785D01*
X783812Y-316769D01*
X782854Y-319080D01*
X782528Y-321560D01*
X782854Y-324040D01*
X783812Y-326351D01*
X785334Y-328335D01*
X787319Y-329858D01*
X789630Y-330816D01*
X792110Y-331142D01*
X794590Y-330816D01*
X796901Y-329858D01*
X798885Y-328335D01*
X800408Y-326351D01*
X801365Y-324040D01*
X801692Y-321560D01*
X801365Y-319080D01*
X800408Y-316769D01*
X798885Y-314785D01*
X796901Y-313262D01*
X794590Y-312305D01*
X792110Y-311978D01*
D02*
G37*
G36*
X251000Y-356382D02*
X248659Y-356848D01*
X246674Y-358174D01*
X245348Y-360159D01*
X244883Y-362500D01*
X245348Y-364841D01*
X246674Y-366826D01*
X248659Y-368152D01*
X251000Y-368618D01*
X253341Y-368152D01*
X255326Y-366826D01*
X256652Y-364841D01*
X257118Y-362500D01*
X256652Y-360159D01*
X255326Y-358174D01*
X253341Y-356848D01*
X251000Y-356382D01*
D02*
G37*
G36*
X281000D02*
X278659Y-356848D01*
X276674Y-358174D01*
X275348Y-360159D01*
X274883Y-362500D01*
X275348Y-364841D01*
X276674Y-366826D01*
X278659Y-368152D01*
X281000Y-368618D01*
X283341Y-368152D01*
X285326Y-366826D01*
X286652Y-364841D01*
X287118Y-362500D01*
X286652Y-360159D01*
X285326Y-358174D01*
X283341Y-356848D01*
X281000Y-356382D01*
D02*
G37*
G36*
X453250D02*
X450909Y-356848D01*
X448924Y-358174D01*
X447598Y-360159D01*
X447132Y-362500D01*
X447598Y-364841D01*
X448924Y-366826D01*
X450909Y-368152D01*
X453250Y-368618D01*
X455591Y-368152D01*
X457576Y-366826D01*
X458902Y-364841D01*
X459367Y-362500D01*
X458902Y-360159D01*
X457576Y-358174D01*
X455591Y-356848D01*
X453250Y-356382D01*
D02*
G37*
G36*
X520000Y-422940D02*
X518173Y-423180D01*
X516470Y-423885D01*
X515008Y-425008D01*
X513885Y-426470D01*
X513180Y-428173D01*
X512940Y-430000D01*
X513180Y-431827D01*
X513885Y-433530D01*
X515008Y-434992D01*
X516470Y-436115D01*
X518173Y-436820D01*
X520000Y-437060D01*
X521827Y-436820D01*
X523530Y-436115D01*
X524992Y-434992D01*
X526115Y-433530D01*
X526820Y-431827D01*
X527060Y-430000D01*
X526820Y-428173D01*
X526115Y-426470D01*
X524992Y-425008D01*
X523530Y-423885D01*
X521827Y-423180D01*
X520000Y-422940D01*
D02*
G37*
G36*
X540000D02*
X538173Y-423180D01*
X536470Y-423885D01*
X535008Y-425008D01*
X533885Y-426470D01*
X533180Y-428173D01*
X532940Y-430000D01*
X533180Y-431827D01*
X533885Y-433530D01*
X535008Y-434992D01*
X536470Y-436115D01*
X538173Y-436820D01*
X540000Y-437060D01*
X541827Y-436820D01*
X543530Y-436115D01*
X544992Y-434992D01*
X546115Y-433530D01*
X546820Y-431827D01*
X547060Y-430000D01*
X546820Y-428173D01*
X546115Y-426470D01*
X544992Y-425008D01*
X543530Y-423885D01*
X541827Y-423180D01*
X540000Y-422940D01*
D02*
G37*
G36*
X236000Y-356382D02*
X233659Y-356848D01*
X231674Y-358174D01*
X230348Y-360159D01*
X229883Y-362500D01*
X230348Y-364841D01*
X231674Y-366826D01*
X233659Y-368152D01*
X236000Y-368618D01*
X238341Y-368152D01*
X240326Y-366826D01*
X241652Y-364841D01*
X242118Y-362500D01*
X241652Y-360159D01*
X240326Y-358174D01*
X238341Y-356848D01*
X236000Y-356382D01*
D02*
G37*
G36*
X725500Y-353882D02*
X723159Y-354348D01*
X721174Y-355674D01*
X719848Y-357659D01*
X719382Y-360000D01*
X719848Y-362341D01*
X721174Y-364326D01*
X723159Y-365652D01*
X725500Y-366118D01*
X727841Y-365652D01*
X729826Y-364326D01*
X731152Y-362341D01*
X731618Y-360000D01*
X731152Y-357659D01*
X729826Y-355674D01*
X727841Y-354348D01*
X725500Y-353882D01*
D02*
G37*
G36*
X591650Y-331981D02*
X589575Y-332255D01*
X587641Y-333056D01*
X585980Y-334330D01*
X584706Y-335991D01*
X583904Y-337925D01*
X583631Y-340000D01*
X583904Y-342075D01*
X584706Y-344009D01*
X585980Y-345670D01*
X587641Y-346944D01*
X589575Y-347745D01*
X591650Y-348019D01*
X593725Y-347745D01*
X595659Y-346944D01*
X597320Y-345670D01*
X598594Y-344009D01*
X599395Y-342075D01*
X599669Y-340000D01*
X599395Y-337925D01*
X598594Y-335991D01*
X597320Y-334330D01*
X595659Y-333056D01*
X593725Y-332255D01*
X591650Y-331981D01*
D02*
G37*
G36*
X484500Y-331652D02*
X482549Y-332040D01*
X480895Y-333145D01*
X479790Y-334799D01*
X479402Y-336750D01*
X479790Y-338701D01*
X480895Y-340355D01*
X482549Y-341460D01*
X484500Y-341848D01*
X486451Y-341460D01*
X488105Y-340355D01*
X489210Y-338701D01*
X489598Y-336750D01*
X489210Y-334799D01*
X488105Y-333145D01*
X486451Y-332040D01*
X484500Y-331652D01*
D02*
G37*
G36*
X528250Y-356382D02*
X525909Y-356848D01*
X523924Y-358174D01*
X522598Y-360159D01*
X522132Y-362500D01*
X522598Y-364841D01*
X523924Y-366826D01*
X525909Y-368152D01*
X528250Y-368618D01*
X530591Y-368152D01*
X532576Y-366826D01*
X533902Y-364841D01*
X534367Y-362500D01*
X533902Y-360159D01*
X532576Y-358174D01*
X530591Y-356848D01*
X528250Y-356382D01*
D02*
G37*
G36*
X543250D02*
X540909Y-356848D01*
X538924Y-358174D01*
X537598Y-360159D01*
X537132Y-362500D01*
X537598Y-364841D01*
X538924Y-366826D01*
X540909Y-368152D01*
X543250Y-368618D01*
X545591Y-368152D01*
X547576Y-366826D01*
X548902Y-364841D01*
X549367Y-362500D01*
X548902Y-360159D01*
X547576Y-358174D01*
X545591Y-356848D01*
X543250Y-356382D01*
D02*
G37*
G36*
X685500Y-353882D02*
X683159Y-354348D01*
X681174Y-355674D01*
X679848Y-357659D01*
X679382Y-360000D01*
X679848Y-362341D01*
X681174Y-364326D01*
X683159Y-365652D01*
X685500Y-366118D01*
X687841Y-365652D01*
X689826Y-364326D01*
X691152Y-362341D01*
X691618Y-360000D01*
X691152Y-357659D01*
X689826Y-355674D01*
X687841Y-354348D01*
X685500Y-353882D01*
D02*
G37*
G36*
X715910Y-261178D02*
X713430Y-261505D01*
X711119Y-262462D01*
X709134Y-263985D01*
X707612Y-265969D01*
X706654Y-268280D01*
X706328Y-270760D01*
X706654Y-273240D01*
X707612Y-275551D01*
X709134Y-277535D01*
X711119Y-279058D01*
X713430Y-280016D01*
X715910Y-280342D01*
X718390Y-280016D01*
X720701Y-279058D01*
X722685Y-277535D01*
X724208Y-275551D01*
X725165Y-273240D01*
X725492Y-270760D01*
X725165Y-268280D01*
X724208Y-265969D01*
X722685Y-263985D01*
X720701Y-262462D01*
X718390Y-261505D01*
X715910Y-261178D01*
D02*
G37*
G36*
X741310D02*
X738830Y-261505D01*
X736519Y-262462D01*
X734534Y-263985D01*
X733012Y-265969D01*
X732054Y-268280D01*
X731728Y-270760D01*
X732054Y-273240D01*
X733012Y-275551D01*
X734534Y-277535D01*
X736519Y-279058D01*
X738830Y-280016D01*
X741310Y-280342D01*
X743790Y-280016D01*
X746101Y-279058D01*
X748085Y-277535D01*
X749608Y-275551D01*
X750565Y-273240D01*
X750892Y-270760D01*
X750565Y-268280D01*
X749608Y-265969D01*
X748085Y-263985D01*
X746101Y-262462D01*
X743790Y-261505D01*
X741310Y-261178D01*
D02*
G37*
G36*
X766710D02*
X764230Y-261505D01*
X761919Y-262462D01*
X759934Y-263985D01*
X758412Y-265969D01*
X757454Y-268280D01*
X757128Y-270760D01*
X757454Y-273240D01*
X758412Y-275551D01*
X759934Y-277535D01*
X761919Y-279058D01*
X764230Y-280016D01*
X766710Y-280342D01*
X769190Y-280016D01*
X771501Y-279058D01*
X773485Y-277535D01*
X775008Y-275551D01*
X775965Y-273240D01*
X776292Y-270760D01*
X775965Y-268280D01*
X775008Y-265969D01*
X773485Y-263985D01*
X771501Y-262462D01*
X769190Y-261505D01*
X766710Y-261178D01*
D02*
G37*
G36*
X523000Y-290902D02*
X521049Y-291290D01*
X519395Y-292395D01*
X518290Y-294049D01*
X517902Y-296000D01*
X518290Y-297951D01*
X519395Y-299605D01*
X521049Y-300710D01*
X523000Y-301098D01*
X524951Y-300710D01*
X526605Y-299605D01*
X527710Y-297951D01*
X528098Y-296000D01*
X527710Y-294049D01*
X526605Y-292395D01*
X524951Y-291290D01*
X523000Y-290902D01*
D02*
G37*
G36*
X484500Y-270527D02*
X482549Y-270915D01*
X480895Y-272020D01*
X479790Y-273674D01*
X479402Y-275625D01*
X479790Y-277576D01*
X480895Y-279230D01*
X482549Y-280335D01*
X484500Y-280723D01*
X486451Y-280335D01*
X488105Y-279230D01*
X489210Y-277576D01*
X489598Y-275625D01*
X489210Y-273674D01*
X488105Y-272020D01*
X486451Y-270915D01*
X484500Y-270527D01*
D02*
G37*
G36*
X523000D02*
X521049Y-270915D01*
X519395Y-272020D01*
X518290Y-273674D01*
X517902Y-275625D01*
X518290Y-277576D01*
X519395Y-279230D01*
X521049Y-280335D01*
X523000Y-280723D01*
X524951Y-280335D01*
X526605Y-279230D01*
X527710Y-277576D01*
X528098Y-275625D01*
X527710Y-273674D01*
X526605Y-272020D01*
X524951Y-270915D01*
X523000Y-270527D01*
D02*
G37*
G36*
X685500Y-265133D02*
X683159Y-265598D01*
X681174Y-266924D01*
X679848Y-268909D01*
X679382Y-271250D01*
X679848Y-273591D01*
X681174Y-275576D01*
X683159Y-276902D01*
X685500Y-277368D01*
X687841Y-276902D01*
X689826Y-275576D01*
X691152Y-273591D01*
X691618Y-271250D01*
X691152Y-268909D01*
X689826Y-266924D01*
X687841Y-265598D01*
X685500Y-265133D01*
D02*
G37*
G36*
X-20000Y-262632D02*
X-22341Y-263098D01*
X-24326Y-264424D01*
X-25652Y-266409D01*
X-26118Y-268750D01*
X-25652Y-271091D01*
X-24326Y-273076D01*
X-22341Y-274402D01*
X-20000Y-274867D01*
X-17659Y-274402D01*
X-15674Y-273076D01*
X-14348Y-271091D01*
X-13882Y-268750D01*
X-14348Y-266409D01*
X-15674Y-264424D01*
X-17659Y-263098D01*
X-20000Y-262632D01*
D02*
G37*
G36*
X523000Y-250152D02*
X521049Y-250540D01*
X519395Y-251645D01*
X518290Y-253299D01*
X517902Y-255250D01*
X518290Y-257201D01*
X519395Y-258855D01*
X521049Y-259960D01*
X523000Y-260348D01*
X524951Y-259960D01*
X526605Y-258855D01*
X527710Y-257201D01*
X528098Y-255250D01*
X527710Y-253299D01*
X526605Y-251645D01*
X524951Y-250540D01*
X523000Y-250152D01*
D02*
G37*
G36*
X792110Y-261178D02*
X789630Y-261505D01*
X787319Y-262462D01*
X785334Y-263985D01*
X783812Y-265969D01*
X782854Y-268280D01*
X782528Y-270760D01*
X782854Y-273240D01*
X783812Y-275551D01*
X785334Y-277535D01*
X787319Y-279058D01*
X789630Y-280016D01*
X792110Y-280342D01*
X794590Y-280016D01*
X796901Y-279058D01*
X798885Y-277535D01*
X800408Y-275551D01*
X801365Y-273240D01*
X801692Y-270760D01*
X801365Y-268280D01*
X800408Y-265969D01*
X798885Y-263985D01*
X796901Y-262462D01*
X794590Y-261505D01*
X792110Y-261178D01*
D02*
G37*
G36*
X15000Y-267882D02*
X12659Y-268348D01*
X10674Y-269674D01*
X9348Y-271659D01*
X8882Y-274000D01*
X9348Y-276341D01*
X10674Y-278326D01*
X12659Y-279652D01*
X15000Y-280117D01*
X17341Y-279652D01*
X19326Y-278326D01*
X20652Y-276341D01*
X21117Y-274000D01*
X20652Y-271659D01*
X19326Y-269674D01*
X17341Y-268348D01*
X15000Y-267882D01*
D02*
G37*
G36*
X670500Y-265133D02*
X668159Y-265598D01*
X666174Y-266924D01*
X664848Y-268909D01*
X664382Y-271250D01*
X664848Y-273591D01*
X666174Y-275576D01*
X668159Y-276902D01*
X670500Y-277368D01*
X672841Y-276902D01*
X674826Y-275576D01*
X676152Y-273591D01*
X676618Y-271250D01*
X676152Y-268909D01*
X674826Y-266924D01*
X672841Y-265598D01*
X670500Y-265133D01*
D02*
G37*
G36*
X417250Y-296882D02*
X414909Y-297348D01*
X412924Y-298674D01*
X411598Y-300659D01*
X411132Y-303000D01*
X411598Y-305341D01*
X412924Y-307326D01*
X414909Y-308652D01*
X417250Y-309118D01*
X419591Y-308652D01*
X421576Y-307326D01*
X422902Y-305341D01*
X423368Y-303000D01*
X422902Y-300659D01*
X421576Y-298674D01*
X419591Y-297348D01*
X417250Y-296882D01*
D02*
G37*
G36*
X670500Y-294382D02*
X668159Y-294848D01*
X666174Y-296174D01*
X664848Y-298159D01*
X664382Y-300500D01*
X664848Y-302841D01*
X666174Y-304826D01*
X668159Y-306152D01*
X670500Y-306618D01*
X672841Y-306152D01*
X674826Y-304826D01*
X676152Y-302841D01*
X676618Y-300500D01*
X676152Y-298159D01*
X674826Y-296174D01*
X672841Y-294848D01*
X670500Y-294382D01*
D02*
G37*
G36*
X685500D02*
X683159Y-294848D01*
X681174Y-296174D01*
X679848Y-298159D01*
X679382Y-300500D01*
X679848Y-302841D01*
X681174Y-304826D01*
X683159Y-306152D01*
X685500Y-306618D01*
X687841Y-306152D01*
X689826Y-304826D01*
X691152Y-302841D01*
X691618Y-300500D01*
X691152Y-298159D01*
X689826Y-296174D01*
X687841Y-294848D01*
X685500Y-294382D01*
D02*
G37*
G36*
X419000Y-317402D02*
X417049Y-317790D01*
X415395Y-318895D01*
X414764Y-319840D01*
X413236D01*
X412605Y-318895D01*
X410951Y-317790D01*
X409000Y-317402D01*
X407049Y-317790D01*
X405395Y-318895D01*
X404290Y-320549D01*
X403902Y-322500D01*
X404290Y-324451D01*
X405395Y-326105D01*
X405785Y-326365D01*
Y-327635D01*
X405395Y-327895D01*
X404290Y-329549D01*
X403902Y-331500D01*
X404290Y-333451D01*
X405395Y-335105D01*
X407049Y-336210D01*
X409000Y-336598D01*
X410951Y-336210D01*
X412605Y-335105D01*
X413236Y-334160D01*
X414764D01*
X415395Y-335105D01*
X417049Y-336210D01*
X419000Y-336598D01*
X420951Y-336210D01*
X422605Y-335105D01*
X423710Y-333451D01*
X424098Y-331500D01*
X423710Y-329549D01*
X422605Y-327895D01*
X422215Y-327635D01*
Y-326365D01*
X422605Y-326105D01*
X423710Y-324451D01*
X424098Y-322500D01*
X423710Y-320549D01*
X422605Y-318895D01*
X420951Y-317790D01*
X419000Y-317402D01*
D02*
G37*
G36*
X443250D02*
X441299Y-317790D01*
X439645Y-318895D01*
X439014Y-319840D01*
X437486D01*
X436855Y-318895D01*
X435201Y-317790D01*
X433250Y-317402D01*
X431299Y-317790D01*
X429645Y-318895D01*
X428540Y-320549D01*
X428152Y-322500D01*
X428540Y-324451D01*
X429645Y-326105D01*
X430035Y-326365D01*
Y-327635D01*
X429645Y-327895D01*
X428540Y-329549D01*
X428152Y-331500D01*
X428540Y-333451D01*
X429645Y-335105D01*
X431299Y-336210D01*
X433250Y-336598D01*
X435201Y-336210D01*
X436855Y-335105D01*
X437486Y-334160D01*
X439014D01*
X439645Y-335105D01*
X441299Y-336210D01*
X443250Y-336598D01*
X445201Y-336210D01*
X446855Y-335105D01*
X447960Y-333451D01*
X448348Y-331500D01*
X447960Y-329549D01*
X446855Y-327895D01*
X446465Y-327635D01*
Y-326365D01*
X446855Y-326105D01*
X447960Y-324451D01*
X448348Y-322500D01*
X447960Y-320549D01*
X446855Y-318895D01*
X445201Y-317790D01*
X443250Y-317402D01*
D02*
G37*
G36*
X388750Y-295940D02*
X386923Y-296180D01*
X385220Y-296886D01*
X383758Y-298008D01*
X382635Y-299470D01*
X381930Y-301173D01*
X381690Y-303000D01*
X381930Y-304827D01*
X382635Y-306530D01*
X383758Y-307992D01*
X385220Y-309114D01*
X386923Y-309820D01*
X388750Y-310060D01*
X390577Y-309820D01*
X392280Y-309114D01*
X393742Y-307992D01*
X394865Y-306530D01*
X395321Y-305429D01*
X396095Y-305376D01*
X396680Y-305464D01*
X397924Y-307326D01*
X399909Y-308652D01*
X402250Y-309118D01*
X404591Y-308652D01*
X406576Y-307326D01*
X407902Y-305341D01*
X408368Y-303000D01*
X407902Y-300659D01*
X406576Y-298674D01*
X404591Y-297348D01*
X402250Y-296882D01*
X399909Y-297348D01*
X397924Y-298674D01*
X396680Y-300536D01*
X396095Y-300624D01*
X395321Y-300571D01*
X394865Y-299470D01*
X393742Y-298008D01*
X392280Y-296886D01*
X390577Y-296180D01*
X388750Y-295940D01*
D02*
G37*
G36*
X792110Y-286578D02*
X789630Y-286905D01*
X787319Y-287862D01*
X785334Y-289385D01*
X783812Y-291369D01*
X782854Y-293680D01*
X782528Y-296160D01*
X782854Y-298640D01*
X783812Y-300951D01*
X785334Y-302936D01*
X787319Y-304458D01*
X789630Y-305415D01*
X792110Y-305742D01*
X794590Y-305415D01*
X796901Y-304458D01*
X798885Y-302936D01*
X800408Y-300951D01*
X801365Y-298640D01*
X801692Y-296160D01*
X801365Y-293680D01*
X800408Y-291369D01*
X798885Y-289385D01*
X796901Y-287862D01*
X794590Y-286905D01*
X792110Y-286578D01*
D02*
G37*
G36*
X15000Y-289632D02*
X12659Y-290098D01*
X10674Y-291424D01*
X9348Y-293409D01*
X8882Y-295750D01*
X9348Y-298091D01*
X10674Y-300076D01*
X12659Y-301402D01*
X15000Y-301868D01*
X17341Y-301402D01*
X19326Y-300076D01*
X20652Y-298091D01*
X21118Y-295750D01*
X20652Y-293409D01*
X19326Y-291424D01*
X17341Y-290098D01*
X15000Y-289632D01*
D02*
G37*
G36*
X484500Y-290902D02*
X482549Y-291290D01*
X480895Y-292395D01*
X479790Y-294049D01*
X479402Y-296000D01*
X479790Y-297951D01*
X480895Y-299605D01*
X482549Y-300710D01*
X484500Y-301098D01*
X486451Y-300710D01*
X488105Y-299605D01*
X489210Y-297951D01*
X489598Y-296000D01*
X489210Y-294049D01*
X488105Y-292395D01*
X486451Y-291290D01*
X484500Y-290902D01*
D02*
G37*
G36*
X715910Y-286578D02*
X713430Y-286905D01*
X711119Y-287862D01*
X709134Y-289385D01*
X707612Y-291369D01*
X706654Y-293680D01*
X706328Y-296160D01*
X706654Y-298640D01*
X707612Y-300951D01*
X709134Y-302936D01*
X711119Y-304458D01*
X713430Y-305415D01*
X715910Y-305742D01*
X718390Y-305415D01*
X720701Y-304458D01*
X722685Y-302936D01*
X724208Y-300951D01*
X725165Y-298640D01*
X725492Y-296160D01*
X725165Y-293680D01*
X724208Y-291369D01*
X722685Y-289385D01*
X720701Y-287862D01*
X718390Y-286905D01*
X715910Y-286578D01*
D02*
G37*
G36*
X741310D02*
X738830Y-286905D01*
X736519Y-287862D01*
X734534Y-289385D01*
X733012Y-291369D01*
X732054Y-293680D01*
X731728Y-296160D01*
X732054Y-298640D01*
X733012Y-300951D01*
X734534Y-302936D01*
X736519Y-304458D01*
X738830Y-305415D01*
X741310Y-305742D01*
X743790Y-305415D01*
X746101Y-304458D01*
X748085Y-302936D01*
X749608Y-300951D01*
X750565Y-298640D01*
X750892Y-296160D01*
X750565Y-293680D01*
X749608Y-291369D01*
X748085Y-289385D01*
X746101Y-287862D01*
X743790Y-286905D01*
X741310Y-286578D01*
D02*
G37*
G36*
X766710D02*
X764230Y-286905D01*
X761919Y-287862D01*
X759934Y-289385D01*
X758412Y-291369D01*
X757454Y-293680D01*
X757128Y-296160D01*
X757454Y-298640D01*
X758412Y-300951D01*
X759934Y-302936D01*
X761919Y-304458D01*
X764230Y-305415D01*
X766710Y-305742D01*
X769190Y-305415D01*
X771501Y-304458D01*
X773485Y-302936D01*
X775008Y-300951D01*
X775965Y-298640D01*
X776292Y-296160D01*
X775965Y-293680D01*
X775008Y-291369D01*
X773485Y-289385D01*
X771501Y-287862D01*
X769190Y-286905D01*
X766710Y-286578D01*
D02*
G37*
G36*
X741310Y43622D02*
X738830Y43295D01*
X736519Y42338D01*
X734534Y40815D01*
X733012Y38831D01*
X732054Y36520D01*
X731728Y34040D01*
X732054Y31560D01*
X733012Y29249D01*
X734534Y27264D01*
X736519Y25742D01*
X738830Y24785D01*
X741310Y24458D01*
X743790Y24785D01*
X746101Y25742D01*
X748085Y27264D01*
X749608Y29249D01*
X750565Y31560D01*
X750892Y34040D01*
X750565Y36520D01*
X749608Y38831D01*
X748085Y40815D01*
X746101Y42338D01*
X743790Y43295D01*
X741310Y43622D01*
D02*
G37*
G36*
X766710Y246822D02*
X764230Y246495D01*
X761919Y245538D01*
X759934Y244015D01*
X758412Y242031D01*
X757454Y239720D01*
X757128Y237240D01*
X757454Y234760D01*
X758412Y232449D01*
X759934Y230464D01*
X761919Y228942D01*
X764230Y227985D01*
X766710Y227658D01*
X769190Y227985D01*
X771501Y228942D01*
X773485Y230464D01*
X775008Y232449D01*
X775965Y234760D01*
X776292Y237240D01*
X775965Y239720D01*
X775008Y242031D01*
X773485Y244015D01*
X771501Y245538D01*
X769190Y246495D01*
X766710Y246822D01*
D02*
G37*
G36*
X792110D02*
X789630Y246495D01*
X787319Y245538D01*
X785334Y244015D01*
X783812Y242031D01*
X782854Y239720D01*
X782528Y237240D01*
X782854Y234760D01*
X783812Y232449D01*
X785334Y230464D01*
X787319Y228942D01*
X789630Y227985D01*
X792110Y227658D01*
X794590Y227985D01*
X796901Y228942D01*
X798885Y230464D01*
X800408Y232449D01*
X801365Y234760D01*
X801692Y237240D01*
X801365Y239720D01*
X800408Y242031D01*
X798885Y244015D01*
X796901Y245538D01*
X794590Y246495D01*
X792110Y246822D01*
D02*
G37*
G36*
X684750Y244368D02*
X682409Y243902D01*
X680424Y242576D01*
X679098Y240591D01*
X678633Y238250D01*
X679098Y235909D01*
X680424Y233924D01*
X682409Y232598D01*
X684750Y232132D01*
X687091Y232598D01*
X689076Y233924D01*
X690402Y235909D01*
X690868Y238250D01*
X690402Y240591D01*
X689076Y242576D01*
X687091Y243902D01*
X684750Y244368D01*
D02*
G37*
G36*
X633550Y307398D02*
X631599Y307010D01*
X629945Y305905D01*
X628840Y304251D01*
X628452Y302300D01*
X628840Y300349D01*
X629945Y298695D01*
X630890Y298064D01*
Y296536D01*
X629945Y295905D01*
X628840Y294251D01*
X628452Y292300D01*
X628840Y290349D01*
X629945Y288695D01*
X630890Y288064D01*
Y286536D01*
X629945Y285905D01*
X628840Y284251D01*
X628452Y282300D01*
X628840Y280349D01*
X629945Y278695D01*
X630890Y278064D01*
Y276536D01*
X629945Y275905D01*
X628840Y274251D01*
X628452Y272300D01*
X628840Y270349D01*
X629945Y268695D01*
X630890Y268064D01*
Y266536D01*
X629945Y265905D01*
X628840Y264251D01*
X628452Y262300D01*
X628840Y260349D01*
X629945Y258695D01*
X630890Y258064D01*
Y256536D01*
X629945Y255905D01*
X628840Y254251D01*
X628452Y252300D01*
X628840Y250349D01*
X629945Y248695D01*
X630890Y248064D01*
Y246536D01*
X629945Y245905D01*
X628840Y244251D01*
X628452Y242300D01*
X628840Y240349D01*
X629945Y238695D01*
X630890Y238064D01*
Y236536D01*
X629945Y235905D01*
X628840Y234251D01*
X628452Y232300D01*
X628840Y230349D01*
X629945Y228695D01*
X631599Y227590D01*
X633550Y227202D01*
X635501Y227590D01*
X637155Y228695D01*
X638260Y230349D01*
X638648Y232300D01*
X638260Y234251D01*
X637155Y235905D01*
X636210Y236536D01*
Y238064D01*
X637155Y238695D01*
X638260Y240349D01*
X638648Y242300D01*
X638260Y244251D01*
X637155Y245905D01*
X636210Y246536D01*
Y248064D01*
X637155Y248695D01*
X638260Y250349D01*
X638648Y252300D01*
X638260Y254251D01*
X637155Y255905D01*
X636210Y256536D01*
Y258064D01*
X637155Y258695D01*
X638260Y260349D01*
X638648Y262300D01*
X638260Y264251D01*
X637155Y265905D01*
X636210Y266536D01*
Y268064D01*
X637155Y268695D01*
X638260Y270349D01*
X638648Y272300D01*
X638260Y274251D01*
X637155Y275905D01*
X636210Y276536D01*
Y278064D01*
X637155Y278695D01*
X638260Y280349D01*
X638648Y282300D01*
X638260Y284251D01*
X637155Y285905D01*
X636210Y286536D01*
Y288064D01*
X637155Y288695D01*
X638260Y290349D01*
X638648Y292300D01*
X638260Y294251D01*
X637155Y295905D01*
X636210Y296536D01*
Y298064D01*
X637155Y298695D01*
X638260Y300349D01*
X638648Y302300D01*
X638260Y304251D01*
X637155Y305905D01*
X635501Y307010D01*
X633550Y307398D01*
D02*
G37*
G36*
X715910Y246822D02*
X713430Y246495D01*
X711119Y245538D01*
X709134Y244015D01*
X707612Y242031D01*
X706654Y239720D01*
X706328Y237240D01*
X706654Y234760D01*
X707612Y232449D01*
X709134Y230464D01*
X711119Y228942D01*
X713430Y227985D01*
X715910Y227658D01*
X718390Y227985D01*
X720701Y228942D01*
X722685Y230464D01*
X724208Y232449D01*
X725165Y234760D01*
X725492Y237240D01*
X725165Y239720D01*
X724208Y242031D01*
X722685Y244015D01*
X720701Y245538D01*
X718390Y246495D01*
X715910Y246822D01*
D02*
G37*
G36*
X741310D02*
X738830Y246495D01*
X736519Y245538D01*
X734534Y244015D01*
X733012Y242031D01*
X732054Y239720D01*
X731728Y237240D01*
X732054Y234760D01*
X733012Y232449D01*
X734534Y230464D01*
X736519Y228942D01*
X738830Y227985D01*
X741310Y227658D01*
X743790Y227985D01*
X746101Y228942D01*
X748085Y230464D01*
X749608Y232449D01*
X750565Y234760D01*
X750892Y237240D01*
X750565Y239720D01*
X749608Y242031D01*
X748085Y244015D01*
X746101Y245538D01*
X743790Y246495D01*
X741310Y246822D01*
D02*
G37*
G36*
Y272222D02*
X738830Y271895D01*
X736519Y270938D01*
X734534Y269415D01*
X733012Y267431D01*
X732054Y265120D01*
X731728Y262640D01*
X732054Y260160D01*
X733012Y257849D01*
X734534Y255865D01*
X736519Y254342D01*
X738830Y253384D01*
X741310Y253058D01*
X743790Y253384D01*
X746101Y254342D01*
X748085Y255865D01*
X749608Y257849D01*
X750565Y260160D01*
X750892Y262640D01*
X750565Y265120D01*
X749608Y267431D01*
X748085Y269415D01*
X746101Y270938D01*
X743790Y271895D01*
X741310Y272222D01*
D02*
G37*
G36*
X766710D02*
X764230Y271895D01*
X761919Y270938D01*
X759934Y269415D01*
X758412Y267431D01*
X757454Y265120D01*
X757128Y262640D01*
X757454Y260160D01*
X758412Y257849D01*
X759934Y255865D01*
X761919Y254342D01*
X764230Y253384D01*
X766710Y253058D01*
X769190Y253384D01*
X771501Y254342D01*
X773485Y255865D01*
X775008Y257849D01*
X775965Y260160D01*
X776292Y262640D01*
X775965Y265120D01*
X775008Y267431D01*
X773485Y269415D01*
X771501Y270938D01*
X769190Y271895D01*
X766710Y272222D01*
D02*
G37*
G36*
X792110D02*
X789630Y271895D01*
X787319Y270938D01*
X785334Y269415D01*
X783812Y267431D01*
X782854Y265120D01*
X782528Y262640D01*
X782854Y260160D01*
X783812Y257849D01*
X785334Y255865D01*
X787319Y254342D01*
X789630Y253384D01*
X792110Y253058D01*
X794590Y253384D01*
X796901Y254342D01*
X798885Y255865D01*
X800408Y257849D01*
X801365Y260160D01*
X801692Y262640D01*
X801365Y265120D01*
X800408Y267431D01*
X798885Y269415D01*
X796901Y270938D01*
X794590Y271895D01*
X792110Y272222D01*
D02*
G37*
G36*
X-20000Y254118D02*
X-22341Y253652D01*
X-24326Y252326D01*
X-25652Y250341D01*
X-26118Y248000D01*
X-25652Y245659D01*
X-24326Y243674D01*
X-22341Y242348D01*
X-20000Y241882D01*
X-17659Y242348D01*
X-15674Y243674D01*
X-14348Y245659D01*
X-13882Y248000D01*
X-14348Y250341D01*
X-15674Y252326D01*
X-17659Y253652D01*
X-20000Y254118D01*
D02*
G37*
G36*
X591650Y258019D02*
X589575Y257745D01*
X587641Y256944D01*
X585980Y255670D01*
X584706Y254009D01*
X583904Y252075D01*
X583631Y250000D01*
X583904Y247925D01*
X584706Y245991D01*
X585980Y244330D01*
X587641Y243056D01*
X589575Y242255D01*
X591650Y241981D01*
X593725Y242255D01*
X595659Y243056D01*
X597320Y244330D01*
X598594Y245991D01*
X599395Y247925D01*
X599669Y250000D01*
X599395Y252075D01*
X598594Y254009D01*
X597320Y255670D01*
X595659Y256944D01*
X593725Y257745D01*
X591650Y258019D01*
D02*
G37*
G36*
X715910Y272222D02*
X713430Y271895D01*
X711119Y270938D01*
X709134Y269415D01*
X707612Y267431D01*
X706654Y265120D01*
X706328Y262640D01*
X706654Y260160D01*
X707612Y257849D01*
X709134Y255865D01*
X711119Y254342D01*
X713430Y253384D01*
X715910Y253058D01*
X718390Y253384D01*
X720701Y254342D01*
X722685Y255865D01*
X724208Y257849D01*
X725165Y260160D01*
X725492Y262640D01*
X725165Y265120D01*
X724208Y267431D01*
X722685Y269415D01*
X720701Y270938D01*
X718390Y271895D01*
X715910Y272222D01*
D02*
G37*
G36*
X591650Y213019D02*
X589575Y212745D01*
X587641Y211944D01*
X585980Y210670D01*
X584706Y209009D01*
X583904Y207075D01*
X583631Y205000D01*
X583904Y202925D01*
X584706Y200991D01*
X585980Y199330D01*
X587641Y198056D01*
X589575Y197255D01*
X591650Y196981D01*
X593725Y197255D01*
X595659Y198056D01*
X597320Y199330D01*
X598594Y200991D01*
X599395Y202925D01*
X599669Y205000D01*
X599395Y207075D01*
X598594Y209009D01*
X597320Y210670D01*
X595659Y211944D01*
X593725Y212745D01*
X591650Y213019D01*
D02*
G37*
G36*
X195750Y211848D02*
X193799Y211460D01*
X192145Y210355D01*
X191040Y208701D01*
X190652Y206750D01*
X191040Y204799D01*
X192145Y203145D01*
X193799Y202040D01*
X195750Y201652D01*
X197701Y202040D01*
X199355Y203145D01*
X200460Y204799D01*
X200848Y206750D01*
X200460Y208701D01*
X199355Y210355D01*
X197701Y211460D01*
X195750Y211848D01*
D02*
G37*
G36*
X715910Y221422D02*
X713430Y221095D01*
X711119Y220138D01*
X709134Y218615D01*
X707612Y216631D01*
X706654Y214320D01*
X706328Y211840D01*
X706654Y209360D01*
X707612Y207049D01*
X709134Y205065D01*
X711119Y203542D01*
X713430Y202584D01*
X715910Y202258D01*
X718390Y202584D01*
X720701Y203542D01*
X722685Y205065D01*
X724208Y207049D01*
X725165Y209360D01*
X725492Y211840D01*
X725165Y214320D01*
X724208Y216631D01*
X722685Y218615D01*
X720701Y220138D01*
X718390Y221095D01*
X715910Y221422D01*
D02*
G37*
G36*
X174750Y190098D02*
X172799Y189710D01*
X171145Y188605D01*
X170040Y186951D01*
X169652Y185000D01*
X170040Y183049D01*
X171145Y181395D01*
X172799Y180290D01*
X174750Y179902D01*
X176701Y180290D01*
X178355Y181395D01*
X179460Y183049D01*
X179848Y185000D01*
X179460Y186951D01*
X178355Y188605D01*
X176701Y189710D01*
X174750Y190098D01*
D02*
G37*
G36*
X216500Y200098D02*
X214549Y199710D01*
X212895Y198605D01*
X211790Y196951D01*
X211402Y195000D01*
X211790Y193049D01*
X212895Y191395D01*
X214549Y190290D01*
X216500Y189902D01*
X218451Y190290D01*
X220105Y191395D01*
X221210Y193049D01*
X221598Y195000D01*
X221210Y196951D01*
X220105Y198605D01*
X218451Y199710D01*
X216500Y200098D01*
D02*
G37*
G36*
X204000Y202098D02*
X202049Y201710D01*
X200395Y200605D01*
X199290Y198951D01*
X198902Y197000D01*
X199290Y195049D01*
X200395Y193395D01*
X202049Y192290D01*
X204000Y191902D01*
X205951Y192290D01*
X207605Y193395D01*
X208710Y195049D01*
X209098Y197000D01*
X208710Y198951D01*
X207605Y200605D01*
X205951Y201710D01*
X204000Y202098D01*
D02*
G37*
G36*
X684750Y223483D02*
X682409Y223017D01*
X680424Y221691D01*
X679098Y219706D01*
X678632Y217365D01*
X679098Y215024D01*
X680424Y213040D01*
X682409Y211713D01*
X684750Y211248D01*
X687091Y211713D01*
X689076Y213040D01*
X690402Y215024D01*
X690867Y217365D01*
X690402Y219706D01*
X689076Y221691D01*
X687091Y223017D01*
X684750Y223483D01*
D02*
G37*
G36*
X591650Y240319D02*
X589575Y240045D01*
X587641Y239244D01*
X585980Y237970D01*
X584706Y236309D01*
X583904Y234375D01*
X583631Y232300D01*
X583904Y230225D01*
X584706Y228291D01*
X585980Y226630D01*
X587641Y225356D01*
X589575Y224555D01*
X591650Y224281D01*
X593725Y224555D01*
X595659Y225356D01*
X597320Y226630D01*
X598594Y228291D01*
X599395Y230225D01*
X599669Y232300D01*
X599395Y234375D01*
X598594Y236309D01*
X597320Y237970D01*
X595659Y239244D01*
X593725Y240045D01*
X591650Y240319D01*
D02*
G37*
G36*
X550000Y307598D02*
X548049Y307210D01*
X546395Y306105D01*
X545290Y304451D01*
X544902Y302500D01*
X545290Y300549D01*
X546395Y298895D01*
X547340Y298264D01*
Y296736D01*
X546395Y296105D01*
X545290Y294451D01*
X544902Y292500D01*
X545290Y290549D01*
X546395Y288895D01*
X547452Y288189D01*
X547500Y288025D01*
X547377Y286728D01*
X546145Y285905D01*
X545040Y284251D01*
X544652Y282300D01*
X545040Y280349D01*
X546145Y278695D01*
X547090Y278064D01*
Y276536D01*
X546145Y275905D01*
X545040Y274251D01*
X544652Y272300D01*
X545040Y270349D01*
X546145Y268695D01*
X547090Y268064D01*
Y266536D01*
X546145Y265905D01*
X545040Y264251D01*
X544652Y262300D01*
X545040Y260349D01*
X546145Y258695D01*
X547090Y258064D01*
Y256536D01*
X546145Y255905D01*
X545040Y254251D01*
X544652Y252300D01*
X545040Y250349D01*
X546145Y248695D01*
X547090Y248064D01*
Y246536D01*
X546145Y245905D01*
X545040Y244251D01*
X544652Y242300D01*
X545040Y240349D01*
X546145Y238695D01*
X547090Y238064D01*
Y236536D01*
X546145Y235905D01*
X545040Y234251D01*
X544652Y232300D01*
X545040Y230349D01*
X546145Y228695D01*
X547799Y227590D01*
X549750Y227202D01*
X551701Y227590D01*
X553355Y228695D01*
X554460Y230349D01*
X554848Y232300D01*
X554460Y234251D01*
X553355Y235905D01*
X552410Y236536D01*
Y238064D01*
X553355Y238695D01*
X554460Y240349D01*
X554848Y242300D01*
X554460Y244251D01*
X553355Y245905D01*
X552410Y246536D01*
Y248064D01*
X553355Y248695D01*
X554460Y250349D01*
X554848Y252300D01*
X554460Y254251D01*
X553355Y255905D01*
X552410Y256536D01*
Y258064D01*
X553355Y258695D01*
X554460Y260349D01*
X554848Y262300D01*
X554460Y264251D01*
X553355Y265905D01*
X552410Y266536D01*
Y268064D01*
X553355Y268695D01*
X554460Y270349D01*
X554848Y272300D01*
X554460Y274251D01*
X553355Y275905D01*
X552410Y276536D01*
Y278064D01*
X553355Y278695D01*
X554460Y280349D01*
X554848Y282300D01*
X554460Y284251D01*
X553355Y285905D01*
X552298Y286611D01*
X552250Y286775D01*
X552373Y288072D01*
X553605Y288895D01*
X554710Y290549D01*
X555098Y292500D01*
X554710Y294451D01*
X553605Y296105D01*
X552660Y296736D01*
Y298264D01*
X553605Y298895D01*
X554710Y300549D01*
X555098Y302500D01*
X554710Y304451D01*
X553605Y306105D01*
X551951Y307210D01*
X550000Y307598D01*
D02*
G37*
G36*
X741310Y221422D02*
X738830Y221095D01*
X736519Y220138D01*
X734534Y218615D01*
X733012Y216631D01*
X732054Y214320D01*
X731728Y211840D01*
X732054Y209360D01*
X733012Y207049D01*
X734534Y205065D01*
X736519Y203542D01*
X738830Y202584D01*
X741310Y202258D01*
X743790Y202584D01*
X746101Y203542D01*
X748085Y205065D01*
X749608Y207049D01*
X750565Y209360D01*
X750892Y211840D01*
X750565Y214320D01*
X749608Y216631D01*
X748085Y218615D01*
X746101Y220138D01*
X743790Y221095D01*
X741310Y221422D01*
D02*
G37*
G36*
X766710D02*
X764230Y221095D01*
X761919Y220138D01*
X759934Y218615D01*
X758412Y216631D01*
X757454Y214320D01*
X757128Y211840D01*
X757454Y209360D01*
X758412Y207049D01*
X759934Y205065D01*
X761919Y203542D01*
X764230Y202584D01*
X766710Y202258D01*
X769190Y202584D01*
X771501Y203542D01*
X773485Y205065D01*
X775008Y207049D01*
X775965Y209360D01*
X776292Y211840D01*
X775965Y214320D01*
X775008Y216631D01*
X773485Y218615D01*
X771501Y220138D01*
X769190Y221095D01*
X766710Y221422D01*
D02*
G37*
G36*
X792110D02*
X789630Y221095D01*
X787319Y220138D01*
X785334Y218615D01*
X783812Y216631D01*
X782854Y214320D01*
X782528Y211840D01*
X782854Y209360D01*
X783812Y207049D01*
X785334Y205065D01*
X787319Y203542D01*
X789630Y202584D01*
X792110Y202258D01*
X794590Y202584D01*
X796901Y203542D01*
X798885Y205065D01*
X800408Y207049D01*
X801365Y209360D01*
X801692Y211840D01*
X801365Y214320D01*
X800408Y216631D01*
X798885Y218615D01*
X796901Y220138D01*
X794590Y221095D01*
X792110Y221422D01*
D02*
G37*
G36*
X21750Y325868D02*
X19409Y325402D01*
X17424Y324076D01*
X16098Y322091D01*
X15632Y319750D01*
X16098Y317409D01*
X17424Y315424D01*
X19409Y314098D01*
X21750Y313632D01*
X24091Y314098D01*
X26076Y315424D01*
X27402Y317409D01*
X27868Y319750D01*
X27402Y322091D01*
X26076Y324076D01*
X24091Y325402D01*
X21750Y325868D01*
D02*
G37*
G36*
X591650Y330319D02*
X589575Y330045D01*
X587641Y329244D01*
X585980Y327970D01*
X584706Y326309D01*
X583904Y324375D01*
X583631Y322300D01*
X583904Y320225D01*
X584706Y318291D01*
X585980Y316630D01*
X587641Y315356D01*
X589575Y314555D01*
X591650Y314281D01*
X593725Y314555D01*
X595659Y315356D01*
X597320Y316630D01*
X598594Y318291D01*
X599395Y320225D01*
X599669Y322300D01*
X599395Y324375D01*
X598594Y326309D01*
X597320Y327970D01*
X595659Y329244D01*
X593725Y330045D01*
X591650Y330319D01*
D02*
G37*
G36*
X-20000Y329118D02*
X-22341Y328652D01*
X-24326Y327326D01*
X-25652Y325341D01*
X-26118Y323000D01*
X-25652Y320659D01*
X-24326Y318674D01*
X-22341Y317348D01*
X-20000Y316882D01*
X-17659Y317348D01*
X-15674Y318674D01*
X-14348Y320659D01*
X-13882Y323000D01*
X-14348Y325341D01*
X-15674Y327326D01*
X-17659Y328652D01*
X-20000Y329118D01*
D02*
G37*
G36*
X741310Y323022D02*
X738830Y322695D01*
X736519Y321738D01*
X734534Y320215D01*
X733012Y318231D01*
X732054Y315920D01*
X731728Y313440D01*
X732054Y310960D01*
X733012Y308649D01*
X734534Y306665D01*
X736519Y305142D01*
X738830Y304184D01*
X741310Y303858D01*
X743790Y304184D01*
X746101Y305142D01*
X748085Y306665D01*
X749608Y308649D01*
X750565Y310960D01*
X750892Y313440D01*
X750565Y315920D01*
X749608Y318231D01*
X748085Y320215D01*
X746101Y321738D01*
X743790Y322695D01*
X741310Y323022D01*
D02*
G37*
G36*
X766710D02*
X764230Y322695D01*
X761919Y321738D01*
X759934Y320215D01*
X758412Y318231D01*
X757454Y315920D01*
X757128Y313440D01*
X757454Y310960D01*
X758412Y308649D01*
X759934Y306665D01*
X761919Y305142D01*
X764230Y304184D01*
X766710Y303858D01*
X769190Y304184D01*
X771501Y305142D01*
X773485Y306665D01*
X775008Y308649D01*
X775965Y310960D01*
X776292Y313440D01*
X775965Y315920D01*
X775008Y318231D01*
X773485Y320215D01*
X771501Y321738D01*
X769190Y322695D01*
X766710Y323022D01*
D02*
G37*
G36*
X792110D02*
X789630Y322695D01*
X787319Y321738D01*
X785334Y320215D01*
X783812Y318231D01*
X782854Y315920D01*
X782528Y313440D01*
X782854Y310960D01*
X783812Y308649D01*
X785334Y306665D01*
X787319Y305142D01*
X789630Y304184D01*
X792110Y303858D01*
X794590Y304184D01*
X796901Y305142D01*
X798885Y306665D01*
X800408Y308649D01*
X801365Y310960D01*
X801692Y313440D01*
X801365Y315920D01*
X800408Y318231D01*
X798885Y320215D01*
X796901Y321738D01*
X794590Y322695D01*
X792110Y323022D01*
D02*
G37*
G36*
X116000Y369367D02*
X113659Y368902D01*
X111674Y367576D01*
X110348Y365591D01*
X109882Y363250D01*
X110348Y360909D01*
X111674Y358924D01*
X113659Y357598D01*
X116000Y357132D01*
X118341Y357598D01*
X120326Y358924D01*
X121652Y360909D01*
X122118Y363250D01*
X121652Y365591D01*
X120326Y367576D01*
X118341Y368902D01*
X116000Y369367D01*
D02*
G37*
G36*
X191000D02*
X188659Y368902D01*
X186674Y367576D01*
X185348Y365591D01*
X184883Y363250D01*
X185348Y360909D01*
X186674Y358924D01*
X188659Y357598D01*
X191000Y357132D01*
X193341Y357598D01*
X195326Y358924D01*
X196652Y360909D01*
X197118Y363250D01*
X196652Y365591D01*
X195326Y367576D01*
X193341Y368902D01*
X191000Y369367D01*
D02*
G37*
G36*
X550750Y418810D02*
X548923Y418570D01*
X547220Y417864D01*
X545758Y416742D01*
X544636Y415280D01*
X543930Y413577D01*
X543690Y411750D01*
X543930Y409923D01*
X544636Y408220D01*
X545595Y406969D01*
X545754Y406125D01*
X545595Y405281D01*
X544636Y404030D01*
X543930Y402327D01*
X543690Y400500D01*
X543930Y398673D01*
X544636Y396970D01*
X545758Y395508D01*
X547220Y394385D01*
X548923Y393680D01*
X550750Y393440D01*
X552577Y393680D01*
X554280Y394385D01*
X555742Y395508D01*
X556865Y396970D01*
X557570Y398673D01*
X557810Y400500D01*
X557570Y402327D01*
X556865Y404030D01*
X555905Y405281D01*
X555746Y406125D01*
X555905Y406969D01*
X556865Y408220D01*
X557570Y409923D01*
X557810Y411750D01*
X557570Y413577D01*
X556865Y415280D01*
X555742Y416742D01*
X554280Y417864D01*
X552577Y418570D01*
X550750Y418810D01*
D02*
G37*
G36*
X0Y352060D02*
X-1827Y351820D01*
X-3530Y351115D01*
X-4992Y349992D01*
X-6115Y348530D01*
X-6820Y346827D01*
X-7060Y345000D01*
X-6820Y343173D01*
X-6115Y341470D01*
X-4992Y340008D01*
X-3530Y338885D01*
X-1827Y338180D01*
X-1526Y338140D01*
Y336860D01*
X-1827Y336820D01*
X-3530Y336115D01*
X-4992Y334992D01*
X-6115Y333530D01*
X-6820Y331827D01*
X-7060Y330000D01*
X-6820Y328173D01*
X-6115Y326470D01*
X-4992Y325008D01*
X-3530Y323885D01*
X-1827Y323180D01*
X0Y322940D01*
X1827Y323180D01*
X3530Y323885D01*
X4992Y325008D01*
X6115Y326470D01*
X6820Y328173D01*
X7060Y330000D01*
X6820Y331827D01*
X6115Y333530D01*
X4992Y334992D01*
X3530Y336115D01*
X1827Y336820D01*
X1526Y336860D01*
Y338140D01*
X1827Y338180D01*
X3530Y338885D01*
X4992Y340008D01*
X6115Y341470D01*
X6820Y343173D01*
X7060Y345000D01*
X6820Y346827D01*
X6115Y348530D01*
X4992Y349992D01*
X3530Y351115D01*
X1827Y351820D01*
X0Y352060D01*
D02*
G37*
G36*
X591650Y348019D02*
X589575Y347745D01*
X587641Y346944D01*
X585980Y345670D01*
X584706Y344009D01*
X583904Y342075D01*
X583631Y340000D01*
X583904Y337925D01*
X584706Y335991D01*
X585980Y334330D01*
X587641Y333056D01*
X589575Y332255D01*
X591650Y331981D01*
X593725Y332255D01*
X595659Y333056D01*
X597320Y334330D01*
X598594Y335991D01*
X599395Y337925D01*
X599669Y340000D01*
X599395Y342075D01*
X598594Y344009D01*
X597320Y345670D01*
X595659Y346944D01*
X593725Y347745D01*
X591650Y348019D01*
D02*
G37*
G36*
X101000Y369367D02*
X98659Y368902D01*
X96674Y367576D01*
X95348Y365591D01*
X94882Y363250D01*
X95348Y360909D01*
X96674Y358924D01*
X98659Y357598D01*
X101000Y357132D01*
X103341Y357598D01*
X105326Y358924D01*
X106652Y360909D01*
X107118Y363250D01*
X106652Y365591D01*
X105326Y367576D01*
X103341Y368902D01*
X101000Y369367D01*
D02*
G37*
G36*
X715910Y297622D02*
X713430Y297295D01*
X711119Y296338D01*
X709134Y294815D01*
X707612Y292831D01*
X706654Y290520D01*
X706328Y288040D01*
X706654Y285560D01*
X707612Y283249D01*
X709134Y281264D01*
X711119Y279742D01*
X713430Y278785D01*
X715910Y278458D01*
X718390Y278785D01*
X720701Y279742D01*
X722685Y281264D01*
X724208Y283249D01*
X725165Y285560D01*
X725492Y288040D01*
X725165Y290520D01*
X724208Y292831D01*
X722685Y294815D01*
X720701Y296338D01*
X718390Y297295D01*
X715910Y297622D01*
D02*
G37*
G36*
X741310D02*
X738830Y297295D01*
X736519Y296338D01*
X734534Y294815D01*
X733012Y292831D01*
X732054Y290520D01*
X731728Y288040D01*
X732054Y285560D01*
X733012Y283249D01*
X734534Y281264D01*
X736519Y279742D01*
X738830Y278785D01*
X741310Y278458D01*
X743790Y278785D01*
X746101Y279742D01*
X748085Y281264D01*
X749608Y283249D01*
X750565Y285560D01*
X750892Y288040D01*
X750565Y290520D01*
X749608Y292831D01*
X748085Y294815D01*
X746101Y296338D01*
X743790Y297295D01*
X741310Y297622D01*
D02*
G37*
G36*
X766710D02*
X764230Y297295D01*
X761919Y296338D01*
X759934Y294815D01*
X758412Y292831D01*
X757454Y290520D01*
X757128Y288040D01*
X757454Y285560D01*
X758412Y283249D01*
X759934Y281264D01*
X761919Y279742D01*
X764230Y278785D01*
X766710Y278458D01*
X769190Y278785D01*
X771501Y279742D01*
X773485Y281264D01*
X775008Y283249D01*
X775965Y285560D01*
X776292Y288040D01*
X775965Y290520D01*
X775008Y292831D01*
X773485Y294815D01*
X771501Y296338D01*
X769190Y297295D01*
X766710Y297622D01*
D02*
G37*
G36*
X-20000Y269118D02*
X-22341Y268652D01*
X-24326Y267326D01*
X-25652Y265341D01*
X-26118Y263000D01*
X-25652Y260659D01*
X-24326Y258674D01*
X-22341Y257348D01*
X-20000Y256882D01*
X-17659Y257348D01*
X-15674Y258674D01*
X-14348Y260659D01*
X-13882Y263000D01*
X-14348Y265341D01*
X-15674Y267326D01*
X-17659Y268652D01*
X-20000Y269118D01*
D02*
G37*
G36*
X21750Y277868D02*
X19409Y277402D01*
X17424Y276076D01*
X16098Y274091D01*
X15632Y271750D01*
X16098Y269409D01*
X17424Y267424D01*
X19409Y266098D01*
X21750Y265632D01*
X24091Y266098D01*
X26076Y267424D01*
X27402Y269409D01*
X27868Y271750D01*
X27402Y274091D01*
X26076Y276076D01*
X24091Y277402D01*
X21750Y277868D01*
D02*
G37*
G36*
X-20000Y284118D02*
X-22341Y283652D01*
X-24326Y282326D01*
X-25652Y280341D01*
X-26118Y278000D01*
X-25652Y275659D01*
X-24326Y273674D01*
X-22341Y272348D01*
X-20000Y271882D01*
X-17659Y272348D01*
X-15674Y273674D01*
X-14348Y275659D01*
X-13882Y278000D01*
X-14348Y280341D01*
X-15674Y282326D01*
X-17659Y283652D01*
X-20000Y284118D01*
D02*
G37*
G36*
X21750Y310868D02*
X19409Y310402D01*
X17424Y309076D01*
X16098Y307091D01*
X15632Y304750D01*
X16098Y302409D01*
X17424Y300424D01*
X19409Y299098D01*
X21750Y298632D01*
X24091Y299098D01*
X26076Y300424D01*
X27402Y302409D01*
X27868Y304750D01*
X27402Y307091D01*
X26076Y309076D01*
X24091Y310402D01*
X21750Y310868D01*
D02*
G37*
G36*
X-20000Y314118D02*
X-22341Y313652D01*
X-24326Y312326D01*
X-25652Y310341D01*
X-26118Y308000D01*
X-25652Y305659D01*
X-24326Y303674D01*
X-22341Y302348D01*
X-20000Y301882D01*
X-17659Y302348D01*
X-15674Y303674D01*
X-14348Y305659D01*
X-13882Y308000D01*
X-14348Y310341D01*
X-15674Y312326D01*
X-17659Y313652D01*
X-20000Y314118D01*
D02*
G37*
G36*
X715910Y323022D02*
X713430Y322695D01*
X711119Y321738D01*
X709134Y320215D01*
X707612Y318231D01*
X706654Y315920D01*
X706328Y313440D01*
X706654Y310960D01*
X707612Y308649D01*
X709134Y306665D01*
X711119Y305142D01*
X713430Y304184D01*
X715910Y303858D01*
X718390Y304184D01*
X720701Y305142D01*
X722685Y306665D01*
X724208Y308649D01*
X725165Y310960D01*
X725492Y313440D01*
X725165Y315920D01*
X724208Y318231D01*
X722685Y320215D01*
X720701Y321738D01*
X718390Y322695D01*
X715910Y323022D01*
D02*
G37*
G36*
X792110Y297622D02*
X789630Y297295D01*
X787319Y296338D01*
X785334Y294815D01*
X783812Y292831D01*
X782854Y290520D01*
X782528Y288040D01*
X782854Y285560D01*
X783812Y283249D01*
X785334Y281264D01*
X787319Y279742D01*
X789630Y278785D01*
X792110Y278458D01*
X794590Y278785D01*
X796901Y279742D01*
X798885Y281264D01*
X800408Y283249D01*
X801365Y285560D01*
X801692Y288040D01*
X801365Y290520D01*
X800408Y292831D01*
X798885Y294815D01*
X796901Y296338D01*
X794590Y297295D01*
X792110Y297622D01*
D02*
G37*
G36*
X21750Y292868D02*
X19409Y292402D01*
X17424Y291076D01*
X16098Y289091D01*
X15632Y286750D01*
X16098Y284409D01*
X17424Y282424D01*
X19409Y281098D01*
X21750Y280632D01*
X24091Y281098D01*
X26076Y282424D01*
X27402Y284409D01*
X27868Y286750D01*
X27402Y289091D01*
X26076Y291076D01*
X24091Y292402D01*
X21750Y292868D01*
D02*
G37*
G36*
X-20000Y299118D02*
X-22341Y298652D01*
X-24326Y297326D01*
X-25652Y295341D01*
X-26118Y293000D01*
X-25652Y290659D01*
X-24326Y288674D01*
X-22341Y287348D01*
X-20000Y286882D01*
X-17659Y287348D01*
X-15674Y288674D01*
X-14348Y290659D01*
X-13882Y293000D01*
X-14348Y295341D01*
X-15674Y297326D01*
X-17659Y298652D01*
X-20000Y299118D01*
D02*
G37*
G36*
X591650Y195319D02*
X589575Y195045D01*
X587641Y194244D01*
X585980Y192970D01*
X584706Y191309D01*
X583904Y189375D01*
X583631Y187300D01*
X583904Y185225D01*
X584706Y183291D01*
X585980Y181630D01*
X587641Y180356D01*
X589575Y179555D01*
X591650Y179281D01*
X593725Y179555D01*
X595659Y180356D01*
X597320Y181630D01*
X598594Y183291D01*
X599395Y185225D01*
X599669Y187300D01*
X599395Y189375D01*
X598594Y191309D01*
X597320Y192970D01*
X595659Y194244D01*
X593725Y195045D01*
X591650Y195319D01*
D02*
G37*
G36*
X524750Y104598D02*
X522799Y104210D01*
X521145Y103105D01*
X520040Y101451D01*
X519652Y99500D01*
X520040Y97549D01*
X521145Y95895D01*
X522799Y94790D01*
X524750Y94402D01*
X526701Y94790D01*
X528355Y95895D01*
X529460Y97549D01*
X529848Y99500D01*
X529460Y101451D01*
X528355Y103105D01*
X526701Y104210D01*
X524750Y104598D01*
D02*
G37*
G36*
X-20000Y110367D02*
X-22341Y109902D01*
X-24326Y108576D01*
X-25652Y106591D01*
X-26118Y104250D01*
X-25652Y101909D01*
X-24326Y99924D01*
X-22341Y98598D01*
X-20000Y98132D01*
X-17659Y98598D01*
X-15674Y99924D01*
X-14348Y101909D01*
X-13882Y104250D01*
X-14348Y106591D01*
X-15674Y108576D01*
X-17659Y109902D01*
X-20000Y110367D01*
D02*
G37*
G36*
X715910Y119822D02*
X713430Y119495D01*
X711119Y118538D01*
X709134Y117015D01*
X707612Y115031D01*
X706654Y112720D01*
X706328Y110240D01*
X706654Y107760D01*
X707612Y105449D01*
X709134Y103464D01*
X711119Y101942D01*
X713430Y100984D01*
X715910Y100658D01*
X718390Y100984D01*
X720701Y101942D01*
X722685Y103464D01*
X724208Y105449D01*
X725165Y107760D01*
X725492Y110240D01*
X725165Y112720D01*
X724208Y115031D01*
X722685Y117015D01*
X720701Y118538D01*
X718390Y119495D01*
X715910Y119822D01*
D02*
G37*
G36*
X-20000Y95368D02*
X-22341Y94902D01*
X-24326Y93576D01*
X-25652Y91591D01*
X-26118Y89250D01*
X-25652Y86909D01*
X-24326Y84924D01*
X-22341Y83598D01*
X-20000Y83132D01*
X-17659Y83598D01*
X-15674Y84924D01*
X-14348Y86909D01*
X-13882Y89250D01*
X-14348Y91591D01*
X-15674Y93576D01*
X-17659Y94902D01*
X-20000Y95368D01*
D02*
G37*
G36*
X591650Y105319D02*
X589575Y105045D01*
X587641Y104244D01*
X585980Y102970D01*
X584706Y101309D01*
X583904Y99375D01*
X583631Y97300D01*
X583904Y95225D01*
X584706Y93291D01*
X585980Y91630D01*
X587641Y90356D01*
X589575Y89555D01*
X591650Y89281D01*
X593725Y89555D01*
X595659Y90356D01*
X597320Y91630D01*
X598594Y93291D01*
X599395Y95225D01*
X599669Y97300D01*
X599395Y99375D01*
X598594Y101309D01*
X597320Y102970D01*
X595659Y104244D01*
X593725Y105045D01*
X591650Y105319D01*
D02*
G37*
G36*
X485250Y104598D02*
X483299Y104210D01*
X481645Y103105D01*
X480540Y101451D01*
X480152Y99500D01*
X480540Y97549D01*
X481645Y95895D01*
X483299Y94790D01*
X485250Y94402D01*
X487201Y94790D01*
X488855Y95895D01*
X489960Y97549D01*
X490348Y99500D01*
X489960Y101451D01*
X488855Y103105D01*
X487201Y104210D01*
X485250Y104598D01*
D02*
G37*
G36*
X549750Y192398D02*
X547799Y192010D01*
X546145Y190905D01*
X545040Y189251D01*
X544652Y187300D01*
X545040Y185349D01*
X546145Y183695D01*
X547090Y183064D01*
Y181536D01*
X546145Y180905D01*
X545040Y179251D01*
X544652Y177300D01*
X545040Y175349D01*
X546145Y173695D01*
X547090Y173064D01*
Y171536D01*
X546145Y170905D01*
X545040Y169251D01*
X544652Y167300D01*
X545040Y165349D01*
X546145Y163695D01*
X547090Y163064D01*
Y161536D01*
X546145Y160905D01*
X545040Y159251D01*
X544652Y157300D01*
X545040Y155349D01*
X546145Y153695D01*
X547090Y153064D01*
Y151536D01*
X546145Y150905D01*
X545040Y149251D01*
X544652Y147300D01*
X545040Y145349D01*
X546145Y143695D01*
X547090Y143064D01*
Y141536D01*
X546145Y140905D01*
X545040Y139251D01*
X544652Y137300D01*
X545040Y135349D01*
X546145Y133695D01*
X547090Y133064D01*
Y131536D01*
X546145Y130905D01*
X545040Y129251D01*
X544652Y127300D01*
X545040Y125349D01*
X546145Y123695D01*
X547090Y123064D01*
Y121536D01*
X546145Y120905D01*
X545040Y119251D01*
X544652Y117300D01*
X545040Y115349D01*
X546145Y113695D01*
X547090Y113064D01*
Y111536D01*
X546145Y110905D01*
X545040Y109251D01*
X544652Y107300D01*
X545040Y105349D01*
X546145Y103695D01*
X547799Y102590D01*
X549750Y102202D01*
X551701Y102590D01*
X553355Y103695D01*
X554460Y105349D01*
X554848Y107300D01*
X554460Y109251D01*
X553355Y110905D01*
X552410Y111536D01*
Y113064D01*
X553355Y113695D01*
X554460Y115349D01*
X554848Y117300D01*
X554460Y119251D01*
X553355Y120905D01*
X552410Y121536D01*
Y123064D01*
X553355Y123695D01*
X554460Y125349D01*
X554848Y127300D01*
X554460Y129251D01*
X553355Y130905D01*
X552410Y131536D01*
Y133064D01*
X553355Y133695D01*
X554460Y135349D01*
X554848Y137300D01*
X554460Y139251D01*
X553355Y140905D01*
X552410Y141536D01*
Y143064D01*
X553355Y143695D01*
X554460Y145349D01*
X554848Y147300D01*
X554460Y149251D01*
X553355Y150905D01*
X552410Y151536D01*
Y153064D01*
X553355Y153695D01*
X554460Y155349D01*
X554848Y157300D01*
X554460Y159251D01*
X553355Y160905D01*
X552410Y161536D01*
Y163064D01*
X553355Y163695D01*
X554460Y165349D01*
X554848Y167300D01*
X554460Y169251D01*
X553355Y170905D01*
X552410Y171536D01*
Y173064D01*
X553355Y173695D01*
X554460Y175349D01*
X554848Y177300D01*
X554460Y179251D01*
X553355Y180905D01*
X552410Y181536D01*
Y183064D01*
X553355Y183695D01*
X554460Y185349D01*
X554848Y187300D01*
X554460Y189251D01*
X553355Y190905D01*
X551701Y192010D01*
X549750Y192398D01*
D02*
G37*
G36*
X633550D02*
X631599Y192010D01*
X629945Y190905D01*
X628840Y189251D01*
X628452Y187300D01*
X628840Y185349D01*
X629945Y183695D01*
X630890Y183064D01*
Y181536D01*
X629945Y180905D01*
X628840Y179251D01*
X628452Y177300D01*
X628840Y175349D01*
X629945Y173695D01*
X630890Y173064D01*
Y171536D01*
X629945Y170905D01*
X628840Y169251D01*
X628452Y167300D01*
X628840Y165349D01*
X629945Y163695D01*
X630890Y163064D01*
Y161536D01*
X629945Y160905D01*
X628840Y159251D01*
X628452Y157300D01*
X628840Y155349D01*
X629945Y153695D01*
X630890Y153064D01*
Y151536D01*
X629945Y150905D01*
X628840Y149251D01*
X628452Y147300D01*
X628840Y145349D01*
X629945Y143695D01*
X630890Y143064D01*
Y141536D01*
X629945Y140905D01*
X628840Y139251D01*
X628452Y137300D01*
X628840Y135349D01*
X629945Y133695D01*
X630890Y133064D01*
Y131536D01*
X629945Y130905D01*
X628840Y129251D01*
X628452Y127300D01*
X628840Y125349D01*
X629945Y123695D01*
X630890Y123064D01*
Y121536D01*
X629945Y120905D01*
X628840Y119251D01*
X628452Y117300D01*
X628840Y115349D01*
X629945Y113695D01*
X630890Y113064D01*
Y111536D01*
X629945Y110905D01*
X628840Y109251D01*
X628452Y107300D01*
X628840Y105349D01*
X629945Y103695D01*
X631599Y102590D01*
X633550Y102202D01*
X635501Y102590D01*
X637155Y103695D01*
X638260Y105349D01*
X638648Y107300D01*
X638260Y109251D01*
X637155Y110905D01*
X636210Y111536D01*
Y113064D01*
X637155Y113695D01*
X638260Y115349D01*
X638648Y117300D01*
X638260Y119251D01*
X637155Y120905D01*
X636210Y121536D01*
Y123064D01*
X637155Y123695D01*
X638260Y125349D01*
X638648Y127300D01*
X638260Y129251D01*
X637155Y130905D01*
X636210Y131536D01*
Y133064D01*
X637155Y133695D01*
X638260Y135349D01*
X638648Y137300D01*
X638260Y139251D01*
X637155Y140905D01*
X636210Y141536D01*
Y143064D01*
X637155Y143695D01*
X638260Y145349D01*
X638648Y147300D01*
X638260Y149251D01*
X637155Y150905D01*
X636210Y151536D01*
Y153064D01*
X637155Y153695D01*
X638260Y155349D01*
X638648Y157300D01*
X638260Y159251D01*
X637155Y160905D01*
X636210Y161536D01*
Y163064D01*
X637155Y163695D01*
X638260Y165349D01*
X638648Y167300D01*
X638260Y169251D01*
X637155Y170905D01*
X636210Y171536D01*
Y173064D01*
X637155Y173695D01*
X638260Y175349D01*
X638648Y177300D01*
X638260Y179251D01*
X637155Y180905D01*
X636210Y181536D01*
Y183064D01*
X637155Y183695D01*
X638260Y185349D01*
X638648Y187300D01*
X638260Y189251D01*
X637155Y190905D01*
X635501Y192010D01*
X633550Y192398D01*
D02*
G37*
G36*
X591650Y123019D02*
X589575Y122745D01*
X587641Y121944D01*
X585980Y120670D01*
X584706Y119009D01*
X583904Y117075D01*
X583631Y115000D01*
X583904Y112925D01*
X584706Y110991D01*
X585980Y109330D01*
X587641Y108056D01*
X589575Y107255D01*
X591650Y106981D01*
X593725Y107255D01*
X595659Y108056D01*
X597320Y109330D01*
X598594Y110991D01*
X599395Y112925D01*
X599669Y115000D01*
X599395Y117075D01*
X598594Y119009D01*
X597320Y120670D01*
X595659Y121944D01*
X593725Y122745D01*
X591650Y123019D01*
D02*
G37*
G36*
X741310Y119822D02*
X738830Y119495D01*
X736519Y118538D01*
X734534Y117015D01*
X733012Y115031D01*
X732054Y112720D01*
X731728Y110240D01*
X732054Y107760D01*
X733012Y105449D01*
X734534Y103464D01*
X736519Y101942D01*
X738830Y100984D01*
X741310Y100658D01*
X743790Y100984D01*
X746101Y101942D01*
X748085Y103464D01*
X749608Y105449D01*
X750565Y107760D01*
X750892Y110240D01*
X750565Y112720D01*
X749608Y115031D01*
X748085Y117015D01*
X746101Y118538D01*
X743790Y119495D01*
X741310Y119822D01*
D02*
G37*
G36*
X766710D02*
X764230Y119495D01*
X761919Y118538D01*
X759934Y117015D01*
X758412Y115031D01*
X757454Y112720D01*
X757128Y110240D01*
X757454Y107760D01*
X758412Y105449D01*
X759934Y103464D01*
X761919Y101942D01*
X764230Y100984D01*
X766710Y100658D01*
X769190Y100984D01*
X771501Y101942D01*
X773485Y103464D01*
X775008Y105449D01*
X775965Y107760D01*
X776292Y110240D01*
X775965Y112720D01*
X775008Y115031D01*
X773485Y117015D01*
X771501Y118538D01*
X769190Y119495D01*
X766710Y119822D01*
D02*
G37*
G36*
X792110D02*
X789630Y119495D01*
X787319Y118538D01*
X785334Y117015D01*
X783812Y115031D01*
X782854Y112720D01*
X782528Y110240D01*
X782854Y107760D01*
X783812Y105449D01*
X785334Y103464D01*
X787319Y101942D01*
X789630Y100984D01*
X792110Y100658D01*
X794590Y100984D01*
X796901Y101942D01*
X798885Y103464D01*
X800408Y105449D01*
X801365Y107760D01*
X801692Y110240D01*
X801365Y112720D01*
X800408Y115031D01*
X798885Y117015D01*
X796901Y118538D01*
X794590Y119495D01*
X792110Y119822D01*
D02*
G37*
G36*
X741310Y69022D02*
X738830Y68695D01*
X736519Y67738D01*
X734534Y66215D01*
X733012Y64231D01*
X732054Y61920D01*
X731728Y59440D01*
X732054Y56960D01*
X733012Y54649D01*
X734534Y52664D01*
X736519Y51142D01*
X738830Y50184D01*
X741310Y49858D01*
X743790Y50184D01*
X746101Y51142D01*
X748085Y52664D01*
X749608Y54649D01*
X750565Y56960D01*
X750892Y59440D01*
X750565Y61920D01*
X749608Y64231D01*
X748085Y66215D01*
X746101Y67738D01*
X743790Y68695D01*
X741310Y69022D01*
D02*
G37*
G36*
X766710D02*
X764230Y68695D01*
X761919Y67738D01*
X759934Y66215D01*
X758412Y64231D01*
X757454Y61920D01*
X757128Y59440D01*
X757454Y56960D01*
X758412Y54649D01*
X759934Y52664D01*
X761919Y51142D01*
X764230Y50184D01*
X766710Y49858D01*
X769190Y50184D01*
X771501Y51142D01*
X773485Y52664D01*
X775008Y54649D01*
X775965Y56960D01*
X776292Y59440D01*
X775965Y61920D01*
X775008Y64231D01*
X773485Y66215D01*
X771501Y67738D01*
X769190Y68695D01*
X766710Y69022D01*
D02*
G37*
G36*
X792110D02*
X789630Y68695D01*
X787319Y67738D01*
X785334Y66215D01*
X783812Y64231D01*
X782854Y61920D01*
X782528Y59440D01*
X782854Y56960D01*
X783812Y54649D01*
X785334Y52664D01*
X787319Y51142D01*
X789630Y50184D01*
X792110Y49858D01*
X794590Y50184D01*
X796901Y51142D01*
X798885Y52664D01*
X800408Y54649D01*
X801365Y56960D01*
X801692Y59440D01*
X801365Y61920D01*
X800408Y64231D01*
X798885Y66215D01*
X796901Y67738D01*
X794590Y68695D01*
X792110Y69022D01*
D02*
G37*
G36*
X766710Y43622D02*
X764230Y43295D01*
X761919Y42338D01*
X759934Y40815D01*
X758412Y38831D01*
X757454Y36520D01*
X757128Y34040D01*
X757454Y31560D01*
X758412Y29249D01*
X759934Y27264D01*
X761919Y25742D01*
X764230Y24785D01*
X766710Y24458D01*
X769190Y24785D01*
X771501Y25742D01*
X773485Y27264D01*
X775008Y29249D01*
X775965Y31560D01*
X776292Y34040D01*
X775965Y36520D01*
X775008Y38831D01*
X773485Y40815D01*
X771501Y42338D01*
X769190Y43295D01*
X766710Y43622D01*
D02*
G37*
G36*
X792110D02*
X789630Y43295D01*
X787319Y42338D01*
X785334Y40815D01*
X783812Y38831D01*
X782854Y36520D01*
X782528Y34040D01*
X782854Y31560D01*
X783812Y29249D01*
X785334Y27264D01*
X787319Y25742D01*
X789630Y24785D01*
X792110Y24458D01*
X794590Y24785D01*
X796901Y25742D01*
X798885Y27264D01*
X800408Y29249D01*
X801365Y31560D01*
X801692Y34040D01*
X801365Y36520D01*
X800408Y38831D01*
X798885Y40815D01*
X796901Y42338D01*
X794590Y43295D01*
X792110Y43622D01*
D02*
G37*
G36*
X715910Y69022D02*
X713430Y68695D01*
X711119Y67738D01*
X709134Y66215D01*
X707612Y64231D01*
X706654Y61920D01*
X706328Y59440D01*
X706654Y56960D01*
X707612Y54649D01*
X709134Y52664D01*
X711119Y51142D01*
X713430Y50184D01*
X715910Y49858D01*
X718390Y50184D01*
X720701Y51142D01*
X722685Y52664D01*
X724208Y54649D01*
X725165Y56960D01*
X725492Y59440D01*
X725165Y61920D01*
X724208Y64231D01*
X722685Y66215D01*
X720701Y67738D01*
X718390Y68695D01*
X715910Y69022D01*
D02*
G37*
G36*
X741310Y94422D02*
X738830Y94095D01*
X736519Y93138D01*
X734534Y91615D01*
X733012Y89631D01*
X732054Y87320D01*
X731728Y84840D01*
X732054Y82360D01*
X733012Y80049D01*
X734534Y78064D01*
X736519Y76542D01*
X738830Y75585D01*
X741310Y75258D01*
X743790Y75585D01*
X746101Y76542D01*
X748085Y78064D01*
X749608Y80049D01*
X750565Y82360D01*
X750892Y84840D01*
X750565Y87320D01*
X749608Y89631D01*
X748085Y91615D01*
X746101Y93138D01*
X743790Y94095D01*
X741310Y94422D01*
D02*
G37*
G36*
X766710D02*
X764230Y94095D01*
X761919Y93138D01*
X759934Y91615D01*
X758412Y89631D01*
X757454Y87320D01*
X757128Y84840D01*
X757454Y82360D01*
X758412Y80049D01*
X759934Y78064D01*
X761919Y76542D01*
X764230Y75585D01*
X766710Y75258D01*
X769190Y75585D01*
X771501Y76542D01*
X773485Y78064D01*
X775008Y80049D01*
X775965Y82360D01*
X776292Y84840D01*
X775965Y87320D01*
X775008Y89631D01*
X773485Y91615D01*
X771501Y93138D01*
X769190Y94095D01*
X766710Y94422D01*
D02*
G37*
G36*
X792110D02*
X789630Y94095D01*
X787319Y93138D01*
X785334Y91615D01*
X783812Y89631D01*
X782854Y87320D01*
X782528Y84840D01*
X782854Y82360D01*
X783812Y80049D01*
X785334Y78064D01*
X787319Y76542D01*
X789630Y75585D01*
X792110Y75258D01*
X794590Y75585D01*
X796901Y76542D01*
X798885Y78064D01*
X800408Y80049D01*
X801365Y82360D01*
X801692Y84840D01*
X801365Y87320D01*
X800408Y89631D01*
X798885Y91615D01*
X796901Y93138D01*
X794590Y94095D01*
X792110Y94422D01*
D02*
G37*
G36*
X-20000Y65368D02*
X-22341Y64902D01*
X-24326Y63576D01*
X-25652Y61591D01*
X-26118Y59250D01*
X-25652Y56909D01*
X-24326Y54924D01*
X-22341Y53598D01*
X-20000Y53133D01*
X-17659Y53598D01*
X-15674Y54924D01*
X-14348Y56909D01*
X-13882Y59250D01*
X-14348Y61591D01*
X-15674Y63576D01*
X-17659Y64902D01*
X-20000Y65368D01*
D02*
G37*
G36*
Y80368D02*
X-22341Y79902D01*
X-24326Y78576D01*
X-25652Y76591D01*
X-26118Y74250D01*
X-25652Y71909D01*
X-24326Y69924D01*
X-22341Y68598D01*
X-20000Y68133D01*
X-17659Y68598D01*
X-15674Y69924D01*
X-14348Y71909D01*
X-13882Y74250D01*
X-14348Y76591D01*
X-15674Y78576D01*
X-17659Y79902D01*
X-20000Y80368D01*
D02*
G37*
G36*
X715910Y94422D02*
X713430Y94095D01*
X711119Y93138D01*
X709134Y91615D01*
X707612Y89631D01*
X706654Y87320D01*
X706328Y84840D01*
X706654Y82360D01*
X707612Y80049D01*
X709134Y78064D01*
X711119Y76542D01*
X713430Y75585D01*
X715910Y75258D01*
X718390Y75585D01*
X720701Y76542D01*
X722685Y78064D01*
X724208Y80049D01*
X725165Y82360D01*
X725492Y84840D01*
X725165Y87320D01*
X724208Y89631D01*
X722685Y91615D01*
X720701Y93138D01*
X718390Y94095D01*
X715910Y94422D01*
D02*
G37*
G36*
X485250Y166285D02*
X483299Y165897D01*
X481645Y164792D01*
X480540Y163138D01*
X480152Y161187D01*
X480540Y159237D01*
X481645Y157583D01*
X483299Y156478D01*
X485250Y156090D01*
X487201Y156478D01*
X488855Y157583D01*
X489960Y159237D01*
X490348Y161187D01*
X489960Y163138D01*
X488855Y164792D01*
X487201Y165897D01*
X485250Y166285D01*
D02*
G37*
G36*
X524750D02*
X522799Y165897D01*
X521145Y164792D01*
X520040Y163138D01*
X519652Y161187D01*
X520040Y159237D01*
X521145Y157583D01*
X522799Y156478D01*
X524750Y156090D01*
X526701Y156478D01*
X528355Y157583D01*
X529460Y159237D01*
X529848Y161187D01*
X529460Y163138D01*
X528355Y164792D01*
X526701Y165897D01*
X524750Y166285D01*
D02*
G37*
G36*
X-20000Y170368D02*
X-22341Y169902D01*
X-24326Y168576D01*
X-25652Y166591D01*
X-26118Y164250D01*
X-25652Y161909D01*
X-24326Y159924D01*
X-22341Y158598D01*
X-20000Y158132D01*
X-17659Y158598D01*
X-15674Y159924D01*
X-14348Y161909D01*
X-13882Y164250D01*
X-14348Y166591D01*
X-15674Y168576D01*
X-17659Y169902D01*
X-20000Y170368D01*
D02*
G37*
G36*
X741310Y170622D02*
X738830Y170295D01*
X736519Y169338D01*
X734534Y167815D01*
X733012Y165831D01*
X732054Y163520D01*
X731728Y161040D01*
X732054Y158560D01*
X733012Y156249D01*
X734534Y154264D01*
X736519Y152742D01*
X738830Y151784D01*
X741310Y151458D01*
X743790Y151784D01*
X746101Y152742D01*
X748085Y154264D01*
X749608Y156249D01*
X750565Y158560D01*
X750892Y161040D01*
X750565Y163520D01*
X749608Y165831D01*
X748085Y167815D01*
X746101Y169338D01*
X743790Y170295D01*
X741310Y170622D01*
D02*
G37*
G36*
X766710D02*
X764230Y170295D01*
X761919Y169338D01*
X759934Y167815D01*
X758412Y165831D01*
X757454Y163520D01*
X757128Y161040D01*
X757454Y158560D01*
X758412Y156249D01*
X759934Y154264D01*
X761919Y152742D01*
X764230Y151784D01*
X766710Y151458D01*
X769190Y151784D01*
X771501Y152742D01*
X773485Y154264D01*
X775008Y156249D01*
X775965Y158560D01*
X776292Y161040D01*
X775965Y163520D01*
X775008Y165831D01*
X773485Y167815D01*
X771501Y169338D01*
X769190Y170295D01*
X766710Y170622D01*
D02*
G37*
G36*
X792110D02*
X789630Y170295D01*
X787319Y169338D01*
X785334Y167815D01*
X783812Y165831D01*
X782854Y163520D01*
X782528Y161040D01*
X782854Y158560D01*
X783812Y156249D01*
X785334Y154264D01*
X787319Y152742D01*
X789630Y151784D01*
X792110Y151458D01*
X794590Y151784D01*
X796901Y152742D01*
X798885Y154264D01*
X800408Y156249D01*
X801365Y158560D01*
X801692Y161040D01*
X801365Y163520D01*
X800408Y165831D01*
X798885Y167815D01*
X796901Y169338D01*
X794590Y170295D01*
X792110Y170622D01*
D02*
G37*
G36*
X766710Y196022D02*
X764230Y195695D01*
X761919Y194738D01*
X759934Y193215D01*
X758412Y191231D01*
X757454Y188920D01*
X757128Y186440D01*
X757454Y183960D01*
X758412Y181649D01*
X759934Y179664D01*
X761919Y178142D01*
X764230Y177185D01*
X766710Y176858D01*
X769190Y177185D01*
X771501Y178142D01*
X773485Y179664D01*
X775008Y181649D01*
X775965Y183960D01*
X776292Y186440D01*
X775965Y188920D01*
X775008Y191231D01*
X773485Y193215D01*
X771501Y194738D01*
X769190Y195695D01*
X766710Y196022D01*
D02*
G37*
G36*
X792110D02*
X789630Y195695D01*
X787319Y194738D01*
X785334Y193215D01*
X783812Y191231D01*
X782854Y188920D01*
X782528Y186440D01*
X782854Y183960D01*
X783812Y181649D01*
X785334Y179664D01*
X787319Y178142D01*
X789630Y177185D01*
X792110Y176858D01*
X794590Y177185D01*
X796901Y178142D01*
X798885Y179664D01*
X800408Y181649D01*
X801365Y183960D01*
X801692Y186440D01*
X801365Y188920D01*
X800408Y191231D01*
X798885Y193215D01*
X796901Y194738D01*
X794590Y195695D01*
X792110Y196022D01*
D02*
G37*
G36*
X187000Y188098D02*
X185049Y187710D01*
X183395Y186605D01*
X182290Y184951D01*
X181902Y183000D01*
X182290Y181049D01*
X183395Y179395D01*
X185049Y178290D01*
X187000Y177902D01*
X188951Y178290D01*
X190605Y179395D01*
X191710Y181049D01*
X192098Y183000D01*
X191710Y184951D01*
X190605Y186605D01*
X188951Y187710D01*
X187000Y188098D01*
D02*
G37*
G36*
X524750Y186848D02*
X522799Y186460D01*
X521145Y185355D01*
X520040Y183701D01*
X519652Y181750D01*
X520040Y179799D01*
X521145Y178145D01*
X522799Y177040D01*
X524750Y176652D01*
X526701Y177040D01*
X528355Y178145D01*
X529460Y179799D01*
X529848Y181750D01*
X529460Y183701D01*
X528355Y185355D01*
X526701Y186460D01*
X524750Y186848D01*
D02*
G37*
G36*
X715910Y196022D02*
X713430Y195695D01*
X711119Y194738D01*
X709134Y193215D01*
X707612Y191231D01*
X706654Y188920D01*
X706328Y186440D01*
X706654Y183960D01*
X707612Y181649D01*
X709134Y179664D01*
X711119Y178142D01*
X713430Y177185D01*
X715910Y176858D01*
X718390Y177185D01*
X720701Y178142D01*
X722685Y179664D01*
X724208Y181649D01*
X725165Y183960D01*
X725492Y186440D01*
X725165Y188920D01*
X724208Y191231D01*
X722685Y193215D01*
X720701Y194738D01*
X718390Y195695D01*
X715910Y196022D01*
D02*
G37*
G36*
X741310D02*
X738830Y195695D01*
X736519Y194738D01*
X734534Y193215D01*
X733012Y191231D01*
X732054Y188920D01*
X731728Y186440D01*
X732054Y183960D01*
X733012Y181649D01*
X734534Y179664D01*
X736519Y178142D01*
X738830Y177185D01*
X741310Y176858D01*
X743790Y177185D01*
X746101Y178142D01*
X748085Y179664D01*
X749608Y181649D01*
X750565Y183960D01*
X750892Y186440D01*
X750565Y188920D01*
X749608Y191231D01*
X748085Y193215D01*
X746101Y194738D01*
X743790Y195695D01*
X741310Y196022D01*
D02*
G37*
G36*
X715910Y145222D02*
X713430Y144895D01*
X711119Y143938D01*
X709134Y142415D01*
X707612Y140431D01*
X706654Y138120D01*
X706328Y135640D01*
X706654Y133160D01*
X707612Y130849D01*
X709134Y128864D01*
X711119Y127342D01*
X713430Y126384D01*
X715910Y126058D01*
X718390Y126384D01*
X720701Y127342D01*
X722685Y128864D01*
X724208Y130849D01*
X725165Y133160D01*
X725492Y135640D01*
X725165Y138120D01*
X724208Y140431D01*
X722685Y142415D01*
X720701Y143938D01*
X718390Y144895D01*
X715910Y145222D01*
D02*
G37*
G36*
X741310D02*
X738830Y144895D01*
X736519Y143938D01*
X734534Y142415D01*
X733012Y140431D01*
X732054Y138120D01*
X731728Y135640D01*
X732054Y133160D01*
X733012Y130849D01*
X734534Y128864D01*
X736519Y127342D01*
X738830Y126384D01*
X741310Y126058D01*
X743790Y126384D01*
X746101Y127342D01*
X748085Y128864D01*
X749608Y130849D01*
X750565Y133160D01*
X750892Y135640D01*
X750565Y138120D01*
X749608Y140431D01*
X748085Y142415D01*
X746101Y143938D01*
X743790Y144895D01*
X741310Y145222D01*
D02*
G37*
G36*
X766710D02*
X764230Y144895D01*
X761919Y143938D01*
X759934Y142415D01*
X758412Y140431D01*
X757454Y138120D01*
X757128Y135640D01*
X757454Y133160D01*
X758412Y130849D01*
X759934Y128864D01*
X761919Y127342D01*
X764230Y126384D01*
X766710Y126058D01*
X769190Y126384D01*
X771501Y127342D01*
X773485Y128864D01*
X775008Y130849D01*
X775965Y133160D01*
X776292Y135640D01*
X775965Y138120D01*
X775008Y140431D01*
X773485Y142415D01*
X771501Y143938D01*
X769190Y144895D01*
X766710Y145222D01*
D02*
G37*
G36*
X-20000Y125367D02*
X-22341Y124902D01*
X-24326Y123576D01*
X-25652Y121591D01*
X-26118Y119250D01*
X-25652Y116909D01*
X-24326Y114924D01*
X-22341Y113598D01*
X-20000Y113132D01*
X-17659Y113598D01*
X-15674Y114924D01*
X-14348Y116909D01*
X-13882Y119250D01*
X-14348Y121591D01*
X-15674Y123576D01*
X-17659Y124902D01*
X-20000Y125367D01*
D02*
G37*
G36*
X485250Y125161D02*
X483299Y124772D01*
X481645Y123667D01*
X480540Y122013D01*
X480152Y120063D01*
X480540Y118112D01*
X481645Y116458D01*
X483299Y115353D01*
X485250Y114965D01*
X487201Y115353D01*
X488855Y116458D01*
X489960Y118112D01*
X490348Y120063D01*
X489960Y122013D01*
X488855Y123667D01*
X487201Y124772D01*
X485250Y125161D01*
D02*
G37*
G36*
X524750D02*
X522799Y124772D01*
X521145Y123667D01*
X520040Y122013D01*
X519652Y120063D01*
X520040Y118112D01*
X521145Y116458D01*
X522799Y115353D01*
X524750Y114965D01*
X526701Y115353D01*
X528355Y116458D01*
X529460Y118112D01*
X529848Y120063D01*
X529460Y122013D01*
X528355Y123667D01*
X526701Y124772D01*
X524750Y125161D01*
D02*
G37*
G36*
Y145723D02*
X522799Y145335D01*
X521145Y144230D01*
X520040Y142576D01*
X519652Y140625D01*
X520040Y138674D01*
X521145Y137020D01*
X522799Y135915D01*
X524750Y135527D01*
X526701Y135915D01*
X528355Y137020D01*
X529460Y138674D01*
X529848Y140625D01*
X529460Y142576D01*
X528355Y144230D01*
X526701Y145335D01*
X524750Y145723D01*
D02*
G37*
G36*
X-20000Y155367D02*
X-22341Y154902D01*
X-24326Y153576D01*
X-25652Y151591D01*
X-26118Y149250D01*
X-25652Y146909D01*
X-24326Y144924D01*
X-22341Y143598D01*
X-20000Y143132D01*
X-17659Y143598D01*
X-15674Y144924D01*
X-14348Y146909D01*
X-13882Y149250D01*
X-14348Y151591D01*
X-15674Y153576D01*
X-17659Y154902D01*
X-20000Y155367D01*
D02*
G37*
G36*
X715910Y170622D02*
X713430Y170295D01*
X711119Y169338D01*
X709134Y167815D01*
X707612Y165831D01*
X706654Y163520D01*
X706328Y161040D01*
X706654Y158560D01*
X707612Y156249D01*
X709134Y154264D01*
X711119Y152742D01*
X713430Y151784D01*
X715910Y151458D01*
X718390Y151784D01*
X720701Y152742D01*
X722685Y154264D01*
X724208Y156249D01*
X725165Y158560D01*
X725492Y161040D01*
X725165Y163520D01*
X724208Y165831D01*
X722685Y167815D01*
X720701Y169338D01*
X718390Y170295D01*
X715910Y170622D01*
D02*
G37*
G36*
X792110Y145222D02*
X789630Y144895D01*
X787319Y143938D01*
X785334Y142415D01*
X783812Y140431D01*
X782854Y138120D01*
X782528Y135640D01*
X782854Y133160D01*
X783812Y130849D01*
X785334Y128864D01*
X787319Y127342D01*
X789630Y126384D01*
X792110Y126058D01*
X794590Y126384D01*
X796901Y127342D01*
X798885Y128864D01*
X800408Y130849D01*
X801365Y133160D01*
X801692Y135640D01*
X801365Y138120D01*
X800408Y140431D01*
X798885Y142415D01*
X796901Y143938D01*
X794590Y144895D01*
X792110Y145222D01*
D02*
G37*
G36*
X-20000Y140367D02*
X-22341Y139902D01*
X-24326Y138576D01*
X-25652Y136591D01*
X-26118Y134250D01*
X-25652Y131909D01*
X-24326Y129924D01*
X-22341Y128598D01*
X-20000Y128132D01*
X-17659Y128598D01*
X-15674Y129924D01*
X-14348Y131909D01*
X-13882Y134250D01*
X-14348Y136591D01*
X-15674Y138576D01*
X-17659Y139902D01*
X-20000Y140367D01*
D02*
G37*
G36*
X485250Y145723D02*
X483299Y145335D01*
X481645Y144230D01*
X480540Y142576D01*
X480152Y140625D01*
X480540Y138674D01*
X481645Y137020D01*
X483299Y135915D01*
X485250Y135527D01*
X487201Y135915D01*
X488855Y137020D01*
X489960Y138674D01*
X490348Y140625D01*
X489960Y142576D01*
X488855Y144230D01*
X487201Y145335D01*
X485250Y145723D01*
D02*
G37*
%LPD*%
D36*
X591650Y-232300D02*
X593000D01*
X-39833Y-476253D02*
Y-486250D01*
X-33169D01*
X-23172D02*
X-29837D01*
X-23172Y-479585D01*
Y-477919D01*
X-24838Y-476253D01*
X-28170D01*
X-29837Y-477919D01*
D37*
X80000Y-56650D02*
D03*
Y56650D02*
D03*
D38*
X591650Y-340000D02*
D03*
Y-250000D02*
D03*
Y205000D02*
D03*
Y115000D02*
D03*
Y-232300D02*
D03*
Y-322300D02*
D03*
Y97300D02*
D03*
Y187300D02*
D03*
Y232300D02*
D03*
Y322300D02*
D03*
Y-205000D02*
D03*
Y-115000D02*
D03*
Y340000D02*
D03*
Y250000D02*
D03*
Y-187300D02*
D03*
Y-97300D02*
D03*
D39*
X766710Y313440D02*
D03*
X792110D02*
D03*
X766710Y288040D02*
D03*
X792110D02*
D03*
X766710Y262640D02*
D03*
X792110D02*
D03*
X766710Y237240D02*
D03*
X792110D02*
D03*
X766710Y211840D02*
D03*
X792110D02*
D03*
X766710Y186440D02*
D03*
X792110D02*
D03*
X766710Y161040D02*
D03*
X792110D02*
D03*
X766710Y135640D02*
D03*
X792110D02*
D03*
X766710Y110240D02*
D03*
X792110D02*
D03*
X766710Y84840D02*
D03*
X792110D02*
D03*
X766710Y59440D02*
D03*
X792110D02*
D03*
X766710Y34040D02*
D03*
X792110D02*
D03*
X766710Y8640D02*
D03*
X792110D02*
D03*
X766710Y-16760D02*
D03*
X792110D02*
D03*
X766710Y-42160D02*
D03*
X792110D02*
D03*
X766710Y-67560D02*
D03*
X792110D02*
D03*
X766710Y-92960D02*
D03*
X792110D02*
D03*
X766710Y-118360D02*
D03*
X792110D02*
D03*
X766710Y-143760D02*
D03*
X792110D02*
D03*
X766710Y-169160D02*
D03*
X792110D02*
D03*
X766710Y-194560D02*
D03*
X792110D02*
D03*
X766710Y-219960D02*
D03*
X792110D02*
D03*
X766710Y-245360D02*
D03*
X792110D02*
D03*
X766710Y-270760D02*
D03*
X792110D02*
D03*
X766710Y-296160D02*
D03*
X792110D02*
D03*
X766710Y-321560D02*
D03*
X792110D02*
D03*
X741310D02*
D03*
X715910D02*
D03*
X741310Y-296160D02*
D03*
X715910D02*
D03*
X741310Y-270760D02*
D03*
X715910D02*
D03*
X741310Y-245360D02*
D03*
X715910D02*
D03*
X741310Y-219960D02*
D03*
X715910D02*
D03*
X741310Y-194560D02*
D03*
X715910D02*
D03*
X741310Y-169160D02*
D03*
X715910D02*
D03*
X741310Y-143760D02*
D03*
X715910D02*
D03*
X741310Y-118360D02*
D03*
X715910D02*
D03*
X741310Y-92960D02*
D03*
X715910D02*
D03*
X741310Y-67560D02*
D03*
X715910D02*
D03*
X741310Y-42160D02*
D03*
X715910D02*
D03*
X741310Y-16760D02*
D03*
X715910D02*
D03*
X741310Y8640D02*
D03*
X715910D02*
D03*
X741310Y34040D02*
D03*
X715910D02*
D03*
X741310Y59440D02*
D03*
X715910D02*
D03*
X741310Y84840D02*
D03*
X715910D02*
D03*
X741310Y110240D02*
D03*
X715910D02*
D03*
X741310Y135640D02*
D03*
X715910D02*
D03*
X741310Y161040D02*
D03*
X715910D02*
D03*
X741310Y186440D02*
D03*
X715910D02*
D03*
X741310Y211840D02*
D03*
X715910D02*
D03*
X741310Y237240D02*
D03*
X715910D02*
D03*
X741310Y262640D02*
D03*
X715910D02*
D03*
X741310Y288040D02*
D03*
X715910D02*
D03*
X741310Y313440D02*
D03*
X715910D02*
D03*
D40*
X-68650Y-400000D02*
D03*
Y400100D02*
D03*
X788650Y-374600D02*
D03*
Y362000D02*
D03*
D41*
X31350Y-387300D02*
D03*
Y-50000D02*
D03*
Y50000D02*
D03*
Y387300D02*
D03*
X618650Y-50000D02*
D03*
Y50000D02*
D03*
Y387300D02*
D03*
Y-387300D02*
D03*
D42*
X540000Y-392500D02*
D03*
Y-407750D02*
D03*
X550750Y400500D02*
D03*
Y411750D02*
D03*
X388750Y-303000D02*
D03*
X0Y330000D02*
D03*
Y345000D02*
D03*
X520000Y430000D02*
D03*
X500000D02*
D03*
X540000Y-430000D02*
D03*
X520000D02*
D03*
X225000Y0D02*
D03*
X240000D02*
D03*
D43*
X569250Y-414500D02*
D03*
X427250D02*
D03*
X397000D02*
D03*
X210000D02*
D03*
X174000D02*
D03*
X77000D02*
D03*
X-72000Y-181750D02*
D03*
Y5250D02*
D03*
X75000Y415250D02*
D03*
X217000D02*
D03*
X302250D02*
D03*
X429250D02*
D03*
X478000D02*
D03*
X575000D02*
D03*
X402250Y-303000D02*
D03*
X417250D02*
D03*
X191000Y363250D02*
D03*
X176000D02*
D03*
X131000D02*
D03*
X116000D02*
D03*
X101000D02*
D03*
X453250Y-362500D02*
D03*
X468250D02*
D03*
X513250D02*
D03*
X543250D02*
D03*
X528250D02*
D03*
X296000D02*
D03*
X281000D02*
D03*
X251000D02*
D03*
X236000D02*
D03*
X15000Y-310750D02*
D03*
Y-295750D02*
D03*
X15000Y-274000D02*
D03*
Y-259000D02*
D03*
X21750Y271750D02*
D03*
Y286750D02*
D03*
Y304750D02*
D03*
Y319750D02*
D03*
X-20000Y248000D02*
D03*
Y263000D02*
D03*
Y278000D02*
D03*
Y293000D02*
D03*
Y308000D02*
D03*
Y323000D02*
D03*
X-72000Y349000D02*
D03*
Y222000D02*
D03*
Y190250D02*
D03*
Y33250D02*
D03*
X-20000Y164250D02*
D03*
Y149250D02*
D03*
Y134250D02*
D03*
Y119250D02*
D03*
Y59250D02*
D03*
Y74250D02*
D03*
Y89250D02*
D03*
Y104250D02*
D03*
X-72000Y-339750D02*
D03*
Y-212750D02*
D03*
X-20000Y-238750D02*
D03*
Y-253750D02*
D03*
Y-268750D02*
D03*
Y-283750D02*
D03*
Y-298750D02*
D03*
Y-313750D02*
D03*
X685500Y-300500D02*
D03*
Y-271250D02*
D03*
X670500D02*
D03*
Y-300500D02*
D03*
X685500Y-330250D02*
D03*
X725500Y-360000D02*
D03*
X710500D02*
D03*
X670500D02*
D03*
X685500D02*
D03*
X670500Y-330250D02*
D03*
X669750Y238058D02*
D03*
X684750Y217365D02*
D03*
X669750Y217404D02*
D03*
X684750Y238250D02*
D03*
D44*
X409000Y-322500D02*
D03*
X433250D02*
D03*
X443250D02*
D03*
Y-331500D02*
D03*
X433250D02*
D03*
X409000D02*
D03*
X419000D02*
D03*
X419000Y-322500D02*
D03*
X633550Y-250000D02*
D03*
Y-260000D02*
D03*
Y-270000D02*
D03*
Y-280000D02*
D03*
Y-290000D02*
D03*
Y-300000D02*
D03*
Y-310000D02*
D03*
Y-320000D02*
D03*
Y-330000D02*
D03*
Y-340000D02*
D03*
X549750D02*
D03*
Y-330000D02*
D03*
Y-320000D02*
D03*
Y-310000D02*
D03*
Y-300000D02*
D03*
Y-290000D02*
D03*
Y-280000D02*
D03*
Y-270000D02*
D03*
Y-260000D02*
D03*
Y-250000D02*
D03*
Y322300D02*
D03*
X550000Y312500D02*
D03*
Y302500D02*
D03*
Y292500D02*
D03*
X549750Y282300D02*
D03*
Y272300D02*
D03*
Y262300D02*
D03*
Y252300D02*
D03*
Y242300D02*
D03*
Y232300D02*
D03*
X633550D02*
D03*
Y242300D02*
D03*
Y252300D02*
D03*
Y262300D02*
D03*
Y272300D02*
D03*
Y282300D02*
D03*
Y292300D02*
D03*
Y302300D02*
D03*
Y312300D02*
D03*
Y322300D02*
D03*
X549750Y97300D02*
D03*
Y107300D02*
D03*
Y117300D02*
D03*
Y127300D02*
D03*
Y137300D02*
D03*
Y147300D02*
D03*
Y157300D02*
D03*
Y167300D02*
D03*
Y177300D02*
D03*
Y187300D02*
D03*
X633550D02*
D03*
Y177300D02*
D03*
Y167300D02*
D03*
Y157300D02*
D03*
Y147300D02*
D03*
Y137300D02*
D03*
Y127300D02*
D03*
Y117300D02*
D03*
Y107300D02*
D03*
Y97300D02*
D03*
X630000Y-165000D02*
D03*
Y-155000D02*
D03*
Y-145000D02*
D03*
Y-135000D02*
D03*
Y-125000D02*
D03*
Y-115000D02*
D03*
X555000D02*
D03*
Y-125000D02*
D03*
Y-135000D02*
D03*
Y-145000D02*
D03*
Y-155000D02*
D03*
Y-165000D02*
D03*
Y-175000D02*
D03*
Y-185000D02*
D03*
Y-195000D02*
D03*
Y-205000D02*
D03*
X630000D02*
D03*
Y-195000D02*
D03*
Y-175000D02*
D03*
Y-185000D02*
D03*
X523000Y-336750D02*
D03*
X503000D02*
D03*
X484500D02*
D03*
X464500D02*
D03*
Y-316375D02*
D03*
X484500D02*
D03*
X503000D02*
D03*
X523000D02*
D03*
Y-296000D02*
D03*
X484500D02*
D03*
X503000D02*
D03*
X464500D02*
D03*
Y-275625D02*
D03*
X484500D02*
D03*
X503000D02*
D03*
X523000D02*
D03*
Y-255250D02*
D03*
X503000D02*
D03*
X524750Y181750D02*
D03*
Y161187D02*
D03*
Y140625D02*
D03*
Y120063D02*
D03*
Y99500D02*
D03*
X504750D02*
D03*
Y120063D02*
D03*
Y140625D02*
D03*
Y161187D02*
D03*
Y181750D02*
D03*
X485250Y161187D02*
D03*
Y140625D02*
D03*
Y120063D02*
D03*
Y99500D02*
D03*
X465250D02*
D03*
Y120063D02*
D03*
Y140625D02*
D03*
Y161187D02*
D03*
X187000Y183000D02*
D03*
X195750Y206750D02*
D03*
X187000Y197000D02*
D03*
X204000D02*
D03*
Y183000D02*
D03*
X174750Y185000D02*
D03*
Y195000D02*
D03*
X216500D02*
D03*
Y185000D02*
D03*
D45*
X574750Y-164750D02*
X596000D01*
X626250Y-195000D01*
X630000D01*
X572750Y-175000D02*
X595000D01*
X555000D02*
X572750D01*
X595000D02*
X604250Y-184250D01*
Y-194250D02*
Y-184250D01*
Y-194250D02*
X615000Y-205000D01*
X630000D01*
X555000Y-185000D02*
X572500D01*
X555000Y-165000D02*
X572250D01*
X555000Y-155000D02*
X572000D01*
D46*
X572750Y-175000D02*
Y-155250D01*
Y-359750D02*
Y-175000D01*
X540000Y-392500D02*
X572750Y-359750D01*
D47*
X540000Y-407750D02*
Y-392500D01*
D48*
X570000Y-56650D02*
D03*
Y56650D02*
D03*
M02*
