G04 Layer_Color=8388736*
%FSLAX44Y44*%
%MOMM*%
G71*
G01*
G75*
%ADD63R,1.6032X1.0832*%
%ADD64R,0.9032X1.1032*%
%ADD65R,0.8032X0.8032*%
%ADD66R,0.8032X0.8032*%
%ADD67R,1.0832X1.6032*%
%ADD68R,1.2532X0.8032*%
%ADD69R,2.0032X1.4532*%
%ADD70R,0.8032X1.2532*%
%ADD71R,1.4532X2.0032*%
%ADD72R,2.0032X6.1032*%
%ADD73R,1.5032X1.2032*%
%ADD74R,1.3032X1.9032*%
%ADD75R,1.9032X1.3032*%
G04:AMPARAMS|DCode=76|XSize=0.5032mm|YSize=1.0032mm|CornerRadius=0.1766mm|HoleSize=0mm|Usage=FLASHONLY|Rotation=270.000|XOffset=0mm|YOffset=0mm|HoleType=Round|Shape=RoundedRectangle|*
%AMROUNDEDRECTD76*
21,1,0.5032,0.6500,0,0,270.0*
21,1,0.1500,1.0032,0,0,270.0*
1,1,0.3532,-0.3250,-0.0750*
1,1,0.3532,-0.3250,0.0750*
1,1,0.3532,0.3250,0.0750*
1,1,0.3532,0.3250,-0.0750*
%
%ADD76ROUNDEDRECTD76*%
G04:AMPARAMS|DCode=77|XSize=0.5032mm|YSize=1.0032mm|CornerRadius=0.1766mm|HoleSize=0mm|Usage=FLASHONLY|Rotation=180.000|XOffset=0mm|YOffset=0mm|HoleType=Round|Shape=RoundedRectangle|*
%AMROUNDEDRECTD77*
21,1,0.5032,0.6500,0,0,180.0*
21,1,0.1500,1.0032,0,0,180.0*
1,1,0.3532,-0.0750,0.3250*
1,1,0.3532,0.0750,0.3250*
1,1,0.3532,0.0750,-0.3250*
1,1,0.3532,-0.0750,-0.3250*
%
%ADD77ROUNDEDRECTD77*%
G04:AMPARAMS|DCode=78|XSize=0.4732mm|YSize=0.6532mm|CornerRadius=0.1691mm|HoleSize=0mm|Usage=FLASHONLY|Rotation=180.000|XOffset=0mm|YOffset=0mm|HoleType=Round|Shape=RoundedRectangle|*
%AMROUNDEDRECTD78*
21,1,0.4732,0.3150,0,0,180.0*
21,1,0.1350,0.6532,0,0,180.0*
1,1,0.3382,-0.0675,0.1575*
1,1,0.3382,0.0675,0.1575*
1,1,0.3382,0.0675,-0.1575*
1,1,0.3382,-0.0675,-0.1575*
%
%ADD78ROUNDEDRECTD78*%
G04:AMPARAMS|DCode=79|XSize=0.5032mm|YSize=1.3032mm|CornerRadius=0.1766mm|HoleSize=0mm|Usage=FLASHONLY|Rotation=0.000|XOffset=0mm|YOffset=0mm|HoleType=Round|Shape=RoundedRectangle|*
%AMROUNDEDRECTD79*
21,1,0.5032,0.9500,0,0,0.0*
21,1,0.1500,1.3032,0,0,0.0*
1,1,0.3532,0.0750,-0.4750*
1,1,0.3532,-0.0750,-0.4750*
1,1,0.3532,-0.0750,0.4750*
1,1,0.3532,0.0750,0.4750*
%
%ADD79ROUNDEDRECTD79*%
%ADD80R,6.2032X6.2032*%
G04:AMPARAMS|DCode=81|XSize=0.5032mm|YSize=1.2032mm|CornerRadius=0.2216mm|HoleSize=0mm|Usage=FLASHONLY|Rotation=0.000|XOffset=0mm|YOffset=0mm|HoleType=Round|Shape=RoundedRectangle|*
%AMROUNDEDRECTD81*
21,1,0.5032,0.7600,0,0,0.0*
21,1,0.0600,1.2032,0,0,0.0*
1,1,0.4432,0.0300,-0.3800*
1,1,0.4432,-0.0300,-0.3800*
1,1,0.4432,-0.0300,0.3800*
1,1,0.4432,0.0300,0.3800*
%
%ADD81ROUNDEDRECTD81*%
G04:AMPARAMS|DCode=82|XSize=0.5032mm|YSize=1.2032mm|CornerRadius=0.2216mm|HoleSize=0mm|Usage=FLASHONLY|Rotation=90.000|XOffset=0mm|YOffset=0mm|HoleType=Round|Shape=RoundedRectangle|*
%AMROUNDEDRECTD82*
21,1,0.5032,0.7600,0,0,90.0*
21,1,0.0600,1.2032,0,0,90.0*
1,1,0.4432,0.3800,0.0300*
1,1,0.4432,0.3800,-0.0300*
1,1,0.4432,-0.3800,-0.0300*
1,1,0.4432,-0.3800,0.0300*
%
%ADD82ROUNDEDRECTD82*%
%ADD83R,2.4632X0.8132*%
%ADD84R,1.1032X1.0032*%
%ADD85R,2.0032X1.2032*%
%ADD86R,2.4032X0.8532*%
%ADD87R,1.2032X1.5032*%
%ADD88R,1.2032X1.0532*%
%ADD89C,3.2032*%
%ADD90C,1.3932*%
%ADD91C,1.7032*%
%ADD92C,6.2032*%
%ADD93C,6.7032*%
%ADD94C,1.2032*%
%ADD95C,1.0032*%
%ADD96C,0.8032*%
D63*
X15000Y-310750D02*
D03*
Y-295750D02*
D03*
X15000Y-259000D02*
D03*
Y-274000D02*
D03*
X21750Y319750D02*
D03*
Y304750D02*
D03*
Y286750D02*
D03*
Y271750D02*
D03*
D64*
X245000Y172500D02*
D03*
X260000D02*
D03*
D65*
X254500Y334000D02*
D03*
Y344000D02*
D03*
X265000D02*
D03*
Y334000D02*
D03*
X55250Y198000D02*
D03*
Y208000D02*
D03*
X44450D02*
D03*
Y198000D02*
D03*
X66050D02*
D03*
Y208000D02*
D03*
X87650D02*
D03*
Y198000D02*
D03*
X76850D02*
D03*
Y208000D02*
D03*
X192600Y160500D02*
D03*
Y170500D02*
D03*
X181800D02*
D03*
Y160500D02*
D03*
X203400D02*
D03*
Y170500D02*
D03*
X171000D02*
D03*
Y160500D02*
D03*
X216500Y185000D02*
D03*
Y195000D02*
D03*
X174750Y185000D02*
D03*
Y195000D02*
D03*
X363484Y195292D02*
D03*
Y185292D02*
D03*
X402984Y185543D02*
D03*
Y195543D02*
D03*
X421734Y-187500D02*
D03*
Y-177500D02*
D03*
X403234Y-236000D02*
D03*
Y-246000D02*
D03*
X361734Y-246250D02*
D03*
Y-236250D02*
D03*
X376072Y158314D02*
D03*
Y148314D02*
D03*
X210950Y-238940D02*
D03*
Y-228940D02*
D03*
X384872Y158314D02*
D03*
Y148314D02*
D03*
X219750Y-238940D02*
D03*
Y-228940D02*
D03*
X433484Y-187500D02*
D03*
Y-177500D02*
D03*
X410234D02*
D03*
Y-187500D02*
D03*
X374734Y185292D02*
D03*
Y195292D02*
D03*
X435484Y254792D02*
D03*
Y244792D02*
D03*
X411734D02*
D03*
Y254792D02*
D03*
X373734Y-246250D02*
D03*
Y-236250D02*
D03*
X423484Y244792D02*
D03*
Y254792D02*
D03*
D66*
X262000Y226900D02*
D03*
X272000D02*
D03*
X235000Y170500D02*
D03*
X225000D02*
D03*
X262000Y270100D02*
D03*
X272000D02*
D03*
Y259300D02*
D03*
X262000D02*
D03*
Y280900D02*
D03*
X272000D02*
D03*
Y302500D02*
D03*
X262000D02*
D03*
Y291700D02*
D03*
X272000D02*
D03*
Y248500D02*
D03*
X262000D02*
D03*
X272000Y205300D02*
D03*
X262000D02*
D03*
X340734Y257043D02*
D03*
X350734D02*
D03*
X349484Y-175750D02*
D03*
X339484D02*
D03*
X468984Y-228250D02*
D03*
X478984D02*
D03*
X457234Y202043D02*
D03*
X447234D02*
D03*
X340734Y244042D02*
D03*
X350734D02*
D03*
X339484Y-187500D02*
D03*
X349484D02*
D03*
X445984Y-228250D02*
D03*
X455984D02*
D03*
X433250Y-322500D02*
D03*
X443250D02*
D03*
X419000D02*
D03*
X409000D02*
D03*
X419000Y-331500D02*
D03*
X409000D02*
D03*
X433250D02*
D03*
X443250D02*
D03*
D67*
X402250Y-303000D02*
D03*
X417250D02*
D03*
X725500Y-360000D02*
D03*
X710500D02*
D03*
X670500Y-271250D02*
D03*
X685500D02*
D03*
X670500Y-300500D02*
D03*
X685500D02*
D03*
X685500Y-360000D02*
D03*
X670500D02*
D03*
X670500Y-330250D02*
D03*
X685500D02*
D03*
X684750Y238250D02*
D03*
X669750D02*
D03*
X669750Y217365D02*
D03*
X684750D02*
D03*
D68*
X-20000Y-20750D02*
D03*
Y-35750D02*
D03*
Y-50750D02*
D03*
Y-65750D02*
D03*
Y-80750D02*
D03*
Y-95750D02*
D03*
Y-110750D02*
D03*
Y-125750D02*
D03*
Y-140750D02*
D03*
Y-155750D02*
D03*
Y-238750D02*
D03*
Y-253750D02*
D03*
Y-268750D02*
D03*
Y-283750D02*
D03*
Y-298750D02*
D03*
Y-313750D02*
D03*
Y323000D02*
D03*
Y308000D02*
D03*
Y293000D02*
D03*
Y278000D02*
D03*
Y263000D02*
D03*
Y248000D02*
D03*
Y59250D02*
D03*
Y74250D02*
D03*
Y89250D02*
D03*
Y104250D02*
D03*
Y119250D02*
D03*
Y134250D02*
D03*
Y149250D02*
D03*
Y164250D02*
D03*
D69*
X-72000Y5250D02*
D03*
Y-181750D02*
D03*
Y-212750D02*
D03*
Y-339750D02*
D03*
Y349000D02*
D03*
Y222000D02*
D03*
Y33250D02*
D03*
Y190250D02*
D03*
D70*
X403250Y363250D02*
D03*
X388250D02*
D03*
X373250D02*
D03*
X358250D02*
D03*
X343250D02*
D03*
X328250D02*
D03*
X504000D02*
D03*
X519000D02*
D03*
X534000D02*
D03*
X549000D02*
D03*
X453250Y-362500D02*
D03*
X468250D02*
D03*
X483250D02*
D03*
X498250D02*
D03*
X513250D02*
D03*
X528250D02*
D03*
X543250D02*
D03*
X236000D02*
D03*
X251000D02*
D03*
X266000D02*
D03*
X281000D02*
D03*
X296000D02*
D03*
X311000D02*
D03*
X326000D02*
D03*
X341000D02*
D03*
X356000D02*
D03*
X371000D02*
D03*
X148000D02*
D03*
X133000D02*
D03*
X118000D02*
D03*
X103000D02*
D03*
X191000Y363250D02*
D03*
X176000D02*
D03*
X161000D02*
D03*
X146000D02*
D03*
X131000D02*
D03*
X116000D02*
D03*
X101000D02*
D03*
X269250Y386750D02*
D03*
X259750D02*
D03*
X250250D02*
D03*
Y359750D02*
D03*
X259750D02*
D03*
X269250D02*
D03*
D71*
X429250Y415250D02*
D03*
X302250D02*
D03*
X478000D02*
D03*
X575000D02*
D03*
X427250Y-414500D02*
D03*
X569250D02*
D03*
X210000D02*
D03*
X397000D02*
D03*
X174000D02*
D03*
X77000D02*
D03*
X217000Y415250D02*
D03*
X75000D02*
D03*
D72*
X425250Y-129000D02*
D03*
X345250D02*
D03*
X346250Y306000D02*
D03*
X426250D02*
D03*
D73*
X34500Y244500D02*
D03*
Y224500D02*
D03*
D74*
X452484Y273918D02*
D03*
X479484D02*
D03*
X449734Y-158500D02*
D03*
X476734D02*
D03*
X449734Y-108250D02*
D03*
X476734D02*
D03*
X449734Y-133375D02*
D03*
X476734D02*
D03*
X452484Y326792D02*
D03*
X479484D02*
D03*
X452484Y300355D02*
D03*
X479484D02*
D03*
X476734Y-208750D02*
D03*
X449734D02*
D03*
X476734Y-183625D02*
D03*
X449734D02*
D03*
X479484Y247480D02*
D03*
X452484D02*
D03*
X479484Y221042D02*
D03*
X452484D02*
D03*
D75*
X345484Y228792D02*
D03*
Y201793D02*
D03*
X421484Y228792D02*
D03*
Y201793D02*
D03*
X344484Y-201250D02*
D03*
Y-228250D02*
D03*
X420484Y-201500D02*
D03*
Y-228500D02*
D03*
X139500Y98500D02*
D03*
Y125500D02*
D03*
X117016Y98582D02*
D03*
Y125582D02*
D03*
D76*
X398734Y216042D02*
D03*
Y221042D02*
D03*
Y226042D02*
D03*
Y231042D02*
D03*
Y241042D02*
D03*
X368734D02*
D03*
Y231042D02*
D03*
Y226042D02*
D03*
Y221042D02*
D03*
Y216042D02*
D03*
X397734Y-216500D02*
D03*
Y-211500D02*
D03*
Y-206500D02*
D03*
Y-201500D02*
D03*
Y-191500D02*
D03*
X367734D02*
D03*
Y-201500D02*
D03*
Y-206500D02*
D03*
Y-211500D02*
D03*
Y-216500D02*
D03*
D77*
X391234Y248542D02*
D03*
X386234D02*
D03*
X381234D02*
D03*
X376234D02*
D03*
Y208542D02*
D03*
X381234D02*
D03*
X386234D02*
D03*
X391234D02*
D03*
X390234Y-184000D02*
D03*
X385234D02*
D03*
X380234D02*
D03*
X375234D02*
D03*
Y-224000D02*
D03*
X380234D02*
D03*
X385234D02*
D03*
X390234D02*
D03*
D78*
X383734Y231593D02*
D03*
Y239293D02*
D03*
X382734Y-200950D02*
D03*
Y-193250D02*
D03*
D79*
X199400Y-275690D02*
D03*
Y-232690D02*
D03*
X194400D02*
D03*
X189400D02*
D03*
X194400Y-275690D02*
D03*
X189400D02*
D03*
X184400D02*
D03*
X179400D02*
D03*
X184400Y-232690D02*
D03*
X179400D02*
D03*
X364522Y111564D02*
D03*
Y154564D02*
D03*
X359522D02*
D03*
X354522D02*
D03*
X359522Y111564D02*
D03*
X354522D02*
D03*
X349522D02*
D03*
X344522D02*
D03*
X349522Y154564D02*
D03*
X344522D02*
D03*
D80*
X163250Y261250D02*
D03*
D81*
X125750Y306250D02*
D03*
X130750D02*
D03*
X135750D02*
D03*
X140750D02*
D03*
X145750D02*
D03*
X150750D02*
D03*
X155750D02*
D03*
X160750D02*
D03*
X165750D02*
D03*
X170750D02*
D03*
X175750D02*
D03*
X180750D02*
D03*
X185750D02*
D03*
X190750D02*
D03*
X195750D02*
D03*
X200750D02*
D03*
Y216250D02*
D03*
X195750D02*
D03*
X190750D02*
D03*
X185750D02*
D03*
X180750D02*
D03*
X175750D02*
D03*
X170750D02*
D03*
X165750D02*
D03*
X160750D02*
D03*
X155750D02*
D03*
X150750D02*
D03*
X145750D02*
D03*
X140750D02*
D03*
X135750D02*
D03*
X130750D02*
D03*
X125750D02*
D03*
D82*
X208250Y298750D02*
D03*
Y293750D02*
D03*
Y288750D02*
D03*
Y283750D02*
D03*
Y278750D02*
D03*
Y273750D02*
D03*
Y268750D02*
D03*
Y263750D02*
D03*
Y258750D02*
D03*
Y253750D02*
D03*
Y248750D02*
D03*
Y243750D02*
D03*
Y238750D02*
D03*
Y233750D02*
D03*
Y228750D02*
D03*
Y223750D02*
D03*
X118250D02*
D03*
Y228750D02*
D03*
Y233750D02*
D03*
Y238750D02*
D03*
Y243750D02*
D03*
Y248750D02*
D03*
Y253750D02*
D03*
Y258750D02*
D03*
Y263750D02*
D03*
Y268750D02*
D03*
Y273750D02*
D03*
Y278750D02*
D03*
Y283750D02*
D03*
Y288750D02*
D03*
Y293750D02*
D03*
Y298750D02*
D03*
D83*
X633550Y-250000D02*
D03*
Y-260000D02*
D03*
Y-270000D02*
D03*
Y-280000D02*
D03*
Y-290000D02*
D03*
Y-300000D02*
D03*
Y-310000D02*
D03*
Y-320000D02*
D03*
Y-330000D02*
D03*
Y-340000D02*
D03*
X549750D02*
D03*
Y-330000D02*
D03*
Y-320000D02*
D03*
Y-310000D02*
D03*
Y-300000D02*
D03*
Y-290000D02*
D03*
Y-280000D02*
D03*
Y-270000D02*
D03*
Y-260000D02*
D03*
Y-250000D02*
D03*
X633550Y187300D02*
D03*
Y177300D02*
D03*
Y167300D02*
D03*
Y157300D02*
D03*
Y147300D02*
D03*
Y137300D02*
D03*
Y127300D02*
D03*
Y117300D02*
D03*
Y107300D02*
D03*
Y97300D02*
D03*
X549750D02*
D03*
Y107300D02*
D03*
Y117300D02*
D03*
Y127300D02*
D03*
Y137300D02*
D03*
Y147300D02*
D03*
Y157300D02*
D03*
Y167300D02*
D03*
Y177300D02*
D03*
Y187300D02*
D03*
X633550Y322300D02*
D03*
Y312300D02*
D03*
Y302300D02*
D03*
Y292300D02*
D03*
Y282300D02*
D03*
Y272300D02*
D03*
Y262300D02*
D03*
Y252300D02*
D03*
Y242300D02*
D03*
Y232300D02*
D03*
X549750D02*
D03*
Y242300D02*
D03*
Y252300D02*
D03*
Y262300D02*
D03*
Y272300D02*
D03*
Y282300D02*
D03*
Y292300D02*
D03*
Y302300D02*
D03*
Y312300D02*
D03*
Y322300D02*
D03*
X633550Y-115000D02*
D03*
Y-125000D02*
D03*
Y-135000D02*
D03*
Y-145000D02*
D03*
Y-155000D02*
D03*
Y-165000D02*
D03*
Y-175000D02*
D03*
Y-185000D02*
D03*
Y-195000D02*
D03*
Y-205000D02*
D03*
X549750D02*
D03*
Y-195000D02*
D03*
Y-185000D02*
D03*
Y-175000D02*
D03*
Y-165000D02*
D03*
Y-155000D02*
D03*
Y-145000D02*
D03*
Y-135000D02*
D03*
Y-125000D02*
D03*
Y-115000D02*
D03*
D84*
X208500Y143000D02*
D03*
Y129000D02*
D03*
X222500Y143000D02*
D03*
Y129000D02*
D03*
D85*
X117250Y173750D02*
D03*
Y148750D02*
D03*
D86*
X38750Y175850D02*
D03*
Y163150D02*
D03*
Y150450D02*
D03*
Y137750D02*
D03*
Y125050D02*
D03*
Y112350D02*
D03*
Y99650D02*
D03*
X90750Y175850D02*
D03*
Y163150D02*
D03*
Y150450D02*
D03*
Y137750D02*
D03*
Y125050D02*
D03*
Y112350D02*
D03*
Y99650D02*
D03*
D87*
X503000Y-336750D02*
D03*
X523000D02*
D03*
X464500D02*
D03*
X484500D02*
D03*
X503000Y-316375D02*
D03*
X523000D02*
D03*
X464500D02*
D03*
X484500D02*
D03*
X503000Y-296000D02*
D03*
X523000D02*
D03*
X464500D02*
D03*
X484500D02*
D03*
X503000Y-275625D02*
D03*
X523000D02*
D03*
X464500D02*
D03*
X484500D02*
D03*
X503000Y-255250D02*
D03*
X523000D02*
D03*
X504750Y99500D02*
D03*
X524750D02*
D03*
X465250D02*
D03*
X485250D02*
D03*
X504750Y120063D02*
D03*
X524750D02*
D03*
X465250D02*
D03*
X485250D02*
D03*
X504750Y140625D02*
D03*
X524750D02*
D03*
X465250D02*
D03*
X485250D02*
D03*
X504750Y161187D02*
D03*
X524750D02*
D03*
X465250D02*
D03*
X485250D02*
D03*
X504750Y181750D02*
D03*
X524750D02*
D03*
D88*
X187000Y197000D02*
D03*
X204000D02*
D03*
Y183000D02*
D03*
X187000D02*
D03*
D89*
X80000Y-56650D02*
D03*
X570000D02*
D03*
X80000Y56650D02*
D03*
X570000D02*
D03*
D90*
X591650Y-340000D02*
D03*
Y-250000D02*
D03*
Y205000D02*
D03*
Y115000D02*
D03*
Y-232300D02*
D03*
Y-322300D02*
D03*
Y97300D02*
D03*
Y187300D02*
D03*
Y232300D02*
D03*
Y322300D02*
D03*
Y-205000D02*
D03*
Y-115000D02*
D03*
Y340000D02*
D03*
Y250000D02*
D03*
Y-187300D02*
D03*
Y-97300D02*
D03*
D91*
X766710Y313440D02*
D03*
X792110D02*
D03*
X766710Y288040D02*
D03*
X792110D02*
D03*
X766710Y262640D02*
D03*
X792110D02*
D03*
X766710Y237240D02*
D03*
X792110D02*
D03*
X766710Y211840D02*
D03*
X792110D02*
D03*
X766710Y186440D02*
D03*
X792110D02*
D03*
X766710Y161040D02*
D03*
X792110D02*
D03*
X766710Y135640D02*
D03*
X792110D02*
D03*
X766710Y110240D02*
D03*
X792110D02*
D03*
X766710Y84840D02*
D03*
X792110D02*
D03*
X766710Y59440D02*
D03*
X792110D02*
D03*
X766710Y34040D02*
D03*
X792110D02*
D03*
X766710Y8640D02*
D03*
X792110D02*
D03*
X766710Y-16760D02*
D03*
X792110D02*
D03*
X766710Y-42160D02*
D03*
X792110D02*
D03*
X766710Y-67560D02*
D03*
X792110D02*
D03*
X766710Y-92960D02*
D03*
X792110D02*
D03*
X766710Y-118360D02*
D03*
X792110D02*
D03*
X766710Y-143760D02*
D03*
X792110D02*
D03*
X766710Y-169160D02*
D03*
X792110D02*
D03*
X766710Y-194560D02*
D03*
X792110D02*
D03*
X766710Y-219960D02*
D03*
X792110D02*
D03*
X766710Y-245360D02*
D03*
X792110D02*
D03*
X766710Y-270760D02*
D03*
X792110D02*
D03*
X766710Y-296160D02*
D03*
X792110D02*
D03*
X766710Y-321560D02*
D03*
X792110D02*
D03*
X741310D02*
D03*
X715910D02*
D03*
X741310Y-296160D02*
D03*
X715910D02*
D03*
X741310Y-270760D02*
D03*
X715910D02*
D03*
X741310Y-245360D02*
D03*
X715910D02*
D03*
X741310Y-219960D02*
D03*
X715910D02*
D03*
X741310Y-194560D02*
D03*
X715910D02*
D03*
X741310Y-169160D02*
D03*
X715910D02*
D03*
X741310Y-143760D02*
D03*
X715910D02*
D03*
X741310Y-118360D02*
D03*
X715910D02*
D03*
X741310Y-92960D02*
D03*
X715910D02*
D03*
X741310Y-67560D02*
D03*
X715910D02*
D03*
X741310Y-42160D02*
D03*
X715910D02*
D03*
X741310Y-16760D02*
D03*
X715910D02*
D03*
X741310Y8640D02*
D03*
X715910D02*
D03*
X741310Y34040D02*
D03*
X715910D02*
D03*
X741310Y59440D02*
D03*
X715910D02*
D03*
X741310Y84840D02*
D03*
X715910D02*
D03*
X741310Y110240D02*
D03*
X715910D02*
D03*
X741310Y135640D02*
D03*
X715910D02*
D03*
X741310Y161040D02*
D03*
X715910D02*
D03*
X741310Y186440D02*
D03*
X715910D02*
D03*
X741310Y211840D02*
D03*
X715910D02*
D03*
X741310Y237240D02*
D03*
X715910D02*
D03*
X741310Y262640D02*
D03*
X715910D02*
D03*
X741310Y288040D02*
D03*
X715910D02*
D03*
X741310Y313440D02*
D03*
X715910D02*
D03*
D92*
X-68650Y-400000D02*
D03*
Y400100D02*
D03*
X788650Y-374600D02*
D03*
Y362000D02*
D03*
D93*
X31350Y-387300D02*
D03*
Y-50000D02*
D03*
Y50000D02*
D03*
Y387300D02*
D03*
X618650Y-50000D02*
D03*
Y50000D02*
D03*
Y387300D02*
D03*
Y-387300D02*
D03*
D94*
X540000Y-392500D02*
D03*
Y-407750D02*
D03*
X550750Y400500D02*
D03*
Y411750D02*
D03*
X388750Y-303000D02*
D03*
X0Y330000D02*
D03*
Y345000D02*
D03*
X520000Y430000D02*
D03*
X500000D02*
D03*
X540000Y-430000D02*
D03*
X520000D02*
D03*
X225000Y0D02*
D03*
X240000D02*
D03*
D95*
X569250Y-414500D02*
D03*
X427250D02*
D03*
X397000D02*
D03*
X210000D02*
D03*
X174000D02*
D03*
X77000D02*
D03*
X-72000Y-181750D02*
D03*
Y5250D02*
D03*
X75000Y415250D02*
D03*
X217000D02*
D03*
X302250D02*
D03*
X429250D02*
D03*
X478000D02*
D03*
X575000D02*
D03*
X402250Y-303000D02*
D03*
X417250D02*
D03*
X191000Y363250D02*
D03*
X176000D02*
D03*
X131000D02*
D03*
X116000D02*
D03*
X101000D02*
D03*
X453250Y-362500D02*
D03*
X468250D02*
D03*
X513250D02*
D03*
X543250D02*
D03*
X528250D02*
D03*
X296000D02*
D03*
X281000D02*
D03*
X251000D02*
D03*
X236000D02*
D03*
X15000Y-310750D02*
D03*
Y-295750D02*
D03*
X15000Y-274000D02*
D03*
Y-259000D02*
D03*
X21750Y271750D02*
D03*
Y286750D02*
D03*
Y304750D02*
D03*
Y319750D02*
D03*
X-20000Y248000D02*
D03*
Y263000D02*
D03*
Y278000D02*
D03*
Y293000D02*
D03*
Y308000D02*
D03*
Y323000D02*
D03*
X-72000Y349000D02*
D03*
Y222000D02*
D03*
Y190250D02*
D03*
Y33250D02*
D03*
X-20000Y164250D02*
D03*
Y149250D02*
D03*
Y134250D02*
D03*
Y119250D02*
D03*
Y59250D02*
D03*
Y74250D02*
D03*
Y89250D02*
D03*
Y104250D02*
D03*
X-72000Y-339750D02*
D03*
Y-212750D02*
D03*
X-20000Y-238750D02*
D03*
Y-253750D02*
D03*
Y-268750D02*
D03*
Y-283750D02*
D03*
Y-298750D02*
D03*
Y-313750D02*
D03*
X685500Y-300500D02*
D03*
Y-271250D02*
D03*
X670500D02*
D03*
Y-300500D02*
D03*
X685500Y-330250D02*
D03*
X725500Y-360000D02*
D03*
X710500D02*
D03*
X670500D02*
D03*
X685500D02*
D03*
X670500Y-330250D02*
D03*
X669750Y238058D02*
D03*
X684750Y217365D02*
D03*
X669750Y217404D02*
D03*
X684750Y238250D02*
D03*
D96*
X409000Y-322500D02*
D03*
X433250D02*
D03*
X443250D02*
D03*
Y-331500D02*
D03*
X433250D02*
D03*
X409000D02*
D03*
X419000D02*
D03*
X419000Y-322500D02*
D03*
X633550Y-250000D02*
D03*
Y-260000D02*
D03*
Y-270000D02*
D03*
Y-280000D02*
D03*
Y-290000D02*
D03*
Y-300000D02*
D03*
Y-310000D02*
D03*
Y-320000D02*
D03*
Y-330000D02*
D03*
Y-340000D02*
D03*
X549750D02*
D03*
Y-330000D02*
D03*
Y-320000D02*
D03*
Y-310000D02*
D03*
Y-300000D02*
D03*
Y-290000D02*
D03*
Y-280000D02*
D03*
Y-270000D02*
D03*
Y-260000D02*
D03*
Y-250000D02*
D03*
Y322300D02*
D03*
X550000Y312500D02*
D03*
Y302500D02*
D03*
Y292500D02*
D03*
X549750Y282300D02*
D03*
Y272300D02*
D03*
Y262300D02*
D03*
Y252300D02*
D03*
Y242300D02*
D03*
Y232300D02*
D03*
X633550D02*
D03*
Y242300D02*
D03*
Y252300D02*
D03*
Y262300D02*
D03*
Y272300D02*
D03*
Y282300D02*
D03*
Y292300D02*
D03*
Y302300D02*
D03*
Y312300D02*
D03*
Y322300D02*
D03*
X549750Y97300D02*
D03*
Y107300D02*
D03*
Y117300D02*
D03*
Y127300D02*
D03*
Y137300D02*
D03*
Y147300D02*
D03*
Y157300D02*
D03*
Y167300D02*
D03*
Y177300D02*
D03*
Y187300D02*
D03*
X633550D02*
D03*
Y177300D02*
D03*
Y167300D02*
D03*
Y157300D02*
D03*
Y147300D02*
D03*
Y137300D02*
D03*
Y127300D02*
D03*
Y117300D02*
D03*
Y107300D02*
D03*
Y97300D02*
D03*
X630000Y-165000D02*
D03*
Y-155000D02*
D03*
Y-145000D02*
D03*
Y-135000D02*
D03*
Y-125000D02*
D03*
Y-115000D02*
D03*
X555000D02*
D03*
Y-125000D02*
D03*
Y-135000D02*
D03*
Y-145000D02*
D03*
Y-155000D02*
D03*
Y-165000D02*
D03*
Y-175000D02*
D03*
Y-185000D02*
D03*
Y-195000D02*
D03*
Y-205000D02*
D03*
X630000D02*
D03*
Y-195000D02*
D03*
Y-175000D02*
D03*
Y-185000D02*
D03*
X523000Y-336750D02*
D03*
X503000D02*
D03*
X484500D02*
D03*
X464500D02*
D03*
Y-316375D02*
D03*
X484500D02*
D03*
X503000D02*
D03*
X523000D02*
D03*
Y-296000D02*
D03*
X484500D02*
D03*
X503000D02*
D03*
X464500D02*
D03*
Y-275625D02*
D03*
X484500D02*
D03*
X503000D02*
D03*
X523000D02*
D03*
Y-255250D02*
D03*
X503000D02*
D03*
X524750Y181750D02*
D03*
Y161187D02*
D03*
Y140625D02*
D03*
Y120063D02*
D03*
Y99500D02*
D03*
X504750D02*
D03*
Y120063D02*
D03*
Y140625D02*
D03*
Y161187D02*
D03*
Y181750D02*
D03*
X485250Y161187D02*
D03*
Y140625D02*
D03*
Y120063D02*
D03*
Y99500D02*
D03*
X465250D02*
D03*
Y120063D02*
D03*
Y140625D02*
D03*
Y161187D02*
D03*
X187000Y183000D02*
D03*
X195750Y206750D02*
D03*
X187000Y197000D02*
D03*
X204000D02*
D03*
Y183000D02*
D03*
X174750Y185000D02*
D03*
Y195000D02*
D03*
X216500D02*
D03*
Y185000D02*
D03*
M02*
