G04 Layer_Physical_Order=7*
G04 Layer_Color=16737945*
%FSLAX44Y44*%
%MOMM*%
G71*
G01*
G75*
%ADD36C,0.2000*%
%ADD37C,3.0000*%
%ADD38C,1.1900*%
%ADD39C,1.5000*%
%ADD40C,6.0000*%
%ADD41C,6.5000*%
%ADD42C,1.0000*%
%ADD43C,0.8000*%
%ADD44C,0.6000*%
%ADD45C,0.5000*%
%ADD48C,2.8000*%
%ADD51C,0.7000*%
%ADD52C,0.6000*%
D36*
X171000Y-476253D02*
Y-486250D01*
X177664D01*
X180997Y-476253D02*
X187661D01*
Y-477919D01*
X180997Y-484584D01*
Y-486250D01*
D37*
X80000Y-56650D02*
D03*
Y56650D02*
D03*
D38*
X591650Y-340000D02*
D03*
Y-250000D02*
D03*
Y205000D02*
D03*
Y115000D02*
D03*
Y-232300D02*
D03*
Y-322300D02*
D03*
Y97300D02*
D03*
Y187300D02*
D03*
Y232300D02*
D03*
Y322300D02*
D03*
Y-205000D02*
D03*
Y-115000D02*
D03*
Y340000D02*
D03*
Y250000D02*
D03*
Y-187300D02*
D03*
Y-97300D02*
D03*
D39*
X766710Y313440D02*
D03*
X792110D02*
D03*
X766710Y288040D02*
D03*
X792110D02*
D03*
X766710Y262640D02*
D03*
X792110D02*
D03*
X766710Y237240D02*
D03*
X792110D02*
D03*
X766710Y211840D02*
D03*
X792110D02*
D03*
X766710Y186440D02*
D03*
X792110D02*
D03*
X766710Y161040D02*
D03*
X792110D02*
D03*
X766710Y135640D02*
D03*
X792110D02*
D03*
X766710Y110240D02*
D03*
X792110D02*
D03*
X766710Y84840D02*
D03*
X792110D02*
D03*
X766710Y59440D02*
D03*
X792110D02*
D03*
X766710Y34040D02*
D03*
X792110D02*
D03*
X766710Y8640D02*
D03*
X792110D02*
D03*
X766710Y-16760D02*
D03*
X792110D02*
D03*
X766710Y-42160D02*
D03*
X792110D02*
D03*
X766710Y-67560D02*
D03*
X792110D02*
D03*
X766710Y-92960D02*
D03*
X792110D02*
D03*
X766710Y-118360D02*
D03*
X792110D02*
D03*
X766710Y-143760D02*
D03*
X792110D02*
D03*
X766710Y-169160D02*
D03*
X792110D02*
D03*
X766710Y-194560D02*
D03*
X792110D02*
D03*
X766710Y-219960D02*
D03*
X792110D02*
D03*
X766710Y-245360D02*
D03*
X792110D02*
D03*
X766710Y-270760D02*
D03*
X792110D02*
D03*
X766710Y-296160D02*
D03*
X792110D02*
D03*
X766710Y-321560D02*
D03*
X792110D02*
D03*
X741310D02*
D03*
X715910D02*
D03*
X741310Y-296160D02*
D03*
X715910D02*
D03*
X741310Y-270760D02*
D03*
X715910D02*
D03*
X741310Y-245360D02*
D03*
X715910D02*
D03*
X741310Y-219960D02*
D03*
X715910D02*
D03*
X741310Y-194560D02*
D03*
X715910D02*
D03*
X741310Y-169160D02*
D03*
X715910D02*
D03*
X741310Y-143760D02*
D03*
X715910D02*
D03*
X741310Y-118360D02*
D03*
X715910D02*
D03*
X741310Y-92960D02*
D03*
X715910D02*
D03*
X741310Y-67560D02*
D03*
X715910D02*
D03*
X741310Y-42160D02*
D03*
X715910D02*
D03*
X741310Y-16760D02*
D03*
X715910D02*
D03*
X741310Y8640D02*
D03*
X715910D02*
D03*
X741310Y34040D02*
D03*
X715910D02*
D03*
X741310Y59440D02*
D03*
X715910D02*
D03*
X741310Y84840D02*
D03*
X715910D02*
D03*
X741310Y110240D02*
D03*
X715910D02*
D03*
X741310Y135640D02*
D03*
X715910D02*
D03*
X741310Y161040D02*
D03*
X715910D02*
D03*
X741310Y186440D02*
D03*
X715910D02*
D03*
X741310Y211840D02*
D03*
X715910D02*
D03*
X741310Y237240D02*
D03*
X715910D02*
D03*
X741310Y262640D02*
D03*
X715910D02*
D03*
X741310Y288040D02*
D03*
X715910D02*
D03*
X741310Y313440D02*
D03*
X715910D02*
D03*
D40*
X-68650Y-400000D02*
D03*
Y400100D02*
D03*
X788650Y-374600D02*
D03*
Y362000D02*
D03*
D41*
X31350Y-387300D02*
D03*
Y-50000D02*
D03*
Y50000D02*
D03*
Y387300D02*
D03*
X618650Y-50000D02*
D03*
Y50000D02*
D03*
Y387300D02*
D03*
Y-387300D02*
D03*
D42*
X540000Y-392500D02*
D03*
Y-407750D02*
D03*
X550750Y400500D02*
D03*
Y411750D02*
D03*
X388750Y-303000D02*
D03*
X0Y330000D02*
D03*
Y345000D02*
D03*
X520000Y430000D02*
D03*
X500000D02*
D03*
X540000Y-430000D02*
D03*
X520000D02*
D03*
X225000Y0D02*
D03*
X240000D02*
D03*
D43*
X314000Y399750D02*
D03*
Y389750D02*
D03*
X392250Y399750D02*
D03*
Y389750D02*
D03*
X314000Y340000D02*
D03*
Y330000D02*
D03*
X392250Y340000D02*
D03*
Y330000D02*
D03*
X314000Y5000D02*
D03*
Y-5000D02*
D03*
X392250Y5000D02*
D03*
Y-5000D02*
D03*
X314000Y-340000D02*
D03*
Y-350000D02*
D03*
X392250Y-340000D02*
D03*
Y-350000D02*
D03*
X435750Y343250D02*
D03*
Y327750D02*
D03*
X420750D02*
D03*
Y343250D02*
D03*
Y403250D02*
D03*
Y387500D02*
D03*
X435750D02*
D03*
Y403250D02*
D03*
X422000Y-336750D02*
D03*
X437000D02*
D03*
X507000Y221000D02*
D03*
Y236000D02*
D03*
X488000D02*
D03*
Y221000D02*
D03*
X402250Y-303000D02*
D03*
X417250Y-303000D02*
D03*
X437000Y-396750D02*
D03*
Y-411750D02*
D03*
X422000D02*
D03*
Y-396750D02*
D03*
Y-351750D02*
D03*
X437000D02*
D03*
X486500Y185150D02*
D03*
Y164350D02*
D03*
X519500Y378600D02*
D03*
Y399400D02*
D03*
X483500Y399000D02*
D03*
X483500Y379000D02*
D03*
X450500Y184750D02*
D03*
X450500Y164750D02*
D03*
X392250Y-410000D02*
D03*
Y-400000D02*
D03*
X314000Y-410000D02*
D03*
Y-400000D02*
D03*
X422250Y7125D02*
D03*
X422239Y-5500D02*
D03*
X437239D02*
D03*
X437250Y7125D02*
D03*
X483500Y-404500D02*
D03*
X450500Y-272500D02*
D03*
X487000Y-252100D02*
D03*
Y-272900D02*
D03*
X520000Y-404900D02*
D03*
Y-384100D02*
D03*
X450500Y-252500D02*
D03*
X483500Y-384500D02*
D03*
X488000Y-216250D02*
D03*
X507000D02*
D03*
Y-201250D02*
D03*
X488000D02*
D03*
X-85500Y-2020D02*
D03*
Y17980D02*
D03*
X-51800D02*
D03*
Y-2020D02*
D03*
Y-22020D02*
D03*
X-85500D02*
D03*
Y-42020D02*
D03*
X-51800D02*
D03*
Y-62020D02*
D03*
X-85500D02*
D03*
Y-82020D02*
D03*
X-51800D02*
D03*
Y-122020D02*
D03*
Y-102020D02*
D03*
X-85500D02*
D03*
Y-122020D02*
D03*
X684750Y403250D02*
D03*
X669750Y382596D02*
D03*
Y403250D02*
D03*
X684750Y361942D02*
D03*
X669750D02*
D03*
X669750Y341288D02*
D03*
X684750D02*
D03*
Y320634D02*
D03*
X669750D02*
D03*
Y299981D02*
D03*
X684750D02*
D03*
X684750Y279327D02*
D03*
X669750D02*
D03*
Y258673D02*
D03*
X684750D02*
D03*
X684750Y238019D02*
D03*
X669750D02*
D03*
Y217365D02*
D03*
X684750D02*
D03*
X684750Y196712D02*
D03*
X669750D02*
D03*
Y134750D02*
D03*
X684750D02*
D03*
Y382596D02*
D03*
D44*
X273750Y385000D02*
D03*
X259500Y388750D02*
D03*
X286750Y385000D02*
D03*
X259500Y398750D02*
D03*
X358000Y384750D02*
D03*
X348000Y407000D02*
D03*
X280250Y404000D02*
D03*
X358000Y407000D02*
D03*
X348000Y384750D02*
D03*
X273750Y325250D02*
D03*
X259500Y329000D02*
D03*
X286750Y325250D02*
D03*
X259500Y339000D02*
D03*
X358000Y325000D02*
D03*
X348000Y347250D02*
D03*
X280250Y344250D02*
D03*
X358000Y347250D02*
D03*
X348000Y325000D02*
D03*
X273750Y-9750D02*
D03*
X259500Y-6000D02*
D03*
X286750Y-9750D02*
D03*
X259500Y4000D02*
D03*
X358000Y-10000D02*
D03*
X348000Y12250D02*
D03*
X280250Y9250D02*
D03*
X358000Y12250D02*
D03*
X348000Y-10000D02*
D03*
X273750Y-354750D02*
D03*
X259500Y-351000D02*
D03*
X286750Y-354750D02*
D03*
X259500Y-341000D02*
D03*
X358000Y-355000D02*
D03*
X348000Y-332750D02*
D03*
X280250Y-335750D02*
D03*
X358000Y-332750D02*
D03*
X348000Y-355000D02*
D03*
X280250Y-395750D02*
D03*
X259500Y-401000D02*
D03*
Y-411000D02*
D03*
X273750Y-414750D02*
D03*
X286750D02*
D03*
X358000Y-415000D02*
D03*
X348000D02*
D03*
Y-392750D02*
D03*
X358000D02*
D03*
X633550Y340000D02*
D03*
Y330000D02*
D03*
Y320000D02*
D03*
Y310000D02*
D03*
Y300000D02*
D03*
Y290000D02*
D03*
Y280000D02*
D03*
Y270000D02*
D03*
Y260000D02*
D03*
Y250000D02*
D03*
X549750D02*
D03*
Y260000D02*
D03*
Y270000D02*
D03*
Y280000D02*
D03*
Y290000D02*
D03*
Y300000D02*
D03*
Y310000D02*
D03*
Y320000D02*
D03*
Y330000D02*
D03*
Y340000D02*
D03*
X633550Y205000D02*
D03*
Y195000D02*
D03*
Y185000D02*
D03*
Y175000D02*
D03*
Y165000D02*
D03*
Y155000D02*
D03*
Y145000D02*
D03*
Y135000D02*
D03*
Y125000D02*
D03*
Y115000D02*
D03*
X549750D02*
D03*
Y125000D02*
D03*
Y135000D02*
D03*
Y145000D02*
D03*
Y155000D02*
D03*
Y165000D02*
D03*
Y175000D02*
D03*
Y185000D02*
D03*
Y195000D02*
D03*
Y205000D02*
D03*
X633550Y-97300D02*
D03*
Y-107300D02*
D03*
Y-117300D02*
D03*
Y-127300D02*
D03*
Y-137300D02*
D03*
Y-147300D02*
D03*
Y-157300D02*
D03*
Y-167300D02*
D03*
Y-177300D02*
D03*
Y-187300D02*
D03*
X549750D02*
D03*
Y-177300D02*
D03*
Y-167300D02*
D03*
Y-157300D02*
D03*
Y-147300D02*
D03*
Y-137300D02*
D03*
Y-127300D02*
D03*
Y-117300D02*
D03*
Y-107300D02*
D03*
Y-97300D02*
D03*
Y-232300D02*
D03*
Y-242300D02*
D03*
Y-252300D02*
D03*
Y-262300D02*
D03*
Y-272300D02*
D03*
Y-282300D02*
D03*
Y-292300D02*
D03*
Y-302300D02*
D03*
Y-312300D02*
D03*
Y-322300D02*
D03*
X633550D02*
D03*
Y-312300D02*
D03*
Y-302300D02*
D03*
Y-292300D02*
D03*
Y-282300D02*
D03*
Y-272300D02*
D03*
Y-262300D02*
D03*
Y-252300D02*
D03*
Y-242300D02*
D03*
Y-232300D02*
D03*
X517750Y-178750D02*
D03*
Y-158750D02*
D03*
Y-139583D02*
D03*
Y-120417D02*
D03*
Y-101250D02*
D03*
X497750D02*
D03*
Y-120417D02*
D03*
Y-139583D02*
D03*
Y-158750D02*
D03*
Y-178750D02*
D03*
X478500Y-158750D02*
D03*
Y-139583D02*
D03*
Y-120417D02*
D03*
Y-101250D02*
D03*
X458500D02*
D03*
Y-120417D02*
D03*
Y-139583D02*
D03*
Y-158750D02*
D03*
X519750Y256750D02*
D03*
Y277500D02*
D03*
Y297167D02*
D03*
Y316833D02*
D03*
Y336500D02*
D03*
X499750D02*
D03*
Y316833D02*
D03*
Y297167D02*
D03*
Y277500D02*
D03*
Y256750D02*
D03*
X482500Y277500D02*
D03*
Y297167D02*
D03*
X482750Y319500D02*
D03*
X482500Y336500D02*
D03*
X462500D02*
D03*
Y316833D02*
D03*
Y297167D02*
D03*
Y277500D02*
D03*
D45*
X488000Y236000D02*
X497500Y245500D01*
X517250D01*
X544750Y218000D01*
X599750D01*
X622750Y195000D01*
X633550D01*
X488000Y-201250D02*
X498000Y-191250D01*
X518000D01*
X546000Y-219250D01*
X604500D01*
X627550Y-242300D01*
X633550D01*
X549750Y310000D02*
X633550D01*
X574700Y264000D02*
X608600D01*
X574250Y-173750D02*
X609050D01*
X549750Y-127300D02*
X633550D01*
X570700Y-177300D02*
X574250Y-173750D01*
X549750Y-177300D02*
X570700D01*
X609050Y-173750D02*
X612600Y-177300D01*
X633550D01*
X570700Y260000D02*
X574700Y264000D01*
X549750Y260000D02*
X570700D01*
X608600Y264000D02*
X612600Y260000D01*
X633550D01*
D48*
X570000Y-56650D02*
D03*
Y56650D02*
D03*
D51*
X684750Y238019D02*
X691289D01*
X715910Y262640D01*
X684750Y279327D02*
X688577Y275500D01*
X728770D02*
X741310Y288040D01*
X792110D02*
X806000Y301930D01*
Y320000D01*
X799750Y326250D02*
X806000Y320000D01*
X715904Y382596D02*
X772250Y326250D01*
X684750Y382596D02*
X715904D01*
X684750Y361942D02*
X718808D01*
X779500Y275250D02*
X792110Y262640D01*
X718808Y361942D02*
X754000Y326750D01*
Y307000D02*
X760250Y300750D01*
X775000D02*
X779500Y296250D01*
X698000Y218500D02*
X704000Y224500D01*
X779370D02*
X792110Y237240D01*
X633550Y300000D02*
X645750D01*
X633550Y320000D02*
X639500D01*
X649000Y329500D01*
Y361846D01*
X669750Y382596D01*
X645750Y300000D02*
X658500Y312750D01*
Y330038D01*
X669750Y341288D01*
X684750Y196712D02*
X690462D01*
X698000Y204250D01*
Y218500D01*
D52*
X688577Y275500D02*
X728770D01*
X772250Y326250D02*
X799750D01*
X779500Y275250D02*
Y296250D01*
X754000Y307000D02*
Y326750D01*
X760250Y300750D02*
X775000D01*
X704000Y224500D02*
X779370D01*
M02*
