G04 Layer_Physical_Order=8*
G04 Layer_Color=8388736*
%FSLAX44Y44*%
%MOMM*%
G71*
G01*
G75*
%ADD36C,0.2000*%
%ADD37C,3.0000*%
%ADD38C,1.1900*%
%ADD39C,1.5000*%
%ADD40C,6.0000*%
%ADD41C,6.5000*%
%ADD42C,1.0000*%
%ADD43C,0.8000*%
%ADD44C,0.6000*%
%ADD45C,0.5000*%
%ADD47C,1.0000*%
%ADD48C,2.8000*%
%ADD49C,1.5000*%
%ADD50C,2.0000*%
%ADD51C,0.7000*%
%ADD52C,0.6000*%
%ADD54C,0.3000*%
G36*
X692566Y435209D02*
X699855Y433759D01*
X706892Y431370D01*
X713558Y428083D01*
X719737Y423954D01*
X725089Y419261D01*
X725266Y418995D01*
X736345Y407916D01*
X737833Y406922D01*
X739589Y406572D01*
X740602Y406774D01*
X743095Y404545D01*
X748941Y400397D01*
X755215Y396930D01*
X761838Y394187D01*
X768726Y392202D01*
X773059Y391466D01*
X773316Y390134D01*
X769783Y387969D01*
X765953Y384697D01*
X762681Y380867D01*
X760050Y376573D01*
X758122Y371919D01*
X756946Y367021D01*
X756551Y362000D01*
X756946Y356979D01*
X758122Y352081D01*
X758660Y350782D01*
X757604Y350077D01*
X700465Y407215D01*
X698646Y408431D01*
X696500Y408857D01*
X687157D01*
X687091Y408902D01*
X684750Y409367D01*
X682409Y408902D01*
X680424Y407575D01*
X679098Y405591D01*
X678633Y403250D01*
X679098Y400909D01*
X680424Y398924D01*
X682409Y397598D01*
X684750Y397132D01*
X687091Y397598D01*
X687157Y397642D01*
X694177D01*
X767639Y324181D01*
X767046Y322978D01*
X766710Y323022D01*
X765251Y322830D01*
X742827Y345254D01*
X741008Y346469D01*
X738861Y346896D01*
X687157D01*
X687091Y346940D01*
X684750Y347406D01*
X682409Y346940D01*
X680424Y345614D01*
X679098Y343629D01*
X678633Y341288D01*
X679098Y338947D01*
X680424Y336963D01*
X682409Y335636D01*
X684750Y335171D01*
X687091Y335636D01*
X687157Y335681D01*
X736539D01*
X757320Y314899D01*
X757128Y313440D01*
X757454Y310960D01*
X758412Y308649D01*
X759934Y306665D01*
X761919Y305142D01*
X764230Y304184D01*
X766710Y303858D01*
X769190Y304184D01*
X771501Y305142D01*
X773485Y306665D01*
X775008Y308649D01*
X775965Y310960D01*
X776292Y313440D01*
X775965Y315920D01*
X775008Y318231D01*
X773485Y320215D01*
X773281Y320372D01*
X773712Y321642D01*
X775977D01*
X782720Y314899D01*
X782528Y313440D01*
X782854Y310960D01*
X783812Y308649D01*
X785334Y306665D01*
X787319Y305142D01*
X789630Y304184D01*
X792110Y303858D01*
X794590Y304184D01*
X796901Y305142D01*
X798885Y306665D01*
X800408Y308649D01*
X801365Y310960D01*
X801692Y313440D01*
X801365Y315920D01*
X800408Y318231D01*
X798885Y320215D01*
X796901Y321738D01*
X794590Y322695D01*
X792110Y323022D01*
X790651Y322830D01*
X784529Y328951D01*
X785096Y330181D01*
X788650Y329901D01*
X793671Y330296D01*
X798569Y331472D01*
X803223Y333400D01*
X807517Y336031D01*
X811347Y339303D01*
X814619Y343133D01*
X815568Y344683D01*
X816791Y344338D01*
X816741Y-356858D01*
X815519Y-357202D01*
X814619Y-355733D01*
X811347Y-351903D01*
X807517Y-348631D01*
X803223Y-346000D01*
X798569Y-344072D01*
X793671Y-342896D01*
X788650Y-342501D01*
X783628Y-342896D01*
X778731Y-344072D01*
X774077Y-346000D01*
X769783Y-348631D01*
X765953Y-351903D01*
X762681Y-355733D01*
X760050Y-360027D01*
X758122Y-364681D01*
X756946Y-369579D01*
X756551Y-374600D01*
X756946Y-379621D01*
X758122Y-384519D01*
X760050Y-389173D01*
X762681Y-393467D01*
X765953Y-397297D01*
X769783Y-400569D01*
X770627Y-401086D01*
X770404Y-402336D01*
X767027Y-403008D01*
X760956Y-405069D01*
X755207Y-407904D01*
X749876Y-411466D01*
X745607Y-415210D01*
X744987Y-415624D01*
X733266Y-427345D01*
X733089Y-427611D01*
X727737Y-432304D01*
X721558Y-436433D01*
X714892Y-439720D01*
X707855Y-442109D01*
X700566Y-443559D01*
X693463Y-444024D01*
X693150Y-443962D01*
X-1611D01*
X-1753Y-443990D01*
X-4887Y-443681D01*
X-8038Y-442726D01*
X-10941Y-441174D01*
X-12524Y-439874D01*
X-13454Y-439054D01*
X-13454Y-439054D01*
X-17599Y-435419D01*
X-22183Y-432356D01*
X-27128Y-429918D01*
X-32348Y-428146D01*
X-37755Y-427070D01*
X-43257Y-426710D01*
Y-426712D01*
X-45012Y-427061D01*
X-46501Y-428056D01*
X-46625Y-428241D01*
X-51152D01*
X-51497Y-427019D01*
X-49783Y-425969D01*
X-45953Y-422697D01*
X-42681Y-418867D01*
X-40050Y-414573D01*
X-38122Y-409919D01*
X-36946Y-405021D01*
X-36551Y-400000D01*
X-36946Y-394979D01*
X-38122Y-390081D01*
X-40050Y-385427D01*
X-42681Y-381133D01*
X-45953Y-377303D01*
X-49783Y-374031D01*
X-54078Y-371400D01*
X-58731Y-369472D01*
X-63629Y-368296D01*
X-68650Y-367901D01*
X-73671Y-368296D01*
X-78569Y-369472D01*
X-83223Y-371400D01*
X-87517Y-374031D01*
X-91348Y-377303D01*
X-94619Y-381133D01*
X-96131Y-383601D01*
X-97401Y-383243D01*
Y129844D01*
Y383343D01*
X-96131Y383701D01*
X-94619Y381233D01*
X-91348Y377403D01*
X-87517Y374131D01*
X-83223Y371500D01*
X-78569Y369572D01*
X-73671Y368396D01*
X-68650Y368001D01*
X-63629Y368396D01*
X-58731Y369572D01*
X-54078Y371500D01*
X-49783Y374131D01*
X-45953Y377403D01*
X-42681Y381233D01*
X-40050Y385527D01*
X-38122Y390181D01*
X-36946Y395079D01*
X-36551Y400100D01*
X-36946Y405121D01*
X-38122Y410019D01*
X-40050Y414673D01*
X-42681Y418967D01*
X-45953Y422797D01*
X-49783Y426069D01*
X-51578Y427169D01*
X-51234Y428391D01*
X28432D01*
X28556Y428206D01*
X30044Y427211D01*
X31800Y426862D01*
X33556Y427211D01*
X35044Y428206D01*
X42450Y435612D01*
X685150D01*
X685463Y435674D01*
X692566Y435209D01*
D02*
G37*
%LPC*%
G36*
X-85500Y-115902D02*
X-87841Y-116368D01*
X-89826Y-117694D01*
X-91152Y-119679D01*
X-91618Y-122020D01*
X-91152Y-124361D01*
X-89826Y-126346D01*
X-87841Y-127672D01*
X-85500Y-128138D01*
X-83159Y-127672D01*
X-81174Y-126346D01*
X-79848Y-124361D01*
X-79383Y-122020D01*
X-79848Y-119679D01*
X-81174Y-117694D01*
X-83159Y-116368D01*
X-85500Y-115902D01*
D02*
G37*
G36*
X-51800D02*
X-54141Y-116368D01*
X-56126Y-117694D01*
X-57452Y-119679D01*
X-57918Y-122020D01*
X-57452Y-124361D01*
X-56126Y-126346D01*
X-54141Y-127672D01*
X-51800Y-128138D01*
X-49459Y-127672D01*
X-47474Y-126346D01*
X-46148Y-124361D01*
X-45683Y-122020D01*
X-46148Y-119679D01*
X-47474Y-117694D01*
X-49459Y-116368D01*
X-51800Y-115902D01*
D02*
G37*
G36*
X792110Y-134178D02*
X789630Y-134505D01*
X787319Y-135462D01*
X785334Y-136985D01*
X783812Y-138969D01*
X782854Y-141280D01*
X782528Y-143760D01*
X782854Y-146240D01*
X783812Y-148551D01*
X785334Y-150535D01*
X787319Y-152058D01*
X789630Y-153015D01*
X792110Y-153342D01*
X794590Y-153015D01*
X796901Y-152058D01*
X798885Y-150535D01*
X800408Y-148551D01*
X801365Y-146240D01*
X801692Y-143760D01*
X801365Y-141280D01*
X800408Y-138969D01*
X798885Y-136985D01*
X796901Y-135462D01*
X794590Y-134505D01*
X792110Y-134178D01*
D02*
G37*
G36*
X458500Y-134485D02*
X456549Y-134874D01*
X454895Y-135979D01*
X453790Y-137633D01*
X453402Y-139583D01*
X453790Y-141534D01*
X454895Y-143188D01*
X456549Y-144293D01*
X458500Y-144681D01*
X460451Y-144293D01*
X462105Y-143188D01*
X463210Y-141534D01*
X463598Y-139583D01*
X463210Y-137633D01*
X462105Y-135979D01*
X460451Y-134874D01*
X458500Y-134485D01*
D02*
G37*
G36*
X715910Y-108778D02*
X713430Y-109105D01*
X711119Y-110062D01*
X709134Y-111585D01*
X707612Y-113569D01*
X706654Y-115880D01*
X706328Y-118360D01*
X706654Y-120840D01*
X707612Y-123151D01*
X709134Y-125135D01*
X711119Y-126658D01*
X713430Y-127615D01*
X715910Y-127942D01*
X718390Y-127615D01*
X720701Y-126658D01*
X722685Y-125135D01*
X724208Y-123151D01*
X725165Y-120840D01*
X725492Y-118360D01*
X725165Y-115880D01*
X724208Y-113569D01*
X722685Y-111585D01*
X720701Y-110062D01*
X718390Y-109105D01*
X715910Y-108778D01*
D02*
G37*
G36*
X792110D02*
X789630Y-109105D01*
X787319Y-110062D01*
X785334Y-111585D01*
X783812Y-113569D01*
X782854Y-115880D01*
X782528Y-118360D01*
X782854Y-120840D01*
X783812Y-123151D01*
X785334Y-125135D01*
X787319Y-126658D01*
X789630Y-127615D01*
X792110Y-127942D01*
X794590Y-127615D01*
X796901Y-126658D01*
X798885Y-125135D01*
X800408Y-123151D01*
X801365Y-120840D01*
X801692Y-118360D01*
X801365Y-115880D01*
X800408Y-113569D01*
X798885Y-111585D01*
X796901Y-110062D01*
X794590Y-109105D01*
X792110Y-108778D01*
D02*
G37*
G36*
X458500Y-115319D02*
X456549Y-115707D01*
X454895Y-116812D01*
X453790Y-118466D01*
X453402Y-120417D01*
X453790Y-122368D01*
X454895Y-124022D01*
X456549Y-125127D01*
X458500Y-125515D01*
X460451Y-125127D01*
X462105Y-124022D01*
X463210Y-122368D01*
X463598Y-120417D01*
X463210Y-118466D01*
X462105Y-116812D01*
X460451Y-115707D01*
X458500Y-115319D01*
D02*
G37*
G36*
X741310Y-108778D02*
X738830Y-109105D01*
X736519Y-110062D01*
X734534Y-111585D01*
X733012Y-113569D01*
X732054Y-115880D01*
X731728Y-118360D01*
X732054Y-120840D01*
X733012Y-123151D01*
X734534Y-125135D01*
X736519Y-126658D01*
X738830Y-127615D01*
X741310Y-127942D01*
X743790Y-127615D01*
X746101Y-126658D01*
X748085Y-125135D01*
X749608Y-123151D01*
X750565Y-120840D01*
X750892Y-118360D01*
X750565Y-115880D01*
X749608Y-113569D01*
X748085Y-111585D01*
X746101Y-110062D01*
X743790Y-109105D01*
X741310Y-108778D01*
D02*
G37*
G36*
X766710D02*
X764230Y-109105D01*
X761919Y-110062D01*
X759934Y-111585D01*
X758412Y-113569D01*
X757454Y-115880D01*
X757128Y-118360D01*
X757454Y-120840D01*
X758412Y-123151D01*
X759934Y-125135D01*
X761919Y-126658D01*
X764230Y-127615D01*
X766710Y-127942D01*
X769190Y-127615D01*
X771501Y-126658D01*
X773485Y-125135D01*
X775008Y-123151D01*
X775965Y-120840D01*
X776292Y-118360D01*
X775965Y-115880D01*
X775008Y-113569D01*
X773485Y-111585D01*
X771501Y-110062D01*
X769190Y-109105D01*
X766710Y-108778D01*
D02*
G37*
G36*
X741310Y-159578D02*
X738830Y-159905D01*
X736519Y-160862D01*
X734534Y-162385D01*
X733012Y-164369D01*
X732054Y-166680D01*
X731728Y-169160D01*
X732054Y-171640D01*
X733012Y-173951D01*
X734534Y-175935D01*
X736519Y-177458D01*
X738830Y-178416D01*
X741310Y-178742D01*
X743790Y-178416D01*
X746101Y-177458D01*
X748085Y-175935D01*
X749608Y-173951D01*
X750565Y-171640D01*
X750892Y-169160D01*
X750565Y-166680D01*
X749608Y-164369D01*
X748085Y-162385D01*
X746101Y-160862D01*
X743790Y-159905D01*
X741310Y-159578D01*
D02*
G37*
G36*
X766710D02*
X764230Y-159905D01*
X761919Y-160862D01*
X759934Y-162385D01*
X758412Y-164369D01*
X757454Y-166680D01*
X757128Y-169160D01*
X757454Y-171640D01*
X758412Y-173951D01*
X759934Y-175935D01*
X761919Y-177458D01*
X764230Y-178416D01*
X766710Y-178742D01*
X769190Y-178416D01*
X771501Y-177458D01*
X773485Y-175935D01*
X775008Y-173951D01*
X775965Y-171640D01*
X776292Y-169160D01*
X775965Y-166680D01*
X775008Y-164369D01*
X773485Y-162385D01*
X771501Y-160862D01*
X769190Y-159905D01*
X766710Y-159578D01*
D02*
G37*
G36*
X497750Y-173652D02*
X495799Y-174040D01*
X494145Y-175145D01*
X493040Y-176799D01*
X492652Y-178750D01*
X493040Y-180701D01*
X494145Y-182355D01*
X495799Y-183460D01*
X497750Y-183848D01*
X499701Y-183460D01*
X501355Y-182355D01*
X502460Y-180701D01*
X502848Y-178750D01*
X502460Y-176799D01*
X501355Y-175145D01*
X499701Y-174040D01*
X497750Y-173652D01*
D02*
G37*
G36*
X715910Y-159578D02*
X713430Y-159905D01*
X711119Y-160862D01*
X709134Y-162385D01*
X707612Y-164369D01*
X706654Y-166680D01*
X706328Y-169160D01*
X706654Y-171640D01*
X707612Y-173951D01*
X709134Y-175935D01*
X711119Y-177458D01*
X713430Y-178416D01*
X715910Y-178742D01*
X718390Y-178416D01*
X720701Y-177458D01*
X722685Y-175935D01*
X724208Y-173951D01*
X725165Y-171640D01*
X725492Y-169160D01*
X725165Y-166680D01*
X724208Y-164369D01*
X722685Y-162385D01*
X720701Y-160862D01*
X718390Y-159905D01*
X715910Y-159578D01*
D02*
G37*
G36*
X792110D02*
X789630Y-159905D01*
X787319Y-160862D01*
X785334Y-162385D01*
X783812Y-164369D01*
X782854Y-166680D01*
X782528Y-169160D01*
X782854Y-171640D01*
X783812Y-173951D01*
X785334Y-175935D01*
X787319Y-177458D01*
X789630Y-178416D01*
X792110Y-178742D01*
X794590Y-178416D01*
X796901Y-177458D01*
X798885Y-175935D01*
X800408Y-173951D01*
X801365Y-171640D01*
X801692Y-169160D01*
X801365Y-166680D01*
X800408Y-164369D01*
X798885Y-162385D01*
X796901Y-160862D01*
X794590Y-159905D01*
X792110Y-159578D01*
D02*
G37*
G36*
X741310Y-134178D02*
X738830Y-134505D01*
X736519Y-135462D01*
X734534Y-136985D01*
X733012Y-138969D01*
X732054Y-141280D01*
X731728Y-143760D01*
X732054Y-146240D01*
X733012Y-148551D01*
X734534Y-150535D01*
X736519Y-152058D01*
X738830Y-153015D01*
X741310Y-153342D01*
X743790Y-153015D01*
X746101Y-152058D01*
X748085Y-150535D01*
X749608Y-148551D01*
X750565Y-146240D01*
X750892Y-143760D01*
X750565Y-141280D01*
X749608Y-138969D01*
X748085Y-136985D01*
X746101Y-135462D01*
X743790Y-134505D01*
X741310Y-134178D01*
D02*
G37*
G36*
X766710D02*
X764230Y-134505D01*
X761919Y-135462D01*
X759934Y-136985D01*
X758412Y-138969D01*
X757454Y-141280D01*
X757128Y-143760D01*
X757454Y-146240D01*
X758412Y-148551D01*
X759934Y-150535D01*
X761919Y-152058D01*
X764230Y-153015D01*
X766710Y-153342D01*
X769190Y-153015D01*
X771501Y-152058D01*
X773485Y-150535D01*
X775008Y-148551D01*
X775965Y-146240D01*
X776292Y-143760D01*
X775965Y-141280D01*
X775008Y-138969D01*
X773485Y-136985D01*
X771501Y-135462D01*
X769190Y-134505D01*
X766710Y-134178D01*
D02*
G37*
G36*
X458500Y-153652D02*
X456549Y-154040D01*
X454895Y-155145D01*
X453790Y-156799D01*
X453402Y-158750D01*
X453790Y-160701D01*
X454895Y-162355D01*
X456549Y-163460D01*
X458500Y-163848D01*
X460451Y-163460D01*
X462105Y-162355D01*
X463210Y-160701D01*
X463598Y-158750D01*
X463210Y-156799D01*
X462105Y-155145D01*
X460451Y-154040D01*
X458500Y-153652D01*
D02*
G37*
G36*
X715910Y-134178D02*
X713430Y-134505D01*
X711119Y-135462D01*
X709134Y-136985D01*
X707612Y-138969D01*
X706654Y-141280D01*
X706328Y-143760D01*
X706654Y-146240D01*
X707612Y-148551D01*
X709134Y-150535D01*
X711119Y-152058D01*
X713430Y-153015D01*
X715910Y-153342D01*
X718390Y-153015D01*
X720701Y-152058D01*
X722685Y-150535D01*
X724208Y-148551D01*
X725165Y-146240D01*
X725492Y-143760D01*
X725165Y-141280D01*
X724208Y-138969D01*
X722685Y-136985D01*
X720701Y-135462D01*
X718390Y-134505D01*
X715910Y-134178D01*
D02*
G37*
G36*
X766710Y-57978D02*
X764230Y-58305D01*
X761919Y-59262D01*
X759934Y-60785D01*
X758412Y-62769D01*
X757454Y-65080D01*
X757128Y-67560D01*
X757454Y-70040D01*
X758412Y-72351D01*
X759934Y-74335D01*
X761919Y-75858D01*
X764230Y-76816D01*
X766710Y-77142D01*
X769190Y-76816D01*
X771501Y-75858D01*
X773485Y-74335D01*
X775008Y-72351D01*
X775965Y-70040D01*
X776292Y-67560D01*
X775965Y-65080D01*
X775008Y-62769D01*
X773485Y-60785D01*
X771501Y-59262D01*
X769190Y-58305D01*
X766710Y-57978D01*
D02*
G37*
G36*
X792110D02*
X789630Y-58305D01*
X787319Y-59262D01*
X785334Y-60785D01*
X783812Y-62769D01*
X782854Y-65080D01*
X782528Y-67560D01*
X782854Y-70040D01*
X783812Y-72351D01*
X785334Y-74335D01*
X787319Y-75858D01*
X789630Y-76816D01*
X792110Y-77142D01*
X794590Y-76816D01*
X796901Y-75858D01*
X798885Y-74335D01*
X800408Y-72351D01*
X801365Y-70040D01*
X801692Y-67560D01*
X801365Y-65080D01*
X800408Y-62769D01*
X798885Y-60785D01*
X796901Y-59262D01*
X794590Y-58305D01*
X792110Y-57978D01*
D02*
G37*
G36*
X715910D02*
X713430Y-58305D01*
X711119Y-59262D01*
X709134Y-60785D01*
X707612Y-62769D01*
X706654Y-65080D01*
X706328Y-67560D01*
X706654Y-70040D01*
X707612Y-72351D01*
X709134Y-74335D01*
X711119Y-75858D01*
X713430Y-76816D01*
X715910Y-77142D01*
X718390Y-76816D01*
X720701Y-75858D01*
X722685Y-74335D01*
X724208Y-72351D01*
X725165Y-70040D01*
X725492Y-67560D01*
X725165Y-65080D01*
X724208Y-62769D01*
X722685Y-60785D01*
X720701Y-59262D01*
X718390Y-58305D01*
X715910Y-57978D01*
D02*
G37*
G36*
X741310D02*
X738830Y-58305D01*
X736519Y-59262D01*
X734534Y-60785D01*
X733012Y-62769D01*
X732054Y-65080D01*
X731728Y-67560D01*
X732054Y-70040D01*
X733012Y-72351D01*
X734534Y-74335D01*
X736519Y-75858D01*
X738830Y-76816D01*
X741310Y-77142D01*
X743790Y-76816D01*
X746101Y-75858D01*
X748085Y-74335D01*
X749608Y-72351D01*
X750565Y-70040D01*
X750892Y-67560D01*
X750565Y-65080D01*
X749608Y-62769D01*
X748085Y-60785D01*
X746101Y-59262D01*
X743790Y-58305D01*
X741310Y-57978D01*
D02*
G37*
G36*
X31350Y-15393D02*
X25936Y-15819D01*
X20656Y-17087D01*
X15639Y-19165D01*
X11009Y-22003D01*
X6879Y-25529D01*
X3352Y-29659D01*
X515Y-34289D01*
X-1563Y-39306D01*
X-2831Y-44586D01*
X-3257Y-50000D01*
X-2831Y-55414D01*
X-1563Y-60694D01*
X515Y-65711D01*
X3352Y-70341D01*
X6879Y-74471D01*
X11009Y-77997D01*
X15639Y-80835D01*
X20656Y-82913D01*
X25936Y-84181D01*
X31350Y-84607D01*
X36764Y-84181D01*
X42044Y-82913D01*
X47061Y-80835D01*
X51691Y-77997D01*
X55820Y-74471D01*
X59347Y-70341D01*
X62185Y-65711D01*
X63076Y-63560D01*
X64436Y-63595D01*
X65796Y-66140D01*
X67921Y-68729D01*
X70510Y-70853D01*
X73463Y-72432D01*
X76667Y-73404D01*
X80000Y-73732D01*
X83332Y-73404D01*
X86537Y-72432D01*
X89490Y-70853D01*
X92079Y-68729D01*
X94203Y-66140D01*
X95782Y-63187D01*
X96754Y-59983D01*
X97082Y-56650D01*
X96754Y-53317D01*
X95782Y-50113D01*
X94203Y-47160D01*
X92079Y-44571D01*
X89490Y-42447D01*
X86537Y-40868D01*
X83332Y-39896D01*
X80000Y-39568D01*
X76667Y-39896D01*
X73463Y-40868D01*
X70510Y-42447D01*
X67921Y-44571D01*
X66901Y-45814D01*
X65595Y-45403D01*
X65531Y-44586D01*
X64263Y-39306D01*
X62185Y-34289D01*
X59347Y-29659D01*
X55820Y-25529D01*
X51691Y-22003D01*
X47061Y-19165D01*
X42044Y-17087D01*
X36764Y-15819D01*
X31350Y-15393D01*
D02*
G37*
G36*
X715910Y-32578D02*
X713430Y-32905D01*
X711119Y-33862D01*
X709134Y-35385D01*
X707612Y-37369D01*
X706654Y-39680D01*
X706328Y-42160D01*
X706654Y-44640D01*
X707612Y-46951D01*
X709134Y-48935D01*
X711119Y-50458D01*
X713430Y-51416D01*
X715910Y-51742D01*
X718390Y-51416D01*
X720701Y-50458D01*
X722685Y-48935D01*
X724208Y-46951D01*
X725165Y-44640D01*
X725492Y-42160D01*
X725165Y-39680D01*
X724208Y-37369D01*
X722685Y-35385D01*
X720701Y-33862D01*
X718390Y-32905D01*
X715910Y-32578D01*
D02*
G37*
G36*
X741310D02*
X738830Y-32905D01*
X736519Y-33862D01*
X734534Y-35385D01*
X733012Y-37369D01*
X732054Y-39680D01*
X731728Y-42160D01*
X732054Y-44640D01*
X733012Y-46951D01*
X734534Y-48935D01*
X736519Y-50458D01*
X738830Y-51416D01*
X741310Y-51742D01*
X743790Y-51416D01*
X746101Y-50458D01*
X748085Y-48935D01*
X749608Y-46951D01*
X750565Y-44640D01*
X750892Y-42160D01*
X750565Y-39680D01*
X749608Y-37369D01*
X748085Y-35385D01*
X746101Y-33862D01*
X743790Y-32905D01*
X741310Y-32578D01*
D02*
G37*
G36*
X-85500Y-55902D02*
X-87841Y-56368D01*
X-89826Y-57694D01*
X-91152Y-59679D01*
X-91618Y-62020D01*
X-91152Y-64361D01*
X-89826Y-66346D01*
X-87841Y-67672D01*
X-85500Y-68137D01*
X-83159Y-67672D01*
X-81174Y-66346D01*
X-79848Y-64361D01*
X-79383Y-62020D01*
X-79848Y-59679D01*
X-81174Y-57694D01*
X-83159Y-56368D01*
X-85500Y-55902D01*
D02*
G37*
G36*
X-51800D02*
X-54141Y-56368D01*
X-56126Y-57694D01*
X-57452Y-59679D01*
X-57918Y-62020D01*
X-57452Y-64361D01*
X-56126Y-66346D01*
X-54141Y-67672D01*
X-51800Y-68137D01*
X-49459Y-67672D01*
X-47474Y-66346D01*
X-46148Y-64361D01*
X-45683Y-62020D01*
X-46148Y-59679D01*
X-47474Y-57694D01*
X-49459Y-56368D01*
X-51800Y-55902D01*
D02*
G37*
G36*
X458500Y-96152D02*
X456549Y-96540D01*
X454895Y-97645D01*
X453790Y-99299D01*
X453402Y-101250D01*
X453790Y-103201D01*
X454895Y-104855D01*
X456549Y-105960D01*
X458500Y-106348D01*
X460451Y-105960D01*
X462105Y-104855D01*
X463210Y-103201D01*
X463598Y-101250D01*
X463210Y-99299D01*
X462105Y-97645D01*
X460451Y-96540D01*
X458500Y-96152D01*
D02*
G37*
G36*
X715910Y-83378D02*
X713430Y-83705D01*
X711119Y-84662D01*
X709134Y-86185D01*
X707612Y-88169D01*
X706654Y-90480D01*
X706328Y-92960D01*
X706654Y-95440D01*
X707612Y-97751D01*
X709134Y-99735D01*
X711119Y-101258D01*
X713430Y-102215D01*
X715910Y-102542D01*
X718390Y-102215D01*
X720701Y-101258D01*
X722685Y-99735D01*
X724208Y-97751D01*
X725165Y-95440D01*
X725492Y-92960D01*
X725165Y-90480D01*
X724208Y-88169D01*
X722685Y-86185D01*
X720701Y-84662D01*
X718390Y-83705D01*
X715910Y-83378D01*
D02*
G37*
G36*
X-85500Y-95902D02*
X-87841Y-96368D01*
X-89826Y-97694D01*
X-91152Y-99679D01*
X-91618Y-102020D01*
X-91152Y-104361D01*
X-89826Y-106346D01*
X-87841Y-107672D01*
X-85500Y-108138D01*
X-83159Y-107672D01*
X-81174Y-106346D01*
X-79848Y-104361D01*
X-79383Y-102020D01*
X-79848Y-99679D01*
X-81174Y-97694D01*
X-83159Y-96368D01*
X-85500Y-95902D01*
D02*
G37*
G36*
X-51800D02*
X-54141Y-96368D01*
X-56126Y-97694D01*
X-57452Y-99679D01*
X-57918Y-102020D01*
X-57452Y-104361D01*
X-56126Y-106346D01*
X-54141Y-107672D01*
X-51800Y-108138D01*
X-49459Y-107672D01*
X-47474Y-106346D01*
X-46148Y-104361D01*
X-45683Y-102020D01*
X-46148Y-99679D01*
X-47474Y-97694D01*
X-49459Y-96368D01*
X-51800Y-95902D01*
D02*
G37*
G36*
X741310Y-83378D02*
X738830Y-83705D01*
X736519Y-84662D01*
X734534Y-86185D01*
X733012Y-88169D01*
X732054Y-90480D01*
X731728Y-92960D01*
X732054Y-95440D01*
X733012Y-97751D01*
X734534Y-99735D01*
X736519Y-101258D01*
X738830Y-102215D01*
X741310Y-102542D01*
X743790Y-102215D01*
X746101Y-101258D01*
X748085Y-99735D01*
X749608Y-97751D01*
X750565Y-95440D01*
X750892Y-92960D01*
X750565Y-90480D01*
X749608Y-88169D01*
X748085Y-86185D01*
X746101Y-84662D01*
X743790Y-83705D01*
X741310Y-83378D01*
D02*
G37*
G36*
X-85500Y-75902D02*
X-87841Y-76368D01*
X-89826Y-77694D01*
X-91152Y-79679D01*
X-91618Y-82020D01*
X-91152Y-84361D01*
X-89826Y-86346D01*
X-87841Y-87672D01*
X-85500Y-88138D01*
X-83159Y-87672D01*
X-81174Y-86346D01*
X-79848Y-84361D01*
X-79383Y-82020D01*
X-79848Y-79679D01*
X-81174Y-77694D01*
X-83159Y-76368D01*
X-85500Y-75902D01*
D02*
G37*
G36*
X-51800D02*
X-54141Y-76368D01*
X-56126Y-77694D01*
X-57452Y-79679D01*
X-57918Y-82020D01*
X-57452Y-84361D01*
X-56126Y-86346D01*
X-54141Y-87672D01*
X-51800Y-88138D01*
X-49459Y-87672D01*
X-47474Y-86346D01*
X-46148Y-84361D01*
X-45683Y-82020D01*
X-46148Y-79679D01*
X-47474Y-77694D01*
X-49459Y-76368D01*
X-51800Y-75902D01*
D02*
G37*
G36*
X766710Y-83378D02*
X764230Y-83705D01*
X761919Y-84662D01*
X759934Y-86185D01*
X758412Y-88169D01*
X757454Y-90480D01*
X757128Y-92960D01*
X757454Y-95440D01*
X758412Y-97751D01*
X759934Y-99735D01*
X761919Y-101258D01*
X764230Y-102215D01*
X766710Y-102542D01*
X769190Y-102215D01*
X771501Y-101258D01*
X773485Y-99735D01*
X775008Y-97751D01*
X775965Y-95440D01*
X776292Y-92960D01*
X775965Y-90480D01*
X775008Y-88169D01*
X773485Y-86185D01*
X771501Y-84662D01*
X769190Y-83705D01*
X766710Y-83378D01*
D02*
G37*
G36*
X792110D02*
X789630Y-83705D01*
X787319Y-84662D01*
X785334Y-86185D01*
X783812Y-88169D01*
X782854Y-90480D01*
X782528Y-92960D01*
X782854Y-95440D01*
X783812Y-97751D01*
X785334Y-99735D01*
X787319Y-101258D01*
X789630Y-102215D01*
X792110Y-102542D01*
X794590Y-102215D01*
X796901Y-101258D01*
X798885Y-99735D01*
X800408Y-97751D01*
X801365Y-95440D01*
X801692Y-92960D01*
X801365Y-90480D01*
X800408Y-88169D01*
X798885Y-86185D01*
X796901Y-84662D01*
X794590Y-83705D01*
X792110Y-83378D01*
D02*
G37*
G36*
Y-184978D02*
X789630Y-185305D01*
X787319Y-186262D01*
X785334Y-187785D01*
X783812Y-189769D01*
X782854Y-192080D01*
X782528Y-194560D01*
X782854Y-197040D01*
X783812Y-199351D01*
X785334Y-201336D01*
X787319Y-202858D01*
X789630Y-203815D01*
X792110Y-204142D01*
X794590Y-203815D01*
X796901Y-202858D01*
X798885Y-201336D01*
X800408Y-199351D01*
X801365Y-197040D01*
X801692Y-194560D01*
X801365Y-192080D01*
X800408Y-189769D01*
X798885Y-187785D01*
X796901Y-186262D01*
X794590Y-185305D01*
X792110Y-184978D01*
D02*
G37*
G36*
X488000Y-195133D02*
X485659Y-195598D01*
X483674Y-196924D01*
X482348Y-198909D01*
X481883Y-201250D01*
X482348Y-203591D01*
X483674Y-205576D01*
X485236Y-206619D01*
X484928Y-207941D01*
X484520Y-207994D01*
X482209Y-208952D01*
X480225Y-210474D01*
X478702Y-212459D01*
X477745Y-214770D01*
X477418Y-217250D01*
Y-252100D01*
Y-272900D01*
Y-282781D01*
X430224Y-329975D01*
X428702Y-331959D01*
X427264Y-332111D01*
X426992Y-331758D01*
X425530Y-330635D01*
X423827Y-329930D01*
X422000Y-329690D01*
X394000D01*
X392173Y-329930D01*
X390470Y-330635D01*
X389008Y-331758D01*
X387257Y-333508D01*
X386135Y-334970D01*
X385430Y-336673D01*
X385190Y-338500D01*
Y-350000D01*
X385430Y-351827D01*
X386135Y-353530D01*
X387257Y-354992D01*
X389007Y-356742D01*
X390470Y-357864D01*
X392173Y-358570D01*
X394000Y-358810D01*
X422000D01*
X423827Y-358570D01*
X425530Y-357864D01*
X426992Y-356742D01*
X427264Y-356389D01*
X428702Y-356541D01*
X430224Y-358525D01*
X432209Y-360048D01*
X434520Y-361005D01*
X437000Y-361332D01*
X439480Y-361005D01*
X441791Y-360048D01*
X443775Y-358525D01*
X445298Y-356541D01*
X446255Y-354230D01*
X446582Y-351750D01*
Y-340719D01*
X493775Y-293525D01*
X495298Y-291541D01*
X496255Y-289230D01*
X496582Y-286750D01*
Y-280604D01*
X534750D01*
X536649Y-280354D01*
X544038D01*
X544844Y-281335D01*
X544652Y-282300D01*
X545040Y-284251D01*
X546145Y-285905D01*
X547090Y-286536D01*
Y-288064D01*
X546145Y-288695D01*
X545040Y-290349D01*
X544652Y-292300D01*
X545040Y-294251D01*
X546145Y-295905D01*
X547090Y-296536D01*
Y-298064D01*
X546145Y-298695D01*
X545040Y-300349D01*
X544652Y-302300D01*
X545040Y-304251D01*
X546145Y-305905D01*
X547090Y-306536D01*
Y-308064D01*
X546145Y-308695D01*
X545040Y-310349D01*
X544652Y-312300D01*
X545040Y-314251D01*
X546145Y-315905D01*
X547090Y-316536D01*
Y-318064D01*
X546145Y-318695D01*
X545040Y-320349D01*
X544652Y-322300D01*
X545040Y-324251D01*
X546145Y-325905D01*
X547799Y-327010D01*
X549750Y-327398D01*
X551701Y-327010D01*
X553355Y-325905D01*
X554460Y-324251D01*
X554848Y-322300D01*
X554460Y-320349D01*
X553355Y-318695D01*
X552410Y-318064D01*
Y-316536D01*
X553355Y-315905D01*
X554460Y-314251D01*
X554848Y-312300D01*
X554460Y-310349D01*
X553355Y-308695D01*
X552410Y-308064D01*
Y-306536D01*
X553355Y-305905D01*
X554460Y-304251D01*
X554848Y-302300D01*
X554460Y-300349D01*
X553355Y-298695D01*
X552410Y-298064D01*
Y-296536D01*
X553355Y-295905D01*
X554460Y-294251D01*
X554848Y-292300D01*
X554460Y-290349D01*
X553355Y-288695D01*
X552410Y-288064D01*
Y-286536D01*
X553355Y-285905D01*
X554460Y-284251D01*
X554848Y-282300D01*
X554460Y-280349D01*
X554876Y-279115D01*
X555802Y-278732D01*
X558308Y-276808D01*
X560232Y-274302D01*
X561441Y-271383D01*
X561854Y-268250D01*
X561441Y-265117D01*
X560232Y-262198D01*
X558308Y-259692D01*
X555802Y-257768D01*
X554338Y-257162D01*
Y-254433D01*
X554460Y-254251D01*
X554848Y-252300D01*
X554460Y-250349D01*
X553355Y-248695D01*
X552410Y-248064D01*
Y-246536D01*
X553355Y-245905D01*
X554460Y-244251D01*
X554848Y-242300D01*
X554460Y-240349D01*
X553355Y-238695D01*
X552410Y-238064D01*
Y-236536D01*
X553355Y-235905D01*
X554460Y-234251D01*
X554848Y-232300D01*
X554460Y-230349D01*
X553355Y-228695D01*
X551701Y-227590D01*
X549750Y-227202D01*
X547799Y-227590D01*
X546145Y-228695D01*
X545040Y-230349D01*
X544652Y-232300D01*
X545040Y-234251D01*
X546145Y-235905D01*
X547090Y-236536D01*
Y-238064D01*
X546145Y-238695D01*
X545040Y-240349D01*
X544652Y-242300D01*
X545040Y-244251D01*
X546145Y-245905D01*
X547090Y-246536D01*
Y-248064D01*
X546145Y-248695D01*
X545040Y-250349D01*
X544652Y-252300D01*
X545040Y-254251D01*
X545162Y-254433D01*
Y-256147D01*
X534500D01*
X532601Y-256396D01*
X496582D01*
Y-252100D01*
Y-223310D01*
X507000D01*
X508827Y-223070D01*
X510530Y-222365D01*
X511992Y-221242D01*
X513115Y-219780D01*
X513820Y-218077D01*
X514060Y-216250D01*
X513820Y-214423D01*
X513115Y-212720D01*
X511992Y-211257D01*
X510530Y-210135D01*
X508827Y-209430D01*
X507000Y-209190D01*
X492101D01*
X491791Y-208952D01*
X490089Y-208247D01*
X490219Y-206926D01*
X490341Y-206902D01*
X492326Y-205576D01*
X493652Y-203591D01*
X494118Y-201250D01*
X493652Y-198909D01*
X492326Y-196924D01*
X490341Y-195598D01*
X488000Y-195133D01*
D02*
G37*
G36*
X507000D02*
X504659Y-195598D01*
X502674Y-196924D01*
X501348Y-198909D01*
X500882Y-201250D01*
X501348Y-203591D01*
X502674Y-205576D01*
X504659Y-206902D01*
X507000Y-207367D01*
X509341Y-206902D01*
X510933Y-205838D01*
X565350D01*
X579256Y-219744D01*
X580744Y-220739D01*
X582500Y-221088D01*
X615849D01*
X628797Y-234036D01*
X628840Y-234251D01*
X629945Y-235905D01*
X630890Y-236536D01*
Y-238064D01*
X629945Y-238695D01*
X628840Y-240349D01*
X628452Y-242300D01*
X628840Y-244251D01*
X629945Y-245905D01*
X630890Y-246536D01*
Y-248064D01*
X629945Y-248695D01*
X628840Y-250349D01*
X628452Y-252300D01*
X628840Y-254251D01*
X629945Y-255905D01*
X630890Y-256536D01*
Y-258064D01*
X629945Y-258695D01*
X628840Y-260349D01*
X628452Y-262300D01*
X628840Y-264251D01*
X629945Y-265905D01*
X630890Y-266536D01*
Y-268064D01*
X629945Y-268695D01*
X628840Y-270349D01*
X628452Y-272300D01*
X628840Y-274251D01*
X629945Y-275905D01*
X630890Y-276536D01*
Y-278064D01*
X629945Y-278695D01*
X628840Y-280349D01*
X628452Y-282300D01*
X628840Y-284251D01*
X629945Y-285905D01*
X630890Y-286536D01*
Y-288064D01*
X629945Y-288695D01*
X628840Y-290349D01*
X628452Y-292300D01*
X628840Y-294251D01*
X629945Y-295905D01*
X630890Y-296536D01*
Y-298064D01*
X629945Y-298695D01*
X628840Y-300349D01*
X628452Y-302300D01*
X628840Y-304251D01*
X629945Y-305905D01*
X630890Y-306536D01*
Y-308064D01*
X629945Y-308695D01*
X628840Y-310349D01*
X628452Y-312300D01*
X628840Y-314251D01*
X629945Y-315905D01*
X630890Y-316536D01*
Y-318064D01*
X629945Y-318695D01*
X628840Y-320349D01*
X628452Y-322300D01*
X628840Y-324251D01*
X629945Y-325905D01*
X631599Y-327010D01*
X633550Y-327398D01*
X635501Y-327010D01*
X637155Y-325905D01*
X638260Y-324251D01*
X638648Y-322300D01*
X638260Y-320349D01*
X637155Y-318695D01*
X636210Y-318064D01*
Y-316536D01*
X637155Y-315905D01*
X638260Y-314251D01*
X638648Y-312300D01*
X638260Y-310349D01*
X637155Y-308695D01*
X636210Y-308064D01*
Y-306536D01*
X637155Y-305905D01*
X638260Y-304251D01*
X638648Y-302300D01*
X638260Y-300349D01*
X637155Y-298695D01*
X636210Y-298064D01*
Y-296536D01*
X637155Y-295905D01*
X638260Y-294251D01*
X638648Y-292300D01*
X638260Y-290349D01*
X637155Y-288695D01*
X636210Y-288064D01*
Y-286536D01*
X637155Y-285905D01*
X638260Y-284251D01*
X638648Y-282300D01*
X638260Y-280349D01*
X637155Y-278695D01*
X636210Y-278064D01*
Y-276536D01*
X637155Y-275905D01*
X638260Y-274251D01*
X638648Y-272300D01*
X638260Y-270349D01*
X637155Y-268695D01*
X636210Y-268064D01*
Y-266536D01*
X637155Y-265905D01*
X638260Y-264251D01*
X638648Y-262300D01*
X638260Y-260349D01*
X637155Y-258695D01*
X636210Y-258064D01*
Y-256536D01*
X637155Y-255905D01*
X638260Y-254251D01*
X638648Y-252300D01*
X638260Y-250349D01*
X637155Y-248695D01*
X636210Y-248064D01*
Y-246536D01*
X637155Y-245905D01*
X638260Y-244251D01*
X638648Y-242300D01*
X638260Y-240349D01*
X637155Y-238695D01*
X636210Y-238064D01*
Y-236536D01*
X637155Y-235905D01*
X638260Y-234251D01*
X638648Y-232300D01*
X638260Y-230349D01*
X637155Y-228695D01*
X635501Y-227590D01*
X635286Y-227547D01*
X620994Y-213256D01*
X619506Y-212261D01*
X617750Y-211912D01*
X597677D01*
X597406Y-211114D01*
X597341Y-210642D01*
X598594Y-209009D01*
X599395Y-207075D01*
X599669Y-205000D01*
X599395Y-202925D01*
X598594Y-200991D01*
X597320Y-199330D01*
X595659Y-198056D01*
X593725Y-197255D01*
X591650Y-196981D01*
X589575Y-197255D01*
X587641Y-198056D01*
X585980Y-199330D01*
X584706Y-200991D01*
X583904Y-202925D01*
X583631Y-205000D01*
X583904Y-207075D01*
X584706Y-209009D01*
X585958Y-210642D01*
X585893Y-211114D01*
X585623Y-211912D01*
X584400D01*
X570494Y-198006D01*
X569006Y-197011D01*
X567250Y-196662D01*
X510933D01*
X509341Y-195598D01*
X507000Y-195133D01*
D02*
G37*
G36*
X323250Y-326431D02*
X286000D01*
X284634Y-326703D01*
X283477Y-327477D01*
X280293Y-330661D01*
X280250Y-330652D01*
X278299Y-331040D01*
X276645Y-332145D01*
X275540Y-333799D01*
X275152Y-335750D01*
X275370Y-336847D01*
X274768Y-337360D01*
X274241Y-337678D01*
X273000Y-337431D01*
X263129D01*
X263105Y-337395D01*
X261451Y-336290D01*
X259500Y-335902D01*
X257549Y-336290D01*
X255895Y-337395D01*
X254790Y-339049D01*
X254402Y-341000D01*
X254790Y-342951D01*
X255895Y-344605D01*
X256840Y-345236D01*
Y-346764D01*
X255895Y-347395D01*
X254790Y-349049D01*
X254402Y-351000D01*
X254790Y-352951D01*
X255895Y-354605D01*
X257549Y-355710D01*
X259500Y-356098D01*
X261451Y-355710D01*
X263105Y-354605D01*
X263129Y-354568D01*
X267420D01*
X268652Y-354750D01*
X269040Y-356701D01*
X270145Y-358355D01*
X271799Y-359460D01*
X273750Y-359848D01*
X275701Y-359460D01*
X277355Y-358355D01*
X278460Y-356701D01*
X278848Y-354750D01*
X278585Y-353428D01*
X279755Y-352802D01*
X281661Y-354707D01*
X281652Y-354750D01*
X282040Y-356701D01*
X283145Y-358355D01*
X284799Y-359460D01*
X286750Y-359848D01*
X288701Y-359460D01*
X290355Y-358355D01*
X291460Y-356701D01*
X291848Y-354750D01*
X291460Y-352799D01*
X290355Y-351145D01*
X288701Y-350040D01*
X286750Y-349652D01*
X286707Y-349660D01*
X278926Y-341880D01*
X279552Y-340709D01*
X280250Y-340848D01*
X282201Y-340460D01*
X283855Y-339355D01*
X284960Y-337701D01*
X285348Y-335750D01*
X285340Y-335707D01*
X287478Y-333569D01*
X321772D01*
X323477Y-335273D01*
X324634Y-336047D01*
X326000Y-336319D01*
X344371D01*
X344395Y-336355D01*
X346049Y-337460D01*
X348000Y-337848D01*
X349951Y-337460D01*
X351605Y-336355D01*
X352236Y-335410D01*
X353705D01*
X354386Y-336341D01*
X354395Y-336355D01*
X354397Y-336356D01*
X354431Y-336403D01*
Y-343522D01*
X348043Y-349911D01*
X348000Y-349902D01*
X346049Y-350290D01*
X344395Y-351395D01*
X343290Y-353049D01*
X342902Y-355000D01*
X343290Y-356951D01*
X344395Y-358605D01*
X346049Y-359710D01*
X348000Y-360098D01*
X349951Y-359710D01*
X351605Y-358605D01*
X352236Y-357660D01*
X353764D01*
X354395Y-358605D01*
X356049Y-359710D01*
X358000Y-360098D01*
X359951Y-359710D01*
X361605Y-358605D01*
X362710Y-356951D01*
X363098Y-355000D01*
X362710Y-353049D01*
X361605Y-351395D01*
X359951Y-350290D01*
X359442Y-350189D01*
X359073Y-348974D01*
X360523Y-347523D01*
X361297Y-346366D01*
X361569Y-345000D01*
Y-336379D01*
X361605Y-336355D01*
X362710Y-334701D01*
X363098Y-332750D01*
X362710Y-330799D01*
X361605Y-329145D01*
X359951Y-328040D01*
X358000Y-327652D01*
X356049Y-328040D01*
X354395Y-329145D01*
X353764Y-330090D01*
X352236D01*
X351605Y-329145D01*
X349951Y-328040D01*
X348000Y-327652D01*
X346049Y-328040D01*
X344395Y-329145D01*
X344371Y-329181D01*
X327478D01*
X325773Y-327477D01*
X324616Y-326703D01*
X323250Y-326431D01*
D02*
G37*
G36*
X591650Y-314281D02*
X589575Y-314555D01*
X587641Y-315356D01*
X585980Y-316630D01*
X584706Y-318291D01*
X583904Y-320225D01*
X583631Y-322300D01*
X583904Y-324375D01*
X584706Y-326309D01*
X585980Y-327970D01*
X587641Y-329244D01*
X589575Y-330045D01*
X591650Y-330319D01*
X593725Y-330045D01*
X595659Y-329244D01*
X597320Y-327970D01*
X598594Y-326309D01*
X599395Y-324375D01*
X599669Y-322300D01*
X599395Y-320225D01*
X598594Y-318291D01*
X597320Y-316630D01*
X595659Y-315356D01*
X593725Y-314555D01*
X591650Y-314281D01*
D02*
G37*
G36*
X388750Y-295940D02*
X386923Y-296180D01*
X385220Y-296886D01*
X383758Y-298008D01*
X382635Y-299470D01*
X381930Y-301173D01*
X381690Y-303000D01*
X381930Y-304827D01*
X382635Y-306530D01*
X383758Y-307992D01*
X385220Y-309114D01*
X386923Y-309820D01*
X388750Y-310060D01*
X390577Y-309820D01*
X392280Y-309114D01*
X393742Y-307992D01*
X394865Y-306530D01*
X395321Y-305429D01*
X396095Y-305376D01*
X396680Y-305464D01*
X397924Y-307326D01*
X399909Y-308652D01*
X402250Y-309118D01*
X404591Y-308652D01*
X406576Y-307326D01*
X407902Y-305341D01*
X408368Y-303000D01*
X407902Y-300659D01*
X406576Y-298674D01*
X404591Y-297348D01*
X402250Y-296882D01*
X399909Y-297348D01*
X397924Y-298674D01*
X396680Y-300536D01*
X396095Y-300624D01*
X395321Y-300571D01*
X394865Y-299470D01*
X393742Y-298008D01*
X392280Y-296886D01*
X390577Y-296180D01*
X388750Y-295940D01*
D02*
G37*
G36*
X741310Y-286578D02*
X738830Y-286905D01*
X736519Y-287862D01*
X734534Y-289385D01*
X733012Y-291369D01*
X732054Y-293680D01*
X731728Y-296160D01*
X732054Y-298640D01*
X733012Y-300951D01*
X734534Y-302936D01*
X736519Y-304458D01*
X738830Y-305415D01*
X741310Y-305742D01*
X743790Y-305415D01*
X746101Y-304458D01*
X748085Y-302936D01*
X749608Y-300951D01*
X750565Y-298640D01*
X750892Y-296160D01*
X750565Y-293680D01*
X749608Y-291369D01*
X748085Y-289385D01*
X746101Y-287862D01*
X743790Y-286905D01*
X741310Y-286578D01*
D02*
G37*
G36*
X766710D02*
X764230Y-286905D01*
X761919Y-287862D01*
X759934Y-289385D01*
X758412Y-291369D01*
X757454Y-293680D01*
X757128Y-296160D01*
X757454Y-298640D01*
X758412Y-300951D01*
X759934Y-302936D01*
X761919Y-304458D01*
X764230Y-305415D01*
X766710Y-305742D01*
X769190Y-305415D01*
X771501Y-304458D01*
X773485Y-302936D01*
X775008Y-300951D01*
X775965Y-298640D01*
X776292Y-296160D01*
X775965Y-293680D01*
X775008Y-291369D01*
X773485Y-289385D01*
X771501Y-287862D01*
X769190Y-286905D01*
X766710Y-286578D01*
D02*
G37*
G36*
X417250Y-296882D02*
X414909Y-297348D01*
X412924Y-298674D01*
X411598Y-300659D01*
X411133Y-303000D01*
X411598Y-305341D01*
X412924Y-307326D01*
X414909Y-308652D01*
X417250Y-309118D01*
X419591Y-308652D01*
X421576Y-307326D01*
X422902Y-305341D01*
X423368Y-303000D01*
X422902Y-300659D01*
X421576Y-298674D01*
X419591Y-297348D01*
X417250Y-296882D01*
D02*
G37*
G36*
X715910Y-286578D02*
X713430Y-286905D01*
X711119Y-287862D01*
X709134Y-289385D01*
X707612Y-291369D01*
X706654Y-293680D01*
X706328Y-296160D01*
X706654Y-298640D01*
X707612Y-300951D01*
X709134Y-302936D01*
X711119Y-304458D01*
X713430Y-305415D01*
X715910Y-305742D01*
X718390Y-305415D01*
X720701Y-304458D01*
X722685Y-302936D01*
X724208Y-300951D01*
X725165Y-298640D01*
X725492Y-296160D01*
X725165Y-293680D01*
X724208Y-291369D01*
X722685Y-289385D01*
X720701Y-287862D01*
X718390Y-286905D01*
X715910Y-286578D01*
D02*
G37*
G36*
X520000Y-377040D02*
X518173Y-377280D01*
X516470Y-377986D01*
X515008Y-379108D01*
X513886Y-380570D01*
X513180Y-382273D01*
X512940Y-384100D01*
Y-397840D01*
X508350D01*
X506523Y-398080D01*
X504820Y-398786D01*
X503358Y-399908D01*
X489076Y-414190D01*
X461175D01*
X453742Y-406758D01*
X452280Y-405635D01*
X450577Y-404930D01*
X448750Y-404690D01*
X444060D01*
Y-396750D01*
X443820Y-394923D01*
X443115Y-393220D01*
X441992Y-391758D01*
X440530Y-390635D01*
X438827Y-389930D01*
X437000Y-389690D01*
X435173Y-389930D01*
X433470Y-390635D01*
X432007Y-391758D01*
X430886Y-393220D01*
X430180Y-394923D01*
X430140Y-395224D01*
X428859D01*
X428820Y-394923D01*
X428115Y-393220D01*
X426992Y-391758D01*
X425530Y-390635D01*
X423827Y-389930D01*
X422000Y-389690D01*
X395500D01*
X393673Y-389930D01*
X391970Y-390635D01*
X390508Y-391758D01*
X387257Y-395008D01*
X386135Y-396470D01*
X385430Y-398173D01*
X385190Y-400000D01*
Y-410000D01*
X385430Y-411827D01*
X386135Y-413530D01*
X387257Y-414992D01*
X388720Y-416115D01*
X389846Y-416581D01*
X390008Y-416742D01*
X391470Y-417864D01*
X393173Y-418570D01*
X395000Y-418810D01*
X422000D01*
X423827Y-418570D01*
X425530Y-417864D01*
X426992Y-416742D01*
X428115Y-415280D01*
X428820Y-413577D01*
X428859Y-413276D01*
X430140D01*
X430180Y-413577D01*
X430886Y-415280D01*
X432007Y-416742D01*
X433470Y-417864D01*
X435173Y-418570D01*
X437000Y-418810D01*
X445826D01*
X453258Y-426242D01*
X454720Y-427365D01*
X456423Y-428070D01*
X458250Y-428310D01*
X492000D01*
X493827Y-428070D01*
X495530Y-427365D01*
X496992Y-426242D01*
X511274Y-411960D01*
X534408D01*
X535008Y-412743D01*
X536470Y-413865D01*
X538173Y-414570D01*
X540000Y-414810D01*
X541827Y-414570D01*
X543530Y-413865D01*
X544992Y-412743D01*
X546115Y-411280D01*
X546820Y-409577D01*
X547060Y-407750D01*
Y-392500D01*
X546820Y-390673D01*
X546115Y-388970D01*
X544992Y-387508D01*
X543530Y-386385D01*
X541827Y-385680D01*
X540000Y-385440D01*
X538173Y-385680D01*
X536470Y-386385D01*
X535008Y-387508D01*
X533885Y-388970D01*
X533180Y-390673D01*
X532940Y-392500D01*
Y-397840D01*
X527060D01*
Y-384100D01*
X526820Y-382273D01*
X526115Y-380570D01*
X524992Y-379108D01*
X523530Y-377986D01*
X521827Y-377280D01*
X520000Y-377040D01*
D02*
G37*
G36*
X323250Y-386431D02*
X286000D01*
X284634Y-386703D01*
X283477Y-387477D01*
X280293Y-390661D01*
X280250Y-390652D01*
X278299Y-391040D01*
X276645Y-392145D01*
X275540Y-393799D01*
X275152Y-395750D01*
X275370Y-396847D01*
X274768Y-397360D01*
X274241Y-397678D01*
X273000Y-397431D01*
X263129D01*
X263105Y-397395D01*
X261451Y-396290D01*
X259500Y-395902D01*
X257549Y-396290D01*
X255895Y-397395D01*
X254790Y-399049D01*
X254402Y-401000D01*
X254790Y-402951D01*
X255895Y-404605D01*
X256840Y-405236D01*
Y-406764D01*
X255895Y-407395D01*
X254790Y-409049D01*
X254402Y-411000D01*
X254790Y-412951D01*
X255895Y-414605D01*
X257549Y-415710D01*
X259500Y-416098D01*
X261451Y-415710D01*
X263105Y-414605D01*
X263129Y-414568D01*
X267420D01*
X268652Y-414750D01*
X269040Y-416701D01*
X270145Y-418355D01*
X271799Y-419460D01*
X273750Y-419848D01*
X275701Y-419460D01*
X277355Y-418355D01*
X278460Y-416701D01*
X278848Y-414750D01*
X278585Y-413428D01*
X279755Y-412802D01*
X281661Y-414707D01*
X281652Y-414750D01*
X282040Y-416701D01*
X283145Y-418355D01*
X284799Y-419460D01*
X286750Y-419848D01*
X288701Y-419460D01*
X290355Y-418355D01*
X291460Y-416701D01*
X291848Y-414750D01*
X291460Y-412799D01*
X290355Y-411145D01*
X288701Y-410040D01*
X286750Y-409652D01*
X286707Y-409660D01*
X278926Y-401880D01*
X279552Y-400709D01*
X280250Y-400848D01*
X282201Y-400460D01*
X283855Y-399355D01*
X284960Y-397701D01*
X285348Y-395750D01*
X285340Y-395707D01*
X287478Y-393569D01*
X321772D01*
X323477Y-395273D01*
X324634Y-396047D01*
X326000Y-396319D01*
X344371D01*
X344395Y-396355D01*
X346049Y-397460D01*
X348000Y-397848D01*
X349951Y-397460D01*
X351605Y-396355D01*
X352236Y-395410D01*
X353705D01*
X354386Y-396341D01*
X354395Y-396355D01*
X354397Y-396356D01*
X354431Y-396403D01*
Y-403522D01*
X348043Y-409911D01*
X348000Y-409902D01*
X346049Y-410290D01*
X344395Y-411395D01*
X343290Y-413049D01*
X342902Y-415000D01*
X343290Y-416951D01*
X344395Y-418605D01*
X346049Y-419710D01*
X348000Y-420098D01*
X349951Y-419710D01*
X351605Y-418605D01*
X352236Y-417660D01*
X353764D01*
X354395Y-418605D01*
X356049Y-419710D01*
X358000Y-420098D01*
X359951Y-419710D01*
X361605Y-418605D01*
X362710Y-416951D01*
X363098Y-415000D01*
X362710Y-413049D01*
X361605Y-411395D01*
X359951Y-410290D01*
X359442Y-410189D01*
X359073Y-408974D01*
X360523Y-407523D01*
X361297Y-406366D01*
X361569Y-405000D01*
Y-396379D01*
X361605Y-396355D01*
X362710Y-394701D01*
X363098Y-392750D01*
X362710Y-390799D01*
X361605Y-389145D01*
X359951Y-388040D01*
X358000Y-387652D01*
X356049Y-388040D01*
X354395Y-389145D01*
X353764Y-390090D01*
X352236D01*
X351605Y-389145D01*
X349951Y-388040D01*
X348000Y-387652D01*
X346049Y-388040D01*
X344395Y-389145D01*
X344371Y-389181D01*
X327478D01*
X325773Y-387477D01*
X324616Y-386703D01*
X323250Y-386431D01*
D02*
G37*
G36*
X31350Y-352693D02*
X25936Y-353119D01*
X20656Y-354387D01*
X15639Y-356465D01*
X11009Y-359303D01*
X6879Y-362829D01*
X3352Y-366959D01*
X515Y-371589D01*
X-1563Y-376606D01*
X-2831Y-381886D01*
X-3257Y-387300D01*
X-2831Y-392714D01*
X-1563Y-397994D01*
X515Y-403011D01*
X3352Y-407641D01*
X6879Y-411771D01*
X11009Y-415297D01*
X15639Y-418135D01*
X20656Y-420213D01*
X25936Y-421481D01*
X31350Y-421907D01*
X36764Y-421481D01*
X42044Y-420213D01*
X47061Y-418135D01*
X51691Y-415297D01*
X55820Y-411771D01*
X59347Y-407641D01*
X62185Y-403011D01*
X64263Y-397994D01*
X65531Y-392714D01*
X65957Y-387300D01*
X65531Y-381886D01*
X64263Y-376606D01*
X62185Y-371589D01*
X59347Y-366959D01*
X55820Y-362829D01*
X51691Y-359303D01*
X47061Y-356465D01*
X42044Y-354387D01*
X36764Y-353119D01*
X31350Y-352693D01*
D02*
G37*
G36*
X618650D02*
X613236Y-353119D01*
X607956Y-354387D01*
X602939Y-356465D01*
X598309Y-359303D01*
X594179Y-362829D01*
X590653Y-366959D01*
X587815Y-371589D01*
X585737Y-376606D01*
X584469Y-381886D01*
X584043Y-387300D01*
X584469Y-392714D01*
X585737Y-397994D01*
X587815Y-403011D01*
X590653Y-407641D01*
X594179Y-411771D01*
X598309Y-415297D01*
X602939Y-418135D01*
X607956Y-420213D01*
X613236Y-421481D01*
X618650Y-421907D01*
X624063Y-421481D01*
X629344Y-420213D01*
X634361Y-418135D01*
X638991Y-415297D01*
X643120Y-411771D01*
X646647Y-407641D01*
X649485Y-403011D01*
X651563Y-397994D01*
X652831Y-392714D01*
X653257Y-387300D01*
X652831Y-381886D01*
X651563Y-376606D01*
X649485Y-371589D01*
X646647Y-366959D01*
X643120Y-362829D01*
X638991Y-359303D01*
X634361Y-356465D01*
X629344Y-354387D01*
X624063Y-353119D01*
X618650Y-352693D01*
D02*
G37*
G36*
X591650Y-331981D02*
X589575Y-332255D01*
X587641Y-333056D01*
X585980Y-334330D01*
X584706Y-335991D01*
X583904Y-337925D01*
X583631Y-340000D01*
X583904Y-342075D01*
X584706Y-344009D01*
X585980Y-345670D01*
X587641Y-346944D01*
X589575Y-347745D01*
X591650Y-348019D01*
X593725Y-347745D01*
X595659Y-346944D01*
X597320Y-345670D01*
X598594Y-344009D01*
X599395Y-342075D01*
X599669Y-340000D01*
X599395Y-337925D01*
X598594Y-335991D01*
X597320Y-334330D01*
X595659Y-333056D01*
X593725Y-332255D01*
X591650Y-331981D01*
D02*
G37*
G36*
X766710Y-311978D02*
X764230Y-312305D01*
X761919Y-313262D01*
X759934Y-314785D01*
X758412Y-316769D01*
X757454Y-319080D01*
X757128Y-321560D01*
X757454Y-324040D01*
X758412Y-326351D01*
X759934Y-328335D01*
X761919Y-329858D01*
X764230Y-330816D01*
X766710Y-331142D01*
X769190Y-330816D01*
X771501Y-329858D01*
X773485Y-328335D01*
X775008Y-326351D01*
X775965Y-324040D01*
X776292Y-321560D01*
X775965Y-319080D01*
X775008Y-316769D01*
X773485Y-314785D01*
X771501Y-313262D01*
X769190Y-312305D01*
X766710Y-311978D01*
D02*
G37*
G36*
X792110D02*
X789630Y-312305D01*
X787319Y-313262D01*
X785334Y-314785D01*
X783812Y-316769D01*
X782854Y-319080D01*
X782528Y-321560D01*
X782854Y-324040D01*
X783812Y-326351D01*
X785334Y-328335D01*
X787319Y-329858D01*
X789630Y-330816D01*
X792110Y-331142D01*
X794590Y-330816D01*
X796901Y-329858D01*
X798885Y-328335D01*
X800408Y-326351D01*
X801365Y-324040D01*
X801692Y-321560D01*
X801365Y-319080D01*
X800408Y-316769D01*
X798885Y-314785D01*
X796901Y-313262D01*
X794590Y-312305D01*
X792110Y-311978D01*
D02*
G37*
G36*
X715910D02*
X713430Y-312305D01*
X711119Y-313262D01*
X709134Y-314785D01*
X707612Y-316769D01*
X706654Y-319080D01*
X706328Y-321560D01*
X706654Y-324040D01*
X707612Y-326351D01*
X709134Y-328335D01*
X711119Y-329858D01*
X713430Y-330816D01*
X715910Y-331142D01*
X718390Y-330816D01*
X720701Y-329858D01*
X722685Y-328335D01*
X724208Y-326351D01*
X725165Y-324040D01*
X725492Y-321560D01*
X725165Y-319080D01*
X724208Y-316769D01*
X722685Y-314785D01*
X720701Y-313262D01*
X718390Y-312305D01*
X715910Y-311978D01*
D02*
G37*
G36*
X741310D02*
X738830Y-312305D01*
X736519Y-313262D01*
X734534Y-314785D01*
X733012Y-316769D01*
X732054Y-319080D01*
X731728Y-321560D01*
X732054Y-324040D01*
X733012Y-326351D01*
X734534Y-328335D01*
X736519Y-329858D01*
X738830Y-330816D01*
X741310Y-331142D01*
X743790Y-330816D01*
X746101Y-329858D01*
X748085Y-328335D01*
X749608Y-326351D01*
X750565Y-324040D01*
X750892Y-321560D01*
X750565Y-319080D01*
X749608Y-316769D01*
X748085Y-314785D01*
X746101Y-313262D01*
X743790Y-312305D01*
X741310Y-311978D01*
D02*
G37*
G36*
X715910Y-210378D02*
X713430Y-210705D01*
X711119Y-211662D01*
X709134Y-213185D01*
X707612Y-215169D01*
X706654Y-217480D01*
X706328Y-219960D01*
X706654Y-222440D01*
X707612Y-224751D01*
X709134Y-226735D01*
X711119Y-228258D01*
X713430Y-229216D01*
X715910Y-229542D01*
X718390Y-229216D01*
X720701Y-228258D01*
X722685Y-226735D01*
X724208Y-224751D01*
X725165Y-222440D01*
X725492Y-219960D01*
X725165Y-217480D01*
X724208Y-215169D01*
X722685Y-213185D01*
X720701Y-211662D01*
X718390Y-210705D01*
X715910Y-210378D01*
D02*
G37*
G36*
X741310D02*
X738830Y-210705D01*
X736519Y-211662D01*
X734534Y-213185D01*
X733012Y-215169D01*
X732054Y-217480D01*
X731728Y-219960D01*
X732054Y-222440D01*
X733012Y-224751D01*
X734534Y-226735D01*
X736519Y-228258D01*
X738830Y-229216D01*
X741310Y-229542D01*
X743790Y-229216D01*
X746101Y-228258D01*
X748085Y-226735D01*
X749608Y-224751D01*
X750565Y-222440D01*
X750892Y-219960D01*
X750565Y-217480D01*
X749608Y-215169D01*
X748085Y-213185D01*
X746101Y-211662D01*
X743790Y-210705D01*
X741310Y-210378D01*
D02*
G37*
G36*
X792110Y-235778D02*
X789630Y-236105D01*
X787319Y-237062D01*
X785334Y-238585D01*
X783812Y-240569D01*
X782854Y-242880D01*
X782528Y-245360D01*
X782854Y-247840D01*
X783812Y-250151D01*
X785334Y-252136D01*
X787319Y-253658D01*
X789630Y-254615D01*
X792110Y-254942D01*
X794590Y-254615D01*
X796901Y-253658D01*
X798885Y-252136D01*
X800408Y-250151D01*
X801365Y-247840D01*
X801692Y-245360D01*
X801365Y-242880D01*
X800408Y-240569D01*
X798885Y-238585D01*
X796901Y-237062D01*
X794590Y-236105D01*
X792110Y-235778D01*
D02*
G37*
G36*
X591650Y-224281D02*
X589575Y-224555D01*
X587641Y-225356D01*
X585980Y-226630D01*
X584706Y-228291D01*
X583904Y-230225D01*
X583631Y-232300D01*
X583904Y-234375D01*
X584706Y-236309D01*
X585980Y-237970D01*
X587641Y-239244D01*
X589575Y-240045D01*
X591650Y-240319D01*
X593725Y-240045D01*
X595659Y-239244D01*
X597320Y-237970D01*
X598594Y-236309D01*
X599395Y-234375D01*
X599669Y-232300D01*
X599395Y-230225D01*
X598594Y-228291D01*
X597320Y-226630D01*
X595659Y-225356D01*
X593725Y-224555D01*
X591650Y-224281D01*
D02*
G37*
G36*
X766710Y-210378D02*
X764230Y-210705D01*
X761919Y-211662D01*
X759934Y-213185D01*
X758412Y-215169D01*
X757454Y-217480D01*
X757128Y-219960D01*
X757454Y-222440D01*
X758412Y-224751D01*
X759934Y-226735D01*
X761919Y-228258D01*
X764230Y-229216D01*
X766710Y-229542D01*
X769190Y-229216D01*
X771501Y-228258D01*
X773485Y-226735D01*
X775008Y-224751D01*
X775965Y-222440D01*
X776292Y-219960D01*
X775965Y-217480D01*
X775008Y-215169D01*
X773485Y-213185D01*
X771501Y-211662D01*
X769190Y-210705D01*
X766710Y-210378D01*
D02*
G37*
G36*
X741310Y-184978D02*
X738830Y-185305D01*
X736519Y-186262D01*
X734534Y-187785D01*
X733012Y-189769D01*
X732054Y-192080D01*
X731728Y-194560D01*
X732054Y-197040D01*
X733012Y-199351D01*
X734534Y-201336D01*
X736519Y-202858D01*
X738830Y-203815D01*
X741310Y-204142D01*
X743790Y-203815D01*
X746101Y-202858D01*
X748085Y-201336D01*
X749608Y-199351D01*
X750565Y-197040D01*
X750892Y-194560D01*
X750565Y-192080D01*
X749608Y-189769D01*
X748085Y-187785D01*
X746101Y-186262D01*
X743790Y-185305D01*
X741310Y-184978D01*
D02*
G37*
G36*
X766710D02*
X764230Y-185305D01*
X761919Y-186262D01*
X759934Y-187785D01*
X758412Y-189769D01*
X757454Y-192080D01*
X757128Y-194560D01*
X757454Y-197040D01*
X758412Y-199351D01*
X759934Y-201336D01*
X761919Y-202858D01*
X764230Y-203815D01*
X766710Y-204142D01*
X769190Y-203815D01*
X771501Y-202858D01*
X773485Y-201336D01*
X775008Y-199351D01*
X775965Y-197040D01*
X776292Y-194560D01*
X775965Y-192080D01*
X775008Y-189769D01*
X773485Y-187785D01*
X771501Y-186262D01*
X769190Y-185305D01*
X766710Y-184978D01*
D02*
G37*
G36*
X792110Y-210378D02*
X789630Y-210705D01*
X787319Y-211662D01*
X785334Y-213185D01*
X783812Y-215169D01*
X782854Y-217480D01*
X782528Y-219960D01*
X782854Y-222440D01*
X783812Y-224751D01*
X785334Y-226735D01*
X787319Y-228258D01*
X789630Y-229216D01*
X792110Y-229542D01*
X794590Y-229216D01*
X796901Y-228258D01*
X798885Y-226735D01*
X800408Y-224751D01*
X801365Y-222440D01*
X801692Y-219960D01*
X801365Y-217480D01*
X800408Y-215169D01*
X798885Y-213185D01*
X796901Y-211662D01*
X794590Y-210705D01*
X792110Y-210378D01*
D02*
G37*
G36*
X715910Y-184978D02*
X713430Y-185305D01*
X711119Y-186262D01*
X709134Y-187785D01*
X707612Y-189769D01*
X706654Y-192080D01*
X706328Y-194560D01*
X706654Y-197040D01*
X707612Y-199351D01*
X709134Y-201336D01*
X711119Y-202858D01*
X713430Y-203815D01*
X715910Y-204142D01*
X718390Y-203815D01*
X720701Y-202858D01*
X722685Y-201336D01*
X724208Y-199351D01*
X725165Y-197040D01*
X725492Y-194560D01*
X725165Y-192080D01*
X724208Y-189769D01*
X722685Y-187785D01*
X720701Y-186262D01*
X718390Y-185305D01*
X715910Y-184978D01*
D02*
G37*
G36*
X741310Y-261178D02*
X738830Y-261505D01*
X736519Y-262462D01*
X734534Y-263985D01*
X733012Y-265969D01*
X732054Y-268280D01*
X731728Y-270760D01*
X732054Y-273240D01*
X733012Y-275551D01*
X734534Y-277535D01*
X736519Y-279058D01*
X738830Y-280016D01*
X741310Y-280342D01*
X743790Y-280016D01*
X746101Y-279058D01*
X748085Y-277535D01*
X749608Y-275551D01*
X750565Y-273240D01*
X750892Y-270760D01*
X750565Y-268280D01*
X749608Y-265969D01*
X748085Y-263985D01*
X746101Y-262462D01*
X743790Y-261505D01*
X741310Y-261178D01*
D02*
G37*
G36*
X766710D02*
X764230Y-261505D01*
X761919Y-262462D01*
X759934Y-263985D01*
X758412Y-265969D01*
X757454Y-268280D01*
X757128Y-270760D01*
X757454Y-273240D01*
X758412Y-275551D01*
X759934Y-277535D01*
X761919Y-279058D01*
X764230Y-280016D01*
X766710Y-280342D01*
X769190Y-280016D01*
X771501Y-279058D01*
X773485Y-277535D01*
X775008Y-275551D01*
X775965Y-273240D01*
X776292Y-270760D01*
X775965Y-268280D01*
X775008Y-265969D01*
X773485Y-263985D01*
X771501Y-262462D01*
X769190Y-261505D01*
X766710Y-261178D01*
D02*
G37*
G36*
X792110Y-286578D02*
X789630Y-286905D01*
X787319Y-287862D01*
X785334Y-289385D01*
X783812Y-291369D01*
X782854Y-293680D01*
X782528Y-296160D01*
X782854Y-298640D01*
X783812Y-300951D01*
X785334Y-302936D01*
X787319Y-304458D01*
X789630Y-305415D01*
X792110Y-305742D01*
X794590Y-305415D01*
X796901Y-304458D01*
X798885Y-302936D01*
X800408Y-300951D01*
X801365Y-298640D01*
X801692Y-296160D01*
X801365Y-293680D01*
X800408Y-291369D01*
X798885Y-289385D01*
X796901Y-287862D01*
X794590Y-286905D01*
X792110Y-286578D01*
D02*
G37*
G36*
X715910Y-261178D02*
X713430Y-261505D01*
X711119Y-262462D01*
X709134Y-263985D01*
X707612Y-265969D01*
X706654Y-268280D01*
X706328Y-270760D01*
X706654Y-273240D01*
X707612Y-275551D01*
X709134Y-277535D01*
X711119Y-279058D01*
X713430Y-280016D01*
X715910Y-280342D01*
X718390Y-280016D01*
X720701Y-279058D01*
X722685Y-277535D01*
X724208Y-275551D01*
X725165Y-273240D01*
X725492Y-270760D01*
X725165Y-268280D01*
X724208Y-265969D01*
X722685Y-263985D01*
X720701Y-262462D01*
X718390Y-261505D01*
X715910Y-261178D01*
D02*
G37*
G36*
X792110D02*
X789630Y-261505D01*
X787319Y-262462D01*
X785334Y-263985D01*
X783812Y-265969D01*
X782854Y-268280D01*
X782528Y-270760D01*
X782854Y-273240D01*
X783812Y-275551D01*
X785334Y-277535D01*
X787319Y-279058D01*
X789630Y-280016D01*
X792110Y-280342D01*
X794590Y-280016D01*
X796901Y-279058D01*
X798885Y-277535D01*
X800408Y-275551D01*
X801365Y-273240D01*
X801692Y-270760D01*
X801365Y-268280D01*
X800408Y-265969D01*
X798885Y-263985D01*
X796901Y-262462D01*
X794590Y-261505D01*
X792110Y-261178D01*
D02*
G37*
G36*
X741310Y-235778D02*
X738830Y-236105D01*
X736519Y-237062D01*
X734534Y-238585D01*
X733012Y-240569D01*
X732054Y-242880D01*
X731728Y-245360D01*
X732054Y-247840D01*
X733012Y-250151D01*
X734534Y-252136D01*
X736519Y-253658D01*
X738830Y-254615D01*
X741310Y-254942D01*
X743790Y-254615D01*
X746101Y-253658D01*
X748085Y-252136D01*
X749608Y-250151D01*
X750565Y-247840D01*
X750892Y-245360D01*
X750565Y-242880D01*
X749608Y-240569D01*
X748085Y-238585D01*
X746101Y-237062D01*
X743790Y-236105D01*
X741310Y-235778D01*
D02*
G37*
G36*
X766710D02*
X764230Y-236105D01*
X761919Y-237062D01*
X759934Y-238585D01*
X758412Y-240569D01*
X757454Y-242880D01*
X757128Y-245360D01*
X757454Y-247840D01*
X758412Y-250151D01*
X759934Y-252136D01*
X761919Y-253658D01*
X764230Y-254615D01*
X766710Y-254942D01*
X769190Y-254615D01*
X771501Y-253658D01*
X773485Y-252136D01*
X775008Y-250151D01*
X775965Y-247840D01*
X776292Y-245360D01*
X775965Y-242880D01*
X775008Y-240569D01*
X773485Y-238585D01*
X771501Y-237062D01*
X769190Y-236105D01*
X766710Y-235778D01*
D02*
G37*
G36*
X591650Y-241981D02*
X589575Y-242255D01*
X587641Y-243056D01*
X585980Y-244330D01*
X584706Y-245991D01*
X583904Y-247925D01*
X583631Y-250000D01*
X583904Y-252075D01*
X584706Y-254009D01*
X585980Y-255670D01*
X587641Y-256944D01*
X589575Y-257745D01*
X591650Y-258019D01*
X593725Y-257745D01*
X595659Y-256944D01*
X597320Y-255670D01*
X598594Y-254009D01*
X599395Y-252075D01*
X599669Y-250000D01*
X599395Y-247925D01*
X598594Y-245991D01*
X597320Y-244330D01*
X595659Y-243056D01*
X593725Y-242255D01*
X591650Y-241981D01*
D02*
G37*
G36*
X715910Y-235778D02*
X713430Y-236105D01*
X711119Y-237062D01*
X709134Y-238585D01*
X707612Y-240569D01*
X706654Y-242880D01*
X706328Y-245360D01*
X706654Y-247840D01*
X707612Y-250151D01*
X709134Y-252136D01*
X711119Y-253658D01*
X713430Y-254615D01*
X715910Y-254942D01*
X718390Y-254615D01*
X720701Y-253658D01*
X722685Y-252136D01*
X724208Y-250151D01*
X725165Y-247840D01*
X725492Y-245360D01*
X725165Y-242880D01*
X724208Y-240569D01*
X722685Y-238585D01*
X720701Y-237062D01*
X718390Y-236105D01*
X715910Y-235778D01*
D02*
G37*
G36*
X766710Y-32578D02*
X764230Y-32905D01*
X761919Y-33862D01*
X759934Y-35385D01*
X758412Y-37369D01*
X757454Y-39680D01*
X757128Y-42160D01*
X757454Y-44640D01*
X758412Y-46951D01*
X759934Y-48935D01*
X761919Y-50458D01*
X764230Y-51416D01*
X766710Y-51742D01*
X769190Y-51416D01*
X771501Y-50458D01*
X773485Y-48935D01*
X775008Y-46951D01*
X775965Y-44640D01*
X776292Y-42160D01*
X775965Y-39680D01*
X775008Y-37369D01*
X773485Y-35385D01*
X771501Y-33862D01*
X769190Y-32905D01*
X766710Y-32578D01*
D02*
G37*
G36*
X669750Y202829D02*
X667409Y202363D01*
X665424Y201037D01*
X664098Y199053D01*
X663633Y196712D01*
X664098Y194370D01*
X665424Y192386D01*
X667409Y191060D01*
X669750Y190594D01*
X672091Y191060D01*
X674076Y192386D01*
X675402Y194370D01*
X675868Y196712D01*
X675402Y199053D01*
X674076Y201037D01*
X672091Y202363D01*
X669750Y202829D01*
D02*
G37*
G36*
X684750D02*
X682409Y202363D01*
X680424Y201037D01*
X679098Y199053D01*
X678633Y196712D01*
X679098Y194370D01*
X680424Y192386D01*
X682409Y191060D01*
X684750Y190594D01*
X687091Y191060D01*
X689076Y192386D01*
X690402Y194370D01*
X690868Y196712D01*
X690402Y199053D01*
X689076Y201037D01*
X687091Y202363D01*
X684750Y202829D01*
D02*
G37*
G36*
X792110Y196022D02*
X789630Y195695D01*
X787319Y194738D01*
X785334Y193215D01*
X783812Y191231D01*
X782854Y188920D01*
X782528Y186440D01*
X782854Y183960D01*
X783812Y181649D01*
X785334Y179664D01*
X787319Y178142D01*
X789630Y177185D01*
X792110Y176858D01*
X794590Y177185D01*
X796901Y178142D01*
X798885Y179664D01*
X800408Y181649D01*
X801365Y183960D01*
X801692Y186440D01*
X801365Y188920D01*
X800408Y191231D01*
X798885Y193215D01*
X796901Y194738D01*
X794590Y195695D01*
X792110Y196022D01*
D02*
G37*
G36*
X591650Y195319D02*
X589575Y195045D01*
X587641Y194244D01*
X585980Y192970D01*
X584706Y191309D01*
X583904Y189375D01*
X583631Y187300D01*
X583904Y185225D01*
X584706Y183291D01*
X585980Y181630D01*
X587641Y180356D01*
X589575Y179555D01*
X591650Y179281D01*
X593725Y179555D01*
X595659Y180356D01*
X597320Y181630D01*
X598594Y183291D01*
X599395Y185225D01*
X599669Y187300D01*
X599395Y189375D01*
X598594Y191309D01*
X597320Y192970D01*
X595659Y194244D01*
X593725Y195045D01*
X591650Y195319D01*
D02*
G37*
G36*
X766710Y221422D02*
X764230Y221095D01*
X761919Y220138D01*
X759934Y218615D01*
X758412Y216631D01*
X757454Y214320D01*
X757128Y211840D01*
X757454Y209360D01*
X758412Y207049D01*
X759934Y205065D01*
X761919Y203542D01*
X764230Y202584D01*
X766710Y202258D01*
X769190Y202584D01*
X771501Y203542D01*
X773485Y205065D01*
X775008Y207049D01*
X775965Y209360D01*
X776292Y211840D01*
X775965Y214320D01*
X775008Y216631D01*
X773485Y218615D01*
X771501Y220138D01*
X769190Y221095D01*
X766710Y221422D01*
D02*
G37*
G36*
X792110Y246822D02*
X789630Y246495D01*
X787319Y245538D01*
X785334Y244015D01*
X783812Y242031D01*
X782854Y239720D01*
X782528Y237240D01*
X782854Y234760D01*
X783812Y232449D01*
X785334Y230464D01*
X787319Y228942D01*
X789630Y227985D01*
X792110Y227658D01*
X794590Y227985D01*
X796901Y228942D01*
X798885Y230464D01*
X800408Y232449D01*
X801365Y234760D01*
X801692Y237240D01*
X801365Y239720D01*
X800408Y242031D01*
X798885Y244015D01*
X796901Y245538D01*
X794590Y246495D01*
X792110Y246822D01*
D02*
G37*
G36*
X488000Y242118D02*
X485659Y241652D01*
X483674Y240326D01*
X482348Y238341D01*
X481883Y236000D01*
X482348Y233659D01*
X483674Y231674D01*
X485659Y230348D01*
X488000Y229883D01*
X490341Y230348D01*
X492326Y231674D01*
X493652Y233659D01*
X494118Y236000D01*
X493652Y238341D01*
X492326Y240326D01*
X490341Y241652D01*
X488000Y242118D01*
D02*
G37*
G36*
X792110Y221422D02*
X789630Y221095D01*
X787319Y220138D01*
X785334Y218615D01*
X783812Y216631D01*
X782854Y214320D01*
X782528Y211840D01*
X782854Y209360D01*
X783812Y207049D01*
X785334Y205065D01*
X787319Y203542D01*
X789630Y202584D01*
X792110Y202258D01*
X794590Y202584D01*
X796901Y203542D01*
X798885Y205065D01*
X800408Y207049D01*
X801365Y209360D01*
X801692Y211840D01*
X801365Y214320D01*
X800408Y216631D01*
X798885Y218615D01*
X796901Y220138D01*
X794590Y221095D01*
X792110Y221422D01*
D02*
G37*
G36*
X669750Y223483D02*
X667409Y223017D01*
X665424Y221691D01*
X664098Y219706D01*
X663633Y217365D01*
X664098Y215024D01*
X665424Y213040D01*
X667409Y211714D01*
X669750Y211248D01*
X672091Y211714D01*
X674076Y213040D01*
X675402Y215024D01*
X675867Y217365D01*
X675402Y219706D01*
X674076Y221691D01*
X672091Y223017D01*
X669750Y223483D01*
D02*
G37*
G36*
X591650Y123019D02*
X589575Y122745D01*
X587641Y121944D01*
X585980Y120670D01*
X584706Y119009D01*
X583904Y117075D01*
X583631Y115000D01*
X583904Y112925D01*
X584706Y110991D01*
X585980Y109330D01*
X587641Y108056D01*
X589575Y107255D01*
X591650Y106981D01*
X593725Y107255D01*
X595659Y108056D01*
X597320Y109330D01*
X598594Y110991D01*
X599395Y112925D01*
X599669Y115000D01*
X599395Y117075D01*
X598594Y119009D01*
X597320Y120670D01*
X595659Y121944D01*
X593725Y122745D01*
X591650Y123019D01*
D02*
G37*
G36*
X669750Y140868D02*
X667409Y140402D01*
X665424Y139076D01*
X664098Y137091D01*
X663633Y134750D01*
X664098Y132409D01*
X665424Y130424D01*
X667409Y129098D01*
X669750Y128632D01*
X672091Y129098D01*
X674076Y130424D01*
X675402Y132409D01*
X675868Y134750D01*
X675402Y137091D01*
X674076Y139076D01*
X672091Y140402D01*
X669750Y140868D01*
D02*
G37*
G36*
X766710Y119822D02*
X764230Y119495D01*
X761919Y118538D01*
X759934Y117015D01*
X758412Y115031D01*
X757454Y112720D01*
X757128Y110240D01*
X757454Y107760D01*
X758412Y105449D01*
X759934Y103464D01*
X761919Y101942D01*
X764230Y100984D01*
X766710Y100658D01*
X769190Y100984D01*
X771501Y101942D01*
X773485Y103464D01*
X775008Y105449D01*
X775965Y107760D01*
X776292Y110240D01*
X775965Y112720D01*
X775008Y115031D01*
X773485Y117015D01*
X771501Y118538D01*
X769190Y119495D01*
X766710Y119822D01*
D02*
G37*
G36*
X792110D02*
X789630Y119495D01*
X787319Y118538D01*
X785334Y117015D01*
X783812Y115031D01*
X782854Y112720D01*
X782528Y110240D01*
X782854Y107760D01*
X783812Y105449D01*
X785334Y103464D01*
X787319Y101942D01*
X789630Y100984D01*
X792110Y100658D01*
X794590Y100984D01*
X796901Y101942D01*
X798885Y103464D01*
X800408Y105449D01*
X801365Y107760D01*
X801692Y110240D01*
X801365Y112720D01*
X800408Y115031D01*
X798885Y117015D01*
X796901Y118538D01*
X794590Y119495D01*
X792110Y119822D01*
D02*
G37*
G36*
Y170622D02*
X789630Y170295D01*
X787319Y169338D01*
X785334Y167815D01*
X783812Y165831D01*
X782854Y163520D01*
X782528Y161040D01*
X782854Y158560D01*
X783812Y156249D01*
X785334Y154264D01*
X787319Y152742D01*
X789630Y151784D01*
X792110Y151458D01*
X794590Y151784D01*
X796901Y152742D01*
X798885Y154264D01*
X800408Y156249D01*
X801365Y158560D01*
X801692Y161040D01*
X801365Y163520D01*
X800408Y165831D01*
X798885Y167815D01*
X796901Y169338D01*
X794590Y170295D01*
X792110Y170622D01*
D02*
G37*
G36*
X741310Y196022D02*
X738830Y195695D01*
X736519Y194738D01*
X734534Y193215D01*
X733012Y191231D01*
X732054Y188920D01*
X731728Y186440D01*
X732054Y183960D01*
X733012Y181649D01*
X734534Y179664D01*
X736519Y178142D01*
X738830Y177185D01*
X741310Y176858D01*
X743790Y177185D01*
X746101Y178142D01*
X748085Y179664D01*
X749608Y181649D01*
X750565Y183960D01*
X750892Y186440D01*
X750565Y188920D01*
X749608Y191231D01*
X748085Y193215D01*
X746101Y194738D01*
X743790Y195695D01*
X741310Y196022D01*
D02*
G37*
G36*
X766710D02*
X764230Y195695D01*
X761919Y194738D01*
X759934Y193215D01*
X758412Y191231D01*
X757454Y188920D01*
X757128Y186440D01*
X757454Y183960D01*
X758412Y181649D01*
X759934Y179664D01*
X761919Y178142D01*
X764230Y177185D01*
X766710Y176858D01*
X769190Y177185D01*
X771501Y178142D01*
X773485Y179664D01*
X775008Y181649D01*
X775965Y183960D01*
X776292Y186440D01*
X775965Y188920D01*
X775008Y191231D01*
X773485Y193215D01*
X771501Y194738D01*
X769190Y195695D01*
X766710Y196022D01*
D02*
G37*
G36*
Y170622D02*
X764230Y170295D01*
X761919Y169338D01*
X759934Y167815D01*
X758412Y165831D01*
X757454Y163520D01*
X757128Y161040D01*
X757454Y158560D01*
X758412Y156249D01*
X759471Y154868D01*
X758845Y153598D01*
X749175D01*
X748548Y154868D01*
X749608Y156249D01*
X750565Y158560D01*
X750892Y161040D01*
X750565Y163520D01*
X749608Y165831D01*
X748085Y167815D01*
X746101Y169338D01*
X743790Y170295D01*
X741310Y170622D01*
X738830Y170295D01*
X736519Y169338D01*
X734534Y167815D01*
X733012Y165831D01*
X732054Y163520D01*
X731728Y161040D01*
X732054Y158560D01*
X733012Y156249D01*
X734071Y154868D01*
X733445Y153598D01*
X723775D01*
X723148Y154868D01*
X724208Y156249D01*
X725165Y158560D01*
X725492Y161040D01*
X725165Y163520D01*
X724208Y165831D01*
X722685Y167815D01*
X720701Y169338D01*
X718390Y170295D01*
X715910Y170622D01*
X713430Y170295D01*
X711119Y169338D01*
X709134Y167815D01*
X707612Y165831D01*
X706654Y163520D01*
X706328Y161040D01*
X706654Y158560D01*
X707612Y156249D01*
X708671Y154868D01*
X708045Y153598D01*
X700770D01*
X700646Y153681D01*
X698500Y154108D01*
X696354Y153681D01*
X694535Y152465D01*
X682487Y140417D01*
X682409Y140402D01*
X680424Y139076D01*
X679098Y137091D01*
X678633Y134750D01*
X679098Y132409D01*
X680424Y130424D01*
X682409Y129098D01*
X684750Y128632D01*
X687091Y129098D01*
X689076Y130424D01*
X690402Y132409D01*
X690417Y132487D01*
X701333Y143402D01*
X708497D01*
X708917Y142132D01*
X707612Y140431D01*
X706654Y138120D01*
X706328Y135640D01*
X706654Y133160D01*
X707612Y130849D01*
X709134Y128864D01*
X711119Y127342D01*
X713430Y126384D01*
X715910Y126058D01*
X718390Y126384D01*
X720701Y127342D01*
X722685Y128864D01*
X724208Y130849D01*
X725165Y133160D01*
X725492Y135640D01*
X725165Y138120D01*
X724208Y140431D01*
X722903Y142132D01*
X723323Y143402D01*
X733897D01*
X734317Y142132D01*
X733012Y140431D01*
X732054Y138120D01*
X731728Y135640D01*
X732054Y133160D01*
X733012Y130849D01*
X734534Y128864D01*
X736519Y127342D01*
X738830Y126384D01*
X741310Y126058D01*
X743790Y126384D01*
X746101Y127342D01*
X748085Y128864D01*
X749608Y130849D01*
X750565Y133160D01*
X750892Y135640D01*
X750565Y138120D01*
X749608Y140431D01*
X748303Y142132D01*
X748723Y143402D01*
X759297D01*
X759717Y142132D01*
X758412Y140431D01*
X757454Y138120D01*
X757128Y135640D01*
X757454Y133160D01*
X758412Y130849D01*
X759934Y128864D01*
X761919Y127342D01*
X764230Y126384D01*
X766710Y126058D01*
X769190Y126384D01*
X771501Y127342D01*
X773485Y128864D01*
X775008Y130849D01*
X775965Y133160D01*
X776292Y135640D01*
X775965Y138120D01*
X775008Y140431D01*
X773703Y142132D01*
X774123Y143402D01*
X776417D01*
X782720Y137099D01*
X782528Y135640D01*
X782854Y133160D01*
X783812Y130849D01*
X785334Y128864D01*
X787319Y127342D01*
X789630Y126384D01*
X792110Y126058D01*
X794590Y126384D01*
X796901Y127342D01*
X798885Y128864D01*
X800408Y130849D01*
X801365Y133160D01*
X801692Y135640D01*
X801365Y138120D01*
X800408Y140431D01*
X798885Y142415D01*
X796901Y143938D01*
X794590Y144895D01*
X792110Y145222D01*
X790651Y145030D01*
X783215Y152465D01*
X781396Y153681D01*
X779250Y154108D01*
X777104Y153681D01*
X776980Y153598D01*
X774575D01*
X773948Y154868D01*
X775008Y156249D01*
X775965Y158560D01*
X776292Y161040D01*
X775965Y163520D01*
X775008Y165831D01*
X773485Y167815D01*
X771501Y169338D01*
X769190Y170295D01*
X766710Y170622D01*
D02*
G37*
G36*
X715910Y196022D02*
X713430Y195695D01*
X711119Y194738D01*
X709134Y193215D01*
X707612Y191231D01*
X706654Y188920D01*
X706328Y186440D01*
X706654Y183960D01*
X707612Y181649D01*
X709134Y179664D01*
X711119Y178142D01*
X713430Y177185D01*
X715910Y176858D01*
X718390Y177185D01*
X720701Y178142D01*
X722685Y179664D01*
X724208Y181649D01*
X725165Y183960D01*
X725492Y186440D01*
X725165Y188920D01*
X724208Y191231D01*
X722685Y193215D01*
X720701Y194738D01*
X718390Y195695D01*
X715910Y196022D01*
D02*
G37*
G36*
X323250Y353569D02*
X286000D01*
X284634Y353297D01*
X283477Y352523D01*
X280293Y349339D01*
X280250Y349348D01*
X278299Y348960D01*
X276645Y347855D01*
X275540Y346201D01*
X275152Y344250D01*
X275370Y343153D01*
X274768Y342640D01*
X274241Y342322D01*
X273000Y342569D01*
X263129D01*
X263105Y342605D01*
X261451Y343710D01*
X259500Y344098D01*
X257549Y343710D01*
X255895Y342605D01*
X254790Y340951D01*
X254402Y339000D01*
X254790Y337049D01*
X255895Y335395D01*
X256840Y334764D01*
Y333236D01*
X255895Y332605D01*
X254790Y330951D01*
X254402Y329000D01*
X254790Y327049D01*
X255895Y325395D01*
X257549Y324290D01*
X259500Y323902D01*
X261451Y324290D01*
X263105Y325395D01*
X263129Y325432D01*
X267420D01*
X268652Y325250D01*
X269040Y323299D01*
X270145Y321645D01*
X271799Y320540D01*
X273750Y320152D01*
X275701Y320540D01*
X277355Y321645D01*
X278460Y323299D01*
X278848Y325250D01*
X278585Y326572D01*
X279755Y327198D01*
X281661Y325293D01*
X281652Y325250D01*
X282040Y323299D01*
X283145Y321645D01*
X284799Y320540D01*
X286750Y320152D01*
X288701Y320540D01*
X290355Y321645D01*
X291460Y323299D01*
X291848Y325250D01*
X291460Y327201D01*
X290355Y328855D01*
X288701Y329960D01*
X286750Y330348D01*
X286707Y330339D01*
X278926Y338120D01*
X279552Y339291D01*
X280250Y339152D01*
X282201Y339540D01*
X283855Y340645D01*
X284960Y342299D01*
X285348Y344250D01*
X285340Y344293D01*
X287478Y346431D01*
X321772D01*
X323477Y344727D01*
X324634Y343953D01*
X326000Y343681D01*
X344371D01*
X344395Y343645D01*
X346049Y342540D01*
X348000Y342152D01*
X349951Y342540D01*
X351605Y343645D01*
X352236Y344590D01*
X353705D01*
X354386Y343659D01*
X354395Y343645D01*
X354397Y343644D01*
X354431Y343597D01*
Y336478D01*
X348043Y330089D01*
X348000Y330098D01*
X346049Y329710D01*
X344395Y328605D01*
X343290Y326951D01*
X342902Y325000D01*
X343290Y323049D01*
X344395Y321395D01*
X346049Y320290D01*
X348000Y319902D01*
X349951Y320290D01*
X351605Y321395D01*
X352236Y322340D01*
X353764D01*
X354395Y321395D01*
X356049Y320290D01*
X358000Y319902D01*
X359951Y320290D01*
X361605Y321395D01*
X362710Y323049D01*
X363098Y325000D01*
X362710Y326951D01*
X361605Y328605D01*
X359951Y329710D01*
X359442Y329811D01*
X359073Y331026D01*
X360523Y332477D01*
X361297Y333634D01*
X361569Y335000D01*
Y343621D01*
X361605Y343645D01*
X362710Y345299D01*
X363098Y347250D01*
X362710Y349201D01*
X361605Y350855D01*
X359951Y351960D01*
X358000Y352348D01*
X356049Y351960D01*
X354395Y350855D01*
X353764Y349910D01*
X352236D01*
X351605Y350855D01*
X349951Y351960D01*
X348000Y352348D01*
X346049Y351960D01*
X344395Y350855D01*
X344371Y350819D01*
X327478D01*
X325773Y352523D01*
X324616Y353297D01*
X323250Y353569D01*
D02*
G37*
G36*
X31350Y421907D02*
X25936Y421481D01*
X20656Y420213D01*
X15639Y418135D01*
X11009Y415297D01*
X6879Y411771D01*
X3352Y407641D01*
X515Y403011D01*
X-1563Y397994D01*
X-2831Y392714D01*
X-3257Y387300D01*
X-2831Y381886D01*
X-1563Y376606D01*
X515Y371589D01*
X3352Y366959D01*
X6879Y362829D01*
X11009Y359303D01*
X15639Y356465D01*
X20656Y354387D01*
X25936Y353119D01*
X31350Y352693D01*
X36764Y353119D01*
X42044Y354387D01*
X47061Y356465D01*
X51691Y359303D01*
X55820Y362829D01*
X59347Y366959D01*
X62185Y371589D01*
X64263Y376606D01*
X65531Y381886D01*
X65957Y387300D01*
X65531Y392714D01*
X64263Y397994D01*
X62185Y403011D01*
X59347Y407641D01*
X55820Y411771D01*
X51691Y415297D01*
X47061Y418135D01*
X42044Y420213D01*
X36764Y421481D01*
X31350Y421907D01*
D02*
G37*
G36*
X669750Y347406D02*
X667409Y346940D01*
X665424Y345614D01*
X664098Y343629D01*
X663633Y341288D01*
X664098Y338947D01*
X665424Y336963D01*
X667409Y335636D01*
X669750Y335171D01*
X672091Y335636D01*
X674076Y336963D01*
X675402Y338947D01*
X675867Y341288D01*
X675402Y343629D01*
X674076Y345614D01*
X672091Y346940D01*
X669750Y347406D01*
D02*
G37*
G36*
X435750Y350310D02*
X433923Y350070D01*
X432220Y349365D01*
X430757Y348242D01*
X429636Y346780D01*
X428930Y345077D01*
X428890Y344776D01*
X427609D01*
X427570Y345077D01*
X426864Y346780D01*
X425742Y348242D01*
X424280Y349365D01*
X422577Y350070D01*
X420750Y350310D01*
X395500D01*
X393673Y350070D01*
X391970Y349365D01*
X390508Y348242D01*
X387257Y344992D01*
X386135Y343530D01*
X385430Y341827D01*
X385190Y340000D01*
Y329500D01*
X385430Y327673D01*
X386135Y325970D01*
X387257Y324508D01*
X388720Y323386D01*
X388993Y323273D01*
X389507Y322758D01*
X390970Y321636D01*
X392673Y320930D01*
X394500Y320690D01*
X420750D01*
X422577Y320930D01*
X424280Y321636D01*
X425742Y322758D01*
X426864Y324220D01*
X427420Y325560D01*
X428690Y325308D01*
Y323654D01*
X427452Y322041D01*
X426494Y319730D01*
X426168Y317250D01*
Y304725D01*
X425268Y303552D01*
X424059Y300633D01*
X423646Y297500D01*
Y235900D01*
X424059Y232767D01*
X425268Y229848D01*
X427192Y227341D01*
X474396Y180137D01*
Y164350D01*
X474809Y161217D01*
X476018Y158298D01*
X477942Y155792D01*
X480448Y153868D01*
X483367Y152659D01*
X486500Y152246D01*
X489633Y152659D01*
X490206Y152896D01*
X545142D01*
X546145Y151395D01*
X547090Y150764D01*
Y149236D01*
X546145Y148605D01*
X545040Y146951D01*
X544652Y145000D01*
X545040Y143049D01*
X546145Y141395D01*
X547090Y140764D01*
Y139236D01*
X546145Y138605D01*
X545040Y136951D01*
X544652Y135000D01*
X545040Y133049D01*
X546145Y131395D01*
X547090Y130764D01*
Y129236D01*
X546145Y128605D01*
X545040Y126951D01*
X544652Y125000D01*
X545040Y123049D01*
X546145Y121395D01*
X547090Y120764D01*
Y119236D01*
X546145Y118605D01*
X545040Y116951D01*
X544652Y115000D01*
X545040Y113049D01*
X546145Y111395D01*
X547799Y110290D01*
X549750Y109902D01*
X551701Y110290D01*
X553355Y111395D01*
X554460Y113049D01*
X554848Y115000D01*
X554460Y116951D01*
X553355Y118605D01*
X552410Y119236D01*
Y120764D01*
X553355Y121395D01*
X554460Y123049D01*
X554848Y125000D01*
X554460Y126951D01*
X553355Y128605D01*
X552410Y129236D01*
Y130764D01*
X553355Y131395D01*
X554460Y133049D01*
X554848Y135000D01*
X554460Y136951D01*
X553355Y138605D01*
X552410Y139236D01*
Y140764D01*
X553355Y141395D01*
X554460Y143049D01*
X554848Y145000D01*
X554460Y146951D01*
X553355Y148605D01*
X552410Y149236D01*
Y150764D01*
X553355Y151395D01*
X554460Y153049D01*
X554658Y154044D01*
X555802Y154518D01*
X558308Y156441D01*
X560232Y158948D01*
X561441Y161867D01*
X561853Y165000D01*
X561441Y168133D01*
X560232Y171052D01*
X558308Y173559D01*
X555802Y175482D01*
X554658Y175956D01*
X554460Y176951D01*
X554338Y177133D01*
Y182867D01*
X554460Y183049D01*
X554848Y185000D01*
X554460Y186951D01*
X553355Y188605D01*
X552410Y189236D01*
Y190764D01*
X553355Y191395D01*
X554460Y193049D01*
X554848Y195000D01*
X554460Y196951D01*
X553355Y198605D01*
X552410Y199236D01*
Y200764D01*
X553355Y201395D01*
X554460Y203049D01*
X554848Y205000D01*
X554460Y206951D01*
X553355Y208605D01*
X551701Y209710D01*
X549750Y210098D01*
X547799Y209710D01*
X546145Y208605D01*
X545040Y206951D01*
X544652Y205000D01*
X545040Y203049D01*
X546145Y201395D01*
X547090Y200764D01*
Y199236D01*
X546145Y198605D01*
X545040Y196951D01*
X544652Y195000D01*
X545040Y193049D01*
X546145Y191395D01*
X547090Y190764D01*
Y189236D01*
X546145Y188605D01*
X545040Y186951D01*
X544652Y185000D01*
X545040Y183049D01*
X545162Y182867D01*
Y177133D01*
X545142Y177104D01*
X498604D01*
Y185150D01*
X498191Y188283D01*
X497585Y189746D01*
X510244Y202406D01*
X511239Y203894D01*
X511588Y205650D01*
Y217067D01*
X512652Y218659D01*
X513118Y221000D01*
X512969Y221746D01*
X514140Y222372D01*
X521256Y215256D01*
X522744Y214261D01*
X524500Y213912D01*
X589072D01*
X589325Y212642D01*
X587641Y211944D01*
X585980Y210670D01*
X584706Y209009D01*
X583904Y207075D01*
X583631Y205000D01*
X583904Y202925D01*
X584706Y200991D01*
X585980Y199330D01*
X587641Y198056D01*
X589575Y197255D01*
X591650Y196981D01*
X593725Y197255D01*
X595659Y198056D01*
X597320Y199330D01*
X598594Y200991D01*
X599395Y202925D01*
X599669Y205000D01*
X599395Y207075D01*
X598594Y209009D01*
X597320Y210670D01*
X595659Y211944D01*
X593975Y212642D01*
X594228Y213912D01*
X618149D01*
X628797Y203264D01*
X628840Y203049D01*
X629945Y201395D01*
X630890Y200764D01*
Y199236D01*
X629945Y198605D01*
X628840Y196951D01*
X628452Y195000D01*
X628840Y193049D01*
X629945Y191395D01*
X630890Y190764D01*
Y189236D01*
X629945Y188605D01*
X628840Y186951D01*
X628452Y185000D01*
X628840Y183049D01*
X629945Y181395D01*
X630890Y180764D01*
Y179236D01*
X629945Y178605D01*
X628840Y176951D01*
X628452Y175000D01*
X628840Y173049D01*
X629945Y171395D01*
X630890Y170764D01*
Y169236D01*
X629945Y168605D01*
X628840Y166951D01*
X628452Y165000D01*
X628840Y163049D01*
X629945Y161395D01*
X630890Y160764D01*
Y159236D01*
X629945Y158605D01*
X628840Y156951D01*
X628452Y155000D01*
X628840Y153049D01*
X629945Y151395D01*
X630890Y150764D01*
Y149236D01*
X629945Y148605D01*
X628840Y146951D01*
X628452Y145000D01*
X628840Y143049D01*
X629945Y141395D01*
X630890Y140764D01*
Y139236D01*
X629945Y138605D01*
X628840Y136951D01*
X628452Y135000D01*
X628840Y133049D01*
X629945Y131395D01*
X630890Y130764D01*
Y129236D01*
X629945Y128605D01*
X628840Y126951D01*
X628452Y125000D01*
X628840Y123049D01*
X629945Y121395D01*
X630890Y120764D01*
Y119236D01*
X629945Y118605D01*
X628840Y116951D01*
X628452Y115000D01*
X628840Y113049D01*
X629945Y111395D01*
X631599Y110290D01*
X633550Y109902D01*
X635501Y110290D01*
X637155Y111395D01*
X638260Y113049D01*
X638648Y115000D01*
X638260Y116951D01*
X637155Y118605D01*
X636210Y119236D01*
Y120764D01*
X637155Y121395D01*
X638260Y123049D01*
X638648Y125000D01*
X638260Y126951D01*
X637155Y128605D01*
X636210Y129236D01*
Y130764D01*
X637155Y131395D01*
X638260Y133049D01*
X638648Y135000D01*
X638260Y136951D01*
X637155Y138605D01*
X636210Y139236D01*
Y140764D01*
X637155Y141395D01*
X638260Y143049D01*
X638648Y145000D01*
X638260Y146951D01*
X637155Y148605D01*
X636210Y149236D01*
Y150764D01*
X637155Y151395D01*
X638260Y153049D01*
X638648Y155000D01*
X638260Y156951D01*
X637155Y158605D01*
X636210Y159236D01*
Y160764D01*
X637155Y161395D01*
X638260Y163049D01*
X638648Y165000D01*
X638260Y166951D01*
X637155Y168605D01*
X636210Y169236D01*
Y170764D01*
X637155Y171395D01*
X638260Y173049D01*
X638648Y175000D01*
X638260Y176951D01*
X637155Y178605D01*
X636210Y179236D01*
Y180764D01*
X637155Y181395D01*
X638260Y183049D01*
X638648Y185000D01*
X638260Y186951D01*
X637155Y188605D01*
X636210Y189236D01*
Y190764D01*
X637155Y191395D01*
X638260Y193049D01*
X638648Y195000D01*
X638260Y196951D01*
X637155Y198605D01*
X636210Y199236D01*
Y200764D01*
X637155Y201395D01*
X638260Y203049D01*
X638648Y205000D01*
X638260Y206951D01*
X637155Y208605D01*
X635501Y209710D01*
X635286Y209753D01*
X623294Y221744D01*
X621806Y222739D01*
X620050Y223088D01*
X593367D01*
X592286Y223545D01*
X592233Y224358D01*
X592303Y224367D01*
X593725Y224555D01*
X595659Y225356D01*
X597320Y226630D01*
X598594Y228291D01*
X599395Y230225D01*
X599669Y232300D01*
X599395Y234375D01*
X598594Y236309D01*
X597320Y237970D01*
X595659Y239244D01*
X593725Y240045D01*
X591650Y240319D01*
X589575Y240045D01*
X587641Y239244D01*
X585980Y237970D01*
X584706Y236309D01*
X583904Y234375D01*
X583631Y232300D01*
X583904Y230225D01*
X584706Y228291D01*
X585980Y226630D01*
X587641Y225356D01*
X589575Y224555D01*
X590997Y224367D01*
X591067Y224358D01*
X591013Y223545D01*
X589933Y223088D01*
X526400D01*
X513025Y236463D01*
X512652Y238341D01*
X511326Y240326D01*
X509341Y241652D01*
X507000Y242118D01*
X504659Y241652D01*
X502674Y240326D01*
X501348Y238341D01*
X500882Y236000D01*
X501348Y233659D01*
X502674Y231674D01*
X504659Y230348D01*
X506537Y229975D01*
X508372Y228140D01*
X507746Y226969D01*
X507000Y227118D01*
X504659Y226652D01*
X502674Y225326D01*
X501348Y223341D01*
X500882Y221000D01*
X501348Y218659D01*
X502412Y217067D01*
Y207551D01*
X491814Y196953D01*
X481128Y207639D01*
X488463Y214975D01*
X490341Y215348D01*
X492326Y216674D01*
X493652Y218659D01*
X494118Y221000D01*
X493652Y223341D01*
X492326Y225326D01*
X490341Y226652D01*
X488000Y227118D01*
X485659Y226652D01*
X483674Y225326D01*
X482348Y223341D01*
X481975Y221463D01*
X474639Y214128D01*
X447854Y240914D01*
Y297500D01*
X447441Y300633D01*
X446232Y303552D01*
X445332Y304725D01*
Y317250D01*
X445005Y319730D01*
X444048Y322041D01*
X442810Y323654D01*
Y327750D01*
Y343250D01*
X442570Y345077D01*
X441864Y346780D01*
X440742Y348242D01*
X439280Y349365D01*
X437577Y350070D01*
X435750Y350310D01*
D02*
G37*
G36*
X684750Y368060D02*
X682409Y367594D01*
X680424Y366268D01*
X679098Y364283D01*
X678633Y361942D01*
X679098Y359601D01*
X680424Y357616D01*
X682409Y356290D01*
X684750Y355825D01*
X687091Y356290D01*
X689076Y357616D01*
X690402Y359601D01*
X690868Y361942D01*
X690402Y364283D01*
X689076Y366268D01*
X687091Y367594D01*
X684750Y368060D01*
D02*
G37*
G36*
Y388713D02*
X682409Y388248D01*
X680424Y386922D01*
X679098Y384937D01*
X678633Y382596D01*
X679098Y380255D01*
X680424Y378270D01*
X682409Y376944D01*
X684750Y376478D01*
X687091Y376944D01*
X689076Y378270D01*
X690402Y380255D01*
X690868Y382596D01*
X690402Y384937D01*
X689076Y386922D01*
X687091Y388248D01*
X684750Y388713D01*
D02*
G37*
G36*
X323250Y413319D02*
X286000D01*
X284634Y413047D01*
X283477Y412273D01*
X280293Y409090D01*
X280250Y409098D01*
X278299Y408710D01*
X276645Y407605D01*
X275540Y405951D01*
X275152Y404000D01*
X275370Y402903D01*
X274768Y402389D01*
X274241Y402072D01*
X273000Y402319D01*
X263129D01*
X263105Y402355D01*
X261451Y403460D01*
X259500Y403848D01*
X257549Y403460D01*
X255895Y402355D01*
X254790Y400701D01*
X254402Y398750D01*
X254790Y396799D01*
X255895Y395145D01*
X256840Y394514D01*
Y392986D01*
X255895Y392355D01*
X254790Y390701D01*
X254402Y388750D01*
X254790Y386799D01*
X255895Y385145D01*
X257549Y384040D01*
X259500Y383652D01*
X261451Y384040D01*
X263105Y385145D01*
X263129Y385181D01*
X267420D01*
X268652Y385000D01*
X269040Y383049D01*
X270145Y381395D01*
X271799Y380290D01*
X273750Y379902D01*
X275701Y380290D01*
X277355Y381395D01*
X278460Y383049D01*
X278848Y385000D01*
X278585Y386322D01*
X279755Y386948D01*
X281661Y385043D01*
X281652Y385000D01*
X282040Y383049D01*
X283145Y381395D01*
X284799Y380290D01*
X286750Y379902D01*
X288701Y380290D01*
X290355Y381395D01*
X291460Y383049D01*
X291848Y385000D01*
X291460Y386951D01*
X290355Y388605D01*
X288701Y389710D01*
X286750Y390098D01*
X286707Y390089D01*
X278926Y397870D01*
X279552Y399041D01*
X280250Y398902D01*
X282201Y399290D01*
X283855Y400395D01*
X284960Y402049D01*
X285348Y404000D01*
X285340Y404043D01*
X287478Y406181D01*
X321772D01*
X323477Y404477D01*
X324634Y403703D01*
X326000Y403431D01*
X344371D01*
X344395Y403395D01*
X346049Y402290D01*
X348000Y401902D01*
X349951Y402290D01*
X351605Y403395D01*
X352236Y404340D01*
X353705D01*
X354386Y403409D01*
X354395Y403395D01*
X354397Y403394D01*
X354431Y403347D01*
Y396228D01*
X348043Y389840D01*
X348000Y389848D01*
X346049Y389460D01*
X344395Y388355D01*
X343290Y386701D01*
X342902Y384750D01*
X343290Y382799D01*
X344395Y381145D01*
X346049Y380040D01*
X348000Y379652D01*
X349951Y380040D01*
X351605Y381145D01*
X352236Y382090D01*
X353764D01*
X354395Y381145D01*
X356049Y380040D01*
X358000Y379652D01*
X359951Y380040D01*
X361605Y381145D01*
X362710Y382799D01*
X363098Y384750D01*
X362710Y386701D01*
X361605Y388355D01*
X359951Y389460D01*
X359442Y389561D01*
X359073Y390776D01*
X360523Y392227D01*
X361297Y393384D01*
X361569Y394750D01*
Y403371D01*
X361605Y403395D01*
X362710Y405049D01*
X363098Y407000D01*
X362710Y408951D01*
X361605Y410605D01*
X359951Y411710D01*
X358000Y412098D01*
X356049Y411710D01*
X354395Y410605D01*
X353764Y409660D01*
X352236D01*
X351605Y410605D01*
X349951Y411710D01*
X348000Y412098D01*
X346049Y411710D01*
X344395Y410605D01*
X344371Y410569D01*
X327478D01*
X325773Y412273D01*
X324616Y413047D01*
X323250Y413319D01*
D02*
G37*
G36*
X550750Y423854D02*
X547617Y423441D01*
X544698Y422232D01*
X542192Y420308D01*
X540268Y417802D01*
X539059Y414883D01*
X538646Y411750D01*
Y377263D01*
X530987Y369604D01*
X526560D01*
Y399400D01*
X526320Y401227D01*
X525615Y402930D01*
X524492Y404393D01*
X523030Y405514D01*
X521327Y406220D01*
X519500Y406460D01*
X517673Y406220D01*
X515970Y405514D01*
X514508Y404393D01*
X513386Y402930D01*
X512680Y401227D01*
X512440Y399400D01*
Y369604D01*
X470763D01*
X455059Y385308D01*
X452552Y387232D01*
X449633Y388441D01*
X446500Y388854D01*
X444628Y388607D01*
X442810Y390424D01*
Y403250D01*
X442570Y405077D01*
X441864Y406780D01*
X440742Y408242D01*
X439280Y409365D01*
X437577Y410070D01*
X435750Y410310D01*
X433923Y410070D01*
X432220Y409365D01*
X430757Y408242D01*
X429636Y406780D01*
X428930Y405077D01*
X428890Y404776D01*
X427609D01*
X427570Y405077D01*
X426864Y406780D01*
X425742Y408242D01*
X424280Y409365D01*
X422577Y410070D01*
X420750Y410310D01*
X395750D01*
X393923Y410070D01*
X392220Y409365D01*
X390758Y408242D01*
X387257Y404742D01*
X386135Y403280D01*
X385430Y401577D01*
X385190Y399750D01*
Y389750D01*
X385430Y387923D01*
X386135Y386220D01*
X387257Y384757D01*
X389507Y382508D01*
X390970Y381385D01*
X392673Y380680D01*
X394500Y380440D01*
X420750D01*
X422577Y380680D01*
X424280Y381385D01*
X425742Y382508D01*
X426865Y383970D01*
X427570Y385673D01*
X427609Y385974D01*
X428890D01*
X428930Y385673D01*
X429636Y383970D01*
X430757Y382508D01*
X434643Y378622D01*
X434396Y376750D01*
X434809Y373617D01*
X436018Y370698D01*
X437942Y368191D01*
X457192Y348941D01*
X459698Y347018D01*
X462617Y345809D01*
X465750Y345396D01*
X536000D01*
X539133Y345809D01*
X542052Y347018D01*
X544558Y348941D01*
X559309Y363691D01*
X561232Y366198D01*
X562441Y369117D01*
X562854Y372250D01*
Y411750D01*
X562441Y414883D01*
X561232Y417802D01*
X559309Y420308D01*
X556802Y422232D01*
X553883Y423441D01*
X550750Y423854D01*
D02*
G37*
G36*
X618650Y421907D02*
X613236Y421481D01*
X607956Y420213D01*
X602939Y418135D01*
X598309Y415297D01*
X594179Y411771D01*
X590653Y407641D01*
X587815Y403011D01*
X585737Y397994D01*
X584469Y392714D01*
X584043Y387300D01*
X584469Y381886D01*
X585737Y376606D01*
X587815Y371589D01*
X590653Y366959D01*
X594179Y362829D01*
X598309Y359303D01*
X601890Y357108D01*
X601531Y355838D01*
X584000D01*
X582244Y355489D01*
X580756Y354494D01*
X560849Y334588D01*
X552936D01*
X552551Y335858D01*
X553355Y336395D01*
X554460Y338049D01*
X554848Y340000D01*
X554460Y341951D01*
X553355Y343605D01*
X551701Y344710D01*
X549750Y345098D01*
X547799Y344710D01*
X546145Y343605D01*
X545040Y341951D01*
X544652Y340000D01*
X544805Y339230D01*
X543635Y338604D01*
X542494Y339744D01*
X541006Y340739D01*
X539250Y341088D01*
X521883D01*
X521701Y341210D01*
X519750Y341598D01*
X517799Y341210D01*
X516145Y340105D01*
X515040Y338451D01*
X514652Y336500D01*
X515040Y334549D01*
X516145Y332895D01*
X516201Y332858D01*
X515815Y331588D01*
X503685D01*
X503299Y332858D01*
X503355Y332895D01*
X504460Y334549D01*
X504848Y336500D01*
X504460Y338451D01*
X503355Y340105D01*
X501701Y341210D01*
X499750Y341598D01*
X497799Y341210D01*
X496145Y340105D01*
X495040Y338451D01*
X494652Y336500D01*
X495040Y334549D01*
X496145Y332895D01*
X496201Y332858D01*
X495815Y331588D01*
X493900D01*
X487253Y338236D01*
X487210Y338451D01*
X486105Y340105D01*
X484451Y341210D01*
X482500Y341598D01*
X480549Y341210D01*
X478895Y340105D01*
X477790Y338451D01*
X477402Y336500D01*
X477790Y334549D01*
X478895Y332895D01*
X480549Y331790D01*
X480764Y331747D01*
X488756Y323756D01*
X490244Y322761D01*
X492000Y322412D01*
X496813D01*
X497198Y321142D01*
X496145Y320438D01*
X495040Y318784D01*
X494652Y316833D01*
X494888Y315647D01*
X493718Y315021D01*
X487503Y321236D01*
X487460Y321451D01*
X486355Y323105D01*
X484701Y324210D01*
X482750Y324598D01*
X480799Y324210D01*
X479145Y323105D01*
X478040Y321451D01*
X477652Y319500D01*
X478040Y317549D01*
X479145Y315895D01*
X480799Y314790D01*
X481014Y314747D01*
X491756Y304006D01*
X493244Y303011D01*
X495000Y302662D01*
X496688D01*
X497074Y301392D01*
X496145Y300771D01*
X495040Y299118D01*
X494652Y297167D01*
X495040Y295216D01*
X496145Y293562D01*
X496824Y293108D01*
X496439Y291838D01*
X494317D01*
X487253Y298903D01*
X487210Y299118D01*
X486105Y300771D01*
X484451Y301877D01*
X482500Y302265D01*
X480549Y301877D01*
X478895Y300771D01*
X477790Y299118D01*
X477402Y297167D01*
X477790Y295216D01*
X478895Y293562D01*
X480549Y292457D01*
X480764Y292414D01*
X489172Y284006D01*
X490661Y283011D01*
X492417Y282662D01*
X496190D01*
X496575Y281392D01*
X496145Y281105D01*
X495040Y279451D01*
X494652Y277500D01*
X495040Y275549D01*
X496145Y273895D01*
X496711Y273517D01*
X497044Y271792D01*
X496905Y271588D01*
X494901D01*
X487253Y279236D01*
X487210Y279451D01*
X486105Y281105D01*
X484451Y282210D01*
X482500Y282598D01*
X480549Y282210D01*
X478895Y281105D01*
X477790Y279451D01*
X477402Y277500D01*
X477790Y275549D01*
X478895Y273895D01*
X480549Y272790D01*
X480764Y272747D01*
X489756Y263756D01*
X491244Y262761D01*
X493000Y262412D01*
X496938D01*
X497323Y261142D01*
X496145Y260355D01*
X495040Y258701D01*
X494652Y256750D01*
X495040Y254799D01*
X496145Y253145D01*
X497799Y252040D01*
X499750Y251652D01*
X501701Y252040D01*
X503355Y253145D01*
X504460Y254799D01*
X504848Y256750D01*
X504460Y258701D01*
X503355Y260355D01*
X502177Y261142D01*
X502562Y262412D01*
X516938D01*
X517323Y261142D01*
X516145Y260355D01*
X515040Y258701D01*
X514652Y256750D01*
X515040Y254799D01*
X516145Y253145D01*
X517799Y252040D01*
X518014Y251997D01*
X523256Y246756D01*
X524744Y245761D01*
X526500Y245412D01*
X547617D01*
X547799Y245290D01*
X549750Y244902D01*
X551701Y245290D01*
X551883Y245412D01*
X573250D01*
X575006Y245761D01*
X576494Y246756D01*
X583036Y253297D01*
X584113Y252578D01*
X583904Y252075D01*
X583631Y250000D01*
X583904Y247925D01*
X584706Y245991D01*
X585980Y244330D01*
X587641Y243056D01*
X589575Y242255D01*
X591650Y241981D01*
X593725Y242255D01*
X595659Y243056D01*
X597320Y244330D01*
X598594Y245991D01*
X599395Y247925D01*
X599669Y250000D01*
X599395Y252075D01*
X598594Y254009D01*
X597954Y254844D01*
X598466Y255930D01*
X599712Y256050D01*
X609006Y246756D01*
X610494Y245761D01*
X612250Y245412D01*
X630517D01*
X631404Y244819D01*
X633550Y244392D01*
X645677D01*
X656016Y234054D01*
X657835Y232838D01*
X659981Y232411D01*
X667343D01*
X667409Y232367D01*
X669750Y231902D01*
X672091Y232367D01*
X674076Y233693D01*
X675402Y235678D01*
X675867Y238019D01*
X675402Y240360D01*
X674076Y242345D01*
X672091Y243671D01*
X669750Y244137D01*
X667409Y243671D01*
X667343Y243627D01*
X662304D01*
X652808Y253122D01*
X653334Y254392D01*
X665394D01*
X665424Y254347D01*
X667409Y253021D01*
X669750Y252555D01*
X672091Y253021D01*
X674076Y254347D01*
X675402Y256332D01*
X675868Y258673D01*
X675402Y261014D01*
X674076Y262999D01*
X672091Y264325D01*
X671748Y264393D01*
X670569Y265181D01*
X668423Y265608D01*
X665758D01*
X665231Y266878D01*
X672013Y273659D01*
X672091Y273675D01*
X674076Y275001D01*
X675402Y276986D01*
X675868Y279327D01*
X675402Y281668D01*
X674076Y283652D01*
X672091Y284979D01*
X669750Y285444D01*
X667409Y284979D01*
X665424Y283652D01*
X664098Y281668D01*
X664083Y281590D01*
X658100Y275608D01*
X650084D01*
X649558Y276878D01*
X667054Y294373D01*
X667343D01*
X667409Y294329D01*
X669750Y293863D01*
X672091Y294329D01*
X674076Y295655D01*
X675402Y297640D01*
X675867Y299981D01*
X675402Y302322D01*
X674076Y304306D01*
X672091Y305633D01*
X669750Y306098D01*
X667409Y305633D01*
X667343Y305588D01*
X664731D01*
X664356Y305514D01*
X663730Y306684D01*
X672013Y314967D01*
X672091Y314983D01*
X674076Y316309D01*
X675402Y318293D01*
X675867Y320634D01*
X675402Y322976D01*
X674076Y324960D01*
X672091Y326286D01*
X669750Y326752D01*
X667409Y326286D01*
X665424Y324960D01*
X664098Y322976D01*
X664083Y322898D01*
X656270Y315086D01*
X655100Y315711D01*
X655108Y315750D01*
Y339369D01*
X672013Y356275D01*
X672091Y356290D01*
X674076Y357616D01*
X675402Y359601D01*
X675868Y361942D01*
X675402Y364283D01*
X674076Y366268D01*
X672091Y367594D01*
X669750Y368060D01*
X667409Y367594D01*
X665424Y366268D01*
X664098Y364283D01*
X664083Y364205D01*
X645535Y345657D01*
X644319Y343838D01*
X643892Y341692D01*
Y318073D01*
X641427Y315608D01*
X638088D01*
X637477Y316878D01*
X638260Y318049D01*
X638648Y320000D01*
X638260Y321951D01*
X637155Y323605D01*
X636210Y324236D01*
Y325764D01*
X637155Y326395D01*
X638260Y328049D01*
X638648Y330000D01*
X638260Y331951D01*
X637155Y333605D01*
X636210Y334236D01*
Y335764D01*
X637155Y336395D01*
X638260Y338049D01*
X638648Y340000D01*
X638260Y341951D01*
X637926Y342450D01*
X638412Y343623D01*
X639396Y343819D01*
X641215Y345035D01*
X661465Y365285D01*
X662681Y367104D01*
X663108Y369250D01*
Y379451D01*
X664378Y379836D01*
X665424Y378270D01*
X667409Y376944D01*
X669750Y376478D01*
X672091Y376944D01*
X674076Y378270D01*
X675402Y380255D01*
X675868Y382596D01*
X675402Y384937D01*
X674076Y386922D01*
X672091Y388248D01*
X669750Y388713D01*
X667409Y388248D01*
X665424Y386922D01*
X664378Y385355D01*
X663108Y385741D01*
Y388677D01*
X672013Y397582D01*
X672091Y397598D01*
X674076Y398924D01*
X675402Y400909D01*
X675868Y403250D01*
X675402Y405591D01*
X674076Y407575D01*
X672091Y408902D01*
X669750Y409367D01*
X667409Y408902D01*
X665424Y407575D01*
X664098Y405591D01*
X664083Y405513D01*
X653584Y395014D01*
X652955Y395009D01*
X652249Y395135D01*
X651563Y397994D01*
X649485Y403011D01*
X646647Y407641D01*
X643120Y411771D01*
X638991Y415297D01*
X634361Y418135D01*
X629344Y420213D01*
X624063Y421481D01*
X618650Y421907D01*
D02*
G37*
G36*
X462500Y282598D02*
X460549Y282210D01*
X458895Y281105D01*
X457790Y279451D01*
X457402Y277500D01*
X457790Y275549D01*
X458895Y273895D01*
X460549Y272790D01*
X462500Y272402D01*
X464451Y272790D01*
X466105Y273895D01*
X467210Y275549D01*
X467598Y277500D01*
X467210Y279451D01*
X466105Y281105D01*
X464451Y282210D01*
X462500Y282598D01*
D02*
G37*
G36*
X684750Y285444D02*
X682409Y284979D01*
X680424Y283652D01*
X679098Y281668D01*
X678633Y279327D01*
X679098Y276986D01*
X680424Y275001D01*
X682409Y273675D01*
X684750Y273209D01*
X687091Y273675D01*
X689076Y275001D01*
X690402Y276986D01*
X690868Y279327D01*
X690402Y281668D01*
X689076Y283652D01*
X687091Y284979D01*
X684750Y285444D01*
D02*
G37*
G36*
X684750Y244137D02*
X682409Y243671D01*
X680424Y242345D01*
X679098Y240360D01*
X678633Y238019D01*
X679098Y235678D01*
X680424Y233693D01*
X682409Y232367D01*
X684750Y231902D01*
X687091Y232367D01*
X689076Y233693D01*
X690402Y235678D01*
X690867Y238019D01*
X690402Y240360D01*
X689076Y242345D01*
X687091Y243671D01*
X684750Y244137D01*
D02*
G37*
G36*
X792110Y272222D02*
X789630Y271895D01*
X787319Y270938D01*
X785334Y269415D01*
X783812Y267431D01*
X782854Y265120D01*
X782528Y262640D01*
X782854Y260160D01*
X783812Y257849D01*
X785334Y255865D01*
X787319Y254342D01*
X789630Y253384D01*
X792110Y253058D01*
X794590Y253384D01*
X796901Y254342D01*
X798885Y255865D01*
X800408Y257849D01*
X801365Y260160D01*
X801692Y262640D01*
X801365Y265120D01*
X800408Y267431D01*
X798885Y269415D01*
X796901Y270938D01*
X794590Y271895D01*
X792110Y272222D01*
D02*
G37*
G36*
Y297622D02*
X789630Y297295D01*
X787319Y296338D01*
X785334Y294815D01*
X783812Y292831D01*
X782854Y290520D01*
X782528Y288040D01*
X782854Y285560D01*
X783812Y283249D01*
X785334Y281264D01*
X787319Y279742D01*
X789630Y278785D01*
X792110Y278458D01*
X794590Y278785D01*
X796901Y279742D01*
X798885Y281264D01*
X800408Y283249D01*
X801365Y285560D01*
X801692Y288040D01*
X801365Y290520D01*
X800408Y292831D01*
X798885Y294815D01*
X796901Y296338D01*
X794590Y297295D01*
X792110Y297622D01*
D02*
G37*
G36*
X462500Y321931D02*
X460549Y321543D01*
X458895Y320438D01*
X457790Y318784D01*
X457402Y316833D01*
X457790Y314882D01*
X458895Y313228D01*
X460549Y312123D01*
X462500Y311735D01*
X464451Y312123D01*
X466105Y313228D01*
X467210Y314882D01*
X467598Y316833D01*
X467210Y318784D01*
X466105Y320438D01*
X464451Y321543D01*
X462500Y321931D01*
D02*
G37*
G36*
Y341598D02*
X460549Y341210D01*
X458895Y340105D01*
X457790Y338451D01*
X457402Y336500D01*
X457790Y334549D01*
X458895Y332895D01*
X460549Y331790D01*
X462500Y331402D01*
X464451Y331790D01*
X466105Y332895D01*
X467210Y334549D01*
X467598Y336500D01*
X467210Y338451D01*
X466105Y340105D01*
X464451Y341210D01*
X462500Y341598D01*
D02*
G37*
G36*
X684750Y326752D02*
X682409Y326286D01*
X680424Y324960D01*
X679098Y322976D01*
X678633Y320634D01*
X679098Y318293D01*
X680424Y316309D01*
X682409Y314983D01*
X682487Y314967D01*
X700669Y296785D01*
X702488Y295569D01*
X704634Y295142D01*
X706780Y295569D01*
X706905Y295652D01*
X708237D01*
X708802Y294382D01*
X707612Y292831D01*
X706654Y290520D01*
X706338Y288119D01*
X706101Y287949D01*
X705111Y287550D01*
X690417Y302244D01*
X690402Y302322D01*
X689076Y304306D01*
X687091Y305633D01*
X684750Y306098D01*
X682409Y305633D01*
X680424Y304306D01*
X679098Y302322D01*
X678633Y299981D01*
X679098Y297640D01*
X680424Y295655D01*
X682409Y294329D01*
X682487Y294313D01*
X696892Y279908D01*
Y277750D01*
X697319Y275604D01*
X698535Y273785D01*
X701035Y271285D01*
X702854Y270069D01*
X705000Y269642D01*
X707146Y270069D01*
X707949Y269789D01*
X708416Y268479D01*
X707612Y267431D01*
X706654Y265120D01*
X706328Y262640D01*
X706654Y260160D01*
X707424Y258303D01*
X706347Y257584D01*
X701292Y262638D01*
X699473Y263854D01*
X697327Y264281D01*
X687157D01*
X687091Y264325D01*
X684750Y264790D01*
X682409Y264325D01*
X680424Y262999D01*
X679098Y261014D01*
X678633Y258673D01*
X679098Y256332D01*
X680424Y254347D01*
X682409Y253021D01*
X684750Y252555D01*
X687091Y253021D01*
X687157Y253065D01*
X695004D01*
X702285Y245785D01*
X704104Y244569D01*
X706250Y244142D01*
X707880Y244466D01*
X708596Y243314D01*
X707612Y242031D01*
X706654Y239720D01*
X706328Y237240D01*
X706654Y234760D01*
X707612Y232449D01*
X708825Y230868D01*
X708731Y230646D01*
X707896Y229681D01*
X705750Y230108D01*
X703604Y229681D01*
X701785Y228465D01*
X696292Y222973D01*
X687157D01*
X687091Y223017D01*
X684750Y223483D01*
X682409Y223017D01*
X680424Y221691D01*
X679098Y219706D01*
X678633Y217365D01*
X679098Y215024D01*
X680424Y213040D01*
X682409Y211714D01*
X684750Y211248D01*
X687091Y211714D01*
X687157Y211758D01*
X698615D01*
X700761Y212185D01*
X702581Y213400D01*
X706668Y217488D01*
X707625Y216649D01*
X707612Y216631D01*
X706654Y214320D01*
X706328Y211840D01*
X706654Y209360D01*
X707612Y207049D01*
X709134Y205065D01*
X711119Y203542D01*
X713430Y202584D01*
X715910Y202258D01*
X718390Y202584D01*
X720701Y203542D01*
X722685Y205065D01*
X724208Y207049D01*
X725165Y209360D01*
X725492Y211840D01*
X725165Y214320D01*
X724208Y216631D01*
X723056Y218132D01*
X723670Y219402D01*
X733550D01*
X734164Y218132D01*
X733012Y216631D01*
X732054Y214320D01*
X731728Y211840D01*
X732054Y209360D01*
X733012Y207049D01*
X734534Y205065D01*
X736519Y203542D01*
X738830Y202584D01*
X741310Y202258D01*
X743790Y202584D01*
X746101Y203542D01*
X748085Y205065D01*
X749608Y207049D01*
X750565Y209360D01*
X750892Y211840D01*
X750565Y214320D01*
X749608Y216631D01*
X748456Y218132D01*
X749070Y219402D01*
X751700D01*
X751824Y219319D01*
X753970Y218892D01*
X756116Y219319D01*
X757935Y220535D01*
X765251Y227850D01*
X766710Y227658D01*
X769190Y227985D01*
X771501Y228942D01*
X773485Y230464D01*
X775008Y232449D01*
X775965Y234760D01*
X776292Y237240D01*
X775965Y239720D01*
X775008Y242031D01*
X773485Y244015D01*
X771501Y245538D01*
X769190Y246495D01*
X766710Y246822D01*
X764230Y246495D01*
X761919Y245538D01*
X759934Y244015D01*
X758412Y242031D01*
X757454Y239720D01*
X757128Y237240D01*
X757320Y235781D01*
X751137Y229598D01*
X748931D01*
X748395Y230868D01*
X749608Y232449D01*
X750565Y234760D01*
X750892Y237240D01*
X750565Y239720D01*
X749608Y242031D01*
X748085Y244015D01*
X746101Y245538D01*
X743790Y246495D01*
X741310Y246822D01*
X738830Y246495D01*
X736519Y245538D01*
X734534Y244015D01*
X733012Y242031D01*
X732054Y239720D01*
X731728Y237240D01*
X732054Y234760D01*
X733012Y232449D01*
X734225Y230868D01*
X733689Y229598D01*
X723531D01*
X722995Y230868D01*
X724208Y232449D01*
X725165Y234760D01*
X725492Y237240D01*
X725165Y239720D01*
X724208Y242031D01*
X723171Y243382D01*
X723798Y244652D01*
X726150D01*
X726274Y244569D01*
X728420Y244142D01*
X730566Y244569D01*
X732385Y245785D01*
X739851Y253250D01*
X741310Y253058D01*
X743790Y253384D01*
X746101Y254342D01*
X748085Y255865D01*
X749608Y257849D01*
X750565Y260160D01*
X750892Y262640D01*
X750565Y265120D01*
X749608Y267431D01*
X748495Y268882D01*
X749121Y270152D01*
X751267D01*
X757320Y264099D01*
X757128Y262640D01*
X757454Y260160D01*
X758412Y257849D01*
X759934Y255865D01*
X761919Y254342D01*
X764230Y253384D01*
X766710Y253058D01*
X769190Y253384D01*
X771501Y254342D01*
X773485Y255865D01*
X775008Y257849D01*
X775965Y260160D01*
X776292Y262640D01*
X775965Y265120D01*
X775008Y267431D01*
X773485Y269415D01*
X771501Y270938D01*
X769190Y271895D01*
X766710Y272222D01*
X765251Y272030D01*
X758065Y279215D01*
X756246Y280431D01*
X754100Y280858D01*
X751954Y280431D01*
X751830Y280348D01*
X748844D01*
X748356Y281618D01*
X749608Y283249D01*
X750565Y285560D01*
X750892Y288040D01*
X750565Y290520D01*
X749608Y292831D01*
X748418Y294382D01*
X748983Y295652D01*
X751167D01*
X757320Y289499D01*
X757128Y288040D01*
X757454Y285560D01*
X758412Y283249D01*
X759934Y281264D01*
X761919Y279742D01*
X764230Y278785D01*
X766710Y278458D01*
X769190Y278785D01*
X771501Y279742D01*
X773485Y281264D01*
X775008Y283249D01*
X775965Y285560D01*
X776292Y288040D01*
X775965Y290520D01*
X775008Y292831D01*
X773485Y294815D01*
X771501Y296338D01*
X769190Y297295D01*
X766710Y297622D01*
X765251Y297430D01*
X757965Y304715D01*
X756146Y305931D01*
X754000Y306358D01*
X751854Y305931D01*
X751730Y305848D01*
X749018D01*
X748433Y307118D01*
X749608Y308649D01*
X750565Y310960D01*
X750892Y313440D01*
X750565Y315920D01*
X749608Y318231D01*
X748085Y320215D01*
X746101Y321738D01*
X743790Y322695D01*
X741310Y323022D01*
X738830Y322695D01*
X736519Y321738D01*
X734534Y320215D01*
X733012Y318231D01*
X732054Y315920D01*
X731728Y313440D01*
X732054Y310960D01*
X733012Y308649D01*
X734186Y307118D01*
X733602Y305848D01*
X723618D01*
X723033Y307118D01*
X724208Y308649D01*
X725165Y310960D01*
X725492Y313440D01*
X725165Y315920D01*
X724208Y318231D01*
X722685Y320215D01*
X720701Y321738D01*
X718390Y322695D01*
X715910Y323022D01*
X713430Y322695D01*
X711119Y321738D01*
X709134Y320215D01*
X707612Y318231D01*
X706654Y315920D01*
X706328Y313440D01*
X706654Y310960D01*
X707612Y308649D01*
X708327Y307717D01*
X707763Y306365D01*
X707044Y306271D01*
X690417Y322898D01*
X690402Y322976D01*
X689076Y324960D01*
X687091Y326286D01*
X684750Y326752D01*
D02*
G37*
G36*
X462500Y302265D02*
X460549Y301877D01*
X458895Y300771D01*
X457790Y299118D01*
X457402Y297167D01*
X457790Y295216D01*
X458895Y293562D01*
X460549Y292457D01*
X462500Y292069D01*
X464451Y292457D01*
X466105Y293562D01*
X467210Y295216D01*
X467598Y297167D01*
X467210Y299118D01*
X466105Y300771D01*
X464451Y301877D01*
X462500Y302265D01*
D02*
G37*
G36*
X741310Y119822D02*
X738830Y119495D01*
X736519Y118538D01*
X734534Y117015D01*
X733012Y115031D01*
X732054Y112720D01*
X731728Y110240D01*
X732054Y107760D01*
X733012Y105449D01*
X734534Y103464D01*
X736519Y101942D01*
X738830Y100984D01*
X741310Y100658D01*
X743790Y100984D01*
X746101Y101942D01*
X748085Y103464D01*
X749608Y105449D01*
X750565Y107760D01*
X750892Y110240D01*
X750565Y112720D01*
X749608Y115031D01*
X748085Y117015D01*
X746101Y118538D01*
X743790Y119495D01*
X741310Y119822D01*
D02*
G37*
G36*
X-85500Y4098D02*
X-87841Y3632D01*
X-89826Y2306D01*
X-91152Y321D01*
X-91618Y-2020D01*
X-91152Y-4361D01*
X-89826Y-6346D01*
X-87841Y-7672D01*
X-85500Y-8138D01*
X-83159Y-7672D01*
X-81174Y-6346D01*
X-79848Y-4361D01*
X-79383Y-2020D01*
X-79848Y321D01*
X-81174Y2306D01*
X-83159Y3632D01*
X-85500Y4098D01*
D02*
G37*
G36*
X-51800D02*
X-54141Y3632D01*
X-56126Y2306D01*
X-57452Y321D01*
X-57918Y-2020D01*
X-57452Y-4361D01*
X-56126Y-6346D01*
X-54141Y-7672D01*
X-51800Y-8138D01*
X-49459Y-7672D01*
X-47474Y-6346D01*
X-46148Y-4361D01*
X-45683Y-2020D01*
X-46148Y321D01*
X-47474Y2306D01*
X-49459Y3632D01*
X-51800Y4098D01*
D02*
G37*
G36*
X792110Y-7178D02*
X789630Y-7505D01*
X787319Y-8462D01*
X785334Y-9985D01*
X783812Y-11969D01*
X782854Y-14280D01*
X782528Y-16760D01*
X782854Y-19240D01*
X783812Y-21551D01*
X785334Y-23535D01*
X787319Y-25058D01*
X789630Y-26016D01*
X792110Y-26342D01*
X794590Y-26016D01*
X796901Y-25058D01*
X798885Y-23535D01*
X800408Y-21551D01*
X801365Y-19240D01*
X801692Y-16760D01*
X801365Y-14280D01*
X800408Y-11969D01*
X798885Y-9985D01*
X796901Y-8462D01*
X794590Y-7505D01*
X792110Y-7178D01*
D02*
G37*
G36*
X422250Y14186D02*
X394375D01*
X392548Y13945D01*
X390845Y13240D01*
X389383Y12118D01*
X387257Y9992D01*
X386135Y8530D01*
X385430Y6827D01*
X385190Y5000D01*
Y-5000D01*
X385430Y-6827D01*
X386135Y-8530D01*
X387257Y-9992D01*
X387534Y-10205D01*
X387747Y-10482D01*
X389209Y-11604D01*
X390912Y-12309D01*
X392739Y-12550D01*
X422250D01*
X424077Y-12309D01*
X425780Y-11604D01*
X427243Y-10482D01*
X428364Y-9019D01*
X429070Y-7316D01*
X429103Y-7061D01*
X430384D01*
X430419Y-7327D01*
X431125Y-9030D01*
X432247Y-10492D01*
X433709Y-11614D01*
X435412Y-12320D01*
X437239Y-12560D01*
X439067Y-12320D01*
X440769Y-11614D01*
X442232Y-10492D01*
X443354Y-9030D01*
X444059Y-7327D01*
X444300Y-5500D01*
Y7114D01*
X444059Y8942D01*
X443354Y10645D01*
X442232Y12107D01*
X440769Y13229D01*
X439067Y13934D01*
X437239Y14175D01*
X435412Y13934D01*
X433709Y13229D01*
X432247Y12107D01*
X431125Y10645D01*
X430419Y8942D01*
X430386Y8687D01*
X429105D01*
X429070Y8953D01*
X428364Y10655D01*
X427243Y12118D01*
X425780Y13240D01*
X424077Y13945D01*
X422250Y14186D01*
D02*
G37*
G36*
X715910Y18222D02*
X713430Y17895D01*
X711119Y16938D01*
X709134Y15415D01*
X707612Y13431D01*
X706654Y11120D01*
X706328Y8640D01*
X706654Y6160D01*
X707612Y3849D01*
X709134Y1865D01*
X711119Y342D01*
X713430Y-615D01*
X715910Y-942D01*
X718390Y-615D01*
X720701Y342D01*
X722685Y1865D01*
X724208Y3849D01*
X725165Y6160D01*
X725492Y8640D01*
X725165Y11120D01*
X724208Y13431D01*
X722685Y15415D01*
X720701Y16938D01*
X718390Y17895D01*
X715910Y18222D01*
D02*
G37*
G36*
X792110D02*
X789630Y17895D01*
X787319Y16938D01*
X785334Y15415D01*
X783812Y13431D01*
X782854Y11120D01*
X782528Y8640D01*
X782854Y6160D01*
X783812Y3849D01*
X785334Y1865D01*
X787319Y342D01*
X789630Y-615D01*
X792110Y-942D01*
X794590Y-615D01*
X796901Y342D01*
X798885Y1865D01*
X800408Y3849D01*
X801365Y6160D01*
X801692Y8640D01*
X801365Y11120D01*
X800408Y13431D01*
X798885Y15415D01*
X796901Y16938D01*
X794590Y17895D01*
X792110Y18222D01*
D02*
G37*
G36*
X-85500Y24098D02*
X-87841Y23632D01*
X-89826Y22306D01*
X-91152Y20321D01*
X-91618Y17980D01*
X-91152Y15639D01*
X-89826Y13654D01*
X-87841Y12328D01*
X-85500Y11862D01*
X-83159Y12328D01*
X-81174Y13654D01*
X-79848Y15639D01*
X-79383Y17980D01*
X-79848Y20321D01*
X-81174Y22306D01*
X-83159Y23632D01*
X-85500Y24098D01*
D02*
G37*
G36*
X741310Y18222D02*
X738830Y17895D01*
X736519Y16938D01*
X734534Y15415D01*
X733012Y13431D01*
X732054Y11120D01*
X731728Y8640D01*
X732054Y6160D01*
X733012Y3849D01*
X734534Y1865D01*
X736519Y342D01*
X738830Y-615D01*
X741310Y-942D01*
X743790Y-615D01*
X746101Y342D01*
X748085Y1865D01*
X749608Y3849D01*
X750565Y6160D01*
X750892Y8640D01*
X750565Y11120D01*
X749608Y13431D01*
X748085Y15415D01*
X746101Y16938D01*
X743790Y17895D01*
X741310Y18222D01*
D02*
G37*
G36*
X766710D02*
X764230Y17895D01*
X761919Y16938D01*
X759934Y15415D01*
X758412Y13431D01*
X757454Y11120D01*
X757128Y8640D01*
X757454Y6160D01*
X758412Y3849D01*
X759934Y1865D01*
X761919Y342D01*
X764230Y-615D01*
X766710Y-942D01*
X769190Y-615D01*
X771501Y342D01*
X773485Y1865D01*
X775008Y3849D01*
X775965Y6160D01*
X776292Y8640D01*
X775965Y11120D01*
X775008Y13431D01*
X773485Y15415D01*
X771501Y16938D01*
X769190Y17895D01*
X766710Y18222D01*
D02*
G37*
G36*
X-51800Y-35902D02*
X-54141Y-36368D01*
X-56126Y-37694D01*
X-57452Y-39679D01*
X-57918Y-42020D01*
X-57452Y-44361D01*
X-56126Y-46346D01*
X-54141Y-47672D01*
X-51800Y-48137D01*
X-49459Y-47672D01*
X-47474Y-46346D01*
X-46148Y-44361D01*
X-45683Y-42020D01*
X-46148Y-39679D01*
X-47474Y-37694D01*
X-49459Y-36368D01*
X-51800Y-35902D01*
D02*
G37*
G36*
X618650Y-15393D02*
X613236Y-15819D01*
X607956Y-17087D01*
X602939Y-19165D01*
X598309Y-22003D01*
X594179Y-25529D01*
X590653Y-29659D01*
X587815Y-34289D01*
X585737Y-39306D01*
X584469Y-44586D01*
X584292Y-46842D01*
X582985Y-47252D01*
X581368Y-45282D01*
X578932Y-43282D01*
X576152Y-41796D01*
X573136Y-40882D01*
X570000Y-40573D01*
X566863Y-40882D01*
X563847Y-41796D01*
X561068Y-43282D01*
X558631Y-45282D01*
X556632Y-47718D01*
X555146Y-50497D01*
X554231Y-53513D01*
X553923Y-56650D01*
X554231Y-59787D01*
X555146Y-62803D01*
X556632Y-65582D01*
X558631Y-68018D01*
X561068Y-70018D01*
X563847Y-71504D01*
X566863Y-72418D01*
X570000Y-72727D01*
X573136Y-72418D01*
X576152Y-71504D01*
X578932Y-70018D01*
X581368Y-68018D01*
X583368Y-65582D01*
X584854Y-62803D01*
X585015Y-62270D01*
X586362Y-62204D01*
X587815Y-65711D01*
X590653Y-70341D01*
X594179Y-74471D01*
X598309Y-77997D01*
X600685Y-79453D01*
X600250Y-80662D01*
X585250D01*
X583494Y-81011D01*
X582006Y-82006D01*
X561300Y-102712D01*
X552936D01*
X552551Y-101442D01*
X553355Y-100905D01*
X554460Y-99251D01*
X554848Y-97300D01*
X554460Y-95349D01*
X553355Y-93695D01*
X551701Y-92590D01*
X549750Y-92202D01*
X547799Y-92590D01*
X546145Y-93695D01*
X545040Y-95349D01*
X544652Y-97300D01*
X544793Y-98008D01*
X543622Y-98634D01*
X542994Y-98006D01*
X541506Y-97011D01*
X539750Y-96662D01*
X519883D01*
X519701Y-96540D01*
X517750Y-96152D01*
X515799Y-96540D01*
X514145Y-97645D01*
X513040Y-99299D01*
X512652Y-101250D01*
X513028Y-103142D01*
X513043Y-103366D01*
X512388Y-104412D01*
X503112D01*
X502457Y-103366D01*
X502472Y-103142D01*
X502848Y-101250D01*
X502460Y-99299D01*
X501355Y-97645D01*
X499701Y-96540D01*
X497750Y-96152D01*
X495799Y-96540D01*
X494145Y-97645D01*
X493040Y-99299D01*
X492652Y-101250D01*
X493028Y-103142D01*
X493043Y-103366D01*
X492388Y-104412D01*
X488150D01*
X483253Y-99514D01*
X483210Y-99299D01*
X482105Y-97645D01*
X480451Y-96540D01*
X478500Y-96152D01*
X476549Y-96540D01*
X474895Y-97645D01*
X473790Y-99299D01*
X473402Y-101250D01*
X473790Y-103201D01*
X474895Y-104855D01*
X476549Y-105960D01*
X476764Y-106003D01*
X483006Y-112244D01*
X484494Y-113239D01*
X486250Y-113588D01*
X535099D01*
X536070Y-114558D01*
X535544Y-115829D01*
X519883D01*
X519701Y-115707D01*
X517750Y-115319D01*
X515799Y-115707D01*
X514145Y-116812D01*
X513040Y-118466D01*
X512652Y-120417D01*
X513040Y-122368D01*
X513157Y-122542D01*
X512558Y-123662D01*
X502942D01*
X502343Y-122542D01*
X502460Y-122368D01*
X502848Y-120417D01*
X502460Y-118466D01*
X501355Y-116812D01*
X499701Y-115707D01*
X497750Y-115319D01*
X495799Y-115707D01*
X494145Y-116812D01*
X493040Y-118466D01*
X492652Y-120417D01*
X493040Y-122368D01*
X493157Y-122542D01*
X492558Y-123662D01*
X488234D01*
X483253Y-118681D01*
X483210Y-118466D01*
X482105Y-116812D01*
X480451Y-115707D01*
X478500Y-115319D01*
X476549Y-115707D01*
X474895Y-116812D01*
X473790Y-118466D01*
X473402Y-120417D01*
X473790Y-122368D01*
X474895Y-124022D01*
X476549Y-125127D01*
X476764Y-125169D01*
X483089Y-131494D01*
X484577Y-132489D01*
X486333Y-132838D01*
X532599D01*
X533583Y-133822D01*
X533097Y-134995D01*
X519883D01*
X519701Y-134874D01*
X517750Y-134485D01*
X515799Y-134874D01*
X514145Y-135979D01*
X513040Y-137633D01*
X512652Y-139583D01*
X513012Y-141392D01*
X512912Y-141791D01*
X512446Y-142662D01*
X503054D01*
X502588Y-141791D01*
X502488Y-141392D01*
X502848Y-139583D01*
X502460Y-137633D01*
X501355Y-135979D01*
X499701Y-134874D01*
X497750Y-134485D01*
X495799Y-134874D01*
X494145Y-135979D01*
X493040Y-137633D01*
X492652Y-139583D01*
X493012Y-141392D01*
X492912Y-141791D01*
X492446Y-142662D01*
X488067D01*
X483253Y-137847D01*
X483210Y-137633D01*
X482105Y-135979D01*
X480451Y-134874D01*
X478500Y-134485D01*
X476549Y-134874D01*
X474895Y-135979D01*
X473790Y-137633D01*
X473402Y-139583D01*
X473790Y-141534D01*
X474895Y-143188D01*
X476549Y-144293D01*
X476764Y-144336D01*
X482922Y-150494D01*
X484411Y-151489D01*
X486167Y-151838D01*
X529599D01*
X530750Y-152989D01*
X530264Y-154162D01*
X519883D01*
X519701Y-154040D01*
X517750Y-153652D01*
X515799Y-154040D01*
X514145Y-155145D01*
X513040Y-156799D01*
X512652Y-158750D01*
X512979Y-160392D01*
X512271Y-161662D01*
X503229D01*
X502521Y-160392D01*
X502848Y-158750D01*
X502460Y-156799D01*
X501355Y-155145D01*
X499701Y-154040D01*
X497750Y-153652D01*
X495799Y-154040D01*
X494145Y-155145D01*
X493040Y-156799D01*
X492652Y-158750D01*
X492979Y-160392D01*
X492271Y-161662D01*
X487901D01*
X483253Y-157014D01*
X483210Y-156799D01*
X482105Y-155145D01*
X480451Y-154040D01*
X478500Y-153652D01*
X476549Y-154040D01*
X474895Y-155145D01*
X473790Y-156799D01*
X473402Y-158750D01*
X473790Y-160701D01*
X474895Y-162355D01*
X476549Y-163460D01*
X476764Y-163503D01*
X482756Y-169494D01*
X484244Y-170489D01*
X486000Y-170838D01*
X526850D01*
X528939Y-172928D01*
X528896Y-173213D01*
X528377Y-174162D01*
X519883D01*
X519701Y-174040D01*
X517750Y-173652D01*
X515799Y-174040D01*
X514145Y-175145D01*
X513040Y-176799D01*
X512652Y-178750D01*
X513040Y-180701D01*
X514145Y-182355D01*
X515799Y-183460D01*
X517750Y-183848D01*
X519701Y-183460D01*
X519883Y-183338D01*
X526850D01*
X534056Y-190544D01*
X535544Y-191539D01*
X537300Y-191888D01*
X547617D01*
X547799Y-192010D01*
X549750Y-192398D01*
X551701Y-192010D01*
X551883Y-191888D01*
X567450D01*
X569206Y-191539D01*
X570694Y-190544D01*
X580650Y-180588D01*
X585438D01*
X585805Y-181858D01*
X584706Y-183291D01*
X583904Y-185225D01*
X583631Y-187300D01*
X583904Y-189375D01*
X584706Y-191309D01*
X585980Y-192970D01*
X587641Y-194244D01*
X589575Y-195045D01*
X591650Y-195319D01*
X593725Y-195045D01*
X595659Y-194244D01*
X597320Y-192970D01*
X598594Y-191309D01*
X599395Y-189375D01*
X599669Y-187300D01*
X599395Y-185225D01*
X598594Y-183291D01*
X597495Y-181858D01*
X597862Y-180588D01*
X599100D01*
X609056Y-190544D01*
X610544Y-191539D01*
X612300Y-191888D01*
X631417D01*
X631599Y-192010D01*
X633550Y-192398D01*
X635501Y-192010D01*
X637155Y-190905D01*
X638260Y-189251D01*
X638648Y-187300D01*
X638260Y-185349D01*
X637155Y-183695D01*
X636210Y-183064D01*
Y-181536D01*
X637155Y-180905D01*
X638260Y-179251D01*
X638648Y-177300D01*
X638260Y-175349D01*
X637155Y-173695D01*
X636210Y-173064D01*
Y-171536D01*
X637155Y-170905D01*
X638260Y-169251D01*
X638648Y-167300D01*
X638260Y-165349D01*
X637155Y-163695D01*
X636210Y-163064D01*
Y-161536D01*
X637155Y-160905D01*
X638260Y-159251D01*
X638648Y-157300D01*
X638260Y-155349D01*
X637155Y-153695D01*
X636210Y-153064D01*
Y-151536D01*
X637155Y-150905D01*
X638260Y-149251D01*
X638648Y-147300D01*
X638260Y-145349D01*
X637155Y-143695D01*
X636210Y-143064D01*
Y-141536D01*
X637155Y-140905D01*
X638260Y-139251D01*
X638648Y-137300D01*
X638260Y-135349D01*
X637155Y-133695D01*
X636210Y-133064D01*
Y-131536D01*
X637155Y-130905D01*
X638260Y-129251D01*
X638648Y-127300D01*
X638260Y-125349D01*
X637155Y-123695D01*
X636210Y-123064D01*
Y-121536D01*
X637155Y-120905D01*
X638260Y-119251D01*
X638648Y-117300D01*
X638260Y-115349D01*
X637155Y-113695D01*
X636210Y-113064D01*
Y-111536D01*
X637155Y-110905D01*
X638260Y-109251D01*
X638648Y-107300D01*
X638260Y-105349D01*
X637155Y-103695D01*
X636210Y-103064D01*
Y-101536D01*
X637155Y-100905D01*
X638260Y-99251D01*
X638648Y-97300D01*
X638260Y-95349D01*
X637155Y-93695D01*
X635501Y-92590D01*
X633550Y-92202D01*
X631599Y-92590D01*
X629945Y-93695D01*
X628840Y-95349D01*
X628452Y-97300D01*
X628840Y-99251D01*
X629945Y-100905D01*
X630749Y-101442D01*
X630364Y-102712D01*
X624201D01*
X604235Y-82746D01*
X604954Y-81670D01*
X607956Y-82913D01*
X613236Y-84181D01*
X618650Y-84607D01*
X624063Y-84181D01*
X629344Y-82913D01*
X634361Y-80835D01*
X638991Y-77997D01*
X643120Y-74471D01*
X646647Y-70341D01*
X649485Y-65711D01*
X651563Y-60694D01*
X652831Y-55414D01*
X653257Y-50000D01*
X652831Y-44586D01*
X651563Y-39306D01*
X649485Y-34289D01*
X646647Y-29659D01*
X643120Y-25529D01*
X638991Y-22003D01*
X634361Y-19165D01*
X629344Y-17087D01*
X624063Y-15819D01*
X618650Y-15393D01*
D02*
G37*
G36*
X792110Y-32578D02*
X789630Y-32905D01*
X787319Y-33862D01*
X785334Y-35385D01*
X783812Y-37369D01*
X782854Y-39680D01*
X782528Y-42160D01*
X782854Y-44640D01*
X783812Y-46951D01*
X785334Y-48935D01*
X787319Y-50458D01*
X789630Y-51416D01*
X792110Y-51742D01*
X794590Y-51416D01*
X796901Y-50458D01*
X798885Y-48935D01*
X800408Y-46951D01*
X801365Y-44640D01*
X801692Y-42160D01*
X801365Y-39680D01*
X800408Y-37369D01*
X798885Y-35385D01*
X796901Y-33862D01*
X794590Y-32905D01*
X792110Y-32578D01*
D02*
G37*
G36*
X-85500Y-35902D02*
X-87841Y-36368D01*
X-89826Y-37694D01*
X-91152Y-39679D01*
X-91618Y-42020D01*
X-91152Y-44361D01*
X-89826Y-46346D01*
X-87841Y-47672D01*
X-85500Y-48137D01*
X-83159Y-47672D01*
X-81174Y-46346D01*
X-79848Y-44361D01*
X-79383Y-42020D01*
X-79848Y-39679D01*
X-81174Y-37694D01*
X-83159Y-36368D01*
X-85500Y-35902D01*
D02*
G37*
G36*
Y-15902D02*
X-87841Y-16368D01*
X-89826Y-17694D01*
X-91152Y-19679D01*
X-91618Y-22020D01*
X-91152Y-24361D01*
X-89826Y-26346D01*
X-87841Y-27672D01*
X-85500Y-28138D01*
X-83159Y-27672D01*
X-81174Y-26346D01*
X-79848Y-24361D01*
X-79383Y-22020D01*
X-79848Y-19679D01*
X-81174Y-17694D01*
X-83159Y-16368D01*
X-85500Y-15902D01*
D02*
G37*
G36*
X741310Y-7178D02*
X738830Y-7505D01*
X736519Y-8462D01*
X734534Y-9985D01*
X733012Y-11969D01*
X732054Y-14280D01*
X731728Y-16760D01*
X732054Y-19240D01*
X733012Y-21551D01*
X734534Y-23535D01*
X736519Y-25058D01*
X738830Y-26016D01*
X741310Y-26342D01*
X743790Y-26016D01*
X746101Y-25058D01*
X748085Y-23535D01*
X749608Y-21551D01*
X750565Y-19240D01*
X750892Y-16760D01*
X750565Y-14280D01*
X749608Y-11969D01*
X748085Y-9985D01*
X746101Y-8462D01*
X743790Y-7505D01*
X741310Y-7178D01*
D02*
G37*
G36*
X766710D02*
X764230Y-7505D01*
X761919Y-8462D01*
X759934Y-9985D01*
X758412Y-11969D01*
X757454Y-14280D01*
X757128Y-16760D01*
X757454Y-19240D01*
X758412Y-21551D01*
X759934Y-23535D01*
X761919Y-25058D01*
X764230Y-26016D01*
X766710Y-26342D01*
X769190Y-26016D01*
X771501Y-25058D01*
X773485Y-23535D01*
X775008Y-21551D01*
X775965Y-19240D01*
X776292Y-16760D01*
X775965Y-14280D01*
X775008Y-11969D01*
X773485Y-9985D01*
X771501Y-8462D01*
X769190Y-7505D01*
X766710Y-7178D01*
D02*
G37*
G36*
X-51800Y-15902D02*
X-54141Y-16368D01*
X-56126Y-17694D01*
X-57452Y-19679D01*
X-57918Y-22020D01*
X-57452Y-24361D01*
X-56126Y-26346D01*
X-54141Y-27672D01*
X-51800Y-28138D01*
X-49459Y-27672D01*
X-47474Y-26346D01*
X-46148Y-24361D01*
X-45683Y-22020D01*
X-46148Y-19679D01*
X-47474Y-17694D01*
X-49459Y-16368D01*
X-51800Y-15902D01*
D02*
G37*
G36*
X715910Y-7178D02*
X713430Y-7505D01*
X711119Y-8462D01*
X709134Y-9985D01*
X707612Y-11969D01*
X706654Y-14280D01*
X706328Y-16760D01*
X706654Y-19240D01*
X707612Y-21551D01*
X709134Y-23535D01*
X711119Y-25058D01*
X713430Y-26016D01*
X715910Y-26342D01*
X718390Y-26016D01*
X720701Y-25058D01*
X722685Y-23535D01*
X724208Y-21551D01*
X725165Y-19240D01*
X725492Y-16760D01*
X725165Y-14280D01*
X724208Y-11969D01*
X722685Y-9985D01*
X720701Y-8462D01*
X718390Y-7505D01*
X715910Y-7178D01*
D02*
G37*
G36*
X618650Y84607D02*
X613236Y84181D01*
X607956Y82913D01*
X602939Y80835D01*
X598309Y77997D01*
X594179Y74471D01*
X590653Y70341D01*
X587815Y65711D01*
X586362Y62204D01*
X585015Y62270D01*
X584854Y62803D01*
X583368Y65582D01*
X581368Y68018D01*
X578932Y70018D01*
X576152Y71504D01*
X573136Y72418D01*
X570000Y72727D01*
X566863Y72418D01*
X563847Y71504D01*
X561068Y70018D01*
X558631Y68018D01*
X556632Y65582D01*
X555146Y62803D01*
X554231Y59787D01*
X553923Y56650D01*
X554231Y53513D01*
X555146Y50497D01*
X556632Y47718D01*
X558631Y45282D01*
X561068Y43282D01*
X563847Y41796D01*
X566863Y40882D01*
X570000Y40573D01*
X573136Y40882D01*
X576152Y41796D01*
X578932Y43282D01*
X581368Y45282D01*
X582985Y47252D01*
X584292Y46842D01*
X584469Y44586D01*
X585737Y39306D01*
X587815Y34289D01*
X590653Y29659D01*
X594179Y25529D01*
X598309Y22003D01*
X602939Y19165D01*
X607956Y17087D01*
X613236Y15819D01*
X618650Y15393D01*
X624063Y15819D01*
X629344Y17087D01*
X634361Y19165D01*
X638991Y22003D01*
X643120Y25529D01*
X646647Y29659D01*
X649485Y34289D01*
X651563Y39306D01*
X652831Y44586D01*
X653257Y50000D01*
X652831Y55414D01*
X651563Y60694D01*
X649485Y65711D01*
X646647Y70341D01*
X643120Y74471D01*
X638991Y77997D01*
X634361Y80835D01*
X629344Y82913D01*
X624063Y84181D01*
X618650Y84607D01*
D02*
G37*
G36*
X715910Y94422D02*
X713430Y94095D01*
X711119Y93138D01*
X709134Y91615D01*
X707612Y89631D01*
X706654Y87320D01*
X706328Y84840D01*
X706654Y82360D01*
X707612Y80049D01*
X709134Y78064D01*
X711119Y76542D01*
X713430Y75585D01*
X715910Y75258D01*
X718390Y75585D01*
X720701Y76542D01*
X722685Y78064D01*
X724208Y80049D01*
X725165Y82360D01*
X725492Y84840D01*
X725165Y87320D01*
X724208Y89631D01*
X722685Y91615D01*
X720701Y93138D01*
X718390Y94095D01*
X715910Y94422D01*
D02*
G37*
G36*
X766710Y69022D02*
X764230Y68695D01*
X761919Y67738D01*
X759934Y66215D01*
X758412Y64231D01*
X757454Y61920D01*
X757128Y59440D01*
X757454Y56960D01*
X758412Y54649D01*
X759934Y52664D01*
X761919Y51142D01*
X764230Y50184D01*
X766710Y49858D01*
X769190Y50184D01*
X771501Y51142D01*
X773485Y52664D01*
X775008Y54649D01*
X775965Y56960D01*
X776292Y59440D01*
X775965Y61920D01*
X775008Y64231D01*
X773485Y66215D01*
X771501Y67738D01*
X769190Y68695D01*
X766710Y69022D01*
D02*
G37*
G36*
X792110D02*
X789630Y68695D01*
X787319Y67738D01*
X785334Y66215D01*
X783812Y64231D01*
X782854Y61920D01*
X782528Y59440D01*
X782854Y56960D01*
X783812Y54649D01*
X785334Y52664D01*
X787319Y51142D01*
X789630Y50184D01*
X792110Y49858D01*
X794590Y50184D01*
X796901Y51142D01*
X798885Y52664D01*
X800408Y54649D01*
X801365Y56960D01*
X801692Y59440D01*
X801365Y61920D01*
X800408Y64231D01*
X798885Y66215D01*
X796901Y67738D01*
X794590Y68695D01*
X792110Y69022D01*
D02*
G37*
G36*
X741310Y94422D02*
X738830Y94095D01*
X736519Y93138D01*
X734534Y91615D01*
X733012Y89631D01*
X732054Y87320D01*
X731728Y84840D01*
X732054Y82360D01*
X733012Y80049D01*
X734534Y78064D01*
X736519Y76542D01*
X738830Y75585D01*
X741310Y75258D01*
X743790Y75585D01*
X746101Y76542D01*
X748085Y78064D01*
X749608Y80049D01*
X750565Y82360D01*
X750892Y84840D01*
X750565Y87320D01*
X749608Y89631D01*
X748085Y91615D01*
X746101Y93138D01*
X743790Y94095D01*
X741310Y94422D01*
D02*
G37*
G36*
X591650Y105319D02*
X589575Y105045D01*
X587641Y104244D01*
X585980Y102970D01*
X584706Y101309D01*
X583904Y99375D01*
X583631Y97300D01*
X583904Y95225D01*
X584706Y93291D01*
X585980Y91630D01*
X587641Y90356D01*
X589575Y89555D01*
X591650Y89281D01*
X593725Y89555D01*
X595659Y90356D01*
X597320Y91630D01*
X598594Y93291D01*
X599395Y95225D01*
X599669Y97300D01*
X599395Y99375D01*
X598594Y101309D01*
X597320Y102970D01*
X595659Y104244D01*
X593725Y105045D01*
X591650Y105319D01*
D02*
G37*
G36*
X715910Y119822D02*
X713430Y119495D01*
X711119Y118538D01*
X709134Y117015D01*
X707612Y115031D01*
X706654Y112720D01*
X706328Y110240D01*
X706654Y107760D01*
X707612Y105449D01*
X709134Y103464D01*
X711119Y101942D01*
X713430Y100984D01*
X715910Y100658D01*
X718390Y100984D01*
X720701Y101942D01*
X722685Y103464D01*
X724208Y105449D01*
X725165Y107760D01*
X725492Y110240D01*
X725165Y112720D01*
X724208Y115031D01*
X722685Y117015D01*
X720701Y118538D01*
X718390Y119495D01*
X715910Y119822D01*
D02*
G37*
G36*
X766710Y94422D02*
X764230Y94095D01*
X761919Y93138D01*
X759934Y91615D01*
X758412Y89631D01*
X757454Y87320D01*
X757128Y84840D01*
X757454Y82360D01*
X758412Y80049D01*
X759934Y78064D01*
X761919Y76542D01*
X764230Y75585D01*
X766710Y75258D01*
X769190Y75585D01*
X771501Y76542D01*
X773485Y78064D01*
X775008Y80049D01*
X775965Y82360D01*
X776292Y84840D01*
X775965Y87320D01*
X775008Y89631D01*
X773485Y91615D01*
X771501Y93138D01*
X769190Y94095D01*
X766710Y94422D01*
D02*
G37*
G36*
X792110D02*
X789630Y94095D01*
X787319Y93138D01*
X785334Y91615D01*
X783812Y89631D01*
X782854Y87320D01*
X782528Y84840D01*
X782854Y82360D01*
X783812Y80049D01*
X785334Y78064D01*
X787319Y76542D01*
X789630Y75585D01*
X792110Y75258D01*
X794590Y75585D01*
X796901Y76542D01*
X798885Y78064D01*
X800408Y80049D01*
X801365Y82360D01*
X801692Y84840D01*
X801365Y87320D01*
X800408Y89631D01*
X798885Y91615D01*
X796901Y93138D01*
X794590Y94095D01*
X792110Y94422D01*
D02*
G37*
G36*
X715910Y43622D02*
X713430Y43295D01*
X711119Y42338D01*
X709134Y40815D01*
X707612Y38831D01*
X706654Y36520D01*
X706328Y34040D01*
X706654Y31560D01*
X707612Y29249D01*
X709134Y27264D01*
X711119Y25742D01*
X713430Y24785D01*
X715910Y24458D01*
X718390Y24785D01*
X720701Y25742D01*
X722685Y27264D01*
X724208Y29249D01*
X725165Y31560D01*
X725492Y34040D01*
X725165Y36520D01*
X724208Y38831D01*
X722685Y40815D01*
X720701Y42338D01*
X718390Y43295D01*
X715910Y43622D01*
D02*
G37*
G36*
X741310D02*
X738830Y43295D01*
X736519Y42338D01*
X734534Y40815D01*
X733012Y38831D01*
X732054Y36520D01*
X731728Y34040D01*
X732054Y31560D01*
X733012Y29249D01*
X734534Y27264D01*
X736519Y25742D01*
X738830Y24785D01*
X741310Y24458D01*
X743790Y24785D01*
X746101Y25742D01*
X748085Y27264D01*
X749608Y29249D01*
X750565Y31560D01*
X750892Y34040D01*
X750565Y36520D01*
X749608Y38831D01*
X748085Y40815D01*
X746101Y42338D01*
X743790Y43295D01*
X741310Y43622D01*
D02*
G37*
G36*
X-51800Y24098D02*
X-54141Y23632D01*
X-56126Y22306D01*
X-57452Y20321D01*
X-57918Y17980D01*
X-57452Y15639D01*
X-56126Y13654D01*
X-54141Y12328D01*
X-51800Y11862D01*
X-49459Y12328D01*
X-47474Y13654D01*
X-46148Y15639D01*
X-45683Y17980D01*
X-46148Y20321D01*
X-47474Y22306D01*
X-49459Y23632D01*
X-51800Y24098D01*
D02*
G37*
G36*
X323250Y18569D02*
X286000D01*
X284634Y18297D01*
X283477Y17523D01*
X280293Y14339D01*
X280250Y14348D01*
X278299Y13960D01*
X276645Y12855D01*
X275540Y11201D01*
X275152Y9250D01*
X275370Y8153D01*
X274768Y7639D01*
X274241Y7322D01*
X273000Y7569D01*
X263129D01*
X263105Y7605D01*
X261451Y8710D01*
X259500Y9098D01*
X257549Y8710D01*
X255895Y7605D01*
X254790Y5951D01*
X254402Y4000D01*
X254790Y2049D01*
X255895Y395D01*
X256840Y-236D01*
Y-1764D01*
X255895Y-2395D01*
X254790Y-4049D01*
X254402Y-6000D01*
X254790Y-7951D01*
X255895Y-9605D01*
X257549Y-10710D01*
X259500Y-11098D01*
X261451Y-10710D01*
X263105Y-9605D01*
X263129Y-9568D01*
X267420D01*
X268652Y-9750D01*
X269040Y-11701D01*
X270145Y-13355D01*
X271799Y-14460D01*
X273750Y-14848D01*
X275701Y-14460D01*
X277355Y-13355D01*
X278460Y-11701D01*
X278848Y-9750D01*
X278585Y-8428D01*
X279755Y-7802D01*
X281661Y-9707D01*
X281652Y-9750D01*
X282040Y-11701D01*
X283145Y-13355D01*
X284799Y-14460D01*
X286750Y-14848D01*
X288701Y-14460D01*
X290355Y-13355D01*
X291460Y-11701D01*
X291848Y-9750D01*
X291460Y-7799D01*
X290355Y-6145D01*
X288701Y-5040D01*
X286750Y-4652D01*
X286707Y-4660D01*
X278926Y3121D01*
X279552Y4291D01*
X280250Y4152D01*
X282201Y4540D01*
X283855Y5645D01*
X284960Y7299D01*
X285348Y9250D01*
X285340Y9293D01*
X287478Y11431D01*
X321772D01*
X323477Y9727D01*
X324634Y8953D01*
X326000Y8681D01*
X344371D01*
X344395Y8645D01*
X346049Y7540D01*
X348000Y7152D01*
X349951Y7540D01*
X351605Y8645D01*
X352236Y9590D01*
X353705D01*
X354386Y8659D01*
X354395Y8645D01*
X354397Y8644D01*
X354431Y8597D01*
Y1478D01*
X348043Y-4911D01*
X348000Y-4902D01*
X346049Y-5290D01*
X344395Y-6395D01*
X343290Y-8049D01*
X342902Y-10000D01*
X343290Y-11951D01*
X344395Y-13605D01*
X346049Y-14710D01*
X348000Y-15098D01*
X349951Y-14710D01*
X351605Y-13605D01*
X352236Y-12660D01*
X353764D01*
X354395Y-13605D01*
X356049Y-14710D01*
X358000Y-15098D01*
X359951Y-14710D01*
X361605Y-13605D01*
X362710Y-11951D01*
X363098Y-10000D01*
X362710Y-8049D01*
X361605Y-6395D01*
X359951Y-5290D01*
X359442Y-5189D01*
X359073Y-3974D01*
X360523Y-2523D01*
X361297Y-1366D01*
X361569Y0D01*
Y8621D01*
X361605Y8645D01*
X362710Y10299D01*
X363098Y12250D01*
X362710Y14201D01*
X361605Y15855D01*
X359951Y16960D01*
X358000Y17348D01*
X356049Y16960D01*
X354395Y15855D01*
X353764Y14910D01*
X352236D01*
X351605Y15855D01*
X349951Y16960D01*
X348000Y17348D01*
X346049Y16960D01*
X344395Y15855D01*
X344371Y15819D01*
X327478D01*
X325773Y17523D01*
X324616Y18297D01*
X323250Y18569D01*
D02*
G37*
G36*
X766710Y43622D02*
X764230Y43295D01*
X761919Y42338D01*
X759934Y40815D01*
X758412Y38831D01*
X757454Y36520D01*
X757128Y34040D01*
X757454Y31560D01*
X758412Y29249D01*
X759934Y27264D01*
X761919Y25742D01*
X764230Y24785D01*
X766710Y24458D01*
X769190Y24785D01*
X771501Y25742D01*
X773485Y27264D01*
X775008Y29249D01*
X775965Y31560D01*
X776292Y34040D01*
X775965Y36520D01*
X775008Y38831D01*
X773485Y40815D01*
X771501Y42338D01*
X769190Y43295D01*
X766710Y43622D01*
D02*
G37*
G36*
X715910Y69022D02*
X713430Y68695D01*
X711119Y67738D01*
X709134Y66215D01*
X707612Y64231D01*
X706654Y61920D01*
X706328Y59440D01*
X706654Y56960D01*
X707612Y54649D01*
X709134Y52664D01*
X711119Y51142D01*
X713430Y50184D01*
X715910Y49858D01*
X718390Y50184D01*
X720701Y51142D01*
X722685Y52664D01*
X724208Y54649D01*
X725165Y56960D01*
X725492Y59440D01*
X725165Y61920D01*
X724208Y64231D01*
X722685Y66215D01*
X720701Y67738D01*
X718390Y68695D01*
X715910Y69022D01*
D02*
G37*
G36*
X741310D02*
X738830Y68695D01*
X736519Y67738D01*
X734534Y66215D01*
X733012Y64231D01*
X732054Y61920D01*
X731728Y59440D01*
X732054Y56960D01*
X733012Y54649D01*
X734534Y52664D01*
X736519Y51142D01*
X738830Y50184D01*
X741310Y49858D01*
X743790Y50184D01*
X746101Y51142D01*
X748085Y52664D01*
X749608Y54649D01*
X750565Y56960D01*
X750892Y59440D01*
X750565Y61920D01*
X749608Y64231D01*
X748085Y66215D01*
X746101Y67738D01*
X743790Y68695D01*
X741310Y69022D01*
D02*
G37*
G36*
X792110Y43622D02*
X789630Y43295D01*
X787319Y42338D01*
X785334Y40815D01*
X783812Y38831D01*
X782854Y36520D01*
X782528Y34040D01*
X782854Y31560D01*
X783812Y29249D01*
X785334Y27264D01*
X787319Y25742D01*
X789630Y24785D01*
X792110Y24458D01*
X794590Y24785D01*
X796901Y25742D01*
X798885Y27264D01*
X800408Y29249D01*
X801365Y31560D01*
X801692Y34040D01*
X801365Y36520D01*
X800408Y38831D01*
X798885Y40815D01*
X796901Y42338D01*
X794590Y43295D01*
X792110Y43622D01*
D02*
G37*
G36*
X31350Y84607D02*
X25936Y84181D01*
X20656Y82913D01*
X15639Y80835D01*
X11009Y77997D01*
X6879Y74471D01*
X3352Y70341D01*
X515Y65711D01*
X-1563Y60694D01*
X-2831Y55414D01*
X-3257Y50000D01*
X-2831Y44586D01*
X-1563Y39306D01*
X515Y34289D01*
X3352Y29659D01*
X6879Y25529D01*
X11009Y22003D01*
X15639Y19165D01*
X20656Y17087D01*
X25936Y15819D01*
X31350Y15393D01*
X36764Y15819D01*
X42044Y17087D01*
X47061Y19165D01*
X51691Y22003D01*
X55820Y25529D01*
X59347Y29659D01*
X62185Y34289D01*
X64263Y39306D01*
X65531Y44586D01*
X65595Y45403D01*
X66901Y45814D01*
X67921Y44571D01*
X70510Y42447D01*
X73463Y40868D01*
X76667Y39896D01*
X80000Y39568D01*
X83332Y39896D01*
X86537Y40868D01*
X89490Y42447D01*
X92079Y44571D01*
X94203Y47160D01*
X95782Y50113D01*
X96754Y53317D01*
X97082Y56650D01*
X96754Y59983D01*
X95782Y63187D01*
X94203Y66140D01*
X92079Y68729D01*
X89490Y70853D01*
X86537Y72432D01*
X83332Y73404D01*
X80000Y73732D01*
X76667Y73404D01*
X73463Y72432D01*
X70510Y70853D01*
X67921Y68729D01*
X65796Y66140D01*
X64436Y63595D01*
X63076Y63560D01*
X62185Y65711D01*
X59347Y70341D01*
X55820Y74471D01*
X51691Y77997D01*
X47061Y80835D01*
X42044Y82913D01*
X36764Y84181D01*
X31350Y84607D01*
D02*
G37*
%LPD*%
D36*
X213167Y-476253D02*
Y-486250D01*
X219831D01*
X223163Y-477919D02*
X224829Y-476253D01*
X228162D01*
X229828Y-477919D01*
Y-479585D01*
X228162Y-481252D01*
X229828Y-482918D01*
Y-484584D01*
X228162Y-486250D01*
X224829D01*
X223163Y-484584D01*
Y-482918D01*
X224829Y-481252D01*
X223163Y-479585D01*
Y-477919D01*
X224829Y-481252D02*
X228162D01*
D37*
X80000Y-56650D02*
D03*
Y56650D02*
D03*
D38*
X591650Y-340000D02*
D03*
Y-250000D02*
D03*
Y205000D02*
D03*
Y115000D02*
D03*
Y-232300D02*
D03*
Y-322300D02*
D03*
Y97300D02*
D03*
Y187300D02*
D03*
Y232300D02*
D03*
Y322300D02*
D03*
Y-205000D02*
D03*
Y-115000D02*
D03*
Y340000D02*
D03*
Y250000D02*
D03*
Y-187300D02*
D03*
Y-97300D02*
D03*
D39*
X766710Y313440D02*
D03*
X792110D02*
D03*
X766710Y288040D02*
D03*
X792110D02*
D03*
X766710Y262640D02*
D03*
X792110D02*
D03*
X766710Y237240D02*
D03*
X792110D02*
D03*
X766710Y211840D02*
D03*
X792110D02*
D03*
X766710Y186440D02*
D03*
X792110D02*
D03*
X766710Y161040D02*
D03*
X792110D02*
D03*
X766710Y135640D02*
D03*
X792110D02*
D03*
X766710Y110240D02*
D03*
X792110D02*
D03*
X766710Y84840D02*
D03*
X792110D02*
D03*
X766710Y59440D02*
D03*
X792110D02*
D03*
X766710Y34040D02*
D03*
X792110D02*
D03*
X766710Y8640D02*
D03*
X792110D02*
D03*
X766710Y-16760D02*
D03*
X792110D02*
D03*
X766710Y-42160D02*
D03*
X792110D02*
D03*
X766710Y-67560D02*
D03*
X792110D02*
D03*
X766710Y-92960D02*
D03*
X792110D02*
D03*
X766710Y-118360D02*
D03*
X792110D02*
D03*
X766710Y-143760D02*
D03*
X792110D02*
D03*
X766710Y-169160D02*
D03*
X792110D02*
D03*
X766710Y-194560D02*
D03*
X792110D02*
D03*
X766710Y-219960D02*
D03*
X792110D02*
D03*
X766710Y-245360D02*
D03*
X792110D02*
D03*
X766710Y-270760D02*
D03*
X792110D02*
D03*
X766710Y-296160D02*
D03*
X792110D02*
D03*
X766710Y-321560D02*
D03*
X792110D02*
D03*
X741310D02*
D03*
X715910D02*
D03*
X741310Y-296160D02*
D03*
X715910D02*
D03*
X741310Y-270760D02*
D03*
X715910D02*
D03*
X741310Y-245360D02*
D03*
X715910D02*
D03*
X741310Y-219960D02*
D03*
X715910D02*
D03*
X741310Y-194560D02*
D03*
X715910D02*
D03*
X741310Y-169160D02*
D03*
X715910D02*
D03*
X741310Y-143760D02*
D03*
X715910D02*
D03*
X741310Y-118360D02*
D03*
X715910D02*
D03*
X741310Y-92960D02*
D03*
X715910D02*
D03*
X741310Y-67560D02*
D03*
X715910D02*
D03*
X741310Y-42160D02*
D03*
X715910D02*
D03*
X741310Y-16760D02*
D03*
X715910D02*
D03*
X741310Y8640D02*
D03*
X715910D02*
D03*
X741310Y34040D02*
D03*
X715910D02*
D03*
X741310Y59440D02*
D03*
X715910D02*
D03*
X741310Y84840D02*
D03*
X715910D02*
D03*
X741310Y110240D02*
D03*
X715910D02*
D03*
X741310Y135640D02*
D03*
X715910D02*
D03*
X741310Y161040D02*
D03*
X715910D02*
D03*
X741310Y186440D02*
D03*
X715910D02*
D03*
X741310Y211840D02*
D03*
X715910D02*
D03*
X741310Y237240D02*
D03*
X715910D02*
D03*
X741310Y262640D02*
D03*
X715910D02*
D03*
X741310Y288040D02*
D03*
X715910D02*
D03*
X741310Y313440D02*
D03*
X715910D02*
D03*
D40*
X-68650Y-400000D02*
D03*
Y400100D02*
D03*
X788650Y-374600D02*
D03*
Y362000D02*
D03*
D41*
X31350Y-387300D02*
D03*
Y-50000D02*
D03*
Y50000D02*
D03*
Y387300D02*
D03*
X618650Y-50000D02*
D03*
Y50000D02*
D03*
Y387300D02*
D03*
Y-387300D02*
D03*
D42*
X540000Y-392500D02*
D03*
Y-407750D02*
D03*
X550750Y400500D02*
D03*
Y411750D02*
D03*
X388750Y-303000D02*
D03*
X0Y330000D02*
D03*
Y345000D02*
D03*
X520000Y430000D02*
D03*
X500000D02*
D03*
X540000Y-430000D02*
D03*
X520000D02*
D03*
X225000Y0D02*
D03*
X240000D02*
D03*
D43*
X314000Y399750D02*
D03*
Y389750D02*
D03*
X392250Y399750D02*
D03*
Y389750D02*
D03*
X314000Y340000D02*
D03*
Y330000D02*
D03*
X392250Y340000D02*
D03*
Y330000D02*
D03*
X314000Y5000D02*
D03*
Y-5000D02*
D03*
X392250Y5000D02*
D03*
Y-5000D02*
D03*
X314000Y-340000D02*
D03*
Y-350000D02*
D03*
X392250Y-340000D02*
D03*
Y-350000D02*
D03*
X435750Y343250D02*
D03*
Y327750D02*
D03*
X420750D02*
D03*
Y343250D02*
D03*
Y403250D02*
D03*
Y387500D02*
D03*
X435750D02*
D03*
Y403250D02*
D03*
X422000Y-336750D02*
D03*
X437000D02*
D03*
X507000Y221000D02*
D03*
Y236000D02*
D03*
X488000D02*
D03*
Y221000D02*
D03*
X402250Y-303000D02*
D03*
X417250Y-303000D02*
D03*
X437000Y-396750D02*
D03*
Y-411750D02*
D03*
X422000D02*
D03*
Y-396750D02*
D03*
Y-351750D02*
D03*
X437000D02*
D03*
X486500Y185150D02*
D03*
Y164350D02*
D03*
X519500Y378600D02*
D03*
Y399400D02*
D03*
X483500Y399000D02*
D03*
X483500Y379000D02*
D03*
X450500Y184750D02*
D03*
X450500Y164750D02*
D03*
X392250Y-410000D02*
D03*
Y-400000D02*
D03*
X314000Y-410000D02*
D03*
Y-400000D02*
D03*
X422250Y7125D02*
D03*
X422239Y-5500D02*
D03*
X437239D02*
D03*
X437250Y7125D02*
D03*
X483500Y-404500D02*
D03*
X450500Y-272500D02*
D03*
X487000Y-252100D02*
D03*
Y-272900D02*
D03*
X520000Y-404900D02*
D03*
Y-384100D02*
D03*
X450500Y-252500D02*
D03*
X483500Y-384500D02*
D03*
X488000Y-216250D02*
D03*
X507000D02*
D03*
Y-201250D02*
D03*
X488000D02*
D03*
X-85500Y-2020D02*
D03*
Y17980D02*
D03*
X-51800D02*
D03*
Y-2020D02*
D03*
Y-22020D02*
D03*
X-85500D02*
D03*
Y-42020D02*
D03*
X-51800D02*
D03*
Y-62020D02*
D03*
X-85500D02*
D03*
Y-82020D02*
D03*
X-51800D02*
D03*
Y-122020D02*
D03*
Y-102020D02*
D03*
X-85500D02*
D03*
Y-122020D02*
D03*
X684750Y403250D02*
D03*
X669750Y382596D02*
D03*
Y403250D02*
D03*
X684750Y361942D02*
D03*
X669750D02*
D03*
X669750Y341288D02*
D03*
X684750D02*
D03*
Y320634D02*
D03*
X669750D02*
D03*
Y299981D02*
D03*
X684750D02*
D03*
X684750Y279327D02*
D03*
X669750D02*
D03*
Y258673D02*
D03*
X684750D02*
D03*
X684750Y238019D02*
D03*
X669750D02*
D03*
Y217365D02*
D03*
X684750D02*
D03*
X684750Y196712D02*
D03*
X669750D02*
D03*
Y134750D02*
D03*
X684750D02*
D03*
Y382596D02*
D03*
D44*
X273750Y385000D02*
D03*
X259500Y388750D02*
D03*
X286750Y385000D02*
D03*
X259500Y398750D02*
D03*
X358000Y384750D02*
D03*
X348000Y407000D02*
D03*
X280250Y404000D02*
D03*
X358000Y407000D02*
D03*
X348000Y384750D02*
D03*
X273750Y325250D02*
D03*
X259500Y329000D02*
D03*
X286750Y325250D02*
D03*
X259500Y339000D02*
D03*
X358000Y325000D02*
D03*
X348000Y347250D02*
D03*
X280250Y344250D02*
D03*
X358000Y347250D02*
D03*
X348000Y325000D02*
D03*
X273750Y-9750D02*
D03*
X259500Y-6000D02*
D03*
X286750Y-9750D02*
D03*
X259500Y4000D02*
D03*
X358000Y-10000D02*
D03*
X348000Y12250D02*
D03*
X280250Y9250D02*
D03*
X358000Y12250D02*
D03*
X348000Y-10000D02*
D03*
X273750Y-354750D02*
D03*
X259500Y-351000D02*
D03*
X286750Y-354750D02*
D03*
X259500Y-341000D02*
D03*
X358000Y-355000D02*
D03*
X348000Y-332750D02*
D03*
X280250Y-335750D02*
D03*
X358000Y-332750D02*
D03*
X348000Y-355000D02*
D03*
X280250Y-395750D02*
D03*
X259500Y-401000D02*
D03*
Y-411000D02*
D03*
X273750Y-414750D02*
D03*
X286750D02*
D03*
X358000Y-415000D02*
D03*
X348000D02*
D03*
Y-392750D02*
D03*
X358000D02*
D03*
X633550Y340000D02*
D03*
Y330000D02*
D03*
Y320000D02*
D03*
Y310000D02*
D03*
Y300000D02*
D03*
Y290000D02*
D03*
Y280000D02*
D03*
Y270000D02*
D03*
Y260000D02*
D03*
Y250000D02*
D03*
X549750D02*
D03*
Y260000D02*
D03*
Y270000D02*
D03*
Y280000D02*
D03*
Y290000D02*
D03*
Y300000D02*
D03*
Y310000D02*
D03*
Y320000D02*
D03*
Y330000D02*
D03*
Y340000D02*
D03*
X633550Y205000D02*
D03*
Y195000D02*
D03*
Y185000D02*
D03*
Y175000D02*
D03*
Y165000D02*
D03*
Y155000D02*
D03*
Y145000D02*
D03*
Y135000D02*
D03*
Y125000D02*
D03*
Y115000D02*
D03*
X549750D02*
D03*
Y125000D02*
D03*
Y135000D02*
D03*
Y145000D02*
D03*
Y155000D02*
D03*
Y165000D02*
D03*
Y175000D02*
D03*
Y185000D02*
D03*
Y195000D02*
D03*
Y205000D02*
D03*
X633550Y-97300D02*
D03*
Y-107300D02*
D03*
Y-117300D02*
D03*
Y-127300D02*
D03*
Y-137300D02*
D03*
Y-147300D02*
D03*
Y-157300D02*
D03*
Y-167300D02*
D03*
Y-177300D02*
D03*
Y-187300D02*
D03*
X549750D02*
D03*
Y-177300D02*
D03*
Y-167300D02*
D03*
Y-157300D02*
D03*
Y-147300D02*
D03*
Y-137300D02*
D03*
Y-127300D02*
D03*
Y-117300D02*
D03*
Y-107300D02*
D03*
Y-97300D02*
D03*
Y-232300D02*
D03*
Y-242300D02*
D03*
Y-252300D02*
D03*
Y-262300D02*
D03*
Y-272300D02*
D03*
Y-282300D02*
D03*
Y-292300D02*
D03*
Y-302300D02*
D03*
Y-312300D02*
D03*
Y-322300D02*
D03*
X633550D02*
D03*
Y-312300D02*
D03*
Y-302300D02*
D03*
Y-292300D02*
D03*
Y-282300D02*
D03*
Y-272300D02*
D03*
Y-262300D02*
D03*
Y-252300D02*
D03*
Y-242300D02*
D03*
Y-232300D02*
D03*
X517750Y-178750D02*
D03*
Y-158750D02*
D03*
Y-139583D02*
D03*
Y-120417D02*
D03*
Y-101250D02*
D03*
X497750D02*
D03*
Y-120417D02*
D03*
Y-139583D02*
D03*
Y-158750D02*
D03*
Y-178750D02*
D03*
X478500Y-158750D02*
D03*
Y-139583D02*
D03*
Y-120417D02*
D03*
Y-101250D02*
D03*
X458500D02*
D03*
Y-120417D02*
D03*
Y-139583D02*
D03*
Y-158750D02*
D03*
X519750Y256750D02*
D03*
Y277500D02*
D03*
Y297167D02*
D03*
Y316833D02*
D03*
Y336500D02*
D03*
X499750D02*
D03*
Y316833D02*
D03*
Y297167D02*
D03*
Y277500D02*
D03*
Y256750D02*
D03*
X482500Y277500D02*
D03*
Y297167D02*
D03*
X482750Y319500D02*
D03*
X482500Y336500D02*
D03*
X462500D02*
D03*
Y316833D02*
D03*
Y297167D02*
D03*
Y277500D02*
D03*
D45*
X469450Y202450D02*
X488000Y221000D01*
X573250Y250000D02*
X584000Y260750D01*
X549750Y250000D02*
X573250D01*
X584000Y260750D02*
X601500D01*
X612250Y250000D01*
X486500Y185150D02*
X507000Y205650D01*
Y221000D01*
X549750Y175000D02*
Y185000D01*
Y165000D02*
Y175000D01*
Y155000D02*
Y165000D01*
X620050Y218500D02*
X633550Y205000D01*
X524500Y218500D02*
X620050D01*
X507000Y236000D02*
X524500Y218500D01*
X549750Y-262300D02*
Y-252300D01*
Y-272300D02*
Y-262300D01*
Y-282300D02*
Y-272300D01*
X507000Y-201250D02*
X567250D01*
X582500Y-216500D01*
X617750D01*
X633550Y-232300D01*
X612250Y250000D02*
X633550D01*
X549750Y270000D02*
X633550D01*
X549750Y280000D02*
X633550D01*
X604250Y351250D02*
X615750Y339750D01*
X625500Y330000D01*
X633550D01*
X549750D02*
X562750D01*
X584000Y351250D01*
X604250D01*
X549750Y320000D02*
X577500D01*
X587000Y310500D01*
X597250D01*
X606750Y320000D01*
X633550D01*
X549750Y300000D02*
X633550D01*
X549750Y290000D02*
X633550D01*
X482500Y336500D02*
X492000Y327000D01*
X482750Y319500D02*
X495000Y307250D01*
X482500Y297167D02*
X492417Y287250D01*
X482500Y277500D02*
X493000Y267000D01*
X519750Y256750D02*
X526500Y250000D01*
X549750D01*
X493000Y267000D02*
X522000D01*
X529000Y260000D01*
X549750D01*
X519750Y277500D02*
X526250D01*
X533750Y270000D01*
X549750D01*
X492417Y287250D02*
X529000D01*
X536250Y280000D01*
X549750D01*
X519750Y297167D02*
X532333D01*
X539500Y290000D01*
X549750D01*
X495000Y307250D02*
X535000D01*
X542250Y300000D01*
X549750D01*
X519750Y336500D02*
X539250D01*
X545750Y330000D01*
X549750D01*
X492000Y327000D02*
X537000D01*
X544000Y320000D01*
X549750D01*
X519750Y316833D02*
X535917D01*
X542750Y310000D01*
X549750D01*
X478500Y-101250D02*
X486250Y-109000D01*
X517750Y-101250D02*
X539750D01*
X545800Y-107300D01*
X549750D01*
X486250Y-109000D02*
X537000D01*
X545300Y-117300D01*
X549750D01*
X544050Y-127300D02*
X549750D01*
X537167Y-120417D02*
X544050Y-127300D01*
X517750Y-120417D02*
X537167D01*
X543550Y-137300D02*
X549750D01*
X534500Y-128250D02*
X543550Y-137300D01*
X486333Y-128250D02*
X534500D01*
X478500Y-120417D02*
X486333Y-128250D01*
X542800Y-147300D02*
X549750D01*
X535083Y-139583D02*
X542800Y-147300D01*
X517750Y-139583D02*
X535083D01*
X541550Y-157300D02*
X549750D01*
X531500Y-147250D02*
X541550Y-157300D01*
X486167Y-147250D02*
X531500D01*
X478500Y-139583D02*
X486167Y-147250D01*
X540800Y-167300D02*
X549750D01*
X532250Y-158750D02*
X540800Y-167300D01*
X517750Y-158750D02*
X532250D01*
X539800Y-177300D02*
X549750D01*
X528750Y-166250D02*
X539800Y-177300D01*
X486000Y-166250D02*
X528750D01*
X478500Y-158750D02*
X486000Y-166250D01*
X537300Y-187300D02*
X549750D01*
X528750Y-178750D02*
X537300Y-187300D01*
X517750Y-178750D02*
X528750D01*
X549750Y-167300D02*
X633550D01*
X549750Y-187300D02*
X567450D01*
X578750Y-176000D01*
X601000D01*
X612300Y-187300D01*
X633550D01*
X549750Y-157300D02*
X633550D01*
X549750Y-147300D02*
X633550D01*
X549750Y-137300D02*
X633550D01*
X549750Y-107300D02*
X563200D01*
X585250Y-85250D01*
X600250D01*
X622300Y-107300D01*
X633550D01*
X611200Y-117300D02*
X633550D01*
X600250Y-128250D02*
X611200Y-117300D01*
X583250Y-128250D02*
X600250D01*
X572300Y-117300D02*
X583250Y-128250D01*
X549750Y-117300D02*
X572300D01*
D47*
X437239Y-5500D02*
Y7114D01*
X392739Y-5489D02*
X422250D01*
Y7125D01*
X394375D02*
X422250D01*
X392250Y5000D02*
X394375Y7125D01*
X392250Y-5000D02*
Y5000D01*
X437000Y-411750D02*
Y-396750D01*
X540000Y-407750D02*
Y-392500D01*
X520000Y-404900D02*
X537150D01*
X508350D02*
X520000D01*
X492000Y-421250D02*
X508350Y-404900D01*
X458250Y-421250D02*
X492000D01*
X448750Y-411750D02*
X458250Y-421250D01*
X437000Y-411750D02*
X448750D01*
X520000Y-404900D02*
Y-384100D01*
X392750Y-409500D02*
X395000Y-411750D01*
X422000D01*
Y-396750D01*
X395500D02*
X422000D01*
X392250Y-400000D02*
X395500Y-396750D01*
X392250Y-410000D02*
Y-400000D01*
X435750Y387500D02*
X446500Y376750D01*
X519500Y358750D02*
Y399400D01*
X435750Y387500D02*
Y403250D01*
Y317250D02*
Y327750D01*
Y343250D01*
X420750Y387500D02*
X420750D01*
X394500D02*
X420750D01*
X392250Y389750D02*
X394500Y387500D01*
X392250Y389750D02*
Y399750D01*
X395750Y403250D01*
X420750D01*
Y387500D02*
Y403250D01*
X392250Y330000D02*
Y340000D01*
Y329500D02*
Y330000D01*
Y340000D02*
X395500Y343250D01*
X420750D01*
Y327750D02*
Y343250D01*
X394500Y327750D02*
X420750D01*
X392250Y330000D02*
X394500Y327750D01*
X422000Y-351750D02*
Y-336750D01*
X392250Y-350000D02*
Y-338500D01*
X394000Y-336750D01*
X422000D01*
X392250Y-350000D02*
X394000Y-351750D01*
X422000D01*
X488000Y-216250D02*
X507000D01*
D48*
X570000Y-56650D02*
D03*
Y56650D02*
D03*
D49*
X550750Y400500D02*
Y411750D01*
X435750Y297500D02*
Y317250D01*
X487000Y-272900D02*
Y-252100D01*
Y-286750D02*
Y-272900D01*
X437000Y-351750D02*
Y-336750D01*
X487000Y-286750D01*
Y-252100D02*
Y-217250D01*
D50*
X550750Y372250D02*
Y411750D01*
X536000Y357500D02*
X550750Y372250D01*
X465750Y357500D02*
X536000D01*
X446500Y376750D02*
X465750Y357500D01*
X435750Y235900D02*
X486500Y185150D01*
X435750Y235900D02*
Y297500D01*
X487150Y165000D02*
X549750D01*
X486500Y164350D02*
X487150Y165000D01*
X486500Y164350D02*
Y185150D01*
X490500Y-268500D02*
X534750D01*
X534500Y-268250D02*
X549750D01*
X534500D02*
X534750Y-268500D01*
D51*
X778300Y327250D02*
X792110Y313440D01*
X772500Y327250D02*
X778300D01*
X696500Y403250D02*
X772500Y327250D01*
X684750Y403250D02*
X696500D01*
X738861Y341288D02*
X766710Y313440D01*
X684750Y341288D02*
X738861D01*
X684750Y320634D02*
X704634Y300750D01*
X754000D02*
X766710Y288040D01*
X754100Y275250D02*
X766710Y262640D01*
X702500Y277750D02*
X705000Y275250D01*
X702500Y277750D02*
Y282231D01*
X684750Y299981D02*
X702500Y282231D01*
X684750Y258673D02*
X697327D01*
X706250Y249750D01*
X728420D02*
X741310Y262640D01*
X684750Y217365D02*
X698615D01*
X705750Y224500D01*
X753970D02*
X766710Y237240D01*
X684750Y134750D02*
X698500Y148500D01*
X779250D02*
X792110Y135640D01*
X657500Y391000D02*
X669750Y403250D01*
X657500Y369250D02*
Y391000D01*
X637250Y349000D02*
X657500Y369250D01*
X625000Y349000D02*
X637250D01*
X615750Y339750D02*
X625000Y349000D01*
X649500Y341692D02*
X669750Y361942D01*
X649500Y315750D02*
Y341692D01*
X643750Y310000D02*
X649500Y315750D01*
X633550Y310000D02*
X643750D01*
X639115Y290000D02*
X669750Y320634D01*
X633550Y290000D02*
X639115D01*
X633550Y280000D02*
X644750D01*
X664731Y299981D01*
X669750D01*
X660423Y270000D02*
X669750Y279327D01*
X633550Y270000D02*
X660423D01*
X633550Y260000D02*
X668423D01*
X669750Y258673D01*
X633550Y250000D02*
X648000D01*
X659981Y238019D01*
X669750D01*
D52*
X704634Y300750D02*
X754000D01*
X705000Y275250D02*
X754100D01*
X706250Y249750D02*
X728420D01*
X705750Y224500D02*
X753970D01*
X698500Y148500D02*
X779250D01*
D54*
X270000Y388750D02*
X273750Y385000D01*
X259500Y388750D02*
X270000D01*
X273000Y398750D02*
X286750Y385000D01*
X259500Y398750D02*
X273000D01*
X326000Y407000D02*
X348000D01*
X323250Y409750D02*
X326000Y407000D01*
X286000Y409750D02*
X323250D01*
X280250Y404000D02*
X286000Y409750D01*
X358000Y394750D02*
Y407000D01*
X348000Y384750D02*
X358000Y394750D01*
X270000Y329000D02*
X273750Y325250D01*
X259500Y329000D02*
X270000D01*
X273000Y339000D02*
X286750Y325250D01*
X259500Y339000D02*
X273000D01*
X326000Y347250D02*
X348000D01*
X323250Y350000D02*
X326000Y347250D01*
X286000Y350000D02*
X323250D01*
X280250Y344250D02*
X286000Y350000D01*
X358000Y335000D02*
Y347250D01*
X348000Y325000D02*
X358000Y335000D01*
X270000Y-6000D02*
X273750Y-9750D01*
X259500Y-6000D02*
X270000D01*
X273000Y4000D02*
X286750Y-9750D01*
X259500Y4000D02*
X273000D01*
X326000Y12250D02*
X348000D01*
X323250Y15000D02*
X326000Y12250D01*
X286000Y15000D02*
X323250D01*
X280250Y9250D02*
X286000Y15000D01*
X358000Y0D02*
Y12250D01*
X348000Y-10000D02*
X358000Y0D01*
X270000Y-351000D02*
X273750Y-354750D01*
X259500Y-351000D02*
X270000D01*
X273000Y-341000D02*
X286750Y-354750D01*
X259500Y-341000D02*
X273000D01*
X326000Y-332750D02*
X348000D01*
X323250Y-330000D02*
X326000Y-332750D01*
X286000Y-330000D02*
X323250D01*
X280250Y-335750D02*
X286000Y-330000D01*
X358000Y-345000D02*
Y-332750D01*
X348000Y-355000D02*
X358000Y-345000D01*
X259500Y-411000D02*
X270000D01*
X273750Y-414750D01*
X259500Y-401000D02*
X273000D01*
X286750Y-414750D01*
X280250Y-395750D02*
X286000Y-390000D01*
X323250D01*
X326000Y-392750D01*
X348000D01*
X358000Y-405000D02*
Y-392750D01*
X348000Y-415000D02*
X358000Y-405000D01*
M02*
