G04 Layer_Color=128*
%FSLAX44Y44*%
%MOMM*%
G71*
G01*
G75*
%ADD10R,1.4000X0.9500*%
%ADD11R,1.4000X1.0500*%
%ADD32R,1.6500X2.4000*%
G04:AMPARAMS|DCode=33|XSize=0.3mm|YSize=0.8mm|CornerRadius=0.075mm|HoleSize=0mm|Usage=FLASHONLY|Rotation=270.000|XOffset=0mm|YOffset=0mm|HoleType=Round|Shape=RoundedRectangle|*
%AMROUNDEDRECTD33*
21,1,0.3000,0.6500,0,0,270.0*
21,1,0.1500,0.8000,0,0,270.0*
1,1,0.1500,-0.3250,-0.0750*
1,1,0.1500,-0.3250,0.0750*
1,1,0.1500,0.3250,0.0750*
1,1,0.1500,0.3250,-0.0750*
%
%ADD33ROUNDEDRECTD33*%
%ADD39R,0.9000X0.8000*%
%ADD40R,0.6000X0.8000*%
%ADD41R,0.6500X1.1000*%
%ADD42R,0.6000X0.6000*%
%ADD43R,0.6000X0.6000*%
%ADD45R,1.3000X1.0000*%
%ADD46R,0.8000X0.9000*%
%ADD47R,1.7000X1.1000*%
%ADD48R,1.1000X1.7000*%
%ADD49R,1.1000X2.0000*%
%ADD50R,0.8000X0.8000*%
%ADD89R,0.5000X0.6000*%
%ADD90R,0.7000X0.8000*%
%ADD91R,1.8000X1.0000*%
%ADD92R,1.8000X1.2500*%
%ADD93R,0.6000X0.5000*%
%ADD94R,0.6000X1.2000*%
%ADD95R,0.6000X1.1000*%
%ADD96R,1.0500X0.6000*%
%ADD97R,0.5500X0.8000*%
%ADD98R,1.1000X1.6000*%
%ADD99R,0.5000X0.4000*%
%ADD100R,0.6300X0.8300*%
%ADD101R,0.8500X0.3500*%
G04:AMPARAMS|DCode=103|XSize=0.39mm|YSize=0.15mm|CornerRadius=0.0375mm|HoleSize=0mm|Usage=FLASHONLY|Rotation=180.000|XOffset=0mm|YOffset=0mm|HoleType=Round|Shape=RoundedRectangle|*
%AMROUNDEDRECTD103*
21,1,0.3900,0.0750,0,0,180.0*
21,1,0.3150,0.1500,0,0,180.0*
1,1,0.0750,-0.1575,0.0375*
1,1,0.0750,0.1575,0.0375*
1,1,0.0750,0.1575,-0.0375*
1,1,0.0750,-0.1575,-0.0375*
%
%ADD103ROUNDEDRECTD103*%
%ADD104R,0.7000X0.9000*%
%ADD105R,1.2000X2.1500*%
G04:AMPARAMS|DCode=106|XSize=0.35mm|YSize=0.8mm|CornerRadius=0.0875mm|HoleSize=0mm|Usage=FLASHONLY|Rotation=90.000|XOffset=0mm|YOffset=0mm|HoleType=Round|Shape=RoundedRectangle|*
%AMROUNDEDRECTD106*
21,1,0.3500,0.6250,0,0,90.0*
21,1,0.1750,0.8000,0,0,90.0*
1,1,0.1750,0.3125,0.0875*
1,1,0.1750,0.3125,-0.0875*
1,1,0.1750,-0.3125,-0.0875*
1,1,0.1750,-0.3125,0.0875*
%
%ADD106ROUNDEDRECTD106*%
%ADD107R,1.7500X1.4500*%
G04:AMPARAMS|DCode=108|XSize=0.25mm|YSize=0.8mm|CornerRadius=0.0625mm|HoleSize=0mm|Usage=FLASHONLY|Rotation=270.000|XOffset=0mm|YOffset=0mm|HoleType=Round|Shape=RoundedRectangle|*
%AMROUNDEDRECTD108*
21,1,0.2500,0.6750,0,0,270.0*
21,1,0.1250,0.8000,0,0,270.0*
1,1,0.1250,-0.3375,-0.0625*
1,1,0.1250,-0.3375,0.0625*
1,1,0.1250,0.3375,0.0625*
1,1,0.1250,0.3375,-0.0625*
%
%ADD108ROUNDEDRECTD108*%
%ADD109R,1.1000X1.0000*%
%ADD110R,1.0000X1.3000*%
G04:AMPARAMS|DCode=111|XSize=0.41mm|YSize=1.1mm|CornerRadius=0.1025mm|HoleSize=0mm|Usage=FLASHONLY|Rotation=90.000|XOffset=0mm|YOffset=0mm|HoleType=Round|Shape=RoundedRectangle|*
%AMROUNDEDRECTD111*
21,1,0.4100,0.8950,0,0,90.0*
21,1,0.2050,1.1000,0,0,90.0*
1,1,0.2050,0.4475,0.1025*
1,1,0.2050,0.4475,-0.1025*
1,1,0.2050,-0.4475,-0.1025*
1,1,0.2050,-0.4475,0.1025*
%
%ADD111ROUNDEDRECTD111*%
%ADD112R,0.8000X0.6000*%
%ADD113R,1.0500X1.4000*%
%ADD114R,0.8000X0.7000*%
%ADD115R,0.3500X0.8500*%
D10*
X522500Y44250D02*
D03*
Y25750D02*
D03*
X460000Y44250D02*
D03*
Y25750D02*
D03*
X460000Y355750D02*
D03*
Y374250D02*
D03*
X522500Y355750D02*
D03*
Y374250D02*
D03*
D11*
X440000Y355500D02*
D03*
Y374500D02*
D03*
X482500Y285500D02*
D03*
Y304500D02*
D03*
X543000Y355500D02*
D03*
Y374500D02*
D03*
X544000Y44500D02*
D03*
Y25500D02*
D03*
X440000Y44500D02*
D03*
Y25500D02*
D03*
X482500Y104500D02*
D03*
Y85500D02*
D03*
D32*
X107000Y33000D02*
D03*
D33*
X92000Y25500D02*
D03*
Y30500D02*
D03*
Y35500D02*
D03*
Y40500D02*
D03*
X122000D02*
D03*
Y35500D02*
D03*
Y30500D02*
D03*
Y25500D02*
D03*
D39*
X530000Y227250D02*
D03*
Y247500D02*
D03*
X530000Y172750D02*
D03*
Y152500D02*
D03*
X462500Y177500D02*
D03*
Y162500D02*
D03*
X462500Y247500D02*
D03*
Y232500D02*
D03*
X462500Y107500D02*
D03*
Y92500D02*
D03*
X174000Y209000D02*
D03*
Y195000D02*
D03*
X462500Y317500D02*
D03*
Y302500D02*
D03*
D40*
X477500Y243500D02*
D03*
Y231500D02*
D03*
X477500Y146500D02*
D03*
Y158500D02*
D03*
X244000Y247000D02*
D03*
Y259000D02*
D03*
Y120000D02*
D03*
Y132000D02*
D03*
X196500Y275500D02*
D03*
Y287500D02*
D03*
X196500Y148000D02*
D03*
Y160000D02*
D03*
X258000Y247000D02*
D03*
Y259000D02*
D03*
X272000Y120000D02*
D03*
Y132000D02*
D03*
X246500Y356500D02*
D03*
Y368500D02*
D03*
Y66500D02*
D03*
Y78500D02*
D03*
X244000Y328000D02*
D03*
Y340000D02*
D03*
Y38000D02*
D03*
Y50000D02*
D03*
X196500Y356500D02*
D03*
Y368500D02*
D03*
Y66500D02*
D03*
Y78500D02*
D03*
X272000Y328000D02*
D03*
Y340000D02*
D03*
Y38000D02*
D03*
Y50000D02*
D03*
X155000Y329000D02*
D03*
Y341000D02*
D03*
Y39000D02*
D03*
Y51000D02*
D03*
D41*
X419500Y288000D02*
D03*
X410000D02*
D03*
X400500D02*
D03*
Y312000D02*
D03*
X419500D02*
D03*
X419500Y78000D02*
D03*
X410000D02*
D03*
X400500D02*
D03*
Y102000D02*
D03*
X419500D02*
D03*
X419500Y218000D02*
D03*
X410000D02*
D03*
X400500D02*
D03*
Y242000D02*
D03*
X419500D02*
D03*
X419500Y148000D02*
D03*
X410000D02*
D03*
X400500D02*
D03*
Y172000D02*
D03*
X419500D02*
D03*
D42*
X455000Y330000D02*
D03*
X445000D02*
D03*
X445000Y190000D02*
D03*
X455000D02*
D03*
X61000Y340000D02*
D03*
X71000D02*
D03*
X92000Y340000D02*
D03*
X82000D02*
D03*
X134000Y33000D02*
D03*
X144000D02*
D03*
X80000Y33000D02*
D03*
X70000D02*
D03*
X86000Y209000D02*
D03*
X96000D02*
D03*
X106000Y209000D02*
D03*
X116000D02*
D03*
X76000Y209000D02*
D03*
X66000D02*
D03*
X445000Y120000D02*
D03*
X455000D02*
D03*
X455000Y260000D02*
D03*
X445000D02*
D03*
X96000Y57000D02*
D03*
X106000D02*
D03*
X80000Y44000D02*
D03*
X70000D02*
D03*
X144000Y44000D02*
D03*
X134000D02*
D03*
X56000Y209000D02*
D03*
X46000D02*
D03*
X565000Y139000D02*
D03*
X555000D02*
D03*
X565000Y260000D02*
D03*
X555000D02*
D03*
X620000Y153000D02*
D03*
X630000D02*
D03*
X620000Y246500D02*
D03*
X630000D02*
D03*
D43*
X558850Y112500D02*
D03*
Y122500D02*
D03*
X609000Y289000D02*
D03*
Y299000D02*
D03*
X609000Y102000D02*
D03*
Y112000D02*
D03*
X367500Y195000D02*
D03*
Y205000D02*
D03*
X435000Y175000D02*
D03*
Y165000D02*
D03*
X462500Y287500D02*
D03*
Y277500D02*
D03*
X462500Y137500D02*
D03*
Y147500D02*
D03*
X462500Y217500D02*
D03*
Y207500D02*
D03*
X462500Y67500D02*
D03*
Y77500D02*
D03*
X161000Y208000D02*
D03*
Y218000D02*
D03*
X161000Y197000D02*
D03*
Y187000D02*
D03*
X213000Y218000D02*
D03*
Y208000D02*
D03*
X246000Y185000D02*
D03*
Y195000D02*
D03*
X268000Y208000D02*
D03*
Y218000D02*
D03*
X235000Y195000D02*
D03*
Y185000D02*
D03*
X224000Y218000D02*
D03*
Y208000D02*
D03*
X290000Y195000D02*
D03*
Y185000D02*
D03*
X257000Y195000D02*
D03*
Y185000D02*
D03*
X279000Y218000D02*
D03*
Y208000D02*
D03*
X191000Y185000D02*
D03*
Y195000D02*
D03*
X202000Y195000D02*
D03*
Y185000D02*
D03*
X103000Y369000D02*
D03*
Y379000D02*
D03*
X114000Y369000D02*
D03*
Y379000D02*
D03*
X103000Y348000D02*
D03*
Y358000D02*
D03*
X114000D02*
D03*
Y348000D02*
D03*
X18000Y78000D02*
D03*
Y68000D02*
D03*
X29000Y78000D02*
D03*
Y68000D02*
D03*
X73000Y78000D02*
D03*
Y68000D02*
D03*
X40000D02*
D03*
Y78000D02*
D03*
X84000D02*
D03*
Y68000D02*
D03*
X435000Y315000D02*
D03*
Y305000D02*
D03*
X559000Y284000D02*
D03*
Y274000D02*
D03*
X141000Y241000D02*
D03*
Y231000D02*
D03*
X141000Y252000D02*
D03*
Y262000D02*
D03*
X123000Y297000D02*
D03*
Y287000D02*
D03*
X122500Y155250D02*
D03*
Y165250D02*
D03*
X450000Y287500D02*
D03*
Y277500D02*
D03*
X450000Y137500D02*
D03*
Y147500D02*
D03*
X450000Y217500D02*
D03*
Y207500D02*
D03*
X450000Y67500D02*
D03*
Y77500D02*
D03*
X435000Y245000D02*
D03*
Y235000D02*
D03*
X435000Y95000D02*
D03*
Y105000D02*
D03*
X150000Y187000D02*
D03*
Y197000D02*
D03*
X213000Y195000D02*
D03*
Y185000D02*
D03*
X246000Y208000D02*
D03*
Y218000D02*
D03*
X268000Y185000D02*
D03*
Y195000D02*
D03*
X235000Y218000D02*
D03*
Y208000D02*
D03*
X202000Y218000D02*
D03*
Y208000D02*
D03*
X224000Y195000D02*
D03*
Y185000D02*
D03*
X290000Y218000D02*
D03*
Y208000D02*
D03*
X257000Y218000D02*
D03*
Y208000D02*
D03*
X279000Y195000D02*
D03*
Y185000D02*
D03*
X191000Y218000D02*
D03*
Y208000D02*
D03*
X125000Y358000D02*
D03*
Y348000D02*
D03*
X125000Y369000D02*
D03*
Y379000D02*
D03*
X136000Y379000D02*
D03*
Y369000D02*
D03*
X136000Y358000D02*
D03*
Y348000D02*
D03*
X62000Y68000D02*
D03*
Y78000D02*
D03*
X106000Y68000D02*
D03*
Y78000D02*
D03*
X51000Y68000D02*
D03*
Y78000D02*
D03*
X95000Y68000D02*
D03*
Y78000D02*
D03*
D45*
X305500Y190000D02*
D03*
Y210000D02*
D03*
D46*
X399750Y370000D02*
D03*
X420000D02*
D03*
X264500Y151000D02*
D03*
X249500D02*
D03*
X19500Y209000D02*
D03*
X34500D02*
D03*
X399750Y37500D02*
D03*
X420000D02*
D03*
D47*
X625000Y259000D02*
D03*
Y286000D02*
D03*
X625000Y165500D02*
D03*
Y192500D02*
D03*
X625000Y300500D02*
D03*
Y327500D02*
D03*
X132500Y186500D02*
D03*
Y213500D02*
D03*
X625000Y140500D02*
D03*
Y113500D02*
D03*
X625000Y234000D02*
D03*
Y207000D02*
D03*
X625000Y99000D02*
D03*
Y72000D02*
D03*
X134000Y133500D02*
D03*
Y106500D02*
D03*
D48*
X573500Y214000D02*
D03*
X546500D02*
D03*
X579000Y132500D02*
D03*
X606000D02*
D03*
X579000Y270000D02*
D03*
X606000D02*
D03*
X573500Y185000D02*
D03*
X546500D02*
D03*
D49*
X126000Y247500D02*
D03*
X126000Y317500D02*
D03*
D50*
X125750Y229250D02*
D03*
X126250Y335750D02*
D03*
D89*
X358000Y237500D02*
D03*
X363000Y224500D02*
D03*
X353000D02*
D03*
X357500Y116000D02*
D03*
X362500Y103000D02*
D03*
X352500D02*
D03*
X358000Y262500D02*
D03*
X363000Y249500D02*
D03*
X353000D02*
D03*
X357500Y142000D02*
D03*
X362500Y129000D02*
D03*
X352500D02*
D03*
X358000Y321500D02*
D03*
X363000Y308500D02*
D03*
X353000D02*
D03*
X358000Y32500D02*
D03*
X363000Y19500D02*
D03*
X353000D02*
D03*
X358000Y346500D02*
D03*
X363000Y333500D02*
D03*
X353000D02*
D03*
X358000Y57500D02*
D03*
X363000Y44500D02*
D03*
X353000D02*
D03*
X555000Y77500D02*
D03*
Y87500D02*
D03*
X380000Y224500D02*
D03*
X375000Y237500D02*
D03*
X385000D02*
D03*
X380500Y103000D02*
D03*
X375500Y116000D02*
D03*
X385500D02*
D03*
X380000Y308500D02*
D03*
X375000Y321500D02*
D03*
X385000D02*
D03*
X380000Y19500D02*
D03*
X375000Y32500D02*
D03*
X385000D02*
D03*
X555000Y322500D02*
D03*
Y312500D02*
D03*
X542500Y126500D02*
D03*
X547500Y113500D02*
D03*
X537500D02*
D03*
X542500Y273500D02*
D03*
X537500Y286500D02*
D03*
X547500D02*
D03*
X520000Y126500D02*
D03*
X525000Y113500D02*
D03*
X515000D02*
D03*
X520000Y273500D02*
D03*
X515000Y286500D02*
D03*
X525000D02*
D03*
D90*
X502500Y91000D02*
D03*
Y79000D02*
D03*
X502500Y346000D02*
D03*
Y334000D02*
D03*
X502500Y118500D02*
D03*
Y106500D02*
D03*
X477500Y216000D02*
D03*
Y204000D02*
D03*
X604000Y220000D02*
D03*
Y208000D02*
D03*
X565000Y166000D02*
D03*
Y154000D02*
D03*
X272000Y259000D02*
D03*
Y247000D02*
D03*
X258000Y132000D02*
D03*
Y120000D02*
D03*
X168000Y260000D02*
D03*
Y248000D02*
D03*
Y132500D02*
D03*
Y120500D02*
D03*
X181000Y260000D02*
D03*
Y248000D02*
D03*
Y132500D02*
D03*
Y120500D02*
D03*
X326000Y295000D02*
D03*
Y283000D02*
D03*
Y167500D02*
D03*
Y155500D02*
D03*
X258000Y340000D02*
D03*
Y328000D02*
D03*
Y50000D02*
D03*
Y38000D02*
D03*
X168000Y341000D02*
D03*
Y329000D02*
D03*
Y51000D02*
D03*
Y39000D02*
D03*
X181000Y341000D02*
D03*
Y329000D02*
D03*
Y51000D02*
D03*
Y39000D02*
D03*
X326000Y376000D02*
D03*
Y364000D02*
D03*
Y86000D02*
D03*
Y74000D02*
D03*
X437500Y276500D02*
D03*
Y288500D02*
D03*
X437500Y136500D02*
D03*
Y148500D02*
D03*
X447500Y164000D02*
D03*
Y176000D02*
D03*
X437500Y206500D02*
D03*
Y218500D02*
D03*
Y66500D02*
D03*
Y78500D02*
D03*
X447500Y234000D02*
D03*
Y246000D02*
D03*
Y94000D02*
D03*
Y106000D02*
D03*
X502500Y306500D02*
D03*
Y318500D02*
D03*
X502500Y51500D02*
D03*
Y63500D02*
D03*
X502500Y279000D02*
D03*
Y291000D02*
D03*
X477500Y174000D02*
D03*
Y186000D02*
D03*
X604000Y179000D02*
D03*
Y191000D02*
D03*
X565000Y233000D02*
D03*
Y245000D02*
D03*
X589000Y208000D02*
D03*
Y220000D02*
D03*
X589000Y179000D02*
D03*
Y191000D02*
D03*
X194000Y248000D02*
D03*
Y260000D02*
D03*
Y120500D02*
D03*
Y132500D02*
D03*
Y329000D02*
D03*
Y341000D02*
D03*
Y39000D02*
D03*
Y51000D02*
D03*
X447500Y304000D02*
D03*
Y316000D02*
D03*
D91*
X482450Y45000D02*
D03*
X482550Y25000D02*
D03*
X482550Y355000D02*
D03*
X482450Y375000D02*
D03*
D92*
X380000Y134500D02*
D03*
Y167500D02*
D03*
Y340500D02*
D03*
Y373500D02*
D03*
Y50500D02*
D03*
Y83500D02*
D03*
Y260000D02*
D03*
Y293000D02*
D03*
D93*
X489000Y325000D02*
D03*
X476000Y320000D02*
D03*
Y330000D02*
D03*
X543000Y230000D02*
D03*
X553000D02*
D03*
X543000Y151000D02*
D03*
X553000D02*
D03*
X543000Y248000D02*
D03*
X553000D02*
D03*
X543000Y160000D02*
D03*
X553000D02*
D03*
X543000Y239000D02*
D03*
X553000D02*
D03*
X553000Y169000D02*
D03*
X543000D02*
D03*
X476000Y65000D02*
D03*
X489000Y70000D02*
D03*
Y60000D02*
D03*
D94*
X530000Y336500D02*
D03*
X520500Y318500D02*
D03*
X539500D02*
D03*
X530000Y63500D02*
D03*
X539500Y81500D02*
D03*
X520500D02*
D03*
D95*
X229500Y233500D02*
D03*
X220000D02*
D03*
X210500D02*
D03*
Y258500D02*
D03*
X220000D02*
D03*
X229500D02*
D03*
Y24500D02*
D03*
X220000D02*
D03*
X210500D02*
D03*
Y49500D02*
D03*
X220000D02*
D03*
X229500D02*
D03*
Y314500D02*
D03*
X220000D02*
D03*
X210500D02*
D03*
Y339500D02*
D03*
X220000D02*
D03*
X229500D02*
D03*
Y106000D02*
D03*
X220000D02*
D03*
X210500D02*
D03*
Y131000D02*
D03*
X220000D02*
D03*
X229500D02*
D03*
D96*
X351000Y210000D02*
D03*
Y200500D02*
D03*
Y191000D02*
D03*
X324000D02*
D03*
Y200500D02*
D03*
Y210000D02*
D03*
D97*
X351000Y275000D02*
D03*
X341500Y295000D02*
D03*
X360500D02*
D03*
X351000Y70000D02*
D03*
X341500Y90000D02*
D03*
X360500D02*
D03*
X351000Y359000D02*
D03*
X341500Y379000D02*
D03*
X360500D02*
D03*
X350000Y155500D02*
D03*
X340500Y175500D02*
D03*
X359500D02*
D03*
D98*
X485000Y262500D02*
D03*
Y127500D02*
D03*
D99*
X490500Y262500D02*
D03*
X474500Y269000D02*
D03*
Y256000D02*
D03*
X490500Y127500D02*
D03*
X474500Y134000D02*
D03*
Y121000D02*
D03*
D100*
X581150Y335000D02*
D03*
X558850D02*
D03*
X581150Y65000D02*
D03*
X558850D02*
D03*
D101*
X491500Y228500D02*
D03*
Y235000D02*
D03*
Y241500D02*
D03*
X513500D02*
D03*
Y235000D02*
D03*
Y228500D02*
D03*
X210500Y288000D02*
D03*
Y275000D02*
D03*
X232500D02*
D03*
Y281500D02*
D03*
Y288000D02*
D03*
X311000Y37500D02*
D03*
Y50500D02*
D03*
X289000D02*
D03*
Y44000D02*
D03*
Y37500D02*
D03*
X311000Y327500D02*
D03*
Y340500D02*
D03*
X289000D02*
D03*
Y334000D02*
D03*
Y327500D02*
D03*
X210500Y79000D02*
D03*
Y66000D02*
D03*
X232500D02*
D03*
Y72500D02*
D03*
Y79000D02*
D03*
X210500Y369000D02*
D03*
Y356000D02*
D03*
X232500D02*
D03*
Y362500D02*
D03*
Y369000D02*
D03*
X282500Y79000D02*
D03*
Y72500D02*
D03*
Y66000D02*
D03*
X260500D02*
D03*
Y72500D02*
D03*
Y79000D02*
D03*
X282500Y369000D02*
D03*
Y362500D02*
D03*
Y356000D02*
D03*
X260500D02*
D03*
Y362500D02*
D03*
Y369000D02*
D03*
X311000Y119000D02*
D03*
Y132000D02*
D03*
X289000D02*
D03*
Y125500D02*
D03*
Y119000D02*
D03*
X311000Y246500D02*
D03*
Y259500D02*
D03*
X289000D02*
D03*
Y253000D02*
D03*
Y246500D02*
D03*
X210500Y160500D02*
D03*
Y147500D02*
D03*
X232500D02*
D03*
Y154000D02*
D03*
Y160500D02*
D03*
X491500Y158500D02*
D03*
Y165000D02*
D03*
Y171500D02*
D03*
X513500D02*
D03*
Y165000D02*
D03*
Y158500D02*
D03*
D103*
X502500Y365000D02*
D03*
Y360000D02*
D03*
Y370000D02*
D03*
X502500Y32500D02*
D03*
Y37500D02*
D03*
Y27500D02*
D03*
D104*
X264500Y166000D02*
D03*
X249500D02*
D03*
D105*
X169000Y366000D02*
D03*
Y76000D02*
D03*
D106*
X154000Y375750D02*
D03*
Y369250D02*
D03*
Y362750D02*
D03*
Y356250D02*
D03*
X184000D02*
D03*
Y362750D02*
D03*
Y369250D02*
D03*
Y375750D02*
D03*
X154000Y85750D02*
D03*
Y79250D02*
D03*
Y72750D02*
D03*
Y66250D02*
D03*
X184000D02*
D03*
Y72750D02*
D03*
Y79250D02*
D03*
Y85750D02*
D03*
D107*
X593000Y245000D02*
D03*
X584000Y107000D02*
D03*
Y294000D02*
D03*
X592500Y157500D02*
D03*
D108*
X608000Y238250D02*
D03*
Y242750D02*
D03*
Y247250D02*
D03*
Y251750D02*
D03*
X578000D02*
D03*
Y247250D02*
D03*
Y242750D02*
D03*
Y238250D02*
D03*
X599000Y100250D02*
D03*
Y104750D02*
D03*
Y109250D02*
D03*
Y113750D02*
D03*
X569000D02*
D03*
Y109250D02*
D03*
Y104750D02*
D03*
Y100250D02*
D03*
X599000Y287250D02*
D03*
Y291750D02*
D03*
Y296250D02*
D03*
Y300750D02*
D03*
X569000D02*
D03*
Y296250D02*
D03*
Y291750D02*
D03*
Y287250D02*
D03*
X607500Y150750D02*
D03*
Y155250D02*
D03*
Y159750D02*
D03*
Y164250D02*
D03*
X577500D02*
D03*
Y159750D02*
D03*
Y155250D02*
D03*
Y150750D02*
D03*
D109*
X414000Y330000D02*
D03*
X431000D02*
D03*
X414000Y190000D02*
D03*
X431000D02*
D03*
X414000Y260000D02*
D03*
X431000D02*
D03*
X414000Y120000D02*
D03*
X431000D02*
D03*
D110*
X139000Y59000D02*
D03*
X119000D02*
D03*
D111*
X137000Y150250D02*
D03*
Y156750D02*
D03*
Y163250D02*
D03*
Y169750D02*
D03*
X181000Y150250D02*
D03*
Y156750D02*
D03*
Y163250D02*
D03*
Y169750D02*
D03*
X181000Y296750D02*
D03*
Y290250D02*
D03*
Y283750D02*
D03*
Y277250D02*
D03*
X137000Y296750D02*
D03*
Y290250D02*
D03*
Y283750D02*
D03*
Y277250D02*
D03*
D112*
X193000Y23000D02*
D03*
X181000D02*
D03*
X193000Y313000D02*
D03*
X181000D02*
D03*
X245000Y23000D02*
D03*
X257000D02*
D03*
X245000Y313000D02*
D03*
X257000D02*
D03*
X193000Y104500D02*
D03*
X181000D02*
D03*
X193000Y232000D02*
D03*
X181000D02*
D03*
X245000Y104500D02*
D03*
X257000D02*
D03*
X245000Y232000D02*
D03*
X257000D02*
D03*
X299000Y23000D02*
D03*
X311000D02*
D03*
X299000Y313000D02*
D03*
X311000D02*
D03*
X299000Y23000D02*
D03*
X311000D02*
D03*
X299000Y232000D02*
D03*
X311000D02*
D03*
X493000Y188000D02*
D03*
X505000D02*
D03*
X493000Y212500D02*
D03*
X505000D02*
D03*
D113*
X400500Y57500D02*
D03*
X419500D02*
D03*
X400500Y350000D02*
D03*
X419500D02*
D03*
D114*
X326000Y22500D02*
D03*
X338000D02*
D03*
X326000Y312500D02*
D03*
X338000D02*
D03*
X155000Y23000D02*
D03*
X167000D02*
D03*
X155000Y313000D02*
D03*
X167000D02*
D03*
X272000Y23000D02*
D03*
X284000D02*
D03*
X272000Y313000D02*
D03*
X284000D02*
D03*
X326500Y107500D02*
D03*
X338500D02*
D03*
X326000Y231500D02*
D03*
X338000D02*
D03*
X155000Y104500D02*
D03*
X167000D02*
D03*
X155000Y232000D02*
D03*
X167000D02*
D03*
X272000Y104500D02*
D03*
X284000D02*
D03*
X272000Y232000D02*
D03*
X284000D02*
D03*
X493000Y200000D02*
D03*
X505000D02*
D03*
X532000Y200000D02*
D03*
X520000D02*
D03*
X528500Y100000D02*
D03*
X516500D02*
D03*
X541500Y300000D02*
D03*
X553500D02*
D03*
X541500Y100000D02*
D03*
X553500D02*
D03*
X528500Y300000D02*
D03*
X516500D02*
D03*
X532000Y188000D02*
D03*
X520000D02*
D03*
X532000Y212500D02*
D03*
X520000D02*
D03*
X530000Y139500D02*
D03*
X542000D02*
D03*
X530000Y260000D02*
D03*
X542000D02*
D03*
X516000Y139500D02*
D03*
X504000D02*
D03*
X516000Y260000D02*
D03*
X504000D02*
D03*
X338000Y52500D02*
D03*
X326000D02*
D03*
X338000Y342500D02*
D03*
X326000D02*
D03*
Y37500D02*
D03*
X338000D02*
D03*
X326000Y327500D02*
D03*
X338000D02*
D03*
X338500Y137500D02*
D03*
X326500D02*
D03*
X338000Y261500D02*
D03*
X326000D02*
D03*
X326500Y122500D02*
D03*
X338500D02*
D03*
X326000Y246500D02*
D03*
X338000D02*
D03*
D115*
X298500Y65000D02*
D03*
X311500D02*
D03*
Y87000D02*
D03*
X305000D02*
D03*
X298500D02*
D03*
Y355000D02*
D03*
X311500D02*
D03*
Y377000D02*
D03*
X305000D02*
D03*
X298500D02*
D03*
Y146500D02*
D03*
X311500D02*
D03*
Y168500D02*
D03*
X305000D02*
D03*
X298500D02*
D03*
Y274000D02*
D03*
X311500D02*
D03*
Y296000D02*
D03*
X305000D02*
D03*
X298500D02*
D03*
M02*
