G04 Layer_Physical_Order=12*
G04 Layer_Color=16711680*
%FSLAX44Y44*%
%MOMM*%
G71*
G01*
G75*
%ADD10R,1.4000X0.9500*%
%ADD11R,1.4000X1.0500*%
%ADD32R,1.6500X2.4000*%
G04:AMPARAMS|DCode=33|XSize=0.3mm|YSize=0.8mm|CornerRadius=0.075mm|HoleSize=0mm|Usage=FLASHONLY|Rotation=270.000|XOffset=0mm|YOffset=0mm|HoleType=Round|Shape=RoundedRectangle|*
%AMROUNDEDRECTD33*
21,1,0.3000,0.6500,0,0,270.0*
21,1,0.1500,0.8000,0,0,270.0*
1,1,0.1500,-0.3250,-0.0750*
1,1,0.1500,-0.3250,0.0750*
1,1,0.1500,0.3250,0.0750*
1,1,0.1500,0.3250,-0.0750*
%
%ADD33ROUNDEDRECTD33*%
%ADD39R,0.9000X0.8000*%
%ADD40R,0.6000X0.8000*%
%ADD41R,0.6500X1.1000*%
%ADD42R,0.6000X0.6000*%
%ADD43R,0.6000X0.6000*%
%ADD45R,1.3000X1.0000*%
%ADD46R,0.8000X0.9000*%
%ADD47R,1.7000X1.1000*%
%ADD48R,1.1000X1.7000*%
%ADD49R,1.1000X2.0000*%
%ADD50R,0.8000X0.8000*%
%ADD51C,0.2000*%
%ADD52C,0.3000*%
%ADD53C,0.4000*%
%ADD58R,1.1250X33.7300*%
%ADD61C,1.1900*%
%ADD62C,1.5000*%
%ADD63C,3.0000*%
%ADD64C,6.0000*%
%ADD65C,0.4000*%
%ADD66C,0.3000*%
%ADD67C,0.3500*%
%ADD68C,0.8000*%
%ADD69R,6.9750X4.2000*%
%ADD70R,1.2750X0.8500*%
%ADD71R,0.8500X1.2750*%
%ADD72R,0.8500X1.2750*%
%ADD73R,1.6750X5.5751*%
%ADD74R,1.6750X3.9000*%
%ADD75R,4.2000X6.9750*%
%ADD76R,6.9000X4.2000*%
%ADD77R,58.8500X1.3500*%
%ADD78R,58.8500X1.3500*%
%ADD79R,1.5750X33.7300*%
%ADD80R,0.8500X1.2750*%
%ADD81C,0.5000*%
%ADD82C,0.6000*%
%ADD89R,0.5000X0.6000*%
%ADD90R,0.7000X0.8000*%
%ADD91R,1.8000X1.0000*%
%ADD92R,1.8000X1.2500*%
%ADD93R,0.6000X0.5000*%
%ADD94R,0.6000X1.2000*%
%ADD95R,0.6000X1.1000*%
%ADD96R,1.0500X0.6000*%
%ADD97R,0.5500X0.8000*%
%ADD98R,1.1000X1.6000*%
%ADD99R,0.5000X0.4000*%
%ADD100R,0.6300X0.8300*%
%ADD101R,0.8500X0.3500*%
%ADD102R,3.5500X0.6100*%
G04:AMPARAMS|DCode=103|XSize=0.39mm|YSize=0.15mm|CornerRadius=0.0375mm|HoleSize=0mm|Usage=FLASHONLY|Rotation=180.000|XOffset=0mm|YOffset=0mm|HoleType=Round|Shape=RoundedRectangle|*
%AMROUNDEDRECTD103*
21,1,0.3900,0.0750,0,0,180.0*
21,1,0.3150,0.1500,0,0,180.0*
1,1,0.0750,-0.1575,0.0375*
1,1,0.0750,0.1575,0.0375*
1,1,0.0750,0.1575,-0.0375*
1,1,0.0750,-0.1575,-0.0375*
%
%ADD103ROUNDEDRECTD103*%
%ADD104R,0.7000X0.9000*%
%ADD105R,1.2000X2.1500*%
G04:AMPARAMS|DCode=106|XSize=0.35mm|YSize=0.8mm|CornerRadius=0.0875mm|HoleSize=0mm|Usage=FLASHONLY|Rotation=90.000|XOffset=0mm|YOffset=0mm|HoleType=Round|Shape=RoundedRectangle|*
%AMROUNDEDRECTD106*
21,1,0.3500,0.6250,0,0,90.0*
21,1,0.1750,0.8000,0,0,90.0*
1,1,0.1750,0.3125,0.0875*
1,1,0.1750,0.3125,-0.0875*
1,1,0.1750,-0.3125,-0.0875*
1,1,0.1750,-0.3125,0.0875*
%
%ADD106ROUNDEDRECTD106*%
%ADD107R,1.7500X1.4500*%
G04:AMPARAMS|DCode=108|XSize=0.25mm|YSize=0.8mm|CornerRadius=0.0625mm|HoleSize=0mm|Usage=FLASHONLY|Rotation=270.000|XOffset=0mm|YOffset=0mm|HoleType=Round|Shape=RoundedRectangle|*
%AMROUNDEDRECTD108*
21,1,0.2500,0.6750,0,0,270.0*
21,1,0.1250,0.8000,0,0,270.0*
1,1,0.1250,-0.3375,-0.0625*
1,1,0.1250,-0.3375,0.0625*
1,1,0.1250,0.3375,0.0625*
1,1,0.1250,0.3375,-0.0625*
%
%ADD108ROUNDEDRECTD108*%
%ADD109R,1.1000X1.0000*%
%ADD110R,1.0000X1.3000*%
G04:AMPARAMS|DCode=111|XSize=0.41mm|YSize=1.1mm|CornerRadius=0.1025mm|HoleSize=0mm|Usage=FLASHONLY|Rotation=90.000|XOffset=0mm|YOffset=0mm|HoleType=Round|Shape=RoundedRectangle|*
%AMROUNDEDRECTD111*
21,1,0.4100,0.8950,0,0,90.0*
21,1,0.2050,1.1000,0,0,90.0*
1,1,0.2050,0.4475,0.1025*
1,1,0.2050,0.4475,-0.1025*
1,1,0.2050,-0.4475,-0.1025*
1,1,0.2050,-0.4475,0.1025*
%
%ADD111ROUNDEDRECTD111*%
%ADD112R,0.8000X0.6000*%
%ADD113R,1.0500X1.4000*%
%ADD114R,0.8000X0.7000*%
%ADD115R,0.3500X0.8500*%
%ADD116R,58.8500X1.1300*%
%ADD117R,58.8500X1.1200*%
G36*
X98372Y134800D02*
X98286Y134876D01*
X98186Y134944D01*
X98072Y135004D01*
X97943Y135056D01*
X97800Y135100D01*
X97642Y135136D01*
X97470Y135164D01*
X97284Y135184D01*
X96868Y135200D01*
Y137200D01*
X97083Y137204D01*
X97470Y137236D01*
X97642Y137264D01*
X97800Y137300D01*
X97943Y137344D01*
X98072Y137396D01*
X98186Y137456D01*
X98286Y137524D01*
X98372Y137600D01*
Y134800D01*
D02*
G37*
G36*
X89064Y137524D02*
X89164Y137456D01*
X89278Y137396D01*
X89407Y137344D01*
X89550Y137300D01*
X89708Y137264D01*
X89880Y137236D01*
X90066Y137216D01*
X90482Y137200D01*
Y135200D01*
X90267Y135196D01*
X89880Y135164D01*
X89708Y135136D01*
X89550Y135100D01*
X89407Y135056D01*
X89278Y135004D01*
X89164Y134944D01*
X89064Y134876D01*
X88978Y134800D01*
Y137600D01*
X89064Y137524D01*
D02*
G37*
G36*
X381121Y135904D02*
X381096Y135848D01*
X381073Y135770D01*
X381054Y135672D01*
X381037Y135552D01*
X381013Y135247D01*
X381000Y134630D01*
X379000Y134514D01*
X378998Y134741D01*
X378953Y135434D01*
X378933Y135554D01*
X378908Y135653D01*
X378880Y135730D01*
X378848Y135786D01*
X378813Y135821D01*
X381149Y135938D01*
X381121Y135904D01*
D02*
G37*
G36*
X626438Y139351D02*
X626404Y139379D01*
X626348Y139405D01*
X626270Y139427D01*
X626171Y139446D01*
X626051Y139463D01*
X625747Y139487D01*
X625130Y139500D01*
X625014Y141500D01*
X625241Y141502D01*
X625934Y141547D01*
X626054Y141567D01*
X626153Y141592D01*
X626230Y141620D01*
X626286Y141652D01*
X626321Y141687D01*
X626438Y139351D01*
D02*
G37*
G36*
X617063Y151217D02*
X617045Y151366D01*
X616991Y151499D01*
X616900Y151616D01*
X616773Y151718D01*
X616610Y151804D01*
X616410Y151875D01*
X616175Y151930D01*
X615903Y151969D01*
X615594Y151992D01*
X615250Y152000D01*
Y154000D01*
X615594Y154008D01*
X615903Y154031D01*
X616175Y154071D01*
X616410Y154125D01*
X616610Y154196D01*
X616773Y154282D01*
X616900Y154384D01*
X616991Y154501D01*
X617045Y154634D01*
X617063Y154783D01*
Y151217D01*
D02*
G37*
G36*
X98372Y144800D02*
X98286Y144876D01*
X98186Y144944D01*
X98072Y145004D01*
X97943Y145056D01*
X97800Y145100D01*
X97642Y145136D01*
X97470Y145164D01*
X97284Y145184D01*
X96868Y145200D01*
Y147200D01*
X97083Y147204D01*
X97470Y147236D01*
X97642Y147264D01*
X97800Y147300D01*
X97943Y147344D01*
X98072Y147396D01*
X98186Y147456D01*
X98286Y147524D01*
X98372Y147600D01*
Y144800D01*
D02*
G37*
G36*
X89064Y147524D02*
X89164Y147456D01*
X89278Y147396D01*
X89407Y147344D01*
X89550Y147300D01*
X89708Y147264D01*
X89880Y147236D01*
X90066Y147216D01*
X90482Y147200D01*
Y145200D01*
X90267Y145196D01*
X89880Y145164D01*
X89708Y145136D01*
X89550Y145100D01*
X89407Y145056D01*
X89278Y145004D01*
X89164Y144944D01*
X89064Y144876D01*
X88978Y144800D01*
Y147600D01*
X89064Y147524D01*
D02*
G37*
G36*
X429231Y123296D02*
X429259Y123245D01*
X429300Y123182D01*
X429356Y123108D01*
X429510Y122927D01*
X429844Y122571D01*
X429959Y122455D01*
X430089Y122328D01*
X430459Y122006D01*
X430567Y121927D01*
X430666Y121863D01*
X430757Y121813D01*
X430840Y121777D01*
X430916Y121756D01*
X430983Y121750D01*
X429250Y120017D01*
X429244Y120084D01*
X429223Y120159D01*
X429187Y120243D01*
X429137Y120334D01*
X429073Y120433D01*
X428994Y120541D01*
X428793Y120779D01*
X428749Y120827D01*
X428539Y121008D01*
X428422Y121096D01*
X428312Y121168D01*
X428209Y121224D01*
X428113Y121264D01*
X428025Y121288D01*
X427944Y121297D01*
X427871Y121290D01*
X429217Y123336D01*
X429231Y123296D01*
D02*
G37*
G36*
X412231D02*
X412258Y123245D01*
X412300Y123182D01*
X412356Y123108D01*
X412509Y122927D01*
X412844Y122571D01*
X412959Y122455D01*
X413089Y122328D01*
X413459Y122006D01*
X413567Y121927D01*
X413666Y121863D01*
X413757Y121813D01*
X413840Y121777D01*
X413915Y121756D01*
X413982Y121750D01*
X412250Y120017D01*
X412243Y120084D01*
X412222Y120159D01*
X412187Y120243D01*
X412137Y120334D01*
X412073Y120433D01*
X411994Y120541D01*
X411793Y120779D01*
X411748Y120827D01*
X411539Y121008D01*
X411421Y121096D01*
X411311Y121168D01*
X411208Y121224D01*
X411113Y121264D01*
X411025Y121288D01*
X410944Y121297D01*
X410870Y121290D01*
X412217Y123336D01*
X412231Y123296D01*
D02*
G37*
G36*
X103572Y114800D02*
X103486Y114876D01*
X103386Y114944D01*
X103272Y115004D01*
X103143Y115056D01*
X103000Y115100D01*
X102842Y115136D01*
X102670Y115164D01*
X102484Y115184D01*
X102407Y115187D01*
X102130Y115164D01*
X101958Y115136D01*
X101800Y115100D01*
X101657Y115056D01*
X101528Y115004D01*
X101414Y114944D01*
X101314Y114876D01*
X101228Y114800D01*
Y117600D01*
X101314Y117524D01*
X101414Y117456D01*
X101528Y117396D01*
X101657Y117344D01*
X101800Y117300D01*
X101958Y117264D01*
X102130Y117236D01*
X102316Y117216D01*
X102393Y117213D01*
X102670Y117236D01*
X102842Y117264D01*
X103000Y117300D01*
X103143Y117344D01*
X103272Y117396D01*
X103386Y117456D01*
X103486Y117524D01*
X103572Y117600D01*
Y114800D01*
D02*
G37*
G36*
X105107Y124815D02*
X105021Y124888D01*
X104920Y124953D01*
X104805Y125011D01*
X104675Y125061D01*
X104531Y125104D01*
X104373Y125138D01*
X104201Y125165D01*
X103813Y125196D01*
X103598Y125200D01*
X103540Y127200D01*
X103755Y127204D01*
X104141Y127237D01*
X104313Y127266D01*
X104470Y127303D01*
X104612Y127349D01*
X104740Y127403D01*
X104854Y127465D01*
X104953Y127535D01*
X105037Y127614D01*
X105107Y124815D01*
D02*
G37*
G36*
X607121Y133904D02*
X607096Y133848D01*
X607073Y133770D01*
X607054Y133672D01*
X607037Y133551D01*
X607014Y133247D01*
X607000Y132630D01*
X605000Y132514D01*
X604998Y132740D01*
X604953Y133434D01*
X604933Y133554D01*
X604908Y133653D01*
X604880Y133730D01*
X604849Y133786D01*
X604813Y133821D01*
X607149Y133938D01*
X607121Y133904D01*
D02*
G37*
G36*
X580121D02*
X580095Y133848D01*
X580073Y133770D01*
X580054Y133672D01*
X580037Y133551D01*
X580013Y133247D01*
X580000Y132630D01*
X578000Y132514D01*
X577998Y132740D01*
X577953Y133434D01*
X577933Y133554D01*
X577908Y133653D01*
X577880Y133730D01*
X577849Y133786D01*
X577813Y133821D01*
X580149Y133938D01*
X580121Y133904D01*
D02*
G37*
G36*
X16514Y127574D02*
X16614Y127506D01*
X16728Y127446D01*
X16857Y127394D01*
X17000Y127350D01*
X17158Y127314D01*
X17330Y127286D01*
X17516Y127266D01*
X17932Y127250D01*
Y125250D01*
X17717Y125246D01*
X17330Y125214D01*
X17158Y125186D01*
X17000Y125150D01*
X16857Y125106D01*
X16728Y125054D01*
X16614Y124994D01*
X16514Y124926D01*
X16428Y124850D01*
Y127650D01*
X16514Y127574D01*
D02*
G37*
G36*
X568457Y157060D02*
X568518Y156890D01*
X568619Y156740D01*
X568761Y156610D01*
X568944Y156500D01*
X569168Y156410D01*
X569431Y156340D01*
X569736Y156290D01*
X570081Y156260D01*
X570467Y156250D01*
Y154250D01*
X570081Y154240D01*
X569736Y154210D01*
X569431Y154160D01*
X569168Y154090D01*
X568944Y154000D01*
X568761Y153890D01*
X568619Y153760D01*
X568518Y153610D01*
X568457Y153440D01*
X568437Y153250D01*
Y157250D01*
X568457Y157060D01*
D02*
G37*
G36*
X626438Y164351D02*
X626404Y164379D01*
X626348Y164404D01*
X626270Y164427D01*
X626171Y164446D01*
X626051Y164463D01*
X625747Y164487D01*
X625130Y164500D01*
X625014Y166500D01*
X625241Y166502D01*
X625934Y166547D01*
X626054Y166567D01*
X626153Y166591D01*
X626230Y166620D01*
X626286Y166651D01*
X626321Y166687D01*
X626438Y164351D01*
D02*
G37*
G36*
X139679Y162200D02*
X139661Y162209D01*
X139625Y162218D01*
X139573Y162225D01*
X139418Y162237D01*
X138903Y162250D01*
X138732Y162250D01*
Y164250D01*
X139679Y164300D01*
Y162200D01*
D02*
G37*
G36*
X609119Y158786D02*
X608271Y158750D01*
X607801Y160750D01*
X607971Y160751D01*
X608578Y160788D01*
X608651Y160802D01*
X608706Y160818D01*
X608746Y160836D01*
X608769Y160857D01*
X609119Y158786D01*
D02*
G37*
G36*
X89064Y167524D02*
X89164Y167456D01*
X89278Y167396D01*
X89407Y167344D01*
X89550Y167300D01*
X89708Y167264D01*
X89880Y167236D01*
X90066Y167216D01*
X90482Y167200D01*
Y165200D01*
X90267Y165196D01*
X89880Y165164D01*
X89708Y165136D01*
X89550Y165100D01*
X89407Y165056D01*
X89278Y165004D01*
X89164Y164944D01*
X89064Y164876D01*
X88978Y164800D01*
Y167600D01*
X89064Y167524D01*
D02*
G37*
G36*
X381221Y168628D02*
X381195Y168572D01*
X381173Y168495D01*
X381154Y168396D01*
X381137Y168276D01*
X381114Y167972D01*
X381100Y167354D01*
X379100Y167239D01*
X379098Y167465D01*
X379053Y168158D01*
X379033Y168279D01*
X379008Y168377D01*
X378980Y168455D01*
X378949Y168511D01*
X378913Y168546D01*
X381249Y168663D01*
X381221Y168628D01*
D02*
G37*
G36*
X31048Y164902D02*
X30961Y164958D01*
X30860Y165009D01*
X30745Y165054D01*
X30614Y165093D01*
X30470Y165126D01*
X30311Y165152D01*
X29949Y165188D01*
X29747Y165197D01*
X29530Y165200D01*
X29177Y167200D01*
X29391Y167205D01*
X29774Y167243D01*
X29943Y167275D01*
X30096Y167318D01*
X30233Y167369D01*
X30355Y167430D01*
X30461Y167501D01*
X30552Y167581D01*
X30628Y167670D01*
X31048Y164902D01*
D02*
G37*
G36*
X98372Y164800D02*
X98286Y164876D01*
X98186Y164944D01*
X98072Y165004D01*
X97943Y165056D01*
X97800Y165100D01*
X97642Y165136D01*
X97470Y165164D01*
X97284Y165184D01*
X96868Y165200D01*
Y167200D01*
X97083Y167204D01*
X97470Y167236D01*
X97642Y167264D01*
X97800Y167300D01*
X97943Y167344D01*
X98072Y167396D01*
X98186Y167456D01*
X98286Y167524D01*
X98372Y167600D01*
Y164800D01*
D02*
G37*
G36*
X611353Y156315D02*
X611408Y156301D01*
X611494Y156289D01*
X611764Y156270D01*
X613000Y156250D01*
Y154250D01*
X611330Y154170D01*
Y156330D01*
X611353Y156315D01*
D02*
G37*
G36*
X573670Y154170D02*
X573643Y154185D01*
X573578Y154199D01*
X573473Y154211D01*
X573145Y154230D01*
X571637Y154250D01*
Y156250D01*
X573670Y156330D01*
Y154170D01*
D02*
G37*
G36*
X568184Y154250D02*
X567966Y154246D01*
X567594Y154209D01*
X567442Y154178D01*
X567311Y154137D01*
X567203Y154088D01*
X567117Y154030D01*
X567052Y153962D01*
X567010Y153885D01*
X566990Y153800D01*
X565440Y155951D01*
X567761Y156250D01*
X568184Y154250D01*
D02*
G37*
G36*
X89064Y157524D02*
X89164Y157456D01*
X89278Y157396D01*
X89407Y157344D01*
X89550Y157300D01*
X89708Y157264D01*
X89880Y157236D01*
X90066Y157216D01*
X90482Y157200D01*
Y155200D01*
X90267Y155196D01*
X89880Y155164D01*
X89708Y155136D01*
X89550Y155100D01*
X89407Y155056D01*
X89278Y155004D01*
X89164Y154944D01*
X89064Y154876D01*
X88978Y154800D01*
Y157600D01*
X89064Y157524D01*
D02*
G37*
G36*
X576254Y160836D02*
X576294Y160818D01*
X576350Y160802D01*
X576422Y160788D01*
X576510Y160777D01*
X576737Y160760D01*
X577199Y160750D01*
X576729Y158750D01*
X575881Y158786D01*
X576231Y160857D01*
X576254Y160836D01*
D02*
G37*
G36*
X182822Y155350D02*
X182736Y155426D01*
X182636Y155494D01*
X182522Y155554D01*
X182393Y155606D01*
X182250Y155650D01*
X182092Y155686D01*
X181920Y155714D01*
X181734Y155734D01*
X181318Y155750D01*
Y157750D01*
X181533Y157754D01*
X181920Y157786D01*
X182092Y157814D01*
X182250Y157850D01*
X182393Y157894D01*
X182522Y157946D01*
X182636Y158006D01*
X182736Y158074D01*
X182822Y158150D01*
Y155350D01*
D02*
G37*
G36*
X98372Y154800D02*
X98286Y154876D01*
X98186Y154944D01*
X98072Y155004D01*
X97943Y155056D01*
X97800Y155100D01*
X97642Y155136D01*
X97470Y155164D01*
X97284Y155184D01*
X96868Y155200D01*
Y157200D01*
X97083Y157204D01*
X97470Y157236D01*
X97642Y157264D01*
X97800Y157300D01*
X97943Y157344D01*
X98072Y157396D01*
X98186Y157456D01*
X98286Y157524D01*
X98372Y157600D01*
Y154800D01*
D02*
G37*
G36*
X17964Y97524D02*
X18064Y97456D01*
X18178Y97396D01*
X18307Y97344D01*
X18450Y97300D01*
X18607Y97264D01*
X18779Y97236D01*
X18966Y97216D01*
X19382Y97200D01*
Y95200D01*
X19167Y95196D01*
X18779Y95164D01*
X18607Y95136D01*
X18450Y95100D01*
X18307Y95056D01*
X18178Y95004D01*
X18064Y94944D01*
X17964Y94876D01*
X17878Y94800D01*
Y97600D01*
X17964Y97524D01*
D02*
G37*
G36*
X381121Y84903D02*
X381096Y84847D01*
X381073Y84770D01*
X381054Y84671D01*
X381037Y84551D01*
X381013Y84247D01*
X381000Y83630D01*
X379000Y83514D01*
X378998Y83740D01*
X378953Y84434D01*
X378933Y84554D01*
X378908Y84653D01*
X378880Y84730D01*
X378848Y84786D01*
X378813Y84821D01*
X381149Y84938D01*
X381121Y84903D01*
D02*
G37*
G36*
X626438Y69851D02*
X626404Y69879D01*
X626348Y69904D01*
X626270Y69927D01*
X626171Y69946D01*
X626051Y69963D01*
X625747Y69987D01*
X625130Y70000D01*
X625014Y72000D01*
X625241Y72002D01*
X625934Y72047D01*
X626054Y72067D01*
X626153Y72091D01*
X626230Y72120D01*
X626286Y72151D01*
X626321Y72187D01*
X626438Y69851D01*
D02*
G37*
G36*
X27271Y94800D02*
X27186Y94876D01*
X27086Y94944D01*
X26971Y95004D01*
X26843Y95056D01*
X26700Y95100D01*
X26542Y95136D01*
X26370Y95164D01*
X26184Y95184D01*
X25768Y95200D01*
Y97200D01*
X25983Y97204D01*
X26370Y97236D01*
X26542Y97264D01*
X26700Y97300D01*
X26843Y97344D01*
X26971Y97396D01*
X27086Y97456D01*
X27186Y97524D01*
X27271Y97600D01*
Y94800D01*
D02*
G37*
G36*
X626438Y99851D02*
X626404Y99879D01*
X626348Y99905D01*
X626270Y99927D01*
X626171Y99946D01*
X626051Y99963D01*
X625747Y99987D01*
X625130Y100000D01*
X625014Y102000D01*
X625241Y102002D01*
X625934Y102047D01*
X626054Y102067D01*
X626153Y102092D01*
X626230Y102120D01*
X626286Y102152D01*
X626321Y102187D01*
X626438Y99851D01*
D02*
G37*
G36*
X98372Y94800D02*
X98286Y94876D01*
X98186Y94944D01*
X98072Y95004D01*
X97943Y95056D01*
X97800Y95100D01*
X97642Y95136D01*
X97470Y95164D01*
X97284Y95184D01*
X96868Y95200D01*
Y97200D01*
X97083Y97204D01*
X97470Y97236D01*
X97642Y97264D01*
X97800Y97300D01*
X97943Y97344D01*
X98072Y97396D01*
X98186Y97456D01*
X98286Y97524D01*
X98372Y97600D01*
Y94800D01*
D02*
G37*
G36*
X89064Y97524D02*
X89164Y97456D01*
X89278Y97396D01*
X89407Y97344D01*
X89550Y97300D01*
X89708Y97264D01*
X89880Y97236D01*
X90066Y97216D01*
X90482Y97200D01*
Y95200D01*
X90267Y95196D01*
X89880Y95164D01*
X89708Y95136D01*
X89550Y95100D01*
X89407Y95056D01*
X89278Y95004D01*
X89164Y94944D01*
X89064Y94876D01*
X88978Y94800D01*
Y97600D01*
X89064Y97524D01*
D02*
G37*
G36*
X442408Y43040D02*
X442330Y43127D01*
X442237Y43205D01*
X442129Y43274D01*
X442006Y43334D01*
X441867Y43385D01*
X441713Y43426D01*
X441544Y43459D01*
X441360Y43482D01*
X441161Y43495D01*
X440946Y43500D01*
X441239Y45500D01*
X441455Y45503D01*
X442019Y45551D01*
X442178Y45580D01*
X442323Y45614D01*
X442453Y45656D01*
X442569Y45703D01*
X442671Y45757D01*
X442758Y45818D01*
X442408Y43040D01*
D02*
G37*
G36*
X111324Y40236D02*
X111256Y40136D01*
X111196Y40022D01*
X111144Y39893D01*
X111100Y39750D01*
X111064Y39592D01*
X111036Y39420D01*
X111016Y39234D01*
X111000Y38818D01*
X109000D01*
X108996Y39033D01*
X108964Y39420D01*
X108936Y39592D01*
X108900Y39750D01*
X108856Y39893D01*
X108804Y40022D01*
X108744Y40136D01*
X108676Y40236D01*
X108600Y40322D01*
X111400D01*
X111324Y40236D01*
D02*
G37*
G36*
X481321Y26221D02*
X481377Y26195D01*
X481455Y26173D01*
X481554Y26154D01*
X481674Y26137D01*
X481978Y26114D01*
X482595Y26100D01*
X482711Y24100D01*
X482485Y24098D01*
X481791Y24053D01*
X481671Y24033D01*
X481572Y24008D01*
X481495Y23980D01*
X481439Y23949D01*
X481404Y23913D01*
X481287Y26249D01*
X481321Y26221D01*
D02*
G37*
G36*
X540764Y45824D02*
X540864Y45756D01*
X540978Y45696D01*
X541107Y45644D01*
X541250Y45600D01*
X541408Y45564D01*
X541580Y45536D01*
X541766Y45516D01*
X542182Y45500D01*
Y43500D01*
X541967Y43496D01*
X541580Y43464D01*
X541408Y43436D01*
X541250Y43400D01*
X541107Y43356D01*
X540978Y43304D01*
X540864Y43244D01*
X540764Y43176D01*
X540678Y43100D01*
Y45900D01*
X540764Y45824D01*
D02*
G37*
G36*
X401402Y57535D02*
X401447Y56841D01*
X401467Y56721D01*
X401491Y56623D01*
X401520Y56545D01*
X401551Y56489D01*
X401587Y56454D01*
X399251Y56337D01*
X399279Y56371D01*
X399304Y56427D01*
X399327Y56505D01*
X399346Y56604D01*
X399362Y56724D01*
X399386Y57028D01*
X399400Y57645D01*
X401400Y57761D01*
X401402Y57535D01*
D02*
G37*
G36*
X381121Y51904D02*
X381096Y51848D01*
X381073Y51770D01*
X381054Y51672D01*
X381037Y51551D01*
X381013Y51247D01*
X381000Y50630D01*
X379000Y50514D01*
X378998Y50741D01*
X378953Y51434D01*
X378933Y51554D01*
X378908Y51653D01*
X378880Y51730D01*
X378848Y51786D01*
X378813Y51821D01*
X381149Y51938D01*
X381121Y51904D01*
D02*
G37*
G36*
X483671Y46129D02*
X483646Y46073D01*
X483623Y45995D01*
X483604Y45896D01*
X483587Y45776D01*
X483563Y45472D01*
X483550Y44855D01*
X481550Y44739D01*
X481548Y44965D01*
X481503Y45659D01*
X481483Y45779D01*
X481458Y45877D01*
X481430Y45955D01*
X481399Y46011D01*
X481363Y46046D01*
X483699Y46163D01*
X483671Y46129D01*
D02*
G37*
G36*
X606063Y102344D02*
X606052Y102374D01*
X606016Y102400D01*
X605957Y102423D01*
X605874Y102444D01*
X605767Y102461D01*
X605482Y102486D01*
X605102Y102498D01*
X604877Y102500D01*
Y104500D01*
X605102Y104501D01*
X605874Y104556D01*
X605957Y104577D01*
X606016Y104600D01*
X606052Y104626D01*
X606063Y104656D01*
Y102344D01*
D02*
G37*
G36*
X560174Y110986D02*
X560106Y110886D01*
X560046Y110772D01*
X559994Y110643D01*
X559950Y110499D01*
X559914Y110342D01*
X559886Y110170D01*
X559866Y109984D01*
X559850Y109568D01*
X557850D01*
X557846Y109783D01*
X557814Y110170D01*
X557786Y110342D01*
X557750Y110499D01*
X557706Y110643D01*
X557654Y110772D01*
X557594Y110886D01*
X557526Y110986D01*
X557450Y111072D01*
X560250D01*
X560174Y110986D01*
D02*
G37*
G36*
X600619Y108286D02*
X599771Y108250D01*
X599301Y110250D01*
X599472Y110251D01*
X600078Y110288D01*
X600150Y110302D01*
X600206Y110318D01*
X600246Y110336D01*
X600269Y110357D01*
X600619Y108286D01*
D02*
G37*
G36*
X567754Y110336D02*
X567794Y110318D01*
X567850Y110302D01*
X567922Y110288D01*
X568010Y110277D01*
X568237Y110260D01*
X568699Y110250D01*
X568229Y108250D01*
X567381Y108286D01*
X567731Y110357D01*
X567754Y110336D01*
D02*
G37*
G36*
X626438Y110851D02*
X626404Y110879D01*
X626348Y110904D01*
X626270Y110927D01*
X626171Y110946D01*
X626051Y110963D01*
X625747Y110986D01*
X625130Y111000D01*
X625014Y113000D01*
X625241Y113002D01*
X625934Y113047D01*
X626054Y113067D01*
X626153Y113091D01*
X626230Y113120D01*
X626286Y113151D01*
X626321Y113187D01*
X626438Y110851D01*
D02*
G37*
G36*
X98372Y114800D02*
X98286Y114876D01*
X98186Y114944D01*
X98072Y115004D01*
X97943Y115056D01*
X97800Y115100D01*
X97642Y115136D01*
X97470Y115164D01*
X97284Y115184D01*
X96868Y115200D01*
Y117200D01*
X97083Y117204D01*
X97470Y117236D01*
X97642Y117264D01*
X97800Y117300D01*
X97943Y117344D01*
X98072Y117396D01*
X98186Y117456D01*
X98286Y117524D01*
X98372Y117600D01*
Y114800D01*
D02*
G37*
G36*
X89064Y117524D02*
X89164Y117456D01*
X89278Y117396D01*
X89407Y117344D01*
X89550Y117300D01*
X89708Y117264D01*
X89880Y117236D01*
X90066Y117216D01*
X90482Y117200D01*
Y115200D01*
X90267Y115196D01*
X89880Y115164D01*
X89708Y115136D01*
X89550Y115100D01*
X89407Y115056D01*
X89278Y115004D01*
X89164Y114944D01*
X89064Y114876D01*
X88978Y114800D01*
Y117600D01*
X89064Y117524D01*
D02*
G37*
G36*
X17664Y117223D02*
X17764Y117155D01*
X17878Y117095D01*
X18007Y117043D01*
X18150Y116999D01*
X18308Y116963D01*
X18480Y116935D01*
X18666Y116915D01*
X19082Y116899D01*
Y114899D01*
X18867Y114895D01*
X18480Y114863D01*
X18308Y114835D01*
X18150Y114799D01*
X18007Y114755D01*
X17878Y114703D01*
X17764Y114643D01*
X17664Y114575D01*
X17578Y114499D01*
Y117299D01*
X17664Y117223D01*
D02*
G37*
G36*
X98372Y104800D02*
X98286Y104876D01*
X98186Y104944D01*
X98072Y105004D01*
X97943Y105056D01*
X97800Y105100D01*
X97642Y105136D01*
X97470Y105164D01*
X97284Y105184D01*
X96868Y105200D01*
Y107200D01*
X97083Y107204D01*
X97470Y107236D01*
X97642Y107264D01*
X97800Y107300D01*
X97943Y107344D01*
X98072Y107396D01*
X98186Y107456D01*
X98286Y107524D01*
X98372Y107600D01*
Y104800D01*
D02*
G37*
G36*
X89064Y107524D02*
X89164Y107456D01*
X89278Y107396D01*
X89407Y107344D01*
X89550Y107300D01*
X89708Y107264D01*
X89880Y107236D01*
X90066Y107216D01*
X90482Y107200D01*
Y105200D01*
X90267Y105196D01*
X89880Y105164D01*
X89708Y105136D01*
X89550Y105100D01*
X89407Y105056D01*
X89278Y105004D01*
X89164Y104944D01*
X89064Y104876D01*
X88978Y104800D01*
Y107600D01*
X89064Y107524D01*
D02*
G37*
G36*
X565170Y103670D02*
X565144Y103685D01*
X565078Y103699D01*
X564973Y103711D01*
X564645Y103730D01*
X563137Y103750D01*
Y105750D01*
X565170Y105830D01*
Y103670D01*
D02*
G37*
G36*
X134707Y105793D02*
X134603Y105683D01*
X134515Y105579D01*
X134442Y105479D01*
X134385Y105384D01*
X134344Y105294D01*
X134319Y105209D01*
X134309Y105128D01*
X134316Y105052D01*
X134337Y104982D01*
X134375Y104916D01*
X131799Y105509D01*
X133293Y107207D01*
X134707Y105793D01*
D02*
G37*
G36*
X560660Y109513D02*
X560490Y109453D01*
X560340Y109353D01*
X560210Y109213D01*
X560100Y109033D01*
X560010Y108813D01*
X559940Y108553D01*
X559890Y108253D01*
X559860Y107913D01*
X559850Y107533D01*
X557850D01*
X557840Y107913D01*
X557810Y108253D01*
X557760Y108553D01*
X557690Y108813D01*
X557600Y109033D01*
X557490Y109213D01*
X557360Y109353D01*
X557210Y109453D01*
X557040Y109513D01*
X556850Y109533D01*
X560850D01*
X560660Y109513D01*
D02*
G37*
G36*
X136572Y105100D02*
X136486Y105176D01*
X136386Y105244D01*
X136272Y105304D01*
X136143Y105356D01*
X136000Y105400D01*
X135842Y105436D01*
X135670Y105464D01*
X135484Y105484D01*
X135068Y105500D01*
Y107500D01*
X135283Y107504D01*
X135670Y107536D01*
X135842Y107564D01*
X136000Y107600D01*
X136143Y107644D01*
X136272Y107696D01*
X136386Y107756D01*
X136486Y107824D01*
X136572Y107900D01*
Y105100D01*
D02*
G37*
G36*
X18264Y107824D02*
X18364Y107756D01*
X18478Y107696D01*
X18607Y107644D01*
X18750Y107600D01*
X18908Y107564D01*
X19080Y107536D01*
X19266Y107516D01*
X19682Y107500D01*
Y105500D01*
X19467Y105496D01*
X19080Y105464D01*
X18908Y105436D01*
X18750Y105400D01*
X18607Y105356D01*
X18478Y105304D01*
X18364Y105244D01*
X18264Y105176D01*
X18178Y105100D01*
Y107900D01*
X18264Y107824D01*
D02*
G37*
G36*
X10964Y177524D02*
X11064Y177456D01*
X11178Y177396D01*
X11307Y177344D01*
X11450Y177300D01*
X11608Y177264D01*
X11780Y177236D01*
X11966Y177216D01*
X12382Y177200D01*
Y175200D01*
X12167Y175196D01*
X11780Y175164D01*
X11608Y175136D01*
X11450Y175100D01*
X11307Y175056D01*
X11178Y175004D01*
X11064Y174944D01*
X10964Y174876D01*
X10878Y174800D01*
Y177600D01*
X10964Y177524D01*
D02*
G37*
G36*
X565170Y290670D02*
X565144Y290685D01*
X565078Y290699D01*
X564973Y290711D01*
X564645Y290730D01*
X563137Y290750D01*
Y292750D01*
X565170Y292830D01*
Y290670D01*
D02*
G37*
G36*
X81369Y292472D02*
X81471Y292415D01*
X81587Y292365D01*
X81717Y292321D01*
X81862Y292284D01*
X82021Y292254D01*
X82194Y292230D01*
X82584Y292204D01*
X82800Y292200D01*
X83033Y290200D01*
X82818Y290196D01*
X82434Y290160D01*
X82264Y290128D01*
X82109Y290088D01*
X81970Y290038D01*
X81845Y289980D01*
X81735Y289912D01*
X81641Y289835D01*
X81561Y289750D01*
X81281Y292536D01*
X81369Y292472D01*
D02*
G37*
G36*
X606063Y289344D02*
X606051Y289374D01*
X606016Y289400D01*
X605957Y289424D01*
X605873Y289444D01*
X605767Y289461D01*
X605482Y289486D01*
X605102Y289499D01*
X604877Y289500D01*
Y291500D01*
X605102Y291502D01*
X605873Y291556D01*
X605957Y291576D01*
X606016Y291600D01*
X606051Y291626D01*
X606063Y291656D01*
Y289344D01*
D02*
G37*
G36*
X381121Y295403D02*
X381096Y295347D01*
X381073Y295270D01*
X381054Y295171D01*
X381037Y295051D01*
X381014Y294747D01*
X381000Y294130D01*
X379000Y294014D01*
X378998Y294240D01*
X378953Y294934D01*
X378933Y295054D01*
X378909Y295152D01*
X378881Y295230D01*
X378849Y295286D01*
X378813Y295321D01*
X381149Y295438D01*
X381121Y295403D01*
D02*
G37*
G36*
X182375Y295583D02*
X182341Y295615D01*
X182285Y295643D01*
X182208Y295668D01*
X182109Y295690D01*
X181989Y295708D01*
X181685Y295735D01*
X181295Y295748D01*
X181068Y295750D01*
X181068Y297750D01*
X181295Y297752D01*
X182109Y297810D01*
X182207Y297831D01*
X182285Y297856D01*
X182341Y297885D01*
X182375Y297916D01*
X182375Y295583D01*
D02*
G37*
G36*
X600619Y295286D02*
X599771Y295250D01*
X599301Y297250D01*
X599472Y297251D01*
X600078Y297288D01*
X600150Y297302D01*
X600206Y297318D01*
X600246Y297336D01*
X600269Y297357D01*
X600619Y295286D01*
D02*
G37*
G36*
X567754Y297336D02*
X567794Y297318D01*
X567850Y297302D01*
X567922Y297288D01*
X568010Y297277D01*
X568237Y297260D01*
X568699Y297250D01*
X568229Y295250D01*
X567381Y295286D01*
X567731Y297357D01*
X567754Y297336D01*
D02*
G37*
G36*
X135659Y284885D02*
X135715Y284857D01*
X135792Y284832D01*
X135891Y284810D01*
X136011Y284792D01*
X136315Y284765D01*
X136705Y284752D01*
X136932Y284750D01*
X136932Y282750D01*
X136705Y282749D01*
X135891Y282690D01*
X135793Y282669D01*
X135715Y282644D01*
X135659Y282615D01*
X135625Y282584D01*
X135625Y284916D01*
X135659Y284885D01*
D02*
G37*
G36*
X80733Y282598D02*
X80786Y282515D01*
X80860Y282441D01*
X80954Y282377D01*
X81068Y282323D01*
X81204Y282279D01*
X81359Y282244D01*
X81535Y282220D01*
X81732Y282205D01*
X81949Y282200D01*
X81652Y280200D01*
X79338Y280338D01*
X80701Y282692D01*
X80733Y282598D01*
D02*
G37*
G36*
X607121Y271404D02*
X607095Y271348D01*
X607073Y271270D01*
X607053Y271172D01*
X607037Y271051D01*
X607013Y270747D01*
X607000Y270130D01*
X605000Y270014D01*
X604998Y270241D01*
X604953Y270934D01*
X604932Y271054D01*
X604908Y271153D01*
X604880Y271230D01*
X604848Y271286D01*
X604813Y271321D01*
X607149Y271438D01*
X607121Y271404D01*
D02*
G37*
G36*
X626438Y283351D02*
X626403Y283379D01*
X626348Y283404D01*
X626270Y283427D01*
X626171Y283446D01*
X626051Y283462D01*
X625747Y283486D01*
X625130Y283500D01*
X625014Y285500D01*
X625240Y285502D01*
X625934Y285546D01*
X626054Y285567D01*
X626152Y285591D01*
X626230Y285619D01*
X626286Y285651D01*
X626321Y285687D01*
X626438Y283351D01*
D02*
G37*
G36*
X138822Y288850D02*
X138736Y288926D01*
X138636Y288994D01*
X138522Y289054D01*
X138393Y289106D01*
X138250Y289150D01*
X138092Y289186D01*
X137920Y289214D01*
X137734Y289234D01*
X137318Y289250D01*
Y291250D01*
X137533Y291254D01*
X137920Y291286D01*
X138092Y291314D01*
X138250Y291350D01*
X138393Y291394D01*
X138522Y291446D01*
X138636Y291506D01*
X138736Y291574D01*
X138822Y291650D01*
Y288850D01*
D02*
G37*
G36*
X560010Y288581D02*
X560040Y288236D01*
X560090Y287932D01*
X560160Y287668D01*
X560250Y287444D01*
X560360Y287262D01*
X560490Y287119D01*
X560640Y287018D01*
X560810Y286957D01*
X561000Y286937D01*
X557000D01*
X557190Y286957D01*
X557360Y287018D01*
X557510Y287119D01*
X557640Y287262D01*
X557750Y287444D01*
X557840Y287668D01*
X557910Y287932D01*
X557960Y288236D01*
X557990Y288581D01*
X558000Y288967D01*
X560000D01*
X560010Y288581D01*
D02*
G37*
G36*
X560004Y286717D02*
X560036Y286330D01*
X560064Y286158D01*
X560100Y286000D01*
X560144Y285857D01*
X560196Y285728D01*
X560256Y285614D01*
X560324Y285514D01*
X560400Y285428D01*
X557600D01*
X557676Y285514D01*
X557744Y285614D01*
X557804Y285728D01*
X557856Y285857D01*
X557900Y286000D01*
X557936Y286158D01*
X557964Y286330D01*
X557984Y286516D01*
X558000Y286932D01*
X560000D01*
X560004Y286717D01*
D02*
G37*
G36*
X626438Y297851D02*
X626403Y297879D01*
X626348Y297905D01*
X626270Y297927D01*
X626171Y297946D01*
X626051Y297963D01*
X625747Y297987D01*
X625130Y298000D01*
X625014Y300000D01*
X625240Y300002D01*
X625934Y300047D01*
X626054Y300067D01*
X626152Y300092D01*
X626230Y300120D01*
X626286Y300152D01*
X626321Y300187D01*
X626438Y297851D01*
D02*
G37*
G36*
X524322Y354350D02*
X524236Y354426D01*
X524136Y354494D01*
X524022Y354554D01*
X523893Y354606D01*
X523750Y354650D01*
X523592Y354686D01*
X523420Y354714D01*
X523234Y354734D01*
X522818Y354750D01*
X522818Y356750D01*
X523033Y356754D01*
X523420Y356786D01*
X523592Y356814D01*
X523750Y356850D01*
X523893Y356894D01*
X524022Y356946D01*
X524136Y357006D01*
X524236Y357074D01*
X524322Y357150D01*
X524322Y354350D01*
D02*
G37*
G36*
X401621Y351404D02*
X401595Y351348D01*
X401573Y351270D01*
X401554Y351172D01*
X401537Y351051D01*
X401513Y350747D01*
X401500Y350130D01*
X399500Y350014D01*
X399498Y350241D01*
X399453Y350934D01*
X399433Y351054D01*
X399408Y351153D01*
X399380Y351230D01*
X399349Y351286D01*
X399313Y351321D01*
X401649Y351438D01*
X401621Y351404D01*
D02*
G37*
G36*
X381121Y341904D02*
X381096Y341848D01*
X381073Y341770D01*
X381054Y341672D01*
X381037Y341552D01*
X381013Y341247D01*
X381000Y340630D01*
X379000Y340514D01*
X378998Y340741D01*
X378953Y341434D01*
X378933Y341554D01*
X378908Y341653D01*
X378880Y341730D01*
X378848Y341786D01*
X378813Y341821D01*
X381149Y341938D01*
X381121Y341904D01*
D02*
G37*
G36*
X479764Y359074D02*
X479864Y359006D01*
X479978Y358946D01*
X480107Y358894D01*
X480250Y358850D01*
X480408Y358814D01*
X480580Y358786D01*
X480766Y358766D01*
X481182Y358750D01*
Y356750D01*
X480967Y356746D01*
X480580Y356714D01*
X480408Y356686D01*
X480250Y356650D01*
X480107Y356606D01*
X479978Y356554D01*
X479864Y356494D01*
X479764Y356426D01*
X479678Y356350D01*
Y359150D01*
X479764Y359074D01*
D02*
G37*
G36*
X481046Y376121D02*
X481102Y376096D01*
X481180Y376073D01*
X481278Y376054D01*
X481399Y376037D01*
X481703Y376013D01*
X482320Y376000D01*
X482436Y374000D01*
X482210Y373998D01*
X481516Y373953D01*
X481396Y373933D01*
X481297Y373908D01*
X481220Y373880D01*
X481164Y373849D01*
X481129Y373813D01*
X481012Y376149D01*
X481046Y376121D01*
D02*
G37*
G36*
X381121Y374903D02*
X381096Y374847D01*
X381073Y374770D01*
X381054Y374671D01*
X381037Y374551D01*
X381013Y374247D01*
X381000Y373629D01*
X379000Y373514D01*
X378998Y373740D01*
X378953Y374434D01*
X378933Y374554D01*
X378908Y374652D01*
X378880Y374730D01*
X378848Y374786D01*
X378813Y374821D01*
X381149Y374938D01*
X381121Y374903D01*
D02*
G37*
G36*
X436580Y375757D02*
X436681Y375703D01*
X436797Y375655D01*
X436928Y375614D01*
X437072Y375579D01*
X437231Y375551D01*
X437593Y375513D01*
X437795Y375503D01*
X438011Y375500D01*
X438304Y373500D01*
X438089Y373495D01*
X437705Y373458D01*
X437536Y373426D01*
X437382Y373385D01*
X437244Y373334D01*
X437121Y373274D01*
X437012Y373205D01*
X436920Y373127D01*
X436842Y373039D01*
X436492Y375817D01*
X436580Y375757D01*
D02*
G37*
G36*
X17514Y322324D02*
X17614Y322256D01*
X17728Y322196D01*
X17857Y322144D01*
X18000Y322100D01*
X18158Y322064D01*
X18330Y322036D01*
X18516Y322016D01*
X18932Y322000D01*
Y320000D01*
X18717Y319996D01*
X18330Y319964D01*
X18158Y319936D01*
X18000Y319900D01*
X17857Y319856D01*
X17728Y319804D01*
X17614Y319744D01*
X17514Y319676D01*
X17428Y319600D01*
Y322400D01*
X17514Y322324D01*
D02*
G37*
G36*
X84369Y312472D02*
X84471Y312415D01*
X84587Y312365D01*
X84717Y312321D01*
X84862Y312284D01*
X85021Y312254D01*
X85194Y312230D01*
X85584Y312204D01*
X85800Y312200D01*
X86033Y310200D01*
X85818Y310196D01*
X85434Y310160D01*
X85264Y310128D01*
X85109Y310088D01*
X84970Y310038D01*
X84845Y309979D01*
X84735Y309912D01*
X84641Y309835D01*
X84561Y309750D01*
X84281Y312536D01*
X84369Y312472D01*
D02*
G37*
G36*
Y302472D02*
X84471Y302415D01*
X84587Y302365D01*
X84717Y302321D01*
X84862Y302284D01*
X85021Y302254D01*
X85194Y302230D01*
X85584Y302204D01*
X85800Y302200D01*
X86033Y300200D01*
X85818Y300196D01*
X85434Y300160D01*
X85264Y300128D01*
X85109Y300088D01*
X84970Y300038D01*
X84845Y299980D01*
X84735Y299912D01*
X84641Y299835D01*
X84561Y299750D01*
X84281Y302536D01*
X84369Y302472D01*
D02*
G37*
G36*
X81547Y322535D02*
X81646Y322465D01*
X81760Y322403D01*
X81888Y322349D01*
X82030Y322304D01*
X82187Y322266D01*
X82358Y322237D01*
X82544Y322217D01*
X82960Y322200D01*
X82902Y320200D01*
X82687Y320196D01*
X82299Y320165D01*
X82127Y320139D01*
X81969Y320104D01*
X81825Y320061D01*
X81695Y320011D01*
X81580Y319953D01*
X81480Y319888D01*
X81393Y319815D01*
X81463Y322614D01*
X81547Y322535D01*
D02*
G37*
G36*
X429231Y333296D02*
X429259Y333245D01*
X429300Y333182D01*
X429356Y333108D01*
X429509Y332927D01*
X429844Y332571D01*
X429959Y332455D01*
X430089Y332328D01*
X430459Y332006D01*
X430567Y331927D01*
X430666Y331863D01*
X430757Y331813D01*
X430840Y331777D01*
X430915Y331756D01*
X430983Y331750D01*
X429250Y330017D01*
X429244Y330084D01*
X429222Y330159D01*
X429187Y330243D01*
X429137Y330334D01*
X429073Y330433D01*
X428994Y330541D01*
X428793Y330779D01*
X428748Y330827D01*
X428539Y331008D01*
X428422Y331096D01*
X428311Y331168D01*
X428209Y331224D01*
X428113Y331264D01*
X428025Y331288D01*
X427944Y331297D01*
X427870Y331290D01*
X429217Y333336D01*
X429231Y333296D01*
D02*
G37*
G36*
X412231D02*
X412258Y333245D01*
X412300Y333182D01*
X412356Y333108D01*
X412509Y332927D01*
X412844Y332571D01*
X412959Y332455D01*
X413089Y332328D01*
X413459Y332006D01*
X413566Y331927D01*
X413666Y331863D01*
X413757Y331813D01*
X413840Y331777D01*
X413915Y331756D01*
X413982Y331750D01*
X412250Y330017D01*
X412243Y330084D01*
X412222Y330159D01*
X412187Y330243D01*
X412137Y330334D01*
X412073Y330433D01*
X411994Y330541D01*
X411793Y330779D01*
X411748Y330827D01*
X411539Y331008D01*
X411421Y331096D01*
X411311Y331168D01*
X411208Y331224D01*
X411113Y331264D01*
X411025Y331288D01*
X410944Y331297D01*
X410870Y331290D01*
X412217Y333336D01*
X412231Y333296D01*
D02*
G37*
G36*
X626438Y324851D02*
X626403Y324879D01*
X626348Y324904D01*
X626270Y324927D01*
X626171Y324946D01*
X626051Y324962D01*
X625747Y324986D01*
X625130Y325000D01*
X625014Y327000D01*
X625240Y327002D01*
X625934Y327047D01*
X626054Y327067D01*
X626152Y327091D01*
X626230Y327119D01*
X626286Y327151D01*
X626321Y327187D01*
X626438Y324851D01*
D02*
G37*
G36*
X626438Y204351D02*
X626404Y204379D01*
X626348Y204405D01*
X626270Y204427D01*
X626172Y204447D01*
X626051Y204463D01*
X625747Y204487D01*
X625130Y204500D01*
X625014Y206500D01*
X625241Y206502D01*
X625934Y206547D01*
X626054Y206568D01*
X626153Y206592D01*
X626230Y206620D01*
X626286Y206652D01*
X626321Y206687D01*
X626438Y204351D01*
D02*
G37*
G36*
X429231Y193297D02*
X429259Y193245D01*
X429300Y193182D01*
X429356Y193109D01*
X429509Y192927D01*
X429844Y192572D01*
X429959Y192456D01*
X430089Y192329D01*
X430459Y192006D01*
X430567Y191927D01*
X430666Y191863D01*
X430757Y191813D01*
X430840Y191778D01*
X430915Y191757D01*
X430983Y191750D01*
X429250Y190018D01*
X429244Y190085D01*
X429222Y190160D01*
X429187Y190243D01*
X429137Y190334D01*
X429073Y190434D01*
X428994Y190541D01*
X428793Y190780D01*
X428748Y190827D01*
X428539Y191009D01*
X428422Y191096D01*
X428312Y191168D01*
X428209Y191224D01*
X428113Y191264D01*
X428025Y191289D01*
X427944Y191297D01*
X427870Y191290D01*
X429217Y193337D01*
X429231Y193297D01*
D02*
G37*
G36*
X412231D02*
X412258Y193245D01*
X412300Y193182D01*
X412356Y193109D01*
X412509Y192927D01*
X412844Y192572D01*
X412959Y192456D01*
X413089Y192329D01*
X413459Y192006D01*
X413567Y191927D01*
X413666Y191863D01*
X413757Y191813D01*
X413840Y191778D01*
X413915Y191757D01*
X413982Y191750D01*
X412250Y190018D01*
X412243Y190085D01*
X412222Y190160D01*
X412187Y190243D01*
X412137Y190334D01*
X412073Y190434D01*
X411994Y190541D01*
X411793Y190780D01*
X411748Y190827D01*
X411539Y191009D01*
X411421Y191096D01*
X411311Y191168D01*
X411208Y191224D01*
X411113Y191264D01*
X411025Y191289D01*
X410944Y191297D01*
X410870Y191290D01*
X412217Y193337D01*
X412231Y193297D01*
D02*
G37*
G36*
X36086Y209257D02*
X35317Y208403D01*
X33793Y209707D01*
X34438Y210403D01*
X36086Y209257D01*
D02*
G37*
G36*
X80979Y232512D02*
X81080Y232446D01*
X81195Y232388D01*
X81325Y232339D01*
X81468Y232296D01*
X81627Y232261D01*
X81799Y232234D01*
X82187Y232204D01*
X82402Y232200D01*
X82460Y230200D01*
X82245Y230196D01*
X81859Y230163D01*
X81687Y230134D01*
X81530Y230096D01*
X81388Y230051D01*
X81260Y229997D01*
X81146Y229935D01*
X81047Y229865D01*
X80963Y229786D01*
X80893Y232585D01*
X80979Y232512D01*
D02*
G37*
G36*
X547621Y215403D02*
X547596Y215347D01*
X547573Y215270D01*
X547554Y215171D01*
X547538Y215051D01*
X547514Y214747D01*
X547500Y214130D01*
X545500Y214014D01*
X545498Y214240D01*
X545453Y214934D01*
X545433Y215054D01*
X545409Y215152D01*
X545381Y215230D01*
X545349Y215286D01*
X545313Y215321D01*
X547649Y215438D01*
X547621Y215403D01*
D02*
G37*
G36*
X574502Y213759D02*
X574547Y213066D01*
X574567Y212946D01*
X574592Y212847D01*
X574620Y212770D01*
X574651Y212714D01*
X574687Y212679D01*
X572351Y212562D01*
X572379Y212596D01*
X572405Y212652D01*
X572427Y212730D01*
X572446Y212828D01*
X572463Y212949D01*
X572486Y213253D01*
X572500Y213870D01*
X574500Y213986D01*
X574502Y213759D01*
D02*
G37*
G36*
X27271Y184800D02*
X27186Y184876D01*
X27086Y184944D01*
X26971Y185004D01*
X26843Y185056D01*
X26700Y185100D01*
X26542Y185136D01*
X26370Y185164D01*
X26184Y185184D01*
X25768Y185200D01*
Y187200D01*
X25983Y187204D01*
X26370Y187236D01*
X26542Y187264D01*
X26700Y187300D01*
X26843Y187344D01*
X26971Y187396D01*
X27086Y187456D01*
X27186Y187524D01*
X27271Y187600D01*
Y184800D01*
D02*
G37*
G36*
X17964Y187524D02*
X18064Y187456D01*
X18178Y187396D01*
X18307Y187344D01*
X18450Y187300D01*
X18607Y187264D01*
X18779Y187236D01*
X18966Y187216D01*
X19382Y187200D01*
Y185200D01*
X19167Y185196D01*
X18779Y185164D01*
X18607Y185136D01*
X18450Y185100D01*
X18307Y185056D01*
X18178Y185004D01*
X18064Y184944D01*
X17964Y184876D01*
X17878Y184800D01*
Y187600D01*
X17964Y187524D01*
D02*
G37*
G36*
X20271Y174800D02*
X20186Y174876D01*
X20086Y174944D01*
X19971Y175004D01*
X19843Y175056D01*
X19699Y175100D01*
X19542Y175136D01*
X19370Y175164D01*
X19184Y175184D01*
X18768Y175200D01*
Y177200D01*
X18983Y177204D01*
X19370Y177236D01*
X19542Y177264D01*
X19699Y177300D01*
X19843Y177344D01*
X19971Y177396D01*
X20086Y177456D01*
X20186Y177524D01*
X20271Y177600D01*
Y174800D01*
D02*
G37*
G36*
X547621Y186404D02*
X547595Y186348D01*
X547573Y186270D01*
X547554Y186171D01*
X547537Y186051D01*
X547513Y185747D01*
X547500Y185130D01*
X545500Y185014D01*
X545498Y185240D01*
X545453Y185934D01*
X545433Y186054D01*
X545408Y186153D01*
X545380Y186230D01*
X545348Y186286D01*
X545313Y186321D01*
X547649Y186438D01*
X547621Y186404D01*
D02*
G37*
G36*
X626438Y189851D02*
X626404Y189879D01*
X626348Y189905D01*
X626270Y189927D01*
X626171Y189946D01*
X626051Y189963D01*
X625747Y189987D01*
X625130Y190000D01*
X625014Y192000D01*
X625241Y192002D01*
X625934Y192047D01*
X626054Y192067D01*
X626153Y192092D01*
X626230Y192120D01*
X626286Y192152D01*
X626321Y192187D01*
X626438Y189851D01*
D02*
G37*
G36*
X91233Y187598D02*
X91286Y187515D01*
X91360Y187441D01*
X91454Y187377D01*
X91568Y187323D01*
X91704Y187279D01*
X91859Y187244D01*
X92036Y187220D01*
X92232Y187205D01*
X92449Y187200D01*
X92152Y185200D01*
X89838Y185338D01*
X91201Y187692D01*
X91233Y187598D01*
D02*
G37*
G36*
X574621Y186404D02*
X574596Y186348D01*
X574573Y186270D01*
X574554Y186171D01*
X574537Y186051D01*
X574514Y185747D01*
X574500Y185130D01*
X572500Y185014D01*
X572498Y185240D01*
X572453Y185934D01*
X572433Y186054D01*
X572408Y186153D01*
X572380Y186230D01*
X572349Y186286D01*
X572313Y186321D01*
X574649Y186438D01*
X574621Y186404D01*
D02*
G37*
G36*
X626438Y232851D02*
X626404Y232879D01*
X626348Y232904D01*
X626270Y232927D01*
X626172Y232946D01*
X626051Y232963D01*
X625747Y232987D01*
X625130Y233000D01*
X625014Y235000D01*
X625241Y235002D01*
X625934Y235047D01*
X626054Y235067D01*
X626153Y235092D01*
X626230Y235120D01*
X626286Y235151D01*
X626321Y235187D01*
X626438Y232851D01*
D02*
G37*
G36*
X88464Y262524D02*
X88564Y262456D01*
X88678Y262396D01*
X88807Y262344D01*
X88950Y262300D01*
X89108Y262264D01*
X89279Y262236D01*
X89466Y262216D01*
X89882Y262200D01*
Y260200D01*
X89667Y260196D01*
X89279Y260164D01*
X89108Y260136D01*
X88950Y260100D01*
X88807Y260056D01*
X88678Y260004D01*
X88564Y259944D01*
X88464Y259876D01*
X88378Y259800D01*
Y262600D01*
X88464Y262524D01*
D02*
G37*
G36*
X381116Y261154D02*
X381091Y261098D01*
X381069Y261021D01*
X381049Y260922D01*
X381033Y260802D01*
X381009Y260498D01*
X380996Y259880D01*
X378996Y259765D01*
X378994Y259991D01*
X378949Y260685D01*
X378928Y260805D01*
X378904Y260903D01*
X378876Y260981D01*
X378844Y261037D01*
X378809Y261072D01*
X381145Y261189D01*
X381116Y261154D01*
D02*
G37*
G36*
X626438Y257851D02*
X626403Y257879D01*
X626348Y257905D01*
X626270Y257927D01*
X626171Y257946D01*
X626051Y257963D01*
X625747Y257987D01*
X625130Y258000D01*
X625014Y260000D01*
X625240Y260002D01*
X625934Y260047D01*
X626054Y260067D01*
X626152Y260092D01*
X626230Y260120D01*
X626286Y260152D01*
X626321Y260187D01*
X626438Y257851D01*
D02*
G37*
G36*
X412231Y263296D02*
X412259Y263245D01*
X412300Y263182D01*
X412356Y263108D01*
X412509Y262927D01*
X412844Y262572D01*
X412959Y262456D01*
X413089Y262329D01*
X413459Y262006D01*
X413567Y261927D01*
X413666Y261863D01*
X413757Y261813D01*
X413840Y261778D01*
X413915Y261756D01*
X413982Y261750D01*
X412250Y260018D01*
X412243Y260085D01*
X412222Y260160D01*
X412187Y260243D01*
X412137Y260334D01*
X412073Y260433D01*
X411994Y260541D01*
X411793Y260780D01*
X411748Y260827D01*
X411539Y261009D01*
X411422Y261096D01*
X411311Y261168D01*
X411208Y261224D01*
X411113Y261264D01*
X411025Y261289D01*
X410944Y261297D01*
X410870Y261290D01*
X412217Y263337D01*
X412231Y263296D01*
D02*
G37*
G36*
X89797Y272535D02*
X89896Y272465D01*
X90009Y272403D01*
X90137Y272349D01*
X90280Y272304D01*
X90437Y272266D01*
X90608Y272237D01*
X90794Y272217D01*
X91210Y272200D01*
X91152Y270200D01*
X90937Y270196D01*
X90549Y270166D01*
X90377Y270139D01*
X90219Y270104D01*
X90075Y270061D01*
X89946Y270011D01*
X89830Y269954D01*
X89729Y269888D01*
X89643Y269815D01*
X89713Y272614D01*
X89797Y272535D01*
D02*
G37*
G36*
X580002Y269760D02*
X580047Y269066D01*
X580067Y268946D01*
X580092Y268848D01*
X580120Y268770D01*
X580151Y268714D01*
X580187Y268679D01*
X577851Y268562D01*
X577879Y268596D01*
X577905Y268652D01*
X577927Y268730D01*
X577946Y268829D01*
X577963Y268949D01*
X577987Y269253D01*
X578000Y269870D01*
X580000Y269986D01*
X580002Y269760D01*
D02*
G37*
G36*
X429231Y263296D02*
X429259Y263245D01*
X429300Y263182D01*
X429356Y263108D01*
X429510Y262927D01*
X429844Y262572D01*
X429959Y262456D01*
X430089Y262329D01*
X430459Y262006D01*
X430567Y261927D01*
X430666Y261863D01*
X430757Y261813D01*
X430840Y261778D01*
X430916Y261756D01*
X430983Y261750D01*
X429250Y260018D01*
X429244Y260085D01*
X429223Y260160D01*
X429187Y260243D01*
X429137Y260334D01*
X429073Y260433D01*
X428994Y260541D01*
X428794Y260780D01*
X428749Y260827D01*
X428539Y261009D01*
X428422Y261096D01*
X428312Y261168D01*
X428209Y261224D01*
X428113Y261264D01*
X428025Y261289D01*
X427944Y261297D01*
X427871Y261290D01*
X429217Y263337D01*
X429231Y263296D01*
D02*
G37*
G36*
X574170Y241670D02*
X574144Y241685D01*
X574078Y241699D01*
X573973Y241711D01*
X573645Y241730D01*
X572137Y241750D01*
Y243750D01*
X574170Y243830D01*
Y241670D01*
D02*
G37*
G36*
X568458Y244560D02*
X568521Y244390D01*
X568623Y244240D01*
X568765Y244110D01*
X568948Y244000D01*
X569171Y243910D01*
X569435Y243840D01*
X569739Y243790D01*
X570083Y243760D01*
X570467Y243750D01*
Y241750D01*
X570087Y241743D01*
X569447Y241686D01*
X569187Y241635D01*
X568967Y241571D01*
X568787Y241492D01*
X568647Y241399D01*
X568547Y241291D01*
X568487Y241169D01*
X568467Y241033D01*
X568437Y244750D01*
X568458Y244560D01*
D02*
G37*
G36*
X80297Y242535D02*
X80396Y242465D01*
X80510Y242403D01*
X80638Y242349D01*
X80780Y242303D01*
X80937Y242266D01*
X81109Y242237D01*
X81295Y242216D01*
X81710Y242200D01*
X81652Y240200D01*
X81437Y240196D01*
X81049Y240165D01*
X80877Y240138D01*
X80719Y240103D01*
X80575Y240061D01*
X80445Y240011D01*
X80330Y239953D01*
X80229Y239888D01*
X80143Y239815D01*
X80213Y242614D01*
X80297Y242535D01*
D02*
G37*
G36*
X617033Y243533D02*
X617015Y243622D01*
X616962Y243701D01*
X616872Y243771D01*
X616748Y243832D01*
X616587Y243883D01*
X616391Y243925D01*
X616159Y243958D01*
X615892Y243981D01*
X615250Y244000D01*
Y246000D01*
X615593Y246008D01*
X615900Y246031D01*
X616172Y246070D01*
X616407Y246125D01*
X616606Y246196D01*
X616770Y246282D01*
X616897Y246384D01*
X616989Y246501D01*
X617044Y246634D01*
X617063Y246783D01*
X617033Y243533D01*
D02*
G37*
G36*
X80797Y252535D02*
X80896Y252465D01*
X81010Y252403D01*
X81138Y252349D01*
X81280Y252303D01*
X81437Y252266D01*
X81609Y252237D01*
X81795Y252216D01*
X82210Y252200D01*
X82152Y250200D01*
X81937Y250196D01*
X81549Y250165D01*
X81377Y250138D01*
X81219Y250103D01*
X81075Y250061D01*
X80945Y250011D01*
X80830Y249953D01*
X80729Y249888D01*
X80643Y249815D01*
X80713Y252614D01*
X80797Y252535D01*
D02*
G37*
G36*
X609619Y246286D02*
X608771Y246250D01*
X608301Y248250D01*
X608471Y248251D01*
X609078Y248288D01*
X609151Y248302D01*
X609206Y248318D01*
X609246Y248336D01*
X609269Y248357D01*
X609619Y246286D01*
D02*
G37*
G36*
X576754Y248336D02*
X576794Y248318D01*
X576850Y248302D01*
X576922Y248288D01*
X577010Y248277D01*
X577237Y248260D01*
X577699Y248250D01*
X577229Y246250D01*
X576381Y246286D01*
X576731Y248357D01*
X576754Y248336D01*
D02*
G37*
D10*
X522500Y44250D02*
D03*
Y25750D02*
D03*
X460000Y44250D02*
D03*
Y25750D02*
D03*
X460000Y355750D02*
D03*
Y374250D02*
D03*
X522500Y355750D02*
D03*
Y374250D02*
D03*
D11*
X440000Y355500D02*
D03*
Y374500D02*
D03*
X482500Y285500D02*
D03*
Y304500D02*
D03*
X543000Y355500D02*
D03*
Y374500D02*
D03*
X544000Y44500D02*
D03*
Y25500D02*
D03*
X440000Y44500D02*
D03*
Y25500D02*
D03*
X482500Y104500D02*
D03*
Y85500D02*
D03*
D32*
X107000Y33000D02*
D03*
D33*
X92000Y25500D02*
D03*
Y30500D02*
D03*
Y35500D02*
D03*
Y40500D02*
D03*
X122000D02*
D03*
Y35500D02*
D03*
Y30500D02*
D03*
Y25500D02*
D03*
D39*
X530000Y227250D02*
D03*
Y247500D02*
D03*
X530000Y172750D02*
D03*
Y152500D02*
D03*
X462500Y177500D02*
D03*
Y162500D02*
D03*
X462500Y247500D02*
D03*
Y232500D02*
D03*
X462500Y107500D02*
D03*
Y92500D02*
D03*
X174000Y209000D02*
D03*
Y195000D02*
D03*
X462500Y317500D02*
D03*
Y302500D02*
D03*
D40*
X477500Y243500D02*
D03*
Y231500D02*
D03*
X477500Y146500D02*
D03*
Y158500D02*
D03*
X244000Y247000D02*
D03*
Y259000D02*
D03*
Y120000D02*
D03*
Y132000D02*
D03*
X196500Y275500D02*
D03*
Y287500D02*
D03*
X196500Y148000D02*
D03*
Y160000D02*
D03*
X258000Y247000D02*
D03*
Y259000D02*
D03*
X272000Y120000D02*
D03*
Y132000D02*
D03*
X246500Y356500D02*
D03*
Y368500D02*
D03*
Y66500D02*
D03*
Y78500D02*
D03*
X244000Y328000D02*
D03*
Y340000D02*
D03*
Y38000D02*
D03*
Y50000D02*
D03*
X196500Y356500D02*
D03*
Y368500D02*
D03*
Y66500D02*
D03*
Y78500D02*
D03*
X272000Y328000D02*
D03*
Y340000D02*
D03*
Y38000D02*
D03*
Y50000D02*
D03*
X155000Y329000D02*
D03*
Y341000D02*
D03*
Y39000D02*
D03*
Y51000D02*
D03*
D41*
X419500Y288000D02*
D03*
X410000D02*
D03*
X400500D02*
D03*
Y312000D02*
D03*
X419500D02*
D03*
X419500Y78000D02*
D03*
X410000D02*
D03*
X400500D02*
D03*
Y102000D02*
D03*
X419500D02*
D03*
X419500Y218000D02*
D03*
X410000D02*
D03*
X400500D02*
D03*
Y242000D02*
D03*
X419500D02*
D03*
X419500Y148000D02*
D03*
X410000D02*
D03*
X400500D02*
D03*
Y172000D02*
D03*
X419500D02*
D03*
D42*
X455000Y330000D02*
D03*
X445000D02*
D03*
X445000Y190000D02*
D03*
X455000D02*
D03*
X61000Y340000D02*
D03*
X71000D02*
D03*
X92000Y340000D02*
D03*
X82000D02*
D03*
X134000Y33000D02*
D03*
X144000D02*
D03*
X80000Y33000D02*
D03*
X70000D02*
D03*
X86000Y209000D02*
D03*
X96000D02*
D03*
X106000Y209000D02*
D03*
X116000D02*
D03*
X76000Y209000D02*
D03*
X66000D02*
D03*
X445000Y120000D02*
D03*
X455000D02*
D03*
X455000Y260000D02*
D03*
X445000D02*
D03*
X96000Y57000D02*
D03*
X106000D02*
D03*
X80000Y44000D02*
D03*
X70000D02*
D03*
X144000Y44000D02*
D03*
X134000D02*
D03*
X56000Y209000D02*
D03*
X46000D02*
D03*
X565000Y139000D02*
D03*
X555000D02*
D03*
X565000Y260000D02*
D03*
X555000D02*
D03*
X620000Y153000D02*
D03*
X630000D02*
D03*
X620000Y246500D02*
D03*
X630000D02*
D03*
D43*
X558850Y112500D02*
D03*
Y122500D02*
D03*
X609000Y289000D02*
D03*
Y299000D02*
D03*
X609000Y102000D02*
D03*
Y112000D02*
D03*
X367500Y195000D02*
D03*
Y205000D02*
D03*
X435000Y175000D02*
D03*
Y165000D02*
D03*
X462500Y287500D02*
D03*
Y277500D02*
D03*
X462500Y137500D02*
D03*
Y147500D02*
D03*
X462500Y217500D02*
D03*
Y207500D02*
D03*
X462500Y67500D02*
D03*
Y77500D02*
D03*
X161000Y208000D02*
D03*
Y218000D02*
D03*
X161000Y197000D02*
D03*
Y187000D02*
D03*
X213000Y218000D02*
D03*
Y208000D02*
D03*
X246000Y185000D02*
D03*
Y195000D02*
D03*
X268000Y208000D02*
D03*
Y218000D02*
D03*
X235000Y195000D02*
D03*
Y185000D02*
D03*
X224000Y218000D02*
D03*
Y208000D02*
D03*
X290000Y195000D02*
D03*
Y185000D02*
D03*
X257000Y195000D02*
D03*
Y185000D02*
D03*
X279000Y218000D02*
D03*
Y208000D02*
D03*
X191000Y185000D02*
D03*
Y195000D02*
D03*
X202000Y195000D02*
D03*
Y185000D02*
D03*
X103000Y369000D02*
D03*
Y379000D02*
D03*
X114000Y369000D02*
D03*
Y379000D02*
D03*
X103000Y348000D02*
D03*
Y358000D02*
D03*
X114000D02*
D03*
Y348000D02*
D03*
X18000Y78000D02*
D03*
Y68000D02*
D03*
X29000Y78000D02*
D03*
Y68000D02*
D03*
X73000Y78000D02*
D03*
Y68000D02*
D03*
X40000D02*
D03*
Y78000D02*
D03*
X84000D02*
D03*
Y68000D02*
D03*
X435000Y315000D02*
D03*
Y305000D02*
D03*
X559000Y284000D02*
D03*
Y274000D02*
D03*
X141000Y241000D02*
D03*
Y231000D02*
D03*
X141000Y252000D02*
D03*
Y262000D02*
D03*
X123000Y297000D02*
D03*
Y287000D02*
D03*
X122500Y155250D02*
D03*
Y165250D02*
D03*
X450000Y287500D02*
D03*
Y277500D02*
D03*
X450000Y137500D02*
D03*
Y147500D02*
D03*
X450000Y217500D02*
D03*
Y207500D02*
D03*
X450000Y67500D02*
D03*
Y77500D02*
D03*
X435000Y245000D02*
D03*
Y235000D02*
D03*
X435000Y95000D02*
D03*
Y105000D02*
D03*
X150000Y187000D02*
D03*
Y197000D02*
D03*
X213000Y195000D02*
D03*
Y185000D02*
D03*
X246000Y208000D02*
D03*
Y218000D02*
D03*
X268000Y185000D02*
D03*
Y195000D02*
D03*
X235000Y218000D02*
D03*
Y208000D02*
D03*
X202000Y218000D02*
D03*
Y208000D02*
D03*
X224000Y195000D02*
D03*
Y185000D02*
D03*
X290000Y218000D02*
D03*
Y208000D02*
D03*
X257000Y218000D02*
D03*
Y208000D02*
D03*
X279000Y195000D02*
D03*
Y185000D02*
D03*
X191000Y218000D02*
D03*
Y208000D02*
D03*
X125000Y358000D02*
D03*
Y348000D02*
D03*
X125000Y369000D02*
D03*
Y379000D02*
D03*
X136000Y379000D02*
D03*
Y369000D02*
D03*
X136000Y358000D02*
D03*
Y348000D02*
D03*
X62000Y68000D02*
D03*
Y78000D02*
D03*
X106000Y68000D02*
D03*
Y78000D02*
D03*
X51000Y68000D02*
D03*
Y78000D02*
D03*
X95000Y68000D02*
D03*
Y78000D02*
D03*
D45*
X305500Y190000D02*
D03*
Y210000D02*
D03*
D46*
X399750Y370000D02*
D03*
X420000D02*
D03*
X264500Y151000D02*
D03*
X249500D02*
D03*
X19500Y209000D02*
D03*
X34500D02*
D03*
X399750Y37500D02*
D03*
X420000D02*
D03*
D47*
X625000Y259000D02*
D03*
Y286000D02*
D03*
X625000Y165500D02*
D03*
Y192500D02*
D03*
X625000Y300500D02*
D03*
Y327500D02*
D03*
X132500Y186500D02*
D03*
Y213500D02*
D03*
X625000Y140500D02*
D03*
Y113500D02*
D03*
X625000Y234000D02*
D03*
Y207000D02*
D03*
X625000Y99000D02*
D03*
Y72000D02*
D03*
X134000Y133500D02*
D03*
Y106500D02*
D03*
D48*
X573500Y214000D02*
D03*
X546500D02*
D03*
X579000Y132500D02*
D03*
X606000D02*
D03*
X579000Y270000D02*
D03*
X606000D02*
D03*
X573500Y185000D02*
D03*
X546500D02*
D03*
D49*
X126000Y247500D02*
D03*
X126000Y317500D02*
D03*
D50*
X125750Y229250D02*
D03*
X126250Y335750D02*
D03*
D51*
X80250Y126200D02*
X93800D01*
X625000Y299000D02*
X627900D01*
X601250Y296250D02*
X601750D01*
X379996Y259751D02*
Y262651D01*
X220000Y258750D02*
X220250Y258500D01*
Y255750D02*
Y258500D01*
X482550Y44725D02*
Y47625D01*
X601250Y109250D02*
X601750D01*
X625000Y101000D02*
X627900D01*
X479825Y25100D02*
X482725D01*
X305225Y211900D02*
X308125D01*
X20850Y126200D02*
X28700D01*
X20651Y116000D02*
X32250D01*
X625000Y326000D02*
X627900D01*
X625000Y284500D02*
X627900D01*
X625000Y205500D02*
X627900D01*
X625000Y191000D02*
X627900D01*
X625000Y112000D02*
X627900D01*
X625000Y71000D02*
X627900D01*
X161000Y187000D02*
Y188250D01*
X129875Y213600D02*
X132775D01*
X21150Y106500D02*
X29000D01*
X399750Y370000D02*
Y372900D01*
X610250Y247250D02*
X610750D01*
X400400Y54875D02*
Y57775D01*
X380100Y167225D02*
Y170125D01*
X609750Y159750D02*
X610250D01*
X132225Y186400D02*
X135125D01*
X565000Y245000D02*
X567250Y242750D01*
X351000Y356500D02*
Y359000D01*
X619000Y245000D02*
X620000D01*
X515000Y140500D02*
Y141000D01*
Y140500D02*
X516000Y139500D01*
X505000D02*
X505750Y140250D01*
X504000Y139500D02*
X505000D01*
X518500Y198750D02*
X518750D01*
X520000Y200000D01*
X521500Y214000D02*
Y214000D01*
X520000Y212500D02*
X521500Y214000D01*
X525750Y355750D02*
X525750Y355750D01*
X522500Y355750D02*
X525750D01*
X351000Y274000D02*
Y275000D01*
X351250D01*
X245000Y313000D02*
X245000Y313000D01*
X220000Y258500D02*
Y258750D01*
X36250Y210750D02*
Y211250D01*
X34500Y209000D02*
X36250Y210750D01*
X462500Y162000D02*
Y162500D01*
X462500Y277500D02*
X462500Y277500D01*
X37250Y146250D02*
X38250D01*
X37200Y146200D02*
X37250Y146250D01*
X89250Y186250D02*
Y187250D01*
Y186250D02*
X89300Y186200D01*
X13850Y176200D02*
X21700D01*
X92050D02*
X93800D01*
X93600Y176000D02*
X93800Y176200D01*
X89300Y186200D02*
X93800D01*
X420250Y315000D02*
X420500D01*
X419500Y314250D02*
X420250Y315000D01*
X419500Y312000D02*
Y314250D01*
X137000Y163250D02*
X140750D01*
X137000Y163250D02*
X137000Y163250D01*
X184000Y296750D02*
X184000Y296750D01*
X181000Y296750D02*
X184000D01*
X183750Y169750D02*
X183750Y169750D01*
X181000Y169750D02*
X183750D01*
X96500Y56500D02*
X96750D01*
X96000Y57000D02*
X96500Y56500D01*
X20550Y115899D02*
X20651Y116000D01*
X51000Y68000D02*
X51000Y68000D01*
X62000Y78000D02*
Y78000D01*
X134000Y283750D02*
X134000Y283750D01*
X137000D01*
X61000Y340000D02*
X61000Y340000D01*
X152000Y356250D02*
X154000D01*
X114000Y358000D02*
X114000Y358000D01*
X114000D02*
X114000D01*
X107000Y33000D02*
X110000Y36000D01*
Y41750D01*
X155000Y39000D02*
Y39000D01*
X134000Y44000D02*
X134750Y43250D01*
X123750Y35500D02*
X123750Y35500D01*
X122000Y35500D02*
X123750D01*
X122000Y30500D02*
X123500D01*
X90000D02*
X92000D01*
X89750Y35500D02*
X92000D01*
X92000Y35500D01*
X90250Y40500D02*
X92000D01*
X136750Y150250D02*
X137000D01*
X223000Y196000D02*
X223000D01*
X224000Y195000D01*
X181000Y156750D02*
X184250D01*
X181000Y156750D02*
X181000Y156750D01*
X181000Y156750D02*
Y156750D01*
X178250Y283750D02*
X178250Y283750D01*
X181000D01*
X161000Y187750D02*
Y188250D01*
X161000Y188250D02*
X161000Y188250D01*
X150250Y187250D02*
Y187750D01*
X150000Y187000D02*
X150250Y187250D01*
X308125Y211900D02*
X308225Y212000D01*
X257750Y218750D02*
X258000D01*
X257000Y218000D02*
X257750Y218750D01*
X246000Y218000D02*
Y218750D01*
X213000Y208000D02*
Y208000D01*
Y208000D02*
X213000Y208000D01*
X268000Y208000D02*
Y208000D01*
X268000Y208000D01*
X202000Y195000D02*
X202250D01*
X257000Y185000D02*
X258250Y186250D01*
X258250D01*
X244750D02*
X244750D01*
X246000Y185000D01*
X257000Y185000D02*
X257000Y185000D01*
X135125Y186400D02*
X135225Y186500D01*
X129775Y213500D02*
X129875Y213600D01*
X150000Y196750D02*
Y197000D01*
X150000Y197000D01*
X93800Y106200D02*
X99800D01*
X91950D02*
X93800D01*
Y96200D02*
X99800D01*
X91950D02*
X93800D01*
X22700D02*
X28700D01*
X20850D02*
X22700D01*
X91700Y96450D02*
X91950Y96200D01*
X87550D02*
X91450D01*
X91700Y96450D01*
Y106450D02*
X91950Y106200D01*
X87550D02*
X91450D01*
X91700Y106450D01*
X20900Y106750D02*
X21150Y106500D01*
X16750D02*
X20650D01*
X20900Y106750D01*
X16450Y96200D02*
X20350D01*
X20600Y96450D02*
X20850Y96200D01*
X20350D02*
X20600Y96450D01*
X93800Y136200D02*
X99800D01*
X91950D02*
X93800D01*
X91450D02*
X91950D01*
X87550D02*
X91450D01*
X91700Y136450D02*
X91950Y136200D01*
X91450D02*
X91700Y136450D01*
X93800Y146200D02*
X99800D01*
X91950D02*
X93800D01*
X91700Y146450D02*
X91950Y146200D01*
X87550D02*
X91450D01*
X91700Y146450D01*
X93800Y156200D02*
X99800D01*
X91950D02*
X93800D01*
X91700Y156450D02*
X91950Y156200D01*
X87550D02*
X91450D01*
X91700Y156450D01*
X93800Y166200D02*
X99800D01*
X91950D02*
X93800D01*
X91700Y166450D02*
X91950Y166200D01*
X87550D02*
X91450D01*
X91700Y166450D01*
X22700Y186200D02*
X28700D01*
X20850D02*
X22700D01*
X20600Y186450D02*
X20850Y186200D01*
X16450D02*
X20350D01*
X20600Y186450D01*
X28700Y176200D02*
X35250D01*
X13600Y176450D02*
X13850Y176200D01*
X9450D02*
X13350D01*
X13600Y176450D01*
X427500Y123000D02*
X428000D01*
X431000Y120000D01*
X410500Y123000D02*
X411000D01*
X414000Y120000D01*
X427500Y193000D02*
X428000D01*
X431000Y190000D01*
X410500Y193000D02*
X411000D01*
X414000Y190000D01*
X410500Y263000D02*
X411000D01*
X414000Y260000D01*
X427500Y263000D02*
X428000D01*
X431000Y260000D01*
X410499Y333000D02*
X411000D01*
X414000Y330000D01*
X428000Y333000D02*
X431000Y330000D01*
X427500Y333000D02*
X428000D01*
X22700Y156200D02*
X30500D01*
X30250Y156450D02*
X30500Y156200D01*
X22700Y166200D02*
X31250D01*
X93800Y126200D02*
X106450D01*
X210500Y288000D02*
X211000D01*
X232500Y281500D02*
X232500Y281500D01*
X482550Y355000D02*
Y357900D01*
X479450Y374900D02*
X479550Y375000D01*
X482450D01*
X440000Y355500D02*
X440000Y355500D01*
X435500Y374500D02*
X440000D01*
X435250Y374250D02*
X435500Y374500D01*
X399750Y372900D02*
X400588Y372062D01*
X401000D01*
X400400Y353000D02*
X400500Y352900D01*
Y350000D02*
Y352900D01*
X482450Y47725D02*
X482550Y47625D01*
X479725Y25000D02*
X479825Y25100D01*
X400400Y54875D02*
X400500Y54775D01*
X380000Y170225D02*
X380100Y170125D01*
X379900Y297000D02*
X380000Y296900D01*
Y294000D02*
Y296900D01*
X338000Y327500D02*
X338000Y327500D01*
X379896Y262751D02*
X379996Y262651D01*
X360500Y293000D02*
Y295000D01*
X380000Y340500D02*
Y343400D01*
X379900Y343500D02*
X380000Y343400D01*
Y373500D02*
Y376400D01*
X379900Y376500D02*
X380000Y376400D01*
Y134500D02*
Y137400D01*
X379900Y137500D02*
X380000Y137400D01*
X352500Y102000D02*
Y103000D01*
X363000Y18500D02*
Y19500D01*
X380000Y83500D02*
Y86400D01*
X379900Y86500D02*
X380000Y86400D01*
Y50500D02*
Y53400D01*
X379900Y53500D02*
X380000Y53400D01*
X91450Y116200D02*
X91700Y116450D01*
X91950Y116200D01*
X93800D01*
X87550D02*
X91450D01*
X91950D01*
X93800D02*
X99800D01*
X105000D01*
X107250D01*
X559000Y284000D02*
Y289000D01*
X599000Y291750D02*
X603627D01*
X627900Y326000D02*
X628000Y326100D01*
X627900Y284500D02*
X628000Y284600D01*
X627900Y205500D02*
X628000Y205600D01*
X627900Y191000D02*
X628000Y191100D01*
X627900Y112000D02*
X628000Y112100D01*
X627900Y71000D02*
X628000Y71100D01*
X606000Y132500D02*
Y135400D01*
X605900Y135500D02*
X606000Y135400D01*
X546500Y214000D02*
Y216900D01*
X546400Y217000D02*
X546500Y216900D01*
X546500Y185000D02*
Y187900D01*
X546400Y188000D02*
X546500Y187900D01*
X606000Y270000D02*
Y272900D01*
X605900Y273000D02*
X606000Y272900D01*
X627900Y299000D02*
X628000Y299100D01*
X627900Y101000D02*
X628000Y101100D01*
X603627Y291750D02*
X604877Y290500D01*
X607500D01*
X609000Y289000D01*
X599000Y296250D02*
X601250D01*
X601500Y296500D01*
X599000Y287000D02*
Y287250D01*
X569000Y300750D02*
X570250D01*
X570250Y300750D01*
X566500Y296500D02*
X566750Y296250D01*
X569000D01*
X575750Y247250D02*
X578000D01*
X575500Y247500D02*
X575750Y247250D01*
X579250Y251750D02*
X579250Y251750D01*
X578000Y251750D02*
X579250D01*
X608000Y238000D02*
Y238250D01*
X610250Y247250D02*
X610500Y247500D01*
X608000Y247250D02*
X610250D01*
X575250Y159750D02*
X577500D01*
X575000Y160000D02*
X575250Y159750D01*
X577500Y150500D02*
Y150750D01*
X607500Y150500D02*
Y150750D01*
X609750Y159750D02*
X610000Y160000D01*
X607500Y159750D02*
X609750D01*
X566750Y109250D02*
X569000D01*
X566500Y109500D02*
X566750Y109250D01*
X570250Y113750D02*
X570250Y113750D01*
X569000Y113750D02*
X570250D01*
X569000Y100000D02*
Y100250D01*
X599000Y100000D02*
Y100250D01*
X601250Y109250D02*
X601500Y109500D01*
X599000Y109250D02*
X601250D01*
X599000Y104750D02*
X603627D01*
X604877Y103500D01*
X607500D01*
X609000Y102000D01*
X561250Y104750D02*
X569000D01*
X558850Y107150D02*
X561250Y104750D01*
X558850Y107150D02*
Y112500D01*
X578900Y135500D02*
X579000Y135400D01*
Y132500D02*
Y135400D01*
X559000Y289000D02*
X561750Y291750D01*
X569000D01*
X568750Y287000D02*
X569000Y287250D01*
X566500Y287000D02*
X568750D01*
X579000Y267100D02*
X579100Y267000D01*
X579000Y267100D02*
Y270000D01*
X608000Y242750D02*
X613000D01*
X615250Y245000D01*
X618500D01*
X620000Y246500D01*
X607500Y155250D02*
X613000D01*
X615250Y153000D01*
X620000D01*
X566250Y155250D02*
X577500D01*
X567250Y242750D02*
X578000D01*
X627900Y259000D02*
X628000Y259100D01*
X625000Y259000D02*
X627900D01*
X627900Y234000D02*
X628000Y234100D01*
X625000Y234000D02*
X627900D01*
X627900Y165500D02*
X628000Y165600D01*
X625000Y165500D02*
X627900D01*
Y140500D02*
X628000Y140600D01*
X625000Y140500D02*
X627900D01*
X573400Y188000D02*
X573500Y187900D01*
Y185000D02*
Y187900D01*
X565000Y154000D02*
X566250Y155250D01*
X577000Y164250D02*
X577500D01*
X565000Y243000D02*
Y245000D01*
Y243000D02*
X565000Y243000D01*
X553000Y229500D02*
Y230000D01*
X573500Y211100D02*
Y214000D01*
Y211100D02*
X573600Y211000D01*
X577750Y238000D02*
X578000Y238250D01*
X575500Y238000D02*
X577750D01*
X260500Y72500D02*
Y72500D01*
Y362500D02*
Y362500D01*
X181000Y23000D02*
X181000D01*
X257000D02*
Y23250D01*
X258000Y50000D02*
X258000Y50000D01*
X258250D01*
X440000Y44500D02*
X443750D01*
X444000Y44250D01*
X539250Y44500D02*
X544000D01*
X476000Y65000D02*
X477000D01*
X502500Y106500D02*
Y106500D01*
X501000Y105000D02*
X502500Y106500D01*
Y51500D02*
X503500Y52500D01*
Y53000D01*
X20050Y115899D02*
X20300Y116150D01*
X20550Y115899D01*
X16150D02*
X20050D01*
X20600Y126450D02*
X20850Y126200D01*
X360000Y379500D02*
X360500Y379000D01*
X360000Y379500D02*
Y381000D01*
X341500Y88250D02*
Y90000D01*
Y88250D02*
X341500Y88250D01*
X134000Y106500D02*
X138000D01*
X132750Y105250D02*
X134000Y106500D01*
X132750Y103750D02*
Y105250D01*
X106450Y126200D02*
X106500Y126250D01*
X22700Y321200D02*
Y321200D01*
X22500Y321000D02*
X22700Y321200D01*
X16000Y321000D02*
X22500D01*
X80050Y321200D02*
X93800D01*
X80000Y321250D02*
X80050Y321200D01*
X83200Y311200D02*
X93800D01*
X83000Y311000D02*
X83200Y311200D01*
Y301200D02*
X93800D01*
X83000Y301000D02*
X83200Y301200D01*
X80200Y291200D02*
X93800D01*
X80000Y291000D02*
X80200Y291200D01*
X79300Y281200D02*
X93800D01*
X79250Y281250D02*
X79300Y281200D01*
X86950Y261200D02*
X93800D01*
X79300Y251200D02*
X93800D01*
X79250Y251250D02*
X79300Y251200D01*
X78800Y241200D02*
X93800D01*
X78750Y241250D02*
X78800Y241200D01*
X79550Y231200D02*
X93800D01*
X79500Y231150D02*
X79550Y231200D01*
X88300Y271200D02*
X93800D01*
X88250Y271250D02*
X88300Y271200D01*
X351000Y356500D02*
X351750Y357250D01*
X311000Y313000D02*
Y313000D01*
X20350Y126200D02*
X20600Y126450D01*
X20299Y126250D02*
X20350Y126200D01*
X15000Y126250D02*
X20299D01*
X482400Y357750D02*
X482550Y357900D01*
X478250Y357750D02*
X482400D01*
X137000Y290250D02*
X140250D01*
X540000Y-45003D02*
Y-55000D01*
X546665D01*
X549997D02*
X553329D01*
X551663D01*
Y-45003D01*
X549997Y-46669D01*
X564992Y-55000D02*
X558327D01*
X564992Y-48335D01*
Y-46669D01*
X563326Y-45003D01*
X559994D01*
X558327Y-46669D01*
D52*
X126000Y312500D02*
Y317500D01*
X493000Y188000D02*
X493000Y188000D01*
X273000Y133000D02*
Y133250D01*
X272000Y132000D02*
X273000Y133000D01*
X196500Y368500D02*
Y368500D01*
Y368500D02*
X196500Y368500D01*
X155000Y232000D02*
X155000D01*
X121750Y155250D02*
X122500D01*
X435500Y175000D02*
X436500Y174000D01*
X435000Y175000D02*
X435500D01*
X418500Y169000D02*
Y171000D01*
X419500Y172000D01*
X420250Y242750D02*
Y245000D01*
X419500Y242000D02*
X420250Y242750D01*
X447500Y303750D02*
X448750Y302500D01*
X447500Y303750D02*
Y304000D01*
X126000Y243750D02*
X129000Y240750D01*
X126000Y243750D02*
Y247500D01*
X126000Y312500D02*
X128500Y310000D01*
X197250Y158000D02*
X197750D01*
X196500Y158750D02*
X197250Y158000D01*
X196500Y158750D02*
Y160000D01*
X183750Y150250D02*
X183750Y150250D01*
X181000D02*
X183750D01*
X123750Y25500D02*
X123750Y25500D01*
X122000Y25500D02*
X123750D01*
X89750Y25500D02*
X89750Y25500D01*
X92000D01*
X266750Y219250D02*
X266750D01*
X268000Y218000D01*
X235000Y218000D02*
X235750Y217250D01*
X267250Y185750D02*
X268000Y185000D01*
X174250Y195000D02*
X176000Y193250D01*
X174000Y195000D02*
X174250D01*
X213000Y185000D02*
X213000D01*
X220000Y230000D02*
Y233500D01*
X117750Y62750D02*
X119000Y61500D01*
Y59000D02*
Y61500D01*
X168000Y51500D02*
X169500Y53000D01*
X168000Y51000D02*
Y51500D01*
X553000Y248000D02*
X553000D01*
X8550Y311200D02*
X22700D01*
X8550Y301200D02*
X22700D01*
X8550Y291200D02*
X22700D01*
X8550Y281200D02*
X22700D01*
X8550Y271200D02*
X22700D01*
X8550Y261200D02*
X22700D01*
X8550Y251200D02*
X22700D01*
X8550Y241200D02*
X22700D01*
X8550Y231200D02*
X22700D01*
X123000Y287000D02*
X123000Y287000D01*
X137000Y296750D02*
X137000Y296750D01*
X133750Y296750D02*
X137000D01*
D53*
X127500Y189250D02*
X130250Y186500D01*
X502500Y118500D02*
X502500D01*
X537500Y113500D02*
X537500D01*
X537500Y113500D01*
X19500Y207500D02*
X19750Y207250D01*
X19500Y207500D02*
Y209000D01*
X130250Y186500D02*
X132500D01*
X249500Y166000D02*
Y166250D01*
X104800Y106200D02*
X105000Y106000D01*
X82000Y106000D02*
X82200Y106200D01*
X34450Y106500D02*
X34500Y106450D01*
X11000D02*
X11050Y106500D01*
X418000Y372000D02*
X420000Y370000D01*
X418000Y372000D02*
Y372062D01*
X420000Y370000D02*
X420500D01*
X421800Y368700D01*
X420500Y37500D02*
X421800Y36200D01*
X420000Y37500D02*
X420500D01*
X418000Y39500D02*
Y39562D01*
Y39500D02*
X420000Y37500D01*
X400250D02*
X401550Y36200D01*
X399750Y37500D02*
X400250D01*
X397750Y39500D02*
Y39562D01*
Y39500D02*
X399750Y37500D01*
X457750Y25750D02*
X460000D01*
X455750Y27750D02*
X457750Y25750D01*
X489000Y60000D02*
Y60000D01*
X410000Y76000D02*
Y78000D01*
X34150Y126200D02*
X34200Y126150D01*
X128750Y133500D02*
X134000D01*
X128500Y133250D02*
X128750Y133500D01*
X134000D02*
X137500D01*
X137750Y133250D01*
X299000Y313000D02*
X299250D01*
X299250Y313000D01*
X10600Y126250D02*
X10700Y126150D01*
X9750Y126250D02*
X10600D01*
D58*
X644125Y200050D02*
D03*
D61*
X58250Y231200D02*
D03*
Y321200D02*
D03*
Y186200D02*
D03*
Y96200D02*
D03*
D62*
X568200Y315450D02*
D03*
Y85650D02*
D03*
X590800D02*
D03*
Y315450D02*
D03*
D63*
X79900Y361850D02*
D03*
X569900Y37850D02*
D03*
Y361850D02*
D03*
D64*
X618550Y31200D02*
D03*
Y368500D02*
D03*
X31250D02*
D03*
Y31200D02*
D03*
D65*
X528500Y300000D02*
D03*
X525000Y285500D02*
D03*
X515500Y301250D02*
D03*
X234000Y209000D02*
D03*
X515000Y141000D02*
D03*
X604000Y179000D02*
D03*
Y220000D02*
D03*
Y191000D02*
D03*
Y208000D02*
D03*
X581150Y335000D02*
D03*
X558850D02*
D03*
X520000Y273500D02*
D03*
X543000Y374500D02*
D03*
X518250Y372500D02*
D03*
X502500Y118500D02*
D03*
X537500Y113500D02*
D03*
X525000Y114000D02*
D03*
X515000Y113500D02*
D03*
X520000Y126500D02*
D03*
X547500Y113500D02*
D03*
X542500Y126500D02*
D03*
X542000Y139500D02*
D03*
X505750Y140250D02*
D03*
X530000Y139500D02*
D03*
Y152500D02*
D03*
Y172750D02*
D03*
X520000Y188000D02*
D03*
X532000D02*
D03*
X518500Y198750D02*
D03*
X521500Y214000D02*
D03*
X515250Y98500D02*
D03*
X539750Y355750D02*
D03*
X525750D02*
D03*
X541500Y300000D02*
D03*
X553500D02*
D03*
X539500Y318500D02*
D03*
X520500D02*
D03*
X530000Y336500D02*
D03*
X514500Y286000D02*
D03*
X537500Y286500D02*
D03*
X547500D02*
D03*
X542500Y273500D02*
D03*
X515199Y260000D02*
D03*
X542000Y260000D02*
D03*
X530000D02*
D03*
X530000Y247500D02*
D03*
Y227250D02*
D03*
X532000Y212500D02*
D03*
Y200000D02*
D03*
X505000Y212500D02*
D03*
X493000D02*
D03*
X505000Y200000D02*
D03*
X493000Y188000D02*
D03*
X493000Y200000D02*
D03*
X505000Y188000D02*
D03*
X272250Y329500D02*
D03*
X272000Y340000D02*
D03*
X258000Y328000D02*
D03*
Y340000D02*
D03*
X351000Y275000D02*
D03*
X263250Y153500D02*
D03*
X247500Y78500D02*
D03*
X219000Y49500D02*
D03*
X230500D02*
D03*
X273000Y133250D02*
D03*
X258000Y120000D02*
D03*
X272000D02*
D03*
X155000Y313000D02*
D03*
X167000D02*
D03*
X245000Y313000D02*
D03*
X257000D02*
D03*
X326000Y376000D02*
D03*
X246500Y368500D02*
D03*
X326000Y295000D02*
D03*
X246500Y356500D02*
D03*
X196500D02*
D03*
X196500Y368500D02*
D03*
X243250Y257250D02*
D03*
X184250Y277250D02*
D03*
X196500Y277000D02*
D03*
X167000Y232000D02*
D03*
X155000D02*
D03*
X244000Y328000D02*
D03*
Y340000D02*
D03*
X229500Y339500D02*
D03*
X220000D02*
D03*
X210500D02*
D03*
X194000Y341000D02*
D03*
X181000D02*
D03*
X168000D02*
D03*
X155000Y329000D02*
D03*
X168000D02*
D03*
X181000D02*
D03*
X194000D02*
D03*
X229500Y314500D02*
D03*
X220000Y314500D02*
D03*
X210500Y314500D02*
D03*
X193000Y313000D02*
D03*
X181250Y313000D02*
D03*
X196500Y287500D02*
D03*
X220250Y255750D02*
D03*
X210500Y258500D02*
D03*
X194000Y260000D02*
D03*
X181000D02*
D03*
Y248000D02*
D03*
X194000D02*
D03*
X210500Y233500D02*
D03*
X193000Y232000D02*
D03*
X181000D02*
D03*
X168000Y248000D02*
D03*
Y260000D02*
D03*
X19750Y207250D02*
D03*
X66000Y209000D02*
D03*
X56000Y209000D02*
D03*
X36250Y211250D02*
D03*
X46000Y209000D02*
D03*
X229500Y258500D02*
D03*
X258000Y259000D02*
D03*
X272000D02*
D03*
X244000Y247000D02*
D03*
X258000Y247000D02*
D03*
X229500Y233500D02*
D03*
X245000Y232000D02*
D03*
X272000Y247000D02*
D03*
Y232000D02*
D03*
X284000D02*
D03*
X299000D02*
D03*
X311000D02*
D03*
X324000Y191000D02*
D03*
Y210000D02*
D03*
X462500Y287500D02*
D03*
X450000Y287500D02*
D03*
X450000Y217500D02*
D03*
X462500Y232000D02*
D03*
X462500Y217500D02*
D03*
X450000Y147500D02*
D03*
X462500Y162000D02*
D03*
X462500Y147500D02*
D03*
Y137500D02*
D03*
X450000Y137500D02*
D03*
X450000Y207500D02*
D03*
X462500Y207500D02*
D03*
X462500Y277500D02*
D03*
X450000Y277500D02*
D03*
X20250Y156250D02*
D03*
X32250Y166500D02*
D03*
X38250Y146250D02*
D03*
X89250Y187250D02*
D03*
X92050Y176200D02*
D03*
X18500Y69000D02*
D03*
X29250D02*
D03*
X40250D02*
D03*
X161000Y218000D02*
D03*
X434000Y94000D02*
D03*
X447750Y92000D02*
D03*
X435000Y165000D02*
D03*
X418500Y169000D02*
D03*
X445000Y260000D02*
D03*
X447500Y246000D02*
D03*
X435000Y235000D02*
D03*
Y245000D02*
D03*
X420250Y245000D02*
D03*
X434000Y305000D02*
D03*
X448750Y302500D02*
D03*
X447500Y316000D02*
D03*
X445000Y330000D02*
D03*
X435000Y315000D02*
D03*
X420500Y315000D02*
D03*
X129000Y240750D02*
D03*
X141000Y231000D02*
D03*
X128500Y310000D02*
D03*
X141000Y262000D02*
D03*
X141000Y241000D02*
D03*
X141000Y252000D02*
D03*
X285250Y313000D02*
D03*
X270500D02*
D03*
X137000Y156750D02*
D03*
X184000Y296750D02*
D03*
X196500Y148000D02*
D03*
X183750Y169750D02*
D03*
Y150250D02*
D03*
X181000Y163250D02*
D03*
X95000Y78000D02*
D03*
X84000D02*
D03*
X73000D02*
D03*
X106000Y78000D02*
D03*
X106000Y57000D02*
D03*
X96750Y56500D02*
D03*
X106000Y68000D02*
D03*
X95000Y68000D02*
D03*
X84000D02*
D03*
X73000D02*
D03*
X32250Y116000D02*
D03*
X37250D02*
D03*
X22700Y136200D02*
D03*
X62000Y68000D02*
D03*
X51000Y68000D02*
D03*
X62000Y78000D02*
D03*
X51000Y78000D02*
D03*
X40000D02*
D03*
X29000D02*
D03*
X18000D02*
D03*
X181000Y290250D02*
D03*
X134000Y283750D02*
D03*
X82000Y340000D02*
D03*
X71000Y340000D02*
D03*
X92000Y340000D02*
D03*
X61000Y340000D02*
D03*
X123000Y297000D02*
D03*
X155000Y341000D02*
D03*
X125000Y348000D02*
D03*
X136000D02*
D03*
X103000Y379000D02*
D03*
X114000D02*
D03*
X125000D02*
D03*
X136000Y379000D02*
D03*
X103000Y369000D02*
D03*
X114000D02*
D03*
X125000D02*
D03*
X136000Y369000D02*
D03*
X136000Y358000D02*
D03*
X125000D02*
D03*
X114000Y358000D02*
D03*
X103000Y358000D02*
D03*
X114000Y348000D02*
D03*
X103000D02*
D03*
X123500Y166250D02*
D03*
X110000Y41750D02*
D03*
X80000Y44000D02*
D03*
X80000Y33000D02*
D03*
X70000D02*
D03*
X70000Y44000D02*
D03*
X155000Y39000D02*
D03*
X144000Y33000D02*
D03*
X144000Y44000D02*
D03*
X134000Y33000D02*
D03*
X134750Y43250D02*
D03*
X137000Y277250D02*
D03*
X136750Y150250D02*
D03*
X223000Y184000D02*
D03*
Y196000D02*
D03*
X184250Y156750D02*
D03*
X178250Y283750D02*
D03*
X224000Y207000D02*
D03*
X224750Y218750D02*
D03*
X161000Y187750D02*
D03*
X150250D02*
D03*
X308225Y212000D02*
D03*
X302775D02*
D03*
X367500Y205000D02*
D03*
X350500Y190750D02*
D03*
X367500Y195000D02*
D03*
X351000Y200500D02*
D03*
Y210000D02*
D03*
X309750Y193000D02*
D03*
X305500Y190000D02*
D03*
X258000Y218750D02*
D03*
X246000Y218750D02*
D03*
X280000Y218000D02*
D03*
X235750Y217250D02*
D03*
X202000Y218000D02*
D03*
X191000Y218000D02*
D03*
X202000Y208000D02*
D03*
X213000Y208000D02*
D03*
X246000Y208000D02*
D03*
X268000Y208000D02*
D03*
X257000Y208000D02*
D03*
X279000Y208000D02*
D03*
X235000Y185000D02*
D03*
X191000Y185000D02*
D03*
X202000Y185000D02*
D03*
X202250Y195000D02*
D03*
X213000Y195000D02*
D03*
X235000D02*
D03*
X246000D02*
D03*
X290000Y185000D02*
D03*
X267250Y185750D02*
D03*
X279000Y185000D02*
D03*
X290000Y195000D02*
D03*
X268000Y195000D02*
D03*
X279000D02*
D03*
X135225Y186500D02*
D03*
X129775D02*
D03*
Y213500D02*
D03*
X135225D02*
D03*
X96000Y209000D02*
D03*
X116000Y209000D02*
D03*
X106000D02*
D03*
X86000Y209000D02*
D03*
X76000Y209000D02*
D03*
X161000Y208000D02*
D03*
X161000Y197000D02*
D03*
X150000Y196750D02*
D03*
X191000Y208000D02*
D03*
X191000Y195000D02*
D03*
X176000Y193250D02*
D03*
X213000Y185000D02*
D03*
X174000Y209000D02*
D03*
X220000Y230000D02*
D03*
X213000Y218000D02*
D03*
X249500Y166250D02*
D03*
X249500Y151000D02*
D03*
X264500Y166000D02*
D03*
X139000Y59000D02*
D03*
X117750Y62750D02*
D03*
X169500Y53000D02*
D03*
X104800Y106200D02*
D03*
X105000Y96200D02*
D03*
X82200D02*
D03*
Y106200D02*
D03*
X34450Y106500D02*
D03*
X11050D02*
D03*
X11000Y96200D02*
D03*
X34000D02*
D03*
X87550D02*
D03*
X99800D02*
D03*
X87550Y106200D02*
D03*
X99800D02*
D03*
X16750Y106500D02*
D03*
X29000D02*
D03*
X16450Y96200D02*
D03*
X28700D02*
D03*
X87550Y136200D02*
D03*
X99800D02*
D03*
X87550Y146200D02*
D03*
X99800D02*
D03*
X87550Y156200D02*
D03*
X99800D02*
D03*
X87550Y166200D02*
D03*
X99800D02*
D03*
X16450Y186200D02*
D03*
X28700D02*
D03*
X9450Y176200D02*
D03*
X21700D02*
D03*
X474500Y134000D02*
D03*
Y121000D02*
D03*
Y269000D02*
D03*
Y256000D02*
D03*
X485000Y127500D02*
D03*
Y122000D02*
D03*
Y107500D02*
D03*
X485000Y102000D02*
D03*
X485000Y262500D02*
D03*
Y267700D02*
D03*
Y283000D02*
D03*
Y288000D02*
D03*
X478500Y302500D02*
D03*
X483500D02*
D03*
X480000Y85500D02*
D03*
X485000D02*
D03*
X419500Y347500D02*
D03*
Y352500D02*
D03*
X419500Y55000D02*
D03*
Y60000D02*
D03*
X484900Y374900D02*
D03*
X479450D02*
D03*
X460000Y374250D02*
D03*
X456250Y355750D02*
D03*
X443500D02*
D03*
X435250Y374250D02*
D03*
X398000Y367550D02*
D03*
X401000Y372062D02*
D03*
X400400Y347550D02*
D03*
Y353000D02*
D03*
X418000Y372062D02*
D03*
X421800Y368700D02*
D03*
X482450Y42275D02*
D03*
Y47725D02*
D03*
X485175Y25000D02*
D03*
X479725D02*
D03*
X400500Y60225D02*
D03*
Y54775D02*
D03*
X380000Y164775D02*
D03*
Y170225D02*
D03*
X379900Y291550D02*
D03*
Y297000D02*
D03*
X375000Y321500D02*
D03*
X385000D02*
D03*
X358000D02*
D03*
X363000Y333500D02*
D03*
X353000Y307500D02*
D03*
X363000Y307500D02*
D03*
X380100D02*
D03*
X358000Y347000D02*
D03*
X352500Y332750D02*
D03*
X338000Y327500D02*
D03*
X338000Y312500D02*
D03*
X352500Y248750D02*
D03*
X358000Y263000D02*
D03*
X380100Y223500D02*
D03*
X363000D02*
D03*
X353000Y223500D02*
D03*
X363000Y249500D02*
D03*
X358000Y237500D02*
D03*
X385000D02*
D03*
X375000D02*
D03*
X380600Y102000D02*
D03*
X385500Y116000D02*
D03*
X375500D02*
D03*
X352500Y43750D02*
D03*
X358000Y58000D02*
D03*
X380100Y18500D02*
D03*
X353000Y18500D02*
D03*
X363000Y44500D02*
D03*
X358000Y32500D02*
D03*
X385000D02*
D03*
X375000D02*
D03*
X379896Y262751D02*
D03*
Y257301D02*
D03*
X338000Y246500D02*
D03*
Y231500D02*
D03*
X360500Y293000D02*
D03*
X379900Y343500D02*
D03*
Y338050D02*
D03*
Y376500D02*
D03*
Y371050D02*
D03*
X357500Y142000D02*
D03*
X379900Y137500D02*
D03*
Y132050D02*
D03*
X352500Y128500D02*
D03*
X362750Y128902D02*
D03*
X357500Y116000D02*
D03*
X362750Y102000D02*
D03*
X338500Y107500D02*
D03*
Y122500D02*
D03*
X352500Y102000D02*
D03*
X337202Y37500D02*
D03*
X338000Y22500D02*
D03*
X363000Y18500D02*
D03*
X379900Y86500D02*
D03*
Y81050D02*
D03*
Y53500D02*
D03*
Y48050D02*
D03*
X99800Y116200D02*
D03*
X87550D02*
D03*
X82200D02*
D03*
X105000D02*
D03*
X622550Y326100D02*
D03*
X628000D02*
D03*
Y284600D02*
D03*
X622550D02*
D03*
X628000Y205600D02*
D03*
X622550D02*
D03*
X628000Y191100D02*
D03*
X622550D02*
D03*
X628000Y112100D02*
D03*
X622550D02*
D03*
X628000Y71100D02*
D03*
X622550D02*
D03*
X605900Y135500D02*
D03*
Y130050D02*
D03*
X546400Y217000D02*
D03*
Y211550D02*
D03*
X546400Y188000D02*
D03*
Y182550D02*
D03*
X605900Y273000D02*
D03*
Y267550D02*
D03*
X628000Y299100D02*
D03*
X622550D02*
D03*
X628000Y101100D02*
D03*
X622550D02*
D03*
X609000Y299000D02*
D03*
X584000Y294000D02*
D03*
X577750Y298750D02*
D03*
X590250Y289000D02*
D03*
X590250Y298750D02*
D03*
X599250Y249750D02*
D03*
X599250Y240000D02*
D03*
X586750Y249750D02*
D03*
X593000Y245000D02*
D03*
X598750Y162250D02*
D03*
X598750Y152500D02*
D03*
X586250D02*
D03*
X592500Y157500D02*
D03*
X590250Y111750D02*
D03*
X590250Y102000D02*
D03*
X577750D02*
D03*
Y111750D02*
D03*
X584000Y107000D02*
D03*
X609000Y112000D02*
D03*
Y102000D02*
D03*
X609000Y289000D02*
D03*
X558850Y122500D02*
D03*
Y112500D02*
D03*
X555000Y139000D02*
D03*
X543000Y151000D02*
D03*
X553000D02*
D03*
X565000Y139000D02*
D03*
X578900Y130050D02*
D03*
Y135500D02*
D03*
X555000Y87500D02*
D03*
Y77500D02*
D03*
X555000Y312500D02*
D03*
Y322500D02*
D03*
X579100Y272450D02*
D03*
Y267000D02*
D03*
X578500Y292250D02*
D03*
X559000Y274000D02*
D03*
Y284000D02*
D03*
X555000Y260000D02*
D03*
X543000Y248000D02*
D03*
X553000D02*
D03*
X565000Y260000D02*
D03*
X622550Y259100D02*
D03*
X628000D02*
D03*
X622550Y234100D02*
D03*
X628000D02*
D03*
X630000Y246500D02*
D03*
X622550Y165600D02*
D03*
X628000D02*
D03*
X622550Y140600D02*
D03*
X628000D02*
D03*
X630000Y153000D02*
D03*
X553000Y160000D02*
D03*
X553000Y169000D02*
D03*
X589000Y179000D02*
D03*
X573400Y182550D02*
D03*
Y188000D02*
D03*
X565000Y154000D02*
D03*
Y166000D02*
D03*
X589000Y191000D02*
D03*
X587400Y159750D02*
D03*
X543000Y169000D02*
D03*
X543000Y160000D02*
D03*
X543000Y238950D02*
D03*
X565000Y243000D02*
D03*
X543000Y230000D02*
D03*
X553000Y239500D02*
D03*
X553000Y229500D02*
D03*
X565000Y233000D02*
D03*
X573600Y211000D02*
D03*
Y216450D02*
D03*
X589000Y220000D02*
D03*
Y208000D02*
D03*
X587750Y242500D02*
D03*
X196500Y78500D02*
D03*
X311000Y23000D02*
D03*
X244000Y50000D02*
D03*
X272000D02*
D03*
X181000Y39000D02*
D03*
X168000D02*
D03*
X193000Y23000D02*
D03*
X210500Y24500D02*
D03*
X220000D02*
D03*
X181000Y23000D02*
D03*
X229500Y24500D02*
D03*
X194000Y39000D02*
D03*
X245000Y23000D02*
D03*
X258000Y38000D02*
D03*
X272000Y23000D02*
D03*
X257000Y23250D02*
D03*
X244000Y38000D02*
D03*
X258250Y50000D02*
D03*
X272000Y38000D02*
D03*
X299000Y23000D02*
D03*
X326000Y22500D02*
D03*
X284000Y23000D02*
D03*
X444000Y44250D02*
D03*
X456750D02*
D03*
X421800Y36200D02*
D03*
X418000Y39562D02*
D03*
X401550Y36200D02*
D03*
X397750Y39562D02*
D03*
X455750Y27750D02*
D03*
X440000Y25500D02*
D03*
X558850Y65000D02*
D03*
X539500Y81500D02*
D03*
X553500Y100000D02*
D03*
X541500D02*
D03*
X528500D02*
D03*
X520500Y81500D02*
D03*
X581150Y65000D02*
D03*
X522500Y25750D02*
D03*
X527500Y44250D02*
D03*
X539250Y44500D02*
D03*
X544000Y25001D02*
D03*
X477000Y65000D02*
D03*
X489000Y60000D02*
D03*
X502500Y63500D02*
D03*
X489000Y70000D02*
D03*
X502500Y79000D02*
D03*
Y91000D02*
D03*
X501000Y105000D02*
D03*
X503500Y53000D02*
D03*
X530000Y63500D02*
D03*
X437500Y66500D02*
D03*
X462500Y67500D02*
D03*
X450000Y67500D02*
D03*
X462500Y77500D02*
D03*
X462500Y92500D02*
D03*
X437500Y78500D02*
D03*
X419500Y78000D02*
D03*
X450000Y77500D02*
D03*
X410000Y76000D02*
D03*
X400500Y78000D02*
D03*
X419500Y102000D02*
D03*
X435000Y105000D02*
D03*
X16150Y115899D02*
D03*
X28700Y126200D02*
D03*
X10700Y115899D02*
D03*
X34150Y126200D02*
D03*
X123750Y231000D02*
D03*
X127750Y227250D02*
D03*
X128250Y333750D02*
D03*
X124250Y337750D02*
D03*
X128500Y315250D02*
D03*
X129250Y253250D02*
D03*
X123750D02*
D03*
X156000Y52750D02*
D03*
X341500Y295000D02*
D03*
X338000Y261500D02*
D03*
X326000Y283000D02*
D03*
Y261500D02*
D03*
Y364000D02*
D03*
Y342500D02*
D03*
X338000D02*
D03*
X341500Y379000D02*
D03*
X360000Y381000D02*
D03*
X340500Y175500D02*
D03*
X359500D02*
D03*
X338500Y137500D02*
D03*
X326000Y155500D02*
D03*
X326500Y137500D02*
D03*
X341500Y88250D02*
D03*
X360500Y90000D02*
D03*
X338000Y52500D02*
D03*
X326000Y74000D02*
D03*
Y52500D02*
D03*
X138000Y106500D02*
D03*
X132750Y103750D02*
D03*
X128500Y133250D02*
D03*
X137750D02*
D03*
X106500Y126250D02*
D03*
X8550Y311200D02*
D03*
Y301200D02*
D03*
Y291200D02*
D03*
Y281200D02*
D03*
Y271200D02*
D03*
Y261200D02*
D03*
Y251200D02*
D03*
Y241200D02*
D03*
Y231200D02*
D03*
X16000Y321000D02*
D03*
X80000Y321250D02*
D03*
X83000Y311000D02*
D03*
Y301000D02*
D03*
X80000Y291000D02*
D03*
X86950Y261200D02*
D03*
X79250Y251250D02*
D03*
X78750Y241250D02*
D03*
X79500Y231150D02*
D03*
X88250Y271250D02*
D03*
X78750Y282250D02*
D03*
X91800Y127300D02*
D03*
X351750Y357250D02*
D03*
X326000Y327500D02*
D03*
Y312500D02*
D03*
X311000Y313000D02*
D03*
X299250D02*
D03*
X410000Y288000D02*
D03*
X400500D02*
D03*
X419500D02*
D03*
X437500Y276500D02*
D03*
Y288500D02*
D03*
X455000Y330000D02*
D03*
X462500Y318000D02*
D03*
X400500Y312000D02*
D03*
X476000Y330000D02*
D03*
X489000Y325000D02*
D03*
X476000Y320000D02*
D03*
X502500Y318500D02*
D03*
X502500Y334000D02*
D03*
Y346000D02*
D03*
X502500Y306500D02*
D03*
Y291000D02*
D03*
Y279000D02*
D03*
X504000Y260000D02*
D03*
X455000Y260000D02*
D03*
X462500Y247500D02*
D03*
X400500Y242000D02*
D03*
Y218000D02*
D03*
X410000D02*
D03*
X419500D02*
D03*
X437500Y218500D02*
D03*
Y206500D02*
D03*
X400500Y172000D02*
D03*
Y148000D02*
D03*
X410000D02*
D03*
X419500D02*
D03*
X438750Y138250D02*
D03*
X437500Y148500D02*
D03*
X445000Y120000D02*
D03*
X455000D02*
D03*
X462500Y107500D02*
D03*
X447500Y106000D02*
D03*
X400500Y102000D02*
D03*
X350000Y155500D02*
D03*
X326500Y122500D02*
D03*
Y107500D02*
D03*
X326000Y167500D02*
D03*
X258000Y132000D02*
D03*
X244000Y120000D02*
D03*
X284000Y104500D02*
D03*
X272000D02*
D03*
X257000D02*
D03*
X245000D02*
D03*
X244000Y132000D02*
D03*
X210500Y131000D02*
D03*
X220000D02*
D03*
X229500D02*
D03*
Y106000D02*
D03*
X220000D02*
D03*
X193750Y104500D02*
D03*
X181000Y104500D02*
D03*
X168000Y132500D02*
D03*
Y120500D02*
D03*
X155000Y104500D02*
D03*
X167000D02*
D03*
X181000Y120500D02*
D03*
Y132500D02*
D03*
X194000D02*
D03*
Y120500D02*
D03*
X210500Y106000D02*
D03*
Y49500D02*
D03*
X194000Y51000D02*
D03*
X181000D02*
D03*
X155000Y23000D02*
D03*
X167000D02*
D03*
X351000Y70000D02*
D03*
X326000Y86000D02*
D03*
Y37500D02*
D03*
Y246500D02*
D03*
Y231500D02*
D03*
X462500Y302000D02*
D03*
X447500Y234000D02*
D03*
X477500Y243500D02*
D03*
Y231500D02*
D03*
X478250Y217000D02*
D03*
X477500Y204000D02*
D03*
X445000Y190000D02*
D03*
X455000D02*
D03*
X462500Y177500D02*
D03*
X447000Y176250D02*
D03*
X447500Y164000D02*
D03*
X477500Y186000D02*
D03*
Y174000D02*
D03*
Y158500D02*
D03*
Y146500D02*
D03*
X9750Y126250D02*
D03*
X15000D02*
D03*
X196500Y66500D02*
D03*
X246500D02*
D03*
X258000Y196000D02*
D03*
X289250Y207000D02*
D03*
X290250Y219000D02*
D03*
X478250Y357750D02*
D03*
X478500Y352750D02*
D03*
X123000Y287000D02*
D03*
X140250Y290250D02*
D03*
X133750Y296750D02*
D03*
D66*
X259500Y233250D02*
D03*
X121750Y155250D02*
D03*
X436500Y174000D02*
D03*
X137500Y169750D02*
D03*
X140750Y163250D02*
D03*
X123750Y35500D02*
D03*
X123500Y30500D02*
D03*
X123750Y25500D02*
D03*
X89750D02*
D03*
X90000Y30500D02*
D03*
X89750Y35500D02*
D03*
X90250Y40500D02*
D03*
X601500Y296500D02*
D03*
X598250Y300750D02*
D03*
X599000Y287000D02*
D03*
X570250Y300750D02*
D03*
X566500Y296500D02*
D03*
X575500Y247500D02*
D03*
X579250Y251750D02*
D03*
X608000Y238000D02*
D03*
X607250Y251750D02*
D03*
X610500Y247500D02*
D03*
X575000Y160000D02*
D03*
X577500Y150500D02*
D03*
X607500D02*
D03*
X606750Y164250D02*
D03*
X610000Y160000D02*
D03*
X566500Y109500D02*
D03*
X570250Y113750D02*
D03*
X569000Y100000D02*
D03*
X599000D02*
D03*
X598250Y113750D02*
D03*
X601500Y109500D02*
D03*
X566500Y287000D02*
D03*
X577000Y164250D02*
D03*
X575500Y238000D02*
D03*
X502500Y27500D02*
D03*
Y37500D02*
D03*
Y32500D02*
D03*
X502500Y370000D02*
D03*
Y365000D02*
D03*
Y360000D02*
D03*
D67*
X165000Y67000D02*
D03*
X104000Y30000D02*
D03*
X493250Y235000D02*
D03*
X511250Y165000D02*
D03*
Y171500D02*
D03*
X235000Y154000D02*
D03*
Y147500D02*
D03*
X258000Y79000D02*
D03*
X230000D02*
D03*
X155000Y362750D02*
D03*
X154000Y369250D02*
D03*
X156250Y375750D02*
D03*
X169000Y366000D02*
D03*
X184000Y356250D02*
D03*
Y362750D02*
D03*
Y369250D02*
D03*
Y375750D02*
D03*
X169000Y76000D02*
D03*
X154000Y72750D02*
D03*
Y79250D02*
D03*
Y85750D02*
D03*
X184000Y66250D02*
D03*
Y72750D02*
D03*
Y79250D02*
D03*
Y85750D02*
D03*
X298500Y166000D02*
D03*
X197750Y158000D02*
D03*
X152000Y356250D02*
D03*
X266750Y219250D02*
D03*
X258250Y186250D02*
D03*
X244750D02*
D03*
X427500Y123000D02*
D03*
X427500Y117000D02*
D03*
X434500D02*
D03*
X434500Y123000D02*
D03*
X431000Y120000D02*
D03*
X410500Y123000D02*
D03*
X410500Y117000D02*
D03*
X417500D02*
D03*
X417500Y123000D02*
D03*
X414000Y120000D02*
D03*
X427500Y193000D02*
D03*
X427500Y187000D02*
D03*
X434500D02*
D03*
X434500Y193000D02*
D03*
X431000Y190000D02*
D03*
X410500Y193000D02*
D03*
X410500Y187000D02*
D03*
X417500D02*
D03*
X417500Y193000D02*
D03*
X414000Y190000D02*
D03*
X410500Y263000D02*
D03*
X410500Y257000D02*
D03*
X417500D02*
D03*
X417500Y263000D02*
D03*
X414000Y260000D02*
D03*
X427500Y263000D02*
D03*
X427500Y257000D02*
D03*
X434500D02*
D03*
X434500Y263000D02*
D03*
X431000Y260000D02*
D03*
X410499Y333000D02*
D03*
X410500Y327000D02*
D03*
X417500D02*
D03*
X417500Y333000D02*
D03*
X414000Y330000D02*
D03*
X431000D02*
D03*
X434500Y333000D02*
D03*
X434500Y327000D02*
D03*
X427500D02*
D03*
X427500Y333000D02*
D03*
X210500Y79000D02*
D03*
X232500Y72500D02*
D03*
Y66000D02*
D03*
X210500D02*
D03*
X311000Y50500D02*
D03*
X289000D02*
D03*
Y44000D02*
D03*
Y37500D02*
D03*
X311000D02*
D03*
X311500Y65000D02*
D03*
Y87000D02*
D03*
X305000D02*
D03*
X298500D02*
D03*
Y65000D02*
D03*
X311000Y132000D02*
D03*
X289000D02*
D03*
Y125500D02*
D03*
Y119000D02*
D03*
X311000D02*
D03*
X311500Y146500D02*
D03*
Y168500D02*
D03*
X305000D02*
D03*
X298500Y146500D02*
D03*
X210500Y147500D02*
D03*
X232500Y160500D02*
D03*
X210500D02*
D03*
X311000Y259500D02*
D03*
X289000D02*
D03*
Y253000D02*
D03*
Y246500D02*
D03*
X311000D02*
D03*
X311500Y274000D02*
D03*
Y296000D02*
D03*
X305000D02*
D03*
X298500D02*
D03*
Y274000D02*
D03*
X210500Y275000D02*
D03*
X232500D02*
D03*
Y281500D02*
D03*
Y288000D02*
D03*
X210500D02*
D03*
X311500Y355000D02*
D03*
Y377000D02*
D03*
X305000D02*
D03*
X298500D02*
D03*
Y355000D02*
D03*
X311000Y340500D02*
D03*
X289000D02*
D03*
Y334000D02*
D03*
Y327500D02*
D03*
X311000D02*
D03*
X210500Y356000D02*
D03*
X232500D02*
D03*
Y362500D02*
D03*
Y369000D02*
D03*
X210500D02*
D03*
X260500Y66000D02*
D03*
X282500D02*
D03*
Y72500D02*
D03*
Y79000D02*
D03*
X260500Y72500D02*
D03*
Y362500D02*
D03*
Y369000D02*
D03*
X282500D02*
D03*
Y362500D02*
D03*
Y356000D02*
D03*
X260500D02*
D03*
X154000Y66250D02*
D03*
X491500Y241500D02*
D03*
X513500D02*
D03*
X513501Y235000D02*
D03*
X513500Y228500D02*
D03*
X491500D02*
D03*
X491500Y171500D02*
D03*
X491500Y164999D02*
D03*
X491500Y158500D02*
D03*
X513500D02*
D03*
D68*
X68000Y392950D02*
D03*
X59000Y6450D02*
D03*
X569750D02*
D03*
X643250Y318700D02*
D03*
X583500Y392950D02*
D03*
X6750Y62700D02*
D03*
X6500Y337700D02*
D03*
X643000Y63200D02*
D03*
D69*
X623875Y387000D02*
D03*
X26125Y12250D02*
D03*
X25875Y386750D02*
D03*
D70*
X65875Y393000D02*
D03*
X585875Y393250D02*
D03*
D71*
X58750Y3875D02*
D03*
X643000Y61125D02*
D03*
D72*
X6500Y57625D02*
D03*
D73*
X-3125D02*
D03*
D74*
X-1375Y348250D02*
D03*
D75*
X12500Y26125D02*
D03*
X11250Y373625D02*
D03*
X639750Y26125D02*
D03*
X639500Y373625D02*
D03*
D76*
X624000Y12250D02*
D03*
D77*
X326778Y401750D02*
D03*
D78*
X325500Y-2000D02*
D03*
D79*
X652875Y200050D02*
D03*
D80*
X3000Y60375D02*
D03*
D81*
X482500Y285500D02*
X485000Y288000D01*
X525000Y113500D02*
X525000D01*
X520000Y273500D02*
X520000Y273500D01*
X543000Y374500D02*
X543000Y374500D01*
X518250Y372500D02*
X520000Y374250D01*
X522500D01*
X525000Y113500D02*
Y114000D01*
X520000Y126500D02*
Y126500D01*
X285250Y313000D02*
X285250Y313000D01*
X284000Y313000D02*
X285250D01*
X482500Y104500D02*
X485000Y102000D01*
X456250Y355750D02*
X460000D01*
X337202Y37500D02*
X338000D01*
X584000Y294000D02*
X584000Y294000D01*
X584000D01*
X593000Y245000D02*
X593000D01*
X593000Y245000D02*
X593000Y245000D01*
X592500Y157500D02*
X592500D01*
X592500Y157500D02*
X592500Y157500D01*
X584000Y107000D02*
X584000D01*
X584000Y107000D02*
X584000Y107000D01*
X559000Y274000D02*
Y274000D01*
X543000Y238950D02*
Y239000D01*
X544000Y25001D02*
Y25500D01*
D82*
X515199Y260000D02*
X516000D01*
X493000Y212500D02*
X493000D01*
X257000Y313000D02*
Y313000D01*
X220000Y314500D02*
Y314500D01*
X181250Y313000D02*
X181250Y313000D01*
X181000Y313000D02*
X181250D01*
X462500Y232000D02*
Y232500D01*
X462500Y217500D02*
X462500Y217500D01*
D89*
X358000Y237500D02*
D03*
X363000Y224500D02*
D03*
X353000D02*
D03*
X357500Y116000D02*
D03*
X362500Y103000D02*
D03*
X352500D02*
D03*
X358000Y262500D02*
D03*
X363000Y249500D02*
D03*
X353000D02*
D03*
X357500Y142000D02*
D03*
X362500Y129000D02*
D03*
X352500D02*
D03*
X358000Y321500D02*
D03*
X363000Y308500D02*
D03*
X353000D02*
D03*
X358000Y32500D02*
D03*
X363000Y19500D02*
D03*
X353000D02*
D03*
X358000Y346500D02*
D03*
X363000Y333500D02*
D03*
X353000D02*
D03*
X358000Y57500D02*
D03*
X363000Y44500D02*
D03*
X353000D02*
D03*
X555000Y77500D02*
D03*
Y87500D02*
D03*
X380000Y224500D02*
D03*
X375000Y237500D02*
D03*
X385000D02*
D03*
X380500Y103000D02*
D03*
X375500Y116000D02*
D03*
X385500D02*
D03*
X380000Y308500D02*
D03*
X375000Y321500D02*
D03*
X385000D02*
D03*
X380000Y19500D02*
D03*
X375000Y32500D02*
D03*
X385000D02*
D03*
X555000Y322500D02*
D03*
Y312500D02*
D03*
X542500Y126500D02*
D03*
X547500Y113500D02*
D03*
X537500D02*
D03*
X542500Y273500D02*
D03*
X537500Y286500D02*
D03*
X547500D02*
D03*
X520000Y126500D02*
D03*
X525000Y113500D02*
D03*
X515000D02*
D03*
X520000Y273500D02*
D03*
X515000Y286500D02*
D03*
X525000D02*
D03*
D90*
X502500Y91000D02*
D03*
Y79000D02*
D03*
X502500Y346000D02*
D03*
Y334000D02*
D03*
X502500Y118500D02*
D03*
Y106500D02*
D03*
X477500Y216000D02*
D03*
Y204000D02*
D03*
X604000Y220000D02*
D03*
Y208000D02*
D03*
X565000Y166000D02*
D03*
Y154000D02*
D03*
X272000Y259000D02*
D03*
Y247000D02*
D03*
X258000Y132000D02*
D03*
Y120000D02*
D03*
X168000Y260000D02*
D03*
Y248000D02*
D03*
Y132500D02*
D03*
Y120500D02*
D03*
X181000Y260000D02*
D03*
Y248000D02*
D03*
Y132500D02*
D03*
Y120500D02*
D03*
X326000Y295000D02*
D03*
Y283000D02*
D03*
Y167500D02*
D03*
Y155500D02*
D03*
X258000Y340000D02*
D03*
Y328000D02*
D03*
Y50000D02*
D03*
Y38000D02*
D03*
X168000Y341000D02*
D03*
Y329000D02*
D03*
Y51000D02*
D03*
Y39000D02*
D03*
X181000Y341000D02*
D03*
Y329000D02*
D03*
Y51000D02*
D03*
Y39000D02*
D03*
X326000Y376000D02*
D03*
Y364000D02*
D03*
Y86000D02*
D03*
Y74000D02*
D03*
X437500Y276500D02*
D03*
Y288500D02*
D03*
X437500Y136500D02*
D03*
Y148500D02*
D03*
X447500Y164000D02*
D03*
Y176000D02*
D03*
X437500Y206500D02*
D03*
Y218500D02*
D03*
Y66500D02*
D03*
Y78500D02*
D03*
X447500Y234000D02*
D03*
Y246000D02*
D03*
Y94000D02*
D03*
Y106000D02*
D03*
X502500Y306500D02*
D03*
Y318500D02*
D03*
X502500Y51500D02*
D03*
Y63500D02*
D03*
X502500Y279000D02*
D03*
Y291000D02*
D03*
X477500Y174000D02*
D03*
Y186000D02*
D03*
X604000Y179000D02*
D03*
Y191000D02*
D03*
X565000Y233000D02*
D03*
Y245000D02*
D03*
X589000Y208000D02*
D03*
Y220000D02*
D03*
X589000Y179000D02*
D03*
Y191000D02*
D03*
X194000Y248000D02*
D03*
Y260000D02*
D03*
Y120500D02*
D03*
Y132500D02*
D03*
Y329000D02*
D03*
Y341000D02*
D03*
Y39000D02*
D03*
Y51000D02*
D03*
X447500Y304000D02*
D03*
Y316000D02*
D03*
D91*
X482450Y45000D02*
D03*
X482550Y25000D02*
D03*
X482550Y355000D02*
D03*
X482450Y375000D02*
D03*
D92*
X380000Y134500D02*
D03*
Y167500D02*
D03*
Y340500D02*
D03*
Y373500D02*
D03*
Y50500D02*
D03*
Y83500D02*
D03*
Y260000D02*
D03*
Y293000D02*
D03*
D93*
X489000Y325000D02*
D03*
X476000Y320000D02*
D03*
Y330000D02*
D03*
X543000Y230000D02*
D03*
X553000D02*
D03*
X543000Y151000D02*
D03*
X553000D02*
D03*
X543000Y248000D02*
D03*
X553000D02*
D03*
X543000Y160000D02*
D03*
X553000D02*
D03*
X543000Y239000D02*
D03*
X553000D02*
D03*
X553000Y169000D02*
D03*
X543000D02*
D03*
X476000Y65000D02*
D03*
X489000Y70000D02*
D03*
Y60000D02*
D03*
D94*
X530000Y336500D02*
D03*
X520500Y318500D02*
D03*
X539500D02*
D03*
X530000Y63500D02*
D03*
X539500Y81500D02*
D03*
X520500D02*
D03*
D95*
X229500Y233500D02*
D03*
X220000D02*
D03*
X210500D02*
D03*
Y258500D02*
D03*
X220000D02*
D03*
X229500D02*
D03*
Y24500D02*
D03*
X220000D02*
D03*
X210500D02*
D03*
Y49500D02*
D03*
X220000D02*
D03*
X229500D02*
D03*
Y314500D02*
D03*
X220000D02*
D03*
X210500D02*
D03*
Y339500D02*
D03*
X220000D02*
D03*
X229500D02*
D03*
Y106000D02*
D03*
X220000D02*
D03*
X210500D02*
D03*
Y131000D02*
D03*
X220000D02*
D03*
X229500D02*
D03*
D96*
X351000Y210000D02*
D03*
Y200500D02*
D03*
Y191000D02*
D03*
X324000D02*
D03*
Y200500D02*
D03*
Y210000D02*
D03*
D97*
X351000Y275000D02*
D03*
X341500Y295000D02*
D03*
X360500D02*
D03*
X351000Y70000D02*
D03*
X341500Y90000D02*
D03*
X360500D02*
D03*
X351000Y359000D02*
D03*
X341500Y379000D02*
D03*
X360500D02*
D03*
X350000Y155500D02*
D03*
X340500Y175500D02*
D03*
X359500D02*
D03*
D98*
X485000Y262500D02*
D03*
Y127500D02*
D03*
D99*
X490500Y262500D02*
D03*
X474500Y269000D02*
D03*
Y256000D02*
D03*
X490500Y127500D02*
D03*
X474500Y134000D02*
D03*
Y121000D02*
D03*
D100*
X581150Y335000D02*
D03*
X558850D02*
D03*
X581150Y65000D02*
D03*
X558850D02*
D03*
D101*
X491500Y228500D02*
D03*
Y235000D02*
D03*
Y241500D02*
D03*
X513500D02*
D03*
Y235000D02*
D03*
Y228500D02*
D03*
X210500Y288000D02*
D03*
Y275000D02*
D03*
X232500D02*
D03*
Y281500D02*
D03*
Y288000D02*
D03*
X311000Y37500D02*
D03*
Y50500D02*
D03*
X289000D02*
D03*
Y44000D02*
D03*
Y37500D02*
D03*
X311000Y327500D02*
D03*
Y340500D02*
D03*
X289000D02*
D03*
Y334000D02*
D03*
Y327500D02*
D03*
X210500Y79000D02*
D03*
Y66000D02*
D03*
X232500D02*
D03*
Y72500D02*
D03*
Y79000D02*
D03*
X210500Y369000D02*
D03*
Y356000D02*
D03*
X232500D02*
D03*
Y362500D02*
D03*
Y369000D02*
D03*
X282500Y79000D02*
D03*
Y72500D02*
D03*
Y66000D02*
D03*
X260500D02*
D03*
Y72500D02*
D03*
Y79000D02*
D03*
X282500Y369000D02*
D03*
Y362500D02*
D03*
Y356000D02*
D03*
X260500D02*
D03*
Y362500D02*
D03*
Y369000D02*
D03*
X311000Y119000D02*
D03*
Y132000D02*
D03*
X289000D02*
D03*
Y125500D02*
D03*
Y119000D02*
D03*
X311000Y246500D02*
D03*
Y259500D02*
D03*
X289000D02*
D03*
Y253000D02*
D03*
Y246500D02*
D03*
X210500Y160500D02*
D03*
Y147500D02*
D03*
X232500D02*
D03*
Y154000D02*
D03*
Y160500D02*
D03*
X491500Y158500D02*
D03*
Y165000D02*
D03*
Y171500D02*
D03*
X513500D02*
D03*
Y165000D02*
D03*
Y158500D02*
D03*
D102*
X93800Y231200D02*
D03*
Y241200D02*
D03*
Y251200D02*
D03*
Y261200D02*
D03*
Y271200D02*
D03*
Y281200D02*
D03*
Y291200D02*
D03*
Y301200D02*
D03*
Y311200D02*
D03*
Y321200D02*
D03*
X22700D02*
D03*
Y311200D02*
D03*
Y301200D02*
D03*
Y291200D02*
D03*
Y281200D02*
D03*
Y271200D02*
D03*
Y261200D02*
D03*
Y251200D02*
D03*
Y241200D02*
D03*
Y231200D02*
D03*
Y96200D02*
D03*
Y106200D02*
D03*
Y116200D02*
D03*
Y126200D02*
D03*
Y136200D02*
D03*
Y146200D02*
D03*
Y156200D02*
D03*
Y166200D02*
D03*
Y176200D02*
D03*
Y186200D02*
D03*
X93800D02*
D03*
Y176200D02*
D03*
Y166200D02*
D03*
Y156200D02*
D03*
Y146200D02*
D03*
Y136200D02*
D03*
Y126200D02*
D03*
Y116200D02*
D03*
Y106200D02*
D03*
Y96200D02*
D03*
D103*
X502500Y365000D02*
D03*
Y360000D02*
D03*
Y370000D02*
D03*
X502500Y32500D02*
D03*
Y37500D02*
D03*
Y27500D02*
D03*
D104*
X264500Y166000D02*
D03*
X249500D02*
D03*
D105*
X169000Y366000D02*
D03*
Y76000D02*
D03*
D106*
X154000Y375750D02*
D03*
Y369250D02*
D03*
Y362750D02*
D03*
Y356250D02*
D03*
X184000D02*
D03*
Y362750D02*
D03*
Y369250D02*
D03*
Y375750D02*
D03*
X154000Y85750D02*
D03*
Y79250D02*
D03*
Y72750D02*
D03*
Y66250D02*
D03*
X184000D02*
D03*
Y72750D02*
D03*
Y79250D02*
D03*
Y85750D02*
D03*
D107*
X593000Y245000D02*
D03*
X584000Y107000D02*
D03*
Y294000D02*
D03*
X592500Y157500D02*
D03*
D108*
X608000Y238250D02*
D03*
Y242750D02*
D03*
Y247250D02*
D03*
Y251750D02*
D03*
X578000D02*
D03*
Y247250D02*
D03*
Y242750D02*
D03*
Y238250D02*
D03*
X599000Y100250D02*
D03*
Y104750D02*
D03*
Y109250D02*
D03*
Y113750D02*
D03*
X569000D02*
D03*
Y109250D02*
D03*
Y104750D02*
D03*
Y100250D02*
D03*
X599000Y287250D02*
D03*
Y291750D02*
D03*
Y296250D02*
D03*
Y300750D02*
D03*
X569000D02*
D03*
Y296250D02*
D03*
Y291750D02*
D03*
Y287250D02*
D03*
X607500Y150750D02*
D03*
Y155250D02*
D03*
Y159750D02*
D03*
Y164250D02*
D03*
X577500D02*
D03*
Y159750D02*
D03*
Y155250D02*
D03*
Y150750D02*
D03*
D109*
X414000Y330000D02*
D03*
X431000D02*
D03*
X414000Y190000D02*
D03*
X431000D02*
D03*
X414000Y260000D02*
D03*
X431000D02*
D03*
X414000Y120000D02*
D03*
X431000D02*
D03*
D110*
X139000Y59000D02*
D03*
X119000D02*
D03*
D111*
X137000Y150250D02*
D03*
Y156750D02*
D03*
Y163250D02*
D03*
Y169750D02*
D03*
X181000Y150250D02*
D03*
Y156750D02*
D03*
Y163250D02*
D03*
Y169750D02*
D03*
X181000Y296750D02*
D03*
Y290250D02*
D03*
Y283750D02*
D03*
Y277250D02*
D03*
X137000Y296750D02*
D03*
Y290250D02*
D03*
Y283750D02*
D03*
Y277250D02*
D03*
D112*
X193000Y23000D02*
D03*
X181000D02*
D03*
X193000Y313000D02*
D03*
X181000D02*
D03*
X245000Y23000D02*
D03*
X257000D02*
D03*
X245000Y313000D02*
D03*
X257000D02*
D03*
X193000Y104500D02*
D03*
X181000D02*
D03*
X193000Y232000D02*
D03*
X181000D02*
D03*
X245000Y104500D02*
D03*
X257000D02*
D03*
X245000Y232000D02*
D03*
X257000D02*
D03*
X299000Y23000D02*
D03*
X311000D02*
D03*
X299000Y313000D02*
D03*
X311000D02*
D03*
X299000Y23000D02*
D03*
X311000D02*
D03*
X299000Y232000D02*
D03*
X311000D02*
D03*
X493000Y188000D02*
D03*
X505000D02*
D03*
X493000Y212500D02*
D03*
X505000D02*
D03*
D113*
X400500Y57500D02*
D03*
X419500D02*
D03*
X400500Y350000D02*
D03*
X419500D02*
D03*
D114*
X326000Y22500D02*
D03*
X338000D02*
D03*
X326000Y312500D02*
D03*
X338000D02*
D03*
X155000Y23000D02*
D03*
X167000D02*
D03*
X155000Y313000D02*
D03*
X167000D02*
D03*
X272000Y23000D02*
D03*
X284000D02*
D03*
X272000Y313000D02*
D03*
X284000D02*
D03*
X326500Y107500D02*
D03*
X338500D02*
D03*
X326000Y231500D02*
D03*
X338000D02*
D03*
X155000Y104500D02*
D03*
X167000D02*
D03*
X155000Y232000D02*
D03*
X167000D02*
D03*
X272000Y104500D02*
D03*
X284000D02*
D03*
X272000Y232000D02*
D03*
X284000D02*
D03*
X493000Y200000D02*
D03*
X505000D02*
D03*
X532000Y200000D02*
D03*
X520000D02*
D03*
X528500Y100000D02*
D03*
X516500D02*
D03*
X541500Y300000D02*
D03*
X553500D02*
D03*
X541500Y100000D02*
D03*
X553500D02*
D03*
X528500Y300000D02*
D03*
X516500D02*
D03*
X532000Y188000D02*
D03*
X520000D02*
D03*
X532000Y212500D02*
D03*
X520000D02*
D03*
X530000Y139500D02*
D03*
X542000D02*
D03*
X530000Y260000D02*
D03*
X542000D02*
D03*
X516000Y139500D02*
D03*
X504000D02*
D03*
X516000Y260000D02*
D03*
X504000D02*
D03*
X338000Y52500D02*
D03*
X326000D02*
D03*
X338000Y342500D02*
D03*
X326000D02*
D03*
Y37500D02*
D03*
X338000D02*
D03*
X326000Y327500D02*
D03*
X338000D02*
D03*
X338500Y137500D02*
D03*
X326500D02*
D03*
X338000Y261500D02*
D03*
X326000D02*
D03*
X326500Y122500D02*
D03*
X338500D02*
D03*
X326000Y246500D02*
D03*
X338000D02*
D03*
D115*
X298500Y65000D02*
D03*
X311500D02*
D03*
Y87000D02*
D03*
X305000D02*
D03*
X298500D02*
D03*
Y355000D02*
D03*
X311500D02*
D03*
Y377000D02*
D03*
X305000D02*
D03*
X298500D02*
D03*
Y146500D02*
D03*
X311500D02*
D03*
Y168500D02*
D03*
X305000D02*
D03*
X298500D02*
D03*
Y274000D02*
D03*
X311500D02*
D03*
Y296000D02*
D03*
X305000D02*
D03*
X298500D02*
D03*
D116*
X324750Y394100D02*
D03*
D117*
X325500Y5600D02*
D03*
M02*
