%FSLAX44Y44*%
%MOMM*%
G71*
G01*
G75*
G04 Layer_Physical_Order=3*
G04 Layer_Color=16440176*
%ADD10R,1.5000X7.0000*%
%ADD11R,1.5000X7.0000*%
%ADD12R,1.5000X1.5000*%
%ADD13R,1.5000X4.4000*%
%ADD14C,0.8000*%
%ADD15C,0.2000*%
%ADD16C,1.0000*%
%ADD17C,5.0000*%
%ADD18C,5.8000*%
%ADD19C,0.8000*%
%ADD20C,0.2500*%
G36*
X896156Y900434D02*
X896070Y900000D01*
X896119Y899751D01*
X896103Y899498D01*
X896446Y896888D01*
X896608Y896412D01*
X896706Y895919D01*
X897714Y893486D01*
X897993Y893068D01*
X898215Y892617D01*
X899818Y890528D01*
X900196Y890196D01*
X900528Y889818D01*
X902617Y888215D01*
X903068Y887993D01*
X903486Y887714D01*
X905919Y886706D01*
X906412Y886608D01*
X906888Y886446D01*
X909498Y886103D01*
X909754Y886120D01*
X910005Y886070D01*
X975257Y886150D01*
X976156Y885253D01*
Y93844D01*
X910434D01*
X910000Y93930D01*
X909751Y93881D01*
X909498Y93897D01*
X906888Y93554D01*
X906412Y93392D01*
X905919Y93294D01*
X903486Y92286D01*
X903068Y92007D01*
X902617Y91784D01*
X900528Y90182D01*
X900196Y89804D01*
X899818Y89472D01*
X898215Y87383D01*
X897993Y86932D01*
X897714Y86514D01*
X896706Y84081D01*
X896608Y83588D01*
X896446Y83112D01*
X896103Y80502D01*
X896120Y80247D01*
X896070Y79996D01*
X896151Y4742D01*
X895254Y3844D01*
X83844D01*
Y79566D01*
X83930Y80000D01*
X83881Y80249D01*
X83897Y80502D01*
X83554Y83112D01*
X83392Y83588D01*
X83294Y84081D01*
X82286Y86514D01*
X82007Y86932D01*
X81784Y87383D01*
X80182Y89472D01*
X79804Y89804D01*
X79472Y90182D01*
X77383Y91784D01*
X76932Y92007D01*
X76514Y92286D01*
X74082Y93294D01*
X73588Y93392D01*
X73112Y93553D01*
X70502Y93897D01*
X70249Y93881D01*
X70000Y93930D01*
X69566Y93844D01*
X3844D01*
Y886156D01*
X69566D01*
X70000Y886070D01*
X70249Y886119D01*
X70502Y886103D01*
X73112Y886447D01*
X73588Y886608D01*
X74082Y886706D01*
X76514Y887714D01*
X76932Y887993D01*
X77383Y888215D01*
X79472Y889818D01*
X79804Y890196D01*
X80182Y890528D01*
X81784Y892617D01*
X82007Y893068D01*
X82286Y893486D01*
X83294Y895919D01*
X83392Y896412D01*
X83554Y896888D01*
X83897Y899498D01*
X83881Y899753D01*
X83930Y900004D01*
X83849Y975258D01*
X84747Y976156D01*
X896156D01*
Y900434D01*
D02*
G37*
%LPC*%
G36*
X475000Y238806D02*
X473303Y238583D01*
X471722Y237928D01*
X470364Y236886D01*
X469322Y235528D01*
X468667Y233947D01*
X468444Y232250D01*
X468667Y230553D01*
X469322Y228972D01*
X470364Y227614D01*
X471722Y226572D01*
X473303Y225917D01*
X475000Y225694D01*
X476697Y225917D01*
X478278Y226572D01*
X479636Y227614D01*
X480678Y228972D01*
X481333Y230553D01*
X481556Y232250D01*
X481333Y233947D01*
X480678Y235528D01*
X479636Y236886D01*
X478278Y237928D01*
X476697Y238583D01*
X475000Y238806D01*
D02*
G37*
G36*
X509000Y241556D02*
X507303Y241333D01*
X505722Y240678D01*
X504364Y239636D01*
X503322Y238278D01*
X502667Y236697D01*
X502444Y235000D01*
X502667Y233303D01*
X503322Y231722D01*
X504364Y230364D01*
X505722Y229322D01*
X507303Y228667D01*
X509000Y228444D01*
X510697Y228667D01*
X512278Y229322D01*
X513636Y230364D01*
X514678Y231722D01*
X515333Y233303D01*
X515556Y235000D01*
X515333Y236697D01*
X514678Y238278D01*
X513636Y239636D01*
X512278Y240678D01*
X510697Y241333D01*
X509000Y241556D01*
D02*
G37*
G36*
X417000Y323556D02*
X415303Y323333D01*
X413722Y322678D01*
X412364Y321636D01*
X411322Y320278D01*
X410667Y318697D01*
X410444Y317000D01*
X410667Y315303D01*
X411322Y313722D01*
X412364Y312364D01*
X412663Y312135D01*
Y310865D01*
X412364Y310636D01*
X411322Y309278D01*
X410667Y307697D01*
X410444Y306000D01*
X410667Y304303D01*
X411322Y302722D01*
X412364Y301364D01*
X412663Y301135D01*
Y299865D01*
X412364Y299636D01*
X411322Y298278D01*
X410667Y296697D01*
X410444Y295000D01*
X410667Y293303D01*
X411322Y291722D01*
X412364Y290364D01*
X412663Y290135D01*
Y288865D01*
X412364Y288636D01*
X411322Y287278D01*
X410667Y285697D01*
X410444Y284000D01*
X410667Y282303D01*
X411322Y280722D01*
X412364Y279364D01*
X412663Y279135D01*
Y277865D01*
X412364Y277636D01*
X411322Y276278D01*
X410667Y274697D01*
X410444Y273000D01*
X410667Y271303D01*
X411322Y269722D01*
X412364Y268364D01*
X413722Y267322D01*
X415303Y266667D01*
X417000Y266444D01*
X418697Y266667D01*
X420278Y267322D01*
X421636Y268364D01*
X422678Y269722D01*
X423333Y271303D01*
X423556Y273000D01*
X423333Y274697D01*
X422678Y276278D01*
X421636Y277636D01*
X421337Y277865D01*
Y279135D01*
X421636Y279364D01*
X422678Y280722D01*
X423333Y282303D01*
X423556Y284000D01*
X423333Y285697D01*
X422678Y287278D01*
X421636Y288636D01*
X421337Y288865D01*
Y290135D01*
X421636Y290364D01*
X422678Y291722D01*
X423333Y293303D01*
X423556Y295000D01*
X423333Y296697D01*
X422678Y298278D01*
X421636Y299636D01*
X421337Y299865D01*
Y301135D01*
X421636Y301364D01*
X422678Y302722D01*
X423333Y304303D01*
X423556Y306000D01*
X423333Y307697D01*
X422678Y309278D01*
X421636Y310636D01*
X421337Y310865D01*
Y312135D01*
X421636Y312364D01*
X422678Y313722D01*
X423333Y315303D01*
X423556Y317000D01*
X423333Y318697D01*
X422678Y320278D01*
X421636Y321636D01*
X420278Y322678D01*
X418697Y323333D01*
X417000Y323556D01*
D02*
G37*
G36*
X475000Y184056D02*
X473303Y183833D01*
X471722Y183178D01*
X470364Y182136D01*
X469322Y180778D01*
X468667Y179197D01*
X468444Y177500D01*
X468667Y175803D01*
X469322Y174222D01*
X470364Y172864D01*
X471722Y171822D01*
X473303Y171167D01*
X475000Y170944D01*
X476697Y171167D01*
X478278Y171822D01*
X479636Y172864D01*
X480678Y174222D01*
X481333Y175803D01*
X481556Y177500D01*
X481333Y179197D01*
X480678Y180778D01*
X479636Y182136D01*
X478278Y183178D01*
X476697Y183833D01*
X475000Y184056D01*
D02*
G37*
G36*
X494750Y220056D02*
X493053Y219833D01*
X491472Y219178D01*
X490114Y218136D01*
X489072Y216778D01*
X488417Y215197D01*
X488194Y213500D01*
X488417Y211803D01*
X489072Y210222D01*
X490114Y208864D01*
X491472Y207822D01*
X492049Y207583D01*
Y206313D01*
X491722Y206178D01*
X490364Y205136D01*
X489322Y203778D01*
X488667Y202197D01*
X488444Y200500D01*
X488667Y198803D01*
X489322Y197222D01*
X490364Y195864D01*
X491722Y194822D01*
X493303Y194167D01*
X495000Y193944D01*
X496697Y194167D01*
X498278Y194822D01*
X499636Y195864D01*
X499990Y196326D01*
X501260D01*
X501614Y195864D01*
X502972Y194822D01*
X504553Y194167D01*
X506250Y193944D01*
X507947Y194167D01*
X509528Y194822D01*
X510886Y195864D01*
X511928Y197222D01*
X512583Y198803D01*
X512806Y200500D01*
X512583Y202197D01*
X511928Y203778D01*
X510886Y205136D01*
X509528Y206178D01*
X507947Y206833D01*
X506250Y207056D01*
X504553Y206833D01*
X502972Y206178D01*
X501614Y205136D01*
X501260Y204674D01*
X499990D01*
X499636Y205136D01*
X498278Y206178D01*
X496697Y206833D01*
X496579Y206848D01*
X496447Y207167D01*
X498028Y207822D01*
X498028D01*
X498028Y207822D01*
X499386Y208864D01*
X500428Y210222D01*
X501083Y211803D01*
X501306Y213500D01*
X501083Y215197D01*
X500428Y216778D01*
X499386Y218136D01*
X498028Y219178D01*
X496447Y219833D01*
X494750Y220056D01*
D02*
G37*
G36*
X562000Y235556D02*
X560303Y235333D01*
X558722Y234678D01*
X557364Y233636D01*
X556322Y232278D01*
X555667Y230697D01*
X555444Y229000D01*
X555667Y227303D01*
X556322Y225722D01*
X557260Y224500D01*
X556322Y223278D01*
X555667Y221697D01*
X555444Y220000D01*
X555667Y218303D01*
X556322Y216722D01*
X557260Y215500D01*
X556322Y214278D01*
X555667Y212697D01*
X555444Y211000D01*
X555667Y209303D01*
X556322Y207722D01*
X557260Y206500D01*
X556322Y205278D01*
X555667Y203697D01*
X555444Y202000D01*
X555667Y200303D01*
X556322Y198722D01*
X557364Y197364D01*
X558722Y196322D01*
X560303Y195667D01*
X562000Y195444D01*
X563697Y195667D01*
X565278Y196322D01*
X566636Y197364D01*
X567678Y198722D01*
X568333Y200303D01*
X568556Y202000D01*
X568333Y203697D01*
X567678Y205278D01*
X566740Y206500D01*
X567678Y207722D01*
X568333Y209303D01*
X568556Y211000D01*
X568333Y212697D01*
X567678Y214278D01*
X566740Y215500D01*
X567678Y216722D01*
X568333Y218303D01*
X568556Y220000D01*
X568333Y221697D01*
X567678Y223278D01*
X566740Y224500D01*
X567678Y225722D01*
X568333Y227303D01*
X568556Y229000D01*
X568333Y230697D01*
X567678Y232278D01*
X566636Y233636D01*
X565278Y234678D01*
X563697Y235333D01*
X562000Y235556D01*
D02*
G37*
G36*
X445000Y324556D02*
X443303Y324333D01*
X441722Y323678D01*
X440364Y322636D01*
X439322Y321278D01*
X438667Y319697D01*
X438444Y318000D01*
X438667Y316303D01*
X439322Y314722D01*
X440364Y313364D01*
X440990Y312884D01*
Y311614D01*
X440386Y311151D01*
X439344Y309793D01*
X438689Y308212D01*
X438466Y306515D01*
X438689Y304818D01*
X439344Y303237D01*
X440386Y301879D01*
X441744Y300837D01*
X442807Y300397D01*
Y299127D01*
X441722Y298678D01*
X440364Y297636D01*
X439322Y296278D01*
X438667Y294697D01*
X438444Y293000D01*
X438667Y291303D01*
X439322Y289722D01*
X440364Y288364D01*
X441722Y287322D01*
X442174Y287135D01*
X442174Y285865D01*
X441722Y285678D01*
X440364Y284636D01*
X439322Y283278D01*
X438667Y281697D01*
X438444Y280000D01*
X438667Y278303D01*
X439322Y276722D01*
X440364Y275364D01*
X441314Y274635D01*
X441314Y273365D01*
X440364Y272636D01*
X439322Y271278D01*
X438667Y269697D01*
X438444Y268000D01*
X438667Y266303D01*
X439322Y264722D01*
X440364Y263364D01*
X441640Y262385D01*
Y261115D01*
X440364Y260136D01*
X439322Y258778D01*
X438667Y257197D01*
X438444Y255500D01*
X438667Y253803D01*
X439322Y252222D01*
X440364Y250864D01*
X441722Y249822D01*
X443303Y249167D01*
X445000Y248944D01*
X446697Y249167D01*
X448278Y249822D01*
X449636Y250864D01*
X450678Y252222D01*
X451333Y253803D01*
X451556Y255500D01*
X451333Y257197D01*
X450678Y258778D01*
X449636Y260136D01*
X448278Y261178D01*
Y262322D01*
X449636Y263364D01*
X450678Y264722D01*
X451333Y266303D01*
X451556Y268000D01*
X451333Y269697D01*
X450678Y271278D01*
X449636Y272636D01*
X448278Y273678D01*
X448278Y274322D01*
X449636Y275364D01*
X450678Y276722D01*
X451333Y278303D01*
X451556Y280000D01*
X451333Y281697D01*
X450678Y283278D01*
X449636Y284636D01*
X448278Y285678D01*
X446697Y286333D01*
D01*
D01*
D01*
X448278Y287322D01*
X448278D01*
X449636Y288364D01*
X450678Y289722D01*
X451333Y291303D01*
X451556Y293000D01*
X451333Y294697D01*
X450678Y296278D01*
X449636Y297636D01*
X448278Y298678D01*
X447215Y299118D01*
Y300388D01*
X448300Y300837D01*
X449658Y301879D01*
X450699Y303237D01*
X451354Y304818D01*
X451578Y306515D01*
X451354Y308212D01*
X450699Y309793D01*
X449658Y311151D01*
X448300Y312193D01*
X448278Y312202D01*
Y312322D01*
X449636Y313364D01*
X450678Y314722D01*
X451333Y316303D01*
X451556Y318000D01*
X451333Y319697D01*
X450678Y321278D01*
X449636Y322636D01*
X448278Y323678D01*
X446697Y324333D01*
X445000Y324556D01*
D02*
G37*
G36*
X562497Y891192D02*
X418307Y891094D01*
X418250Y891118D01*
X417871D01*
X417500Y891192D01*
X417129Y891118D01*
X416750D01*
X414799Y890730D01*
X413414Y890156D01*
X411760Y889051D01*
X411229Y888521D01*
X410699Y887990D01*
X409594Y886336D01*
X409258Y885525D01*
X409020Y884951D01*
X408632Y883000D01*
Y882620D01*
X408558Y882247D01*
X408656Y738057D01*
X408632Y738000D01*
Y737621D01*
X408558Y737250D01*
X408632Y736879D01*
Y736500D01*
X409020Y734549D01*
X409258Y733975D01*
X409594Y733164D01*
X410699Y731510D01*
X411229Y730979D01*
X411760Y730449D01*
X413414Y729344D01*
X414799Y728770D01*
X416750Y728382D01*
X417130D01*
X417503Y728308D01*
X422758Y728312D01*
X423656Y727414D01*
Y724630D01*
X422453Y724222D01*
X422136Y724636D01*
X420778Y725678D01*
X419197Y726333D01*
X417500Y726556D01*
X415803Y726333D01*
X414222Y725678D01*
X412864Y724636D01*
X411822Y723278D01*
X411167Y721697D01*
X410944Y720000D01*
X411167Y718303D01*
X411822Y716722D01*
X412864Y715364D01*
X413163Y715135D01*
Y713865D01*
X412864Y713636D01*
X411822Y712278D01*
X411167Y710697D01*
X410944Y709000D01*
X411167Y707303D01*
X411822Y705722D01*
X412864Y704364D01*
X413163Y704135D01*
Y702865D01*
X412864Y702636D01*
X411822Y701278D01*
X411167Y699697D01*
X410944Y698000D01*
X411167Y696303D01*
X411822Y694722D01*
X412864Y693364D01*
X413163Y693135D01*
Y691865D01*
X412864Y691636D01*
X411822Y690278D01*
X411167Y688697D01*
X410944Y687000D01*
X411167Y685303D01*
X411822Y683722D01*
X412864Y682364D01*
X413163Y682135D01*
Y680865D01*
X412864Y680636D01*
X411822Y679278D01*
X411167Y677697D01*
X410944Y676000D01*
X411167Y674303D01*
X411822Y672722D01*
X412864Y671364D01*
X414222Y670322D01*
X415803Y669667D01*
X417500Y669444D01*
X419197Y669667D01*
X420778Y670322D01*
X422136Y671364D01*
X423178Y672722D01*
X423833Y674303D01*
X424056Y676000D01*
X423833Y677697D01*
X423178Y679278D01*
X422136Y680636D01*
X421837Y680865D01*
Y682135D01*
X422136Y682364D01*
X422905Y683367D01*
X424164Y683201D01*
X424258Y682975D01*
X424594Y682164D01*
X425699Y680510D01*
X426229Y679979D01*
X426760Y679449D01*
X428414Y678344D01*
X429799Y677770D01*
X429799Y677770D01*
X429799Y677770D01*
D01*
X429799Y677770D01*
X429799Y677770D01*
X431750Y677382D01*
X432130D01*
X432503Y677308D01*
X546693Y677405D01*
X546750Y677382D01*
X547129D01*
X547500Y677308D01*
X547871Y677382D01*
X548250D01*
X550201Y677770D01*
X550775Y678008D01*
X551586Y678344D01*
X553240Y679449D01*
X553771Y679979D01*
X554262Y680471D01*
X554518Y680365D01*
X555435Y679752D01*
Y675000D01*
Y626565D01*
X417000D01*
X415042Y626307D01*
X413218Y625551D01*
X411651Y624349D01*
X410449Y622782D01*
X409693Y620958D01*
X409435Y619000D01*
Y578133D01*
X392401Y561099D01*
X391199Y559532D01*
X390443Y557708D01*
X390185Y555750D01*
Y520750D01*
Y337766D01*
Y254250D01*
X390443Y252292D01*
X391199Y250468D01*
X392401Y248901D01*
X409435Y231867D01*
Y191000D01*
X409693Y189042D01*
X410449Y187218D01*
X411651Y185651D01*
X413218Y184449D01*
X415042Y183693D01*
X417000Y183435D01*
X418958Y183693D01*
X420782Y184449D01*
X422349Y185651D01*
X423551Y187218D01*
X424307Y189042D01*
X424565Y191000D01*
Y235000D01*
X424565Y235000D01*
X424337Y236730D01*
X424307Y236958D01*
X423551Y238782D01*
X422349Y240349D01*
X422349Y240349D01*
X405315Y257383D01*
Y330202D01*
X528100D01*
X554685Y303617D01*
Y270000D01*
X554943Y268042D01*
X555699Y266218D01*
X556901Y264651D01*
X558468Y263449D01*
X560292Y262693D01*
X562250Y262435D01*
X564208Y262693D01*
X566032Y263449D01*
X567599Y264651D01*
X568801Y266218D01*
X569557Y268042D01*
X569815Y270000D01*
Y304117D01*
X587599Y321901D01*
X588801Y323468D01*
X589114Y324223D01*
X589557Y325292D01*
X589815Y327250D01*
Y449250D01*
X589557Y451208D01*
X589114Y452277D01*
X588801Y453032D01*
X588279Y453713D01*
X587599Y454599D01*
X587599Y454599D01*
X574065Y468133D01*
Y521687D01*
X573807Y523645D01*
X573364Y524714D01*
X573051Y525470D01*
X572529Y526150D01*
X571849Y527036D01*
X571849Y527037D01*
X570565Y528321D01*
Y675000D01*
Y719000D01*
X570307Y720958D01*
X569551Y722782D01*
X568349Y724349D01*
X566782Y725551D01*
X564958Y726307D01*
X563000Y726565D01*
X561042Y726307D01*
X559218Y725551D01*
X557651Y724349D01*
X557563Y724235D01*
X556360Y724642D01*
X556354Y727503D01*
X557251Y728403D01*
X561693Y728406D01*
X561750Y728382D01*
X562129D01*
X562500Y728308D01*
X562871Y728382D01*
X563250D01*
X565201Y728770D01*
X565775Y729008D01*
X566586Y729344D01*
X568240Y730449D01*
X568771Y730979D01*
X569301Y731510D01*
X570406Y733164D01*
X570980Y734549D01*
X571368Y736500D01*
Y736880D01*
X571442Y737253D01*
X571344Y881443D01*
X571368Y881500D01*
Y881879D01*
X571442Y882250D01*
X571368Y882621D01*
Y883000D01*
X570980Y884951D01*
X570742Y885525D01*
X570406Y886336D01*
X569301Y887990D01*
X568771Y888521D01*
X568240Y889051D01*
X566586Y890156D01*
X565775Y890492D01*
X565201Y890730D01*
X563250Y891118D01*
X562870D01*
X562497Y891192D01*
D02*
G37*
G36*
X498800Y300356D02*
X497103Y300133D01*
X495522Y299478D01*
X494275Y298521D01*
X493028Y299478D01*
X491447Y300133D01*
X489750Y300356D01*
X488053Y300133D01*
X486472Y299478D01*
X485114Y298436D01*
X484072Y297078D01*
X483417Y295497D01*
X483194Y293800D01*
X483417Y292103D01*
X484072Y290522D01*
X485114Y289164D01*
X486390Y288185D01*
Y286915D01*
X485114Y285936D01*
X484072Y284578D01*
X483417Y282997D01*
X483194Y281300D01*
X483417Y279603D01*
X484072Y278022D01*
X485114Y276664D01*
X486472Y275622D01*
X488053Y274967D01*
X489750Y274744D01*
X491447Y274967D01*
X493028Y275622D01*
X494217Y276535D01*
X495472Y275572D01*
X497053Y274917D01*
X498750Y274694D01*
X500447Y274917D01*
X502028Y275572D01*
X503386Y276614D01*
X504428Y277972D01*
X505083Y279553D01*
X505306Y281250D01*
X505083Y282947D01*
X504428Y284528D01*
X503386Y285886D01*
X502028Y286928D01*
Y288102D01*
X502078Y288122D01*
X503436Y289164D01*
X504478Y290522D01*
X505133Y292103D01*
X505356Y293800D01*
X505133Y295497D01*
X504478Y297078D01*
X503436Y298436D01*
X502078Y299478D01*
X500497Y300133D01*
X498800Y300356D01*
D02*
G37*
%LPD*%
G36*
X555435Y525187D02*
X555629Y523713D01*
X554423Y523316D01*
X551484Y528633D01*
X546772Y535274D01*
X541346Y541346D01*
X535274Y546772D01*
X528633Y551484D01*
X521506Y555423D01*
X513983Y558539D01*
X506158Y560794D01*
X498130Y562158D01*
X490000Y562614D01*
X481870Y562158D01*
X473842Y560794D01*
X466017Y558539D01*
X458494Y555423D01*
X451367Y551484D01*
X444726Y546772D01*
X438654Y541346D01*
X433228Y535274D01*
X428516Y528633D01*
X424577Y521506D01*
X421461Y513983D01*
X421312Y513466D01*
X420044Y513395D01*
X419678Y514278D01*
X418740Y515500D01*
X419678Y516722D01*
X420333Y518303D01*
X420556Y520000D01*
X420333Y521697D01*
X419678Y523278D01*
X418636Y524636D01*
X417278Y525678D01*
X415697Y526333D01*
X414000Y526556D01*
X412303Y526333D01*
X410722Y525678D01*
X409364Y524636D01*
X408322Y523278D01*
X407667Y521697D01*
X407444Y520000D01*
X407667Y518303D01*
X408322Y516722D01*
X409260Y515500D01*
X408322Y514278D01*
X407667Y512697D01*
X407444Y511000D01*
X407667Y509303D01*
X408322Y507722D01*
X409364Y506364D01*
X410722Y505322D01*
X412303Y504667D01*
X414000Y504444D01*
X415697Y504667D01*
X417278Y505322D01*
X417953Y505840D01*
X419041Y505185D01*
X417842Y498130D01*
X417386Y490000D01*
X417842Y481870D01*
X418066Y480555D01*
X417073Y479763D01*
X415697Y480333D01*
X414000Y480556D01*
X412303Y480333D01*
X410722Y479678D01*
X409364Y478636D01*
X408322Y477278D01*
X407667Y475697D01*
X407444Y474000D01*
X407667Y472303D01*
X408322Y470722D01*
X409260Y469500D01*
X408322Y468278D01*
X407667Y466697D01*
X407444Y465000D01*
X407667Y463303D01*
X408322Y461722D01*
X409364Y460364D01*
X410722Y459322D01*
X412303Y458667D01*
X414000Y458444D01*
X415697Y458667D01*
X417278Y459322D01*
X418636Y460364D01*
X419678Y461722D01*
X420333Y463303D01*
X420556Y464996D01*
X421815Y465162D01*
X424577Y458494D01*
X428516Y451367D01*
X433228Y444726D01*
X438654Y438654D01*
X444726Y433228D01*
X451367Y428516D01*
X458494Y424577D01*
X466017Y421461D01*
X473842Y419206D01*
X481870Y417842D01*
X490000Y417386D01*
X498130Y417842D01*
X506158Y419206D01*
X513983Y421461D01*
X521506Y424577D01*
X528633Y428516D01*
X535274Y433228D01*
X541346Y438654D01*
X546772Y444726D01*
X551484Y451367D01*
X555423Y458494D01*
X557799Y464230D01*
X559058Y464065D01*
X559193Y463042D01*
X559949Y461218D01*
X561151Y459651D01*
X574685Y446117D01*
Y330383D01*
X562000Y317698D01*
X536583Y343116D01*
X535016Y344318D01*
X533191Y345073D01*
X531233Y345331D01*
X405315D01*
Y520750D01*
X405315Y520750D01*
X405315Y520750D01*
Y520750D01*
Y552617D01*
X422349Y569651D01*
X422349Y569651D01*
X423551Y571218D01*
X424307Y573042D01*
X424337Y573270D01*
X424565Y575000D01*
X424565Y575000D01*
Y611435D01*
X555435D01*
Y525187D01*
D02*
G37*
%LPC*%
G36*
X528000Y593591D02*
X525259Y593230D01*
X522705Y592172D01*
X520511Y590489D01*
X518828Y588295D01*
X517770Y585741D01*
X517409Y583000D01*
X517770Y580259D01*
X518828Y577705D01*
X520511Y575511D01*
X522705Y573828D01*
X525259Y572770D01*
X528000Y572409D01*
X530741Y572770D01*
X533295Y573828D01*
X535489Y575511D01*
X537172Y577705D01*
X538230Y580259D01*
X538591Y583000D01*
X538230Y585741D01*
X537172Y588295D01*
X535489Y590489D01*
X533295Y592172D01*
X530741Y593230D01*
X528000Y593591D01*
D02*
G37*
G36*
X562750Y417556D02*
X561053Y417333D01*
X559472Y416678D01*
X558114Y415636D01*
X557072Y414278D01*
X556417Y412697D01*
X556194Y411000D01*
X556417Y409303D01*
X557072Y407722D01*
X558114Y406364D01*
X558413Y406135D01*
Y404865D01*
X558114Y404636D01*
X557072Y403278D01*
X556417Y401697D01*
X556194Y400000D01*
X556417Y398303D01*
X557072Y396722D01*
X558114Y395364D01*
X558413Y395135D01*
Y393865D01*
X558114Y393636D01*
X557072Y392278D01*
X556417Y390697D01*
X556194Y389000D01*
X556417Y387303D01*
X557072Y385722D01*
X558114Y384364D01*
X558413Y384135D01*
Y382865D01*
X558114Y382636D01*
X557072Y381278D01*
X556417Y379697D01*
X556194Y378000D01*
X556417Y376303D01*
X557072Y374722D01*
X558114Y373364D01*
X558413Y373135D01*
Y371865D01*
X558114Y371636D01*
X557072Y370278D01*
X556417Y368697D01*
X556194Y367000D01*
X556417Y365303D01*
X557072Y363722D01*
X558114Y362364D01*
X559472Y361322D01*
X561053Y360667D01*
X562750Y360444D01*
X564447Y360667D01*
X566028Y361322D01*
X567386Y362364D01*
X568428Y363722D01*
X569083Y365303D01*
X569306Y367000D01*
X569083Y368697D01*
X568428Y370278D01*
X567386Y371636D01*
X567087Y371865D01*
Y373135D01*
X567386Y373364D01*
X568428Y374722D01*
X569083Y376303D01*
X569306Y378000D01*
X569083Y379697D01*
X568428Y381278D01*
X567386Y382636D01*
X567087Y382865D01*
Y384135D01*
X567386Y384364D01*
X568428Y385722D01*
X569083Y387303D01*
X569306Y389000D01*
X569083Y390697D01*
X568428Y392278D01*
X567386Y393636D01*
X567087Y393865D01*
Y395135D01*
X567386Y395364D01*
X568428Y396722D01*
X569083Y398303D01*
X569306Y400000D01*
X569083Y401697D01*
X568428Y403278D01*
X567386Y404636D01*
X567087Y404865D01*
Y406135D01*
X567386Y406364D01*
X568428Y407722D01*
X569083Y409303D01*
X569306Y411000D01*
X569083Y412697D01*
X568428Y414278D01*
X567386Y415636D01*
X566028Y416678D01*
X564447Y417333D01*
X562750Y417556D01*
D02*
G37*
G36*
X452000Y407591D02*
X449259Y407230D01*
X446705Y406172D01*
X444511Y404489D01*
X442828Y402295D01*
X441770Y399741D01*
X441409Y397000D01*
X441770Y394259D01*
X442828Y391705D01*
X444511Y389511D01*
X446705Y387828D01*
X449259Y386770D01*
X452000Y386409D01*
X454741Y386770D01*
X457295Y387828D01*
X459489Y389511D01*
X461172Y391705D01*
X462230Y394259D01*
X462591Y397000D01*
X462230Y399741D01*
X461172Y402295D01*
X459489Y404489D01*
X457295Y406172D01*
X454741Y407230D01*
X452000Y407591D01*
D02*
G37*
%LPD*%
D16*
X531233Y337766D02*
X562000Y307000D01*
X397750Y337766D02*
X531233D01*
X397750D02*
Y520750D01*
Y254250D02*
Y337766D01*
X417000Y619000D02*
X562250D01*
X417000Y575000D02*
Y619000D01*
X397750Y555750D02*
X417000Y575000D01*
X397750Y520750D02*
Y555750D01*
X562250Y270000D02*
Y307250D01*
X582250Y327250D01*
Y449250D01*
X566500Y465000D02*
X582250Y449250D01*
X566500Y465000D02*
Y521687D01*
X563000Y525187D02*
X566500Y521687D01*
X563000Y525187D02*
Y675000D01*
Y719000D01*
X417000Y191000D02*
Y235000D01*
X397750Y254250D02*
X417000Y235000D01*
D18*
X737000Y948000D02*
D03*
X243000D02*
D03*
X737000Y32000D02*
D03*
X243000D02*
D03*
D19*
X489750Y281300D02*
D03*
X498750Y281250D02*
D03*
X489750Y293800D02*
D03*
X498800D02*
D03*
X562750Y378000D02*
D03*
Y389000D02*
D03*
X414000Y520000D02*
D03*
X417000Y235000D02*
D03*
X562750Y400000D02*
D03*
Y411000D02*
D03*
Y367000D02*
D03*
X562000Y298000D02*
D03*
Y289000D02*
D03*
Y279500D02*
D03*
Y307000D02*
D03*
X562250Y270000D02*
D03*
X562000Y229000D02*
D03*
Y220000D02*
D03*
Y211000D02*
D03*
Y202000D02*
D03*
X417000Y224000D02*
D03*
Y213000D02*
D03*
Y202000D02*
D03*
Y191000D02*
D03*
Y306000D02*
D03*
Y295000D02*
D03*
Y284000D02*
D03*
Y317000D02*
D03*
Y273000D02*
D03*
Y608000D02*
D03*
Y597000D02*
D03*
Y586000D02*
D03*
Y619000D02*
D03*
Y575000D02*
D03*
X417500Y709000D02*
D03*
Y698000D02*
D03*
Y687000D02*
D03*
Y720000D02*
D03*
Y676000D02*
D03*
X563000Y675000D02*
D03*
Y719000D02*
D03*
Y686000D02*
D03*
Y697000D02*
D03*
Y708000D02*
D03*
X566000Y475000D02*
D03*
Y465000D02*
D03*
Y511000D02*
D03*
Y520000D02*
D03*
X414000Y511000D02*
D03*
Y474000D02*
D03*
Y465000D02*
D03*
X445000Y318000D02*
D03*
Y268000D02*
D03*
Y255500D02*
D03*
X491000Y235000D02*
D03*
X445000Y280000D02*
D03*
X445022Y306515D02*
D03*
X445000Y293000D02*
D03*
X509000Y235000D02*
D03*
X494750Y213500D02*
D03*
X506250Y200500D02*
D03*
X495000D02*
D03*
X475000Y177500D02*
D03*
Y232250D02*
D03*
X445000Y205500D02*
D03*
M02*
