%FSLAX44Y44*%
%MOMM*%
G71*
G01*
G75*
G04 Layer_Physical_Order=4*
G04 Layer_Color=16711680*
%ADD10R,1.5000X7.0000*%
%ADD11R,1.5000X7.0000*%
%ADD12R,1.5000X1.5000*%
%ADD13R,1.5000X4.4000*%
%ADD14C,0.8000*%
%ADD15C,0.2000*%
%ADD16C,1.0000*%
%ADD17C,5.0000*%
%ADD18C,5.8000*%
%ADD19C,0.8000*%
%ADD20C,0.2500*%
%ADD21R,1.3000X0.8000*%
%ADD22R,3.0000X2.1000*%
%ADD23R,1.2000X1.1000*%
%ADD24O,1.7000X0.4500*%
%ADD25R,6.0000X6.0000*%
%ADD26R,2.0000X6.0000*%
%ADD27C,0.4000*%
D14*
X500000Y306300D02*
Y319000D01*
X476800Y306300D02*
X500000D01*
X476800Y281300D02*
X499550D01*
X476800Y293800D02*
X498800D01*
X477500Y319000D02*
X583500D01*
D15*
X443000Y266000D02*
X445000Y268000D01*
X479800Y200000D02*
X480150Y200350D01*
D16*
X583500Y319000D02*
X610600Y291900D01*
Y240000D02*
Y291900D01*
D18*
X737000Y948000D02*
D03*
X243000D02*
D03*
X737000Y32000D02*
D03*
X243000D02*
D03*
D19*
X489750Y281300D02*
D03*
X498750Y281250D02*
D03*
X489750Y293800D02*
D03*
X498800D02*
D03*
X562750Y378000D02*
D03*
Y389000D02*
D03*
X414000Y520000D02*
D03*
X417000Y235000D02*
D03*
X562750Y400000D02*
D03*
Y411000D02*
D03*
Y367000D02*
D03*
X562000Y298000D02*
D03*
Y289000D02*
D03*
Y279500D02*
D03*
Y307000D02*
D03*
X562250Y270000D02*
D03*
X562000Y229000D02*
D03*
Y220000D02*
D03*
Y211000D02*
D03*
Y202000D02*
D03*
X417000Y224000D02*
D03*
Y213000D02*
D03*
Y202000D02*
D03*
Y191000D02*
D03*
Y306000D02*
D03*
Y295000D02*
D03*
Y284000D02*
D03*
Y317000D02*
D03*
Y273000D02*
D03*
Y608000D02*
D03*
Y597000D02*
D03*
Y586000D02*
D03*
Y619000D02*
D03*
Y575000D02*
D03*
X417500Y709000D02*
D03*
Y698000D02*
D03*
Y687000D02*
D03*
Y720000D02*
D03*
Y676000D02*
D03*
X563000Y675000D02*
D03*
Y719000D02*
D03*
Y686000D02*
D03*
Y697000D02*
D03*
Y708000D02*
D03*
X566000Y475000D02*
D03*
Y465000D02*
D03*
Y511000D02*
D03*
Y520000D02*
D03*
X414000Y511000D02*
D03*
Y474000D02*
D03*
Y465000D02*
D03*
X445000Y318000D02*
D03*
Y268000D02*
D03*
Y255500D02*
D03*
X491000Y235000D02*
D03*
X445000Y280000D02*
D03*
X445022Y306515D02*
D03*
X445000Y293000D02*
D03*
X509000Y235000D02*
D03*
X494750Y213500D02*
D03*
X506250Y200500D02*
D03*
X495000D02*
D03*
X475000Y177500D02*
D03*
Y232250D02*
D03*
X445000Y205500D02*
D03*
D20*
X491000Y235000D02*
X493000Y233000D01*
X512600Y206850D02*
X522150D01*
X511400Y219850D02*
X522150D01*
X509000Y222250D02*
X511400Y219850D01*
X509000Y222250D02*
Y235000D01*
X493000Y221750D02*
Y233000D01*
X480150Y206850D02*
X488100D01*
X494750Y213500D01*
X480150Y200350D02*
X495850D01*
X495700Y200500D02*
X495850Y200350D01*
X495000Y200500D02*
X495700D01*
X492000Y220750D02*
X493000Y221750D01*
X480150Y219850D02*
X481050Y220750D01*
X492000D01*
X506250Y200500D02*
X512600Y206850D01*
D21*
X476800Y281300D02*
D03*
Y293800D02*
D03*
Y306300D02*
D03*
Y318800D02*
D03*
X445000Y180500D02*
D03*
Y193000D02*
D03*
Y205500D02*
D03*
Y218000D02*
D03*
Y230500D02*
D03*
Y243000D02*
D03*
Y255500D02*
D03*
Y268000D02*
D03*
Y280500D02*
D03*
Y293000D02*
D03*
Y305500D02*
D03*
Y318000D02*
D03*
D22*
X504300Y255800D02*
D03*
Y344300D02*
D03*
X417500Y155000D02*
D03*
Y343500D02*
D03*
D23*
X491000Y235000D02*
D03*
X509000D02*
D03*
D24*
X480150Y200350D02*
D03*
Y206850D02*
D03*
Y213350D02*
D03*
Y219850D02*
D03*
X522150Y200350D02*
D03*
Y206850D02*
D03*
Y213350D02*
D03*
Y219850D02*
D03*
D25*
X610600Y227249D02*
D03*
D26*
X562500D02*
D03*
D27*
X243000Y943500D02*
Y948000D01*
X723300Y32000D02*
X737000D01*
X445000Y205500D02*
X445500Y205000D01*
M02*
