G04 Layer_Color=16711935*
%FSLAX44Y44*%
%MOMM*%
G71*
G01*
G75*
%ADD98R,1.3032X1.2032*%
%ADD114R,0.8032X0.8032*%
%ADD115R,0.8032X0.8032*%
%ADD116C,1.3932*%
%ADD117C,3.2032*%
%ADD118C,6.2032*%
%ADD119C,1.7032*%
%ADD120R,1.6532X1.9532*%
G04:AMPARAMS|DCode=121|XSize=0.4532mm|YSize=1.0032mm|CornerRadius=0.1641mm|HoleSize=0mm|Usage=FLASHONLY|Rotation=0.000|XOffset=0mm|YOffset=0mm|HoleType=Round|Shape=RoundedRectangle|*
%AMROUNDEDRECTD121*
21,1,0.4532,0.6750,0,0,0.0*
21,1,0.1250,1.0032,0,0,0.0*
1,1,0.3282,0.0625,-0.3375*
1,1,0.3282,-0.0625,-0.3375*
1,1,0.3282,-0.0625,0.3375*
1,1,0.3282,0.0625,0.3375*
%
%ADD121ROUNDEDRECTD121*%
G04:AMPARAMS|DCode=122|XSize=0.6032mm|YSize=1.3032mm|CornerRadius=0.2016mm|HoleSize=0mm|Usage=FLASHONLY|Rotation=180.000|XOffset=0mm|YOffset=0mm|HoleType=Round|Shape=RoundedRectangle|*
%AMROUNDEDRECTD122*
21,1,0.6032,0.9000,0,0,180.0*
21,1,0.2000,1.3032,0,0,180.0*
1,1,0.4032,-0.1000,0.4500*
1,1,0.4032,0.1000,0.4500*
1,1,0.4032,0.1000,-0.4500*
1,1,0.4032,-0.1000,-0.4500*
%
%ADD122ROUNDEDRECTD122*%
G04:AMPARAMS|DCode=123|XSize=0.6532mm|YSize=1.1032mm|CornerRadius=0.2141mm|HoleSize=0mm|Usage=FLASHONLY|Rotation=180.000|XOffset=0mm|YOffset=0mm|HoleType=Round|Shape=RoundedRectangle|*
%AMROUNDEDRECTD123*
21,1,0.6532,0.6750,0,0,180.0*
21,1,0.2250,1.1032,0,0,180.0*
1,1,0.4282,-0.1125,0.3375*
1,1,0.4282,0.1125,0.3375*
1,1,0.4282,0.1125,-0.3375*
1,1,0.4282,-0.1125,-0.3375*
%
%ADD123ROUNDEDRECTD123*%
%ADD124R,2.6032X1.9032*%
%ADD125R,3.7532X0.8132*%
%ADD126R,1.2032X1.3032*%
%ADD127R,1.9032X1.3032*%
%ADD128R,1.3032X1.9032*%
%ADD129R,1.0032X1.0032*%
%ADD130R,1.3032X2.2032*%
%ADD131R,5.0032X4.9532*%
%ADD132R,1.6032X1.4732*%
%ADD133R,2.3532X1.4032*%
G04:AMPARAMS|DCode=134|XSize=0.5532mm|YSize=1.0032mm|CornerRadius=0.1891mm|HoleSize=0mm|Usage=FLASHONLY|Rotation=0.000|XOffset=0mm|YOffset=0mm|HoleType=Round|Shape=RoundedRectangle|*
%AMROUNDEDRECTD134*
21,1,0.5532,0.6250,0,0,0.0*
21,1,0.1750,1.0032,0,0,0.0*
1,1,0.3782,0.0875,-0.3125*
1,1,0.3782,-0.0875,-0.3125*
1,1,0.3782,-0.0875,0.3125*
1,1,0.3782,0.0875,0.3125*
%
%ADD134ROUNDEDRECTD134*%
%ADD135R,2.4032X0.8532*%
G04:AMPARAMS|DCode=136|XSize=0.5032mm|YSize=1.3032mm|CornerRadius=0.1766mm|HoleSize=0mm|Usage=FLASHONLY|Rotation=180.000|XOffset=0mm|YOffset=0mm|HoleType=Round|Shape=RoundedRectangle|*
%AMROUNDEDRECTD136*
21,1,0.5032,0.9500,0,0,180.0*
21,1,0.1500,1.3032,0,0,180.0*
1,1,0.3532,-0.0750,0.4750*
1,1,0.3532,0.0750,0.4750*
1,1,0.3532,0.0750,-0.4750*
1,1,0.3532,-0.0750,-0.4750*
%
%ADD136ROUNDEDRECTD136*%
%ADD137R,1.2032X2.0032*%
%ADD138R,1.0032X1.4032*%
%ADD139R,0.9032X1.1032*%
%ADD140R,1.2532X0.8032*%
G04:AMPARAMS|DCode=141|XSize=0.6032mm|YSize=1.3032mm|CornerRadius=0.2016mm|HoleSize=0mm|Usage=FLASHONLY|Rotation=90.000|XOffset=0mm|YOffset=0mm|HoleType=Round|Shape=RoundedRectangle|*
%AMROUNDEDRECTD141*
21,1,0.6032,0.9000,0,0,90.0*
21,1,0.2000,1.3032,0,0,90.0*
1,1,0.4032,0.4500,0.1000*
1,1,0.4032,0.4500,-0.1000*
1,1,0.4032,-0.4500,-0.1000*
1,1,0.4032,-0.4500,0.1000*
%
%ADD141ROUNDEDRECTD141*%
D98*
X627000Y327450D02*
D03*
X610000D02*
D03*
D114*
X426000Y51500D02*
D03*
X416000D02*
D03*
X446000D02*
D03*
X436000D02*
D03*
X381050Y227192D02*
D03*
X391050D02*
D03*
X445500Y174500D02*
D03*
X435500D02*
D03*
X65750Y207950D02*
D03*
X75750D02*
D03*
X56500D02*
D03*
X46500D02*
D03*
X527750Y226300D02*
D03*
X537750D02*
D03*
X614500Y92700D02*
D03*
X624500D02*
D03*
Y82700D02*
D03*
X614500D02*
D03*
X415250Y302250D02*
D03*
X425250D02*
D03*
X425500Y174500D02*
D03*
X415500D02*
D03*
X416000Y355000D02*
D03*
X406000D02*
D03*
X406200Y227451D02*
D03*
X416200D02*
D03*
X416700Y104451D02*
D03*
X406700D02*
D03*
X587250Y228700D02*
D03*
X597250D02*
D03*
X237500Y377200D02*
D03*
X227500D02*
D03*
X227750Y249450D02*
D03*
X237750D02*
D03*
X238250Y126450D02*
D03*
X228250D02*
D03*
X435250Y302250D02*
D03*
X445250D02*
D03*
X390800Y354942D02*
D03*
X380800D02*
D03*
X381550Y104192D02*
D03*
X391550D02*
D03*
X92750Y77200D02*
D03*
X102750D02*
D03*
X70000Y77250D02*
D03*
X60000D02*
D03*
X616250Y310700D02*
D03*
X606250D02*
D03*
D115*
X247558Y154300D02*
D03*
Y164300D02*
D03*
X369442Y164200D02*
D03*
Y154200D02*
D03*
X358442D02*
D03*
Y164200D02*
D03*
X271250Y292000D02*
D03*
Y282000D02*
D03*
X271500Y154250D02*
D03*
Y164250D02*
D03*
X272000Y41250D02*
D03*
Y31250D02*
D03*
X629000Y209700D02*
D03*
Y199700D02*
D03*
X618000D02*
D03*
Y209700D02*
D03*
X607000D02*
D03*
Y199700D02*
D03*
X238942Y316200D02*
D03*
Y306200D02*
D03*
X239692Y178450D02*
D03*
Y188450D02*
D03*
Y65450D02*
D03*
Y55450D02*
D03*
X238942Y354700D02*
D03*
Y364700D02*
D03*
X239442Y236950D02*
D03*
Y226950D02*
D03*
X239692Y103950D02*
D03*
Y113950D02*
D03*
X239000Y340250D02*
D03*
Y330250D02*
D03*
X239250Y202500D02*
D03*
Y212500D02*
D03*
X239750Y89500D02*
D03*
Y79500D02*
D03*
X226692Y354700D02*
D03*
Y364700D02*
D03*
X227192Y236950D02*
D03*
Y226950D02*
D03*
X228942Y103950D02*
D03*
Y113950D02*
D03*
X258558Y292050D02*
D03*
Y282050D02*
D03*
X258808Y154300D02*
D03*
Y164300D02*
D03*
X259308Y41300D02*
D03*
Y31300D02*
D03*
X124000Y360700D02*
D03*
Y370700D02*
D03*
X124250Y241950D02*
D03*
Y231950D02*
D03*
X124750Y110950D02*
D03*
Y120950D02*
D03*
X173442Y326700D02*
D03*
Y336700D02*
D03*
X173692Y208950D02*
D03*
Y198950D02*
D03*
X174192Y75950D02*
D03*
Y85950D02*
D03*
X215192Y316200D02*
D03*
Y306200D02*
D03*
X215442Y178450D02*
D03*
Y188450D02*
D03*
X215942Y65450D02*
D03*
Y55450D02*
D03*
X184407Y282200D02*
D03*
Y292200D02*
D03*
X184657Y164450D02*
D03*
Y154450D02*
D03*
X185157Y31450D02*
D03*
Y41450D02*
D03*
X392764Y291950D02*
D03*
Y281950D02*
D03*
X393014Y154200D02*
D03*
Y164200D02*
D03*
X393514Y41200D02*
D03*
Y31200D02*
D03*
X417728Y291950D02*
D03*
Y281950D02*
D03*
X417978Y154200D02*
D03*
Y164200D02*
D03*
X418478Y41200D02*
D03*
Y31200D02*
D03*
X405121Y281950D02*
D03*
Y291950D02*
D03*
X405371Y164200D02*
D03*
Y154200D02*
D03*
X405871Y31200D02*
D03*
Y41200D02*
D03*
X441442Y291950D02*
D03*
Y281950D02*
D03*
X441692Y154200D02*
D03*
Y164200D02*
D03*
X442192Y41200D02*
D03*
Y31200D02*
D03*
X369192Y291950D02*
D03*
Y281950D02*
D03*
X369942Y31200D02*
D03*
Y41200D02*
D03*
X457250Y324200D02*
D03*
Y334200D02*
D03*
X457500Y206450D02*
D03*
Y196450D02*
D03*
X458000Y73450D02*
D03*
Y83450D02*
D03*
X222299Y282200D02*
D03*
Y292200D02*
D03*
X222549Y164450D02*
D03*
Y154450D02*
D03*
X223049Y31450D02*
D03*
Y41450D02*
D03*
X209585Y282200D02*
D03*
Y292200D02*
D03*
X209835Y164450D02*
D03*
Y154450D02*
D03*
X210335Y31450D02*
D03*
Y41450D02*
D03*
X508000Y292950D02*
D03*
Y282950D02*
D03*
X508250Y155200D02*
D03*
Y165200D02*
D03*
X508750Y42200D02*
D03*
Y32200D02*
D03*
X247308Y292050D02*
D03*
Y282050D02*
D03*
X248058Y31300D02*
D03*
Y41300D02*
D03*
X358192Y291950D02*
D03*
Y281950D02*
D03*
X358942Y31200D02*
D03*
Y41200D02*
D03*
X227692Y306200D02*
D03*
Y316200D02*
D03*
X227942Y188450D02*
D03*
Y178450D02*
D03*
X228942Y55450D02*
D03*
Y65450D02*
D03*
X124000Y282950D02*
D03*
Y292950D02*
D03*
X124250Y165200D02*
D03*
Y155200D02*
D03*
X124750Y32200D02*
D03*
Y42200D02*
D03*
X124000Y318867D02*
D03*
Y308867D02*
D03*
X124250Y181117D02*
D03*
Y191117D02*
D03*
X124750Y68117D02*
D03*
Y58117D02*
D03*
X228192Y330450D02*
D03*
Y340450D02*
D03*
X228442Y212700D02*
D03*
Y202700D02*
D03*
X228942Y79700D02*
D03*
Y89700D02*
D03*
X124000Y344783D02*
D03*
Y334783D02*
D03*
X124250Y205533D02*
D03*
Y215533D02*
D03*
X124750Y93533D02*
D03*
Y83533D02*
D03*
X235014Y282200D02*
D03*
Y292200D02*
D03*
X235264Y164450D02*
D03*
Y154450D02*
D03*
X235764Y31450D02*
D03*
Y41450D02*
D03*
X215500Y340200D02*
D03*
Y330200D02*
D03*
X215500Y202450D02*
D03*
Y212450D02*
D03*
X216000Y89450D02*
D03*
Y79450D02*
D03*
X508000Y370700D02*
D03*
Y360700D02*
D03*
X508250Y232950D02*
D03*
Y242950D02*
D03*
X508750Y119950D02*
D03*
Y109950D02*
D03*
X196871Y292200D02*
D03*
Y282200D02*
D03*
X197121Y154450D02*
D03*
Y164450D02*
D03*
X197621Y41450D02*
D03*
Y31450D02*
D03*
X380906Y291950D02*
D03*
Y281950D02*
D03*
X381157Y154200D02*
D03*
Y164200D02*
D03*
X381656Y41200D02*
D03*
Y31200D02*
D03*
X429335Y291950D02*
D03*
Y281950D02*
D03*
X429585Y154200D02*
D03*
Y164200D02*
D03*
X430085Y41200D02*
D03*
Y31200D02*
D03*
X508000Y344783D02*
D03*
Y334783D02*
D03*
X508250Y208783D02*
D03*
Y218783D02*
D03*
X508750Y94033D02*
D03*
Y84033D02*
D03*
X397058Y333800D02*
D03*
Y343800D02*
D03*
X397308Y216050D02*
D03*
Y206050D02*
D03*
X397808Y83050D02*
D03*
Y93050D02*
D03*
X508000Y308867D02*
D03*
Y318867D02*
D03*
X508250Y189367D02*
D03*
Y179367D02*
D03*
X508750Y58117D02*
D03*
Y68117D02*
D03*
X626250Y285950D02*
D03*
Y275950D02*
D03*
Y260950D02*
D03*
Y250950D02*
D03*
X567750Y272700D02*
D03*
Y282700D02*
D03*
X548500Y79950D02*
D03*
Y89950D02*
D03*
D116*
X58250Y321200D02*
D03*
Y231200D02*
D03*
Y96200D02*
D03*
Y186200D02*
D03*
D117*
X569900Y361850D02*
D03*
Y37850D02*
D03*
X79900Y361850D02*
D03*
D118*
X31250Y31200D02*
D03*
Y368500D02*
D03*
X618550D02*
D03*
Y31200D02*
D03*
D119*
X568200Y315450D02*
D03*
Y85650D02*
D03*
X590800D02*
D03*
Y315450D02*
D03*
D120*
X194192Y321950D02*
D03*
X194442Y194200D02*
D03*
X194942Y71200D02*
D03*
D121*
X200942Y336950D02*
D03*
X196442D02*
D03*
X191942D02*
D03*
X187442D02*
D03*
Y306950D02*
D03*
X191942D02*
D03*
X196442D02*
D03*
X200942D02*
D03*
X201192Y179200D02*
D03*
X196692D02*
D03*
X192192D02*
D03*
X187692D02*
D03*
Y209200D02*
D03*
X192192D02*
D03*
X196692D02*
D03*
X201192D02*
D03*
X201692Y86200D02*
D03*
X197192D02*
D03*
X192692D02*
D03*
X188192D02*
D03*
Y56200D02*
D03*
X192692D02*
D03*
X197192D02*
D03*
X201692D02*
D03*
D122*
X493134Y282700D02*
D03*
X486634D02*
D03*
X480134D02*
D03*
X473634D02*
D03*
X493134Y322700D02*
D03*
X486634D02*
D03*
X480134D02*
D03*
X473634D02*
D03*
X473885Y194950D02*
D03*
X480384D02*
D03*
X486884D02*
D03*
X493385D02*
D03*
X473885Y154950D02*
D03*
X480384D02*
D03*
X486884D02*
D03*
X493385D02*
D03*
X159000Y329200D02*
D03*
X152500D02*
D03*
X146000D02*
D03*
X139500D02*
D03*
X159000Y369200D02*
D03*
X152500D02*
D03*
X146000D02*
D03*
X139500D02*
D03*
X139750Y241450D02*
D03*
X146250D02*
D03*
X152750D02*
D03*
X159250D02*
D03*
X139750Y201450D02*
D03*
X146250D02*
D03*
X152750D02*
D03*
X159250D02*
D03*
X159750Y78450D02*
D03*
X153250D02*
D03*
X146750D02*
D03*
X140250D02*
D03*
X159750Y118450D02*
D03*
X153250D02*
D03*
X146750D02*
D03*
X140250D02*
D03*
X493885Y31950D02*
D03*
X487384D02*
D03*
X480885D02*
D03*
X474384D02*
D03*
X493885Y71950D02*
D03*
X487384D02*
D03*
X480885D02*
D03*
X474384D02*
D03*
D123*
X360250Y341450D02*
D03*
X366750D02*
D03*
X373250D02*
D03*
X379750D02*
D03*
Y310950D02*
D03*
X373250D02*
D03*
X366750D02*
D03*
X360250D02*
D03*
X360500Y213700D02*
D03*
X367000D02*
D03*
X373500D02*
D03*
X380000D02*
D03*
Y183200D02*
D03*
X373500D02*
D03*
X367000D02*
D03*
X360500D02*
D03*
X361000Y90700D02*
D03*
X367500D02*
D03*
X374000D02*
D03*
X380500D02*
D03*
Y60200D02*
D03*
X374000D02*
D03*
X367500D02*
D03*
X361000D02*
D03*
X274500Y70450D02*
D03*
X268000D02*
D03*
X261500D02*
D03*
X255000D02*
D03*
Y100950D02*
D03*
X261500D02*
D03*
X268000D02*
D03*
X274500D02*
D03*
X274000Y193450D02*
D03*
X267500D02*
D03*
X261000D02*
D03*
X254500D02*
D03*
Y223950D02*
D03*
X261000D02*
D03*
X267500D02*
D03*
X274000D02*
D03*
X273750Y321200D02*
D03*
X267250D02*
D03*
X260750D02*
D03*
X254250D02*
D03*
Y351700D02*
D03*
X260750D02*
D03*
X267250D02*
D03*
X273750D02*
D03*
D124*
X370000Y321700D02*
D03*
X370250Y193950D02*
D03*
X370750Y70950D02*
D03*
X264750Y90200D02*
D03*
X264250Y213200D02*
D03*
X264000Y340950D02*
D03*
D125*
X22700Y231200D02*
D03*
Y241200D02*
D03*
Y251200D02*
D03*
Y261200D02*
D03*
Y271200D02*
D03*
Y281200D02*
D03*
Y291200D02*
D03*
Y301200D02*
D03*
Y311200D02*
D03*
Y321200D02*
D03*
X93800D02*
D03*
Y311200D02*
D03*
Y301200D02*
D03*
Y291200D02*
D03*
Y281200D02*
D03*
Y271200D02*
D03*
Y261200D02*
D03*
Y251200D02*
D03*
Y241200D02*
D03*
Y231200D02*
D03*
Y96200D02*
D03*
Y106200D02*
D03*
Y116200D02*
D03*
Y126200D02*
D03*
Y136200D02*
D03*
Y146200D02*
D03*
Y156200D02*
D03*
Y166200D02*
D03*
Y176200D02*
D03*
Y186200D02*
D03*
X22700D02*
D03*
Y176200D02*
D03*
Y166200D02*
D03*
Y156200D02*
D03*
Y146200D02*
D03*
Y136200D02*
D03*
Y126200D02*
D03*
Y116200D02*
D03*
Y106200D02*
D03*
Y96200D02*
D03*
D126*
X191192Y369450D02*
D03*
Y352450D02*
D03*
X459942Y372450D02*
D03*
Y355450D02*
D03*
X456634Y305700D02*
D03*
Y288700D02*
D03*
X174192Y352200D02*
D03*
Y369200D02*
D03*
X191442Y241700D02*
D03*
Y224700D02*
D03*
X460192Y244700D02*
D03*
Y227700D02*
D03*
X456884Y177950D02*
D03*
Y160950D02*
D03*
X174442Y224450D02*
D03*
Y241450D02*
D03*
X460692Y121700D02*
D03*
Y104700D02*
D03*
X174942Y101450D02*
D03*
Y118450D02*
D03*
X457884Y54950D02*
D03*
Y37950D02*
D03*
X191942Y118700D02*
D03*
Y101700D02*
D03*
D127*
X143000Y283450D02*
D03*
Y310450D02*
D03*
X484442Y373700D02*
D03*
Y346700D02*
D03*
X166750Y283450D02*
D03*
Y310450D02*
D03*
X143250Y155700D02*
D03*
Y182700D02*
D03*
X484692Y245950D02*
D03*
Y218950D02*
D03*
X167000Y155700D02*
D03*
Y182700D02*
D03*
X485192Y122950D02*
D03*
Y95950D02*
D03*
X143750Y32700D02*
D03*
Y59700D02*
D03*
X167500Y32700D02*
D03*
Y59700D02*
D03*
X530000Y179950D02*
D03*
Y152950D02*
D03*
Y108200D02*
D03*
Y135200D02*
D03*
D128*
X252500Y371950D02*
D03*
X279500D02*
D03*
X252750Y244200D02*
D03*
X279750D02*
D03*
X383500Y120950D02*
D03*
X356500D02*
D03*
X383000Y243950D02*
D03*
X356000D02*
D03*
X382750Y371700D02*
D03*
X355750D02*
D03*
X253250Y121200D02*
D03*
X280250D02*
D03*
X425750Y120950D02*
D03*
X398750D02*
D03*
X425250Y243950D02*
D03*
X398250D02*
D03*
X425000Y371700D02*
D03*
X398000D02*
D03*
D129*
X441692Y351200D02*
D03*
X207942D02*
D03*
X441942Y223450D02*
D03*
X208192D02*
D03*
X208692Y100450D02*
D03*
X442442D02*
D03*
D130*
X441942Y369450D02*
D03*
X208192D02*
D03*
X442192Y241700D02*
D03*
X208442D02*
D03*
X208942Y118700D02*
D03*
X442692D02*
D03*
D131*
X316442Y103950D02*
D03*
X315942Y226950D02*
D03*
X315692Y354700D02*
D03*
D132*
X326842Y67450D02*
D03*
X306042D02*
D03*
X326342Y190450D02*
D03*
X305542D02*
D03*
X326092Y318200D02*
D03*
X305292D02*
D03*
D133*
X421500Y77000D02*
D03*
X421000Y200000D02*
D03*
X420750Y327500D02*
D03*
D134*
X431250Y92000D02*
D03*
X424750D02*
D03*
X418250D02*
D03*
X411750D02*
D03*
Y62000D02*
D03*
X418250D02*
D03*
X424750D02*
D03*
X431250D02*
D03*
X430750Y215000D02*
D03*
X424250D02*
D03*
X417750D02*
D03*
X411250D02*
D03*
Y185000D02*
D03*
X417750D02*
D03*
X424250D02*
D03*
X430750D02*
D03*
X430500Y342500D02*
D03*
X424000D02*
D03*
X417500D02*
D03*
X411000D02*
D03*
Y312500D02*
D03*
X417500D02*
D03*
X424000D02*
D03*
X430500D02*
D03*
D135*
X622000Y183800D02*
D03*
Y171100D02*
D03*
Y158400D02*
D03*
Y145700D02*
D03*
Y133000D02*
D03*
Y120300D02*
D03*
Y107600D02*
D03*
X570000Y183800D02*
D03*
Y171100D02*
D03*
Y158400D02*
D03*
Y145700D02*
D03*
Y133000D02*
D03*
Y120300D02*
D03*
Y107600D02*
D03*
D136*
X593750Y247200D02*
D03*
X588750D02*
D03*
X583750D02*
D03*
X578750D02*
D03*
X598750D02*
D03*
X603750D02*
D03*
X608750D02*
D03*
X613750D02*
D03*
X578750Y290950D02*
D03*
X583750D02*
D03*
X593750D02*
D03*
X588750D02*
D03*
X603750D02*
D03*
X598750D02*
D03*
X613750D02*
D03*
X608750D02*
D03*
D137*
X566500Y204700D02*
D03*
X591500D02*
D03*
D138*
X81750Y59201D02*
D03*
X100750D02*
D03*
X91250Y37199D02*
D03*
D139*
X573500Y335200D02*
D03*
X588500D02*
D03*
D140*
X526500Y258700D02*
D03*
Y249200D02*
D03*
Y239700D02*
D03*
X553500D02*
D03*
Y249200D02*
D03*
Y258700D02*
D03*
D141*
X296750Y28250D02*
D03*
Y34750D02*
D03*
Y41250D02*
D03*
Y47750D02*
D03*
X336750Y28250D02*
D03*
Y34750D02*
D03*
Y41250D02*
D03*
Y47750D02*
D03*
X296250Y151250D02*
D03*
Y157750D02*
D03*
Y164250D02*
D03*
Y170750D02*
D03*
X336250Y151250D02*
D03*
Y157750D02*
D03*
Y164250D02*
D03*
Y170750D02*
D03*
X296000Y279000D02*
D03*
Y285500D02*
D03*
Y292000D02*
D03*
Y298500D02*
D03*
X336000Y279000D02*
D03*
Y285500D02*
D03*
Y292000D02*
D03*
Y298500D02*
D03*
M02*
