G04 Layer_Physical_Order=1*
G04 Layer_Color=255*
%FSLAX44Y44*%
%MOMM*%
G71*
G01*
G75*
%ADD10R,1.5000X5.4000*%
%ADD11R,5.4000X1.5000*%
%ADD12R,1.1000X1.0000*%
G04:AMPARAMS|DCode=13|XSize=0.3mm|YSize=1mm|CornerRadius=0.12mm|HoleSize=0mm|Usage=FLASHONLY|Rotation=180.000|XOffset=0mm|YOffset=0mm|HoleType=Round|Shape=RoundedRectangle|*
%AMROUNDEDRECTD13*
21,1,0.3000,0.7600,0,0,180.0*
21,1,0.0600,1.0000,0,0,180.0*
1,1,0.2400,-0.0300,0.3800*
1,1,0.2400,0.0300,0.3800*
1,1,0.2400,0.0300,-0.3800*
1,1,0.2400,-0.0300,-0.3800*
%
%ADD13ROUNDEDRECTD13*%
G04:AMPARAMS|DCode=14|XSize=0.3mm|YSize=1mm|CornerRadius=0.12mm|HoleSize=0mm|Usage=FLASHONLY|Rotation=90.000|XOffset=0mm|YOffset=0mm|HoleType=Round|Shape=RoundedRectangle|*
%AMROUNDEDRECTD14*
21,1,0.3000,0.7600,0,0,90.0*
21,1,0.0600,1.0000,0,0,90.0*
1,1,0.2400,0.3800,0.0300*
1,1,0.2400,0.3800,-0.0300*
1,1,0.2400,-0.3800,-0.0300*
1,1,0.2400,-0.3800,0.0300*
%
%ADD14ROUNDEDRECTD14*%
%ADD15R,6.0000X6.0000*%
%ADD16R,0.8000X0.9000*%
G04:AMPARAMS|DCode=17|XSize=0.3mm|YSize=1.1mm|CornerRadius=0.075mm|HoleSize=0mm|Usage=FLASHONLY|Rotation=270.000|XOffset=0mm|YOffset=0mm|HoleType=Round|Shape=RoundedRectangle|*
%AMROUNDEDRECTD17*
21,1,0.3000,0.9500,0,0,270.0*
21,1,0.1500,1.1000,0,0,270.0*
1,1,0.1500,-0.4750,-0.0750*
1,1,0.1500,-0.4750,0.0750*
1,1,0.1500,0.4750,0.0750*
1,1,0.1500,0.4750,-0.0750*
%
%ADD17ROUNDEDRECTD17*%
%ADD18R,0.9000X0.8000*%
%ADD19R,1.2200X0.4000*%
%ADD20R,3.1000X2.8000*%
%ADD21R,1.9000X2.0000*%
G04:AMPARAMS|DCode=22|XSize=0.3mm|YSize=0.8mm|CornerRadius=0.075mm|HoleSize=0mm|Usage=FLASHONLY|Rotation=270.000|XOffset=0mm|YOffset=0mm|HoleType=Round|Shape=RoundedRectangle|*
%AMROUNDEDRECTD22*
21,1,0.3000,0.6500,0,0,270.0*
21,1,0.1500,0.8000,0,0,270.0*
1,1,0.1500,-0.3250,-0.0750*
1,1,0.1500,-0.3250,0.0750*
1,1,0.1500,0.3250,0.0750*
1,1,0.1500,0.3250,-0.0750*
%
%ADD22ROUNDEDRECTD22*%
%ADD23R,1.6500X2.4000*%
%ADD24R,0.6000X2.6000*%
%ADD25R,0.3000X0.7000*%
%ADD26R,1.1000X1.2000*%
%ADD27R,1.1400X0.7500*%
%ADD28R,0.6000X0.6000*%
%ADD29R,0.6000X0.6000*%
%ADD30C,0.5000*%
%ADD31C,0.2000*%
%ADD32C,0.3000*%
%ADD33C,0.2500*%
%ADD34C,0.2540*%
%ADD35R,58.8500X2.0300*%
%ADD36R,58.8500X1.9950*%
%ADD37R,2.2250X33.7300*%
%ADD38R,1.0000X33.7000*%
%ADD39C,1.1900*%
%ADD40C,3.0000*%
%ADD41C,6.0000*%
%ADD42C,1.5000*%
%ADD43C,0.8000*%
%ADD44C,0.6000*%
%ADD45C,0.9000*%
%ADD46R,1.5750X33.7300*%
%ADD47R,58.8500X1.3500*%
%ADD48R,4.2000X6.9750*%
%ADD49R,6.9750X4.2000*%
%ADD50R,1.6750X3.9000*%
%ADD51R,1.6750X5.5750*%
%ADD52R,1.2750X0.8500*%
%ADD53R,0.8500X1.2750*%
D10*
X164250Y354950D02*
D03*
X114250D02*
D03*
Y291950D02*
D03*
X164250D02*
D03*
D11*
X148250Y130200D02*
D03*
Y80200D02*
D03*
X316192Y262450D02*
D03*
Y312450D02*
D03*
Y226200D02*
D03*
Y176200D02*
D03*
X316692Y84950D02*
D03*
Y134950D02*
D03*
X486250Y312450D02*
D03*
Y262450D02*
D03*
Y226200D02*
D03*
Y176200D02*
D03*
Y84950D02*
D03*
Y134950D02*
D03*
D12*
X126250Y62700D02*
D03*
X143250D02*
D03*
X93750Y322950D02*
D03*
X76750D02*
D03*
D13*
X51750Y154450D02*
D03*
X56750D02*
D03*
X61750D02*
D03*
X66750D02*
D03*
X71750D02*
D03*
X76750D02*
D03*
X81750D02*
D03*
X86750D02*
D03*
X91750D02*
D03*
X96750D02*
D03*
X101750D02*
D03*
X106750D02*
D03*
X111750D02*
D03*
X116750D02*
D03*
X121750D02*
D03*
X126750D02*
D03*
Y244450D02*
D03*
X121750D02*
D03*
X116750D02*
D03*
X111750D02*
D03*
X106750D02*
D03*
X101750D02*
D03*
X96750D02*
D03*
X91750D02*
D03*
X86750D02*
D03*
X81750D02*
D03*
X76750D02*
D03*
X71750D02*
D03*
X66750D02*
D03*
X61750D02*
D03*
X56750D02*
D03*
X51750D02*
D03*
D14*
X134250Y161950D02*
D03*
Y166950D02*
D03*
Y171950D02*
D03*
Y176950D02*
D03*
Y181950D02*
D03*
Y186950D02*
D03*
Y191950D02*
D03*
Y196950D02*
D03*
Y201950D02*
D03*
Y206950D02*
D03*
Y211950D02*
D03*
Y216950D02*
D03*
Y221950D02*
D03*
Y226950D02*
D03*
Y231950D02*
D03*
Y236950D02*
D03*
X44250D02*
D03*
Y231950D02*
D03*
Y226950D02*
D03*
Y221950D02*
D03*
Y216950D02*
D03*
Y211950D02*
D03*
Y206950D02*
D03*
Y201950D02*
D03*
Y196950D02*
D03*
Y191950D02*
D03*
Y186950D02*
D03*
Y181950D02*
D03*
Y176950D02*
D03*
Y171950D02*
D03*
Y166950D02*
D03*
Y161950D02*
D03*
D15*
X89250Y199450D02*
D03*
D16*
X308500Y348200D02*
D03*
X322500D02*
D03*
D17*
X480000Y337700D02*
D03*
X523000D02*
D03*
Y342700D02*
D03*
Y347700D02*
D03*
X480000Y342700D02*
D03*
Y347700D02*
D03*
Y352700D02*
D03*
Y357700D02*
D03*
X523000Y352700D02*
D03*
Y357700D02*
D03*
X527750Y47167D02*
D03*
Y42167D02*
D03*
X484750Y47167D02*
D03*
Y42167D02*
D03*
Y37167D02*
D03*
Y32167D02*
D03*
X527750Y37167D02*
D03*
Y32167D02*
D03*
Y27167D02*
D03*
X484750D02*
D03*
D18*
X155000Y155950D02*
D03*
Y169950D02*
D03*
X169000Y155950D02*
D03*
Y169950D02*
D03*
D19*
X88600Y78950D02*
D03*
Y72450D02*
D03*
X62400Y85450D02*
D03*
Y78950D02*
D03*
Y72450D02*
D03*
Y65950D02*
D03*
X88600D02*
D03*
Y85450D02*
D03*
X47350Y272950D02*
D03*
Y266450D02*
D03*
X21150Y279450D02*
D03*
Y272950D02*
D03*
Y266450D02*
D03*
Y259950D02*
D03*
X47350D02*
D03*
Y279450D02*
D03*
Y304950D02*
D03*
Y298450D02*
D03*
X21150Y311450D02*
D03*
Y304950D02*
D03*
Y298450D02*
D03*
Y291950D02*
D03*
X47350D02*
D03*
Y311450D02*
D03*
D20*
X204697Y116700D02*
D03*
X259697D02*
D03*
X430197Y35700D02*
D03*
X375197D02*
D03*
X204197Y239700D02*
D03*
X259197D02*
D03*
X429697Y158700D02*
D03*
X374697D02*
D03*
X203947Y367450D02*
D03*
X258947D02*
D03*
X429447Y286450D02*
D03*
X374447D02*
D03*
D21*
X232197Y30700D02*
D03*
X402697Y121700D02*
D03*
X231697Y153700D02*
D03*
X402197Y244700D02*
D03*
X231447Y281450D02*
D03*
X401947Y372450D02*
D03*
D22*
X77250Y108450D02*
D03*
Y113450D02*
D03*
Y118450D02*
D03*
Y123450D02*
D03*
X47250D02*
D03*
Y118450D02*
D03*
Y113450D02*
D03*
Y108450D02*
D03*
D23*
X62250Y115950D02*
D03*
D24*
X69250Y26700D02*
D03*
X176250D02*
D03*
D25*
X165250Y48700D02*
D03*
X160250D02*
D03*
X155250D02*
D03*
X150250D02*
D03*
X145250D02*
D03*
X140250D02*
D03*
X135250D02*
D03*
X130250D02*
D03*
X80250D02*
D03*
X85250D02*
D03*
X90250D02*
D03*
X95250D02*
D03*
X100250D02*
D03*
X105250D02*
D03*
X110250D02*
D03*
X115250D02*
D03*
X120250D02*
D03*
X125250D02*
D03*
D26*
X155250Y220700D02*
D03*
Y237700D02*
D03*
X169250D02*
D03*
Y220700D02*
D03*
D27*
X540100Y111650D02*
D03*
Y124350D02*
D03*
Y137050D02*
D03*
Y149750D02*
D03*
Y162450D02*
D03*
Y175150D02*
D03*
Y187850D02*
D03*
Y200550D02*
D03*
Y213250D02*
D03*
Y225950D02*
D03*
Y238650D02*
D03*
Y251350D02*
D03*
Y264050D02*
D03*
Y276750D02*
D03*
Y289450D02*
D03*
X524500D02*
D03*
Y276750D02*
D03*
Y264050D02*
D03*
Y251350D02*
D03*
Y238650D02*
D03*
Y225950D02*
D03*
Y213250D02*
D03*
Y200550D02*
D03*
Y187850D02*
D03*
Y175150D02*
D03*
Y162450D02*
D03*
Y149750D02*
D03*
Y137050D02*
D03*
Y124350D02*
D03*
Y111650D02*
D03*
D28*
X97500Y111200D02*
D03*
X107500D02*
D03*
X97500Y122700D02*
D03*
X107500D02*
D03*
X71750Y136700D02*
D03*
X61750D02*
D03*
X107500Y134200D02*
D03*
X97500D02*
D03*
X167250Y196700D02*
D03*
X157250D02*
D03*
Y250200D02*
D03*
X167250D02*
D03*
X157250Y208200D02*
D03*
X167250D02*
D03*
X158000Y63200D02*
D03*
X168000D02*
D03*
X20250Y323700D02*
D03*
X30250D02*
D03*
X83750Y96700D02*
D03*
X73750D02*
D03*
X20500Y247200D02*
D03*
X30500D02*
D03*
X157250Y184450D02*
D03*
X167250D02*
D03*
X39300Y72200D02*
D03*
X49300D02*
D03*
X501250Y370700D02*
D03*
X511250D02*
D03*
X473500D02*
D03*
X483500D02*
D03*
X515000Y56950D02*
D03*
X525000D02*
D03*
X497250D02*
D03*
X487250D02*
D03*
D29*
X31000Y128950D02*
D03*
Y118950D02*
D03*
X79250Y294950D02*
D03*
Y304950D02*
D03*
X90250D02*
D03*
Y294950D02*
D03*
X31000Y144700D02*
D03*
Y154700D02*
D03*
X18750Y116450D02*
D03*
Y126450D02*
D03*
X31050Y104000D02*
D03*
Y94000D02*
D03*
X18750Y205950D02*
D03*
Y195950D02*
D03*
X18750Y154700D02*
D03*
Y144700D02*
D03*
X18800Y104000D02*
D03*
Y94000D02*
D03*
X18750Y170450D02*
D03*
Y180450D02*
D03*
Y232700D02*
D03*
Y222700D02*
D03*
X79250Y269950D02*
D03*
Y279950D02*
D03*
X89250Y280000D02*
D03*
Y270000D02*
D03*
X69000Y282950D02*
D03*
Y272950D02*
D03*
X61250Y296200D02*
D03*
Y306200D02*
D03*
X326250Y373700D02*
D03*
Y363700D02*
D03*
X328000Y33700D02*
D03*
Y43700D02*
D03*
X305000Y373700D02*
D03*
Y363700D02*
D03*
X315750Y373700D02*
D03*
Y363700D02*
D03*
X306500Y43700D02*
D03*
Y33700D02*
D03*
X317250Y43700D02*
D03*
Y33700D02*
D03*
D30*
X295250Y226200D02*
X316192D01*
X284500D02*
X295250D01*
X336750Y225950D02*
X348250D01*
X316442D02*
X336750D01*
D31*
X33500Y291500D02*
Y293250D01*
X28300Y298450D02*
X33500Y293250D01*
X21150Y298450D02*
X28300D01*
X38250Y298500D02*
X47300D01*
X86500Y57200D02*
X89750Y53950D01*
Y49700D02*
Y53950D01*
Y49700D02*
X90750Y48700D01*
X165750Y36950D02*
X176000D01*
X165750D02*
X165750Y36950D01*
X165750Y36950D02*
Y48700D01*
X72000Y28700D02*
X80500D01*
Y48700D01*
X100750Y32950D02*
Y48700D01*
X70500Y57200D02*
X86500D01*
X143250Y62700D02*
X157500D01*
X125750Y48700D02*
Y62200D01*
X85750Y36450D02*
X90750Y31450D01*
X47350Y273700D02*
X69000D01*
X71750Y244450D02*
Y249950D01*
X91750Y244450D02*
Y253750D01*
X101750Y244450D02*
Y255500D01*
X111750Y221950D02*
Y244450D01*
X134250Y211950D02*
X145750D01*
X140750Y216950D02*
X145750Y211950D01*
X134250Y216950D02*
X140750D01*
X134250Y221950D02*
X144250D01*
X96750Y206950D02*
X134250D01*
Y236950D02*
X154500D01*
X134250Y231950D02*
X142250D01*
X116750Y226950D02*
X134250D01*
X77250Y118450D02*
X84250D01*
X64750Y113450D02*
X77250D01*
X66750Y154450D02*
Y163200D01*
X61750Y145700D02*
Y154450D01*
X33500Y176950D02*
X44250D01*
X120750Y41700D02*
X121750Y40700D01*
X120750Y41700D02*
Y48700D01*
X110750Y41700D02*
Y48700D01*
X109750Y40700D02*
X110750Y41700D01*
X115750Y29450D02*
Y48700D01*
X105750D02*
Y56200D01*
X76750Y154450D02*
Y186950D01*
X71750Y136950D02*
Y154450D01*
X77500Y82700D02*
X81250Y78950D01*
X77500Y82700D02*
Y84450D01*
X81250Y78950D02*
X88600D01*
X49300Y72450D02*
X62400D01*
Y65950D02*
X73000D01*
X30750Y118450D02*
X47250D01*
X95750Y48700D02*
Y56200D01*
X85750Y36450D02*
Y46700D01*
X130250Y40700D02*
Y48700D01*
X33500Y258950D02*
Y262700D01*
X29750Y266450D02*
X33500Y262700D01*
X21150Y266450D02*
X29750D01*
X21150Y304950D02*
X47350D01*
X60500D01*
X513000Y352700D02*
X523000D01*
X513000Y342700D02*
X523000D01*
X480000Y337700D02*
X489500D01*
X470500Y342700D02*
X480000D01*
Y347700D02*
X489500D01*
X470500Y352700D02*
X480000D01*
Y357700D02*
X489500D01*
X475033Y42167D02*
X484750D01*
Y47167D02*
X494217D01*
X484750Y37167D02*
X494217D01*
X475033Y32167D02*
X484750D01*
Y27167D02*
X494216D01*
X518250Y32200D02*
X527717D01*
X527750Y37167D02*
X536967D01*
X518283Y42167D02*
X527750D01*
Y47167D02*
X537217D01*
X527750Y27167D02*
X537217D01*
X81750Y148000D02*
Y154450D01*
X91750Y148000D02*
Y154450D01*
X71750Y249950D02*
X75750Y253950D01*
X88600Y72450D02*
X98750D01*
X100250Y73950D01*
Y78700D01*
X134750Y181950D02*
X141250D01*
X134500Y171950D02*
X143750D01*
X134750Y186950D02*
X141250D01*
X141250Y181950D02*
X142750Y180450D01*
X141250Y186950D02*
X144250Y189950D01*
X36250Y161950D02*
X44250D01*
X33250Y164950D02*
X36250Y161950D01*
X86750Y244450D02*
Y250200D01*
X522750Y337450D02*
X523000Y337700D01*
X522750Y331950D02*
Y337450D01*
X523000Y347700D02*
X531250D01*
X533250Y349700D01*
Y352200D01*
X523000Y357700D02*
Y363700D01*
X90750Y22950D02*
Y31450D01*
X45000Y151200D02*
X51750D01*
Y154450D01*
X34250Y236950D02*
X44250D01*
X42750Y246200D02*
X51750D01*
X61750Y244450D02*
X61750Y244450D01*
X144250Y189950D02*
Y194700D01*
X101750Y145950D02*
Y154700D01*
X56750Y244450D02*
Y252450D01*
X61750Y244450D02*
X62250Y244950D01*
X61750Y245450D02*
X62250Y244950D01*
X61750Y245450D02*
Y259200D01*
X47350Y259950D02*
X48100Y260700D01*
X106750Y147700D02*
Y154450D01*
Y147700D02*
X110750Y143700D01*
X112000D01*
X121750Y154450D02*
Y162000D01*
X125550Y162450D02*
X133750D01*
X134250Y161950D01*
Y166950D02*
X140250D01*
X143750Y163450D01*
Y155950D02*
Y163450D01*
X116750Y244450D02*
Y255450D01*
X84250Y118450D02*
X91250Y111450D01*
X95500D01*
X45500Y123450D02*
Y129700D01*
Y123450D02*
X47250D01*
X45500Y139950D02*
X46250Y140700D01*
X49250D01*
X56750Y148200D01*
Y154450D01*
X121750Y244450D02*
Y250450D01*
X39750Y108450D02*
X47250D01*
X36550Y105250D02*
X39750Y108450D01*
X29500Y226950D02*
X44250D01*
X130000Y258700D02*
Y258750D01*
X121750Y250450D02*
X130000Y258700D01*
X141000Y251950D02*
Y258200D01*
X80000Y146250D02*
X81750Y148000D01*
X91750Y148000D02*
X93500Y146250D01*
X81250Y144950D02*
X81750Y144450D01*
X81250Y144950D02*
Y146000D01*
X20500Y205200D02*
X21300Y206000D01*
X44250Y221950D02*
X66750D01*
X33500Y186250D02*
X34200Y186950D01*
X44250D01*
X37550Y191950D02*
X44250D01*
X30750Y198750D02*
Y199500D01*
Y198750D02*
X37550Y191950D01*
X18750Y116450D02*
X19950Y115250D01*
X23250D01*
X26500Y112000D01*
X35500D01*
X36950Y113450D01*
X47250D01*
X31500Y105250D02*
X36550D01*
X19800Y127500D02*
X29550D01*
X31000Y128950D01*
X142250Y231950D02*
X144750Y229450D01*
X126750Y244450D02*
Y247250D01*
X136300D01*
X141000Y251950D01*
X21300Y206000D02*
X27750D01*
X28700Y206950D01*
X44250D01*
X127050Y155000D02*
X134750D01*
X116750Y171250D02*
Y171950D01*
Y171250D02*
X124525Y163475D01*
X117250Y170750D02*
X125550Y162450D01*
X121750Y162000D02*
X123500Y163750D01*
X66750Y244450D02*
Y253250D01*
X70750Y257250D01*
Y263000D01*
X48100Y260700D02*
X54700D01*
X59750Y265750D01*
Y266700D01*
X83000Y253950D02*
Y261250D01*
Y253950D02*
X86750Y250200D01*
X89250Y256250D02*
X91750Y253750D01*
X79250Y269950D02*
X89200D01*
X106750Y244450D02*
Y250250D01*
X109750Y253250D01*
X108125Y259625D02*
X109750Y258000D01*
Y253250D02*
Y258000D01*
X96250Y251000D02*
X96750Y250500D01*
X96250Y251000D02*
Y257500D01*
X97500Y258750D01*
Y263500D01*
X96750Y264250D02*
X97500Y263500D01*
X96750Y243700D02*
Y244450D01*
Y250500D01*
X116750Y147500D02*
Y154450D01*
Y147500D02*
X121000Y143250D01*
X124250D01*
X133250Y20250D02*
X140250Y27250D01*
X135250Y43750D02*
Y48700D01*
Y43750D02*
X136500Y42500D01*
X140250D01*
Y27250D02*
Y42500D01*
Y48700D01*
X155000Y155950D02*
X169000D01*
D32*
X153500Y154950D02*
Y155100D01*
X153750Y154700D02*
X155000Y155950D01*
X153500Y154950D02*
X153750Y154700D01*
D33*
X79300Y280000D02*
X89250D01*
D34*
X99750Y436985D02*
X109907D01*
X104828D01*
Y421750D01*
X117524D02*
X122603D01*
X125142Y424289D01*
Y429367D01*
X122603Y431907D01*
X117524D01*
X114985Y429367D01*
Y424289D01*
X117524Y421750D01*
X132759Y434446D02*
Y431907D01*
X130220D01*
X135299D01*
X132759D01*
Y424289D01*
X135299Y421750D01*
X145455Y431907D02*
X150534D01*
X153073Y429367D01*
Y421750D01*
X145455D01*
X142916Y424289D01*
X145455Y426828D01*
X153073D01*
X158151Y421750D02*
X163229D01*
X160690D01*
Y436985D01*
X158151D01*
X186082Y421750D02*
X193700D01*
X196239Y424289D01*
X193700Y426828D01*
X188621D01*
X186082Y429367D01*
X188621Y431907D01*
X196239D01*
X203856Y434446D02*
Y431907D01*
X201317D01*
X206395D01*
X203856D01*
Y424289D01*
X206395Y421750D01*
X216552Y431907D02*
X221630D01*
X224170Y429367D01*
Y421750D01*
X216552D01*
X214013Y424289D01*
X216552Y426828D01*
X224170D01*
X239405Y431907D02*
X231787D01*
X229248Y429367D01*
Y424289D01*
X231787Y421750D01*
X239405D01*
X244483D02*
Y436985D01*
Y426828D02*
X252101Y431907D01*
X244483Y426828D02*
X252101Y421750D01*
X259718Y431907D02*
Y424289D01*
X262257Y421750D01*
X269875D01*
Y431907D01*
X274953Y416672D02*
Y431907D01*
X282571D01*
X285110Y429367D01*
Y424289D01*
X282571Y421750D01*
X274953D01*
X305423D02*
X310502D01*
X307963D01*
Y431907D01*
X305423D01*
X318119Y421750D02*
X325737D01*
X328276Y424289D01*
X325737Y426828D01*
X320658D01*
X318119Y429367D01*
X320658Y431907D01*
X328276D01*
X348590Y421750D02*
Y431907D01*
X356207D01*
X358746Y429367D01*
Y421750D01*
X366364D02*
X371442D01*
X373981Y424289D01*
Y429367D01*
X371442Y431907D01*
X366364D01*
X363825Y429367D01*
Y424289D01*
X366364Y421750D01*
X379060D02*
Y431907D01*
X381599D01*
X384138Y429367D01*
Y421750D01*
Y429367D01*
X386677Y431907D01*
X389216Y429367D01*
Y421750D01*
X394295D02*
Y424289D01*
X396834D01*
Y421750D01*
X394295D01*
X432382D02*
X422226D01*
X432382Y431907D01*
Y434446D01*
X429843Y436985D01*
X424765D01*
X422226Y434446D01*
X437461Y421750D02*
Y424289D01*
X440000D01*
Y421750D01*
X437461D01*
X450157Y434446D02*
X452696Y436985D01*
X457774D01*
X460313Y434446D01*
Y424289D01*
X457774Y421750D01*
X452696D01*
X450157Y424289D01*
Y434446D01*
X465392Y421750D02*
Y431907D01*
X467931D01*
X470470Y429367D01*
Y421750D01*
Y429367D01*
X473009Y431907D01*
X475548Y429367D01*
Y421750D01*
X480627D02*
Y431907D01*
X483166D01*
X485705Y429367D01*
Y421750D01*
Y429367D01*
X488244Y431907D01*
X490784Y429367D01*
Y421750D01*
X511097D02*
X516175D01*
X513636D01*
Y431907D01*
X511097D01*
X523793Y421750D02*
Y431907D01*
X531410D01*
X533950Y429367D01*
Y421750D01*
X549185Y431907D02*
X541567D01*
X539028Y429367D01*
Y424289D01*
X541567Y421750D01*
X549185D01*
X554263D02*
X559341D01*
X556802D01*
Y436985D01*
X554263D01*
X566959Y421750D02*
Y424289D01*
X569498D01*
Y421750D01*
X566959D01*
X605047Y431907D02*
X597429D01*
X594890Y429367D01*
Y424289D01*
X597429Y421750D01*
X605047D01*
X612664D02*
X617742D01*
X620282Y424289D01*
Y429367D01*
X617742Y431907D01*
X612664D01*
X610125Y429367D01*
Y424289D01*
X612664Y421750D01*
X625360Y416672D02*
Y431907D01*
X632977D01*
X635517Y429367D01*
Y424289D01*
X632977Y421750D01*
X625360D01*
X640595Y416672D02*
Y431907D01*
X648213D01*
X650752Y429367D01*
Y424289D01*
X648213Y421750D01*
X640595D01*
X663448D02*
X658369D01*
X655830Y424289D01*
Y429367D01*
X658369Y431907D01*
X663448D01*
X665987Y429367D01*
Y426828D01*
X655830D01*
X671065Y431907D02*
Y421750D01*
Y426828D01*
X673604Y429367D01*
X676143Y431907D01*
X678683D01*
X686300Y421750D02*
Y424289D01*
X688839D01*
Y421750D01*
X686300D01*
D35*
X324750Y398350D02*
D03*
D36*
X325500Y1475D02*
D03*
D37*
X649625Y200050D02*
D03*
D38*
X6500Y199700D02*
D03*
D39*
X58250Y321200D02*
D03*
Y231200D02*
D03*
Y96200D02*
D03*
Y186200D02*
D03*
D40*
X569900Y361850D02*
D03*
Y37850D02*
D03*
X79900Y361850D02*
D03*
D41*
X31250Y31200D02*
D03*
Y368500D02*
D03*
X618550D02*
D03*
Y31200D02*
D03*
D42*
X568200Y315450D02*
D03*
Y85650D02*
D03*
X590800D02*
D03*
Y315450D02*
D03*
D43*
X282000Y329000D02*
D03*
X351250Y184000D02*
D03*
X282000Y183500D02*
D03*
X274000Y136750D02*
D03*
X279000Y263700D02*
D03*
X567000Y221450D02*
D03*
X643000Y63200D02*
D03*
X6500Y337700D02*
D03*
X6750Y62700D02*
D03*
X583500Y392950D02*
D03*
X643250Y318700D02*
D03*
X214000Y6450D02*
D03*
X569750D02*
D03*
X59000D02*
D03*
X70500Y57200D02*
D03*
X90500Y22950D02*
D03*
X589500Y264750D02*
D03*
X543750Y358700D02*
D03*
X520250Y18750D02*
D03*
X485750Y18950D02*
D03*
X146250Y350450D02*
D03*
X174600Y258700D02*
D03*
X284250Y355450D02*
D03*
X348000D02*
D03*
X284500Y226200D02*
D03*
X285000Y104700D02*
D03*
X348750D02*
D03*
Y60700D02*
D03*
X285000Y70700D02*
D03*
Y60200D02*
D03*
X591750Y159450D02*
D03*
X604000Y173950D02*
D03*
Y185450D02*
D03*
X591750Y173950D02*
D03*
X145000Y296950D02*
D03*
X604000Y159450D02*
D03*
X543750Y381700D02*
D03*
Y370700D02*
D03*
X348250Y225950D02*
D03*
X540500Y27200D02*
D03*
X134250Y296950D02*
D03*
X191000Y143700D02*
D03*
X59750Y266700D02*
D03*
X68000Y392950D02*
D03*
X597250Y109950D02*
D03*
X627750Y310700D02*
D03*
X99500Y347700D02*
D03*
X402250Y138250D02*
D03*
X132000Y101700D02*
D03*
X349250Y263700D02*
D03*
X132500Y350200D02*
D03*
X178750Y143700D02*
D03*
X168750D02*
D03*
X165250Y101450D02*
D03*
X182250Y380950D02*
D03*
X218250Y263700D02*
D03*
X130000Y258200D02*
D03*
X585750Y276000D02*
D03*
X543750Y344000D02*
D03*
X141000Y258200D02*
D03*
X147750Y271750D02*
D03*
X205000Y263700D02*
D03*
X25500Y214000D02*
D03*
X30750Y199500D02*
D03*
X59750Y280750D02*
D03*
X165750Y118450D02*
D03*
X28250Y80500D02*
D03*
X18000D02*
D03*
X457250Y149250D02*
D03*
X460750Y24500D02*
D03*
X455500Y277250D02*
D03*
X348750Y193750D02*
D03*
X284000Y194250D02*
D03*
X351250Y311500D02*
D03*
Y321750D02*
D03*
X282000Y311500D02*
D03*
X348750Y70750D02*
D03*
X133250Y20250D02*
D03*
X146750D02*
D03*
X161750D02*
D03*
X445750Y62500D02*
D03*
Y75000D02*
D03*
X445250Y187000D02*
D03*
Y200750D02*
D03*
X444750Y312500D02*
D03*
Y326250D02*
D03*
X261500Y137000D02*
D03*
X369700Y259500D02*
D03*
X350750Y88500D02*
D03*
X469000Y208750D02*
D03*
X349000Y339000D02*
D03*
X534250Y18750D02*
D03*
D44*
X109750Y259750D02*
D03*
X38250Y298500D02*
D03*
X47750Y291000D02*
D03*
X33500Y291500D02*
D03*
X115750Y27750D02*
D03*
X524500Y276750D02*
D03*
Y289450D02*
D03*
X539500D02*
D03*
Y276750D02*
D03*
Y264050D02*
D03*
X524500D02*
D03*
Y251350D02*
D03*
X539500D02*
D03*
Y238650D02*
D03*
X524500D02*
D03*
Y225950D02*
D03*
X539500D02*
D03*
Y213250D02*
D03*
X524500D02*
D03*
Y200550D02*
D03*
X539500D02*
D03*
Y187850D02*
D03*
X524500D02*
D03*
Y175150D02*
D03*
X539500D02*
D03*
Y162450D02*
D03*
X524500D02*
D03*
Y149750D02*
D03*
X539500D02*
D03*
X524500Y124350D02*
D03*
Y137050D02*
D03*
X539500D02*
D03*
Y124350D02*
D03*
Y111650D02*
D03*
X524500D02*
D03*
X587250Y192200D02*
D03*
X107500Y122700D02*
D03*
X97500D02*
D03*
X165750Y36950D02*
D03*
X99500Y32450D02*
D03*
X125750Y62700D02*
D03*
X143750Y62950D02*
D03*
X116750Y253950D02*
D03*
X316625Y312450D02*
D03*
X337250D02*
D03*
X296000D02*
D03*
X144750Y213200D02*
D03*
X114750Y206950D02*
D03*
X144750Y221450D02*
D03*
X155250Y237700D02*
D03*
X169250D02*
D03*
Y220700D02*
D03*
X76250Y222200D02*
D03*
X89250Y199450D02*
D03*
X112500Y175950D02*
D03*
X155250Y220700D02*
D03*
X77500Y124950D02*
D03*
X202250Y248950D02*
D03*
X193000D02*
D03*
X164250Y274200D02*
D03*
X114250Y310700D02*
D03*
X113750Y274200D02*
D03*
X475500Y176450D02*
D03*
X466500D02*
D03*
X467000Y226200D02*
D03*
X507750Y225950D02*
D03*
X507000Y262450D02*
D03*
X468000D02*
D03*
X476000Y311700D02*
D03*
X466750D02*
D03*
X498250D02*
D03*
X506500D02*
D03*
X295250Y226200D02*
D03*
X336750Y225950D02*
D03*
X401947Y372450D02*
D03*
X231447Y281450D02*
D03*
X231697Y153700D02*
D03*
X402197Y244700D02*
D03*
X375750Y296950D02*
D03*
X362250D02*
D03*
X270250Y357450D02*
D03*
X261500D02*
D03*
X114000Y335950D02*
D03*
X114250Y373950D02*
D03*
X441500Y296950D02*
D03*
X430250D02*
D03*
X204000Y356950D02*
D03*
X192000D02*
D03*
X164500Y337200D02*
D03*
X164000Y373700D02*
D03*
X376000Y169200D02*
D03*
X362500D02*
D03*
X270500Y229700D02*
D03*
X261750D02*
D03*
X441750Y169200D02*
D03*
X430500D02*
D03*
X507750Y176450D02*
D03*
X498000D02*
D03*
X336750Y262450D02*
D03*
X295500Y262200D02*
D03*
X337250Y175950D02*
D03*
X295500D02*
D03*
X72750Y67450D02*
D03*
X168000Y63200D02*
D03*
X105000Y56450D02*
D03*
X121750Y40000D02*
D03*
X109750Y40700D02*
D03*
X62250Y145600D02*
D03*
X66750Y162700D02*
D03*
X76750Y173950D02*
D03*
X77500Y84450D02*
D03*
X85500Y64950D02*
D03*
X64750Y86450D02*
D03*
X88750D02*
D03*
X62250Y108950D02*
D03*
Y122950D02*
D03*
X95750Y56450D02*
D03*
X80500Y28450D02*
D03*
X29500Y226950D02*
D03*
X47750Y280450D02*
D03*
X39000Y266450D02*
D03*
X21500Y280450D02*
D03*
X21000Y258950D02*
D03*
X33500D02*
D03*
X29450Y272950D02*
D03*
X47500Y312450D02*
D03*
X21250Y290950D02*
D03*
Y312450D02*
D03*
X322500Y348200D02*
D03*
X308500D02*
D03*
X513000Y352700D02*
D03*
Y342700D02*
D03*
X489500Y347700D02*
D03*
Y357700D02*
D03*
X470500Y352700D02*
D03*
Y342700D02*
D03*
X489500Y337700D02*
D03*
X537250Y37450D02*
D03*
X494250Y27200D02*
D03*
Y37200D02*
D03*
X475000Y42200D02*
D03*
X494250Y47200D02*
D03*
X537250D02*
D03*
X475000Y32200D02*
D03*
X518250D02*
D03*
Y42200D02*
D03*
X442250Y46200D02*
D03*
X431000D02*
D03*
X363000D02*
D03*
X376500D02*
D03*
X465250Y85200D02*
D03*
X498250D02*
D03*
X508000D02*
D03*
X473250D02*
D03*
X271000Y106700D02*
D03*
X262250D02*
D03*
X402750Y121950D02*
D03*
X337250Y84950D02*
D03*
X296000Y84700D02*
D03*
X337000Y134950D02*
D03*
X296000D02*
D03*
X232197Y30700D02*
D03*
X192750Y106200D02*
D03*
X204750D02*
D03*
X507000Y134950D02*
D03*
X466750Y134700D02*
D03*
X129250Y80200D02*
D03*
X167250Y79950D02*
D03*
X129500Y129950D02*
D03*
X166000D02*
D03*
X100250Y78700D02*
D03*
X78250Y106950D02*
D03*
X33500Y176950D02*
D03*
X169000Y170950D02*
D03*
X155000D02*
D03*
X144000Y171950D02*
D03*
Y180200D02*
D03*
X111750Y142950D02*
D03*
X33250Y164950D02*
D03*
X522750Y331950D02*
D03*
X93750Y322950D02*
D03*
X76750D02*
D03*
X523000Y363700D02*
D03*
X534750Y351450D02*
D03*
X69000Y282950D02*
D03*
Y272950D02*
D03*
X34000Y237200D02*
D03*
X45000Y151200D02*
D03*
X42750Y246200D02*
D03*
X55750Y253450D02*
D03*
X144250Y194700D02*
D03*
X306500Y33700D02*
D03*
X317250D02*
D03*
X328000D02*
D03*
Y43700D02*
D03*
X317250D02*
D03*
X306500D02*
D03*
X315750Y373700D02*
D03*
X326250D02*
D03*
Y363700D02*
D03*
X315750D02*
D03*
X305000D02*
D03*
Y373700D02*
D03*
X483500Y370700D02*
D03*
X473500D02*
D03*
X501250D02*
D03*
X511250D02*
D03*
X487250Y56950D02*
D03*
X497250D02*
D03*
X515000D02*
D03*
X525000D02*
D03*
X39300Y72200D02*
D03*
X49300D02*
D03*
X83750Y96700D02*
D03*
X73750D02*
D03*
X18800Y94000D02*
D03*
X31000Y118950D02*
D03*
X18750Y116450D02*
D03*
Y126450D02*
D03*
X31000Y144700D02*
D03*
X18750D02*
D03*
X31000Y154700D02*
D03*
X18750D02*
D03*
Y170450D02*
D03*
Y180450D02*
D03*
X18750Y195950D02*
D03*
Y205950D02*
D03*
X18750Y222700D02*
D03*
Y232700D02*
D03*
X30500Y247200D02*
D03*
X157250Y250200D02*
D03*
X167250D02*
D03*
Y208200D02*
D03*
X157250D02*
D03*
Y196700D02*
D03*
Y184450D02*
D03*
X167250D02*
D03*
Y196700D02*
D03*
X97500Y111200D02*
D03*
X107500D02*
D03*
Y134200D02*
D03*
X97500D02*
D03*
X61750Y136700D02*
D03*
X71750D02*
D03*
X20250Y323700D02*
D03*
X61250Y306200D02*
D03*
Y296200D02*
D03*
X79250Y294950D02*
D03*
X90250D02*
D03*
Y304950D02*
D03*
X79250D02*
D03*
Y279950D02*
D03*
Y269950D02*
D03*
X45750Y139950D02*
D03*
X31050Y94000D02*
D03*
Y104000D02*
D03*
X116250Y85450D02*
D03*
X164250Y287450D02*
D03*
Y296200D02*
D03*
X93250Y145250D02*
D03*
X81250Y146000D02*
D03*
X45750Y129750D02*
D03*
X33500Y186250D02*
D03*
X18750Y104000D02*
D03*
X144750Y229450D02*
D03*
X153500Y155100D02*
D03*
X144250D02*
D03*
X134750D02*
D03*
X76750Y255500D02*
D03*
X70750Y263000D02*
D03*
X63000Y258000D02*
D03*
X83000Y261250D02*
D03*
X89250Y256250D02*
D03*
X101250Y145250D02*
D03*
X102500Y254500D02*
D03*
X97500Y265250D02*
D03*
X111250Y218750D02*
D03*
X124750Y143450D02*
D03*
X20500Y247200D02*
D03*
X30250Y323700D02*
D03*
X130500Y40000D02*
D03*
D45*
X508250Y199200D02*
D03*
X524750Y94200D02*
D03*
X527250Y306450D02*
D03*
X552000Y283200D02*
D03*
X551250Y219700D02*
D03*
X551000Y194200D02*
D03*
X551250Y168700D02*
D03*
X551500Y143700D02*
D03*
X551000Y117950D02*
D03*
D46*
X652875Y200050D02*
D03*
D47*
X325500Y-2000D02*
D03*
X325000Y401750D02*
D03*
D48*
X639500Y373625D02*
D03*
X639750Y26125D02*
D03*
X11250Y373625D02*
D03*
X12500Y26125D02*
D03*
D49*
X623875Y387000D02*
D03*
X623625Y12250D02*
D03*
X25875Y386750D02*
D03*
X26125Y12250D02*
D03*
D50*
X-1375Y348250D02*
D03*
D51*
X-3125Y57625D02*
D03*
D52*
X585875Y393250D02*
D03*
X65875Y393000D02*
D03*
D53*
X643000Y61125D02*
D03*
X6500Y57625D02*
D03*
X3000Y60375D02*
D03*
X58750Y3875D02*
D03*
M02*
