G04 Layer_Physical_Order=3*
G04 Layer_Color=16776960*
%FSLAX44Y44*%
%MOMM*%
G71*
G01*
G75*
%ADD30C,0.5000*%
%ADD31C,0.2000*%
%ADD32C,0.3000*%
%ADD39C,1.1900*%
%ADD42C,1.5000*%
%ADD43C,0.8000*%
%ADD44C,0.6000*%
%ADD45C,0.9000*%
%ADD46R,1.5750X33.7300*%
%ADD47R,58.8500X1.3500*%
%ADD48R,4.2000X6.9750*%
%ADD49R,6.9750X4.2000*%
%ADD50R,1.6750X3.9000*%
%ADD51R,1.6750X5.5750*%
%ADD52R,1.2750X0.8500*%
%ADD53R,0.8500X1.2750*%
%ADD54C,2.7000*%
%ADD55C,4.5000*%
%ADD56C,0.8000*%
%ADD57C,0.6000*%
%ADD58C,0.7000*%
%ADD59C,1.0000*%
%ADD60C,1.2000*%
G36*
X621051Y400280D02*
X623537Y399986D01*
X625992Y399498D01*
X628401Y398818D01*
X630749Y397952D01*
X633022Y396904D01*
X635206Y395681D01*
X637288Y394290D01*
X639253Y392741D01*
X641091Y391041D01*
X642791Y389203D01*
X644340Y387238D01*
X645731Y385156D01*
X646954Y382972D01*
X648002Y380699D01*
X648868Y378351D01*
X649548Y375942D01*
X650036Y373487D01*
X650330Y371001D01*
X650427Y368525D01*
X650404Y368500D01*
X650404D01*
X650428Y31200D01*
X650330Y28699D01*
X650036Y26213D01*
X649548Y23758D01*
X648868Y21349D01*
X648002Y19001D01*
X646954Y16727D01*
X645731Y14544D01*
X644340Y12462D01*
X642791Y10497D01*
X641091Y8659D01*
X639253Y6959D01*
X637288Y5410D01*
X635206Y4019D01*
X633022Y2796D01*
X630749Y1748D01*
X628401Y882D01*
X625992Y202D01*
X623537Y-286D01*
X621051Y-580D01*
X619740Y-632D01*
X618550Y-664D01*
X618539Y-654D01*
X617341Y-654D01*
X32455D01*
X31261Y-654D01*
X30837Y-646D01*
X29990Y-629D01*
X28749Y-580D01*
X26263Y-286D01*
X23808Y202D01*
X21399Y882D01*
X19051Y1748D01*
X16777Y2796D01*
X14594Y4019D01*
X12512Y5410D01*
X10547Y6959D01*
X8709Y8659D01*
X7010Y10497D01*
X5460Y12462D01*
X4069Y14544D01*
X2846Y16727D01*
X1798Y19001D01*
X932Y21349D01*
X252Y23758D01*
X-236Y26213D01*
X-530Y28699D01*
X-582Y30010D01*
X-614Y31200D01*
X-604Y31211D01*
X-604Y32409D01*
Y85862D01*
X-545Y85870D01*
X112Y86142D01*
X676Y86574D01*
X1108Y87138D01*
X1381Y87795D01*
X1473Y88500D01*
Y326000D01*
X1381Y326705D01*
X1108Y327362D01*
X676Y327926D01*
X112Y328358D01*
X-545Y328630D01*
X-604Y328638D01*
Y368500D01*
X-604D01*
X-627Y368525D01*
X-530Y371001D01*
X-236Y373487D01*
X252Y375942D01*
X932Y378351D01*
X1798Y380699D01*
X2846Y382972D01*
X4069Y385156D01*
X5460Y387238D01*
X7010Y389203D01*
X8709Y391041D01*
X10547Y392741D01*
X12512Y394290D01*
X14594Y395681D01*
X16777Y396904D01*
X19051Y397952D01*
X21399Y398818D01*
X23808Y399498D01*
X26263Y399986D01*
X28749Y400280D01*
X31225Y400377D01*
X31250Y400354D01*
Y400354D01*
X618550Y400378D01*
X621051Y400280D01*
D02*
G37*
%LPC*%
G36*
X590800Y95380D02*
X589278Y95260D01*
X587793Y94904D01*
X586383Y94319D01*
X585081Y93522D01*
X583920Y92530D01*
X582928Y91369D01*
X582131Y90067D01*
X581546Y88657D01*
X581190Y87172D01*
X581070Y85650D01*
X581190Y84128D01*
X581546Y82643D01*
X582131Y81233D01*
X582928Y79931D01*
X583920Y78770D01*
X585081Y77778D01*
X586383Y76981D01*
X587793Y76396D01*
X589278Y76040D01*
X590800Y75920D01*
X592322Y76040D01*
X593807Y76396D01*
X595217Y76981D01*
X596519Y77778D01*
X597680Y78770D01*
X598672Y79931D01*
X599469Y81233D01*
X600054Y82643D01*
X600410Y84128D01*
X600530Y85650D01*
X600410Y87172D01*
X600054Y88657D01*
X599469Y90067D01*
X598672Y91369D01*
X597680Y92530D01*
X596519Y93522D01*
X595217Y94319D01*
X593807Y94904D01*
X592322Y95260D01*
X590800Y95380D01*
D02*
G37*
G36*
X30250Y328925D02*
X29231Y328825D01*
X28250Y328527D01*
X27347Y328045D01*
X26555Y327395D01*
X25905Y326603D01*
X25423Y325700D01*
X25125Y324719D01*
X25025Y323700D01*
X25125Y322681D01*
X25423Y321700D01*
X25905Y320797D01*
X26555Y320005D01*
X27347Y319355D01*
X28250Y318873D01*
X29231Y318575D01*
X30250Y318475D01*
X31269Y318575D01*
X32250Y318873D01*
X33153Y319355D01*
X33945Y320005D01*
X34595Y320797D01*
X35077Y321700D01*
X35375Y322681D01*
X35475Y323700D01*
X35375Y324719D01*
X35077Y325700D01*
X34595Y326603D01*
X33945Y327395D01*
X33153Y328045D01*
X32250Y328527D01*
X31269Y328825D01*
X30250Y328925D01*
D02*
G37*
G36*
X143750Y68175D02*
X142731Y68075D01*
X141750Y67777D01*
X140847Y67295D01*
X140055Y66645D01*
X139405Y65853D01*
X138923Y64949D01*
X138625Y63969D01*
X138525Y62950D01*
X138625Y61931D01*
X138923Y60950D01*
X139405Y60047D01*
X140055Y59255D01*
X140847Y58605D01*
X141750Y58123D01*
X142731Y57825D01*
X143750Y57725D01*
X144769Y57825D01*
X145750Y58123D01*
X146653Y58605D01*
X147445Y59255D01*
X148095Y60047D01*
X148577Y60950D01*
X148875Y61931D01*
X148975Y62950D01*
X148875Y63969D01*
X148577Y64949D01*
X148095Y65853D01*
X147445Y66645D01*
X146653Y67295D01*
X145750Y67777D01*
X144769Y68075D01*
X143750Y68175D01*
D02*
G37*
G36*
X590800Y325180D02*
X589278Y325060D01*
X587793Y324704D01*
X586383Y324119D01*
X585081Y323322D01*
X583920Y322330D01*
X582928Y321169D01*
X582131Y319867D01*
X581546Y318457D01*
X581190Y316972D01*
X581070Y315450D01*
X581190Y313928D01*
X581546Y312443D01*
X582131Y311033D01*
X582928Y309731D01*
X583920Y308570D01*
X585081Y307578D01*
X586383Y306780D01*
X587793Y306196D01*
X589278Y305840D01*
X590800Y305720D01*
X592322Y305840D01*
X593807Y306196D01*
X595217Y306780D01*
X596519Y307578D01*
X597680Y308570D01*
X598672Y309731D01*
X599469Y311033D01*
X600054Y312443D01*
X600410Y313928D01*
X600530Y315450D01*
X600410Y316972D01*
X600054Y318457D01*
X599469Y319867D01*
X598672Y321169D01*
X597680Y322330D01*
X596519Y323322D01*
X595217Y324119D01*
X593807Y324704D01*
X592322Y325060D01*
X590800Y325180D01*
D02*
G37*
G36*
X20500Y252425D02*
X19481Y252325D01*
X18500Y252027D01*
X17597Y251545D01*
X16805Y250895D01*
X16155Y250103D01*
X15673Y249200D01*
X15375Y248219D01*
X15275Y247200D01*
X15375Y246181D01*
X15673Y245200D01*
X16155Y244297D01*
X16805Y243505D01*
X17597Y242855D01*
X18500Y242373D01*
X19481Y242075D01*
X20500Y241975D01*
X21519Y242075D01*
X22500Y242373D01*
X23403Y242855D01*
X24195Y243505D01*
X24845Y244297D01*
X25327Y245200D01*
X25625Y246181D01*
X25725Y247200D01*
X25625Y248219D01*
X25327Y249200D01*
X24845Y250103D01*
X24195Y250895D01*
X23403Y251545D01*
X22500Y252027D01*
X21519Y252325D01*
X20500Y252425D01*
D02*
G37*
G36*
X597250Y116169D02*
X596277Y116093D01*
X595328Y115865D01*
X594427Y115491D01*
X593595Y114981D01*
X592852Y114348D01*
X592219Y113606D01*
X591709Y112774D01*
X591335Y111872D01*
X591107Y110923D01*
X591031Y109950D01*
X591107Y108977D01*
X591335Y108028D01*
X591709Y107127D01*
X592219Y106294D01*
X592852Y105552D01*
X593595Y104919D01*
X594427Y104409D01*
X595328Y104035D01*
X596277Y103807D01*
X597250Y103731D01*
X598223Y103807D01*
X599172Y104035D01*
X600074Y104409D01*
X600906Y104919D01*
X601648Y105552D01*
X602281Y106294D01*
X602791Y107127D01*
X603165Y108028D01*
X603393Y108977D01*
X603469Y109950D01*
X603393Y110923D01*
X603165Y111872D01*
X602791Y112774D01*
X602281Y113606D01*
X601648Y114348D01*
X600906Y114981D01*
X600074Y115491D01*
X599172Y115865D01*
X598223Y116093D01*
X597250Y116169D01*
D02*
G37*
G36*
X627750Y316919D02*
X626777Y316843D01*
X625828Y316615D01*
X624927Y316241D01*
X624095Y315731D01*
X623352Y315098D01*
X622719Y314356D01*
X622209Y313523D01*
X621835Y312622D01*
X621607Y311673D01*
X621531Y310700D01*
X621607Y309727D01*
X621835Y308778D01*
X622209Y307876D01*
X622719Y307044D01*
X623352Y306302D01*
X624095Y305669D01*
X624927Y305159D01*
X625828Y304785D01*
X626777Y304557D01*
X627750Y304481D01*
X628723Y304557D01*
X629672Y304785D01*
X630573Y305159D01*
X631405Y305669D01*
X632148Y306302D01*
X632781Y307044D01*
X633291Y307876D01*
X633665Y308778D01*
X633893Y309727D01*
X633969Y310700D01*
X633893Y311673D01*
X633665Y312622D01*
X633291Y313523D01*
X632781Y314356D01*
X632148Y315098D01*
X631405Y315731D01*
X630573Y316241D01*
X629672Y316615D01*
X628723Y316843D01*
X627750Y316919D01*
D02*
G37*
G36*
X164000Y379919D02*
X163027Y379843D01*
X162078Y379615D01*
X161177Y379241D01*
X160345Y378731D01*
X159602Y378098D01*
X141852Y360348D01*
X141219Y359606D01*
X140709Y358773D01*
X140335Y357872D01*
X140107Y356923D01*
X140031Y355950D01*
Y350450D01*
X140107Y349477D01*
X140335Y348528D01*
X140709Y347627D01*
X141219Y346795D01*
X141852Y346052D01*
X142594Y345419D01*
X143427Y344909D01*
X144328Y344535D01*
X145277Y344307D01*
X146250Y344231D01*
X147223Y344307D01*
X148172Y344535D01*
X149073Y344909D01*
X149906Y345419D01*
X150648Y346052D01*
X151281Y346795D01*
X151791Y347627D01*
X152165Y348528D01*
X152393Y349477D01*
X152469Y350450D01*
Y353374D01*
X168398Y369302D01*
X169031Y370045D01*
X169541Y370877D01*
X169915Y371778D01*
X170143Y372727D01*
X170219Y373700D01*
X170143Y374673D01*
X169915Y375622D01*
X169541Y376523D01*
X169031Y377356D01*
X168398Y378098D01*
X167656Y378731D01*
X166823Y379241D01*
X165922Y379615D01*
X164973Y379843D01*
X164000Y379919D01*
D02*
G37*
G36*
X489500Y362925D02*
X488481Y362825D01*
X487500Y362527D01*
X486597Y362045D01*
X485805Y361395D01*
X485155Y360603D01*
X484673Y359700D01*
X484375Y358719D01*
X484275Y357700D01*
X484375Y356681D01*
X484673Y355700D01*
X485155Y354797D01*
X485805Y354005D01*
X486597Y353355D01*
X487500Y352873D01*
X488481Y352575D01*
X489500Y352475D01*
X490519Y352575D01*
X491500Y352873D01*
X492403Y353355D01*
X493195Y354005D01*
X493845Y354797D01*
X494327Y355700D01*
X494625Y356681D01*
X494725Y357700D01*
X494625Y358719D01*
X494327Y359700D01*
X493845Y360603D01*
X493195Y361395D01*
X492403Y362045D01*
X491500Y362527D01*
X490519Y362825D01*
X489500Y362925D01*
D02*
G37*
G36*
X90500Y29169D02*
X89527Y29093D01*
X88578Y28865D01*
X87677Y28491D01*
X86845Y27981D01*
X86102Y27348D01*
X85469Y26606D01*
X84959Y25773D01*
X84585Y24872D01*
X84357Y23923D01*
X84281Y22950D01*
X84357Y21977D01*
X84585Y21028D01*
X84959Y20127D01*
X85469Y19294D01*
X86102Y18552D01*
X86845Y17919D01*
X87677Y17409D01*
X88578Y17035D01*
X89527Y16807D01*
X90500Y16731D01*
X91473Y16807D01*
X92422Y17035D01*
X93323Y17409D01*
X94156Y17919D01*
X94898Y18552D01*
X95531Y19294D01*
X96041Y20127D01*
X96415Y21028D01*
X96643Y21977D01*
X96719Y22950D01*
X96643Y23923D01*
X96415Y24872D01*
X96041Y25773D01*
X95531Y26606D01*
X94898Y27348D01*
X94156Y27981D01*
X93323Y28491D01*
X92422Y28865D01*
X91473Y29093D01*
X90500Y29169D01*
D02*
G37*
G36*
X543750Y387919D02*
X542777Y387843D01*
X541828Y387615D01*
X540927Y387241D01*
X540094Y386731D01*
X539352Y386098D01*
X538719Y385355D01*
X538456Y384928D01*
X535250D01*
X535250Y384928D01*
X534415Y384818D01*
X533636Y384495D01*
X532968Y383982D01*
X532968Y383982D01*
X529413Y380428D01*
X467000D01*
X466165Y380318D01*
X465386Y379995D01*
X464718Y379482D01*
X458718Y373482D01*
X458205Y372814D01*
X457882Y372035D01*
X457772Y371200D01*
Y351700D01*
X457882Y350865D01*
X458205Y350086D01*
X458718Y349418D01*
X465289Y342846D01*
X465275Y342700D01*
X465375Y341681D01*
X465673Y340700D01*
X466155Y339797D01*
X466805Y339005D01*
X467597Y338355D01*
X468500Y337873D01*
X469481Y337575D01*
X470500Y337475D01*
X471519Y337575D01*
X472500Y337873D01*
X473403Y338355D01*
X474195Y339005D01*
X474845Y339797D01*
X475327Y340700D01*
X475625Y341681D01*
X475725Y342700D01*
X475625Y343719D01*
X475327Y344700D01*
X474845Y345603D01*
X474195Y346395D01*
X473498Y346966D01*
X473403Y347614D01*
Y347786D01*
X473498Y348434D01*
X474195Y349005D01*
X474845Y349797D01*
X475327Y350700D01*
X475625Y351681D01*
X475725Y352700D01*
X475625Y353719D01*
X475327Y354700D01*
X474845Y355603D01*
X474195Y356395D01*
X473403Y357044D01*
X472500Y357527D01*
X471519Y357825D01*
X470500Y357925D01*
X469481Y357825D01*
X468500Y357527D01*
X467597Y357044D01*
X466805Y356395D01*
X466155Y355603D01*
X465673Y354700D01*
X465498Y354123D01*
X464228Y354311D01*
Y369863D01*
X468337Y373972D01*
X477913D01*
X478674Y372702D01*
X478673Y372700D01*
X478375Y371719D01*
X478275Y370700D01*
X478375Y369681D01*
X478673Y368700D01*
X479155Y367797D01*
X479805Y367005D01*
X480597Y366355D01*
X481500Y365873D01*
X482481Y365575D01*
X483500Y365475D01*
X484519Y365575D01*
X485500Y365873D01*
X486403Y366355D01*
X487195Y367005D01*
X487578Y367472D01*
X489913D01*
X496468Y360918D01*
X497136Y360405D01*
X497915Y360082D01*
X498750Y359972D01*
X500022D01*
Y344950D01*
X500132Y344115D01*
X500455Y343336D01*
X500968Y342668D01*
X501535Y342101D01*
X501049Y340928D01*
X493578D01*
X493195Y341395D01*
X492403Y342045D01*
X491500Y342527D01*
X490519Y342825D01*
X489500Y342925D01*
X488481Y342825D01*
X487500Y342527D01*
X486597Y342045D01*
X485805Y341395D01*
X485155Y340603D01*
X484673Y339700D01*
X484375Y338719D01*
X484275Y337700D01*
X484375Y336681D01*
X484673Y335700D01*
X485155Y334797D01*
X485805Y334005D01*
X486597Y333355D01*
X487500Y332873D01*
X488481Y332575D01*
X489500Y332475D01*
X490519Y332575D01*
X491500Y332873D01*
X492403Y333355D01*
X493195Y334005D01*
X493578Y334472D01*
X505663D01*
X507218Y332918D01*
X507886Y332405D01*
X508665Y332082D01*
X509500Y331972D01*
X515750D01*
X516271Y332041D01*
X516351Y332035D01*
X517349Y331448D01*
X517462Y331353D01*
X517606Y331130D01*
X517625Y330931D01*
X517923Y329950D01*
X518405Y329047D01*
X519055Y328255D01*
X519369Y327998D01*
X518915Y326728D01*
X473087D01*
X416782Y383032D01*
X416114Y383545D01*
X415335Y383868D01*
X414500Y383978D01*
X192500D01*
X192500Y383978D01*
X191665Y383868D01*
X190886Y383545D01*
X190218Y383032D01*
X190218Y383032D01*
X189584Y382399D01*
X188183Y382794D01*
X188165Y382872D01*
X187791Y383773D01*
X187281Y384605D01*
X186648Y385348D01*
X185905Y385981D01*
X185073Y386491D01*
X184172Y386865D01*
X183223Y387093D01*
X182250Y387169D01*
X181277Y387093D01*
X180328Y386865D01*
X179427Y386491D01*
X178594Y385981D01*
X177852Y385348D01*
X177219Y384605D01*
X176709Y383773D01*
X176335Y382872D01*
X176107Y381923D01*
X176031Y380950D01*
X176107Y379977D01*
X176335Y379028D01*
X176709Y378126D01*
X177219Y377294D01*
X177852Y376552D01*
X178594Y375919D01*
X179427Y375409D01*
X180328Y375035D01*
X180406Y375017D01*
X180801Y373616D01*
X149718Y342532D01*
X149205Y341864D01*
X148882Y341085D01*
X148772Y340250D01*
Y303626D01*
X147502Y303195D01*
X147282Y303482D01*
X119482Y331282D01*
X118814Y331795D01*
X118035Y332118D01*
X117200Y332228D01*
X73800D01*
X72965Y332118D01*
X72186Y331795D01*
X71518Y331282D01*
X66311Y326075D01*
X66063Y325985D01*
X65303Y325998D01*
X64743Y326147D01*
X64031Y326981D01*
X63055Y327814D01*
X61961Y328484D01*
X60776Y328975D01*
X59529Y329274D01*
X58250Y329375D01*
X56971Y329274D01*
X55724Y328975D01*
X54538Y328484D01*
X53445Y327814D01*
X52469Y326981D01*
X51636Y326005D01*
X50966Y324911D01*
X50475Y323726D01*
X50175Y322479D01*
X50075Y321200D01*
X50175Y319921D01*
X50475Y318674D01*
X50729Y318060D01*
X49729Y317155D01*
X49500Y317277D01*
X48519Y317575D01*
X47500Y317675D01*
X46481Y317575D01*
X45500Y317277D01*
X44597Y316794D01*
X43805Y316145D01*
X43217Y315428D01*
X42000D01*
X41165Y315318D01*
X40386Y314995D01*
X39718Y314482D01*
X24968Y299732D01*
X24455Y299064D01*
X24132Y298285D01*
X24022Y297450D01*
Y286405D01*
X23988Y286331D01*
X23622Y285956D01*
X22836Y285479D01*
X22519Y285575D01*
X21500Y285675D01*
X20671Y285593D01*
X18228Y288037D01*
Y305363D01*
X20199Y307335D01*
X20231Y307325D01*
X21250Y307225D01*
X22269Y307325D01*
X23250Y307623D01*
X24153Y308105D01*
X24945Y308755D01*
X25595Y309547D01*
X26077Y310450D01*
X26375Y311431D01*
X26475Y312450D01*
X26375Y313469D01*
X26077Y314450D01*
X25595Y315353D01*
X24945Y316145D01*
X24153Y316794D01*
X23250Y317277D01*
X22269Y317575D01*
X21250Y317675D01*
X20231Y317575D01*
X19250Y317277D01*
X18347Y316794D01*
X17555Y316145D01*
X16905Y315353D01*
X16423Y314450D01*
X16125Y313469D01*
X16025Y312450D01*
X16039Y312304D01*
X12718Y308982D01*
X12205Y308314D01*
X11882Y307535D01*
X11772Y306700D01*
Y286700D01*
X11882Y285865D01*
X12205Y285086D01*
X12718Y284418D01*
X16312Y280824D01*
X16275Y280450D01*
X16375Y279431D01*
X16673Y278450D01*
X17155Y277547D01*
X17805Y276755D01*
X18597Y276105D01*
X19500Y275623D01*
X20481Y275325D01*
X21500Y275225D01*
X22519Y275325D01*
X23500Y275623D01*
X24403Y276105D01*
X25195Y276755D01*
X25845Y277547D01*
X26327Y278450D01*
X26625Y279431D01*
X26718Y280372D01*
X26924Y280528D01*
X27954Y280932D01*
X30718Y278168D01*
X31386Y277655D01*
X32165Y277332D01*
X33000Y277222D01*
X43672D01*
X44055Y276755D01*
X44847Y276105D01*
X45750Y275623D01*
X46731Y275325D01*
X47750Y275225D01*
X47877Y275237D01*
X48453Y274018D01*
X44260Y269824D01*
X42922Y269868D01*
X42695Y270145D01*
X41903Y270795D01*
X41000Y271277D01*
X40019Y271575D01*
X39000Y271675D01*
X37981Y271575D01*
X37000Y271277D01*
X36097Y270795D01*
X35305Y270145D01*
X34655Y269353D01*
X34173Y268450D01*
X33875Y267469D01*
X33775Y266450D01*
X33875Y265431D01*
X33880Y265414D01*
X33788Y265114D01*
X32945Y264121D01*
X32481Y264075D01*
X31500Y263777D01*
X30597Y263295D01*
X29805Y262645D01*
X29155Y261853D01*
X28673Y260950D01*
X28375Y259969D01*
X28275Y258950D01*
X28375Y257931D01*
X28673Y256950D01*
X29155Y256047D01*
X29805Y255255D01*
X30597Y254605D01*
X31500Y254123D01*
X32481Y253825D01*
X33500Y253725D01*
X34519Y253825D01*
X35500Y254123D01*
X36403Y254605D01*
X37195Y255255D01*
X37845Y256047D01*
X38327Y256950D01*
X38625Y257931D01*
X38725Y258950D01*
X38625Y259969D01*
X38620Y259986D01*
X38712Y260286D01*
X39555Y261279D01*
X40019Y261325D01*
X41000Y261623D01*
X41903Y262105D01*
X42695Y262755D01*
X43078Y263222D01*
X45450D01*
X46285Y263332D01*
X47064Y263655D01*
X47732Y264168D01*
X52239Y268675D01*
X52535Y268645D01*
X53607Y267673D01*
X53531Y266700D01*
X53607Y265727D01*
X53835Y264778D01*
X54209Y263877D01*
X54719Y263044D01*
X55352Y262302D01*
X56094Y261669D01*
X56927Y261159D01*
X57275Y261014D01*
X57888Y260321D01*
X58002Y259437D01*
X57875Y259019D01*
X56769Y258575D01*
X55750Y258675D01*
X54731Y258575D01*
X53750Y258277D01*
X52847Y257795D01*
X52055Y257145D01*
X51405Y256353D01*
X50923Y255450D01*
X50625Y254469D01*
X50525Y253450D01*
X50625Y252431D01*
X50923Y251450D01*
X51325Y250698D01*
X51152Y250155D01*
X50681Y249428D01*
X46828D01*
X46445Y249895D01*
X45653Y250545D01*
X44750Y251027D01*
X43769Y251325D01*
X42750Y251425D01*
X41731Y251325D01*
X40750Y251027D01*
X39847Y250545D01*
X39055Y249895D01*
X38405Y249103D01*
X37923Y248200D01*
X37625Y247219D01*
X37525Y246200D01*
X37625Y245181D01*
X37923Y244200D01*
X38405Y243297D01*
X39055Y242505D01*
X39847Y241855D01*
X40142Y241698D01*
X39824Y240428D01*
X38078D01*
X37695Y240895D01*
X36903Y241545D01*
X36000Y242027D01*
X35019Y242325D01*
X34000Y242425D01*
X32981Y242325D01*
X32000Y242027D01*
X31097Y241545D01*
X30305Y240895D01*
X29655Y240103D01*
X29173Y239200D01*
X28875Y238219D01*
X28775Y237200D01*
X28875Y236181D01*
X29173Y235200D01*
X29655Y234297D01*
X30305Y233505D01*
X30313Y233499D01*
X29849Y232322D01*
X28809Y232206D01*
X26032Y234982D01*
X25364Y235495D01*
X24585Y235818D01*
X23750Y235928D01*
X22828D01*
X22445Y236395D01*
X21653Y237045D01*
X20750Y237527D01*
X19769Y237825D01*
X18750Y237925D01*
X17731Y237825D01*
X16750Y237527D01*
X15847Y237045D01*
X15055Y236395D01*
X14405Y235603D01*
X13923Y234700D01*
X13625Y233719D01*
X13525Y232700D01*
X13584Y232099D01*
X8468Y226982D01*
X7955Y226314D01*
X7632Y225535D01*
X7522Y224700D01*
Y188450D01*
X7632Y187615D01*
X7955Y186836D01*
X8468Y186168D01*
X13584Y181051D01*
X13525Y180450D01*
X13625Y179431D01*
X13923Y178450D01*
X14405Y177547D01*
X15055Y176755D01*
X15847Y176105D01*
X16750Y175623D01*
X17731Y175325D01*
X18750Y175225D01*
X19769Y175325D01*
X20750Y175623D01*
X21653Y176105D01*
X22445Y176755D01*
X23095Y177547D01*
X23577Y178450D01*
X23875Y179431D01*
X23975Y180450D01*
X23875Y181469D01*
X23577Y182449D01*
X23095Y183353D01*
X22445Y184145D01*
X21653Y184795D01*
X20750Y185277D01*
X19769Y185575D01*
X18750Y185675D01*
X18149Y185616D01*
X13978Y189787D01*
Y191566D01*
X14530Y191919D01*
X15248Y192097D01*
X15847Y191605D01*
X16750Y191123D01*
X17731Y190825D01*
X18750Y190725D01*
X19769Y190825D01*
X20750Y191123D01*
X21653Y191605D01*
X22445Y192255D01*
X23094Y193047D01*
X23577Y193950D01*
X23875Y194931D01*
X23975Y195950D01*
X23925Y196456D01*
X25171Y196768D01*
X25209Y196677D01*
X25719Y195844D01*
X26352Y195102D01*
X27095Y194469D01*
X27927Y193959D01*
X28828Y193585D01*
X29777Y193357D01*
X30750Y193281D01*
X31723Y193357D01*
X32672Y193585D01*
X33573Y193959D01*
X34252Y194375D01*
X34795Y194219D01*
X35522Y193752D01*
Y192337D01*
X34551Y191365D01*
X34519Y191375D01*
X33500Y191475D01*
X32481Y191375D01*
X31500Y191077D01*
X30597Y190595D01*
X29805Y189945D01*
X29155Y189153D01*
X28673Y188250D01*
X28375Y187269D01*
X28275Y186250D01*
X28375Y185231D01*
X28673Y184250D01*
X29155Y183347D01*
X29805Y182555D01*
X29990Y182404D01*
X30050Y182294D01*
Y180906D01*
X29990Y180796D01*
X29805Y180645D01*
X29155Y179853D01*
X28673Y178950D01*
X28375Y177969D01*
X28275Y176950D01*
X28375Y175931D01*
X28673Y174950D01*
X29155Y174047D01*
X29805Y173255D01*
X30597Y172605D01*
X31500Y172123D01*
X32481Y171825D01*
X33500Y171725D01*
X33843Y171393D01*
X33697Y170789D01*
X33097Y170160D01*
X32231Y170075D01*
X31250Y169777D01*
X30347Y169295D01*
X29555Y168645D01*
X28905Y167853D01*
X28423Y166950D01*
X28125Y165969D01*
X28067Y165382D01*
X22468Y159782D01*
X21955Y159114D01*
X21632Y158335D01*
X21522Y157500D01*
Y150411D01*
X20252Y149678D01*
X19769Y149825D01*
X18750Y149925D01*
X17731Y149825D01*
X16750Y149527D01*
X15847Y149045D01*
X15055Y148395D01*
X14405Y147603D01*
X13923Y146700D01*
X13625Y145719D01*
X13525Y144700D01*
X13625Y143681D01*
X13923Y142700D01*
X14405Y141797D01*
X15055Y141005D01*
X15847Y140355D01*
X16750Y139873D01*
X17731Y139575D01*
X18750Y139475D01*
X19769Y139575D01*
X20252Y139722D01*
X21522Y138989D01*
Y134500D01*
X21632Y133665D01*
X21955Y132886D01*
X22468Y132218D01*
X29446Y125240D01*
X29086Y123803D01*
X29000Y123777D01*
X28097Y123295D01*
X27305Y122645D01*
X26655Y121853D01*
X26173Y120950D01*
X25875Y119969D01*
X25775Y118950D01*
X25822Y118476D01*
X24884Y117638D01*
X23708Y118019D01*
X23577Y118450D01*
X23095Y119353D01*
X22445Y120145D01*
X21748Y120716D01*
X21653Y121364D01*
Y121536D01*
X21748Y122184D01*
X22445Y122755D01*
X23095Y123547D01*
X23577Y124450D01*
X23875Y125431D01*
X23975Y126450D01*
X23875Y127469D01*
X23577Y128450D01*
X23095Y129353D01*
X22445Y130145D01*
X21653Y130795D01*
X20750Y131277D01*
X19769Y131575D01*
X18750Y131675D01*
X17731Y131575D01*
X16750Y131277D01*
X15847Y130795D01*
X15055Y130145D01*
X14405Y129353D01*
X13923Y128450D01*
X13625Y127469D01*
X13525Y126450D01*
X13625Y125431D01*
X13923Y124450D01*
X14405Y123547D01*
X15055Y122755D01*
X15752Y122184D01*
X15847Y121536D01*
Y121364D01*
X15752Y120716D01*
X15055Y120145D01*
X14672Y119678D01*
X14450D01*
X13615Y119568D01*
X12836Y119245D01*
X12168Y118732D01*
X6968Y113532D01*
X6455Y112864D01*
X6132Y112085D01*
X6022Y111250D01*
Y76500D01*
X6132Y75665D01*
X6455Y74886D01*
X6968Y74218D01*
X12218Y68968D01*
X12218Y68968D01*
X12886Y68455D01*
X13665Y68132D01*
X14500Y68022D01*
X25750D01*
X26585Y68132D01*
X27364Y68455D01*
X28032Y68968D01*
X28599Y69535D01*
X29772Y69049D01*
Y68000D01*
X29882Y67165D01*
X30205Y66386D01*
X30718Y65718D01*
X36218Y60218D01*
X36886Y59705D01*
X37665Y59382D01*
X38500Y59272D01*
X38500Y59272D01*
X63468D01*
X64366Y58211D01*
X64357Y58173D01*
X64281Y57200D01*
X64357Y56227D01*
X64585Y55278D01*
X64959Y54377D01*
X65469Y53544D01*
X66102Y52802D01*
X66845Y52169D01*
X67677Y51659D01*
X68578Y51285D01*
X69527Y51057D01*
X70500Y50981D01*
X71473Y51057D01*
X72422Y51285D01*
X73323Y51659D01*
X74156Y52169D01*
X74898Y52802D01*
X75002Y52925D01*
X76272Y52456D01*
Y52450D01*
X76382Y51615D01*
X76705Y50836D01*
X77218Y50168D01*
X94334Y33051D01*
X94275Y32450D01*
X94375Y31431D01*
X94673Y30450D01*
X95155Y29547D01*
X95805Y28755D01*
X96597Y28105D01*
X97500Y27623D01*
X98481Y27325D01*
X99500Y27225D01*
X100519Y27325D01*
X101500Y27623D01*
X102403Y28105D01*
X103195Y28755D01*
X103845Y29547D01*
X104327Y30450D01*
X104404Y30703D01*
X105815Y31209D01*
X105835Y31206D01*
X105836Y31205D01*
X106615Y30882D01*
X107450Y30772D01*
X130363D01*
X133405Y27731D01*
X133351Y27296D01*
X132898Y26442D01*
X132277Y26393D01*
X131328Y26165D01*
X130427Y25791D01*
X129594Y25281D01*
X128852Y24648D01*
X128219Y23905D01*
X127709Y23073D01*
X127335Y22172D01*
X127107Y21223D01*
X127031Y20250D01*
X127107Y19277D01*
X127335Y18328D01*
X127709Y17427D01*
X128219Y16595D01*
X128852Y15852D01*
X129594Y15219D01*
X130427Y14709D01*
X131328Y14335D01*
X132277Y14107D01*
X133250Y14031D01*
X134223Y14107D01*
X135172Y14335D01*
X136073Y14709D01*
X136905Y15219D01*
X137648Y15852D01*
X138281Y16595D01*
X138791Y17427D01*
X139165Y18328D01*
X139393Y19277D01*
X140607D01*
X140835Y18328D01*
X141209Y17427D01*
X141719Y16595D01*
X142352Y15852D01*
X143095Y15219D01*
X143927Y14709D01*
X144828Y14335D01*
X145777Y14107D01*
X146750Y14031D01*
X147723Y14107D01*
X148672Y14335D01*
X149573Y14709D01*
X150406Y15219D01*
X151148Y15852D01*
X151781Y16595D01*
X152291Y17427D01*
X152665Y18328D01*
X152893Y19277D01*
X152964Y20186D01*
X153120Y20310D01*
X154204Y20742D01*
X155602Y19344D01*
X155607Y19277D01*
X155835Y18328D01*
X156209Y17427D01*
X156719Y16595D01*
X157352Y15852D01*
X158095Y15219D01*
X158927Y14709D01*
X159828Y14335D01*
X160777Y14107D01*
X161750Y14031D01*
X162723Y14107D01*
X163672Y14335D01*
X164573Y14709D01*
X165406Y15219D01*
X166148Y15852D01*
X166781Y16595D01*
X167291Y17427D01*
X167665Y18328D01*
X167893Y19277D01*
X167969Y20250D01*
X167893Y21223D01*
X167665Y22172D01*
X167291Y23073D01*
X166781Y23905D01*
X166148Y24648D01*
X165406Y25281D01*
X164573Y25791D01*
X163672Y26165D01*
X162723Y26393D01*
X161750Y26469D01*
X160777Y26393D01*
X159828Y26165D01*
X158927Y25791D01*
X158528Y25547D01*
X142478Y41598D01*
Y44750D01*
X142368Y45585D01*
X142045Y46364D01*
X141532Y47032D01*
X135282Y53282D01*
X134614Y53795D01*
X133835Y54118D01*
X133000Y54228D01*
X129848D01*
X127581Y56494D01*
X127689Y57376D01*
X127912Y57959D01*
X128653Y58355D01*
X129445Y59005D01*
X130095Y59797D01*
X130577Y60700D01*
X130875Y61681D01*
X130975Y62700D01*
X130875Y63719D01*
X130577Y64700D01*
X130095Y65603D01*
X129445Y66395D01*
X128653Y67045D01*
X127750Y67527D01*
X126769Y67825D01*
X125750Y67925D01*
X124731Y67825D01*
X123750Y67527D01*
X122847Y67045D01*
X122055Y66395D01*
X121405Y65603D01*
X121010Y64862D01*
X120427Y64639D01*
X119544Y64531D01*
X105466Y78609D01*
X105475Y78700D01*
X105375Y79719D01*
X105077Y80700D01*
X104595Y81603D01*
X103945Y82395D01*
X103153Y83045D01*
X102250Y83527D01*
X101541Y83742D01*
X101256Y83845D01*
X100478Y85000D01*
Y91549D01*
X101651Y92035D01*
X102218Y91468D01*
X102886Y90955D01*
X103665Y90632D01*
X104500Y90522D01*
X112232D01*
X112687Y89252D01*
X112555Y89145D01*
X111905Y88353D01*
X111423Y87450D01*
X111125Y86469D01*
X111025Y85450D01*
X111125Y84431D01*
X111423Y83450D01*
X111905Y82547D01*
X112555Y81755D01*
X113347Y81105D01*
X114250Y80623D01*
X115231Y80325D01*
X116250Y80225D01*
X117269Y80325D01*
X118250Y80623D01*
X119153Y81105D01*
X119945Y81755D01*
X120595Y82547D01*
X120956Y83222D01*
X143663D01*
X157718Y69168D01*
X158386Y68655D01*
X159165Y68332D01*
X160000Y68222D01*
X163921D01*
X164375Y66952D01*
X164305Y66895D01*
X163655Y66103D01*
X163172Y65200D01*
X162875Y64219D01*
X162775Y63200D01*
X162875Y62181D01*
X163172Y61200D01*
X163655Y60297D01*
X164305Y59505D01*
X165097Y58855D01*
X166000Y58373D01*
X166981Y58075D01*
X168000Y57975D01*
X169019Y58075D01*
X170000Y58373D01*
X170903Y58855D01*
X171695Y59505D01*
X172344Y60297D01*
X172827Y61200D01*
X173074Y62015D01*
X173586Y62279D01*
X174428Y62457D01*
X229918Y6968D01*
X230586Y6455D01*
X231365Y6132D01*
X232200Y6022D01*
X416300D01*
X417135Y6132D01*
X417914Y6455D01*
X418582Y6968D01*
X424637Y13022D01*
X466750D01*
X467585Y13132D01*
X468364Y13455D01*
X469032Y13968D01*
X471032Y15968D01*
X471183Y16165D01*
X472554Y16276D01*
X472718Y16218D01*
X479768Y9168D01*
X480436Y8655D01*
X481215Y8332D01*
X482050Y8222D01*
X527750D01*
X528585Y8332D01*
X529364Y8655D01*
X530032Y9168D01*
X533458Y12593D01*
X534250Y12531D01*
X535223Y12607D01*
X536172Y12835D01*
X537073Y13209D01*
X537906Y13719D01*
X538648Y14352D01*
X539281Y15094D01*
X539791Y15927D01*
X540165Y16828D01*
X540393Y17777D01*
X540469Y18750D01*
X540393Y19723D01*
X540401Y19818D01*
X541343Y21047D01*
X541473Y21057D01*
X542422Y21285D01*
X543323Y21659D01*
X544156Y22169D01*
X544898Y22802D01*
X545531Y23544D01*
X546041Y24377D01*
X546415Y25278D01*
X546643Y26227D01*
X546719Y27200D01*
X546643Y28173D01*
X546415Y29122D01*
X546041Y30023D01*
X545531Y30856D01*
X544898Y31598D01*
X544156Y32231D01*
X543323Y32741D01*
X542422Y33115D01*
X542121Y33187D01*
X541595Y34547D01*
X542077Y35450D01*
X542375Y36431D01*
X542475Y37450D01*
X542375Y38469D01*
X542077Y39450D01*
X541595Y40353D01*
X540945Y41145D01*
X540433Y41565D01*
X540300Y42177D01*
Y42473D01*
X540433Y43085D01*
X540945Y43505D01*
X541595Y44297D01*
X542077Y45200D01*
X542375Y46181D01*
X542475Y47200D01*
X542375Y48219D01*
X542077Y49200D01*
X541595Y50103D01*
X540945Y50895D01*
X540153Y51545D01*
X539250Y52027D01*
X538269Y52325D01*
X537250Y52425D01*
X536231Y52325D01*
X535250Y52027D01*
X534347Y51545D01*
X533555Y50895D01*
X532905Y50103D01*
X532423Y49200D01*
X532125Y48219D01*
X532025Y47200D01*
X532125Y46181D01*
X532423Y45200D01*
X532905Y44297D01*
X533555Y43505D01*
X534067Y43085D01*
X534200Y42473D01*
Y42177D01*
X534067Y41565D01*
X533555Y41145D01*
X532905Y40353D01*
X532423Y39450D01*
X532125Y38469D01*
X532025Y37450D01*
X532125Y36431D01*
X532423Y35450D01*
X532905Y34547D01*
X533555Y33755D01*
X534347Y33105D01*
X535250Y32623D01*
X535322Y32601D01*
X535454Y32430D01*
X535722Y31152D01*
X535469Y30856D01*
X534959Y30023D01*
X534585Y29122D01*
X534537Y28921D01*
X534455Y28814D01*
X534132Y28035D01*
X534022Y27200D01*
X534132Y26365D01*
X534192Y26222D01*
X533499Y24954D01*
X533467Y24933D01*
X533408Y24903D01*
X533277Y24893D01*
X532328Y24665D01*
X531427Y24291D01*
X530594Y23781D01*
X529852Y23148D01*
X529219Y22406D01*
X528709Y21573D01*
X528335Y20672D01*
X528107Y19723D01*
X528031Y18750D01*
X528107Y17777D01*
X528335Y16828D01*
X528402Y16667D01*
X527201Y15466D01*
X527000Y15525D01*
X526165Y16828D01*
X526393Y17777D01*
X526469Y18750D01*
X526393Y19723D01*
X526165Y20672D01*
X525791Y21573D01*
X525281Y22406D01*
X524648Y23148D01*
X523906Y23781D01*
X523074Y24291D01*
X522172Y24665D01*
X521223Y24893D01*
X520250Y24969D01*
X519277Y24893D01*
X518328Y24665D01*
X517427Y24291D01*
X516595Y23781D01*
X515852Y23148D01*
X515229Y22418D01*
X504290D01*
X499472Y27236D01*
X499375Y28219D01*
X499077Y29200D01*
X498595Y30103D01*
X497945Y30895D01*
X497153Y31545D01*
X496250Y32027D01*
X495269Y32325D01*
X494250Y32425D01*
X493231Y32325D01*
X492250Y32027D01*
X491347Y31545D01*
X490555Y30895D01*
X490248Y30520D01*
X488978Y30974D01*
Y43426D01*
X490248Y43880D01*
X490555Y43505D01*
X491347Y42855D01*
X492250Y42373D01*
X493231Y42075D01*
X494250Y41975D01*
X495269Y42075D01*
X496250Y42373D01*
X497153Y42855D01*
X497945Y43505D01*
X498595Y44297D01*
X499077Y45200D01*
X499375Y46181D01*
X499475Y47200D01*
X499375Y48219D01*
X499077Y49200D01*
X498595Y50103D01*
X497945Y50895D01*
X497153Y51545D01*
X496250Y52027D01*
X495269Y52325D01*
X494250Y52425D01*
X493231Y52325D01*
X492250Y52027D01*
X491347Y51545D01*
X490636Y50961D01*
X490280Y51005D01*
X489320Y51391D01*
X489275Y51859D01*
X489332Y52166D01*
X490153Y52606D01*
X490945Y53255D01*
X491595Y54047D01*
X492077Y54950D01*
X492375Y55931D01*
X492475Y56950D01*
X492375Y57969D01*
X492191Y58576D01*
X494137Y60522D01*
X499613D01*
X503272Y56863D01*
Y43950D01*
X503382Y43115D01*
X503705Y42336D01*
X504218Y41668D01*
X513084Y32801D01*
X513025Y32200D01*
X513125Y31181D01*
X513423Y30200D01*
X513905Y29297D01*
X514555Y28505D01*
X515347Y27855D01*
X516250Y27373D01*
X517231Y27075D01*
X518250Y26975D01*
X519269Y27075D01*
X520250Y27373D01*
X521153Y27855D01*
X521945Y28505D01*
X522595Y29297D01*
X523077Y30200D01*
X523375Y31181D01*
X523475Y32200D01*
X523375Y33219D01*
X523077Y34200D01*
X522595Y35103D01*
X521945Y35895D01*
X521248Y36466D01*
X521153Y37114D01*
Y37286D01*
X521248Y37934D01*
X521945Y38505D01*
X522595Y39297D01*
X523077Y40200D01*
X523375Y41181D01*
X523475Y42200D01*
X523375Y43219D01*
X523077Y44200D01*
X522595Y45103D01*
X521945Y45895D01*
X521153Y46545D01*
X520250Y47027D01*
X519269Y47325D01*
X518250Y47425D01*
X517231Y47325D01*
X516250Y47027D01*
X515347Y46545D01*
X514555Y45895D01*
X513905Y45103D01*
X513423Y44200D01*
X513234Y43577D01*
X512291Y43187D01*
X511844Y43170D01*
X509728Y45287D01*
Y53176D01*
X510998Y53630D01*
X511305Y53255D01*
X512097Y52606D01*
X513000Y52123D01*
X513981Y51825D01*
X515000Y51725D01*
X516019Y51825D01*
X517000Y52123D01*
X517903Y52606D01*
X518695Y53255D01*
X519345Y54047D01*
X519827Y54950D01*
X520125Y55931D01*
X520225Y56950D01*
X520125Y57969D01*
X519827Y58950D01*
X519345Y59853D01*
X518695Y60645D01*
X517903Y61295D01*
X517000Y61777D01*
X516019Y62075D01*
X515000Y62175D01*
X513981Y62075D01*
X513000Y61777D01*
X512097Y61295D01*
X511305Y60645D01*
X510655Y59853D01*
X510654Y59851D01*
X510109Y59737D01*
X509236Y59891D01*
X508782Y60482D01*
X503232Y66032D01*
X502564Y66545D01*
X501785Y66868D01*
X500950Y66978D01*
X492800D01*
X491965Y66868D01*
X491186Y66545D01*
X490518Y66032D01*
X486596Y62111D01*
X486231Y62075D01*
X485250Y61777D01*
X484347Y61295D01*
X483555Y60645D01*
X482905Y59853D01*
X482423Y58950D01*
X482125Y57969D01*
X482025Y56950D01*
X482125Y55931D01*
X482423Y54950D01*
X482522Y54764D01*
Y24244D01*
X482094Y23981D01*
X481352Y23348D01*
X480719Y22606D01*
X480209Y21773D01*
X480002Y21274D01*
X479007Y20737D01*
X478476Y20651D01*
X478438Y20672D01*
X478228Y21014D01*
Y28122D01*
X478695Y28505D01*
X479345Y29297D01*
X479827Y30200D01*
X480125Y31181D01*
X480225Y32200D01*
X480125Y33219D01*
X479827Y34200D01*
X479345Y35103D01*
X478695Y35895D01*
X477998Y36466D01*
X477903Y37114D01*
Y37286D01*
X477998Y37934D01*
X478695Y38505D01*
X479345Y39297D01*
X479827Y40200D01*
X480125Y41181D01*
X480225Y42200D01*
X480125Y43219D01*
X479827Y44200D01*
X479345Y45103D01*
X478695Y45895D01*
X477903Y46545D01*
X477000Y47027D01*
X476019Y47325D01*
X475000Y47425D01*
X473981Y47325D01*
X473000Y47027D01*
X472097Y46545D01*
X471305Y45895D01*
X470655Y45103D01*
X470173Y44200D01*
X469875Y43219D01*
X469775Y42200D01*
X469834Y41599D01*
X468143Y39907D01*
X466969Y40393D01*
Y47624D01*
X498333Y78987D01*
X499223Y79057D01*
X500172Y79285D01*
X501073Y79659D01*
X501589Y79975D01*
X508000D01*
X509019Y80075D01*
X510000Y80373D01*
X510903Y80855D01*
X511695Y81505D01*
X512345Y82297D01*
X512762Y83078D01*
X513060Y83236D01*
X514220Y83416D01*
X517968Y79668D01*
X517968Y79668D01*
X518636Y79155D01*
X519415Y78832D01*
X520250Y78722D01*
X520250Y78722D01*
X546500D01*
X547335Y78832D01*
X548114Y79155D01*
X548782Y79668D01*
X557599Y88484D01*
X558750Y87839D01*
X558590Y87172D01*
X558470Y85650D01*
X558590Y84128D01*
X558946Y82643D01*
X559530Y81233D01*
X560328Y79931D01*
X561320Y78770D01*
X562481Y77778D01*
X563783Y76981D01*
X565193Y76396D01*
X566678Y76040D01*
X568200Y75920D01*
X569722Y76040D01*
X571207Y76396D01*
X572617Y76981D01*
X573919Y77778D01*
X575080Y78770D01*
X576072Y79931D01*
X576870Y81233D01*
X577454Y82643D01*
X577810Y84128D01*
X577930Y85650D01*
X577810Y87172D01*
X577454Y88657D01*
X576870Y90067D01*
X576072Y91369D01*
X575080Y92530D01*
X573919Y93522D01*
X572617Y94319D01*
X571207Y94904D01*
X569722Y95260D01*
X568200Y95380D01*
X566678Y95260D01*
X566011Y95100D01*
X565366Y96251D01*
X599032Y129918D01*
X599032Y129918D01*
X599545Y130586D01*
X599868Y131365D01*
X599978Y132200D01*
X599978Y132200D01*
Y140913D01*
X606282Y147218D01*
X606795Y147886D01*
X607118Y148665D01*
X607228Y149500D01*
Y154156D01*
X607656Y154419D01*
X608398Y155052D01*
X609031Y155794D01*
X609541Y156627D01*
X609915Y157528D01*
X610143Y158477D01*
X610219Y159450D01*
X610143Y160423D01*
X609915Y161372D01*
X609541Y162273D01*
X610266Y163522D01*
X614250D01*
X615085Y163632D01*
X615864Y163955D01*
X616532Y164468D01*
X625782Y173718D01*
X625782Y173718D01*
X626295Y174386D01*
X626618Y175165D01*
X626728Y176000D01*
Y274250D01*
X626618Y275085D01*
X626295Y275864D01*
X625782Y276532D01*
X600282Y302032D01*
X599614Y302545D01*
X598835Y302868D01*
X598000Y302978D01*
X566087D01*
X563571Y305494D01*
X564290Y306570D01*
X565193Y306196D01*
X566678Y305840D01*
X568200Y305720D01*
X569722Y305840D01*
X571207Y306196D01*
X572617Y306780D01*
X573919Y307578D01*
X575080Y308570D01*
X576072Y309731D01*
X576870Y311033D01*
X577454Y312443D01*
X577810Y313928D01*
X577930Y315450D01*
X577810Y316972D01*
X577454Y318457D01*
X576870Y319867D01*
X576072Y321169D01*
X575080Y322330D01*
X573919Y323322D01*
X572617Y324119D01*
X571207Y324704D01*
X569722Y325060D01*
X568200Y325180D01*
X566678Y325060D01*
X565193Y324704D01*
X563783Y324119D01*
X562481Y323322D01*
X561320Y322330D01*
X560328Y321169D01*
X559530Y319867D01*
X558946Y318457D01*
X558590Y316972D01*
X558470Y315450D01*
X558590Y313928D01*
X558946Y312443D01*
X559320Y311540D01*
X558243Y310821D01*
X543282Y325782D01*
X542614Y326295D01*
X541835Y326618D01*
X541000Y326728D01*
X526911D01*
X526426Y327932D01*
X527057Y328722D01*
X542250D01*
X543085Y328832D01*
X543864Y329155D01*
X544532Y329668D01*
X553532Y338668D01*
X554045Y339336D01*
X554368Y340115D01*
X554478Y340950D01*
X554478Y340950D01*
Y363950D01*
X554368Y364785D01*
X554045Y365564D01*
X553532Y366232D01*
X549903Y369861D01*
X549969Y370700D01*
X549893Y371673D01*
X549665Y372622D01*
X549291Y373523D01*
X548781Y374356D01*
X548148Y375098D01*
X547782Y375410D01*
X547657Y375828D01*
Y376572D01*
X547782Y376990D01*
X548148Y377302D01*
X548781Y378045D01*
X549291Y378877D01*
X549665Y379778D01*
X549893Y380727D01*
X549969Y381700D01*
X549893Y382673D01*
X549665Y383622D01*
X549291Y384523D01*
X548781Y385355D01*
X548148Y386098D01*
X547406Y386731D01*
X546573Y387241D01*
X545672Y387615D01*
X544723Y387843D01*
X543750Y387919D01*
D02*
G37*
G36*
X99500Y353919D02*
X98527Y353843D01*
X97578Y353615D01*
X96677Y353241D01*
X95844Y352731D01*
X95102Y352098D01*
X94469Y351356D01*
X93959Y350523D01*
X93585Y349622D01*
X93357Y348673D01*
X93281Y347700D01*
X93357Y346727D01*
X93585Y345778D01*
X93959Y344877D01*
X94469Y344044D01*
X95102Y343302D01*
X95844Y342669D01*
X96677Y342159D01*
X97578Y341785D01*
X98527Y341557D01*
X99500Y341481D01*
X100473Y341557D01*
X101422Y341785D01*
X102323Y342159D01*
X103155Y342669D01*
X103898Y343302D01*
X104531Y344044D01*
X105041Y344877D01*
X105415Y345778D01*
X105643Y346727D01*
X105719Y347700D01*
X105643Y348673D01*
X105415Y349622D01*
X105041Y350523D01*
X104531Y351356D01*
X103898Y352098D01*
X103155Y352731D01*
X102323Y353241D01*
X101422Y353615D01*
X100473Y353843D01*
X99500Y353919D01*
D02*
G37*
G36*
X132500Y356419D02*
X131527Y356343D01*
X130578Y356115D01*
X129677Y355741D01*
X128844Y355231D01*
X128102Y354598D01*
X127469Y353856D01*
X126959Y353023D01*
X126585Y352122D01*
X126357Y351173D01*
X126281Y350200D01*
X126357Y349227D01*
X126585Y348278D01*
X126959Y347377D01*
X127469Y346544D01*
X128102Y345802D01*
X128844Y345169D01*
X129677Y344659D01*
X130578Y344285D01*
X131527Y344057D01*
X132500Y343981D01*
X133473Y344057D01*
X134422Y344285D01*
X135323Y344659D01*
X136156Y345169D01*
X136898Y345802D01*
X137531Y346544D01*
X138041Y347377D01*
X138415Y348278D01*
X138643Y349227D01*
X138719Y350200D01*
X138643Y351173D01*
X138415Y352122D01*
X138041Y353023D01*
X137531Y353856D01*
X136898Y354598D01*
X136156Y355231D01*
X135323Y355741D01*
X134422Y356115D01*
X133473Y356343D01*
X132500Y356419D01*
D02*
G37*
%LPD*%
G36*
X249522Y156613D02*
Y152376D01*
X248252Y151945D01*
X248032Y152232D01*
X220032Y180232D01*
X219364Y180745D01*
X218585Y181068D01*
X217750Y181178D01*
X162837D01*
X162076Y182448D01*
X162077Y182450D01*
X162375Y183431D01*
X162475Y184450D01*
X162375Y185469D01*
X162213Y186002D01*
X162920Y187272D01*
X218863D01*
X249522Y156613D01*
D02*
G37*
G36*
X106197Y141966D02*
X106356Y141914D01*
X106687Y141726D01*
X106923Y140950D01*
X107405Y140047D01*
X108055Y139255D01*
X108847Y138605D01*
X109750Y138123D01*
X110731Y137825D01*
X111750Y137725D01*
X112769Y137825D01*
X113750Y138123D01*
X113820Y138160D01*
X113905Y138186D01*
X115108Y138140D01*
X115544Y137694D01*
X115718Y137468D01*
X118968Y134218D01*
X119636Y133705D01*
X120415Y133382D01*
X121250Y133272D01*
X123940D01*
X124701Y132002D01*
X124673Y131950D01*
X124375Y130969D01*
X124275Y129950D01*
X124375Y128931D01*
X124673Y127950D01*
X125155Y127047D01*
X125805Y126255D01*
X127194Y124867D01*
X127335Y124278D01*
X127709Y123377D01*
X128219Y122544D01*
X128852Y121802D01*
X129594Y121169D01*
X130427Y120659D01*
X131328Y120285D01*
X132277Y120057D01*
X133250Y119981D01*
X146953D01*
X147634Y119184D01*
X148615Y118346D01*
X149716Y117671D01*
X150908Y117177D01*
X152163Y116876D01*
X152831Y116823D01*
X155602Y114052D01*
X156344Y113419D01*
X157177Y112909D01*
X158078Y112535D01*
X159027Y112307D01*
X160000Y112231D01*
X165750D01*
X166723Y112307D01*
X167672Y112535D01*
X168573Y112909D01*
X169406Y113419D01*
X170148Y114052D01*
X170781Y114795D01*
X171291Y115627D01*
X171665Y116528D01*
X171724Y116775D01*
X175130D01*
X186601Y105303D01*
X186607Y105227D01*
X186835Y104278D01*
X187209Y103377D01*
X187719Y102544D01*
X188352Y101802D01*
X189095Y101169D01*
X189927Y100659D01*
X190828Y100285D01*
X191777Y100057D01*
X192750Y99981D01*
X204750D01*
X205723Y100057D01*
X206672Y100285D01*
X207573Y100659D01*
X208406Y101169D01*
X209148Y101802D01*
X209781Y102544D01*
X210291Y103377D01*
X210665Y104278D01*
X210838Y105001D01*
X211461Y105326D01*
X212184Y105451D01*
X216022Y101613D01*
Y62910D01*
X216132Y62075D01*
X216455Y61296D01*
X216968Y60628D01*
X259195Y18401D01*
X258708Y17228D01*
X241037D01*
X233830Y24434D01*
X234190Y25871D01*
X234197Y25873D01*
X235100Y26355D01*
X235892Y27005D01*
X236542Y27797D01*
X237024Y28700D01*
X237322Y29681D01*
X237422Y30700D01*
X237322Y31719D01*
X237024Y32700D01*
X236542Y33603D01*
X235892Y34395D01*
X235100Y35045D01*
X234197Y35527D01*
X233216Y35825D01*
X232197Y35925D01*
X231178Y35825D01*
X230198Y35527D01*
X229294Y35045D01*
X228502Y34395D01*
X227852Y33603D01*
X227370Y32700D01*
X227368Y32693D01*
X225931Y32333D01*
X207228Y51037D01*
Y54450D01*
X207228Y54450D01*
X207118Y55285D01*
X206795Y56064D01*
X206282Y56732D01*
X206282Y56732D01*
X168361Y94653D01*
X168293Y94952D01*
X168497Y96168D01*
X168906Y96419D01*
X169648Y97052D01*
X170281Y97794D01*
X170791Y98626D01*
X171165Y99528D01*
X171393Y100477D01*
X171469Y101450D01*
X171393Y102423D01*
X171165Y103372D01*
X170791Y104273D01*
X170281Y105105D01*
X169648Y105848D01*
X168906Y106481D01*
X168074Y106991D01*
X167172Y107365D01*
X166223Y107593D01*
X165250Y107669D01*
X164277Y107593D01*
X163328Y107365D01*
X162427Y106991D01*
X161595Y106481D01*
X160852Y105848D01*
X160219Y105105D01*
X159709Y104273D01*
X159335Y103372D01*
X159107Y102423D01*
X159031Y101450D01*
X159107Y100477D01*
X159335Y99528D01*
X159709Y98626D01*
X160219Y97794D01*
X160852Y97052D01*
X160975Y96948D01*
X160507Y95678D01*
X154587D01*
X154232Y96032D01*
X153564Y96545D01*
X152785Y96868D01*
X151950Y96978D01*
X137790D01*
X137373Y97565D01*
X137156Y98248D01*
X137541Y98877D01*
X137915Y99778D01*
X138143Y100727D01*
X138219Y101700D01*
X138143Y102673D01*
X137915Y103622D01*
X137541Y104523D01*
X137031Y105356D01*
X136398Y106098D01*
X135655Y106731D01*
X134823Y107241D01*
X133922Y107615D01*
X132973Y107843D01*
X132000Y107919D01*
X131027Y107843D01*
X130078Y107615D01*
X129177Y107241D01*
X128344Y106731D01*
X127602Y106098D01*
X126969Y105356D01*
X126706Y104928D01*
X109111D01*
X108923Y106198D01*
X109500Y106373D01*
X110403Y106855D01*
X111195Y107505D01*
X111845Y108297D01*
X112327Y109200D01*
X112625Y110181D01*
X112725Y111200D01*
X112625Y112219D01*
X112327Y113200D01*
X111845Y114103D01*
X111195Y114895D01*
X110403Y115545D01*
X109500Y116027D01*
X108519Y116325D01*
X107500Y116425D01*
X106481Y116325D01*
X105500Y116027D01*
X104597Y115545D01*
X103805Y114895D01*
X103234Y114198D01*
X102586Y114103D01*
X102414D01*
X101766Y114198D01*
X101195Y114895D01*
X100403Y115545D01*
X99500Y116027D01*
X98519Y116325D01*
Y117575D01*
X99500Y117873D01*
X100403Y118355D01*
X101195Y119005D01*
X101845Y119797D01*
X102327Y120700D01*
X102625Y121681D01*
X102725Y122700D01*
X102625Y123719D01*
X102327Y124700D01*
X101845Y125603D01*
X101195Y126395D01*
X100403Y127045D01*
X99500Y127527D01*
X98519Y127825D01*
Y129075D01*
X99500Y129373D01*
X100403Y129855D01*
X101195Y130505D01*
X101845Y131297D01*
X102327Y132200D01*
X102625Y133181D01*
X102725Y134200D01*
X102625Y135219D01*
X102327Y136200D01*
X101845Y137103D01*
X101195Y137895D01*
X100403Y138545D01*
X99500Y139027D01*
X99883Y140231D01*
X100231Y140125D01*
X101250Y140025D01*
X102269Y140125D01*
X103250Y140423D01*
X104153Y140905D01*
X104945Y141555D01*
X105339Y142035D01*
X106197Y141966D01*
D02*
G37*
G36*
X67000Y234772D02*
X77413D01*
X95272Y216913D01*
Y204000D01*
X95382Y203165D01*
X95705Y202386D01*
X96218Y201718D01*
X118772Y179163D01*
Y159250D01*
X118882Y158415D01*
X119205Y157636D01*
X119718Y156968D01*
X126839Y149847D01*
X126802Y149589D01*
X125769Y148575D01*
X124750Y148675D01*
X123731Y148575D01*
X122750Y148277D01*
X122498Y148142D01*
X121525Y148608D01*
X121212Y148870D01*
X121118Y149585D01*
X120795Y150364D01*
X120282Y151032D01*
X120282Y151032D01*
X104282Y167032D01*
X103614Y167545D01*
X102835Y167868D01*
X102000Y167978D01*
X76287D01*
X72032Y172232D01*
X71364Y172745D01*
X70585Y173068D01*
X69750Y173178D01*
X41837D01*
X38666Y176349D01*
X38725Y176950D01*
X38625Y177969D01*
X38327Y178950D01*
X37845Y179853D01*
X37195Y180645D01*
X37010Y180796D01*
X36950Y180906D01*
Y182294D01*
X37010Y182404D01*
X37195Y182555D01*
X37845Y183347D01*
X38327Y184250D01*
X38625Y185231D01*
X38725Y186250D01*
X38711Y186396D01*
X41032Y188718D01*
X41545Y189386D01*
X41868Y190165D01*
X41978Y191000D01*
Y206750D01*
X41978Y206750D01*
X41868Y207585D01*
X41545Y208364D01*
X41032Y209032D01*
X33782Y216282D01*
X33114Y216795D01*
X32335Y217118D01*
X31500Y217228D01*
X30794D01*
X30531Y217656D01*
X29898Y218398D01*
X29155Y219031D01*
X28323Y219541D01*
X27422Y219915D01*
X26473Y220143D01*
X25500Y220219D01*
X24527Y220143D01*
X23578Y219915D01*
X22677Y219541D01*
X21844Y219031D01*
X21102Y218398D01*
X20469Y217656D01*
X19959Y216823D01*
X19585Y215922D01*
X19357Y214973D01*
X19281Y214000D01*
X19357Y213027D01*
X19514Y212376D01*
X19029Y211564D01*
X18591Y211159D01*
X17731Y211075D01*
X16750Y210777D01*
X15847Y210295D01*
X15248Y209803D01*
X14530Y209981D01*
X13978Y210333D01*
Y223363D01*
X18149Y227534D01*
X18750Y227475D01*
X19769Y227575D01*
X20750Y227873D01*
X21653Y228355D01*
X22445Y229005D01*
X22860Y229026D01*
X24334Y227551D01*
X24275Y226950D01*
X24375Y225931D01*
X24673Y224950D01*
X25155Y224047D01*
X25805Y223255D01*
X26597Y222605D01*
X27500Y222123D01*
X28481Y221825D01*
X29500Y221725D01*
X30519Y221825D01*
X31500Y222123D01*
X32403Y222605D01*
X33195Y223255D01*
X33845Y224047D01*
X34327Y224950D01*
X34625Y225931D01*
X34725Y226950D01*
X34625Y227969D01*
X34327Y228950D01*
X33845Y229853D01*
X33195Y230645D01*
X33010Y230796D01*
X33518Y232022D01*
X34000Y231975D01*
X35019Y232075D01*
X36000Y232373D01*
X36903Y232855D01*
X37695Y233505D01*
X38078Y233972D01*
X47500D01*
X48335Y234082D01*
X49114Y234405D01*
X49506Y234706D01*
X50549Y233905D01*
X50475Y233726D01*
X50175Y232479D01*
X50075Y231200D01*
X50175Y229921D01*
X50475Y228674D01*
X50966Y227488D01*
X51636Y226395D01*
X52469Y225419D01*
X53445Y224586D01*
X54538Y223916D01*
X55724Y223425D01*
X56971Y223125D01*
X58250Y223025D01*
X59529Y223125D01*
X60776Y223425D01*
X61961Y223916D01*
X63055Y224586D01*
X64031Y225419D01*
X64864Y226395D01*
X65534Y227488D01*
X66025Y228674D01*
X66325Y229921D01*
X66425Y231200D01*
X66325Y232479D01*
X66052Y233616D01*
X66149Y233865D01*
X66965Y234777D01*
X67000Y234772D01*
D02*
G37*
G36*
X118522Y217413D02*
Y204450D01*
X118632Y203615D01*
X118955Y202836D01*
X119468Y202168D01*
X136218Y185418D01*
X136886Y184905D01*
X137665Y184582D01*
X138500Y184472D01*
X139136D01*
X139737Y183202D01*
X139655Y183103D01*
X139173Y182200D01*
X138875Y181219D01*
X138775Y180200D01*
X138875Y179181D01*
X139173Y178200D01*
X139655Y177297D01*
X140305Y176505D01*
Y175645D01*
X139655Y174853D01*
X139325Y174235D01*
X138427Y173937D01*
X137838Y173926D01*
X134478Y177287D01*
Y179750D01*
X134368Y180585D01*
X134045Y181364D01*
X133532Y182032D01*
X107978Y207587D01*
Y225000D01*
X107978Y225000D01*
X107868Y225835D01*
X107545Y226614D01*
X108554Y227381D01*
X118522Y217413D01*
D02*
G37*
G36*
X534781Y151952D02*
X534673Y151750D01*
X534375Y150769D01*
X534275Y149750D01*
Y137050D01*
X534375Y136031D01*
X534673Y135050D01*
X534728Y134948D01*
X533966Y133678D01*
X518250D01*
X517415Y133568D01*
X516636Y133245D01*
X515968Y132732D01*
X503413Y120178D01*
X477926D01*
X477495Y121448D01*
X477782Y121668D01*
X509337Y153222D01*
X534020D01*
X534781Y151952D01*
D02*
G37*
G36*
X585140Y161624D02*
X585773Y161112D01*
X585607Y160423D01*
X585531Y159450D01*
X585607Y158477D01*
X585835Y157528D01*
X586209Y156627D01*
X586719Y155794D01*
X587352Y155052D01*
X588094Y154419D01*
X588927Y153909D01*
X589828Y153535D01*
X590777Y153307D01*
X591750Y153231D01*
X592723Y153307D01*
X593672Y153535D01*
X594574Y153909D01*
X595406Y154419D01*
X596148Y155052D01*
X596781Y155794D01*
X597168Y156425D01*
X597875Y156535D01*
X598582Y156425D01*
X598969Y155794D01*
X599602Y155052D01*
X600345Y154419D01*
X600772Y154156D01*
Y150837D01*
X594468Y144532D01*
X593955Y143864D01*
X593632Y143085D01*
X593522Y142250D01*
Y133537D01*
X545163Y85178D01*
X521587D01*
X510282Y96482D01*
X509614Y96995D01*
X508835Y97318D01*
X508000Y97428D01*
X422250D01*
X422250Y97428D01*
X421415Y97318D01*
X420636Y96995D01*
X419968Y96482D01*
X419968Y96482D01*
X415468Y91982D01*
X414955Y91314D01*
X414632Y90535D01*
X414522Y89700D01*
Y34037D01*
X402463Y21978D01*
X393502D01*
X393016Y23151D01*
X409532Y39668D01*
X410045Y40336D01*
X410368Y41115D01*
X410478Y41950D01*
Y94113D01*
X424087Y107722D01*
X486663D01*
X492718Y101668D01*
X492718Y101668D01*
X493386Y101155D01*
X494165Y100832D01*
X495000Y100722D01*
X495000Y100722D01*
X551000D01*
X551835Y100832D01*
X552614Y101155D01*
X553282Y101668D01*
X582782Y131168D01*
X583295Y131836D01*
X583618Y132615D01*
X583728Y133450D01*
Y160863D01*
X584662Y161797D01*
X585140Y161624D01*
D02*
G37*
G36*
X346488Y35198D02*
X345962Y33928D01*
X336750D01*
X335915Y33818D01*
X335136Y33495D01*
X334468Y32982D01*
X332213Y30728D01*
X312248D01*
X311826Y31173D01*
X311418Y31998D01*
X311625Y32681D01*
X311725Y33700D01*
X311625Y34719D01*
X311327Y35700D01*
X310845Y36603D01*
X310195Y37395D01*
X309498Y37966D01*
X309403Y38614D01*
Y38786D01*
X309498Y39434D01*
X310195Y40005D01*
X310619Y40522D01*
X313131D01*
X313555Y40005D01*
X314347Y39355D01*
X315250Y38873D01*
X316231Y38575D01*
X317250Y38475D01*
X318269Y38575D01*
X319250Y38873D01*
X320153Y39355D01*
X320945Y40005D01*
X321369Y40522D01*
X323881D01*
X324305Y40005D01*
X325097Y39355D01*
X326000Y38873D01*
X326981Y38575D01*
X328000Y38475D01*
X329019Y38575D01*
X330000Y38873D01*
X330903Y39355D01*
X331695Y40005D01*
X332345Y40797D01*
X332827Y41700D01*
X333125Y42681D01*
X333225Y43700D01*
X333125Y44719D01*
X332827Y45700D01*
X332569Y46183D01*
X333133Y47277D01*
X334401Y47285D01*
X346488Y35198D01*
D02*
G37*
G36*
X150968Y90168D02*
X151636Y89655D01*
X152415Y89332D01*
X153250Y89222D01*
X164663D01*
X200772Y53113D01*
Y49700D01*
X200882Y48865D01*
X201205Y48086D01*
X201718Y47418D01*
X235485Y13651D01*
X234998Y12478D01*
X233537D01*
X172282Y73732D01*
X171614Y74245D01*
X170835Y74568D01*
X170000Y74678D01*
X161337D01*
X147282Y88732D01*
X146614Y89245D01*
X146596Y89252D01*
X146849Y90522D01*
X150613D01*
X150968Y90168D01*
D02*
G37*
G36*
X57905Y142697D02*
X58555Y141905D01*
X59347Y141255D01*
X60250Y140773D01*
X61231Y140475D01*
X62250Y140375D01*
X63269Y140475D01*
X64250Y140773D01*
X65153Y141255D01*
X65945Y141905D01*
X66410Y142472D01*
X68824D01*
X69142Y141202D01*
X68847Y141045D01*
X68055Y140395D01*
X67405Y139603D01*
X66923Y138700D01*
X66625Y137719D01*
X66525Y136700D01*
X66625Y135681D01*
X66923Y134700D01*
X67405Y133797D01*
X68055Y133005D01*
X68847Y132355D01*
X69750Y131873D01*
X70731Y131575D01*
X71750Y131475D01*
X72769Y131575D01*
X73750Y131873D01*
X74653Y132355D01*
X74857Y132522D01*
X75348Y132546D01*
X76350Y132333D01*
X76465Y132247D01*
X76718Y131918D01*
X77213Y131423D01*
X76739Y130100D01*
X76481Y130075D01*
X75500Y129777D01*
X74597Y129295D01*
X73805Y128645D01*
X73155Y127853D01*
X72673Y126950D01*
X72375Y125969D01*
X72275Y124950D01*
X72375Y123931D01*
X72673Y122950D01*
X73155Y122047D01*
X73805Y121255D01*
X74597Y120605D01*
X75500Y120122D01*
X76481Y119825D01*
X77500Y119725D01*
X78519Y119825D01*
X79500Y120122D01*
X80252Y120525D01*
X80794Y120352D01*
X81522Y119881D01*
Y112537D01*
X80252Y111776D01*
X80250Y111777D01*
X79269Y112075D01*
X78250Y112175D01*
X77231Y112075D01*
X76250Y111777D01*
X75347Y111294D01*
X74555Y110645D01*
X73905Y109853D01*
X73423Y108950D01*
X73125Y107969D01*
X73025Y106950D01*
X73125Y105931D01*
X73423Y104950D01*
X73905Y104047D01*
X74555Y103255D01*
X75347Y102605D01*
X76250Y102123D01*
X77231Y101825D01*
X78250Y101725D01*
X79269Y101825D01*
X80250Y102123D01*
X80847Y101045D01*
X80055Y100395D01*
X79405Y99603D01*
X78923Y98700D01*
X78625Y97719D01*
X78525Y96700D01*
X78625Y95681D01*
X78923Y94700D01*
X79405Y93797D01*
X80055Y93005D01*
X80847Y92355D01*
X81750Y91873D01*
X82731Y91575D01*
X83750Y91475D01*
X84769Y91575D01*
X84812Y91588D01*
X85423Y90446D01*
X85055Y90145D01*
X84405Y89353D01*
X83923Y88450D01*
X83625Y87469D01*
X83557Y86772D01*
X82327Y86450D01*
X81845Y87353D01*
X81195Y88145D01*
X80403Y88795D01*
X79500Y89277D01*
X78519Y89575D01*
X77500Y89675D01*
X76481Y89575D01*
X75500Y89277D01*
X74597Y88795D01*
X73805Y88145D01*
X73155Y87353D01*
X72673Y86450D01*
X72375Y85469D01*
X72275Y84450D01*
X72375Y83431D01*
X72598Y82698D01*
X72250Y81967D01*
X71779Y81428D01*
X68829D01*
X68375Y82698D01*
X68445Y82755D01*
X69095Y83547D01*
X69577Y84450D01*
X69875Y85431D01*
X69975Y86450D01*
X69875Y87469D01*
X69577Y88450D01*
X69095Y89353D01*
X68445Y90145D01*
X67653Y90795D01*
X66750Y91277D01*
X66355Y91397D01*
X65985Y91889D01*
X65706Y92576D01*
X65688Y92859D01*
X66025Y93674D01*
X66325Y94921D01*
X66425Y96200D01*
X66325Y97479D01*
X66025Y98726D01*
X65534Y99911D01*
X64864Y101005D01*
X64031Y101981D01*
X63055Y102814D01*
X61961Y103484D01*
X60776Y103975D01*
X59529Y104275D01*
X58250Y104375D01*
X56971Y104275D01*
X55724Y103975D01*
X54538Y103484D01*
X53445Y102814D01*
X52469Y101981D01*
X52248Y101721D01*
X50978Y102190D01*
Y105113D01*
X55532Y109668D01*
X56045Y110336D01*
X56368Y111115D01*
X56478Y111950D01*
Y142674D01*
X57748Y142992D01*
X57905Y142697D01*
D02*
G37*
G36*
X534552Y125952D02*
X534375Y125369D01*
X534275Y124350D01*
Y111650D01*
X534375Y110631D01*
X534673Y109650D01*
X535155Y108747D01*
X535401Y108448D01*
X534800Y107178D01*
X496337D01*
X491062Y112452D01*
X491588Y113722D01*
X504750D01*
X505585Y113832D01*
X506364Y114155D01*
X507032Y114668D01*
X519587Y127222D01*
X533871D01*
X534552Y125952D01*
D02*
G37*
G36*
X73055Y319255D02*
X73847Y318605D01*
X74750Y318123D01*
X74990Y318050D01*
X75349Y316614D01*
X70718Y311982D01*
X70205Y311314D01*
X69882Y310535D01*
X69772Y309700D01*
Y298537D01*
X63913Y292678D01*
X52675D01*
X52577Y293000D01*
X52095Y293903D01*
X51445Y294695D01*
X50653Y295345D01*
X49750Y295827D01*
X48769Y296125D01*
X48329Y296168D01*
X47845Y297480D01*
X54972Y304607D01*
X56408Y304248D01*
X56423Y304200D01*
X56905Y303297D01*
X57555Y302505D01*
X58347Y301855D01*
X59250Y301373D01*
X60231Y301075D01*
X61250Y300975D01*
X62269Y301075D01*
X63250Y301373D01*
X64153Y301855D01*
X64945Y302505D01*
X65595Y303297D01*
X66077Y304200D01*
X66375Y305181D01*
X66475Y306200D01*
X66375Y307219D01*
X66077Y308200D01*
X65874Y309346D01*
X66532Y309918D01*
X70782Y314168D01*
X70782Y314168D01*
X71295Y314836D01*
X71618Y315615D01*
X71728Y316450D01*
X71728Y316450D01*
Y318871D01*
X72998Y319326D01*
X73055Y319255D01*
D02*
G37*
G36*
X138668Y302967D02*
X137906Y301981D01*
X137073Y302491D01*
X136172Y302865D01*
X135223Y303093D01*
X134250Y303169D01*
X133277Y303093D01*
X132328Y302865D01*
X131427Y302491D01*
X130595Y301981D01*
X129852Y301348D01*
X129219Y300606D01*
X128956Y300178D01*
X119087D01*
X100532Y318732D01*
X99864Y319245D01*
X99085Y319568D01*
X98250Y319678D01*
X82337D01*
X81576Y320948D01*
X81578Y320950D01*
X81875Y321931D01*
X81975Y322950D01*
X81875Y323969D01*
X81713Y324502D01*
X82420Y325772D01*
X115863D01*
X138668Y302967D01*
D02*
G37*
G36*
X74662Y292502D02*
X74905Y292047D01*
X75555Y291255D01*
X76022Y290872D01*
Y290200D01*
X76132Y289365D01*
X76455Y288586D01*
X76968Y287918D01*
X86968Y277918D01*
X87636Y277405D01*
X88415Y277082D01*
X89250Y276972D01*
X92713D01*
X97982Y271704D01*
X97578Y270674D01*
X97422Y270467D01*
X96481Y270375D01*
X95500Y270077D01*
X94597Y269595D01*
X93805Y268945D01*
X93155Y268153D01*
X92673Y267250D01*
X92375Y266269D01*
X92275Y265250D01*
X92375Y264231D01*
X92673Y263250D01*
X93155Y262347D01*
X92955Y261364D01*
X91753Y260809D01*
X91250Y261077D01*
X90269Y261375D01*
X89351Y261465D01*
X89241Y261482D01*
X88125Y262269D01*
X88033Y262573D01*
X88033Y262573D01*
X87942Y262870D01*
X87827Y263250D01*
X87345Y264153D01*
X86695Y264945D01*
X85903Y265595D01*
X85000Y266077D01*
X84553Y266213D01*
X84421Y266328D01*
X83946Y267346D01*
X83923Y267661D01*
X84077Y267950D01*
X84375Y268931D01*
X84475Y269950D01*
X84375Y270969D01*
X84077Y271950D01*
X83595Y272853D01*
X82945Y273645D01*
X82153Y274294D01*
X81250Y274777D01*
X80269Y275075D01*
X79250Y275175D01*
X78231Y275075D01*
X77250Y274777D01*
X76347Y274294D01*
X75555Y273645D01*
X75446Y273512D01*
X74131Y273911D01*
X74125Y273969D01*
X73827Y274950D01*
X73345Y275853D01*
X72695Y276645D01*
X71903Y277295D01*
X71000Y277777D01*
X70019Y278075D01*
X69000Y278175D01*
X67981Y278075D01*
X67000Y277777D01*
X66491Y277505D01*
X65488Y278403D01*
X65665Y278828D01*
X65893Y279777D01*
X65969Y280750D01*
X65893Y281723D01*
X65665Y282672D01*
X65291Y283573D01*
X64781Y284406D01*
X64314Y284952D01*
X64490Y285675D01*
X64845Y286222D01*
X65250D01*
X66085Y286332D01*
X66864Y286655D01*
X67532Y287168D01*
X73250Y292885D01*
X74662Y292502D01*
D02*
G37*
G36*
X115468Y294668D02*
X116136Y294155D01*
X116915Y293832D01*
X117750Y293722D01*
X128956D01*
X129219Y293294D01*
X129852Y292552D01*
X130595Y291919D01*
X131427Y291409D01*
X132328Y291035D01*
X133277Y290807D01*
X134250Y290731D01*
X135223Y290807D01*
X136172Y291035D01*
X137073Y291409D01*
X137906Y291919D01*
X138648Y292552D01*
X138814Y292747D01*
X138990Y292831D01*
X140260D01*
X140436Y292747D01*
X140602Y292552D01*
X141344Y291919D01*
X142177Y291409D01*
X143078Y291035D01*
X144027Y290807D01*
X145000Y290731D01*
X145973Y290807D01*
X146267Y290878D01*
X146912Y289727D01*
X137663Y280478D01*
X135500D01*
X134665Y280368D01*
X133886Y280045D01*
X133218Y279532D01*
X120718Y267032D01*
X120205Y266364D01*
X119882Y265585D01*
X119772Y264750D01*
Y259671D01*
X119233Y259200D01*
X118502Y258852D01*
X117769Y259075D01*
X116750Y259175D01*
X116189Y259120D01*
X115396Y259532D01*
X114935Y260161D01*
X114875Y260769D01*
X114577Y261750D01*
X114095Y262653D01*
X113445Y263445D01*
X112978Y263828D01*
Y269000D01*
X112868Y269835D01*
X112545Y270614D01*
X112032Y271282D01*
X110728Y272587D01*
Y279182D01*
X110728Y279183D01*
X110618Y280018D01*
X110295Y280796D01*
X109782Y281465D01*
X95385Y295862D01*
X95375Y295969D01*
X95077Y296950D01*
X94595Y297853D01*
X93945Y298645D01*
X93248Y299216D01*
X93153Y299864D01*
Y300036D01*
X93248Y300684D01*
X93945Y301255D01*
X94595Y302047D01*
X95077Y302950D01*
X95375Y303931D01*
X95475Y304950D01*
X95375Y305969D01*
X95077Y306950D01*
X94595Y307853D01*
X93945Y308645D01*
X93153Y309295D01*
X92250Y309777D01*
X91269Y310075D01*
X90250Y310175D01*
X89231Y310075D01*
X88250Y309777D01*
X87347Y309295D01*
X86555Y308645D01*
X85905Y307853D01*
X85423Y306950D01*
X85414Y306920D01*
X84086D01*
X84077Y306950D01*
X83595Y307853D01*
X82945Y308645D01*
X82153Y309295D01*
X81250Y309777D01*
X80269Y310075D01*
X79783Y310123D01*
X79273Y311408D01*
X81087Y313222D01*
X96913D01*
X115468Y294668D01*
D02*
G37*
G36*
X538719Y378045D02*
X539352Y377302D01*
X539718Y376990D01*
X539843Y376572D01*
Y375828D01*
X539718Y375410D01*
X539352Y375098D01*
X538719Y374356D01*
X538209Y373523D01*
X537835Y372622D01*
X537607Y371673D01*
X537531Y370700D01*
X537607Y369727D01*
X537835Y368778D01*
X538209Y367877D01*
X538719Y367044D01*
X539352Y366302D01*
X540094Y365669D01*
X540481Y365432D01*
X540576Y365179D01*
Y364221D01*
X540481Y363969D01*
X540094Y363731D01*
X539352Y363098D01*
X538719Y362355D01*
X538209Y361523D01*
X537879Y360728D01*
X528747D01*
X528326Y361173D01*
X527918Y361998D01*
X528125Y362681D01*
X528225Y363700D01*
X528125Y364719D01*
X527827Y365700D01*
X527345Y366603D01*
X526695Y367395D01*
X525903Y368045D01*
X525000Y368527D01*
X524019Y368825D01*
X523000Y368925D01*
X521981Y368825D01*
X521000Y368527D01*
X520097Y368045D01*
X519305Y367395D01*
X518655Y366603D01*
X518172Y365700D01*
X517984Y365077D01*
X517041Y364687D01*
X516594Y364670D01*
X515783Y365482D01*
X515782Y365482D01*
X515114Y365995D01*
X514336Y366317D01*
X513500Y366427D01*
X506114D01*
X505513Y367697D01*
X505595Y367797D01*
X506077Y368700D01*
X506375Y369681D01*
X506475Y370700D01*
X506375Y371719D01*
X506077Y372700D01*
X506076Y372702D01*
X506837Y373972D01*
X530750D01*
X531585Y374082D01*
X532364Y374405D01*
X533032Y374918D01*
X536587Y378472D01*
X538456D01*
X538719Y378045D01*
D02*
G37*
G36*
X469468Y321218D02*
X470136Y320705D01*
X470915Y320382D01*
X471750Y320272D01*
X539663D01*
X562468Y297468D01*
X563136Y296955D01*
X563915Y296632D01*
X564750Y296522D01*
X596663D01*
X620272Y272913D01*
Y177337D01*
X612913Y169978D01*
X610327D01*
X609741Y170834D01*
X609591Y171248D01*
X609915Y172028D01*
X610143Y172977D01*
X610219Y173950D01*
X610143Y174923D01*
X609915Y175872D01*
X609541Y176773D01*
X609031Y177605D01*
X608398Y178348D01*
X607656Y178981D01*
Y180419D01*
X608398Y181052D01*
X609031Y181794D01*
X609541Y182627D01*
X609915Y183528D01*
X610143Y184477D01*
X610219Y185450D01*
X610143Y186423D01*
X609915Y187372D01*
X609541Y188273D01*
X609031Y189105D01*
X608398Y189848D01*
X607656Y190481D01*
X607228Y190744D01*
Y191200D01*
X607118Y192035D01*
X606795Y192814D01*
X606282Y193482D01*
X597782Y201982D01*
X597114Y202495D01*
X596335Y202818D01*
X595500Y202928D01*
X581500D01*
X580665Y202818D01*
X579886Y202495D01*
X579218Y201982D01*
X561968Y184732D01*
X561455Y184064D01*
X561132Y183285D01*
X561022Y182450D01*
Y163787D01*
X556913Y159678D01*
X545211D01*
X544478Y160948D01*
X544625Y161431D01*
X544725Y162450D01*
Y163475D01*
X547051D01*
X547300Y163263D01*
X548199Y162712D01*
X549173Y162308D01*
X550199Y162062D01*
X551250Y161979D01*
X552301Y162062D01*
X553327Y162308D01*
X554301Y162712D01*
X555200Y163263D01*
X556002Y163948D01*
X556687Y164750D01*
X557238Y165649D01*
X557642Y166623D01*
X557888Y167649D01*
X557971Y168700D01*
X557888Y169751D01*
X557642Y170777D01*
X557238Y171751D01*
X556687Y172650D01*
X556002Y173452D01*
X555200Y174137D01*
X554301Y174688D01*
X553327Y175092D01*
X552301Y175338D01*
X551250Y175421D01*
X550199Y175338D01*
X549173Y175092D01*
X548199Y174688D01*
X547300Y174137D01*
X547051Y173925D01*
X544725D01*
Y175150D01*
X544625Y176169D01*
X544327Y177150D01*
X543845Y178053D01*
X543195Y178845D01*
X542403Y179495D01*
X541500Y179977D01*
X540519Y180275D01*
X539500Y180375D01*
X538481Y180275D01*
X537500Y179977D01*
X536597Y179495D01*
X535805Y178845D01*
X535155Y178053D01*
X534673Y177150D01*
X534375Y176169D01*
X534275Y175150D01*
Y162450D01*
X534375Y161431D01*
X534522Y160948D01*
X533789Y159678D01*
X508000D01*
X507165Y159568D01*
X506386Y159245D01*
X505718Y158732D01*
X505718Y158732D01*
X474163Y127178D01*
X416000D01*
X415165Y127068D01*
X414386Y126745D01*
X413718Y126232D01*
X409231Y121746D01*
X408710Y121831D01*
X407945Y122256D01*
X407875Y122969D01*
X407577Y123950D01*
X407095Y124853D01*
X406445Y125645D01*
X405653Y126294D01*
X404750Y126777D01*
X403769Y127075D01*
X402750Y127175D01*
X401731Y127075D01*
X400750Y126777D01*
X399847Y126294D01*
X399055Y125645D01*
X398405Y124853D01*
X397923Y123950D01*
X397625Y122969D01*
X397525Y121950D01*
X397625Y120931D01*
X397923Y119950D01*
X398405Y119047D01*
X399055Y118255D01*
X399847Y117605D01*
X400750Y117122D01*
X401731Y116825D01*
X402444Y116755D01*
X402869Y115990D01*
X402954Y115469D01*
X382468Y94982D01*
X381955Y94314D01*
X381632Y93535D01*
X381522Y92700D01*
Y52969D01*
X380252Y52345D01*
X379779Y52635D01*
X378732Y53069D01*
X377630Y53333D01*
X376500Y53422D01*
X366242D01*
X355972Y63692D01*
Y68950D01*
X355883Y70080D01*
X355619Y71182D01*
X355185Y72229D01*
X354593Y73195D01*
X354312Y73524D01*
X354291Y73573D01*
X353781Y74405D01*
X353148Y75148D01*
X352406Y75781D01*
X351573Y76291D01*
X350672Y76665D01*
X349723Y76893D01*
X348750Y76969D01*
X347777Y76893D01*
X346828Y76665D01*
X345927Y76291D01*
X345094Y75781D01*
X344352Y75148D01*
X343719Y74405D01*
X343209Y73573D01*
X343188Y73524D01*
X342907Y73195D01*
X342315Y72229D01*
X341881Y71182D01*
X341617Y70080D01*
X341528Y68950D01*
Y60700D01*
X341617Y59570D01*
X341881Y58468D01*
X342135Y57855D01*
X342315Y57421D01*
X342907Y56455D01*
X343643Y55593D01*
X358039Y41198D01*
X357992Y40794D01*
X357552Y39928D01*
X350887D01*
X337782Y53032D01*
X337114Y53545D01*
X336335Y53868D01*
X335500Y53978D01*
X290171D01*
X289702Y55248D01*
X290107Y55593D01*
X290843Y56455D01*
X291435Y57421D01*
X291869Y58468D01*
X292133Y59570D01*
X292222Y60700D01*
Y70700D01*
Y76950D01*
X292133Y78080D01*
X291869Y79182D01*
X291435Y80229D01*
X290843Y81195D01*
X290107Y82057D01*
X278222Y93941D01*
Y99594D01*
X279492Y100062D01*
X279893Y99593D01*
X280755Y98857D01*
X281721Y98265D01*
X282768Y97831D01*
X283870Y97567D01*
X285000Y97478D01*
X286130Y97567D01*
X287232Y97831D01*
X288279Y98265D01*
X289245Y98857D01*
X290107Y99593D01*
X290843Y100455D01*
X291435Y101421D01*
X291869Y102468D01*
X292133Y103570D01*
X292222Y104700D01*
Y120958D01*
X301107Y129843D01*
X301843Y130705D01*
X302435Y131671D01*
X302869Y132718D01*
X303133Y133820D01*
X303222Y134950D01*
X303133Y136080D01*
X302869Y137182D01*
X302435Y138229D01*
X301843Y139195D01*
X301107Y140057D01*
X300245Y140793D01*
X299279Y141385D01*
X298232Y141819D01*
X297130Y142083D01*
X296000Y142172D01*
X294870Y142083D01*
X293768Y141819D01*
X292721Y141385D01*
X291755Y140793D01*
X290893Y140057D01*
X279893Y129057D01*
X279157Y128195D01*
X278565Y127229D01*
X278385Y126795D01*
X278131Y126182D01*
X277867Y125080D01*
X277778Y123950D01*
Y111806D01*
X276508Y111338D01*
X276107Y111807D01*
X275245Y112543D01*
X274279Y113135D01*
X273232Y113569D01*
X272130Y113833D01*
X271000Y113922D01*
X262250D01*
X261120Y113833D01*
X260018Y113569D01*
X258971Y113135D01*
X258005Y112543D01*
X257248Y111896D01*
X256833Y111964D01*
X255978Y112398D01*
Y131964D01*
X256688Y132367D01*
X257248Y132478D01*
X257845Y131969D01*
X258677Y131459D01*
X259578Y131085D01*
X260527Y130857D01*
X261500Y130781D01*
X262473Y130857D01*
X263422Y131085D01*
X264323Y131459D01*
X265156Y131969D01*
X265898Y132602D01*
X266531Y133344D01*
X267041Y134177D01*
X267415Y135078D01*
X267643Y136027D01*
X267719Y137000D01*
X267643Y137973D01*
X267415Y138922D01*
X267041Y139823D01*
X266531Y140655D01*
X265898Y141398D01*
X265156Y142031D01*
X264323Y142541D01*
X263422Y142915D01*
X262473Y143143D01*
X261500Y143219D01*
X260527Y143143D01*
X259578Y142915D01*
X258677Y142541D01*
X257845Y142031D01*
X257248Y141522D01*
X256688Y141633D01*
X255978Y142036D01*
Y157950D01*
X255868Y158785D01*
X255545Y159564D01*
X255032Y160232D01*
X222482Y192782D01*
X221814Y193295D01*
X221035Y193618D01*
X220200Y193728D01*
X162997D01*
X162576Y194173D01*
X162168Y194998D01*
X162375Y195681D01*
X162475Y196700D01*
X162375Y197719D01*
X162077Y198700D01*
X161595Y199603D01*
X160945Y200395D01*
X160153Y201045D01*
X159250Y201527D01*
X158269Y201825D01*
X157250Y201925D01*
X156231Y201825D01*
X155250Y201527D01*
X154347Y201045D01*
X153555Y200395D01*
X152905Y199603D01*
X152423Y198700D01*
X152125Y197719D01*
X152025Y196700D01*
X152125Y195681D01*
X152332Y194998D01*
X151924Y194173D01*
X151503Y193728D01*
X150656D01*
X150509Y193764D01*
X149557Y194626D01*
X149463Y194827D01*
X149375Y195719D01*
X149077Y196700D01*
X148595Y197603D01*
X147945Y198395D01*
X147153Y199045D01*
X146250Y199527D01*
X145269Y199825D01*
X144250Y199925D01*
X143649Y199866D01*
X139728Y203787D01*
Y209121D01*
X140998Y209576D01*
X141055Y209505D01*
X141847Y208855D01*
X142750Y208373D01*
X143731Y208075D01*
X144750Y207975D01*
X145769Y208075D01*
X146750Y208373D01*
X147653Y208855D01*
X148445Y209505D01*
X149095Y210297D01*
X149577Y211200D01*
X149875Y212181D01*
X149975Y213200D01*
X149875Y214219D01*
X149577Y215200D01*
X149095Y216103D01*
X148828Y216427D01*
X148569Y217325D01*
X148828Y218223D01*
X149095Y218547D01*
X149577Y219450D01*
X149875Y220431D01*
X149975Y221450D01*
X149875Y222469D01*
X149577Y223450D01*
X149095Y224353D01*
X148486Y225094D01*
X148597Y225382D01*
X149134Y226222D01*
X153648D01*
X164022Y215848D01*
Y212278D01*
X163555Y211895D01*
X162905Y211103D01*
X162423Y210200D01*
X162125Y209219D01*
X162025Y208200D01*
X162125Y207181D01*
X162423Y206200D01*
X162905Y205297D01*
X163555Y204505D01*
X164347Y203855D01*
X165250Y203373D01*
X166231Y203075D01*
X167250Y202975D01*
X168269Y203075D01*
X169250Y203373D01*
X170153Y203855D01*
X170945Y204505D01*
X171595Y205297D01*
X172077Y206200D01*
X172375Y207181D01*
X172475Y208200D01*
X172375Y209219D01*
X172077Y210200D01*
X171595Y211103D01*
X170945Y211895D01*
X170478Y212278D01*
Y215638D01*
X171250Y215873D01*
X172153Y216355D01*
X172945Y217005D01*
X173595Y217797D01*
X174077Y218700D01*
X174375Y219681D01*
X174475Y220700D01*
X174375Y221719D01*
X174077Y222700D01*
X173595Y223603D01*
X172945Y224395D01*
X172153Y225045D01*
X171250Y225527D01*
X170269Y225825D01*
X169250Y225925D01*
X168231Y225825D01*
X167250Y225527D01*
X166347Y225045D01*
X165555Y224395D01*
X164650Y224350D01*
X157407Y231593D01*
X157350Y232052D01*
X157614Y233067D01*
X158153Y233355D01*
X158945Y234005D01*
X159595Y234797D01*
X160077Y235700D01*
X160375Y236681D01*
X160475Y237700D01*
X160375Y238719D01*
X160077Y239700D01*
X159595Y240603D01*
X158945Y241395D01*
X158478Y241778D01*
Y245138D01*
X159250Y245373D01*
X160153Y245855D01*
X160945Y246505D01*
X161595Y247297D01*
X162077Y248200D01*
X162375Y249181D01*
X162475Y250200D01*
X162375Y251219D01*
X162077Y252200D01*
X161595Y253103D01*
X160945Y253895D01*
X160153Y254545D01*
X159250Y255027D01*
X158269Y255325D01*
X157250Y255425D01*
X156231Y255325D01*
X155564Y256450D01*
X158782Y259668D01*
X159295Y260336D01*
X159618Y261115D01*
X159728Y261950D01*
Y262881D01*
X160998Y263407D01*
X170102Y254302D01*
X170844Y253669D01*
X171677Y253159D01*
X172578Y252785D01*
X173527Y252557D01*
X174500Y252481D01*
X174550Y252485D01*
X174600Y252481D01*
X175573Y252557D01*
X176522Y252785D01*
X177423Y253159D01*
X178256Y253669D01*
X178998Y254302D01*
X179631Y255044D01*
X180141Y255877D01*
X180515Y256778D01*
X180743Y257727D01*
X180819Y258700D01*
X180743Y259673D01*
X180515Y260622D01*
X180141Y261523D01*
X179631Y262355D01*
X178998Y263098D01*
X178312Y263683D01*
X170469Y271526D01*
Y274139D01*
X170589Y274249D01*
X171704Y274701D01*
X186781Y259624D01*
Y248950D01*
X186857Y247977D01*
X187085Y247028D01*
X187459Y246127D01*
X187969Y245294D01*
X188602Y244552D01*
X189344Y243919D01*
X190177Y243409D01*
X191078Y243035D01*
X192027Y242807D01*
X193000Y242731D01*
X202250D01*
X203223Y242807D01*
X204172Y243035D01*
X205073Y243409D01*
X205905Y243919D01*
X206648Y244552D01*
X207281Y245294D01*
X207791Y246127D01*
X208165Y247028D01*
X208393Y247977D01*
X208469Y248950D01*
X208393Y249923D01*
X208165Y250872D01*
X207791Y251773D01*
X207281Y252605D01*
X206648Y253348D01*
X205905Y253981D01*
X205073Y254491D01*
X204172Y254865D01*
X203223Y255093D01*
X202250Y255169D01*
X199219D01*
Y258966D01*
X200489Y259435D01*
X200602Y259302D01*
X201345Y258669D01*
X202177Y258159D01*
X203078Y257785D01*
X204027Y257557D01*
X205000Y257481D01*
X205973Y257557D01*
X206922Y257785D01*
X207823Y258159D01*
X208655Y258669D01*
X209398Y259302D01*
X210031Y260044D01*
X210541Y260877D01*
X210915Y261778D01*
X210972Y262016D01*
X212278D01*
X212335Y261778D01*
X212709Y260877D01*
X213219Y260044D01*
X213852Y259302D01*
X214594Y258669D01*
X215427Y258159D01*
X216328Y257785D01*
X217277Y257557D01*
X218250Y257481D01*
X219223Y257557D01*
X220172Y257785D01*
X221073Y258159D01*
X221906Y258669D01*
X222648Y259302D01*
X223281Y260044D01*
X223791Y260877D01*
X224165Y261778D01*
X224393Y262727D01*
X224469Y263700D01*
X224393Y264673D01*
X224165Y265622D01*
X223791Y266523D01*
X223281Y267355D01*
X222648Y268098D01*
X221906Y268731D01*
X221073Y269241D01*
X220172Y269615D01*
X219223Y269843D01*
X218250Y269919D01*
X217277Y269843D01*
X216328Y269615D01*
X215427Y269241D01*
X214594Y268731D01*
X213852Y268098D01*
X213219Y267355D01*
X212709Y266523D01*
X212335Y265622D01*
X212278Y265384D01*
X210972D01*
X210915Y265622D01*
X210541Y266523D01*
X210031Y267355D01*
X209398Y268098D01*
X208655Y268731D01*
X207823Y269241D01*
X206922Y269615D01*
X205973Y269843D01*
X205000Y269919D01*
X204027Y269843D01*
X203078Y269615D01*
X202177Y269241D01*
X201345Y268731D01*
X200602Y268098D01*
X199969Y267355D01*
X199459Y266523D01*
X199319Y266185D01*
X198527Y265983D01*
X197920Y265995D01*
X197909Y265999D01*
X197398Y266598D01*
X170469Y293526D01*
Y296200D01*
X170393Y297173D01*
X170165Y298122D01*
X169791Y299023D01*
X169281Y299855D01*
X168648Y300598D01*
X167906Y301231D01*
X167073Y301741D01*
X166172Y302115D01*
X165223Y302343D01*
X164250Y302419D01*
X163277Y302343D01*
X162328Y302115D01*
X161427Y301741D01*
X160998Y301478D01*
X159927Y301947D01*
X159728Y302161D01*
Y307613D01*
X172524Y320410D01*
X189937D01*
X190773Y320520D01*
X191551Y320842D01*
X192220Y321355D01*
X235837Y364972D01*
X244000D01*
X244835Y365082D01*
X245614Y365405D01*
X246282Y365918D01*
X250837Y370472D01*
X300922D01*
X301305Y370005D01*
X302002Y369434D01*
X302097Y368786D01*
Y368614D01*
X302002Y367966D01*
X301305Y367395D01*
X300655Y366603D01*
X300173Y365700D01*
X299875Y364719D01*
X299775Y363700D01*
X299875Y362681D01*
X300173Y361700D01*
X300655Y360797D01*
X301305Y360005D01*
X302097Y359355D01*
X303000Y358873D01*
X303981Y358575D01*
X304624Y358512D01*
X312772Y350363D01*
Y315952D01*
X312280Y315353D01*
X311798Y314450D01*
X311500Y313469D01*
X311400Y312450D01*
X311500Y311431D01*
X311798Y310450D01*
X312280Y309547D01*
X312930Y308755D01*
X313722Y308105D01*
X314625Y307623D01*
X315606Y307325D01*
X316625Y307225D01*
X317644Y307325D01*
X318625Y307623D01*
X319528Y308105D01*
X320320Y308755D01*
X320970Y309547D01*
X321452Y310450D01*
X321750Y311431D01*
X321850Y312450D01*
X321750Y313469D01*
X321452Y314450D01*
X320970Y315353D01*
X320320Y316145D01*
X319528Y316795D01*
X319228Y316955D01*
Y342613D01*
X320498Y343374D01*
X320500Y343373D01*
X321481Y343075D01*
X322500Y342975D01*
X323519Y343075D01*
X324500Y343373D01*
X325403Y343855D01*
X326195Y344505D01*
X326845Y345297D01*
X327327Y346200D01*
X327625Y347181D01*
X327725Y348200D01*
X327625Y349219D01*
X327327Y350200D01*
X326845Y351103D01*
X326195Y351895D01*
X325403Y352545D01*
X324500Y353027D01*
X323519Y353325D01*
X322500Y353425D01*
X321481Y353325D01*
X320500Y353027D01*
X320291Y352915D01*
X319885Y352918D01*
X318844Y353296D01*
X318694Y353446D01*
X318282Y353982D01*
X309999Y362266D01*
X310125Y362681D01*
X310225Y363700D01*
X310125Y364719D01*
X309827Y365700D01*
X309345Y366603D01*
X308695Y367395D01*
X307998Y367966D01*
X307903Y368614D01*
Y368786D01*
X307998Y369434D01*
X308695Y370005D01*
X309078Y370472D01*
X311672D01*
X312055Y370005D01*
X312847Y369355D01*
X313750Y368873D01*
X314731Y368575D01*
X315750Y368475D01*
X316769Y368575D01*
X317750Y368873D01*
X318653Y369355D01*
X319445Y370005D01*
X319828Y370472D01*
X322172D01*
X322555Y370005D01*
X323347Y369355D01*
X324250Y368873D01*
X325231Y368575D01*
X326250Y368475D01*
X327269Y368575D01*
X328250Y368873D01*
X329153Y369355D01*
X329945Y370005D01*
X330595Y370797D01*
X331077Y371700D01*
X331375Y372681D01*
X331475Y373700D01*
X331375Y374719D01*
X331077Y375700D01*
X330782Y376252D01*
X331198Y377227D01*
X331483Y377522D01*
X397929D01*
X398383Y376252D01*
X398252Y376145D01*
X397603Y375353D01*
X397120Y374450D01*
X396822Y373469D01*
X396722Y372450D01*
X396822Y371431D01*
X397120Y370450D01*
X397603Y369547D01*
X398252Y368755D01*
X399044Y368106D01*
X399948Y367623D01*
X400928Y367325D01*
X401947Y367225D01*
X402966Y367325D01*
X403947Y367623D01*
X404850Y368106D01*
X405642Y368755D01*
X406292Y369547D01*
X406774Y370450D01*
X407072Y371431D01*
X407172Y372450D01*
X407072Y373469D01*
X406774Y374450D01*
X406292Y375353D01*
X405642Y376145D01*
X405511Y376252D01*
X405965Y377522D01*
X413163D01*
X469468Y321218D01*
D02*
G37*
%LPC*%
G36*
X402250Y144469D02*
X401277Y144393D01*
X400328Y144165D01*
X399427Y143791D01*
X398595Y143281D01*
X397852Y142648D01*
X397219Y141905D01*
X396709Y141073D01*
X396335Y140172D01*
X396107Y139223D01*
X396031Y138250D01*
X396107Y137277D01*
X396335Y136328D01*
X396709Y135427D01*
X397219Y134594D01*
X397852Y133852D01*
X398595Y133219D01*
X399427Y132709D01*
X400328Y132335D01*
X401277Y132107D01*
X402250Y132031D01*
X403223Y132107D01*
X404172Y132335D01*
X405073Y132709D01*
X405905Y133219D01*
X406648Y133852D01*
X407281Y134594D01*
X407791Y135427D01*
X408165Y136328D01*
X408393Y137277D01*
X408469Y138250D01*
X408393Y139223D01*
X408165Y140172D01*
X407791Y141073D01*
X407281Y141905D01*
X406648Y142648D01*
X405905Y143281D01*
X405073Y143791D01*
X404172Y144165D01*
X403223Y144393D01*
X402250Y144469D01*
D02*
G37*
G36*
X231447Y286675D02*
X230428Y286575D01*
X229447Y286277D01*
X228544Y285795D01*
X227752Y285145D01*
X227103Y284353D01*
X226620Y283450D01*
X226322Y282469D01*
X226222Y281450D01*
X226322Y280431D01*
X226620Y279450D01*
X227103Y278547D01*
X227752Y277755D01*
X228544Y277105D01*
X229447Y276623D01*
X230428Y276325D01*
X231447Y276225D01*
X232467Y276325D01*
X233447Y276623D01*
X234350Y277105D01*
X235142Y277755D01*
X235792Y278547D01*
X236275Y279450D01*
X236572Y280431D01*
X236672Y281450D01*
X236572Y282469D01*
X236275Y283450D01*
X235792Y284353D01*
X235142Y285145D01*
X234350Y285795D01*
X233447Y286277D01*
X232467Y286575D01*
X231447Y286675D01*
D02*
G37*
G36*
X497750Y182419D02*
X496777Y182343D01*
X495828Y182115D01*
X494926Y181741D01*
X494094Y181231D01*
X493352Y180598D01*
X468224Y155469D01*
X457250D01*
X456277Y155393D01*
X455328Y155165D01*
X454427Y154791D01*
X453595Y154281D01*
X452852Y153648D01*
X452219Y152906D01*
X451709Y152073D01*
X451335Y151172D01*
X451107Y150223D01*
X451031Y149250D01*
X451107Y148277D01*
X451335Y147328D01*
X451709Y146427D01*
X452219Y145595D01*
X452852Y144852D01*
X453595Y144219D01*
X454427Y143709D01*
X455328Y143335D01*
X456277Y143107D01*
X457250Y143031D01*
X470800D01*
X471773Y143107D01*
X472722Y143335D01*
X473623Y143709D01*
X474455Y144219D01*
X475198Y144852D01*
X501320Y170975D01*
X507750D01*
X508769Y171075D01*
X509750Y171373D01*
X510653Y171855D01*
X511445Y172505D01*
X512095Y173297D01*
X512577Y174200D01*
X512875Y175181D01*
X512975Y176200D01*
X512963Y176325D01*
X512975Y176450D01*
X512875Y177469D01*
X512577Y178450D01*
X512095Y179353D01*
X511445Y180145D01*
X510653Y180795D01*
X509750Y181277D01*
X508769Y181575D01*
X507750Y181675D01*
X506731Y181575D01*
X506237Y181425D01*
X501089D01*
X500573Y181741D01*
X499672Y182115D01*
X498723Y182343D01*
X497750Y182419D01*
D02*
G37*
G36*
X498250Y317919D02*
X497277Y317843D01*
X496328Y317615D01*
X495427Y317241D01*
X494594Y316731D01*
X493852Y316098D01*
X461224Y283469D01*
X455500D01*
X454527Y283393D01*
X453578Y283165D01*
X452677Y282791D01*
X451844Y282281D01*
X451102Y281648D01*
X450469Y280905D01*
X449959Y280073D01*
X449585Y279172D01*
X449357Y278223D01*
X449281Y277250D01*
X449357Y276277D01*
X449585Y275328D01*
X449959Y274427D01*
X450469Y273594D01*
X451102Y272852D01*
X451844Y272219D01*
X452677Y271709D01*
X453578Y271335D01*
X454527Y271107D01*
X455500Y271031D01*
X463800D01*
X464773Y271107D01*
X465722Y271335D01*
X466623Y271709D01*
X467456Y272219D01*
X468198Y272852D01*
X501820Y306475D01*
X506500D01*
X507519Y306575D01*
X508500Y306873D01*
X509403Y307355D01*
X510195Y308005D01*
X510845Y308797D01*
X511327Y309700D01*
X511625Y310681D01*
X511725Y311700D01*
X511625Y312719D01*
X511327Y313700D01*
X510845Y314603D01*
X510195Y315395D01*
X509403Y316045D01*
X508500Y316527D01*
X507519Y316825D01*
X506500Y316925D01*
X501589D01*
X501073Y317241D01*
X500172Y317615D01*
X499223Y317843D01*
X498250Y317919D01*
D02*
G37*
G36*
X539500Y295178D02*
X538383Y295068D01*
X537308Y294742D01*
X536318Y294212D01*
X535450Y293500D01*
X534738Y292632D01*
X534208Y291642D01*
X533882Y290567D01*
X533772Y289450D01*
Y276750D01*
Y264050D01*
X533882Y262933D01*
X534208Y261858D01*
X534738Y260868D01*
X535450Y260000D01*
X536318Y259288D01*
X537308Y258758D01*
X538383Y258433D01*
X539500Y258322D01*
X540617Y258433D01*
X541692Y258758D01*
X542682Y259288D01*
X543550Y260000D01*
X544262Y260868D01*
X544792Y261858D01*
X545117Y262933D01*
X545228Y264050D01*
Y277472D01*
X548524D01*
X548949Y277212D01*
X549923Y276808D01*
X550949Y276562D01*
X552000Y276479D01*
X553051Y276562D01*
X554077Y276808D01*
X555051Y277212D01*
X555950Y277763D01*
X556752Y278448D01*
X557437Y279250D01*
X557988Y280149D01*
X558392Y281123D01*
X558638Y282149D01*
X558721Y283200D01*
X558638Y284251D01*
X558392Y285277D01*
X557988Y286251D01*
X557437Y287150D01*
X556752Y287952D01*
X555950Y288637D01*
X555051Y289188D01*
X554077Y289592D01*
X553051Y289838D01*
X552000Y289921D01*
X550949Y289838D01*
X549923Y289592D01*
X548949Y289188D01*
X548524Y288928D01*
X545228D01*
Y289450D01*
X545117Y290567D01*
X544792Y291642D01*
X544262Y292632D01*
X543550Y293500D01*
X542682Y294212D01*
X541692Y294742D01*
X540617Y295068D01*
X539500Y295178D01*
D02*
G37*
G36*
X337000Y142172D02*
X335870Y142083D01*
X334768Y141819D01*
X333721Y141385D01*
X332755Y140793D01*
X331893Y140057D01*
X331157Y139195D01*
X330565Y138229D01*
X330131Y137182D01*
X329867Y136080D01*
X329778Y134950D01*
X329867Y133820D01*
X330131Y132718D01*
X330565Y131671D01*
X331157Y130705D01*
X331893Y129843D01*
X341528Y120208D01*
Y104700D01*
X341617Y103570D01*
X341881Y102468D01*
X342315Y101421D01*
X342907Y100455D01*
X343643Y99593D01*
X344505Y98857D01*
X345471Y98265D01*
X346518Y97831D01*
X347620Y97567D01*
X348750Y97478D01*
X349880Y97567D01*
X350982Y97831D01*
X352029Y98265D01*
X352995Y98857D01*
X353857Y99593D01*
X354593Y100455D01*
X355185Y101421D01*
X355619Y102468D01*
X355883Y103570D01*
X355972Y104700D01*
Y123200D01*
X355883Y124330D01*
X355619Y125432D01*
X355185Y126479D01*
X354593Y127445D01*
X353857Y128307D01*
X342107Y140057D01*
X341245Y140793D01*
X340279Y141385D01*
X339232Y141819D01*
X338130Y142083D01*
X337000Y142172D01*
D02*
G37*
G36*
X350750Y94719D02*
X349777Y94643D01*
X348828Y94415D01*
X347927Y94041D01*
X347094Y93531D01*
X346352Y92898D01*
X345719Y92156D01*
X345209Y91323D01*
X344835Y90422D01*
X344607Y89473D01*
X344531Y88500D01*
X344607Y87527D01*
X344835Y86578D01*
X345209Y85677D01*
X345719Y84845D01*
X346352Y84102D01*
X347094Y83469D01*
X347927Y82959D01*
X348828Y82585D01*
X349777Y82357D01*
X350750Y82281D01*
X351723Y82357D01*
X352672Y82585D01*
X353573Y82959D01*
X354406Y83469D01*
X355148Y84102D01*
X355781Y84845D01*
X356291Y85677D01*
X356665Y86578D01*
X356893Y87527D01*
X356969Y88500D01*
X356893Y89473D01*
X356665Y90422D01*
X356291Y91323D01*
X355781Y92156D01*
X355148Y92898D01*
X354406Y93531D01*
X353573Y94041D01*
X352672Y94415D01*
X351723Y94643D01*
X350750Y94719D01*
D02*
G37*
G36*
X270250Y364672D02*
X261500D01*
X260370Y364583D01*
X259268Y364319D01*
X258221Y363885D01*
X257255Y363293D01*
X256393Y362557D01*
X255657Y361695D01*
X255065Y360729D01*
X254631Y359682D01*
X254367Y358580D01*
X254278Y357450D01*
X254367Y356320D01*
X254631Y355218D01*
X255065Y354171D01*
X255657Y353205D01*
X256393Y352343D01*
X257255Y351607D01*
X258221Y351015D01*
X259268Y350581D01*
X260370Y350317D01*
X261500Y350228D01*
X263028D01*
Y345200D01*
X263117Y344070D01*
X263381Y342968D01*
X263635Y342355D01*
X263815Y341921D01*
X264407Y340955D01*
X265143Y340093D01*
X275814Y329422D01*
X275781Y329000D01*
X275857Y328027D01*
X276085Y327078D01*
X276459Y326177D01*
X276969Y325345D01*
X277028Y325275D01*
Y323639D01*
X276631Y322682D01*
X276367Y321580D01*
X276278Y320450D01*
Y313887D01*
X276085Y313422D01*
X275857Y312473D01*
X275781Y311500D01*
X275857Y310527D01*
X276085Y309578D01*
X276459Y308677D01*
X276969Y307845D01*
X277602Y307102D01*
X278286Y306519D01*
X278393Y306393D01*
X279255Y305657D01*
X280221Y305065D01*
X281268Y304631D01*
X282370Y304367D01*
X283500Y304278D01*
X284630Y304367D01*
X285732Y304631D01*
X286779Y305065D01*
X287745Y305657D01*
X288607Y306393D01*
X289343Y307255D01*
X289883Y308136D01*
X290037Y308230D01*
X291358Y308338D01*
X291602Y308052D01*
X292344Y307419D01*
X293177Y306909D01*
X294078Y306535D01*
X295027Y306307D01*
X296000Y306231D01*
X296973Y306307D01*
X297922Y306535D01*
X298823Y306909D01*
X299655Y307419D01*
X300398Y308052D01*
X301031Y308794D01*
X301541Y309627D01*
X301915Y310528D01*
X302143Y311477D01*
X302219Y312450D01*
Y343700D01*
X302143Y344673D01*
X301915Y345622D01*
X301541Y346523D01*
X301031Y347355D01*
X300398Y348098D01*
X288648Y359848D01*
X287906Y360481D01*
X287073Y360991D01*
X286172Y361365D01*
X285223Y361593D01*
X284250Y361669D01*
X283277Y361593D01*
X282328Y361365D01*
X281427Y360991D01*
X280594Y360481D01*
X279852Y359848D01*
X279219Y359105D01*
X278709Y358273D01*
X278686Y358218D01*
X277396Y358422D01*
X277383Y358580D01*
X277119Y359682D01*
X276685Y360729D01*
X276093Y361695D01*
X275357Y362557D01*
X274495Y363293D01*
X273529Y363885D01*
X272482Y364319D01*
X271380Y364583D01*
X270250Y364672D01*
D02*
G37*
G36*
X444750Y318719D02*
X443777Y318643D01*
X442828Y318415D01*
X441927Y318041D01*
X441095Y317531D01*
X440352Y316898D01*
X439719Y316156D01*
X439209Y315323D01*
X438835Y314422D01*
X438607Y313473D01*
X438531Y312500D01*
X438607Y311527D01*
X438835Y310578D01*
X439209Y309677D01*
X439719Y308845D01*
X440352Y308102D01*
X441095Y307469D01*
X441927Y306959D01*
X442828Y306585D01*
X443777Y306357D01*
X444750Y306281D01*
X445723Y306357D01*
X446672Y306585D01*
X447574Y306959D01*
X448406Y307469D01*
X448555Y307596D01*
X449418Y306663D01*
X445924Y303169D01*
X441500D01*
X440527Y303093D01*
X439578Y302865D01*
X438676Y302491D01*
X438161Y302175D01*
X430250D01*
X429231Y302075D01*
X428250Y301777D01*
X427347Y301294D01*
X426555Y300645D01*
X425905Y299853D01*
X425423Y298950D01*
X425125Y297969D01*
X425025Y296950D01*
X425125Y295931D01*
X425423Y294950D01*
X425905Y294047D01*
X426555Y293255D01*
X427347Y292605D01*
X428250Y292123D01*
X429231Y291825D01*
X430250Y291725D01*
X438161D01*
X438676Y291409D01*
X439578Y291035D01*
X440527Y290807D01*
X441500Y290731D01*
X448500D01*
X449473Y290807D01*
X450422Y291035D01*
X451323Y291409D01*
X452155Y291919D01*
X452898Y292552D01*
X465826Y305481D01*
X476000D01*
X476973Y305557D01*
X477922Y305785D01*
X478824Y306159D01*
X479656Y306669D01*
X480398Y307302D01*
X481031Y308044D01*
X481541Y308876D01*
X481915Y309778D01*
X482143Y310727D01*
X482219Y311700D01*
X482143Y312673D01*
X481915Y313622D01*
X481541Y314523D01*
X481031Y315355D01*
X480398Y316098D01*
X479656Y316731D01*
X478824Y317241D01*
X477922Y317615D01*
X476973Y317843D01*
X476000Y317919D01*
X463250D01*
X462277Y317843D01*
X461328Y317615D01*
X460427Y317241D01*
X459594Y316731D01*
X458852Y316098D01*
X450587Y307832D01*
X449654Y308695D01*
X449781Y308845D01*
X450291Y309677D01*
X450665Y310578D01*
X450893Y311527D01*
X450969Y312500D01*
X450893Y313473D01*
X450665Y314422D01*
X450291Y315323D01*
X449781Y316156D01*
X449148Y316898D01*
X448406Y317531D01*
X447574Y318041D01*
X446672Y318415D01*
X445723Y318643D01*
X444750Y318719D01*
D02*
G37*
G36*
X348000Y362672D02*
X346870Y362583D01*
X345768Y362319D01*
X344721Y361885D01*
X343755Y361293D01*
X342893Y360557D01*
X330393Y348057D01*
X329657Y347195D01*
X329065Y346229D01*
X328885Y345795D01*
X328631Y345182D01*
X328367Y344080D01*
X328278Y342950D01*
Y314200D01*
X328367Y313070D01*
X328631Y311968D01*
X329065Y310921D01*
X329657Y309955D01*
X330393Y309093D01*
X331255Y308357D01*
X332221Y307765D01*
X333268Y307331D01*
X334370Y307067D01*
X335500Y306978D01*
X336630Y307067D01*
X337315Y307231D01*
X338269Y307325D01*
X339250Y307623D01*
X340153Y308105D01*
X340201Y308145D01*
X340224Y308154D01*
X340722Y308160D01*
X341777Y307824D01*
X342157Y307205D01*
X342893Y306343D01*
X357393Y291843D01*
X358255Y291107D01*
X359221Y290515D01*
X360268Y290081D01*
X361370Y289817D01*
X362500Y289728D01*
X375750D01*
X376880Y289817D01*
X377982Y290081D01*
X379029Y290515D01*
X379995Y291107D01*
X380857Y291843D01*
X381593Y292705D01*
X382185Y293671D01*
X382619Y294718D01*
X382883Y295820D01*
X382972Y296950D01*
X382883Y298080D01*
X382619Y299182D01*
X382185Y300229D01*
X381593Y301195D01*
X380857Y302057D01*
X379995Y302793D01*
X379029Y303385D01*
X377982Y303819D01*
X376880Y304083D01*
X375750Y304172D01*
X365491D01*
X357410Y312254D01*
X357393Y312473D01*
X357165Y313422D01*
X356791Y314324D01*
X356281Y315156D01*
X355650Y315895D01*
X355648Y315902D01*
Y317348D01*
X355650Y317356D01*
X356281Y318095D01*
X356791Y318927D01*
X357165Y319828D01*
X357393Y320777D01*
X357469Y321750D01*
X357393Y322723D01*
X357165Y323672D01*
X356791Y324573D01*
X356281Y325406D01*
X355648Y326148D01*
X354906Y326781D01*
X354073Y327291D01*
X353172Y327665D01*
X352223Y327893D01*
X351250Y327969D01*
X350277Y327893D01*
X349328Y327665D01*
X348427Y327291D01*
X347798Y326906D01*
X346870Y326833D01*
X345768Y326569D01*
X344721Y326135D01*
X343992Y325688D01*
X343224Y325948D01*
X342722Y326331D01*
Y334948D01*
X343897Y335322D01*
X343992Y335317D01*
X344602Y334602D01*
X345345Y333969D01*
X346177Y333459D01*
X347078Y333085D01*
X348027Y332857D01*
X349000Y332781D01*
X349973Y332857D01*
X350922Y333085D01*
X351824Y333459D01*
X352656Y333969D01*
X353398Y334602D01*
X354031Y335345D01*
X354541Y336177D01*
X354915Y337078D01*
X355143Y338027D01*
X355219Y339000D01*
X355143Y339973D01*
X354915Y340922D01*
X354541Y341823D01*
X354031Y342656D01*
X353398Y343398D01*
X352656Y344031D01*
X351824Y344541D01*
X350922Y344915D01*
X349973Y345143D01*
X349722Y345162D01*
X349238Y346474D01*
X353107Y350343D01*
X353843Y351205D01*
X354435Y352171D01*
X354869Y353218D01*
X355133Y354320D01*
X355222Y355450D01*
X355133Y356580D01*
X354869Y357682D01*
X354435Y358729D01*
X353843Y359695D01*
X353107Y360557D01*
X352245Y361293D01*
X351279Y361885D01*
X350232Y362319D01*
X349130Y362583D01*
X348000Y362672D01*
D02*
G37*
G36*
X444750Y332469D02*
X443777Y332393D01*
X442828Y332165D01*
X441927Y331791D01*
X441095Y331281D01*
X440352Y330648D01*
X439719Y329906D01*
X439209Y329073D01*
X438835Y328172D01*
X438607Y327223D01*
X438531Y326250D01*
X438607Y325277D01*
X438835Y324328D01*
X439209Y323427D01*
X439719Y322594D01*
X440352Y321852D01*
X441095Y321219D01*
X441927Y320709D01*
X442828Y320335D01*
X443777Y320107D01*
X444750Y320031D01*
X445723Y320107D01*
X446672Y320335D01*
X447574Y320709D01*
X448406Y321219D01*
X449148Y321852D01*
X449781Y322594D01*
X450291Y323427D01*
X450665Y324328D01*
X450893Y325277D01*
X450969Y326250D01*
X450893Y327223D01*
X450665Y328172D01*
X450291Y329073D01*
X449781Y329906D01*
X449148Y330648D01*
X448406Y331281D01*
X447574Y331791D01*
X446672Y332165D01*
X445723Y332393D01*
X444750Y332469D01*
D02*
G37*
G36*
X270500Y236922D02*
X261750D01*
X260620Y236833D01*
X259518Y236569D01*
X258471Y236135D01*
X257505Y235543D01*
X256643Y234807D01*
X255907Y233945D01*
X255315Y232979D01*
X254881Y231932D01*
X254617Y230830D01*
X254528Y229700D01*
X254617Y228570D01*
X254881Y227468D01*
X255315Y226421D01*
X255907Y225455D01*
X256643Y224593D01*
X257505Y223857D01*
X258471Y223265D01*
X259518Y222831D01*
X260620Y222567D01*
X261750Y222478D01*
X263278D01*
Y217450D01*
X263367Y216320D01*
X263631Y215218D01*
X263885Y214605D01*
X264065Y214171D01*
X264657Y213205D01*
X265393Y212343D01*
X277278Y200458D01*
Y187518D01*
X276969Y187155D01*
X276459Y186323D01*
X276085Y185422D01*
X275857Y184473D01*
X275781Y183500D01*
X275857Y182527D01*
X276085Y181578D01*
X276459Y180676D01*
X276969Y179844D01*
X277602Y179102D01*
X278344Y178469D01*
X279177Y177959D01*
X280078Y177585D01*
X281027Y177357D01*
X281077Y177353D01*
X281221Y177265D01*
X282268Y176831D01*
X283370Y176567D01*
X284500Y176478D01*
X285630Y176567D01*
X286732Y176831D01*
X287779Y177265D01*
X288745Y177857D01*
X289607Y178593D01*
X290343Y179455D01*
X290935Y180421D01*
X291369Y181468D01*
X291633Y182570D01*
X291722Y183700D01*
Y203450D01*
X291633Y204580D01*
X291369Y205682D01*
X290935Y206729D01*
X290343Y207695D01*
X289607Y208557D01*
X278235Y219929D01*
X278322Y220391D01*
X278665Y220616D01*
X279699Y220832D01*
X280255Y220357D01*
X281221Y219765D01*
X282268Y219331D01*
X283370Y219067D01*
X284500Y218978D01*
X295250D01*
X296380Y219067D01*
X297482Y219331D01*
X298529Y219765D01*
X299495Y220357D01*
X300357Y221093D01*
X301093Y221955D01*
X301685Y222921D01*
X302119Y223968D01*
X302383Y225070D01*
X302472Y226200D01*
X302383Y227330D01*
X302119Y228432D01*
X301685Y229479D01*
X301093Y230445D01*
X300357Y231307D01*
X299495Y232043D01*
X298529Y232635D01*
X297482Y233069D01*
X296380Y233333D01*
X295250Y233422D01*
X284500D01*
X283370Y233333D01*
X282268Y233069D01*
X281221Y232635D01*
X280255Y232043D01*
X279393Y231307D01*
X278914Y230746D01*
X278166Y230795D01*
X277968Y230860D01*
X277569Y231099D01*
X277369Y231932D01*
X276935Y232979D01*
X276343Y233945D01*
X275607Y234807D01*
X274745Y235543D01*
X273779Y236135D01*
X272732Y236569D01*
X271630Y236833D01*
X270500Y236922D01*
D02*
G37*
G36*
X348250Y233172D02*
X337000D01*
X335870Y233083D01*
X334768Y232819D01*
X333721Y232385D01*
X332755Y231793D01*
X331893Y231057D01*
X331157Y230195D01*
X330565Y229229D01*
X330131Y228182D01*
X329867Y227080D01*
X329778Y225950D01*
X329867Y224820D01*
X330131Y223718D01*
X330565Y222671D01*
X331157Y221705D01*
X331893Y220843D01*
X332755Y220107D01*
X333721Y219515D01*
X334768Y219081D01*
X335870Y218817D01*
X337000Y218728D01*
X348250D01*
X349380Y218817D01*
X350482Y219081D01*
X351529Y219515D01*
X352495Y220107D01*
X353357Y220843D01*
X354093Y221705D01*
X354685Y222671D01*
X355119Y223718D01*
X355383Y224820D01*
X355472Y225950D01*
X355383Y227080D01*
X355119Y228182D01*
X354685Y229229D01*
X354093Y230195D01*
X353357Y231057D01*
X352495Y231793D01*
X351529Y232385D01*
X350482Y232819D01*
X349380Y233083D01*
X348250Y233172D01*
D02*
G37*
G36*
X567000Y227669D02*
X566027Y227593D01*
X565078Y227365D01*
X564177Y226991D01*
X563344Y226481D01*
X562602Y225848D01*
X561969Y225105D01*
X561459Y224273D01*
X561085Y223372D01*
X560857Y222423D01*
X560781Y221450D01*
X560857Y220477D01*
X561085Y219528D01*
X561459Y218626D01*
X561969Y217794D01*
X562602Y217052D01*
X563344Y216419D01*
X564177Y215909D01*
X565078Y215535D01*
X566027Y215307D01*
X567000Y215231D01*
X567973Y215307D01*
X568922Y215535D01*
X569823Y215909D01*
X570656Y216419D01*
X571398Y217052D01*
X572031Y217794D01*
X572541Y218626D01*
X572915Y219528D01*
X573143Y220477D01*
X573219Y221450D01*
X573143Y222423D01*
X572915Y223372D01*
X572541Y224273D01*
X572031Y225105D01*
X571398Y225848D01*
X570656Y226481D01*
X569823Y226991D01*
X568922Y227365D01*
X567973Y227593D01*
X567000Y227669D01*
D02*
G37*
G36*
X589500Y270969D02*
X588527Y270893D01*
X587578Y270665D01*
X586677Y270291D01*
X585844Y269781D01*
X585102Y269148D01*
X584469Y268405D01*
X583959Y267573D01*
X583585Y266672D01*
X583357Y265723D01*
X583281Y264750D01*
X583357Y263777D01*
X583585Y262828D01*
X583959Y261927D01*
X584469Y261094D01*
X585102Y260352D01*
X585844Y259719D01*
X586677Y259209D01*
X587578Y258835D01*
X588527Y258607D01*
X589500Y258531D01*
X590473Y258607D01*
X591422Y258835D01*
X592323Y259209D01*
X593156Y259719D01*
X593898Y260352D01*
X594531Y261094D01*
X595041Y261927D01*
X595415Y262828D01*
X595643Y263777D01*
X595719Y264750D01*
X595643Y265723D01*
X595415Y266672D01*
X595041Y267573D01*
X594531Y268405D01*
X593898Y269148D01*
X593156Y269781D01*
X592323Y270291D01*
X591422Y270665D01*
X590473Y270893D01*
X589500Y270969D01*
D02*
G37*
G36*
X369700Y265719D02*
X368727Y265643D01*
X367778Y265415D01*
X366877Y265041D01*
X366045Y264531D01*
X365302Y263898D01*
X364669Y263155D01*
X364159Y262323D01*
X363785Y261422D01*
X363557Y260473D01*
X363481Y259500D01*
X363557Y258527D01*
X363785Y257578D01*
X364159Y256677D01*
X364669Y255844D01*
X365302Y255102D01*
X366045Y254469D01*
X366877Y253959D01*
X367778Y253585D01*
X368727Y253357D01*
X369700Y253281D01*
X370673Y253357D01*
X371622Y253585D01*
X372523Y253959D01*
X373355Y254469D01*
X374098Y255102D01*
X374731Y255844D01*
X375241Y256677D01*
X375615Y257578D01*
X375843Y258527D01*
X375919Y259500D01*
X375843Y260473D01*
X375615Y261422D01*
X375241Y262323D01*
X374731Y263155D01*
X374098Y263898D01*
X373355Y264531D01*
X372523Y265041D01*
X371622Y265415D01*
X370673Y265643D01*
X369700Y265719D01*
D02*
G37*
G36*
X349250Y269919D02*
X348277Y269843D01*
X347328Y269615D01*
X346427Y269241D01*
X345594Y268731D01*
X344852Y268098D01*
X344219Y267355D01*
X343709Y266523D01*
X343335Y265622D01*
X343107Y264673D01*
X343031Y263700D01*
X343107Y262727D01*
X343335Y261778D01*
X343709Y260877D01*
X344219Y260044D01*
X344852Y259302D01*
X345594Y258669D01*
X346427Y258159D01*
X347328Y257785D01*
X348277Y257557D01*
X349250Y257481D01*
X350223Y257557D01*
X351172Y257785D01*
X352073Y258159D01*
X352906Y258669D01*
X353648Y259302D01*
X354281Y260044D01*
X354791Y260877D01*
X355165Y261778D01*
X355393Y262727D01*
X355469Y263700D01*
X355393Y264673D01*
X355165Y265622D01*
X354791Y266523D01*
X354281Y267355D01*
X353648Y268098D01*
X352906Y268731D01*
X352073Y269241D01*
X351172Y269615D01*
X350223Y269843D01*
X349250Y269919D01*
D02*
G37*
G36*
X402197Y249925D02*
X401178Y249825D01*
X400197Y249527D01*
X399294Y249045D01*
X398502Y248395D01*
X397853Y247603D01*
X397370Y246700D01*
X397072Y245719D01*
X396972Y244700D01*
X397072Y243681D01*
X397370Y242700D01*
X397853Y241797D01*
X398502Y241005D01*
X399294Y240355D01*
X400197Y239873D01*
X401178Y239575D01*
X402197Y239475D01*
X403217Y239575D01*
X404197Y239873D01*
X405100Y240355D01*
X405892Y241005D01*
X406542Y241797D01*
X407024Y242700D01*
X407322Y243681D01*
X407422Y244700D01*
X407322Y245719D01*
X407024Y246700D01*
X406542Y247603D01*
X405892Y248395D01*
X405100Y249045D01*
X404197Y249527D01*
X403217Y249825D01*
X402197Y249925D01*
D02*
G37*
G36*
X539500Y256575D02*
X538481Y256475D01*
X537500Y256177D01*
X536597Y255695D01*
X535805Y255045D01*
X535155Y254253D01*
X534673Y253350D01*
X534375Y252369D01*
X534275Y251350D01*
Y238650D01*
Y225950D01*
Y213250D01*
X534375Y212231D01*
X534673Y211250D01*
X535155Y210347D01*
X535805Y209555D01*
X536597Y208905D01*
X537500Y208423D01*
X538481Y208125D01*
X539500Y208025D01*
X540519Y208125D01*
X541500Y208423D01*
X542403Y208905D01*
X543195Y209555D01*
X543845Y210347D01*
X544327Y211250D01*
X544625Y212231D01*
X544725Y213250D01*
Y214475D01*
X547051D01*
X547300Y214263D01*
X548199Y213712D01*
X549173Y213308D01*
X550199Y213062D01*
X551250Y212979D01*
X552301Y213062D01*
X553327Y213308D01*
X554301Y213712D01*
X555200Y214263D01*
X556002Y214948D01*
X556687Y215750D01*
X557238Y216649D01*
X557642Y217623D01*
X557888Y218649D01*
X557971Y219700D01*
X557888Y220751D01*
X557642Y221777D01*
X557238Y222751D01*
X556687Y223650D01*
X556002Y224452D01*
X555200Y225137D01*
X554301Y225688D01*
X553327Y226092D01*
X552301Y226338D01*
X551250Y226421D01*
X550199Y226338D01*
X549173Y226092D01*
X548199Y225688D01*
X547300Y225137D01*
X547051Y224925D01*
X544725D01*
Y238650D01*
Y251350D01*
X544625Y252369D01*
X544327Y253350D01*
X543845Y254253D01*
X543195Y255045D01*
X542403Y255695D01*
X541500Y256177D01*
X540519Y256475D01*
X539500Y256575D01*
D02*
G37*
G36*
X58250Y194375D02*
X56971Y194275D01*
X55724Y193975D01*
X54538Y193484D01*
X53445Y192814D01*
X52469Y191981D01*
X51636Y191005D01*
X50966Y189911D01*
X50475Y188726D01*
X50175Y187479D01*
X50075Y186200D01*
X50175Y184921D01*
X50475Y183674D01*
X50966Y182488D01*
X51636Y181395D01*
X52469Y180419D01*
X53445Y179586D01*
X54538Y178916D01*
X55724Y178425D01*
X56971Y178125D01*
X58250Y178025D01*
X59529Y178125D01*
X60776Y178425D01*
X61961Y178916D01*
X63055Y179586D01*
X64031Y180419D01*
X64864Y181395D01*
X65534Y182488D01*
X66025Y183674D01*
X66325Y184921D01*
X66425Y186200D01*
X66325Y187479D01*
X66025Y188726D01*
X65534Y189911D01*
X64864Y191005D01*
X64031Y191981D01*
X63055Y192814D01*
X61961Y193484D01*
X60776Y193975D01*
X59529Y194275D01*
X58250Y194375D01*
D02*
G37*
G36*
X475500Y182669D02*
X459950D01*
X458977Y182593D01*
X458028Y182365D01*
X457127Y181991D01*
X456294Y181481D01*
X455552Y180848D01*
X448674Y173969D01*
X443858D01*
X443750Y174027D01*
X442769Y174325D01*
X441750Y174425D01*
X430500D01*
X429481Y174325D01*
X428500Y174027D01*
X427597Y173545D01*
X426805Y172895D01*
X426155Y172103D01*
X425673Y171200D01*
X425375Y170219D01*
X425275Y169200D01*
X425375Y168181D01*
X425673Y167200D01*
X426155Y166297D01*
X426805Y165505D01*
X427597Y164855D01*
X428500Y164373D01*
X429481Y164075D01*
X430500Y163975D01*
X438271D01*
X438802Y163352D01*
X439544Y162719D01*
X440377Y162209D01*
X441278Y161835D01*
X442227Y161607D01*
X443200Y161531D01*
X451250D01*
X452223Y161607D01*
X453172Y161835D01*
X454073Y162209D01*
X454906Y162719D01*
X455648Y163352D01*
X462526Y170231D01*
X475500D01*
X476473Y170307D01*
X477422Y170535D01*
X478323Y170909D01*
X479156Y171419D01*
X479898Y172052D01*
X480531Y172794D01*
X481041Y173627D01*
X481415Y174528D01*
X481643Y175477D01*
X481719Y176450D01*
X481643Y177423D01*
X481415Y178372D01*
X481041Y179273D01*
X480531Y180105D01*
X479898Y180848D01*
X479156Y181481D01*
X478323Y181991D01*
X477422Y182365D01*
X476473Y182593D01*
X475500Y182669D01*
D02*
G37*
G36*
X348750Y199969D02*
X347777Y199893D01*
X346828Y199665D01*
X345927Y199291D01*
X345094Y198781D01*
X344352Y198148D01*
X344098Y197850D01*
X344005Y197793D01*
X343143Y197057D01*
X342407Y196195D01*
X341815Y195229D01*
X341381Y194182D01*
X341117Y193080D01*
X341028Y191950D01*
Y183700D01*
X341117Y182570D01*
X341381Y181468D01*
X341635Y180855D01*
X341815Y180421D01*
X342407Y179455D01*
X343143Y178593D01*
X357643Y164093D01*
X358505Y163357D01*
X359471Y162765D01*
X360518Y162331D01*
X361620Y162067D01*
X362750Y161978D01*
X363880Y162067D01*
X364982Y162331D01*
X366029Y162765D01*
X366381Y162981D01*
X376000D01*
X376973Y163057D01*
X377922Y163285D01*
X378823Y163659D01*
X379656Y164169D01*
X380398Y164802D01*
X381031Y165544D01*
X381541Y166376D01*
X381915Y167278D01*
X382143Y168227D01*
X382219Y169200D01*
X382143Y170173D01*
X381915Y171122D01*
X381541Y172023D01*
X381031Y172855D01*
X380398Y173598D01*
X379656Y174231D01*
X378823Y174741D01*
X377922Y175115D01*
X376973Y175343D01*
X376000Y175419D01*
X366745D01*
X357410Y184754D01*
X357393Y184973D01*
X357165Y185922D01*
X356791Y186823D01*
X356281Y187656D01*
X355648Y188398D01*
X355472Y188547D01*
Y191950D01*
X355383Y193080D01*
X355119Y194182D01*
X354890Y194734D01*
X354665Y195672D01*
X354291Y196573D01*
X353781Y197405D01*
X353148Y198148D01*
X352406Y198781D01*
X351573Y199291D01*
X350672Y199665D01*
X349723Y199893D01*
X348750Y199969D01*
D02*
G37*
G36*
X445250Y193219D02*
X444277Y193143D01*
X443328Y192915D01*
X442427Y192541D01*
X441595Y192031D01*
X440852Y191398D01*
X440219Y190655D01*
X439709Y189823D01*
X439335Y188922D01*
X439107Y187973D01*
X439031Y187000D01*
X439107Y186027D01*
X439335Y185078D01*
X439709Y184177D01*
X440219Y183344D01*
X440852Y182602D01*
X441595Y181969D01*
X442427Y181459D01*
X443328Y181085D01*
X444277Y180857D01*
X445250Y180781D01*
X446223Y180857D01*
X447172Y181085D01*
X448073Y181459D01*
X448906Y181969D01*
X449648Y182602D01*
X450281Y183344D01*
X450791Y184177D01*
X451165Y185078D01*
X451393Y186027D01*
X451469Y187000D01*
X451393Y187973D01*
X451165Y188922D01*
X450791Y189823D01*
X450281Y190655D01*
X449648Y191398D01*
X448906Y192031D01*
X448073Y192541D01*
X447172Y192915D01*
X446223Y193143D01*
X445250Y193219D01*
D02*
G37*
G36*
X469000Y214969D02*
X468027Y214893D01*
X467078Y214665D01*
X466177Y214291D01*
X465345Y213781D01*
X464602Y213148D01*
X463969Y212405D01*
X463459Y211573D01*
X463085Y210672D01*
X462857Y209723D01*
X462781Y208750D01*
X462857Y207777D01*
X463085Y206828D01*
X463459Y205927D01*
X463969Y205095D01*
X464602Y204352D01*
X465345Y203719D01*
X466177Y203209D01*
X467078Y202835D01*
X468027Y202607D01*
X469000Y202531D01*
X469973Y202607D01*
X470922Y202835D01*
X471823Y203209D01*
X472655Y203719D01*
X473398Y204352D01*
X474031Y205095D01*
X474541Y205927D01*
X474915Y206828D01*
X475143Y207777D01*
X475219Y208750D01*
X475143Y209723D01*
X474915Y210672D01*
X474541Y211573D01*
X474031Y212405D01*
X473398Y213148D01*
X472655Y213781D01*
X471823Y214291D01*
X470922Y214665D01*
X469973Y214893D01*
X469000Y214969D01*
D02*
G37*
G36*
X445250Y206969D02*
X444277Y206893D01*
X443328Y206665D01*
X442427Y206291D01*
X441595Y205781D01*
X440852Y205148D01*
X440219Y204405D01*
X439709Y203573D01*
X439335Y202672D01*
X439107Y201723D01*
X439031Y200750D01*
X439107Y199777D01*
X439335Y198828D01*
X439709Y197927D01*
X440219Y197094D01*
X440852Y196352D01*
X441595Y195719D01*
X442427Y195209D01*
X443328Y194835D01*
X444277Y194607D01*
X445250Y194531D01*
X446223Y194607D01*
X447172Y194835D01*
X448073Y195209D01*
X448906Y195719D01*
X449648Y196352D01*
X450281Y197094D01*
X450791Y197927D01*
X451165Y198828D01*
X451393Y199777D01*
X451469Y200750D01*
X451393Y201723D01*
X451165Y202672D01*
X450791Y203573D01*
X450281Y204405D01*
X449648Y205148D01*
X448906Y205781D01*
X448073Y206291D01*
X447172Y206665D01*
X446223Y206893D01*
X445250Y206969D01*
D02*
G37*
G36*
X539500Y205775D02*
X538481Y205675D01*
X537500Y205377D01*
X536597Y204895D01*
X535805Y204245D01*
X535155Y203453D01*
X534673Y202550D01*
X534375Y201569D01*
X534275Y200550D01*
Y195870D01*
X534107Y195173D01*
X534031Y194200D01*
X534107Y193227D01*
X534275Y192530D01*
Y187850D01*
X534375Y186831D01*
X534673Y185850D01*
X535155Y184947D01*
X535805Y184155D01*
X536597Y183505D01*
X537500Y183023D01*
X538481Y182725D01*
X539500Y182625D01*
X540519Y182725D01*
X541500Y183023D01*
X542403Y183505D01*
X543195Y184155D01*
X543845Y184947D01*
X544327Y185850D01*
X544625Y186831D01*
X544725Y187850D01*
Y187981D01*
X548506D01*
X548923Y187808D01*
X549949Y187562D01*
X551000Y187479D01*
X552051Y187562D01*
X553077Y187808D01*
X554051Y188212D01*
X554950Y188763D01*
X555752Y189448D01*
X556437Y190250D01*
X556988Y191149D01*
X557392Y192123D01*
X557638Y193149D01*
X557721Y194200D01*
X557638Y195251D01*
X557392Y196277D01*
X556988Y197251D01*
X556437Y198150D01*
X555752Y198952D01*
X554950Y199637D01*
X554051Y200188D01*
X553077Y200592D01*
X552051Y200838D01*
X551000Y200921D01*
X549949Y200838D01*
X548923Y200592D01*
X548506Y200419D01*
X544725D01*
Y200550D01*
X544625Y201569D01*
X544327Y202550D01*
X543845Y203453D01*
X543195Y204245D01*
X542403Y204895D01*
X541500Y205377D01*
X540519Y205675D01*
X539500Y205775D01*
D02*
G37*
%LPD*%
D30*
Y117950D02*
X551000D01*
D31*
X109750Y259750D02*
Y269000D01*
X39000Y296950D02*
X40500Y298450D01*
X133000Y51000D02*
X139250Y44750D01*
Y40261D02*
Y44750D01*
Y40261D02*
X161406Y18105D01*
X128511Y51000D02*
X133000D01*
X100811Y78700D02*
X128511Y51000D01*
X482050Y11450D02*
X527750D01*
X475000Y18500D02*
X482050Y11450D01*
X475000Y18500D02*
Y32200D01*
X500950Y63750D02*
X506500Y58200D01*
X492800Y63750D02*
X500950D01*
X485750Y56700D02*
X492800Y63750D01*
X545050Y357500D02*
X545500Y357950D01*
X519200Y357500D02*
X545050D01*
X513500Y363200D02*
X519200Y357500D01*
X305000Y362700D02*
X316000Y351700D01*
Y313075D02*
Y351700D01*
Y313075D02*
X316625Y312450D01*
X546500Y81950D02*
X596750Y132200D01*
X520250Y81950D02*
X546500D01*
X508000Y94200D02*
X520250Y81950D01*
X551000Y103950D02*
X580500Y133450D01*
X495000Y103950D02*
X551000D01*
X488000Y110950D02*
X495000Y103950D01*
X422250Y94200D02*
X508000D01*
X580500Y133450D02*
Y162200D01*
X558250Y156450D02*
X564250Y162450D01*
X508000Y156450D02*
X558250D01*
X475500Y123950D02*
X508000Y156450D01*
X564250Y162450D02*
Y182450D01*
X571250Y138950D02*
Y165200D01*
X562750Y130450D02*
X571250Y138950D01*
X518250Y130450D02*
X562750D01*
X564250Y182450D02*
X581500Y199700D01*
X571250Y165200D02*
X580000Y173950D01*
X581500Y199700D02*
X595500D01*
X504750Y116950D02*
X518250Y130450D01*
X418500Y116950D02*
X504750D01*
X580000Y173950D02*
X591750D01*
X422750Y110950D02*
X488000D01*
X417750Y89700D02*
X422250Y94200D01*
X604000Y185200D02*
Y191200D01*
X595500Y199700D02*
X604000Y191200D01*
X586500Y192200D02*
X587250Y192950D01*
Y192200D02*
X591750Y187700D01*
Y173950D02*
Y187700D01*
X542250Y331950D02*
X551250Y340950D01*
X522750Y331950D02*
X542250D01*
X79500Y52450D02*
X99500Y32450D01*
X79500Y52450D02*
Y69950D01*
X85500Y55950D02*
Y64950D01*
X112250Y51450D02*
Y59700D01*
X109750Y48950D02*
X112250Y51450D01*
X109750Y40700D02*
Y48950D01*
X105500Y66450D02*
X112250Y59700D01*
X102750Y66450D02*
X105500D01*
X83250Y78200D02*
X105000Y56450D01*
X62250Y78200D02*
X83250D01*
X76000Y73450D02*
X79500Y69950D01*
X100250Y78700D02*
X100811D01*
X160000Y71450D02*
X170000D01*
X204000Y49700D02*
Y54450D01*
X145000Y86450D02*
X160000Y71450D01*
X116750Y86450D02*
X145000D01*
X116250Y85950D02*
X116750Y86450D01*
X506500Y43950D02*
X518250Y32200D01*
X506500Y43950D02*
Y58200D01*
X485750Y18950D02*
Y56700D01*
X155250Y237700D02*
Y249200D01*
X145000Y296950D02*
Y301200D01*
X144000Y180200D02*
X149000D01*
X66250Y162700D02*
X66750Y163200D01*
X40500Y169950D02*
X69750D01*
X33500Y176950D02*
X40500Y169950D01*
X149000Y180200D02*
X151250Y177950D01*
X217750D01*
X527750Y11450D02*
X534250Y17950D01*
X501750Y363200D02*
X503250D01*
Y363200D01*
X498750D02*
X503250D01*
Y344950D02*
Y363200D01*
Y344950D02*
X505500Y342700D01*
X513000D01*
X503250Y363200D02*
X513500D01*
X546000Y369200D02*
Y370700D01*
Y369200D02*
X551250Y363950D01*
Y340950D02*
Y363950D01*
X489500Y337700D02*
X507000D01*
X509500Y335200D01*
X515750D01*
X537250Y27200D02*
X540500D01*
X117750Y296950D02*
X134250D01*
X34000Y237200D02*
X47500D01*
X98250Y316450D02*
X117750Y296950D01*
X45000Y151200D02*
X50500D01*
X45000Y162700D02*
X66250D01*
X47750Y289450D02*
X65250D01*
X73000Y297200D01*
Y309700D01*
X79750Y316450D01*
X98250D01*
X27250Y286200D02*
Y297450D01*
Y286200D02*
X33000Y280450D01*
X46250D01*
X47750Y278950D01*
X27250Y297450D02*
X42000Y312200D01*
X46750D01*
X15000Y286700D02*
X21500Y280200D01*
Y278950D02*
Y280200D01*
X15000Y286700D02*
Y306700D01*
X19250Y310950D01*
X21250D01*
X138500Y187700D02*
X147750D01*
X219250Y62910D02*
Y102950D01*
X53250Y111950D02*
Y148450D01*
X50500Y151200D02*
X53250Y148450D01*
X84750Y128450D02*
X84750Y122950D01*
X416000Y123950D02*
X475500D01*
X417750Y32700D02*
Y89700D01*
X378500Y36700D02*
X384750Y42950D01*
Y92700D01*
X416000Y123950D01*
X336750Y30700D02*
X384000D01*
X305000Y362700D02*
Y363700D01*
X491250Y370700D02*
X498750Y363200D01*
X483500Y370700D02*
X491250D01*
X18750Y115450D02*
Y116450D01*
X97500Y122450D02*
X98733D01*
X79250Y290200D02*
Y294950D01*
X90250D02*
X91733D01*
X461000Y371200D02*
X467000Y377200D01*
X461000Y351700D02*
Y371200D01*
Y351700D02*
X470625Y342075D01*
Y342825D01*
X467000Y377200D02*
X530750D01*
X535250Y381700D01*
X543750D01*
X68500Y316450D02*
Y323700D01*
X64250Y312200D02*
X68500Y316450D01*
X54000Y308200D02*
X58000Y312200D01*
X64250Y312200D01*
X40500Y298450D02*
X44250D01*
X54000Y308200D01*
X144750Y221450D02*
X145250D01*
X249500Y373700D02*
X326250D01*
X107000Y101700D02*
X132000D01*
X97500Y111200D02*
X107000Y101700D01*
X30250Y118200D02*
Y118950D01*
X10750Y188450D02*
X18750Y180450D01*
X10750Y188450D02*
Y224700D01*
X18750Y232700D01*
X23750D01*
X29500Y226950D01*
X156500Y261950D02*
Y308950D01*
X171187Y323638D01*
X244000Y368200D02*
X249500Y373700D01*
X171187Y323638D02*
X189937D01*
X234500Y368200D01*
X244000D01*
X166000Y92450D02*
X204000Y54450D01*
X151950Y93750D02*
X153250Y92450D01*
X166000D01*
X93250Y75950D02*
X102750Y66450D01*
X93250Y75950D02*
Y81000D01*
X97250Y85000D01*
X47750Y92700D02*
X62250Y78200D01*
X47750Y92700D02*
Y106450D01*
X53250Y111950D01*
X60800Y73450D02*
X76000D01*
X31800Y163500D02*
X33250Y164950D01*
X79000Y134200D02*
X84750Y128450D01*
X9250Y111250D02*
X14450Y116450D01*
X18750D01*
X84750Y106500D02*
Y122950D01*
Y106500D02*
X97250Y94000D01*
Y85000D02*
Y94000D01*
X104500Y93750D02*
X151950D01*
X90350Y107900D02*
X104500Y93750D01*
X515750Y335200D02*
X524550Y344000D01*
X543750D01*
X90350Y107900D02*
Y135600D01*
X61750Y145700D02*
X71550D01*
X79000Y138250D01*
Y134200D02*
Y138250D01*
X81250Y144700D02*
X90350Y135600D01*
X81250Y144700D02*
Y146000D01*
X9250Y76500D02*
Y111250D01*
Y76500D02*
X14500Y71250D01*
X25750D01*
X28250Y73750D01*
X33000Y68000D02*
X38500Y62500D01*
X65200D01*
X70500Y57200D01*
X33500Y186250D02*
X34000D01*
X38750Y191000D01*
X43000Y91250D02*
X60800Y73450D01*
X43000Y91250D02*
Y123500D01*
X24750Y134500D02*
X37500Y121750D01*
X25000Y91000D02*
Y112950D01*
X30250Y118200D01*
X38250Y128250D02*
Y155950D01*
X45000Y162700D01*
X24750Y134500D02*
Y157500D01*
X32000Y164750D01*
X144750Y229450D02*
X154985D01*
X167250Y217185D01*
Y208200D02*
Y217185D01*
X165700Y158700D02*
X198500D01*
X122000Y159250D02*
Y180500D01*
X131250Y175950D02*
X142450Y164750D01*
X205200D01*
X122000Y159250D02*
X133250Y148000D01*
X155000D01*
X165700Y158700D01*
X185700Y136500D02*
X219250Y102950D01*
X25500Y214000D02*
X31500D01*
X38750Y206750D01*
Y191000D02*
Y206750D01*
X38250Y128250D02*
X43000Y123500D01*
X147750Y187700D02*
X150550Y190500D01*
X220200D01*
X39000Y266450D02*
X45450D01*
X59750Y280750D01*
X69750Y169950D02*
X74950Y164750D01*
X79250Y290200D02*
X89250Y280200D01*
X47500Y237200D02*
X50550Y240250D01*
X64750D01*
X67000Y238000D01*
X55750Y253450D02*
X60700Y248500D01*
X54250Y246200D02*
X56200Y244250D01*
X42750Y246200D02*
X54250D01*
X67000Y238000D02*
X78750D01*
X98500Y204000D02*
X122000Y180500D01*
X98500Y204000D02*
Y218250D01*
X78750Y238000D02*
X98500Y218250D01*
X56200Y244250D02*
X85500D01*
X104750Y225000D01*
Y206250D02*
Y225000D01*
Y206250D02*
X131250Y179750D01*
Y175950D02*
Y179750D01*
X136500Y202450D02*
X144250Y194700D01*
X136500Y202450D02*
Y241950D01*
X156500Y261950D01*
X89250Y280200D02*
X94050D01*
X103500Y270750D01*
Y255000D02*
Y270750D01*
X91733Y294950D02*
X107500Y279183D01*
X121750Y204450D02*
X138500Y187700D01*
X60700Y248500D02*
X92000D01*
X121750Y218750D01*
Y204450D02*
Y218750D01*
X102750Y244250D02*
X119500D01*
X123000Y247750D01*
Y264750D01*
X135500Y277250D01*
X139000D01*
X152000Y290250D01*
Y340250D01*
X192500Y380750D01*
X414500D01*
X471750Y323500D01*
X541000D01*
X564750Y299750D01*
X598000D01*
X623500Y274250D01*
Y176000D02*
Y274250D01*
X591750Y159450D02*
X593950D01*
X601700Y173950D02*
X604000D01*
X96500Y250500D02*
X102750Y244250D01*
X96500Y250500D02*
Y264250D01*
X97500Y265250D01*
X107500Y271250D02*
Y279183D01*
Y271250D02*
X109750Y269000D01*
X68500Y323700D02*
X73800Y329000D01*
X117200D01*
X145000Y301200D01*
X596750Y132200D02*
Y142250D01*
X604000Y149500D01*
Y161450D01*
X593950Y159450D02*
X601250Y166750D01*
X614250D01*
X623500Y176000D01*
X580500Y162200D02*
X585050Y166750D01*
X594500D01*
X601700Y173950D01*
X407250Y41950D02*
Y95450D01*
X422750Y110950D01*
X220200Y190500D02*
X252750Y157950D01*
X198500Y158700D02*
X227250Y129950D01*
X205200Y164750D02*
X237500Y132450D01*
X217750Y177950D02*
X245750Y149950D01*
X227250Y75000D02*
Y129950D01*
X237500Y74750D02*
Y132450D01*
X245750Y76750D02*
Y149950D01*
X252750Y79250D02*
Y157950D01*
X28250Y73750D02*
Y80500D01*
X18000D02*
Y84000D01*
X25000Y91000D01*
X33000Y68000D02*
Y74750D01*
X37500Y79250D01*
Y121750D01*
X423300Y16250D02*
X466750D01*
X468750Y18250D01*
Y35950D01*
X475000Y42200D01*
X74950Y164750D02*
X102000D01*
X121250Y136500D02*
X185700D01*
X118000Y139750D02*
X121250Y136500D01*
X118000Y139750D02*
Y148750D01*
X102000Y164750D02*
X118000Y148750D01*
X145950Y19750D02*
X146750D01*
X85500Y55950D02*
X107450Y34000D01*
X131700D01*
X145950Y19750D01*
X384000Y30700D02*
X390500Y37200D01*
Y88950D01*
X418500Y116950D01*
X424500Y27700D02*
X443950D01*
X445750Y75000D02*
X452750D01*
X455250Y72500D01*
Y58750D02*
Y72500D01*
X443950Y27700D02*
X451250Y35000D01*
Y54750D01*
X455250Y58750D01*
X349550Y36700D02*
X378500D01*
X252750Y79250D02*
X281250Y50750D01*
X335500D01*
X349550Y36700D01*
X245750Y76750D02*
X278750Y43750D01*
X328000D01*
X237500Y74750D02*
X284750Y27500D01*
X333550D01*
X336750Y30700D01*
X227250Y75000D02*
X279500Y22750D01*
X388050D01*
X407250Y41950D01*
X219250Y62910D02*
X263410Y18750D01*
X403800D01*
X417750Y32700D01*
X170000Y71450D02*
X232200Y9250D01*
X416300D01*
X423300Y16250D01*
X204000Y49700D02*
X239700Y14000D01*
X410800D01*
X424500Y27700D01*
X534250Y17950D02*
Y18750D01*
D32*
X494250Y27200D02*
X502750Y18700D01*
X520250D01*
D39*
X58250Y321200D02*
D03*
Y231200D02*
D03*
Y96200D02*
D03*
Y186200D02*
D03*
D42*
X568200Y315450D02*
D03*
Y85650D02*
D03*
X590800D02*
D03*
Y315450D02*
D03*
D43*
X282000Y329000D02*
D03*
X351250Y184000D02*
D03*
X282000Y183500D02*
D03*
X274000Y136750D02*
D03*
X279000Y263700D02*
D03*
X567000Y221450D02*
D03*
X643000Y63200D02*
D03*
X6500Y337700D02*
D03*
X6750Y62700D02*
D03*
X583500Y392950D02*
D03*
X643250Y318700D02*
D03*
X214000Y6450D02*
D03*
X569750D02*
D03*
X59000D02*
D03*
X70500Y57200D02*
D03*
X90500Y22950D02*
D03*
X589500Y264750D02*
D03*
X543750Y358700D02*
D03*
X520250Y18750D02*
D03*
X485750Y18950D02*
D03*
X146250Y350450D02*
D03*
X174600Y258700D02*
D03*
X284250Y355450D02*
D03*
X348000D02*
D03*
X284500Y226200D02*
D03*
X285000Y104700D02*
D03*
X348750D02*
D03*
Y60700D02*
D03*
X285000Y70700D02*
D03*
Y60200D02*
D03*
X591750Y159450D02*
D03*
X604000Y173950D02*
D03*
Y185450D02*
D03*
X591750Y173950D02*
D03*
X145000Y296950D02*
D03*
X604000Y159450D02*
D03*
X543750Y381700D02*
D03*
Y370700D02*
D03*
X348250Y225950D02*
D03*
X540500Y27200D02*
D03*
X134250Y296950D02*
D03*
X191000Y143700D02*
D03*
X59750Y266700D02*
D03*
X68000Y392950D02*
D03*
X597250Y109950D02*
D03*
X627750Y310700D02*
D03*
X99500Y347700D02*
D03*
X402250Y138250D02*
D03*
X132000Y101700D02*
D03*
X349250Y263700D02*
D03*
X132500Y350200D02*
D03*
X178750Y143700D02*
D03*
X168750D02*
D03*
X165250Y101450D02*
D03*
X182250Y380950D02*
D03*
X218250Y263700D02*
D03*
X130000Y258200D02*
D03*
X585750Y276000D02*
D03*
X543750Y344000D02*
D03*
X141000Y258200D02*
D03*
X147750Y271750D02*
D03*
X205000Y263700D02*
D03*
X25500Y214000D02*
D03*
X30750Y199500D02*
D03*
X59750Y280750D02*
D03*
X165750Y118450D02*
D03*
X28250Y80500D02*
D03*
X18000D02*
D03*
X457250Y149250D02*
D03*
X460750Y24500D02*
D03*
X455500Y277250D02*
D03*
X348750Y193750D02*
D03*
X284000Y194250D02*
D03*
X351250Y311500D02*
D03*
Y321750D02*
D03*
X282000Y311500D02*
D03*
X348750Y70750D02*
D03*
X133250Y20250D02*
D03*
X146750D02*
D03*
X161750D02*
D03*
X445750Y62500D02*
D03*
Y75000D02*
D03*
X445250Y187000D02*
D03*
Y200750D02*
D03*
X444750Y312500D02*
D03*
Y326250D02*
D03*
X261500Y137000D02*
D03*
X369700Y259500D02*
D03*
X350750Y88500D02*
D03*
X469000Y208750D02*
D03*
X349000Y339000D02*
D03*
X534250Y18750D02*
D03*
D44*
X109750Y259750D02*
D03*
X38250Y298500D02*
D03*
X47750Y291000D02*
D03*
X33500Y291500D02*
D03*
X115750Y27750D02*
D03*
X524500Y276750D02*
D03*
Y289450D02*
D03*
X539500D02*
D03*
Y276750D02*
D03*
Y264050D02*
D03*
X524500D02*
D03*
Y251350D02*
D03*
X539500D02*
D03*
Y238650D02*
D03*
X524500D02*
D03*
Y225950D02*
D03*
X539500D02*
D03*
Y213250D02*
D03*
X524500D02*
D03*
Y200550D02*
D03*
X539500D02*
D03*
Y187850D02*
D03*
X524500D02*
D03*
Y175150D02*
D03*
X539500D02*
D03*
Y162450D02*
D03*
X524500D02*
D03*
Y149750D02*
D03*
X539500D02*
D03*
X524500Y124350D02*
D03*
Y137050D02*
D03*
X539500D02*
D03*
Y124350D02*
D03*
Y111650D02*
D03*
X524500D02*
D03*
X587250Y192200D02*
D03*
X107500Y122700D02*
D03*
X97500D02*
D03*
X165750Y36950D02*
D03*
X99500Y32450D02*
D03*
X125750Y62700D02*
D03*
X143750Y62950D02*
D03*
X116750Y253950D02*
D03*
X316625Y312450D02*
D03*
X337250D02*
D03*
X296000D02*
D03*
X144750Y213200D02*
D03*
X114750Y206950D02*
D03*
X144750Y221450D02*
D03*
X155250Y237700D02*
D03*
X169250D02*
D03*
Y220700D02*
D03*
X76250Y222200D02*
D03*
X89250Y199450D02*
D03*
X112500Y175950D02*
D03*
X155250Y220700D02*
D03*
X77500Y124950D02*
D03*
X202250Y248950D02*
D03*
X193000D02*
D03*
X164250Y274200D02*
D03*
X114250Y310700D02*
D03*
X113750Y274200D02*
D03*
X475500Y176450D02*
D03*
X466500D02*
D03*
X467000Y226200D02*
D03*
X507750Y225950D02*
D03*
X507000Y262450D02*
D03*
X468000D02*
D03*
X476000Y311700D02*
D03*
X466750D02*
D03*
X498250D02*
D03*
X506500D02*
D03*
X295250Y226200D02*
D03*
X336750Y225950D02*
D03*
X401947Y372450D02*
D03*
X231447Y281450D02*
D03*
X231697Y153700D02*
D03*
X402197Y244700D02*
D03*
X375750Y296950D02*
D03*
X362250D02*
D03*
X270250Y357450D02*
D03*
X261500D02*
D03*
X114000Y335950D02*
D03*
X114250Y373950D02*
D03*
X441500Y296950D02*
D03*
X430250D02*
D03*
X204000Y356950D02*
D03*
X192000D02*
D03*
X164500Y337200D02*
D03*
X164000Y373700D02*
D03*
X376000Y169200D02*
D03*
X362500D02*
D03*
X270500Y229700D02*
D03*
X261750D02*
D03*
X441750Y169200D02*
D03*
X430500D02*
D03*
X507750Y176450D02*
D03*
X498000D02*
D03*
X336750Y262450D02*
D03*
X295500Y262200D02*
D03*
X337250Y175950D02*
D03*
X295500D02*
D03*
X72750Y67450D02*
D03*
X168000Y63200D02*
D03*
X105000Y56450D02*
D03*
X121750Y40000D02*
D03*
X109750Y40700D02*
D03*
X62250Y145600D02*
D03*
X66750Y162700D02*
D03*
X76750Y173950D02*
D03*
X77500Y84450D02*
D03*
X85500Y64950D02*
D03*
X64750Y86450D02*
D03*
X88750D02*
D03*
X62250Y108950D02*
D03*
Y122950D02*
D03*
X95750Y56450D02*
D03*
X80500Y28450D02*
D03*
X29500Y226950D02*
D03*
X47750Y280450D02*
D03*
X39000Y266450D02*
D03*
X21500Y280450D02*
D03*
X21000Y258950D02*
D03*
X33500D02*
D03*
X29450Y272950D02*
D03*
X47500Y312450D02*
D03*
X21250Y290950D02*
D03*
Y312450D02*
D03*
X322500Y348200D02*
D03*
X308500D02*
D03*
X513000Y352700D02*
D03*
Y342700D02*
D03*
X489500Y347700D02*
D03*
Y357700D02*
D03*
X470500Y352700D02*
D03*
Y342700D02*
D03*
X489500Y337700D02*
D03*
X537250Y37450D02*
D03*
X494250Y27200D02*
D03*
Y37200D02*
D03*
X475000Y42200D02*
D03*
X494250Y47200D02*
D03*
X537250D02*
D03*
X475000Y32200D02*
D03*
X518250D02*
D03*
Y42200D02*
D03*
X442250Y46200D02*
D03*
X431000D02*
D03*
X363000D02*
D03*
X376500D02*
D03*
X465250Y85200D02*
D03*
X498250D02*
D03*
X508000D02*
D03*
X473250D02*
D03*
X271000Y106700D02*
D03*
X262250D02*
D03*
X402750Y121950D02*
D03*
X337250Y84950D02*
D03*
X296000Y84700D02*
D03*
X337000Y134950D02*
D03*
X296000D02*
D03*
X232197Y30700D02*
D03*
X192750Y106200D02*
D03*
X204750D02*
D03*
X507000Y134950D02*
D03*
X466750Y134700D02*
D03*
X129250Y80200D02*
D03*
X167250Y79950D02*
D03*
X129500Y129950D02*
D03*
X166000D02*
D03*
X100250Y78700D02*
D03*
X78250Y106950D02*
D03*
X33500Y176950D02*
D03*
X169000Y170950D02*
D03*
X155000D02*
D03*
X144000Y171950D02*
D03*
Y180200D02*
D03*
X111750Y142950D02*
D03*
X33250Y164950D02*
D03*
X522750Y331950D02*
D03*
X93750Y322950D02*
D03*
X76750D02*
D03*
X523000Y363700D02*
D03*
X534750Y351450D02*
D03*
X69000Y282950D02*
D03*
Y272950D02*
D03*
X34000Y237200D02*
D03*
X45000Y151200D02*
D03*
X42750Y246200D02*
D03*
X55750Y253450D02*
D03*
X144250Y194700D02*
D03*
X306500Y33700D02*
D03*
X317250D02*
D03*
X328000D02*
D03*
Y43700D02*
D03*
X317250D02*
D03*
X306500D02*
D03*
X315750Y373700D02*
D03*
X326250D02*
D03*
Y363700D02*
D03*
X315750D02*
D03*
X305000D02*
D03*
Y373700D02*
D03*
X483500Y370700D02*
D03*
X473500D02*
D03*
X501250D02*
D03*
X511250D02*
D03*
X487250Y56950D02*
D03*
X497250D02*
D03*
X515000D02*
D03*
X525000D02*
D03*
X39300Y72200D02*
D03*
X49300D02*
D03*
X83750Y96700D02*
D03*
X73750D02*
D03*
X18800Y94000D02*
D03*
X31000Y118950D02*
D03*
X18750Y116450D02*
D03*
Y126450D02*
D03*
X31000Y144700D02*
D03*
X18750D02*
D03*
X31000Y154700D02*
D03*
X18750D02*
D03*
Y170450D02*
D03*
Y180450D02*
D03*
X18750Y195950D02*
D03*
Y205950D02*
D03*
X18750Y222700D02*
D03*
Y232700D02*
D03*
X30500Y247200D02*
D03*
X157250Y250200D02*
D03*
X167250D02*
D03*
Y208200D02*
D03*
X157250D02*
D03*
Y196700D02*
D03*
Y184450D02*
D03*
X167250D02*
D03*
Y196700D02*
D03*
X97500Y111200D02*
D03*
X107500D02*
D03*
Y134200D02*
D03*
X97500D02*
D03*
X61750Y136700D02*
D03*
X71750D02*
D03*
X20250Y323700D02*
D03*
X61250Y306200D02*
D03*
Y296200D02*
D03*
X79250Y294950D02*
D03*
X90250D02*
D03*
Y304950D02*
D03*
X79250D02*
D03*
Y279950D02*
D03*
Y269950D02*
D03*
X45750Y139950D02*
D03*
X31050Y94000D02*
D03*
Y104000D02*
D03*
X116250Y85450D02*
D03*
X164250Y287450D02*
D03*
Y296200D02*
D03*
X93250Y145250D02*
D03*
X81250Y146000D02*
D03*
X45750Y129750D02*
D03*
X33500Y186250D02*
D03*
X18750Y104000D02*
D03*
X144750Y229450D02*
D03*
X153500Y155100D02*
D03*
X144250D02*
D03*
X134750D02*
D03*
X76750Y255500D02*
D03*
X70750Y263000D02*
D03*
X63000Y258000D02*
D03*
X83000Y261250D02*
D03*
X89250Y256250D02*
D03*
X101250Y145250D02*
D03*
X102500Y254500D02*
D03*
X97500Y265250D02*
D03*
X111250Y218750D02*
D03*
X124750Y143450D02*
D03*
X20500Y247200D02*
D03*
X30250Y323700D02*
D03*
X130500Y40000D02*
D03*
D45*
X508250Y199200D02*
D03*
X524750Y94200D02*
D03*
X527250Y306450D02*
D03*
X552000Y283200D02*
D03*
X551250Y219700D02*
D03*
X551000Y194200D02*
D03*
X551250Y168700D02*
D03*
X551500Y143700D02*
D03*
X551000Y117950D02*
D03*
D46*
X652875Y200050D02*
D03*
D47*
X325500Y-2000D02*
D03*
X325000Y401750D02*
D03*
D48*
X639500Y373625D02*
D03*
X639750Y26125D02*
D03*
X11250Y373625D02*
D03*
X12500Y26125D02*
D03*
D49*
X623875Y387000D02*
D03*
X623625Y12250D02*
D03*
X25875Y386750D02*
D03*
X26125Y12250D02*
D03*
D50*
X-1375Y348250D02*
D03*
D51*
X-3125Y57625D02*
D03*
D52*
X585875Y393250D02*
D03*
X65875Y393000D02*
D03*
D53*
X643000Y61125D02*
D03*
X6500Y57625D02*
D03*
X3000Y60375D02*
D03*
X58750Y3875D02*
D03*
D54*
X569900Y361850D02*
D03*
Y37850D02*
D03*
X79900Y361850D02*
D03*
D55*
X31250Y31200D02*
D03*
Y368500D02*
D03*
X618550D02*
D03*
Y31200D02*
D03*
D56*
X540250Y194200D02*
X551000D01*
X174000Y337200D02*
X193750Y356950D01*
X146250Y355950D02*
X164000Y373700D01*
X146250Y350450D02*
Y355950D01*
X193750Y356950D02*
X204000D01*
X164500Y337200D02*
X174000D01*
X296000Y312450D02*
Y343700D01*
X284250Y355450D02*
X296000Y343700D01*
X164250Y268950D02*
X174500Y258700D01*
X164250Y268950D02*
Y274200D01*
X193000Y248950D02*
X202250D01*
X362750Y169200D02*
X376000D01*
X192750Y106200D02*
Y107950D01*
Y106200D02*
X204750D01*
X465250Y85200D02*
X473250D01*
X164250Y290950D02*
Y296200D01*
Y290950D02*
X193000Y262200D01*
Y248950D02*
Y262200D01*
X133250Y126200D02*
X152250D01*
X441500Y296950D02*
X448500D01*
X463250Y311700D01*
X476000D01*
X459950Y176450D02*
X475500D01*
X443200Y167750D02*
X451250D01*
X459950Y176450D01*
X152250Y126200D02*
X160000Y118450D01*
X165750D01*
X432750Y43000D02*
X439050D01*
X457250Y149250D02*
X470800D01*
X497750Y176200D01*
X495750Y85200D02*
X498250D01*
X460750Y24500D02*
Y50200D01*
X495750Y85200D01*
X455500Y277250D02*
X463800D01*
X498250Y311700D01*
X432750Y43000D02*
Y78250D01*
X439700Y85200D01*
X465250D01*
X175700Y125000D02*
X192750Y107950D01*
D57*
X539500Y187850D02*
Y200550D01*
Y117950D02*
Y124350D01*
Y111650D02*
Y117950D01*
Y143700D02*
X551500D01*
X539500Y137050D02*
Y143700D01*
Y149750D01*
X539750Y168700D02*
X551250D01*
X539500Y162450D02*
Y175150D01*
Y219700D02*
Y225950D01*
Y213250D02*
Y219700D01*
X551250D01*
X539500Y225950D02*
Y238650D01*
Y251350D01*
X497750Y176200D02*
X507750D01*
X498250Y311700D02*
X506500D01*
X430250Y296950D02*
X441500D01*
X430500Y169200D02*
X441750D01*
X431000Y46200D02*
X442250D01*
X498250Y85200D02*
X508000D01*
X129500Y129950D02*
X133250Y126200D01*
X441750Y169200D02*
X443200Y167750D01*
D58*
X539600Y283200D02*
X552000D01*
X539500Y276750D02*
Y289450D01*
Y264050D02*
Y276750D01*
D59*
X337000Y225950D02*
X348250D01*
X284500Y226200D02*
X295250D01*
X285000Y104700D02*
Y123950D01*
X296000Y134950D01*
X348750Y104700D02*
Y123200D01*
X337000Y134950D02*
X348750Y123200D01*
X270500Y217450D02*
X284500Y203450D01*
X270500Y217450D02*
Y229700D01*
X271000Y90950D02*
X285000Y76950D01*
X271000Y90950D02*
Y106700D01*
X362500Y296950D02*
X375750D01*
X348000Y311450D02*
Y319700D01*
X261500Y357450D02*
X270250D01*
X348250Y183700D02*
Y191950D01*
X261750Y229700D02*
X270500D01*
X262250Y106700D02*
X271000D01*
X348750Y60700D02*
Y68950D01*
X363250Y46200D02*
X376500D01*
X284500Y183700D02*
Y203450D01*
X284250Y321200D02*
Y331200D01*
X348000Y311450D02*
X362500Y296950D01*
X348750Y60700D02*
X363250Y46200D01*
X348250Y183700D02*
X362750Y169200D01*
X270250Y345200D02*
X284250Y331200D01*
X270250Y345200D02*
Y357450D01*
X335500Y314200D02*
Y342950D01*
X348000Y355450D01*
X283500Y320450D02*
X284250Y321200D01*
X283500Y311500D02*
Y320450D01*
X285000Y60700D02*
Y70700D01*
Y76950D01*
D60*
X153450Y125000D02*
X175700D01*
M02*
