G04 Layer_Color=8388736*
%FSLAX44Y44*%
%MOMM*%
G71*
G01*
G75*
%ADD96R,1.7032X5.6032*%
%ADD97R,5.6032X1.7032*%
%ADD98R,1.3032X1.2032*%
G04:AMPARAMS|DCode=99|XSize=0.5032mm|YSize=1.2032mm|CornerRadius=0.2216mm|HoleSize=0mm|Usage=FLASHONLY|Rotation=180.000|XOffset=0mm|YOffset=0mm|HoleType=Round|Shape=RoundedRectangle|*
%AMROUNDEDRECTD99*
21,1,0.5032,0.7600,0,0,180.0*
21,1,0.0600,1.2032,0,0,180.0*
1,1,0.4432,-0.0300,0.3800*
1,1,0.4432,0.0300,0.3800*
1,1,0.4432,0.0300,-0.3800*
1,1,0.4432,-0.0300,-0.3800*
%
%ADD99ROUNDEDRECTD99*%
G04:AMPARAMS|DCode=100|XSize=0.5032mm|YSize=1.2032mm|CornerRadius=0.2216mm|HoleSize=0mm|Usage=FLASHONLY|Rotation=90.000|XOffset=0mm|YOffset=0mm|HoleType=Round|Shape=RoundedRectangle|*
%AMROUNDEDRECTD100*
21,1,0.5032,0.7600,0,0,90.0*
21,1,0.0600,1.2032,0,0,90.0*
1,1,0.4432,0.3800,0.0300*
1,1,0.4432,0.3800,-0.0300*
1,1,0.4432,-0.3800,-0.0300*
1,1,0.4432,-0.3800,0.0300*
%
%ADD100ROUNDEDRECTD100*%
%ADD101R,6.2032X6.2032*%
%ADD102R,1.0032X1.1032*%
G04:AMPARAMS|DCode=103|XSize=0.5032mm|YSize=1.3032mm|CornerRadius=0.1766mm|HoleSize=0mm|Usage=FLASHONLY|Rotation=270.000|XOffset=0mm|YOffset=0mm|HoleType=Round|Shape=RoundedRectangle|*
%AMROUNDEDRECTD103*
21,1,0.5032,0.9500,0,0,270.0*
21,1,0.1500,1.3032,0,0,270.0*
1,1,0.3532,-0.4750,-0.0750*
1,1,0.3532,-0.4750,0.0750*
1,1,0.3532,0.4750,0.0750*
1,1,0.3532,0.4750,-0.0750*
%
%ADD103ROUNDEDRECTD103*%
%ADD104R,1.1032X1.0032*%
%ADD105R,1.4232X0.6032*%
%ADD106R,3.3032X3.0032*%
%ADD107R,2.1032X2.2032*%
G04:AMPARAMS|DCode=108|XSize=0.5032mm|YSize=1.0032mm|CornerRadius=0.1766mm|HoleSize=0mm|Usage=FLASHONLY|Rotation=270.000|XOffset=0mm|YOffset=0mm|HoleType=Round|Shape=RoundedRectangle|*
%AMROUNDEDRECTD108*
21,1,0.5032,0.6500,0,0,270.0*
21,1,0.1500,1.0032,0,0,270.0*
1,1,0.3532,-0.3250,-0.0750*
1,1,0.3532,-0.3250,0.0750*
1,1,0.3532,0.3250,0.0750*
1,1,0.3532,0.3250,-0.0750*
%
%ADD108ROUNDEDRECTD108*%
%ADD109R,1.8532X2.6032*%
%ADD110R,0.8032X2.8032*%
%ADD111R,0.5032X0.9032*%
%ADD112R,1.3032X1.4032*%
%ADD113R,1.3432X0.9532*%
%ADD114R,0.8032X0.8032*%
%ADD115R,0.8032X0.8032*%
%ADD116C,1.3932*%
%ADD117C,3.2032*%
%ADD118C,6.2032*%
%ADD119C,1.7032*%
D96*
X164250Y354950D02*
D03*
X114250D02*
D03*
Y291950D02*
D03*
X164250D02*
D03*
D97*
X148250Y130200D02*
D03*
Y80200D02*
D03*
X316192Y262450D02*
D03*
Y312450D02*
D03*
Y226200D02*
D03*
Y176200D02*
D03*
X316692Y84950D02*
D03*
Y134950D02*
D03*
X486250Y312450D02*
D03*
Y262450D02*
D03*
Y226200D02*
D03*
Y176200D02*
D03*
Y84950D02*
D03*
Y134950D02*
D03*
D98*
X126250Y62700D02*
D03*
X143250D02*
D03*
X93750Y322950D02*
D03*
X76750D02*
D03*
D99*
X51750Y154450D02*
D03*
X56750D02*
D03*
X61750D02*
D03*
X66750D02*
D03*
X71750D02*
D03*
X76750D02*
D03*
X81750D02*
D03*
X86750D02*
D03*
X91750D02*
D03*
X96750D02*
D03*
X101750D02*
D03*
X106750D02*
D03*
X111750D02*
D03*
X116750D02*
D03*
X121750D02*
D03*
X126750D02*
D03*
Y244450D02*
D03*
X121750D02*
D03*
X116750D02*
D03*
X111750D02*
D03*
X106750D02*
D03*
X101750D02*
D03*
X96750D02*
D03*
X91750D02*
D03*
X86750D02*
D03*
X81750D02*
D03*
X76750D02*
D03*
X71750D02*
D03*
X66750D02*
D03*
X61750D02*
D03*
X56750D02*
D03*
X51750D02*
D03*
D100*
X134250Y161950D02*
D03*
Y166950D02*
D03*
Y171950D02*
D03*
Y176950D02*
D03*
Y181950D02*
D03*
Y186950D02*
D03*
Y191950D02*
D03*
Y196950D02*
D03*
Y201950D02*
D03*
Y206950D02*
D03*
Y211950D02*
D03*
Y216950D02*
D03*
Y221950D02*
D03*
Y226950D02*
D03*
Y231950D02*
D03*
Y236950D02*
D03*
X44250D02*
D03*
Y231950D02*
D03*
Y226950D02*
D03*
Y221950D02*
D03*
Y216950D02*
D03*
Y211950D02*
D03*
Y206950D02*
D03*
Y201950D02*
D03*
Y196950D02*
D03*
Y191950D02*
D03*
Y186950D02*
D03*
Y181950D02*
D03*
Y176950D02*
D03*
Y171950D02*
D03*
Y166950D02*
D03*
Y161950D02*
D03*
D101*
X89250Y199450D02*
D03*
D102*
X308500Y348200D02*
D03*
X322500D02*
D03*
D103*
X480000Y337700D02*
D03*
X523000D02*
D03*
Y342700D02*
D03*
Y347700D02*
D03*
X480000Y342700D02*
D03*
Y347700D02*
D03*
Y352700D02*
D03*
Y357700D02*
D03*
X523000Y352700D02*
D03*
Y357700D02*
D03*
X527750Y47167D02*
D03*
Y42167D02*
D03*
X484750Y47167D02*
D03*
Y42167D02*
D03*
Y37167D02*
D03*
Y32167D02*
D03*
X527750Y37167D02*
D03*
Y32167D02*
D03*
Y27167D02*
D03*
X484750D02*
D03*
D104*
X155000Y155950D02*
D03*
Y169950D02*
D03*
X169000Y155950D02*
D03*
Y169950D02*
D03*
D105*
X88600Y78950D02*
D03*
Y72450D02*
D03*
X62400Y85450D02*
D03*
Y78950D02*
D03*
Y72450D02*
D03*
Y65950D02*
D03*
X88600D02*
D03*
Y85450D02*
D03*
X47350Y272950D02*
D03*
Y266450D02*
D03*
X21150Y279450D02*
D03*
Y272950D02*
D03*
Y266450D02*
D03*
Y259950D02*
D03*
X47350D02*
D03*
Y279450D02*
D03*
Y304950D02*
D03*
Y298450D02*
D03*
X21150Y311450D02*
D03*
Y304950D02*
D03*
Y298450D02*
D03*
Y291950D02*
D03*
X47350D02*
D03*
Y311450D02*
D03*
D106*
X204697Y116700D02*
D03*
X259697D02*
D03*
X430197Y35700D02*
D03*
X375197D02*
D03*
X204197Y239700D02*
D03*
X259197D02*
D03*
X429697Y158700D02*
D03*
X374697D02*
D03*
X203947Y367450D02*
D03*
X258947D02*
D03*
X429447Y286450D02*
D03*
X374447D02*
D03*
D107*
X232197Y30700D02*
D03*
X402697Y121700D02*
D03*
X231697Y153700D02*
D03*
X402197Y244700D02*
D03*
X231447Y281450D02*
D03*
X401947Y372450D02*
D03*
D108*
X77250Y108450D02*
D03*
Y113450D02*
D03*
Y118450D02*
D03*
Y123450D02*
D03*
X47250D02*
D03*
Y118450D02*
D03*
Y113450D02*
D03*
Y108450D02*
D03*
D109*
X62250Y115950D02*
D03*
D110*
X69250Y26700D02*
D03*
X176250D02*
D03*
D111*
X165250Y48700D02*
D03*
X160250D02*
D03*
X155250D02*
D03*
X150250D02*
D03*
X145250D02*
D03*
X140250D02*
D03*
X135250D02*
D03*
X130250D02*
D03*
X80250D02*
D03*
X85250D02*
D03*
X90250D02*
D03*
X95250D02*
D03*
X100250D02*
D03*
X105250D02*
D03*
X110250D02*
D03*
X115250D02*
D03*
X120250D02*
D03*
X125250D02*
D03*
D112*
X155250Y220700D02*
D03*
Y237700D02*
D03*
X169250D02*
D03*
Y220700D02*
D03*
D113*
X540100Y111650D02*
D03*
Y124350D02*
D03*
Y137050D02*
D03*
Y149750D02*
D03*
Y162450D02*
D03*
Y175150D02*
D03*
Y187850D02*
D03*
Y200550D02*
D03*
Y213250D02*
D03*
Y225950D02*
D03*
Y238650D02*
D03*
Y251350D02*
D03*
Y264050D02*
D03*
Y276750D02*
D03*
Y289450D02*
D03*
X524500D02*
D03*
Y276750D02*
D03*
Y264050D02*
D03*
Y251350D02*
D03*
Y238650D02*
D03*
Y225950D02*
D03*
Y213250D02*
D03*
Y200550D02*
D03*
Y187850D02*
D03*
Y175150D02*
D03*
Y162450D02*
D03*
Y149750D02*
D03*
Y137050D02*
D03*
Y124350D02*
D03*
Y111650D02*
D03*
D114*
X97500Y111200D02*
D03*
X107500D02*
D03*
X97500Y122700D02*
D03*
X107500D02*
D03*
X71750Y136700D02*
D03*
X61750D02*
D03*
X107500Y134200D02*
D03*
X97500D02*
D03*
X167250Y196700D02*
D03*
X157250D02*
D03*
Y250200D02*
D03*
X167250D02*
D03*
X157250Y208200D02*
D03*
X167250D02*
D03*
X158000Y63200D02*
D03*
X168000D02*
D03*
X20250Y323700D02*
D03*
X30250D02*
D03*
X83750Y96700D02*
D03*
X73750D02*
D03*
X20500Y247200D02*
D03*
X30500D02*
D03*
X157250Y184450D02*
D03*
X167250D02*
D03*
X39300Y72200D02*
D03*
X49300D02*
D03*
X501250Y370700D02*
D03*
X511250D02*
D03*
X473500D02*
D03*
X483500D02*
D03*
X515000Y56950D02*
D03*
X525000D02*
D03*
X497250D02*
D03*
X487250D02*
D03*
D115*
X31000Y128950D02*
D03*
Y118950D02*
D03*
X79250Y294950D02*
D03*
Y304950D02*
D03*
X90250D02*
D03*
Y294950D02*
D03*
X31000Y144700D02*
D03*
Y154700D02*
D03*
X18750Y116450D02*
D03*
Y126450D02*
D03*
X31050Y104000D02*
D03*
Y94000D02*
D03*
X18750Y205950D02*
D03*
Y195950D02*
D03*
X18750Y154700D02*
D03*
Y144700D02*
D03*
X18800Y104000D02*
D03*
Y94000D02*
D03*
X18750Y170450D02*
D03*
Y180450D02*
D03*
Y232700D02*
D03*
Y222700D02*
D03*
X79250Y269950D02*
D03*
Y279950D02*
D03*
X89250Y280000D02*
D03*
Y270000D02*
D03*
X69000Y282950D02*
D03*
Y272950D02*
D03*
X61250Y296200D02*
D03*
Y306200D02*
D03*
X326250Y373700D02*
D03*
Y363700D02*
D03*
X328000Y33700D02*
D03*
Y43700D02*
D03*
X305000Y373700D02*
D03*
Y363700D02*
D03*
X315750Y373700D02*
D03*
Y363700D02*
D03*
X306500Y43700D02*
D03*
Y33700D02*
D03*
X317250Y43700D02*
D03*
Y33700D02*
D03*
D116*
X58250Y321200D02*
D03*
Y231200D02*
D03*
Y96200D02*
D03*
Y186200D02*
D03*
D117*
X569900Y361850D02*
D03*
Y37850D02*
D03*
X79900Y361850D02*
D03*
D118*
X31250Y31200D02*
D03*
Y368500D02*
D03*
X618550D02*
D03*
Y31200D02*
D03*
D119*
X568200Y315450D02*
D03*
Y85650D02*
D03*
X590800D02*
D03*
Y315450D02*
D03*
M02*
