G04 Layer_Physical_Order=4*
G04 Layer_Color=16440176*
%FSLAX44Y44*%
%MOMM*%
G71*
G01*
G75*
%ADD20C,1.5000*%
%ADD23C,0.6000*%
%ADD27C,0.7000*%
%ADD28C,0.5000*%
D20*
X766710Y211840D02*
D03*
Y186440D02*
D03*
X792110D02*
D03*
X766710Y161040D02*
D03*
X741310Y-321560D02*
D03*
Y-296160D02*
D03*
Y-270760D02*
D03*
D23*
X633550Y-260000D02*
D03*
Y-290000D02*
D03*
Y-320000D02*
D03*
X549750D02*
D03*
Y-290000D02*
D03*
Y-260000D02*
D03*
Y117300D02*
D03*
Y137300D02*
D03*
Y147300D02*
D03*
Y177300D02*
D03*
X633550D02*
D03*
Y147300D02*
D03*
Y137300D02*
D03*
Y117300D02*
D03*
D27*
X754050Y224500D02*
X766710Y211840D01*
X697250Y224500D02*
X754050D01*
X650050Y177300D02*
X697250Y224500D01*
X779420Y173750D02*
X792110Y186440D01*
X683000Y173750D02*
X779420D01*
X646550Y137300D02*
X683000Y173750D01*
X754170Y148500D02*
X766710Y161040D01*
X676250Y148500D02*
X754170D01*
X645050Y117300D02*
X676250Y148500D01*
X633550Y117300D02*
X645050D01*
X633550Y137300D02*
X646550D01*
X754150Y199000D02*
X766710Y186440D01*
X693000Y199000D02*
X754150D01*
X641300Y147300D02*
X693000Y199000D01*
X633550Y147300D02*
X641300D01*
X633550Y177300D02*
X650050D01*
X633550Y-260000D02*
X703250D01*
X705000Y-258250D01*
X728800D01*
X741310Y-270760D01*
X633550Y-290000D02*
X696750D01*
X703250Y-283500D01*
X728650D01*
X741310Y-296160D01*
X633550Y-320000D02*
X690500D01*
X701750Y-308750D01*
X728500D01*
X741310Y-321560D01*
D28*
X616950Y117300D02*
X633550D01*
X606950Y127300D02*
X616950Y117300D01*
X574300Y127300D02*
X606950D01*
X564300Y117300D02*
X574300Y127300D01*
X549750Y117300D02*
X564300D01*
X549750Y137300D02*
X633550D01*
X549750Y147300D02*
X633550D01*
X549750Y177300D02*
X633550D01*
X607500Y-320000D02*
X633550D01*
X598500Y-311000D02*
X607500Y-320000D01*
X587500Y-311000D02*
X598500D01*
X578500Y-320000D02*
X587500Y-311000D01*
X549750Y-320000D02*
X578500D01*
X549750Y-290000D02*
X633550D01*
X549750Y-260000D02*
X633550D01*
M02*
