M48
;Layer_Color=9474304
;FILE_FORMAT=2:5
INCH,LZ
;TYPE=PLATED
T1F00S00C0.01181
;TYPE=NON_PLATED
%
T01
X0151575Y0003937
X0153375Y0009446
Y0013383
Y0017025
X0156693Y0018898
Y0022146
X0162894Y0020177
X0165973Y0021454
Y0018422
X0168996Y0020177
X0175197Y0018898
Y0022146
X0181102Y0023622
Y0019685
Y0015748
Y0011811
Y0007874
Y0003937
X0175197Y0003937
X017126
Y0
X0167323
X0163386
Y0003937
X0167323
X0159449
X0155512Y0
X0156595Y0011319
X0145669Y0010433
Y0021063
X0144291Y0033661
X0154921
X0162697Y0028346
X0165945
X0169193
X0169882Y0033661
X0180512
X0192224Y003248
X0202854
Y0019291
X0192224
X0209842Y0015354
X0213779
X0218307Y0015354
X0222244
X0226772
X0230709
X0233563Y0029134
Y0034055
Y0054134
Y0059055
X0235827Y0065354
Y0069291
X0235827Y0073425
Y0077362
X0231496Y0077362
Y0073425
X0227756
X0231496Y0069291
X0227854Y0065453
X0224311Y0079429
X0228839Y0083169
X023189Y0086221
X0235827Y0086122
Y0082185
X0207087Y008376
Y008691
X0201378Y0086417
X0202854Y0079035
X0206791
X0189173Y0086417
X0180512Y0082874
X0169882
X0169193Y0077559
X0165945
X0162697
X0162894Y006939
X0165973Y0070666
Y0067635
X0168996Y006939
X0175197Y006811
Y0071358
X0181102Y0072835
Y0068898
Y0064961
Y0061024
Y0057087
Y005315
X0175197Y005315
X017126
Y0049213
X0167323
Y005315
X0163386
Y0049213
X0159449Y005315
X0155512Y0049213
X0151575Y005315
X0153375Y0058658
Y0062595
Y0066237
X0156693Y006811
Y0071358
X0156595Y0060532
X0145669Y0059646
Y0070276
X0144291Y0082874
X0154921
X0201969Y0056496
X020187Y0046654
X0212598Y0049114
Y0044094
Y0039075
Y0054134
Y0059055
X0130709Y0058169
Y0054429
X0131595Y0049705
X0127657
X0123524
X0119587
X0120473Y0054429
Y0058169
Y0061909
X0119685Y0066437
X0127657
X0131595
X0130709Y006191
X0129823Y0072539
Y0077658
X0127756Y0080807
X0123819
X0121358Y0077658
X0124803Y0074705
X0108563Y0071653
X0103051
X0097638Y0071653
X0092126
X009439Y0062795
Y0054921
X0101575Y0056299
X0105118
X0108661
Y0060236
X0105118
X0101575
X0102559Y0049213
X0097539Y0046555
X0097638Y0034252
X0103051Y0034252
X0108563
X0108661Y0022835
X0105118
X0101575
Y0018898
X0105118
X0108661
X0102559Y0011811
X0097539Y0009154
X0097638Y-000315
X0103051Y-000315
X0108563
X0119882Y-0000098
X0125295Y-0003051
X0131004Y-0000098
X0134547Y0006299
X0139272
X0139173Y0012205
X0134547
X0126575Y0007579
X0121457
X0122769Y0022638
Y0026575
X0118602
X0126936Y0026575
X0131102Y0026575
Y0022638
X0128347Y0032776
X0120866
X0124606Y004065
X0092126Y0034252
X0081004Y0034252
X0075492
X0070079Y0034252
X0064567
X0064272Y002372
X0060335
X0059646Y0017618
X0060039Y0013287
X0060138Y0009744
X0060236Y000315
X0058858Y-0004331
X0053839Y-000561
X0049803
X0045965
X0042028
X0036024Y-0005512
X0032283Y-0004331
X0028346Y-0004331
X002815Y0001476
X0023425Y0000787
Y0004724
X0019291Y0006594
X001565Y0004823
Y0000886
X0015453Y-0004232
X001939
X0034252Y-0000886
X0041634Y0004035
X0031693Y0009646
X0032185Y0013189
X0033563Y0018307
X0039567Y0023622
Y0028445
X0044882
X0050591
Y0023819
X0050098Y0012402
X0070177Y0009154
X0075Y0011811
X0074016Y0018898
X0077559
X0081102
Y0022835
X0077559
X0074016
X0075Y0049213
X006998Y0046555
X0074016Y0056299
X0077559
X0081102
Y0060236
X0077559
X0074016
X0075492Y0071653
X0070079Y0071653
X0064567
X0050935Y0071752
Y0067815
Y0061942
Y0058005
Y0052132
Y0048195
Y0042323
Y0038386
X0041769
Y0042323
Y0048195
Y0052132
Y0058005
Y0061942
Y0067815
Y0071752
X0042224Y0076279
X0043799Y0082874
X0047736
X0050886
X0054823
X0050984Y0076279
X006998Y0083957
X0075Y0086614
X0081004Y0071653
X0097539Y0083957
X0102559Y0086614
X0112795Y0087894
X0025984Y0082677
X002185Y007874
Y0086614
X-000128Y0082677
X-0005906Y0086614
Y007874
X-0006201Y0061024
X0001476Y0057087
X0Y005315
X-0000295Y0049213
X-0003347Y0045276
X-0006988Y0041339
X-0008701Y0037402
X-0001221
X0001929Y0033465
X-0005158
X-0008701Y0029528
X-0001221
X0001929Y0025591
X-0005158
X000748Y0014764
X0011417
X0015551Y0014469
X0023031
X0022835Y0025591
X0018996
X0020177Y0029528
X0020866Y0033465
X0018996Y0037402
X0028346
X0025098Y0041339
X0027067Y0045276
X0022835Y0049213
X0026772Y005315
X0021654Y0057087
X0019291Y0061024
X0029921Y0029528
X0064567Y-000315
X0070079
X0075492Y-000315
X0081004
X0092126Y-000315
X0101575Y0093701
X0105118
X0108661
Y0097638
X0105118
X0101575
X0103051Y0109055
X0097638Y0109055
X0092126
X0081004Y0109055
X0075492
X0070079Y0109055
X0064567
X0055413Y0109055
X0049902
X0044488Y0109055
X0038976
X0043799Y0102559
X0047736
X0050984
X0054921
X0049311Y0092618
X0027657Y0090551
Y0098425
Y0106299
X0026772Y0114173
X0030217
X002185Y0110236
Y0102362
Y0094488
X-000128Y0098425
Y0106299
Y0114173
X0002067
X-0005906Y0110236
Y0102362
Y0094488
X-000128Y0090551
X004439Y0121358
X0049409Y0124016
X0048425Y0131102
X0051968
X0055512
Y0135039
X0051968
X0048425
X0074016
X0077559
X0081102
Y0131102
X0077559
X0074016
X0075Y0124016
X006998Y0121358
X0097539
X0102559Y0124016
X0101575Y0131102
X0105118
X0108661
Y0135039
X0105118
X0101575
X0121653Y0129626
X0126476
X0125295Y0118602
X0124016Y0113976
X013376Y0115453
X0138681
Y0121358
X013376
X0119882Y0121949
X0112992Y011998
X0108563Y0109055
X0120276Y0106102
X0127756
X012605Y01
X0121883Y01
Y0096063
X0117717Y01
X0130217
Y0096063
X0081102Y0097638
X0077559
X0074016
Y0093701
X0077559
X0081102
X0151575Y0102362
X0153375Y0107871
Y0111808
Y011545
X0156693Y0117323
Y0120571
X0162894Y0118602
X0165973Y0119879
Y0116847
X0168996Y0118602
X0175197Y0117323
Y0120571
X0181102Y0122047
Y011811
Y0114173
Y0110236
Y0106299
Y0102362
X0175197Y0102362
X017126
Y0098425
X0167323Y0098425
Y0102362
X0163386Y0102362
Y0098425
X0159449Y0102362
X0155512Y0098425
X0156595Y0109744
X0145669Y0108858
Y0119488
X0144291Y0132087
X0154331Y0133268
X0162697Y0126772
X0165945
X0169193
X0169882Y0132087
X0180512
X0186713Y0132185
X0192717Y0132185
X019813Y0132283
Y0125492
X0192913Y0122441
Y0117815
X019311Y0110925
X0196653Y0110925
X0196653Y0114272
X020059Y0110925
X0201378Y0107087
X0197441
X0197441Y0102362
Y0098622
X0201378Y0098622
Y0094882
X0201378Y0090158
X0197441Y0090158
X019311Y0090158
X0189173
X0189173Y0094882
Y0098622
X019311
X0201378Y0102362
X0207874Y010315
X0215846Y0108071
X0223425Y0108071
X0228248Y0109154
X023376Y0110531
Y0114469
X0236122Y0103445
Y0098622
X0235433Y0094685
X0225689Y009813
X0216831Y0089173
X0189173Y0110925
Y0114272
M30
