M48
;Layer_Color=9474304
;FILE_FORMAT=2:5
INCH,LZ
;TYPE=PLATED
T1F00S00C0.01181
T2F00S00C0.01575
;TYPE=NON_PLATED
%
T01
X0154063Y-0000101
X0186024Y-0002165
X0192028
X0191732Y0017717
X0185728Y0017618
X0185827Y002815
X0179823Y0028051
X0179921Y0038976
X0185925
X0180118Y0049114
Y0054626
X0182677Y0065059
Y0068996
Y0072835
Y0076772
X0194193Y0076673
Y0071673
Y0081673
Y0086673
X0200787Y0086713
X0199311Y0081693
X0200098Y0056673
X0154063Y0049111
X0161319Y003376
X0168012
X0143237Y0033757
Y0082969
X0161516Y0082972
X016489Y0082969
X0139862Y0082972
X0129035Y0083268
X0123031
Y0072638
X0128937
Y0060433
X0123031
Y0049803
X0128839
X0128642Y0033957
X0123031Y0034055
X012313Y0023425
X0129035
X0128937Y0011319
X0122933Y001122
X0123031Y0000591
X0129035
X010876Y-000315
X0102854
X0097933Y-0002953
X0096358Y0000787
Y0004724
X0100394
Y0000787
X0104429
Y0004724
X0102756Y0009449
Y0012598
X0102657Y0018012
Y0022736
X0108169
Y0018012
X0111024Y0014961
Y0011811
X0094685Y0014075
X0091535Y0011614
X0093602Y0007874
X0083465
Y0011811
Y0014961
X008061Y0018012
X0075098
X0075197Y0022835
X0069587Y0022933
Y0018012
X0067126Y0014075
X0063976Y0011614
X0063779Y0017028
Y0022539
X0064075Y0034547
X0070472
X0068799Y0038189
Y0042126
X0072835
Y0038189
X007687
Y0042126
X0075197Y004685
Y005
X0075098Y0055413
X0075098Y0060236
X0069587Y0060138
Y0055413
X0067126Y0051476
X0063976Y0049016
X0063779Y0054429
Y0059941
X0053543Y0060433
X0049606
Y0064961
X0053543
X0055216Y0069685
X0051279
X0050492Y0074606
X0046063Y0075
X0044783Y007815
X0044685Y0071653
X0044488Y006437
X004439Y0058661
X0048425Y0055118
X0053937
Y0049114
X0048425
X004439
X0040846Y004498
X0036122Y0044882
X0028346Y0044587
X0024213Y004498
X0026083Y0040551
X003002
X003002Y003563
X0026083
Y0031496
X003002
X0040157Y0031791
X004439
Y0035728
Y0027067
Y002313
X0040157
Y0027067
X0048622
Y002313
X0055807Y0017913
X0053839Y0012598
X0044291Y00125
X0037205Y0012402
X003563Y0003543
X0039173Y000374
X0030906
X0029724Y-000187
X002687Y0000492
X001939Y-0001083
X0025394Y0009941
X0029035
X0017717Y0019193
X001378
X0012205Y003061
Y0036122
X0012205Y0041634
Y0045039
X0016142Y0041634
X0018209Y0036909
X0018504Y0029823
X0020472Y0025787
X-0000492Y0024409
X-0004429
X-0004429Y0028346
X-0000492
Y0034646
Y0038583
X-0004921Y00375
Y0033563
Y0044685
Y0048622
X-0000295
Y0044685
X0005906Y0042717
Y0038878
X0005413Y0047244
X0000787Y0052658
X0000886Y0057382
X-0004921Y005876
Y0054823
X-0004823Y0074114
Y0078051
X-0002362Y0081201
X0001083
X0004528Y008691
X0000197Y0072342
X0008465Y0071161
Y0067224
X0022835Y006624
X0032874Y0069193
X0032185Y007559
X0023819Y0080709
X0019882
X0017717Y0075197
X0017913Y0056201
X0013976Y0051772
X0027756
X0031988Y0056988
X0033661Y0087697
X0051279Y0086221
X0055216
X0056004Y0081299
X0050492
X0056004Y0074606
X0064075Y007185
X0070669Y0072047
X0075492Y0071653
X007687Y0075591
Y0079528
X0072835
Y0075591
X0068799
Y0079528
X0066043Y0082677
X0063976Y0086417
X0075197Y0087402
Y0084252
X0083465Y0082677
Y0086614
X0091535Y0086417
X0093602Y0082677
X0096358Y0079528
Y0075591
X0100394
Y0079528
X0104429
Y0075591
X0103051Y0071653
X0098228Y007185
X0090945Y0071653
X0081398Y0071653
X008061Y0055413
X0083465Y0052362
Y0049213
Y0045276
X0093602
X0091535Y0049016
X0094685Y0051476
X0097146Y0055413
Y0060236
X0102657
Y0055413
X0108169
Y0060236
X0111024Y0052362
Y0049213
Y0045276
X0104429Y0042126
Y0038189
X0100394
Y0042126
X0096358
Y0038189
X0098032Y0034252
X0103248
X0109154
X0091634Y0034547
X0081595Y0034252
X0075689
X0066043Y0045276
X0090945Y0054232
X0091831Y0059842
X0102756Y005
Y004685
X0097146Y0022736
Y0017618
X0091043Y0016929
X0091535Y0022441
X0091437Y-0002953
X008248Y-0003248
X0076575
X007687Y0000787
Y0004724
X0072835
Y0000787
X0068799
Y0004724
X0066043Y0007874
X0075197Y0009449
Y0012598
X0071555Y-0003051
X0064665Y-000315
X0052953Y0002264
X0140059Y003376
X0108957Y0071653
X0111024Y0082677
Y0086614
X0102756Y0087402
Y0084252
X0102657Y0092815
Y0097638
X0108169
Y0092815
X0111024Y0089764
X0097146Y0092421
Y0097638
X0091535Y0097342
X0091339Y0091831
X0094685Y0088878
X0083465Y0089764
X008061Y0092815
X0075098
Y0097539
X0069587
Y0092421
X0067126Y0088878
X0063779Y0091831
Y0097342
X0063779Y0109252
X0070276
X0075295Y0109055
X0076083Y0112992
X0072244
X0068405
Y0116929
X0072244
X0076083
X0075197Y0121653
Y0124803
X0075098Y0129823
Y0135039
X0069587Y0135138
Y0129724
X0067126Y0126279
X0063976Y0123819
X0066043Y0120079
X0057874
Y0124016
Y0127165
X005502Y0129823
Y0135039
X0049508
Y0129823
X0049606Y0124803
Y0121653
X0050492Y0116929
X0046654
X0042815
Y0112992
X0046654
X0050492
X0049705Y0109055
X0044783Y010935
X0038189Y0109449
X0030807Y0108071
Y0114567
X0027067
X0023327
Y0108169
X0018209Y0106988
Y0110925
X0019685Y0101476
Y0091142
X0012057
X0015157Y0095177
X0004528Y0094291
Y0091142
X-0004823Y0094587
X-0001378Y0109646
X0002559
X0003937Y0114469
X-0002756
X0026181Y0097244
Y0093307
X0031102
Y0097244
X0024705Y0088484
X0046949Y009311
Y0097047
X0051181
Y009311
X005561Y0109055
X0081201
X0091535Y0109449
X009813Y010935
X0103051Y0109055
X0103642Y0112992
X0099803
X0095965
Y0116929
X0099803
X0103642
X0102756Y0121653
Y0124803
X0102657Y0129823
Y0135138
X0108169
Y0129823
X0111024Y0127165
Y0124016
Y0120079
X0108957Y0109055
X0122933Y0109744
X0128937
Y0099016
X0122933Y0099114
X0123327Y012185
X0129035Y0121949
X0124803Y0127067
X0123031Y013248
X0128937Y0132382
X0139961Y0132185
X0097146Y0129724
Y0135138
X0091339Y0134744
Y0129232
X0091535Y0123819
X0094685Y0126279
X0093602Y0120079
X0083465Y0124016
Y0127165
X008061Y0129823
X0063386Y0129134
Y0134646
X0043996Y0135138
Y0129626
X0041535Y0126279
X0038386Y0123819
X0040453Y0120079
X0037795Y0129232
Y0134744
X0143237Y0132182
X0161516Y0132185
X016489Y0132182
X0186122Y0133858
X0192126Y0133957
X0192323Y0113976
X0186319
X0154063Y0098324
T02
X0194193Y0031673
Y0036673
Y0041673
Y0046673
Y0051673
Y0056673
Y0061673
Y0066673
X0200098
Y0061673
Y0051673
Y0046673
Y0041673
Y0036673
Y0031673
Y0071673
Y0076673
Y0091673
Y0096673
Y0101673
X0194193
Y0096673
Y0091673
M30
